<?xml version="1.0" encoding="UTF-8" standalone="no"?>
<!DOCTYPE svg PUBLIC "-//W3C//DTD SVG 1.1//EN"
 "http://www.w3.org/Graphics/SVG/1.1/DTD/svg11.dtd">
<!-- Generated by graphviz version 2.43.0 (0)
 -->
<!-- Title: tools/lsys/lsys.cpp Pages: 1 -->
<svg width="1844pt" height="196pt"
 viewBox="0.00 0.00 1844.00 196.00" xmlns="http://www.w3.org/2000/svg" xmlns:xlink="http://www.w3.org/1999/xlink">
<g id="graph0" class="graph" transform="scale(1 1) rotate(0) translate(4 192)">
<title>tools/lsys/lsys.cpp</title>
<!-- Node1 -->
<g id="node1" class="node">
<title>Node1</title>
<g id="a_node1"><a xlink:title=" ">
<polygon fill="#bfbfbf" stroke="black" points="933,-168.5 933,-187.5 1039,-187.5 1039,-168.5 933,-168.5"/>
<text text-anchor="middle" x="986" y="-175.5" font-family="Helvetica,sans-Serif" font-size="10.00">tools/lsys/lsys.cpp</text>
</a>
</g>
</g>
<!-- Node2 -->
<g id="node2" class="node">
<title>Node2</title>
<g id="a_node2"><a xlink:href="../../d3/d44/oops_8hpp.html" target="_top" xlink:title=" ">
<polygon fill="none" stroke="black" points="832.5,-56.5 832.5,-75.5 893.5,-75.5 893.5,-56.5 832.5,-56.5"/>
<text text-anchor="middle" x="863" y="-63.5" font-family="Helvetica,sans-Serif" font-size="10.00">oops.hpp</text>
</a>
</g>
</g>
<!-- Node1&#45;&gt;Node2 -->
<g id="edge1" class="edge">
<title>Node1&#45;&gt;Node2</title>
<path fill="none" stroke="midnightblue" d="M976.35,-168.37C955.6,-149.81 906.51,-105.91 880.26,-82.44"/>
<polygon fill="midnightblue" stroke="midnightblue" points="882.39,-79.65 872.61,-75.59 877.73,-84.87 882.39,-79.65"/>
</g>
<!-- Node3 -->
<g id="node3" class="node">
<title>Node3</title>
<g id="a_node3"><a xlink:title=" ">
<polygon fill="none" stroke="#bfbfbf" points="870,-0.5 870,-19.5 914,-19.5 914,-0.5 870,-0.5"/>
<text text-anchor="middle" x="892" y="-7.5" font-family="Helvetica,sans-Serif" font-size="10.00">string</text>
</a>
</g>
</g>
<!-- Node1&#45;&gt;Node3 -->
<g id="edge57" class="edge">
<title>Node1&#45;&gt;Node3</title>
<path fill="none" stroke="midnightblue" d="M1039.33,-173.96C1068.83,-169.23 1103.21,-158.01 1122,-132 1130.99,-119.55 1142.21,-82.06 1120,-56 1095.11,-26.79 981.3,-16.14 924.48,-12.6"/>
<polygon fill="midnightblue" stroke="midnightblue" points="924.43,-9.09 914.24,-12 924.02,-16.08 924.43,-9.09"/>
</g>
<!-- Node4 -->
<g id="node4" class="node">
<title>Node4</title>
<g id="a_node4"><a xlink:href="../../d5/d08/device_8hpp.html" target="_top" xlink:title=" ">
<polygon fill="none" stroke="black" points="265,-112.5 265,-131.5 335,-131.5 335,-112.5 265,-112.5"/>
<text text-anchor="middle" x="300" y="-119.5" font-family="Helvetica,sans-Serif" font-size="10.00">device.hpp</text>
</a>
</g>
</g>
<!-- Node1&#45;&gt;Node4 -->
<g id="edge3" class="edge">
<title>Node1&#45;&gt;Node4</title>
<path fill="none" stroke="midnightblue" d="M932.78,-173.23C829.45,-165.83 594.48,-148.7 397,-132 380.13,-130.57 361.63,-128.89 345.35,-127.36"/>
<polygon fill="midnightblue" stroke="midnightblue" points="345.29,-123.84 335.01,-126.39 344.64,-130.81 345.29,-123.84"/>
</g>
<!-- Node5 -->
<g id="node5" class="node">
<title>Node5</title>
<g id="a_node5"><a xlink:title=" ">
<polygon fill="none" stroke="#bfbfbf" points="524,-0.5 524,-19.5 556,-19.5 556,-0.5 524,-0.5"/>
<text text-anchor="middle" x="540" y="-7.5" font-family="Helvetica,sans-Serif" font-size="10.00">list</text>
</a>
</g>
</g>
<!-- Node1&#45;&gt;Node5 -->
<g id="edge55" class="edge">
<title>Node1&#45;&gt;Node5</title>
<path fill="none" stroke="midnightblue" d="M932.73,-176.13C872.48,-173.51 772.43,-164.14 693,-132 634.11,-108.17 579.37,-54.29 554.32,-27.2"/>
<polygon fill="midnightblue" stroke="midnightblue" points="556.84,-24.77 547.53,-19.71 551.66,-29.47 556.84,-24.77"/>
</g>
<!-- Node10 -->
<g id="node10" class="node">
<title>Node10</title>
<g id="a_node10"><a xlink:title=" ">
<polygon fill="none" stroke="#bfbfbf" points="0,-0.5 0,-19.5 60,-19.5 60,-0.5 0,-0.5"/>
<text text-anchor="middle" x="30" y="-7.5" font-family="Helvetica,sans-Serif" font-size="10.00">iostream</text>
</a>
</g>
</g>
<!-- Node1&#45;&gt;Node10 -->
<g id="edge54" class="edge">
<title>Node1&#45;&gt;Node10</title>
<path fill="none" stroke="midnightblue" d="M932.84,-175.43C787.55,-170.88 385.94,-156.4 256,-132 175.74,-116.93 148.05,-122.62 81,-76 63.2,-63.62 48.65,-43.21 39.7,-28.56"/>
<polygon fill="midnightblue" stroke="midnightblue" points="42.49,-26.39 34.44,-19.51 36.44,-29.91 42.49,-26.39"/>
</g>
<!-- Node14 -->
<g id="node11" class="node">
<title>Node14</title>
<g id="a_node11"><a xlink:href="../../d4/d2d/net_8hpp.html" target="_top" xlink:title=" ">
<polygon fill="none" stroke="black" points="406.5,-112.5 406.5,-131.5 459.5,-131.5 459.5,-112.5 406.5,-112.5"/>
<text text-anchor="middle" x="433" y="-119.5" font-family="Helvetica,sans-Serif" font-size="10.00">net.hpp</text>
</a>
</g>
</g>
<!-- Node1&#45;&gt;Node14 -->
<g id="edge14" class="edge">
<title>Node1&#45;&gt;Node14</title>
<path fill="none" stroke="midnightblue" d="M932.98,-171.82C821.45,-160.93 565.06,-135.9 469.65,-126.58"/>
<polygon fill="midnightblue" stroke="midnightblue" points="469.91,-123.09 459.61,-125.6 469.23,-130.05 469.91,-123.09"/>
</g>
<!-- Node16 -->
<g id="node13" class="node">
<title>Node16</title>
<g id="a_node13"><a xlink:href="../../dd/d90/system_8hpp.html" target="_top" xlink:title=" ">
<polygon fill="none" stroke="black" points="949,-112.5 949,-131.5 1023,-131.5 1023,-112.5 949,-112.5"/>
<text text-anchor="middle" x="986" y="-119.5" font-family="Helvetica,sans-Serif" font-size="10.00">system.hpp</text>
</a>
</g>
</g>
<!-- Node1&#45;&gt;Node16 -->
<g id="edge22" class="edge">
<title>Node1&#45;&gt;Node16</title>
<path fill="none" stroke="midnightblue" d="M986,-168.08C986,-161.01 986,-150.86 986,-141.99"/>
<polygon fill="midnightblue" stroke="midnightblue" points="989.5,-141.75 986,-131.75 982.5,-141.75 989.5,-141.75"/>
</g>
<!-- Node19 -->
<g id="node16" class="node">
<title>Node19</title>
<g id="a_node16"><a xlink:href="../../d9/dd5/pci_8hpp.html" target="_top" xlink:title=" ">
<polygon fill="none" stroke="black" points="702,-112.5 702,-131.5 754,-131.5 754,-112.5 702,-112.5"/>
<text text-anchor="middle" x="728" y="-119.5" font-family="Helvetica,sans-Serif" font-size="10.00">pci.hpp</text>
</a>
</g>
</g>
<!-- Node1&#45;&gt;Node19 -->
<g id="edge27" class="edge">
<title>Node1&#45;&gt;Node19</title>
<path fill="none" stroke="midnightblue" d="M945.12,-168.44C895.21,-158 811.6,-140.5 764.02,-130.54"/>
<polygon fill="midnightblue" stroke="midnightblue" points="764.66,-127.1 754.15,-128.47 763.22,-133.95 764.66,-127.1"/>
</g>
<!-- Node21 -->
<g id="node18" class="node">
<title>Node21</title>
<g id="a_node18"><a xlink:title=" ">
<polygon fill="none" stroke="#bfbfbf" points="1041.5,-112.5 1041.5,-131.5 1112.5,-131.5 1112.5,-112.5 1041.5,-112.5"/>
<text text-anchor="middle" x="1077" y="-119.5" font-family="Helvetica,sans-Serif" font-size="10.00">tabular.hpp</text>
</a>
</g>
</g>
<!-- Node1&#45;&gt;Node21 -->
<g id="edge33" class="edge">
<title>Node1&#45;&gt;Node21</title>
<path fill="none" stroke="midnightblue" d="M1000.62,-168.32C1014.95,-159.82 1037.01,-146.73 1053.75,-136.8"/>
<polygon fill="midnightblue" stroke="midnightblue" points="1055.6,-139.77 1062.42,-131.65 1052.03,-133.75 1055.6,-139.77"/>
</g>
<!-- Node22 -->
<g id="node19" class="node">
<title>Node22</title>
<g id="a_node19"><a xlink:href="../../de/dad/usb_8hpp.html" target="_top" xlink:title=" ">
<polygon fill="none" stroke="black" points="792.5,-112.5 792.5,-131.5 847.5,-131.5 847.5,-112.5 792.5,-112.5"/>
<text text-anchor="middle" x="820" y="-119.5" font-family="Helvetica,sans-Serif" font-size="10.00">usb.hpp</text>
</a>
</g>
</g>
<!-- Node1&#45;&gt;Node22 -->
<g id="edge34" class="edge">
<title>Node1&#45;&gt;Node22</title>
<path fill="none" stroke="midnightblue" d="M959.7,-168.44C931.65,-159.32 887.06,-144.81 855.82,-134.65"/>
<polygon fill="midnightblue" stroke="midnightblue" points="856.77,-131.28 846.18,-131.52 854.61,-137.94 856.77,-131.28"/>
</g>
<!-- Node23 -->
<g id="node20" class="node">
<title>Node23</title>
<g id="a_node20"><a xlink:href="../../d0/d3f/util_8hpp.html" target="_top" xlink:title=" ">
<polygon fill="none" stroke="black" points="1377.5,-112.5 1377.5,-131.5 1430.5,-131.5 1430.5,-112.5 1377.5,-112.5"/>
<text text-anchor="middle" x="1404" y="-119.5" font-family="Helvetica,sans-Serif" font-size="10.00">util.hpp</text>
</a>
</g>
</g>
<!-- Node1&#45;&gt;Node23 -->
<g id="edge40" class="edge">
<title>Node1&#45;&gt;Node23</title>
<path fill="none" stroke="midnightblue" d="M1039.36,-170.11C1125.37,-158.99 1292.51,-137.4 1366.82,-127.8"/>
<polygon fill="midnightblue" stroke="midnightblue" points="1367.63,-131.23 1377.1,-126.48 1366.73,-124.29 1367.63,-131.23"/>
</g>
<!-- Node26 -->
<g id="node23" class="node">
<title>Node26</title>
<g id="a_node23"><a xlink:title=" ">
<polygon fill="none" stroke="#bfbfbf" points="1682,-56.5 1682,-75.5 1714,-75.5 1714,-56.5 1682,-56.5"/>
<text text-anchor="middle" x="1698" y="-63.5" font-family="Helvetica,sans-Serif" font-size="10.00">set</text>
</a>
</g>
</g>
<!-- Node1&#45;&gt;Node26 -->
<g id="edge56" class="edge">
<title>Node1&#45;&gt;Node26</title>
<path fill="none" stroke="midnightblue" d="M1039.13,-177.46C1124.98,-176.93 1298.86,-170.62 1440,-132 1460.33,-126.44 1462.94,-118.46 1483,-112 1561.86,-86.63 1588.19,-97.74 1672.28,-75.8"/>
<polygon fill="midnightblue" stroke="midnightblue" points="1673.23,-79.17 1681.98,-73.19 1671.42,-72.41 1673.23,-79.17"/>
</g>
<!-- Node30 -->
<g id="node27" class="node">
<title>Node30</title>
<g id="a_node27"><a xlink:title=" ">
<polygon fill="none" stroke="#bfbfbf" points="1732,-56.5 1732,-75.5 1836,-75.5 1836,-56.5 1732,-56.5"/>
<text text-anchor="middle" x="1784" y="-63.5" font-family="Helvetica,sans-Serif" font-size="10.00">leanux&#45;config.hpp</text>
</a>
</g>
</g>
<!-- Node1&#45;&gt;Node30 -->
<g id="edge50" class="edge">
<title>Node1&#45;&gt;Node30</title>
<path fill="none" stroke="midnightblue" d="M1039.06,-174.54C1148.15,-169.08 1394.13,-154.63 1475,-132 1494.52,-126.54 1496.69,-118.19 1516,-112 1535.26,-105.83 1648.91,-87.74 1721.89,-76.47"/>
<polygon fill="midnightblue" stroke="midnightblue" points="1722.56,-79.91 1731.91,-74.92 1721.49,-72.99 1722.56,-79.91"/>
</g>
<!-- Node31 -->
<g id="node28" class="node">
<title>Node31</title>
<g id="a_node28"><a xlink:href="../../da/d28/natsort_8hpp.html" target="_top" xlink:title=" ">
<polygon fill="none" stroke="black" points="1228,-112.5 1228,-131.5 1300,-131.5 1300,-112.5 1228,-112.5"/>
<text text-anchor="middle" x="1264" y="-119.5" font-family="Helvetica,sans-Serif" font-size="10.00">natsort.hpp</text>
</a>
</g>
</g>
<!-- Node1&#45;&gt;Node31 -->
<g id="edge51" class="edge">
<title>Node1&#45;&gt;Node31</title>
<path fill="none" stroke="midnightblue" d="M1030.05,-168.44C1081.29,-158.49 1165.51,-142.13 1217.7,-131.99"/>
<polygon fill="midnightblue" stroke="midnightblue" points="1218.54,-135.4 1227.69,-130.05 1217.2,-128.52 1218.54,-135.4"/>
</g>
<!-- Node32 -->
<g id="node29" class="node">
<title>Node32</title>
<g id="a_node29"><a xlink:title=" ">
<polygon fill="none" stroke="#bfbfbf" points="1525,-112.5 1525,-131.5 1589,-131.5 1589,-112.5 1525,-112.5"/>
<text text-anchor="middle" x="1557" y="-119.5" font-family="Helvetica,sans-Serif" font-size="10.00">algorithm</text>
</a>
</g>
</g>
<!-- Node1&#45;&gt;Node32 -->
<g id="edge53" class="edge">
<title>Node1&#45;&gt;Node32</title>
<path fill="none" stroke="midnightblue" d="M1039.12,-174.34C1134.14,-169.17 1339.33,-156.08 1511,-132 1512.27,-131.82 1513.56,-131.63 1514.85,-131.43"/>
<polygon fill="midnightblue" stroke="midnightblue" points="1515.62,-134.85 1524.9,-129.74 1514.46,-127.95 1515.62,-134.85"/>
</g>
<!-- Node2&#45;&gt;Node3 -->
<g id="edge2" class="edge">
<title>Node2&#45;&gt;Node3</title>
<path fill="none" stroke="midnightblue" d="M867.79,-56.08C871.76,-48.69 877.53,-37.95 882.43,-28.81"/>
<polygon fill="midnightblue" stroke="midnightblue" points="885.65,-30.22 887.3,-19.75 879.49,-26.91 885.65,-30.22"/>
</g>
<!-- Node4&#45;&gt;Node3 -->
<g id="edge5" class="edge">
<title>Node4&#45;&gt;Node3</title>
<path fill="none" stroke="midnightblue" d="M335.09,-113.33C393.46,-100.67 514.24,-74.94 617,-56 704.5,-39.88 808.22,-23.69 859.68,-15.86"/>
<polygon fill="midnightblue" stroke="midnightblue" points="860.49,-19.28 869.85,-14.32 859.44,-12.36 860.49,-19.28"/>
</g>
<!-- Node4&#45;&gt;Node5 -->
<g id="edge4" class="edge">
<title>Node4&#45;&gt;Node5</title>
<path fill="none" stroke="midnightblue" d="M299.87,-112.4C300.17,-98.41 302.91,-70.8 319,-56 347.18,-30.08 461.3,-17.5 513.6,-13"/>
<polygon fill="midnightblue" stroke="midnightblue" points="514.08,-16.48 523.76,-12.17 513.51,-9.5 514.08,-16.48"/>
</g>
<!-- Node6 -->
<g id="node6" class="node">
<title>Node6</title>
<g id="a_node6"><a xlink:title=" ">
<polygon fill="none" stroke="#bfbfbf" points="80.5,-0.5 80.5,-19.5 127.5,-19.5 127.5,-0.5 80.5,-0.5"/>
<text text-anchor="middle" x="104" y="-7.5" font-family="Helvetica,sans-Serif" font-size="10.00">vector</text>
</a>
</g>
</g>
<!-- Node4&#45;&gt;Node6 -->
<g id="edge6" class="edge">
<title>Node4&#45;&gt;Node6</title>
<path fill="none" stroke="midnightblue" d="M264.63,-118.65C210.62,-114.25 111.57,-102.68 90,-76 79.15,-62.58 85.75,-42.67 93.11,-28.42"/>
<polygon fill="midnightblue" stroke="midnightblue" points="96.22,-30.03 98.13,-19.61 90.14,-26.57 96.22,-30.03"/>
</g>
<!-- Node7 -->
<g id="node7" class="node">
<title>Node7</title>
<g id="a_node7"><a xlink:href="../../d9/db2/block_8hpp.html" target="_top" xlink:title=" ">
<polygon fill="none" stroke="red" points="170,-56.5 170,-75.5 234,-75.5 234,-56.5 170,-56.5"/>
<text text-anchor="middle" x="202" y="-63.5" font-family="Helvetica,sans-Serif" font-size="10.00">block.hpp</text>
</a>
</g>
</g>
<!-- Node4&#45;&gt;Node7 -->
<g id="edge7" class="edge">
<title>Node4&#45;&gt;Node7</title>
<path fill="none" stroke="midnightblue" d="M284.25,-112.32C268.68,-103.74 244.62,-90.49 226.54,-80.52"/>
<polygon fill="midnightblue" stroke="midnightblue" points="228.15,-77.42 217.71,-75.65 224.78,-83.55 228.15,-77.42"/>
</g>
<!-- Node7&#45;&gt;Node3 -->
<g id="edge8" class="edge">
<title>Node7&#45;&gt;Node3</title>
<path fill="none" stroke="midnightblue" d="M234.35,-62.47C350.23,-53.4 743.79,-22.6 859.65,-13.53"/>
<polygon fill="midnightblue" stroke="midnightblue" points="859.98,-17.02 869.68,-12.75 859.43,-10.04 859.98,-17.02"/>
</g>
<!-- Node7&#45;&gt;Node5 -->
<g id="edge10" class="edge">
<title>Node7&#45;&gt;Node5</title>
<path fill="none" stroke="midnightblue" d="M234.1,-59.87C300.64,-49.24 452.46,-24.99 513.69,-15.2"/>
<polygon fill="midnightblue" stroke="midnightblue" points="514.37,-18.64 523.7,-13.6 513.27,-11.73 514.37,-18.64"/>
</g>
<!-- Node7&#45;&gt;Node6 -->
<g id="edge12" class="edge">
<title>Node7&#45;&gt;Node6</title>
<path fill="none" stroke="midnightblue" d="M186.25,-56.32C170.68,-47.74 146.62,-34.49 128.54,-24.52"/>
<polygon fill="midnightblue" stroke="midnightblue" points="130.15,-21.42 119.71,-19.65 126.78,-27.55 130.15,-21.42"/>
</g>
<!-- Node8 -->
<g id="node8" class="node">
<title>Node8</title>
<g id="a_node8"><a xlink:title=" ">
<polygon fill="none" stroke="#bfbfbf" points="243.5,-0.5 243.5,-19.5 300.5,-19.5 300.5,-0.5 243.5,-0.5"/>
<text text-anchor="middle" x="272" y="-7.5" font-family="Helvetica,sans-Serif" font-size="10.00">ostream</text>
</a>
</g>
</g>
<!-- Node7&#45;&gt;Node8 -->
<g id="edge9" class="edge">
<title>Node7&#45;&gt;Node8</title>
<path fill="none" stroke="midnightblue" d="M213.25,-56.32C223.8,-48.18 239.8,-35.84 252.44,-26.09"/>
<polygon fill="midnightblue" stroke="midnightblue" points="254.77,-28.71 260.55,-19.83 250.49,-23.17 254.77,-28.71"/>
</g>
<!-- Node9 -->
<g id="node9" class="node">
<title>Node9</title>
<g id="a_node9"><a xlink:title=" ">
<polygon fill="none" stroke="#bfbfbf" points="172,-0.5 172,-19.5 210,-19.5 210,-0.5 172,-0.5"/>
<text text-anchor="middle" x="191" y="-7.5" font-family="Helvetica,sans-Serif" font-size="10.00">map</text>
</a>
</g>
</g>
<!-- Node7&#45;&gt;Node9 -->
<g id="edge11" class="edge">
<title>Node7&#45;&gt;Node9</title>
<path fill="none" stroke="midnightblue" d="M200.18,-56.08C198.73,-48.93 196.63,-38.64 194.81,-29.69"/>
<polygon fill="midnightblue" stroke="midnightblue" points="198.21,-28.85 192.78,-19.75 191.35,-30.25 198.21,-28.85"/>
</g>
<!-- Node7&#45;&gt;Node10 -->
<g id="edge13" class="edge">
<title>Node7&#45;&gt;Node10</title>
<path fill="none" stroke="midnightblue" d="M174.75,-56.44C145.56,-47.28 99.08,-32.69 66.69,-22.52"/>
<polygon fill="midnightblue" stroke="midnightblue" points="67.72,-19.17 57.13,-19.52 65.62,-25.85 67.72,-19.17"/>
</g>
<!-- Node14&#45;&gt;Node2 -->
<g id="edge15" class="edge">
<title>Node14&#45;&gt;Node2</title>
<path fill="none" stroke="midnightblue" d="M459.57,-117.66C532.33,-108.53 735.14,-83.06 822.32,-72.11"/>
<polygon fill="midnightblue" stroke="midnightblue" points="822.87,-75.57 832.36,-70.85 822,-68.62 822.87,-75.57"/>
</g>
<!-- Node14&#45;&gt;Node3 -->
<g id="edge16" class="edge">
<title>Node14&#45;&gt;Node3</title>
<path fill="none" stroke="midnightblue" d="M459.72,-114.5C508.05,-102.76 613.22,-77.24 702,-56 757.45,-42.73 822.05,-27.48 859.84,-18.57"/>
<polygon fill="midnightblue" stroke="midnightblue" points="860.83,-21.93 869.76,-16.23 859.23,-15.12 860.83,-21.93"/>
</g>
<!-- Node14&#45;&gt;Node5 -->
<g id="edge18" class="edge">
<title>Node14&#45;&gt;Node5</title>
<path fill="none" stroke="midnightblue" d="M441.4,-112.37C459.29,-93.97 501.41,-50.67 524.39,-27.05"/>
<polygon fill="midnightblue" stroke="midnightblue" points="527.18,-29.2 531.64,-19.59 522.16,-24.32 527.18,-29.2"/>
</g>
<!-- Node14&#45;&gt;Node6 -->
<g id="edge20" class="edge">
<title>Node14&#45;&gt;Node6</title>
<path fill="none" stroke="midnightblue" d="M406.18,-117.85C340.35,-109.94 174.56,-88.99 153,-76 134.53,-64.88 120.67,-43.92 112.49,-28.81"/>
<polygon fill="midnightblue" stroke="midnightblue" points="115.6,-27.2 107.94,-19.88 109.36,-30.38 115.6,-27.2"/>
</g>
<!-- Node14&#45;&gt;Node8 -->
<g id="edge17" class="edge">
<title>Node14&#45;&gt;Node8</title>
<path fill="none" stroke="midnightblue" d="M406.41,-115.09C381.81,-108.62 345.22,-96.36 319,-76 302.56,-63.23 289.29,-43.21 281.1,-28.76"/>
<polygon fill="midnightblue" stroke="midnightblue" points="284.09,-26.94 276.26,-19.8 277.93,-30.26 284.09,-26.94"/>
</g>
<!-- Node14&#45;&gt;Node9 -->
<g id="edge19" class="edge">
<title>Node14&#45;&gt;Node9</title>
<path fill="none" stroke="midnightblue" d="M406.35,-117.53C339.41,-108.7 168.95,-85.38 161,-76 148.77,-61.58 161.67,-41.34 174.15,-27.29"/>
<polygon fill="midnightblue" stroke="midnightblue" points="176.9,-29.49 181.26,-19.83 171.83,-24.66 176.9,-29.49"/>
</g>
<!-- Node15 -->
<g id="node12" class="node">
<title>Node15</title>
<g id="a_node12"><a xlink:title=" ">
<polygon fill="none" stroke="#bfbfbf" points="328.5,-56.5 328.5,-75.5 397.5,-75.5 397.5,-56.5 328.5,-56.5"/>
<text text-anchor="middle" x="363" y="-63.5" font-family="Helvetica,sans-Serif" font-size="10.00">arpa/inet.h</text>
</a>
</g>
</g>
<!-- Node14&#45;&gt;Node15 -->
<g id="edge21" class="edge">
<title>Node14&#45;&gt;Node15</title>
<path fill="none" stroke="midnightblue" d="M421.75,-112.32C411.2,-104.18 395.2,-91.84 382.56,-82.09"/>
<polygon fill="midnightblue" stroke="midnightblue" points="384.51,-79.17 374.45,-75.83 380.23,-84.71 384.51,-79.17"/>
</g>
<!-- Node16&#45;&gt;Node2 -->
<g id="edge26" class="edge">
<title>Node16&#45;&gt;Node2</title>
<path fill="none" stroke="midnightblue" d="M966.51,-112.44C946.36,-103.6 914.68,-89.69 891.67,-79.59"/>
<polygon fill="midnightblue" stroke="midnightblue" points="892.96,-76.33 882.4,-75.52 890.15,-82.74 892.96,-76.33"/>
</g>
<!-- Node16&#45;&gt;Node3 -->
<g id="edge23" class="edge">
<title>Node16&#45;&gt;Node3</title>
<path fill="none" stroke="midnightblue" d="M1020.9,-112.5C1052.35,-104.05 1095.11,-90.31 1105,-76 1110.05,-68.69 1110.6,-62.9 1105,-56 1082.63,-28.41 978.28,-17.07 924.39,-13"/>
<polygon fill="midnightblue" stroke="midnightblue" points="924.55,-9.5 914.33,-12.28 924.05,-16.48 924.55,-9.5"/>
</g>
<!-- Node17 -->
<g id="node14" class="node">
<title>Node17</title>
<g id="a_node14"><a xlink:title=" ">
<polygon fill="none" stroke="#bfbfbf" points="1040,-56.5 1040,-75.5 1096,-75.5 1096,-56.5 1040,-56.5"/>
<text text-anchor="middle" x="1068" y="-63.5" font-family="Helvetica,sans-Serif" font-size="10.00">unistd.h</text>
</a>
</g>
</g>
<!-- Node16&#45;&gt;Node17 -->
<g id="edge24" class="edge">
<title>Node16&#45;&gt;Node17</title>
<path fill="none" stroke="midnightblue" d="M999.17,-112.32C1011.85,-103.98 1031.23,-91.21 1046.21,-81.35"/>
<polygon fill="midnightblue" stroke="midnightblue" points="1048.43,-84.08 1054.86,-75.65 1044.58,-78.23 1048.43,-84.08"/>
</g>
<!-- Node18 -->
<g id="node15" class="node">
<title>Node18</title>
<g id="a_node15"><a xlink:title=" ">
<polygon fill="none" stroke="#bfbfbf" points="950,-56.5 950,-75.5 1022,-75.5 1022,-56.5 950,-56.5"/>
<text text-anchor="middle" x="986" y="-63.5" font-family="Helvetica,sans-Serif" font-size="10.00">sys/types.h</text>
</a>
</g>
</g>
<!-- Node16&#45;&gt;Node18 -->
<g id="edge25" class="edge">
<title>Node16&#45;&gt;Node18</title>
<path fill="none" stroke="midnightblue" d="M986,-112.08C986,-105.01 986,-94.86 986,-85.99"/>
<polygon fill="midnightblue" stroke="midnightblue" points="989.5,-85.75 986,-75.75 982.5,-85.75 989.5,-85.75"/>
</g>
<!-- Node19&#45;&gt;Node2 -->
<g id="edge32" class="edge">
<title>Node19&#45;&gt;Node2</title>
<path fill="none" stroke="midnightblue" d="M749.39,-112.44C771.71,-103.52 806.9,-89.44 832.21,-79.32"/>
<polygon fill="midnightblue" stroke="midnightblue" points="833.72,-82.48 841.71,-75.52 831.12,-75.98 833.72,-82.48"/>
</g>
<!-- Node19&#45;&gt;Node3 -->
<g id="edge28" class="edge">
<title>Node19&#45;&gt;Node3</title>
<path fill="none" stroke="midnightblue" d="M721.59,-112.48C712.35,-99.09 697.78,-72.91 711,-56 729.12,-32.82 812.75,-19.87 859.73,-14.31"/>
<polygon fill="midnightblue" stroke="midnightblue" points="860.18,-17.78 869.72,-13.17 859.39,-10.83 860.18,-17.78"/>
</g>
<!-- Node19&#45;&gt;Node5 -->
<g id="edge29" class="edge">
<title>Node19&#45;&gt;Node5</title>
<path fill="none" stroke="midnightblue" d="M713.25,-112.37C680.71,-93.33 602.58,-47.62 563.33,-24.65"/>
<polygon fill="midnightblue" stroke="midnightblue" points="565.08,-21.62 554.68,-19.59 561.55,-27.66 565.08,-21.62"/>
</g>
<!-- Node19&#45;&gt;Node8 -->
<g id="edge30" class="edge">
<title>Node19&#45;&gt;Node8</title>
<path fill="none" stroke="midnightblue" d="M701.8,-119.09C651.88,-114.95 540.09,-103.23 450,-76 429.44,-69.78 425.99,-63.87 406,-56 374.11,-43.44 337.14,-31.19 310.11,-22.65"/>
<polygon fill="midnightblue" stroke="midnightblue" points="310.87,-19.22 300.28,-19.57 308.77,-25.9 310.87,-19.22"/>
</g>
<!-- Node20 -->
<g id="node17" class="node">
<title>Node20</title>
<g id="a_node17"><a xlink:title=" ">
<polygon fill="none" stroke="#bfbfbf" points="720,-56.5 720,-75.5 776,-75.5 776,-56.5 720,-56.5"/>
<text text-anchor="middle" x="748" y="-63.5" font-family="Helvetica,sans-Serif" font-size="10.00">iomanip</text>
</a>
</g>
</g>
<!-- Node19&#45;&gt;Node20 -->
<g id="edge31" class="edge">
<title>Node19&#45;&gt;Node20</title>
<path fill="none" stroke="midnightblue" d="M731.3,-112.08C733.98,-104.85 737.85,-94.41 741.19,-85.4"/>
<polygon fill="midnightblue" stroke="midnightblue" points="744.57,-86.34 744.76,-75.75 738,-83.91 744.57,-86.34"/>
</g>
<!-- Node22&#45;&gt;Node2 -->
<g id="edge39" class="edge">
<title>Node22&#45;&gt;Node2</title>
<path fill="none" stroke="midnightblue" d="M827.1,-112.08C833.24,-104.38 842.27,-93.03 849.74,-83.65"/>
<polygon fill="midnightblue" stroke="midnightblue" points="852.54,-85.75 856.03,-75.75 847.06,-81.39 852.54,-85.75"/>
</g>
<!-- Node22&#45;&gt;Node3 -->
<g id="edge35" class="edge">
<title>Node22&#45;&gt;Node3</title>
<path fill="none" stroke="midnightblue" d="M847.64,-114.07C866.86,-107.66 891.09,-96 903,-76 911.49,-61.74 906.83,-42.77 901.2,-29.01"/>
<polygon fill="midnightblue" stroke="midnightblue" points="904.26,-27.29 896.9,-19.67 897.9,-30.21 904.26,-27.29"/>
</g>
<!-- Node22&#45;&gt;Node5 -->
<g id="edge36" class="edge">
<title>Node22&#45;&gt;Node5</title>
<path fill="none" stroke="midnightblue" d="M817.9,-112.23C814.02,-97.99 804.27,-70.03 785,-56 750.34,-30.77 622.39,-17.63 566.46,-12.98"/>
<polygon fill="midnightblue" stroke="midnightblue" points="566.53,-9.48 556.28,-12.17 565.97,-16.46 566.53,-9.48"/>
</g>
<!-- Node22&#45;&gt;Node8 -->
<g id="edge37" class="edge">
<title>Node22&#45;&gt;Node8</title>
<path fill="none" stroke="midnightblue" d="M792.45,-115.47C702.13,-97.34 414.82,-39.67 310.4,-18.71"/>
<polygon fill="midnightblue" stroke="midnightblue" points="311.08,-15.28 300.59,-16.74 309.71,-22.14 311.08,-15.28"/>
</g>
<!-- Node22&#45;&gt;Node20 -->
<g id="edge38" class="edge">
<title>Node22&#45;&gt;Node20</title>
<path fill="none" stroke="midnightblue" d="M808.43,-112.32C797.58,-104.18 781.12,-91.84 768.12,-82.09"/>
<polygon fill="midnightblue" stroke="midnightblue" points="769.88,-79.03 759.78,-75.83 765.68,-84.63 769.88,-79.03"/>
</g>
<!-- Node23&#45;&gt;Node3 -->
<g id="edge41" class="edge">
<title>Node23&#45;&gt;Node3</title>
<path fill="none" stroke="midnightblue" d="M1384.04,-112.48C1346.59,-96.6 1266.93,-63.43 1238,-56 1125.09,-27.02 986.41,-16.18 924.51,-12.58"/>
<polygon fill="midnightblue" stroke="midnightblue" points="924.39,-9.07 914.21,-12.01 924,-16.06 924.39,-9.07"/>
</g>
<!-- Node23&#45;&gt;Node5 -->
<g id="edge45" class="edge">
<title>Node23&#45;&gt;Node5</title>
<path fill="none" stroke="midnightblue" d="M1377.42,-113.96C1325.48,-100.48 1206.69,-71.03 1105,-56 899.07,-25.56 647.66,-14.7 566.56,-11.85"/>
<polygon fill="midnightblue" stroke="midnightblue" points="566.38,-8.34 556.27,-11.49 566.15,-15.33 566.38,-8.34"/>
</g>
<!-- Node24 -->
<g id="node21" class="node">
<title>Node24</title>
<g id="a_node21"><a xlink:title=" ">
<polygon fill="none" stroke="#bfbfbf" points="1376,-56.5 1376,-75.5 1432,-75.5 1432,-56.5 1376,-56.5"/>
<text text-anchor="middle" x="1404" y="-63.5" font-family="Helvetica,sans-Serif" font-size="10.00">sstream</text>
</a>
</g>
</g>
<!-- Node23&#45;&gt;Node24 -->
<g id="edge42" class="edge">
<title>Node23&#45;&gt;Node24</title>
<path fill="none" stroke="midnightblue" d="M1404,-112.08C1404,-105.01 1404,-94.86 1404,-85.99"/>
<polygon fill="midnightblue" stroke="midnightblue" points="1407.5,-85.75 1404,-75.75 1400.5,-85.75 1407.5,-85.75"/>
</g>
<!-- Node25 -->
<g id="node22" class="node">
<title>Node25</title>
<g id="a_node22"><a xlink:title=" ">
<polygon fill="none" stroke="#bfbfbf" points="1450.5,-56.5 1450.5,-75.5 1505.5,-75.5 1505.5,-56.5 1450.5,-56.5"/>
<text text-anchor="middle" x="1478" y="-63.5" font-family="Helvetica,sans-Serif" font-size="10.00">fstream</text>
</a>
</g>
</g>
<!-- Node23&#45;&gt;Node25 -->
<g id="edge43" class="edge">
<title>Node23&#45;&gt;Node25</title>
<path fill="none" stroke="midnightblue" d="M1415.89,-112.32C1427.15,-104.11 1444.29,-91.6 1457.71,-81.81"/>
<polygon fill="midnightblue" stroke="midnightblue" points="1459.88,-84.56 1465.89,-75.83 1455.75,-78.9 1459.88,-84.56"/>
</g>
<!-- Node23&#45;&gt;Node26 -->
<g id="edge44" class="edge">
<title>Node23&#45;&gt;Node26</title>
<path fill="none" stroke="midnightblue" d="M1430.86,-114.86C1435.56,-113.86 1440.42,-112.86 1445,-112 1542.66,-93.59 1571.82,-100.98 1671.83,-75.89"/>
<polygon fill="midnightblue" stroke="midnightblue" points="1672.91,-79.22 1681.73,-73.36 1671.18,-72.44 1672.91,-79.22"/>
</g>
<!-- Node27 -->
<g id="node24" class="node">
<title>Node27</title>
<g id="a_node24"><a xlink:title=" ">
<polygon fill="none" stroke="#bfbfbf" points="1524,-56.5 1524,-75.5 1592,-75.5 1592,-56.5 1524,-56.5"/>
<text text-anchor="middle" x="1558" y="-63.5" font-family="Helvetica,sans-Serif" font-size="10.00">sys/time.h</text>
</a>
</g>
</g>
<!-- Node23&#45;&gt;Node27 -->
<g id="edge46" class="edge">
<title>Node23&#45;&gt;Node27</title>
<path fill="none" stroke="midnightblue" d="M1428.4,-112.44C1454.2,-103.4 1495.08,-89.06 1524.02,-78.92"/>
<polygon fill="midnightblue" stroke="midnightblue" points="1525.43,-82.13 1533.71,-75.52 1523.12,-75.52 1525.43,-82.13"/>
</g>
<!-- Node28 -->
<g id="node25" class="node">
<title>Node28</title>
<g id="a_node25"><a xlink:title=" ">
<polygon fill="none" stroke="#bfbfbf" points="1610.5,-56.5 1610.5,-75.5 1663.5,-75.5 1663.5,-56.5 1610.5,-56.5"/>
<text text-anchor="middle" x="1637" y="-63.5" font-family="Helvetica,sans-Serif" font-size="10.00">regex.h</text>
</a>
</g>
</g>
<!-- Node23&#45;&gt;Node28 -->
<g id="edge47" class="edge">
<title>Node23&#45;&gt;Node28</title>
<path fill="none" stroke="midnightblue" d="M1430.81,-115.06C1466.97,-107 1533.64,-92.02 1600.43,-76.1"/>
<polygon fill="midnightblue" stroke="midnightblue" points="1601.37,-79.47 1610.28,-73.74 1599.74,-72.67 1601.37,-79.47"/>
</g>
<!-- Node29 -->
<g id="node26" class="node">
<title>Node29</title>
<g id="a_node26"><a xlink:title=" ">
<polygon fill="none" stroke="#bfbfbf" points="1304.5,-56.5 1304.5,-75.5 1357.5,-75.5 1357.5,-56.5 1304.5,-56.5"/>
<text text-anchor="middle" x="1331" y="-63.5" font-family="Helvetica,sans-Serif" font-size="10.00">string.h</text>
</a>
</g>
</g>
<!-- Node23&#45;&gt;Node29 -->
<g id="edge48" class="edge">
<title>Node23&#45;&gt;Node29</title>
<path fill="none" stroke="midnightblue" d="M1392.27,-112.32C1381.16,-104.11 1364.26,-91.6 1351.02,-81.81"/>
<polygon fill="midnightblue" stroke="midnightblue" points="1353.06,-78.97 1342.94,-75.83 1348.9,-84.59 1353.06,-78.97"/>
</g>
<!-- Node23&#45;&gt;Node30 -->
<g id="edge49" class="edge">
<title>Node23&#45;&gt;Node30</title>
<path fill="none" stroke="midnightblue" d="M1430.9,-117.26C1484.25,-109.84 1607.53,-92.63 1721.79,-76.17"/>
<polygon fill="midnightblue" stroke="midnightblue" points="1722.36,-79.62 1731.76,-74.73 1721.36,-72.69 1722.36,-79.62"/>
</g>
<!-- Node31&#45;&gt;Node3 -->
<g id="edge52" class="edge">
<title>Node31&#45;&gt;Node3</title>
<path fill="none" stroke="midnightblue" d="M1259.96,-112.07C1252.91,-97.6 1236.89,-69.32 1214,-56 1165.16,-27.58 995.75,-16.09 924.24,-12.43"/>
<polygon fill="midnightblue" stroke="midnightblue" points="924.19,-8.92 914.03,-11.93 923.85,-15.92 924.19,-8.92"/>
</g>
</g>
</svg>
