<?xml version="1.0" encoding="UTF-8" standalone="no"?>
<!DOCTYPE svg PUBLIC "-//W3C//DTD SVG 1.1//EN"
 "http://www.w3.org/Graphics/SVG/1.1/DTD/svg11.dtd">
<!-- Generated by graphviz version 2.43.0 (0)
 -->
<!-- Title: leanux::tools::lmon::View::textOut Pages: 1 -->
<svg width="284pt" height="284pt"
 viewBox="0.00 0.00 284.00 284.00" xmlns="http://www.w3.org/2000/svg" xmlns:xlink="http://www.w3.org/1999/xlink">
<g id="graph0" class="graph" transform="scale(1 1) rotate(0) translate(4 280)">
<title>leanux::tools::lmon::View::textOut</title>
<!-- Node1 -->
<g id="node1" class="node">
<title>Node1</title>
<g id="a_node1"><a xlink:title="Write text at x,y with display attrs.">
<polygon fill="#bfbfbf" stroke="black" points="166,-122.5 166,-152.5 276,-152.5 276,-122.5 166,-122.5"/>
<text text-anchor="start" x="174" y="-140.5" font-family="Helvetica,sans-Serif" font-size="10.00">leanux::tools::lmon</text>
<text text-anchor="middle" x="221" y="-129.5" font-family="Helvetica,sans-Serif" font-size="10.00">::View::textOut</text>
</a>
</g>
</g>
<!-- Node2 -->
<g id="node2" class="node">
<title>Node2</title>
<g id="a_node2"><a xlink:href="../../dc/d7e/classleanux_1_1tools_1_1lmon_1_1Header.html#a0bf159560092c7e60e8c5ece7dd87bf0" target="_top" xlink:title="Draw the header, with msg right aligned at right top.">
<polygon fill="none" stroke="black" points="10,-245.5 10,-275.5 120,-275.5 120,-245.5 10,-245.5"/>
<text text-anchor="start" x="18" y="-263.5" font-family="Helvetica,sans-Serif" font-size="10.00">leanux::tools::lmon</text>
<text text-anchor="middle" x="65" y="-252.5" font-family="Helvetica,sans-Serif" font-size="10.00">::Header::xrefresh</text>
</a>
</g>
</g>
<!-- Node1&#45;&gt;Node2 -->
<g id="edge1" class="edge">
<title>Node1&#45;&gt;Node2</title>
<path fill="none" stroke="midnightblue" d="M203.89,-160.85C187.55,-183.01 160.38,-215.9 130,-236.5 125.09,-239.83 119.66,-242.77 114.09,-245.36"/>
<polygon fill="midnightblue" stroke="midnightblue" points="206.8,-162.81 209.81,-152.65 201.12,-158.71 206.8,-162.81"/>
</g>
<!-- Node3 -->
<g id="node3" class="node">
<title>Node3</title>
<g id="a_node3"><a xlink:href="../../db/dda/classleanux_1_1tools_1_1lmon_1_1Footer.html#af73d1c7e046da00be4bf464ec0871b73" target="_top" xlink:title="refresh (redraw) the Footer.">
<polygon fill="none" stroke="black" points="10,-196.5 10,-226.5 120,-226.5 120,-196.5 10,-196.5"/>
<text text-anchor="start" x="18" y="-214.5" font-family="Helvetica,sans-Serif" font-size="10.00">leanux::tools::lmon</text>
<text text-anchor="middle" x="65" y="-203.5" font-family="Helvetica,sans-Serif" font-size="10.00">::Footer::xrefresh</text>
</a>
</g>
</g>
<!-- Node1&#45;&gt;Node3 -->
<g id="edge2" class="edge">
<title>Node1&#45;&gt;Node3</title>
<path fill="none" stroke="midnightblue" d="M186.48,-157.68C169.81,-167.31 149.17,-178.64 130,-187.5 123.21,-190.64 115.89,-193.68 108.71,-196.49"/>
<polygon fill="midnightblue" stroke="midnightblue" points="188.43,-160.59 195.3,-152.53 184.9,-154.55 188.43,-160.59"/>
</g>
<!-- Node4 -->
<g id="node4" class="node">
<title>Node4</title>
<g id="a_node4"><a xlink:href="../../da/d9f/classleanux_1_1tools_1_1lmon_1_1SysView.html#ad72b5ee6be63091f3d320a23721d5cb4" target="_top" xlink:title="refresh (redraw) the View.">
<polygon fill="none" stroke="black" points="10,-147.5 10,-177.5 120,-177.5 120,-147.5 10,-147.5"/>
<text text-anchor="start" x="18" y="-165.5" font-family="Helvetica,sans-Serif" font-size="10.00">leanux::tools::lmon</text>
<text text-anchor="middle" x="65" y="-154.5" font-family="Helvetica,sans-Serif" font-size="10.00">::SysView::xrefresh</text>
</a>
</g>
</g>
<!-- Node1&#45;&gt;Node4 -->
<g id="edge3" class="edge">
<title>Node1&#45;&gt;Node4</title>
<path fill="none" stroke="midnightblue" d="M155.48,-147.97C143.69,-149.89 131.51,-151.87 120.06,-153.72"/>
<polygon fill="midnightblue" stroke="midnightblue" points="156.4,-151.37 165.71,-146.31 155.27,-144.46 156.4,-151.37"/>
</g>
<!-- Node5 -->
<g id="node5" class="node">
<title>Node5</title>
<g id="a_node5"><a xlink:href="../../d8/d7f/classleanux_1_1tools_1_1lmon_1_1IOView.html#ad5d8db29927cc18e861cfa5ba48ecd94" target="_top" xlink:title="refresh (redraw) the View.">
<polygon fill="none" stroke="black" points="10,-98.5 10,-128.5 120,-128.5 120,-98.5 10,-98.5"/>
<text text-anchor="start" x="18" y="-116.5" font-family="Helvetica,sans-Serif" font-size="10.00">leanux::tools::lmon</text>
<text text-anchor="middle" x="65" y="-105.5" font-family="Helvetica,sans-Serif" font-size="10.00">::IOView::xrefresh</text>
</a>
</g>
</g>
<!-- Node1&#45;&gt;Node5 -->
<g id="edge4" class="edge">
<title>Node1&#45;&gt;Node5</title>
<path fill="none" stroke="midnightblue" d="M155.48,-127.44C143.69,-125.61 131.51,-123.71 120.06,-121.93"/>
<polygon fill="midnightblue" stroke="midnightblue" points="155.29,-130.96 165.71,-129.04 156.36,-124.04 155.29,-130.96"/>
</g>
<!-- Node6 -->
<g id="node6" class="node">
<title>Node6</title>
<g id="a_node6"><a xlink:href="../../d6/d0a/classleanux_1_1tools_1_1lmon_1_1ProcessView.html#af3566e8ec176744fcd254c558de68eed" target="_top" xlink:title="Refresh/redraw the ProcessView.">
<polygon fill="none" stroke="black" points="0,-49.5 0,-79.5 130,-79.5 130,-49.5 0,-49.5"/>
<text text-anchor="start" x="8" y="-67.5" font-family="Helvetica,sans-Serif" font-size="10.00">leanux::tools::lmon</text>
<text text-anchor="middle" x="65" y="-56.5" font-family="Helvetica,sans-Serif" font-size="10.00">::ProcessView::xrefresh</text>
</a>
</g>
</g>
<!-- Node1&#45;&gt;Node6 -->
<g id="edge5" class="edge">
<title>Node1&#45;&gt;Node6</title>
<path fill="none" stroke="midnightblue" d="M184.44,-117.29C168.08,-108.32 148.29,-97.91 130,-89.5 122.52,-86.06 114.43,-82.66 106.59,-79.52"/>
<polygon fill="midnightblue" stroke="midnightblue" points="183.19,-120.6 193.64,-122.38 186.58,-114.48 183.19,-120.6"/>
</g>
<!-- Node7 -->
<g id="node7" class="node">
<title>Node7</title>
<g id="a_node7"><a xlink:href="../../df/dcc/classleanux_1_1tools_1_1lmon_1_1NetView.html#a0e5c6aa931081924ece2bd2407dfc000" target="_top" xlink:title="Refresh/redraw the ProcessView.">
<polygon fill="none" stroke="black" points="10,-0.5 10,-30.5 120,-30.5 120,-0.5 10,-0.5"/>
<text text-anchor="start" x="18" y="-18.5" font-family="Helvetica,sans-Serif" font-size="10.00">leanux::tools::lmon</text>
<text text-anchor="middle" x="65" y="-7.5" font-family="Helvetica,sans-Serif" font-size="10.00">::NetView::xrefresh</text>
</a>
</g>
</g>
<!-- Node1&#45;&gt;Node7 -->
<g id="edge6" class="edge">
<title>Node1&#45;&gt;Node7</title>
<path fill="none" stroke="midnightblue" d="M203.45,-114.36C186.96,-92.74 159.84,-60.81 130,-40.5 124.48,-36.74 118.31,-33.43 112.04,-30.55"/>
<polygon fill="midnightblue" stroke="midnightblue" points="200.65,-116.46 209.44,-122.38 206.26,-112.27 200.65,-116.46"/>
</g>
</g>
</svg>
