<?xml version="1.0" encoding="UTF-8" standalone="no"?>
<!DOCTYPE svg PUBLIC "-//W3C//DTD SVG 1.1//EN"
 "http://www.w3.org/Graphics/SVG/1.1/DTD/svg11.dtd">
<!-- Generated by graphviz version 2.43.0 (0)
 -->
<!-- Title: leanux::tools::lmon::View::View Pages: 1 -->
<svg width="318pt" height="235pt"
 viewBox="0.00 0.00 318.00 235.00" xmlns="http://www.w3.org/2000/svg" xmlns:xlink="http://www.w3.org/1999/xlink">
<g id="graph0" class="graph" transform="scale(1 1) rotate(0) translate(4 231)">
<title>leanux::tools::lmon::View::View</title>
<!-- Node1 -->
<g id="node1" class="node">
<title>Node1</title>
<g id="a_node1"><a xlink:title="The constructor specifies location and size of the View on the Screen.">
<polygon fill="#bfbfbf" stroke="black" points="0,-98.5 0,-128.5 110,-128.5 110,-98.5 0,-98.5"/>
<text text-anchor="start" x="8" y="-116.5" font-family="Helvetica,sans-Serif" font-size="10.00">leanux::tools::lmon</text>
<text text-anchor="middle" x="55" y="-105.5" font-family="Helvetica,sans-Serif" font-size="10.00">::View::View</text>
</a>
</g>
</g>
<!-- Node2 -->
<g id="node2" class="node">
<title>Node2</title>
<g id="a_node2"><a xlink:href="../../d9/d1b/classleanux_1_1tools_1_1lmon_1_1Palette.html#a60717c2d5607a21a597210033e17ddca" target="_top" xlink:title="get blocked process color.">
<polygon fill="none" stroke="black" points="146.5,-196.5 146.5,-226.5 309.5,-226.5 309.5,-196.5 146.5,-196.5"/>
<text text-anchor="start" x="154.5" y="-214.5" font-family="Helvetica,sans-Serif" font-size="10.00">leanux::tools::lmon</text>
<text text-anchor="middle" x="228" y="-203.5" font-family="Helvetica,sans-Serif" font-size="10.00">::Palette::getColorBlockedProc</text>
</a>
</g>
</g>
<!-- Node1&#45;&gt;Node2 -->
<g id="edge1" class="edge">
<title>Node1&#45;&gt;Node2</title>
<path fill="none" stroke="midnightblue" d="M70.55,-128.67C87.3,-145.31 116.34,-171.75 146,-187.5 149.47,-189.34 153.1,-191.06 156.82,-192.67"/>
<polygon fill="midnightblue" stroke="midnightblue" points="155.63,-195.96 166.22,-196.41 158.22,-189.46 155.63,-195.96"/>
</g>
<!-- Node3 -->
<g id="node3" class="node">
<title>Node3</title>
<g id="a_node3"><a xlink:href="../../d9/d1b/classleanux_1_1tools_1_1lmon_1_1Palette.html#abe740173ec1c90116776456d9cfd388f" target="_top" xlink:title="get bold text color.">
<polygon fill="none" stroke="black" points="155,-147.5 155,-177.5 301,-177.5 301,-147.5 155,-147.5"/>
<text text-anchor="start" x="163" y="-165.5" font-family="Helvetica,sans-Serif" font-size="10.00">leanux::tools::lmon</text>
<text text-anchor="middle" x="228" y="-154.5" font-family="Helvetica,sans-Serif" font-size="10.00">::Palette::getColorBoldText</text>
</a>
</g>
</g>
<!-- Node1&#45;&gt;Node3 -->
<g id="edge2" class="edge">
<title>Node1&#45;&gt;Node3</title>
<path fill="none" stroke="midnightblue" d="M108.7,-128.6C126.42,-133.68 146.35,-139.39 164.73,-144.66"/>
<polygon fill="midnightblue" stroke="midnightblue" points="163.9,-148.06 174.47,-147.45 165.82,-141.33 163.9,-148.06"/>
</g>
<!-- Node4 -->
<g id="node4" class="node">
<title>Node4</title>
<g id="a_node4"><a xlink:href="../../d9/d1b/classleanux_1_1tools_1_1lmon_1_1Palette.html#a152f70ca80f5291a75d935070b2ec93b" target="_top" xlink:title="get normal text color.">
<polygon fill="none" stroke="black" points="166,-98.5 166,-128.5 290,-128.5 290,-98.5 166,-98.5"/>
<text text-anchor="start" x="174" y="-116.5" font-family="Helvetica,sans-Serif" font-size="10.00">leanux::tools::lmon</text>
<text text-anchor="middle" x="228" y="-105.5" font-family="Helvetica,sans-Serif" font-size="10.00">::Palette::getColorLine</text>
</a>
</g>
</g>
<!-- Node1&#45;&gt;Node4 -->
<g id="edge3" class="edge">
<title>Node1&#45;&gt;Node4</title>
<path fill="none" stroke="midnightblue" d="M110.11,-113.5C124.5,-113.5 140.26,-113.5 155.43,-113.5"/>
<polygon fill="midnightblue" stroke="midnightblue" points="155.81,-117 165.81,-113.5 155.81,-110 155.81,-117"/>
</g>
<!-- Node5 -->
<g id="node5" class="node">
<title>Node5</title>
<g id="a_node5"><a xlink:href="../../d9/d1b/classleanux_1_1tools_1_1lmon_1_1Palette.html#afcf64f0a46c92aaf04abf7567afd7861" target="_top" xlink:title="get running process color.">
<polygon fill="none" stroke="black" points="146,-49.5 146,-79.5 310,-79.5 310,-49.5 146,-49.5"/>
<text text-anchor="start" x="154" y="-67.5" font-family="Helvetica,sans-Serif" font-size="10.00">leanux::tools::lmon</text>
<text text-anchor="middle" x="228" y="-56.5" font-family="Helvetica,sans-Serif" font-size="10.00">::Palette::getColorRunningProc</text>
</a>
</g>
</g>
<!-- Node1&#45;&gt;Node5 -->
<g id="edge4" class="edge">
<title>Node1&#45;&gt;Node5</title>
<path fill="none" stroke="midnightblue" d="M108.7,-98.4C126.42,-93.32 146.35,-87.61 164.73,-82.34"/>
<polygon fill="midnightblue" stroke="midnightblue" points="165.82,-85.67 174.47,-79.55 163.9,-78.94 165.82,-85.67"/>
</g>
<!-- Node6 -->
<g id="node6" class="node">
<title>Node6</title>
<g id="a_node6"><a xlink:href="../../d9/d1b/classleanux_1_1tools_1_1lmon_1_1Palette.html#a56ffcc2e0532e3dc92220cba0e631d0a" target="_top" xlink:title="get normal text color.">
<polygon fill="none" stroke="black" points="166,-0.5 166,-30.5 290,-30.5 290,-0.5 166,-0.5"/>
<text text-anchor="start" x="174" y="-18.5" font-family="Helvetica,sans-Serif" font-size="10.00">leanux::tools::lmon</text>
<text text-anchor="middle" x="228" y="-7.5" font-family="Helvetica,sans-Serif" font-size="10.00">::Palette::getColorText</text>
</a>
</g>
</g>
<!-- Node1&#45;&gt;Node6 -->
<g id="edge5" class="edge">
<title>Node1&#45;&gt;Node6</title>
<path fill="none" stroke="midnightblue" d="M70.93,-98.31C87.79,-81.94 116.72,-56.14 146,-40.5 150.16,-38.28 154.55,-36.22 159.05,-34.32"/>
<polygon fill="midnightblue" stroke="midnightblue" points="160.37,-37.56 168.39,-30.64 157.8,-31.05 160.37,-37.56"/>
</g>
</g>
</svg>
