<?xml version="1.0" encoding="UTF-8" standalone="no"?>
<!DOCTYPE svg PUBLIC "-//W3C//DTD SVG 1.1//EN"
 "http://www.w3.org/Graphics/SVG/1.1/DTD/svg11.dtd">
<!-- Generated by graphviz version 2.43.0 (0)
 -->
<!-- Title: lib/usb.hpp Pages: 1 -->
<svg width="283pt" height="140pt"
 viewBox="0.00 0.00 282.89 140.00" xmlns="http://www.w3.org/2000/svg" xmlns:xlink="http://www.w3.org/1999/xlink">
<g id="graph0" class="graph" transform="scale(1 1) rotate(0) translate(4 136)">
<title>lib/usb.hpp</title>
<!-- Node1 -->
<g id="node1" class="node">
<title>Node1</title>
<g id="a_node1"><a xlink:title=" ">
<polygon fill="#bfbfbf" stroke="black" points="57.39,-112.5 57.39,-131.5 127.39,-131.5 127.39,-112.5 57.39,-112.5"/>
<text text-anchor="middle" x="92.39" y="-119.5" font-family="Helvetica,sans-Serif" font-size="10.00">lib/usb.hpp</text>
</a>
</g>
</g>
<!-- Node2 -->
<g id="node2" class="node">
<title>Node2</title>
<g id="a_node2"><a xlink:title=" ">
<polygon fill="none" stroke="#bfbfbf" points="92.39,-0.5 92.39,-19.5 136.39,-19.5 136.39,-0.5 92.39,-0.5"/>
<text text-anchor="middle" x="114.39" y="-7.5" font-family="Helvetica,sans-Serif" font-size="10.00">string</text>
</a>
</g>
</g>
<!-- Node1&#45;&gt;Node2 -->
<g id="edge1" class="edge">
<title>Node1&#45;&gt;Node2</title>
<path fill="none" stroke="midnightblue" d="M61.47,-112.44C29.55,-101.97 -13.29,-82.33 4.39,-56 21.58,-30.4 56.17,-19.36 82,-14.6"/>
<polygon fill="midnightblue" stroke="midnightblue" points="82.8,-18.01 92.11,-12.96 81.68,-11.1 82.8,-18.01"/>
</g>
<!-- Node3 -->
<g id="node3" class="node">
<title>Node3</title>
<g id="a_node3"><a xlink:title=" ">
<polygon fill="none" stroke="#bfbfbf" points="13.39,-56.5 13.39,-75.5 45.39,-75.5 45.39,-56.5 13.39,-56.5"/>
<text text-anchor="middle" x="29.39" y="-63.5" font-family="Helvetica,sans-Serif" font-size="10.00">list</text>
</a>
</g>
</g>
<!-- Node1&#45;&gt;Node3 -->
<g id="edge2" class="edge">
<title>Node1&#45;&gt;Node3</title>
<path fill="none" stroke="midnightblue" d="M82.27,-112.32C72.86,-104.26 58.65,-92.08 47.32,-82.37"/>
<polygon fill="midnightblue" stroke="midnightblue" points="49.57,-79.68 39.7,-75.83 45.01,-85 49.57,-79.68"/>
</g>
<!-- Node4 -->
<g id="node4" class="node">
<title>Node4</title>
<g id="a_node4"><a xlink:title=" ">
<polygon fill="none" stroke="#bfbfbf" points="63.89,-56.5 63.89,-75.5 120.89,-75.5 120.89,-56.5 63.89,-56.5"/>
<text text-anchor="middle" x="92.39" y="-63.5" font-family="Helvetica,sans-Serif" font-size="10.00">ostream</text>
</a>
</g>
</g>
<!-- Node1&#45;&gt;Node4 -->
<g id="edge3" class="edge">
<title>Node1&#45;&gt;Node4</title>
<path fill="none" stroke="midnightblue" d="M92.39,-112.08C92.39,-105.01 92.39,-94.86 92.39,-85.99"/>
<polygon fill="midnightblue" stroke="midnightblue" points="95.89,-85.75 92.39,-75.75 88.89,-85.75 95.89,-85.75"/>
</g>
<!-- Node5 -->
<g id="node5" class="node">
<title>Node5</title>
<g id="a_node5"><a xlink:title=" ">
<polygon fill="none" stroke="#bfbfbf" points="139.39,-56.5 139.39,-75.5 195.39,-75.5 195.39,-56.5 139.39,-56.5"/>
<text text-anchor="middle" x="167.39" y="-63.5" font-family="Helvetica,sans-Serif" font-size="10.00">iomanip</text>
</a>
</g>
</g>
<!-- Node1&#45;&gt;Node5 -->
<g id="edge4" class="edge">
<title>Node1&#45;&gt;Node5</title>
<path fill="none" stroke="midnightblue" d="M104.44,-112.32C115.85,-104.11 133.22,-91.6 146.83,-81.81"/>
<polygon fill="midnightblue" stroke="midnightblue" points="149.05,-84.52 155.12,-75.83 144.96,-78.84 149.05,-84.52"/>
</g>
<!-- Node6 -->
<g id="node6" class="node">
<title>Node6</title>
<g id="a_node6"><a xlink:href="../../d3/d44/oops_8hpp.html" target="_top" xlink:title=" ">
<polygon fill="none" stroke="black" points="213.89,-56.5 213.89,-75.5 274.89,-75.5 274.89,-56.5 213.89,-56.5"/>
<text text-anchor="middle" x="244.39" y="-63.5" font-family="Helvetica,sans-Serif" font-size="10.00">oops.hpp</text>
</a>
</g>
</g>
<!-- Node1&#45;&gt;Node6 -->
<g id="edge5" class="edge">
<title>Node1&#45;&gt;Node6</title>
<path fill="none" stroke="midnightblue" d="M116.48,-112.44C141.94,-103.4 182.29,-89.06 210.85,-78.92"/>
<polygon fill="midnightblue" stroke="midnightblue" points="212.17,-82.16 220.42,-75.52 209.82,-75.57 212.17,-82.16"/>
</g>
<!-- Node6&#45;&gt;Node2 -->
<g id="edge6" class="edge">
<title>Node6&#45;&gt;Node2</title>
<path fill="none" stroke="midnightblue" d="M223.79,-56.44C202.4,-47.56 168.71,-33.56 144.37,-23.45"/>
<polygon fill="midnightblue" stroke="midnightblue" points="145.47,-20.12 134.89,-19.52 142.79,-26.58 145.47,-20.12"/>
</g>
</g>
</svg>
