<?xml version="1.0" encoding="UTF-8" standalone="no"?>
<!DOCTYPE svg PUBLIC "-//W3C//DTD SVG 1.1//EN"
 "http://www.w3.org/Graphics/SVG/1.1/DTD/svg11.dtd">
<!-- Generated by graphviz version 2.43.0 (0)
 -->
<!-- Title: leanux::tools::lmon::RealtimeSampler::sampleXIOView Pages: 1 -->
<svg width="578pt" height="100pt"
 viewBox="0.00 0.00 578.00 99.50" xmlns="http://www.w3.org/2000/svg" xmlns:xlink="http://www.w3.org/1999/xlink">
<g id="graph0" class="graph" transform="scale(1 1) rotate(0) translate(4 95.5)">
<title>leanux::tools::lmon::RealtimeSampler::sampleXIOView</title>
<!-- Node1 -->
<g id="node1" class="node">
<title>Node1</title>
<g id="a_node1"><a xlink:title=" ">
<polygon fill="#bfbfbf" stroke="black" points="379,-27.5 379,-57.5 570,-57.5 570,-27.5 379,-27.5"/>
<text text-anchor="start" x="387" y="-45.5" font-family="Helvetica,sans-Serif" font-size="10.00">leanux::tools::lmon</text>
<text text-anchor="middle" x="474.5" y="-34.5" font-family="Helvetica,sans-Serif" font-size="10.00">::RealtimeSampler::sampleXIOView</text>
</a>
</g>
</g>
<!-- Node2 -->
<g id="node2" class="node">
<title>Node2</title>
<g id="a_node2"><a xlink:href="../../da/d21/classleanux_1_1tools_1_1lmon_1_1RealtimeSampler.html#a9522a4a46961eb4f75d3207da1efd07f" target="_top" xlink:title="Sample a snapshot.">
<polygon fill="none" stroke="black" points="194,-27.5 194,-57.5 343,-57.5 343,-27.5 194,-27.5"/>
<text text-anchor="start" x="202" y="-45.5" font-family="Helvetica,sans-Serif" font-size="10.00">leanux::tools::lmon</text>
<text text-anchor="middle" x="268.5" y="-34.5" font-family="Helvetica,sans-Serif" font-size="10.00">::RealtimeSampler::sample</text>
</a>
</g>
</g>
<!-- Node1&#45;&gt;Node2 -->
<g id="edge1" class="edge">
<title>Node1&#45;&gt;Node2</title>
<path fill="none" stroke="midnightblue" d="M368.83,-42.5C360.2,-42.5 351.59,-42.5 343.26,-42.5"/>
<polygon fill="midnightblue" stroke="midnightblue" points="368.96,-46 378.96,-42.5 368.96,-39 368.96,-46"/>
</g>
<!-- Node3 -->
<g id="node3" class="node">
<title>Node3</title>
<g id="a_node3"><a xlink:href="../../da/d21/classleanux_1_1tools_1_1lmon_1_1RealtimeSampler.html#a792fec91ecc8ca43919fbab7e89cd840" target="_top" xlink:title="Constructor.">
<polygon fill="none" stroke="black" points="0,-50 0,-91 158,-91 158,-50 0,-50"/>
<text text-anchor="start" x="8" y="-79" font-family="Helvetica,sans-Serif" font-size="10.00">leanux::tools::lmon</text>
<text text-anchor="start" x="8" y="-68" font-family="Helvetica,sans-Serif" font-size="10.00">::RealtimeSampler::Realtime</text>
<text text-anchor="middle" x="79" y="-57" font-family="Helvetica,sans-Serif" font-size="10.00">Sampler</text>
</a>
</g>
</g>
<!-- Node2&#45;&gt;Node3 -->
<g id="edge2" class="edge">
<title>Node2&#45;&gt;Node3</title>
<path fill="none" stroke="midnightblue" d="M183.98,-54.97C175.44,-56.25 166.78,-57.54 158.3,-58.81"/>
<polygon fill="midnightblue" stroke="midnightblue" points="184.56,-58.42 193.93,-53.49 183.53,-51.5 184.56,-58.42"/>
</g>
<!-- Node4 -->
<g id="node4" class="node">
<title>Node4</title>
<g id="a_node4"><a xlink:href="../../d5/de6/classleanux_1_1tools_1_1lmon_1_1Screen.html#aa3dfc925603031c15d1cd88405ca3c11" target="_top" xlink:title="Run the Screen in realtime mode.">
<polygon fill="none" stroke="red" points="18,-0.5 18,-30.5 140,-30.5 140,-0.5 18,-0.5"/>
<text text-anchor="start" x="26" y="-18.5" font-family="Helvetica,sans-Serif" font-size="10.00">leanux::tools::lmon</text>
<text text-anchor="middle" x="79" y="-7.5" font-family="Helvetica,sans-Serif" font-size="10.00">::Screen::runRealtime</text>
</a>
</g>
</g>
<!-- Node2&#45;&gt;Node4 -->
<g id="edge3" class="edge">
<title>Node2&#45;&gt;Node4</title>
<path fill="none" stroke="midnightblue" d="M183.8,-30.45C169.06,-28.33 153.99,-26.15 140.06,-24.15"/>
<polygon fill="midnightblue" stroke="midnightblue" points="183.54,-33.95 193.93,-31.91 184.53,-27.02 183.54,-33.95"/>
</g>
</g>
</svg>
