<?xml version="1.0" encoding="UTF-8" standalone="no"?>
<!DOCTYPE svg PUBLIC "-//W3C//DTD SVG 1.1//EN"
 "http://www.w3.org/Graphics/SVG/1.1/DTD/svg11.dtd">
<!-- Generated by graphviz version 2.43.0 (0)
 -->
<!-- Title: leanux::tools::lmon::RealtimeSampler::RealtimeSampler Pages: 1 -->
<svg width="596pt" height="189pt"
 viewBox="0.00 0.00 596.00 188.50" xmlns="http://www.w3.org/2000/svg" xmlns:xlink="http://www.w3.org/1999/xlink">
<g id="graph0" class="graph" transform="scale(1 1) rotate(0) translate(4 184.5)">
<title>leanux::tools::lmon::RealtimeSampler::RealtimeSampler</title>
<!-- Node1 -->
<g id="node1" class="node">
<title>Node1</title>
<g id="a_node1"><a xlink:title="Constructor.">
<polygon fill="#bfbfbf" stroke="black" points="0,-112 0,-153 158,-153 158,-112 0,-112"/>
<text text-anchor="start" x="8" y="-141" font-family="Helvetica,sans-Serif" font-size="10.00">leanux::tools::lmon</text>
<text text-anchor="start" x="8" y="-130" font-family="Helvetica,sans-Serif" font-size="10.00">::RealtimeSampler::Realtime</text>
<text text-anchor="middle" x="79" y="-119" font-family="Helvetica,sans-Serif" font-size="10.00">Sampler</text>
</a>
</g>
</g>
<!-- Node2 -->
<g id="node2" class="node">
<title>Node2</title>
<g id="a_node2"><a xlink:href="../../da/da3/namespaceleanux_1_1cpu.html#a704d21d69d40fe49b1cf8f2b77fd5664" target="_top" xlink:title="Get CPU info.">
<polygon fill="none" stroke="black" points="205.5,-161 205.5,-180 339.5,-180 339.5,-161 205.5,-161"/>
<text text-anchor="middle" x="272.5" y="-168" font-family="Helvetica,sans-Serif" font-size="10.00">leanux::cpu::getCPUInfo</text>
</a>
</g>
</g>
<!-- Node1&#45;&gt;Node2 -->
<g id="edge1" class="edge">
<title>Node1&#45;&gt;Node2</title>
<path fill="none" stroke="midnightblue" d="M158.17,-148.01C176.67,-151.68 196.08,-155.53 213.5,-158.99"/>
<polygon fill="midnightblue" stroke="midnightblue" points="213.02,-162.46 223.51,-160.98 214.38,-155.6 213.02,-162.46"/>
</g>
<!-- Node3 -->
<g id="node3" class="node">
<title>Node3</title>
<g id="a_node3"><a xlink:href="../../dd/d42/namespaceleanux_1_1system.html#a52dc747f7af9f66fabb1ccfd72c7c450" target="_top" xlink:title="Get the system page size.">
<polygon fill="none" stroke="black" points="194,-123 194,-142 351,-142 351,-123 194,-123"/>
<text text-anchor="middle" x="272.5" y="-130" font-family="Helvetica,sans-Serif" font-size="10.00">leanux::system::getPageSize</text>
</a>
</g>
</g>
<!-- Node1&#45;&gt;Node3 -->
<g id="edge2" class="edge">
<title>Node1&#45;&gt;Node3</title>
<path fill="none" stroke="midnightblue" d="M158.17,-132.5C166.64,-132.5 175.31,-132.5 183.88,-132.5"/>
<polygon fill="midnightblue" stroke="midnightblue" points="183.89,-136 193.89,-132.5 183.89,-129 183.89,-136"/>
</g>
<!-- Node4 -->
<g id="node4" class="node">
<title>Node4</title>
<g id="a_node4"><a xlink:href="../../da/d21/classleanux_1_1tools_1_1lmon_1_1RealtimeSampler.html#a9522a4a46961eb4f75d3207da1efd07f" target="_top" xlink:title="Sample a snapshot.">
<polygon fill="none" stroke="black" points="198,-73.5 198,-103.5 347,-103.5 347,-73.5 198,-73.5"/>
<text text-anchor="start" x="206" y="-91.5" font-family="Helvetica,sans-Serif" font-size="10.00">leanux::tools::lmon</text>
<text text-anchor="middle" x="272.5" y="-80.5" font-family="Helvetica,sans-Serif" font-size="10.00">::RealtimeSampler::sample</text>
</a>
</g>
</g>
<!-- Node1&#45;&gt;Node4 -->
<g id="edge3" class="edge">
<title>Node1&#45;&gt;Node4</title>
<path fill="none" stroke="midnightblue" d="M158.17,-114.54C170.73,-111.65 183.72,-108.67 196.22,-105.8"/>
<polygon fill="midnightblue" stroke="midnightblue" points="197.16,-109.17 206.12,-103.52 195.59,-102.35 197.16,-109.17"/>
</g>
<!-- Node5 -->
<g id="node5" class="node">
<title>Node5</title>
<g id="a_node5"><a xlink:href="../../da/d21/classleanux_1_1tools_1_1lmon_1_1RealtimeSampler.html#ae43e18aacfceb09eb9bd70db9c67fc98" target="_top" xlink:title=" ">
<polygon fill="none" stroke="red" points="392,-147.5 392,-177.5 583,-177.5 583,-147.5 392,-147.5"/>
<text text-anchor="start" x="400" y="-165.5" font-family="Helvetica,sans-Serif" font-size="10.00">leanux::tools::lmon</text>
<text text-anchor="middle" x="487.5" y="-154.5" font-family="Helvetica,sans-Serif" font-size="10.00">::RealtimeSampler::sampleXIOView</text>
</a>
</g>
</g>
<!-- Node4&#45;&gt;Node5 -->
<g id="edge4" class="edge">
<title>Node4&#45;&gt;Node5</title>
<path fill="none" stroke="midnightblue" d="M327.27,-103.56C335.38,-106.48 343.52,-109.8 351,-113.5 368.46,-122.14 369.23,-130.52 387,-138.5 391.64,-140.58 396.49,-142.5 401.44,-144.26"/>
<polygon fill="midnightblue" stroke="midnightblue" points="400.47,-147.63 411.07,-147.47 402.68,-140.99 400.47,-147.63"/>
</g>
<!-- Node23 -->
<g id="node6" class="node">
<title>Node23</title>
<g id="a_node6"><a xlink:href="../../da/d21/classleanux_1_1tools_1_1lmon_1_1RealtimeSampler.html#a38271e7bf2e0c59ad4648027b7802d8d" target="_top" xlink:title=" ">
<polygon fill="none" stroke="red" points="389,-98.5 389,-128.5 586,-128.5 586,-98.5 389,-98.5"/>
<text text-anchor="start" x="397" y="-116.5" font-family="Helvetica,sans-Serif" font-size="10.00">leanux::tools::lmon</text>
<text text-anchor="middle" x="487.5" y="-105.5" font-family="Helvetica,sans-Serif" font-size="10.00">::RealtimeSampler::sampleXNetView</text>
</a>
</g>
</g>
<!-- Node4&#45;&gt;Node23 -->
<g id="edge5" class="edge">
<title>Node4&#45;&gt;Node23</title>
<path fill="none" stroke="midnightblue" d="M347.1,-97.14C357.31,-98.34 367.96,-99.59 378.63,-100.84"/>
<polygon fill="midnightblue" stroke="midnightblue" points="378.51,-104.35 388.85,-102.04 379.33,-97.4 378.51,-104.35"/>
</g>
<!-- Node33 -->
<g id="node7" class="node">
<title>Node33</title>
<g id="a_node7"><a xlink:href="../../da/d21/classleanux_1_1tools_1_1lmon_1_1RealtimeSampler.html#af80582780bfa40a11a40e647f9657d0f" target="_top" xlink:title=" ">
<polygon fill="none" stroke="red" points="387,-49.5 387,-79.5 588,-79.5 588,-49.5 387,-49.5"/>
<text text-anchor="start" x="395" y="-67.5" font-family="Helvetica,sans-Serif" font-size="10.00">leanux::tools::lmon</text>
<text text-anchor="middle" x="487.5" y="-56.5" font-family="Helvetica,sans-Serif" font-size="10.00">::RealtimeSampler::sampleXProcView</text>
</a>
</g>
</g>
<!-- Node4&#45;&gt;Node33 -->
<g id="edge6" class="edge">
<title>Node4&#45;&gt;Node33</title>
<path fill="none" stroke="midnightblue" d="M347.1,-80.21C356.75,-79.12 366.8,-77.99 376.89,-76.85"/>
<polygon fill="midnightblue" stroke="midnightblue" points="377.43,-80.31 386.97,-75.71 376.64,-73.36 377.43,-80.31"/>
</g>
<!-- Node44 -->
<g id="node8" class="node">
<title>Node44</title>
<g id="a_node8"><a xlink:href="../../da/d21/classleanux_1_1tools_1_1lmon_1_1RealtimeSampler.html#a8de42eb5d528bfa157565a81a16ae5bd" target="_top" xlink:title=" ">
<polygon fill="none" stroke="red" points="389,-0.5 389,-30.5 586,-30.5 586,-0.5 389,-0.5"/>
<text text-anchor="start" x="397" y="-18.5" font-family="Helvetica,sans-Serif" font-size="10.00">leanux::tools::lmon</text>
<text text-anchor="middle" x="487.5" y="-7.5" font-family="Helvetica,sans-Serif" font-size="10.00">::RealtimeSampler::sampleXSysView</text>
</a>
</g>
</g>
<!-- Node4&#45;&gt;Node44 -->
<g id="edge7" class="edge">
<title>Node4&#45;&gt;Node44</title>
<path fill="none" stroke="midnightblue" d="M305.77,-73.28C328.21,-63.09 359,-49.88 387,-40.5 394.62,-37.95 402.65,-35.52 410.71,-33.25"/>
<polygon fill="midnightblue" stroke="midnightblue" points="411.8,-36.58 420.52,-30.56 409.95,-29.82 411.8,-36.58"/>
</g>
</g>
</svg>
