<?xml version="1.0" encoding="UTF-8" standalone="no"?>
<!DOCTYPE svg PUBLIC "-//W3C//DTD SVG 1.1//EN"
 "http://www.w3.org/Graphics/SVG/1.1/DTD/svg11.dtd">
<!-- Generated by graphviz version 2.43.0 (0)
 -->
<!-- Title: leanux::tools::lmon::RealtimeSampler::sample Pages: 1 -->
<svg width="800pt" height="1197pt"
 viewBox="0.00 0.00 800.00 1197.00" xmlns="http://www.w3.org/2000/svg" xmlns:xlink="http://www.w3.org/1999/xlink">
<g id="graph0" class="graph" transform="scale(1 1) rotate(0) translate(4 1193)">
<title>leanux::tools::lmon::RealtimeSampler::sample</title>
<!-- Node1 -->
<g id="node1" class="node">
<title>Node1</title>
<g id="a_node1"><a xlink:title="Sample a snapshot.">
<polygon fill="#bfbfbf" stroke="black" points="0,-832 0,-862 149,-862 149,-832 0,-832"/>
<text text-anchor="start" x="8" y="-850" font-family="Helvetica,sans-Serif" font-size="10.00">leanux::tools::lmon</text>
<text text-anchor="middle" x="74.5" y="-839" font-family="Helvetica,sans-Serif" font-size="10.00">::RealtimeSampler::sample</text>
</a>
</g>
</g>
<!-- Node2 -->
<g id="node2" class="node">
<title>Node2</title>
<g id="a_node2"><a xlink:href="../../da/d21/classleanux_1_1tools_1_1lmon_1_1RealtimeSampler.html#ae43e18aacfceb09eb9bd70db9c67fc98" target="_top" xlink:title=" ">
<polygon fill="none" stroke="black" points="190,-896 190,-926 381,-926 381,-896 190,-896"/>
<text text-anchor="start" x="198" y="-914" font-family="Helvetica,sans-Serif" font-size="10.00">leanux::tools::lmon</text>
<text text-anchor="middle" x="285.5" y="-903" font-family="Helvetica,sans-Serif" font-size="10.00">::RealtimeSampler::sampleXIOView</text>
</a>
</g>
</g>
<!-- Node1&#45;&gt;Node2 -->
<g id="edge1" class="edge">
<title>Node1&#45;&gt;Node2</title>
<path fill="none" stroke="midnightblue" d="M124.5,-862.01C154.79,-871.28 193.84,-883.24 225.78,-893.02"/>
<polygon fill="midnightblue" stroke="midnightblue" points="224.86,-896.4 235.44,-895.98 226.91,-889.7 224.86,-896.4"/>
</g>
<!-- Node20 -->
<g id="node10" class="node">
<title>Node20</title>
<g id="a_node10"><a xlink:href="../../da/d21/classleanux_1_1tools_1_1lmon_1_1RealtimeSampler.html#a38271e7bf2e0c59ad4648027b7802d8d" target="_top" xlink:title=" ">
<polygon fill="none" stroke="black" points="187,-1082 187,-1112 384,-1112 384,-1082 187,-1082"/>
<text text-anchor="start" x="195" y="-1100" font-family="Helvetica,sans-Serif" font-size="10.00">leanux::tools::lmon</text>
<text text-anchor="middle" x="285.5" y="-1089" font-family="Helvetica,sans-Serif" font-size="10.00">::RealtimeSampler::sampleXNetView</text>
</a>
</g>
</g>
<!-- Node1&#45;&gt;Node20 -->
<g id="edge10" class="edge">
<title>Node1&#45;&gt;Node20</title>
<path fill="none" stroke="midnightblue" d="M88.26,-862.26C123.69,-904.64 223.42,-1023.94 265.45,-1074.21"/>
<polygon fill="midnightblue" stroke="midnightblue" points="262.81,-1076.51 271.91,-1081.94 268.18,-1072.02 262.81,-1076.51"/>
</g>
<!-- Node30 -->
<g id="node14" class="node">
<title>Node30</title>
<g id="a_node14"><a xlink:href="../../da/d21/classleanux_1_1tools_1_1lmon_1_1RealtimeSampler.html#af80582780bfa40a11a40e647f9657d0f" target="_top" xlink:title=" ">
<polygon fill="none" stroke="black" points="185,-767 185,-797 386,-797 386,-767 185,-767"/>
<text text-anchor="start" x="193" y="-785" font-family="Helvetica,sans-Serif" font-size="10.00">leanux::tools::lmon</text>
<text text-anchor="middle" x="285.5" y="-774" font-family="Helvetica,sans-Serif" font-size="10.00">::RealtimeSampler::sampleXProcView</text>
</a>
</g>
</g>
<!-- Node1&#45;&gt;Node30 -->
<g id="edge15" class="edge">
<title>Node1&#45;&gt;Node30</title>
<path fill="none" stroke="midnightblue" d="M123.97,-831.92C154.46,-822.44 193.99,-810.15 226.19,-800.14"/>
<polygon fill="midnightblue" stroke="midnightblue" points="227.42,-803.42 235.93,-797.11 225.34,-796.73 227.42,-803.42"/>
</g>
<!-- Node41 -->
<g id="node21" class="node">
<title>Node41</title>
<g id="a_node21"><a xlink:href="../../da/d21/classleanux_1_1tools_1_1lmon_1_1RealtimeSampler.html#a8de42eb5d528bfa157565a81a16ae5bd" target="_top" xlink:title=" ">
<polygon fill="none" stroke="black" points="187,-330 187,-360 384,-360 384,-330 187,-330"/>
<text text-anchor="start" x="195" y="-348" font-family="Helvetica,sans-Serif" font-size="10.00">leanux::tools::lmon</text>
<text text-anchor="middle" x="285.5" y="-337" font-family="Helvetica,sans-Serif" font-size="10.00">::RealtimeSampler::sampleXSysView</text>
</a>
</g>
</g>
<!-- Node1&#45;&gt;Node41 -->
<g id="edge23" class="edge">
<title>Node1&#45;&gt;Node41</title>
<path fill="none" stroke="midnightblue" d="M81.75,-831.98C111.32,-760.97 237.12,-458.8 274.19,-369.78"/>
<polygon fill="midnightblue" stroke="midnightblue" points="277.45,-371.03 278.06,-360.46 270.99,-368.34 277.45,-371.03"/>
</g>
<!-- Node3 -->
<g id="node3" class="node">
<title>Node3</title>
<g id="a_node3"><a xlink:href="../../d5/d01/namespaceleanux_1_1block.html#aa7dafdc339a1159d4364e877a7453c03" target="_top" xlink:title="create a delta of two DeviceStatsMaps.">
<polygon fill="none" stroke="black" points="441.5,-918 441.5,-948 587.5,-948 587.5,-918 441.5,-918"/>
<text text-anchor="start" x="449.5" y="-936" font-family="Helvetica,sans-Serif" font-size="10.00">leanux::block::deltaDevice</text>
<text text-anchor="middle" x="514.5" y="-925" font-family="Helvetica,sans-Serif" font-size="10.00">Stats</text>
</a>
</g>
</g>
<!-- Node2&#45;&gt;Node3 -->
<g id="edge2" class="edge">
<title>Node2&#45;&gt;Node3</title>
<path fill="none" stroke="midnightblue" d="M381.12,-920.17C397.75,-921.78 414.93,-923.45 431.18,-925.02"/>
<polygon fill="midnightblue" stroke="midnightblue" points="430.88,-928.51 441.17,-925.99 431.55,-921.54 430.88,-928.51"/>
</g>
<!-- Node4 -->
<g id="node4" class="node">
<title>Node4</title>
<g id="a_node4"><a xlink:href="../../d8/db1/namespaceleanux_1_1util.html#a4837f2d09bfda41e98223427201d04e2" target="_top" xlink:title="Return the deltaof two timevals in seconds.">
<polygon fill="none" stroke="black" points="451,-879.5 451,-898.5 578,-898.5 578,-879.5 451,-879.5"/>
<text text-anchor="middle" x="514.5" y="-886.5" font-family="Helvetica,sans-Serif" font-size="10.00">leanux::util::deltaTime</text>
</a>
</g>
</g>
<!-- Node2&#45;&gt;Node4 -->
<g id="edge3" class="edge">
<title>Node2&#45;&gt;Node4</title>
<path fill="none" stroke="midnightblue" d="M381.12,-901.83C401.03,-899.9 421.73,-897.89 440.68,-896.06"/>
<polygon fill="midnightblue" stroke="midnightblue" points="441.1,-899.53 450.72,-895.08 440.42,-892.57 441.1,-899.53"/>
</g>
<!-- Node5 -->
<g id="node5" class="node">
<title>Node5</title>
<g id="a_node5"><a xlink:href="../../d5/d01/namespaceleanux_1_1block.html#afaee6721d578e4e9ccbebb7dea5919a6" target="_top" xlink:title="Get a map of MajorMinor to MountInfo from /proc/mounts.">
<polygon fill="none" stroke="red" points="438.5,-1043.5 438.5,-1062.5 590.5,-1062.5 590.5,-1043.5 438.5,-1043.5"/>
<text text-anchor="middle" x="514.5" y="-1050.5" font-family="Helvetica,sans-Serif" font-size="10.00">leanux::block::enumMounts</text>
</a>
</g>
</g>
<!-- Node2&#45;&gt;Node5 -->
<g id="edge4" class="edge">
<title>Node2&#45;&gt;Node5</title>
<path fill="none" stroke="midnightblue" d="M299.49,-926.15C321.9,-951.34 370.43,-1001.73 422,-1029 430.82,-1033.66 440.61,-1037.47 450.4,-1040.55"/>
<polygon fill="midnightblue" stroke="midnightblue" points="449.59,-1043.96 460.17,-1043.41 451.55,-1037.24 449.59,-1043.96"/>
</g>
<!-- Node6 -->
<g id="node6" class="node">
<title>Node6</title>
<g id="a_node6"><a xlink:href="../../d5/d01/namespaceleanux_1_1block.html#a12e7b3a8ce8e601504f25c9c3e2fa7f0" target="_top" xlink:title="get the MajorMinor for a device file or aliases to it, resolves the devicefile with realpath.">
<polygon fill="none" stroke="red" points="643,-1019 643,-1049 792,-1049 792,-1019 643,-1019"/>
<text text-anchor="start" x="651" y="-1037" font-family="Helvetica,sans-Serif" font-size="10.00">leanux::block::getFileMajor</text>
<text text-anchor="middle" x="717.5" y="-1026" font-family="Helvetica,sans-Serif" font-size="10.00">Minor</text>
</a>
</g>
</g>
<!-- Node2&#45;&gt;Node6 -->
<g id="edge6" class="edge">
<title>Node2&#45;&gt;Node6</title>
<path fill="none" stroke="midnightblue" d="M304.87,-926.22C329.73,-945.9 376.25,-979.6 422,-996 490.24,-1020.47 572.36,-1029.52 632.53,-1032.71"/>
<polygon fill="midnightblue" stroke="midnightblue" points="632.59,-1036.22 642.75,-1033.21 632.93,-1029.23 632.59,-1036.22"/>
</g>
<!-- Node13 -->
<g id="node7" class="node">
<title>Node13</title>
<g id="a_node7"><a xlink:href="../../d5/d01/namespaceleanux_1_1block.html#a0a3be314ae37f554ef89d7b5b30a8039" target="_top" xlink:title="Used bytes over all mounted filesystems.">
<polygon fill="none" stroke="black" points="435,-645 435,-675 594,-675 594,-645 435,-645"/>
<text text-anchor="start" x="443" y="-663" font-family="Helvetica,sans-Serif" font-size="10.00">leanux::block::getMountUsed</text>
<text text-anchor="middle" x="514.5" y="-652" font-family="Helvetica,sans-Serif" font-size="10.00">Bytes</text>
</a>
</g>
</g>
<!-- Node2&#45;&gt;Node13 -->
<g id="edge7" class="edge">
<title>Node2&#45;&gt;Node13</title>
<path fill="none" stroke="midnightblue" d="M305.83,-895.79C328.25,-877.16 364.83,-843.54 386,-807 414.34,-758.08 381.62,-724.57 422,-685 423.46,-683.57 424.98,-682.23 426.58,-680.96"/>
<polygon fill="midnightblue" stroke="midnightblue" points="428.72,-683.73 435,-675.2 424.77,-677.95 428.72,-683.73"/>
</g>
<!-- Node14 -->
<g id="node8" class="node">
<title>Node14</title>
<g id="a_node8"><a xlink:href="../../d5/d01/namespaceleanux_1_1block.html#ae227ed1fa83d91988072e335ea0f81e9" target="_top" xlink:title="get block device statistics into a DeviceStatsMap.">
<polygon fill="none" stroke="red" points="450.5,-967.5 450.5,-986.5 578.5,-986.5 578.5,-967.5 450.5,-967.5"/>
<text text-anchor="middle" x="514.5" y="-974.5" font-family="Helvetica,sans-Serif" font-size="10.00">leanux::block::getStats</text>
</a>
</g>
</g>
<!-- Node2&#45;&gt;Node14 -->
<g id="edge8" class="edge">
<title>Node2&#45;&gt;Node14</title>
<path fill="none" stroke="midnightblue" d="M325.51,-926.03C352.36,-936.01 389,-948.89 422,-958 431.5,-960.62 441.65,-963.07 451.59,-965.28"/>
<polygon fill="midnightblue" stroke="midnightblue" points="450.93,-968.72 461.44,-967.4 452.41,-961.87 450.93,-968.72"/>
</g>
<!-- Node19 -->
<g id="node9" class="node">
<title>Node19</title>
<g id="a_node9"><a xlink:href="../../dc/d32/namespaceleanux_1_1vmem.html#aabc162dbfa4e98a5d1bf2571ba58de88" target="_top" xlink:title="Get a std::list of SwapInfo swap spaces.">
<polygon fill="none" stroke="black" points="437.5,-606.5 437.5,-625.5 591.5,-625.5 591.5,-606.5 437.5,-606.5"/>
<text text-anchor="middle" x="514.5" y="-613.5" font-family="Helvetica,sans-Serif" font-size="10.00">leanux::vmem::getSwapInfo</text>
</a>
</g>
</g>
<!-- Node2&#45;&gt;Node19 -->
<g id="edge9" class="edge">
<title>Node2&#45;&gt;Node19</title>
<path fill="none" stroke="midnightblue" d="M306.75,-895.74C329.68,-877.32 366.41,-844.13 386,-807 422.24,-738.31 367.29,-691.13 422,-636 424.09,-633.89 426.36,-631.98 428.75,-630.25"/>
<polygon fill="midnightblue" stroke="midnightblue" points="430.61,-633.22 437.35,-625.05 426.98,-627.23 430.61,-633.22"/>
</g>
<!-- Node5&#45;&gt;Node6 -->
<g id="edge5" class="edge">
<title>Node5&#45;&gt;Node6</title>
<path fill="none" stroke="midnightblue" d="M590.63,-1045.9C604.36,-1044.6 618.76,-1043.24 632.72,-1041.92"/>
<polygon fill="midnightblue" stroke="midnightblue" points="633.17,-1045.39 642.8,-1040.97 632.51,-1038.42 633.17,-1045.39"/>
</g>
<!-- Node20&#45;&gt;Node4 -->
<g id="edge11" class="edge">
<title>Node20&#45;&gt;Node4</title>
<path fill="none" stroke="midnightblue" d="M292.74,-1081.92C308.52,-1045.77 353.72,-953.81 422,-909 427.85,-905.16 434.31,-902.05 441.02,-899.53"/>
<polygon fill="midnightblue" stroke="midnightblue" points="442.58,-902.7 450.98,-896.24 440.39,-896.05 442.58,-902.7"/>
</g>
<!-- Node21 -->
<g id="node11" class="node">
<title>Node21</title>
<g id="a_node11"><a xlink:href="../../d5/db8/namespaceleanux_1_1net.html#ac78d924eb899ccfa62581ec1d13dc75b" target="_top" xlink:title="Get network device statistics from /proc/net/dev.">
<polygon fill="none" stroke="black" points="449.5,-1169.5 449.5,-1188.5 579.5,-1188.5 579.5,-1169.5 449.5,-1169.5"/>
<text text-anchor="middle" x="514.5" y="-1176.5" font-family="Helvetica,sans-Serif" font-size="10.00">leanux::net::getNetStat</text>
</a>
</g>
</g>
<!-- Node20&#45;&gt;Node21 -->
<g id="edge12" class="edge">
<title>Node20&#45;&gt;Node21</title>
<path fill="none" stroke="midnightblue" d="M314.02,-1112.1C340.86,-1126.26 383.21,-1147.15 422,-1160 430.17,-1162.71 438.88,-1165.11 447.56,-1167.21"/>
<polygon fill="midnightblue" stroke="midnightblue" points="446.78,-1170.63 457.31,-1169.46 448.36,-1163.8 446.78,-1170.63"/>
</g>
<!-- Node22 -->
<g id="node12" class="node">
<title>Node22</title>
<g id="a_node12"><a xlink:href="../../d5/db8/namespaceleanux_1_1net.html#a9fc17074128622edcc8a3c1746f2d03d" target="_top" xlink:title="Get the delta of two NetStatDeviceMap objects, sorted by using int operator&lt;( const NetStat&amp; n1,...">
<polygon fill="none" stroke="black" points="436.5,-1131.5 436.5,-1150.5 592.5,-1150.5 592.5,-1131.5 436.5,-1131.5"/>
<text text-anchor="middle" x="514.5" y="-1138.5" font-family="Helvetica,sans-Serif" font-size="10.00">leanux::net::getNetStatDelta</text>
</a>
</g>
</g>
<!-- Node20&#45;&gt;Node22 -->
<g id="edge13" class="edge">
<title>Node20&#45;&gt;Node22</title>
<path fill="none" stroke="midnightblue" d="M363.99,-1112.02C393.61,-1117.76 426.89,-1124.21 454.52,-1129.57"/>
<polygon fill="midnightblue" stroke="midnightblue" points="453.94,-1133.02 464.42,-1131.49 455.27,-1126.15 453.94,-1133.02"/>
</g>
<!-- Node23 -->
<g id="node13" class="node">
<title>Node23</title>
<g id="a_node13"><a xlink:href="../../d5/db8/namespaceleanux_1_1net.html#ae1bc6c94c0c1352bbad7abeb430dea86" target="_top" xlink:title="Return the number of established TCP connections grouped by (ip,port,uid).">
<polygon fill="none" stroke="red" points="431.5,-1082 431.5,-1112 597.5,-1112 597.5,-1082 431.5,-1082"/>
<text text-anchor="start" x="439.5" y="-1100" font-family="Helvetica,sans-Serif" font-size="10.00">leanux::net::getTCPConnection</text>
<text text-anchor="middle" x="514.5" y="-1089" font-family="Helvetica,sans-Serif" font-size="10.00">Counters</text>
</a>
</g>
</g>
<!-- Node20&#45;&gt;Node23 -->
<g id="edge14" class="edge">
<title>Node20&#45;&gt;Node23</title>
<path fill="none" stroke="midnightblue" d="M384.09,-1097C396.38,-1097 408.94,-1097 421.15,-1097"/>
<polygon fill="midnightblue" stroke="midnightblue" points="421.32,-1100.5 431.32,-1097 421.32,-1093.5 421.32,-1100.5"/>
</g>
<!-- Node30&#45;&gt;Node4 -->
<g id="edge17" class="edge">
<title>Node30&#45;&gt;Node4</title>
<path fill="none" stroke="midnightblue" d="M304.98,-797.24C329.95,-817.06 376.61,-851.32 422,-870 428.25,-872.57 434.89,-874.81 441.62,-876.75"/>
<polygon fill="midnightblue" stroke="midnightblue" points="440.96,-880.2 451.53,-879.4 442.77,-873.44 440.96,-880.2"/>
</g>
<!-- Node31 -->
<g id="node15" class="node">
<title>Node31</title>
<g id="a_node15"><a xlink:href="../../d9/d34/namespaceleanux_1_1process.html#a016ba417c40324fe090a55a67d3ca2a6" target="_top" xlink:title="Get a delta of two ProcPidStatMap std::maps into the delta std::map.">
<polygon fill="none" stroke="black" points="442,-743 442,-773 587,-773 587,-743 442,-743"/>
<text text-anchor="start" x="450" y="-761" font-family="Helvetica,sans-Serif" font-size="10.00">leanux::process::deltaProc</text>
<text text-anchor="middle" x="514.5" y="-750" font-family="Helvetica,sans-Serif" font-size="10.00">PidStats</text>
</a>
</g>
</g>
<!-- Node30&#45;&gt;Node31 -->
<g id="edge16" class="edge">
<title>Node30&#45;&gt;Node31</title>
<path fill="none" stroke="midnightblue" d="M386.07,-771.47C401.36,-769.86 416.99,-768.2 431.84,-766.63"/>
<polygon fill="midnightblue" stroke="midnightblue" points="432.4,-770.09 441.98,-765.56 431.66,-763.13 432.4,-770.09"/>
</g>
<!-- Node32 -->
<g id="node16" class="node">
<title>Node32</title>
<g id="a_node16"><a xlink:href="../../d9/d34/namespaceleanux_1_1process.html#a385cafe09f0dc82ce8a830124665d69d" target="_top" xlink:title="Get a snapshot of all pids (seen as /proc/PID) into a std::map keyed by pid_t.">
<polygon fill="none" stroke="red" points="440,-694 440,-724 589,-724 589,-694 440,-694"/>
<text text-anchor="start" x="448" y="-712" font-family="Helvetica,sans-Serif" font-size="10.00">leanux::process::getAllProc</text>
<text text-anchor="middle" x="514.5" y="-701" font-family="Helvetica,sans-Serif" font-size="10.00">PidStat</text>
</a>
</g>
</g>
<!-- Node30&#45;&gt;Node32 -->
<g id="edge18" class="edge">
<title>Node30&#45;&gt;Node32</title>
<path fill="none" stroke="midnightblue" d="M326.56,-766.94C353.39,-757.06 389.61,-744.15 422,-734 429.71,-731.59 437.82,-729.18 445.9,-726.86"/>
<polygon fill="midnightblue" stroke="midnightblue" points="447.04,-730.18 455.72,-724.09 445.14,-723.44 447.04,-730.18"/>
</g>
<!-- Node37 -->
<g id="node17" class="node">
<title>Node37</title>
<g id="a_node17"><a xlink:href="../../dd/d42/namespaceleanux_1_1system.html#acf5450712deab2fd3ebe192a290c4bc6" target="_top" xlink:title="Get the number of processes on the system.">
<polygon fill="none" stroke="black" points="422,-518.5 422,-537.5 607,-537.5 607,-518.5 422,-518.5"/>
<text text-anchor="middle" x="514.5" y="-525.5" font-family="Helvetica,sans-Serif" font-size="10.00">leanux::system::getNumProcesses</text>
</a>
</g>
</g>
<!-- Node30&#45;&gt;Node37 -->
<g id="edge19" class="edge">
<title>Node30&#45;&gt;Node37</title>
<path fill="none" stroke="midnightblue" d="M290.6,-766.78C302.78,-724.64 342.94,-605.71 422,-548 425.23,-545.64 428.69,-543.55 432.3,-541.7"/>
<polygon fill="midnightblue" stroke="midnightblue" points="433.83,-544.85 441.53,-537.57 430.97,-538.46 433.83,-544.85"/>
</g>
<!-- Node38 -->
<g id="node18" class="node">
<title>Node38</title>
<g id="a_node18"><a xlink:href="../../d9/d34/namespaceleanux_1_1process.html#a92d013dc3ef32fd9b987b410b1ad2edc" target="_top" xlink:title="Get the pid&#39;s command line.">
<polygon fill="none" stroke="black" points="446.5,-557 446.5,-587 582.5,-587 582.5,-557 446.5,-557"/>
<text text-anchor="start" x="454.5" y="-575" font-family="Helvetica,sans-Serif" font-size="10.00">leanux::process::getProc</text>
<text text-anchor="middle" x="514.5" y="-564" font-family="Helvetica,sans-Serif" font-size="10.00">CmdLine</text>
</a>
</g>
</g>
<!-- Node30&#45;&gt;Node38 -->
<g id="edge20" class="edge">
<title>Node30&#45;&gt;Node38</title>
<path fill="none" stroke="midnightblue" d="M293.2,-766.86C309.69,-731.42 355.75,-642.59 422,-597 426.58,-593.85 431.54,-591.1 436.7,-588.69"/>
<polygon fill="midnightblue" stroke="midnightblue" points="438.31,-591.81 446.18,-584.72 435.6,-585.35 438.31,-591.81"/>
</g>
<!-- Node39 -->
<g id="node19" class="node">
<title>Node39</title>
<g id="a_node19"><a xlink:href="../../d9/d34/namespaceleanux_1_1process.html#a25f41d972bb92c8cbe982e0c74c68f7d" target="_top" xlink:title="get the effective uid of a running process.">
<polygon fill="none" stroke="black" points="438.5,-841.5 438.5,-860.5 590.5,-860.5 590.5,-841.5 438.5,-841.5"/>
<text text-anchor="middle" x="514.5" y="-848.5" font-family="Helvetica,sans-Serif" font-size="10.00">leanux::process::getProcUid</text>
</a>
</g>
</g>
<!-- Node30&#45;&gt;Node39 -->
<g id="edge21" class="edge">
<title>Node30&#45;&gt;Node39</title>
<path fill="none" stroke="midnightblue" d="M322.82,-797.08C349.83,-807.88 387.77,-822.19 422,-832 431.26,-834.65 441.15,-837.1 450.87,-839.29"/>
<polygon fill="midnightblue" stroke="midnightblue" points="450.4,-842.77 460.91,-841.48 451.89,-835.93 450.4,-842.77"/>
</g>
<!-- Node40 -->
<g id="node20" class="node">
<title>Node40</title>
<g id="a_node20"><a xlink:href="../../d8/df9/classleanux_1_1util_1_1Stopwatch.html#af09212ac0202c1b9ec52a554425d54b1" target="_top" xlink:title="stop the Stopwatch.">
<polygon fill="none" stroke="black" points="450.5,-792 450.5,-822 578.5,-822 578.5,-792 450.5,-792"/>
<text text-anchor="start" x="458.5" y="-810" font-family="Helvetica,sans-Serif" font-size="10.00">leanux::util::Stopwatch</text>
<text text-anchor="middle" x="514.5" y="-799" font-family="Helvetica,sans-Serif" font-size="10.00">::stop</text>
</a>
</g>
</g>
<!-- Node30&#45;&gt;Node40 -->
<g id="edge22" class="edge">
<title>Node30&#45;&gt;Node40</title>
<path fill="none" stroke="midnightblue" d="M386.07,-792.97C404.29,-794.97 423,-797.03 440.28,-798.94"/>
<polygon fill="midnightblue" stroke="midnightblue" points="439.95,-802.42 450.27,-800.04 440.71,-795.46 439.95,-802.42"/>
</g>
<!-- Node41&#45;&gt;Node4 -->
<g id="edge25" class="edge">
<title>Node41&#45;&gt;Node4</title>
<path fill="none" stroke="midnightblue" d="M290.17,-360.13C310.86,-445.23 412.22,-860.67 422,-870 427.49,-875.23 434.03,-879.19 441.04,-882.16"/>
<polygon fill="midnightblue" stroke="midnightblue" points="440.26,-885.6 450.86,-885.63 442.59,-878.99 440.26,-885.6"/>
</g>
<!-- Node41&#45;&gt;Node13 -->
<g id="edge30" class="edge">
<title>Node41&#45;&gt;Node13</title>
<path fill="none" stroke="midnightblue" d="M288.96,-360C297.63,-407.91 331.27,-558.55 422,-635 423.98,-636.67 426.07,-638.23 428.24,-639.69"/>
<polygon fill="midnightblue" stroke="midnightblue" points="426.57,-642.77 436.96,-644.81 430.11,-636.73 426.57,-642.77"/>
</g>
<!-- Node41&#45;&gt;Node19 -->
<g id="edge37" class="edge">
<title>Node41&#45;&gt;Node19</title>
<path fill="none" stroke="midnightblue" d="M289.88,-360.13C300.6,-404.39 338.2,-534.46 422,-597 424.38,-598.77 426.88,-600.39 429.48,-601.87"/>
<polygon fill="midnightblue" stroke="midnightblue" points="428.13,-605.1 438.65,-606.35 431.21,-598.81 428.13,-605.1"/>
</g>
<!-- Node41&#45;&gt;Node37 -->
<g id="edge33" class="edge">
<title>Node41&#45;&gt;Node37</title>
<path fill="none" stroke="midnightblue" d="M294.3,-360.13C312.09,-393 359.06,-471.05 422,-509 425.6,-511.17 429.4,-513.09 433.33,-514.8"/>
<polygon fill="midnightblue" stroke="midnightblue" points="432.11,-518.08 442.7,-518.4 434.62,-511.54 432.11,-518.08"/>
</g>
<!-- Node42 -->
<g id="node22" class="node">
<title>Node42</title>
<g id="a_node22"><a xlink:href="../../da/da3/namespaceleanux_1_1cpu.html#aacae00e1b4ea43c5aa6e78e951937b51" target="_top" xlink:title="Compute the deltas for two CPUStatMap std::maps into delta.">
<polygon fill="none" stroke="black" points="450.5,-114.5 450.5,-133.5 578.5,-133.5 578.5,-114.5 450.5,-114.5"/>
<text text-anchor="middle" x="514.5" y="-121.5" font-family="Helvetica,sans-Serif" font-size="10.00">leanux::cpu::deltaStats</text>
</a>
</g>
</g>
<!-- Node41&#45;&gt;Node42 -->
<g id="edge24" class="edge">
<title>Node41&#45;&gt;Node42</title>
<path fill="none" stroke="midnightblue" d="M291.94,-329.9C306.49,-291.79 350.18,-191.33 422,-143 427.7,-139.17 434.01,-136.08 440.58,-133.6"/>
<polygon fill="midnightblue" stroke="midnightblue" points="441.95,-136.84 450.36,-130.38 439.76,-130.19 441.95,-136.84"/>
</g>
<!-- Node43 -->
<g id="node23" class="node">
<title>Node43</title>
<g id="a_node23"><a xlink:href="../../da/da3/namespaceleanux_1_1cpu.html#a59cf2af9830e859ca848f87c9d605d6f" target="_top" xlink:title="Get CPU usage statistics from /proc/stat.">
<polygon fill="none" stroke="red" points="444.5,-76.5 444.5,-95.5 584.5,-95.5 584.5,-76.5 444.5,-76.5"/>
<text text-anchor="middle" x="514.5" y="-83.5" font-family="Helvetica,sans-Serif" font-size="10.00">leanux::cpu::getCPUStats</text>
</a>
</g>
</g>
<!-- Node41&#45;&gt;Node43 -->
<g id="edge26" class="edge">
<title>Node41&#45;&gt;Node43</title>
<path fill="none" stroke="midnightblue" d="M290.27,-329.97C301.85,-287.21 341.05,-164.12 422,-105 425.97,-102.1 430.28,-99.62 434.79,-97.51"/>
<polygon fill="midnightblue" stroke="midnightblue" points="436.35,-100.65 444.3,-93.65 433.72,-94.17 436.35,-100.65"/>
</g>
<!-- Node44 -->
<g id="node24" class="node">
<title>Node44</title>
<g id="a_node24"><a xlink:href="../../da/da3/namespaceleanux_1_1cpu.html#a31a23bc3cbd9990806ad11b532e6cb93" target="_top" xlink:title="get the CPU topology.">
<polygon fill="none" stroke="red" points="435.5,-38.5 435.5,-57.5 593.5,-57.5 593.5,-38.5 435.5,-38.5"/>
<text text-anchor="middle" x="514.5" y="-45.5" font-family="Helvetica,sans-Serif" font-size="10.00">leanux::cpu::getCPUTopology</text>
</a>
</g>
</g>
<!-- Node41&#45;&gt;Node44 -->
<g id="edge27" class="edge">
<title>Node41&#45;&gt;Node44</title>
<path fill="none" stroke="midnightblue" d="M289.11,-329.71C298.03,-282.35 331.94,-137.04 422,-67 424.13,-65.34 426.37,-63.82 428.69,-62.43"/>
<polygon fill="midnightblue" stroke="midnightblue" points="430.74,-65.31 438.04,-57.63 427.54,-59.08 430.74,-65.31"/>
</g>
<!-- Node46 -->
<g id="node25" class="node">
<title>Node46</title>
<g id="a_node25"><a xlink:href="../../da/da3/namespaceleanux_1_1cpu.html#aed13e7a256443ad29418d1fd83b27b8e" target="_top" xlink:title="Sum the entries in all to derive the total.">
<polygon fill="none" stroke="black" points="445.5,-0.5 445.5,-19.5 583.5,-19.5 583.5,-0.5 445.5,-0.5"/>
<text text-anchor="middle" x="514.5" y="-7.5" font-family="Helvetica,sans-Serif" font-size="10.00">leanux::cpu::getCPUTotal</text>
</a>
</g>
</g>
<!-- Node41&#45;&gt;Node46 -->
<g id="edge28" class="edge">
<title>Node41&#45;&gt;Node46</title>
<path fill="none" stroke="midnightblue" d="M288.12,-329.89C294.47,-278.68 322.4,-110.41 422,-29 426.13,-25.62 430.72,-22.8 435.56,-20.44"/>
<polygon fill="midnightblue" stroke="midnightblue" points="437.27,-23.52 445.17,-16.46 434.59,-17.06 437.27,-23.52"/>
</g>
<!-- Node47 -->
<g id="node26" class="node">
<title>Node47</title>
<g id="a_node26"><a xlink:href="../../da/da3/namespaceleanux_1_1cpu.html#a9f50740a011befb245de0dbfbbf6e4ca" target="_top" xlink:title="Get the system load averages.">
<polygon fill="none" stroke="black" points="446.5,-480.5 446.5,-499.5 582.5,-499.5 582.5,-480.5 446.5,-480.5"/>
<text text-anchor="middle" x="514.5" y="-487.5" font-family="Helvetica,sans-Serif" font-size="10.00">leanux::cpu::getLoadAvg</text>
</a>
</g>
</g>
<!-- Node41&#45;&gt;Node47 -->
<g id="edge29" class="edge">
<title>Node41&#45;&gt;Node47</title>
<path fill="none" stroke="midnightblue" d="M298.06,-360.22C319.4,-387.15 367.78,-442.98 422,-471 426.57,-473.36 431.41,-475.43 436.38,-477.24"/>
<polygon fill="midnightblue" stroke="midnightblue" points="435.48,-480.62 446.07,-480.41 437.66,-473.97 435.48,-480.62"/>
</g>
<!-- Node48 -->
<g id="node27" class="node">
<title>Node48</title>
<g id="a_node27"><a xlink:href="../../dd/d42/namespaceleanux_1_1system.html#a3cdfe742d15c8f3d4d7c01be3f3b42c7" target="_top" xlink:title="The number of user logins as reported by who.">
<polygon fill="none" stroke="black" points="430.5,-442.5 430.5,-461.5 598.5,-461.5 598.5,-442.5 430.5,-442.5"/>
<text text-anchor="middle" x="514.5" y="-449.5" font-family="Helvetica,sans-Serif" font-size="10.00">leanux::system::getNumLogins</text>
</a>
</g>
</g>
<!-- Node41&#45;&gt;Node48 -->
<g id="edge31" class="edge">
<title>Node41&#45;&gt;Node48</title>
<path fill="none" stroke="midnightblue" d="M304.98,-360.24C329.95,-380.06 376.61,-414.32 422,-433 428.25,-435.57 434.89,-437.81 441.62,-439.75"/>
<polygon fill="midnightblue" stroke="midnightblue" points="440.96,-443.2 451.53,-442.4 442.77,-436.44 440.96,-443.2"/>
</g>
<!-- Node49 -->
<g id="node28" class="node">
<title>Node49</title>
<g id="a_node28"><a xlink:href="../../dd/d42/namespaceleanux_1_1system.html#a9821718a0beca2213c2f294267255d59" target="_top" xlink:title="The number of distinct users logged in.">
<polygon fill="none" stroke="black" points="433,-393 433,-423 596,-423 596,-393 433,-393"/>
<text text-anchor="start" x="441" y="-411" font-family="Helvetica,sans-Serif" font-size="10.00">leanux::system::getNumLogin</text>
<text text-anchor="middle" x="514.5" y="-400" font-family="Helvetica,sans-Serif" font-size="10.00">Users</text>
</a>
</g>
</g>
<!-- Node41&#45;&gt;Node49 -->
<g id="edge32" class="edge">
<title>Node41&#45;&gt;Node49</title>
<path fill="none" stroke="midnightblue" d="M339.89,-360.06C364.83,-367.07 394.92,-375.5 422,-383 430.62,-385.39 439.71,-387.89 448.67,-390.35"/>
<polygon fill="midnightblue" stroke="midnightblue" points="447.75,-393.72 458.32,-392.99 449.6,-386.97 447.75,-393.72"/>
</g>
<!-- Node50 -->
<g id="node29" class="node">
<title>Node50</title>
<g id="a_node29"><a xlink:href="../../dd/d42/namespaceleanux_1_1system.html#a0fcf2d5d45e7838be8424cf1eabeeb14" target="_top" xlink:title="get the current and maximum number of open files.">
<polygon fill="none" stroke="black" points="434,-354.5 434,-373.5 595,-373.5 595,-354.5 434,-354.5"/>
<text text-anchor="middle" x="514.5" y="-361.5" font-family="Helvetica,sans-Serif" font-size="10.00">leanux::system::getOpenFiles</text>
</a>
</g>
</g>
<!-- Node41&#45;&gt;Node50 -->
<g id="edge34" class="edge">
<title>Node41&#45;&gt;Node50</title>
<path fill="none" stroke="midnightblue" d="M384.09,-353.17C397.17,-354.26 410.54,-355.38 423.49,-356.47"/>
<polygon fill="midnightblue" stroke="midnightblue" points="423.51,-359.98 433.77,-357.33 424.09,-353 423.51,-359.98"/>
</g>
<!-- Node51 -->
<g id="node30" class="node">
<title>Node51</title>
<g id="a_node30"><a xlink:href="../../dd/d42/namespaceleanux_1_1system.html#aa437aedfc8ba5b977baef289f25c5da3" target="_top" xlink:title="get the used and free number of open inodes.">
<polygon fill="none" stroke="black" points="429,-316.5 429,-335.5 600,-335.5 600,-316.5 429,-316.5"/>
<text text-anchor="middle" x="514.5" y="-323.5" font-family="Helvetica,sans-Serif" font-size="10.00">leanux::system::getOpenInodes</text>
</a>
</g>
</g>
<!-- Node41&#45;&gt;Node51 -->
<g id="edge35" class="edge">
<title>Node41&#45;&gt;Node51</title>
<path fill="none" stroke="midnightblue" d="M384.09,-336.83C395.61,-335.87 407.36,-334.88 418.84,-333.92"/>
<polygon fill="midnightblue" stroke="midnightblue" points="419.18,-337.41 428.85,-333.09 418.6,-330.43 419.18,-337.41"/>
</g>
<!-- Node52 -->
<g id="node31" class="node">
<title>Node52</title>
<g id="a_node31"><a xlink:href="../../da/da3/namespaceleanux_1_1cpu.html#ac5901cd50a8f7e4263b2ecb9875a818d" target="_top" xlink:title="Get the number of running and blocked processes.">
<polygon fill="none" stroke="black" points="443,-278.5 443,-297.5 586,-297.5 586,-278.5 443,-278.5"/>
<text text-anchor="middle" x="514.5" y="-285.5" font-family="Helvetica,sans-Serif" font-size="10.00">leanux::cpu::getSchedInfo</text>
</a>
</g>
</g>
<!-- Node41&#45;&gt;Node52 -->
<g id="edge36" class="edge">
<title>Node41&#45;&gt;Node52</title>
<path fill="none" stroke="midnightblue" d="M337.11,-329.91C362.49,-322.58 393.75,-313.88 422,-307 432.5,-304.44 443.73,-301.93 454.6,-299.61"/>
<polygon fill="midnightblue" stroke="midnightblue" points="455.38,-303.02 464.45,-297.54 453.94,-296.17 455.38,-303.02"/>
</g>
<!-- Node53 -->
<g id="node32" class="node">
<title>Node53</title>
<g id="a_node32"><a xlink:href="../../dc/d32/namespaceleanux_1_1vmem.html#afaf001154952f8397853ca745110020e" target="_top" xlink:title="get virtual memory statistics.">
<polygon fill="none" stroke="black" points="442.5,-240.5 442.5,-259.5 586.5,-259.5 586.5,-240.5 442.5,-240.5"/>
<text text-anchor="middle" x="514.5" y="-247.5" font-family="Helvetica,sans-Serif" font-size="10.00">leanux::vmem::getVMStat</text>
</a>
</g>
</g>
<!-- Node41&#45;&gt;Node53 -->
<g id="edge38" class="edge">
<title>Node41&#45;&gt;Node53</title>
<path fill="none" stroke="midnightblue" d="M308.48,-329.86C334.47,-312.64 379.56,-284.88 422,-269 429.16,-266.32 436.78,-263.99 444.45,-261.96"/>
<polygon fill="midnightblue" stroke="midnightblue" points="445.31,-265.35 454.17,-259.55 443.62,-258.56 445.31,-265.35"/>
</g>
<!-- Node54 -->
<g id="node33" class="node">
<title>Node54</title>
<g id="a_node33"><a xlink:href="../../da/dbe/namespaceleanux_1_1tools_1_1lmon.html#a85ae7434eb396ed84307a15724c790c0" target="_top" xlink:title="create a (vertical) CPU bar string from the CPUStat for terminal&#45;based output.">
<polygon fill="none" stroke="red" points="459.5,-191 459.5,-221 569.5,-221 569.5,-191 459.5,-191"/>
<text text-anchor="start" x="467.5" y="-209" font-family="Helvetica,sans-Serif" font-size="10.00">leanux::tools::lmon</text>
<text text-anchor="middle" x="514.5" y="-198" font-family="Helvetica,sans-Serif" font-size="10.00">::makeCPUBar</text>
</a>
</g>
</g>
<!-- Node41&#45;&gt;Node54 -->
<g id="edge39" class="edge">
<title>Node41&#45;&gt;Node54</title>
<path fill="none" stroke="midnightblue" d="M300.36,-329.65C323.3,-305.19 371.63,-257.42 422,-231 430.55,-226.51 439.98,-222.77 449.45,-219.67"/>
<polygon fill="midnightblue" stroke="midnightblue" points="450.75,-222.93 459.29,-216.66 448.7,-216.24 450.75,-222.93"/>
</g>
<!-- Node56 -->
<g id="node34" class="node">
<title>Node56</title>
<g id="a_node34"><a xlink:href="../../da/da3/namespaceleanux_1_1cpu.html#ae4420cd18b5170e303f743d6c2e5a6ec" target="_top" xlink:title="Scales the numbers in stat to the time interval dt times the number of processors,...">
<polygon fill="none" stroke="black" points="428.5,-152.5 428.5,-171.5 600.5,-171.5 600.5,-152.5 428.5,-152.5"/>
<text text-anchor="middle" x="514.5" y="-159.5" font-family="Helvetica,sans-Serif" font-size="10.00">leanux::cpu::normalizeCPUstats</text>
</a>
</g>
</g>
<!-- Node41&#45;&gt;Node56 -->
<g id="edge40" class="edge">
<title>Node41&#45;&gt;Node56</title>
<path fill="none" stroke="midnightblue" d="M294.63,-329.52C312.73,-296.66 359.74,-219.85 422,-182 426.21,-179.44 430.7,-177.21 435.35,-175.26"/>
<polygon fill="midnightblue" stroke="midnightblue" points="436.92,-178.41 445.08,-171.65 434.49,-171.85 436.92,-178.41"/>
</g>
</g>
</svg>
