<?xml version="1.0" encoding="UTF-8" standalone="no"?>
<!DOCTYPE svg PUBLIC "-//W3C//DTD SVG 1.1//EN"
 "http://www.w3.org/Graphics/SVG/1.1/DTD/svg11.dtd">
<!-- Generated by graphviz version 2.43.0 (0)
 -->
<!-- Title: leanux::tools::lmon::RealtimeSampler::sampleXNetView Pages: 1 -->
<svg width="610pt" height="208pt"
 viewBox="0.00 0.00 610.00 208.00" xmlns="http://www.w3.org/2000/svg" xmlns:xlink="http://www.w3.org/1999/xlink">
<g id="graph0" class="graph" transform="scale(1 1) rotate(0) translate(4 204)">
<title>leanux::tools::lmon::RealtimeSampler::sampleXNetView</title>
<!-- Node1 -->
<g id="node1" class="node">
<title>Node1</title>
<g id="a_node1"><a xlink:title=" ">
<polygon fill="#bfbfbf" stroke="black" points="0,-118 0,-148 197,-148 197,-118 0,-118"/>
<text text-anchor="start" x="8" y="-136" font-family="Helvetica,sans-Serif" font-size="10.00">leanux::tools::lmon</text>
<text text-anchor="middle" x="98.5" y="-125" font-family="Helvetica,sans-Serif" font-size="10.00">::RealtimeSampler::sampleXNetView</text>
</a>
</g>
</g>
<!-- Node2 -->
<g id="node2" class="node">
<title>Node2</title>
<g id="a_node2"><a xlink:href="../../d8/db1/namespaceleanux_1_1util.html#a4837f2d09bfda41e98223427201d04e2" target="_top" xlink:title="Return the deltaof two timevals in seconds.">
<polygon fill="none" stroke="black" points="252.5,-180.5 252.5,-199.5 379.5,-199.5 379.5,-180.5 252.5,-180.5"/>
<text text-anchor="middle" x="316" y="-187.5" font-family="Helvetica,sans-Serif" font-size="10.00">leanux::util::deltaTime</text>
</a>
</g>
</g>
<!-- Node1&#45;&gt;Node2 -->
<g id="edge1" class="edge">
<title>Node1&#45;&gt;Node2</title>
<path fill="none" stroke="midnightblue" d="M150.05,-148.03C174.95,-155.27 205.47,-163.9 233,-171 242.35,-173.41 252.33,-175.84 262,-178.12"/>
<polygon fill="midnightblue" stroke="midnightblue" points="261.39,-181.58 271.92,-180.44 262.98,-174.76 261.39,-181.58"/>
</g>
<!-- Node3 -->
<g id="node3" class="node">
<title>Node3</title>
<g id="a_node3"><a xlink:href="../../d5/db8/namespaceleanux_1_1net.html#ac78d924eb899ccfa62581ec1d13dc75b" target="_top" xlink:title="Get network device statistics from /proc/net/dev.">
<polygon fill="none" stroke="black" points="251,-142.5 251,-161.5 381,-161.5 381,-142.5 251,-142.5"/>
<text text-anchor="middle" x="316" y="-149.5" font-family="Helvetica,sans-Serif" font-size="10.00">leanux::net::getNetStat</text>
</a>
</g>
</g>
<!-- Node1&#45;&gt;Node3 -->
<g id="edge2" class="edge">
<title>Node1&#45;&gt;Node3</title>
<path fill="none" stroke="midnightblue" d="M197.16,-141.61C211.86,-142.91 226.81,-144.22 240.9,-145.47"/>
<polygon fill="midnightblue" stroke="midnightblue" points="240.73,-148.97 251,-146.36 241.35,-141.99 240.73,-148.97"/>
</g>
<!-- Node4 -->
<g id="node4" class="node">
<title>Node4</title>
<g id="a_node4"><a xlink:href="../../d5/db8/namespaceleanux_1_1net.html#a9fc17074128622edcc8a3c1746f2d03d" target="_top" xlink:title="Get the delta of two NetStatDeviceMap objects, sorted by using int operator&lt;( const NetStat&amp; n1,...">
<polygon fill="none" stroke="black" points="238,-104.5 238,-123.5 394,-123.5 394,-104.5 238,-104.5"/>
<text text-anchor="middle" x="316" y="-111.5" font-family="Helvetica,sans-Serif" font-size="10.00">leanux::net::getNetStatDelta</text>
</a>
</g>
</g>
<!-- Node1&#45;&gt;Node4 -->
<g id="edge3" class="edge">
<title>Node1&#45;&gt;Node4</title>
<path fill="none" stroke="midnightblue" d="M197.16,-124.39C207.35,-123.49 217.66,-122.58 227.73,-121.69"/>
<polygon fill="midnightblue" stroke="midnightblue" points="228.04,-125.18 237.69,-120.82 227.43,-118.21 228.04,-125.18"/>
</g>
<!-- Node5 -->
<g id="node5" class="node">
<title>Node5</title>
<g id="a_node5"><a xlink:href="../../d5/db8/namespaceleanux_1_1net.html#ae1bc6c94c0c1352bbad7abeb430dea86" target="_top" xlink:title="Return the number of established TCP connections grouped by (ip,port,uid).">
<polygon fill="none" stroke="black" points="233,-55 233,-85 399,-85 399,-55 233,-55"/>
<text text-anchor="start" x="241" y="-73" font-family="Helvetica,sans-Serif" font-size="10.00">leanux::net::getTCPConnection</text>
<text text-anchor="middle" x="316" y="-62" font-family="Helvetica,sans-Serif" font-size="10.00">Counters</text>
</a>
</g>
</g>
<!-- Node1&#45;&gt;Node5 -->
<g id="edge4" class="edge">
<title>Node1&#45;&gt;Node5</title>
<path fill="none" stroke="midnightblue" d="M150.84,-117.99C181.76,-108.95 221.3,-97.39 253.82,-87.88"/>
<polygon fill="midnightblue" stroke="midnightblue" points="255.06,-91.17 263.68,-85 253.1,-84.45 255.06,-91.17"/>
</g>
<!-- Node6 -->
<g id="node6" class="node">
<title>Node6</title>
<g id="a_node6"><a xlink:href="../../d5/db8/namespaceleanux_1_1net.html#a1961711f7416e2fc1f75688e973b7305" target="_top" xlink:title="convert IPv4 network IP representation to human readable format.">
<polygon fill="none" stroke="black" points="441,-126.5 441,-145.5 596,-145.5 596,-126.5 441,-126.5"/>
<text text-anchor="middle" x="518.5" y="-133.5" font-family="Helvetica,sans-Serif" font-size="10.00">leanux::net::convertAF_INET</text>
</a>
</g>
</g>
<!-- Node5&#45;&gt;Node6 -->
<g id="edge5" class="edge">
<title>Node5&#45;&gt;Node6</title>
<path fill="none" stroke="midnightblue" d="M373.27,-85.09C382.02,-88.02 390.85,-91.34 399,-95 416.1,-102.68 417.64,-109.92 435,-117 441.22,-119.54 447.84,-121.77 454.53,-123.74"/>
<polygon fill="midnightblue" stroke="midnightblue" points="453.77,-127.16 464.34,-126.42 455.62,-120.41 453.77,-127.16"/>
</g>
<!-- Node7 -->
<g id="node7" class="node">
<title>Node7</title>
<g id="a_node7"><a xlink:href="../../d5/db8/namespaceleanux_1_1net.html#af94467113568c21e1a32c0d5e842dab0" target="_top" xlink:title="convert IPv6 network IP representation to human readable format.">
<polygon fill="none" stroke="black" points="455,-77 455,-107 582,-107 582,-77 455,-77"/>
<text text-anchor="start" x="463" y="-95" font-family="Helvetica,sans-Serif" font-size="10.00">leanux::net::convertAF</text>
<text text-anchor="middle" x="518.5" y="-84" font-family="Helvetica,sans-Serif" font-size="10.00">_INET6</text>
</a>
</g>
</g>
<!-- Node5&#45;&gt;Node7 -->
<g id="edge6" class="edge">
<title>Node5&#45;&gt;Node7</title>
<path fill="none" stroke="midnightblue" d="M399.13,-79.01C414.24,-80.67 429.92,-82.39 444.74,-84.02"/>
<polygon fill="midnightblue" stroke="midnightblue" points="444.52,-87.51 454.84,-85.12 445.28,-80.55 444.52,-87.51"/>
</g>
<!-- Node8 -->
<g id="node8" class="node">
<title>Node8</title>
<g id="a_node8"><a xlink:href="../../d5/db8/namespaceleanux_1_1net.html#ac002a4fe839bdbd3d3405dac3c01f120" target="_top" xlink:title="Enumerate TCP4 sockets from /proc/net/tcp.">
<polygon fill="none" stroke="red" points="435,-38.5 435,-57.5 602,-57.5 602,-38.5 435,-38.5"/>
<text text-anchor="middle" x="518.5" y="-45.5" font-family="Helvetica,sans-Serif" font-size="10.00">leanux::net::enumTCP4Sockets</text>
</a>
</g>
</g>
<!-- Node5&#45;&gt;Node8 -->
<g id="edge7" class="edge">
<title>Node5&#45;&gt;Node8</title>
<path fill="none" stroke="midnightblue" d="M399.13,-60.99C407.6,-60.06 416.25,-59.11 424.83,-58.17"/>
<polygon fill="midnightblue" stroke="midnightblue" points="425.29,-61.64 434.85,-57.07 424.53,-54.68 425.29,-61.64"/>
</g>
<!-- Node10 -->
<g id="node9" class="node">
<title>Node10</title>
<g id="a_node9"><a xlink:href="../../d5/db8/namespaceleanux_1_1net.html#a33866249dbf7e15b43f35f422147f06e" target="_top" xlink:title="Enumerate TCP6 sockets from /proc/net/tcp6.">
<polygon fill="none" stroke="red" points="435,-0.5 435,-19.5 602,-19.5 602,-0.5 435,-0.5"/>
<text text-anchor="middle" x="518.5" y="-7.5" font-family="Helvetica,sans-Serif" font-size="10.00">leanux::net::enumTCP6Sockets</text>
</a>
</g>
</g>
<!-- Node5&#45;&gt;Node10 -->
<g id="edge8" class="edge">
<title>Node5&#45;&gt;Node10</title>
<path fill="none" stroke="midnightblue" d="M356.8,-54.97C379.52,-46.69 408.64,-36.59 435,-29 443.71,-26.49 453.02,-24.09 462.12,-21.89"/>
<polygon fill="midnightblue" stroke="midnightblue" points="462.96,-25.28 471.89,-19.58 461.35,-18.47 462.96,-25.28"/>
</g>
</g>
</svg>
