<?xml version="1.0" encoding="UTF-8" standalone="no"?>
<!DOCTYPE svg PUBLIC "-//W3C//DTD SVG 1.1//EN"
 "http://www.w3.org/Graphics/SVG/1.1/DTD/svg11.dtd">
<!-- Generated by graphviz version 2.43.0 (0)
 -->
<!-- Title: leanux::tools::lmon::RealtimeSampler::sampleXSysView Pages: 1 -->
<svg width="611pt" height="672pt"
 viewBox="0.00 0.00 611.00 672.00" xmlns="http://www.w3.org/2000/svg" xmlns:xlink="http://www.w3.org/1999/xlink">
<g id="graph0" class="graph" transform="scale(1 1) rotate(0) translate(4 668)">
<title>leanux::tools::lmon::RealtimeSampler::sampleXSysView</title>
<!-- Node1 -->
<g id="node1" class="node">
<title>Node1</title>
<g id="a_node1"><a xlink:title=" ">
<polygon fill="#bfbfbf" stroke="black" points="0,-317 0,-347 197,-347 197,-317 0,-317"/>
<text text-anchor="start" x="8" y="-335" font-family="Helvetica,sans-Serif" font-size="10.00">leanux::tools::lmon</text>
<text text-anchor="middle" x="98.5" y="-324" font-family="Helvetica,sans-Serif" font-size="10.00">::RealtimeSampler::sampleXSysView</text>
</a>
</g>
</g>
<!-- Node2 -->
<g id="node2" class="node">
<title>Node2</title>
<g id="a_node2"><a xlink:href="../../da/da3/namespaceleanux_1_1cpu.html#aacae00e1b4ea43c5aa6e78e951937b51" target="_top" xlink:title="Compute the deltas for two CPUStatMap std::maps into delta.">
<polygon fill="none" stroke="black" points="261.5,-644.5 261.5,-663.5 389.5,-663.5 389.5,-644.5 261.5,-644.5"/>
<text text-anchor="middle" x="325.5" y="-651.5" font-family="Helvetica,sans-Serif" font-size="10.00">leanux::cpu::deltaStats</text>
</a>
</g>
</g>
<!-- Node1&#45;&gt;Node2 -->
<g id="edge1" class="edge">
<title>Node1&#45;&gt;Node2</title>
<path fill="none" stroke="midnightblue" d="M101.33,-347.19C108.2,-397.13 137.14,-557.44 233,-635 238.64,-639.56 245.09,-643.11 251.91,-645.86"/>
<polygon fill="midnightblue" stroke="midnightblue" points="250.8,-649.17 261.39,-649.13 253.08,-642.56 250.8,-649.17"/>
</g>
<!-- Node3 -->
<g id="node3" class="node">
<title>Node3</title>
<g id="a_node3"><a xlink:href="../../d8/db1/namespaceleanux_1_1util.html#a4837f2d09bfda41e98223427201d04e2" target="_top" xlink:title="Return the deltaof two timevals in seconds.">
<polygon fill="none" stroke="black" points="262,-606.5 262,-625.5 389,-625.5 389,-606.5 262,-606.5"/>
<text text-anchor="middle" x="325.5" y="-613.5" font-family="Helvetica,sans-Serif" font-size="10.00">leanux::util::deltaTime</text>
</a>
</g>
</g>
<!-- Node1&#45;&gt;Node3 -->
<g id="edge2" class="edge">
<title>Node1&#45;&gt;Node3</title>
<path fill="none" stroke="midnightblue" d="M102.36,-347.23C111.83,-393.06 146.56,-530.68 233,-597 238.75,-601.41 245.28,-604.86 252.15,-607.56"/>
<polygon fill="midnightblue" stroke="midnightblue" points="251.08,-610.89 261.67,-610.77 253.32,-604.26 251.08,-610.89"/>
</g>
<!-- Node4 -->
<g id="node4" class="node">
<title>Node4</title>
<g id="a_node4"><a xlink:href="../../da/da3/namespaceleanux_1_1cpu.html#a59cf2af9830e859ca848f87c9d605d6f" target="_top" xlink:title="Get CPU usage statistics from /proc/stat.">
<polygon fill="none" stroke="black" points="255.5,-568.5 255.5,-587.5 395.5,-587.5 395.5,-568.5 255.5,-568.5"/>
<text text-anchor="middle" x="325.5" y="-575.5" font-family="Helvetica,sans-Serif" font-size="10.00">leanux::cpu::getCPUStats</text>
</a>
</g>
</g>
<!-- Node1&#45;&gt;Node4 -->
<g id="edge3" class="edge">
<title>Node1&#45;&gt;Node4</title>
<path fill="none" stroke="midnightblue" d="M103.67,-347.11C115.89,-388.37 155.71,-503.59 233,-559 236.99,-561.86 241.32,-564.31 245.85,-566.41"/>
<polygon fill="midnightblue" stroke="midnightblue" points="244.8,-569.76 255.38,-570.24 247.41,-563.26 244.8,-569.76"/>
</g>
<!-- Node6 -->
<g id="node6" class="node">
<title>Node6</title>
<g id="a_node6"><a xlink:href="../../da/da3/namespaceleanux_1_1cpu.html#a31a23bc3cbd9990806ad11b532e6cb93" target="_top" xlink:title="get the CPU topology.">
<polygon fill="none" stroke="black" points="246.5,-530.5 246.5,-549.5 404.5,-549.5 404.5,-530.5 246.5,-530.5"/>
<text text-anchor="middle" x="325.5" y="-537.5" font-family="Helvetica,sans-Serif" font-size="10.00">leanux::cpu::getCPUTopology</text>
</a>
</g>
</g>
<!-- Node1&#45;&gt;Node6 -->
<g id="edge5" class="edge">
<title>Node1&#45;&gt;Node6</title>
<path fill="none" stroke="midnightblue" d="M105.53,-347.2C120.82,-383.64 164.8,-476.29 233,-521 236.1,-523.03 239.37,-524.85 242.77,-526.48"/>
<polygon fill="midnightblue" stroke="midnightblue" points="241.42,-529.71 251.99,-530.37 244.14,-523.26 241.42,-529.71"/>
</g>
<!-- Node8 -->
<g id="node8" class="node">
<title>Node8</title>
<g id="a_node8"><a xlink:href="../../da/da3/namespaceleanux_1_1cpu.html#aed13e7a256443ad29418d1fd83b27b8e" target="_top" xlink:title="Sum the entries in all to derive the total.">
<polygon fill="none" stroke="black" points="256.5,-492.5 256.5,-511.5 394.5,-511.5 394.5,-492.5 256.5,-492.5"/>
<text text-anchor="middle" x="325.5" y="-499.5" font-family="Helvetica,sans-Serif" font-size="10.00">leanux::cpu::getCPUTotal</text>
</a>
</g>
</g>
<!-- Node1&#45;&gt;Node8 -->
<g id="edge7" class="edge">
<title>Node1&#45;&gt;Node8</title>
<path fill="none" stroke="midnightblue" d="M108.29,-347.32C126.94,-378.35 173.68,-448.58 233,-483 237.25,-485.47 241.77,-487.61 246.45,-489.49"/>
<polygon fill="midnightblue" stroke="midnightblue" points="245.62,-492.91 256.22,-492.95 247.96,-486.31 245.62,-492.91"/>
</g>
<!-- Node9 -->
<g id="node9" class="node">
<title>Node9</title>
<g id="a_node9"><a xlink:href="../../da/da3/namespaceleanux_1_1cpu.html#a9f50740a011befb245de0dbfbbf6e4ca" target="_top" xlink:title="Get the system load averages.">
<polygon fill="none" stroke="black" points="257.5,-454.5 257.5,-473.5 393.5,-473.5 393.5,-454.5 257.5,-454.5"/>
<text text-anchor="middle" x="325.5" y="-461.5" font-family="Helvetica,sans-Serif" font-size="10.00">leanux::cpu::getLoadAvg</text>
</a>
</g>
</g>
<!-- Node1&#45;&gt;Node9 -->
<g id="edge8" class="edge">
<title>Node1&#45;&gt;Node9</title>
<path fill="none" stroke="midnightblue" d="M112.6,-347.17C134.76,-371.81 182.23,-420.25 233,-445 238.01,-447.44 243.33,-449.57 248.78,-451.43"/>
<polygon fill="midnightblue" stroke="midnightblue" points="248.1,-454.88 258.69,-454.49 250.16,-448.2 248.1,-454.88"/>
</g>
<!-- Node10 -->
<g id="node10" class="node">
<title>Node10</title>
<g id="a_node10"><a xlink:href="../../d5/d01/namespaceleanux_1_1block.html#a0a3be314ae37f554ef89d7b5b30a8039" target="_top" xlink:title="Used bytes over all mounted filesystems.">
<polygon fill="none" stroke="black" points="246,-405 246,-435 405,-435 405,-405 246,-405"/>
<text text-anchor="start" x="254" y="-423" font-family="Helvetica,sans-Serif" font-size="10.00">leanux::block::getMountUsed</text>
<text text-anchor="middle" x="325.5" y="-412" font-family="Helvetica,sans-Serif" font-size="10.00">Bytes</text>
</a>
</g>
</g>
<!-- Node1&#45;&gt;Node10 -->
<g id="edge9" class="edge">
<title>Node1&#45;&gt;Node10</title>
<path fill="none" stroke="midnightblue" d="M127.79,-347.12C154.39,-360.91 195.62,-381.19 233,-395 239.69,-397.47 246.74,-399.82 253.83,-402.02"/>
<polygon fill="midnightblue" stroke="midnightblue" points="252.91,-405.4 263.49,-404.93 254.92,-398.7 252.91,-405.4"/>
</g>
<!-- Node11 -->
<g id="node11" class="node">
<title>Node11</title>
<g id="a_node11"><a xlink:href="../../dd/d42/namespaceleanux_1_1system.html#a3cdfe742d15c8f3d4d7c01be3f3b42c7" target="_top" xlink:title="The number of user logins as reported by who.">
<polygon fill="none" stroke="black" points="241.5,-366.5 241.5,-385.5 409.5,-385.5 409.5,-366.5 241.5,-366.5"/>
<text text-anchor="middle" x="325.5" y="-373.5" font-family="Helvetica,sans-Serif" font-size="10.00">leanux::system::getNumLogins</text>
</a>
</g>
</g>
<!-- Node1&#45;&gt;Node11 -->
<g id="edge10" class="edge">
<title>Node1&#45;&gt;Node11</title>
<path fill="none" stroke="midnightblue" d="M176.3,-347.02C205.67,-352.76 238.66,-359.21 266.04,-364.57"/>
<polygon fill="midnightblue" stroke="midnightblue" points="265.37,-368 275.86,-366.49 266.71,-361.13 265.37,-368"/>
</g>
<!-- Node12 -->
<g id="node12" class="node">
<title>Node12</title>
<g id="a_node12"><a xlink:href="../../dd/d42/namespaceleanux_1_1system.html#a9821718a0beca2213c2f294267255d59" target="_top" xlink:title="The number of distinct users logged in.">
<polygon fill="none" stroke="black" points="244,-317 244,-347 407,-347 407,-317 244,-317"/>
<text text-anchor="start" x="252" y="-335" font-family="Helvetica,sans-Serif" font-size="10.00">leanux::system::getNumLogin</text>
<text text-anchor="middle" x="325.5" y="-324" font-family="Helvetica,sans-Serif" font-size="10.00">Users</text>
</a>
</g>
</g>
<!-- Node1&#45;&gt;Node12 -->
<g id="edge11" class="edge">
<title>Node1&#45;&gt;Node12</title>
<path fill="none" stroke="midnightblue" d="M197.21,-332C209.34,-332 221.72,-332 233.74,-332"/>
<polygon fill="midnightblue" stroke="midnightblue" points="233.75,-335.5 243.75,-332 233.75,-328.5 233.75,-335.5"/>
</g>
<!-- Node13 -->
<g id="node13" class="node">
<title>Node13</title>
<g id="a_node13"><a xlink:href="../../dd/d42/namespaceleanux_1_1system.html#acf5450712deab2fd3ebe192a290c4bc6" target="_top" xlink:title="Get the number of processes on the system.">
<polygon fill="none" stroke="black" points="233,-278.5 233,-297.5 418,-297.5 418,-278.5 233,-278.5"/>
<text text-anchor="middle" x="325.5" y="-285.5" font-family="Helvetica,sans-Serif" font-size="10.00">leanux::system::getNumProcesses</text>
</a>
</g>
</g>
<!-- Node1&#45;&gt;Node13 -->
<g id="edge12" class="edge">
<title>Node1&#45;&gt;Node13</title>
<path fill="none" stroke="midnightblue" d="M176.3,-316.98C205.67,-311.24 238.66,-304.79 266.04,-299.43"/>
<polygon fill="midnightblue" stroke="midnightblue" points="266.71,-302.87 275.86,-297.51 265.37,-296 266.71,-302.87"/>
</g>
<!-- Node14 -->
<g id="node14" class="node">
<title>Node14</title>
<g id="a_node14"><a xlink:href="../../dd/d42/namespaceleanux_1_1system.html#a0fcf2d5d45e7838be8424cf1eabeeb14" target="_top" xlink:title="get the current and maximum number of open files.">
<polygon fill="none" stroke="black" points="245,-240.5 245,-259.5 406,-259.5 406,-240.5 245,-240.5"/>
<text text-anchor="middle" x="325.5" y="-247.5" font-family="Helvetica,sans-Serif" font-size="10.00">leanux::system::getOpenFiles</text>
</a>
</g>
</g>
<!-- Node1&#45;&gt;Node14 -->
<g id="edge13" class="edge">
<title>Node1&#45;&gt;Node14</title>
<path fill="none" stroke="midnightblue" d="M126.58,-316.88C153.01,-302.7 194.72,-281.81 233,-269 240.96,-266.34 249.44,-263.97 257.91,-261.9"/>
<polygon fill="midnightblue" stroke="midnightblue" points="258.86,-265.27 267.81,-259.59 257.28,-258.45 258.86,-265.27"/>
</g>
<!-- Node15 -->
<g id="node15" class="node">
<title>Node15</title>
<g id="a_node15"><a xlink:href="../../dd/d42/namespaceleanux_1_1system.html#aa437aedfc8ba5b977baef289f25c5da3" target="_top" xlink:title="get the used and free number of open inodes.">
<polygon fill="none" stroke="black" points="240,-202.5 240,-221.5 411,-221.5 411,-202.5 240,-202.5"/>
<text text-anchor="middle" x="325.5" y="-209.5" font-family="Helvetica,sans-Serif" font-size="10.00">leanux::system::getOpenInodes</text>
</a>
</g>
</g>
<!-- Node1&#45;&gt;Node15 -->
<g id="edge14" class="edge">
<title>Node1&#45;&gt;Node15</title>
<path fill="none" stroke="midnightblue" d="M114.83,-316.67C138.2,-294.23 185.1,-252.75 233,-231 238.62,-228.45 244.6,-226.23 250.69,-224.31"/>
<polygon fill="midnightblue" stroke="midnightblue" points="251.7,-227.67 260.34,-221.53 249.76,-220.94 251.7,-227.67"/>
</g>
<!-- Node16 -->
<g id="node16" class="node">
<title>Node16</title>
<g id="a_node16"><a xlink:href="../../da/da3/namespaceleanux_1_1cpu.html#ac5901cd50a8f7e4263b2ecb9875a818d" target="_top" xlink:title="Get the number of running and blocked processes.">
<polygon fill="none" stroke="black" points="254,-164.5 254,-183.5 397,-183.5 397,-164.5 254,-164.5"/>
<text text-anchor="middle" x="325.5" y="-171.5" font-family="Helvetica,sans-Serif" font-size="10.00">leanux::cpu::getSchedInfo</text>
</a>
</g>
</g>
<!-- Node1&#45;&gt;Node16 -->
<g id="edge15" class="edge">
<title>Node1&#45;&gt;Node16</title>
<path fill="none" stroke="midnightblue" d="M109.51,-316.57C129.31,-287.39 176.49,-224.25 233,-193 237.02,-190.78 241.27,-188.81 245.66,-187.08"/>
<polygon fill="midnightblue" stroke="midnightblue" points="247.15,-190.26 255.42,-183.63 244.82,-183.66 247.15,-190.26"/>
</g>
<!-- Node17 -->
<g id="node17" class="node">
<title>Node17</title>
<g id="a_node17"><a xlink:href="../../dc/d32/namespaceleanux_1_1vmem.html#aabc162dbfa4e98a5d1bf2571ba58de88" target="_top" xlink:title="Get a std::list of SwapInfo swap spaces.">
<polygon fill="none" stroke="black" points="248.5,-126.5 248.5,-145.5 402.5,-145.5 402.5,-126.5 248.5,-126.5"/>
<text text-anchor="middle" x="325.5" y="-133.5" font-family="Helvetica,sans-Serif" font-size="10.00">leanux::vmem::getSwapInfo</text>
</a>
</g>
</g>
<!-- Node1&#45;&gt;Node17 -->
<g id="edge16" class="edge">
<title>Node1&#45;&gt;Node17</title>
<path fill="none" stroke="midnightblue" d="M106.17,-316.99C122.4,-282.33 167.48,-196.5 233,-155 236.2,-152.97 239.59,-151.15 243.09,-149.53"/>
<polygon fill="midnightblue" stroke="midnightblue" points="244.65,-152.67 252.59,-145.65 242.01,-146.19 244.65,-152.67"/>
</g>
<!-- Node18 -->
<g id="node18" class="node">
<title>Node18</title>
<g id="a_node18"><a xlink:href="../../dc/d32/namespaceleanux_1_1vmem.html#afaf001154952f8397853ca745110020e" target="_top" xlink:title="get virtual memory statistics.">
<polygon fill="none" stroke="black" points="253.5,-88.5 253.5,-107.5 397.5,-107.5 397.5,-88.5 253.5,-88.5"/>
<text text-anchor="middle" x="325.5" y="-95.5" font-family="Helvetica,sans-Serif" font-size="10.00">leanux::vmem::getVMStat</text>
</a>
</g>
</g>
<!-- Node1&#45;&gt;Node18 -->
<g id="edge17" class="edge">
<title>Node1&#45;&gt;Node18</title>
<path fill="none" stroke="midnightblue" d="M104.2,-316.82C117.38,-276.99 158.63,-168.97 233,-117 236.35,-114.66 239.92,-112.6 243.64,-110.78"/>
<polygon fill="midnightblue" stroke="midnightblue" points="245.31,-113.88 253.15,-106.75 242.58,-107.43 245.31,-113.88"/>
</g>
<!-- Node19 -->
<g id="node19" class="node">
<title>Node19</title>
<g id="a_node19"><a xlink:href="../../da/dbe/namespaceleanux_1_1tools_1_1lmon.html#a85ae7434eb396ed84307a15724c790c0" target="_top" xlink:title="create a (vertical) CPU bar string from the CPUStat for terminal&#45;based output.">
<polygon fill="none" stroke="black" points="270.5,-39 270.5,-69 380.5,-69 380.5,-39 270.5,-39"/>
<text text-anchor="start" x="278.5" y="-57" font-family="Helvetica,sans-Serif" font-size="10.00">leanux::tools::lmon</text>
<text text-anchor="middle" x="325.5" y="-46" font-family="Helvetica,sans-Serif" font-size="10.00">::makeCPUBar</text>
</a>
</g>
</g>
<!-- Node1&#45;&gt;Node19 -->
<g id="edge18" class="edge">
<title>Node1&#45;&gt;Node19</title>
<path fill="none" stroke="midnightblue" d="M103,-316.75C113.93,-272.7 151.64,-144.25 233,-79 241.08,-72.52 250.71,-67.71 260.65,-64.15"/>
<polygon fill="midnightblue" stroke="midnightblue" points="261.76,-67.47 270.23,-61.1 259.64,-60.8 261.76,-67.47"/>
</g>
<!-- Node21 -->
<g id="node21" class="node">
<title>Node21</title>
<g id="a_node21"><a xlink:href="../../da/da3/namespaceleanux_1_1cpu.html#ae4420cd18b5170e303f743d6c2e5a6ec" target="_top" xlink:title="Scales the numbers in stat to the time interval dt times the number of processors,...">
<polygon fill="none" stroke="black" points="239.5,-0.5 239.5,-19.5 411.5,-19.5 411.5,-0.5 239.5,-0.5"/>
<text text-anchor="middle" x="325.5" y="-7.5" font-family="Helvetica,sans-Serif" font-size="10.00">leanux::cpu::normalizeCPUstats</text>
</a>
</g>
</g>
<!-- Node1&#45;&gt;Node21 -->
<g id="edge20" class="edge">
<title>Node1&#45;&gt;Node21</title>
<path fill="none" stroke="midnightblue" d="M101.33,-316.81C108.2,-266.87 137.14,-106.56 233,-29 235.04,-27.35 237.19,-25.83 239.43,-24.43"/>
<polygon fill="midnightblue" stroke="midnightblue" points="241.25,-27.43 248.43,-19.63 237.96,-21.25 241.25,-27.43"/>
</g>
<!-- Node5 -->
<g id="node5" class="node">
<title>Node5</title>
<g id="a_node5"><a xlink:href="../../dd/d42/namespaceleanux_1_1system.html#abb67aa26c6ef63b4ad7b4194f1a8d774" target="_top" xlink:title="Get the number of clock ticks per second.">
<polygon fill="none" stroke="black" points="454,-568.5 454,-587.5 603,-587.5 603,-568.5 454,-568.5"/>
<text text-anchor="middle" x="528.5" y="-575.5" font-family="Helvetica,sans-Serif" font-size="10.00">leanux::system::getUserHz</text>
</a>
</g>
</g>
<!-- Node4&#45;&gt;Node5 -->
<g id="edge4" class="edge">
<title>Node4&#45;&gt;Node5</title>
<path fill="none" stroke="midnightblue" d="M395.67,-578C411.04,-578 427.5,-578 443.39,-578"/>
<polygon fill="midnightblue" stroke="midnightblue" points="443.74,-581.5 453.74,-578 443.74,-574.5 443.74,-581.5"/>
</g>
<!-- Node7 -->
<g id="node7" class="node">
<title>Node7</title>
<g id="a_node7"><a xlink:href="../../d8/db1/namespaceleanux_1_1util.html#a1e9a1206d94b2f96e8e0c6adc4e4cd12" target="_top" xlink:title="read the first data in the file as a string representation of a unsigned long.">
<polygon fill="none" stroke="black" points="463.5,-530.5 463.5,-549.5 593.5,-549.5 593.5,-530.5 463.5,-530.5"/>
<text text-anchor="middle" x="528.5" y="-537.5" font-family="Helvetica,sans-Serif" font-size="10.00">leanux::util::fileReadUL</text>
</a>
</g>
</g>
<!-- Node6&#45;&gt;Node7 -->
<g id="edge6" class="edge">
<title>Node6&#45;&gt;Node7</title>
<path fill="none" stroke="midnightblue" d="M404.79,-540C420.7,-540 437.4,-540 453.17,-540"/>
<polygon fill="midnightblue" stroke="midnightblue" points="453.38,-543.5 463.38,-540 453.38,-536.5 453.38,-543.5"/>
</g>
<!-- Node20 -->
<g id="node20" class="node">
<title>Node20</title>
<g id="a_node20"><a xlink:href="../../da/da3/namespaceleanux_1_1cpu.html#a3b1bbe660ecf384b94d5915f3d90e2b7" target="_top" xlink:title="Compute the total amount of CPU time in stat.">
<polygon fill="none" stroke="black" points="455.5,-39 455.5,-69 601.5,-69 601.5,-39 455.5,-39"/>
<text text-anchor="start" x="463.5" y="-57" font-family="Helvetica,sans-Serif" font-size="10.00">leanux::cpu::getCPUUsage</text>
<text text-anchor="middle" x="528.5" y="-46" font-family="Helvetica,sans-Serif" font-size="10.00">Total</text>
</a>
</g>
</g>
<!-- Node19&#45;&gt;Node20 -->
<g id="edge19" class="edge">
<title>Node19&#45;&gt;Node20</title>
<path fill="none" stroke="midnightblue" d="M380.63,-54C400.4,-54 423.25,-54 444.94,-54"/>
<polygon fill="midnightblue" stroke="midnightblue" points="445.14,-57.5 455.14,-54 445.14,-50.5 445.14,-57.5"/>
</g>
</g>
</svg>
