<?xml version="1.0" encoding="UTF-8" standalone="no"?>
<!DOCTYPE svg PUBLIC "-//W3C//DTD SVG 1.1//EN"
 "http://www.w3.org/Graphics/SVG/1.1/DTD/svg11.dtd">
<!-- Generated by graphviz version 2.43.0 (0)
 -->
<!-- Title: leanux::tools::lmon::RealtimeSampler::sampleXIOView Pages: 1 -->
<svg width="579pt" height="350pt"
 viewBox="0.00 0.00 579.00 350.00" xmlns="http://www.w3.org/2000/svg" xmlns:xlink="http://www.w3.org/1999/xlink">
<g id="graph0" class="graph" transform="scale(1 1) rotate(0) translate(4 346)">
<title>leanux::tools::lmon::RealtimeSampler::sampleXIOView</title>
<!-- Node1 -->
<g id="node1" class="node">
<title>Node1</title>
<g id="a_node1"><a xlink:title=" ">
<polygon fill="#bfbfbf" stroke="black" points="0,-191.5 0,-221.5 191,-221.5 191,-191.5 0,-191.5"/>
<text text-anchor="start" x="8" y="-209.5" font-family="Helvetica,sans-Serif" font-size="10.00">leanux::tools::lmon</text>
<text text-anchor="middle" x="95.5" y="-198.5" font-family="Helvetica,sans-Serif" font-size="10.00">::RealtimeSampler::sampleXIOView</text>
</a>
</g>
</g>
<!-- Node2 -->
<g id="node2" class="node">
<title>Node2</title>
<g id="a_node2"><a xlink:href="../../d5/d01/namespaceleanux_1_1block.html#aa7dafdc339a1159d4364e877a7453c03" target="_top" xlink:title="create a delta of two DeviceStatsMaps.">
<polygon fill="none" stroke="black" points="233.5,-311.5 233.5,-341.5 379.5,-341.5 379.5,-311.5 233.5,-311.5"/>
<text text-anchor="start" x="241.5" y="-329.5" font-family="Helvetica,sans-Serif" font-size="10.00">leanux::block::deltaDevice</text>
<text text-anchor="middle" x="306.5" y="-318.5" font-family="Helvetica,sans-Serif" font-size="10.00">Stats</text>
</a>
</g>
</g>
<!-- Node1&#45;&gt;Node2 -->
<g id="edge1" class="edge">
<title>Node1&#45;&gt;Node2</title>
<path fill="none" stroke="midnightblue" d="M113.47,-221.65C137.3,-242.25 182.75,-279.09 227,-301.5 231.51,-303.78 236.27,-305.91 241.13,-307.89"/>
<polygon fill="midnightblue" stroke="midnightblue" points="239.95,-311.19 250.54,-311.49 242.46,-304.65 239.95,-311.19"/>
</g>
<!-- Node3 -->
<g id="node3" class="node">
<title>Node3</title>
<g id="a_node3"><a xlink:href="../../d8/db1/namespaceleanux_1_1util.html#a4837f2d09bfda41e98223427201d04e2" target="_top" xlink:title="Return the deltaof two timevals in seconds.">
<polygon fill="none" stroke="black" points="243,-273 243,-292 370,-292 370,-273 243,-273"/>
<text text-anchor="middle" x="306.5" y="-280" font-family="Helvetica,sans-Serif" font-size="10.00">leanux::util::deltaTime</text>
</a>
</g>
</g>
<!-- Node1&#45;&gt;Node3 -->
<g id="edge2" class="edge">
<title>Node1&#45;&gt;Node3</title>
<path fill="none" stroke="midnightblue" d="M131.93,-221.54C158.01,-232.38 194.44,-247.06 227,-258.5 238.33,-262.48 250.72,-266.45 262.23,-269.97"/>
<polygon fill="midnightblue" stroke="midnightblue" points="261.49,-273.4 272.07,-272.94 263.51,-266.7 261.49,-273.4"/>
</g>
<!-- Node4 -->
<g id="node4" class="node">
<title>Node4</title>
<g id="a_node4"><a xlink:href="../../d5/d01/namespaceleanux_1_1block.html#afaee6721d578e4e9ccbebb7dea5919a6" target="_top" xlink:title="Get a map of MajorMinor to MountInfo from /proc/mounts.">
<polygon fill="none" stroke="black" points="230.5,-197 230.5,-216 382.5,-216 382.5,-197 230.5,-197"/>
<text text-anchor="middle" x="306.5" y="-204" font-family="Helvetica,sans-Serif" font-size="10.00">leanux::block::enumMounts</text>
</a>
</g>
</g>
<!-- Node1&#45;&gt;Node4 -->
<g id="edge3" class="edge">
<title>Node1&#45;&gt;Node4</title>
<path fill="none" stroke="midnightblue" d="M191.22,-206.5C200.81,-206.5 210.52,-206.5 220.01,-206.5"/>
<polygon fill="midnightblue" stroke="midnightblue" points="220.21,-210 230.21,-206.5 220.21,-203 220.21,-210"/>
</g>
<!-- Node5 -->
<g id="node5" class="node">
<title>Node5</title>
<g id="a_node5"><a xlink:href="../../d5/d01/namespaceleanux_1_1block.html#a12e7b3a8ce8e601504f25c9c3e2fa7f0" target="_top" xlink:title="get the MajorMinor for a device file or aliases to it, resolves the devicefile with realpath.">
<polygon fill="none" stroke="red" points="422,-245.5 422,-275.5 571,-275.5 571,-245.5 422,-245.5"/>
<text text-anchor="start" x="430" y="-263.5" font-family="Helvetica,sans-Serif" font-size="10.00">leanux::block::getFileMajor</text>
<text text-anchor="middle" x="496.5" y="-252.5" font-family="Helvetica,sans-Serif" font-size="10.00">Minor</text>
</a>
</g>
</g>
<!-- Node1&#45;&gt;Node5 -->
<g id="edge7" class="edge">
<title>Node1&#45;&gt;Node5</title>
<path fill="none" stroke="midnightblue" d="M191.27,-220.47C203.3,-222.19 215.43,-223.9 227,-225.5 288.9,-234.04 358.92,-243.15 411.92,-249.93"/>
<polygon fill="midnightblue" stroke="midnightblue" points="411.59,-253.42 421.96,-251.21 412.48,-246.47 411.59,-253.42"/>
</g>
<!-- Node12 -->
<g id="node8" class="node">
<title>Node12</title>
<g id="a_node8"><a xlink:href="../../d5/d01/namespaceleanux_1_1block.html#a0a3be314ae37f554ef89d7b5b30a8039" target="_top" xlink:title="Used bytes over all mounted filesystems.">
<polygon fill="none" stroke="black" points="227,-147.5 227,-177.5 386,-177.5 386,-147.5 227,-147.5"/>
<text text-anchor="start" x="235" y="-165.5" font-family="Helvetica,sans-Serif" font-size="10.00">leanux::block::getMountUsed</text>
<text text-anchor="middle" x="306.5" y="-154.5" font-family="Helvetica,sans-Serif" font-size="10.00">Bytes</text>
</a>
</g>
</g>
<!-- Node1&#45;&gt;Node12 -->
<g id="edge8" class="edge">
<title>Node1&#45;&gt;Node12</title>
<path fill="none" stroke="midnightblue" d="M167.84,-191.48C185.98,-187.66 205.62,-183.53 224.21,-179.61"/>
<polygon fill="midnightblue" stroke="midnightblue" points="225.06,-183.01 234.13,-177.53 223.62,-176.16 225.06,-183.01"/>
</g>
<!-- Node13 -->
<g id="node9" class="node">
<title>Node13</title>
<g id="a_node9"><a xlink:href="../../d5/d01/namespaceleanux_1_1block.html#ae227ed1fa83d91988072e335ea0f81e9" target="_top" xlink:title="get block device statistics into a DeviceStatsMap.">
<polygon fill="none" stroke="black" points="242.5,-104 242.5,-123 370.5,-123 370.5,-104 242.5,-104"/>
<text text-anchor="middle" x="306.5" y="-111" font-family="Helvetica,sans-Serif" font-size="10.00">leanux::block::getStats</text>
</a>
</g>
</g>
<!-- Node1&#45;&gt;Node13 -->
<g id="edge9" class="edge">
<title>Node1&#45;&gt;Node13</title>
<path fill="none" stroke="midnightblue" d="M122.36,-191.33C148.24,-176.56 189.5,-154.11 227,-138.5 237.93,-133.95 249.99,-129.73 261.32,-126.1"/>
<polygon fill="midnightblue" stroke="midnightblue" points="262.53,-129.39 271.04,-123.07 260.45,-122.71 262.53,-129.39"/>
</g>
<!-- Node18 -->
<g id="node13" class="node">
<title>Node18</title>
<g id="a_node13"><a xlink:href="../../dc/d32/namespaceleanux_1_1vmem.html#aabc162dbfa4e98a5d1bf2571ba58de88" target="_top" xlink:title="Get a std::list of SwapInfo swap spaces.">
<polygon fill="none" stroke="black" points="229.5,-66 229.5,-85 383.5,-85 383.5,-66 229.5,-66"/>
<text text-anchor="middle" x="306.5" y="-73" font-family="Helvetica,sans-Serif" font-size="10.00">leanux::vmem::getSwapInfo</text>
</a>
</g>
</g>
<!-- Node1&#45;&gt;Node18 -->
<g id="edge13" class="edge">
<title>Node1&#45;&gt;Node18</title>
<path fill="none" stroke="midnightblue" d="M109.7,-191.24C131.58,-166.96 177.84,-119.68 227,-94.5 231.56,-92.16 236.42,-90.11 241.4,-88.3"/>
<polygon fill="midnightblue" stroke="midnightblue" points="242.68,-91.56 251.08,-85.11 240.49,-84.91 242.68,-91.56"/>
</g>
<!-- Node4&#45;&gt;Node5 -->
<g id="edge4" class="edge">
<title>Node4&#45;&gt;Node5</title>
<path fill="none" stroke="midnightblue" d="M340.68,-216.03C366.26,-223.38 402.39,-233.76 433.31,-242.64"/>
<polygon fill="midnightblue" stroke="midnightblue" points="432.56,-246.06 443.14,-245.46 434.5,-239.34 432.56,-246.06"/>
</g>
<!-- Node7 -->
<g id="node6" class="node">
<title>Node7</title>
<g id="a_node6"><a xlink:href="../../d7/d28/classleanux_1_1block_1_1MajorMinor.html#a08c4dd48259318cfd77067e866e05e84" target="_top" xlink:title="get the device name for this MajorMinor.">
<polygon fill="none" stroke="red" points="425,-196.5 425,-226.5 568,-226.5 568,-196.5 425,-196.5"/>
<text text-anchor="start" x="433" y="-214.5" font-family="Helvetica,sans-Serif" font-size="10.00">leanux::block::MajorMinor</text>
<text text-anchor="middle" x="496.5" y="-203.5" font-family="Helvetica,sans-Serif" font-size="10.00">::getName</text>
</a>
</g>
</g>
<!-- Node4&#45;&gt;Node7 -->
<g id="edge5" class="edge">
<title>Node4&#45;&gt;Node7</title>
<path fill="none" stroke="midnightblue" d="M382.61,-208.5C393.15,-208.78 404.03,-209.07 414.67,-209.35"/>
<polygon fill="midnightblue" stroke="midnightblue" points="414.69,-212.85 424.78,-209.62 414.88,-205.85 414.69,-212.85"/>
</g>
<!-- Node11 -->
<g id="node7" class="node">
<title>Node11</title>
<g id="a_node7"><a xlink:href="../../d7/d28/classleanux_1_1block_1_1MajorMinor.html#a26905a16bdd3e525abb2ada713f80704" target="_top" xlink:title="Test MajorMinor validity.">
<polygon fill="none" stroke="black" points="425,-147.5 425,-177.5 568,-177.5 568,-147.5 425,-147.5"/>
<text text-anchor="start" x="433" y="-165.5" font-family="Helvetica,sans-Serif" font-size="10.00">leanux::block::MajorMinor</text>
<text text-anchor="middle" x="496.5" y="-154.5" font-family="Helvetica,sans-Serif" font-size="10.00">::isValid</text>
</a>
</g>
</g>
<!-- Node4&#45;&gt;Node11 -->
<g id="edge6" class="edge">
<title>Node4&#45;&gt;Node11</title>
<path fill="none" stroke="midnightblue" d="M348.29,-196.95C369.65,-191.95 396.47,-185.68 421.34,-179.86"/>
<polygon fill="midnightblue" stroke="midnightblue" points="422.19,-183.25 431.13,-177.57 420.6,-176.44 422.19,-183.25"/>
</g>
<!-- Node14 -->
<g id="node10" class="node">
<title>Node14</title>
<g id="a_node10"><a xlink:href="../../d7/d28/classleanux_1_1block_1_1MajorMinor.html#aec5c9aa75e9cb579163989cece64adc7" target="_top" xlink:title="Get SCSI iodone_cnt (number of SCSI IO completions)">
<polygon fill="none" stroke="red" points="425,-98.5 425,-128.5 568,-128.5 568,-98.5 425,-98.5"/>
<text text-anchor="start" x="433" y="-116.5" font-family="Helvetica,sans-Serif" font-size="10.00">leanux::block::MajorMinor</text>
<text text-anchor="middle" x="496.5" y="-105.5" font-family="Helvetica,sans-Serif" font-size="10.00">::getSCSIIODone</text>
</a>
</g>
</g>
<!-- Node13&#45;&gt;Node14 -->
<g id="edge10" class="edge">
<title>Node13&#45;&gt;Node14</title>
<path fill="none" stroke="midnightblue" d="M370.62,-113.5C384.75,-113.5 399.93,-113.5 414.66,-113.5"/>
<polygon fill="midnightblue" stroke="midnightblue" points="414.77,-117 424.77,-113.5 414.77,-110 414.77,-117"/>
</g>
<!-- Node16 -->
<g id="node11" class="node">
<title>Node16</title>
<g id="a_node11"><a xlink:href="../../d7/d28/classleanux_1_1block_1_1MajorMinor.html#ab3f52da181b760aa9d9240c08beb8ae8" target="_top" xlink:title="Get SCSI ioerr_cnt (number of SCSI IO errors)">
<polygon fill="none" stroke="red" points="425,-49.5 425,-79.5 568,-79.5 568,-49.5 425,-49.5"/>
<text text-anchor="start" x="433" y="-67.5" font-family="Helvetica,sans-Serif" font-size="10.00">leanux::block::MajorMinor</text>
<text text-anchor="middle" x="496.5" y="-56.5" font-family="Helvetica,sans-Serif" font-size="10.00">::getSCSIIOError</text>
</a>
</g>
</g>
<!-- Node13&#45;&gt;Node16 -->
<g id="edge11" class="edge">
<title>Node13&#45;&gt;Node16</title>
<path fill="none" stroke="midnightblue" d="M347.9,-103.97C360.15,-101.01 373.64,-97.69 386,-94.5 400.95,-90.64 417.01,-86.34 432.09,-82.22"/>
<polygon fill="midnightblue" stroke="midnightblue" points="433.12,-85.57 441.84,-79.55 431.27,-78.81 433.12,-85.57"/>
</g>
<!-- Node17 -->
<g id="node12" class="node">
<title>Node17</title>
<g id="a_node12"><a xlink:href="../../d7/d28/classleanux_1_1block_1_1MajorMinor.html#a0c501b00fcddef5167f8f4e4f98e3bdb" target="_top" xlink:title="Get SCSI iorequest_cnt (number of SCSI IO requests)">
<polygon fill="none" stroke="red" points="425,-0.5 425,-30.5 568,-30.5 568,-0.5 425,-0.5"/>
<text text-anchor="start" x="433" y="-18.5" font-family="Helvetica,sans-Serif" font-size="10.00">leanux::block::MajorMinor</text>
<text text-anchor="middle" x="496.5" y="-7.5" font-family="Helvetica,sans-Serif" font-size="10.00">::getSCSIIORequest</text>
</a>
</g>
</g>
<!-- Node13&#45;&gt;Node17 -->
<g id="edge12" class="edge">
<title>Node13&#45;&gt;Node17</title>
<path fill="none" stroke="midnightblue" d="M367.83,-103.89C374.28,-101.43 380.48,-98.36 386,-94.5 409.64,-77.97 399.13,-58.08 422,-40.5 424.43,-38.63 427.01,-36.89 429.7,-35.29"/>
<polygon fill="midnightblue" stroke="midnightblue" points="431.39,-38.35 438.57,-30.56 428.09,-32.17 431.39,-38.35"/>
</g>
</g>
</svg>
