<?xml version="1.0" encoding="UTF-8" standalone="no"?>
<!DOCTYPE svg PUBLIC "-//W3C//DTD SVG 1.1//EN"
 "http://www.w3.org/Graphics/SVG/1.1/DTD/svg11.dtd">
<!-- Generated by graphviz version 2.43.0 (0)
 -->
<!-- Title: leanux::tools::lmon::SysView::xrefresh Pages: 1 -->
<svg width="530pt" height="903pt"
 viewBox="0.00 0.00 530.00 902.50" xmlns="http://www.w3.org/2000/svg" xmlns:xlink="http://www.w3.org/1999/xlink">
<g id="graph0" class="graph" transform="scale(1 1) rotate(0) translate(4 898.5)">
<title>leanux::tools::lmon::SysView::xrefresh</title>
<!-- Node1 -->
<g id="node1" class="node">
<title>Node1</title>
<g id="a_node1"><a xlink:title="refresh (redraw) the View.">
<polygon fill="#bfbfbf" stroke="black" points="0,-302 0,-332 110,-332 110,-302 0,-302"/>
<text text-anchor="start" x="8" y="-320" font-family="Helvetica,sans-Serif" font-size="10.00">leanux::tools::lmon</text>
<text text-anchor="middle" x="55" y="-309" font-family="Helvetica,sans-Serif" font-size="10.00">::SysView::xrefresh</text>
</a>
</g>
</g>
<!-- Node2 -->
<g id="node2" class="node">
<title>Node2</title>
<g id="a_node2"><a xlink:href="../../da/d9f/classleanux_1_1tools_1_1lmon_1_1SysView.html#a01702243a446d6a32114b87b8c4d399b" target="_top" xlink:title="Get ncurses display attributes depending on the type of CPU chararcter.">
<polygon fill="none" stroke="black" points="158.5,-693 158.5,-723 312.5,-723 312.5,-693 158.5,-693"/>
<text text-anchor="start" x="166.5" y="-711" font-family="Helvetica,sans-Serif" font-size="10.00">leanux::tools::lmon</text>
<text text-anchor="middle" x="235.5" y="-700" font-family="Helvetica,sans-Serif" font-size="10.00">::SysView::attrFromCPUChar</text>
</a>
</g>
</g>
<!-- Node1&#45;&gt;Node2 -->
<g id="edge1" class="edge">
<title>Node1&#45;&gt;Node2</title>
<path fill="none" stroke="midnightblue" d="M59.2,-332.11C68.55,-374.43 98.16,-496.99 146,-589 164.83,-625.21 194.28,-662.21 213.97,-685.13"/>
<polygon fill="midnightblue" stroke="midnightblue" points="211.54,-687.67 220.75,-692.91 216.82,-683.07 211.54,-687.67"/>
</g>
<!-- Node10 -->
<g id="node10" class="node">
<title>Node10</title>
<g id="a_node10"><a xlink:href="../../d1/de8/classleanux_1_1tools_1_1lmon_1_1View.html#aaa8ca71eb57cb60dc0f909da68329a65" target="_top" xlink:title="Draw a box.">
<polygon fill="none" stroke="black" points="180.5,-516 180.5,-546 290.5,-546 290.5,-516 180.5,-516"/>
<text text-anchor="start" x="188.5" y="-534" font-family="Helvetica,sans-Serif" font-size="10.00">leanux::tools::lmon</text>
<text text-anchor="middle" x="235.5" y="-523" font-family="Helvetica,sans-Serif" font-size="10.00">::View::box</text>
</a>
</g>
</g>
<!-- Node1&#45;&gt;Node10 -->
<g id="edge9" class="edge">
<title>Node1&#45;&gt;Node10</title>
<path fill="none" stroke="midnightblue" d="M59.18,-332.03C67.33,-366.86 92.19,-453.68 146,-501 153.23,-507.36 161.87,-512.39 170.88,-516.35"/>
<polygon fill="midnightblue" stroke="midnightblue" points="169.76,-519.67 180.35,-520.11 172.34,-513.17 169.76,-519.67"/>
</g>
<!-- Node11 -->
<g id="node11" class="node">
<title>Node11</title>
<g id="a_node11"><a xlink:href="../../d1/de8/classleanux_1_1tools_1_1lmon_1_1View.html#ad4bf2613d86d8fd5d95fc2b09103a9dc" target="_top" xlink:title="Draw a horizontal line.">
<polygon fill="none" stroke="black" points="386.5,-521 386.5,-551 496.5,-551 496.5,-521 386.5,-521"/>
<text text-anchor="start" x="394.5" y="-539" font-family="Helvetica,sans-Serif" font-size="10.00">leanux::tools::lmon</text>
<text text-anchor="middle" x="441.5" y="-528" font-family="Helvetica,sans-Serif" font-size="10.00">::View::hLine</text>
</a>
</g>
</g>
<!-- Node1&#45;&gt;Node11 -->
<g id="edge16" class="edge">
<title>Node1&#45;&gt;Node11</title>
<path fill="none" stroke="midnightblue" d="M56.26,-332.25C57.92,-376.13 69.44,-503.02 146,-556 181.99,-580.91 301.09,-563.67 376.35,-549.44"/>
<polygon fill="midnightblue" stroke="midnightblue" points="377.05,-552.87 386.21,-547.54 375.73,-545.99 377.05,-552.87"/>
</g>
<!-- Node12 -->
<g id="node12" class="node">
<title>Node12</title>
<g id="a_node12"><a xlink:href="../../d1/de8/classleanux_1_1tools_1_1lmon_1_1View.html#a625d1c34066c820a2d6711fb0563b426" target="_top" xlink:title="Draw a vertical line.">
<polygon fill="none" stroke="black" points="386.5,-472 386.5,-502 496.5,-502 496.5,-472 386.5,-472"/>
<text text-anchor="start" x="394.5" y="-490" font-family="Helvetica,sans-Serif" font-size="10.00">leanux::tools::lmon</text>
<text text-anchor="middle" x="441.5" y="-479" font-family="Helvetica,sans-Serif" font-size="10.00">::View::vLine</text>
</a>
</g>
</g>
<!-- Node1&#45;&gt;Node12 -->
<g id="edge26" class="edge">
<title>Node1&#45;&gt;Node12</title>
<path fill="none" stroke="midnightblue" d="M59.96,-332.37C69.06,-364.12 94.71,-436.63 146,-468 215.66,-510.6 312.73,-507.52 376.08,-499.13"/>
<polygon fill="midnightblue" stroke="midnightblue" points="376.92,-502.55 386.34,-497.69 375.95,-495.61 376.92,-502.55"/>
</g>
<!-- Node13 -->
<g id="node13" class="node">
<title>Node13</title>
<g id="a_node13"><a xlink:href="../../d8/db1/namespaceleanux_1_1util.html#a979843e3d99f053101f902ec38985833" target="_top" xlink:title="convert a byte value to pretty print string.">
<polygon fill="none" stroke="black" points="179,-439.5 179,-458.5 292,-458.5 292,-439.5 179,-439.5"/>
<text text-anchor="middle" x="235.5" y="-446.5" font-family="Helvetica,sans-Serif" font-size="10.00">leanux::util::ByteStr</text>
</a>
</g>
</g>
<!-- Node1&#45;&gt;Node13 -->
<g id="edge12" class="edge">
<title>Node1&#45;&gt;Node13</title>
<path fill="none" stroke="midnightblue" d="M63.61,-332.21C76.81,-356.91 106.35,-405.42 146,-430 153.1,-434.4 161.08,-437.8 169.25,-440.41"/>
<polygon fill="midnightblue" stroke="midnightblue" points="168.32,-443.79 178.9,-443.13 170.22,-437.05 168.32,-443.79"/>
</g>
<!-- Node14 -->
<g id="node14" class="node">
<title>Node14</title>
<g id="a_node14"><a xlink:href="../../d1/de8/classleanux_1_1tools_1_1lmon_1_1View.html#a203c42675ae0d185ab57a8a556f6b9bb" target="_top" xlink:title="Write character ch at x,y with display attrs.">
<polygon fill="none" stroke="black" points="180.5,-390 180.5,-420 290.5,-420 290.5,-390 180.5,-390"/>
<text text-anchor="start" x="188.5" y="-408" font-family="Helvetica,sans-Serif" font-size="10.00">leanux::tools::lmon</text>
<text text-anchor="middle" x="235.5" y="-397" font-family="Helvetica,sans-Serif" font-size="10.00">::View::charOut</text>
</a>
</g>
</g>
<!-- Node1&#45;&gt;Node14 -->
<g id="edge13" class="edge">
<title>Node1&#45;&gt;Node14</title>
<path fill="none" stroke="midnightblue" d="M73.83,-332.22C91.23,-346.38 118.95,-367.16 146,-380 153.67,-383.64 161.98,-386.85 170.32,-389.64"/>
<polygon fill="midnightblue" stroke="midnightblue" points="169.5,-393.06 180.09,-392.74 171.62,-386.38 169.5,-393.06"/>
</g>
<!-- Node15 -->
<g id="node15" class="node">
<title>Node15</title>
<g id="a_node15"><a xlink:href="../../d8/db1/namespaceleanux_1_1util.html#a4837f2d09bfda41e98223427201d04e2" target="_top" xlink:title="Return the deltaof two timevals in seconds.">
<polygon fill="none" stroke="black" points="172,-351.5 172,-370.5 299,-370.5 299,-351.5 172,-351.5"/>
<text text-anchor="middle" x="235.5" y="-358.5" font-family="Helvetica,sans-Serif" font-size="10.00">leanux::util::deltaTime</text>
</a>
</g>
</g>
<!-- Node1&#45;&gt;Node15 -->
<g id="edge14" class="edge">
<title>Node1&#45;&gt;Node15</title>
<path fill="none" stroke="midnightblue" d="M108.21,-332.07C120.56,-335.48 133.72,-338.98 146,-342 156.18,-344.5 167.06,-346.99 177.58,-349.3"/>
<polygon fill="midnightblue" stroke="midnightblue" points="177.02,-352.76 187.53,-351.46 178.5,-345.92 177.02,-352.76"/>
</g>
<!-- Node16 -->
<g id="node16" class="node">
<title>Node16</title>
<g id="a_node16"><a xlink:href="../../d1/de8/classleanux_1_1tools_1_1lmon_1_1View.html#ae8e5d7620a79bf0831c563abea43ea6f" target="_top" xlink:title="Write double as a percentage x,y with display attrs.">
<polygon fill="none" stroke="black" points="177,-302 177,-332 294,-332 294,-302 177,-302"/>
<text text-anchor="start" x="185" y="-320" font-family="Helvetica,sans-Serif" font-size="10.00">leanux::tools::lmon</text>
<text text-anchor="middle" x="235.5" y="-309" font-family="Helvetica,sans-Serif" font-size="10.00">::View::doubleOutPct</text>
</a>
</g>
</g>
<!-- Node1&#45;&gt;Node16 -->
<g id="edge15" class="edge">
<title>Node1&#45;&gt;Node16</title>
<path fill="none" stroke="midnightblue" d="M110.04,-317C127.88,-317 147.94,-317 166.68,-317"/>
<polygon fill="midnightblue" stroke="midnightblue" points="166.92,-320.5 176.92,-317 166.92,-313.5 166.92,-320.5"/>
</g>
<!-- Node17 -->
<g id="node17" class="node">
<title>Node17</title>
<g id="a_node17"><a xlink:href="../../d8/db1/namespaceleanux_1_1util.html#a64591c1e5e2afd7e676c51c08d3cf315" target="_top" xlink:title="Return current local time in ISO format; YYYY&#45;MM&#45;DD HH24:MI:SS.">
<polygon fill="none" stroke="black" points="146,-263.5 146,-282.5 325,-282.5 325,-263.5 146,-263.5"/>
<text text-anchor="middle" x="235.5" y="-270.5" font-family="Helvetica,sans-Serif" font-size="10.00">leanux::util::localStrISODateTime</text>
</a>
</g>
</g>
<!-- Node1&#45;&gt;Node17 -->
<g id="edge17" class="edge">
<title>Node1&#45;&gt;Node17</title>
<path fill="none" stroke="midnightblue" d="M110.17,-302.2C121.96,-299.07 134.38,-295.86 146,-293 157.24,-290.23 169.32,-287.41 180.83,-284.78"/>
<polygon fill="midnightblue" stroke="midnightblue" points="181.78,-288.16 190.76,-282.54 180.23,-281.33 181.78,-288.16"/>
</g>
<!-- Node18 -->
<g id="node18" class="node">
<title>Node18</title>
<g id="a_node18"><a xlink:href="../../d8/db1/namespaceleanux_1_1util.html#a2ad50fb3feb828504bf9c9a597ee9c43" target="_top" xlink:title=" ">
<polygon fill="none" stroke="black" points="158,-225.5 158,-244.5 313,-244.5 313,-225.5 158,-225.5"/>
<text text-anchor="middle" x="235.5" y="-232.5" font-family="Helvetica,sans-Serif" font-size="10.00">leanux::util::localStrISOTime</text>
</a>
</g>
</g>
<!-- Node1&#45;&gt;Node18 -->
<g id="edge18" class="edge">
<title>Node1&#45;&gt;Node18</title>
<path fill="none" stroke="midnightblue" d="M73,-301.94C90.22,-287.49 118.2,-266.12 146,-254 151.77,-251.49 157.89,-249.29 164.13,-247.38"/>
<polygon fill="midnightblue" stroke="midnightblue" points="165.3,-250.69 173.98,-244.61 163.4,-243.95 165.3,-250.69"/>
</g>
<!-- Node19 -->
<g id="node19" class="node">
<title>Node19</title>
<g id="a_node19"><a xlink:href="../../da/dbe/namespaceleanux_1_1tools_1_1lmon.html#a85ae7434eb396ed84307a15724c790c0" target="_top" xlink:title="create a (vertical) CPU bar string from the CPUStat for terminal&#45;based output.">
<polygon fill="none" stroke="black" points="180.5,-176 180.5,-206 290.5,-206 290.5,-176 180.5,-176"/>
<text text-anchor="start" x="188.5" y="-194" font-family="Helvetica,sans-Serif" font-size="10.00">leanux::tools::lmon</text>
<text text-anchor="middle" x="235.5" y="-183" font-family="Helvetica,sans-Serif" font-size="10.00">::makeCPUBar</text>
</a>
</g>
</g>
<!-- Node1&#45;&gt;Node19 -->
<g id="edge19" class="edge">
<title>Node1&#45;&gt;Node19</title>
<path fill="none" stroke="midnightblue" d="M65.37,-301.88C79.89,-279.7 109.96,-238.55 146,-216 153.65,-211.21 162.24,-207.32 170.98,-204.16"/>
<polygon fill="midnightblue" stroke="midnightblue" points="172.1,-207.48 180.49,-201.01 169.9,-200.83 172.1,-207.48"/>
</g>
<!-- Node21 -->
<g id="node21" class="node">
<title>Node21</title>
<g id="a_node21"><a xlink:href="../../d8/db1/namespaceleanux_1_1util.html#a0c9555d36d9264d1f0cd246c8ba6da28" target="_top" xlink:title="Convert a double (real number) to a pretty print string.">
<polygon fill="none" stroke="black" points="178.5,-137.5 178.5,-156.5 292.5,-156.5 292.5,-137.5 178.5,-137.5"/>
<text text-anchor="middle" x="235.5" y="-144.5" font-family="Helvetica,sans-Serif" font-size="10.00">leanux::util::NumStr</text>
</a>
</g>
</g>
<!-- Node1&#45;&gt;Node21 -->
<g id="edge21" class="edge">
<title>Node1&#45;&gt;Node21</title>
<path fill="none" stroke="midnightblue" d="M60.57,-301.89C70.64,-271.28 97.77,-201.89 146,-167 152.79,-162.09 160.58,-158.36 168.65,-155.52"/>
<polygon fill="midnightblue" stroke="midnightblue" points="169.69,-158.86 178.23,-152.59 167.64,-152.17 169.69,-158.86"/>
</g>
<!-- Node22 -->
<g id="node22" class="node">
<title>Node22</title>
<g id="a_node22"><a xlink:href="../../d1/de8/classleanux_1_1tools_1_1lmon_1_1View.html#a2f37f251e8f17c1e11536b368fd66ec8" target="_top" xlink:title="Write text at x,y with display attrs.">
<polygon fill="none" stroke="black" points="180.5,-88 180.5,-118 290.5,-118 290.5,-88 180.5,-88"/>
<text text-anchor="start" x="188.5" y="-106" font-family="Helvetica,sans-Serif" font-size="10.00">leanux::tools::lmon</text>
<text text-anchor="middle" x="235.5" y="-95" font-family="Helvetica,sans-Serif" font-size="10.00">::View::textOut</text>
</a>
</g>
</g>
<!-- Node1&#45;&gt;Node22 -->
<g id="edge22" class="edge">
<title>Node1&#45;&gt;Node22</title>
<path fill="none" stroke="midnightblue" d="M58.78,-301.9C66.18,-266.09 89.75,-175.46 146,-128 153.25,-121.89 161.89,-117.26 170.9,-113.77"/>
<polygon fill="midnightblue" stroke="midnightblue" points="172.04,-117.08 180.37,-110.52 169.77,-110.46 172.04,-117.08"/>
</g>
<!-- Node23 -->
<g id="node23" class="node">
<title>Node23</title>
<g id="a_node23"><a xlink:href="../../d1/de8/classleanux_1_1tools_1_1lmon_1_1View.html#a930069be2a250f759dd9d034bc559a71" target="_top" xlink:title="Draw text right&#45;adjusted.">
<polygon fill="none" stroke="black" points="180.5,-39 180.5,-69 290.5,-69 290.5,-39 180.5,-39"/>
<text text-anchor="start" x="188.5" y="-57" font-family="Helvetica,sans-Serif" font-size="10.00">leanux::tools::lmon</text>
<text text-anchor="middle" x="235.5" y="-46" font-family="Helvetica,sans-Serif" font-size="10.00">::View::textOutRA</text>
</a>
</g>
</g>
<!-- Node1&#45;&gt;Node23 -->
<g id="edge23" class="edge">
<title>Node1&#45;&gt;Node23</title>
<path fill="none" stroke="midnightblue" d="M57.14,-301.89C61.11,-259.98 78.13,-141.26 146,-79 153.07,-72.51 161.7,-67.69 170.77,-64.12"/>
<polygon fill="midnightblue" stroke="midnightblue" points="172.02,-67.39 180.33,-60.82 169.74,-60.77 172.02,-67.39"/>
</g>
<!-- Node24 -->
<g id="node24" class="node">
<title>Node24</title>
<g id="a_node24"><a xlink:href="../../d8/db1/namespaceleanux_1_1util.html#a377ec19addd5d3ca3ecee9a2591f6458" target="_top" xlink:title="convert a time duration in seconds to a pretty print string.">
<polygon fill="none" stroke="black" points="169,-0.5 169,-19.5 302,-19.5 302,-0.5 169,-0.5"/>
<text text-anchor="middle" x="235.5" y="-7.5" font-family="Helvetica,sans-Serif" font-size="10.00">leanux::util::TimeStrSec</text>
</a>
</g>
</g>
<!-- Node1&#45;&gt;Node24 -->
<g id="edge24" class="edge">
<title>Node1&#45;&gt;Node24</title>
<path fill="none" stroke="midnightblue" d="M55.79,-301.72C56.01,-253.64 63.58,-104.21 146,-29 149.96,-25.39 154.44,-22.4 159.23,-19.93"/>
<polygon fill="midnightblue" stroke="midnightblue" points="160.97,-22.99 168.75,-15.81 158.19,-16.57 160.97,-22.99"/>
</g>
<!-- Node3 -->
<g id="node3" class="node">
<title>Node3</title>
<g id="a_node3"><a xlink:href="../../d9/d1b/classleanux_1_1tools_1_1lmon_1_1Palette.html#abcc1d443c427ea0fb12c091d50beca7b" target="_top" xlink:title="get iowait color.">
<polygon fill="none" stroke="black" points="363.5,-864 363.5,-894 519.5,-894 519.5,-864 363.5,-864"/>
<text text-anchor="start" x="371.5" y="-882" font-family="Helvetica,sans-Serif" font-size="10.00">leanux::tools::lmon</text>
<text text-anchor="middle" x="441.5" y="-871" font-family="Helvetica,sans-Serif" font-size="10.00">::Palette::getColorIOWaitCPU</text>
</a>
</g>
</g>
<!-- Node2&#45;&gt;Node3 -->
<g id="edge2" class="edge">
<title>Node2&#45;&gt;Node3</title>
<path fill="none" stroke="midnightblue" d="M245.32,-723.43C263.23,-753.34 306.75,-819.41 361,-855 363.43,-856.59 365.97,-858.09 368.59,-859.48"/>
<polygon fill="midnightblue" stroke="midnightblue" points="367.21,-862.7 377.74,-863.87 370.23,-856.39 367.21,-862.7"/>
</g>
<!-- Node4 -->
<g id="node4" class="node">
<title>Node4</title>
<g id="a_node4"><a xlink:href="../../d9/d1b/classleanux_1_1tools_1_1lmon_1_1Palette.html#a8f435fa57b81b36b8abc7ce50e8b3d94" target="_top" xlink:title="get irq color.">
<polygon fill="none" stroke="black" points="371,-815 371,-845 512,-845 512,-815 371,-815"/>
<text text-anchor="start" x="379" y="-833" font-family="Helvetica,sans-Serif" font-size="10.00">leanux::tools::lmon</text>
<text text-anchor="middle" x="441.5" y="-822" font-family="Helvetica,sans-Serif" font-size="10.00">::Palette::getColorIRQCPU</text>
</a>
</g>
</g>
<!-- Node2&#45;&gt;Node4 -->
<g id="edge3" class="edge">
<title>Node2&#45;&gt;Node4</title>
<path fill="none" stroke="midnightblue" d="M251.66,-723.09C273.86,-744.41 317.33,-783.26 361,-806 364.5,-807.82 368.15,-809.53 371.9,-811.12"/>
<polygon fill="midnightblue" stroke="midnightblue" points="370.75,-814.43 381.33,-814.86 373.32,-807.92 370.75,-814.43"/>
</g>
<!-- Node5 -->
<g id="node5" class="node">
<title>Node5</title>
<g id="a_node5"><a xlink:href="../../d9/d1b/classleanux_1_1tools_1_1lmon_1_1Palette.html#a5f264f21e7c12361c5795ddf3bd40316" target="_top" xlink:title="get nice cpu color.">
<polygon fill="none" stroke="black" points="368.5,-766 368.5,-796 514.5,-796 514.5,-766 368.5,-766"/>
<text text-anchor="start" x="376.5" y="-784" font-family="Helvetica,sans-Serif" font-size="10.00">leanux::tools::lmon</text>
<text text-anchor="middle" x="441.5" y="-773" font-family="Helvetica,sans-Serif" font-size="10.00">::Palette::getColorNiceCPU</text>
</a>
</g>
</g>
<!-- Node2&#45;&gt;Node5 -->
<g id="edge4" class="edge">
<title>Node2&#45;&gt;Node5</title>
<path fill="none" stroke="midnightblue" d="M272.44,-723.05C297.15,-733.17 330.83,-746.53 361,-757 366.81,-759.02 372.89,-761.03 378.99,-762.98"/>
<polygon fill="midnightblue" stroke="midnightblue" points="377.97,-766.33 388.56,-765.99 380.07,-759.65 377.97,-766.33"/>
</g>
<!-- Node6 -->
<g id="node6" class="node">
<title>Node6</title>
<g id="a_node6"><a xlink:href="../../d9/d1b/classleanux_1_1tools_1_1lmon_1_1Palette.html#a514e98a0145d9fcb8d076539560515b6" target="_top" xlink:title="get softirq color.">
<polygon fill="none" stroke="black" points="361.5,-717 361.5,-747 521.5,-747 521.5,-717 361.5,-717"/>
<text text-anchor="start" x="369.5" y="-735" font-family="Helvetica,sans-Serif" font-size="10.00">leanux::tools::lmon</text>
<text text-anchor="middle" x="441.5" y="-724" font-family="Helvetica,sans-Serif" font-size="10.00">::Palette::getColorSoftIRQCPU</text>
</a>
</g>
</g>
<!-- Node2&#45;&gt;Node6 -->
<g id="edge5" class="edge">
<title>Node2&#45;&gt;Node6</title>
<path fill="none" stroke="midnightblue" d="M312.75,-716.97C325.25,-718.44 338.31,-719.98 351.09,-721.48"/>
<polygon fill="midnightblue" stroke="midnightblue" points="350.93,-724.99 361.27,-722.68 351.75,-718.03 350.93,-724.99"/>
</g>
<!-- Node7 -->
<g id="node7" class="node">
<title>Node7</title>
<g id="a_node7"><a xlink:href="../../d9/d1b/classleanux_1_1tools_1_1lmon_1_1Palette.html#a53c5c7a5af2f20e612813be65b318c50" target="_top" xlink:title="get system cpu color.">
<polygon fill="none" stroke="black" points="361,-668 361,-698 522,-698 522,-668 361,-668"/>
<text text-anchor="start" x="369" y="-686" font-family="Helvetica,sans-Serif" font-size="10.00">leanux::tools::lmon</text>
<text text-anchor="middle" x="441.5" y="-675" font-family="Helvetica,sans-Serif" font-size="10.00">::Palette::getColorSystemCPU</text>
</a>
</g>
</g>
<!-- Node2&#45;&gt;Node7 -->
<g id="edge6" class="edge">
<title>Node2&#45;&gt;Node7</title>
<path fill="none" stroke="midnightblue" d="M312.75,-698.66C325.16,-697.13 338.12,-695.55 350.82,-693.99"/>
<polygon fill="midnightblue" stroke="midnightblue" points="351.43,-697.44 360.93,-692.75 350.58,-690.49 351.43,-697.44"/>
</g>
<!-- Node8 -->
<g id="node8" class="node">
<title>Node8</title>
<g id="a_node8"><a xlink:href="../../d9/d1b/classleanux_1_1tools_1_1lmon_1_1Palette.html#a56ffcc2e0532e3dc92220cba0e631d0a" target="_top" xlink:title="get normal text color.">
<polygon fill="none" stroke="black" points="379.5,-619 379.5,-649 503.5,-649 503.5,-619 379.5,-619"/>
<text text-anchor="start" x="387.5" y="-637" font-family="Helvetica,sans-Serif" font-size="10.00">leanux::tools::lmon</text>
<text text-anchor="middle" x="441.5" y="-626" font-family="Helvetica,sans-Serif" font-size="10.00">::Palette::getColorText</text>
</a>
</g>
</g>
<!-- Node2&#45;&gt;Node8 -->
<g id="edge7" class="edge">
<title>Node2&#45;&gt;Node8</title>
<path fill="none" stroke="midnightblue" d="M272.75,-692.96C297.45,-682.89 331,-669.61 361,-659 367.42,-656.73 374.16,-654.45 380.89,-652.24"/>
<polygon fill="midnightblue" stroke="midnightblue" points="382.27,-655.48 390.7,-649.07 380.11,-648.82 382.27,-655.48"/>
</g>
<!-- Node9 -->
<g id="node9" class="node">
<title>Node9</title>
<g id="a_node9"><a xlink:href="../../d9/d1b/classleanux_1_1tools_1_1lmon_1_1Palette.html#a986c0cb7317865070b13d5fe3ffe7494" target="_top" xlink:title="get user cpu color.">
<polygon fill="none" stroke="black" points="368.5,-570 368.5,-600 514.5,-600 514.5,-570 368.5,-570"/>
<text text-anchor="start" x="376.5" y="-588" font-family="Helvetica,sans-Serif" font-size="10.00">leanux::tools::lmon</text>
<text text-anchor="middle" x="441.5" y="-577" font-family="Helvetica,sans-Serif" font-size="10.00">::Palette::getColorUserCPU</text>
</a>
</g>
</g>
<!-- Node2&#45;&gt;Node9 -->
<g id="edge8" class="edge">
<title>Node2&#45;&gt;Node9</title>
<path fill="none" stroke="midnightblue" d="M251.7,-692.97C273.94,-671.74 317.46,-632.99 361,-610 365.25,-607.75 369.74,-605.67 374.34,-603.74"/>
<polygon fill="midnightblue" stroke="midnightblue" points="375.83,-606.92 383.87,-600.01 373.28,-600.4 375.83,-606.92"/>
</g>
<!-- Node10&#45;&gt;Node11 -->
<g id="edge10" class="edge">
<title>Node10&#45;&gt;Node11</title>
<path fill="none" stroke="midnightblue" d="M290.63,-532.33C316.9,-532.97 348.65,-533.75 376.16,-534.42"/>
<polygon fill="midnightblue" stroke="midnightblue" points="376.39,-537.93 386.47,-534.68 376.56,-530.93 376.39,-537.93"/>
</g>
<!-- Node10&#45;&gt;Node12 -->
<g id="edge11" class="edge">
<title>Node10&#45;&gt;Node12</title>
<path fill="none" stroke="midnightblue" d="M290.63,-519.32C317.02,-513.63 348.93,-506.75 376.52,-500.8"/>
<polygon fill="midnightblue" stroke="midnightblue" points="377.43,-504.18 386.47,-498.65 375.96,-497.34 377.43,-504.18"/>
</g>
<!-- Node20 -->
<g id="node20" class="node">
<title>Node20</title>
<g id="a_node20"><a xlink:href="../../da/da3/namespaceleanux_1_1cpu.html#a3b1bbe660ecf384b94d5915f3d90e2b7" target="_top" xlink:title="Compute the total amount of CPU time in stat.">
<polygon fill="none" stroke="black" points="368.5,-176 368.5,-206 514.5,-206 514.5,-176 368.5,-176"/>
<text text-anchor="start" x="376.5" y="-194" font-family="Helvetica,sans-Serif" font-size="10.00">leanux::cpu::getCPUUsage</text>
<text text-anchor="middle" x="441.5" y="-183" font-family="Helvetica,sans-Serif" font-size="10.00">Total</text>
</a>
</g>
</g>
<!-- Node19&#45;&gt;Node20 -->
<g id="edge20" class="edge">
<title>Node19&#45;&gt;Node20</title>
<path fill="none" stroke="midnightblue" d="M290.63,-191C311.4,-191 335.6,-191 358.41,-191"/>
<polygon fill="midnightblue" stroke="midnightblue" points="358.43,-194.5 368.43,-191 358.43,-187.5 358.43,-194.5"/>
</g>
<!-- Node25 -->
<g id="node25" class="node">
<title>Node25</title>
<g id="a_node25"><a xlink:href="../../d8/db1/namespaceleanux_1_1util.html#a5178387ce32054e1c460c69b44d8219b" target="_top" xlink:title="convert a time duration in microseconds to a pretty print string.">
<polygon fill="none" stroke="black" points="370,-0.5 370,-19.5 513,-19.5 513,-0.5 370,-0.5"/>
<text text-anchor="middle" x="441.5" y="-7.5" font-family="Helvetica,sans-Serif" font-size="10.00">leanux::util::TimeStrMicro</text>
</a>
</g>
</g>
<!-- Node24&#45;&gt;Node25 -->
<g id="edge25" class="edge">
<title>Node24&#45;&gt;Node25</title>
<path fill="none" stroke="midnightblue" d="M302.17,-10C320.44,-10 340.49,-10 359.52,-10"/>
<polygon fill="midnightblue" stroke="midnightblue" points="359.67,-13.5 369.67,-10 359.67,-6.5 359.67,-13.5"/>
</g>
</g>
</svg>
