<?xml version="1.0" encoding="UTF-8" standalone="no"?>
<!DOCTYPE svg PUBLIC "-//W3C//DTD SVG 1.1//EN"
 "http://www.w3.org/Graphics/SVG/1.1/DTD/svg11.dtd">
<!-- Generated by graphviz version 2.43.0 (0)
 -->
<!-- Title: leanux::tools::lmon::SysView::attrFromCPUChar Pages: 1 -->
<svg width="359pt" height="333pt"
 viewBox="0.00 0.00 359.00 333.00" xmlns="http://www.w3.org/2000/svg" xmlns:xlink="http://www.w3.org/1999/xlink">
<g id="graph0" class="graph" transform="scale(1 1) rotate(0) translate(4 329)">
<title>leanux::tools::lmon::SysView::attrFromCPUChar</title>
<!-- Node1 -->
<g id="node1" class="node">
<title>Node1</title>
<g id="a_node1"><a xlink:title="Get ncurses display attributes depending on the type of CPU chararcter.">
<polygon fill="#bfbfbf" stroke="black" points="0,-147.5 0,-177.5 154,-177.5 154,-147.5 0,-147.5"/>
<text text-anchor="start" x="8" y="-165.5" font-family="Helvetica,sans-Serif" font-size="10.00">leanux::tools::lmon</text>
<text text-anchor="middle" x="77" y="-154.5" font-family="Helvetica,sans-Serif" font-size="10.00">::SysView::attrFromCPUChar</text>
</a>
</g>
</g>
<!-- Node2 -->
<g id="node2" class="node">
<title>Node2</title>
<g id="a_node2"><a xlink:href="../../d9/d1b/classleanux_1_1tools_1_1lmon_1_1Palette.html#abcc1d443c427ea0fb12c091d50beca7b" target="_top" xlink:title="get iowait color.">
<polygon fill="none" stroke="black" points="192.5,-294.5 192.5,-324.5 348.5,-324.5 348.5,-294.5 192.5,-294.5"/>
<text text-anchor="start" x="200.5" y="-312.5" font-family="Helvetica,sans-Serif" font-size="10.00">leanux::tools::lmon</text>
<text text-anchor="middle" x="270.5" y="-301.5" font-family="Helvetica,sans-Serif" font-size="10.00">::Palette::getColorIOWaitCPU</text>
</a>
</g>
</g>
<!-- Node1&#45;&gt;Node2 -->
<g id="edge1" class="edge">
<title>Node1&#45;&gt;Node2</title>
<path fill="none" stroke="midnightblue" d="M87.79,-177.79C105.2,-203.78 144.08,-256.54 190,-285.5 192.6,-287.14 195.32,-288.67 198.11,-290.1"/>
<polygon fill="midnightblue" stroke="midnightblue" points="196.73,-293.32 207.28,-294.35 199.67,-286.97 196.73,-293.32"/>
</g>
<!-- Node3 -->
<g id="node3" class="node">
<title>Node3</title>
<g id="a_node3"><a xlink:href="../../d9/d1b/classleanux_1_1tools_1_1lmon_1_1Palette.html#a8f435fa57b81b36b8abc7ce50e8b3d94" target="_top" xlink:title="get irq color.">
<polygon fill="none" stroke="black" points="200,-245.5 200,-275.5 341,-275.5 341,-245.5 200,-245.5"/>
<text text-anchor="start" x="208" y="-263.5" font-family="Helvetica,sans-Serif" font-size="10.00">leanux::tools::lmon</text>
<text text-anchor="middle" x="270.5" y="-252.5" font-family="Helvetica,sans-Serif" font-size="10.00">::Palette::getColorIRQCPU</text>
</a>
</g>
</g>
<!-- Node1&#45;&gt;Node3 -->
<g id="edge2" class="edge">
<title>Node1&#45;&gt;Node3</title>
<path fill="none" stroke="midnightblue" d="M97.2,-177.71C118.72,-194.15 155.18,-220.17 190,-236.5 194.08,-238.41 198.34,-240.21 202.68,-241.9"/>
<polygon fill="midnightblue" stroke="midnightblue" points="201.69,-245.27 212.29,-245.43 204.1,-238.7 201.69,-245.27"/>
</g>
<!-- Node4 -->
<g id="node4" class="node">
<title>Node4</title>
<g id="a_node4"><a xlink:href="../../d9/d1b/classleanux_1_1tools_1_1lmon_1_1Palette.html#a5f264f21e7c12361c5795ddf3bd40316" target="_top" xlink:title="get nice cpu color.">
<polygon fill="none" stroke="black" points="197.5,-196.5 197.5,-226.5 343.5,-226.5 343.5,-196.5 197.5,-196.5"/>
<text text-anchor="start" x="205.5" y="-214.5" font-family="Helvetica,sans-Serif" font-size="10.00">leanux::tools::lmon</text>
<text text-anchor="middle" x="270.5" y="-203.5" font-family="Helvetica,sans-Serif" font-size="10.00">::Palette::getColorNiceCPU</text>
</a>
</g>
</g>
<!-- Node1&#45;&gt;Node4 -->
<g id="edge3" class="edge">
<title>Node1&#45;&gt;Node4</title>
<path fill="none" stroke="midnightblue" d="M136.76,-177.53C157.07,-182.73 180.01,-188.6 201.03,-193.98"/>
<polygon fill="midnightblue" stroke="midnightblue" points="200.3,-197.41 210.85,-196.49 202.03,-190.62 200.3,-197.41"/>
</g>
<!-- Node5 -->
<g id="node5" class="node">
<title>Node5</title>
<g id="a_node5"><a xlink:href="../../d9/d1b/classleanux_1_1tools_1_1lmon_1_1Palette.html#a514e98a0145d9fcb8d076539560515b6" target="_top" xlink:title="get softirq color.">
<polygon fill="none" stroke="black" points="190.5,-147.5 190.5,-177.5 350.5,-177.5 350.5,-147.5 190.5,-147.5"/>
<text text-anchor="start" x="198.5" y="-165.5" font-family="Helvetica,sans-Serif" font-size="10.00">leanux::tools::lmon</text>
<text text-anchor="middle" x="270.5" y="-154.5" font-family="Helvetica,sans-Serif" font-size="10.00">::Palette::getColorSoftIRQCPU</text>
</a>
</g>
</g>
<!-- Node1&#45;&gt;Node5 -->
<g id="edge4" class="edge">
<title>Node1&#45;&gt;Node5</title>
<path fill="none" stroke="midnightblue" d="M154.24,-162.5C162.78,-162.5 171.55,-162.5 180.24,-162.5"/>
<polygon fill="midnightblue" stroke="midnightblue" points="180.39,-166 190.39,-162.5 180.39,-159 180.39,-166"/>
</g>
<!-- Node6 -->
<g id="node6" class="node">
<title>Node6</title>
<g id="a_node6"><a xlink:href="../../d9/d1b/classleanux_1_1tools_1_1lmon_1_1Palette.html#a53c5c7a5af2f20e612813be65b318c50" target="_top" xlink:title="get system cpu color.">
<polygon fill="none" stroke="black" points="190,-98.5 190,-128.5 351,-128.5 351,-98.5 190,-98.5"/>
<text text-anchor="start" x="198" y="-116.5" font-family="Helvetica,sans-Serif" font-size="10.00">leanux::tools::lmon</text>
<text text-anchor="middle" x="270.5" y="-105.5" font-family="Helvetica,sans-Serif" font-size="10.00">::Palette::getColorSystemCPU</text>
</a>
</g>
</g>
<!-- Node1&#45;&gt;Node6 -->
<g id="edge5" class="edge">
<title>Node1&#45;&gt;Node6</title>
<path fill="none" stroke="midnightblue" d="M136.76,-147.47C157.07,-142.27 180.01,-136.4 201.03,-131.02"/>
<polygon fill="midnightblue" stroke="midnightblue" points="202.03,-134.38 210.85,-128.51 200.3,-127.59 202.03,-134.38"/>
</g>
<!-- Node7 -->
<g id="node7" class="node">
<title>Node7</title>
<g id="a_node7"><a xlink:href="../../d9/d1b/classleanux_1_1tools_1_1lmon_1_1Palette.html#a56ffcc2e0532e3dc92220cba0e631d0a" target="_top" xlink:title="get normal text color.">
<polygon fill="none" stroke="black" points="208.5,-49.5 208.5,-79.5 332.5,-79.5 332.5,-49.5 208.5,-49.5"/>
<text text-anchor="start" x="216.5" y="-67.5" font-family="Helvetica,sans-Serif" font-size="10.00">leanux::tools::lmon</text>
<text text-anchor="middle" x="270.5" y="-56.5" font-family="Helvetica,sans-Serif" font-size="10.00">::Palette::getColorText</text>
</a>
</g>
</g>
<!-- Node1&#45;&gt;Node7 -->
<g id="edge6" class="edge">
<title>Node1&#45;&gt;Node7</title>
<path fill="none" stroke="midnightblue" d="M97.66,-147.29C119.3,-131.14 155.58,-105.75 190,-89.5 194.91,-87.18 200.08,-85.01 205.34,-82.98"/>
<polygon fill="midnightblue" stroke="midnightblue" points="206.67,-86.23 214.86,-79.51 204.26,-79.65 206.67,-86.23"/>
</g>
<!-- Node8 -->
<g id="node8" class="node">
<title>Node8</title>
<g id="a_node8"><a xlink:href="../../d9/d1b/classleanux_1_1tools_1_1lmon_1_1Palette.html#a986c0cb7317865070b13d5fe3ffe7494" target="_top" xlink:title="get user cpu color.">
<polygon fill="none" stroke="black" points="197.5,-0.5 197.5,-30.5 343.5,-30.5 343.5,-0.5 197.5,-0.5"/>
<text text-anchor="start" x="205.5" y="-18.5" font-family="Helvetica,sans-Serif" font-size="10.00">leanux::tools::lmon</text>
<text text-anchor="middle" x="270.5" y="-7.5" font-family="Helvetica,sans-Serif" font-size="10.00">::Palette::getColorUserCPU</text>
</a>
</g>
</g>
<!-- Node1&#45;&gt;Node8 -->
<g id="edge7" class="edge">
<title>Node1&#45;&gt;Node8</title>
<path fill="none" stroke="midnightblue" d="M87.85,-147.39C105.37,-121.7 144.39,-69.51 190,-40.5 193.18,-38.48 196.53,-36.61 199.99,-34.88"/>
<polygon fill="midnightblue" stroke="midnightblue" points="201.69,-37.96 209.36,-30.64 198.8,-31.58 201.69,-37.96"/>
</g>
</g>
</svg>
