<?xml version="1.0" encoding="UTF-8" standalone="no"?>
<!DOCTYPE svg PUBLIC "-//W3C//DTD SVG 1.1//EN"
 "http://www.w3.org/Graphics/SVG/1.1/DTD/svg11.dtd">
<!-- Generated by graphviz version 2.43.0 (0)
 -->
<!-- Title: leanux::tools::lmon::Screen::~Screen Pages: 1 -->
<svg width="437pt" height="235pt"
 viewBox="0.00 0.00 437.00 235.00" xmlns="http://www.w3.org/2000/svg" xmlns:xlink="http://www.w3.org/1999/xlink">
<g id="graph0" class="graph" transform="scale(1 1) rotate(0) translate(4 231)">
<title>leanux::tools::lmon::Screen::~Screen</title>
<!-- Node1 -->
<g id="node1" class="node">
<title>Node1</title>
<g id="a_node1"><a xlink:title="Destructor.">
<polygon fill="#bfbfbf" stroke="black" points="0,-98.5 0,-128.5 110,-128.5 110,-98.5 0,-98.5"/>
<text text-anchor="start" x="8" y="-116.5" font-family="Helvetica,sans-Serif" font-size="10.00">leanux::tools::lmon</text>
<text text-anchor="middle" x="55" y="-105.5" font-family="Helvetica,sans-Serif" font-size="10.00">::Screen::~Screen</text>
</a>
</g>
</g>
<!-- Node2 -->
<g id="node2" class="node">
<title>Node2</title>
<g id="a_node2"><a xlink:href="../../de/d84/classleanux_1_1util_1_1ConfigFile.html#a8cef175948cd9727c732de3a605c99ba" target="_top" xlink:title="Get the ConfigurationFile object for the appname, or construct one if it does not exist.">
<polygon fill="none" stroke="black" points="147.5,-196.5 147.5,-226.5 272.5,-226.5 272.5,-196.5 147.5,-196.5"/>
<text text-anchor="start" x="155.5" y="-214.5" font-family="Helvetica,sans-Serif" font-size="10.00">leanux::util::ConfigFile</text>
<text text-anchor="middle" x="210" y="-203.5" font-family="Helvetica,sans-Serif" font-size="10.00">::getConfig</text>
</a>
</g>
</g>
<!-- Node1&#45;&gt;Node2 -->
<g id="edge1" class="edge">
<title>Node1&#45;&gt;Node2</title>
<path fill="none" stroke="midnightblue" d="M71.09,-128.55C88.09,-144.84 117.14,-170.74 146,-187.5 148.83,-189.15 151.8,-190.72 154.84,-192.21"/>
<polygon fill="midnightblue" stroke="midnightblue" points="153.56,-195.48 164.1,-196.47 156.48,-189.11 153.56,-195.48"/>
</g>
<!-- Node3 -->
<g id="node3" class="node">
<title>Node3</title>
<g id="a_node3"><a xlink:href="../../de/d84/classleanux_1_1util_1_1ConfigFile.html#a0a9d268bdbb30ef4953e13c9cfc23826" target="_top" xlink:title="read and interpret the configuration file.">
<polygon fill="none" stroke="black" points="147.5,-147.5 147.5,-177.5 272.5,-177.5 272.5,-147.5 147.5,-147.5"/>
<text text-anchor="start" x="155.5" y="-165.5" font-family="Helvetica,sans-Serif" font-size="10.00">leanux::util::ConfigFile</text>
<text text-anchor="middle" x="210" y="-154.5" font-family="Helvetica,sans-Serif" font-size="10.00">::read</text>
</a>
</g>
</g>
<!-- Node1&#45;&gt;Node3 -->
<g id="edge2" class="edge">
<title>Node1&#45;&gt;Node3</title>
<path fill="none" stroke="midnightblue" d="M103.15,-128.6C118.64,-133.56 136.02,-139.13 152.15,-144.29"/>
<polygon fill="midnightblue" stroke="midnightblue" points="151.41,-147.73 162,-147.45 153.55,-141.07 151.41,-147.73"/>
</g>
<!-- Node4 -->
<g id="node4" class="node">
<title>Node4</title>
<g id="a_node4"><a xlink:href="../../d5/de6/classleanux_1_1tools_1_1lmon_1_1Screen.html#ac959680f08e2adf792fd060fe4171113" target="_top" xlink:title="Deinitialize and stop the ncurses Screen.">
<polygon fill="none" stroke="black" points="146,-98.5 146,-128.5 274,-128.5 274,-98.5 146,-98.5"/>
<text text-anchor="start" x="154" y="-116.5" font-family="Helvetica,sans-Serif" font-size="10.00">leanux::tools::lmon</text>
<text text-anchor="middle" x="210" y="-105.5" font-family="Helvetica,sans-Serif" font-size="10.00">::Screen::resetTerminal</text>
</a>
</g>
</g>
<!-- Node1&#45;&gt;Node4 -->
<g id="edge3" class="edge">
<title>Node1&#45;&gt;Node4</title>
<path fill="none" stroke="midnightblue" d="M110.37,-113.5C118.65,-113.5 127.3,-113.5 135.89,-113.5"/>
<polygon fill="midnightblue" stroke="midnightblue" points="135.92,-117 145.92,-113.5 135.92,-110 135.92,-117"/>
</g>
<!-- Node5 -->
<g id="node5" class="node">
<title>Node5</title>
<g id="a_node5"><a xlink:href="../../de/d84/classleanux_1_1util_1_1ConfigFile.html#ae6cf7d025a02a7b114c60adca7618ec9" target="_top" xlink:title="Set the configuration parameter to an int value.">
<polygon fill="none" stroke="black" points="147.5,-49.5 147.5,-79.5 272.5,-79.5 272.5,-49.5 147.5,-49.5"/>
<text text-anchor="start" x="155.5" y="-67.5" font-family="Helvetica,sans-Serif" font-size="10.00">leanux::util::ConfigFile</text>
<text text-anchor="middle" x="210" y="-56.5" font-family="Helvetica,sans-Serif" font-size="10.00">::setValue</text>
</a>
</g>
</g>
<!-- Node1&#45;&gt;Node5 -->
<g id="edge4" class="edge">
<title>Node1&#45;&gt;Node5</title>
<path fill="none" stroke="midnightblue" d="M103.15,-98.4C118.64,-93.44 136.02,-87.87 152.15,-82.71"/>
<polygon fill="midnightblue" stroke="midnightblue" points="153.55,-85.93 162,-79.55 151.41,-79.27 153.55,-85.93"/>
</g>
<!-- Node6 -->
<g id="node6" class="node">
<title>Node6</title>
<g id="a_node6"><a xlink:href="../../de/d84/classleanux_1_1util_1_1ConfigFile.html#a51029ba31414b49297e706fe40832a6f" target="_top" xlink:title="write out the configuration file, including runtime modifications.">
<polygon fill="none" stroke="black" points="147.5,-0.5 147.5,-30.5 272.5,-30.5 272.5,-0.5 147.5,-0.5"/>
<text text-anchor="start" x="155.5" y="-18.5" font-family="Helvetica,sans-Serif" font-size="10.00">leanux::util::ConfigFile</text>
<text text-anchor="middle" x="210" y="-7.5" font-family="Helvetica,sans-Serif" font-size="10.00">::write</text>
</a>
</g>
</g>
<!-- Node1&#45;&gt;Node6 -->
<g id="edge5" class="edge">
<title>Node1&#45;&gt;Node6</title>
<path fill="none" stroke="midnightblue" d="M71.48,-98.45C88.6,-82.44 117.53,-57.17 146,-40.5 149.39,-38.52 152.96,-36.63 156.62,-34.84"/>
<polygon fill="midnightblue" stroke="midnightblue" points="158.19,-37.97 165.81,-30.61 155.26,-31.61 158.19,-37.97"/>
</g>
<!-- Node7 -->
<g id="node7" class="node">
<title>Node7</title>
<g id="a_node7"><a xlink:href="../../d8/db1/namespaceleanux_1_1util.html#a3b691a56e21c20628e956b8ec995d53f" target="_top" xlink:title=" ">
<polygon fill="none" stroke="black" points="310,-6 310,-25 429,-25 429,-6 310,-6"/>
<text text-anchor="middle" x="369.5" y="-13" font-family="Helvetica,sans-Serif" font-size="10.00">leanux::util::tokenize</text>
</a>
</g>
</g>
<!-- Node6&#45;&gt;Node7 -->
<g id="edge6" class="edge">
<title>Node6&#45;&gt;Node7</title>
<path fill="none" stroke="midnightblue" d="M272.8,-15.5C281.69,-15.5 290.88,-15.5 299.9,-15.5"/>
<polygon fill="midnightblue" stroke="midnightblue" points="299.97,-19 309.97,-15.5 299.97,-12 299.97,-19"/>
</g>
</g>
</svg>
