<?xml version="1.0" encoding="UTF-8" standalone="no"?>
<!DOCTYPE svg PUBLIC "-//W3C//DTD SVG 1.1//EN"
 "http://www.w3.org/Graphics/SVG/1.1/DTD/svg11.dtd">
<!-- Generated by graphviz version 2.43.0 (0)
 -->
<!-- Title: leanux::tools::lmon::Screen::runHistory Pages: 1 -->
<svg width="344pt" height="39pt"
 viewBox="0.00 0.00 344.00 39.00" xmlns="http://www.w3.org/2000/svg" xmlns:xlink="http://www.w3.org/1999/xlink">
<g id="graph0" class="graph" transform="scale(1 1) rotate(0) translate(4 35)">
<title>leanux::tools::lmon::Screen::runHistory</title>
<!-- Node1 -->
<g id="node1" class="node">
<title>Node1</title>
<g id="a_node1"><a xlink:title="Run the Screen in history mode.">
<polygon fill="#bfbfbf" stroke="black" points="223,-0.5 223,-30.5 336,-30.5 336,-0.5 223,-0.5"/>
<text text-anchor="start" x="231" y="-18.5" font-family="Helvetica,sans-Serif" font-size="10.00">leanux::tools::lmon</text>
<text text-anchor="middle" x="279.5" y="-7.5" font-family="Helvetica,sans-Serif" font-size="10.00">::Screen::runHistory</text>
</a>
</g>
</g>
<!-- Node2 -->
<g id="node2" class="node">
<title>Node2</title>
<g id="a_node2"><a xlink:href="../../da/dbe/namespaceleanux_1_1tools_1_1lmon.html#a7f59af183bc55b66e3dc0844b473daaf" target="_top" xlink:title=" ">
<polygon fill="none" stroke="black" points="77,-0.5 77,-30.5 187,-30.5 187,-0.5 77,-0.5"/>
<text text-anchor="start" x="85" y="-18.5" font-family="Helvetica,sans-Serif" font-size="10.00">leanux::tools::lmon</text>
<text text-anchor="middle" x="132" y="-7.5" font-family="Helvetica,sans-Serif" font-size="10.00">::main</text>
</a>
</g>
</g>
<!-- Node1&#45;&gt;Node2 -->
<g id="edge1" class="edge">
<title>Node1&#45;&gt;Node2</title>
<path fill="none" stroke="midnightblue" d="M212.39,-15.5C203.9,-15.5 195.28,-15.5 187.01,-15.5"/>
<polygon fill="midnightblue" stroke="midnightblue" points="212.66,-19 222.66,-15.5 212.66,-12 212.66,-19"/>
</g>
<!-- Node3 -->
<g id="node3" class="node">
<title>Node3</title>
<g id="a_node3"><a xlink:href="../../df/dde/lmon_8cpp.html#a0ddf1224851353fc92bfbff6f499fa97" target="_top" xlink:title="lmon entry point.">
<polygon fill="none" stroke="black" points="0,-6 0,-25 41,-25 41,-6 0,-6"/>
<text text-anchor="middle" x="20.5" y="-13" font-family="Helvetica,sans-Serif" font-size="10.00">main</text>
</a>
</g>
</g>
<!-- Node2&#45;&gt;Node3 -->
<g id="edge2" class="edge">
<title>Node2&#45;&gt;Node3</title>
<path fill="none" stroke="midnightblue" d="M66.72,-15.5C57.43,-15.5 48.51,-15.5 41.09,-15.5"/>
<polygon fill="midnightblue" stroke="midnightblue" points="66.89,-19 76.89,-15.5 66.89,-12 66.89,-19"/>
</g>
</g>
</svg>
