<?xml version="1.0" encoding="UTF-8" standalone="no"?>
<!DOCTYPE svg PUBLIC "-//W3C//DTD SVG 1.1//EN"
 "http://www.w3.org/Graphics/SVG/1.1/DTD/svg11.dtd">
<!-- Generated by graphviz version 2.43.0 (0)
 -->
<!-- Title: leanux::tools::lmon::Screen::runRealtime Pages: 1 -->
<svg width="755pt" height="1031pt"
 viewBox="0.00 0.00 755.00 1031.41" xmlns="http://www.w3.org/2000/svg" xmlns:xlink="http://www.w3.org/1999/xlink">
<g id="graph0" class="graph" transform="scale(1 1) rotate(0) translate(4 1027.41)">
<title>leanux::tools::lmon::Screen::runRealtime</title>
<!-- Node1 -->
<g id="node1" class="node">
<title>Node1</title>
<g id="a_node1"><a xlink:title="Run the Screen in realtime mode.">
<polygon fill="#bfbfbf" stroke="black" points="0,-654.91 0,-684.91 122,-684.91 122,-654.91 0,-654.91"/>
<text text-anchor="start" x="8" y="-672.91" font-family="Helvetica,sans-Serif" font-size="10.00">leanux::tools::lmon</text>
<text text-anchor="middle" x="61" y="-661.91" font-family="Helvetica,sans-Serif" font-size="10.00">::Screen::runRealtime</text>
</a>
</g>
</g>
<!-- Node2 -->
<g id="node2" class="node">
<title>Node2</title>
<g id="a_node2"><a xlink:href="../../d8/db1/namespaceleanux_1_1util.html#a4837f2d09bfda41e98223427201d04e2" target="_top" xlink:title="Return the deltaof two timevals in seconds.">
<polygon fill="none" stroke="black" points="616,-900.41 616,-919.41 743,-919.41 743,-900.41 616,-900.41"/>
<text text-anchor="middle" x="679.5" y="-907.41" font-family="Helvetica,sans-Serif" font-size="10.00">leanux::util::deltaTime</text>
</a>
</g>
</g>
<!-- Node1&#45;&gt;Node2 -->
<g id="edge1" class="edge">
<title>Node1&#45;&gt;Node2</title>
<path fill="none" stroke="midnightblue" d="M68.85,-654.85C81.85,-628.37 112.87,-574.26 158,-552.91 230.72,-518.51 269,-513.28 339,-552.91 366.06,-568.23 355.73,-588.5 375,-612.91 468.93,-731.88 607.75,-851.33 658.77,-893.75"/>
<polygon fill="midnightblue" stroke="midnightblue" points="656.78,-896.64 666.71,-900.32 661.24,-891.25 656.78,-896.64"/>
</g>
<!-- Node3 -->
<g id="node3" class="node">
<title>Node3</title>
<g id="a_node3"><a xlink:href="../../d1/de8/classleanux_1_1tools_1_1lmon_1_1View.html#a4371f35535c3f1ab38f15ab859564535" target="_top" xlink:title=" ">
<polygon fill="none" stroke="black" points="193.5,-894.91 193.5,-924.91 303.5,-924.91 303.5,-894.91 193.5,-894.91"/>
<text text-anchor="start" x="201.5" y="-912.91" font-family="Helvetica,sans-Serif" font-size="10.00">leanux::tools::lmon</text>
<text text-anchor="middle" x="248.5" y="-901.91" font-family="Helvetica,sans-Serif" font-size="10.00">::View::getHeight</text>
</a>
</g>
</g>
<!-- Node1&#45;&gt;Node3 -->
<g id="edge2" class="edge">
<title>Node1&#45;&gt;Node3</title>
<path fill="none" stroke="midnightblue" d="M64.2,-685.13C70.74,-724.59 93.74,-830.98 158,-885.91 165.35,-892.2 174.19,-896.85 183.4,-900.3"/>
<polygon fill="midnightblue" stroke="midnightblue" points="182.5,-903.69 193.1,-903.47 184.68,-897.03 182.5,-903.69"/>
</g>
<!-- Node4 -->
<g id="node4" class="node">
<title>Node4</title>
<g id="a_node4"><a xlink:href="../../da/d21/classleanux_1_1tools_1_1lmon_1_1RealtimeSampler.html#ac0c7f3e65aea45de36741dd5510ddf2c" target="_top" xlink:title=" ">
<polygon fill="none" stroke="black" points="163.5,-845.91 163.5,-875.91 333.5,-875.91 333.5,-845.91 163.5,-845.91"/>
<text text-anchor="start" x="171.5" y="-863.91" font-family="Helvetica,sans-Serif" font-size="10.00">leanux::tools::lmon</text>
<text text-anchor="middle" x="248.5" y="-852.91" font-family="Helvetica,sans-Serif" font-size="10.00">::RealtimeSampler::getXIOView</text>
</a>
</g>
</g>
<!-- Node1&#45;&gt;Node4 -->
<g id="edge3" class="edge">
<title>Node1&#45;&gt;Node4</title>
<path fill="none" stroke="midnightblue" d="M66.31,-685.03C76.5,-717.93 105.24,-796.34 158,-836.91 159.81,-838.31 161.7,-839.62 163.65,-840.86"/>
<polygon fill="midnightblue" stroke="midnightblue" points="162.1,-844 172.54,-845.81 165.51,-837.89 162.1,-844"/>
</g>
<!-- Node5 -->
<g id="node5" class="node">
<title>Node5</title>
<g id="a_node5"><a xlink:href="../../da/d21/classleanux_1_1tools_1_1lmon_1_1RealtimeSampler.html#a4df640a19f56bc06544f1c00b5c39e93" target="_top" xlink:title=" ">
<polygon fill="none" stroke="black" points="160,-796.91 160,-826.91 337,-826.91 337,-796.91 160,-796.91"/>
<text text-anchor="start" x="168" y="-814.91" font-family="Helvetica,sans-Serif" font-size="10.00">leanux::tools::lmon</text>
<text text-anchor="middle" x="248.5" y="-803.91" font-family="Helvetica,sans-Serif" font-size="10.00">::RealtimeSampler::getXNetView</text>
</a>
</g>
</g>
<!-- Node1&#45;&gt;Node5 -->
<g id="edge4" class="edge">
<title>Node1&#45;&gt;Node5</title>
<path fill="none" stroke="midnightblue" d="M70.13,-685.16C84.43,-710.47 116.55,-761.06 158,-787.91 160.47,-789.51 163.04,-791 165.69,-792.4"/>
<polygon fill="midnightblue" stroke="midnightblue" points="164.41,-795.67 174.95,-796.77 167.4,-789.33 164.41,-795.67"/>
</g>
<!-- Node6 -->
<g id="node6" class="node">
<title>Node6</title>
<g id="a_node6"><a xlink:href="../../da/d21/classleanux_1_1tools_1_1lmon_1_1RealtimeSampler.html#a9e270be66affd839c97e76f33c29f283" target="_top" xlink:title=" ">
<polygon fill="none" stroke="black" points="158,-747.91 158,-777.91 339,-777.91 339,-747.91 158,-747.91"/>
<text text-anchor="start" x="166" y="-765.91" font-family="Helvetica,sans-Serif" font-size="10.00">leanux::tools::lmon</text>
<text text-anchor="middle" x="248.5" y="-754.91" font-family="Helvetica,sans-Serif" font-size="10.00">::RealtimeSampler::getXProcView</text>
</a>
</g>
</g>
<!-- Node1&#45;&gt;Node6 -->
<g id="edge5" class="edge">
<title>Node1&#45;&gt;Node6</title>
<path fill="none" stroke="midnightblue" d="M78.83,-684.94C97.12,-700.53 127.77,-724.58 158,-738.91 162.12,-740.86 166.42,-742.68 170.82,-744.36"/>
<polygon fill="midnightblue" stroke="midnightblue" points="169.96,-747.77 180.55,-747.84 172.31,-741.18 169.96,-747.77"/>
</g>
<!-- Node7 -->
<g id="node7" class="node">
<title>Node7</title>
<g id="a_node7"><a xlink:href="../../da/d21/classleanux_1_1tools_1_1lmon_1_1RealtimeSampler.html#a8b5a5cc3be8632153e11fb821c9f5d62" target="_top" xlink:title="Return snapshot XSysView data.">
<polygon fill="none" stroke="black" points="160,-698.91 160,-728.91 337,-728.91 337,-698.91 160,-698.91"/>
<text text-anchor="start" x="168" y="-716.91" font-family="Helvetica,sans-Serif" font-size="10.00">leanux::tools::lmon</text>
<text text-anchor="middle" x="248.5" y="-705.91" font-family="Helvetica,sans-Serif" font-size="10.00">::RealtimeSampler::getXSysView</text>
</a>
</g>
</g>
<!-- Node1&#45;&gt;Node7 -->
<g id="edge6" class="edge">
<title>Node1&#45;&gt;Node7</title>
<path fill="none" stroke="midnightblue" d="M122.23,-684.2C138.76,-688.12 156.88,-692.42 174.07,-696.49"/>
<polygon fill="midnightblue" stroke="midnightblue" points="173.53,-699.96 184.07,-698.87 175.14,-693.15 173.53,-699.96"/>
</g>
<!-- Node8 -->
<g id="node8" class="node">
<title>Node8</title>
<g id="a_node8"><a xlink:href="../../d8/db1/namespaceleanux_1_1util.html#a64591c1e5e2afd7e676c51c08d3cf315" target="_top" xlink:title="Return current local time in ISO format; YYYY&#45;MM&#45;DD HH24:MI:SS.">
<polygon fill="none" stroke="black" points="159,-660.41 159,-679.41 338,-679.41 338,-660.41 159,-660.41"/>
<text text-anchor="middle" x="248.5" y="-667.41" font-family="Helvetica,sans-Serif" font-size="10.00">leanux::util::localStrISODateTime</text>
</a>
</g>
</g>
<!-- Node1&#45;&gt;Node8 -->
<g id="edge7" class="edge">
<title>Node1&#45;&gt;Node8</title>
<path fill="none" stroke="midnightblue" d="M122.23,-669.91C130.76,-669.91 139.71,-669.91 148.74,-669.91"/>
<polygon fill="midnightblue" stroke="midnightblue" points="148.95,-673.41 158.95,-669.91 148.95,-666.41 148.95,-673.41"/>
</g>
<!-- Node9 -->
<g id="node9" class="node">
<title>Node9</title>
<g id="a_node9"><a xlink:href="../../d5/de6/classleanux_1_1tools_1_1lmon_1_1Screen.html#a18131fa25bef61ad877c098e63123ffd" target="_top" xlink:title="Report a message.">
<polygon fill="none" stroke="black" points="181.5,-610.91 181.5,-640.91 315.5,-640.91 315.5,-610.91 181.5,-610.91"/>
<text text-anchor="start" x="189.5" y="-628.91" font-family="Helvetica,sans-Serif" font-size="10.00">leanux::tools::lmon</text>
<text text-anchor="middle" x="248.5" y="-617.91" font-family="Helvetica,sans-Serif" font-size="10.00">::Screen::reportMessage</text>
</a>
</g>
</g>
<!-- Node1&#45;&gt;Node9 -->
<g id="edge8" class="edge">
<title>Node1&#45;&gt;Node9</title>
<path fill="none" stroke="midnightblue" d="M122.23,-655.63C138.76,-651.7 156.88,-647.41 174.07,-643.33"/>
<polygon fill="midnightblue" stroke="midnightblue" points="175.14,-646.67 184.07,-640.96 173.53,-639.86 175.14,-646.67"/>
</g>
<!-- Node10 -->
<g id="node10" class="node">
<title>Node10</title>
<g id="a_node10"><a xlink:href="../../da/d21/classleanux_1_1tools_1_1lmon_1_1RealtimeSampler.html#abbe50859f7736656b8c3d436d22ab1f7" target="_top" xlink:title=" ">
<polygon fill="none" stroke="black" points="159,-561.91 159,-591.91 338,-591.91 338,-561.91 159,-561.91"/>
<text text-anchor="start" x="167" y="-579.91" font-family="Helvetica,sans-Serif" font-size="10.00">leanux::tools::lmon</text>
<text text-anchor="middle" x="248.5" y="-568.91" font-family="Helvetica,sans-Serif" font-size="10.00">::RealtimeSampler::resetCPUTrail</text>
</a>
</g>
</g>
<!-- Node1&#45;&gt;Node10 -->
<g id="edge9" class="edge">
<title>Node1&#45;&gt;Node10</title>
<path fill="none" stroke="midnightblue" d="M79.24,-654.89C97.62,-639.59 128.13,-616.13 158,-601.91 162.92,-599.57 168.09,-597.41 173.37,-595.43"/>
<polygon fill="midnightblue" stroke="midnightblue" points="174.69,-598.68 182.96,-592.05 172.36,-592.08 174.69,-598.68"/>
</g>
<!-- Node11 -->
<g id="node11" class="node">
<title>Node11</title>
<g id="a_node11"><a xlink:href="../../da/d21/classleanux_1_1tools_1_1lmon_1_1RealtimeSampler.html#a9522a4a46961eb4f75d3207da1efd07f" target="_top" xlink:title="Sample a snapshot.">
<polygon fill="none" stroke="black" points="174,-943.91 174,-973.91 323,-973.91 323,-943.91 174,-943.91"/>
<text text-anchor="start" x="182" y="-961.91" font-family="Helvetica,sans-Serif" font-size="10.00">leanux::tools::lmon</text>
<text text-anchor="middle" x="248.5" y="-950.91" font-family="Helvetica,sans-Serif" font-size="10.00">::RealtimeSampler::sample</text>
</a>
</g>
</g>
<!-- Node1&#45;&gt;Node11 -->
<g id="edge10" class="edge">
<title>Node1&#45;&gt;Node11</title>
<path fill="none" stroke="midnightblue" d="M62.81,-685.13C66.04,-730.34 81.94,-865.09 158,-934.91 160.22,-936.95 162.6,-938.82 165.1,-940.53"/>
<polygon fill="midnightblue" stroke="midnightblue" points="163.6,-943.72 174,-945.78 167.16,-937.69 163.6,-943.72"/>
</g>
<!-- Node66 -->
<g id="node16" class="node">
<title>Node66</title>
<g id="a_node16"><a xlink:href="../../d5/de6/classleanux_1_1tools_1_1lmon_1_1Screen.html#abcaa706fe703bbf453808220fcaf8263" target="_top" xlink:title="Recalculate the window sizes.">
<polygon fill="none" stroke="black" points="185.5,-351.91 185.5,-381.91 311.5,-381.91 311.5,-351.91 185.5,-351.91"/>
<text text-anchor="start" x="193.5" y="-369.91" font-family="Helvetica,sans-Serif" font-size="10.00">leanux::tools::lmon</text>
<text text-anchor="middle" x="248.5" y="-358.91" font-family="Helvetica,sans-Serif" font-size="10.00">::Screen::screenResize</text>
</a>
</g>
</g>
<!-- Node1&#45;&gt;Node66 -->
<g id="edge19" class="edge">
<title>Node1&#45;&gt;Node66</title>
<path fill="none" stroke="midnightblue" d="M71.2,-654.89C101.18,-605.92 196.22,-450.67 232.88,-390.79"/>
<polygon fill="midnightblue" stroke="midnightblue" points="236.01,-392.38 238.25,-382.03 230.04,-388.73 236.01,-392.38"/>
</g>
<!-- Node85 -->
<g id="node30" class="node">
<title>Node85</title>
<g id="a_node30"><a xlink:href="../../d5/de6/classleanux_1_1tools_1_1lmon_1_1Screen.html#ade4a264f94dde2214ccd39db699f7f0a" target="_top" xlink:title="Determine if terminal size has changed.">
<polygon fill="none" stroke="black" points="186.5,-302.91 186.5,-332.91 310.5,-332.91 310.5,-302.91 186.5,-302.91"/>
<text text-anchor="start" x="194.5" y="-320.91" font-family="Helvetica,sans-Serif" font-size="10.00">leanux::tools::lmon</text>
<text text-anchor="middle" x="248.5" y="-309.91" font-family="Helvetica,sans-Serif" font-size="10.00">::Screen::sizeChanged</text>
</a>
</g>
</g>
<!-- Node1&#45;&gt;Node85 -->
<g id="edge35" class="edge">
<title>Node1&#45;&gt;Node85</title>
<path fill="none" stroke="midnightblue" d="M61.58,-654.59C61.04,-602.62 66.56,-431.29 158,-341.91 163.38,-336.65 169.78,-332.52 176.64,-329.27"/>
<polygon fill="midnightblue" stroke="midnightblue" points="178.3,-332.37 186.25,-325.36 175.66,-325.89 178.3,-332.37"/>
</g>
<!-- Node86 -->
<g id="node31" class="node">
<title>Node86</title>
<g id="a_node31"><a xlink:href="../../d8/db1/namespaceleanux_1_1util.html#af85d667f0a1e549c70b45f81159af980" target="_top" xlink:title="Sleep seconds+nanoseconds.">
<polygon fill="none" stroke="black" points="196.5,-264.41 196.5,-283.41 300.5,-283.41 300.5,-264.41 196.5,-264.41"/>
<text text-anchor="middle" x="248.5" y="-271.41" font-family="Helvetica,sans-Serif" font-size="10.00">leanux::util::Sleep</text>
</a>
</g>
</g>
<!-- Node1&#45;&gt;Node86 -->
<g id="edge36" class="edge">
<title>Node1&#45;&gt;Node86</title>
<path fill="none" stroke="midnightblue" d="M63.72,-654.91C71.3,-591.32 103.81,-344.97 158,-292.91 165.89,-285.33 176.02,-280.45 186.61,-277.37"/>
<polygon fill="midnightblue" stroke="midnightblue" points="187.5,-280.76 196.41,-275.03 185.87,-273.95 187.5,-280.76"/>
</g>
<!-- Node12 -->
<g id="node12" class="node">
<title>Node12</title>
<g id="a_node12"><a xlink:href="../../da/d21/classleanux_1_1tools_1_1lmon_1_1RealtimeSampler.html#ae43e18aacfceb09eb9bd70db9c67fc98" target="_top" xlink:title=" ">
<polygon fill="none" stroke="red" points="380,-943.91 380,-973.91 571,-973.91 571,-943.91 380,-943.91"/>
<text text-anchor="start" x="388" y="-961.91" font-family="Helvetica,sans-Serif" font-size="10.00">leanux::tools::lmon</text>
<text text-anchor="middle" x="475.5" y="-950.91" font-family="Helvetica,sans-Serif" font-size="10.00">::RealtimeSampler::sampleXIOView</text>
</a>
</g>
</g>
<!-- Node11&#45;&gt;Node12 -->
<g id="edge11" class="edge">
<title>Node11&#45;&gt;Node12</title>
<path fill="none" stroke="midnightblue" d="M323.17,-958.91C338,-958.91 353.85,-958.91 369.5,-958.91"/>
<polygon fill="midnightblue" stroke="midnightblue" points="369.75,-962.41 379.75,-958.91 369.75,-955.41 369.75,-962.41"/>
</g>
<!-- Node29 -->
<g id="node13" class="node">
<title>Node29</title>
<g id="a_node13"><a xlink:href="../../da/d21/classleanux_1_1tools_1_1lmon_1_1RealtimeSampler.html#a38271e7bf2e0c59ad4648027b7802d8d" target="_top" xlink:title=" ">
<polygon fill="none" stroke="red" points="377,-894.91 377,-924.91 574,-924.91 574,-894.91 377,-894.91"/>
<text text-anchor="start" x="385" y="-912.91" font-family="Helvetica,sans-Serif" font-size="10.00">leanux::tools::lmon</text>
<text text-anchor="middle" x="475.5" y="-901.91" font-family="Helvetica,sans-Serif" font-size="10.00">::RealtimeSampler::sampleXNetView</text>
</a>
</g>
</g>
<!-- Node11&#45;&gt;Node29 -->
<g id="edge13" class="edge">
<title>Node11&#45;&gt;Node29</title>
<path fill="none" stroke="midnightblue" d="M318.54,-943.88C342.94,-938.56 370.57,-932.55 395.72,-927.07"/>
<polygon fill="midnightblue" stroke="midnightblue" points="396.57,-930.47 405.59,-924.92 395.08,-923.63 396.57,-930.47"/>
</g>
<!-- Node39 -->
<g id="node14" class="node">
<title>Node39</title>
<g id="a_node14"><a xlink:href="../../da/d21/classleanux_1_1tools_1_1lmon_1_1RealtimeSampler.html#af80582780bfa40a11a40e647f9657d0f" target="_top" xlink:title=" ">
<polygon fill="none" stroke="red" points="375,-845.91 375,-875.91 576,-875.91 576,-845.91 375,-845.91"/>
<text text-anchor="start" x="383" y="-863.91" font-family="Helvetica,sans-Serif" font-size="10.00">leanux::tools::lmon</text>
<text text-anchor="middle" x="475.5" y="-852.91" font-family="Helvetica,sans-Serif" font-size="10.00">::RealtimeSampler::sampleXProcView</text>
</a>
</g>
</g>
<!-- Node11&#45;&gt;Node39 -->
<g id="edge15" class="edge">
<title>Node11&#45;&gt;Node39</title>
<path fill="none" stroke="midnightblue" d="M322.69,-943.85C328.43,-941.32 333.95,-938.36 339,-934.91 361.31,-919.66 352.57,-900.98 375,-885.91 377.97,-883.91 381.09,-882.08 384.32,-880.38"/>
<polygon fill="midnightblue" stroke="midnightblue" points="386.09,-883.42 393.65,-876 383.11,-877.08 386.09,-883.42"/>
</g>
<!-- Node50 -->
<g id="node15" class="node">
<title>Node50</title>
<g id="a_node15"><a xlink:href="../../da/d21/classleanux_1_1tools_1_1lmon_1_1RealtimeSampler.html#a8de42eb5d528bfa157565a81a16ae5bd" target="_top" xlink:title=" ">
<polygon fill="none" stroke="red" points="377,-992.91 377,-1022.91 574,-1022.91 574,-992.91 377,-992.91"/>
<text text-anchor="start" x="385" y="-1010.91" font-family="Helvetica,sans-Serif" font-size="10.00">leanux::tools::lmon</text>
<text text-anchor="middle" x="475.5" y="-999.91" font-family="Helvetica,sans-Serif" font-size="10.00">::RealtimeSampler::sampleXSysView</text>
</a>
</g>
</g>
<!-- Node11&#45;&gt;Node50 -->
<g id="edge17" class="edge">
<title>Node11&#45;&gt;Node50</title>
<path fill="none" stroke="midnightblue" d="M318.54,-973.95C342.94,-979.26 370.57,-985.28 395.72,-990.76"/>
<polygon fill="midnightblue" stroke="midnightblue" points="395.08,-994.2 405.59,-992.91 396.57,-987.36 395.08,-994.2"/>
</g>
<!-- Node12&#45;&gt;Node2 -->
<g id="edge12" class="edge">
<title>Node12&#45;&gt;Node2</title>
<path fill="none" stroke="midnightblue" d="M538.87,-943.89C551.18,-940.92 564,-937.82 576,-934.91 593.56,-930.65 612.8,-925.96 629.83,-921.81"/>
<polygon fill="midnightblue" stroke="midnightblue" points="630.68,-925.2 639.57,-919.43 629.02,-918.4 630.68,-925.2"/>
</g>
<!-- Node29&#45;&gt;Node2 -->
<g id="edge14" class="edge">
<title>Node29&#45;&gt;Node2</title>
<path fill="none" stroke="midnightblue" d="M574.25,-909.91C584.9,-909.91 595.59,-909.91 605.87,-909.91"/>
<polygon fill="midnightblue" stroke="midnightblue" points="605.98,-913.41 615.98,-909.91 605.98,-906.41 605.98,-913.41"/>
</g>
<!-- Node39&#45;&gt;Node2 -->
<g id="edge16" class="edge">
<title>Node39&#45;&gt;Node2</title>
<path fill="none" stroke="midnightblue" d="M538.48,-875.95C567.71,-883.04 602.09,-891.38 629.47,-898.02"/>
<polygon fill="midnightblue" stroke="midnightblue" points="628.68,-901.43 639.22,-900.38 630.33,-894.63 628.68,-901.43"/>
</g>
<!-- Node50&#45;&gt;Node2 -->
<g id="edge18" class="edge">
<title>Node50&#45;&gt;Node2</title>
<path fill="none" stroke="midnightblue" d="M552.52,-992.85C560.6,-990.29 568.57,-987.33 576,-983.91 608.31,-969.06 640.78,-943.36 660.26,-926.5"/>
<polygon fill="midnightblue" stroke="midnightblue" points="662.84,-928.9 668.02,-919.66 658.21,-923.65 662.84,-928.9"/>
</g>
<!-- Node67 -->
<g id="node17" class="node">
<title>Node67</title>
<g id="a_node17"><a xlink:href="../../dc/d7e/classleanux_1_1tools_1_1lmon_1_1Header.html#a1beddf0bef3e55d270812602cd0e93a2" target="_top" xlink:title="The minimum height (lines) required by the Header.">
<polygon fill="none" stroke="black" points="410.5,-327.91 410.5,-357.91 540.5,-357.91 540.5,-327.91 410.5,-327.91"/>
<text text-anchor="start" x="418.5" y="-345.91" font-family="Helvetica,sans-Serif" font-size="10.00">leanux::tools::lmon</text>
<text text-anchor="middle" x="475.5" y="-334.91" font-family="Helvetica,sans-Serif" font-size="10.00">::Header::getMinHeight</text>
</a>
</g>
</g>
<!-- Node66&#45;&gt;Node67 -->
<g id="edge20" class="edge">
<title>Node66&#45;&gt;Node67</title>
<path fill="none" stroke="midnightblue" d="M311.58,-360.29C339.04,-357.36 371.55,-353.89 400.28,-350.83"/>
<polygon fill="midnightblue" stroke="midnightblue" points="400.7,-354.3 410.27,-349.76 399.96,-347.34 400.7,-354.3"/>
</g>
<!-- Node68 -->
<g id="node18" class="node">
<title>Node68</title>
<g id="a_node18"><a xlink:href="../../db/dda/classleanux_1_1tools_1_1lmon_1_1Footer.html#abad3864ba66912f8525c091c5dba942d" target="_top" xlink:title="The minimum height (lines) required by the Footer.">
<polygon fill="none" stroke="black" points="617,-46.91 617,-76.91 742,-76.91 742,-46.91 617,-46.91"/>
<text text-anchor="start" x="625" y="-64.91" font-family="Helvetica,sans-Serif" font-size="10.00">leanux::tools::lmon</text>
<text text-anchor="middle" x="679.5" y="-53.91" font-family="Helvetica,sans-Serif" font-size="10.00">::Footer::getMinHeight</text>
</a>
</g>
</g>
<!-- Node66&#45;&gt;Node68 -->
<g id="edge21" class="edge">
<title>Node66&#45;&gt;Node68</title>
<path fill="none" stroke="midnightblue" d="M311.88,-359.76C322.21,-355.92 331.87,-350.25 339,-341.91 383.78,-289.54 323.52,-79.72 375,-33.91 448.88,31.84 576.66,-13.35 640.25,-42.53"/>
<polygon fill="midnightblue" stroke="midnightblue" points="638.98,-45.8 649.52,-46.88 641.96,-39.46 638.98,-45.8"/>
</g>
<!-- Node69 -->
<g id="node19" class="node">
<title>Node69</title>
<g id="a_node19"><a xlink:href="../../da/d9f/classleanux_1_1tools_1_1lmon_1_1SysView.html#a3e0d9a195160e00130c5347f6ae1bc8d" target="_top" xlink:title="The minimum height (lines) required by the Footer.">
<polygon fill="none" stroke="black" points="408,-239.91 408,-269.91 543,-269.91 543,-239.91 408,-239.91"/>
<text text-anchor="start" x="416" y="-257.91" font-family="Helvetica,sans-Serif" font-size="10.00">leanux::tools::lmon</text>
<text text-anchor="middle" x="475.5" y="-246.91" font-family="Helvetica,sans-Serif" font-size="10.00">::SysView::getMinHeight</text>
</a>
</g>
</g>
<!-- Node66&#45;&gt;Node69 -->
<g id="edge22" class="edge">
<title>Node66&#45;&gt;Node69</title>
<path fill="none" stroke="midnightblue" d="M311.51,-356.06C321.29,-352.58 330.85,-347.98 339,-341.91 363.03,-324.02 351.15,-303.05 375,-284.91 382.04,-279.56 390.04,-275.15 398.37,-271.53"/>
<polygon fill="midnightblue" stroke="midnightblue" points="399.86,-274.7 407.87,-267.76 397.29,-268.19 399.86,-274.7"/>
</g>
<!-- Node70 -->
<g id="node20" class="node">
<title>Node70</title>
<g id="a_node20"><a xlink:href="../../d8/d7f/classleanux_1_1tools_1_1lmon_1_1IOView.html#a9cfd6542a5437edf7c232fc7d05fbb72" target="_top" xlink:title="The minimum height (lines) required by the Footer.">
<polygon fill="none" stroke="red" points="411.5,-190.91 411.5,-220.91 539.5,-220.91 539.5,-190.91 411.5,-190.91"/>
<text text-anchor="start" x="419.5" y="-208.91" font-family="Helvetica,sans-Serif" font-size="10.00">leanux::tools::lmon</text>
<text text-anchor="middle" x="475.5" y="-197.91" font-family="Helvetica,sans-Serif" font-size="10.00">::IOView::getMinHeight</text>
</a>
</g>
</g>
<!-- Node66&#45;&gt;Node70 -->
<g id="edge23" class="edge">
<title>Node66&#45;&gt;Node70</title>
<path fill="none" stroke="midnightblue" d="M311.54,-358.24C321.66,-354.53 331.33,-349.29 339,-341.91 376.68,-305.66 336.68,-265.48 375,-229.91 382.6,-222.86 391.9,-217.77 401.74,-214.12"/>
<polygon fill="midnightblue" stroke="midnightblue" points="402.85,-217.44 411.3,-211.05 400.71,-210.78 402.85,-217.44"/>
</g>
<!-- Node74 -->
<g id="node21" class="node">
<title>Node74</title>
<g id="a_node21"><a xlink:href="../../d6/d0a/classleanux_1_1tools_1_1lmon_1_1ProcessView.html#aadb09337fff2490e352bb77acbeee408" target="_top" xlink:title="Get the minimal height for the ProcessView.">
<polygon fill="none" stroke="black" points="398,-141.91 398,-171.91 553,-171.91 553,-141.91 398,-141.91"/>
<text text-anchor="start" x="406" y="-159.91" font-family="Helvetica,sans-Serif" font-size="10.00">leanux::tools::lmon</text>
<text text-anchor="middle" x="475.5" y="-148.91" font-family="Helvetica,sans-Serif" font-size="10.00">::ProcessView::getMinHeight</text>
</a>
</g>
</g>
<!-- Node66&#45;&gt;Node74 -->
<g id="edge24" class="edge">
<title>Node66&#45;&gt;Node74</title>
<path fill="none" stroke="midnightblue" d="M311.65,-358.97C321.88,-355.2 331.56,-349.75 339,-341.91 389.47,-288.72 323.59,-233.19 375,-180.91 379.05,-176.79 383.67,-173.34 388.66,-170.43"/>
<polygon fill="midnightblue" stroke="midnightblue" points="390.6,-173.38 397.99,-165.79 387.48,-167.11 390.6,-173.38"/>
</g>
<!-- Node75 -->
<g id="node22" class="node">
<title>Node75</title>
<g id="a_node22"><a xlink:href="../../df/dcc/classleanux_1_1tools_1_1lmon_1_1NetView.html#ae72888be780638aca574db129155547e" target="_top" xlink:title="Get the minimal height for the NetView.">
<polygon fill="none" stroke="red" points="612,-354.91 612,-384.91 747,-384.91 747,-354.91 612,-354.91"/>
<text text-anchor="start" x="620" y="-372.91" font-family="Helvetica,sans-Serif" font-size="10.00">leanux::tools::lmon</text>
<text text-anchor="middle" x="679.5" y="-361.91" font-family="Helvetica,sans-Serif" font-size="10.00">::NetView::getMinHeight</text>
</a>
</g>
</g>
<!-- Node66&#45;&gt;Node75 -->
<g id="edge25" class="edge">
<title>Node66&#45;&gt;Node75</title>
<path fill="none" stroke="midnightblue" d="M311.56,-352.34C320.93,-349.35 330.35,-345.88 339,-341.91 356.48,-333.89 356.6,-323.48 375,-317.91 460.5,-292.02 489.12,-297.13 576,-317.91 601.75,-324.07 628.34,-337.81 647.98,-349.62"/>
<polygon fill="midnightblue" stroke="midnightblue" points="646.15,-352.6 656.49,-354.88 649.83,-346.65 646.15,-352.6"/>
</g>
<!-- Node76 -->
<g id="node23" class="node">
<title>Node76</title>
<g id="a_node23"><a xlink:href="../../dc/d7e/classleanux_1_1tools_1_1lmon_1_1Header.html#a199f43a8cf926331e86bab97c330fb11" target="_top" xlink:title="provide the optimal height for the Header.">
<polygon fill="none" stroke="black" points="400,-43.91 400,-73.91 551,-73.91 551,-43.91 400,-43.91"/>
<text text-anchor="start" x="408" y="-61.91" font-family="Helvetica,sans-Serif" font-size="10.00">leanux::tools::lmon</text>
<text text-anchor="middle" x="475.5" y="-50.91" font-family="Helvetica,sans-Serif" font-size="10.00">::Header::getOptimalHeight</text>
</a>
</g>
</g>
<!-- Node66&#45;&gt;Node76 -->
<g id="edge26" class="edge">
<title>Node66&#45;&gt;Node76</title>
<path fill="none" stroke="midnightblue" d="M311.73,-359.63C322.08,-355.81 331.78,-350.17 339,-341.91 415.48,-254.41 296.97,-169.04 375,-82.91 379.46,-77.99 384.75,-73.99 390.51,-70.75"/>
<polygon fill="midnightblue" stroke="midnightblue" points="392.41,-73.73 399.93,-66.27 389.4,-67.41 392.41,-73.73"/>
</g>
<!-- Node77 -->
<g id="node24" class="node">
<title>Node77</title>
<g id="a_node24"><a xlink:href="../../db/dda/classleanux_1_1tools_1_1lmon_1_1Footer.html#a7c1891d364cf4a57478de9794a3e95c2" target="_top" xlink:title="provide the optimal height for the Header.">
<polygon fill="none" stroke="black" points="402.5,-92.91 402.5,-122.91 548.5,-122.91 548.5,-92.91 402.5,-92.91"/>
<text text-anchor="start" x="410.5" y="-110.91" font-family="Helvetica,sans-Serif" font-size="10.00">leanux::tools::lmon</text>
<text text-anchor="middle" x="475.5" y="-99.91" font-family="Helvetica,sans-Serif" font-size="10.00">::Footer::getOptimalHeight</text>
</a>
</g>
</g>
<!-- Node66&#45;&gt;Node77 -->
<g id="edge27" class="edge">
<title>Node66&#45;&gt;Node77</title>
<path fill="none" stroke="midnightblue" d="M311.52,-359.44C321.89,-355.64 331.65,-350.06 339,-341.91 402.44,-271.61 310.32,-201.07 375,-131.91 380.13,-126.42 386.28,-122.1 392.98,-118.69"/>
<polygon fill="midnightblue" stroke="midnightblue" points="394.62,-121.79 402.4,-114.6 391.83,-115.37 394.62,-121.79"/>
</g>
<!-- Node78 -->
<g id="node25" class="node">
<title>Node78</title>
<g id="a_node25"><a xlink:href="../../da/d9f/classleanux_1_1tools_1_1lmon_1_1SysView.html#a16d370b31789cd9e2c4ed48928d22576" target="_top" xlink:title="provide the optimal height for the Header.">
<polygon fill="none" stroke="black" points="397.5,-572.91 397.5,-602.91 553.5,-602.91 553.5,-572.91 397.5,-572.91"/>
<text text-anchor="start" x="405.5" y="-590.91" font-family="Helvetica,sans-Serif" font-size="10.00">leanux::tools::lmon</text>
<text text-anchor="middle" x="475.5" y="-579.91" font-family="Helvetica,sans-Serif" font-size="10.00">::SysView::getOptimalHeight</text>
</a>
</g>
</g>
<!-- Node66&#45;&gt;Node78 -->
<g id="edge29" class="edge">
<title>Node66&#45;&gt;Node78</title>
<path fill="none" stroke="midnightblue" d="M258.34,-382.19C283.97,-426.31 357.63,-551.51 375,-563.91 379.04,-566.79 383.37,-569.33 387.9,-571.57"/>
<polygon fill="midnightblue" stroke="midnightblue" points="386.86,-574.93 397.42,-575.75 389.67,-568.52 386.86,-574.93"/>
</g>
<!-- Node79 -->
<g id="node26" class="node">
<title>Node79</title>
<g id="a_node26"><a xlink:href="../../d8/d7f/classleanux_1_1tools_1_1lmon_1_1IOView.html#a466bf2f2261b917b31ae2664ec8fbed0" target="_top" xlink:title="provide the optimal height for the Header.">
<polygon fill="none" stroke="red" points="401,-523.91 401,-553.91 550,-553.91 550,-523.91 401,-523.91"/>
<text text-anchor="start" x="409" y="-541.91" font-family="Helvetica,sans-Serif" font-size="10.00">leanux::tools::lmon</text>
<text text-anchor="middle" x="475.5" y="-530.91" font-family="Helvetica,sans-Serif" font-size="10.00">::IOView::getOptimalHeight</text>
</a>
</g>
</g>
<!-- Node66&#45;&gt;Node79 -->
<g id="edge30" class="edge">
<title>Node66&#45;&gt;Node79</title>
<path fill="none" stroke="midnightblue" d="M257.95,-382.25C275.53,-412.62 319.07,-480.46 375,-514.91 380.09,-518.05 385.56,-520.77 391.22,-523.14"/>
<polygon fill="midnightblue" stroke="midnightblue" points="390.3,-526.54 400.9,-526.8 392.78,-519.99 390.3,-526.54"/>
</g>
<!-- Node82 -->
<g id="node27" class="node">
<title>Node82</title>
<g id="a_node27"><a xlink:href="../../d6/d0a/classleanux_1_1tools_1_1lmon_1_1ProcessView.html#a1d115b56591aeb2e4a4883011afab0ed" target="_top" xlink:title="provide the optimal height for the ProcessView, for this View as many as it can get.">
<polygon fill="none" stroke="black" points="387.5,-474.91 387.5,-504.91 563.5,-504.91 563.5,-474.91 387.5,-474.91"/>
<text text-anchor="start" x="395.5" y="-492.91" font-family="Helvetica,sans-Serif" font-size="10.00">leanux::tools::lmon</text>
<text text-anchor="middle" x="475.5" y="-481.91" font-family="Helvetica,sans-Serif" font-size="10.00">::ProcessView::getOptimalHeight</text>
</a>
</g>
</g>
<!-- Node66&#45;&gt;Node82 -->
<g id="edge31" class="edge">
<title>Node66&#45;&gt;Node82</title>
<path fill="none" stroke="midnightblue" d="M264.24,-382.14C286.28,-404.01 330.07,-444.08 375,-465.91 379.11,-467.91 383.4,-469.75 387.79,-471.44"/>
<polygon fill="midnightblue" stroke="midnightblue" points="386.94,-474.85 397.54,-474.91 389.29,-468.26 386.94,-474.85"/>
</g>
<!-- Node83 -->
<g id="node28" class="node">
<title>Node83</title>
<g id="a_node28"><a xlink:href="../../df/dcc/classleanux_1_1tools_1_1lmon_1_1NetView.html#a90d83dccb33390f86d92374070075b29" target="_top" xlink:title="provide the optimal height for the NetView,">
<polygon fill="none" stroke="red" points="397.5,-425.91 397.5,-455.91 553.5,-455.91 553.5,-425.91 397.5,-425.91"/>
<text text-anchor="start" x="405.5" y="-443.91" font-family="Helvetica,sans-Serif" font-size="10.00">leanux::tools::lmon</text>
<text text-anchor="middle" x="475.5" y="-432.91" font-family="Helvetica,sans-Serif" font-size="10.00">::NetView::getOptimalHeight</text>
</a>
</g>
</g>
<!-- Node66&#45;&gt;Node83 -->
<g id="edge32" class="edge">
<title>Node66&#45;&gt;Node83</title>
<path fill="none" stroke="midnightblue" d="M283.38,-381.94C308.37,-392.64 343.37,-406.85 375,-416.91 381.93,-419.11 389.18,-421.23 396.48,-423.22"/>
<polygon fill="midnightblue" stroke="midnightblue" points="395.87,-426.68 406.44,-425.86 397.67,-419.91 395.87,-426.68"/>
</g>
<!-- Node84 -->
<g id="node29" class="node">
<title>Node84</title>
<g id="a_node29"><a xlink:href="../../d1/de8/classleanux_1_1tools_1_1lmon_1_1View.html#a1db7ade4b920adb1f8a9b0f00c3c4322" target="_top" xlink:title="Resize the View.">
<polygon fill="none" stroke="black" points="420.5,-376.91 420.5,-406.91 530.5,-406.91 530.5,-376.91 420.5,-376.91"/>
<text text-anchor="start" x="428.5" y="-394.91" font-family="Helvetica,sans-Serif" font-size="10.00">leanux::tools::lmon</text>
<text text-anchor="middle" x="475.5" y="-383.91" font-family="Helvetica,sans-Serif" font-size="10.00">::View::resize</text>
</a>
</g>
</g>
<!-- Node66&#45;&gt;Node84 -->
<g id="edge34" class="edge">
<title>Node66&#45;&gt;Node84</title>
<path fill="none" stroke="midnightblue" d="M311.58,-373.81C342.2,-377.21 379.1,-381.31 410.03,-384.75"/>
<polygon fill="midnightblue" stroke="midnightblue" points="409.95,-388.26 420.28,-385.89 410.73,-381.3 409.95,-388.26"/>
</g>
<!-- Node77&#45;&gt;Node68 -->
<g id="edge28" class="edge">
<title>Node77&#45;&gt;Node68</title>
<path fill="none" stroke="midnightblue" d="M542.64,-92.85C563.2,-88.17 585.96,-82.98 606.88,-78.22"/>
<polygon fill="midnightblue" stroke="midnightblue" points="607.69,-81.63 616.66,-75.99 606.13,-74.8 607.69,-81.63"/>
</g>
<!-- Node83&#45;&gt;Node75 -->
<g id="edge33" class="edge">
<title>Node83&#45;&gt;Node75</title>
<path fill="none" stroke="midnightblue" d="M546.31,-425.89C556.37,-423.2 566.51,-420.2 576,-416.91 597.84,-409.35 621.33,-398.77 640.31,-389.56"/>
<polygon fill="midnightblue" stroke="midnightblue" points="642.09,-392.59 649.52,-385.03 639,-386.31 642.09,-392.59"/>
</g>
</g>
</svg>
