<?xml version="1.0" encoding="UTF-8" standalone="no"?>
<!DOCTYPE svg PUBLIC "-//W3C//DTD SVG 1.1//EN"
 "http://www.w3.org/Graphics/SVG/1.1/DTD/svg11.dtd">
<!-- Generated by graphviz version 2.43.0 (0)
 -->
<!-- Title: leanux::tools::lmon::Screen::sizeChanged Pages: 1 -->
<svg width="436pt" height="88pt"
 viewBox="0.00 0.00 436.00 88.00" xmlns="http://www.w3.org/2000/svg" xmlns:xlink="http://www.w3.org/1999/xlink">
<g id="graph0" class="graph" transform="scale(1 1) rotate(0) translate(4 84)">
<title>leanux::tools::lmon::Screen::sizeChanged</title>
<!-- Node1 -->
<g id="node1" class="node">
<title>Node1</title>
<g id="a_node1"><a xlink:title="Determine if terminal size has changed.">
<polygon fill="#bfbfbf" stroke="black" points="304,-24.5 304,-54.5 428,-54.5 428,-24.5 304,-24.5"/>
<text text-anchor="start" x="312" y="-42.5" font-family="Helvetica,sans-Serif" font-size="10.00">leanux::tools::lmon</text>
<text text-anchor="middle" x="366" y="-31.5" font-family="Helvetica,sans-Serif" font-size="10.00">::Screen::sizeChanged</text>
</a>
</g>
</g>
<!-- Node2 -->
<g id="node2" class="node">
<title>Node2</title>
<g id="a_node2"><a xlink:href="../../d5/de6/classleanux_1_1tools_1_1lmon_1_1Screen.html#a010f9459d506af3a4251ea0a644282bd" target="_top" xlink:title="Run the Screen in history mode.">
<polygon fill="none" stroke="black" points="150.5,-49.5 150.5,-79.5 263.5,-79.5 263.5,-49.5 150.5,-49.5"/>
<text text-anchor="start" x="158.5" y="-67.5" font-family="Helvetica,sans-Serif" font-size="10.00">leanux::tools::lmon</text>
<text text-anchor="middle" x="207" y="-56.5" font-family="Helvetica,sans-Serif" font-size="10.00">::Screen::runHistory</text>
</a>
</g>
</g>
<!-- Node1&#45;&gt;Node2 -->
<g id="edge1" class="edge">
<title>Node1&#45;&gt;Node2</title>
<path fill="none" stroke="midnightblue" d="M293.8,-50.84C283.67,-52.45 273.38,-54.09 263.6,-55.65"/>
<polygon fill="midnightblue" stroke="midnightblue" points="294.52,-54.27 303.85,-49.24 293.42,-47.35 294.52,-54.27"/>
</g>
<!-- Node5 -->
<g id="node4" class="node">
<title>Node5</title>
<g id="a_node4"><a xlink:href="../../d5/de6/classleanux_1_1tools_1_1lmon_1_1Screen.html#aa3dfc925603031c15d1cd88405ca3c11" target="_top" xlink:title="Run the Screen in realtime mode.">
<polygon fill="none" stroke="black" points="146,-0.5 146,-30.5 268,-30.5 268,-0.5 146,-0.5"/>
<text text-anchor="start" x="154" y="-18.5" font-family="Helvetica,sans-Serif" font-size="10.00">leanux::tools::lmon</text>
<text text-anchor="middle" x="207" y="-7.5" font-family="Helvetica,sans-Serif" font-size="10.00">::Screen::runRealtime</text>
</a>
</g>
</g>
<!-- Node1&#45;&gt;Node5 -->
<g id="edge3" class="edge">
<title>Node1&#45;&gt;Node5</title>
<path fill="none" stroke="midnightblue" d="M293.87,-28.63C285.29,-27.32 276.6,-25.99 268.21,-24.7"/>
<polygon fill="midnightblue" stroke="midnightblue" points="293.44,-32.1 303.85,-30.15 294.49,-25.18 293.44,-32.1"/>
</g>
<!-- Node3 -->
<g id="node3" class="node">
<title>Node3</title>
<g id="a_node3"><a xlink:href="../../da/dbe/namespaceleanux_1_1tools_1_1lmon.html#a7f59af183bc55b66e3dc0844b473daaf" target="_top" xlink:title=" ">
<polygon fill="none" stroke="red" points="0,-24.5 0,-54.5 110,-54.5 110,-24.5 0,-24.5"/>
<text text-anchor="start" x="8" y="-42.5" font-family="Helvetica,sans-Serif" font-size="10.00">leanux::tools::lmon</text>
<text text-anchor="middle" x="55" y="-31.5" font-family="Helvetica,sans-Serif" font-size="10.00">::main</text>
</a>
</g>
</g>
<!-- Node2&#45;&gt;Node3 -->
<g id="edge2" class="edge">
<title>Node2&#45;&gt;Node3</title>
<path fill="none" stroke="midnightblue" d="M140.27,-53.55C130.3,-51.88 120.1,-50.18 110.41,-48.57"/>
<polygon fill="midnightblue" stroke="midnightblue" points="139.71,-57 150.15,-55.19 140.86,-50.09 139.71,-57"/>
</g>
<!-- Node5&#45;&gt;Node3 -->
<g id="edge4" class="edge">
<title>Node5&#45;&gt;Node3</title>
<path fill="none" stroke="midnightblue" d="M135.86,-26.72C127.29,-28.09 118.63,-29.48 110.34,-30.81"/>
<polygon fill="midnightblue" stroke="midnightblue" points="136.53,-30.16 145.85,-25.12 135.43,-23.25 136.53,-30.16"/>
</g>
</g>
</svg>
