<?xml version="1.0" encoding="UTF-8" standalone="no"?>
<!DOCTYPE svg PUBLIC "-//W3C//DTD SVG 1.1//EN"
 "http://www.w3.org/Graphics/SVG/1.1/DTD/svg11.dtd">
<!-- Generated by graphviz version 2.43.0 (0)
 -->
<!-- Title: tools/lblk/lblk.cpp Pages: 1 -->
<svg width="2348pt" height="196pt"
 viewBox="0.00 0.00 2347.78 196.00" xmlns="http://www.w3.org/2000/svg" xmlns:xlink="http://www.w3.org/1999/xlink">
<g id="graph0" class="graph" transform="scale(1 1) rotate(0) translate(4 192)">
<title>tools/lblk/lblk.cpp</title>
<!-- Node1 -->
<g id="node1" class="node">
<title>Node1</title>
<g id="a_node1"><a xlink:title=" ">
<polygon fill="#bfbfbf" stroke="black" points="1262.78,-168.5 1262.78,-187.5 1365.78,-187.5 1365.78,-168.5 1262.78,-168.5"/>
<text text-anchor="middle" x="1314.28" y="-175.5" font-family="Helvetica,sans-Serif" font-size="10.00">tools/lblk/lblk.cpp</text>
</a>
</g>
</g>
<!-- Node2 -->
<g id="node2" class="node">
<title>Node2</title>
<g id="a_node2"><a xlink:title=" ">
<polygon fill="none" stroke="#bfbfbf" points="641.28,-0.5 641.28,-19.5 701.28,-19.5 701.28,-0.5 641.28,-0.5"/>
<text text-anchor="middle" x="671.28" y="-7.5" font-family="Helvetica,sans-Serif" font-size="10.00">iostream</text>
</a>
</g>
</g>
<!-- Node1&#45;&gt;Node2 -->
<g id="edge1" class="edge">
<title>Node1&#45;&gt;Node2</title>
<path fill="none" stroke="midnightblue" d="M1262.46,-176.91C1045.7,-176.3 221.1,-171.36 183.28,-132 171.21,-119.45 161.82,-82.4 188.28,-56 220.8,-23.54 554.59,-24.89 600.28,-20 610.27,-18.93 621.04,-17.64 631.09,-16.37"/>
<polygon fill="midnightblue" stroke="midnightblue" points="631.78,-19.81 641.25,-15.07 630.89,-12.87 631.78,-19.81"/>
</g>
<!-- Node3 -->
<g id="node3" class="node">
<title>Node3</title>
<g id="a_node3"><a xlink:title=" ">
<polygon fill="none" stroke="#bfbfbf" points="479.28,-56.5 479.28,-75.5 535.28,-75.5 535.28,-56.5 479.28,-56.5"/>
<text text-anchor="middle" x="507.28" y="-63.5" font-family="Helvetica,sans-Serif" font-size="10.00">iomanip</text>
</a>
</g>
</g>
<!-- Node1&#45;&gt;Node3 -->
<g id="edge2" class="edge">
<title>Node1&#45;&gt;Node3</title>
<path fill="none" stroke="midnightblue" d="M1262.54,-177.45C1119.27,-178.13 719.83,-175.91 597.28,-132 567.96,-121.5 539.8,-98.36 523.02,-82.72"/>
<polygon fill="midnightblue" stroke="midnightblue" points="525.37,-80.13 515.73,-75.73 520.53,-85.18 525.37,-80.13"/>
</g>
<!-- Node4 -->
<g id="node4" class="node">
<title>Node4</title>
<g id="a_node4"><a xlink:title=" ">
<polygon fill="none" stroke="#bfbfbf" points="1309.28,-56.5 1309.28,-75.5 1365.28,-75.5 1365.28,-56.5 1309.28,-56.5"/>
<text text-anchor="middle" x="1337.28" y="-63.5" font-family="Helvetica,sans-Serif" font-size="10.00">sstream</text>
</a>
</g>
</g>
<!-- Node1&#45;&gt;Node4 -->
<g id="edge3" class="edge">
<title>Node1&#45;&gt;Node4</title>
<path fill="none" stroke="midnightblue" d="M1316.08,-168.37C1319.79,-150.62 1328.36,-109.67 1333.39,-85.6"/>
<polygon fill="midnightblue" stroke="midnightblue" points="1336.86,-86.1 1335.48,-75.59 1330.01,-84.66 1336.86,-86.1"/>
</g>
<!-- Node5 -->
<g id="node5" class="node">
<title>Node5</title>
<g id="a_node5"><a xlink:href="../../df/dbe/cpu_8hpp.html" target="_top" xlink:title=" ">
<polygon fill="none" stroke="black" points="13.78,-56.5 13.78,-75.5 68.78,-75.5 68.78,-56.5 13.78,-56.5"/>
<text text-anchor="middle" x="41.28" y="-63.5" font-family="Helvetica,sans-Serif" font-size="10.00">cpu.hpp</text>
</a>
</g>
</g>
<!-- Node1&#45;&gt;Node5 -->
<g id="edge4" class="edge">
<title>Node1&#45;&gt;Node5</title>
<path fill="none" stroke="midnightblue" d="M1262.43,-176.97C1047.03,-176.6 228.94,-172.52 121.28,-132 94.46,-121.91 69.9,-99.02 55.26,-83.28"/>
<polygon fill="midnightblue" stroke="midnightblue" points="57.83,-80.91 48.55,-75.81 52.63,-85.59 57.83,-80.91"/>
</g>
<!-- Node9 -->
<g id="node9" class="node">
<title>Node9</title>
<g id="a_node9"><a xlink:href="../../dd/db4/process_8hpp.html" target="_top" xlink:title=" ">
<polygon fill="none" stroke="black" points="192.78,-112.5 192.78,-131.5 267.78,-131.5 267.78,-112.5 192.78,-112.5"/>
<text text-anchor="middle" x="230.28" y="-119.5" font-family="Helvetica,sans-Serif" font-size="10.00">process.hpp</text>
</a>
</g>
</g>
<!-- Node1&#45;&gt;Node9 -->
<g id="edge8" class="edge">
<title>Node1&#45;&gt;Node9</title>
<path fill="none" stroke="midnightblue" d="M1262.63,-175.83C1114.62,-172.22 676.23,-159.81 313.28,-132 301.76,-131.12 289.38,-129.91 277.78,-128.67"/>
<polygon fill="midnightblue" stroke="midnightblue" points="278.15,-125.19 267.83,-127.58 277.39,-132.15 278.15,-125.19"/>
</g>
<!-- Node12 -->
<g id="node12" class="node">
<title>Node12</title>
<g id="a_node12"><a xlink:title=" ">
<polygon fill="none" stroke="#bfbfbf" points="277.28,-56.5 277.28,-75.5 333.28,-75.5 333.28,-56.5 277.28,-56.5"/>
<text text-anchor="middle" x="305.28" y="-63.5" font-family="Helvetica,sans-Serif" font-size="10.00">unistd.h</text>
</a>
</g>
</g>
<!-- Node1&#45;&gt;Node12 -->
<g id="edge71" class="edge">
<title>Node1&#45;&gt;Node12</title>
<path fill="none" stroke="midnightblue" d="M1262.74,-176.3C1080.24,-173.56 471.2,-162.24 389.28,-132 361.58,-121.78 335.68,-98.92 320.15,-83.23"/>
<polygon fill="midnightblue" stroke="midnightblue" points="322.47,-80.59 313.02,-75.78 317.41,-85.43 322.47,-80.59"/>
</g>
<!-- Node13 -->
<g id="node13" class="node">
<title>Node13</title>
<g id="a_node13"><a xlink:title=" ">
<polygon fill="none" stroke="#bfbfbf" points="351.28,-56.5 351.28,-75.5 423.28,-75.5 423.28,-56.5 351.28,-56.5"/>
<text text-anchor="middle" x="387.28" y="-63.5" font-family="Helvetica,sans-Serif" font-size="10.00">sys/types.h</text>
</a>
</g>
</g>
<!-- Node1&#45;&gt;Node13 -->
<g id="edge74" class="edge">
<title>Node1&#45;&gt;Node13</title>
<path fill="none" stroke="midnightblue" d="M1262.75,-176.09C1075.47,-172.56 440.06,-158.65 406.28,-132 392.6,-121.21 388.39,-101.12 387.27,-86.12"/>
<polygon fill="midnightblue" stroke="midnightblue" points="390.76,-85.76 386.91,-75.88 383.76,-86 390.76,-85.76"/>
</g>
<!-- Node14 -->
<g id="node14" class="node">
<title>Node14</title>
<g id="a_node14"><a xlink:href="../../dd/d90/system_8hpp.html" target="_top" xlink:title=" ">
<polygon fill="none" stroke="black" points="415.28,-112.5 415.28,-131.5 489.28,-131.5 489.28,-112.5 415.28,-112.5"/>
<text text-anchor="middle" x="452.28" y="-119.5" font-family="Helvetica,sans-Serif" font-size="10.00">system.hpp</text>
</a>
</g>
</g>
<!-- Node1&#45;&gt;Node14 -->
<g id="edge16" class="edge">
<title>Node1&#45;&gt;Node14</title>
<path fill="none" stroke="midnightblue" d="M1262.61,-174.61C1138.96,-168.75 816.27,-152.63 547.28,-132 531.84,-130.82 515.02,-129.3 499.88,-127.85"/>
<polygon fill="midnightblue" stroke="midnightblue" points="499.99,-124.34 489.7,-126.86 499.32,-131.31 499.99,-124.34"/>
</g>
<!-- Node15 -->
<g id="node15" class="node">
<title>Node15</title>
<g id="a_node15"><a xlink:href="../../d3/d44/oops_8hpp.html" target="_top" xlink:title=" ">
<polygon fill="none" stroke="black" points="629.78,-56.5 629.78,-75.5 690.78,-75.5 690.78,-56.5 629.78,-56.5"/>
<text text-anchor="middle" x="660.28" y="-63.5" font-family="Helvetica,sans-Serif" font-size="10.00">oops.hpp</text>
</a>
</g>
</g>
<!-- Node1&#45;&gt;Node15 -->
<g id="edge30" class="edge">
<title>Node1&#45;&gt;Node15</title>
<path fill="none" stroke="midnightblue" d="M1262.56,-176.83C1173.08,-175.51 984.07,-168.22 829.28,-132 777.4,-119.86 720.15,-95.31 687.37,-80.1"/>
<polygon fill="midnightblue" stroke="midnightblue" points="688.56,-76.79 678.02,-75.7 685.58,-83.12 688.56,-76.79"/>
</g>
<!-- Node16 -->
<g id="node16" class="node">
<title>Node16</title>
<g id="a_node16"><a xlink:href="../../d4/d2d/net_8hpp.html" target="_top" xlink:title=" ">
<polygon fill="none" stroke="black" points="838.78,-112.5 838.78,-131.5 891.78,-131.5 891.78,-112.5 838.78,-112.5"/>
<text text-anchor="middle" x="865.28" y="-119.5" font-family="Helvetica,sans-Serif" font-size="10.00">net.hpp</text>
</a>
</g>
</g>
<!-- Node1&#45;&gt;Node16 -->
<g id="edge22" class="edge">
<title>Node1&#45;&gt;Node16</title>
<path fill="none" stroke="midnightblue" d="M1262.77,-170.81C1171.06,-159.78 981.64,-136.99 901.91,-127.41"/>
<polygon fill="midnightblue" stroke="midnightblue" points="902.2,-123.92 891.85,-126.2 901.36,-130.87 902.2,-123.92"/>
</g>
<!-- Node18 -->
<g id="node18" class="node">
<title>Node18</title>
<g id="a_node18"><a xlink:href="../../d9/db2/block_8hpp.html" target="_top" xlink:title=" ">
<polygon fill="none" stroke="black" points="1151.28,-56.5 1151.28,-75.5 1215.28,-75.5 1215.28,-56.5 1151.28,-56.5"/>
<text text-anchor="middle" x="1183.28" y="-63.5" font-family="Helvetica,sans-Serif" font-size="10.00">block.hpp</text>
</a>
</g>
</g>
<!-- Node1&#45;&gt;Node18 -->
<g id="edge31" class="edge">
<title>Node1&#45;&gt;Node18</title>
<path fill="none" stroke="midnightblue" d="M1304,-168.37C1281.81,-149.73 1229.17,-105.53 1201.3,-82.13"/>
<polygon fill="midnightblue" stroke="midnightblue" points="1203.42,-79.34 1193.51,-75.59 1198.92,-84.7 1203.42,-79.34"/>
</g>
<!-- Node19 -->
<g id="node19" class="node">
<title>Node19</title>
<g id="a_node19"><a xlink:title=" ">
<polygon fill="none" stroke="#bfbfbf" points="1551.78,-0.5 1551.78,-19.5 1604.78,-19.5 1604.78,-0.5 1551.78,-0.5"/>
<text text-anchor="middle" x="1578.28" y="-7.5" font-family="Helvetica,sans-Serif" font-size="10.00">stdlib.h</text>
</a>
</g>
</g>
<!-- Node1&#45;&gt;Node19 -->
<g id="edge72" class="edge">
<title>Node1&#45;&gt;Node19</title>
<path fill="none" stroke="midnightblue" d="M1365.78,-176.92C1500.28,-175.46 1856.48,-163.29 1925.28,-76 1930.78,-69.02 1931.14,-62.68 1925.28,-56 1905,-32.92 1700.05,-18.21 1614.99,-13.06"/>
<polygon fill="midnightblue" stroke="midnightblue" points="1615.18,-9.57 1604.99,-12.47 1614.76,-16.56 1615.18,-9.57"/>
</g>
<!-- Node20 -->
<g id="node20" class="node">
<title>Node20</title>
<g id="a_node20"><a xlink:title=" ">
<polygon fill="none" stroke="#bfbfbf" points="1772.28,-0.5 1772.28,-19.5 1858.28,-19.5 1858.28,-0.5 1772.28,-0.5"/>
<text text-anchor="middle" x="1815.28" y="-7.5" font-family="Helvetica,sans-Serif" font-size="10.00">linux/kdev_t.h</text>
</a>
</g>
</g>
<!-- Node1&#45;&gt;Node20 -->
<g id="edge77" class="edge">
<title>Node1&#45;&gt;Node20</title>
<path fill="none" stroke="midnightblue" d="M1366.04,-176.09C1483.95,-173.47 1769.24,-163.93 1859.28,-132 1906.11,-115.39 1969.9,-96.62 1941.28,-56 1924.79,-32.6 1894.97,-21.3 1868.48,-15.87"/>
<polygon fill="midnightblue" stroke="midnightblue" points="1868.99,-12.41 1858.52,-14.07 1867.74,-19.3 1868.99,-12.41"/>
</g>
<!-- Node21 -->
<g id="node21" class="node">
<title>Node21</title>
<g id="a_node21"><a xlink:title=" ">
<polygon fill="none" stroke="#bfbfbf" points="1950.28,-0.5 1950.28,-19.5 2000.28,-19.5 2000.28,-0.5 1950.28,-0.5"/>
<text text-anchor="middle" x="1975.28" y="-7.5" font-family="Helvetica,sans-Serif" font-size="10.00">stdio.h</text>
</a>
</g>
</g>
<!-- Node1&#45;&gt;Node21 -->
<g id="edge73" class="edge">
<title>Node1&#45;&gt;Node21</title>
<path fill="none" stroke="midnightblue" d="M1365.96,-177.58C1518.38,-178.75 1958.12,-178.07 2001.28,-132 2028.09,-103.37 2003.44,-54.03 1987.08,-28.08"/>
<polygon fill="midnightblue" stroke="midnightblue" points="1989.97,-26.1 1981.55,-19.67 1984.12,-29.94 1989.97,-26.1"/>
</g>
<!-- Node22 -->
<g id="node22" class="node">
<title>Node22</title>
<g id="a_node22"><a xlink:href="../../d9/dd5/pci_8hpp.html" target="_top" xlink:title=" ">
<polygon fill="none" stroke="black" points="606.28,-112.5 606.28,-131.5 658.28,-131.5 658.28,-112.5 606.28,-112.5"/>
<text text-anchor="middle" x="632.28" y="-119.5" font-family="Helvetica,sans-Serif" font-size="10.00">pci.hpp</text>
</a>
</g>
</g>
<!-- Node1&#45;&gt;Node22 -->
<g id="edge41" class="edge">
<title>Node1&#45;&gt;Node22</title>
<path fill="none" stroke="midnightblue" d="M1262.58,-175.83C1153.42,-172.83 891.54,-162.76 674.28,-132 672.34,-131.73 670.36,-131.41 668.36,-131.07"/>
<polygon fill="midnightblue" stroke="midnightblue" points="668.86,-127.61 658.39,-129.19 667.57,-134.48 668.86,-127.61"/>
</g>
<!-- Node23 -->
<g id="node23" class="node">
<title>Node23</title>
<g id="a_node23"><a xlink:href="../../d0/d3f/util_8hpp.html" target="_top" xlink:title=" ">
<polygon fill="none" stroke="black" points="1495.78,-112.5 1495.78,-131.5 1548.78,-131.5 1548.78,-112.5 1495.78,-112.5"/>
<text text-anchor="middle" x="1522.28" y="-119.5" font-family="Helvetica,sans-Serif" font-size="10.00">util.hpp</text>
</a>
</g>
</g>
<!-- Node1&#45;&gt;Node23 -->
<g id="edge47" class="edge">
<title>Node1&#45;&gt;Node23</title>
<path fill="none" stroke="midnightblue" d="M1347.24,-168.44C1384.99,-158.64 1446.66,-142.63 1485.82,-132.47"/>
<polygon fill="midnightblue" stroke="midnightblue" points="1486.94,-135.79 1495.74,-129.89 1485.18,-129.01 1486.94,-135.79"/>
</g>
<!-- Node26 -->
<g id="node26" class="node">
<title>Node26</title>
<g id="a_node26"><a xlink:title=" ">
<polygon fill="none" stroke="#bfbfbf" points="1654.28,-56.5 1654.28,-75.5 1722.28,-75.5 1722.28,-56.5 1654.28,-56.5"/>
<text text-anchor="middle" x="1688.28" y="-63.5" font-family="Helvetica,sans-Serif" font-size="10.00">sys/time.h</text>
</a>
</g>
</g>
<!-- Node1&#45;&gt;Node26 -->
<g id="edge68" class="edge">
<title>Node1&#45;&gt;Node26</title>
<path fill="none" stroke="midnightblue" d="M1366.05,-171.63C1415.97,-165.48 1493.17,-153.38 1557.28,-132 1597,-118.75 1639.91,-95.6 1665.42,-80.8"/>
<polygon fill="midnightblue" stroke="midnightblue" points="1667.45,-83.66 1674.3,-75.57 1663.9,-77.63 1667.45,-83.66"/>
</g>
<!-- Node28 -->
<g id="node28" class="node">
<title>Node28</title>
<g id="a_node28"><a xlink:title=" ">
<polygon fill="none" stroke="#bfbfbf" points="1740.78,-56.5 1740.78,-75.5 1793.78,-75.5 1793.78,-56.5 1740.78,-56.5"/>
<text text-anchor="middle" x="1767.28" y="-63.5" font-family="Helvetica,sans-Serif" font-size="10.00">string.h</text>
</a>
</g>
</g>
<!-- Node1&#45;&gt;Node28 -->
<g id="edge70" class="edge">
<title>Node1&#45;&gt;Node28</title>
<path fill="none" stroke="midnightblue" d="M1365.88,-171.98C1422.94,-165.69 1517.24,-153.09 1596.28,-132 1648,-118.2 1705.75,-94.39 1739.16,-79.74"/>
<polygon fill="midnightblue" stroke="midnightblue" points="1740.99,-82.76 1748.72,-75.51 1738.15,-76.36 1740.99,-82.76"/>
</g>
<!-- Node29 -->
<g id="node29" class="node">
<title>Node29</title>
<g id="a_node29"><a xlink:title=" ">
<polygon fill="none" stroke="#bfbfbf" points="1812.28,-56.5 1812.28,-75.5 1916.28,-75.5 1916.28,-56.5 1812.28,-56.5"/>
<text text-anchor="middle" x="1864.28" y="-63.5" font-family="Helvetica,sans-Serif" font-size="10.00">leanux&#45;config.hpp</text>
</a>
</g>
</g>
<!-- Node1&#45;&gt;Node29 -->
<g id="edge60" class="edge">
<title>Node1&#45;&gt;Node29</title>
<path fill="none" stroke="midnightblue" d="M1365.94,-172.26C1430.74,-165.77 1545.02,-152.54 1641.28,-132 1709.15,-117.52 1786.54,-93.13 1829.99,-78.7"/>
<polygon fill="midnightblue" stroke="midnightblue" points="1831.13,-82.01 1839.5,-75.52 1828.91,-75.37 1831.13,-82.01"/>
</g>
<!-- Node30 -->
<g id="node30" class="node">
<title>Node30</title>
<g id="a_node30"><a xlink:href="../../db/da3/vmem_8hpp.html" target="_top" xlink:title=" ">
<polygon fill="none" stroke="black" points="1025.78,-56.5 1025.78,-75.5 1094.78,-75.5 1094.78,-56.5 1025.78,-56.5"/>
<text text-anchor="middle" x="1060.28" y="-63.5" font-family="Helvetica,sans-Serif" font-size="10.00">vmem.hpp</text>
</a>
</g>
</g>
<!-- Node1&#45;&gt;Node30 -->
<g id="edge57" class="edge">
<title>Node1&#45;&gt;Node30</title>
<path fill="none" stroke="midnightblue" d="M1262.78,-169.84C1226.75,-163.4 1178.29,-151.82 1139.28,-132 1114.43,-119.37 1090.36,-97.8 1075.45,-82.99"/>
<polygon fill="midnightblue" stroke="midnightblue" points="1077.66,-80.25 1068.16,-75.57 1072.66,-85.16 1077.66,-80.25"/>
</g>
<!-- Node31 -->
<g id="node31" class="node">
<title>Node31</title>
<g id="a_node31"><a xlink:title=" ">
<polygon fill="none" stroke="#bfbfbf" points="1920.78,-112.5 1920.78,-131.5 1991.78,-131.5 1991.78,-112.5 1920.78,-112.5"/>
<text text-anchor="middle" x="1956.28" y="-119.5" font-family="Helvetica,sans-Serif" font-size="10.00">tabular.hpp</text>
</a>
</g>
</g>
<!-- Node1&#45;&gt;Node31 -->
<g id="edge61" class="edge">
<title>Node1&#45;&gt;Node31</title>
<path fill="none" stroke="midnightblue" d="M1365.93,-174.85C1469,-170.17 1707.41,-157.39 1906.28,-132 1907.73,-131.82 1909.2,-131.62 1910.68,-131.41"/>
<polygon fill="midnightblue" stroke="midnightblue" points="1911.21,-134.87 1920.57,-129.89 1910.15,-127.95 1911.21,-134.87"/>
</g>
<!-- Node32 -->
<g id="node32" class="node">
<title>Node32</title>
<g id="a_node32"><a xlink:href="../../d5/d08/device_8hpp.html" target="_top" xlink:title=" ">
<polygon fill="none" stroke="black" points="1148.28,-112.5 1148.28,-131.5 1218.28,-131.5 1218.28,-112.5 1148.28,-112.5"/>
<text text-anchor="middle" x="1183.28" y="-119.5" font-family="Helvetica,sans-Serif" font-size="10.00">device.hpp</text>
</a>
</g>
</g>
<!-- Node1&#45;&gt;Node32 -->
<g id="edge62" class="edge">
<title>Node1&#45;&gt;Node32</title>
<path fill="none" stroke="midnightblue" d="M1293.52,-168.44C1271.96,-159.56 1238.01,-145.56 1213.48,-135.45"/>
<polygon fill="midnightblue" stroke="midnightblue" points="1214.52,-132.09 1203.94,-131.52 1211.85,-138.56 1214.52,-132.09"/>
</g>
<!-- Node33 -->
<g id="node33" class="node">
<title>Node33</title>
<g id="a_node33"><a xlink:title=" ">
<polygon fill="none" stroke="#bfbfbf" points="2048.78,-112.5 2048.78,-131.5 2103.78,-131.5 2103.78,-112.5 2048.78,-112.5"/>
<text text-anchor="middle" x="2076.28" y="-119.5" font-family="Helvetica,sans-Serif" font-size="10.00">signal.h</text>
</a>
</g>
</g>
<!-- Node1&#45;&gt;Node33 -->
<g id="edge67" class="edge">
<title>Node1&#45;&gt;Node33</title>
<path fill="none" stroke="midnightblue" d="M1366.05,-176.4C1484.76,-174.45 1785.51,-166.23 2034.28,-132 2035.57,-131.82 2036.87,-131.63 2038.19,-131.42"/>
<polygon fill="midnightblue" stroke="midnightblue" points="2039.14,-134.8 2048.37,-129.59 2037.9,-127.91 2039.14,-134.8"/>
</g>
<!-- Node34 -->
<g id="node34" class="node">
<title>Node34</title>
<g id="a_node34"><a xlink:title=" ">
<polygon fill="none" stroke="#bfbfbf" points="2122.28,-112.5 2122.28,-131.5 2186.28,-131.5 2186.28,-112.5 2122.28,-112.5"/>
<text text-anchor="middle" x="2154.28" y="-119.5" font-family="Helvetica,sans-Serif" font-size="10.00">algorithm</text>
</a>
</g>
</g>
<!-- Node1&#45;&gt;Node34 -->
<g id="edge69" class="edge">
<title>Node1&#45;&gt;Node34</title>
<path fill="none" stroke="midnightblue" d="M1365.96,-176.94C1492,-176.19 1825.23,-170.52 2111.96,-131.95"/>
<polygon fill="midnightblue" stroke="midnightblue" points="2112.7,-135.38 2122.14,-130.56 2111.75,-128.45 2112.7,-135.38"/>
</g>
<!-- Node35 -->
<g id="node35" class="node">
<title>Node35</title>
<g id="a_node35"><a xlink:title=" ">
<polygon fill="none" stroke="#bfbfbf" points="2204.28,-112.5 2204.28,-131.5 2268.28,-131.5 2268.28,-112.5 2204.28,-112.5"/>
<text text-anchor="middle" x="2236.28" y="-119.5" font-family="Helvetica,sans-Serif" font-size="10.00">sys/stat.h</text>
</a>
</g>
</g>
<!-- Node1&#45;&gt;Node35 -->
<g id="edge75" class="edge">
<title>Node1&#45;&gt;Node35</title>
<path fill="none" stroke="midnightblue" d="M1366.19,-177.33C1501.2,-177.55 1874.46,-174.09 2193.76,-131.97"/>
<polygon fill="midnightblue" stroke="midnightblue" points="2194.69,-135.37 2204.14,-130.58 2193.76,-128.43 2194.69,-135.37"/>
</g>
<!-- Node36 -->
<g id="node36" class="node">
<title>Node36</title>
<g id="a_node36"><a xlink:title=" ">
<polygon fill="none" stroke="#bfbfbf" points="2286.78,-112.5 2286.78,-131.5 2339.78,-131.5 2339.78,-112.5 2286.78,-112.5"/>
<text text-anchor="middle" x="2313.28" y="-119.5" font-family="Helvetica,sans-Serif" font-size="10.00">limits.h</text>
</a>
</g>
</g>
<!-- Node1&#45;&gt;Node36 -->
<g id="edge76" class="edge">
<title>Node1&#45;&gt;Node36</title>
<path fill="none" stroke="midnightblue" d="M1365.86,-175.94C1536.11,-172.23 2079.93,-158.67 2276.71,-131.7"/>
<polygon fill="midnightblue" stroke="midnightblue" points="2277.25,-135.16 2286.66,-130.28 2276.26,-128.23 2277.25,-135.16"/>
</g>
<!-- Node6 -->
<g id="node6" class="node">
<title>Node6</title>
<g id="a_node6"><a xlink:title=" ">
<polygon fill="none" stroke="#bfbfbf" points="780.28,-0.5 780.28,-19.5 824.28,-19.5 824.28,-0.5 780.28,-0.5"/>
<text text-anchor="middle" x="802.28" y="-7.5" font-family="Helvetica,sans-Serif" font-size="10.00">string</text>
</a>
</g>
</g>
<!-- Node5&#45;&gt;Node6 -->
<g id="edge5" class="edge">
<title>Node5&#45;&gt;Node6</title>
<path fill="none" stroke="midnightblue" d="M68.93,-62.81C92.84,-60.93 128.33,-58.19 159.28,-56 404.08,-38.67 465.68,-39.95 710.28,-20 730.01,-18.39 752.1,-16.24 769.68,-14.45"/>
<polygon fill="midnightblue" stroke="midnightblue" points="770.4,-17.89 779.99,-13.38 769.68,-10.93 770.4,-17.89"/>
</g>
<!-- Node7 -->
<g id="node7" class="node">
<title>Node7</title>
<g id="a_node7"><a xlink:title=" ">
<polygon fill="none" stroke="#bfbfbf" points="534.78,-0.5 534.78,-19.5 591.78,-19.5 591.78,-0.5 534.78,-0.5"/>
<text text-anchor="middle" x="563.28" y="-7.5" font-family="Helvetica,sans-Serif" font-size="10.00">ostream</text>
</a>
</g>
</g>
<!-- Node5&#45;&gt;Node7 -->
<g id="edge6" class="edge">
<title>Node5&#45;&gt;Node7</title>
<path fill="none" stroke="midnightblue" d="M69.21,-58.54C73.89,-57.59 78.71,-56.7 83.28,-56 246.35,-30.97 442.87,-17.81 524.65,-13.08"/>
<polygon fill="midnightblue" stroke="midnightblue" points="524.95,-16.56 534.73,-12.5 524.55,-9.58 524.95,-16.56"/>
</g>
<!-- Node8 -->
<g id="node8" class="node">
<title>Node8</title>
<g id="a_node8"><a xlink:title=" ">
<polygon fill="none" stroke="#bfbfbf" points="250.28,-0.5 250.28,-19.5 288.28,-19.5 288.28,-0.5 250.28,-0.5"/>
<text text-anchor="middle" x="269.28" y="-7.5" font-family="Helvetica,sans-Serif" font-size="10.00">map</text>
</a>
</g>
</g>
<!-- Node5&#45;&gt;Node8 -->
<g id="edge7" class="edge">
<title>Node5&#45;&gt;Node8</title>
<path fill="none" stroke="midnightblue" d="M68.78,-58.49C112.09,-48.23 195.81,-28.4 240.12,-17.9"/>
<polygon fill="midnightblue" stroke="midnightblue" points="241.06,-21.28 249.98,-15.57 239.44,-14.47 241.06,-21.28"/>
</g>
<!-- Node9&#45;&gt;Node6 -->
<g id="edge9" class="edge">
<title>Node9&#45;&gt;Node6</title>
<path fill="none" stroke="midnightblue" d="M219.66,-112.07C204.88,-98.59 181.57,-72.85 197.28,-56 236.24,-14.21 653.34,-24.78 710.28,-20 730.01,-18.34 752.09,-16.19 769.68,-14.41"/>
<polygon fill="midnightblue" stroke="midnightblue" points="770.39,-17.85 779.98,-13.35 769.68,-10.89 770.39,-17.85"/>
</g>
<!-- Node9&#45;&gt;Node7 -->
<g id="edge10" class="edge">
<title>Node9&#45;&gt;Node7</title>
<path fill="none" stroke="midnightblue" d="M208.06,-112.35C180.58,-100.42 139.66,-77.92 159.28,-56 183.4,-29.04 428.1,-16.4 524.52,-12.43"/>
<polygon fill="midnightblue" stroke="midnightblue" points="524.87,-15.92 534.72,-12.02 524.59,-8.93 524.87,-15.92"/>
</g>
<!-- Node9&#45;&gt;Node8 -->
<g id="edge11" class="edge">
<title>Node9&#45;&gt;Node8</title>
<path fill="none" stroke="midnightblue" d="M192.71,-119.11C134.74,-115.31 27.69,-104.53 4.28,-76 -1.36,-69.13 -1.46,-62.79 4.28,-56 34.17,-20.6 177.14,-13.04 239.77,-11.43"/>
<polygon fill="midnightblue" stroke="midnightblue" points="240.22,-14.92 250.14,-11.2 240.07,-7.93 240.22,-14.92"/>
</g>
<!-- Node10 -->
<g id="node10" class="node">
<title>Node10</title>
<g id="a_node10"><a xlink:title=" ">
<polygon fill="none" stroke="#bfbfbf" points="1044.28,-0.5 1044.28,-19.5 1076.28,-19.5 1076.28,-0.5 1044.28,-0.5"/>
<text text-anchor="middle" x="1060.28" y="-7.5" font-family="Helvetica,sans-Serif" font-size="10.00">list</text>
</a>
</g>
</g>
<!-- Node9&#45;&gt;Node10 -->
<g id="edge12" class="edge">
<title>Node9&#45;&gt;Node10</title>
<path fill="none" stroke="midnightblue" d="M227.82,-112.38C224.41,-98.36 220.23,-70.72 235.28,-56 242.59,-48.84 893.08,-18.66 1033.68,-12.21"/>
<polygon fill="midnightblue" stroke="midnightblue" points="1034.13,-15.7 1043.96,-11.74 1033.81,-8.7 1034.13,-15.7"/>
</g>
<!-- Node11 -->
<g id="node11" class="node">
<title>Node11</title>
<g id="a_node11"><a xlink:title=" ">
<polygon fill="none" stroke="#bfbfbf" points="1189.78,-0.5 1189.78,-19.5 1236.78,-19.5 1236.78,-0.5 1189.78,-0.5"/>
<text text-anchor="middle" x="1213.28" y="-7.5" font-family="Helvetica,sans-Serif" font-size="10.00">vector</text>
</a>
</g>
</g>
<!-- Node9&#45;&gt;Node11 -->
<g id="edge13" class="edge">
<title>Node9&#45;&gt;Node11</title>
<path fill="none" stroke="midnightblue" d="M232.44,-112.37C236.61,-97.8 247.24,-68.7 268.28,-56 346.08,-9.06 994.56,-25.19 1085.28,-20 1117.34,-18.17 1153.87,-15.54 1179.68,-13.6"/>
<polygon fill="midnightblue" stroke="midnightblue" points="1179.99,-17.09 1189.7,-12.84 1179.46,-10.11 1179.99,-17.09"/>
</g>
<!-- Node9&#45;&gt;Node12 -->
<g id="edge14" class="edge">
<title>Node9&#45;&gt;Node12</title>
<path fill="none" stroke="midnightblue" d="M242.33,-112.32C253.74,-104.11 271.11,-91.6 284.71,-81.81"/>
<polygon fill="midnightblue" stroke="midnightblue" points="286.94,-84.52 293.01,-75.83 282.85,-78.84 286.94,-84.52"/>
</g>
<!-- Node9&#45;&gt;Node13 -->
<g id="edge15" class="edge">
<title>Node9&#45;&gt;Node13</title>
<path fill="none" stroke="midnightblue" d="M255.15,-112.44C281.57,-103.36 323.49,-88.94 353.02,-78.78"/>
<polygon fill="midnightblue" stroke="midnightblue" points="354.2,-82.08 362.52,-75.52 351.92,-75.46 354.2,-82.08"/>
</g>
<!-- Node14&#45;&gt;Node6 -->
<g id="edge17" class="edge">
<title>Node14&#45;&gt;Node6</title>
<path fill="none" stroke="midnightblue" d="M451.9,-112.29C451.8,-98.15 453.87,-70.32 470.28,-56 481.53,-46.17 688.7,-23.12 769.96,-14.41"/>
<polygon fill="midnightblue" stroke="midnightblue" points="770.54,-17.87 780.11,-13.33 769.8,-10.91 770.54,-17.87"/>
</g>
<!-- Node14&#45;&gt;Node12 -->
<g id="edge18" class="edge">
<title>Node14&#45;&gt;Node12</title>
<path fill="none" stroke="midnightblue" d="M428.98,-112.44C404.47,-103.44 365.68,-89.19 338.08,-79.05"/>
<polygon fill="midnightblue" stroke="midnightblue" points="339.05,-75.68 328.46,-75.52 336.64,-82.25 339.05,-75.68"/>
</g>
<!-- Node14&#45;&gt;Node13 -->
<g id="edge19" class="edge">
<title>Node14&#45;&gt;Node13</title>
<path fill="none" stroke="midnightblue" d="M441.83,-112.32C432.13,-104.26 417.46,-92.08 405.78,-82.37"/>
<polygon fill="midnightblue" stroke="midnightblue" points="407.84,-79.53 397.91,-75.83 403.37,-84.92 407.84,-79.53"/>
</g>
<!-- Node14&#45;&gt;Node15 -->
<g id="edge20" class="edge">
<title>Node14&#45;&gt;Node15</title>
<path fill="none" stroke="midnightblue" d="M485.24,-112.44C521.7,-102.98 580.47,-87.72 619.73,-77.53"/>
<polygon fill="midnightblue" stroke="midnightblue" points="620.71,-80.89 629.51,-74.99 618.95,-74.11 620.71,-80.89"/>
</g>
<!-- Node15&#45;&gt;Node6 -->
<g id="edge21" class="edge">
<title>Node15&#45;&gt;Node6</title>
<path fill="none" stroke="midnightblue" d="M682.78,-56.44C706.35,-47.48 743.6,-33.31 770.24,-23.18"/>
<polygon fill="midnightblue" stroke="midnightblue" points="771.78,-26.34 779.88,-19.52 769.29,-19.8 771.78,-26.34"/>
</g>
<!-- Node16&#45;&gt;Node6 -->
<g id="edge24" class="edge">
<title>Node16&#45;&gt;Node6</title>
<path fill="none" stroke="midnightblue" d="M860.33,-112.37C849.98,-94.3 825.86,-52.18 812.19,-28.31"/>
<polygon fill="midnightblue" stroke="midnightblue" points="815.2,-26.53 807.2,-19.59 809.13,-30.01 815.2,-26.53"/>
</g>
<!-- Node16&#45;&gt;Node7 -->
<g id="edge25" class="edge">
<title>Node16&#45;&gt;Node7</title>
<path fill="none" stroke="midnightblue" d="M850.27,-112.38C826.23,-98.85 777.3,-72.48 733.28,-56 689.17,-39.49 636.48,-26.54 601.58,-18.85"/>
<polygon fill="midnightblue" stroke="midnightblue" points="602.3,-15.42 591.79,-16.73 600.82,-22.27 602.3,-15.42"/>
</g>
<!-- Node16&#45;&gt;Node8 -->
<g id="edge27" class="edge">
<title>Node16&#45;&gt;Node8</title>
<path fill="none" stroke="midnightblue" d="M838.62,-113.65C811.51,-105.78 768.6,-92.2 733.28,-76 717.34,-68.69 715.93,-61.48 699.28,-56 624.49,-31.38 383.47,-16.89 298.92,-12.46"/>
<polygon fill="midnightblue" stroke="midnightblue" points="298.9,-8.96 288.74,-11.94 298.54,-15.95 298.9,-8.96"/>
</g>
<!-- Node16&#45;&gt;Node10 -->
<g id="edge26" class="edge">
<title>Node16&#45;&gt;Node10</title>
<path fill="none" stroke="midnightblue" d="M880.58,-112.37C914.4,-93.29 995.71,-47.42 1036.34,-24.51"/>
<polygon fill="midnightblue" stroke="midnightblue" points="1038.06,-27.55 1045.05,-19.59 1034.62,-21.46 1038.06,-27.55"/>
</g>
<!-- Node16&#45;&gt;Node11 -->
<g id="edge28" class="edge">
<title>Node16&#45;&gt;Node11</title>
<path fill="none" stroke="midnightblue" d="M892.06,-119.65C971.6,-115.37 1202.3,-100.9 1224.28,-76 1235.6,-63.17 1229.95,-43.16 1223.28,-28.73"/>
<polygon fill="midnightblue" stroke="midnightblue" points="1226.38,-27.09 1218.7,-19.79 1220.15,-30.28 1226.38,-27.09"/>
</g>
<!-- Node16&#45;&gt;Node15 -->
<g id="edge23" class="edge">
<title>Node16&#45;&gt;Node15</title>
<path fill="none" stroke="midnightblue" d="M838.48,-113.94C803.46,-104.72 741.81,-88.48 701,-77.73"/>
<polygon fill="midnightblue" stroke="midnightblue" points="701.66,-74.28 691.1,-75.12 699.88,-81.05 701.66,-74.28"/>
</g>
<!-- Node17 -->
<g id="node17" class="node">
<title>Node17</title>
<g id="a_node17"><a xlink:title=" ">
<polygon fill="none" stroke="#bfbfbf" points="861.78,-56.5 861.78,-75.5 930.78,-75.5 930.78,-56.5 861.78,-56.5"/>
<text text-anchor="middle" x="896.28" y="-63.5" font-family="Helvetica,sans-Serif" font-size="10.00">arpa/inet.h</text>
</a>
</g>
</g>
<!-- Node16&#45;&gt;Node17 -->
<g id="edge29" class="edge">
<title>Node16&#45;&gt;Node17</title>
<path fill="none" stroke="midnightblue" d="M870.4,-112.08C874.68,-104.61 880.94,-93.72 886.22,-84.52"/>
<polygon fill="midnightblue" stroke="midnightblue" points="889.31,-86.17 891.25,-75.75 883.24,-82.68 889.31,-86.17"/>
</g>
<!-- Node18&#45;&gt;Node2 -->
<g id="edge37" class="edge">
<title>Node18&#45;&gt;Node2</title>
<path fill="none" stroke="midnightblue" d="M1150.98,-61.3C1136.41,-59.65 1118.98,-57.7 1103.28,-56 959.18,-40.39 787.94,-22.85 711.54,-15.08"/>
<polygon fill="midnightblue" stroke="midnightblue" points="711.7,-11.58 701.4,-14.05 711,-18.55 711.7,-11.58"/>
</g>
<!-- Node18&#45;&gt;Node6 -->
<g id="edge32" class="edge">
<title>Node18&#45;&gt;Node6</title>
<path fill="none" stroke="midnightblue" d="M1151.12,-60.44C1079.45,-50.28 907.25,-25.88 835.03,-15.64"/>
<polygon fill="midnightblue" stroke="midnightblue" points="835.11,-12.12 824.72,-14.18 834.13,-19.05 835.11,-12.12"/>
</g>
<!-- Node18&#45;&gt;Node7 -->
<g id="edge33" class="edge">
<title>Node18&#45;&gt;Node7</title>
<path fill="none" stroke="midnightblue" d="M1151,-61.1C1136.43,-59.41 1119,-57.48 1103.28,-56 894.26,-36.26 841.11,-41.58 632.28,-20 622.47,-18.99 611.9,-17.7 602.05,-16.43"/>
<polygon fill="midnightblue" stroke="midnightblue" points="602.48,-12.95 592.11,-15.11 601.56,-19.89 602.48,-12.95"/>
</g>
<!-- Node18&#45;&gt;Node8 -->
<g id="edge35" class="edge">
<title>Node18&#45;&gt;Node8</title>
<path fill="none" stroke="midnightblue" d="M1151.01,-60.94C1136.45,-59.22 1119.02,-57.31 1103.28,-56 788.59,-29.83 405.78,-15.62 298.46,-11.96"/>
<polygon fill="midnightblue" stroke="midnightblue" points="298.51,-8.46 288.4,-11.62 298.27,-15.46 298.51,-8.46"/>
</g>
<!-- Node18&#45;&gt;Node10 -->
<g id="edge34" class="edge">
<title>Node18&#45;&gt;Node10</title>
<path fill="none" stroke="midnightblue" d="M1163.79,-56.44C1142.69,-47.18 1108.95,-32.37 1085.76,-22.19"/>
<polygon fill="midnightblue" stroke="midnightblue" points="1087.1,-18.95 1076.53,-18.14 1084.28,-25.36 1087.1,-18.95"/>
</g>
<!-- Node18&#45;&gt;Node11 -->
<g id="edge36" class="edge">
<title>Node18&#45;&gt;Node11</title>
<path fill="none" stroke="midnightblue" d="M1188.23,-56.08C1192.38,-48.61 1198.43,-37.72 1203.54,-28.52"/>
<polygon fill="midnightblue" stroke="midnightblue" points="1206.62,-30.19 1208.42,-19.75 1200.5,-26.79 1206.62,-30.19"/>
</g>
<!-- Node18&#45;&gt;Node19 -->
<g id="edge38" class="edge">
<title>Node18&#45;&gt;Node19</title>
<path fill="none" stroke="midnightblue" d="M1215.6,-60.58C1288.37,-50.63 1464.66,-26.53 1541.47,-16.03"/>
<polygon fill="midnightblue" stroke="midnightblue" points="1542.2,-19.46 1551.63,-14.64 1541.25,-12.53 1542.2,-19.46"/>
</g>
<!-- Node18&#45;&gt;Node20 -->
<g id="edge39" class="edge">
<title>Node18&#45;&gt;Node20</title>
<path fill="none" stroke="midnightblue" d="M1215.49,-62.25C1317.63,-53.52 1635.05,-26.4 1762.01,-15.55"/>
<polygon fill="midnightblue" stroke="midnightblue" points="1762.59,-19.01 1772.25,-14.68 1761.99,-12.04 1762.59,-19.01"/>
</g>
<!-- Node18&#45;&gt;Node21 -->
<g id="edge40" class="edge">
<title>Node18&#45;&gt;Node21</title>
<path fill="none" stroke="midnightblue" d="M1215.55,-62.4C1239.04,-60.54 1271.62,-58.01 1300.28,-56 1552.16,-38.32 1615.45,-38.49 1867.28,-20 1891.52,-18.22 1918.79,-15.95 1939.87,-14.13"/>
<polygon fill="midnightblue" stroke="midnightblue" points="1940.32,-17.6 1949.98,-13.25 1939.71,-10.63 1940.32,-17.6"/>
</g>
<!-- Node22&#45;&gt;Node3 -->
<g id="edge45" class="edge">
<title>Node22&#45;&gt;Node3</title>
<path fill="none" stroke="midnightblue" d="M612.47,-112.44C591.99,-103.6 559.79,-89.69 536.41,-79.59"/>
<polygon fill="midnightblue" stroke="midnightblue" points="537.56,-76.27 526.99,-75.52 534.78,-82.7 537.56,-76.27"/>
</g>
<!-- Node22&#45;&gt;Node6 -->
<g id="edge42" class="edge">
<title>Node22&#45;&gt;Node6</title>
<path fill="none" stroke="midnightblue" d="M626.87,-112.41C619.16,-98.93 607.26,-72.63 620.28,-56 638.56,-32.65 723.02,-19.74 770.19,-14.24"/>
<polygon fill="midnightblue" stroke="midnightblue" points="770.66,-17.71 780.21,-13.12 769.88,-10.75 770.66,-17.71"/>
</g>
<!-- Node22&#45;&gt;Node7 -->
<g id="edge44" class="edge">
<title>Node22&#45;&gt;Node7</title>
<path fill="none" stroke="midnightblue" d="M621.3,-112.41C611.25,-104.05 596.57,-90.51 587.28,-76 578.05,-61.6 571.67,-43.14 567.82,-29.58"/>
<polygon fill="midnightblue" stroke="midnightblue" points="571.11,-28.31 565.17,-19.53 564.34,-30.09 571.11,-28.31"/>
</g>
<!-- Node22&#45;&gt;Node10 -->
<g id="edge43" class="edge">
<title>Node22&#45;&gt;Node10</title>
<path fill="none" stroke="midnightblue" d="M658.52,-112.56C699.58,-99.51 781.66,-74.04 852.28,-56 917.37,-39.37 994.93,-23.66 1034.41,-15.96"/>
<polygon fill="midnightblue" stroke="midnightblue" points="1035.11,-19.38 1044.26,-14.04 1033.78,-12.51 1035.11,-19.38"/>
</g>
<!-- Node22&#45;&gt;Node15 -->
<g id="edge46" class="edge">
<title>Node22&#45;&gt;Node15</title>
<path fill="none" stroke="midnightblue" d="M636.9,-112.08C640.73,-104.69 646.3,-93.95 651.04,-84.81"/>
<polygon fill="midnightblue" stroke="midnightblue" points="654.24,-86.24 655.74,-75.75 648.03,-83.02 654.24,-86.24"/>
</g>
<!-- Node23&#45;&gt;Node4 -->
<g id="edge49" class="edge">
<title>Node23&#45;&gt;Node4</title>
<path fill="none" stroke="midnightblue" d="M1495.77,-113.26C1464.17,-104.04 1411.14,-88.56 1375.2,-78.07"/>
<polygon fill="midnightblue" stroke="midnightblue" points="1376.13,-74.7 1365.55,-75.25 1374.17,-81.42 1376.13,-74.7"/>
</g>
<!-- Node23&#45;&gt;Node6 -->
<g id="edge48" class="edge">
<title>Node23&#45;&gt;Node6</title>
<path fill="none" stroke="midnightblue" d="M1496.61,-112.39C1472.94,-104.11 1437.07,-90.72 1407.28,-76 1391.9,-68.4 1390.6,-61.26 1374.28,-56 1322.84,-39.43 947.61,-18.62 834.48,-12.66"/>
<polygon fill="midnightblue" stroke="midnightblue" points="834.54,-9.16 824.37,-12.13 834.17,-16.15 834.54,-9.16"/>
</g>
<!-- Node23&#45;&gt;Node10 -->
<g id="edge52" class="edge">
<title>Node23&#45;&gt;Node10</title>
<path fill="none" stroke="midnightblue" d="M1508.63,-112.4C1482.97,-96.39 1428.27,-63 1407.28,-56 1347.51,-36.08 1156.82,-18.9 1086.58,-13.1"/>
<polygon fill="midnightblue" stroke="midnightblue" points="1086.63,-9.59 1076.38,-12.26 1086.06,-16.57 1086.63,-9.59"/>
</g>
<!-- Node24 -->
<g id="node24" class="node">
<title>Node24</title>
<g id="a_node24"><a xlink:title=" ">
<polygon fill="none" stroke="#bfbfbf" points="1530.78,-56.5 1530.78,-75.5 1585.78,-75.5 1585.78,-56.5 1530.78,-56.5"/>
<text text-anchor="middle" x="1558.28" y="-63.5" font-family="Helvetica,sans-Serif" font-size="10.00">fstream</text>
</a>
</g>
</g>
<!-- Node23&#45;&gt;Node24 -->
<g id="edge50" class="edge">
<title>Node23&#45;&gt;Node24</title>
<path fill="none" stroke="midnightblue" d="M1528.22,-112.08C1533.25,-104.53 1540.61,-93.49 1546.79,-84.23"/>
<polygon fill="midnightblue" stroke="midnightblue" points="1549.81,-86.01 1552.44,-75.75 1543.98,-82.13 1549.81,-86.01"/>
</g>
<!-- Node25 -->
<g id="node25" class="node">
<title>Node25</title>
<g id="a_node25"><a xlink:title=" ">
<polygon fill="none" stroke="#bfbfbf" points="1604.28,-56.5 1604.28,-75.5 1636.28,-75.5 1636.28,-56.5 1604.28,-56.5"/>
<text text-anchor="middle" x="1620.28" y="-63.5" font-family="Helvetica,sans-Serif" font-size="10.00">set</text>
</a>
</g>
</g>
<!-- Node23&#45;&gt;Node25 -->
<g id="edge51" class="edge">
<title>Node23&#45;&gt;Node25</title>
<path fill="none" stroke="midnightblue" d="M1538.02,-112.32C1553.6,-103.74 1577.65,-90.49 1595.74,-80.52"/>
<polygon fill="midnightblue" stroke="midnightblue" points="1597.5,-83.55 1604.57,-75.65 1594.12,-77.42 1597.5,-83.55"/>
</g>
<!-- Node23&#45;&gt;Node26 -->
<g id="edge53" class="edge">
<title>Node23&#45;&gt;Node26</title>
<path fill="none" stroke="midnightblue" d="M1548.58,-112.44C1576.63,-103.32 1621.22,-88.81 1652.46,-78.65"/>
<polygon fill="midnightblue" stroke="midnightblue" points="1653.67,-81.94 1662.1,-75.52 1651.5,-75.28 1653.67,-81.94"/>
</g>
<!-- Node27 -->
<g id="node27" class="node">
<title>Node27</title>
<g id="a_node27"><a xlink:title=" ">
<polygon fill="none" stroke="#bfbfbf" points="1459.78,-56.5 1459.78,-75.5 1512.78,-75.5 1512.78,-56.5 1459.78,-56.5"/>
<text text-anchor="middle" x="1486.28" y="-63.5" font-family="Helvetica,sans-Serif" font-size="10.00">regex.h</text>
</a>
</g>
</g>
<!-- Node23&#45;&gt;Node27 -->
<g id="edge54" class="edge">
<title>Node23&#45;&gt;Node27</title>
<path fill="none" stroke="midnightblue" d="M1516.33,-112.08C1511.3,-104.53 1503.94,-93.49 1497.76,-84.23"/>
<polygon fill="midnightblue" stroke="midnightblue" points="1500.57,-82.13 1492.11,-75.75 1494.75,-86.01 1500.57,-82.13"/>
</g>
<!-- Node23&#45;&gt;Node28 -->
<g id="edge55" class="edge">
<title>Node23&#45;&gt;Node28</title>
<path fill="none" stroke="midnightblue" d="M1549.06,-115.53C1587.1,-107.69 1659.17,-92.61 1730.51,-76.12"/>
<polygon fill="midnightblue" stroke="midnightblue" points="1731.62,-79.45 1740.56,-73.78 1730.03,-72.64 1731.62,-79.45"/>
</g>
<!-- Node23&#45;&gt;Node29 -->
<g id="edge56" class="edge">
<title>Node23&#45;&gt;Node29</title>
<path fill="none" stroke="midnightblue" d="M1548.83,-116.81C1602.71,-108.3 1726.19,-88.8 1801.69,-76.88"/>
<polygon fill="midnightblue" stroke="midnightblue" points="1802.68,-80.27 1812.01,-75.25 1801.59,-73.36 1802.68,-80.27"/>
</g>
<!-- Node30&#45;&gt;Node6 -->
<g id="edge58" class="edge">
<title>Node30&#45;&gt;Node6</title>
<path fill="none" stroke="midnightblue" d="M1025.75,-57.77C975.6,-47.28 883.3,-27.96 834.49,-17.74"/>
<polygon fill="midnightblue" stroke="midnightblue" points="834.98,-14.27 824.48,-15.65 833.55,-21.12 834.98,-14.27"/>
</g>
<!-- Node30&#45;&gt;Node10 -->
<g id="edge59" class="edge">
<title>Node30&#45;&gt;Node10</title>
<path fill="none" stroke="midnightblue" d="M1060.28,-56.08C1060.28,-49.01 1060.28,-38.86 1060.28,-29.99"/>
<polygon fill="midnightblue" stroke="midnightblue" points="1063.78,-29.75 1060.28,-19.75 1056.78,-29.75 1063.78,-29.75"/>
</g>
<!-- Node32&#45;&gt;Node6 -->
<g id="edge64" class="edge">
<title>Node32&#45;&gt;Node6</title>
<path fill="none" stroke="midnightblue" d="M1150.24,-112.43C1116.49,-103.59 1062.61,-89.27 1016.28,-76 951.28,-57.38 875.68,-34.01 833.99,-20.97"/>
<polygon fill="midnightblue" stroke="midnightblue" points="834.98,-17.62 824.39,-17.97 832.89,-24.3 834.98,-17.62"/>
</g>
<!-- Node32&#45;&gt;Node10 -->
<g id="edge63" class="edge">
<title>Node32&#45;&gt;Node10</title>
<path fill="none" stroke="midnightblue" d="M1173.63,-112.37C1152.88,-93.81 1103.79,-49.91 1077.54,-26.44"/>
<polygon fill="midnightblue" stroke="midnightblue" points="1079.67,-23.65 1069.88,-19.59 1075,-28.87 1079.67,-23.65"/>
</g>
<!-- Node32&#45;&gt;Node11 -->
<g id="edge65" class="edge">
<title>Node32&#45;&gt;Node11</title>
<path fill="none" stroke="midnightblue" d="M1210.21,-112.36C1227,-105.41 1247.25,-93.82 1257.28,-76 1267.4,-58 1250.11,-38.52 1234.32,-25.63"/>
<polygon fill="midnightblue" stroke="midnightblue" points="1236.42,-22.84 1226.35,-19.54 1232.17,-28.39 1236.42,-22.84"/>
</g>
<!-- Node32&#45;&gt;Node18 -->
<g id="edge66" class="edge">
<title>Node32&#45;&gt;Node18</title>
<path fill="none" stroke="midnightblue" d="M1183.28,-112.08C1183.28,-105.01 1183.28,-94.86 1183.28,-85.99"/>
<polygon fill="midnightblue" stroke="midnightblue" points="1186.78,-85.75 1183.28,-75.75 1179.78,-85.75 1186.78,-85.75"/>
</g>
</g>
</svg>
