<?xml version="1.0" encoding="UTF-8" standalone="no"?>
<!DOCTYPE svg PUBLIC "-//W3C//DTD SVG 1.1//EN"
 "http://www.w3.org/Graphics/SVG/1.1/DTD/svg11.dtd">
<!-- Generated by graphviz version 2.43.0 (0)
 -->
<!-- Title: leanux::tools::lsys::Options Pages: 1 -->
<svg width="151pt" height="196pt"
 viewBox="0.00 0.00 151.00 196.00" xmlns="http://www.w3.org/2000/svg" xmlns:xlink="http://www.w3.org/1999/xlink">
<g id="graph0" class="graph" transform="scale(1 1) rotate(0) translate(4 192)">
<title>leanux::tools::lsys::Options</title>
<!-- Node1 -->
<g id="node1" class="node">
<title>Node1</title>
<g id="a_node1"><a xlink:title="Invocation options.">
<polygon fill="#bfbfbf" stroke="black" points="34.5,-0.5 34.5,-30.5 139.5,-30.5 139.5,-0.5 34.5,-0.5"/>
<text text-anchor="start" x="42.5" y="-18.5" font-family="Helvetica,sans-Serif" font-size="10.00">leanux::tools::lsys</text>
<text text-anchor="middle" x="87" y="-7.5" font-family="Helvetica,sans-Serif" font-size="10.00">::Options</text>
</a>
</g>
</g>
<!-- Node2 -->
<g id="node2" class="node">
<title>Node2</title>
<g id="a_node2"><a xlink:title="STL class.">
<polygon fill="none" stroke="#bfbfbf" points="19.5,-100.5 19.5,-119.5 84.5,-119.5 84.5,-100.5 19.5,-100.5"/>
<text text-anchor="middle" x="52" y="-107.5" font-family="Helvetica,sans-Serif" font-size="10.00">std::string</text>
</a>
</g>
</g>
<!-- Node2&#45;&gt;Node1 -->
<g id="edge1" class="edge">
<title>Node2&#45;&gt;Node1</title>
<path fill="none" stroke="#9a32cd" stroke-dasharray="5,2" d="M55.13,-90.35C57.53,-78.26 61.39,-62.34 67,-49 69.67,-42.65 73.47,-36.09 77.05,-30.55"/>
<polygon fill="#9a32cd" stroke="#9a32cd" points="51.69,-89.72 53.33,-100.19 58.57,-90.98 51.69,-89.72"/>
<text text-anchor="middle" x="83.5" y="-74" font-family="Helvetica,sans-Serif" font-size="10.00"> opt_t</text>
<text text-anchor="middle" x="83.5" y="-63" font-family="Helvetica,sans-Serif" font-size="10.00">opt_f</text>
<text text-anchor="middle" x="83.5" y="-52" font-family="Helvetica,sans-Serif" font-size="10.00">device</text>
</g>
<!-- Node3 -->
<g id="node3" class="node">
<title>Node3</title>
<g id="a_node3"><a xlink:title="STL class.">
<polygon fill="none" stroke="#bfbfbf" points="0,-157.5 0,-187.5 104,-187.5 104,-157.5 0,-157.5"/>
<text text-anchor="start" x="8" y="-175.5" font-family="Helvetica,sans-Serif" font-size="10.00">std::basic_string&lt;</text>
<text text-anchor="middle" x="52" y="-164.5" font-family="Helvetica,sans-Serif" font-size="10.00"> char &gt;</text>
</a>
</g>
</g>
<!-- Node3&#45;&gt;Node2 -->
<g id="edge2" class="edge">
<title>Node3&#45;&gt;Node2</title>
<path fill="none" stroke="midnightblue" d="M52,-147.35C52,-137.51 52,-126.78 52,-119.54"/>
<polygon fill="midnightblue" stroke="midnightblue" points="48.5,-147.47 52,-157.47 55.5,-147.47 48.5,-147.47"/>
</g>
<!-- Node4 -->
<g id="node4" class="node">
<title>Node4</title>
<g id="a_node4"><a xlink:title=" ">
<polygon fill="none" stroke="#bfbfbf" points="103,-100.5 103,-119.5 141,-119.5 141,-100.5 103,-100.5"/>
<text text-anchor="middle" x="122" y="-107.5" font-family="Helvetica,sans-Serif" font-size="10.00">bool</text>
</a>
</g>
</g>
<!-- Node4&#45;&gt;Node1 -->
<g id="edge3" class="edge">
<title>Node4&#45;&gt;Node1</title>
<path fill="none" stroke="#9a32cd" stroke-dasharray="5,2" d="M115.47,-90.77C111.16,-78.85 105.35,-62.96 100,-49 97.69,-42.98 95.07,-36.38 92.78,-30.7"/>
<polygon fill="#9a32cd" stroke="#9a32cd" points="112.27,-92.2 118.94,-100.43 118.85,-89.83 112.27,-92.2"/>
<text text-anchor="middle" x="127.5" y="-74" font-family="Helvetica,sans-Serif" font-size="10.00"> opt_v</text>
<text text-anchor="middle" x="127.5" y="-63" font-family="Helvetica,sans-Serif" font-size="10.00">opt_h</text>
<text text-anchor="middle" x="127.5" y="-52" font-family="Helvetica,sans-Serif" font-size="10.00">opt_l</text>
</g>
</g>
</svg>
