<?xml version="1.0" encoding="UTF-8" standalone="no"?>
<!DOCTYPE svg PUBLIC "-//W3C//DTD SVG 1.1//EN"
 "http://www.w3.org/Graphics/SVG/1.1/DTD/svg11.dtd">
<!-- Generated by graphviz version 2.43.0 (0)
 -->
<!-- Title: leanux::sysdevice::BlockPartition::getDisplayName Pages: 1 -->
<svg width="558pt" height="118pt"
 viewBox="0.00 0.00 558.00 117.50" xmlns="http://www.w3.org/2000/svg" xmlns:xlink="http://www.w3.org/1999/xlink">
<g id="graph0" class="graph" transform="scale(1 1) rotate(0) translate(4 113.5)">
<title>leanux::sysdevice::BlockPartition::getDisplayName</title>
<!-- Node1 -->
<g id="node1" class="node">
<title>Node1</title>
<g id="a_node1"><a xlink:title=" ">
<polygon fill="#bfbfbf" stroke="black" points="0,-24.5 0,-54.5 172,-54.5 172,-24.5 0,-24.5"/>
<text text-anchor="start" x="8" y="-42.5" font-family="Helvetica,sans-Serif" font-size="10.00">leanux::sysdevice::</text>
<text text-anchor="middle" x="86" y="-31.5" font-family="Helvetica,sans-Serif" font-size="10.00">BlockPartition::getDisplayName</text>
</a>
</g>
</g>
<!-- Node2 -->
<g id="node2" class="node">
<title>Node2</title>
<g id="a_node2"><a xlink:href="../../d2/d31/classleanux_1_1sysdevice_1_1BlockDevice.html#aaed715a73aad1b5f05aaad7906c9ea57" target="_top" xlink:title=" ">
<polygon fill="none" stroke="black" points="208,-49.5 208,-79.5 363,-79.5 363,-49.5 208,-49.5"/>
<text text-anchor="start" x="216" y="-67.5" font-family="Helvetica,sans-Serif" font-size="10.00">leanux::sysdevice::</text>
<text text-anchor="middle" x="285.5" y="-56.5" font-family="Helvetica,sans-Serif" font-size="10.00">BlockDevice::getMajorMinor</text>
</a>
</g>
</g>
<!-- Node1&#45;&gt;Node2 -->
<g id="edge1" class="edge">
<title>Node1&#45;&gt;Node2</title>
<path fill="none" stroke="midnightblue" d="M172.19,-50.28C180.75,-51.37 189.44,-52.47 198.01,-53.55"/>
<polygon fill="midnightblue" stroke="midnightblue" points="197.63,-57.03 207.99,-54.82 198.51,-50.09 197.63,-57.03"/>
</g>
<!-- Node5 -->
<g id="node5" class="node">
<title>Node5</title>
<g id="a_node5"><a xlink:href="../../d7/d28/classleanux_1_1block_1_1MajorMinor.html#a08c4dd48259318cfd77067e866e05e84" target="_top" xlink:title="get the device name for this MajorMinor.">
<polygon fill="none" stroke="black" points="214,-0.5 214,-30.5 357,-30.5 357,-0.5 214,-0.5"/>
<text text-anchor="start" x="222" y="-18.5" font-family="Helvetica,sans-Serif" font-size="10.00">leanux::block::MajorMinor</text>
<text text-anchor="middle" x="285.5" y="-7.5" font-family="Helvetica,sans-Serif" font-size="10.00">::getName</text>
</a>
</g>
</g>
<!-- Node1&#45;&gt;Node5 -->
<g id="edge4" class="edge">
<title>Node1&#45;&gt;Node5</title>
<path fill="none" stroke="midnightblue" d="M172.19,-29.15C182.6,-27.88 193.22,-26.59 203.57,-25.33"/>
<polygon fill="midnightblue" stroke="midnightblue" points="204.31,-28.77 213.81,-24.09 203.46,-21.82 204.31,-28.77"/>
</g>
<!-- Node3 -->
<g id="node3" class="node">
<title>Node3</title>
<g id="a_node3"><a xlink:href="../../d8/db1/namespaceleanux_1_1util.html#a6421ca2c46c56eebe1a486c6a498ce7d" target="_top" xlink:title="Test if a file exists and can be read.">
<polygon fill="none" stroke="black" points="399,-90 399,-109 550,-109 550,-90 399,-90"/>
<text text-anchor="middle" x="474.5" y="-97" font-family="Helvetica,sans-Serif" font-size="10.00">leanux::util::fileReadAccess</text>
</a>
</g>
</g>
<!-- Node2&#45;&gt;Node3 -->
<g id="edge2" class="edge">
<title>Node2&#45;&gt;Node3</title>
<path fill="none" stroke="midnightblue" d="M363.1,-78.84C379.56,-81.92 396.75,-85.14 412.53,-88.09"/>
<polygon fill="midnightblue" stroke="midnightblue" points="412.2,-91.59 422.67,-89.99 413.49,-84.71 412.2,-91.59"/>
</g>
<!-- Node4 -->
<g id="node4" class="node">
<title>Node4</title>
<g id="a_node4"><a xlink:href="../../d8/db1/namespaceleanux_1_1util.html#a57bfd49353610b3d0b6d121b264c676e" target="_top" xlink:title="read the file as a single string.">
<polygon fill="none" stroke="black" points="401.5,-52 401.5,-71 547.5,-71 547.5,-52 401.5,-52"/>
<text text-anchor="middle" x="474.5" y="-59" font-family="Helvetica,sans-Serif" font-size="10.00">leanux::util::fileReadString</text>
</a>
</g>
</g>
<!-- Node2&#45;&gt;Node4 -->
<g id="edge3" class="edge">
<title>Node2&#45;&gt;Node4</title>
<path fill="none" stroke="midnightblue" d="M363.1,-63.27C372.36,-63.12 381.85,-62.97 391.18,-62.82"/>
<polygon fill="midnightblue" stroke="midnightblue" points="391.29,-66.32 401.24,-62.66 391.18,-59.32 391.29,-66.32"/>
</g>
<!-- Node6 -->
<g id="node6" class="node">
<title>Node6</title>
<g id="a_node6"><a xlink:href="../../d7/d28/classleanux_1_1block_1_1MajorMinor.html#adc3f437e329318ee21bddbbebaeb740e" target="_top" xlink:title="Get the DeviceName for the MajorMinor.">
<polygon fill="none" stroke="red" points="403,-0.5 403,-30.5 546,-30.5 546,-0.5 403,-0.5"/>
<text text-anchor="start" x="411" y="-18.5" font-family="Helvetica,sans-Serif" font-size="10.00">leanux::block::MajorMinor</text>
<text text-anchor="middle" x="474.5" y="-7.5" font-family="Helvetica,sans-Serif" font-size="10.00">::getNameByMajorMinor</text>
</a>
</g>
</g>
<!-- Node5&#45;&gt;Node6 -->
<g id="edge5" class="edge">
<title>Node5&#45;&gt;Node6</title>
<path fill="none" stroke="midnightblue" d="M357.2,-15.5C368.72,-15.5 380.73,-15.5 392.47,-15.5"/>
<polygon fill="midnightblue" stroke="midnightblue" points="392.7,-19 402.7,-15.5 392.7,-12 392.7,-19"/>
</g>
</g>
</svg>
