<?xml version="1.0" encoding="UTF-8" standalone="no"?>
<!DOCTYPE svg PUBLIC "-//W3C//DTD SVG 1.1//EN"
 "http://www.w3.org/Graphics/SVG/1.1/DTD/svg11.dtd">
<!-- Generated by graphviz version 2.43.0 (0)
 -->
<!-- Title: leanux::sysdevice::BlockPartition::accept Pages: 1 -->
<svg width="1025pt" height="406pt"
 viewBox="0.00 0.00 1025.00 406.14" xmlns="http://www.w3.org/2000/svg" xmlns:xlink="http://www.w3.org/1999/xlink">
<g id="graph0" class="graph" transform="scale(1 1) rotate(0) translate(4 402.14)">
<title>leanux::sysdevice::BlockPartition::accept</title>
<!-- Node1 -->
<g id="node1" class="node">
<title>Node1</title>
<g id="a_node1"><a xlink:title="Return true if the SysDevice recognizes itself in the trailing part of path.">
<polygon fill="#bfbfbf" stroke="black" points="0,-200 0,-230 122,-230 122,-200 0,-200"/>
<text text-anchor="start" x="8" y="-218" font-family="Helvetica,sans-Serif" font-size="10.00">leanux::sysdevice::</text>
<text text-anchor="middle" x="61" y="-207" font-family="Helvetica,sans-Serif" font-size="10.00">BlockPartition::accept</text>
</a>
</g>
</g>
<!-- Node2 -->
<g id="node2" class="node">
<title>Node2</title>
<g id="a_node2"><a xlink:href="../../d7/d28/classleanux_1_1block_1_1MajorMinor.html#a3f7315088bb27e09449e3c2542b65958" target="_top" xlink:title="Get the MajorMinor for the device name.">
<polygon fill="none" stroke="black" points="516,-364 516,-394 659,-394 659,-364 516,-364"/>
<text text-anchor="start" x="524" y="-382" font-family="Helvetica,sans-Serif" font-size="10.00">leanux::block::MajorMinor</text>
<text text-anchor="middle" x="587.5" y="-371" font-family="Helvetica,sans-Serif" font-size="10.00">::getMajorMinorByName</text>
</a>
</g>
</g>
<!-- Node1&#45;&gt;Node2 -->
<g id="edge1" class="edge">
<title>Node1&#45;&gt;Node2</title>
<path fill="none" stroke="midnightblue" d="M78.67,-230.19C119.18,-265.94 227.53,-354.74 337,-386 391.87,-401.67 456.3,-399.37 505.94,-393.43"/>
<polygon fill="midnightblue" stroke="midnightblue" points="506.51,-396.89 515.99,-392.16 505.63,-389.95 506.51,-396.89"/>
</g>
<!-- Node6 -->
<g id="node5" class="node">
<title>Node6</title>
<g id="a_node5"><a xlink:href="../../d7/d28/classleanux_1_1block_1_1MajorMinor.html#ad5136fe7853cb6f2ca04eadb465976da" target="_top" xlink:title=" ">
<polygon fill="none" stroke="black" points="158,-200 158,-230 301,-230 301,-200 158,-200"/>
<text text-anchor="start" x="166" y="-218" font-family="Helvetica,sans-Serif" font-size="10.00">leanux::block::MajorMinor</text>
<text text-anchor="middle" x="229.5" y="-207" font-family="Helvetica,sans-Serif" font-size="10.00">::isPartition</text>
</a>
</g>
</g>
<!-- Node1&#45;&gt;Node6 -->
<g id="edge4" class="edge">
<title>Node1&#45;&gt;Node6</title>
<path fill="none" stroke="midnightblue" d="M122.11,-215C130.48,-215 139.19,-215 147.86,-215"/>
<polygon fill="midnightblue" stroke="midnightblue" points="147.99,-218.5 157.99,-215 147.99,-211.5 147.99,-218.5"/>
</g>
<!-- Node14 -->
<g id="node13" class="node">
<title>Node14</title>
<g id="a_node13"><a xlink:href="../../d1/d02/classleanux_1_1sysdevice_1_1SysDevice.html#abc35fc5f51e73156ebd1a8b707c960b2" target="_top" xlink:title="Transform a SysDevicePath into a list of tokens in reverse order.">
<polygon fill="none" stroke="black" points="172,-85 172,-115 287,-115 287,-85 172,-85"/>
<text text-anchor="start" x="180" y="-103" font-family="Helvetica,sans-Serif" font-size="10.00">leanux::sysdevice::</text>
<text text-anchor="middle" x="229.5" y="-92" font-family="Helvetica,sans-Serif" font-size="10.00">SysDevice::tokenize</text>
</a>
</g>
</g>
<!-- Node1&#45;&gt;Node14 -->
<g id="edge18" class="edge">
<title>Node1&#45;&gt;Node14</title>
<path fill="none" stroke="midnightblue" d="M83.77,-199.97C113.06,-179.73 165.3,-143.65 198.35,-120.82"/>
<polygon fill="midnightblue" stroke="midnightblue" points="200.49,-123.6 206.73,-115.04 196.51,-117.84 200.49,-123.6"/>
</g>
<!-- Node3 -->
<g id="node3" class="node">
<title>Node3</title>
<g id="a_node3"><a xlink:href="../../d7/d28/classleanux_1_1block_1_1MajorMinor.html#a4d83c063088eb618533f31e2cc78b2f3" target="_top" xlink:title="(re)build the cached mapping between device names and MajorMinor numbers.">
<polygon fill="none" stroke="red" points="695,-274 695,-304 838,-304 838,-274 695,-274"/>
<text text-anchor="start" x="703" y="-292" font-family="Helvetica,sans-Serif" font-size="10.00">leanux::block::MajorMinor</text>
<text text-anchor="middle" x="766.5" y="-281" font-family="Helvetica,sans-Serif" font-size="10.00">::buildCache</text>
</a>
</g>
</g>
<!-- Node2&#45;&gt;Node3 -->
<g id="edge2" class="edge">
<title>Node2&#45;&gt;Node3</title>
<path fill="none" stroke="midnightblue" d="M618.13,-363.94C647.86,-348.82 693.83,-325.44 726.52,-308.82"/>
<polygon fill="midnightblue" stroke="midnightblue" points="728.45,-311.77 735.78,-304.11 725.28,-305.53 728.45,-311.77"/>
</g>
<!-- Node4 -->
<g id="node4" class="node">
<title>Node4</title>
<g id="a_node4"><a xlink:href="../../d7/d28/classleanux_1_1block_1_1MajorMinor.html#a464bd4b85ec6d88f850ef7d76e950f44" target="_top" xlink:title="Default constructor.">
<polygon fill="none" stroke="black" points="874,-203 874,-233 1017,-233 1017,-203 874,-203"/>
<text text-anchor="start" x="882" y="-221" font-family="Helvetica,sans-Serif" font-size="10.00">leanux::block::MajorMinor</text>
<text text-anchor="middle" x="945.5" y="-210" font-family="Helvetica,sans-Serif" font-size="10.00">::MajorMinor</text>
</a>
</g>
</g>
<!-- Node3&#45;&gt;Node4 -->
<g id="edge3" class="edge">
<title>Node3&#45;&gt;Node4</title>
<path fill="none" stroke="midnightblue" d="M805.04,-273.94C832.02,-263.12 868.6,-248.45 897.53,-236.84"/>
<polygon fill="midnightblue" stroke="midnightblue" points="899.04,-240.01 907.02,-233.04 896.43,-233.51 899.04,-240.01"/>
</g>
<!-- Node6&#45;&gt;Node4 -->
<g id="edge17" class="edge">
<title>Node6&#45;&gt;Node4</title>
<path fill="none" stroke="midnightblue" d="M255.24,-199.88C276.16,-188.02 307.38,-172.49 337,-166 532.48,-123.19 770.53,-171.96 881.68,-200.4"/>
<polygon fill="midnightblue" stroke="midnightblue" points="880.84,-203.8 891.4,-202.92 882.59,-197.02 880.84,-203.8"/>
</g>
<!-- Node7 -->
<g id="node6" class="node">
<title>Node7</title>
<g id="a_node6"><a xlink:href="../../d7/d28/classleanux_1_1block_1_1MajorMinor.html#adc3f437e329318ee21bddbbebaeb740e" target="_top" xlink:title="Get the DeviceName for the MajorMinor.">
<polygon fill="none" stroke="black" points="516,-274 516,-304 659,-304 659,-274 516,-274"/>
<text text-anchor="start" x="524" y="-292" font-family="Helvetica,sans-Serif" font-size="10.00">leanux::block::MajorMinor</text>
<text text-anchor="middle" x="587.5" y="-281" font-family="Helvetica,sans-Serif" font-size="10.00">::getNameByMajorMinor</text>
</a>
</g>
</g>
<!-- Node6&#45;&gt;Node7 -->
<g id="edge5" class="edge">
<title>Node6&#45;&gt;Node7</title>
<path fill="none" stroke="midnightblue" d="M236.02,-230.43C248.35,-262.25 281.5,-334.56 337,-363 393.56,-391.98 419.35,-382 480,-363 512.43,-352.84 543.65,-328.93 563.81,-311.02"/>
<polygon fill="midnightblue" stroke="midnightblue" points="566.2,-313.58 571.22,-304.25 561.48,-308.4 566.2,-313.58"/>
</g>
<!-- Node8 -->
<g id="node7" class="node">
<title>Node8</title>
<g id="a_node7"><a xlink:href="../../d7/d28/classleanux_1_1block_1_1MajorMinor.html#a59e3fe2f1a574b79bad1fe48a2334c27" target="_top" xlink:title="determine if the MajorMinor represents a bcache disk.">
<polygon fill="none" stroke="black" points="337,-323 337,-353 480,-353 480,-323 337,-323"/>
<text text-anchor="start" x="345" y="-341" font-family="Helvetica,sans-Serif" font-size="10.00">leanux::block::MajorMinor</text>
<text text-anchor="middle" x="408.5" y="-330" font-family="Helvetica,sans-Serif" font-size="10.00">::isBCacheDisk</text>
</a>
</g>
</g>
<!-- Node6&#45;&gt;Node8 -->
<g id="edge7" class="edge">
<title>Node6&#45;&gt;Node8</title>
<path fill="none" stroke="midnightblue" d="M243.08,-230.19C261.6,-251.66 298.21,-290.83 337,-314 339.83,-315.69 342.8,-317.28 345.84,-318.78"/>
<polygon fill="midnightblue" stroke="midnightblue" points="344.61,-322.06 355.17,-322.98 347.49,-315.68 344.61,-322.06"/>
</g>
<!-- Node9 -->
<g id="node8" class="node">
<title>Node9</title>
<g id="a_node8"><a xlink:href="../../d7/d28/classleanux_1_1block_1_1MajorMinor.html#a546aa9297e382543cb031126190bc8c9" target="_top" xlink:title="determine if the major represents an IDE disk.">
<polygon fill="none" stroke="black" points="337,-88 337,-118 480,-118 480,-88 337,-88"/>
<text text-anchor="start" x="345" y="-106" font-family="Helvetica,sans-Serif" font-size="10.00">leanux::block::MajorMinor</text>
<text text-anchor="middle" x="408.5" y="-95" font-family="Helvetica,sans-Serif" font-size="10.00">::isIDEDisk</text>
</a>
</g>
</g>
<!-- Node6&#45;&gt;Node9 -->
<g id="edge9" class="edge">
<title>Node6&#45;&gt;Node9</title>
<path fill="none" stroke="midnightblue" d="M247.25,-199.92C267.45,-182.27 302.96,-152.91 337,-133 343.47,-129.21 350.51,-125.64 357.56,-122.37"/>
<polygon fill="midnightblue" stroke="midnightblue" points="359.41,-125.38 367.11,-118.11 356.56,-118.98 359.41,-125.38"/>
</g>
<!-- Node10 -->
<g id="node9" class="node">
<title>Node10</title>
<g id="a_node9"><a xlink:href="../../d7/d28/classleanux_1_1block_1_1MajorMinor.html#a852aa9e7ee1c107c95cd27ad47b5cf86" target="_top" xlink:title="determine if the MajorMinor represents an MMC disk.">
<polygon fill="none" stroke="black" points="337,-274 337,-304 480,-304 480,-274 337,-274"/>
<text text-anchor="start" x="345" y="-292" font-family="Helvetica,sans-Serif" font-size="10.00">leanux::block::MajorMinor</text>
<text text-anchor="middle" x="408.5" y="-281" font-family="Helvetica,sans-Serif" font-size="10.00">::isMMCDisk</text>
</a>
</g>
</g>
<!-- Node6&#45;&gt;Node10 -->
<g id="edge10" class="edge">
<title>Node6&#45;&gt;Node10</title>
<path fill="none" stroke="midnightblue" d="M260.4,-230.13C281.54,-240.55 310.67,-254.38 337,-265 341.68,-266.89 346.56,-268.76 351.49,-270.57"/>
<polygon fill="midnightblue" stroke="midnightblue" points="350.37,-273.89 360.96,-273.98 352.74,-267.3 350.37,-273.89"/>
</g>
<!-- Node11 -->
<g id="node10" class="node">
<title>Node11</title>
<g id="a_node10"><a xlink:href="../../d7/d28/classleanux_1_1block_1_1MajorMinor.html#ab248c720a63908f9e3ef78ed23536de8" target="_top" xlink:title="determine if the MajorMinor represents a NVMe disk.">
<polygon fill="none" stroke="black" points="337,-225 337,-255 480,-255 480,-225 337,-225"/>
<text text-anchor="start" x="345" y="-243" font-family="Helvetica,sans-Serif" font-size="10.00">leanux::block::MajorMinor</text>
<text text-anchor="middle" x="408.5" y="-232" font-family="Helvetica,sans-Serif" font-size="10.00">::isNVMeDisk</text>
</a>
</g>
</g>
<!-- Node6&#45;&gt;Node11 -->
<g id="edge12" class="edge">
<title>Node6&#45;&gt;Node11</title>
<path fill="none" stroke="midnightblue" d="M301.22,-224.99C309.66,-226.18 318.33,-227.41 326.9,-228.62"/>
<polygon fill="midnightblue" stroke="midnightblue" points="326.5,-232.09 336.89,-230.03 327.48,-225.16 326.5,-232.09"/>
</g>
<!-- Node12 -->
<g id="node11" class="node">
<title>Node12</title>
<g id="a_node11"><a xlink:href="../../d7/d28/classleanux_1_1block_1_1MajorMinor.html#a6c5b98f8ffc7b8904754ecfe33407e8c" target="_top" xlink:title="determine if the major represents a SCSI disk.">
<polygon fill="none" stroke="black" points="337,-39 337,-69 480,-69 480,-39 337,-39"/>
<text text-anchor="start" x="345" y="-57" font-family="Helvetica,sans-Serif" font-size="10.00">leanux::block::MajorMinor</text>
<text text-anchor="middle" x="408.5" y="-46" font-family="Helvetica,sans-Serif" font-size="10.00">::isSCSIDisk</text>
</a>
</g>
</g>
<!-- Node6&#45;&gt;Node12 -->
<g id="edge14" class="edge">
<title>Node6&#45;&gt;Node12</title>
<path fill="none" stroke="midnightblue" d="M242.2,-199.89C269.71,-164.38 336.22,-78.55 337,-78 339.07,-76.52 341.24,-75.13 343.49,-73.82"/>
<polygon fill="midnightblue" stroke="midnightblue" points="345.18,-76.88 352.43,-69.16 341.94,-70.68 345.18,-76.88"/>
</g>
<!-- Node13 -->
<g id="node12" class="node">
<title>Node13</title>
<g id="a_node12"><a xlink:href="../../d7/d28/classleanux_1_1block_1_1MajorMinor.html#aaa91d26165ff4b7a32cfe052e72463cc" target="_top" xlink:title="determine if the MajorMinor represents a virtio disk.">
<polygon fill="none" stroke="black" points="337,-176 337,-206 480,-206 480,-176 337,-176"/>
<text text-anchor="start" x="345" y="-194" font-family="Helvetica,sans-Serif" font-size="10.00">leanux::block::MajorMinor</text>
<text text-anchor="middle" x="408.5" y="-183" font-family="Helvetica,sans-Serif" font-size="10.00">::isVirtIODisk</text>
</a>
</g>
</g>
<!-- Node6&#45;&gt;Node13 -->
<g id="edge15" class="edge">
<title>Node6&#45;&gt;Node13</title>
<path fill="none" stroke="midnightblue" d="M301.22,-205.41C309.66,-204.27 318.33,-203.09 326.9,-201.93"/>
<polygon fill="midnightblue" stroke="midnightblue" points="327.46,-205.39 336.89,-200.57 326.51,-198.45 327.46,-205.39"/>
</g>
<!-- Node7&#45;&gt;Node3 -->
<g id="edge6" class="edge">
<title>Node7&#45;&gt;Node3</title>
<path fill="none" stroke="midnightblue" d="M659.22,-289C667.57,-289 676.14,-289 684.62,-289"/>
<polygon fill="midnightblue" stroke="midnightblue" points="684.89,-292.5 694.89,-289 684.89,-285.5 684.89,-292.5"/>
</g>
<!-- Node8&#45;&gt;Node7 -->
<g id="edge8" class="edge">
<title>Node8&#45;&gt;Node7</title>
<path fill="none" stroke="midnightblue" d="M464.05,-322.9C482.47,-317.8 503.21,-312.06 522.31,-306.77"/>
<polygon fill="midnightblue" stroke="midnightblue" points="523.43,-310.09 532.13,-304.05 521.56,-303.35 523.43,-310.09"/>
</g>
<!-- Node10&#45;&gt;Node7 -->
<g id="edge11" class="edge">
<title>Node10&#45;&gt;Node7</title>
<path fill="none" stroke="midnightblue" d="M480.22,-289C488.57,-289 497.14,-289 505.62,-289"/>
<polygon fill="midnightblue" stroke="midnightblue" points="505.89,-292.5 515.89,-289 505.89,-285.5 505.89,-292.5"/>
</g>
<!-- Node11&#45;&gt;Node7 -->
<g id="edge13" class="edge">
<title>Node11&#45;&gt;Node7</title>
<path fill="none" stroke="midnightblue" d="M464.05,-255.1C482.47,-260.2 503.21,-265.94 522.31,-271.23"/>
<polygon fill="midnightblue" stroke="midnightblue" points="521.56,-274.65 532.13,-273.95 523.43,-267.91 521.56,-274.65"/>
</g>
<!-- Node13&#45;&gt;Node7 -->
<g id="edge16" class="edge">
<title>Node13&#45;&gt;Node7</title>
<path fill="none" stroke="midnightblue" d="M457.24,-206.02C464.99,-209 472.82,-212.35 480,-216 508.8,-230.66 538.93,-251.95 559.76,-267.76"/>
<polygon fill="midnightblue" stroke="midnightblue" points="557.75,-270.63 567.82,-273.95 562.02,-265.08 557.75,-270.63"/>
</g>
<!-- Node15 -->
<g id="node14" class="node">
<title>Node15</title>
<g id="a_node14"><a xlink:href="../../d8/db1/namespaceleanux_1_1util.html#a3b691a56e21c20628e956b8ec995d53f" target="_top" xlink:title=" ">
<polygon fill="none" stroke="black" points="349,-0.5 349,-19.5 468,-19.5 468,-0.5 349,-0.5"/>
<text text-anchor="middle" x="408.5" y="-7.5" font-family="Helvetica,sans-Serif" font-size="10.00">leanux::util::tokenize</text>
</a>
</g>
</g>
<!-- Node14&#45;&gt;Node15 -->
<g id="edge19" class="edge">
<title>Node14&#45;&gt;Node15</title>
<path fill="none" stroke="midnightblue" d="M249.02,-84.91C269.44,-68.95 303.81,-44.05 337,-29 342.25,-26.62 347.86,-24.48 353.54,-22.58"/>
<polygon fill="midnightblue" stroke="midnightblue" points="354.6,-25.92 363.1,-19.6 352.51,-19.24 354.6,-25.92"/>
</g>
</g>
</svg>
