<?xml version="1.0" encoding="UTF-8" standalone="no"?>
<!DOCTYPE svg PUBLIC "-//W3C//DTD SVG 1.1//EN"
 "http://www.w3.org/Graphics/SVG/1.1/DTD/svg11.dtd">
<!-- Generated by graphviz version 2.43.0 (0)
 -->
<!-- Title: lib/cpu.hpp Pages: 1 -->
<svg width="1024pt" height="196pt"
 viewBox="0.00 0.00 1024.00 196.00" xmlns="http://www.w3.org/2000/svg" xmlns:xlink="http://www.w3.org/1999/xlink">
<g id="graph0" class="graph" transform="scale(1 1) rotate(0) translate(4 192)">
<title>lib/cpu.hpp</title>
<!-- Node1 -->
<g id="node1" class="node">
<title>Node1</title>
<g id="a_node1"><a xlink:title=" ">
<polygon fill="#bfbfbf" stroke="black" points="500.5,-168.5 500.5,-187.5 570.5,-187.5 570.5,-168.5 500.5,-168.5"/>
<text text-anchor="middle" x="535.5" y="-175.5" font-family="Helvetica,sans-Serif" font-size="10.00">lib/cpu.hpp</text>
</a>
</g>
</g>
<!-- Node2 -->
<g id="node2" class="node">
<title>Node2</title>
<g id="a_node2"><a xlink:href="../../d7/dfc/cpu_8cpp.html" target="_top" xlink:title=" ">
<polygon fill="none" stroke="black" points="210,-112.5 210,-131.5 279,-131.5 279,-112.5 210,-112.5"/>
<text text-anchor="middle" x="244.5" y="-119.5" font-family="Helvetica,sans-Serif" font-size="10.00">lib/cpu.cpp</text>
</a>
</g>
</g>
<!-- Node1&#45;&gt;Node2 -->
<g id="edge1" class="edge">
<title>Node1&#45;&gt;Node2</title>
<path fill="none" stroke="midnightblue" d="M490.2,-169.05C440.62,-160.28 358.82,-145.6 288.5,-132 285.44,-131.41 282.26,-130.78 279.07,-130.15"/>
<polygon fill="midnightblue" stroke="midnightblue" points="489.82,-172.54 500.28,-170.83 491.04,-165.64 489.82,-172.54"/>
</g>
<!-- Node3 -->
<g id="node3" class="node">
<title>Node3</title>
<g id="a_node3"><a xlink:href="../../df/d77/xdata_8hpp.html" target="_top" xlink:title=" ">
<polygon fill="none" stroke="black" points="297.5,-112.5 297.5,-131.5 417.5,-131.5 417.5,-112.5 297.5,-112.5"/>
<text text-anchor="middle" x="357.5" y="-119.5" font-family="Helvetica,sans-Serif" font-size="10.00">tools/lmon/xdata.hpp</text>
</a>
</g>
</g>
<!-- Node1&#45;&gt;Node3 -->
<g id="edge2" class="edge">
<title>Node1&#45;&gt;Node3</title>
<path fill="none" stroke="midnightblue" d="M497.38,-165.44C463.82,-155.26 415.73,-140.66 385.57,-131.52"/>
<polygon fill="midnightblue" stroke="midnightblue" points="496.71,-168.89 507.3,-168.44 498.74,-162.19 496.71,-168.89"/>
</g>
<!-- Node8 -->
<g id="node6" class="node">
<title>Node8</title>
<g id="a_node6"><a xlink:href="../../d4/d35/lmon__curses_8hpp.html" target="_top" xlink:title=" ">
<polygon fill="none" stroke="red" points="251.5,-0.5 251.5,-19.5 405.5,-19.5 405.5,-0.5 251.5,-0.5"/>
<text text-anchor="middle" x="328.5" y="-7.5" font-family="Helvetica,sans-Serif" font-size="10.00">tools/lmon/lmon_curses.hpp</text>
</a>
</g>
</g>
<!-- Node1&#45;&gt;Node8 -->
<g id="edge7" class="edge">
<title>Node1&#45;&gt;Node8</title>
<path fill="none" stroke="midnightblue" d="M508.08,-163.6C494.29,-155.83 478.1,-145.01 466.5,-132 441.36,-103.82 455.74,-82.15 428.5,-56 409.82,-38.07 382.77,-26.49 361.51,-19.57"/>
<polygon fill="midnightblue" stroke="midnightblue" points="506.69,-166.82 517.15,-168.48 510,-160.66 506.69,-166.82"/>
</g>
<!-- Node13 -->
<g id="node8" class="node">
<title>Node13</title>
<g id="a_node8"><a xlink:href="../../de/d20/xdata_8cpp.html" target="_top" xlink:title=" ">
<polygon fill="none" stroke="black" points="476,-112.5 476,-131.5 595,-131.5 595,-112.5 476,-112.5"/>
<text text-anchor="middle" x="535.5" y="-119.5" font-family="Helvetica,sans-Serif" font-size="10.00">tools/lmon/xdata.cpp</text>
</a>
</g>
</g>
<!-- Node1&#45;&gt;Node13 -->
<g id="edge8" class="edge">
<title>Node1&#45;&gt;Node13</title>
<path fill="none" stroke="midnightblue" d="M535.5,-157.8C535.5,-148.91 535.5,-138.78 535.5,-131.75"/>
<polygon fill="midnightblue" stroke="midnightblue" points="532,-158.08 535.5,-168.08 539,-158.08 532,-158.08"/>
</g>
<!-- Node14 -->
<g id="node9" class="node">
<title>Node14</title>
<g id="a_node9"><a xlink:href="../../dd/d15/lrep_8cpp.html" target="_top" xlink:title=" ">
<polygon fill="none" stroke="black" points="613.5,-112.5 613.5,-131.5 717.5,-131.5 717.5,-112.5 613.5,-112.5"/>
<text text-anchor="middle" x="665.5" y="-119.5" font-family="Helvetica,sans-Serif" font-size="10.00">tools/lrep/lrep.cpp</text>
</a>
</g>
</g>
<!-- Node1&#45;&gt;Node14 -->
<g id="edge9" class="edge">
<title>Node1&#45;&gt;Node14</title>
<path fill="none" stroke="midnightblue" d="M565.59,-164.5C589.96,-154.38 623.64,-140.39 645,-131.52"/>
<polygon fill="midnightblue" stroke="midnightblue" points="563.99,-161.38 556.1,-168.44 566.68,-167.84 563.99,-161.38"/>
</g>
<!-- Node15 -->
<g id="node10" class="node">
<title>Node15</title>
<g id="a_node10"><a xlink:href="../../d1/d59/lar__snap_8hpp.html" target="_top" xlink:title=" ">
<polygon fill="none" stroke="black" points="735.5,-112.5 735.5,-131.5 863.5,-131.5 863.5,-112.5 735.5,-112.5"/>
<text text-anchor="middle" x="799.5" y="-119.5" font-family="Helvetica,sans-Serif" font-size="10.00">tools/lard/lar_snap.hpp</text>
</a>
</g>
</g>
<!-- Node1&#45;&gt;Node15 -->
<g id="edge10" class="edge">
<title>Node1&#45;&gt;Node15</title>
<path fill="none" stroke="midnightblue" d="M580.38,-167.82C630.03,-157.66 709.41,-141.43 757.76,-131.54"/>
<polygon fill="midnightblue" stroke="midnightblue" points="579.65,-164.4 570.56,-169.83 581.06,-171.25 579.65,-164.4"/>
</g>
<!-- Node19 -->
<g id="node14" class="node">
<title>Node19</title>
<g id="a_node14"><a xlink:href="../../d9/d3a/lblk_8cpp.html" target="_top" xlink:title=" ">
<polygon fill="none" stroke="black" points="882,-112.5 882,-131.5 985,-131.5 985,-112.5 882,-112.5"/>
<text text-anchor="middle" x="933.5" y="-119.5" font-family="Helvetica,sans-Serif" font-size="10.00">tools/lblk/lblk.cpp</text>
</a>
</g>
</g>
<!-- Node1&#45;&gt;Node19 -->
<g id="edge14" class="edge">
<title>Node1&#45;&gt;Node19</title>
<path fill="none" stroke="midnightblue" d="M581.22,-171.1C646.05,-162.68 768.41,-146.63 872.5,-132 875.57,-131.57 878.73,-131.12 881.92,-130.66"/>
<polygon fill="midnightblue" stroke="midnightblue" points="580.41,-167.67 570.94,-172.43 581.31,-174.62 580.41,-167.67"/>
</g>
<!-- Node4 -->
<g id="node4" class="node">
<title>Node4</title>
<g id="a_node4"><a xlink:href="../../d4/de1/history_8hpp.html" target="_top" xlink:title=" ">
<polygon fill="none" stroke="red" points="0,-56.5 0,-75.5 125,-75.5 125,-56.5 0,-56.5"/>
<text text-anchor="middle" x="62.5" y="-63.5" font-family="Helvetica,sans-Serif" font-size="10.00">tools/lmon/history.hpp</text>
</a>
</g>
</g>
<!-- Node3&#45;&gt;Node4 -->
<g id="edge3" class="edge">
<title>Node3&#45;&gt;Node4</title>
<path fill="none" stroke="midnightblue" d="M300.69,-110.6C244.94,-100.4 160.94,-85.02 109.02,-75.52"/>
<polygon fill="midnightblue" stroke="midnightblue" points="300.29,-114.09 310.76,-112.44 301.55,-107.2 300.29,-114.09"/>
</g>
<!-- Node7 -->
<g id="node5" class="node">
<title>Node7</title>
<g id="a_node5"><a xlink:href="../../dd/d86/realtime_8hpp.html" target="_top" xlink:title=" ">
<polygon fill="none" stroke="red" points="143.5,-56.5 143.5,-75.5 277.5,-75.5 277.5,-56.5 143.5,-56.5"/>
<text text-anchor="middle" x="210.5" y="-63.5" font-family="Helvetica,sans-Serif" font-size="10.00">tools/lmon/realtime.hpp</text>
</a>
</g>
</g>
<!-- Node3&#45;&gt;Node7 -->
<g id="edge4" class="edge">
<title>Node3&#45;&gt;Node7</title>
<path fill="none" stroke="midnightblue" d="M324.58,-108.91C296.94,-98.75 258.16,-84.51 233.68,-75.52"/>
<polygon fill="midnightblue" stroke="midnightblue" points="323.61,-112.28 334.21,-112.44 326.03,-105.71 323.61,-112.28"/>
</g>
<!-- Node11 -->
<g id="node7" class="node">
<title>Node11</title>
<g id="a_node7"><a xlink:href="../../d5/da4/trigger_8hpp.html" target="_top" xlink:title=" ">
<polygon fill="none" stroke="red" points="295.5,-56.5 295.5,-75.5 419.5,-75.5 419.5,-56.5 295.5,-56.5"/>
<text text-anchor="middle" x="357.5" y="-63.5" font-family="Helvetica,sans-Serif" font-size="10.00">tools/lmon/trigger.hpp</text>
</a>
</g>
</g>
<!-- Node3&#45;&gt;Node11 -->
<g id="edge6" class="edge">
<title>Node3&#45;&gt;Node11</title>
<path fill="none" stroke="midnightblue" d="M357.5,-101.8C357.5,-92.91 357.5,-82.78 357.5,-75.75"/>
<polygon fill="midnightblue" stroke="midnightblue" points="354,-102.08 357.5,-112.08 361,-102.08 354,-102.08"/>
</g>
<!-- Node7&#45;&gt;Node8 -->
<g id="edge5" class="edge">
<title>Node7&#45;&gt;Node8</title>
<path fill="none" stroke="midnightblue" d="M238.4,-52.23C260.47,-42.13 290.68,-28.31 309.89,-19.52"/>
<polygon fill="midnightblue" stroke="midnightblue" points="236.83,-49.1 229.2,-56.44 239.75,-55.46 236.83,-49.1"/>
</g>
<!-- Node16 -->
<g id="node11" class="node">
<title>Node16</title>
<g id="a_node11"><a xlink:href="../../da/de9/lar_8cpp.html" target="_top" xlink:title=" ">
<polygon fill="none" stroke="black" points="612.5,-56.5 612.5,-75.5 710.5,-75.5 710.5,-56.5 612.5,-56.5"/>
<text text-anchor="middle" x="661.5" y="-63.5" font-family="Helvetica,sans-Serif" font-size="10.00">tools/lard/lar.cpp</text>
</a>
</g>
</g>
<!-- Node15&#45;&gt;Node16 -->
<g id="edge11" class="edge">
<title>Node15&#45;&gt;Node16</title>
<path fill="none" stroke="midnightblue" d="M768.25,-108.77C742.33,-98.63 706.14,-84.47 683.26,-75.52"/>
<polygon fill="midnightblue" stroke="midnightblue" points="767.05,-112.06 777.63,-112.44 769.6,-105.54 767.05,-112.06"/>
</g>
<!-- Node17 -->
<g id="node12" class="node">
<title>Node17</title>
<g id="a_node12"><a xlink:href="../../da/da6/lar__schema_8cpp.html" target="_top" xlink:title=" ">
<polygon fill="none" stroke="black" points="728.5,-56.5 728.5,-75.5 870.5,-75.5 870.5,-56.5 728.5,-56.5"/>
<text text-anchor="middle" x="799.5" y="-63.5" font-family="Helvetica,sans-Serif" font-size="10.00">tools/lard/lar_schema.cpp</text>
</a>
</g>
</g>
<!-- Node15&#45;&gt;Node17 -->
<g id="edge12" class="edge">
<title>Node15&#45;&gt;Node17</title>
<path fill="none" stroke="midnightblue" d="M799.5,-101.8C799.5,-92.91 799.5,-82.78 799.5,-75.75"/>
<polygon fill="midnightblue" stroke="midnightblue" points="796,-102.08 799.5,-112.08 803,-102.08 796,-102.08"/>
</g>
<!-- Node18 -->
<g id="node13" class="node">
<title>Node18</title>
<g id="a_node13"><a xlink:href="../../d4/dc8/lar__snap_8cpp.html" target="_top" xlink:title=" ">
<polygon fill="none" stroke="black" points="889,-56.5 889,-75.5 1016,-75.5 1016,-56.5 889,-56.5"/>
<text text-anchor="middle" x="952.5" y="-63.5" font-family="Helvetica,sans-Serif" font-size="10.00">tools/lard/lar_snap.cpp</text>
</a>
</g>
</g>
<!-- Node15&#45;&gt;Node18 -->
<g id="edge13" class="edge">
<title>Node15&#45;&gt;Node18</title>
<path fill="none" stroke="midnightblue" d="M833.39,-109.04C862.18,-98.88 902.79,-84.55 928.37,-75.52"/>
<polygon fill="midnightblue" stroke="midnightblue" points="832.01,-105.81 823.74,-112.44 834.34,-112.42 832.01,-105.81"/>
</g>
</g>
</svg>
