<?xml version="1.0" encoding="UTF-8" standalone="no"?>
<!DOCTYPE svg PUBLIC "-//W3C//DTD SVG 1.1//EN"
 "http://www.w3.org/Graphics/SVG/1.1/DTD/svg11.dtd">
<!-- Generated by graphviz version 2.43.0 (0)
 -->
<!-- Title: leanux::tools::lard::TCPEstaSnap::storeSnap Pages: 1 -->
<svg width="553pt" height="382pt"
 viewBox="0.00 0.00 553.00 382.00" xmlns="http://www.w3.org/2000/svg" xmlns:xlink="http://www.w3.org/1999/xlink">
<g id="graph0" class="graph" transform="scale(1 1) rotate(0) translate(4 378)">
<title>leanux::tools::lard::TCPEstaSnap::storeSnap</title>
<!-- Node1 -->
<g id="node1" class="node">
<title>Node1</title>
<g id="a_node1"><a xlink:title=" ">
<polygon fill="#bfbfbf" stroke="black" points="0,-171.5 0,-201.5 140,-201.5 140,-171.5 0,-171.5"/>
<text text-anchor="start" x="8" y="-189.5" font-family="Helvetica,sans-Serif" font-size="10.00">leanux::tools::lard</text>
<text text-anchor="middle" x="70" y="-178.5" font-family="Helvetica,sans-Serif" font-size="10.00">::TCPEstaSnap::storeSnap</text>
</a>
</g>
</g>
<!-- Node2 -->
<g id="node2" class="node">
<title>Node2</title>
<g id="a_node2"><a xlink:href="../../d9/d78/classleanux_1_1persist_1_1DML.html#a8df01a6d880515c22106e424ed342c81" target="_top" xlink:title="Bind a double value to the bind at position.">
<polygon fill="none" stroke="black" points="201,-343.5 201,-373.5 317,-373.5 317,-343.5 201,-343.5"/>
<text text-anchor="start" x="209" y="-361.5" font-family="Helvetica,sans-Serif" font-size="10.00">leanux::persist::DML</text>
<text text-anchor="middle" x="259" y="-350.5" font-family="Helvetica,sans-Serif" font-size="10.00">::bind</text>
</a>
</g>
</g>
<!-- Node1&#45;&gt;Node2 -->
<g id="edge1" class="edge">
<title>Node1&#45;&gt;Node2</title>
<path fill="none" stroke="midnightblue" d="M77.52,-201.63C91.24,-231.64 125.97,-298.84 176,-334.5 180.72,-337.86 185.91,-340.76 191.32,-343.25"/>
<polygon fill="midnightblue" stroke="midnightblue" points="190,-346.5 200.57,-347.08 192.67,-340.03 190,-346.5"/>
</g>
<!-- Node3 -->
<g id="node3" class="node">
<title>Node3</title>
<g id="a_node3"><a xlink:href="../../d9/d78/classleanux_1_1persist_1_1DML.html#a66bfdf8da5f7d2c02bb5cb6f54515783" target="_top" xlink:title="Execute.">
<polygon fill="none" stroke="black" points="201,-294.5 201,-324.5 317,-324.5 317,-294.5 201,-294.5"/>
<text text-anchor="start" x="209" y="-312.5" font-family="Helvetica,sans-Serif" font-size="10.00">leanux::persist::DML</text>
<text text-anchor="middle" x="259" y="-301.5" font-family="Helvetica,sans-Serif" font-size="10.00">::execute</text>
</a>
</g>
</g>
<!-- Node1&#45;&gt;Node3 -->
<g id="edge2" class="edge">
<title>Node1&#45;&gt;Node3</title>
<path fill="none" stroke="midnightblue" d="M82.92,-201.57C100.86,-223.24 136.87,-263.08 176,-285.5 180.83,-288.27 186,-290.74 191.31,-292.94"/>
<polygon fill="midnightblue" stroke="midnightblue" points="190.39,-296.33 200.98,-296.62 192.88,-289.79 190.39,-296.33"/>
</g>
<!-- Node4 -->
<g id="node4" class="node">
<title>Node4</title>
<g id="a_node4"><a xlink:href="../../d4/d2c/classleanux_1_1persist_1_1Query.html#ada37977ad924b728401fa1fb7506cd2e" target="_top" xlink:title="Get long value from select list.">
<polygon fill="none" stroke="black" points="197,-245.5 197,-275.5 321,-275.5 321,-245.5 197,-245.5"/>
<text text-anchor="start" x="205" y="-263.5" font-family="Helvetica,sans-Serif" font-size="10.00">leanux::persist::Query</text>
<text text-anchor="middle" x="259" y="-252.5" font-family="Helvetica,sans-Serif" font-size="10.00">::getLong</text>
</a>
</g>
</g>
<!-- Node1&#45;&gt;Node4 -->
<g id="edge3" class="edge">
<title>Node1&#45;&gt;Node4</title>
<path fill="none" stroke="midnightblue" d="M99.43,-201.56C120.25,-212.21 149.4,-226.35 176,-236.5 181.2,-238.48 186.63,-240.4 192.12,-242.23"/>
<polygon fill="midnightblue" stroke="midnightblue" points="191.43,-245.68 202.02,-245.42 193.58,-239.02 191.43,-245.68"/>
</g>
<!-- Node5 -->
<g id="node5" class="node">
<title>Node5</title>
<g id="a_node5"><a xlink:href="../../d5/db8/namespaceleanux_1_1net.html#ae1bc6c94c0c1352bbad7abeb430dea86" target="_top" xlink:title="Return the number of established TCP connections grouped by (ip,port,uid).">
<polygon fill="none" stroke="black" points="176,-196.5 176,-226.5 342,-226.5 342,-196.5 176,-196.5"/>
<text text-anchor="start" x="184" y="-214.5" font-family="Helvetica,sans-Serif" font-size="10.00">leanux::net::getTCPConnection</text>
<text text-anchor="middle" x="259" y="-203.5" font-family="Helvetica,sans-Serif" font-size="10.00">Counters</text>
</a>
</g>
</g>
<!-- Node1&#45;&gt;Node5 -->
<g id="edge4" class="edge">
<title>Node1&#45;&gt;Node5</title>
<path fill="none" stroke="midnightblue" d="M140.1,-195.74C148.48,-196.86 157.13,-198.01 165.77,-199.17"/>
<polygon fill="midnightblue" stroke="midnightblue" points="165.52,-202.67 175.89,-200.52 166.45,-195.73 165.52,-202.67"/>
</g>
<!-- Node12 -->
<g id="node10" class="node">
<title>Node12</title>
<g id="a_node10"><a xlink:href="../../d8/daf/classleanux_1_1persist_1_1Database.html#ad2d6eb77b4fe786579b5447fd1b692bf" target="_top" xlink:title="Get the rowid of the last inserted row.">
<polygon fill="none" stroke="black" points="188.5,-147.5 188.5,-177.5 329.5,-177.5 329.5,-147.5 188.5,-147.5"/>
<text text-anchor="start" x="196.5" y="-165.5" font-family="Helvetica,sans-Serif" font-size="10.00">leanux::persist::Database</text>
<text text-anchor="middle" x="259" y="-154.5" font-family="Helvetica,sans-Serif" font-size="10.00">::lastInsertRowid</text>
</a>
</g>
</g>
<!-- Node1&#45;&gt;Node12 -->
<g id="edge9" class="edge">
<title>Node1&#45;&gt;Node12</title>
<path fill="none" stroke="midnightblue" d="M140.1,-177.63C152.5,-176.04 165.51,-174.37 178.18,-172.74"/>
<polygon fill="midnightblue" stroke="midnightblue" points="178.77,-176.2 188.25,-171.45 177.88,-169.25 178.77,-176.2"/>
</g>
<!-- Node13 -->
<g id="node11" class="node">
<title>Node13</title>
<g id="a_node11"><a xlink:href="../../db/dff/classleanux_1_1persist_1_1Statement.html#a1b809c1b1d0e9d24af65e439c3893d74" target="_top" xlink:title="Prepare a SQL statement.">
<polygon fill="none" stroke="black" points="186,-98.5 186,-128.5 332,-128.5 332,-98.5 186,-98.5"/>
<text text-anchor="start" x="194" y="-116.5" font-family="Helvetica,sans-Serif" font-size="10.00">leanux::persist::Statement</text>
<text text-anchor="middle" x="259" y="-105.5" font-family="Helvetica,sans-Serif" font-size="10.00">::prepare</text>
</a>
</g>
</g>
<!-- Node1&#45;&gt;Node13 -->
<g id="edge10" class="edge">
<title>Node1&#45;&gt;Node13</title>
<path fill="none" stroke="midnightblue" d="M100.35,-171.33C121.13,-160.97 149.84,-147.37 176,-137.5 181.42,-135.45 187.1,-133.47 192.83,-131.59"/>
<polygon fill="midnightblue" stroke="midnightblue" points="194.02,-134.88 202.49,-128.5 191.89,-128.21 194.02,-134.88"/>
</g>
<!-- Node15 -->
<g id="node13" class="node">
<title>Node15</title>
<g id="a_node13"><a xlink:href="../../db/dff/classleanux_1_1persist_1_1Statement.html#a4696481e678f7c7337c07c480ee985ec" target="_top" xlink:title="Reset a SQL statement for rexecute or even re&#45;prepare.">
<polygon fill="none" stroke="black" points="186,-49.5 186,-79.5 332,-79.5 332,-49.5 186,-49.5"/>
<text text-anchor="start" x="194" y="-67.5" font-family="Helvetica,sans-Serif" font-size="10.00">leanux::persist::Statement</text>
<text text-anchor="middle" x="259" y="-56.5" font-family="Helvetica,sans-Serif" font-size="10.00">::reset</text>
</a>
</g>
</g>
<!-- Node1&#45;&gt;Node15 -->
<g id="edge12" class="edge">
<title>Node1&#45;&gt;Node15</title>
<path fill="none" stroke="midnightblue" d="M83.26,-171.23C101.33,-149.7 137.22,-110.59 176,-88.5 179.06,-86.76 182.25,-85.13 185.53,-83.62"/>
<polygon fill="midnightblue" stroke="midnightblue" points="187.11,-86.75 194.96,-79.64 184.39,-80.3 187.11,-86.75"/>
</g>
<!-- Node16 -->
<g id="node14" class="node">
<title>Node16</title>
<g id="a_node14"><a xlink:href="../../d4/d2c/classleanux_1_1persist_1_1Query.html#a294e11c33a22761503c49418f5ca9815" target="_top" xlink:title="Step the result list, end of list returns false.">
<polygon fill="none" stroke="black" points="197,-0.5 197,-30.5 321,-30.5 321,-0.5 197,-0.5"/>
<text text-anchor="start" x="205" y="-18.5" font-family="Helvetica,sans-Serif" font-size="10.00">leanux::persist::Query</text>
<text text-anchor="middle" x="259" y="-7.5" font-family="Helvetica,sans-Serif" font-size="10.00">::step</text>
</a>
</g>
</g>
<!-- Node1&#45;&gt;Node16 -->
<g id="edge13" class="edge">
<title>Node1&#45;&gt;Node16</title>
<path fill="none" stroke="midnightblue" d="M77.55,-171.47C91.32,-141.67 126.14,-74.92 176,-39.5 179.64,-36.92 183.55,-34.61 187.62,-32.55"/>
<polygon fill="midnightblue" stroke="midnightblue" points="189.08,-35.73 196.75,-28.42 186.2,-29.35 189.08,-35.73"/>
</g>
<!-- Node6 -->
<g id="node6" class="node">
<title>Node6</title>
<g id="a_node6"><a xlink:href="../../d5/db8/namespaceleanux_1_1net.html#a1961711f7416e2fc1f75688e973b7305" target="_top" xlink:title="convert IPv4 network IP representation to human readable format.">
<polygon fill="none" stroke="black" points="384,-282 384,-301 539,-301 539,-282 384,-282"/>
<text text-anchor="middle" x="461.5" y="-289" font-family="Helvetica,sans-Serif" font-size="10.00">leanux::net::convertAF_INET</text>
</a>
</g>
</g>
<!-- Node5&#45;&gt;Node6 -->
<g id="edge5" class="edge">
<title>Node5&#45;&gt;Node6</title>
<path fill="none" stroke="midnightblue" d="M321.44,-226.57C328.6,-229.38 335.62,-232.67 342,-236.5 361.4,-248.15 358.21,-261.54 378,-272.5 382.2,-274.83 386.67,-276.87 391.27,-278.66"/>
<polygon fill="midnightblue" stroke="midnightblue" points="390.27,-282.02 400.87,-282 392.57,-275.41 390.27,-282.02"/>
</g>
<!-- Node7 -->
<g id="node7" class="node">
<title>Node7</title>
<g id="a_node7"><a xlink:href="../../d5/db8/namespaceleanux_1_1net.html#af94467113568c21e1a32c0d5e842dab0" target="_top" xlink:title="convert IPv6 network IP representation to human readable format.">
<polygon fill="none" stroke="black" points="398,-232.5 398,-262.5 525,-262.5 525,-232.5 398,-232.5"/>
<text text-anchor="start" x="406" y="-250.5" font-family="Helvetica,sans-Serif" font-size="10.00">leanux::net::convertAF</text>
<text text-anchor="middle" x="461.5" y="-239.5" font-family="Helvetica,sans-Serif" font-size="10.00">_INET6</text>
</a>
</g>
</g>
<!-- Node5&#45;&gt;Node7 -->
<g id="edge6" class="edge">
<title>Node5&#45;&gt;Node7</title>
<path fill="none" stroke="midnightblue" d="M342.13,-226.25C357.24,-228.96 372.92,-231.78 387.74,-234.44"/>
<polygon fill="midnightblue" stroke="midnightblue" points="387.38,-237.93 397.84,-236.25 388.61,-231.04 387.38,-237.93"/>
</g>
<!-- Node8 -->
<g id="node8" class="node">
<title>Node8</title>
<g id="a_node8"><a xlink:href="../../d5/db8/namespaceleanux_1_1net.html#ac002a4fe839bdbd3d3405dac3c01f120" target="_top" xlink:title="Enumerate TCP4 sockets from /proc/net/tcp.">
<polygon fill="none" stroke="red" points="378,-194 378,-213 545,-213 545,-194 378,-194"/>
<text text-anchor="middle" x="461.5" y="-201" font-family="Helvetica,sans-Serif" font-size="10.00">leanux::net::enumTCP4Sockets</text>
</a>
</g>
</g>
<!-- Node5&#45;&gt;Node8 -->
<g id="edge7" class="edge">
<title>Node5&#45;&gt;Node8</title>
<path fill="none" stroke="midnightblue" d="M342.13,-208.22C350.6,-207.88 359.25,-207.54 367.83,-207.2"/>
<polygon fill="midnightblue" stroke="midnightblue" points="368,-210.69 377.85,-206.8 367.72,-203.7 368,-210.69"/>
</g>
<!-- Node10 -->
<g id="node9" class="node">
<title>Node10</title>
<g id="a_node9"><a xlink:href="../../d5/db8/namespaceleanux_1_1net.html#a33866249dbf7e15b43f35f422147f06e" target="_top" xlink:title="Enumerate TCP6 sockets from /proc/net/tcp6.">
<polygon fill="none" stroke="red" points="378,-156 378,-175 545,-175 545,-156 378,-156"/>
<text text-anchor="middle" x="461.5" y="-163" font-family="Helvetica,sans-Serif" font-size="10.00">leanux::net::enumTCP6Sockets</text>
</a>
</g>
</g>
<!-- Node5&#45;&gt;Node10 -->
<g id="edge8" class="edge">
<title>Node5&#45;&gt;Node10</title>
<path fill="none" stroke="midnightblue" d="M325.65,-196.44C352.77,-190.22 383.75,-183.11 409.16,-177.28"/>
<polygon fill="midnightblue" stroke="midnightblue" points="410,-180.68 418.97,-175.03 408.44,-173.85 410,-180.68"/>
</g>
<!-- Node14 -->
<g id="node12" class="node">
<title>Node14</title>
<g id="a_node12"><a xlink:href="../../db/dff/classleanux_1_1persist_1_1Statement.html#a5b31fb14297ad5c1c342cfc0d8f797de" target="_top" xlink:title="A statement handle can be explicitly closed without deleting the Statement object itself.">
<polygon fill="none" stroke="black" points="388.5,-98.5 388.5,-128.5 534.5,-128.5 534.5,-98.5 388.5,-98.5"/>
<text text-anchor="start" x="396.5" y="-116.5" font-family="Helvetica,sans-Serif" font-size="10.00">leanux::persist::Statement</text>
<text text-anchor="middle" x="461.5" y="-105.5" font-family="Helvetica,sans-Serif" font-size="10.00">::close</text>
</a>
</g>
</g>
<!-- Node13&#45;&gt;Node14 -->
<g id="edge11" class="edge">
<title>Node13&#45;&gt;Node14</title>
<path fill="none" stroke="midnightblue" d="M332.1,-113.5C346.97,-113.5 362.74,-113.5 377.94,-113.5"/>
<polygon fill="midnightblue" stroke="midnightblue" points="378.36,-117 388.36,-113.5 378.36,-110 378.36,-117"/>
</g>
</g>
</svg>
