<?xml version="1.0" encoding="UTF-8" standalone="no"?>
<!DOCTYPE svg PUBLIC "-//W3C//DTD SVG 1.1//EN"
 "http://www.w3.org/Graphics/SVG/1.1/DTD/svg11.dtd">
<!-- Generated by graphviz version 2.43.0 (0)
 -->
<!-- Title: leanux::tools::lmon::Header::getOptimalHeight Pages: 1 -->
<svg width="479pt" height="137pt"
 viewBox="0.00 0.00 479.00 137.00" xmlns="http://www.w3.org/2000/svg" xmlns:xlink="http://www.w3.org/1999/xlink">
<g id="graph0" class="graph" transform="scale(1 1) rotate(0) translate(4 133)">
<title>leanux::tools::lmon::Header::getOptimalHeight</title>
<!-- Node1 -->
<g id="node1" class="node">
<title>Node1</title>
<g id="a_node1"><a xlink:title="provide the optimal height for the Header.">
<polygon fill="#bfbfbf" stroke="black" points="320,-49.5 320,-79.5 471,-79.5 471,-49.5 320,-49.5"/>
<text text-anchor="start" x="328" y="-67.5" font-family="Helvetica,sans-Serif" font-size="10.00">leanux::tools::lmon</text>
<text text-anchor="middle" x="395.5" y="-56.5" font-family="Helvetica,sans-Serif" font-size="10.00">::Header::getOptimalHeight</text>
</a>
</g>
</g>
<!-- Node2 -->
<g id="node2" class="node">
<title>Node2</title>
<g id="a_node2"><a xlink:href="../../d5/de6/classleanux_1_1tools_1_1lmon_1_1Screen.html#abcaa706fe703bbf453808220fcaf8263" target="_top" xlink:title="Recalculate the window sizes.">
<polygon fill="none" stroke="black" points="158,-49.5 158,-79.5 284,-79.5 284,-49.5 158,-49.5"/>
<text text-anchor="start" x="166" y="-67.5" font-family="Helvetica,sans-Serif" font-size="10.00">leanux::tools::lmon</text>
<text text-anchor="middle" x="221" y="-56.5" font-family="Helvetica,sans-Serif" font-size="10.00">::Screen::screenResize</text>
</a>
</g>
</g>
<!-- Node1&#45;&gt;Node2 -->
<g id="edge1" class="edge">
<title>Node1&#45;&gt;Node2</title>
<path fill="none" stroke="midnightblue" d="M309.73,-64.5C301.09,-64.5 292.42,-64.5 284.09,-64.5"/>
<polygon fill="midnightblue" stroke="midnightblue" points="309.84,-68 319.84,-64.5 309.84,-61 309.84,-68"/>
</g>
<!-- Node3 -->
<g id="node3" class="node">
<title>Node3</title>
<g id="a_node3"><a xlink:href="../../d5/de6/classleanux_1_1tools_1_1lmon_1_1Screen.html#a010f9459d506af3a4251ea0a644282bd" target="_top" xlink:title="Run the Screen in history mode.">
<polygon fill="none" stroke="red" points="4.5,-98.5 4.5,-128.5 117.5,-128.5 117.5,-98.5 4.5,-98.5"/>
<text text-anchor="start" x="12.5" y="-116.5" font-family="Helvetica,sans-Serif" font-size="10.00">leanux::tools::lmon</text>
<text text-anchor="middle" x="61" y="-105.5" font-family="Helvetica,sans-Serif" font-size="10.00">::Screen::runHistory</text>
</a>
</g>
</g>
<!-- Node2&#45;&gt;Node3 -->
<g id="edge2" class="edge">
<title>Node2&#45;&gt;Node3</title>
<path fill="none" stroke="midnightblue" d="M161.6,-82.61C144.8,-87.82 126.67,-93.45 110.53,-98.45"/>
<polygon fill="midnightblue" stroke="midnightblue" points="162.79,-85.91 171.31,-79.6 160.72,-79.22 162.79,-85.91"/>
</g>
<!-- Node6 -->
<g id="node4" class="node">
<title>Node6</title>
<g id="a_node4"><a xlink:href="../../d5/de6/classleanux_1_1tools_1_1lmon_1_1Screen.html#aa3dfc925603031c15d1cd88405ca3c11" target="_top" xlink:title="Run the Screen in realtime mode.">
<polygon fill="none" stroke="red" points="0,-49.5 0,-79.5 122,-79.5 122,-49.5 0,-49.5"/>
<text text-anchor="start" x="8" y="-67.5" font-family="Helvetica,sans-Serif" font-size="10.00">leanux::tools::lmon</text>
<text text-anchor="middle" x="61" y="-56.5" font-family="Helvetica,sans-Serif" font-size="10.00">::Screen::runRealtime</text>
</a>
</g>
</g>
<!-- Node2&#45;&gt;Node6 -->
<g id="edge3" class="edge">
<title>Node2&#45;&gt;Node6</title>
<path fill="none" stroke="midnightblue" d="M147.36,-64.5C138.93,-64.5 130.42,-64.5 122.19,-64.5"/>
<polygon fill="midnightblue" stroke="midnightblue" points="147.55,-68 157.55,-64.5 147.55,-61 147.55,-68"/>
</g>
<!-- Node7 -->
<g id="node5" class="node">
<title>Node7</title>
<g id="a_node5"><a xlink:href="../../d5/de6/classleanux_1_1tools_1_1lmon_1_1Screen.html#a5fceabd599c083204cf4fc2014694403" target="_top" xlink:title="Constructor.">
<polygon fill="none" stroke="black" points="6,-0.5 6,-30.5 116,-30.5 116,-0.5 6,-0.5"/>
<text text-anchor="start" x="14" y="-18.5" font-family="Helvetica,sans-Serif" font-size="10.00">leanux::tools::lmon</text>
<text text-anchor="middle" x="61" y="-7.5" font-family="Helvetica,sans-Serif" font-size="10.00">::Screen::Screen</text>
</a>
</g>
</g>
<!-- Node2&#45;&gt;Node7 -->
<g id="edge4" class="edge">
<title>Node2&#45;&gt;Node7</title>
<path fill="none" stroke="midnightblue" d="M161.6,-46.39C144.8,-41.18 126.67,-35.55 110.53,-30.55"/>
<polygon fill="midnightblue" stroke="midnightblue" points="160.72,-49.78 171.31,-49.4 162.79,-43.09 160.72,-49.78"/>
</g>
</g>
</svg>
