<?xml version="1.0" encoding="UTF-8" standalone="no"?>
<!DOCTYPE svg PUBLIC "-//W3C//DTD SVG 1.1//EN"
 "http://www.w3.org/Graphics/SVG/1.1/DTD/svg11.dtd">
<!-- Generated by graphviz version 2.43.0 (0)
 -->
<!-- Title: leanux::tools::labbix::zabbifyId Pages: 1 -->
<svg width="580pt" height="405pt"
 viewBox="0.00 0.00 580.00 405.16" xmlns="http://www.w3.org/2000/svg" xmlns:xlink="http://www.w3.org/1999/xlink">
<g id="graph0" class="graph" transform="scale(1 1) rotate(0) translate(4 401.16)">
<title>leanux::tools::labbix::zabbifyId</title>
<!-- Node1 -->
<g id="node1" class="node">
<title>Node1</title>
<g id="a_node1"><a xlink:title=" ">
<polygon fill="#bfbfbf" stroke="black" points="456,-220.5 456,-250.5 572,-250.5 572,-220.5 456,-220.5"/>
<text text-anchor="start" x="464" y="-238.5" font-family="Helvetica,sans-Serif" font-size="10.00">leanux::tools::labbix</text>
<text text-anchor="middle" x="514" y="-227.5" font-family="Helvetica,sans-Serif" font-size="10.00">::zabbifyId</text>
</a>
</g>
</g>
<!-- Node2 -->
<g id="node2" class="node">
<title>Node2</title>
<g id="a_node2"><a xlink:href="../../d2/d89/namespaceleanux_1_1tools_1_1labbix.html#a7c4d8e1b83d12c98c203c40580d1d450" target="_top" xlink:title="generate the JSON zabbix expects.">
<polygon fill="none" stroke="black" points="304,-316.5 304,-346.5 420,-346.5 420,-316.5 304,-316.5"/>
<text text-anchor="start" x="312" y="-334.5" font-family="Helvetica,sans-Serif" font-size="10.00">leanux::tools::labbix</text>
<text text-anchor="middle" x="362" y="-323.5" font-family="Helvetica,sans-Serif" font-size="10.00">::discovery</text>
</a>
</g>
</g>
<!-- Node1&#45;&gt;Node2 -->
<g id="edge1" class="edge">
<title>Node1&#45;&gt;Node2</title>
<path fill="none" stroke="midnightblue" d="M480.51,-256.29C452.25,-274.38 411.96,-300.17 386.66,-316.36"/>
<polygon fill="midnightblue" stroke="midnightblue" points="482.7,-259.05 489.23,-250.71 478.92,-253.15 482.7,-259.05"/>
</g>
<!-- Node5 -->
<g id="node4" class="node">
<title>Node5</title>
<g id="a_node4"><a xlink:href="../../d2/d89/namespaceleanux_1_1tools_1_1labbix.html#a6a00f41ee62469522591d31c13035a0c" target="_top" xlink:title=" ">
<polygon fill="none" stroke="black" points="304,-196.5 304,-226.5 420,-226.5 420,-196.5 304,-196.5"/>
<text text-anchor="start" x="312" y="-214.5" font-family="Helvetica,sans-Serif" font-size="10.00">leanux::tools::labbix</text>
<text text-anchor="middle" x="362" y="-203.5" font-family="Helvetica,sans-Serif" font-size="10.00">::findByZabbix</text>
</a>
</g>
</g>
<!-- Node1&#45;&gt;Node5 -->
<g id="edge3" class="edge">
<title>Node1&#45;&gt;Node5</title>
<path fill="none" stroke="midnightblue" d="M445.97,-224.77C437.46,-223.41 428.81,-222.03 420.47,-220.7"/>
<polygon fill="midnightblue" stroke="midnightblue" points="445.44,-228.23 455.86,-226.36 446.54,-221.32 445.44,-228.23"/>
</g>
<!-- Node3 -->
<g id="node3" class="node">
<title>Node3</title>
<g id="a_node3"><a xlink:href="../../d2/d89/namespaceleanux_1_1tools_1_1labbix.html#a482626b839aaf80a44f973eed61b69a6" target="_top" xlink:title=" ">
<polygon fill="none" stroke="red" points="0,-196.5 0,-226.5 116,-226.5 116,-196.5 0,-196.5"/>
<text text-anchor="start" x="8" y="-214.5" font-family="Helvetica,sans-Serif" font-size="10.00">leanux::tools::labbix</text>
<text text-anchor="middle" x="58" y="-203.5" font-family="Helvetica,sans-Serif" font-size="10.00">::main</text>
</a>
</g>
</g>
<!-- Node2&#45;&gt;Node3 -->
<g id="edge2" class="edge">
<title>Node2&#45;&gt;Node3</title>
<path fill="none" stroke="midnightblue" d="M331.43,-351.97C288.99,-378.58 209.57,-417.82 152,-383.5 93.1,-348.39 69.25,-261.6 61.81,-226.54"/>
<polygon fill="midnightblue" stroke="midnightblue" points="333.39,-354.87 339.91,-346.52 329.6,-348.99 333.39,-354.87"/>
</g>
<!-- Node6 -->
<g id="node5" class="node">
<title>Node6</title>
<g id="a_node5"><a xlink:href="../../d2/d89/namespaceleanux_1_1tools_1_1labbix.html#aea87f0c72ad32fa0b12a485e8f265e3a" target="_top" xlink:title=" ">
<polygon fill="none" stroke="black" points="152,-343.5 152,-373.5 268,-373.5 268,-343.5 152,-343.5"/>
<text text-anchor="start" x="160" y="-361.5" font-family="Helvetica,sans-Serif" font-size="10.00">leanux::tools::labbix</text>
<text text-anchor="middle" x="210" y="-350.5" font-family="Helvetica,sans-Serif" font-size="10.00">::getIOms</text>
</a>
</g>
</g>
<!-- Node5&#45;&gt;Node6 -->
<g id="edge4" class="edge">
<title>Node5&#45;&gt;Node6</title>
<path fill="none" stroke="midnightblue" d="M347.97,-235.68C332.21,-262.93 303.35,-307.01 268,-334.5 263.68,-337.86 258.81,-340.84 253.8,-343.44"/>
<polygon fill="midnightblue" stroke="midnightblue" points="351.12,-237.22 352.99,-226.79 345.02,-233.78 351.12,-237.22"/>
</g>
<!-- Node7 -->
<g id="node6" class="node">
<title>Node7</title>
<g id="a_node6"><a xlink:href="../../d2/d89/namespaceleanux_1_1tools_1_1labbix.html#aa6367c0ce0a9370f9b5b0b2d805f3768" target="_top" xlink:title=" ">
<polygon fill="none" stroke="black" points="152,-294.5 152,-324.5 268,-324.5 268,-294.5 152,-294.5"/>
<text text-anchor="start" x="160" y="-312.5" font-family="Helvetica,sans-Serif" font-size="10.00">leanux::tools::labbix</text>
<text text-anchor="middle" x="210" y="-301.5" font-family="Helvetica,sans-Serif" font-size="10.00">::getIOs</text>
</a>
</g>
</g>
<!-- Node5&#45;&gt;Node7 -->
<g id="edge6" class="edge">
<title>Node5&#45;&gt;Node7</title>
<path fill="none" stroke="midnightblue" d="M337.17,-233.49C319.14,-249.36 293.24,-270.53 268,-285.5 262.55,-288.73 256.59,-291.75 250.63,-294.48"/>
<polygon fill="midnightblue" stroke="midnightblue" points="339.75,-235.88 344.88,-226.61 335.09,-230.66 339.75,-235.88"/>
</g>
<!-- Node8 -->
<g id="node7" class="node">
<title>Node8</title>
<g id="a_node7"><a xlink:href="../../d2/d89/namespaceleanux_1_1tools_1_1labbix.html#a4ed156d3dd393c88023d89cb3de4f327" target="_top" xlink:title=" ">
<polygon fill="none" stroke="black" points="152,-245.5 152,-275.5 268,-275.5 268,-245.5 152,-245.5"/>
<text text-anchor="start" x="160" y="-263.5" font-family="Helvetica,sans-Serif" font-size="10.00">leanux::tools::labbix</text>
<text text-anchor="middle" x="210" y="-252.5" font-family="Helvetica,sans-Serif" font-size="10.00">::getReadms</text>
</a>
</g>
</g>
<!-- Node5&#45;&gt;Node8 -->
<g id="edge8" class="edge">
<title>Node5&#45;&gt;Node8</title>
<path fill="none" stroke="midnightblue" d="M305.1,-229.76C289.28,-234.93 272.25,-240.49 257.08,-245.45"/>
<polygon fill="midnightblue" stroke="midnightblue" points="306.35,-233.03 314.77,-226.6 304.18,-226.38 306.35,-233.03"/>
</g>
<!-- Node9 -->
<g id="node8" class="node">
<title>Node9</title>
<g id="a_node8"><a xlink:href="../../d2/d89/namespaceleanux_1_1tools_1_1labbix.html#a5119e01f3f750e313aa39b2091560502" target="_top" xlink:title=" ">
<polygon fill="none" stroke="black" points="152,-196.5 152,-226.5 268,-226.5 268,-196.5 152,-196.5"/>
<text text-anchor="start" x="160" y="-214.5" font-family="Helvetica,sans-Serif" font-size="10.00">leanux::tools::labbix</text>
<text text-anchor="middle" x="210" y="-203.5" font-family="Helvetica,sans-Serif" font-size="10.00">::getReads</text>
</a>
</g>
</g>
<!-- Node5&#45;&gt;Node9 -->
<g id="edge10" class="edge">
<title>Node5&#45;&gt;Node9</title>
<path fill="none" stroke="midnightblue" d="M293.69,-211.5C285.27,-211.5 276.72,-211.5 268.47,-211.5"/>
<polygon fill="midnightblue" stroke="midnightblue" points="293.86,-215 303.86,-211.5 293.86,-208 293.86,-215"/>
</g>
<!-- Node10 -->
<g id="node9" class="node">
<title>Node10</title>
<g id="a_node9"><a xlink:href="../../d2/d89/namespaceleanux_1_1tools_1_1labbix.html#a2a148cecfe8dcf3c00e0bb19f57044f3" target="_top" xlink:title=" ">
<polygon fill="none" stroke="black" points="152,-147.5 152,-177.5 268,-177.5 268,-147.5 152,-147.5"/>
<text text-anchor="start" x="160" y="-165.5" font-family="Helvetica,sans-Serif" font-size="10.00">leanux::tools::labbix</text>
<text text-anchor="middle" x="210" y="-154.5" font-family="Helvetica,sans-Serif" font-size="10.00">::getReadSectors</text>
</a>
</g>
</g>
<!-- Node5&#45;&gt;Node10 -->
<g id="edge12" class="edge">
<title>Node5&#45;&gt;Node10</title>
<path fill="none" stroke="midnightblue" d="M305.1,-193.24C289.28,-188.07 272.25,-182.51 257.08,-177.55"/>
<polygon fill="midnightblue" stroke="midnightblue" points="304.18,-196.62 314.77,-196.4 306.35,-189.97 304.18,-196.62"/>
</g>
<!-- Node11 -->
<g id="node10" class="node">
<title>Node11</title>
<g id="a_node10"><a xlink:href="../../d2/d89/namespaceleanux_1_1tools_1_1labbix.html#aac6bd9b75ac1a266cc601b0245013aa8" target="_top" xlink:title=" ">
<polygon fill="none" stroke="black" points="152,-98.5 152,-128.5 268,-128.5 268,-98.5 152,-98.5"/>
<text text-anchor="start" x="160" y="-116.5" font-family="Helvetica,sans-Serif" font-size="10.00">leanux::tools::labbix</text>
<text text-anchor="middle" x="210" y="-105.5" font-family="Helvetica,sans-Serif" font-size="10.00">::getWritems</text>
</a>
</g>
</g>
<!-- Node5&#45;&gt;Node11 -->
<g id="edge14" class="edge">
<title>Node5&#45;&gt;Node11</title>
<path fill="none" stroke="midnightblue" d="M336.73,-189.66C318.65,-174.1 292.89,-153.4 268,-138.5 262.07,-134.95 255.54,-131.61 249.08,-128.6"/>
<polygon fill="midnightblue" stroke="midnightblue" points="334.63,-192.47 344.46,-196.4 339.23,-187.19 334.63,-192.47"/>
</g>
<!-- Node12 -->
<g id="node11" class="node">
<title>Node12</title>
<g id="a_node11"><a xlink:href="../../d2/d89/namespaceleanux_1_1tools_1_1labbix.html#ae7137e2b91a00754bf3f74b6cc7be8f0" target="_top" xlink:title=" ">
<polygon fill="none" stroke="black" points="152,-49.5 152,-79.5 268,-79.5 268,-49.5 152,-49.5"/>
<text text-anchor="start" x="160" y="-67.5" font-family="Helvetica,sans-Serif" font-size="10.00">leanux::tools::labbix</text>
<text text-anchor="middle" x="210" y="-56.5" font-family="Helvetica,sans-Serif" font-size="10.00">::getWrites</text>
</a>
</g>
</g>
<!-- Node5&#45;&gt;Node12 -->
<g id="edge16" class="edge">
<title>Node5&#45;&gt;Node12</title>
<path fill="none" stroke="midnightblue" d="M347.85,-187.62C331.98,-160.68 303.02,-117.04 268,-89.5 263.24,-85.76 257.84,-82.46 252.3,-79.59"/>
<polygon fill="midnightblue" stroke="midnightblue" points="344.88,-189.48 352.91,-196.4 350.95,-185.99 344.88,-189.48"/>
</g>
<!-- Node13 -->
<g id="node12" class="node">
<title>Node13</title>
<g id="a_node12"><a xlink:href="../../d2/d89/namespaceleanux_1_1tools_1_1labbix.html#a89bf8cba18d6ec80534e7fbef8b19496" target="_top" xlink:title=" ">
<polygon fill="none" stroke="black" points="152,-0.5 152,-30.5 268,-30.5 268,-0.5 152,-0.5"/>
<text text-anchor="start" x="160" y="-18.5" font-family="Helvetica,sans-Serif" font-size="10.00">leanux::tools::labbix</text>
<text text-anchor="middle" x="210" y="-7.5" font-family="Helvetica,sans-Serif" font-size="10.00">::getWriteSectors</text>
</a>
</g>
</g>
<!-- Node5&#45;&gt;Node13 -->
<g id="edge18" class="edge">
<title>Node5&#45;&gt;Node13</title>
<path fill="none" stroke="midnightblue" d="M353.47,-186.57C341.19,-149.76 313.54,-80.81 268,-39.5 264.26,-36.11 259.98,-33.15 255.47,-30.59"/>
<polygon fill="midnightblue" stroke="midnightblue" points="350.26,-188.02 356.66,-196.47 356.93,-185.88 350.26,-188.02"/>
</g>
<!-- Node6&#45;&gt;Node3 -->
<g id="edge5" class="edge">
<title>Node6&#45;&gt;Node3</title>
<path fill="none" stroke="midnightblue" d="M157.51,-338.41C155.6,-337.17 153.76,-335.87 152,-334.5 112.48,-303.77 81.07,-252.3 67.01,-226.79"/>
<polygon fill="midnightblue" stroke="midnightblue" points="155.79,-341.46 166.2,-343.44 159.3,-335.4 155.79,-341.46"/>
</g>
<!-- Node7&#45;&gt;Node3 -->
<g id="edge7" class="edge">
<title>Node7&#45;&gt;Node3</title>
<path fill="none" stroke="midnightblue" d="M160.22,-290.04C157.4,-288.58 154.64,-287.07 152,-285.5 122.89,-268.24 92.91,-242.72 75.12,-226.61"/>
<polygon fill="midnightblue" stroke="midnightblue" points="158.84,-293.26 169.37,-294.48 161.9,-286.96 158.84,-293.26"/>
</g>
<!-- Node8&#45;&gt;Node3 -->
<g id="edge9" class="edge">
<title>Node8&#45;&gt;Node3</title>
<path fill="none" stroke="midnightblue" d="M153.1,-242.24C137.28,-237.07 120.25,-231.51 105.08,-226.55"/>
<polygon fill="midnightblue" stroke="midnightblue" points="152.18,-245.62 162.77,-245.4 154.35,-238.97 152.18,-245.62"/>
</g>
<!-- Node9&#45;&gt;Node3 -->
<g id="edge11" class="edge">
<title>Node9&#45;&gt;Node3</title>
<path fill="none" stroke="midnightblue" d="M141.69,-211.5C133.27,-211.5 124.72,-211.5 116.47,-211.5"/>
<polygon fill="midnightblue" stroke="midnightblue" points="141.86,-215 151.86,-211.5 141.86,-208 141.86,-215"/>
</g>
<!-- Node10&#45;&gt;Node3 -->
<g id="edge13" class="edge">
<title>Node10&#45;&gt;Node3</title>
<path fill="none" stroke="midnightblue" d="M153.1,-180.76C137.28,-185.93 120.25,-191.49 105.08,-196.45"/>
<polygon fill="midnightblue" stroke="midnightblue" points="154.35,-184.03 162.77,-177.6 152.18,-177.38 154.35,-184.03"/>
</g>
<!-- Node11&#45;&gt;Node3 -->
<g id="edge15" class="edge">
<title>Node11&#45;&gt;Node3</title>
<path fill="none" stroke="midnightblue" d="M161.86,-133.04C158.47,-134.79 155.15,-136.61 152,-138.5 123.29,-155.68 93.44,-180.58 75.54,-196.4"/>
<polygon fill="midnightblue" stroke="midnightblue" points="163.48,-136.14 170.92,-128.6 160.4,-129.86 163.48,-136.14"/>
</g>
<!-- Node12&#45;&gt;Node3 -->
<g id="edge17" class="edge">
<title>Node12&#45;&gt;Node3</title>
<path fill="none" stroke="midnightblue" d="M158.57,-84.84C156.29,-86.31 154.08,-87.86 152,-89.5 112.85,-120.29 81.27,-171.19 67.09,-196.4"/>
<polygon fill="midnightblue" stroke="midnightblue" points="160.78,-87.61 167.7,-79.59 157.29,-81.54 160.78,-87.61"/>
</g>
<!-- Node13&#45;&gt;Node3 -->
<g id="edge19" class="edge">
<title>Node13&#45;&gt;Node3</title>
<path fill="none" stroke="midnightblue" d="M156.04,-36.16C154.63,-37.22 153.28,-38.33 152,-39.5 101.97,-84.89 73.52,-163.65 63.34,-196.47"/>
<polygon fill="midnightblue" stroke="midnightblue" points="158.08,-39 164.53,-30.59 154.25,-33.14 158.08,-39"/>
</g>
</g>
</svg>
