<?xml version="1.0" encoding="UTF-8" standalone="no"?>
<!DOCTYPE svg PUBLIC "-//W3C//DTD SVG 1.1//EN"
 "http://www.w3.org/Graphics/SVG/1.1/DTD/svg11.dtd">
<!-- Generated by graphviz version 2.43.0 (0)
 -->
<!-- Title: leanux::tools::labbix::main Pages: 1 -->
<svg width="642pt" height="537pt"
 viewBox="0.00 0.00 642.00 536.66" xmlns="http://www.w3.org/2000/svg" xmlns:xlink="http://www.w3.org/1999/xlink">
<g id="graph0" class="graph" transform="scale(1 1) rotate(0) translate(4 532.66)">
<title>leanux::tools::labbix::main</title>
<!-- Node1 -->
<g id="node1" class="node">
<title>Node1</title>
<g id="a_node1"><a xlink:title=" ">
<polygon fill="#bfbfbf" stroke="black" points="0,-273.5 0,-303.5 116,-303.5 116,-273.5 0,-273.5"/>
<text text-anchor="start" x="8" y="-291.5" font-family="Helvetica,sans-Serif" font-size="10.00">leanux::tools::labbix</text>
<text text-anchor="middle" x="58" y="-280.5" font-family="Helvetica,sans-Serif" font-size="10.00">::main</text>
</a>
</g>
</g>
<!-- Node2 -->
<g id="node2" class="node">
<title>Node2</title>
<g id="a_node2"><a xlink:href="../../d2/d89/namespaceleanux_1_1tools_1_1labbix.html#a7c4d8e1b83d12c98c203c40580d1d450" target="_top" xlink:title="generate the JSON zabbix expects.">
<polygon fill="none" stroke="black" points="318,-371.5 318,-401.5 434,-401.5 434,-371.5 318,-371.5"/>
<text text-anchor="start" x="326" y="-389.5" font-family="Helvetica,sans-Serif" font-size="10.00">leanux::tools::labbix</text>
<text text-anchor="middle" x="376" y="-378.5" font-family="Helvetica,sans-Serif" font-size="10.00">::discovery</text>
</a>
</g>
</g>
<!-- Node1&#45;&gt;Node2 -->
<g id="edge1" class="edge">
<title>Node1&#45;&gt;Node2</title>
<path fill="none" stroke="midnightblue" d="M59.95,-303.54C63.48,-345.08 79.7,-461.48 152,-509.5 194.95,-538.02 221.08,-530.87 268,-509.5 312.39,-489.28 345.51,-440.54 362.41,-410.84"/>
<polygon fill="midnightblue" stroke="midnightblue" points="365.56,-412.38 367.32,-401.93 359.43,-409 365.56,-412.38"/>
</g>
<!-- Node5 -->
<g id="node5" class="node">
<title>Node5</title>
<g id="a_node5"><a xlink:href="../../d2/d89/namespaceleanux_1_1tools_1_1labbix.html#aea87f0c72ad32fa0b12a485e8f265e3a" target="_top" xlink:title=" ">
<polygon fill="none" stroke="black" points="152,-273.5 152,-303.5 268,-303.5 268,-273.5 152,-273.5"/>
<text text-anchor="start" x="160" y="-291.5" font-family="Helvetica,sans-Serif" font-size="10.00">leanux::tools::labbix</text>
<text text-anchor="middle" x="210" y="-280.5" font-family="Helvetica,sans-Serif" font-size="10.00">::getIOms</text>
</a>
</g>
</g>
<!-- Node1&#45;&gt;Node5 -->
<g id="edge4" class="edge">
<title>Node1&#45;&gt;Node5</title>
<path fill="none" stroke="midnightblue" d="M116.14,-288.5C124.38,-288.5 132.92,-288.5 141.34,-288.5"/>
<polygon fill="midnightblue" stroke="midnightblue" points="141.53,-292 151.53,-288.5 141.53,-285 141.53,-292"/>
</g>
<!-- Node27 -->
<g id="node8" class="node">
<title>Node27</title>
<g id="a_node8"><a xlink:href="../../d2/d89/namespaceleanux_1_1tools_1_1labbix.html#aa6367c0ce0a9370f9b5b0b2d805f3768" target="_top" xlink:title=" ">
<polygon fill="none" stroke="black" points="152,-224.5 152,-254.5 268,-254.5 268,-224.5 152,-224.5"/>
<text text-anchor="start" x="160" y="-242.5" font-family="Helvetica,sans-Serif" font-size="10.00">leanux::tools::labbix</text>
<text text-anchor="middle" x="210" y="-231.5" font-family="Helvetica,sans-Serif" font-size="10.00">::getIOs</text>
</a>
</g>
</g>
<!-- Node1&#45;&gt;Node27 -->
<g id="edge9" class="edge">
<title>Node1&#45;&gt;Node27</title>
<path fill="none" stroke="midnightblue" d="M105.23,-273.4C120.41,-268.44 137.45,-262.87 153.26,-257.71"/>
<polygon fill="midnightblue" stroke="midnightblue" points="154.5,-260.98 162.92,-254.55 152.33,-254.33 154.5,-260.98"/>
</g>
<!-- Node28 -->
<g id="node9" class="node">
<title>Node28</title>
<g id="a_node9"><a xlink:href="../../d2/d89/namespaceleanux_1_1tools_1_1labbix.html#a4ed156d3dd393c88023d89cb3de4f327" target="_top" xlink:title=" ">
<polygon fill="none" stroke="black" points="152,-175.5 152,-205.5 268,-205.5 268,-175.5 152,-175.5"/>
<text text-anchor="start" x="160" y="-193.5" font-family="Helvetica,sans-Serif" font-size="10.00">leanux::tools::labbix</text>
<text text-anchor="middle" x="210" y="-182.5" font-family="Helvetica,sans-Serif" font-size="10.00">::getReadms</text>
</a>
</g>
</g>
<!-- Node1&#45;&gt;Node28 -->
<g id="edge12" class="edge">
<title>Node1&#45;&gt;Node28</title>
<path fill="none" stroke="midnightblue" d="M75.54,-273.4C93.44,-257.58 123.29,-232.68 152,-215.5 155.15,-213.61 158.47,-211.79 161.86,-210.04"/>
<polygon fill="midnightblue" stroke="midnightblue" points="163.48,-213.14 170.92,-205.6 160.4,-206.86 163.48,-213.14"/>
</g>
<!-- Node29 -->
<g id="node10" class="node">
<title>Node29</title>
<g id="a_node10"><a xlink:href="../../d2/d89/namespaceleanux_1_1tools_1_1labbix.html#a5119e01f3f750e313aa39b2091560502" target="_top" xlink:title=" ">
<polygon fill="none" stroke="black" points="152,-126.5 152,-156.5 268,-156.5 268,-126.5 152,-126.5"/>
<text text-anchor="start" x="160" y="-144.5" font-family="Helvetica,sans-Serif" font-size="10.00">leanux::tools::labbix</text>
<text text-anchor="middle" x="210" y="-133.5" font-family="Helvetica,sans-Serif" font-size="10.00">::getReads</text>
</a>
</g>
</g>
<!-- Node1&#45;&gt;Node29 -->
<g id="edge15" class="edge">
<title>Node1&#45;&gt;Node29</title>
<path fill="none" stroke="midnightblue" d="M67.09,-273.4C81.27,-248.19 112.85,-197.29 152,-166.5 154.08,-164.86 156.29,-163.31 158.57,-161.84"/>
<polygon fill="midnightblue" stroke="midnightblue" points="160.78,-164.61 167.7,-156.59 157.29,-158.54 160.78,-164.61"/>
</g>
<!-- Node30 -->
<g id="node11" class="node">
<title>Node30</title>
<g id="a_node11"><a xlink:href="../../d2/d89/namespaceleanux_1_1tools_1_1labbix.html#a2a148cecfe8dcf3c00e0bb19f57044f3" target="_top" xlink:title=" ">
<polygon fill="none" stroke="black" points="152,-469.5 152,-499.5 268,-499.5 268,-469.5 152,-469.5"/>
<text text-anchor="start" x="160" y="-487.5" font-family="Helvetica,sans-Serif" font-size="10.00">leanux::tools::labbix</text>
<text text-anchor="middle" x="210" y="-476.5" font-family="Helvetica,sans-Serif" font-size="10.00">::getReadSectors</text>
</a>
</g>
</g>
<!-- Node1&#45;&gt;Node30 -->
<g id="edge18" class="edge">
<title>Node1&#45;&gt;Node30</title>
<path fill="none" stroke="midnightblue" d="M63.34,-303.53C73.52,-336.35 101.97,-415.11 152,-460.5 153.28,-461.67 154.63,-462.78 156.04,-463.84"/>
<polygon fill="midnightblue" stroke="midnightblue" points="154.25,-466.86 164.53,-469.41 158.08,-461 154.25,-466.86"/>
</g>
<!-- Node31 -->
<g id="node12" class="node">
<title>Node31</title>
<g id="a_node12"><a xlink:href="../../d2/d89/namespaceleanux_1_1tools_1_1labbix.html#aac6bd9b75ac1a266cc601b0245013aa8" target="_top" xlink:title=" ">
<polygon fill="none" stroke="black" points="152,-420.5 152,-450.5 268,-450.5 268,-420.5 152,-420.5"/>
<text text-anchor="start" x="160" y="-438.5" font-family="Helvetica,sans-Serif" font-size="10.00">leanux::tools::labbix</text>
<text text-anchor="middle" x="210" y="-427.5" font-family="Helvetica,sans-Serif" font-size="10.00">::getWritems</text>
</a>
</g>
</g>
<!-- Node1&#45;&gt;Node31 -->
<g id="edge21" class="edge">
<title>Node1&#45;&gt;Node31</title>
<path fill="none" stroke="midnightblue" d="M67.01,-303.79C81.07,-329.3 112.48,-380.77 152,-411.5 153.76,-412.87 155.6,-414.17 157.51,-415.41"/>
<polygon fill="midnightblue" stroke="midnightblue" points="155.79,-418.46 166.2,-420.44 159.3,-412.4 155.79,-418.46"/>
</g>
<!-- Node32 -->
<g id="node13" class="node">
<title>Node32</title>
<g id="a_node13"><a xlink:href="../../d2/d89/namespaceleanux_1_1tools_1_1labbix.html#ae7137e2b91a00754bf3f74b6cc7be8f0" target="_top" xlink:title=" ">
<polygon fill="none" stroke="black" points="152,-371.5 152,-401.5 268,-401.5 268,-371.5 152,-371.5"/>
<text text-anchor="start" x="160" y="-389.5" font-family="Helvetica,sans-Serif" font-size="10.00">leanux::tools::labbix</text>
<text text-anchor="middle" x="210" y="-378.5" font-family="Helvetica,sans-Serif" font-size="10.00">::getWrites</text>
</a>
</g>
</g>
<!-- Node1&#45;&gt;Node32 -->
<g id="edge24" class="edge">
<title>Node1&#45;&gt;Node32</title>
<path fill="none" stroke="midnightblue" d="M75.12,-303.61C92.91,-319.72 122.89,-345.24 152,-362.5 154.64,-364.07 157.4,-365.58 160.22,-367.04"/>
<polygon fill="midnightblue" stroke="midnightblue" points="158.84,-370.26 169.37,-371.48 161.9,-363.96 158.84,-370.26"/>
</g>
<!-- Node33 -->
<g id="node14" class="node">
<title>Node33</title>
<g id="a_node14"><a xlink:href="../../d2/d89/namespaceleanux_1_1tools_1_1labbix.html#a89bf8cba18d6ec80534e7fbef8b19496" target="_top" xlink:title=" ">
<polygon fill="none" stroke="black" points="152,-322.5 152,-352.5 268,-352.5 268,-322.5 152,-322.5"/>
<text text-anchor="start" x="160" y="-340.5" font-family="Helvetica,sans-Serif" font-size="10.00">leanux::tools::labbix</text>
<text text-anchor="middle" x="210" y="-329.5" font-family="Helvetica,sans-Serif" font-size="10.00">::getWriteSectors</text>
</a>
</g>
</g>
<!-- Node1&#45;&gt;Node33 -->
<g id="edge27" class="edge">
<title>Node1&#45;&gt;Node33</title>
<path fill="none" stroke="midnightblue" d="M105.23,-303.6C120.41,-308.56 137.45,-314.13 153.26,-319.29"/>
<polygon fill="midnightblue" stroke="midnightblue" points="152.33,-322.67 162.92,-322.45 154.5,-316.02 152.33,-322.67"/>
</g>
<!-- Node34 -->
<g id="node15" class="node">
<title>Node34</title>
<g id="a_node15"><a xlink:href="../../d2/dd1/namespaceleanux.html#a757c5a3a5fb84a0ab93de54fd0c8db30" target="_top" xlink:title="Initialize leanux, run checks to verify leanux is compatible with the runtime environment.">
<polygon fill="none" stroke="black" points="174.5,-88 174.5,-107 245.5,-107 245.5,-88 174.5,-88"/>
<text text-anchor="middle" x="210" y="-95" font-family="Helvetica,sans-Serif" font-size="10.00">leanux::init</text>
</a>
</g>
</g>
<!-- Node1&#45;&gt;Node34 -->
<g id="edge30" class="edge">
<title>Node1&#45;&gt;Node34</title>
<path fill="none" stroke="midnightblue" d="M63.16,-273.32C73,-240.24 100.78,-161.08 152,-117.5 155.89,-114.19 160.37,-111.41 165.07,-109.09"/>
<polygon fill="midnightblue" stroke="midnightblue" points="166.46,-112.3 174.28,-105.15 163.71,-105.86 166.46,-112.3"/>
</g>
<!-- Node45 -->
<g id="node22" class="node">
<title>Node45</title>
<g id="a_node22"><a xlink:href="../../d2/d89/namespaceleanux_1_1tools_1_1labbix.html#aa9560a2d58ad47ea7d4a006c6cc6f92e" target="_top" xlink:title=" ">
<polygon fill="none" stroke="black" points="152,-38.5 152,-68.5 268,-68.5 268,-38.5 152,-38.5"/>
<text text-anchor="start" x="160" y="-56.5" font-family="Helvetica,sans-Serif" font-size="10.00">leanux::tools::labbix</text>
<text text-anchor="middle" x="210" y="-45.5" font-family="Helvetica,sans-Serif" font-size="10.00">::printHelp</text>
</a>
</g>
</g>
<!-- Node1&#45;&gt;Node45 -->
<g id="edge39" class="edge">
<title>Node1&#45;&gt;Node45</title>
<path fill="none" stroke="midnightblue" d="M61.76,-273.41C69.41,-235.66 94.24,-136.06 152,-78.5 153.44,-77.07 154.97,-75.72 156.57,-74.43"/>
<polygon fill="midnightblue" stroke="midnightblue" points="158.82,-77.13 165.11,-68.6 154.88,-71.35 158.82,-77.13"/>
</g>
<!-- Node3 -->
<g id="node3" class="node">
<title>Node3</title>
<g id="a_node3"><a xlink:href="../../d5/d01/namespaceleanux_1_1block.html#ac08a21002b48cb1bbfaf8d77b4aac5f6" target="_top" xlink:title="get a list of whole disks (exclude partitions).">
<polygon fill="none" stroke="black" points="486,-322.5 486,-352.5 632,-352.5 632,-322.5 486,-322.5"/>
<text text-anchor="start" x="494" y="-340.5" font-family="Helvetica,sans-Serif" font-size="10.00">leanux::block::enumWhole</text>
<text text-anchor="middle" x="559" y="-329.5" font-family="Helvetica,sans-Serif" font-size="10.00">Disks</text>
</a>
</g>
</g>
<!-- Node2&#45;&gt;Node3 -->
<g id="edge2" class="edge">
<title>Node2&#45;&gt;Node3</title>
<path fill="none" stroke="midnightblue" d="M432.78,-371.4C451.71,-366.27 473.02,-360.5 492.63,-355.2"/>
<polygon fill="midnightblue" stroke="midnightblue" points="493.66,-358.54 502.4,-352.55 491.83,-351.79 493.66,-358.54"/>
</g>
<!-- Node4 -->
<g id="node4" class="node">
<title>Node4</title>
<g id="a_node4"><a xlink:href="../../d2/d89/namespaceleanux_1_1tools_1_1labbix.html#a1a520e8210d7e2d3fad08b31e5e4db4d" target="_top" xlink:title=" ">
<polygon fill="none" stroke="black" points="501,-371.5 501,-401.5 617,-401.5 617,-371.5 501,-371.5"/>
<text text-anchor="start" x="509" y="-389.5" font-family="Helvetica,sans-Serif" font-size="10.00">leanux::tools::labbix</text>
<text text-anchor="middle" x="559" y="-378.5" font-family="Helvetica,sans-Serif" font-size="10.00">::zabbifyId</text>
</a>
</g>
</g>
<!-- Node2&#45;&gt;Node4 -->
<g id="edge3" class="edge">
<title>Node2&#45;&gt;Node4</title>
<path fill="none" stroke="midnightblue" d="M434.27,-386.5C452.18,-386.5 472.12,-386.5 490.66,-386.5"/>
<polygon fill="midnightblue" stroke="midnightblue" points="490.79,-390 500.79,-386.5 490.79,-383 490.79,-390"/>
</g>
<!-- Node6 -->
<g id="node6" class="node">
<title>Node6</title>
<g id="a_node6"><a xlink:href="../../d2/d89/namespaceleanux_1_1tools_1_1labbix.html#a6a00f41ee62469522591d31c13035a0c" target="_top" xlink:title=" ">
<polygon fill="none" stroke="black" points="318,-322.5 318,-352.5 434,-352.5 434,-322.5 318,-322.5"/>
<text text-anchor="start" x="326" y="-340.5" font-family="Helvetica,sans-Serif" font-size="10.00">leanux::tools::labbix</text>
<text text-anchor="middle" x="376" y="-329.5" font-family="Helvetica,sans-Serif" font-size="10.00">::findByZabbix</text>
</a>
</g>
</g>
<!-- Node5&#45;&gt;Node6 -->
<g id="edge5" class="edge">
<title>Node5&#45;&gt;Node6</title>
<path fill="none" stroke="midnightblue" d="M261.54,-303.6C278.46,-308.66 297.48,-314.34 315.04,-319.58"/>
<polygon fill="midnightblue" stroke="midnightblue" points="314.04,-322.94 324.62,-322.45 316.04,-316.23 314.04,-322.94"/>
</g>
<!-- Node7 -->
<g id="node7" class="node">
<title>Node7</title>
<g id="a_node7"><a xlink:href="../../d7/d28/classleanux_1_1block_1_1MajorMinor.html#a314abee5e9b9cc4c609d54e61103863a" target="_top" xlink:title="get performance statistics for the block device specified by MajorMinor.">
<polygon fill="none" stroke="red" points="304.5,-273.5 304.5,-303.5 447.5,-303.5 447.5,-273.5 304.5,-273.5"/>
<text text-anchor="start" x="312.5" y="-291.5" font-family="Helvetica,sans-Serif" font-size="10.00">leanux::block::MajorMinor</text>
<text text-anchor="middle" x="376" y="-280.5" font-family="Helvetica,sans-Serif" font-size="10.00">::getStats</text>
</a>
</g>
</g>
<!-- Node5&#45;&gt;Node7 -->
<g id="edge8" class="edge">
<title>Node5&#45;&gt;Node7</title>
<path fill="none" stroke="midnightblue" d="M268.36,-288.5C276.72,-288.5 285.47,-288.5 294.19,-288.5"/>
<polygon fill="midnightblue" stroke="midnightblue" points="294.4,-292 304.4,-288.5 294.4,-285 294.4,-292"/>
</g>
<!-- Node6&#45;&gt;Node3 -->
<g id="edge6" class="edge">
<title>Node6&#45;&gt;Node3</title>
<path fill="none" stroke="midnightblue" d="M434.27,-337.5C447.44,-337.5 461.7,-337.5 475.69,-337.5"/>
<polygon fill="midnightblue" stroke="midnightblue" points="475.81,-341 485.81,-337.5 475.81,-334 475.81,-341"/>
</g>
<!-- Node6&#45;&gt;Node4 -->
<g id="edge7" class="edge">
<title>Node6&#45;&gt;Node4</title>
<path fill="none" stroke="midnightblue" d="M432.78,-352.6C451.71,-357.73 473.02,-363.5 492.63,-368.8"/>
<polygon fill="midnightblue" stroke="midnightblue" points="491.83,-372.21 502.4,-371.45 493.66,-365.46 491.83,-372.21"/>
</g>
<!-- Node27&#45;&gt;Node6 -->
<g id="edge10" class="edge">
<title>Node27&#45;&gt;Node6</title>
<path fill="none" stroke="midnightblue" d="M252.36,-254.51C257.89,-257.39 263.28,-260.72 268,-264.5 289.09,-281.39 282.19,-297.55 304,-313.5 305.88,-314.87 307.84,-316.17 309.86,-317.4"/>
<polygon fill="midnightblue" stroke="midnightblue" points="308.61,-320.7 319.08,-322.34 311.92,-314.53 308.61,-320.7"/>
</g>
<!-- Node27&#45;&gt;Node7 -->
<g id="edge11" class="edge">
<title>Node27&#45;&gt;Node7</title>
<path fill="none" stroke="midnightblue" d="M261.54,-254.6C278.46,-259.66 297.48,-265.34 315.04,-270.58"/>
<polygon fill="midnightblue" stroke="midnightblue" points="314.04,-273.94 324.62,-273.45 316.04,-267.23 314.04,-273.94"/>
</g>
<!-- Node28&#45;&gt;Node6 -->
<g id="edge13" class="edge">
<title>Node28&#45;&gt;Node6</title>
<path fill="none" stroke="midnightblue" d="M255.42,-205.54C260.05,-208.35 264.37,-211.64 268,-215.5 299.79,-249.3 270.76,-281.12 304,-313.5 305.63,-315.09 307.36,-316.57 309.19,-317.95"/>
<polygon fill="midnightblue" stroke="midnightblue" points="307.36,-320.94 317.66,-323.41 311.15,-315.05 307.36,-320.94"/>
</g>
<!-- Node28&#45;&gt;Node7 -->
<g id="edge14" class="edge">
<title>Node28&#45;&gt;Node7</title>
<path fill="none" stroke="midnightblue" d="M247.98,-205.52C254.75,-208.61 261.67,-211.99 268,-215.5 296.01,-231.02 325.96,-251.86 347.03,-267.3"/>
<polygon fill="midnightblue" stroke="midnightblue" points="345.08,-270.21 355.2,-273.34 349.25,-264.58 345.08,-270.21"/>
</g>
<!-- Node29&#45;&gt;Node6 -->
<g id="edge16" class="edge">
<title>Node29&#45;&gt;Node6</title>
<path fill="none" stroke="midnightblue" d="M256.41,-156.51C260.74,-159.31 264.73,-162.61 268,-166.5 311.27,-218 258.52,-263.94 304,-313.5 305.61,-315.25 307.35,-316.88 309.19,-318.38"/>
<polygon fill="midnightblue" stroke="midnightblue" points="307.63,-321.55 317.88,-324.26 311.56,-315.75 307.63,-321.55"/>
</g>
<!-- Node29&#45;&gt;Node7 -->
<g id="edge17" class="edge">
<title>Node29&#45;&gt;Node7</title>
<path fill="none" stroke="midnightblue" d="M253.97,-156.64C259.01,-159.46 263.83,-162.73 268,-166.5 292.19,-188.41 283,-205.52 304,-230.5 315.62,-244.32 330.89,-257.28 344.28,-267.43"/>
<polygon fill="midnightblue" stroke="midnightblue" points="342.21,-270.25 352.33,-273.37 346.36,-264.62 342.21,-270.25"/>
</g>
<!-- Node30&#45;&gt;Node6 -->
<g id="edge19" class="edge">
<title>Node30&#45;&gt;Node6</title>
<path fill="none" stroke="midnightblue" d="M256.82,-469.41C260.91,-466.87 264.74,-463.92 268,-460.5 300.04,-426.94 270.97,-395.09 304,-362.5 305.66,-360.86 307.44,-359.33 309.31,-357.89"/>
<polygon fill="midnightblue" stroke="midnightblue" points="311.53,-360.62 317.99,-352.23 307.7,-354.76 311.53,-360.62"/>
</g>
<!-- Node30&#45;&gt;Node7 -->
<g id="edge20" class="edge">
<title>Node30&#45;&gt;Node7</title>
<path fill="none" stroke="midnightblue" d="M257.77,-469.42C261.57,-466.88 265.07,-463.93 268,-460.5 311.65,-409.32 258.83,-363.34 304,-313.5 305.21,-312.17 306.49,-310.91 307.83,-309.71"/>
<polygon fill="midnightblue" stroke="midnightblue" points="310.18,-312.33 316.16,-303.59 306.03,-306.7 310.18,-312.33"/>
</g>
<!-- Node31&#45;&gt;Node6 -->
<g id="edge22" class="edge">
<title>Node31&#45;&gt;Node6</title>
<path fill="none" stroke="midnightblue" d="M254.14,-420.35C259.04,-417.77 263.78,-414.82 268,-411.5 289.22,-394.76 282.29,-378.59 304,-362.5 306.49,-360.65 309.13,-358.93 311.87,-357.33"/>
<polygon fill="midnightblue" stroke="midnightblue" points="313.65,-360.35 320.9,-352.62 310.41,-354.15 313.65,-360.35"/>
</g>
<!-- Node31&#45;&gt;Node7 -->
<g id="edge23" class="edge">
<title>Node31&#45;&gt;Node7</title>
<path fill="none" stroke="midnightblue" d="M256.82,-420.41C260.91,-417.87 264.74,-414.92 268,-411.5 300.04,-377.94 270.97,-346.09 304,-313.5 305.47,-312.05 307.02,-310.69 308.64,-309.41"/>
<polygon fill="midnightblue" stroke="midnightblue" points="310.93,-312.09 317.3,-303.62 307.04,-306.27 310.93,-312.09"/>
</g>
<!-- Node32&#45;&gt;Node6 -->
<g id="edge25" class="edge">
<title>Node32&#45;&gt;Node6</title>
<path fill="none" stroke="midnightblue" d="M261.54,-371.4C278.46,-366.34 297.48,-360.66 315.04,-355.42"/>
<polygon fill="midnightblue" stroke="midnightblue" points="316.04,-358.77 324.62,-352.55 314.04,-352.06 316.04,-358.77"/>
</g>
<!-- Node32&#45;&gt;Node7 -->
<g id="edge26" class="edge">
<title>Node32&#45;&gt;Node7</title>
<path fill="none" stroke="midnightblue" d="M254.14,-371.35C259.04,-368.77 263.78,-365.82 268,-362.5 289.22,-345.76 282.29,-329.59 304,-313.5 306.49,-311.65 309.13,-309.93 311.87,-308.33"/>
<polygon fill="midnightblue" stroke="midnightblue" points="313.65,-311.35 320.9,-303.62 310.41,-305.15 313.65,-311.35"/>
</g>
<!-- Node33&#45;&gt;Node6 -->
<g id="edge28" class="edge">
<title>Node33&#45;&gt;Node6</title>
<path fill="none" stroke="midnightblue" d="M268.36,-337.5C281.04,-337.5 294.59,-337.5 307.63,-337.5"/>
<polygon fill="midnightblue" stroke="midnightblue" points="307.95,-341 317.95,-337.5 307.95,-334 307.95,-341"/>
</g>
<!-- Node33&#45;&gt;Node7 -->
<g id="edge29" class="edge">
<title>Node33&#45;&gt;Node7</title>
<path fill="none" stroke="midnightblue" d="M261.54,-322.4C278.46,-317.34 297.48,-311.66 315.04,-306.42"/>
<polygon fill="midnightblue" stroke="midnightblue" points="316.04,-309.77 324.62,-303.55 314.04,-303.06 316.04,-309.77"/>
</g>
<!-- Node35 -->
<g id="node16" class="node">
<title>Node35</title>
<g id="a_node16"><a xlink:href="../../d8/db1/namespaceleanux_1_1util.html#a6ac7287d49f3dd9b2c6c9673257e145b" target="_top" xlink:title="Test if the path is an existing directory.">
<polygon fill="none" stroke="black" points="484,-69 484,-88 634,-88 634,-69 484,-69"/>
<text text-anchor="middle" x="559" y="-76" font-family="Helvetica,sans-Serif" font-size="10.00">leanux::util::directoryExists</text>
</a>
</g>
</g>
<!-- Node34&#45;&gt;Node35 -->
<g id="edge31" class="edge">
<title>Node34&#45;&gt;Node35</title>
<path fill="none" stroke="midnightblue" d="M245.63,-88.69C263.02,-84.72 284.49,-80.47 304,-78.5 360.44,-72.79 424.29,-72.82 473.86,-74.26"/>
<polygon fill="midnightblue" stroke="midnightblue" points="473.79,-77.76 483.89,-74.58 474.01,-70.77 473.79,-77.76"/>
</g>
<!-- Node36 -->
<g id="node17" class="node">
<title>Node36</title>
<g id="a_node17"><a xlink:href="../../dd/d42/namespaceleanux_1_1system.html#a019837e625c4eedcc1e09de84a56d5b8" target="_top" xlink:title="Get the kernel version.">
<polygon fill="none" stroke="black" points="304,-0.5 304,-30.5 448,-30.5 448,-0.5 304,-0.5"/>
<text text-anchor="start" x="312" y="-18.5" font-family="Helvetica,sans-Serif" font-size="10.00">leanux::system::getKernel</text>
<text text-anchor="middle" x="376" y="-7.5" font-family="Helvetica,sans-Serif" font-size="10.00">Version</text>
</a>
</g>
</g>
<!-- Node34&#45;&gt;Node36 -->
<g id="edge32" class="edge">
<title>Node34&#45;&gt;Node36</title>
<path fill="none" stroke="midnightblue" d="M245.13,-87.96C252.91,-85.13 260.95,-81.65 268,-77.5 286.45,-66.64 285.9,-56.93 304,-45.5 310.15,-41.62 316.88,-38.04 323.67,-34.8"/>
<polygon fill="midnightblue" stroke="midnightblue" points="325.27,-37.92 332.93,-30.6 322.38,-31.54 325.27,-37.92"/>
</g>
<!-- Node37 -->
<g id="node18" class="node">
<title>Node37</title>
<g id="a_node18"><a xlink:href="../../d5/db8/namespaceleanux_1_1net.html#a81d90730109735bfefa2835d31152cd1" target="_top" xlink:title="initialize net library">
<polygon fill="none" stroke="red" points="329.5,-202 329.5,-221 422.5,-221 422.5,-202 329.5,-202"/>
<text text-anchor="middle" x="376" y="-209" font-family="Helvetica,sans-Serif" font-size="10.00">leanux::net::init</text>
</a>
</g>
</g>
<!-- Node34&#45;&gt;Node37 -->
<g id="edge33" class="edge">
<title>Node34&#45;&gt;Node37</title>
<path fill="none" stroke="midnightblue" d="M245.62,-104.82C253.64,-107.75 261.67,-111.83 268,-117.5 295.54,-142.17 275.54,-168.9 304,-192.5 308.66,-196.36 314.02,-199.44 319.68,-201.9"/>
<polygon fill="midnightblue" stroke="midnightblue" points="318.8,-205.31 329.39,-205.48 321.22,-198.74 318.8,-205.31"/>
</g>
<!-- Node39 -->
<g id="node19" class="node">
<title>Node39</title>
<g id="a_node19"><a xlink:href="../../de/d5d/namespaceleanux_1_1pci.html#ac2e2e3d7c732711d93a166699f2dcff3" target="_top" xlink:title="Initialize pci namespace.">
<polygon fill="none" stroke="red" points="330,-164 330,-183 422,-183 422,-164 330,-164"/>
<text text-anchor="middle" x="376" y="-171" font-family="Helvetica,sans-Serif" font-size="10.00">leanux::pci::init</text>
</a>
</g>
</g>
<!-- Node34&#45;&gt;Node39 -->
<g id="edge34" class="edge">
<title>Node34&#45;&gt;Node39</title>
<path fill="none" stroke="midnightblue" d="M245.65,-106.79C253.33,-109.61 261.19,-113.15 268,-117.5 287.34,-129.85 284.21,-142.9 304,-154.5 309.08,-157.48 314.63,-160 320.32,-162.13"/>
<polygon fill="midnightblue" stroke="midnightblue" points="319.38,-165.51 329.97,-165.36 321.6,-158.87 319.38,-165.51"/>
</g>
<!-- Node40 -->
<g id="node20" class="node">
<title>Node40</title>
<g id="a_node20"><a xlink:href="../../d5/d9c/namespaceleanux_1_1usb.html#abd98dfc77cb6924be71589e8e2e4dc50" target="_top" xlink:title="initialize usb namespace.">
<polygon fill="none" stroke="red" points="328.5,-126 328.5,-145 423.5,-145 423.5,-126 328.5,-126"/>
<text text-anchor="middle" x="376" y="-133" font-family="Helvetica,sans-Serif" font-size="10.00">leanux::usb::init</text>
</a>
</g>
</g>
<!-- Node34&#45;&gt;Node40 -->
<g id="edge35" class="edge">
<title>Node34&#45;&gt;Node40</title>
<path fill="none" stroke="midnightblue" d="M245.78,-105.56C268.52,-110.83 298.62,-117.8 324.04,-123.69"/>
<polygon fill="midnightblue" stroke="midnightblue" points="323.36,-127.13 333.89,-125.98 324.94,-120.31 323.36,-127.13"/>
</g>
<!-- Node41 -->
<g id="node21" class="node">
<title>Node41</title>
<g id="a_node21"><a xlink:href="../../d5/d01/namespaceleanux_1_1block.html#a927d958ef9b9b66a13c32754e91d0c7d" target="_top" xlink:title="Initialize the block API.">
<polygon fill="none" stroke="red" points="324,-88 324,-107 428,-107 428,-88 324,-88"/>
<text text-anchor="middle" x="376" y="-95" font-family="Helvetica,sans-Serif" font-size="10.00">leanux::block::init</text>
</a>
</g>
</g>
<!-- Node34&#45;&gt;Node41 -->
<g id="edge36" class="edge">
<title>Node34&#45;&gt;Node41</title>
<path fill="none" stroke="midnightblue" d="M245.78,-97.5C265.52,-97.5 290.8,-97.5 313.75,-97.5"/>
<polygon fill="midnightblue" stroke="midnightblue" points="313.76,-101 323.76,-97.5 313.76,-94 313.76,-101"/>
</g>
<!-- Node41&#45;&gt;Node3 -->
<g id="edge38" class="edge">
<title>Node41&#45;&gt;Node3</title>
<path fill="none" stroke="midnightblue" d="M428.07,-105.47C435.26,-108.16 442.17,-111.74 448,-116.5 511.59,-168.48 541.62,-266.48 552.7,-312.47"/>
<polygon fill="midnightblue" stroke="midnightblue" points="549.35,-313.52 555,-322.48 556.17,-311.95 549.35,-313.52"/>
</g>
<!-- Node41&#45;&gt;Node35 -->
<g id="edge37" class="edge">
<title>Node41&#45;&gt;Node35</title>
<path fill="none" stroke="midnightblue" d="M428.38,-92.11C442.53,-90.62 458.25,-88.97 473.74,-87.35"/>
<polygon fill="midnightblue" stroke="midnightblue" points="474.27,-90.81 483.85,-86.28 473.54,-83.85 474.27,-90.81"/>
</g>
</g>
</svg>
