<?xml version="1.0" encoding="UTF-8" standalone="no"?>
<!DOCTYPE svg PUBLIC "-//W3C//DTD SVG 1.1//EN"
 "http://www.w3.org/Graphics/SVG/1.1/DTD/svg11.dtd">
<!-- Generated by graphviz version 2.43.0 (0)
 -->
<!-- Title: leanux::tools::labbix::getReadms Pages: 1 -->
<svg width="485pt" height="284pt"
 viewBox="0.00 0.00 485.00 284.00" xmlns="http://www.w3.org/2000/svg" xmlns:xlink="http://www.w3.org/1999/xlink">
<g id="graph0" class="graph" transform="scale(1 1) rotate(0) translate(4 280)">
<title>leanux::tools::labbix::getReadms</title>
<!-- Node1 -->
<g id="node1" class="node">
<title>Node1</title>
<g id="a_node1"><a xlink:title=" ">
<polygon fill="#bfbfbf" stroke="black" points="0,-147.5 0,-177.5 116,-177.5 116,-147.5 0,-147.5"/>
<text text-anchor="start" x="8" y="-165.5" font-family="Helvetica,sans-Serif" font-size="10.00">leanux::tools::labbix</text>
<text text-anchor="middle" x="58" y="-154.5" font-family="Helvetica,sans-Serif" font-size="10.00">::getReadms</text>
</a>
</g>
</g>
<!-- Node2 -->
<g id="node2" class="node">
<title>Node2</title>
<g id="a_node2"><a xlink:href="../../d2/d89/namespaceleanux_1_1tools_1_1labbix.html#a6a00f41ee62469522591d31c13035a0c" target="_top" xlink:title=" ">
<polygon fill="none" stroke="black" points="165.5,-196.5 165.5,-226.5 281.5,-226.5 281.5,-196.5 165.5,-196.5"/>
<text text-anchor="start" x="173.5" y="-214.5" font-family="Helvetica,sans-Serif" font-size="10.00">leanux::tools::labbix</text>
<text text-anchor="middle" x="223.5" y="-203.5" font-family="Helvetica,sans-Serif" font-size="10.00">::findByZabbix</text>
</a>
</g>
</g>
<!-- Node1&#45;&gt;Node2 -->
<g id="edge1" class="edge">
<title>Node1&#45;&gt;Node2</title>
<path fill="none" stroke="midnightblue" d="M109.39,-177.6C126.1,-182.61 144.86,-188.23 162.24,-193.44"/>
<polygon fill="midnightblue" stroke="midnightblue" points="161.69,-196.93 172.28,-196.45 163.7,-190.22 161.69,-196.93"/>
</g>
<!-- Node5 -->
<g id="node5" class="node">
<title>Node5</title>
<g id="a_node5"><a xlink:href="../../d7/d28/classleanux_1_1block_1_1MajorMinor.html#a314abee5e9b9cc4c609d54e61103863a" target="_top" xlink:title="get performance statistics for the block device specified by MajorMinor.">
<polygon fill="none" stroke="black" points="152,-98.5 152,-128.5 295,-128.5 295,-98.5 152,-98.5"/>
<text text-anchor="start" x="160" y="-116.5" font-family="Helvetica,sans-Serif" font-size="10.00">leanux::block::MajorMinor</text>
<text text-anchor="middle" x="223.5" y="-105.5" font-family="Helvetica,sans-Serif" font-size="10.00">::getStats</text>
</a>
</g>
</g>
<!-- Node1&#45;&gt;Node5 -->
<g id="edge4" class="edge">
<title>Node1&#45;&gt;Node5</title>
<path fill="none" stroke="midnightblue" d="M109.39,-147.4C126.1,-142.39 144.86,-136.77 162.24,-131.56"/>
<polygon fill="midnightblue" stroke="midnightblue" points="163.7,-134.78 172.28,-128.55 161.69,-128.07 163.7,-134.78"/>
</g>
<!-- Node3 -->
<g id="node3" class="node">
<title>Node3</title>
<g id="a_node3"><a xlink:href="../../d5/d01/namespaceleanux_1_1block.html#ac08a21002b48cb1bbfaf8d77b4aac5f6" target="_top" xlink:title="get a list of whole disks (exclude partitions).">
<polygon fill="none" stroke="black" points="331,-245.5 331,-275.5 477,-275.5 477,-245.5 331,-245.5"/>
<text text-anchor="start" x="339" y="-263.5" font-family="Helvetica,sans-Serif" font-size="10.00">leanux::block::enumWhole</text>
<text text-anchor="middle" x="404" y="-252.5" font-family="Helvetica,sans-Serif" font-size="10.00">Disks</text>
</a>
</g>
</g>
<!-- Node2&#45;&gt;Node3 -->
<g id="edge2" class="edge">
<title>Node2&#45;&gt;Node3</title>
<path fill="none" stroke="midnightblue" d="M279.51,-226.6C298.09,-231.7 319.01,-237.44 338.27,-242.73"/>
<polygon fill="midnightblue" stroke="midnightblue" points="337.6,-246.18 348.17,-245.45 339.45,-239.43 337.6,-246.18"/>
</g>
<!-- Node4 -->
<g id="node4" class="node">
<title>Node4</title>
<g id="a_node4"><a xlink:href="../../d2/d89/namespaceleanux_1_1tools_1_1labbix.html#a1a520e8210d7e2d3fad08b31e5e4db4d" target="_top" xlink:title=" ">
<polygon fill="none" stroke="black" points="346,-196.5 346,-226.5 462,-226.5 462,-196.5 346,-196.5"/>
<text text-anchor="start" x="354" y="-214.5" font-family="Helvetica,sans-Serif" font-size="10.00">leanux::tools::labbix</text>
<text text-anchor="middle" x="404" y="-203.5" font-family="Helvetica,sans-Serif" font-size="10.00">::zabbifyId</text>
</a>
</g>
</g>
<!-- Node2&#45;&gt;Node4 -->
<g id="edge3" class="edge">
<title>Node2&#45;&gt;Node4</title>
<path fill="none" stroke="midnightblue" d="M281.96,-211.5C299.09,-211.5 318.01,-211.5 335.7,-211.5"/>
<polygon fill="midnightblue" stroke="midnightblue" points="335.95,-215 345.95,-211.5 335.95,-208 335.95,-215"/>
</g>
<!-- Node6 -->
<g id="node6" class="node">
<title>Node6</title>
<g id="a_node6"><a xlink:href="../../d7/d28/classleanux_1_1block_1_1MajorMinor.html#aec5c9aa75e9cb579163989cece64adc7" target="_top" xlink:title="Get SCSI iodone_cnt (number of SCSI IO completions)">
<polygon fill="none" stroke="red" points="332.5,-147.5 332.5,-177.5 475.5,-177.5 475.5,-147.5 332.5,-147.5"/>
<text text-anchor="start" x="340.5" y="-165.5" font-family="Helvetica,sans-Serif" font-size="10.00">leanux::block::MajorMinor</text>
<text text-anchor="middle" x="404" y="-154.5" font-family="Helvetica,sans-Serif" font-size="10.00">::getSCSIIODone</text>
</a>
</g>
</g>
<!-- Node5&#45;&gt;Node6 -->
<g id="edge5" class="edge">
<title>Node5&#45;&gt;Node6</title>
<path fill="none" stroke="midnightblue" d="M279.51,-128.6C298.09,-133.7 319.01,-139.44 338.27,-144.73"/>
<polygon fill="midnightblue" stroke="midnightblue" points="337.6,-148.18 348.17,-147.45 339.45,-141.43 337.6,-148.18"/>
</g>
<!-- Node12 -->
<g id="node7" class="node">
<title>Node12</title>
<g id="a_node7"><a xlink:href="../../d7/d28/classleanux_1_1block_1_1MajorMinor.html#ab3f52da181b760aa9d9240c08beb8ae8" target="_top" xlink:title="Get SCSI ioerr_cnt (number of SCSI IO errors)">
<polygon fill="none" stroke="red" points="332.5,-98.5 332.5,-128.5 475.5,-128.5 475.5,-98.5 332.5,-98.5"/>
<text text-anchor="start" x="340.5" y="-116.5" font-family="Helvetica,sans-Serif" font-size="10.00">leanux::block::MajorMinor</text>
<text text-anchor="middle" x="404" y="-105.5" font-family="Helvetica,sans-Serif" font-size="10.00">::getSCSIIOError</text>
</a>
</g>
</g>
<!-- Node5&#45;&gt;Node12 -->
<g id="edge6" class="edge">
<title>Node5&#45;&gt;Node12</title>
<path fill="none" stroke="midnightblue" d="M295.05,-113.5C303.97,-113.5 313.15,-113.5 322.22,-113.5"/>
<polygon fill="midnightblue" stroke="midnightblue" points="322.38,-117 332.38,-113.5 322.38,-110 322.38,-117"/>
</g>
<!-- Node13 -->
<g id="node8" class="node">
<title>Node13</title>
<g id="a_node8"><a xlink:href="../../d7/d28/classleanux_1_1block_1_1MajorMinor.html#a0c501b00fcddef5167f8f4e4f98e3bdb" target="_top" xlink:title="Get SCSI iorequest_cnt (number of SCSI IO requests)">
<polygon fill="none" stroke="red" points="332.5,-49.5 332.5,-79.5 475.5,-79.5 475.5,-49.5 332.5,-49.5"/>
<text text-anchor="start" x="340.5" y="-67.5" font-family="Helvetica,sans-Serif" font-size="10.00">leanux::block::MajorMinor</text>
<text text-anchor="middle" x="404" y="-56.5" font-family="Helvetica,sans-Serif" font-size="10.00">::getSCSIIORequest</text>
</a>
</g>
</g>
<!-- Node5&#45;&gt;Node13 -->
<g id="edge7" class="edge">
<title>Node5&#45;&gt;Node13</title>
<path fill="none" stroke="midnightblue" d="M279.51,-98.4C298.09,-93.3 319.01,-87.56 338.27,-82.27"/>
<polygon fill="midnightblue" stroke="midnightblue" points="339.45,-85.57 348.17,-79.55 337.6,-78.82 339.45,-85.57"/>
</g>
<!-- Node14 -->
<g id="node9" class="node">
<title>Node14</title>
<g id="a_node9"><a xlink:href="../../d7/d28/classleanux_1_1block_1_1MajorMinor.html#a742f510de3aea2ec0a1eb112e3ca3c1e" target="_top" xlink:title="return the full device path as it appears under /sys/devices/block">
<polygon fill="none" stroke="red" points="332.5,-0.5 332.5,-30.5 475.5,-30.5 475.5,-0.5 332.5,-0.5"/>
<text text-anchor="start" x="340.5" y="-18.5" font-family="Helvetica,sans-Serif" font-size="10.00">leanux::block::MajorMinor</text>
<text text-anchor="middle" x="404" y="-7.5" font-family="Helvetica,sans-Serif" font-size="10.00">::getSysPath</text>
</a>
</g>
</g>
<!-- Node5&#45;&gt;Node14 -->
<g id="edge8" class="edge">
<title>Node5&#45;&gt;Node14</title>
<path fill="none" stroke="midnightblue" d="M243.16,-98.41C263.71,-82.37 298.18,-57.07 331,-40.5 335.28,-38.34 339.79,-36.29 344.38,-34.36"/>
<polygon fill="midnightblue" stroke="midnightblue" points="345.86,-37.54 353.86,-30.59 343.27,-31.04 345.86,-37.54"/>
</g>
</g>
</svg>
