<?xml version="1.0" encoding="UTF-8" standalone="no"?>
<!DOCTYPE svg PUBLIC "-//W3C//DTD SVG 1.1//EN"
 "http://www.w3.org/Graphics/SVG/1.1/DTD/svg11.dtd">
<!-- Generated by graphviz version 2.43.0 (0)
 -->
<!-- Title: leanux::tools::lmon::IOView Pages: 1 -->
<svg width="703pt" height="583pt"
 viewBox="0.00 0.00 703.00 583.00" xmlns="http://www.w3.org/2000/svg" xmlns:xlink="http://www.w3.org/1999/xlink">
<g id="graph0" class="graph" transform="scale(1 1) rotate(0) translate(4 579)">
<title>leanux::tools::lmon::IOView</title>
<!-- Node1 -->
<g id="node1" class="node">
<title>Node1</title>
<g id="a_node1"><a xlink:title="IO view.">
<polygon fill="#bfbfbf" stroke="black" points="585,-391 585,-421 695,-421 695,-391 585,-391"/>
<text text-anchor="start" x="593" y="-409" font-family="Helvetica,sans-Serif" font-size="10.00">leanux::tools::lmon</text>
<text text-anchor="middle" x="640" y="-398" font-family="Helvetica,sans-Serif" font-size="10.00">::IOView</text>
</a>
</g>
</g>
<!-- Node2 -->
<g id="node2" class="node">
<title>Node2</title>
<g id="a_node2"><a xlink:href="../../d1/de8/classleanux_1_1tools_1_1lmon_1_1View.html" target="_top" xlink:title="A reactangular area on the ncurses Screen as a window of information.">
<polygon fill="none" stroke="black" points="291,-119 291,-149 401,-149 401,-119 291,-119"/>
<text text-anchor="start" x="299" y="-137" font-family="Helvetica,sans-Serif" font-size="10.00">leanux::tools::lmon</text>
<text text-anchor="middle" x="346" y="-126" font-family="Helvetica,sans-Serif" font-size="10.00">::View</text>
</a>
</g>
</g>
<!-- Node2&#45;&gt;Node1 -->
<g id="edge1" class="edge">
<title>Node2&#45;&gt;Node1</title>
<path fill="none" stroke="midnightblue" d="M375.31,-155.35C390.37,-167 409.03,-181.89 425,-196 503.59,-265.46 591.05,-355.68 624.72,-390.94"/>
<polygon fill="midnightblue" stroke="midnightblue" points="377.41,-152.55 367.35,-149.24 373.15,-158.11 377.41,-152.55"/>
</g>
<!-- Node4 -->
<g id="node4" class="node">
<title>Node4</title>
<g id="a_node4"><a xlink:href="../../d5/de6/classleanux_1_1tools_1_1lmon_1_1Screen.html" target="_top" xlink:title="The curses screen.">
<polygon fill="none" stroke="red" points="585,-190 585,-220 695,-220 695,-190 585,-190"/>
<text text-anchor="start" x="593" y="-208" font-family="Helvetica,sans-Serif" font-size="10.00">leanux::tools::lmon</text>
<text text-anchor="middle" x="640" y="-197" font-family="Helvetica,sans-Serif" font-size="10.00">::Screen</text>
</a>
</g>
</g>
<!-- Node2&#45;&gt;Node4 -->
<g id="edge4" class="edge">
<title>Node2&#45;&gt;Node4</title>
<path fill="none" stroke="#9a32cd" stroke-dasharray="5,2" d="M385.19,-114.67C431.01,-94.39 508.9,-69.39 567,-100 603.18,-119.06 624.67,-165.41 633.81,-189.65"/>
<polygon fill="#9a32cd" stroke="#9a32cd" points="383.56,-111.56 375.92,-118.9 386.47,-117.93 383.56,-111.56"/>
<text text-anchor="middle" x="505" y="-158" font-family="Helvetica,sans-Serif" font-size="10.00"> vfooter_</text>
<text text-anchor="middle" x="505" y="-147" font-family="Helvetica,sans-Serif" font-size="10.00">vsys_</text>
<text text-anchor="middle" x="505" y="-136" font-family="Helvetica,sans-Serif" font-size="10.00">vio_</text>
<text text-anchor="middle" x="505" y="-125" font-family="Helvetica,sans-Serif" font-size="10.00">vprocess_</text>
<text text-anchor="middle" x="505" y="-114" font-family="Helvetica,sans-Serif" font-size="10.00">vnetwork_</text>
<text text-anchor="middle" x="505" y="-103" font-family="Helvetica,sans-Serif" font-size="10.00">vheader_</text>
</g>
<!-- Node3 -->
<g id="node3" class="node">
<title>Node3</title>
<g id="a_node3"><a xlink:title=" ">
<polygon fill="none" stroke="#bfbfbf" points="29,-0.5 29,-19.5 114,-19.5 114,-0.5 29,-0.5"/>
<text text-anchor="middle" x="71.5" y="-7.5" font-family="Helvetica,sans-Serif" font-size="10.00">unsigned long</text>
</a>
</g>
</g>
<!-- Node3&#45;&gt;Node2 -->
<g id="edge2" class="edge">
<title>Node3&#45;&gt;Node2</title>
<path fill="none" stroke="#9a32cd" stroke-dasharray="5,2" d="M124.1,-2.1C160.85,1.09 210.36,0.29 249,-19 292.74,-40.84 324.01,-92.62 337.54,-118.59"/>
<polygon fill="#9a32cd" stroke="#9a32cd" points="123.7,1.38 114.1,-3.1 124.39,-5.59 123.7,1.38"/>
<text text-anchor="middle" x="205" y="-22" font-family="Helvetica,sans-Serif" font-size="10.00"> sample_count_</text>
</g>
<!-- Node4&#45;&gt;Node2 -->
<g id="edge3" class="edge">
<title>Node4&#45;&gt;Node2</title>
<path fill="none" stroke="#9a32cd" stroke-dasharray="5,2" d="M574.71,-194.12C522.56,-185.19 455.68,-173.48 443,-170 422.57,-164.4 400.39,-156.22 382.5,-149.08"/>
<polygon fill="#9a32cd" stroke="#9a32cd" points="574.14,-197.57 584.59,-195.81 575.32,-190.67 574.14,-197.57"/>
<text text-anchor="middle" x="505" y="-196" font-family="Helvetica,sans-Serif" font-size="10.00"> screen_</text>
</g>
<!-- Node9 -->
<g id="node5" class="node">
<title>Node9</title>
<g id="a_node5"><a xlink:title=" ">
<polygon fill="none" stroke="#bfbfbf" points="33,-275.5 33,-294.5 110,-294.5 110,-275.5 33,-275.5"/>
<text text-anchor="middle" x="71.5" y="-282.5" font-family="Helvetica,sans-Serif" font-size="10.00">unsigned int</text>
</a>
</g>
</g>
<!-- Node9&#45;&gt;Node4 -->
<g id="edge5" class="edge">
<title>Node9&#45;&gt;Node4</title>
<path fill="none" stroke="#9a32cd" stroke-dasharray="5,2" d="M120.13,-279.6C208.46,-269.36 403.59,-245.77 567,-219 572.78,-218.05 578.81,-216.99 584.81,-215.89"/>
<polygon fill="#9a32cd" stroke="#9a32cd" points="119.68,-276.13 110.14,-280.75 120.48,-283.08 119.68,-276.13"/>
<text text-anchor="start" x="292.5" y="-308" font-family="Helvetica,sans-Serif" font-size="10.00"> footer_scroll_interval</text>
<text text-anchor="middle" x="346" y="-297" font-family="Helvetica,sans-Serif" font-size="10.00">_s_</text>
<text text-anchor="start" x="292.5" y="-286" font-family="Helvetica,sans-Serif" font-size="10.00">sample_interval_s</text>
<text text-anchor="middle" x="346" y="-275" font-family="Helvetica,sans-Serif" font-size="10.00">_</text>
<text text-anchor="middle" x="346" y="-264" font-family="Helvetica,sans-Serif" font-size="10.00">sleep_duration_ms_</text>
</g>
<!-- Node19 -->
<g id="node13" class="node">
<title>Node19</title>
<g id="a_node13"><a xlink:title=" ">
<polygon fill="none" stroke="#bfbfbf" points="268.5,-342 268.5,-372 423.5,-372 423.5,-342 268.5,-342"/>
<text text-anchor="start" x="276.5" y="-360" font-family="Helvetica,sans-Serif" font-size="10.00">std::map&lt; leanux::block</text>
<text text-anchor="middle" x="346" y="-349" font-family="Helvetica,sans-Serif" font-size="10.00">::MajorMinor, unsigned int &gt;</text>
</a>
</g>
</g>
<!-- Node9&#45;&gt;Node19 -->
<g id="edge20" class="edge">
<title>Node9&#45;&gt;Node19</title>
<path fill="none" stroke="#9a32cd" stroke-dasharray="5,2" d="M120.29,-295.9C155.91,-304.2 205.66,-316.18 249,-328 264.62,-332.26 281.56,-337.25 296.8,-341.88"/>
<polygon fill="#9a32cd" stroke="#9a32cd" points="120.71,-292.41 110.18,-293.55 119.13,-299.22 120.71,-292.41"/>
<text text-anchor="middle" x="205" y="-331" font-family="Helvetica,sans-Serif" font-size="10.00"> elements</text>
</g>
<!-- Node10 -->
<g id="node6" class="node">
<title>Node10</title>
<g id="a_node6"><a xlink:title=" ">
<polygon fill="none" stroke="#bfbfbf" points="36.5,-195.5 36.5,-214.5 106.5,-214.5 106.5,-195.5 36.5,-195.5"/>
<text text-anchor="middle" x="71.5" y="-202.5" font-family="Helvetica,sans-Serif" font-size="10.00">WINDOW *</text>
</a>
</g>
</g>
<!-- Node10&#45;&gt;Node2 -->
<g id="edge8" class="edge">
<title>Node10&#45;&gt;Node2</title>
<path fill="none" stroke="#9a32cd" stroke-dasharray="5,2" d="M116.9,-198.26C152.88,-192.3 204.7,-182.61 249,-170 269.2,-164.25 291.18,-156.15 309,-149.09"/>
<polygon fill="#9a32cd" stroke="#9a32cd" points="116.04,-194.85 106.73,-199.91 117.16,-201.76 116.04,-194.85"/>
<text text-anchor="middle" x="205" y="-194" font-family="Helvetica,sans-Serif" font-size="10.00"> window_</text>
</g>
<!-- Node10&#45;&gt;Node4 -->
<g id="edge6" class="edge">
<title>Node10&#45;&gt;Node4</title>
<path fill="none" stroke="#9a32cd" stroke-dasharray="5,2" d="M116.68,-205C219.24,-205 473.22,-205 584.87,-205"/>
<polygon fill="#9a32cd" stroke="#9a32cd" points="116.66,-201.5 106.66,-205 116.66,-208.5 116.66,-201.5"/>
<text text-anchor="middle" x="346" y="-208" font-family="Helvetica,sans-Serif" font-size="10.00"> wmain_</text>
</g>
<!-- Node7 -->
<g id="node7" class="node">
<title>Node7</title>
<g id="a_node7"><a xlink:title=" ">
<polygon fill="none" stroke="#bfbfbf" points="57,-38.5 57,-57.5 86,-57.5 86,-38.5 57,-38.5"/>
<text text-anchor="middle" x="71.5" y="-45.5" font-family="Helvetica,sans-Serif" font-size="10.00">int</text>
</a>
</g>
</g>
<!-- Node7&#45;&gt;Node2 -->
<g id="edge7" class="edge">
<title>Node7&#45;&gt;Node2</title>
<path fill="none" stroke="#9a32cd" stroke-dasharray="5,2" d="M96.61,-41.98C131.57,-34.48 197.77,-24.91 249,-45 286.87,-59.85 318.72,-97.45 334.45,-118.72"/>
<polygon fill="#9a32cd" stroke="#9a32cd" points="95.38,-38.67 86.41,-44.31 96.94,-45.5 95.38,-38.67"/>
<text text-anchor="middle" x="205" y="-158" font-family="Helvetica,sans-Serif" font-size="10.00"> attr_bold_text_</text>
<text text-anchor="middle" x="205" y="-147" font-family="Helvetica,sans-Serif" font-size="10.00">absy_</text>
<text text-anchor="middle" x="205" y="-136" font-family="Helvetica,sans-Serif" font-size="10.00">height_</text>
<text text-anchor="middle" x="205" y="-125" font-family="Helvetica,sans-Serif" font-size="10.00">absx_</text>
<text text-anchor="start" x="161" y="-114" font-family="Helvetica,sans-Serif" font-size="10.00">attr_plot_element</text>
<text text-anchor="middle" x="205" y="-103" font-family="Helvetica,sans-Serif" font-size="10.00">_</text>
<text text-anchor="middle" x="205" y="-92" font-family="Helvetica,sans-Serif" font-size="10.00">attr_line_</text>
<text text-anchor="middle" x="205" y="-81" font-family="Helvetica,sans-Serif" font-size="10.00">width_</text>
<text text-anchor="start" x="161" y="-70" font-family="Helvetica,sans-Serif" font-size="10.00">attr_normal</text>
<text text-anchor="middle" x="205" y="-59" font-family="Helvetica,sans-Serif" font-size="10.00">_text_</text>
<text text-anchor="middle" x="205" y="-48" font-family="Helvetica,sans-Serif" font-size="10.00">attr_alert_text_</text>
</g>
<!-- Node11 -->
<g id="node8" class="node">
<title>Node11</title>
<g id="a_node8"><a xlink:title=" ">
<polygon fill="none" stroke="#bfbfbf" points="274,-391 274,-421 418,-421 418,-391 274,-391"/>
<text text-anchor="start" x="282" y="-409" font-family="Helvetica,sans-Serif" font-size="10.00">std::map&lt; leanux::block</text>
<text text-anchor="middle" x="346" y="-398" font-family="Helvetica,sans-Serif" font-size="10.00">::MajorMinor, std::string &gt;</text>
</a>
</g>
</g>
<!-- Node11&#45;&gt;Node1 -->
<g id="edge9" class="edge">
<title>Node11&#45;&gt;Node1</title>
<path fill="none" stroke="#9a32cd" stroke-dasharray="5,2" d="M428.18,-406C478.09,-406 540.67,-406 584.64,-406"/>
<polygon fill="#9a32cd" stroke="#9a32cd" points="428.06,-402.5 418.06,-406 428.06,-409.5 428.06,-402.5"/>
<text text-anchor="middle" x="505" y="-409" font-family="Helvetica,sans-Serif" font-size="10.00"> name_cache_</text>
</g>
<!-- Node14 -->
<g id="node10" class="node">
<title>Node14</title>
<g id="a_node10"><a xlink:href="../../d7/d28/classleanux_1_1block_1_1MajorMinor.html" target="_top" xlink:title="Datatype for major:minor pairs.">
<polygon fill="none" stroke="red" points="0,-396.5 0,-415.5 143,-415.5 143,-396.5 0,-396.5"/>
<text text-anchor="middle" x="71.5" y="-403.5" font-family="Helvetica,sans-Serif" font-size="10.00">leanux::block::MajorMinor</text>
</a>
</g>
</g>
<!-- Node11&#45;&gt;Node14 -->
<g id="edge12" class="edge">
<title>Node11&#45;&gt;Node14</title>
<path fill="none" stroke="#9a32cd" stroke-dasharray="5,2" d="M263.71,-406C225.32,-406 179.94,-406 143.03,-406"/>
<polygon fill="#9a32cd" stroke="#9a32cd" points="263.82,-409.5 273.82,-406 263.82,-402.5 263.82,-409.5"/>
<text text-anchor="middle" x="205" y="-420" font-family="Helvetica,sans-Serif" font-size="10.00"> mm2name_</text>
<text text-anchor="middle" x="205" y="-409" font-family="Helvetica,sans-Serif" font-size="10.00">mm2file_</text>
</g>
<!-- Node12 -->
<g id="node9" class="node">
<title>Node12</title>
<g id="a_node9"><a xlink:title="STL class.">
<polygon fill="none" stroke="#bfbfbf" points="39,-537.5 39,-556.5 104,-556.5 104,-537.5 39,-537.5"/>
<text text-anchor="middle" x="71.5" y="-544.5" font-family="Helvetica,sans-Serif" font-size="10.00">std::string</text>
</a>
</g>
</g>
<!-- Node12&#45;&gt;Node11 -->
<g id="edge10" class="edge">
<title>Node12&#45;&gt;Node11</title>
<path fill="none" stroke="#9a32cd" stroke-dasharray="5,2" d="M114.11,-537.48C163.2,-525.91 239.38,-506.72 249,-497 270.39,-475.4 245.98,-452.97 267,-431 270.74,-427.1 275.08,-423.8 279.77,-421.02"/>
<polygon fill="#9a32cd" stroke="#9a32cd" points="113.02,-534.14 104.08,-539.83 114.62,-540.96 113.02,-534.14"/>
<text text-anchor="middle" x="205" y="-527" font-family="Helvetica,sans-Serif" font-size="10.00"> elements</text>
</g>
<!-- Node17 -->
<g id="node11" class="node">
<title>Node17</title>
<g id="a_node11"><a xlink:title=" ">
<polygon fill="none" stroke="#bfbfbf" points="267,-440 267,-470 425,-470 425,-440 267,-440"/>
<text text-anchor="start" x="275" y="-458" font-family="Helvetica,sans-Serif" font-size="10.00">std::map&lt; std::string,</text>
<text text-anchor="middle" x="346" y="-447" font-family="Helvetica,sans-Serif" font-size="10.00"> leanux::block::MajorMinor &gt;</text>
</a>
</g>
</g>
<!-- Node12&#45;&gt;Node17 -->
<g id="edge14" class="edge">
<title>Node12&#45;&gt;Node17</title>
<path fill="none" stroke="#9a32cd" stroke-dasharray="5,2" d="M114.21,-558.55C153.19,-566.65 210.94,-571.44 249,-542 271.7,-524.45 246.99,-500.57 267,-480 270.77,-476.13 275.14,-472.85 279.84,-470.08"/>
<polygon fill="#9a32cd" stroke="#9a32cd" points="114.76,-555.09 104.24,-556.32 113.23,-561.92 114.76,-555.09"/>
<text text-anchor="middle" x="205" y="-567" font-family="Helvetica,sans-Serif" font-size="10.00"> keys</text>
</g>
<!-- Node14&#45;&gt;Node11 -->
<g id="edge11" class="edge">
<title>Node14&#45;&gt;Node11</title>
<path fill="none" stroke="#9a32cd" stroke-dasharray="5,2" d="M101.3,-392.28C118.25,-384.96 140.36,-376.72 161,-373 199.49,-366.06 210.94,-364.01 249,-373 257.71,-375.05 258.7,-378.67 267,-382 274.89,-385.16 283.37,-388.16 291.72,-390.9"/>
<polygon fill="#9a32cd" stroke="#9a32cd" points="99.67,-389.17 91.96,-396.44 102.52,-395.56 99.67,-389.17"/>
<text text-anchor="middle" x="205" y="-376" font-family="Helvetica,sans-Serif" font-size="10.00"> keys</text>
</g>
<!-- Node14&#45;&gt;Node14 -->
<g id="edge16" class="edge">
<title>Node14&#45;&gt;Node14</title>
<path fill="none" stroke="#9a32cd" stroke-dasharray="5,2" d="M46.95,-425.03C48.29,-430.13 56.47,-434 71.5,-434 94.96,-434 101.74,-424.57 91.85,-415.76"/>
<polygon fill="#9a32cd" stroke="#9a32cd" points="50.21,-426.31 51.15,-415.76 43.83,-423.42 50.21,-426.31"/>
<text text-anchor="middle" x="71.5" y="-437" font-family="Helvetica,sans-Serif" font-size="10.00"> invalid</text>
</g>
<!-- Node14&#45;&gt;Node17 -->
<g id="edge15" class="edge">
<title>Node14&#45;&gt;Node17</title>
<path fill="none" stroke="#9a32cd" stroke-dasharray="5,2" d="M115.18,-418.14C129.64,-421.97 145.95,-425.99 161,-429 195.48,-435.89 233.96,-441.63 266.78,-445.95"/>
<polygon fill="#9a32cd" stroke="#9a32cd" points="116.06,-414.75 105.49,-415.53 114.24,-421.51 116.06,-414.75"/>
<text text-anchor="middle" x="205" y="-446" font-family="Helvetica,sans-Serif" font-size="10.00"> elements</text>
</g>
<!-- Node14&#45;&gt;Node19 -->
<g id="edge21" class="edge">
<title>Node14&#45;&gt;Node19</title>
<path fill="none" stroke="#9a32cd" stroke-dasharray="5,2" d="M91.55,-390.06C108.55,-376.95 134.73,-359.38 161,-352 195.3,-342.36 234.63,-342.07 268.1,-344.81"/>
<polygon fill="#9a32cd" stroke="#9a32cd" points="89.19,-387.46 83.55,-396.43 93.55,-392.94 89.19,-387.46"/>
<text text-anchor="middle" x="205" y="-355" font-family="Helvetica,sans-Serif" font-size="10.00"> keys</text>
</g>
<!-- Node17&#45;&gt;Node1 -->
<g id="edge17" class="edge">
<title>Node17&#45;&gt;Node1</title>
<path fill="none" stroke="#9a32cd" stroke-dasharray="5,2" d="M435.12,-442.45C475.41,-436.44 523.7,-428.85 567,-421 572.78,-419.95 578.81,-418.8 584.81,-417.61"/>
<polygon fill="#9a32cd" stroke="#9a32cd" points="434.43,-439.02 425.05,-443.95 435.46,-445.94 434.43,-439.02"/>
<text text-anchor="middle" x="505" y="-443" font-family="Helvetica,sans-Serif" font-size="10.00"> devicefilecache_</text>
</g>
<!-- Node17&#45;&gt;Node14 -->
<g id="edge13" class="edge">
<title>Node17&#45;&gt;Node14</title>
<path fill="none" stroke="#9a32cd" stroke-dasharray="5,2" d="M256.37,-470.43C225.65,-472.76 191.32,-471.92 161,-463 129.44,-453.72 98.51,-429.31 82.92,-415.63"/>
<polygon fill="#9a32cd" stroke="#9a32cd" points="256.99,-473.89 266.65,-469.52 256.38,-466.91 256.99,-473.89"/>
<text text-anchor="middle" x="205" y="-485" font-family="Helvetica,sans-Serif" font-size="10.00"> name2mm_</text>
<text text-anchor="middle" x="205" y="-474" font-family="Helvetica,sans-Serif" font-size="10.00">file2mm_</text>
</g>
<!-- Node18 -->
<g id="node12" class="node">
<title>Node18</title>
<g id="a_node12"><a xlink:title=" ">
<polygon fill="none" stroke="#bfbfbf" points="292.5,-489.5 292.5,-508.5 399.5,-508.5 399.5,-489.5 292.5,-489.5"/>
<text text-anchor="middle" x="346" y="-496.5" font-family="Helvetica,sans-Serif" font-size="10.00">static unsigned int</text>
</a>
</g>
</g>
<!-- Node18&#45;&gt;Node1 -->
<g id="edge18" class="edge">
<title>Node18&#45;&gt;Node1</title>
<path fill="none" stroke="#9a32cd" stroke-dasharray="5,2" d="M409.79,-493.19C454.9,-487.42 516.42,-476.24 567,-455 587.08,-446.57 607.35,-432.12 621.24,-421.09"/>
<polygon fill="#9a32cd" stroke="#9a32cd" points="409.35,-489.72 399.85,-494.41 410.2,-496.67 409.35,-489.72"/>
<text text-anchor="middle" x="505" y="-491" font-family="Helvetica,sans-Serif" font-size="10.00"> max_mountpoint_width_</text>
</g>
<!-- Node19&#45;&gt;Node1 -->
<g id="edge19" class="edge">
<title>Node19&#45;&gt;Node1</title>
<path fill="none" stroke="#9a32cd" stroke-dasharray="5,2" d="M433.65,-369.33C474.23,-375.37 523.18,-383.05 567,-391 572.78,-392.05 578.81,-393.2 584.81,-394.39"/>
<polygon fill="#9a32cd" stroke="#9a32cd" points="433.93,-365.83 423.52,-367.83 432.9,-372.76 433.93,-365.83"/>
<text text-anchor="middle" x="505" y="-394" font-family="Helvetica,sans-Serif" font-size="10.00"> sector_size_cache_</text>
</g>
</g>
</svg>
