<?xml version="1.0" encoding="UTF-8" standalone="no"?>
<!DOCTYPE svg PUBLIC "-//W3C//DTD SVG 1.1//EN"
 "http://www.w3.org/Graphics/SVG/1.1/DTD/svg11.dtd">
<!-- Generated by graphviz version 2.43.0 (0)
 -->
<!-- Title: leanux::tools::lmon::TriggerContext Pages: 1 -->
<svg width="982pt" height="1227pt"
 viewBox="0.00 0.00 982.00 1226.50" xmlns="http://www.w3.org/2000/svg" xmlns:xlink="http://www.w3.org/1999/xlink">
<g id="graph0" class="graph" transform="scale(1 1) rotate(0) translate(4 1222.5)">
<title>leanux::tools::lmon::TriggerContext</title>
<!-- Node1 -->
<g id="node1" class="node">
<title>Node1</title>
<g id="a_node1"><a xlink:title=" ">
<polygon fill="#bfbfbf" stroke="black" points="864,-326.5 864,-356.5 974,-356.5 974,-326.5 864,-326.5"/>
<text text-anchor="start" x="872" y="-344.5" font-family="Helvetica,sans-Serif" font-size="10.00">leanux::tools::lmon</text>
<text text-anchor="middle" x="919" y="-333.5" font-family="Helvetica,sans-Serif" font-size="10.00">::TriggerContext</text>
</a>
</g>
</g>
<!-- Node2 -->
<g id="node2" class="node">
<title>Node2</title>
<g id="a_node2"><a xlink:href="../../da/dbe/namespaceleanux_1_1tools_1_1lmon.html#db/d0a/structleanux_1_1tools_1_1lmon_1_1XSysView" target="_top" xlink:title="Data record for SysView display.">
<polygon fill="none" stroke="black" points="665,-898.5 665,-928.5 775,-928.5 775,-898.5 665,-898.5"/>
<text text-anchor="start" x="673" y="-916.5" font-family="Helvetica,sans-Serif" font-size="10.00">leanux::tools::lmon</text>
<text text-anchor="middle" x="720" y="-905.5" font-family="Helvetica,sans-Serif" font-size="10.00">::XSysView</text>
</a>
</g>
</g>
<!-- Node2&#45;&gt;Node1 -->
<g id="edge1" class="edge">
<title>Node2&#45;&gt;Node1</title>
<path fill="none" stroke="#9a32cd" stroke-dasharray="5,2" d="M729.47,-888.91C763,-791.56 885.94,-434.59 912.8,-356.61"/>
<polygon fill="#9a32cd" stroke="#9a32cd" points="726.12,-887.9 726.17,-898.49 732.73,-890.18 726.12,-887.9"/>
<text text-anchor="middle" x="819.5" y="-698.5" font-family="Helvetica,sans-Serif" font-size="10.00"> sysview_</text>
</g>
<!-- Node3 -->
<g id="node3" class="node">
<title>Node3</title>
<g id="a_node3"><a xlink:title=" ">
<polygon fill="none" stroke="#bfbfbf" points="434,-1068.5 434,-1098.5 537,-1098.5 537,-1068.5 434,-1068.5"/>
<text text-anchor="start" x="442" y="-1086.5" font-family="Helvetica,sans-Serif" font-size="10.00">std::list&lt; leanux::</text>
<text text-anchor="middle" x="485.5" y="-1075.5" font-family="Helvetica,sans-Serif" font-size="10.00">cpu::CPUStat &gt;</text>
</a>
</g>
</g>
<!-- Node3&#45;&gt;Node2 -->
<g id="edge2" class="edge">
<title>Node3&#45;&gt;Node2</title>
<path fill="none" stroke="#9a32cd" stroke-dasharray="5,2" d="M547.45,-1076.19C579.73,-1069.79 618.48,-1057.82 647,-1035.5 683.41,-1007 705.17,-954.56 714.17,-928.72"/>
<polygon fill="#9a32cd" stroke="#9a32cd" points="546.42,-1072.82 537.22,-1078.07 547.69,-1079.7 546.42,-1072.82"/>
<text text-anchor="middle" x="611" y="-1082.5" font-family="Helvetica,sans-Serif" font-size="10.00"> cpupast</text>
<text text-anchor="middle" x="611" y="-1071.5" font-family="Helvetica,sans-Serif" font-size="10.00">cpufuture</text>
</g>
<!-- Node4 -->
<g id="node4" class="node">
<title>Node4</title>
<g id="a_node4"><a xlink:href="../../da/da3/namespaceleanux_1_1cpu.html#d0/d5a/structleanux_1_1cpu_1_1CPUStat" target="_top" xlink:title="CPU usage statistics from /proc/stat.">
<polygon fill="none" stroke="black" points="139,-1074 139,-1093 258,-1093 258,-1074 139,-1074"/>
<text text-anchor="middle" x="198.5" y="-1081" font-family="Helvetica,sans-Serif" font-size="10.00">leanux::cpu::CPUStat</text>
</a>
</g>
</g>
<!-- Node4&#45;&gt;Node2 -->
<g id="edge16" class="edge">
<title>Node4&#45;&gt;Node2</title>
<path fill="none" stroke="#9a32cd" stroke-dasharray="5,2" d="M231.74,-1096.79C311.94,-1127.5 522.9,-1193.48 647,-1094.5 700.41,-1051.9 714.36,-963.84 717.87,-928.58"/>
<polygon fill="#9a32cd" stroke="#9a32cd" points="232.77,-1093.44 222.18,-1093.06 230.22,-1099.96 232.77,-1093.44"/>
<text text-anchor="middle" x="485.5" y="-1149.5" font-family="Helvetica,sans-Serif" font-size="10.00"> cpu_total</text>
</g>
<!-- Node4&#45;&gt;Node3 -->
<g id="edge3" class="edge">
<title>Node4&#45;&gt;Node3</title>
<path fill="none" stroke="#9a32cd" stroke-dasharray="5,2" d="M268.5,-1083.5C319.55,-1083.5 387.94,-1083.5 433.97,-1083.5"/>
<polygon fill="#9a32cd" stroke="#9a32cd" points="268.21,-1080 258.21,-1083.5 268.21,-1087 268.21,-1080"/>
<text text-anchor="middle" x="336" y="-1086.5" font-family="Helvetica,sans-Serif" font-size="10.00"> elements</text>
</g>
<!-- Node5 -->
<g id="node5" class="node">
<title>Node5</title>
<g id="a_node5"><a xlink:title=" ">
<polygon fill="none" stroke="#bfbfbf" points="0,-1029 0,-1048 50,-1048 50,-1029 0,-1029"/>
<text text-anchor="middle" x="25" y="-1036" font-family="Helvetica,sans-Serif" font-size="10.00">double</text>
</a>
</g>
</g>
<!-- Node5&#45;&gt;Node2 -->
<g id="edge6" class="edge">
<title>Node5&#45;&gt;Node2</title>
<path fill="none" stroke="#9a32cd" stroke-dasharray="5,2" d="M43.42,-1021.2C81.55,-984.7 176.95,-900.69 276,-870.5 327.02,-854.95 351.6,-840.95 396,-870.5 413.25,-881.98 396.93,-901.76 414,-913.5 472.98,-954.08 503.42,-917.39 575,-918.5 607,-919 615.02,-919.61 647,-918.5 652.76,-918.3 658.78,-918.01 664.77,-917.67"/>
<polygon fill="#9a32cd" stroke="#9a32cd" points="40.51,-1019.14 35.77,-1028.62 45.39,-1024.17 40.51,-1019.14"/>
<text text-anchor="middle" x="336" y="-983.5" font-family="Helvetica,sans-Serif" font-size="10.00"> mem_swapouts</text>
<text text-anchor="middle" x="336" y="-972.5" font-family="Helvetica,sans-Serif" font-size="10.00">cpu_seconds</text>
<text text-anchor="middle" x="336" y="-961.5" font-family="Helvetica,sans-Serif" font-size="10.00">mem_allocs</text>
<text text-anchor="middle" x="336" y="-950.5" font-family="Helvetica,sans-Serif" font-size="10.00">time_slice</text>
<text text-anchor="middle" x="336" y="-939.5" font-family="Helvetica,sans-Serif" font-size="10.00">mem_pageouts</text>
<text text-anchor="middle" x="336" y="-928.5" font-family="Helvetica,sans-Serif" font-size="10.00">mem_frees</text>
<text text-anchor="middle" x="336" y="-917.5" font-family="Helvetica,sans-Serif" font-size="10.00">mem_minflts</text>
<text text-anchor="middle" x="336" y="-906.5" font-family="Helvetica,sans-Serif" font-size="10.00">ctxsws</text>
<text text-anchor="middle" x="336" y="-895.5" font-family="Helvetica,sans-Serif" font-size="10.00">mem_pageins</text>
<text text-anchor="middle" x="336" y="-884.5" font-family="Helvetica,sans-Serif" font-size="10.00">mem_majflts</text>
<text text-anchor="middle" x="336" y="-873.5" font-family="Helvetica,sans-Serif" font-size="10.00">...</text>
</g>
<!-- Node5&#45;&gt;Node4 -->
<g id="edge4" class="edge">
<title>Node5&#45;&gt;Node4</title>
<path fill="none" stroke="#9a32cd" stroke-dasharray="5,2" d="M60.49,-1034.7C78.78,-1033.72 101.45,-1034.17 121,-1039.5 145.83,-1046.27 171.02,-1063.11 185.4,-1073.88"/>
<polygon fill="#9a32cd" stroke="#9a32cd" points="60.01,-1031.23 50.28,-1035.42 60.5,-1038.21 60.01,-1031.23"/>
<text text-anchor="middle" x="94.5" y="-1152.5" font-family="Helvetica,sans-Serif" font-size="10.00"> irq</text>
<text text-anchor="middle" x="94.5" y="-1141.5" font-family="Helvetica,sans-Serif" font-size="10.00">guest</text>
<text text-anchor="middle" x="94.5" y="-1130.5" font-family="Helvetica,sans-Serif" font-size="10.00">idle</text>
<text text-anchor="middle" x="94.5" y="-1119.5" font-family="Helvetica,sans-Serif" font-size="10.00">steal</text>
<text text-anchor="middle" x="94.5" y="-1108.5" font-family="Helvetica,sans-Serif" font-size="10.00">softirq</text>
<text text-anchor="middle" x="94.5" y="-1097.5" font-family="Helvetica,sans-Serif" font-size="10.00">user</text>
<text text-anchor="middle" x="94.5" y="-1086.5" font-family="Helvetica,sans-Serif" font-size="10.00">iowait</text>
<text text-anchor="middle" x="94.5" y="-1075.5" font-family="Helvetica,sans-Serif" font-size="10.00">nice</text>
<text text-anchor="middle" x="94.5" y="-1064.5" font-family="Helvetica,sans-Serif" font-size="10.00">guest_nice</text>
<text text-anchor="middle" x="94.5" y="-1053.5" font-family="Helvetica,sans-Serif" font-size="10.00">system</text>
<text text-anchor="middle" x="94.5" y="-1042.5" font-family="Helvetica,sans-Serif" font-size="10.00">...</text>
</g>
<!-- Node12 -->
<g id="node10" class="node">
<title>Node12</title>
<g id="a_node10"><a xlink:href="../../da/da3/namespaceleanux_1_1cpu.html#dd/d31/structleanux_1_1cpu_1_1LoadAvg" target="_top" xlink:title="System load average &#45; the average number of processes on the run queue.">
<polygon fill="none" stroke="black" points="276,-1173 276,-1192 396,-1192 396,-1173 276,-1173"/>
<text text-anchor="middle" x="336" y="-1180" font-family="Helvetica,sans-Serif" font-size="10.00">leanux::cpu::LoadAvg</text>
</a>
</g>
</g>
<!-- Node5&#45;&gt;Node12 -->
<g id="edge11" class="edge">
<title>Node5&#45;&gt;Node12</title>
<path fill="none" stroke="#9a32cd" stroke-dasharray="5,2" d="M26.51,-1058.16C28.4,-1085.89 36.29,-1135.85 68,-1160.5 132.82,-1210.88 235.17,-1202.25 292.5,-1192.03"/>
<polygon fill="#9a32cd" stroke="#9a32cd" points="30,-1057.91 26.03,-1048.08 23.01,-1058.24 30,-1057.91"/>
<text text-anchor="middle" x="94.5" y="-1210.5" font-family="Helvetica,sans-Serif" font-size="10.00"> avg5_</text>
<text text-anchor="middle" x="94.5" y="-1199.5" font-family="Helvetica,sans-Serif" font-size="10.00">avg15_</text>
<text text-anchor="middle" x="94.5" y="-1188.5" font-family="Helvetica,sans-Serif" font-size="10.00">avg10_</text>
</g>
<!-- Node6 -->
<g id="node6" class="node">
<title>Node6</title>
<g id="a_node6"><a xlink:title=" ">
<polygon fill="none" stroke="#bfbfbf" points="156,-563 156,-582 241,-582 241,-563 156,-563"/>
<text text-anchor="middle" x="198.5" y="-570" font-family="Helvetica,sans-Serif" font-size="10.00">unsigned long</text>
</a>
</g>
</g>
<!-- Node6&#45;&gt;Node2 -->
<g id="edge5" class="edge">
<title>Node6&#45;&gt;Node2</title>
<path fill="none" stroke="#9a32cd" stroke-dasharray="5,2" d="M207.15,-591.26C218.4,-616.44 241.85,-660.74 276,-684.5 381.65,-758 444.68,-691.66 557,-754.5 624.75,-792.41 684.16,-866.13 707.95,-898.1"/>
<polygon fill="#9a32cd" stroke="#9a32cd" points="210.36,-589.85 203.2,-582.04 203.92,-592.61 210.36,-589.85"/>
<text text-anchor="middle" x="485.5" y="-867.5" font-family="Helvetica,sans-Serif" font-size="10.00"> mem_hptotal</text>
<text text-anchor="middle" x="485.5" y="-856.5" font-family="Helvetica,sans-Serif" font-size="10.00">mem_total</text>
<text text-anchor="middle" x="485.5" y="-845.5" font-family="Helvetica,sans-Serif" font-size="10.00">mem_anon</text>
<text text-anchor="middle" x="485.5" y="-834.5" font-family="Helvetica,sans-Serif" font-size="10.00">mem_swpsize</text>
<text text-anchor="middle" x="485.5" y="-823.5" font-family="Helvetica,sans-Serif" font-size="10.00">mem_shmem</text>
<text text-anchor="middle" x="485.5" y="-812.5" font-family="Helvetica,sans-Serif" font-size="10.00">res_users</text>
<text text-anchor="middle" x="485.5" y="-801.5" font-family="Helvetica,sans-Serif" font-size="10.00">mem_mapped</text>
<text text-anchor="middle" x="485.5" y="-790.5" font-family="Helvetica,sans-Serif" font-size="10.00">res_inodesopen</text>
<text text-anchor="middle" x="485.5" y="-779.5" font-family="Helvetica,sans-Serif" font-size="10.00">mem_swpused</text>
<text text-anchor="middle" x="485.5" y="-768.5" font-family="Helvetica,sans-Serif" font-size="10.00">mem_mlock</text>
<text text-anchor="middle" x="485.5" y="-757.5" font-family="Helvetica,sans-Serif" font-size="10.00">...</text>
</g>
<!-- Node14 -->
<g id="node12" class="node">
<title>Node14</title>
<g id="a_node12"><a xlink:href="../../da/dbe/namespaceleanux_1_1tools_1_1lmon.html#d4/de6/structleanux_1_1tools_1_1lmon_1_1SnapRange" target="_top" xlink:title=" ">
<polygon fill="none" stroke="black" points="430.5,-678.5 430.5,-708.5 540.5,-708.5 540.5,-678.5 430.5,-678.5"/>
<text text-anchor="start" x="438.5" y="-696.5" font-family="Helvetica,sans-Serif" font-size="10.00">leanux::tools::lmon</text>
<text text-anchor="middle" x="485.5" y="-685.5" font-family="Helvetica,sans-Serif" font-size="10.00">::SnapRange</text>
</a>
</g>
</g>
<!-- Node6&#45;&gt;Node14 -->
<g id="edge15" class="edge">
<title>Node6&#45;&gt;Node14</title>
<path fill="none" stroke="#9a32cd" stroke-dasharray="5,2" d="M228.5,-586.37C269.43,-605.74 346.67,-641.55 414,-668.5 422.44,-671.88 431.53,-675.28 440.3,-678.44"/>
<polygon fill="#9a32cd" stroke="#9a32cd" points="229.91,-583.17 219.38,-582.04 226.91,-589.49 229.91,-583.17"/>
<text text-anchor="middle" x="336" y="-672.5" font-family="Helvetica,sans-Serif" font-size="10.00"> snap_max</text>
<text text-anchor="middle" x="336" y="-661.5" font-family="Helvetica,sans-Serif" font-size="10.00">snap_min</text>
</g>
<!-- Node27 -->
<g id="node20" class="node">
<title>Node27</title>
<g id="a_node20"><a xlink:href="../../da/dbe/namespaceleanux_1_1tools_1_1lmon.html#db/ddd/structleanux_1_1tools_1_1lmon_1_1XIOView" target="_top" xlink:title="Data record for IOView display.">
<polygon fill="none" stroke="black" points="665,-458.5 665,-488.5 775,-488.5 775,-458.5 665,-458.5"/>
<text text-anchor="start" x="673" y="-476.5" font-family="Helvetica,sans-Serif" font-size="10.00">leanux::tools::lmon</text>
<text text-anchor="middle" x="720" y="-465.5" font-family="Helvetica,sans-Serif" font-size="10.00">::XIOView</text>
</a>
</g>
</g>
<!-- Node6&#45;&gt;Node27 -->
<g id="edge26" class="edge">
<title>Node6&#45;&gt;Node27</title>
<path fill="none" stroke="#9a32cd" stroke-dasharray="5,2" d="M251.3,-574.04C361.58,-576.98 612.38,-581.64 647,-564.5 679.5,-548.41 701.89,-509.96 712.32,-488.55"/>
<polygon fill="#9a32cd" stroke="#9a32cd" points="251.17,-570.54 241.07,-573.77 250.98,-577.54 251.17,-570.54"/>
<text text-anchor="middle" x="485.5" y="-579.5" font-family="Helvetica,sans-Serif" font-size="10.00"> sample_count</text>
</g>
<!-- Node28 -->
<g id="node21" class="node">
<title>Node28</title>
<g id="a_node21"><a xlink:title=" ">
<polygon fill="none" stroke="#bfbfbf" points="424.5,-434.5 424.5,-464.5 546.5,-464.5 546.5,-434.5 424.5,-434.5"/>
<text text-anchor="start" x="432.5" y="-452.5" font-family="Helvetica,sans-Serif" font-size="10.00">std::map&lt; std::string,</text>
<text text-anchor="middle" x="485.5" y="-441.5" font-family="Helvetica,sans-Serif" font-size="10.00"> unsigned long &gt;</text>
</a>
</g>
</g>
<!-- Node6&#45;&gt;Node28 -->
<g id="edge28" class="edge">
<title>Node6&#45;&gt;Node28</title>
<path fill="none" stroke="#9a32cd" stroke-dasharray="5,2" d="M228.14,-558.44C268.95,-538.63 346.37,-501.88 414,-474.5 422.43,-471.09 431.52,-467.67 440.28,-464.51"/>
<polygon fill="#9a32cd" stroke="#9a32cd" points="226.52,-555.34 219.06,-562.86 229.58,-561.63 226.52,-555.34"/>
<text text-anchor="middle" x="336" y="-535.5" font-family="Helvetica,sans-Serif" font-size="10.00"> elements</text>
</g>
<!-- Node32 -->
<g id="node24" class="node">
<title>Node32</title>
<g id="a_node24"><a xlink:href="../../da/dbe/namespaceleanux_1_1tools_1_1lmon.html#db/d56/structleanux_1_1tools_1_1lmon_1_1XNetView" target="_top" xlink:title="Data record for NetView display.">
<polygon fill="none" stroke="black" points="665,-90.5 665,-120.5 775,-120.5 775,-90.5 665,-90.5"/>
<text text-anchor="start" x="673" y="-108.5" font-family="Helvetica,sans-Serif" font-size="10.00">leanux::tools::lmon</text>
<text text-anchor="middle" x="720" y="-97.5" font-family="Helvetica,sans-Serif" font-size="10.00">::XNetView</text>
</a>
</g>
</g>
<!-- Node6&#45;&gt;Node32 -->
<g id="edge33" class="edge">
<title>Node6&#45;&gt;Node32</title>
<path fill="none" stroke="#9a32cd" stroke-dasharray="5,2" d="M201.66,-552.49C210.83,-478.58 253.78,-219.73 414,-114.5 453.85,-88.33 588.45,-94.51 664.85,-100.49"/>
<polygon fill="#9a32cd" stroke="#9a32cd" points="198.15,-552.38 200.46,-562.72 205.1,-553.19 198.15,-552.38"/>
<text text-anchor="middle" x="485.5" y="-117.5" font-family="Helvetica,sans-Serif" font-size="10.00"> sample_count</text>
</g>
<!-- Node7 -->
<g id="node7" class="node">
<title>Node7</title>
<g id="a_node7"><a xlink:href="../../da/da3/namespaceleanux_1_1cpu.html#d3/d90/structleanux_1_1cpu_1_1CPUTopology" target="_top" xlink:title="CPU topology.">
<polygon fill="none" stroke="red" points="414,-885 414,-904 557,-904 557,-885 414,-885"/>
<text text-anchor="middle" x="485.5" y="-892" font-family="Helvetica,sans-Serif" font-size="10.00">leanux::cpu::CPUTopology</text>
</a>
</g>
</g>
<!-- Node7&#45;&gt;Node2 -->
<g id="edge7" class="edge">
<title>Node7&#45;&gt;Node2</title>
<path fill="none" stroke="#9a32cd" stroke-dasharray="5,2" d="M567.22,-901C592.74,-903.07 621.05,-905.37 647,-907.5 652.75,-907.97 658.76,-908.47 664.75,-908.97"/>
<polygon fill="#9a32cd" stroke="#9a32cd" points="567.46,-897.51 557.21,-900.19 566.9,-904.49 567.46,-897.51"/>
<text text-anchor="middle" x="611" y="-910.5" font-family="Helvetica,sans-Serif" font-size="10.00"> cpu_topo</text>
</g>
<!-- Node9 -->
<g id="node8" class="node">
<title>Node9</title>
<g id="a_node8"><a xlink:title=" ">
<polygon fill="none" stroke="#bfbfbf" points="428,-1019.5 428,-1049.5 543,-1049.5 543,-1019.5 428,-1019.5"/>
<text text-anchor="start" x="436" y="-1037.5" font-family="Helvetica,sans-Serif" font-size="10.00">std::map&lt; unsigned</text>
<text text-anchor="middle" x="485.5" y="-1026.5" font-family="Helvetica,sans-Serif" font-size="10.00"> int, CPUStat &gt;</text>
</a>
</g>
</g>
<!-- Node9&#45;&gt;Node2 -->
<g id="edge8" class="edge">
<title>Node9&#45;&gt;Node2</title>
<path fill="none" stroke="#9a32cd" stroke-dasharray="5,2" d="M553.14,-1025.91C583.39,-1019.85 618.66,-1009.64 647,-992.5 674,-976.18 696.89,-946.7 709.22,-928.73"/>
<polygon fill="#9a32cd" stroke="#9a32cd" points="552.27,-1022.51 543.09,-1027.81 553.56,-1029.39 552.27,-1022.51"/>
<text text-anchor="middle" x="611" y="-1023.5" font-family="Helvetica,sans-Serif" font-size="10.00"> cpu_delta</text>
</g>
<!-- Node11 -->
<g id="node9" class="node">
<title>Node11</title>
<g id="a_node9"><a xlink:title=" ">
<polygon fill="none" stroke="#bfbfbf" points="160,-1016 160,-1035 237,-1035 237,-1016 160,-1016"/>
<text text-anchor="middle" x="198.5" y="-1023" font-family="Helvetica,sans-Serif" font-size="10.00">unsigned int</text>
</a>
</g>
</g>
<!-- Node11&#45;&gt;Node2 -->
<g id="edge13" class="edge">
<title>Node11&#45;&gt;Node2</title>
<path fill="none" stroke="#9a32cd" stroke-dasharray="5,2" d="M247.36,-1021.16C287.53,-1016.81 346.16,-1008.82 396,-995.5 404.29,-993.28 405.74,-990.83 414,-988.5 515.28,-959.97 546.6,-978 647,-946.5 661.83,-941.85 677.59,-934.87 690.58,-928.53"/>
<polygon fill="#9a32cd" stroke="#9a32cd" points="246.89,-1017.69 237.31,-1022.21 247.62,-1024.65 246.89,-1017.69"/>
<text text-anchor="middle" x="485.5" y="-1002.5" font-family="Helvetica,sans-Serif" font-size="10.00"> blockq</text>
<text text-anchor="middle" x="485.5" y="-991.5" font-family="Helvetica,sans-Serif" font-size="10.00">runq</text>
</g>
<!-- Node11&#45;&gt;Node9 -->
<g id="edge9" class="edge">
<title>Node11&#45;&gt;Node9</title>
<path fill="none" stroke="#9a32cd" stroke-dasharray="5,2" d="M247.23,-1027.01C297.03,-1028.58 375.07,-1031.04 427.93,-1032.71"/>
<polygon fill="#9a32cd" stroke="#9a32cd" points="247.16,-1023.5 237.05,-1026.69 246.94,-1030.5 247.16,-1023.5"/>
<text text-anchor="middle" x="336" y="-1034.5" font-family="Helvetica,sans-Serif" font-size="10.00"> keys</text>
</g>
<!-- Node12&#45;&gt;Node2 -->
<g id="edge10" class="edge">
<title>Node12&#45;&gt;Node2</title>
<path fill="none" stroke="#9a32cd" stroke-dasharray="5,2" d="M393.83,-1193.58C461.97,-1203.39 575.85,-1208.27 647,-1149.5 716.03,-1092.49 720.34,-971.27 719.59,-928.68"/>
<polygon fill="#9a32cd" stroke="#9a32cd" points="394.13,-1190.09 383.71,-1192.04 393.07,-1197.01 394.13,-1190.09"/>
<text text-anchor="middle" x="485.5" y="-1202.5" font-family="Helvetica,sans-Serif" font-size="10.00"> loadavg</text>
</g>
<!-- Node13 -->
<g id="node11" class="node">
<title>Node13</title>
<g id="a_node11"><a xlink:title=" ">
<polygon fill="none" stroke="#bfbfbf" points="443,-384 443,-403 528,-403 528,-384 443,-384"/>
<text text-anchor="middle" x="485.5" y="-391" font-family="Helvetica,sans-Serif" font-size="10.00">struct timeval</text>
</a>
</g>
</g>
<!-- Node13&#45;&gt;Node2 -->
<g id="edge12" class="edge">
<title>Node13&#45;&gt;Node2</title>
<path fill="none" stroke="#9a32cd" stroke-dasharray="5,2" d="M533.53,-407.32C542.42,-411.84 550.85,-417.77 557,-425.5 582.13,-457.08 552.67,-480.89 575,-514.5 596.42,-546.74 625.53,-531.29 647,-563.5 684.94,-620.41 710.94,-838.94 717.42,-898.46"/>
<polygon fill="#9a32cd" stroke="#9a32cd" points="534.73,-404.02 524.18,-403.1 531.85,-410.4 534.73,-404.02"/>
<text text-anchor="middle" x="611" y="-577.5" font-family="Helvetica,sans-Serif" font-size="10.00"> t1</text>
<text text-anchor="middle" x="611" y="-566.5" font-family="Helvetica,sans-Serif" font-size="10.00">t2</text>
</g>
<!-- Node18 -->
<g id="node14" class="node">
<title>Node18</title>
<g id="a_node14"><a xlink:href="../../da/dbe/namespaceleanux_1_1tools_1_1lmon.html#d4/d83/structleanux_1_1tools_1_1lmon_1_1XProcView" target="_top" xlink:title=" ">
<polygon fill="none" stroke="black" points="665,-278.5 665,-308.5 775,-308.5 775,-278.5 665,-278.5"/>
<text text-anchor="start" x="673" y="-296.5" font-family="Helvetica,sans-Serif" font-size="10.00">leanux::tools::lmon</text>
<text text-anchor="middle" x="720" y="-285.5" font-family="Helvetica,sans-Serif" font-size="10.00">::XProcView</text>
</a>
</g>
</g>
<!-- Node13&#45;&gt;Node18 -->
<g id="edge23" class="edge">
<title>Node13&#45;&gt;Node18</title>
<path fill="none" stroke="#9a32cd" stroke-dasharray="5,2" d="M525.73,-380.67C558.65,-369.48 606.61,-352.14 647,-333.5 663.1,-326.07 680.49,-316.45 694.15,-308.51"/>
<polygon fill="#9a32cd" stroke="#9a32cd" points="524.39,-377.43 516.03,-383.94 526.62,-384.07 524.39,-377.43"/>
<text text-anchor="middle" x="611" y="-375.5" font-family="Helvetica,sans-Serif" font-size="10.00"> t1</text>
<text text-anchor="middle" x="611" y="-364.5" font-family="Helvetica,sans-Serif" font-size="10.00">t2</text>
</g>
<!-- Node13&#45;&gt;Node27 -->
<g id="edge30" class="edge">
<title>Node13&#45;&gt;Node27</title>
<path fill="none" stroke="#9a32cd" stroke-dasharray="5,2" d="M538.34,-396.08C570.65,-399.17 612.49,-405.88 647,-420.5 668.44,-429.58 689.47,-446.22 703.22,-458.43"/>
<polygon fill="#9a32cd" stroke="#9a32cd" points="538.48,-392.58 528.21,-395.21 537.87,-399.56 538.48,-392.58"/>
<text text-anchor="middle" x="611" y="-434.5" font-family="Helvetica,sans-Serif" font-size="10.00"> t1</text>
<text text-anchor="middle" x="611" y="-423.5" font-family="Helvetica,sans-Serif" font-size="10.00">t2</text>
</g>
<!-- Node13&#45;&gt;Node32 -->
<g id="edge35" class="edge">
<title>Node13&#45;&gt;Node32</title>
<path fill="none" stroke="#9a32cd" stroke-dasharray="5,2" d="M532.56,-379.65C541.85,-374.92 550.68,-368.68 557,-360.5 584.06,-325.44 548.4,-297.9 575,-262.5 596.49,-233.9 620.79,-250.86 647,-226.5 680.3,-195.55 703.22,-145.7 713.26,-120.75"/>
<polygon fill="#9a32cd" stroke="#9a32cd" points="530.87,-376.58 523.2,-383.89 533.75,-382.95 530.87,-376.58"/>
<text text-anchor="middle" x="611" y="-276.5" font-family="Helvetica,sans-Serif" font-size="10.00"> t1</text>
<text text-anchor="middle" x="611" y="-265.5" font-family="Helvetica,sans-Serif" font-size="10.00">t2</text>
</g>
<!-- Node14&#45;&gt;Node2 -->
<g id="edge14" class="edge">
<title>Node14&#45;&gt;Node2</title>
<path fill="none" stroke="#9a32cd" stroke-dasharray="5,2" d="M551.04,-689.93C583.11,-691.47 620.56,-698.67 647,-720.5 703.12,-766.84 715.51,-861.46 718.24,-898.32"/>
<polygon fill="#9a32cd" stroke="#9a32cd" points="550.94,-686.43 540.84,-689.62 550.73,-693.42 550.94,-686.43"/>
<text text-anchor="middle" x="611" y="-723.5" font-family="Helvetica,sans-Serif" font-size="10.00"> snap_range</text>
</g>
<!-- Node15 -->
<g id="node13" class="node">
<title>Node15</title>
<g id="a_node13"><a xlink:title=" ">
<polygon fill="none" stroke="#bfbfbf" points="423.5,-640 423.5,-659 547.5,-659 547.5,-640 423.5,-640"/>
<text text-anchor="middle" x="485.5" y="-647" font-family="Helvetica,sans-Serif" font-size="10.00">std::list&lt; std::string &gt;</text>
</a>
</g>
</g>
<!-- Node15&#45;&gt;Node2 -->
<g id="edge17" class="edge">
<title>Node15&#45;&gt;Node2</title>
<path fill="none" stroke="#9a32cd" stroke-dasharray="5,2" d="M557.84,-646.1C588.58,-648.31 622.91,-656.21 647,-677.5 713.93,-736.64 719.6,-855.99 719.4,-898.25"/>
<polygon fill="#9a32cd" stroke="#9a32cd" points="557.75,-642.59 547.58,-645.56 557.38,-649.58 557.75,-642.59"/>
<text text-anchor="middle" x="611" y="-680.5" font-family="Helvetica,sans-Serif" font-size="10.00"> cpurtpast</text>
</g>
<!-- Node18&#45;&gt;Node1 -->
<g id="edge18" class="edge">
<title>Node18&#45;&gt;Node1</title>
<path fill="none" stroke="#9a32cd" stroke-dasharray="5,2" d="M785.01,-309.1C810.41,-315.29 839.32,-322.33 863.69,-328.27"/>
<polygon fill="#9a32cd" stroke="#9a32cd" points="785.64,-305.65 775.09,-306.68 783.98,-312.45 785.64,-305.65"/>
<text text-anchor="middle" x="819.5" y="-325.5" font-family="Helvetica,sans-Serif" font-size="10.00"> procview_</text>
</g>
<!-- Node19 -->
<g id="node15" class="node">
<title>Node19</title>
<g id="a_node15"><a xlink:title=" ">
<polygon fill="none" stroke="#bfbfbf" points="417.5,-135 417.5,-154 553.5,-154 553.5,-135 417.5,-135"/>
<text text-anchor="middle" x="485.5" y="-142" font-family="Helvetica,sans-Serif" font-size="10.00">std::map&lt; pid_t, uid_t &gt;</text>
</a>
</g>
</g>
<!-- Node19&#45;&gt;Node18 -->
<g id="edge19" class="edge">
<title>Node19&#45;&gt;Node18</title>
<path fill="none" stroke="#9a32cd" stroke-dasharray="5,2" d="M563.94,-135.9C592.09,-136.43 622.88,-141.62 647,-157.5 690.29,-186.01 709.31,-249.41 715.99,-278.45"/>
<polygon fill="#9a32cd" stroke="#9a32cd" points="563.7,-132.4 553.7,-135.91 563.7,-139.4 563.7,-132.4"/>
<text text-anchor="middle" x="611" y="-160.5" font-family="Helvetica,sans-Serif" font-size="10.00"> piduids</text>
</g>
<!-- Node22 -->
<g id="node16" class="node">
<title>Node22</title>
<g id="a_node16"><a xlink:title=" ">
<polygon fill="none" stroke="#bfbfbf" points="418,-320.5 418,-350.5 553,-350.5 553,-320.5 418,-320.5"/>
<text text-anchor="start" x="426" y="-338.5" font-family="Helvetica,sans-Serif" font-size="10.00">std::vector&lt; ProcPidStat</text>
<text text-anchor="middle" x="485.5" y="-327.5" font-family="Helvetica,sans-Serif" font-size="10.00">Delta &gt;</text>
</a>
</g>
</g>
<!-- Node22&#45;&gt;Node18 -->
<g id="edge20" class="edge">
<title>Node22&#45;&gt;Node18</title>
<path fill="none" stroke="#9a32cd" stroke-dasharray="5,2" d="M563.27,-321.63C596.53,-315.62 634.67,-308.73 664.88,-303.28"/>
<polygon fill="#9a32cd" stroke="#9a32cd" points="562.34,-318.24 553.13,-323.46 563.59,-325.13 562.34,-318.24"/>
<text text-anchor="middle" x="611" y="-321.5" font-family="Helvetica,sans-Serif" font-size="10.00"> delta</text>
</g>
<!-- Node24 -->
<g id="node17" class="node">
<title>Node24</title>
<g id="a_node17"><a xlink:title=" ">
<polygon fill="none" stroke="#bfbfbf" points="427.5,-271.5 427.5,-301.5 543.5,-301.5 543.5,-271.5 427.5,-271.5"/>
<text text-anchor="start" x="435.5" y="-289.5" font-family="Helvetica,sans-Serif" font-size="10.00">std::map&lt; pid_t, std</text>
<text text-anchor="middle" x="485.5" y="-278.5" font-family="Helvetica,sans-Serif" font-size="10.00">::string &gt;</text>
</a>
</g>
</g>
<!-- Node24&#45;&gt;Node18 -->
<g id="edge21" class="edge">
<title>Node24&#45;&gt;Node18</title>
<path fill="none" stroke="#9a32cd" stroke-dasharray="5,2" d="M553.89,-288.53C589.15,-289.59 631.75,-290.87 664.85,-291.87"/>
<polygon fill="#9a32cd" stroke="#9a32cd" points="553.77,-285.02 543.67,-288.22 553.56,-292.02 553.77,-285.02"/>
<text text-anchor="middle" x="611" y="-293.5" font-family="Helvetica,sans-Serif" font-size="10.00"> pidargs</text>
</g>
<!-- Node25 -->
<g id="node18" class="node">
<title>Node25</title>
<g id="a_node18"><a xlink:title=" ">
<polygon fill="none" stroke="#bfbfbf" points="466.5,-211 466.5,-230 504.5,-230 504.5,-211 466.5,-211"/>
<text text-anchor="middle" x="485.5" y="-218" font-family="Helvetica,sans-Serif" font-size="10.00">bool</text>
</a>
</g>
</g>
<!-- Node25&#45;&gt;Node18 -->
<g id="edge22" class="edge">
<title>Node25&#45;&gt;Node18</title>
<path fill="none" stroke="#9a32cd" stroke-dasharray="5,2" d="M514.71,-212.58C547.89,-204.81 603.91,-196.63 647,-215.5 676.21,-228.29 698.82,-259.41 710.41,-278.25"/>
<polygon fill="#9a32cd" stroke="#9a32cd" points="513.64,-209.24 504.79,-215.05 515.34,-216.03 513.64,-209.24"/>
<text text-anchor="middle" x="611" y="-218.5" font-family="Helvetica,sans-Serif" font-size="10.00"> disabled</text>
</g>
<!-- Node26 -->
<g id="node19" class="node">
<title>Node26</title>
<g id="a_node19"><a xlink:title=" ">
<polygon fill="none" stroke="#bfbfbf" points="466.5,-173 466.5,-192 504.5,-192 504.5,-173 466.5,-173"/>
<text text-anchor="middle" x="485.5" y="-180" font-family="Helvetica,sans-Serif" font-size="10.00">long</text>
</a>
</g>
</g>
<!-- Node26&#45;&gt;Node18 -->
<g id="edge24" class="edge">
<title>Node26&#45;&gt;Node18</title>
<path fill="none" stroke="#9a32cd" stroke-dasharray="5,2" d="M514.83,-176.55C548.58,-171 605.58,-166.63 647,-189.5 682.57,-209.13 704.33,-254.7 713.66,-278.47"/>
<polygon fill="#9a32cd" stroke="#9a32cd" points="513.97,-173.14 504.74,-178.36 515.2,-180.03 513.97,-173.14"/>
<text text-anchor="middle" x="611" y="-192.5" font-family="Helvetica,sans-Serif" font-size="10.00"> sample_count</text>
</g>
<!-- Node27&#45;&gt;Node1 -->
<g id="edge25" class="edge">
<title>Node27&#45;&gt;Node1</title>
<path fill="none" stroke="#9a32cd" stroke-dasharray="5,2" d="M752.13,-452.64C791.99,-425.93 860.1,-380.29 895.36,-356.67"/>
<polygon fill="#9a32cd" stroke="#9a32cd" points="749.96,-449.88 743.6,-458.36 753.85,-455.7 749.96,-449.88"/>
<text text-anchor="middle" x="819.5" y="-425.5" font-family="Helvetica,sans-Serif" font-size="10.00"> ioview_</text>
</g>
<!-- Node28&#45;&gt;Node27 -->
<g id="edge27" class="edge">
<title>Node28&#45;&gt;Node27</title>
<path fill="none" stroke="#9a32cd" stroke-dasharray="5,2" d="M556.81,-446.8C584.99,-446.76 617.68,-448.03 647,-452.5 655.88,-453.85 665.21,-456 674.09,-458.42"/>
<polygon fill="#9a32cd" stroke="#9a32cd" points="556.63,-443.3 546.65,-446.87 556.67,-450.3 556.63,-443.3"/>
<text text-anchor="middle" x="611" y="-466.5" font-family="Helvetica,sans-Serif" font-size="10.00"> fsbytes1</text>
<text text-anchor="middle" x="611" y="-455.5" font-family="Helvetica,sans-Serif" font-size="10.00">fsbytes2</text>
</g>
<!-- Node29 -->
<g id="node22" class="node">
<title>Node29</title>
<g id="a_node22"><a xlink:title=" ">
<polygon fill="none" stroke="#bfbfbf" points="424.5,-483.5 424.5,-513.5 546.5,-513.5 546.5,-483.5 424.5,-483.5"/>
<text text-anchor="start" x="432.5" y="-501.5" font-family="Helvetica,sans-Serif" font-size="10.00">std::map&lt; std::string,</text>
<text text-anchor="middle" x="485.5" y="-490.5" font-family="Helvetica,sans-Serif" font-size="10.00"> XIORec &gt;</text>
</a>
</g>
</g>
<!-- Node29&#45;&gt;Node27 -->
<g id="edge29" class="edge">
<title>Node29&#45;&gt;Node27</title>
<path fill="none" stroke="#9a32cd" stroke-dasharray="5,2" d="M556.72,-490.95C591.34,-487.23 632.46,-482.81 664.64,-479.35"/>
<polygon fill="#9a32cd" stroke="#9a32cd" points="556.25,-487.48 546.68,-492.03 556.99,-494.44 556.25,-487.48"/>
<text text-anchor="middle" x="611" y="-502.5" font-family="Helvetica,sans-Serif" font-size="10.00"> mountstats</text>
<text text-anchor="middle" x="611" y="-491.5" font-family="Helvetica,sans-Serif" font-size="10.00">iostats</text>
</g>
<!-- Node31 -->
<g id="node23" class="node">
<title>Node31</title>
<g id="a_node23"><a xlink:title=" ">
<polygon fill="none" stroke="#bfbfbf" points="415.5,-602 415.5,-621 555.5,-621 555.5,-602 415.5,-602"/>
<text text-anchor="middle" x="485.5" y="-609" font-family="Helvetica,sans-Serif" font-size="10.00">std::vector&lt; std::string &gt;</text>
</a>
</g>
</g>
<!-- Node31&#45;&gt;Node27 -->
<g id="edge31" class="edge">
<title>Node31&#45;&gt;Node27</title>
<path fill="none" stroke="#9a32cd" stroke-dasharray="5,2" d="M566.12,-606.89C599.35,-603.69 633.37,-598.35 647,-589.5 684.38,-565.24 705.69,-514.05 714.37,-488.57"/>
<polygon fill="#9a32cd" stroke="#9a32cd" points="565.5,-603.43 555.85,-607.81 566.13,-610.4 565.5,-603.43"/>
<text text-anchor="middle" x="611" y="-619.5" font-family="Helvetica,sans-Serif" font-size="10.00"> mountsorted</text>
<text text-anchor="middle" x="611" y="-608.5" font-family="Helvetica,sans-Serif" font-size="10.00">iosorted</text>
</g>
<!-- Node32&#45;&gt;Node1 -->
<g id="edge32" class="edge">
<title>Node32&#45;&gt;Node1</title>
<path fill="none" stroke="#9a32cd" stroke-dasharray="5,2" d="M740.26,-128.57C780.29,-176.53 871.57,-285.88 905.23,-326.2"/>
<polygon fill="#9a32cd" stroke="#9a32cd" points="742.72,-126.06 733.62,-120.62 737.34,-130.54 742.72,-126.06"/>
<text text-anchor="middle" x="819.5" y="-254.5" font-family="Helvetica,sans-Serif" font-size="10.00"> netview_</text>
</g>
<!-- Node33 -->
<g id="node25" class="node">
<title>Node33</title>
<g id="a_node25"><a xlink:title=" ">
<polygon fill="none" stroke="#bfbfbf" points="421.5,-50 421.5,-69 549.5,-69 549.5,-50 421.5,-50"/>
<text text-anchor="middle" x="485.5" y="-57" font-family="Helvetica,sans-Serif" font-size="10.00">std::vector&lt; NetStat &gt;</text>
</a>
</g>
</g>
<!-- Node33&#45;&gt;Node32 -->
<g id="edge34" class="edge">
<title>Node33&#45;&gt;Node32</title>
<path fill="none" stroke="#9a32cd" stroke-dasharray="5,2" d="M559.53,-65.87C587.16,-69.11 618.75,-73.82 647,-80.5 657.95,-83.09 669.56,-86.71 680.19,-90.4"/>
<polygon fill="#9a32cd" stroke="#9a32cd" points="559.87,-62.39 549.54,-64.74 559.08,-69.34 559.87,-62.39"/>
<text text-anchor="middle" x="611" y="-83.5" font-family="Helvetica,sans-Serif" font-size="10.00"> delta</text>
</g>
<!-- Node35 -->
<g id="node26" class="node">
<title>Node35</title>
<g id="a_node26"><a xlink:title=" ">
<polygon fill="none" stroke="#bfbfbf" points="423.5,-0.5 423.5,-30.5 547.5,-30.5 547.5,-0.5 423.5,-0.5"/>
<text text-anchor="start" x="431.5" y="-18.5" font-family="Helvetica,sans-Serif" font-size="10.00">std::list&lt; leanux::</text>
<text text-anchor="middle" x="485.5" y="-7.5" font-family="Helvetica,sans-Serif" font-size="10.00">net::TCPKeyCounter &gt;</text>
</a>
</g>
</g>
<!-- Node35&#45;&gt;Node32 -->
<g id="edge36" class="edge">
<title>Node35&#45;&gt;Node32</title>
<path fill="none" stroke="#9a32cd" stroke-dasharray="5,2" d="M557.57,-19.01C586.41,-22.55 619.37,-29.4 647,-42.5 671.01,-53.89 693.13,-75.65 706.35,-90.37"/>
<polygon fill="#9a32cd" stroke="#9a32cd" points="557.88,-15.52 547.55,-17.89 557.1,-22.48 557.88,-15.52"/>
<text text-anchor="middle" x="611" y="-56.5" font-family="Helvetica,sans-Serif" font-size="10.00"> tcpclient</text>
<text text-anchor="middle" x="611" y="-45.5" font-family="Helvetica,sans-Serif" font-size="10.00">tcpserver</text>
</g>
</g>
</svg>
