<?xml version="1.0" encoding="UTF-8" standalone="no"?>
<!DOCTYPE svg PUBLIC "-//W3C//DTD SVG 1.1//EN"
 "http://www.w3.org/Graphics/SVG/1.1/DTD/svg11.dtd">
<!-- Generated by graphviz version 2.43.0 (0)
 -->
<!-- Title: lib/configfile.hpp Pages: 1 -->
<svg width="832pt" height="84pt"
 viewBox="0.00 0.00 831.50 84.00" xmlns="http://www.w3.org/2000/svg" xmlns:xlink="http://www.w3.org/1999/xlink">
<g id="graph0" class="graph" transform="scale(1 1) rotate(0) translate(4 80)">
<title>lib/configfile.hpp</title>
<!-- Node1 -->
<g id="node1" class="node">
<title>Node1</title>
<g id="a_node1"><a xlink:title=" ">
<polygon fill="#bfbfbf" stroke="black" points="348.5,-56.5 348.5,-75.5 445.5,-75.5 445.5,-56.5 348.5,-56.5"/>
<text text-anchor="middle" x="397" y="-63.5" font-family="Helvetica,sans-Serif" font-size="10.00">lib/configfile.hpp</text>
</a>
</g>
</g>
<!-- Node2 -->
<g id="node2" class="node">
<title>Node2</title>
<g id="a_node2"><a xlink:href="../../d0/d6a/configfile_8cpp.html" target="_top" xlink:title=" ">
<polygon fill="none" stroke="black" points="0,-0.5 0,-19.5 96,-19.5 96,-0.5 0,-0.5"/>
<text text-anchor="middle" x="48" y="-7.5" font-family="Helvetica,sans-Serif" font-size="10.00">lib/configfile.cpp</text>
</a>
</g>
</g>
<!-- Node1&#45;&gt;Node2 -->
<g id="edge1" class="edge">
<title>Node1&#45;&gt;Node2</title>
<path fill="none" stroke="midnightblue" d="M338.18,-56C279.21,-46.96 185.8,-32.6 105,-20 102.13,-19.55 99.18,-19.09 96.2,-18.62"/>
<polygon fill="midnightblue" stroke="midnightblue" points="338.01,-59.52 348.43,-57.57 339.07,-52.6 338.01,-59.52"/>
</g>
<!-- Node3 -->
<g id="node3" class="node">
<title>Node3</title>
<g id="a_node3"><a xlink:href="../../df/dde/lmon_8cpp.html" target="_top" xlink:title=" ">
<polygon fill="none" stroke="black" points="114,-0.5 114,-19.5 230,-19.5 230,-0.5 114,-0.5"/>
<text text-anchor="middle" x="172" y="-7.5" font-family="Helvetica,sans-Serif" font-size="10.00">tools/lmon/lmon.cpp</text>
</a>
</g>
</g>
<!-- Node1&#45;&gt;Node3 -->
<g id="edge2" class="edge">
<title>Node1&#45;&gt;Node3</title>
<path fill="none" stroke="midnightblue" d="M351.53,-54.09C309.03,-43.89 246.42,-28.86 207.49,-19.52"/>
<polygon fill="midnightblue" stroke="midnightblue" points="350.81,-57.51 361.35,-56.44 352.44,-50.71 350.81,-57.51"/>
</g>
<!-- Node4 -->
<g id="node4" class="node">
<title>Node4</title>
<g id="a_node4"><a xlink:href="../../d4/d0e/lmon__curses_8cpp.html" target="_top" xlink:title=" ">
<polygon fill="none" stroke="black" points="248.5,-0.5 248.5,-19.5 401.5,-19.5 401.5,-0.5 248.5,-0.5"/>
<text text-anchor="middle" x="325" y="-7.5" font-family="Helvetica,sans-Serif" font-size="10.00">tools/lmon/lmon_curses.cpp</text>
</a>
</g>
</g>
<!-- Node1&#45;&gt;Node4 -->
<g id="edge3" class="edge">
<title>Node1&#45;&gt;Node4</title>
<path fill="none" stroke="midnightblue" d="M377.13,-50.1C364.18,-40.38 347.7,-28.03 336.78,-19.83"/>
<polygon fill="midnightblue" stroke="midnightblue" points="375.33,-53.12 385.43,-56.32 379.53,-47.52 375.33,-53.12"/>
</g>
<!-- Node5 -->
<g id="node5" class="node">
<title>Node5</title>
<g id="a_node5"><a xlink:href="../../da/de9/lar_8cpp.html" target="_top" xlink:title=" ">
<polygon fill="none" stroke="black" points="420,-0.5 420,-19.5 518,-19.5 518,-0.5 420,-0.5"/>
<text text-anchor="middle" x="469" y="-7.5" font-family="Helvetica,sans-Serif" font-size="10.00">tools/lard/lar.cpp</text>
</a>
</g>
</g>
<!-- Node1&#45;&gt;Node5 -->
<g id="edge4" class="edge">
<title>Node1&#45;&gt;Node5</title>
<path fill="none" stroke="midnightblue" d="M416.87,-50.1C429.82,-40.38 446.3,-28.03 457.22,-19.83"/>
<polygon fill="midnightblue" stroke="midnightblue" points="414.47,-47.52 408.57,-56.32 418.67,-53.12 414.47,-47.52"/>
</g>
<!-- Node6 -->
<g id="node6" class="node">
<title>Node6</title>
<g id="a_node6"><a xlink:href="../../da/da6/lar__schema_8cpp.html" target="_top" xlink:title=" ">
<polygon fill="none" stroke="black" points="536,-0.5 536,-19.5 678,-19.5 678,-0.5 536,-0.5"/>
<text text-anchor="middle" x="607" y="-7.5" font-family="Helvetica,sans-Serif" font-size="10.00">tools/lard/lar_schema.cpp</text>
</a>
</g>
</g>
<!-- Node1&#45;&gt;Node6 -->
<g id="edge5" class="edge">
<title>Node1&#45;&gt;Node6</title>
<path fill="none" stroke="midnightblue" d="M440.19,-53.89C479.85,-43.7 537.77,-28.8 573.88,-19.52"/>
<polygon fill="midnightblue" stroke="midnightblue" points="439.09,-50.56 430.28,-56.44 440.83,-57.34 439.09,-50.56"/>
</g>
<!-- Node7 -->
<g id="node7" class="node">
<title>Node7</title>
<g id="a_node7"><a xlink:href="../../d4/dc8/lar__snap_8cpp.html" target="_top" xlink:title=" ">
<polygon fill="none" stroke="black" points="696.5,-0.5 696.5,-19.5 823.5,-19.5 823.5,-0.5 696.5,-0.5"/>
<text text-anchor="middle" x="760" y="-7.5" font-family="Helvetica,sans-Serif" font-size="10.00">tools/lard/lar_snap.cpp</text>
</a>
</g>
</g>
<!-- Node1&#45;&gt;Node7 -->
<g id="edge6" class="edge">
<title>Node1&#45;&gt;Node7</title>
<path fill="none" stroke="midnightblue" d="M455.71,-56.27C523.79,-46.14 635.28,-29.55 702.74,-19.52"/>
<polygon fill="midnightblue" stroke="midnightblue" points="454.96,-52.84 445.58,-57.77 455.99,-59.76 454.96,-52.84"/>
</g>
</g>
</svg>
