<?xml version="1.0" encoding="UTF-8" standalone="no"?>
<!DOCTYPE svg PUBLIC "-//W3C//DTD SVG 1.1//EN"
 "http://www.w3.org/Graphics/SVG/1.1/DTD/svg11.dtd">
<!-- Generated by graphviz version 2.43.0 (0)
 -->
<!-- Title: lib/natsort.cpp Pages: 1 -->
<svg width="301pt" height="140pt"
 viewBox="0.00 0.00 301.00 140.00" xmlns="http://www.w3.org/2000/svg" xmlns:xlink="http://www.w3.org/1999/xlink">
<g id="graph0" class="graph" transform="scale(1 1) rotate(0) translate(4 136)">
<title>lib/natsort.cpp</title>
<!-- Node1 -->
<g id="node1" class="node">
<title>Node1</title>
<g id="a_node1"><a xlink:title=" ">
<polygon fill="#bfbfbf" stroke="black" points="109,-112.5 109,-131.5 195,-131.5 195,-112.5 109,-112.5"/>
<text text-anchor="middle" x="152" y="-119.5" font-family="Helvetica,sans-Serif" font-size="10.00">lib/natsort.cpp</text>
</a>
</g>
</g>
<!-- Node2 -->
<g id="node2" class="node">
<title>Node2</title>
<g id="a_node2"><a xlink:href="../../da/d28/natsort_8hpp.html" target="_top" xlink:title=" ">
<polygon fill="none" stroke="black" points="0,-56.5 0,-75.5 72,-75.5 72,-56.5 0,-56.5"/>
<text text-anchor="middle" x="36" y="-63.5" font-family="Helvetica,sans-Serif" font-size="10.00">natsort.hpp</text>
</a>
</g>
</g>
<!-- Node1&#45;&gt;Node2 -->
<g id="edge1" class="edge">
<title>Node1&#45;&gt;Node2</title>
<path fill="none" stroke="midnightblue" d="M133.62,-112.44C114.78,-103.68 85.27,-89.94 63.62,-79.86"/>
<polygon fill="midnightblue" stroke="midnightblue" points="64.84,-76.56 54.29,-75.52 61.88,-82.91 64.84,-76.56"/>
</g>
<!-- Node4 -->
<g id="node4" class="node">
<title>Node4</title>
<g id="a_node4"><a xlink:title=" ">
<polygon fill="none" stroke="#bfbfbf" points="90.5,-56.5 90.5,-75.5 143.5,-75.5 143.5,-56.5 90.5,-56.5"/>
<text text-anchor="middle" x="117" y="-63.5" font-family="Helvetica,sans-Serif" font-size="10.00">ctype.h</text>
</a>
</g>
</g>
<!-- Node1&#45;&gt;Node4 -->
<g id="edge3" class="edge">
<title>Node1&#45;&gt;Node4</title>
<path fill="none" stroke="midnightblue" d="M146.22,-112.08C141.33,-104.53 134.17,-93.49 128.17,-84.23"/>
<polygon fill="midnightblue" stroke="midnightblue" points="131.05,-82.24 122.67,-75.75 125.17,-86.05 131.05,-82.24"/>
</g>
<!-- Node5 -->
<g id="node5" class="node">
<title>Node5</title>
<g id="a_node5"><a xlink:title=" ">
<polygon fill="none" stroke="#bfbfbf" points="161.5,-56.5 161.5,-75.5 214.5,-75.5 214.5,-56.5 161.5,-56.5"/>
<text text-anchor="middle" x="188" y="-63.5" font-family="Helvetica,sans-Serif" font-size="10.00">string.h</text>
</a>
</g>
</g>
<!-- Node1&#45;&gt;Node5 -->
<g id="edge4" class="edge">
<title>Node1&#45;&gt;Node5</title>
<path fill="none" stroke="midnightblue" d="M157.94,-112.08C162.98,-104.53 170.34,-93.49 176.51,-84.23"/>
<polygon fill="midnightblue" stroke="midnightblue" points="179.53,-86.01 182.17,-75.75 173.71,-82.13 179.53,-86.01"/>
</g>
<!-- Node6 -->
<g id="node6" class="node">
<title>Node6</title>
<g id="a_node6"><a xlink:title=" ">
<polygon fill="none" stroke="#bfbfbf" points="233,-56.5 233,-75.5 293,-75.5 293,-56.5 233,-56.5"/>
<text text-anchor="middle" x="263" y="-63.5" font-family="Helvetica,sans-Serif" font-size="10.00">iostream</text>
</a>
</g>
</g>
<!-- Node1&#45;&gt;Node6 -->
<g id="edge5" class="edge">
<title>Node1&#45;&gt;Node6</title>
<path fill="none" stroke="midnightblue" d="M169.83,-112.32C187.72,-103.62 215.48,-90.12 236.05,-80.11"/>
<polygon fill="midnightblue" stroke="midnightblue" points="237.75,-83.18 245.21,-75.65 234.69,-76.88 237.75,-83.18"/>
</g>
<!-- Node3 -->
<g id="node3" class="node">
<title>Node3</title>
<g id="a_node3"><a xlink:title=" ">
<polygon fill="none" stroke="#bfbfbf" points="14,-0.5 14,-19.5 58,-19.5 58,-0.5 14,-0.5"/>
<text text-anchor="middle" x="36" y="-7.5" font-family="Helvetica,sans-Serif" font-size="10.00">string</text>
</a>
</g>
</g>
<!-- Node2&#45;&gt;Node3 -->
<g id="edge2" class="edge">
<title>Node2&#45;&gt;Node3</title>
<path fill="none" stroke="midnightblue" d="M36,-56.08C36,-49.01 36,-38.86 36,-29.99"/>
<polygon fill="midnightblue" stroke="midnightblue" points="39.5,-29.75 36,-19.75 32.5,-29.75 39.5,-29.75"/>
</g>
</g>
</svg>
