<?xml version="1.0" encoding="UTF-8" standalone="no"?>
<!DOCTYPE svg PUBLIC "-//W3C//DTD SVG 1.1//EN"
 "http://www.w3.org/Graphics/SVG/1.1/DTD/svg11.dtd">
<!-- Generated by graphviz version 2.43.0 (0)
 -->
<!-- Title: leanux::persist::Database::begin Pages: 1 -->
<svg width="569pt" height="61pt"
 viewBox="0.00 0.00 569.00 61.00" xmlns="http://www.w3.org/2000/svg" xmlns:xlink="http://www.w3.org/1999/xlink">
<g id="graph0" class="graph" transform="scale(1 1) rotate(0) translate(4 57)">
<title>leanux::persist::Database::begin</title>
<!-- Node1 -->
<g id="node1" class="node">
<title>Node1</title>
<g id="a_node1"><a xlink:title="Begin a transaction.">
<polygon fill="#bfbfbf" stroke="black" points="420,-22.5 420,-52.5 561,-52.5 561,-22.5 420,-22.5"/>
<text text-anchor="start" x="428" y="-40.5" font-family="Helvetica,sans-Serif" font-size="10.00">leanux::persist::Database</text>
<text text-anchor="middle" x="490.5" y="-29.5" font-family="Helvetica,sans-Serif" font-size="10.00">::begin</text>
</a>
</g>
</g>
<!-- Node2 -->
<g id="node2" class="node">
<title>Node2</title>
<g id="a_node2"><a xlink:href="../../d4/d62/namespaceleanux_1_1tools_1_1lard.html#a6de74bbef1d571bf7eb000e62900a11d" target="_top" xlink:title=" ">
<polygon fill="none" stroke="black" points="140,-22.5 140,-52.5 244,-52.5 244,-22.5 140,-22.5"/>
<text text-anchor="start" x="148" y="-40.5" font-family="Helvetica,sans-Serif" font-size="10.00">leanux::tools::lard</text>
<text text-anchor="middle" x="192" y="-29.5" font-family="Helvetica,sans-Serif" font-size="10.00">::mainLoop</text>
</a>
</g>
</g>
<!-- Node1&#45;&gt;Node2 -->
<g id="edge1" class="edge">
<title>Node1&#45;&gt;Node2</title>
<path fill="none" stroke="midnightblue" d="M409.8,-40.01C401.1,-40.21 392.36,-40.38 384,-40.5 337.78,-41.16 326.22,-41.3 280,-40.5 268.36,-40.3 255.86,-39.95 244.06,-39.55"/>
<polygon fill="midnightblue" stroke="midnightblue" points="410.08,-43.5 419.99,-39.76 409.91,-36.5 410.08,-43.5"/>
</g>
<!-- Node5 -->
<g id="node4" class="node">
<title>Node5</title>
<g id="a_node4"><a xlink:href="../../d4/d62/namespaceleanux_1_1tools_1_1lard.html#a45d90387f852d7a71981b5d4ff93d8da" target="_top" xlink:title=" ">
<polygon fill="none" stroke="black" points="280,-0.5 280,-30.5 384,-30.5 384,-0.5 280,-0.5"/>
<text text-anchor="start" x="288" y="-18.5" font-family="Helvetica,sans-Serif" font-size="10.00">leanux::tools::lard</text>
<text text-anchor="middle" x="332" y="-7.5" font-family="Helvetica,sans-Serif" font-size="10.00">::shrinkDB</text>
</a>
</g>
</g>
<!-- Node1&#45;&gt;Node5 -->
<g id="edge3" class="edge">
<title>Node1&#45;&gt;Node5</title>
<path fill="none" stroke="midnightblue" d="M410,-26.32C401.17,-25.08 392.36,-23.85 384.03,-22.67"/>
<polygon fill="midnightblue" stroke="midnightblue" points="409.56,-29.8 419.95,-27.72 410.53,-22.86 409.56,-29.8"/>
</g>
<!-- Node3 -->
<g id="node3" class="node">
<title>Node3</title>
<g id="a_node3"><a xlink:href="../../d4/d62/namespaceleanux_1_1tools_1_1lard.html#aecb1bb340203cfe30357d494d4b2622e" target="_top" xlink:title="Entry point.">
<polygon fill="none" stroke="red" points="0,-22.5 0,-52.5 104,-52.5 104,-22.5 0,-22.5"/>
<text text-anchor="start" x="8" y="-40.5" font-family="Helvetica,sans-Serif" font-size="10.00">leanux::tools::lard</text>
<text text-anchor="middle" x="52" y="-29.5" font-family="Helvetica,sans-Serif" font-size="10.00">::main</text>
</a>
</g>
</g>
<!-- Node2&#45;&gt;Node3 -->
<g id="edge2" class="edge">
<title>Node2&#45;&gt;Node3</title>
<path fill="none" stroke="midnightblue" d="M129.5,-37.5C121.13,-37.5 112.6,-37.5 104.43,-37.5"/>
<polygon fill="midnightblue" stroke="midnightblue" points="129.61,-41 139.61,-37.5 129.61,-34 129.61,-41"/>
</g>
<!-- Node5&#45;&gt;Node2 -->
<g id="edge4" class="edge">
<title>Node5&#45;&gt;Node2</title>
<path fill="none" stroke="midnightblue" d="M269.5,-25.3C261.13,-26.64 252.6,-28 244.43,-29.3"/>
<polygon fill="midnightblue" stroke="midnightblue" points="270.29,-28.72 279.61,-23.69 269.19,-21.81 270.29,-28.72"/>
</g>
</g>
</svg>
