<?xml version="1.0" encoding="UTF-8" standalone="no"?>
<!DOCTYPE svg PUBLIC "-//W3C//DTD SVG 1.1//EN"
 "http://www.w3.org/Graphics/SVG/1.1/DTD/svg11.dtd">
<!-- Generated by graphviz version 2.43.0 (0)
 -->
<!-- Title: leanux::persist::Database::Database Pages: 1 -->
<svg width="307pt" height="186pt"
 viewBox="0.00 0.00 307.00 186.00" xmlns="http://www.w3.org/2000/svg" xmlns:xlink="http://www.w3.org/1999/xlink">
<g id="graph0" class="graph" transform="scale(1 1) rotate(0) translate(4 182)">
<title>leanux::persist::Database::Database</title>
<!-- Node1 -->
<g id="node1" class="node">
<title>Node1</title>
<g id="a_node1"><a xlink:title="Constructor with explicit wait handler.">
<polygon fill="#bfbfbf" stroke="black" points="0,-73.5 0,-103.5 141,-103.5 141,-73.5 0,-73.5"/>
<text text-anchor="start" x="8" y="-91.5" font-family="Helvetica,sans-Serif" font-size="10.00">leanux::persist::Database</text>
<text text-anchor="middle" x="70.5" y="-80.5" font-family="Helvetica,sans-Serif" font-size="10.00">::Database</text>
</a>
</g>
</g>
<!-- Node2 -->
<g id="node2" class="node">
<title>Node2</title>
<g id="a_node2"><a xlink:href="../../d2/d13/namespaceleanux_1_1persist.html#a3fdc591c3ca88dbec9d70795241d07e5" target="_top" xlink:title=" ">
<polygon fill="none" stroke="black" points="177,-147.5 177,-177.5 299,-177.5 299,-147.5 177,-147.5"/>
<text text-anchor="start" x="185" y="-165.5" font-family="Helvetica,sans-Serif" font-size="10.00">leanux::persist::sqlite</text>
<text text-anchor="middle" x="238" y="-154.5" font-family="Helvetica,sans-Serif" font-size="10.00">_ext_ceil</text>
</a>
</g>
</g>
<!-- Node1&#45;&gt;Node2 -->
<g id="edge1" class="edge">
<title>Node1&#45;&gt;Node2</title>
<path fill="none" stroke="midnightblue" d="M102.2,-103.67C123.13,-113.85 151.55,-127.39 177,-138.5 180.88,-140.19 184.91,-141.9 188.97,-143.6"/>
<polygon fill="midnightblue" stroke="midnightblue" points="187.86,-146.93 198.44,-147.49 190.52,-140.45 187.86,-146.93"/>
</g>
<!-- Node3 -->
<g id="node3" class="node">
<title>Node3</title>
<g id="a_node3"><a xlink:href="../../d2/d13/namespaceleanux_1_1persist.html#a2d562542995cfc83c6a4c78b3bf33197" target="_top" xlink:title=" ">
<polygon fill="none" stroke="black" points="177,-98.5 177,-128.5 299,-128.5 299,-98.5 177,-98.5"/>
<text text-anchor="start" x="185" y="-116.5" font-family="Helvetica,sans-Serif" font-size="10.00">leanux::persist::sqlite</text>
<text text-anchor="middle" x="238" y="-105.5" font-family="Helvetica,sans-Serif" font-size="10.00">_ext_floor</text>
</a>
</g>
</g>
<!-- Node1&#45;&gt;Node3 -->
<g id="edge2" class="edge">
<title>Node1&#45;&gt;Node3</title>
<path fill="none" stroke="midnightblue" d="M141.21,-99.03C149.62,-100.3 158.22,-101.6 166.65,-102.87"/>
<polygon fill="midnightblue" stroke="midnightblue" points="166.4,-106.38 176.81,-104.41 167.45,-99.45 166.4,-106.38"/>
</g>
<!-- Node4 -->
<g id="node4" class="node">
<title>Node4</title>
<g id="a_node4"><a xlink:href="../../d2/d13/namespaceleanux_1_1persist.html#a9eb9338f62757db1ab1c785fec870d7e" target="_top" xlink:title=" ">
<polygon fill="none" stroke="black" points="177,-49.5 177,-79.5 299,-79.5 299,-49.5 177,-49.5"/>
<text text-anchor="start" x="185" y="-67.5" font-family="Helvetica,sans-Serif" font-size="10.00">leanux::persist::sqlite</text>
<text text-anchor="middle" x="238" y="-56.5" font-family="Helvetica,sans-Serif" font-size="10.00">_ext_log2</text>
</a>
</g>
</g>
<!-- Node1&#45;&gt;Node4 -->
<g id="edge3" class="edge">
<title>Node1&#45;&gt;Node4</title>
<path fill="none" stroke="midnightblue" d="M141.21,-78.39C149.62,-77.17 158.22,-75.92 166.65,-74.7"/>
<polygon fill="midnightblue" stroke="midnightblue" points="167.42,-78.13 176.81,-73.23 166.41,-71.2 167.42,-78.13"/>
</g>
<!-- Node5 -->
<g id="node5" class="node">
<title>Node5</title>
<g id="a_node5"><a xlink:href="../../d2/d13/namespaceleanux_1_1persist.html#aea0f19a3087b73d3f35b4b6a4607d003" target="_top" xlink:title=" ">
<polygon fill="none" stroke="black" points="177,-0.5 177,-30.5 299,-30.5 299,-0.5 177,-0.5"/>
<text text-anchor="start" x="185" y="-18.5" font-family="Helvetica,sans-Serif" font-size="10.00">leanux::persist::sqlite</text>
<text text-anchor="middle" x="238" y="-7.5" font-family="Helvetica,sans-Serif" font-size="10.00">_ext_pow</text>
</a>
</g>
</g>
<!-- Node1&#45;&gt;Node5 -->
<g id="edge4" class="edge">
<title>Node1&#45;&gt;Node5</title>
<path fill="none" stroke="midnightblue" d="M104.17,-73.31C124.95,-63.73 152.46,-51.19 177,-40.5 181.48,-38.55 186.17,-36.54 190.86,-34.55"/>
<polygon fill="midnightblue" stroke="midnightblue" points="192.57,-37.62 200.43,-30.52 189.86,-31.17 192.57,-37.62"/>
</g>
</g>
</svg>
