<?xml version="1.0" encoding="UTF-8" standalone="no"?>
<!DOCTYPE svg PUBLIC "-//W3C//DTD SVG 1.1//EN"
 "http://www.w3.org/Graphics/SVG/1.1/DTD/svg11.dtd">
<!-- Generated by graphviz version 2.43.0 (0)
 -->
<!-- Title: leanux::persist::Database::getUserVersion Pages: 1 -->
<svg width="513pt" height="155pt"
 viewBox="0.00 0.00 513.00 155.30" xmlns="http://www.w3.org/2000/svg" xmlns:xlink="http://www.w3.org/1999/xlink">
<g id="graph0" class="graph" transform="scale(1 1) rotate(0) translate(4 151.3)">
<title>leanux::persist::Database::getUserVersion</title>
<!-- Node1 -->
<g id="node1" class="node">
<title>Node1</title>
<g id="a_node1"><a xlink:title="get the current user_version pragma">
<polygon fill="#bfbfbf" stroke="black" points="0,-73.5 0,-103.5 141,-103.5 141,-73.5 0,-73.5"/>
<text text-anchor="start" x="8" y="-91.5" font-family="Helvetica,sans-Serif" font-size="10.00">leanux::persist::Database</text>
<text text-anchor="middle" x="70.5" y="-80.5" font-family="Helvetica,sans-Serif" font-size="10.00">::getUserVersion</text>
</a>
</g>
</g>
<!-- Node2 -->
<g id="node2" class="node">
<title>Node2</title>
<g id="a_node2"><a xlink:href="../../db/dff/classleanux_1_1persist_1_1Statement.html#a5b31fb14297ad5c1c342cfc0d8f797de" target="_top" xlink:title="A statement handle can be explicitly closed without deleting the Statement object itself.">
<polygon fill="none" stroke="black" points="359,-95.5 359,-125.5 505,-125.5 505,-95.5 359,-95.5"/>
<text text-anchor="start" x="367" y="-113.5" font-family="Helvetica,sans-Serif" font-size="10.00">leanux::persist::Statement</text>
<text text-anchor="middle" x="432" y="-102.5" font-family="Helvetica,sans-Serif" font-size="10.00">::close</text>
</a>
</g>
</g>
<!-- Node1&#45;&gt;Node2 -->
<g id="edge1" class="edge">
<title>Node1&#45;&gt;Node2</title>
<path fill="none" stroke="midnightblue" d="M95.53,-103.69C116.22,-115.81 147.34,-131.83 177,-138.5 240.31,-152.74 258.63,-146.71 323,-138.5 339.71,-136.37 357.53,-132.46 373.77,-128.22"/>
<polygon fill="midnightblue" stroke="midnightblue" points="374.92,-131.53 383.66,-125.55 373.09,-124.77 374.92,-131.53"/>
</g>
<!-- Node3 -->
<g id="node3" class="node">
<title>Node3</title>
<g id="a_node3"><a xlink:href="../../d4/d2c/classleanux_1_1persist_1_1Query.html#a86b5deec83f9cdf0c72f6caf503984d9" target="_top" xlink:title="Get int value from select list.">
<polygon fill="none" stroke="black" points="188,-98.5 188,-128.5 312,-128.5 312,-98.5 188,-98.5"/>
<text text-anchor="start" x="196" y="-116.5" font-family="Helvetica,sans-Serif" font-size="10.00">leanux::persist::Query</text>
<text text-anchor="middle" x="250" y="-105.5" font-family="Helvetica,sans-Serif" font-size="10.00">::getInt</text>
</a>
</g>
</g>
<!-- Node1&#45;&gt;Node3 -->
<g id="edge2" class="edge">
<title>Node1&#45;&gt;Node3</title>
<path fill="none" stroke="midnightblue" d="M141.14,-98.31C153.21,-100.01 165.77,-101.78 177.87,-103.48"/>
<polygon fill="midnightblue" stroke="midnightblue" points="177.52,-106.97 187.91,-104.9 178.5,-100.04 177.52,-106.97"/>
</g>
<!-- Node4 -->
<g id="node4" class="node">
<title>Node4</title>
<g id="a_node4"><a xlink:href="../../db/dff/classleanux_1_1persist_1_1Statement.html#a1b809c1b1d0e9d24af65e439c3893d74" target="_top" xlink:title="Prepare a SQL statement.">
<polygon fill="none" stroke="black" points="177,-49.5 177,-79.5 323,-79.5 323,-49.5 177,-49.5"/>
<text text-anchor="start" x="185" y="-67.5" font-family="Helvetica,sans-Serif" font-size="10.00">leanux::persist::Statement</text>
<text text-anchor="middle" x="250" y="-56.5" font-family="Helvetica,sans-Serif" font-size="10.00">::prepare</text>
</a>
</g>
</g>
<!-- Node1&#45;&gt;Node4 -->
<g id="edge3" class="edge">
<title>Node1&#45;&gt;Node4</title>
<path fill="none" stroke="midnightblue" d="M141.14,-79.08C149.59,-77.94 158.28,-76.77 166.88,-75.6"/>
<polygon fill="midnightblue" stroke="midnightblue" points="167.49,-79.05 176.93,-74.24 166.55,-72.12 167.49,-79.05"/>
</g>
<!-- Node5 -->
<g id="node5" class="node">
<title>Node5</title>
<g id="a_node5"><a xlink:href="../../d4/d2c/classleanux_1_1persist_1_1Query.html#a294e11c33a22761503c49418f5ca9815" target="_top" xlink:title="Step the result list, end of list returns false.">
<polygon fill="none" stroke="black" points="188,-0.5 188,-30.5 312,-30.5 312,-0.5 188,-0.5"/>
<text text-anchor="start" x="196" y="-18.5" font-family="Helvetica,sans-Serif" font-size="10.00">leanux::persist::Query</text>
<text text-anchor="middle" x="250" y="-7.5" font-family="Helvetica,sans-Serif" font-size="10.00">::step</text>
</a>
</g>
</g>
<!-- Node1&#45;&gt;Node5 -->
<g id="edge5" class="edge">
<title>Node1&#45;&gt;Node5</title>
<path fill="none" stroke="midnightblue" d="M102.56,-73.45C123.4,-63.58 151.59,-50.67 177,-40.5 182.43,-38.33 188.13,-36.16 193.85,-34.06"/>
<polygon fill="midnightblue" stroke="midnightblue" points="195.22,-37.29 203.44,-30.6 192.85,-30.7 195.22,-37.29"/>
</g>
<!-- Node4&#45;&gt;Node2 -->
<g id="edge4" class="edge">
<title>Node4&#45;&gt;Node2</title>
<path fill="none" stroke="midnightblue" d="M309.94,-79.56C326.65,-83.83 344.99,-88.52 362.23,-92.93"/>
<polygon fill="midnightblue" stroke="midnightblue" points="361.68,-96.4 372.24,-95.48 363.41,-89.62 361.68,-96.4"/>
</g>
</g>
</svg>
