<?xml version="1.0" encoding="UTF-8" standalone="no"?>
<!DOCTYPE svg PUBLIC "-//W3C//DTD SVG 1.1//EN"
 "http://www.w3.org/Graphics/SVG/1.1/DTD/svg11.dtd">
<!-- Generated by graphviz version 2.43.0 (0)
 -->
<!-- Title: leanux::persist::Database::lastInsertRowid Pages: 1 -->
<svg width="465pt" height="284pt"
 viewBox="0.00 0.00 465.00 284.00" xmlns="http://www.w3.org/2000/svg" xmlns:xlink="http://www.w3.org/1999/xlink">
<g id="graph0" class="graph" transform="scale(1 1) rotate(0) translate(4 280)">
<title>leanux::persist::Database::lastInsertRowid</title>
<!-- Node1 -->
<g id="node1" class="node">
<title>Node1</title>
<g id="a_node1"><a xlink:title="Get the rowid of the last inserted row.">
<polygon fill="#bfbfbf" stroke="black" points="316,-122.5 316,-152.5 457,-152.5 457,-122.5 316,-122.5"/>
<text text-anchor="start" x="324" y="-140.5" font-family="Helvetica,sans-Serif" font-size="10.00">leanux::persist::Database</text>
<text text-anchor="middle" x="386.5" y="-129.5" font-family="Helvetica,sans-Serif" font-size="10.00">::lastInsertRowid</text>
</a>
</g>
</g>
<!-- Node2 -->
<g id="node2" class="node">
<title>Node2</title>
<g id="a_node2"><a xlink:href="../../d3/d88/classleanux_1_1tools_1_1lard_1_1TimeSnap.html#ae4186449701030aec1986be6c197ba24" target="_top" xlink:title=" ">
<polygon fill="none" stroke="black" points="147,-245.5 147,-275.5 273,-275.5 273,-245.5 147,-245.5"/>
<text text-anchor="start" x="155" y="-263.5" font-family="Helvetica,sans-Serif" font-size="10.00">leanux::tools::lard</text>
<text text-anchor="middle" x="210" y="-252.5" font-family="Helvetica,sans-Serif" font-size="10.00">::TimeSnap::storeSnap</text>
</a>
</g>
</g>
<!-- Node1&#45;&gt;Node2 -->
<g id="edge1" class="edge">
<title>Node1&#45;&gt;Node2</title>
<path fill="none" stroke="midnightblue" d="M366.41,-160.29C346.76,-182.47 314.26,-215.77 280,-236.5 274.47,-239.85 268.4,-242.82 262.23,-245.42"/>
<polygon fill="midnightblue" stroke="midnightblue" points="369.12,-162.5 373.05,-152.66 363.84,-157.91 369.12,-162.5"/>
</g>
<!-- Node6 -->
<g id="node4" class="node">
<title>Node6</title>
<g id="a_node4"><a xlink:href="../../d8/d77/classleanux_1_1tools_1_1lard_1_1IOSnap.html#acd9defb7ca62e96d5f76b04b3e365b41" target="_top" xlink:title=" ">
<polygon fill="none" stroke="black" points="154,-196.5 154,-226.5 266,-226.5 266,-196.5 154,-196.5"/>
<text text-anchor="start" x="162" y="-214.5" font-family="Helvetica,sans-Serif" font-size="10.00">leanux::tools::lard</text>
<text text-anchor="middle" x="210" y="-203.5" font-family="Helvetica,sans-Serif" font-size="10.00">::IOSnap::storeSnap</text>
</a>
</g>
</g>
<!-- Node1&#45;&gt;Node6 -->
<g id="edge3" class="edge">
<title>Node1&#45;&gt;Node6</title>
<path fill="none" stroke="midnightblue" d="M346.87,-157.04C327.09,-166.72 302.51,-178.28 280,-187.5 272.49,-190.58 264.42,-193.61 256.54,-196.44"/>
<polygon fill="midnightblue" stroke="midnightblue" points="348.45,-160.16 355.87,-152.6 345.35,-153.88 348.45,-160.16"/>
</g>
<!-- Node7 -->
<g id="node5" class="node">
<title>Node7</title>
<g id="a_node5"><a xlink:href="../../d2/de5/classleanux_1_1tools_1_1lard_1_1NetSnap.html#a6a04b1f2237b5fe9ac5f7be64721f23f" target="_top" xlink:title=" ">
<polygon fill="none" stroke="black" points="150.5,-147.5 150.5,-177.5 269.5,-177.5 269.5,-147.5 150.5,-147.5"/>
<text text-anchor="start" x="158.5" y="-165.5" font-family="Helvetica,sans-Serif" font-size="10.00">leanux::tools::lard</text>
<text text-anchor="middle" x="210" y="-154.5" font-family="Helvetica,sans-Serif" font-size="10.00">::NetSnap::storeSnap</text>
</a>
</g>
</g>
<!-- Node1&#45;&gt;Node7 -->
<g id="edge5" class="edge">
<title>Node1&#45;&gt;Node7</title>
<path fill="none" stroke="midnightblue" d="M305.66,-148.94C293.54,-150.67 281.23,-152.44 269.66,-154.1"/>
<polygon fill="midnightblue" stroke="midnightblue" points="306.38,-152.37 315.78,-147.49 305.39,-145.44 306.38,-152.37"/>
</g>
<!-- Node8 -->
<g id="node6" class="node">
<title>Node8</title>
<g id="a_node6"><a xlink:href="../../d4/d0e/classleanux_1_1tools_1_1lard_1_1ProcSnap.html#ab816bcbf8f8986599df48ee7131c10fb" target="_top" xlink:title=" ">
<polygon fill="none" stroke="black" points="149,-98.5 149,-128.5 271,-128.5 271,-98.5 149,-98.5"/>
<text text-anchor="start" x="157" y="-116.5" font-family="Helvetica,sans-Serif" font-size="10.00">leanux::tools::lard</text>
<text text-anchor="middle" x="210" y="-105.5" font-family="Helvetica,sans-Serif" font-size="10.00">::ProcSnap::storeSnap</text>
</a>
</g>
</g>
<!-- Node1&#45;&gt;Node8 -->
<g id="edge7" class="edge">
<title>Node1&#45;&gt;Node8</title>
<path fill="none" stroke="midnightblue" d="M305.63,-126.51C294,-124.92 282.19,-123.29 271.05,-121.76"/>
<polygon fill="midnightblue" stroke="midnightblue" points="305.4,-130.02 315.78,-127.91 306.35,-123.08 305.4,-130.02"/>
</g>
<!-- Node9 -->
<g id="node7" class="node">
<title>Node9</title>
<g id="a_node7"><a xlink:href="../../d0/db5/classleanux_1_1tools_1_1lard_1_1MountSnap.html#a7288efb64fc31818416b8c52c4ba3a0d" target="_top" xlink:title=" ">
<polygon fill="none" stroke="black" points="144,-49.5 144,-79.5 276,-79.5 276,-49.5 144,-49.5"/>
<text text-anchor="start" x="152" y="-67.5" font-family="Helvetica,sans-Serif" font-size="10.00">leanux::tools::lard</text>
<text text-anchor="middle" x="210" y="-56.5" font-family="Helvetica,sans-Serif" font-size="10.00">::MountSnap::storeSnap</text>
</a>
</g>
</g>
<!-- Node1&#45;&gt;Node9 -->
<g id="edge9" class="edge">
<title>Node1&#45;&gt;Node9</title>
<path fill="none" stroke="midnightblue" d="M344.75,-118.05C325.31,-109 301.62,-98.32 280,-89.5 271.74,-86.13 262.84,-82.74 254.27,-79.58"/>
<polygon fill="midnightblue" stroke="midnightblue" points="343.39,-121.27 353.93,-122.34 346.36,-114.93 343.39,-121.27"/>
</g>
<!-- Node10 -->
<g id="node8" class="node">
<title>Node10</title>
<g id="a_node8"><a xlink:href="../../d7/dff/classleanux_1_1tools_1_1lard_1_1TCPEstaSnap.html#adc30b5d65eacc454cb653851f6180f8b" target="_top" xlink:title=" ">
<polygon fill="none" stroke="black" points="140,-0.5 140,-30.5 280,-30.5 280,-0.5 140,-0.5"/>
<text text-anchor="start" x="148" y="-18.5" font-family="Helvetica,sans-Serif" font-size="10.00">leanux::tools::lard</text>
<text text-anchor="middle" x="210" y="-7.5" font-family="Helvetica,sans-Serif" font-size="10.00">::TCPEstaSnap::storeSnap</text>
</a>
</g>
</g>
<!-- Node1&#45;&gt;Node10 -->
<g id="edge11" class="edge">
<title>Node1&#45;&gt;Node10</title>
<path fill="none" stroke="midnightblue" d="M365.93,-114.92C346.13,-93.28 313.72,-60.97 280,-40.5 273.79,-36.73 266.93,-33.4 260.01,-30.5"/>
<polygon fill="midnightblue" stroke="midnightblue" points="363.34,-117.28 372.63,-122.37 368.54,-112.6 363.34,-117.28"/>
</g>
<!-- Node3 -->
<g id="node3" class="node">
<title>Node3</title>
<g id="a_node3"><a xlink:href="../../d4/d62/namespaceleanux_1_1tools_1_1lard.html#a6de74bbef1d571bf7eb000e62900a11d" target="_top" xlink:title=" ">
<polygon fill="none" stroke="red" points="0,-122.5 0,-152.5 104,-152.5 104,-122.5 0,-122.5"/>
<text text-anchor="start" x="8" y="-140.5" font-family="Helvetica,sans-Serif" font-size="10.00">leanux::tools::lard</text>
<text text-anchor="middle" x="52" y="-129.5" font-family="Helvetica,sans-Serif" font-size="10.00">::mainLoop</text>
</a>
</g>
</g>
<!-- Node2&#45;&gt;Node3 -->
<g id="edge2" class="edge">
<title>Node2&#45;&gt;Node3</title>
<path fill="none" stroke="midnightblue" d="M147.16,-240.86C144.69,-239.49 142.29,-238.04 140,-236.5 106.02,-213.64 77.02,-174.34 62.65,-152.78"/>
<polygon fill="midnightblue" stroke="midnightblue" points="145.86,-244.12 156.37,-245.45 148.98,-237.86 145.86,-244.12"/>
</g>
<!-- Node6&#45;&gt;Node3 -->
<g id="edge4" class="edge">
<title>Node6&#45;&gt;Node3</title>
<path fill="none" stroke="midnightblue" d="M152.43,-192.8C148.19,-191.1 144,-189.33 140,-187.5 117.65,-177.3 93.53,-163.17 76.37,-152.53"/>
<polygon fill="midnightblue" stroke="midnightblue" points="151.18,-196.07 161.77,-196.39 153.69,-189.53 151.18,-196.07"/>
</g>
<!-- Node7&#45;&gt;Node3 -->
<g id="edge6" class="edge">
<title>Node7&#45;&gt;Node3</title>
<path fill="none" stroke="midnightblue" d="M140.36,-151.5C128.2,-149.55 115.74,-147.55 104.17,-145.7"/>
<polygon fill="midnightblue" stroke="midnightblue" points="140.04,-154.99 150.47,-153.12 141.15,-148.08 140.04,-154.99"/>
</g>
<!-- Node8&#45;&gt;Node3 -->
<g id="edge8" class="edge">
<title>Node8&#45;&gt;Node3</title>
<path fill="none" stroke="midnightblue" d="M138.55,-124.34C126.92,-126.13 115.07,-127.95 104.04,-129.65"/>
<polygon fill="midnightblue" stroke="midnightblue" points="139.33,-127.76 148.69,-122.78 138.27,-120.84 139.33,-127.76"/>
</g>
<!-- Node9&#45;&gt;Node3 -->
<g id="edge10" class="edge">
<title>Node9&#45;&gt;Node3</title>
<path fill="none" stroke="midnightblue" d="M154.52,-83.33C149.57,-85.31 144.67,-87.38 140,-89.5 118.48,-99.26 95.08,-112.32 77.97,-122.36"/>
<polygon fill="midnightblue" stroke="midnightblue" points="155.99,-86.51 164.05,-79.63 153.46,-79.99 155.99,-86.51"/>
</g>
<!-- Node10&#45;&gt;Node3 -->
<g id="edge12" class="edge">
<title>Node10&#45;&gt;Node3</title>
<path fill="none" stroke="midnightblue" d="M149.1,-35.04C145.94,-36.74 142.89,-38.55 140,-40.5 106.62,-63.02 77.6,-101.12 63.01,-122.25"/>
<polygon fill="midnightblue" stroke="midnightblue" points="150.75,-38.13 158.21,-30.6 147.68,-31.84 150.75,-38.13"/>
</g>
</g>
</svg>
