<?xml version="1.0" encoding="UTF-8" standalone="no"?>
<!DOCTYPE svg PUBLIC "-//W3C//DTD SVG 1.1//EN"
 "http://www.w3.org/Graphics/SVG/1.1/DTD/svg11.dtd">
<!-- Generated by graphviz version 2.43.0 (0)
 -->
<!-- Title: leanux::sysdevice::USBDevice::getClass Pages: 1 -->
<svg width="531pt" height="166pt"
 viewBox="0.00 0.00 531.00 165.50" xmlns="http://www.w3.org/2000/svg" xmlns:xlink="http://www.w3.org/1999/xlink">
<g id="graph0" class="graph" transform="scale(1 1) rotate(0) translate(4 161.5)">
<title>leanux::sysdevice::USBDevice::getClass</title>
<!-- Node1 -->
<g id="node1" class="node">
<title>Node1</title>
<g id="a_node1"><a xlink:title="Get the device class for this device.">
<polygon fill="#bfbfbf" stroke="black" points="0,-61 0,-91 119,-91 119,-61 0,-61"/>
<text text-anchor="start" x="8" y="-79" font-family="Helvetica,sans-Serif" font-size="10.00">leanux::sysdevice::</text>
<text text-anchor="middle" x="59.5" y="-68" font-family="Helvetica,sans-Serif" font-size="10.00">USBDevice::getClass</text>
</a>
</g>
</g>
<!-- Node2 -->
<g id="node2" class="node">
<title>Node2</title>
<g id="a_node2"><a xlink:href="../../d5/d9c/namespaceleanux_1_1usb.html#ae3f7ed1c037eeb5c87ae8b7a21ee32f4" target="_top" xlink:title=" ">
<polygon fill="none" stroke="black" points="171,-127 171,-157 320,-157 320,-127 171,-127"/>
<text text-anchor="start" x="179" y="-145" font-family="Helvetica,sans-Serif" font-size="10.00">leanux::usb::getUSBDevice</text>
<text text-anchor="middle" x="245.5" y="-134" font-family="Helvetica,sans-Serif" font-size="10.00">HardwareClass</text>
</a>
</g>
</g>
<!-- Node1&#45;&gt;Node2 -->
<g id="edge1" class="edge">
<title>Node1&#45;&gt;Node2</title>
<path fill="none" stroke="midnightblue" d="M92.43,-91.15C110.54,-99.42 133.76,-109.47 155,-117 161.79,-119.41 168.94,-121.74 176.12,-123.95"/>
<polygon fill="midnightblue" stroke="midnightblue" points="175.3,-127.35 185.88,-126.87 177.31,-120.65 175.3,-127.35"/>
</g>
<!-- Node5 -->
<g id="node5" class="node">
<title>Node5</title>
<g id="a_node5"><a xlink:href="../../d5/d9c/namespaceleanux_1_1usb.html#ae829acc56dd4d026e028bf61bf2e4b3a" target="_top" xlink:title=" ">
<polygon fill="none" stroke="black" points="164.5,-39 164.5,-69 326.5,-69 326.5,-39 164.5,-39"/>
<text text-anchor="start" x="172.5" y="-57" font-family="Helvetica,sans-Serif" font-size="10.00">leanux::usb::getUSBHardware</text>
<text text-anchor="middle" x="245.5" y="-46" font-family="Helvetica,sans-Serif" font-size="10.00">ClassStr</text>
</a>
</g>
</g>
<!-- Node1&#45;&gt;Node5 -->
<g id="edge4" class="edge">
<title>Node1&#45;&gt;Node5</title>
<path fill="none" stroke="midnightblue" d="M119.22,-68.98C130.4,-67.64 142.33,-66.22 154.22,-64.79"/>
<polygon fill="midnightblue" stroke="midnightblue" points="154.67,-68.27 164.19,-63.6 153.84,-61.31 154.67,-68.27"/>
</g>
<!-- Node6 -->
<g id="node6" class="node">
<title>Node6</title>
<g id="a_node6"><a xlink:href="../../d5/d9c/namespaceleanux_1_1usb.html#a40b22561354d4885b6abe9a59f952904" target="_top" xlink:title="Get the USBHardwareId from an USBDevicePath.">
<polygon fill="none" stroke="black" points="160,-88.5 160,-107.5 331,-107.5 331,-88.5 160,-88.5"/>
<text text-anchor="middle" x="245.5" y="-95.5" font-family="Helvetica,sans-Serif" font-size="10.00">leanux::usb::getUSBHardwareId</text>
</a>
</g>
</g>
<!-- Node1&#45;&gt;Node6 -->
<g id="edge5" class="edge">
<title>Node1&#45;&gt;Node6</title>
<path fill="none" stroke="midnightblue" d="M119.22,-83.02C130.56,-84.38 142.68,-85.83 154.75,-87.27"/>
<polygon fill="midnightblue" stroke="midnightblue" points="154.51,-90.77 164.85,-88.48 155.34,-83.81 154.51,-90.77"/>
</g>
<!-- Node7 -->
<g id="node7" class="node">
<title>Node7</title>
<g id="a_node7"><a xlink:href="../../d5/d9c/namespaceleanux_1_1usb.html#a72944e4549fc2c4adf4d01c2d467bb6a" target="_top" xlink:title="Translate an USBHardwareId into an USBHardwareInfo by using the system (/usr/share) usb....">
<polygon fill="none" stroke="black" points="155,-0.5 155,-19.5 336,-19.5 336,-0.5 155,-0.5"/>
<text text-anchor="middle" x="245.5" y="-7.5" font-family="Helvetica,sans-Serif" font-size="10.00">leanux::usb::getUSBHardwareInfo</text>
</a>
</g>
</g>
<!-- Node1&#45;&gt;Node7 -->
<g id="edge8" class="edge">
<title>Node1&#45;&gt;Node7</title>
<path fill="none" stroke="midnightblue" d="M86.2,-61C104.78,-50.71 130.78,-37.44 155,-29 162.68,-26.32 170.86,-23.96 179.05,-21.89"/>
<polygon fill="midnightblue" stroke="midnightblue" points="180.08,-25.24 188.99,-19.5 178.45,-18.43 180.08,-25.24"/>
</g>
<!-- Node3 -->
<g id="node3" class="node">
<title>Node3</title>
<g id="a_node3"><a xlink:href="../../d8/db1/namespaceleanux_1_1util.html#a6421ca2c46c56eebe1a486c6a498ce7d" target="_top" xlink:title="Test if a file exists and can be read.">
<polygon fill="none" stroke="black" points="372,-132.5 372,-151.5 523,-151.5 523,-132.5 372,-132.5"/>
<text text-anchor="middle" x="447.5" y="-139.5" font-family="Helvetica,sans-Serif" font-size="10.00">leanux::util::fileReadAccess</text>
</a>
</g>
</g>
<!-- Node2&#45;&gt;Node3 -->
<g id="edge2" class="edge">
<title>Node2&#45;&gt;Node3</title>
<path fill="none" stroke="midnightblue" d="M320.12,-142C333.52,-142 347.61,-142 361.31,-142"/>
<polygon fill="midnightblue" stroke="midnightblue" points="361.7,-145.5 371.7,-142 361.7,-138.5 361.7,-145.5"/>
</g>
<!-- Node4 -->
<g id="node4" class="node">
<title>Node4</title>
<g id="a_node4"><a xlink:href="../../d8/db1/namespaceleanux_1_1util.html#a7efa8c5cecc9bb8beada58ee60fa71c4" target="_top" xlink:title="read the first data in the file as a hexadecimal string representation of a signed long.">
<polygon fill="none" stroke="black" points="379,-83 379,-113 516,-113 516,-83 379,-83"/>
<text text-anchor="start" x="387" y="-101" font-family="Helvetica,sans-Serif" font-size="10.00">leanux::util::fileReadHex</text>
<text text-anchor="middle" x="447.5" y="-90" font-family="Helvetica,sans-Serif" font-size="10.00">String</text>
</a>
</g>
</g>
<!-- Node2&#45;&gt;Node4 -->
<g id="edge3" class="edge">
<title>Node2&#45;&gt;Node4</title>
<path fill="none" stroke="midnightblue" d="M314.77,-126.98C332.24,-123.14 351.16,-118.98 369.05,-115.04"/>
<polygon fill="midnightblue" stroke="midnightblue" points="369.86,-118.44 378.88,-112.88 368.36,-111.61 369.86,-118.44"/>
</g>
<!-- Node6&#45;&gt;Node3 -->
<g id="edge6" class="edge">
<title>Node6&#45;&gt;Node3</title>
<path fill="none" stroke="midnightblue" d="M292.06,-107.55C306.15,-110.54 321.73,-113.87 336,-117 355.38,-121.25 376.64,-126.03 395.3,-130.27"/>
<polygon fill="midnightblue" stroke="midnightblue" points="394.55,-133.69 405.08,-132.49 396.1,-126.86 394.55,-133.69"/>
</g>
<!-- Node6&#45;&gt;Node4 -->
<g id="edge7" class="edge">
<title>Node6&#45;&gt;Node4</title>
<path fill="none" stroke="midnightblue" d="M331.03,-98C343.52,-98 356.35,-98 368.69,-98"/>
<polygon fill="midnightblue" stroke="midnightblue" points="368.94,-101.5 378.94,-98 368.94,-94.5 368.94,-101.5"/>
</g>
</g>
</svg>
