<?xml version="1.0" encoding="UTF-8" standalone="no"?>
<!DOCTYPE svg PUBLIC "-//W3C//DTD SVG 1.1//EN"
 "http://www.w3.org/Graphics/SVG/1.1/DTD/svg11.dtd">
<!-- Generated by graphviz version 2.43.0 (0)
 -->
<!-- Title: leanux::sysdevice::USBDevice::getPropertyValueList Pages: 1 -->
<svg width="590pt" height="225pt"
 viewBox="0.00 0.00 590.00 225.00" xmlns="http://www.w3.org/2000/svg" xmlns:xlink="http://www.w3.org/1999/xlink">
<g id="graph0" class="graph" transform="scale(1 1) rotate(0) translate(4 221)">
<title>leanux::sysdevice::USBDevice::getPropertyValueList</title>
<!-- Node1 -->
<g id="node1" class="node">
<title>Node1</title>
<g id="a_node1"><a xlink:title=" ">
<polygon fill="#bfbfbf" stroke="black" points="0,-44.5 0,-74.5 178,-74.5 178,-44.5 0,-44.5"/>
<text text-anchor="start" x="8" y="-62.5" font-family="Helvetica,sans-Serif" font-size="10.00">leanux::sysdevice::</text>
<text text-anchor="middle" x="89" y="-51.5" font-family="Helvetica,sans-Serif" font-size="10.00">USBDevice::getPropertyValueList</text>
</a>
</g>
</g>
<!-- Node2 -->
<g id="node2" class="node">
<title>Node2</title>
<g id="a_node2"><a xlink:href="../../d1/d02/classleanux_1_1sysdevice_1_1SysDevice.html#ae45d4c50b05a48b480911a1aaeaeacc1" target="_top" xlink:title=" ">
<polygon fill="none" stroke="black" points="217,-112.5 217,-142.5 392,-142.5 392,-112.5 217,-112.5"/>
<text text-anchor="start" x="225" y="-130.5" font-family="Helvetica,sans-Serif" font-size="10.00">leanux::sysdevice::</text>
<text text-anchor="middle" x="304.5" y="-119.5" font-family="Helvetica,sans-Serif" font-size="10.00">SysDevice::getPropertyValueList</text>
</a>
</g>
</g>
<!-- Node1&#45;&gt;Node2 -->
<g id="edge1" class="edge">
<title>Node1&#45;&gt;Node2</title>
<path fill="none" stroke="midnightblue" d="M137.12,-74.51C169.31,-84.76 212.15,-98.4 246.29,-109.28"/>
<polygon fill="midnightblue" stroke="midnightblue" points="245.54,-112.71 256.13,-112.41 247.67,-106.04 245.54,-112.71"/>
</g>
<!-- Node8 -->
<g id="node6" class="node">
<title>Node8</title>
<g id="a_node6"><a xlink:href="../../d5/d9c/namespaceleanux_1_1usb.html#a40b22561354d4885b6abe9a59f952904" target="_top" xlink:title="Get the USBHardwareId from an USBDevicePath.">
<polygon fill="none" stroke="black" points="219,-50 219,-69 390,-69 390,-50 219,-50"/>
<text text-anchor="middle" x="304.5" y="-57" font-family="Helvetica,sans-Serif" font-size="10.00">leanux::usb::getUSBHardwareId</text>
</a>
</g>
</g>
<!-- Node1&#45;&gt;Node8 -->
<g id="edge5" class="edge">
<title>Node1&#45;&gt;Node8</title>
<path fill="none" stroke="midnightblue" d="M178.07,-59.5C188.15,-59.5 198.46,-59.5 208.62,-59.5"/>
<polygon fill="midnightblue" stroke="midnightblue" points="208.72,-63 218.72,-59.5 208.72,-56 208.72,-63"/>
</g>
<!-- Node11 -->
<g id="node9" class="node">
<title>Node11</title>
<g id="a_node9"><a xlink:href="../../d5/d9c/namespaceleanux_1_1usb.html#a72944e4549fc2c4adf4d01c2d467bb6a" target="_top" xlink:title="Translate an USBHardwareId into an USBHardwareInfo by using the system (/usr/share) usb....">
<polygon fill="none" stroke="black" points="214,-12 214,-31 395,-31 395,-12 214,-12"/>
<text text-anchor="middle" x="304.5" y="-19" font-family="Helvetica,sans-Serif" font-size="10.00">leanux::usb::getUSBHardwareInfo</text>
</a>
</g>
</g>
<!-- Node1&#45;&gt;Node11 -->
<g id="edge8" class="edge">
<title>Node1&#45;&gt;Node11</title>
<path fill="none" stroke="midnightblue" d="M174.38,-44.48C196.32,-40.58 219.57,-36.44 240.21,-32.76"/>
<polygon fill="midnightblue" stroke="midnightblue" points="240.89,-36.2 250.12,-31 239.66,-29.31 240.89,-36.2"/>
</g>
<!-- Node3 -->
<g id="node3" class="node">
<title>Node3</title>
<g id="a_node3"><a xlink:href="../../d1/d02/classleanux_1_1sysdevice_1_1SysDevice.html#af93bf56dfb812cdfa443dcfaffcbbb25" target="_top" xlink:title="Get the device class for this device.">
<polygon fill="none" stroke="black" points="448.5,-186.5 448.5,-216.5 564.5,-216.5 564.5,-186.5 448.5,-186.5"/>
<text text-anchor="start" x="456.5" y="-204.5" font-family="Helvetica,sans-Serif" font-size="10.00">leanux::sysdevice::</text>
<text text-anchor="middle" x="506.5" y="-193.5" font-family="Helvetica,sans-Serif" font-size="10.00">SysDevice::getClass</text>
</a>
</g>
</g>
<!-- Node2&#45;&gt;Node3 -->
<g id="edge2" class="edge">
<title>Node2&#45;&gt;Node3</title>
<path fill="none" stroke="midnightblue" d="M341.5,-142.59C366.46,-152.87 400.55,-166.54 431,-177.5 436.41,-179.45 442.06,-181.4 447.73,-183.31"/>
<polygon fill="midnightblue" stroke="midnightblue" points="446.65,-186.65 457.25,-186.48 448.86,-180 446.65,-186.65"/>
</g>
<!-- Node4 -->
<g id="node4" class="node">
<title>Node4</title>
<g id="a_node4"><a xlink:href="../../d1/d02/classleanux_1_1sysdevice_1_1SysDevice.html#af7a1af7a4b7729e150cceed395e4425b" target="_top" xlink:title="Get the driver for this device.">
<polygon fill="none" stroke="red" points="447,-137.5 447,-167.5 566,-167.5 566,-137.5 447,-137.5"/>
<text text-anchor="start" x="455" y="-155.5" font-family="Helvetica,sans-Serif" font-size="10.00">leanux::sysdevice::</text>
<text text-anchor="middle" x="506.5" y="-144.5" font-family="Helvetica,sans-Serif" font-size="10.00">SysDevice::getDriver</text>
</a>
</g>
</g>
<!-- Node2&#45;&gt;Node4 -->
<g id="edge3" class="edge">
<title>Node2&#45;&gt;Node4</title>
<path fill="none" stroke="midnightblue" d="M392.06,-138.32C406.93,-140.18 422.2,-142.09 436.52,-143.88"/>
<polygon fill="midnightblue" stroke="midnightblue" points="436.41,-147.39 446.77,-145.16 437.28,-140.45 436.41,-147.39"/>
</g>
<!-- Node7 -->
<g id="node5" class="node">
<title>Node7</title>
<g id="a_node5"><a xlink:href="../../d1/d02/classleanux_1_1sysdevice_1_1SysDevice.html#a899968c4a70ecad67694f6850cf730fd" target="_top" xlink:title="Get a string representation for the SysDeviceType.">
<polygon fill="none" stroke="black" points="444,-88.5 444,-118.5 569,-118.5 569,-88.5 444,-88.5"/>
<text text-anchor="start" x="452" y="-106.5" font-family="Helvetica,sans-Serif" font-size="10.00">leanux::sysdevice::</text>
<text text-anchor="middle" x="506.5" y="-95.5" font-family="Helvetica,sans-Serif" font-size="10.00">SysDevice::getTypeStr</text>
</a>
</g>
</g>
<!-- Node2&#45;&gt;Node7 -->
<g id="edge4" class="edge">
<title>Node2&#45;&gt;Node7</title>
<path fill="none" stroke="midnightblue" d="M392.06,-117.11C405.94,-115.45 420.17,-113.74 433.66,-112.12"/>
<polygon fill="midnightblue" stroke="midnightblue" points="434.3,-115.57 443.81,-110.9 433.47,-108.62 434.3,-115.57"/>
</g>
<!-- Node9 -->
<g id="node7" class="node">
<title>Node9</title>
<g id="a_node7"><a xlink:href="../../d8/db1/namespaceleanux_1_1util.html#a6421ca2c46c56eebe1a486c6a498ce7d" target="_top" xlink:title="Test if a file exists and can be read.">
<polygon fill="none" stroke="black" points="431,-50 431,-69 582,-69 582,-50 431,-50"/>
<text text-anchor="middle" x="506.5" y="-57" font-family="Helvetica,sans-Serif" font-size="10.00">leanux::util::fileReadAccess</text>
</a>
</g>
</g>
<!-- Node8&#45;&gt;Node9 -->
<g id="edge6" class="edge">
<title>Node8&#45;&gt;Node9</title>
<path fill="none" stroke="midnightblue" d="M390.03,-59.5C400.18,-59.5 410.56,-59.5 420.71,-59.5"/>
<polygon fill="midnightblue" stroke="midnightblue" points="420.78,-63 430.78,-59.5 420.78,-56 420.78,-63"/>
</g>
<!-- Node10 -->
<g id="node8" class="node">
<title>Node10</title>
<g id="a_node8"><a xlink:href="../../d8/db1/namespaceleanux_1_1util.html#a7efa8c5cecc9bb8beada58ee60fa71c4" target="_top" xlink:title="read the first data in the file as a hexadecimal string representation of a signed long.">
<polygon fill="none" stroke="black" points="438,-0.5 438,-30.5 575,-30.5 575,-0.5 438,-0.5"/>
<text text-anchor="start" x="446" y="-18.5" font-family="Helvetica,sans-Serif" font-size="10.00">leanux::util::fileReadHex</text>
<text text-anchor="middle" x="506.5" y="-7.5" font-family="Helvetica,sans-Serif" font-size="10.00">String</text>
</a>
</g>
</g>
<!-- Node8&#45;&gt;Node10 -->
<g id="edge7" class="edge">
<title>Node8&#45;&gt;Node10</title>
<path fill="none" stroke="midnightblue" d="M351.06,-49.95C365.15,-46.96 380.73,-43.63 395,-40.5 406.33,-38.02 418.31,-35.35 430.03,-32.72"/>
<polygon fill="midnightblue" stroke="midnightblue" points="430.81,-36.13 439.8,-30.52 429.27,-29.3 430.81,-36.13"/>
</g>
</g>
</svg>
