<?xml version="1.0" encoding="UTF-8" standalone="no"?>
<!DOCTYPE svg PUBLIC "-//W3C//DTD SVG 1.1//EN"
 "http://www.w3.org/Graphics/SVG/1.1/DTD/svg11.dtd">
<!-- Generated by graphviz version 2.43.0 (0)
 -->
<!-- Title: leanux::sysdevice::ATAPort::getDescription Pages: 1 -->
<svg width="518pt" height="78pt"
 viewBox="0.00 0.00 518.00 77.50" xmlns="http://www.w3.org/2000/svg" xmlns:xlink="http://www.w3.org/1999/xlink">
<g id="graph0" class="graph" transform="scale(1 1) rotate(0) translate(4 73.5)">
<title>leanux::sysdevice::ATAPort::getDescription</title>
<!-- Node1 -->
<g id="node1" class="node">
<title>Node1</title>
<g id="a_node1"><a xlink:title="Get a human readable description of this SysDevice.">
<polygon fill="#bfbfbf" stroke="black" points="0,-17 0,-47 131,-47 131,-17 0,-17"/>
<text text-anchor="start" x="8" y="-35" font-family="Helvetica,sans-Serif" font-size="10.00">leanux::sysdevice::</text>
<text text-anchor="middle" x="65.5" y="-24" font-family="Helvetica,sans-Serif" font-size="10.00">ATAPort::getDescription</text>
</a>
</g>
</g>
<!-- Node2 -->
<g id="node2" class="node">
<title>Node2</title>
<g id="a_node2"><a xlink:href="../../d5/d01/namespaceleanux_1_1block.html#ab20a8824019f463ba684c0cfadfd7117" target="_top" xlink:title="Get the ATA port link speed.">
<polygon fill="none" stroke="black" points="176.5,-39 176.5,-69 318.5,-69 318.5,-39 176.5,-39"/>
<text text-anchor="start" x="184.5" y="-57" font-family="Helvetica,sans-Serif" font-size="10.00">leanux::block::getATALink</text>
<text text-anchor="middle" x="247.5" y="-46" font-family="Helvetica,sans-Serif" font-size="10.00">Speed</text>
</a>
</g>
</g>
<!-- Node1&#45;&gt;Node2 -->
<g id="edge1" class="edge">
<title>Node1&#45;&gt;Node2</title>
<path fill="none" stroke="midnightblue" d="M131.23,-39.91C142.53,-41.29 154.42,-42.75 166.08,-44.17"/>
<polygon fill="midnightblue" stroke="midnightblue" points="165.9,-47.68 176.26,-45.41 166.75,-40.73 165.9,-47.68"/>
</g>
<!-- Node4 -->
<g id="node4" class="node">
<title>Node4</title>
<g id="a_node4"><a xlink:href="../../d5/d01/namespaceleanux_1_1block.html#a2fd6c671acf6577de8e98ae661e6894d" target="_top" xlink:title="Get the ATA port link.">
<polygon fill="none" stroke="black" points="167,-0.5 167,-19.5 328,-19.5 328,-0.5 167,-0.5"/>
<text text-anchor="middle" x="247.5" y="-7.5" font-family="Helvetica,sans-Serif" font-size="10.00">leanux::block::getATAPortLink</text>
</a>
</g>
</g>
<!-- Node1&#45;&gt;Node4 -->
<g id="edge3" class="edge">
<title>Node1&#45;&gt;Node4</title>
<path fill="none" stroke="midnightblue" d="M131.23,-24.09C140.11,-23 149.35,-21.87 158.56,-20.75"/>
<polygon fill="midnightblue" stroke="midnightblue" points="159.03,-24.22 168.53,-19.53 158.18,-17.27 159.03,-24.22"/>
</g>
<!-- Node3 -->
<g id="node3" class="node">
<title>Node3</title>
<g id="a_node3"><a xlink:href="../../d8/db1/namespaceleanux_1_1util.html#a57bfd49353610b3d0b6d121b264c676e" target="_top" xlink:title="read the file as a single string.">
<polygon fill="none" stroke="black" points="364,-44.5 364,-63.5 510,-63.5 510,-44.5 364,-44.5"/>
<text text-anchor="middle" x="437" y="-51.5" font-family="Helvetica,sans-Serif" font-size="10.00">leanux::util::fileReadString</text>
</a>
</g>
</g>
<!-- Node2&#45;&gt;Node3 -->
<g id="edge2" class="edge">
<title>Node2&#45;&gt;Node3</title>
<path fill="none" stroke="midnightblue" d="M318.58,-54C330.01,-54 341.93,-54 353.62,-54"/>
<polygon fill="midnightblue" stroke="midnightblue" points="353.81,-57.5 363.81,-54 353.81,-50.5 353.81,-57.5"/>
</g>
<!-- Node5 -->
<g id="node5" class="node">
<title>Node5</title>
<g id="a_node5"><a xlink:href="../../d8/db1/namespaceleanux_1_1util.html#adb3739607a9ec74d79fbebf4d45dd766" target="_top" xlink:title="Find subdirectories, first match is returned, if any.">
<polygon fill="none" stroke="black" points="382,-0.5 382,-19.5 492,-19.5 492,-0.5 382,-0.5"/>
<text text-anchor="middle" x="437" y="-7.5" font-family="Helvetica,sans-Serif" font-size="10.00">leanux::util::findDir</text>
</a>
</g>
</g>
<!-- Node4&#45;&gt;Node5 -->
<g id="edge4" class="edge">
<title>Node4&#45;&gt;Node5</title>
<path fill="none" stroke="midnightblue" d="M328.02,-10C342.63,-10 357.72,-10 371.82,-10"/>
<polygon fill="midnightblue" stroke="midnightblue" points="371.89,-13.5 381.89,-10 371.89,-6.5 371.89,-13.5"/>
</g>
</g>
</svg>
