<?xml version="1.0" encoding="UTF-8" standalone="no"?>
<!DOCTYPE svg PUBLIC "-//W3C//DTD SVG 1.1//EN"
 "http://www.w3.org/Graphics/SVG/1.1/DTD/svg11.dtd">
<!-- Generated by graphviz version 2.43.0 (0)
 -->
<!-- Title: leanux::persist::Statement Pages: 1 -->
<svg width="175pt" height="95pt"
 viewBox="0.00 0.00 175.00 95.00" xmlns="http://www.w3.org/2000/svg" xmlns:xlink="http://www.w3.org/1999/xlink">
<g id="graph0" class="graph" transform="scale(1 1) rotate(0) translate(4 91)">
<title>leanux::persist::Statement</title>
<!-- Node1 -->
<g id="node1" class="node">
<title>Node1</title>
<g id="a_node1"><a xlink:title="Generic SQL Statement.">
<polygon fill="#bfbfbf" stroke="black" points="15,-0.5 15,-19.5 161,-19.5 161,-0.5 15,-0.5"/>
<text text-anchor="middle" x="88" y="-7.5" font-family="Helvetica,sans-Serif" font-size="10.00">leanux::persist::Statement</text>
</a>
</g>
</g>
<!-- Node2 -->
<g id="node2" class="node">
<title>Node2</title>
<g id="a_node2"><a xlink:title=" ">
<polygon fill="none" stroke="#bfbfbf" points="0,-67.5 0,-86.5 86,-86.5 86,-67.5 0,-67.5"/>
<text text-anchor="middle" x="43" y="-74.5" font-family="Helvetica,sans-Serif" font-size="10.00">sqlite3_stmt *</text>
</a>
</g>
</g>
<!-- Node2&#45;&gt;Node1 -->
<g id="edge1" class="edge">
<title>Node2&#45;&gt;Node1</title>
<path fill="none" stroke="#9a32cd" stroke-dasharray="5,2" d="M54.84,-58.9C63.58,-46.27 75.12,-29.6 82.03,-19.63"/>
<polygon fill="#9a32cd" stroke="#9a32cd" points="51.88,-57.02 49.07,-67.23 57.64,-61 51.88,-57.02"/>
<text text-anchor="middle" x="84.5" y="-41" font-family="Helvetica,sans-Serif" font-size="10.00"> stmt_</text>
</g>
<!-- Node3 -->
<g id="node3" class="node">
<title>Node3</title>
<g id="a_node3"><a xlink:title=" ">
<polygon fill="none" stroke="#bfbfbf" points="104,-67.5 104,-86.5 162,-86.5 162,-67.5 104,-67.5"/>
<text text-anchor="middle" x="133" y="-74.5" font-family="Helvetica,sans-Serif" font-size="10.00">sqlite3 *</text>
</a>
</g>
</g>
<!-- Node3&#45;&gt;Node1 -->
<g id="edge2" class="edge">
<title>Node3&#45;&gt;Node1</title>
<path fill="none" stroke="#9a32cd" stroke-dasharray="5,2" d="M121.16,-58.9C112.42,-46.27 100.88,-29.6 93.97,-19.63"/>
<polygon fill="#9a32cd" stroke="#9a32cd" points="118.36,-61 126.93,-67.23 124.12,-57.02 118.36,-61"/>
<text text-anchor="middle" x="140" y="-41" font-family="Helvetica,sans-Serif" font-size="10.00"> database_</text>
</g>
</g>
</svg>
