<?xml version="1.0" encoding="UTF-8" standalone="no"?>
<!DOCTYPE svg PUBLIC "-//W3C//DTD SVG 1.1//EN"
 "http://www.w3.org/Graphics/SVG/1.1/DTD/svg11.dtd">
<!-- Generated by graphviz version 2.43.0 (0)
 -->
<!-- Title: leanux::tools::lmon::Footer::Footer Pages: 1 -->
<svg width="751pt" height="614pt"
 viewBox="0.00 0.00 751.00 613.50" xmlns="http://www.w3.org/2000/svg" xmlns:xlink="http://www.w3.org/1999/xlink">
<g id="graph0" class="graph" transform="scale(1 1) rotate(0) translate(4 609.5)">
<title>leanux::tools::lmon::Footer::Footer</title>
<!-- Node1 -->
<g id="node1" class="node">
<title>Node1</title>
<g id="a_node1"><a xlink:title="Construct a Footer.">
<polygon fill="#bfbfbf" stroke="black" points="0,-306.5 0,-336.5 110,-336.5 110,-306.5 0,-306.5"/>
<text text-anchor="start" x="8" y="-324.5" font-family="Helvetica,sans-Serif" font-size="10.00">leanux::tools::lmon</text>
<text text-anchor="middle" x="55" y="-313.5" font-family="Helvetica,sans-Serif" font-size="10.00">::Footer::Footer</text>
</a>
</g>
</g>
<!-- Node2 -->
<g id="node2" class="node">
<title>Node2</title>
<g id="a_node2"><a xlink:href="../../d8/db1/namespaceleanux_1_1util.html#a979843e3d99f053101f902ec38985833" target="_top" xlink:title="convert a byte value to pretty print string.">
<polygon fill="none" stroke="black" points="176,-586 176,-605 289,-605 289,-586 176,-586"/>
<text text-anchor="middle" x="232.5" y="-593" font-family="Helvetica,sans-Serif" font-size="10.00">leanux::util::ByteStr</text>
</a>
</g>
</g>
<!-- Node1&#45;&gt;Node2 -->
<g id="edge1" class="edge">
<title>Node1&#45;&gt;Node2</title>
<path fill="none" stroke="midnightblue" d="M56.83,-336.73C60.02,-380.16 75.25,-505.66 146,-571.5 151.87,-576.96 158.89,-581.2 166.34,-584.48"/>
<polygon fill="midnightblue" stroke="midnightblue" points="165.38,-587.85 175.97,-588.14 167.87,-581.31 165.38,-587.85"/>
</g>
<!-- Node3 -->
<g id="node3" class="node">
<title>Node3</title>
<g id="a_node3"><a xlink:href="../../d5/d01/namespaceleanux_1_1block.html#ac08a21002b48cb1bbfaf8d77b4aac5f6" target="_top" xlink:title="get a list of whole disks (exclude partitions).">
<polygon fill="none" stroke="black" points="382.5,-460.5 382.5,-490.5 528.5,-490.5 528.5,-460.5 382.5,-460.5"/>
<text text-anchor="start" x="390.5" y="-478.5" font-family="Helvetica,sans-Serif" font-size="10.00">leanux::block::enumWhole</text>
<text text-anchor="middle" x="455.5" y="-467.5" font-family="Helvetica,sans-Serif" font-size="10.00">Disks</text>
</a>
</g>
</g>
<!-- Node1&#45;&gt;Node3 -->
<g id="edge2" class="edge">
<title>Node1&#45;&gt;Node3</title>
<path fill="none" stroke="midnightblue" d="M56.87,-336.56C60.13,-377.58 75.45,-491.39 146,-538.5 233.56,-596.98 364,-531.79 423.23,-495.93"/>
<polygon fill="midnightblue" stroke="midnightblue" points="425.1,-498.89 431.77,-490.66 421.42,-492.93 425.1,-498.89"/>
</g>
<!-- Node4 -->
<g id="node4" class="node">
<title>Node4</title>
<g id="a_node4"><a xlink:href="../../dd/d42/namespaceleanux_1_1system.html#a75bb60404aa2da1f0593ffeca7a085d8" target="_top" xlink:title="Get the system architecture.">
<polygon fill="none" stroke="black" points="146,-510 146,-529 319,-529 319,-510 146,-510"/>
<text text-anchor="middle" x="232.5" y="-517" font-family="Helvetica,sans-Serif" font-size="10.00">leanux::system::getArchitecture</text>
</a>
</g>
</g>
<!-- Node1&#45;&gt;Node4 -->
<g id="edge3" class="edge">
<title>Node1&#45;&gt;Node4</title>
<path fill="none" stroke="midnightblue" d="M58.98,-336.53C66.7,-371.26 90.71,-457.43 146,-500.5 148.31,-502.3 150.75,-503.93 153.29,-505.41"/>
<polygon fill="midnightblue" stroke="midnightblue" points="151.77,-508.57 162.28,-509.91 154.91,-502.31 151.77,-508.57"/>
</g>
<!-- Node5 -->
<g id="node5" class="node">
<title>Node5</title>
<g id="a_node5"><a xlink:href="../../d5/d01/namespaceleanux_1_1block.html#ad1f8b6bad222a975b5885a0fff510848" target="_top" xlink:title="total attached storage.">
<polygon fill="none" stroke="black" points="159,-460.5 159,-490.5 306,-490.5 306,-460.5 159,-460.5"/>
<text text-anchor="start" x="167" y="-478.5" font-family="Helvetica,sans-Serif" font-size="10.00">leanux::block::getAttached</text>
<text text-anchor="middle" x="232.5" y="-467.5" font-family="Helvetica,sans-Serif" font-size="10.00">StorageSize</text>
</a>
</g>
</g>
<!-- Node1&#45;&gt;Node5 -->
<g id="edge4" class="edge">
<title>Node1&#45;&gt;Node5</title>
<path fill="none" stroke="midnightblue" d="M62.46,-336.76C74.7,-363.83 103.86,-420.22 146,-450.5 148.7,-452.44 151.55,-454.23 154.51,-455.88"/>
<polygon fill="midnightblue" stroke="midnightblue" points="153.13,-459.11 163.64,-460.44 156.25,-452.84 153.13,-459.11"/>
</g>
<!-- Node6 -->
<g id="node6" class="node">
<title>Node6</title>
<g id="a_node6"><a xlink:href="../../dd/d42/namespaceleanux_1_1system.html#a166614bb486e675664d9198252b369e8" target="_top" xlink:title="Get the name of the system board.">
<polygon fill="none" stroke="black" points="147,-422 147,-441 318,-441 318,-422 147,-422"/>
<text text-anchor="middle" x="232.5" y="-429" font-family="Helvetica,sans-Serif" font-size="10.00">leanux::system::getBoardName</text>
</a>
</g>
</g>
<!-- Node1&#45;&gt;Node6 -->
<g id="edge6" class="edge">
<title>Node1&#45;&gt;Node6</title>
<path fill="none" stroke="midnightblue" d="M66.59,-336.72C81.73,-357.26 111.58,-393.48 146,-412.5 150.19,-414.81 154.64,-416.85 159.22,-418.63"/>
<polygon fill="midnightblue" stroke="midnightblue" points="158.19,-421.98 168.78,-421.96 160.49,-415.37 158.19,-421.98"/>
</g>
<!-- Node8 -->
<g id="node8" class="node">
<title>Node8</title>
<g id="a_node8"><a xlink:href="../../dd/d42/namespaceleanux_1_1system.html#a932c997ac7eb8d186eb7b895be98f8b6" target="_top" xlink:title="Get the vendor of the system board.">
<polygon fill="none" stroke="black" points="161.5,-372.5 161.5,-402.5 303.5,-402.5 303.5,-372.5 161.5,-372.5"/>
<text text-anchor="start" x="169.5" y="-390.5" font-family="Helvetica,sans-Serif" font-size="10.00">leanux::system::getBoard</text>
<text text-anchor="middle" x="232.5" y="-379.5" font-family="Helvetica,sans-Serif" font-size="10.00">Vendor</text>
</a>
</g>
</g>
<!-- Node1&#45;&gt;Node8 -->
<g id="edge8" class="edge">
<title>Node1&#45;&gt;Node8</title>
<path fill="none" stroke="midnightblue" d="M86.37,-336.65C103.6,-344.91 125.72,-354.96 146,-362.5 152.33,-364.85 158.99,-367.13 165.68,-369.29"/>
<polygon fill="midnightblue" stroke="midnightblue" points="164.88,-372.71 175.47,-372.37 166.98,-366.03 164.88,-372.71"/>
</g>
<!-- Node9 -->
<g id="node9" class="node">
<title>Node9</title>
<g id="a_node9"><a xlink:href="../../dd/d42/namespaceleanux_1_1system.html#a4353472fef02fbaaf6a6051f19323a1f" target="_top" xlink:title="Get the system chassis type as a std::string.">
<polygon fill="none" stroke="black" points="157,-98.5 157,-128.5 308,-128.5 308,-98.5 157,-98.5"/>
<text text-anchor="start" x="165" y="-116.5" font-family="Helvetica,sans-Serif" font-size="10.00">leanux::system::getChassis</text>
<text text-anchor="middle" x="232.5" y="-105.5" font-family="Helvetica,sans-Serif" font-size="10.00">TypeString</text>
</a>
</g>
</g>
<!-- Node1&#45;&gt;Node9 -->
<g id="edge10" class="edge">
<title>Node1&#45;&gt;Node9</title>
<path fill="none" stroke="midnightblue" d="M59.08,-306.39C66.99,-271.42 91.39,-184.41 146,-138.5 148.02,-136.8 150.15,-135.22 152.37,-133.74"/>
<polygon fill="midnightblue" stroke="midnightblue" points="154.4,-136.61 161.3,-128.57 150.89,-130.55 154.4,-136.61"/>
</g>
<!-- Node13 -->
<g id="node12" class="node">
<title>Node13</title>
<g id="a_node12"><a xlink:href="../../d9/d1b/classleanux_1_1tools_1_1lmon_1_1Palette.html#a60717c2d5607a21a597210033e17ddca" target="_top" xlink:title="get blocked process color.">
<polygon fill="none" stroke="black" points="151,-284.5 151,-314.5 314,-314.5 314,-284.5 151,-284.5"/>
<text text-anchor="start" x="159" y="-302.5" font-family="Helvetica,sans-Serif" font-size="10.00">leanux::tools::lmon</text>
<text text-anchor="middle" x="232.5" y="-291.5" font-family="Helvetica,sans-Serif" font-size="10.00">::Palette::getColorBlockedProc</text>
</a>
</g>
</g>
<!-- Node1&#45;&gt;Node13 -->
<g id="edge13" class="edge">
<title>Node1&#45;&gt;Node13</title>
<path fill="none" stroke="midnightblue" d="M110.09,-314.72C119.86,-313.5 130.28,-312.19 140.76,-310.87"/>
<polygon fill="midnightblue" stroke="midnightblue" points="141.33,-314.33 150.81,-309.61 140.46,-307.39 141.33,-314.33"/>
</g>
<!-- Node14 -->
<g id="node13" class="node">
<title>Node14</title>
<g id="a_node13"><a xlink:href="../../d9/d1b/classleanux_1_1tools_1_1lmon_1_1Palette.html#a5f264f21e7c12361c5795ddf3bd40316" target="_top" xlink:title="get nice cpu color.">
<polygon fill="none" stroke="black" points="159.5,-235.5 159.5,-265.5 305.5,-265.5 305.5,-235.5 159.5,-235.5"/>
<text text-anchor="start" x="167.5" y="-253.5" font-family="Helvetica,sans-Serif" font-size="10.00">leanux::tools::lmon</text>
<text text-anchor="middle" x="232.5" y="-242.5" font-family="Helvetica,sans-Serif" font-size="10.00">::Palette::getColorNiceCPU</text>
</a>
</g>
</g>
<!-- Node1&#45;&gt;Node14 -->
<g id="edge14" class="edge">
<title>Node1&#45;&gt;Node14</title>
<path fill="none" stroke="midnightblue" d="M82.17,-306.47C99.81,-296.75 123.82,-284.32 146,-275.5 151.94,-273.14 158.19,-270.89 164.5,-268.77"/>
<polygon fill="midnightblue" stroke="midnightblue" points="165.98,-271.97 174.42,-265.56 163.83,-265.31 165.98,-271.97"/>
</g>
<!-- Node15 -->
<g id="node14" class="node">
<title>Node15</title>
<g id="a_node14"><a xlink:href="../../d9/d1b/classleanux_1_1tools_1_1lmon_1_1Palette.html#a53c5c7a5af2f20e612813be65b318c50" target="_top" xlink:title="get system cpu color.">
<polygon fill="none" stroke="black" points="152,-186.5 152,-216.5 313,-216.5 313,-186.5 152,-186.5"/>
<text text-anchor="start" x="160" y="-204.5" font-family="Helvetica,sans-Serif" font-size="10.00">leanux::tools::lmon</text>
<text text-anchor="middle" x="232.5" y="-193.5" font-family="Helvetica,sans-Serif" font-size="10.00">::Palette::getColorSystemCPU</text>
</a>
</g>
</g>
<!-- Node1&#45;&gt;Node15 -->
<g id="edge15" class="edge">
<title>Node1&#45;&gt;Node15</title>
<path fill="none" stroke="midnightblue" d="M66.04,-306.43C80.97,-285.2 111.04,-246.72 146,-225.5 148.83,-223.78 151.79,-222.18 154.84,-220.69"/>
<polygon fill="midnightblue" stroke="midnightblue" points="156.47,-223.8 164.2,-216.55 153.63,-217.4 156.47,-223.8"/>
</g>
<!-- Node16 -->
<g id="node15" class="node">
<title>Node16</title>
<g id="a_node15"><a xlink:href="../../da/da3/namespaceleanux_1_1cpu.html#a704d21d69d40fe49b1cf8f2b77fd5664" target="_top" xlink:title="Get CPU info.">
<polygon fill="none" stroke="black" points="165.5,-148 165.5,-167 299.5,-167 299.5,-148 165.5,-148"/>
<text text-anchor="middle" x="232.5" y="-155" font-family="Helvetica,sans-Serif" font-size="10.00">leanux::cpu::getCPUInfo</text>
</a>
</g>
</g>
<!-- Node1&#45;&gt;Node16 -->
<g id="edge16" class="edge">
<title>Node1&#45;&gt;Node16</title>
<path fill="none" stroke="midnightblue" d="M60.87,-306.42C71.32,-276.56 98.88,-209.93 146,-176.5 149.1,-174.3 152.4,-172.35 155.85,-170.63"/>
<polygon fill="midnightblue" stroke="midnightblue" points="157.46,-173.74 165.24,-166.55 154.68,-167.32 157.46,-173.74"/>
</g>
<!-- Node17 -->
<g id="node16" class="node">
<title>Node17</title>
<g id="a_node16"><a xlink:href="../../dd/d42/namespaceleanux_1_1system.html#a87f3cc1d1be026345c1be58546e5a74b" target="_top" xlink:title="Detect the GNU/Linux distribution.">
<polygon fill="none" stroke="black" points="147.5,-334 147.5,-353 317.5,-353 317.5,-334 147.5,-334"/>
<text text-anchor="middle" x="232.5" y="-341" font-family="Helvetica,sans-Serif" font-size="10.00">leanux::system::getDistribution</text>
</a>
</g>
</g>
<!-- Node1&#45;&gt;Node17 -->
<g id="edge17" class="edge">
<title>Node1&#45;&gt;Node17</title>
<path fill="none" stroke="midnightblue" d="M110.09,-328.28C121.34,-329.69 133.46,-331.21 145.54,-332.72"/>
<polygon fill="midnightblue" stroke="midnightblue" points="145.29,-336.22 155.65,-333.99 146.17,-329.28 145.29,-336.22"/>
</g>
<!-- Node23 -->
<g id="node22" class="node">
<title>Node23</title>
<g id="a_node22"><a xlink:href="../../dd/d42/namespaceleanux_1_1system.html#a019837e625c4eedcc1e09de84a56d5b8" target="_top" xlink:title="Get the kernel version.">
<polygon fill="none" stroke="black" points="160.5,-49.5 160.5,-79.5 304.5,-79.5 304.5,-49.5 160.5,-49.5"/>
<text text-anchor="start" x="168.5" y="-67.5" font-family="Helvetica,sans-Serif" font-size="10.00">leanux::system::getKernel</text>
<text text-anchor="middle" x="232.5" y="-56.5" font-family="Helvetica,sans-Serif" font-size="10.00">Version</text>
</a>
</g>
</g>
<!-- Node1&#45;&gt;Node23 -->
<g id="edge25" class="edge">
<title>Node1&#45;&gt;Node23</title>
<path fill="none" stroke="midnightblue" d="M57.27,-306.4C61.56,-265.07 79.27,-149.18 146,-88.5 147.71,-86.94 149.52,-85.48 151.41,-84.12"/>
<polygon fill="midnightblue" stroke="midnightblue" points="153.46,-86.96 160.11,-78.72 149.77,-81.02 153.46,-86.96"/>
</g>
<!-- Node24 -->
<g id="node23" class="node">
<title>Node24</title>
<g id="a_node23"><a xlink:href="../../db/dda/classleanux_1_1tools_1_1lmon_1_1Footer.html#a4e4b0e9f23175b894f01493d9caefde8" target="_top" xlink:title="Report a Message.">
<polygon fill="none" stroke="black" points="166.5,-0.5 166.5,-30.5 298.5,-30.5 298.5,-0.5 166.5,-0.5"/>
<text text-anchor="start" x="174.5" y="-18.5" font-family="Helvetica,sans-Serif" font-size="10.00">leanux::tools::lmon</text>
<text text-anchor="middle" x="232.5" y="-7.5" font-family="Helvetica,sans-Serif" font-size="10.00">::Footer::reportMessage</text>
</a>
</g>
</g>
<!-- Node1&#45;&gt;Node24 -->
<g id="edge26" class="edge">
<title>Node1&#45;&gt;Node24</title>
<path fill="none" stroke="midnightblue" d="M56.11,-306.41C57.29,-259.58 67.43,-115.35 146,-39.5 149.33,-36.28 153.07,-33.49 157.05,-31.06"/>
<polygon fill="midnightblue" stroke="midnightblue" points="158.89,-34.05 166.14,-26.32 155.65,-27.85 158.89,-34.05"/>
</g>
<!-- Node5&#45;&gt;Node3 -->
<g id="edge5" class="edge">
<title>Node5&#45;&gt;Node3</title>
<path fill="none" stroke="midnightblue" d="M306.17,-475.5C327.24,-475.5 350.4,-475.5 372.02,-475.5"/>
<polygon fill="midnightblue" stroke="midnightblue" points="372.16,-479 382.16,-475.5 372.16,-472 372.16,-479"/>
</g>
<!-- Node7 -->
<g id="node7" class="node">
<title>Node7</title>
<g id="a_node7"><a xlink:href="../../d8/db1/namespaceleanux_1_1util.html#a57bfd49353610b3d0b6d121b264c676e" target="_top" xlink:title="read the file as a single string.">
<polygon fill="none" stroke="black" points="382.5,-421 382.5,-440 528.5,-440 528.5,-421 382.5,-421"/>
<text text-anchor="middle" x="455.5" y="-428" font-family="Helvetica,sans-Serif" font-size="10.00">leanux::util::fileReadString</text>
</a>
</g>
</g>
<!-- Node6&#45;&gt;Node7 -->
<g id="edge7" class="edge">
<title>Node6&#45;&gt;Node7</title>
<path fill="none" stroke="midnightblue" d="M318.31,-431.12C336.02,-431.04 354.65,-430.95 372.26,-430.87"/>
<polygon fill="midnightblue" stroke="midnightblue" points="372.52,-434.37 382.5,-430.83 372.48,-427.37 372.52,-434.37"/>
</g>
<!-- Node8&#45;&gt;Node7 -->
<g id="edge9" class="edge">
<title>Node8&#45;&gt;Node7</title>
<path fill="none" stroke="midnightblue" d="M303.73,-401.16C333.22,-406.9 367.15,-413.5 395.34,-418.99"/>
<polygon fill="midnightblue" stroke="midnightblue" points="394.97,-422.48 405.45,-420.96 396.3,-415.61 394.97,-422.48"/>
</g>
<!-- Node10 -->
<g id="node10" class="node">
<title>Node10</title>
<g id="a_node10"><a xlink:href="../../dd/d42/namespaceleanux_1_1system.html#a1ab19aa4db47eac1c96cd0f456475fbc" target="_top" xlink:title="Get the system chassis type.">
<polygon fill="none" stroke="red" points="369,-106 369,-125 542,-125 542,-106 369,-106"/>
<text text-anchor="middle" x="455.5" y="-113" font-family="Helvetica,sans-Serif" font-size="10.00">leanux::system::getChassisType</text>
</a>
</g>
</g>
<!-- Node9&#45;&gt;Node10 -->
<g id="edge11" class="edge">
<title>Node9&#45;&gt;Node10</title>
<path fill="none" stroke="midnightblue" d="M308.01,-114.17C324.2,-114.32 341.55,-114.48 358.43,-114.63"/>
<polygon fill="midnightblue" stroke="midnightblue" points="358.84,-118.13 368.88,-114.73 358.91,-111.13 358.84,-118.13"/>
</g>
<!-- Node11 -->
<g id="node11" class="node">
<title>Node11</title>
<g id="a_node11"><a xlink:href="../../d8/db1/namespaceleanux_1_1util.html#a6421ca2c46c56eebe1a486c6a498ce7d" target="_top" xlink:title="Test if a file exists and can be read.">
<polygon fill="none" stroke="black" points="592,-243 592,-262 743,-262 743,-243 592,-243"/>
<text text-anchor="middle" x="667.5" y="-250" font-family="Helvetica,sans-Serif" font-size="10.00">leanux::util::fileReadAccess</text>
</a>
</g>
</g>
<!-- Node10&#45;&gt;Node11 -->
<g id="edge12" class="edge">
<title>Node10&#45;&gt;Node11</title>
<path fill="none" stroke="midnightblue" d="M524.84,-125C535.67,-128.07 546.44,-132.13 556,-137.5 599.44,-161.88 636.4,-208.79 654.53,-234.52"/>
<polygon fill="midnightblue" stroke="midnightblue" points="651.78,-236.71 660.33,-242.96 657.55,-232.74 651.78,-236.71"/>
</g>
<!-- Node17&#45;&gt;Node7 -->
<g id="edge19" class="edge">
<title>Node17&#45;&gt;Node7</title>
<path fill="none" stroke="midnightblue" d="M296.1,-353.15C304.13,-355.8 311.99,-359.18 319,-363.5 340.23,-376.57 333.82,-393.36 355,-406.5 362.46,-411.13 370.75,-414.86 379.26,-417.88"/>
<polygon fill="midnightblue" stroke="midnightblue" points="378.35,-421.26 388.94,-420.99 380.49,-414.6 378.35,-421.26"/>
</g>
<!-- Node17&#45;&gt;Node11 -->
<g id="edge18" class="edge">
<title>Node17&#45;&gt;Node11</title>
<path fill="none" stroke="midnightblue" d="M275.77,-353.02C289.58,-356.23 304.97,-359.91 319,-363.5 335.09,-367.61 338.55,-371.26 355,-373.5 443.51,-385.57 474.26,-409.55 556,-373.5 603.73,-352.45 639.78,-299.47 656.39,-271.1"/>
<polygon fill="midnightblue" stroke="midnightblue" points="659.56,-272.62 661.44,-262.19 653.47,-269.17 659.56,-272.62"/>
</g>
<!-- Node18 -->
<g id="node17" class="node">
<title>Node18</title>
<g id="a_node17"><a xlink:href="../../dd/d42/namespaceleanux_1_1system.html#aed132a8f45eaf49bface294263301b1b" target="_top" xlink:title="Read the DISTRIB_DESCRIPTION from /etc/lsb&#45;release.">
<polygon fill="none" stroke="black" points="367.5,-196.5 367.5,-226.5 543.5,-226.5 543.5,-196.5 367.5,-196.5"/>
<text text-anchor="start" x="375.5" y="-214.5" font-family="Helvetica,sans-Serif" font-size="10.00">leanux::system::readLSBRelease</text>
<text text-anchor="middle" x="455.5" y="-203.5" font-family="Helvetica,sans-Serif" font-size="10.00">DistribDescription</text>
</a>
</g>
</g>
<!-- Node17&#45;&gt;Node18 -->
<g id="edge20" class="edge">
<title>Node17&#45;&gt;Node18</title>
<path fill="none" stroke="midnightblue" d="M303.9,-333.95C309.34,-331.44 314.47,-328.33 319,-324.5 351.56,-296.93 322.68,-263.36 355,-235.5 356.34,-234.34 357.73,-233.24 359.16,-232.19"/>
<polygon fill="midnightblue" stroke="midnightblue" points="361.2,-235.04 367.75,-226.71 357.43,-229.14 361.2,-235.04"/>
</g>
<!-- Node19 -->
<g id="node18" class="node">
<title>Node19</title>
<g id="a_node18"><a xlink:href="../../dd/d42/namespaceleanux_1_1system.html#ad8234be7a364508d2c6a6f107a3631a1" target="_top" xlink:title="Read the DISTRIB_ID from /etc/lsb&#45;release.">
<polygon fill="none" stroke="black" points="367.5,-147.5 367.5,-177.5 543.5,-177.5 543.5,-147.5 367.5,-147.5"/>
<text text-anchor="start" x="375.5" y="-165.5" font-family="Helvetica,sans-Serif" font-size="10.00">leanux::system::readLSBRelease</text>
<text text-anchor="middle" x="455.5" y="-154.5" font-family="Helvetica,sans-Serif" font-size="10.00">DistribId</text>
</a>
</g>
</g>
<!-- Node17&#45;&gt;Node19 -->
<g id="edge21" class="edge">
<title>Node17&#45;&gt;Node19</title>
<path fill="none" stroke="midnightblue" d="M305.67,-333.94C310.54,-331.41 315.06,-328.3 319,-324.5 364.63,-280.51 309.77,-230.9 355,-186.5 356.26,-185.26 357.58,-184.08 358.94,-182.96"/>
<polygon fill="midnightblue" stroke="midnightblue" points="361.05,-185.75 367.22,-177.13 357.02,-180.03 361.05,-185.75"/>
</g>
<!-- Node20 -->
<g id="node19" class="node">
<title>Node20</title>
<g id="a_node19"><a xlink:href="../../dd/d42/namespaceleanux_1_1system.html#a09df94941748f400e8851f4580d55b4c" target="_top" xlink:title="Read the ID from /etc/os&#45;release.">
<polygon fill="none" stroke="black" points="369.5,-333.5 369.5,-363.5 541.5,-363.5 541.5,-333.5 369.5,-333.5"/>
<text text-anchor="start" x="377.5" y="-351.5" font-family="Helvetica,sans-Serif" font-size="10.00">leanux::system::readOSRelease</text>
<text text-anchor="middle" x="455.5" y="-340.5" font-family="Helvetica,sans-Serif" font-size="10.00">DistribId</text>
</a>
</g>
</g>
<!-- Node17&#45;&gt;Node20 -->
<g id="edge22" class="edge">
<title>Node17&#45;&gt;Node20</title>
<path fill="none" stroke="midnightblue" d="M317.68,-345.4C331.32,-345.71 345.54,-346.03 359.42,-346.35"/>
<polygon fill="midnightblue" stroke="midnightblue" points="359.38,-349.85 369.45,-346.58 359.54,-342.85 359.38,-349.85"/>
</g>
<!-- Node21 -->
<g id="node20" class="node">
<title>Node21</title>
<g id="a_node20"><a xlink:href="../../dd/d42/namespaceleanux_1_1system.html#ab4e7b5d36c918f7655be2fc23056c1c2" target="_top" xlink:title="Read the NAME from /etc/os&#45;release.">
<polygon fill="none" stroke="black" points="355,-295 355,-314 556,-314 556,-295 355,-295"/>
<text text-anchor="middle" x="455.5" y="-302" font-family="Helvetica,sans-Serif" font-size="10.00">leanux::system::readOSReleaseName</text>
</a>
</g>
</g>
<!-- Node17&#45;&gt;Node21 -->
<g id="edge23" class="edge">
<title>Node17&#45;&gt;Node21</title>
<path fill="none" stroke="midnightblue" d="M287.56,-333.96C318.71,-328.46 358.05,-321.52 390.71,-315.76"/>
<polygon fill="midnightblue" stroke="midnightblue" points="391.37,-319.19 400.61,-314.01 390.16,-312.3 391.37,-319.19"/>
</g>
<!-- Node22 -->
<g id="node21" class="node">
<title>Node22</title>
<g id="a_node21"><a xlink:href="../../dd/d42/namespaceleanux_1_1system.html#a06b51abf1e4d492f1c75f47a1bbff1f3" target="_top" xlink:title="Read the VERSION from /etc/os&#45;release.">
<polygon fill="none" stroke="black" points="369.5,-245.5 369.5,-275.5 541.5,-275.5 541.5,-245.5 369.5,-245.5"/>
<text text-anchor="start" x="377.5" y="-263.5" font-family="Helvetica,sans-Serif" font-size="10.00">leanux::system::readOSRelease</text>
<text text-anchor="middle" x="455.5" y="-252.5" font-family="Helvetica,sans-Serif" font-size="10.00">Version</text>
</a>
</g>
</g>
<!-- Node17&#45;&gt;Node22 -->
<g id="edge24" class="edge">
<title>Node17&#45;&gt;Node22</title>
<path fill="none" stroke="midnightblue" d="M297.24,-333.9C304.84,-331.45 312.28,-328.37 319,-324.5 339.45,-312.74 334.72,-297.54 355,-285.5 358.7,-283.3 362.6,-281.29 366.61,-279.46"/>
<polygon fill="midnightblue" stroke="midnightblue" points="368.26,-282.57 376.16,-275.5 365.58,-276.1 368.26,-282.57"/>
</g>
</g>
</svg>
