<?xml version="1.0" encoding="UTF-8" standalone="no"?>
<!DOCTYPE svg PUBLIC "-//W3C//DTD SVG 1.1//EN"
 "http://www.w3.org/Graphics/SVG/1.1/DTD/svg11.dtd">
<!-- Generated by graphviz version 2.43.0 (0)
 -->
<!-- Title: leanux::tools::lard::ProcSnap Pages: 1 -->
<svg width="268pt" height="195pt"
 viewBox="0.00 0.00 267.50 195.00" xmlns="http://www.w3.org/2000/svg" xmlns:xlink="http://www.w3.org/1999/xlink">
<g id="graph0" class="graph" transform="scale(1 1) rotate(0) translate(4 191)">
<title>leanux::tools::lard::ProcSnap</title>
<!-- Node1 -->
<g id="node1" class="node">
<title>Node1</title>
<g id="a_node1"><a xlink:title=" ">
<polygon fill="#bfbfbf" stroke="black" points="16,-0.5 16,-30.5 120,-30.5 120,-0.5 16,-0.5"/>
<text text-anchor="start" x="24" y="-18.5" font-family="Helvetica,sans-Serif" font-size="10.00">leanux::tools::lard</text>
<text text-anchor="middle" x="68" y="-7.5" font-family="Helvetica,sans-Serif" font-size="10.00">::ProcSnap</text>
</a>
</g>
</g>
<!-- Node2 -->
<g id="node2" class="node">
<title>Node2</title>
<g id="a_node2"><a xlink:href="../../db/dc1/classleanux_1_1tools_1_1lard_1_1Snapshot.html" target="_top" xlink:title=" ">
<polygon fill="none" stroke="black" points="0,-89.5 0,-119.5 104,-119.5 104,-89.5 0,-89.5"/>
<text text-anchor="start" x="8" y="-107.5" font-family="Helvetica,sans-Serif" font-size="10.00">leanux::tools::lard</text>
<text text-anchor="middle" x="52" y="-96.5" font-family="Helvetica,sans-Serif" font-size="10.00">::Snapshot</text>
</a>
</g>
</g>
<!-- Node2&#45;&gt;Node1 -->
<g id="edge1" class="edge">
<title>Node2&#45;&gt;Node1</title>
<path fill="none" stroke="midnightblue" d="M56.49,-79.09C59.37,-63.44 63,-43.68 65.41,-30.6"/>
<polygon fill="midnightblue" stroke="midnightblue" points="53.01,-78.67 54.64,-89.13 59.89,-79.93 53.01,-78.67"/>
</g>
<!-- Node3 -->
<g id="node3" class="node">
<title>Node3</title>
<g id="a_node3"><a xlink:title=" ">
<polygon fill="none" stroke="#bfbfbf" points="122.5,-89.5 122.5,-119.5 259.5,-119.5 259.5,-89.5 122.5,-89.5"/>
<text text-anchor="start" x="130.5" y="-107.5" font-family="Helvetica,sans-Serif" font-size="10.00">std::map&lt; pid_t, ProcPid</text>
<text text-anchor="middle" x="191" y="-96.5" font-family="Helvetica,sans-Serif" font-size="10.00">Stat &gt;</text>
</a>
</g>
</g>
<!-- Node3&#45;&gt;Node1 -->
<g id="edge2" class="edge">
<title>Node3&#45;&gt;Node1</title>
<path fill="none" stroke="#9a32cd" stroke-dasharray="5,2" d="M162.68,-83.47C139.85,-67.32 108.31,-45.01 88.03,-30.67"/>
<polygon fill="#9a32cd" stroke="#9a32cd" points="160.78,-86.41 170.96,-89.33 164.82,-80.7 160.78,-86.41"/>
<text text-anchor="middle" x="164" y="-63" font-family="Helvetica,sans-Serif" font-size="10.00"> snap2_</text>
<text text-anchor="middle" x="164" y="-52" font-family="Helvetica,sans-Serif" font-size="10.00">snap1_</text>
</g>
<!-- Node4 -->
<g id="node4" class="node">
<title>Node4</title>
<g id="a_node4"><a xlink:title=" ">
<polygon fill="none" stroke="#bfbfbf" points="118,-167.5 118,-186.5 190,-186.5 190,-167.5 118,-167.5"/>
<text text-anchor="middle" x="154" y="-174.5" font-family="Helvetica,sans-Serif" font-size="10.00">ProcPidStat</text>
</a>
</g>
</g>
<!-- Node4&#45;&gt;Node3 -->
<g id="edge3" class="edge">
<title>Node4&#45;&gt;Node3</title>
<path fill="none" stroke="#9a32cd" stroke-dasharray="5,2" d="M153.47,-157.04C153.94,-150.73 155.19,-143.83 158,-138 161.35,-131.05 166.83,-124.74 172.37,-119.57"/>
<polygon fill="#9a32cd" stroke="#9a32cd" points="149.97,-157.35 153.3,-167.4 156.97,-157.46 149.97,-157.35"/>
<text text-anchor="middle" x="182.5" y="-141" font-family="Helvetica,sans-Serif" font-size="10.00"> elements</text>
</g>
<!-- Node5 -->
<g id="node5" class="node">
<title>Node5</title>
<g id="a_node5"><a xlink:title=" ">
<polygon fill="none" stroke="#bfbfbf" points="208.5,-167.5 208.5,-186.5 249.5,-186.5 249.5,-167.5 208.5,-167.5"/>
<text text-anchor="middle" x="229" y="-174.5" font-family="Helvetica,sans-Serif" font-size="10.00">pid_t</text>
</a>
</g>
</g>
<!-- Node5&#45;&gt;Node3 -->
<g id="edge4" class="edge">
<title>Node5&#45;&gt;Node3</title>
<path fill="none" stroke="#9a32cd" stroke-dasharray="5,2" d="M219.47,-158.32C213.01,-146.34 204.59,-130.72 198.59,-119.58"/>
<polygon fill="#9a32cd" stroke="#9a32cd" points="216.51,-160.21 224.34,-167.36 222.68,-156.89 216.51,-160.21"/>
<text text-anchor="middle" x="226" y="-141" font-family="Helvetica,sans-Serif" font-size="10.00"> keys</text>
</g>
</g>
</svg>
