<?xml version="1.0" encoding="UTF-8" standalone="no"?>
<!DOCTYPE svg PUBLIC "-//W3C//DTD SVG 1.1//EN"
 "http://www.w3.org/Graphics/SVG/1.1/DTD/svg11.dtd">
<!-- Generated by graphviz version 2.43.0 (0)
 -->
<!-- Title: leanux::net::UDP4SocketInfo Pages: 1 -->
<svg width="189pt" height="139pt"
 viewBox="0.00 0.00 188.50 139.00" xmlns="http://www.w3.org/2000/svg" xmlns:xlink="http://www.w3.org/1999/xlink">
<g id="graph0" class="graph" transform="scale(1 1) rotate(0) translate(4 135)">
<title>leanux::net::UDP4SocketInfo</title>
<!-- Node1 -->
<g id="node1" class="node">
<title>Node1</title>
<g id="a_node1"><a xlink:title="UDP4 socket.">
<polygon fill="#bfbfbf" stroke="black" points="0,-0.5 0,-19.5 155,-19.5 155,-0.5 0,-0.5"/>
<text text-anchor="middle" x="77.5" y="-7.5" font-family="Helvetica,sans-Serif" font-size="10.00">leanux::net::UDP4SocketInfo</text>
</a>
</g>
</g>
<!-- Node2 -->
<g id="node2" class="node">
<title>Node2</title>
<g id="a_node2"><a xlink:title=" ">
<polygon fill="none" stroke="#bfbfbf" points="21,-111.5 21,-130.5 50,-130.5 50,-111.5 21,-111.5"/>
<text text-anchor="middle" x="35.5" y="-118.5" font-family="Helvetica,sans-Serif" font-size="10.00">int</text>
</a>
</g>
</g>
<!-- Node2&#45;&gt;Node1 -->
<g id="edge1" class="edge">
<title>Node2&#45;&gt;Node1</title>
<path fill="none" stroke="#9a32cd" stroke-dasharray="5,2" d="M31,-101.39C27.82,-83.9 25.8,-57.57 36.5,-38 40.92,-29.92 48.9,-23.86 56.66,-19.54"/>
<polygon fill="#9a32cd" stroke="#9a32cd" points="27.64,-102.39 33.14,-111.44 34.48,-100.93 27.64,-102.39"/>
<text text-anchor="middle" x="67" y="-85" font-family="Helvetica,sans-Serif" font-size="10.00"> tcp_state</text>
<text text-anchor="middle" x="67" y="-74" font-family="Helvetica,sans-Serif" font-size="10.00">inode</text>
<text text-anchor="middle" x="67" y="-63" font-family="Helvetica,sans-Serif" font-size="10.00">remote_port</text>
<text text-anchor="middle" x="67" y="-52" font-family="Helvetica,sans-Serif" font-size="10.00">local_port</text>
<text text-anchor="middle" x="67" y="-41" font-family="Helvetica,sans-Serif" font-size="10.00">uid</text>
</g>
<!-- Node3 -->
<g id="node3" class="node">
<title>Node3</title>
<g id="a_node3"><a xlink:title=" ">
<polygon fill="none" stroke="#bfbfbf" points="100.5,-111.5 100.5,-130.5 138.5,-130.5 138.5,-111.5 100.5,-111.5"/>
<text text-anchor="middle" x="119.5" y="-118.5" font-family="Helvetica,sans-Serif" font-size="10.00">long</text>
</a>
</g>
</g>
<!-- Node3&#45;&gt;Node1 -->
<g id="edge2" class="edge">
<title>Node3&#45;&gt;Node1</title>
<path fill="none" stroke="#9a32cd" stroke-dasharray="5,2" d="M116.53,-101.18C113.36,-84.09 107.39,-58.49 97.5,-38 94.35,-31.49 89.56,-24.95 85.46,-19.94"/>
<polygon fill="#9a32cd" stroke="#9a32cd" points="113.16,-102.22 118.3,-111.49 120.06,-101.04 113.16,-102.22"/>
<text text-anchor="middle" x="147.5" y="-79.5" font-family="Helvetica,sans-Serif" font-size="10.00"> remote_addr</text>
<text text-anchor="middle" x="147.5" y="-68.5" font-family="Helvetica,sans-Serif" font-size="10.00">rx_queue</text>
<text text-anchor="middle" x="147.5" y="-57.5" font-family="Helvetica,sans-Serif" font-size="10.00">local_addr</text>
<text text-anchor="middle" x="147.5" y="-46.5" font-family="Helvetica,sans-Serif" font-size="10.00">tx_queue</text>
</g>
</g>
</svg>
