<?xml version="1.0" encoding="UTF-8" standalone="no"?>
<!DOCTYPE svg PUBLIC "-//W3C//DTD SVG 1.1//EN"
 "http://www.w3.org/Graphics/SVG/1.1/DTD/svg11.dtd">
<!-- Generated by graphviz version 2.43.0 (0)
 -->
<!-- Title: lib/process.cpp Pages: 1 -->
<svg width="1155pt" height="196pt"
 viewBox="0.00 0.00 1154.50 196.00" xmlns="http://www.w3.org/2000/svg" xmlns:xlink="http://www.w3.org/1999/xlink">
<g id="graph0" class="graph" transform="scale(1 1) rotate(0) translate(4 192)">
<title>lib/process.cpp</title>
<!-- Node1 -->
<g id="node1" class="node">
<title>Node1</title>
<g id="a_node1"><a xlink:title=" ">
<polygon fill="#bfbfbf" stroke="black" points="605,-168.5 605,-187.5 694,-187.5 694,-168.5 605,-168.5"/>
<text text-anchor="middle" x="649.5" y="-175.5" font-family="Helvetica,sans-Serif" font-size="10.00">lib/process.cpp</text>
</a>
</g>
</g>
<!-- Node2 -->
<g id="node2" class="node">
<title>Node2</title>
<g id="a_node2"><a xlink:href="../../dd/db4/process_8hpp.html" target="_top" xlink:title=" ">
<polygon fill="none" stroke="black" points="351,-112.5 351,-131.5 426,-131.5 426,-112.5 351,-112.5"/>
<text text-anchor="middle" x="388.5" y="-119.5" font-family="Helvetica,sans-Serif" font-size="10.00">process.hpp</text>
</a>
</g>
</g>
<!-- Node1&#45;&gt;Node2 -->
<g id="edge1" class="edge">
<title>Node1&#45;&gt;Node2</title>
<path fill="none" stroke="midnightblue" d="M608.14,-168.44C561.44,-158.78 485.57,-143.08 436.35,-132.9"/>
<polygon fill="midnightblue" stroke="midnightblue" points="436.77,-129.41 426.27,-130.82 435.36,-136.27 436.77,-129.41"/>
</g>
<!-- Node8 -->
<g id="node8" class="node">
<title>Node8</title>
<g id="a_node8"><a xlink:title=" ">
<polygon fill="none" stroke="#bfbfbf" points="117.5,-56.5 117.5,-75.5 173.5,-75.5 173.5,-56.5 117.5,-56.5"/>
<text text-anchor="middle" x="145.5" y="-63.5" font-family="Helvetica,sans-Serif" font-size="10.00">unistd.h</text>
</a>
</g>
</g>
<!-- Node1&#45;&gt;Node8 -->
<g id="edge33" class="edge">
<title>Node1&#45;&gt;Node8</title>
<path fill="none" stroke="midnightblue" d="M604.84,-175.36C536.92,-171.96 404.09,-161.78 295.5,-132 249.51,-119.39 199.28,-95.33 170.18,-80.29"/>
<polygon fill="midnightblue" stroke="midnightblue" points="171.64,-77.1 161.16,-75.56 168.39,-83.3 171.64,-77.1"/>
</g>
<!-- Node9 -->
<g id="node9" class="node">
<title>Node9</title>
<g id="a_node9"><a xlink:title=" ">
<polygon fill="none" stroke="#bfbfbf" points="191.5,-56.5 191.5,-75.5 263.5,-75.5 263.5,-56.5 191.5,-56.5"/>
<text text-anchor="middle" x="227.5" y="-63.5" font-family="Helvetica,sans-Serif" font-size="10.00">sys/types.h</text>
</a>
</g>
</g>
<!-- Node1&#45;&gt;Node9 -->
<g id="edge34" class="edge">
<title>Node1&#45;&gt;Node9</title>
<path fill="none" stroke="midnightblue" d="M604.93,-175.66C543.92,-172.68 431.68,-163.06 341.5,-132 306.25,-119.86 269.49,-96.69 247.55,-81.54"/>
<polygon fill="midnightblue" stroke="midnightblue" points="249.29,-78.49 239.1,-75.6 245.27,-84.21 249.29,-78.49"/>
</g>
<!-- Node10 -->
<g id="node10" class="node">
<title>Node10</title>
<g id="a_node10"><a xlink:href="../../d3/d44/oops_8hpp.html" target="_top" xlink:title=" ">
<polygon fill="none" stroke="black" points="0,-56.5 0,-75.5 61,-75.5 61,-56.5 0,-56.5"/>
<text text-anchor="middle" x="30.5" y="-63.5" font-family="Helvetica,sans-Serif" font-size="10.00">oops.hpp</text>
</a>
</g>
</g>
<!-- Node1&#45;&gt;Node10 -->
<g id="edge9" class="edge">
<title>Node1&#45;&gt;Node10</title>
<path fill="none" stroke="midnightblue" d="M604.65,-177.11C490.12,-176.8 189.55,-172.06 99.5,-132 75.87,-121.49 55.25,-99.39 42.85,-83.89"/>
<polygon fill="midnightblue" stroke="midnightblue" points="45.4,-81.46 36.54,-75.66 39.85,-85.72 45.4,-81.46"/>
</g>
<!-- Node11 -->
<g id="node11" class="node">
<title>Node11</title>
<g id="a_node11"><a xlink:href="../../dd/d90/system_8hpp.html" target="_top" xlink:title=" ">
<polygon fill="none" stroke="black" points="108.5,-112.5 108.5,-131.5 182.5,-131.5 182.5,-112.5 108.5,-112.5"/>
<text text-anchor="middle" x="145.5" y="-119.5" font-family="Helvetica,sans-Serif" font-size="10.00">system.hpp</text>
</a>
</g>
</g>
<!-- Node1&#45;&gt;Node11 -->
<g id="edge11" class="edge">
<title>Node1&#45;&gt;Node11</title>
<path fill="none" stroke="midnightblue" d="M604.89,-173.09C525.06,-165.96 352.57,-149.91 207.5,-132 202.69,-131.41 197.68,-130.75 192.68,-130.06"/>
<polygon fill="midnightblue" stroke="midnightblue" points="192.9,-126.56 182.51,-128.64 191.93,-133.49 192.9,-126.56"/>
</g>
<!-- Node12 -->
<g id="node12" class="node">
<title>Node12</title>
<g id="a_node12"><a xlink:href="../../d0/d3f/util_8hpp.html" target="_top" xlink:title=" ">
<polygon fill="none" stroke="black" points="651,-112.5 651,-131.5 704,-131.5 704,-112.5 651,-112.5"/>
<text text-anchor="middle" x="677.5" y="-119.5" font-family="Helvetica,sans-Serif" font-size="10.00">util.hpp</text>
</a>
</g>
</g>
<!-- Node1&#45;&gt;Node12 -->
<g id="edge16" class="edge">
<title>Node1&#45;&gt;Node12</title>
<path fill="none" stroke="midnightblue" d="M654.12,-168.08C657.96,-160.69 663.52,-149.95 668.26,-140.81"/>
<polygon fill="midnightblue" stroke="midnightblue" points="671.47,-142.24 672.96,-131.75 665.25,-139.02 671.47,-142.24"/>
</g>
<!-- Node13 -->
<g id="node13" class="node">
<title>Node13</title>
<g id="a_node13"><a xlink:title=" ">
<polygon fill="none" stroke="#bfbfbf" points="566.5,-56.5 566.5,-75.5 622.5,-75.5 622.5,-56.5 566.5,-56.5"/>
<text text-anchor="middle" x="594.5" y="-63.5" font-family="Helvetica,sans-Serif" font-size="10.00">sstream</text>
</a>
</g>
</g>
<!-- Node1&#45;&gt;Node13 -->
<g id="edge27" class="edge">
<title>Node1&#45;&gt;Node13</title>
<path fill="none" stroke="midnightblue" d="M645.18,-168.37C636.19,-150.38 615.28,-108.55 603.31,-84.63"/>
<polygon fill="midnightblue" stroke="midnightblue" points="606.4,-82.97 598.8,-75.59 600.14,-86.1 606.4,-82.97"/>
</g>
<!-- Node14 -->
<g id="node14" class="node">
<title>Node14</title>
<g id="a_node14"><a xlink:title=" ">
<polygon fill="none" stroke="#bfbfbf" points="641,-56.5 641,-75.5 696,-75.5 696,-56.5 641,-56.5"/>
<text text-anchor="middle" x="668.5" y="-63.5" font-family="Helvetica,sans-Serif" font-size="10.00">fstream</text>
</a>
</g>
</g>
<!-- Node1&#45;&gt;Node14 -->
<g id="edge26" class="edge">
<title>Node1&#45;&gt;Node14</title>
<path fill="none" stroke="midnightblue" d="M646.62,-168.43C642.82,-155.85 637.21,-131.73 642.5,-112 645.15,-102.1 650.57,-92.13 655.77,-84.1"/>
<polygon fill="midnightblue" stroke="midnightblue" points="658.79,-85.89 661.61,-75.68 653.04,-81.91 658.79,-85.89"/>
</g>
<!-- Node20 -->
<g id="node20" class="node">
<title>Node20</title>
<g id="a_node20"><a xlink:title=" ">
<polygon fill="none" stroke="#bfbfbf" points="722.5,-112.5 722.5,-131.5 782.5,-131.5 782.5,-112.5 722.5,-112.5"/>
<text text-anchor="middle" x="752.5" y="-119.5" font-family="Helvetica,sans-Serif" font-size="10.00">iostream</text>
</a>
</g>
</g>
<!-- Node1&#45;&gt;Node20 -->
<g id="edge28" class="edge">
<title>Node1&#45;&gt;Node20</title>
<path fill="none" stroke="midnightblue" d="M666.05,-168.32C682.49,-159.7 707.93,-146.36 726.97,-136.39"/>
<polygon fill="midnightblue" stroke="midnightblue" points="728.76,-139.4 735.99,-131.65 725.51,-133.2 728.76,-139.4"/>
</g>
<!-- Node21 -->
<g id="node21" class="node">
<title>Node21</title>
<g id="a_node21"><a xlink:title=" ">
<polygon fill="none" stroke="#bfbfbf" points="800.5,-112.5 800.5,-131.5 854.5,-131.5 854.5,-112.5 800.5,-112.5"/>
<text text-anchor="middle" x="827.5" y="-119.5" font-family="Helvetica,sans-Serif" font-size="10.00">dirent.h</text>
</a>
</g>
</g>
<!-- Node1&#45;&gt;Node21 -->
<g id="edge29" class="edge">
<title>Node1&#45;&gt;Node21</title>
<path fill="none" stroke="midnightblue" d="M677.7,-168.44C708.18,-159.2 756.86,-144.43 790.41,-134.25"/>
<polygon fill="midnightblue" stroke="midnightblue" points="791.75,-137.5 800.3,-131.25 789.72,-130.8 791.75,-137.5"/>
</g>
<!-- Node22 -->
<g id="node22" class="node">
<title>Node22</title>
<g id="a_node22"><a xlink:title=" ">
<polygon fill="none" stroke="#bfbfbf" points="873,-112.5 873,-131.5 924,-131.5 924,-112.5 873,-112.5"/>
<text text-anchor="middle" x="898.5" y="-119.5" font-family="Helvetica,sans-Serif" font-size="10.00">errno.h</text>
</a>
</g>
</g>
<!-- Node1&#45;&gt;Node22 -->
<g id="edge30" class="edge">
<title>Node1&#45;&gt;Node22</title>
<path fill="none" stroke="midnightblue" d="M693.07,-168.43C734.29,-160.19 798.11,-147.09 862.93,-132.05"/>
<polygon fill="midnightblue" stroke="midnightblue" points="863.98,-135.4 872.92,-129.72 862.38,-128.58 863.98,-135.4"/>
</g>
<!-- Node23 -->
<g id="node23" class="node">
<title>Node23</title>
<g id="a_node23"><a xlink:title=" ">
<polygon fill="none" stroke="#bfbfbf" points="942.5,-112.5 942.5,-131.5 992.5,-131.5 992.5,-112.5 942.5,-112.5"/>
<text text-anchor="middle" x="967.5" y="-119.5" font-family="Helvetica,sans-Serif" font-size="10.00">stdio.h</text>
</a>
</g>
</g>
<!-- Node1&#45;&gt;Node23 -->
<g id="edge31" class="edge">
<title>Node1&#45;&gt;Node23</title>
<path fill="none" stroke="midnightblue" d="M694.03,-171.37C748.19,-164.21 842.56,-150.72 932.5,-132.03"/>
<polygon fill="midnightblue" stroke="midnightblue" points="933.25,-135.45 942.32,-129.97 931.81,-128.6 933.25,-135.45"/>
</g>
<!-- Node24 -->
<g id="node24" class="node">
<title>Node24</title>
<g id="a_node24"><a xlink:title=" ">
<polygon fill="none" stroke="#bfbfbf" points="1011,-112.5 1011,-131.5 1064,-131.5 1064,-112.5 1011,-112.5"/>
<text text-anchor="middle" x="1037.5" y="-119.5" font-family="Helvetica,sans-Serif" font-size="10.00">stdlib.h</text>
</a>
</g>
</g>
<!-- Node1&#45;&gt;Node24 -->
<g id="edge32" class="edge">
<title>Node1&#45;&gt;Node24</title>
<path fill="none" stroke="midnightblue" d="M694.22,-172.99C759.43,-166.76 884.57,-153.41 1000.71,-131.94"/>
<polygon fill="midnightblue" stroke="midnightblue" points="1001.66,-135.32 1010.84,-130.04 1000.37,-128.44 1001.66,-135.32"/>
</g>
<!-- Node25 -->
<g id="node25" class="node">
<title>Node25</title>
<g id="a_node25"><a xlink:title=" ">
<polygon fill="none" stroke="#bfbfbf" points="1082.5,-112.5 1082.5,-131.5 1146.5,-131.5 1146.5,-112.5 1082.5,-112.5"/>
<text text-anchor="middle" x="1114.5" y="-119.5" font-family="Helvetica,sans-Serif" font-size="10.00">sys/stat.h</text>
</a>
</g>
</g>
<!-- Node1&#45;&gt;Node25 -->
<g id="edge35" class="edge">
<title>Node1&#45;&gt;Node25</title>
<path fill="none" stroke="midnightblue" d="M694.28,-173.88C770.11,-168.24 928.8,-154.91 1072.46,-132.01"/>
<polygon fill="midnightblue" stroke="midnightblue" points="1073.02,-135.46 1082.34,-130.41 1071.91,-128.55 1073.02,-135.46"/>
</g>
<!-- Node3 -->
<g id="node3" class="node">
<title>Node3</title>
<g id="a_node3"><a xlink:title=" ">
<polygon fill="none" stroke="#bfbfbf" points="168.5,-0.5 168.5,-19.5 212.5,-19.5 212.5,-0.5 168.5,-0.5"/>
<text text-anchor="middle" x="190.5" y="-7.5" font-family="Helvetica,sans-Serif" font-size="10.00">string</text>
</a>
</g>
</g>
<!-- Node2&#45;&gt;Node3 -->
<g id="edge2" class="edge">
<title>Node2&#45;&gt;Node3</title>
<path fill="none" stroke="midnightblue" d="M373.14,-112.33C350.95,-99.83 308.64,-76.04 272.5,-56 253.27,-45.34 231.44,-33.36 215.14,-24.45"/>
<polygon fill="midnightblue" stroke="midnightblue" points="216.7,-21.31 206.24,-19.59 213.34,-27.45 216.7,-21.31"/>
</g>
<!-- Node4 -->
<g id="node4" class="node">
<title>Node4</title>
<g id="a_node4"><a xlink:title=" ">
<polygon fill="none" stroke="#bfbfbf" points="441,-56.5 441,-75.5 498,-75.5 498,-56.5 441,-56.5"/>
<text text-anchor="middle" x="469.5" y="-63.5" font-family="Helvetica,sans-Serif" font-size="10.00">ostream</text>
</a>
</g>
</g>
<!-- Node2&#45;&gt;Node4 -->
<g id="edge3" class="edge">
<title>Node2&#45;&gt;Node4</title>
<path fill="none" stroke="midnightblue" d="M401.51,-112.32C414.03,-103.98 433.18,-91.21 447.97,-81.35"/>
<polygon fill="midnightblue" stroke="midnightblue" points="450.14,-84.11 456.52,-75.65 446.26,-78.29 450.14,-84.11"/>
</g>
<!-- Node5 -->
<g id="node5" class="node">
<title>Node5</title>
<g id="a_node5"><a xlink:title=" ">
<polygon fill="none" stroke="#bfbfbf" points="319.5,-56.5 319.5,-75.5 357.5,-75.5 357.5,-56.5 319.5,-56.5"/>
<text text-anchor="middle" x="338.5" y="-63.5" font-family="Helvetica,sans-Serif" font-size="10.00">map</text>
</a>
</g>
</g>
<!-- Node2&#45;&gt;Node5 -->
<g id="edge4" class="edge">
<title>Node2&#45;&gt;Node5</title>
<path fill="none" stroke="midnightblue" d="M380.24,-112.08C373.04,-104.3 362.39,-92.8 353.65,-83.37"/>
<polygon fill="midnightblue" stroke="midnightblue" points="355.97,-80.71 346.6,-75.75 350.83,-85.47 355.97,-80.71"/>
</g>
<!-- Node6 -->
<g id="node6" class="node">
<title>Node6</title>
<g id="a_node6"><a xlink:title=" ">
<polygon fill="none" stroke="#bfbfbf" points="516.5,-56.5 516.5,-75.5 548.5,-75.5 548.5,-56.5 516.5,-56.5"/>
<text text-anchor="middle" x="532.5" y="-63.5" font-family="Helvetica,sans-Serif" font-size="10.00">list</text>
</a>
</g>
</g>
<!-- Node2&#45;&gt;Node6 -->
<g id="edge5" class="edge">
<title>Node2&#45;&gt;Node6</title>
<path fill="none" stroke="midnightblue" d="M411.32,-112.44C437.34,-102.69 479.77,-86.77 506.9,-76.6"/>
<polygon fill="midnightblue" stroke="midnightblue" points="508.34,-79.8 516.48,-73.01 505.89,-73.24 508.34,-79.8"/>
</g>
<!-- Node7 -->
<g id="node7" class="node">
<title>Node7</title>
<g id="a_node7"><a xlink:title=" ">
<polygon fill="none" stroke="#bfbfbf" points="376,-56.5 376,-75.5 423,-75.5 423,-56.5 376,-56.5"/>
<text text-anchor="middle" x="399.5" y="-63.5" font-family="Helvetica,sans-Serif" font-size="10.00">vector</text>
</a>
</g>
</g>
<!-- Node2&#45;&gt;Node7 -->
<g id="edge6" class="edge">
<title>Node2&#45;&gt;Node7</title>
<path fill="none" stroke="midnightblue" d="M390.32,-112.08C391.77,-104.93 393.87,-94.64 395.69,-85.69"/>
<polygon fill="midnightblue" stroke="midnightblue" points="399.15,-86.25 397.72,-75.75 392.29,-84.85 399.15,-86.25"/>
</g>
<!-- Node2&#45;&gt;Node8 -->
<g id="edge7" class="edge">
<title>Node2&#45;&gt;Node8</title>
<path fill="none" stroke="midnightblue" d="M350.85,-113.05C311.52,-104.69 247.78,-90.97 183.64,-76.23"/>
<polygon fill="midnightblue" stroke="midnightblue" points="184.3,-72.78 173.77,-73.95 182.72,-79.61 184.3,-72.78"/>
</g>
<!-- Node2&#45;&gt;Node9 -->
<g id="edge8" class="edge">
<title>Node2&#45;&gt;Node9</title>
<path fill="none" stroke="midnightblue" d="M362.99,-112.44C335.9,-103.36 292.91,-88.94 262.63,-78.78"/>
<polygon fill="midnightblue" stroke="midnightblue" points="263.49,-75.38 252.89,-75.52 261.26,-82.01 263.49,-75.38"/>
</g>
<!-- Node10&#45;&gt;Node3 -->
<g id="edge10" class="edge">
<title>Node10&#45;&gt;Node3</title>
<path fill="none" stroke="midnightblue" d="M55.85,-56.44C83.72,-47.04 128.53,-31.91 158.72,-21.72"/>
<polygon fill="midnightblue" stroke="midnightblue" points="160,-24.99 168.36,-18.47 157.76,-18.35 160,-24.99"/>
</g>
<!-- Node11&#45;&gt;Node3 -->
<g id="edge12" class="edge">
<title>Node11&#45;&gt;Node3</title>
<path fill="none" stroke="midnightblue" d="M134.01,-112.11C119.21,-99.55 96.73,-75.89 108.5,-56 119.32,-37.72 140.48,-26.38 158.6,-19.65"/>
<polygon fill="midnightblue" stroke="midnightblue" points="159.92,-22.9 168.27,-16.37 157.67,-16.27 159.92,-22.9"/>
</g>
<!-- Node11&#45;&gt;Node8 -->
<g id="edge13" class="edge">
<title>Node11&#45;&gt;Node8</title>
<path fill="none" stroke="midnightblue" d="M145.5,-112.08C145.5,-105.01 145.5,-94.86 145.5,-85.99"/>
<polygon fill="midnightblue" stroke="midnightblue" points="149,-85.75 145.5,-75.75 142,-85.75 149,-85.75"/>
</g>
<!-- Node11&#45;&gt;Node9 -->
<g id="edge14" class="edge">
<title>Node11&#45;&gt;Node9</title>
<path fill="none" stroke="midnightblue" d="M158.67,-112.32C171.35,-103.98 190.73,-91.21 205.71,-81.35"/>
<polygon fill="midnightblue" stroke="midnightblue" points="207.93,-84.08 214.36,-75.65 204.08,-78.23 207.93,-84.08"/>
</g>
<!-- Node11&#45;&gt;Node10 -->
<g id="edge15" class="edge">
<title>Node11&#45;&gt;Node10</title>
<path fill="none" stroke="midnightblue" d="M127.28,-112.44C108.6,-103.68 79.34,-89.94 57.88,-79.86"/>
<polygon fill="midnightblue" stroke="midnightblue" points="59.18,-76.6 48.64,-75.52 56.2,-82.93 59.18,-76.6"/>
</g>
<!-- Node12&#45;&gt;Node3 -->
<g id="edge17" class="edge">
<title>Node12&#45;&gt;Node3</title>
<path fill="none" stroke="midnightblue" d="M686.52,-112.42C699.63,-98.95 720.77,-72.67 705.5,-56 672.85,-20.38 330.69,-12.84 222.86,-11.35"/>
<polygon fill="midnightblue" stroke="midnightblue" points="222.64,-7.85 212.6,-11.22 222.55,-14.85 222.64,-7.85"/>
</g>
<!-- Node12&#45;&gt;Node6 -->
<g id="edge21" class="edge">
<title>Node12&#45;&gt;Node6</title>
<path fill="none" stroke="midnightblue" d="M654.52,-112.44C628.32,-102.69 585.6,-86.77 558.28,-76.6"/>
<polygon fill="midnightblue" stroke="midnightblue" points="559.23,-73.22 548.63,-73.01 556.78,-79.78 559.23,-73.22"/>
</g>
<!-- Node12&#45;&gt;Node13 -->
<g id="edge18" class="edge">
<title>Node12&#45;&gt;Node13</title>
<path fill="none" stroke="midnightblue" d="M664.16,-112.32C651.34,-103.98 631.72,-91.21 616.56,-81.35"/>
<polygon fill="midnightblue" stroke="midnightblue" points="618.09,-78.17 607.8,-75.65 614.28,-84.04 618.09,-78.17"/>
</g>
<!-- Node12&#45;&gt;Node14 -->
<g id="edge19" class="edge">
<title>Node12&#45;&gt;Node14</title>
<path fill="none" stroke="midnightblue" d="M676.01,-112.08C674.82,-104.93 673.11,-94.64 671.62,-85.69"/>
<polygon fill="midnightblue" stroke="midnightblue" points="675.05,-85.04 669.96,-75.75 668.15,-86.19 675.05,-85.04"/>
</g>
<!-- Node15 -->
<g id="node15" class="node">
<title>Node15</title>
<g id="a_node15"><a xlink:title=" ">
<polygon fill="none" stroke="#bfbfbf" points="1017.5,-56.5 1017.5,-75.5 1049.5,-75.5 1049.5,-56.5 1017.5,-56.5"/>
<text text-anchor="middle" x="1033.5" y="-63.5" font-family="Helvetica,sans-Serif" font-size="10.00">set</text>
</a>
</g>
</g>
<!-- Node12&#45;&gt;Node15 -->
<g id="edge20" class="edge">
<title>Node12&#45;&gt;Node15</title>
<path fill="none" stroke="midnightblue" d="M704.16,-113.95C707.29,-113.23 710.46,-112.56 713.5,-112 840.2,-88.52 878.16,-105.68 1007.38,-75.78"/>
<polygon fill="midnightblue" stroke="midnightblue" points="1008.33,-79.15 1017.25,-73.44 1006.72,-72.34 1008.33,-79.15"/>
</g>
<!-- Node16 -->
<g id="node16" class="node">
<title>Node16</title>
<g id="a_node16"><a xlink:title=" ">
<polygon fill="none" stroke="#bfbfbf" points="1067.5,-56.5 1067.5,-75.5 1135.5,-75.5 1135.5,-56.5 1067.5,-56.5"/>
<text text-anchor="middle" x="1101.5" y="-63.5" font-family="Helvetica,sans-Serif" font-size="10.00">sys/time.h</text>
</a>
</g>
</g>
<!-- Node12&#45;&gt;Node16 -->
<g id="edge22" class="edge">
<title>Node12&#45;&gt;Node16</title>
<path fill="none" stroke="midnightblue" d="M704.15,-113.89C707.29,-113.19 710.45,-112.54 713.5,-112 862.06,-85.81 904.38,-99.22 1057.07,-76.07"/>
<polygon fill="midnightblue" stroke="midnightblue" points="1057.94,-79.48 1067.29,-74.49 1056.87,-72.56 1057.94,-79.48"/>
</g>
<!-- Node17 -->
<g id="node17" class="node">
<title>Node17</title>
<g id="a_node17"><a xlink:title=" ">
<polygon fill="none" stroke="#bfbfbf" points="753,-56.5 753,-75.5 806,-75.5 806,-56.5 753,-56.5"/>
<text text-anchor="middle" x="779.5" y="-63.5" font-family="Helvetica,sans-Serif" font-size="10.00">regex.h</text>
</a>
</g>
</g>
<!-- Node12&#45;&gt;Node17 -->
<g id="edge23" class="edge">
<title>Node12&#45;&gt;Node17</title>
<path fill="none" stroke="midnightblue" d="M693.89,-112.32C710.17,-103.7 735.37,-90.36 754.22,-80.39"/>
<polygon fill="midnightblue" stroke="midnightblue" points="755.95,-83.43 763.15,-75.65 752.68,-77.24 755.95,-83.43"/>
</g>
<!-- Node18 -->
<g id="node18" class="node">
<title>Node18</title>
<g id="a_node18"><a xlink:title=" ">
<polygon fill="none" stroke="#bfbfbf" points="824,-56.5 824,-75.5 877,-75.5 877,-56.5 824,-56.5"/>
<text text-anchor="middle" x="850.5" y="-63.5" font-family="Helvetica,sans-Serif" font-size="10.00">string.h</text>
</a>
</g>
</g>
<!-- Node12&#45;&gt;Node18 -->
<g id="edge24" class="edge">
<title>Node12&#45;&gt;Node18</title>
<path fill="none" stroke="midnightblue" d="M704.15,-112.68C733.61,-103.48 781.24,-88.62 814.12,-78.35"/>
<polygon fill="midnightblue" stroke="midnightblue" points="815.31,-81.65 823.82,-75.33 813.23,-74.97 815.31,-81.65"/>
</g>
<!-- Node19 -->
<g id="node19" class="node">
<title>Node19</title>
<g id="a_node19"><a xlink:title=" ">
<polygon fill="none" stroke="#bfbfbf" points="895.5,-56.5 895.5,-75.5 999.5,-75.5 999.5,-56.5 895.5,-56.5"/>
<text text-anchor="middle" x="947.5" y="-63.5" font-family="Helvetica,sans-Serif" font-size="10.00">leanux&#45;config.hpp</text>
</a>
</g>
</g>
<!-- Node12&#45;&gt;Node19 -->
<g id="edge25" class="edge">
<title>Node12&#45;&gt;Node19</title>
<path fill="none" stroke="midnightblue" d="M704.2,-114.15C707.33,-113.4 710.48,-112.67 713.5,-112 772.96,-98.86 841.41,-85.95 888.85,-77.36"/>
<polygon fill="midnightblue" stroke="midnightblue" points="889.72,-80.75 898.94,-75.53 888.48,-73.87 889.72,-80.75"/>
</g>
</g>
</svg>
