<?xml version="1.0" encoding="UTF-8" standalone="no"?>
<!DOCTYPE svg PUBLIC "-//W3C//DTD SVG 1.1//EN"
 "http://www.w3.org/Graphics/SVG/1.1/DTD/svg11.dtd">
<!-- Generated by graphviz version 2.43.0 (0)
 -->
<!-- Title: leanux::tools::lard::ProcSnap::storeSnap Pages: 1 -->
<svg width="500pt" height="617pt"
 viewBox="0.00 0.00 500.00 617.00" xmlns="http://www.w3.org/2000/svg" xmlns:xlink="http://www.w3.org/1999/xlink">
<g id="graph0" class="graph" transform="scale(1 1) rotate(0) translate(4 613)">
<title>leanux::tools::lard::ProcSnap::storeSnap</title>
<!-- Node1 -->
<g id="node1" class="node">
<title>Node1</title>
<g id="a_node1"><a xlink:title=" ">
<polygon fill="#bfbfbf" stroke="black" points="0,-284.5 0,-314.5 122,-314.5 122,-284.5 0,-284.5"/>
<text text-anchor="start" x="8" y="-302.5" font-family="Helvetica,sans-Serif" font-size="10.00">leanux::tools::lard</text>
<text text-anchor="middle" x="61" y="-291.5" font-family="Helvetica,sans-Serif" font-size="10.00">::ProcSnap::storeSnap</text>
</a>
</g>
</g>
<!-- Node2 -->
<g id="node2" class="node">
<title>Node2</title>
<g id="a_node2"><a xlink:href="../../d9/d78/classleanux_1_1persist_1_1DML.html#a8df01a6d880515c22106e424ed342c81" target="_top" xlink:title="Bind a double value to the bind at position.">
<polygon fill="none" stroke="black" points="176,-578.5 176,-608.5 292,-608.5 292,-578.5 176,-578.5"/>
<text text-anchor="start" x="184" y="-596.5" font-family="Helvetica,sans-Serif" font-size="10.00">leanux::persist::DML</text>
<text text-anchor="middle" x="234" y="-585.5" font-family="Helvetica,sans-Serif" font-size="10.00">::bind</text>
</a>
</g>
</g>
<!-- Node1&#45;&gt;Node2 -->
<g id="edge1" class="edge">
<title>Node1&#45;&gt;Node2</title>
<path fill="none" stroke="midnightblue" d="M62.84,-314.5C66.2,-359.76 82.42,-496.29 158,-569.5 160.71,-572.13 163.71,-574.47 166.91,-576.55"/>
<polygon fill="midnightblue" stroke="midnightblue" points="165.32,-579.67 175.75,-581.49 168.73,-573.56 165.32,-579.67"/>
</g>
<!-- Node3 -->
<g id="node3" class="node">
<title>Node3</title>
<g id="a_node3"><a xlink:href="../../d9/d34/namespaceleanux_1_1process.html#a016ba417c40324fe090a55a67d3ca2a6" target="_top" xlink:title="Get a delta of two ProcPidStatMap std::maps into the delta std::map.">
<polygon fill="none" stroke="black" points="161.5,-529.5 161.5,-559.5 306.5,-559.5 306.5,-529.5 161.5,-529.5"/>
<text text-anchor="start" x="169.5" y="-547.5" font-family="Helvetica,sans-Serif" font-size="10.00">leanux::process::deltaProc</text>
<text text-anchor="middle" x="234" y="-536.5" font-family="Helvetica,sans-Serif" font-size="10.00">PidStats</text>
</a>
</g>
</g>
<!-- Node1&#45;&gt;Node3 -->
<g id="edge2" class="edge">
<title>Node1&#45;&gt;Node3</title>
<path fill="none" stroke="midnightblue" d="M64.19,-314.59C70.76,-354.29 93.94,-462.55 158,-520.5 159.29,-521.67 160.64,-522.78 162.03,-523.83"/>
<polygon fill="midnightblue" stroke="midnightblue" points="160.19,-526.81 170.48,-529.31 163.99,-520.93 160.19,-526.81"/>
</g>
<!-- Node4 -->
<g id="node4" class="node">
<title>Node4</title>
<g id="a_node4"><a xlink:href="../../d9/d78/classleanux_1_1persist_1_1DML.html#a66bfdf8da5f7d2c02bb5cb6f54515783" target="_top" xlink:title="Execute.">
<polygon fill="none" stroke="black" points="176,-480.5 176,-510.5 292,-510.5 292,-480.5 176,-480.5"/>
<text text-anchor="start" x="184" y="-498.5" font-family="Helvetica,sans-Serif" font-size="10.00">leanux::persist::DML</text>
<text text-anchor="middle" x="234" y="-487.5" font-family="Helvetica,sans-Serif" font-size="10.00">::execute</text>
</a>
</g>
</g>
<!-- Node1&#45;&gt;Node4 -->
<g id="edge3" class="edge">
<title>Node1&#45;&gt;Node4</title>
<path fill="none" stroke="midnightblue" d="M66.25,-314.62C76.39,-347.97 105.2,-428.3 158,-471.5 160.73,-473.73 163.67,-475.76 166.75,-477.6"/>
<polygon fill="midnightblue" stroke="midnightblue" points="165.26,-480.77 175.74,-482.3 168.5,-474.56 165.26,-480.77"/>
</g>
<!-- Node5 -->
<g id="node5" class="node">
<title>Node5</title>
<g id="a_node5"><a xlink:href="../../de/d84/classleanux_1_1util_1_1ConfigFile.html#a8cef175948cd9727c732de3a605c99ba" target="_top" xlink:title="Get the ConfigurationFile object for the appname, or construct one if it does not exist.">
<polygon fill="none" stroke="black" points="171.5,-431.5 171.5,-461.5 296.5,-461.5 296.5,-431.5 171.5,-431.5"/>
<text text-anchor="start" x="179.5" y="-449.5" font-family="Helvetica,sans-Serif" font-size="10.00">leanux::util::ConfigFile</text>
<text text-anchor="middle" x="234" y="-438.5" font-family="Helvetica,sans-Serif" font-size="10.00">::getConfig</text>
</a>
</g>
</g>
<!-- Node1&#45;&gt;Node5 -->
<g id="edge4" class="edge">
<title>Node1&#45;&gt;Node5</title>
<path fill="none" stroke="midnightblue" d="M69.88,-314.76C84.03,-340.69 116.23,-393.37 158,-422.5 160.24,-424.06 162.58,-425.52 165,-426.89"/>
<polygon fill="midnightblue" stroke="midnightblue" points="163.53,-430.07 174.04,-431.46 166.69,-423.83 163.53,-430.07"/>
</g>
<!-- Node6 -->
<g id="node6" class="node">
<title>Node6</title>
<g id="a_node6"><a xlink:href="../../de/d84/classleanux_1_1util_1_1ConfigFile.html#aae0c3891e3d5a8d391a7439602b92780" target="_top" xlink:title="return the configuration parameter as an int.">
<polygon fill="none" stroke="black" points="171.5,-382.5 171.5,-412.5 296.5,-412.5 296.5,-382.5 171.5,-382.5"/>
<text text-anchor="start" x="179.5" y="-400.5" font-family="Helvetica,sans-Serif" font-size="10.00">leanux::util::ConfigFile</text>
<text text-anchor="middle" x="234" y="-389.5" font-family="Helvetica,sans-Serif" font-size="10.00">::getIntValue</text>
</a>
</g>
</g>
<!-- Node1&#45;&gt;Node6 -->
<g id="edge5" class="edge">
<title>Node1&#45;&gt;Node6</title>
<path fill="none" stroke="midnightblue" d="M78.11,-314.79C96.26,-331.29 127.25,-357.37 158,-373.5 161.44,-375.31 165.05,-377.01 168.73,-378.6"/>
<polygon fill="midnightblue" stroke="midnightblue" points="167.44,-381.86 178.02,-382.36 170.06,-375.37 167.44,-381.86"/>
</g>
<!-- Node8 -->
<g id="node8" class="node">
<title>Node8</title>
<g id="a_node8"><a xlink:href="../../d4/d2c/classleanux_1_1persist_1_1Query.html#ada37977ad924b728401fa1fb7506cd2e" target="_top" xlink:title="Get long value from select list.">
<polygon fill="none" stroke="black" points="172,-333.5 172,-363.5 296,-363.5 296,-333.5 172,-333.5"/>
<text text-anchor="start" x="180" y="-351.5" font-family="Helvetica,sans-Serif" font-size="10.00">leanux::persist::Query</text>
<text text-anchor="middle" x="234" y="-340.5" font-family="Helvetica,sans-Serif" font-size="10.00">::getLong</text>
</a>
</g>
</g>
<!-- Node1&#45;&gt;Node8 -->
<g id="edge7" class="edge">
<title>Node1&#45;&gt;Node8</title>
<path fill="none" stroke="midnightblue" d="M114.7,-314.6C132.42,-319.68 152.35,-325.39 170.73,-330.66"/>
<polygon fill="midnightblue" stroke="midnightblue" points="169.9,-334.06 180.47,-333.45 171.82,-327.33 169.9,-334.06"/>
</g>
<!-- Node9 -->
<g id="node9" class="node">
<title>Node9</title>
<g id="a_node9"><a xlink:href="../../d9/d34/namespaceleanux_1_1process.html#a92d013dc3ef32fd9b987b410b1ad2edc" target="_top" xlink:title="Get the pid&#39;s command line.">
<polygon fill="none" stroke="black" points="166,-284.5 166,-314.5 302,-314.5 302,-284.5 166,-284.5"/>
<text text-anchor="start" x="174" y="-302.5" font-family="Helvetica,sans-Serif" font-size="10.00">leanux::process::getProc</text>
<text text-anchor="middle" x="234" y="-291.5" font-family="Helvetica,sans-Serif" font-size="10.00">CmdLine</text>
</a>
</g>
</g>
<!-- Node1&#45;&gt;Node9 -->
<g id="edge8" class="edge">
<title>Node1&#45;&gt;Node9</title>
<path fill="none" stroke="midnightblue" d="M122.29,-299.5C133.11,-299.5 144.52,-299.5 155.75,-299.5"/>
<polygon fill="midnightblue" stroke="midnightblue" points="155.98,-303 165.98,-299.5 155.98,-296 155.98,-303"/>
</g>
<!-- Node10 -->
<g id="node10" class="node">
<title>Node10</title>
<g id="a_node10"><a xlink:href="../../d9/d34/namespaceleanux_1_1process.html#a25f41d972bb92c8cbe982e0c74c68f7d" target="_top" xlink:title="get the effective uid of a running process.">
<polygon fill="none" stroke="black" points="158,-246 158,-265 310,-265 310,-246 158,-246"/>
<text text-anchor="middle" x="234" y="-253" font-family="Helvetica,sans-Serif" font-size="10.00">leanux::process::getProcUid</text>
</a>
</g>
</g>
<!-- Node1&#45;&gt;Node10 -->
<g id="edge9" class="edge">
<title>Node1&#45;&gt;Node10</title>
<path fill="none" stroke="midnightblue" d="M120.37,-284.48C141.81,-278.96 165.78,-272.8 186.09,-267.57"/>
<polygon fill="midnightblue" stroke="midnightblue" points="187.22,-270.89 196.03,-265.01 185.47,-264.11 187.22,-270.89"/>
</g>
<!-- Node11 -->
<g id="node11" class="node">
<title>Node11</title>
<g id="a_node11"><a xlink:href="../../de/d84/classleanux_1_1util_1_1ConfigFile.html#af62cc2be1bf08d122bd390f18a886fdc" target="_top" xlink:title="return the configuration parameter as an int.">
<polygon fill="none" stroke="black" points="171.5,-196.5 171.5,-226.5 296.5,-226.5 296.5,-196.5 171.5,-196.5"/>
<text text-anchor="start" x="179.5" y="-214.5" font-family="Helvetica,sans-Serif" font-size="10.00">leanux::util::ConfigFile</text>
<text text-anchor="middle" x="234" y="-203.5" font-family="Helvetica,sans-Serif" font-size="10.00">::getStringListValue</text>
</a>
</g>
</g>
<!-- Node1&#45;&gt;Node11 -->
<g id="edge10" class="edge">
<title>Node1&#45;&gt;Node11</title>
<path fill="none" stroke="midnightblue" d="M81.69,-284.38C100.49,-270.49 130.01,-250.06 158,-236.5 162.59,-234.28 167.43,-232.17 172.35,-230.19"/>
<polygon fill="midnightblue" stroke="midnightblue" points="173.77,-233.4 181.86,-226.56 171.27,-226.86 173.77,-233.4"/>
</g>
<!-- Node12 -->
<g id="node12" class="node">
<title>Node12</title>
<g id="a_node12"><a xlink:href="../../d8/daf/classleanux_1_1persist_1_1Database.html#ad2d6eb77b4fe786579b5447fd1b692bf" target="_top" xlink:title="Get the rowid of the last inserted row.">
<polygon fill="none" stroke="black" points="163.5,-147.5 163.5,-177.5 304.5,-177.5 304.5,-147.5 163.5,-147.5"/>
<text text-anchor="start" x="171.5" y="-165.5" font-family="Helvetica,sans-Serif" font-size="10.00">leanux::persist::Database</text>
<text text-anchor="middle" x="234" y="-154.5" font-family="Helvetica,sans-Serif" font-size="10.00">::lastInsertRowid</text>
</a>
</g>
</g>
<!-- Node1&#45;&gt;Node12 -->
<g id="edge12" class="edge">
<title>Node1&#45;&gt;Node12</title>
<path fill="none" stroke="midnightblue" d="M71.23,-284.14C86.41,-260.15 118.9,-213.79 158,-187.5 160.94,-185.53 164.04,-183.7 167.25,-182"/>
<polygon fill="midnightblue" stroke="midnightblue" points="169.01,-185.04 176.53,-177.57 166,-178.72 169.01,-185.04"/>
</g>
<!-- Node13 -->
<g id="node13" class="node">
<title>Node13</title>
<g id="a_node13"><a xlink:href="../../db/dff/classleanux_1_1persist_1_1Statement.html#a1b809c1b1d0e9d24af65e439c3893d74" target="_top" xlink:title="Prepare a SQL statement.">
<polygon fill="none" stroke="black" points="161,-98.5 161,-128.5 307,-128.5 307,-98.5 161,-98.5"/>
<text text-anchor="start" x="169" y="-116.5" font-family="Helvetica,sans-Serif" font-size="10.00">leanux::persist::Statement</text>
<text text-anchor="middle" x="234" y="-105.5" font-family="Helvetica,sans-Serif" font-size="10.00">::prepare</text>
</a>
</g>
</g>
<!-- Node1&#45;&gt;Node13 -->
<g id="edge13" class="edge">
<title>Node1&#45;&gt;Node13</title>
<path fill="none" stroke="midnightblue" d="M66.92,-284.05C77.93,-251.93 107.63,-177.63 158,-137.5 159.6,-136.22 161.28,-135.01 163.01,-133.86"/>
<polygon fill="midnightblue" stroke="midnightblue" points="165.14,-136.67 172.06,-128.65 161.64,-130.61 165.14,-136.67"/>
</g>
<!-- Node15 -->
<g id="node15" class="node">
<title>Node15</title>
<g id="a_node15"><a xlink:href="../../db/dff/classleanux_1_1persist_1_1Statement.html#a4696481e678f7c7337c07c480ee985ec" target="_top" xlink:title="Reset a SQL statement for rexecute or even re&#45;prepare.">
<polygon fill="none" stroke="black" points="161,-49.5 161,-79.5 307,-79.5 307,-49.5 161,-49.5"/>
<text text-anchor="start" x="169" y="-67.5" font-family="Helvetica,sans-Serif" font-size="10.00">leanux::persist::Statement</text>
<text text-anchor="middle" x="234" y="-56.5" font-family="Helvetica,sans-Serif" font-size="10.00">::reset</text>
</a>
</g>
</g>
<!-- Node1&#45;&gt;Node15 -->
<g id="edge15" class="edge">
<title>Node1&#45;&gt;Node15</title>
<path fill="none" stroke="midnightblue" d="M64.57,-284.24C71.87,-245.65 96.34,-143.32 158,-88.5 159.33,-87.31 160.73,-86.19 162.17,-85.11"/>
<polygon fill="midnightblue" stroke="midnightblue" points="164.35,-87.88 170.91,-79.56 160.6,-81.97 164.35,-87.88"/>
</g>
<!-- Node16 -->
<g id="node16" class="node">
<title>Node16</title>
<g id="a_node16"><a xlink:href="../../d4/d2c/classleanux_1_1persist_1_1Query.html#a294e11c33a22761503c49418f5ca9815" target="_top" xlink:title="Step the result list, end of list returns false.">
<polygon fill="none" stroke="black" points="172,-0.5 172,-30.5 296,-30.5 296,-0.5 172,-0.5"/>
<text text-anchor="start" x="180" y="-18.5" font-family="Helvetica,sans-Serif" font-size="10.00">leanux::persist::Query</text>
<text text-anchor="middle" x="234" y="-7.5" font-family="Helvetica,sans-Serif" font-size="10.00">::step</text>
</a>
</g>
</g>
<!-- Node1&#45;&gt;Node16 -->
<g id="edge16" class="edge">
<title>Node1&#45;&gt;Node16</title>
<path fill="none" stroke="midnightblue" d="M63.08,-284.42C67.08,-240.18 84.82,-109.53 158,-39.5 159.65,-37.93 161.39,-36.45 163.23,-35.08"/>
<polygon fill="midnightblue" stroke="midnightblue" points="165.18,-37.98 171.72,-29.65 161.41,-32.08 165.18,-37.98"/>
</g>
<!-- Node7 -->
<g id="node7" class="node">
<title>Node7</title>
<g id="a_node7"><a xlink:href="../../de/d84/classleanux_1_1util_1_1ConfigFile.html#aece3326e1c10df9dcfb48f4c12967336" target="_top" xlink:title="return the configuration parameter as a string.">
<polygon fill="none" stroke="black" points="356.5,-289.5 356.5,-319.5 481.5,-319.5 481.5,-289.5 356.5,-289.5"/>
<text text-anchor="start" x="364.5" y="-307.5" font-family="Helvetica,sans-Serif" font-size="10.00">leanux::util::ConfigFile</text>
<text text-anchor="middle" x="419" y="-296.5" font-family="Helvetica,sans-Serif" font-size="10.00">::getValue</text>
</a>
</g>
</g>
<!-- Node6&#45;&gt;Node7 -->
<g id="edge6" class="edge">
<title>Node6&#45;&gt;Node7</title>
<path fill="none" stroke="midnightblue" d="M288.12,-382.4C295.58,-379.73 303.07,-376.75 310,-373.5 338.5,-360.11 368.49,-340.45 389.62,-325.53"/>
<polygon fill="midnightblue" stroke="midnightblue" points="391.72,-328.33 397.82,-319.66 387.65,-322.63 391.72,-328.33"/>
</g>
<!-- Node11&#45;&gt;Node7 -->
<g id="edge11" class="edge">
<title>Node11&#45;&gt;Node7</title>
<path fill="none" stroke="midnightblue" d="M285.68,-226.54C293.94,-229.52 302.31,-232.86 310,-236.5 338.17,-249.82 367.98,-269.03 389.13,-283.63"/>
<polygon fill="midnightblue" stroke="midnightblue" points="387.15,-286.52 397.35,-289.38 391.16,-280.78 387.15,-286.52"/>
</g>
<!-- Node14 -->
<g id="node14" class="node">
<title>Node14</title>
<g id="a_node14"><a xlink:href="../../db/dff/classleanux_1_1persist_1_1Statement.html#a5b31fb14297ad5c1c342cfc0d8f797de" target="_top" xlink:title="A statement handle can be explicitly closed without deleting the Statement object itself.">
<polygon fill="none" stroke="black" points="346,-98.5 346,-128.5 492,-128.5 492,-98.5 346,-98.5"/>
<text text-anchor="start" x="354" y="-116.5" font-family="Helvetica,sans-Serif" font-size="10.00">leanux::persist::Statement</text>
<text text-anchor="middle" x="419" y="-105.5" font-family="Helvetica,sans-Serif" font-size="10.00">::close</text>
</a>
</g>
</g>
<!-- Node13&#45;&gt;Node14 -->
<g id="edge14" class="edge">
<title>Node13&#45;&gt;Node14</title>
<path fill="none" stroke="midnightblue" d="M307.06,-113.5C316.39,-113.5 326,-113.5 335.48,-113.5"/>
<polygon fill="midnightblue" stroke="midnightblue" points="335.7,-117 345.7,-113.5 335.7,-110 335.7,-117"/>
</g>
</g>
</svg>
