<?xml version="1.0" encoding="UTF-8" standalone="no"?>
<!DOCTYPE svg PUBLIC "-//W3C//DTD SVG 1.1//EN"
 "http://www.w3.org/Graphics/SVG/1.1/DTD/svg11.dtd">
<!-- Generated by graphviz version 2.43.0 (0)
 -->
<!-- Title: leanux::tools::lard::ProcSnap::startSnap Pages: 1 -->
<svg width="485pt" height="39pt"
 viewBox="0.00 0.00 485.00 39.00" xmlns="http://www.w3.org/2000/svg" xmlns:xlink="http://www.w3.org/1999/xlink">
<g id="graph0" class="graph" transform="scale(1 1) rotate(0) translate(4 35)">
<title>leanux::tools::lard::ProcSnap::startSnap</title>
<!-- Node1 -->
<g id="node1" class="node">
<title>Node1</title>
<g id="a_node1"><a xlink:title=" ">
<polygon fill="#bfbfbf" stroke="black" points="0,-0.5 0,-30.5 120,-30.5 120,-0.5 0,-0.5"/>
<text text-anchor="start" x="8" y="-18.5" font-family="Helvetica,sans-Serif" font-size="10.00">leanux::tools::lard</text>
<text text-anchor="middle" x="60" y="-7.5" font-family="Helvetica,sans-Serif" font-size="10.00">::ProcSnap::startSnap</text>
</a>
</g>
</g>
<!-- Node2 -->
<g id="node2" class="node">
<title>Node2</title>
<g id="a_node2"><a xlink:href="../../d9/d34/namespaceleanux_1_1process.html#a385cafe09f0dc82ce8a830124665d69d" target="_top" xlink:title="Get a snapshot of all pids (seen as /proc/PID) into a std::map keyed by pid_t.">
<polygon fill="none" stroke="black" points="156,-0.5 156,-30.5 305,-30.5 305,-0.5 156,-0.5"/>
<text text-anchor="start" x="164" y="-18.5" font-family="Helvetica,sans-Serif" font-size="10.00">leanux::process::getAllProc</text>
<text text-anchor="middle" x="230.5" y="-7.5" font-family="Helvetica,sans-Serif" font-size="10.00">PidStat</text>
</a>
</g>
</g>
<!-- Node1&#45;&gt;Node2 -->
<g id="edge1" class="edge">
<title>Node1&#45;&gt;Node2</title>
<path fill="none" stroke="midnightblue" d="M120.41,-15.5C128.65,-15.5 137.24,-15.5 145.82,-15.5"/>
<polygon fill="midnightblue" stroke="midnightblue" points="145.86,-19 155.86,-15.5 145.86,-12 145.86,-19"/>
</g>
<!-- Node3 -->
<g id="node3" class="node">
<title>Node3</title>
<g id="a_node3"><a xlink:href="../../d9/d34/namespaceleanux_1_1process.html#a6533e64a7e3e102f65df053802c83919" target="_top" xlink:title="Get the ProcPidStat for the pid.">
<polygon fill="none" stroke="red" points="341,-0.5 341,-30.5 477,-30.5 477,-0.5 341,-0.5"/>
<text text-anchor="start" x="349" y="-18.5" font-family="Helvetica,sans-Serif" font-size="10.00">leanux::process::getProc</text>
<text text-anchor="middle" x="409" y="-7.5" font-family="Helvetica,sans-Serif" font-size="10.00">PidStat</text>
</a>
</g>
</g>
<!-- Node2&#45;&gt;Node3 -->
<g id="edge2" class="edge">
<title>Node2&#45;&gt;Node3</title>
<path fill="none" stroke="midnightblue" d="M305.07,-15.5C313.48,-15.5 322.07,-15.5 330.52,-15.5"/>
<polygon fill="midnightblue" stroke="midnightblue" points="330.75,-19 340.75,-15.5 330.75,-12 330.75,-19"/>
</g>
</g>
</svg>
