<?xml version="1.0" encoding="UTF-8" standalone="no"?>
<!DOCTYPE svg PUBLIC "-//W3C//DTD SVG 1.1//EN"
 "http://www.w3.org/Graphics/SVG/1.1/DTD/svg11.dtd">
<!-- Generated by graphviz version 2.43.0 (0)
 -->
<!-- Title: leanux::tools::lsys::printHelp Pages: 1 -->
<svg width="472pt" height="61pt"
 viewBox="0.00 0.00 472.00 61.00" xmlns="http://www.w3.org/2000/svg" xmlns:xlink="http://www.w3.org/1999/xlink">
<g id="graph0" class="graph" transform="scale(1 1) rotate(0) translate(4 57)">
<title>leanux::tools::lsys::printHelp</title>
<!-- Node1 -->
<g id="node1" class="node">
<title>Node1</title>
<g id="a_node1"><a xlink:title="Print command help.">
<polygon fill="#bfbfbf" stroke="black" points="359,-22.5 359,-52.5 464,-52.5 464,-22.5 359,-22.5"/>
<text text-anchor="start" x="367" y="-40.5" font-family="Helvetica,sans-Serif" font-size="10.00">leanux::tools::lsys</text>
<text text-anchor="middle" x="411.5" y="-29.5" font-family="Helvetica,sans-Serif" font-size="10.00">::printHelp</text>
</a>
</g>
</g>
<!-- Node2 -->
<g id="node2" class="node">
<title>Node2</title>
<g id="a_node2"><a xlink:href="../../d9/d1f/namespaceleanux_1_1tools_1_1lsys.html#aa2b4de7a80d63592f6207ce5951cf966" target="_top" xlink:title="Entry point.">
<polygon fill="none" stroke="black" points="77,-22.5 77,-52.5 182,-52.5 182,-22.5 77,-22.5"/>
<text text-anchor="start" x="85" y="-40.5" font-family="Helvetica,sans-Serif" font-size="10.00">leanux::tools::lsys</text>
<text text-anchor="middle" x="129.5" y="-29.5" font-family="Helvetica,sans-Serif" font-size="10.00">::main</text>
</a>
</g>
</g>
<!-- Node1&#45;&gt;Node2 -->
<g id="edge1" class="edge">
<title>Node1&#45;&gt;Node2</title>
<path fill="none" stroke="midnightblue" d="M348.66,-39.88C340.04,-40.14 331.3,-40.36 323,-40.5 276.34,-41.3 264.66,-41.3 218,-40.5 206.45,-40.3 194.05,-39.96 182.31,-39.57"/>
<polygon fill="midnightblue" stroke="midnightblue" points="348.8,-43.38 358.69,-39.57 348.58,-36.39 348.8,-43.38"/>
</g>
<!-- Node4 -->
<g id="node4" class="node">
<title>Node4</title>
<g id="a_node4"><a xlink:href="../../d9/d1f/namespaceleanux_1_1tools_1_1lsys.html#a33a75c6955dcd3ac89c9a6f86a0a1337" target="_top" xlink:title="Run based on options.">
<polygon fill="none" stroke="black" points="218,-0.5 218,-30.5 323,-30.5 323,-0.5 218,-0.5"/>
<text text-anchor="start" x="226" y="-18.5" font-family="Helvetica,sans-Serif" font-size="10.00">leanux::tools::lsys</text>
<text text-anchor="middle" x="270.5" y="-7.5" font-family="Helvetica,sans-Serif" font-size="10.00">::runOptions</text>
</a>
</g>
</g>
<!-- Node1&#45;&gt;Node4 -->
<g id="edge3" class="edge">
<title>Node1&#45;&gt;Node4</title>
<path fill="none" stroke="midnightblue" d="M348.84,-27.74C340.31,-26.39 331.62,-25.02 323.3,-23.7"/>
<polygon fill="midnightblue" stroke="midnightblue" points="348.32,-31.2 358.74,-29.31 349.41,-24.29 348.32,-31.2"/>
</g>
<!-- Node3 -->
<g id="node3" class="node">
<title>Node3</title>
<g id="a_node3"><a xlink:href="../../de/d17/lsys_8cpp.html#a0ddf1224851353fc92bfbff6f499fa97" target="_top" xlink:title=" ">
<polygon fill="none" stroke="black" points="0,-28 0,-47 41,-47 41,-28 0,-28"/>
<text text-anchor="middle" x="20.5" y="-35" font-family="Helvetica,sans-Serif" font-size="10.00">main</text>
</a>
</g>
</g>
<!-- Node2&#45;&gt;Node3 -->
<g id="edge2" class="edge">
<title>Node2&#45;&gt;Node3</title>
<path fill="none" stroke="midnightblue" d="M66.77,-37.5C57.52,-37.5 48.61,-37.5 41.18,-37.5"/>
<polygon fill="midnightblue" stroke="midnightblue" points="66.88,-41 76.88,-37.5 66.88,-34 66.88,-41"/>
</g>
<!-- Node4&#45;&gt;Node2 -->
<g id="edge4" class="edge">
<title>Node4&#45;&gt;Node2</title>
<path fill="none" stroke="midnightblue" d="M207.84,-25.26C199.31,-26.61 190.62,-27.98 182.3,-29.3"/>
<polygon fill="midnightblue" stroke="midnightblue" points="208.41,-28.71 217.74,-23.69 207.32,-21.8 208.41,-28.71"/>
</g>
</g>
</svg>
