<?xml version="1.0" encoding="UTF-8" standalone="no"?>
<!DOCTYPE svg PUBLIC "-//W3C//DTD SVG 1.1//EN"
 "http://www.w3.org/Graphics/SVG/1.1/DTD/svg11.dtd">
<!-- Generated by graphviz version 2.43.0 (0)
 -->
<!-- Title: leanux::tools::lsys::main Pages: 1 -->
<svg width="661pt" height="602pt"
 viewBox="0.00 0.00 661.00 601.50" xmlns="http://www.w3.org/2000/svg" xmlns:xlink="http://www.w3.org/1999/xlink">
<g id="graph0" class="graph" transform="scale(1 1) rotate(0) translate(4 597.5)">
<title>leanux::tools::lsys::main</title>
<!-- Node1 -->
<g id="node1" class="node">
<title>Node1</title>
<g id="a_node1"><a xlink:title="Entry point.">
<polygon fill="#bfbfbf" stroke="black" points="0,-366.5 0,-396.5 105,-396.5 105,-366.5 0,-366.5"/>
<text text-anchor="start" x="8" y="-384.5" font-family="Helvetica,sans-Serif" font-size="10.00">leanux::tools::lsys</text>
<text text-anchor="middle" x="52.5" y="-373.5" font-family="Helvetica,sans-Serif" font-size="10.00">::main</text>
</a>
</g>
</g>
<!-- Node2 -->
<g id="node2" class="node">
<title>Node2</title>
<g id="a_node2"><a xlink:href="../../d8/d4a/classleanux_1_1Oops.html#a144d78069f0bb6388bbd1db6385418d2" target="_top" xlink:title="Get the Oops message.">
<polygon fill="none" stroke="black" points="141,-498 141,-517 287,-517 287,-498 141,-498"/>
<text text-anchor="middle" x="214" y="-505" font-family="Helvetica,sans-Serif" font-size="10.00">leanux::Oops::getMessage</text>
</a>
</g>
</g>
<!-- Node1&#45;&gt;Node2 -->
<g id="edge1" class="edge">
<title>Node1&#45;&gt;Node2</title>
<path fill="none" stroke="midnightblue" d="M61.78,-396.84C75.22,-420.27 104.07,-464.74 141,-488.5 144.18,-490.54 147.57,-492.37 151.08,-494"/>
<polygon fill="midnightblue" stroke="midnightblue" points="150.02,-497.34 160.6,-497.87 152.66,-490.86 150.02,-497.34"/>
</g>
<!-- Node3 -->
<g id="node3" class="node">
<title>Node3</title>
<g id="a_node3"><a xlink:href="../../d9/d1f/namespaceleanux_1_1tools_1_1lsys.html#ab0fe8f8e7762c9d51111c1b46e748606" target="_top" xlink:title="Transform command line arguments into options.">
<polygon fill="none" stroke="black" points="161.5,-448.5 161.5,-478.5 266.5,-478.5 266.5,-448.5 161.5,-448.5"/>
<text text-anchor="start" x="169.5" y="-466.5" font-family="Helvetica,sans-Serif" font-size="10.00">leanux::tools::lsys</text>
<text text-anchor="middle" x="214" y="-455.5" font-family="Helvetica,sans-Serif" font-size="10.00">::getOptions</text>
</a>
</g>
</g>
<!-- Node1&#45;&gt;Node3 -->
<g id="edge2" class="edge">
<title>Node1&#45;&gt;Node3</title>
<path fill="none" stroke="midnightblue" d="M73.52,-396.57C90.74,-409.02 116.58,-426.53 141,-438.5 145.37,-440.64 149.98,-442.69 154.66,-444.62"/>
<polygon fill="midnightblue" stroke="midnightblue" points="153.73,-448.01 164.31,-448.41 156.29,-441.5 153.73,-448.01"/>
</g>
<!-- Node5 -->
<g id="node5" class="node">
<title>Node5</title>
<g id="a_node5"><a xlink:href="../../d2/dd1/namespaceleanux.html#a757c5a3a5fb84a0ab93de54fd0c8db30" target="_top" xlink:title="Initialize leanux, run checks to verify leanux is compatible with the runtime environment.">
<polygon fill="none" stroke="black" points="178.5,-410 178.5,-429 249.5,-429 249.5,-410 178.5,-410"/>
<text text-anchor="middle" x="214" y="-417" font-family="Helvetica,sans-Serif" font-size="10.00">leanux::init</text>
</a>
</g>
</g>
<!-- Node1&#45;&gt;Node5 -->
<g id="edge4" class="edge">
<title>Node1&#45;&gt;Node5</title>
<path fill="none" stroke="midnightblue" d="M105.29,-393.84C125.58,-398.67 148.64,-404.17 168.2,-408.83"/>
<polygon fill="midnightblue" stroke="midnightblue" points="167.54,-412.27 178.08,-411.18 169.17,-405.46 167.54,-412.27"/>
</g>
<!-- Node21 -->
<g id="node12" class="node">
<title>Node21</title>
<g id="a_node12"><a xlink:href="../../d9/d1f/namespaceleanux_1_1tools_1_1lsys.html#a82e1aa33b1314510353184fde2139bd3" target="_top" xlink:title="Print command help.">
<polygon fill="none" stroke="black" points="342.5,-284.5 342.5,-314.5 447.5,-314.5 447.5,-284.5 342.5,-284.5"/>
<text text-anchor="start" x="350.5" y="-302.5" font-family="Helvetica,sans-Serif" font-size="10.00">leanux::tools::lsys</text>
<text text-anchor="middle" x="395" y="-291.5" font-family="Helvetica,sans-Serif" font-size="10.00">::printHelp</text>
</a>
</g>
</g>
<!-- Node1&#45;&gt;Node21 -->
<g id="edge12" class="edge">
<title>Node1&#45;&gt;Node21</title>
<path fill="none" stroke="midnightblue" d="M105.42,-387.55C154.64,-390.99 229.41,-390.09 287,-362.5 307.98,-352.45 303.48,-337.16 323,-324.5 326.15,-322.46 329.48,-320.56 332.91,-318.8"/>
<polygon fill="midnightblue" stroke="midnightblue" points="334.63,-321.87 342.2,-314.46 331.66,-315.52 334.63,-321.87"/>
</g>
<!-- Node22 -->
<g id="node13" class="node">
<title>Node22</title>
<g id="a_node13"><a xlink:href="../../d9/d1f/namespaceleanux_1_1tools_1_1lsys.html#a63a3075a34537c3d70f7f707fec3f2bd" target="_top" xlink:title=" ">
<polygon fill="none" stroke="black" points="161.5,-322.5 161.5,-352.5 266.5,-352.5 266.5,-322.5 161.5,-322.5"/>
<text text-anchor="start" x="169.5" y="-340.5" font-family="Helvetica,sans-Serif" font-size="10.00">leanux::tools::lsys</text>
<text text-anchor="middle" x="214" y="-329.5" font-family="Helvetica,sans-Serif" font-size="10.00">::registerField</text>
</a>
</g>
</g>
<!-- Node1&#45;&gt;Node22 -->
<g id="edge13" class="edge">
<title>Node1&#45;&gt;Node22</title>
<path fill="none" stroke="midnightblue" d="M105.29,-367.21C120.06,-363.14 136.3,-358.66 151.59,-354.44"/>
<polygon fill="midnightblue" stroke="midnightblue" points="152.77,-357.75 161.47,-351.71 150.9,-351 152.77,-357.75"/>
</g>
<!-- Node23 -->
<g id="node14" class="node">
<title>Node23</title>
<g id="a_node14"><a xlink:href="../../d9/d1f/namespaceleanux_1_1tools_1_1lsys.html#a452f4a6f2d7eda5e24e8409f9167b03b" target="_top" xlink:title="register devices types and maintain mappings between type and string representation.">
<polygon fill="none" stroke="black" points="161.5,-273.5 161.5,-303.5 266.5,-303.5 266.5,-273.5 161.5,-273.5"/>
<text text-anchor="start" x="169.5" y="-291.5" font-family="Helvetica,sans-Serif" font-size="10.00">leanux::tools::lsys</text>
<text text-anchor="middle" x="214" y="-280.5" font-family="Helvetica,sans-Serif" font-size="10.00">::registerType</text>
</a>
</g>
</g>
<!-- Node1&#45;&gt;Node23 -->
<g id="edge14" class="edge">
<title>Node1&#45;&gt;Node23</title>
<path fill="none" stroke="midnightblue" d="M69.46,-366.46C86.19,-351.37 113.78,-328.28 141,-313.5 144.97,-311.35 149.15,-309.32 153.43,-307.43"/>
<polygon fill="midnightblue" stroke="midnightblue" points="155,-310.57 162.9,-303.51 152.32,-304.11 155,-310.57"/>
</g>
<!-- Node24 -->
<g id="node15" class="node">
<title>Node24</title>
<g id="a_node15"><a xlink:href="../../d9/d1f/namespaceleanux_1_1tools_1_1lsys.html#a33a75c6955dcd3ac89c9a6f86a0a1337" target="_top" xlink:title="Run based on options.">
<polygon fill="none" stroke="black" points="161.5,-162.5 161.5,-192.5 266.5,-192.5 266.5,-162.5 161.5,-162.5"/>
<text text-anchor="start" x="169.5" y="-180.5" font-family="Helvetica,sans-Serif" font-size="10.00">leanux::tools::lsys</text>
<text text-anchor="middle" x="214" y="-169.5" font-family="Helvetica,sans-Serif" font-size="10.00">::runOptions</text>
</a>
</g>
</g>
<!-- Node1&#45;&gt;Node24 -->
<g id="edge15" class="edge">
<title>Node1&#45;&gt;Node24</title>
<path fill="none" stroke="midnightblue" d="M64.59,-366.17C80.98,-343.65 112.77,-300.38 141,-264.5 158.3,-242.52 178.67,-218.02 193.33,-200.64"/>
<polygon fill="midnightblue" stroke="midnightblue" points="196.24,-202.61 200.02,-192.71 190.89,-198.09 196.24,-202.61"/>
</g>
<!-- Node4 -->
<g id="node4" class="node">
<title>Node4</title>
<g id="a_node4"><a xlink:href="../../d8/db1/namespaceleanux_1_1util.html#a3b691a56e21c20628e956b8ec995d53f" target="_top" xlink:title=" ">
<polygon fill="none" stroke="black" points="335.5,-574 335.5,-593 454.5,-593 454.5,-574 335.5,-574"/>
<text text-anchor="middle" x="395" y="-581" font-family="Helvetica,sans-Serif" font-size="10.00">leanux::util::tokenize</text>
</a>
</g>
</g>
<!-- Node3&#45;&gt;Node4 -->
<g id="edge3" class="edge">
<title>Node3&#45;&gt;Node4</title>
<path fill="none" stroke="midnightblue" d="M266.84,-476.01C274.13,-479.27 281.12,-483.36 287,-488.5 313.65,-511.77 296.26,-536.34 323,-559.5 327.78,-563.64 333.3,-567.07 339.1,-569.91"/>
<polygon fill="midnightblue" stroke="midnightblue" points="337.83,-573.18 348.4,-573.91 340.6,-566.75 337.83,-573.18"/>
</g>
<!-- Node6 -->
<g id="node6" class="node">
<title>Node6</title>
<g id="a_node6"><a xlink:href="../../d8/db1/namespaceleanux_1_1util.html#a6ac7287d49f3dd9b2c6c9673257e145b" target="_top" xlink:title="Test if the path is an existing directory.">
<polygon fill="none" stroke="black" points="503,-334 503,-353 653,-353 653,-334 503,-334"/>
<text text-anchor="middle" x="578" y="-341" font-family="Helvetica,sans-Serif" font-size="10.00">leanux::util::directoryExists</text>
</a>
</g>
</g>
<!-- Node5&#45;&gt;Node6 -->
<g id="edge5" class="edge">
<title>Node5&#45;&gt;Node6</title>
<path fill="none" stroke="midnightblue" d="M249.59,-422.66C262.59,-425.39 276.7,-430.38 287,-439.5 318.33,-467.24 288.21,-503.25 323,-526.5 376.21,-562.07 411.29,-558.01 467,-526.5 530.41,-490.63 561.29,-401.99 572.21,-362.74"/>
<polygon fill="midnightblue" stroke="midnightblue" points="575.6,-363.62 574.78,-353.06 568.83,-361.83 575.6,-363.62"/>
</g>
<!-- Node7 -->
<g id="node7" class="node">
<title>Node7</title>
<g id="a_node7"><a xlink:href="../../dd/d42/namespaceleanux_1_1system.html#a019837e625c4eedcc1e09de84a56d5b8" target="_top" xlink:title="Get the kernel version.">
<polygon fill="none" stroke="black" points="323,-486.5 323,-516.5 467,-516.5 467,-486.5 323,-486.5"/>
<text text-anchor="start" x="331" y="-504.5" font-family="Helvetica,sans-Serif" font-size="10.00">leanux::system::getKernel</text>
<text text-anchor="middle" x="395" y="-493.5" font-family="Helvetica,sans-Serif" font-size="10.00">Version</text>
</a>
</g>
</g>
<!-- Node5&#45;&gt;Node7 -->
<g id="edge6" class="edge">
<title>Node5&#45;&gt;Node7</title>
<path fill="none" stroke="midnightblue" d="M249.83,-425.27C262.14,-428.3 275.73,-432.82 287,-439.5 306.74,-451.2 303.67,-464.14 323,-476.5 326.16,-478.52 329.5,-480.4 332.95,-482.15"/>
<polygon fill="midnightblue" stroke="midnightblue" points="331.71,-485.43 342.25,-486.47 334.65,-479.08 331.71,-485.43"/>
</g>
<!-- Node8 -->
<g id="node8" class="node">
<title>Node8</title>
<g id="a_node8"><a xlink:href="../../d5/db8/namespaceleanux_1_1net.html#a81d90730109735bfefa2835d31152cd1" target="_top" xlink:title="initialize net library">
<polygon fill="none" stroke="red" points="348.5,-448 348.5,-467 441.5,-467 441.5,-448 348.5,-448"/>
<text text-anchor="middle" x="395" y="-455" font-family="Helvetica,sans-Serif" font-size="10.00">leanux::net::init</text>
</a>
</g>
</g>
<!-- Node5&#45;&gt;Node8 -->
<g id="edge7" class="edge">
<title>Node5&#45;&gt;Node8</title>
<path fill="none" stroke="midnightblue" d="M249.51,-426.83C274.87,-432.21 309.84,-439.63 339.02,-445.83"/>
<polygon fill="midnightblue" stroke="midnightblue" points="338.57,-449.31 349.08,-447.96 340.02,-442.46 338.57,-449.31"/>
</g>
<!-- Node10 -->
<g id="node9" class="node">
<title>Node10</title>
<g id="a_node9"><a xlink:href="../../de/d5d/namespaceleanux_1_1pci.html#ac2e2e3d7c732711d93a166699f2dcff3" target="_top" xlink:title="Initialize pci namespace.">
<polygon fill="none" stroke="red" points="349,-410 349,-429 441,-429 441,-410 349,-410"/>
<text text-anchor="middle" x="395" y="-417" font-family="Helvetica,sans-Serif" font-size="10.00">leanux::pci::init</text>
</a>
</g>
</g>
<!-- Node5&#45;&gt;Node10 -->
<g id="edge8" class="edge">
<title>Node5&#45;&gt;Node10</title>
<path fill="none" stroke="midnightblue" d="M249.51,-419.5C274.78,-419.5 309.58,-419.5 338.71,-419.5"/>
<polygon fill="midnightblue" stroke="midnightblue" points="338.74,-423 348.74,-419.5 338.74,-416 338.74,-423"/>
</g>
<!-- Node11 -->
<g id="node10" class="node">
<title>Node11</title>
<g id="a_node10"><a xlink:href="../../d5/d9c/namespaceleanux_1_1usb.html#abd98dfc77cb6924be71589e8e2e4dc50" target="_top" xlink:title="initialize usb namespace.">
<polygon fill="none" stroke="red" points="347.5,-372 347.5,-391 442.5,-391 442.5,-372 347.5,-372"/>
<text text-anchor="middle" x="395" y="-379" font-family="Helvetica,sans-Serif" font-size="10.00">leanux::usb::init</text>
</a>
</g>
</g>
<!-- Node5&#45;&gt;Node11 -->
<g id="edge9" class="edge">
<title>Node5&#45;&gt;Node11</title>
<path fill="none" stroke="midnightblue" d="M249.51,-412.17C274.87,-406.79 309.84,-399.37 339.02,-393.17"/>
<polygon fill="midnightblue" stroke="midnightblue" points="340.02,-396.54 349.08,-391.04 338.57,-389.69 340.02,-396.54"/>
</g>
<!-- Node12 -->
<g id="node11" class="node">
<title>Node12</title>
<g id="a_node11"><a xlink:href="../../d5/d01/namespaceleanux_1_1block.html#a927d958ef9b9b66a13c32754e91d0c7d" target="_top" xlink:title="Initialize the block API.">
<polygon fill="none" stroke="red" points="343,-334 343,-353 447,-353 447,-334 343,-334"/>
<text text-anchor="middle" x="395" y="-341" font-family="Helvetica,sans-Serif" font-size="10.00">leanux::block::init</text>
</a>
</g>
</g>
<!-- Node5&#45;&gt;Node12 -->
<g id="edge10" class="edge">
<title>Node5&#45;&gt;Node12</title>
<path fill="none" stroke="midnightblue" d="M249.61,-411.18C261.9,-407.41 275.53,-402.25 287,-395.5 305.71,-384.49 303.97,-372.94 323,-362.5 327.18,-360.2 331.66,-358.17 336.26,-356.38"/>
<polygon fill="midnightblue" stroke="midnightblue" points="337.53,-359.64 345.8,-353.02 335.21,-353.04 337.53,-359.64"/>
</g>
<!-- Node12&#45;&gt;Node6 -->
<g id="edge11" class="edge">
<title>Node12&#45;&gt;Node6</title>
<path fill="none" stroke="midnightblue" d="M447.38,-343.5C461.53,-343.5 477.25,-343.5 492.74,-343.5"/>
<polygon fill="midnightblue" stroke="midnightblue" points="492.85,-347 502.85,-343.5 492.85,-340 492.85,-347"/>
</g>
<!-- Node24&#45;&gt;Node21 -->
<g id="edge20" class="edge">
<title>Node24&#45;&gt;Node21</title>
<path fill="none" stroke="midnightblue" d="M227.83,-192.53C246.7,-213.77 283.93,-252.53 323,-275.5 326.22,-277.39 329.61,-279.16 333.09,-280.81"/>
<polygon fill="midnightblue" stroke="midnightblue" points="331.89,-284.11 342.46,-284.9 334.7,-277.69 331.89,-284.11"/>
</g>
<!-- Node25 -->
<g id="node16" class="node">
<title>Node25</title>
<g id="a_node16"><a xlink:href="../../d3/d83/namespaceleanux_1_1sysdevice.html#aa4d04a4d3dc09edd32e7aa6426bca203" target="_top" xlink:title="Enumerate all devices.">
<polygon fill="none" stroke="red" points="340,-235.5 340,-265.5 450,-265.5 450,-235.5 340,-235.5"/>
<text text-anchor="start" x="348" y="-253.5" font-family="Helvetica,sans-Serif" font-size="10.00">leanux::sysdevice::</text>
<text text-anchor="middle" x="395" y="-242.5" font-family="Helvetica,sans-Serif" font-size="10.00">enumDevices</text>
</a>
</g>
</g>
<!-- Node24&#45;&gt;Node25 -->
<g id="edge16" class="edge">
<title>Node24&#45;&gt;Node25</title>
<path fill="none" stroke="midnightblue" d="M246.31,-192.71C267.68,-202.84 296.76,-216.14 323,-226.5 327.72,-228.36 332.65,-230.22 337.62,-232.02"/>
<polygon fill="midnightblue" stroke="midnightblue" points="336.57,-235.36 347.16,-235.41 338.91,-228.76 336.57,-235.36"/>
</g>
<!-- Node33 -->
<g id="node17" class="node">
<title>Node33</title>
<g id="a_node17"><a xlink:href="../../d9/d1f/namespaceleanux_1_1tools_1_1lsys.html#a5f83d02e048afbcaff79cb943ca94d29" target="_top" xlink:title="attempt to make sense of user provided device string.">
<polygon fill="none" stroke="red" points="342.5,-186.5 342.5,-216.5 447.5,-216.5 447.5,-186.5 342.5,-186.5"/>
<text text-anchor="start" x="350.5" y="-204.5" font-family="Helvetica,sans-Serif" font-size="10.00">leanux::tools::lsys</text>
<text text-anchor="middle" x="395" y="-193.5" font-family="Helvetica,sans-Serif" font-size="10.00">::fullSysDevice</text>
</a>
</g>
</g>
<!-- Node24&#45;&gt;Node33 -->
<g id="edge17" class="edge">
<title>Node24&#45;&gt;Node33</title>
<path fill="none" stroke="midnightblue" d="M266.77,-184.44C287.28,-187.19 311.01,-190.37 332.39,-193.24"/>
<polygon fill="midnightblue" stroke="midnightblue" points="331.97,-196.71 342.34,-194.57 332.9,-189.78 331.97,-196.71"/>
</g>
<!-- Node34 -->
<g id="node18" class="node">
<title>Node34</title>
<g id="a_node18"><a xlink:href="../../d9/d1f/namespaceleanux_1_1tools_1_1lsys.html#ad858cdc5736e1be415f25fdaec024b58" target="_top" xlink:title="list devices, filtered if opt_t is set.">
<polygon fill="none" stroke="red" points="342.5,-137.5 342.5,-167.5 447.5,-167.5 447.5,-137.5 342.5,-137.5"/>
<text text-anchor="start" x="350.5" y="-155.5" font-family="Helvetica,sans-Serif" font-size="10.00">leanux::tools::lsys</text>
<text text-anchor="middle" x="395" y="-144.5" font-family="Helvetica,sans-Serif" font-size="10.00">::listDevices</text>
</a>
</g>
</g>
<!-- Node24&#45;&gt;Node34 -->
<g id="edge19" class="edge">
<title>Node24&#45;&gt;Node34</title>
<path fill="none" stroke="midnightblue" d="M266.77,-170.27C287.28,-167.41 311.01,-164.09 332.39,-161.11"/>
<polygon fill="midnightblue" stroke="midnightblue" points="332.92,-164.56 342.34,-159.71 331.95,-157.63 332.92,-164.56"/>
</g>
<!-- Node129 -->
<g id="node19" class="node">
<title>Node129</title>
<g id="a_node19"><a xlink:href="../../d9/d1f/namespaceleanux_1_1tools_1_1lsys.html#a2834c95a4f20bec06a60d81e93abf343" target="_top" xlink:title=" ">
<polygon fill="none" stroke="black" points="342.5,-88.5 342.5,-118.5 447.5,-118.5 447.5,-88.5 342.5,-88.5"/>
<text text-anchor="start" x="350.5" y="-106.5" font-family="Helvetica,sans-Serif" font-size="10.00">leanux::tools::lsys</text>
<text text-anchor="middle" x="395" y="-95.5" font-family="Helvetica,sans-Serif" font-size="10.00">::printVersion</text>
</a>
</g>
</g>
<!-- Node24&#45;&gt;Node129 -->
<g id="edge21" class="edge">
<title>Node24&#45;&gt;Node129</title>
<path fill="none" stroke="midnightblue" d="M245.34,-162.39C266.78,-151.97 296.33,-138.15 323,-127.5 327.71,-125.62 332.64,-123.75 337.6,-121.94"/>
<polygon fill="midnightblue" stroke="midnightblue" points="338.9,-125.2 347.14,-118.54 336.55,-118.6 338.9,-125.2"/>
</g>
<!-- Node130 -->
<g id="node20" class="node">
<title>Node130</title>
<g id="a_node20"><a xlink:href="../../d8/db1/namespaceleanux_1_1util.html#a99a338bd02550dc25a08dfedd844e303" target="_top" xlink:title="STL natural less&#45;than std::string compare, treating hex numbers as numbers.">
<polygon fill="none" stroke="red" points="323.5,-50 323.5,-69 466.5,-69 466.5,-50 323.5,-50"/>
<text text-anchor="middle" x="395" y="-57" font-family="Helvetica,sans-Serif" font-size="10.00">leanux::util::stlhexnatstrlt</text>
</a>
</g>
</g>
<!-- Node24&#45;&gt;Node130 -->
<g id="edge22" class="edge">
<title>Node24&#45;&gt;Node130</title>
<path fill="none" stroke="midnightblue" d="M227.29,-162.33C245.77,-140.52 282.86,-100.52 323,-78.5 327.18,-76.2 331.66,-74.17 336.26,-72.38"/>
<polygon fill="midnightblue" stroke="midnightblue" points="337.53,-75.64 345.8,-69.02 335.21,-69.04 337.53,-75.64"/>
</g>
<!-- Node134 -->
<g id="node21" class="node">
<title>Node134</title>
<g id="a_node21"><a xlink:href="../../d9/d1f/namespaceleanux_1_1tools_1_1lsys.html#a33d815e2817f56776217177ef1016d8c" target="_top" xlink:title=" ">
<polygon fill="none" stroke="red" points="342.5,-0.5 342.5,-30.5 447.5,-30.5 447.5,-0.5 342.5,-0.5"/>
<text text-anchor="start" x="350.5" y="-18.5" font-family="Helvetica,sans-Serif" font-size="10.00">leanux::tools::lsys</text>
<text text-anchor="middle" x="395" y="-7.5" font-family="Helvetica,sans-Serif" font-size="10.00">::sysfsTree</text>
</a>
</g>
</g>
<!-- Node24&#45;&gt;Node134 -->
<g id="edge23" class="edge">
<title>Node24&#45;&gt;Node134</title>
<path fill="none" stroke="midnightblue" d="M223.01,-162.44C238.6,-134.48 275.7,-74.33 323,-40.5 326.2,-38.21 329.62,-36.12 333.18,-34.2"/>
<polygon fill="midnightblue" stroke="midnightblue" points="334.77,-37.32 342.24,-29.8 331.71,-31.03 334.77,-37.32"/>
</g>
<!-- Node33&#45;&gt;Node6 -->
<g id="edge18" class="edge">
<title>Node33&#45;&gt;Node6</title>
<path fill="none" stroke="midnightblue" d="M447.81,-216.44C454.51,-219.31 461.09,-222.65 467,-226.5 508.82,-253.74 545.94,-300.1 564.49,-325.51"/>
<polygon fill="midnightblue" stroke="midnightblue" points="561.79,-327.76 570.45,-333.85 567.48,-323.68 561.79,-327.76"/>
</g>
</g>
</svg>
