<?xml version="1.0" encoding="UTF-8" standalone="no"?>
<!DOCTYPE svg PUBLIC "-//W3C//DTD SVG 1.1//EN"
 "http://www.w3.org/Graphics/SVG/1.1/DTD/svg11.dtd">
<!-- Generated by graphviz version 2.43.0 (0)
 -->
<!-- Title: leanux::tools::lsys::sysfsTree Pages: 1 -->
<svg width="610pt" height="198pt"
 viewBox="0.00 0.00 610.00 198.00" xmlns="http://www.w3.org/2000/svg" xmlns:xlink="http://www.w3.org/1999/xlink">
<g id="graph0" class="graph" transform="scale(1 1) rotate(0) translate(4 194)">
<title>leanux::tools::lsys::sysfsTree</title>
<!-- Node1 -->
<g id="node1" class="node">
<title>Node1</title>
<g id="a_node1"><a xlink:title=" ">
<polygon fill="#bfbfbf" stroke="black" points="0,-88.5 0,-118.5 105,-118.5 105,-88.5 0,-88.5"/>
<text text-anchor="start" x="8" y="-106.5" font-family="Helvetica,sans-Serif" font-size="10.00">leanux::tools::lsys</text>
<text text-anchor="middle" x="52.5" y="-95.5" font-family="Helvetica,sans-Serif" font-size="10.00">::sysfsTree</text>
</a>
</g>
</g>
<!-- Node2 -->
<g id="node2" class="node">
<title>Node2</title>
<g id="a_node2"><a xlink:href="../../d3/d83/namespaceleanux_1_1sysdevice.html#a9809d47da8329135a70d959d201f012a" target="_top" xlink:title="Destroy list of SysDevice* as returned by treeDetect.">
<polygon fill="none" stroke="black" points="157.5,-159.5 157.5,-189.5 267.5,-189.5 267.5,-159.5 157.5,-159.5"/>
<text text-anchor="start" x="165.5" y="-177.5" font-family="Helvetica,sans-Serif" font-size="10.00">leanux::sysdevice::</text>
<text text-anchor="middle" x="212.5" y="-166.5" font-family="Helvetica,sans-Serif" font-size="10.00">destroy</text>
</a>
</g>
</g>
<!-- Node1&#45;&gt;Node2 -->
<g id="edge1" class="edge">
<title>Node1&#45;&gt;Node2</title>
<path fill="none" stroke="midnightblue" d="M78.98,-118.63C96.15,-128.46 119.5,-141.14 141,-150.5 145.18,-152.32 149.55,-154.09 153.97,-155.8"/>
<polygon fill="midnightblue" stroke="midnightblue" points="153.1,-159.21 163.69,-159.42 155.54,-152.65 153.1,-159.21"/>
</g>
<!-- Node3 -->
<g id="node3" class="node">
<title>Node3</title>
<g id="a_node3"><a xlink:href="../../d1/d02/classleanux_1_1sysdevice_1_1SysDevice.html#a899968c4a70ecad67694f6850cf730fd" target="_top" xlink:title="Get a string representation for the SysDeviceType.">
<polygon fill="none" stroke="black" points="150,-110.5 150,-140.5 275,-140.5 275,-110.5 150,-110.5"/>
<text text-anchor="start" x="158" y="-128.5" font-family="Helvetica,sans-Serif" font-size="10.00">leanux::sysdevice::</text>
<text text-anchor="middle" x="212.5" y="-117.5" font-family="Helvetica,sans-Serif" font-size="10.00">SysDevice::getTypeStr</text>
</a>
</g>
</g>
<!-- Node1&#45;&gt;Node3 -->
<g id="edge2" class="edge">
<title>Node1&#45;&gt;Node3</title>
<path fill="none" stroke="midnightblue" d="M105.24,-110.7C116.23,-112.24 128.03,-113.88 139.63,-115.49"/>
<polygon fill="midnightblue" stroke="midnightblue" points="139.35,-118.99 149.74,-116.9 140.32,-112.05 139.35,-118.99"/>
</g>
<!-- Node4 -->
<g id="node4" class="node">
<title>Node4</title>
<g id="a_node4"><a xlink:href="../../d8/db1/namespaceleanux_1_1util.html#a803c31fd9467bc62367bc248846c3242" target="_top" xlink:title="Shorten a string by replacing characters from the middle with three filler charachters.">
<polygon fill="none" stroke="black" points="141,-72 141,-91 284,-91 284,-72 141,-72"/>
<text text-anchor="middle" x="212.5" y="-79" font-family="Helvetica,sans-Serif" font-size="10.00">leanux::util::shortenString</text>
</a>
</g>
</g>
<!-- Node1&#45;&gt;Node4 -->
<g id="edge3" class="edge">
<title>Node1&#45;&gt;Node4</title>
<path fill="none" stroke="midnightblue" d="M105.24,-96.3C114.25,-95.04 123.81,-93.71 133.35,-92.38"/>
<polygon fill="midnightblue" stroke="midnightblue" points="133.84,-95.85 143.26,-91 132.88,-88.91 133.84,-95.85"/>
</g>
<!-- Node5 -->
<g id="node5" class="node">
<title>Node5</title>
<g id="a_node5"><a xlink:href="../../d3/d83/namespaceleanux_1_1sysdevice.html#aa57ce9a4a0b2dd6fcdb6102854cc8292" target="_top" xlink:title="populates devices with the devices detected in path.">
<polygon fill="none" stroke="black" points="157.5,-22.5 157.5,-52.5 267.5,-52.5 267.5,-22.5 157.5,-22.5"/>
<text text-anchor="start" x="165.5" y="-40.5" font-family="Helvetica,sans-Serif" font-size="10.00">leanux::sysdevice::</text>
<text text-anchor="middle" x="212.5" y="-29.5" font-family="Helvetica,sans-Serif" font-size="10.00">treeDetect</text>
</a>
</g>
</g>
<!-- Node1&#45;&gt;Node5 -->
<g id="edge4" class="edge">
<title>Node1&#45;&gt;Node5</title>
<path fill="none" stroke="midnightblue" d="M83.95,-88.34C100.63,-80.27 121.76,-70.4 141,-62.5 146.31,-60.32 151.89,-58.15 157.48,-56.05"/>
<polygon fill="midnightblue" stroke="midnightblue" points="158.7,-59.33 166.87,-52.58 156.28,-52.76 158.7,-59.33"/>
</g>
<!-- Node6 -->
<g id="node6" class="node">
<title>Node6</title>
<g id="a_node6"><a xlink:href="../../d1/d02/classleanux_1_1sysdevice_1_1SysDevice.html#a773cb91e983a465af90059fcb1ff5371" target="_top" xlink:title="Get the SysDeviceType.">
<polygon fill="none" stroke="black" points="320,-71.5 320,-101.5 432,-101.5 432,-71.5 320,-71.5"/>
<text text-anchor="start" x="328" y="-89.5" font-family="Helvetica,sans-Serif" font-size="10.00">leanux::sysdevice::</text>
<text text-anchor="middle" x="376" y="-78.5" font-family="Helvetica,sans-Serif" font-size="10.00">SysDevice::getType</text>
</a>
</g>
</g>
<!-- Node5&#45;&gt;Node6 -->
<g id="edge5" class="edge">
<title>Node5&#45;&gt;Node6</title>
<path fill="none" stroke="midnightblue" d="M263.27,-52.6C279.78,-57.61 298.31,-63.23 315.47,-68.44"/>
<polygon fill="midnightblue" stroke="midnightblue" points="314.81,-71.89 325.39,-71.45 316.84,-65.2 314.81,-71.89"/>
</g>
<!-- Node7 -->
<g id="node7" class="node">
<title>Node7</title>
<g id="a_node7"><a xlink:href="../../d3/d83/namespaceleanux_1_1sysdevice.html#aa76385cfb36c36d3f55f25dfacc1346b" target="_top" xlink:title="Return the leaf SysDevice detected in path.">
<polygon fill="none" stroke="red" points="321,-22.5 321,-52.5 431,-52.5 431,-22.5 321,-22.5"/>
<text text-anchor="start" x="329" y="-40.5" font-family="Helvetica,sans-Serif" font-size="10.00">leanux::sysdevice::</text>
<text text-anchor="middle" x="376" y="-29.5" font-family="Helvetica,sans-Serif" font-size="10.00">leafDetect</text>
</a>
</g>
</g>
<!-- Node5&#45;&gt;Node7 -->
<g id="edge6" class="edge">
<title>Node5&#45;&gt;Node7</title>
<path fill="none" stroke="midnightblue" d="M267.73,-37.5C281.52,-37.5 296.47,-37.5 310.7,-37.5"/>
<polygon fill="midnightblue" stroke="midnightblue" points="310.92,-41 320.92,-37.5 310.92,-34 310.92,-41"/>
</g>
<!-- Node55 -->
<g id="node8" class="node">
<title>Node55</title>
<g id="a_node8"><a xlink:href="../../d1/d02/classleanux_1_1sysdevice_1_1SysDevice.html#aea05b28dc39c8d625bed737ef1777eb1" target="_top" xlink:title="Test SysDevicePath validity; path must exist (be readable) and located under /sys/devices.">
<polygon fill="none" stroke="red" points="468,-0.5 468,-30.5 602,-30.5 602,-0.5 468,-0.5"/>
<text text-anchor="start" x="476" y="-18.5" font-family="Helvetica,sans-Serif" font-size="10.00">leanux::sysdevice::</text>
<text text-anchor="middle" x="535" y="-7.5" font-family="Helvetica,sans-Serif" font-size="10.00">SysDevice::validatePath</text>
</a>
</g>
</g>
<!-- Node5&#45;&gt;Node55 -->
<g id="edge8" class="edge">
<title>Node5&#45;&gt;Node55</title>
<path fill="none" stroke="midnightblue" d="M267.56,-22.88C284.24,-19.03 302.76,-15.42 320,-13.5 365.45,-8.44 416.65,-8.71 457.58,-10.35"/>
<polygon fill="midnightblue" stroke="midnightblue" points="457.61,-13.86 467.76,-10.8 457.92,-6.86 457.61,-13.86"/>
</g>
<!-- Node7&#45;&gt;Node55 -->
<g id="edge7" class="edge">
<title>Node7&#45;&gt;Node55</title>
<path fill="none" stroke="midnightblue" d="M431.03,-29.93C439.67,-28.72 448.74,-27.45 457.78,-26.18"/>
<polygon fill="midnightblue" stroke="midnightblue" points="458.52,-29.61 467.93,-24.76 457.54,-22.68 458.52,-29.61"/>
</g>
</g>
</svg>
