<?xml version="1.0" encoding="UTF-8" standalone="no"?>
<!DOCTYPE svg PUBLIC "-//W3C//DTD SVG 1.1//EN"
 "http://www.w3.org/Graphics/SVG/1.1/DTD/svg11.dtd">
<!-- Generated by graphviz version 2.43.0 (0)
 -->
<!-- Title: leanux::tools::lsys::runOptions Pages: 1 -->
<svg width="659pt" height="974pt"
 viewBox="0.00 0.00 659.00 973.50" xmlns="http://www.w3.org/2000/svg" xmlns:xlink="http://www.w3.org/1999/xlink">
<g id="graph0" class="graph" transform="scale(1 1) rotate(0) translate(4 969.5)">
<title>leanux::tools::lsys::runOptions</title>
<!-- Node1 -->
<g id="node1" class="node">
<title>Node1</title>
<g id="a_node1"><a xlink:title="Run based on options.">
<polygon fill="#bfbfbf" stroke="black" points="0,-166 0,-196 105,-196 105,-166 0,-166"/>
<text text-anchor="start" x="8" y="-184" font-family="Helvetica,sans-Serif" font-size="10.00">leanux::tools::lsys</text>
<text text-anchor="middle" x="52.5" y="-173" font-family="Helvetica,sans-Serif" font-size="10.00">::runOptions</text>
</a>
</g>
</g>
<!-- Node2 -->
<g id="node2" class="node">
<title>Node2</title>
<g id="a_node2"><a xlink:href="../../d3/d83/namespaceleanux_1_1sysdevice.html#aa4d04a4d3dc09edd32e7aa6426bca203" target="_top" xlink:title="Enumerate all devices.">
<polygon fill="none" stroke="black" points="157.5,-763 157.5,-793 267.5,-793 267.5,-763 157.5,-763"/>
<text text-anchor="start" x="165.5" y="-781" font-family="Helvetica,sans-Serif" font-size="10.00">leanux::sysdevice::</text>
<text text-anchor="middle" x="212.5" y="-770" font-family="Helvetica,sans-Serif" font-size="10.00">enumDevices</text>
</a>
</g>
</g>
<!-- Node1&#45;&gt;Node2 -->
<g id="edge1" class="edge">
<title>Node1&#45;&gt;Node2</title>
<path fill="none" stroke="midnightblue" d="M56.09,-196.02C65.37,-249.08 98.72,-432.4 141,-580 159.19,-643.49 186.89,-716.17 201.57,-753.31"/>
<polygon fill="midnightblue" stroke="midnightblue" points="198.4,-754.81 205.35,-762.81 204.91,-752.22 198.4,-754.81"/>
</g>
<!-- Node11 -->
<g id="node11" class="node">
<title>Node11</title>
<g id="a_node11"><a xlink:href="../../d9/d1f/namespaceleanux_1_1tools_1_1lsys.html#a5f83d02e048afbcaff79cb943ca94d29" target="_top" xlink:title="attempt to make sense of user provided device string.">
<polygon fill="none" stroke="black" points="160,-540 160,-570 265,-570 265,-540 160,-540"/>
<text text-anchor="start" x="168" y="-558" font-family="Helvetica,sans-Serif" font-size="10.00">leanux::tools::lsys</text>
<text text-anchor="middle" x="212.5" y="-547" font-family="Helvetica,sans-Serif" font-size="10.00">::fullSysDevice</text>
</a>
</g>
</g>
<!-- Node1&#45;&gt;Node11 -->
<g id="edge16" class="edge">
<title>Node1&#45;&gt;Node11</title>
<path fill="none" stroke="midnightblue" d="M59.89,-196.12C84.16,-253.57 170.76,-458.56 200.99,-530.13"/>
<polygon fill="midnightblue" stroke="midnightblue" points="197.92,-531.84 205.03,-539.69 204.36,-529.11 197.92,-531.84"/>
</g>
<!-- Node14 -->
<g id="node14" class="node">
<title>Node14</title>
<g id="a_node14"><a xlink:href="../../d9/d1f/namespaceleanux_1_1tools_1_1lsys.html#ad858cdc5736e1be415f25fdaec024b58" target="_top" xlink:title="list devices, filtered if opt_t is set.">
<polygon fill="none" stroke="black" points="160,-313 160,-343 265,-343 265,-313 160,-313"/>
<text text-anchor="start" x="168" y="-331" font-family="Helvetica,sans-Serif" font-size="10.00">leanux::tools::lsys</text>
<text text-anchor="middle" x="212.5" y="-320" font-family="Helvetica,sans-Serif" font-size="10.00">::listDevices</text>
</a>
</g>
</g>
<!-- Node1&#45;&gt;Node14 -->
<g id="edge20" class="edge">
<title>Node1&#45;&gt;Node14</title>
<path fill="none" stroke="midnightblue" d="M69.81,-196.18C97.72,-222.15 154.77,-275.22 187.32,-305.51"/>
<polygon fill="midnightblue" stroke="midnightblue" points="185.33,-308.44 195.04,-312.68 190.1,-303.31 185.33,-308.44"/>
</g>
<!-- Node113 -->
<g id="node23" class="node">
<title>Node113</title>
<g id="a_node23"><a xlink:href="../../d9/d1f/namespaceleanux_1_1tools_1_1lsys.html#a82e1aa33b1314510353184fde2139bd3" target="_top" xlink:title="Print command help.">
<polygon fill="none" stroke="black" points="160,-117 160,-147 265,-147 265,-117 160,-117"/>
<text text-anchor="start" x="168" y="-135" font-family="Helvetica,sans-Serif" font-size="10.00">leanux::tools::lsys</text>
<text text-anchor="middle" x="212.5" y="-124" font-family="Helvetica,sans-Serif" font-size="10.00">::printHelp</text>
</a>
</g>
</g>
<!-- Node1&#45;&gt;Node113 -->
<g id="edge30" class="edge">
<title>Node1&#45;&gt;Node113</title>
<path fill="none" stroke="midnightblue" d="M102.19,-165.9C118.34,-160.89 136.47,-155.27 153.26,-150.06"/>
<polygon fill="midnightblue" stroke="midnightblue" points="154.45,-153.36 162.97,-147.05 152.38,-146.67 154.45,-153.36"/>
</g>
<!-- Node114 -->
<g id="node24" class="node">
<title>Node114</title>
<g id="a_node24"><a xlink:href="../../d9/d1f/namespaceleanux_1_1tools_1_1lsys.html#a2834c95a4f20bec06a60d81e93abf343" target="_top" xlink:title=" ">
<polygon fill="none" stroke="black" points="160,-68 160,-98 265,-98 265,-68 160,-68"/>
<text text-anchor="start" x="168" y="-86" font-family="Helvetica,sans-Serif" font-size="10.00">leanux::tools::lsys</text>
<text text-anchor="middle" x="212.5" y="-75" font-family="Helvetica,sans-Serif" font-size="10.00">::printVersion</text>
</a>
</g>
</g>
<!-- Node1&#45;&gt;Node114 -->
<g id="edge31" class="edge">
<title>Node1&#45;&gt;Node114</title>
<path fill="none" stroke="midnightblue" d="M67.98,-165.73C84.34,-149.24 112.43,-123.17 141,-107 144.02,-105.29 147.18,-103.68 150.41,-102.16"/>
<polygon fill="midnightblue" stroke="midnightblue" points="151.92,-105.32 159.69,-98.12 149.12,-98.9 151.92,-105.32"/>
</g>
<!-- Node115 -->
<g id="node25" class="node">
<title>Node115</title>
<g id="a_node25"><a xlink:href="../../d8/db1/namespaceleanux_1_1util.html#a99a338bd02550dc25a08dfedd844e303" target="_top" xlink:title="STL natural less&#45;than std::string compare, treating hex numbers as numbers.">
<polygon fill="none" stroke="black" points="141,-10.5 141,-29.5 284,-29.5 284,-10.5 141,-10.5"/>
<text text-anchor="middle" x="212.5" y="-17.5" font-family="Helvetica,sans-Serif" font-size="10.00">leanux::util::stlhexnatstrlt</text>
</a>
</g>
</g>
<!-- Node1&#45;&gt;Node115 -->
<g id="edge32" class="edge">
<title>Node1&#45;&gt;Node115</title>
<path fill="none" stroke="midnightblue" d="M61.35,-165.68C74.83,-140.58 104.46,-90.27 141,-58 151.96,-48.32 165.82,-40.18 178.34,-33.95"/>
<polygon fill="midnightblue" stroke="midnightblue" points="180.05,-37.01 187.58,-29.56 177.05,-30.68 180.05,-37.01"/>
</g>
<!-- Node119 -->
<g id="node27" class="node">
<title>Node119</title>
<g id="a_node27"><a xlink:href="../../d9/d1f/namespaceleanux_1_1tools_1_1lsys.html#a33d815e2817f56776217177ef1016d8c" target="_top" xlink:title=" ">
<polygon fill="none" stroke="black" points="160,-166 160,-196 265,-196 265,-166 160,-166"/>
<text text-anchor="start" x="168" y="-184" font-family="Helvetica,sans-Serif" font-size="10.00">leanux::tools::lsys</text>
<text text-anchor="middle" x="212.5" y="-173" font-family="Helvetica,sans-Serif" font-size="10.00">::sysfsTree</text>
</a>
</g>
</g>
<!-- Node1&#45;&gt;Node119 -->
<g id="edge34" class="edge">
<title>Node1&#45;&gt;Node119</title>
<path fill="none" stroke="midnightblue" d="M105.24,-181C119.49,-181 135.1,-181 149.86,-181"/>
<polygon fill="midnightblue" stroke="midnightblue" points="149.92,-184.5 159.92,-181 149.92,-177.5 149.92,-184.5"/>
</g>
<!-- Node3 -->
<g id="node3" class="node">
<title>Node3</title>
<g id="a_node3"><a xlink:href="../../d3/d83/namespaceleanux_1_1sysdevice.html#acf8375f2ac2b47edc679f8cd1bfc7db5" target="_top" xlink:title="Enumerate all (S)ATA devices.">
<polygon fill="none" stroke="black" points="354,-739 354,-769 464,-769 464,-739 354,-739"/>
<text text-anchor="start" x="362" y="-757" font-family="Helvetica,sans-Serif" font-size="10.00">leanux::sysdevice::</text>
<text text-anchor="middle" x="409" y="-746" font-family="Helvetica,sans-Serif" font-size="10.00">enumATADevices</text>
</a>
</g>
</g>
<!-- Node2&#45;&gt;Node3 -->
<g id="edge2" class="edge">
<title>Node2&#45;&gt;Node3</title>
<path fill="none" stroke="midnightblue" d="M267.68,-771.31C291.29,-768.4 319.15,-764.96 343.79,-761.92"/>
<polygon fill="midnightblue" stroke="midnightblue" points="344.28,-765.39 353.77,-760.69 343.42,-758.44 344.28,-765.39"/>
</g>
<!-- Node5 -->
<g id="node5" class="node">
<title>Node5</title>
<g id="a_node5"><a xlink:href="../../d3/d83/namespaceleanux_1_1sysdevice.html#a6e62fc4f5d9e923ecd2f8ac24f7c6320" target="_top" xlink:title="Enumerate all block devices.">
<polygon fill="none" stroke="black" points="354,-690 354,-720 464,-720 464,-690 354,-690"/>
<text text-anchor="start" x="362" y="-708" font-family="Helvetica,sans-Serif" font-size="10.00">leanux::sysdevice::</text>
<text text-anchor="middle" x="409" y="-697" font-family="Helvetica,sans-Serif" font-size="10.00">enumBlockDevices</text>
</a>
</g>
</g>
<!-- Node2&#45;&gt;Node5 -->
<g id="edge4" class="edge">
<title>Node2&#45;&gt;Node5</title>
<path fill="none" stroke="midnightblue" d="M243.77,-762.93C264.82,-752.8 293.71,-739.6 320,-730 327.64,-727.21 335.74,-724.54 343.81,-722.05"/>
<polygon fill="midnightblue" stroke="midnightblue" points="345.04,-725.33 353.61,-719.1 343.03,-718.63 345.04,-725.33"/>
</g>
<!-- Node6 -->
<g id="node6" class="node">
<title>Node6</title>
<g id="a_node6"><a xlink:href="../../d3/d83/namespaceleanux_1_1sysdevice.html#a196348ea7b055c0fb1f1ffc938e14b3a" target="_top" xlink:title="Enumerate all network devices.">
<polygon fill="none" stroke="black" points="354,-641 354,-671 464,-671 464,-641 354,-641"/>
<text text-anchor="start" x="362" y="-659" font-family="Helvetica,sans-Serif" font-size="10.00">leanux::sysdevice::</text>
<text text-anchor="middle" x="409" y="-648" font-family="Helvetica,sans-Serif" font-size="10.00">enumNetDevices</text>
</a>
</g>
</g>
<!-- Node2&#45;&gt;Node6 -->
<g id="edge6" class="edge">
<title>Node2&#45;&gt;Node6</title>
<path fill="none" stroke="midnightblue" d="M225.99,-762.86C244.4,-741.52 280.88,-702.77 320,-681 327.56,-676.79 335.89,-673.24 344.32,-670.26"/>
<polygon fill="midnightblue" stroke="midnightblue" points="345.44,-673.58 353.84,-667.13 343.25,-666.93 345.44,-673.58"/>
</g>
<!-- Node7 -->
<g id="node7" class="node">
<title>Node7</title>
<g id="a_node7"><a xlink:href="../../d3/d83/namespaceleanux_1_1sysdevice.html#a389ec195110134b58520da467883f71b" target="_top" xlink:title="Enumerate all PCI bus devices.">
<polygon fill="none" stroke="black" points="354,-935 354,-965 464,-965 464,-935 354,-935"/>
<text text-anchor="start" x="362" y="-953" font-family="Helvetica,sans-Serif" font-size="10.00">leanux::sysdevice::</text>
<text text-anchor="middle" x="409" y="-942" font-family="Helvetica,sans-Serif" font-size="10.00">enumPCIBusses</text>
</a>
</g>
</g>
<!-- Node2&#45;&gt;Node7 -->
<g id="edge8" class="edge">
<title>Node2&#45;&gt;Node7</title>
<path fill="none" stroke="midnightblue" d="M220.12,-793.21C234.04,-823.36 269.29,-890.81 320,-926 327.28,-931.05 335.58,-935.04 344.11,-938.19"/>
<polygon fill="midnightblue" stroke="midnightblue" points="343.19,-941.58 353.79,-941.4 345.4,-934.93 343.19,-941.58"/>
</g>
<!-- Node8 -->
<g id="node8" class="node">
<title>Node8</title>
<g id="a_node8"><a xlink:href="../../d3/d83/namespaceleanux_1_1sysdevice.html#a45a62662523fd56baee9991839bc4897" target="_top" xlink:title="Enumerate all PCI devices.">
<polygon fill="none" stroke="black" points="354,-886 354,-916 464,-916 464,-886 354,-886"/>
<text text-anchor="start" x="362" y="-904" font-family="Helvetica,sans-Serif" font-size="10.00">leanux::sysdevice::</text>
<text text-anchor="middle" x="409" y="-893" font-family="Helvetica,sans-Serif" font-size="10.00">enumPCIDevices</text>
</a>
</g>
</g>
<!-- Node2&#45;&gt;Node8 -->
<g id="edge10" class="edge">
<title>Node2&#45;&gt;Node8</title>
<path fill="none" stroke="midnightblue" d="M225.59,-793.16C243.77,-814.94 280.29,-854.91 320,-877 327.46,-881.15 335.68,-884.62 344.01,-887.5"/>
<polygon fill="midnightblue" stroke="midnightblue" points="343.21,-890.92 353.8,-890.63 345.34,-884.25 343.21,-890.92"/>
</g>
<!-- Node9 -->
<g id="node9" class="node">
<title>Node9</title>
<g id="a_node9"><a xlink:href="../../d3/d83/namespaceleanux_1_1sysdevice.html#a6cc52cddb686f9760f813dfffc7daae4" target="_top" xlink:title="Enumerate all SCSI host devices.">
<polygon fill="none" stroke="black" points="345,-837 345,-867 473,-867 473,-837 345,-837"/>
<text text-anchor="start" x="353" y="-855" font-family="Helvetica,sans-Serif" font-size="10.00">leanux::sysdevice::</text>
<text text-anchor="middle" x="409" y="-844" font-family="Helvetica,sans-Serif" font-size="10.00">enumSCSIHostDevices</text>
</a>
</g>
</g>
<!-- Node2&#45;&gt;Node9 -->
<g id="edge12" class="edge">
<title>Node2&#45;&gt;Node9</title>
<path fill="none" stroke="midnightblue" d="M242.3,-793.18C263.41,-803.9 292.97,-818.05 320,-828 325.75,-830.12 331.78,-832.14 337.87,-834.06"/>
<polygon fill="midnightblue" stroke="midnightblue" points="336.86,-837.41 347.45,-836.97 338.9,-830.71 336.86,-837.41"/>
</g>
<!-- Node10 -->
<g id="node10" class="node">
<title>Node10</title>
<g id="a_node10"><a xlink:href="../../d3/d83/namespaceleanux_1_1sysdevice.html#a612c5e73d33332893fd9f002189de916" target="_top" xlink:title="Enumerate all USB devices.">
<polygon fill="none" stroke="black" points="354,-788 354,-818 464,-818 464,-788 354,-788"/>
<text text-anchor="start" x="362" y="-806" font-family="Helvetica,sans-Serif" font-size="10.00">leanux::sysdevice::</text>
<text text-anchor="middle" x="409" y="-795" font-family="Helvetica,sans-Serif" font-size="10.00">enumUSBDevices</text>
</a>
</g>
</g>
<!-- Node2&#45;&gt;Node10 -->
<g id="edge14" class="edge">
<title>Node2&#45;&gt;Node10</title>
<path fill="none" stroke="midnightblue" d="M267.68,-784.96C291.29,-788 319.15,-791.58 343.79,-794.75"/>
<polygon fill="midnightblue" stroke="midnightblue" points="343.41,-798.23 353.77,-796.03 344.3,-791.28 343.41,-798.23"/>
</g>
<!-- Node4 -->
<g id="node4" class="node">
<title>Node4</title>
<g id="a_node4"><a xlink:href="../../d8/db1/namespaceleanux_1_1util.html#a9ae898fe02934e4905ef4665c2871158" target="_top" xlink:title="Convert a path on a filesystem to the realpath if the path is a link.">
<polygon fill="none" stroke="black" points="534,-768.5 534,-787.5 651,-787.5 651,-768.5 534,-768.5"/>
<text text-anchor="middle" x="592.5" y="-775.5" font-family="Helvetica,sans-Serif" font-size="10.00">leanux::util::realPath</text>
</a>
</g>
</g>
<!-- Node3&#45;&gt;Node4 -->
<g id="edge3" class="edge">
<title>Node3&#45;&gt;Node4</title>
<path fill="none" stroke="midnightblue" d="M464.46,-761.2C483.13,-763.67 504.26,-766.46 523.85,-769.05"/>
<polygon fill="midnightblue" stroke="midnightblue" points="523.56,-772.55 533.93,-770.39 524.47,-765.61 523.56,-772.55"/>
</g>
<!-- Node5&#45;&gt;Node4 -->
<g id="edge5" class="edge">
<title>Node5&#45;&gt;Node4</title>
<path fill="none" stroke="midnightblue" d="M464.08,-718.54C475.42,-721.89 487.21,-725.75 498,-730 522,-739.46 548,-753.11 566.48,-763.44"/>
<polygon fill="midnightblue" stroke="midnightblue" points="564.98,-766.61 575.41,-768.49 568.43,-760.52 564.98,-766.61"/>
</g>
<!-- Node6&#45;&gt;Node4 -->
<g id="edge7" class="edge">
<title>Node6&#45;&gt;Node4</title>
<path fill="none" stroke="midnightblue" d="M464.45,-666.63C476,-670.19 487.78,-674.87 498,-681 532.4,-701.63 562.67,-738.15 578.91,-760.02"/>
<polygon fill="midnightblue" stroke="midnightblue" points="576.28,-762.35 584.98,-768.4 581.95,-758.25 576.28,-762.35"/>
</g>
<!-- Node7&#45;&gt;Node4 -->
<g id="edge9" class="edge">
<title>Node7&#45;&gt;Node4</title>
<path fill="none" stroke="midnightblue" d="M464.07,-941.98C476.02,-938.44 488.07,-933.34 498,-926 543.66,-892.23 572.48,-828.9 584.72,-797.16"/>
<polygon fill="midnightblue" stroke="midnightblue" points="588.03,-798.29 588.23,-787.69 581.47,-795.85 588.03,-798.29"/>
</g>
<!-- Node8&#45;&gt;Node4 -->
<g id="edge11" class="edge">
<title>Node8&#45;&gt;Node4</title>
<path fill="none" stroke="midnightblue" d="M464.03,-891.27C475.73,-887.82 487.68,-883.19 498,-877 533.11,-855.95 563.5,-818.09 579.49,-795.78"/>
<polygon fill="midnightblue" stroke="midnightblue" points="582.39,-797.74 585.26,-787.54 576.66,-793.73 582.39,-797.74"/>
</g>
<!-- Node9&#45;&gt;Node4 -->
<g id="edge13" class="edge">
<title>Node9&#45;&gt;Node4</title>
<path fill="none" stroke="midnightblue" d="M472.12,-836.95C480.91,-834.27 489.76,-831.28 498,-828 522.58,-818.22 549.03,-803.66 567.5,-792.77"/>
<polygon fill="midnightblue" stroke="midnightblue" points="569.35,-795.75 576.14,-787.61 565.76,-789.74 569.35,-795.75"/>
</g>
<!-- Node10&#45;&gt;Node4 -->
<g id="edge15" class="edge">
<title>Node10&#45;&gt;Node4</title>
<path fill="none" stroke="midnightblue" d="M464.46,-795.5C483.13,-792.93 504.26,-790.02 523.85,-787.32"/>
<polygon fill="midnightblue" stroke="midnightblue" points="524.5,-790.76 533.93,-785.93 523.54,-783.83 524.5,-790.76"/>
</g>
<!-- Node11&#45;&gt;Node4 -->
<g id="edge19" class="edge">
<title>Node11&#45;&gt;Node4</title>
<path fill="none" stroke="midnightblue" d="M252.06,-570.1C272.12,-577.61 297.17,-586.45 320,-593 397.85,-615.32 431.55,-585.71 498,-632 544.15,-664.15 572.75,-727.16 584.83,-758.85"/>
<polygon fill="midnightblue" stroke="midnightblue" points="581.56,-760.12 588.29,-768.3 588.14,-757.71 581.56,-760.12"/>
</g>
<!-- Node12 -->
<g id="node12" class="node">
<title>Node12</title>
<g id="a_node12"><a xlink:href="../../d8/db1/namespaceleanux_1_1util.html#a6ac7287d49f3dd9b2c6c9673257e145b" target="_top" xlink:title="Test if the path is an existing directory.">
<polygon fill="none" stroke="black" points="334,-526.5 334,-545.5 484,-545.5 484,-526.5 334,-526.5"/>
<text text-anchor="middle" x="409" y="-533.5" font-family="Helvetica,sans-Serif" font-size="10.00">leanux::util::directoryExists</text>
</a>
</g>
</g>
<!-- Node11&#45;&gt;Node12 -->
<g id="edge17" class="edge">
<title>Node11&#45;&gt;Node12</title>
<path fill="none" stroke="midnightblue" d="M265.11,-549.96C283.12,-548.2 303.82,-546.18 323.78,-544.23"/>
<polygon fill="midnightblue" stroke="midnightblue" points="324.2,-547.7 333.81,-543.25 323.52,-540.74 324.2,-547.7"/>
</g>
<!-- Node13 -->
<g id="node13" class="node">
<title>Node13</title>
<g id="a_node13"><a xlink:href="../../d8/db1/namespaceleanux_1_1util.html#a6421ca2c46c56eebe1a486c6a498ce7d" target="_top" xlink:title="Test if a file exists and can be read.">
<polygon fill="none" stroke="black" points="333.5,-564.5 333.5,-583.5 484.5,-583.5 484.5,-564.5 333.5,-564.5"/>
<text text-anchor="middle" x="409" y="-571.5" font-family="Helvetica,sans-Serif" font-size="10.00">leanux::util::fileReadAccess</text>
</a>
</g>
</g>
<!-- Node11&#45;&gt;Node13 -->
<g id="edge18" class="edge">
<title>Node11&#45;&gt;Node13</title>
<path fill="none" stroke="midnightblue" d="M265.11,-560.04C283.02,-561.79 303.6,-563.8 323.45,-565.74"/>
<polygon fill="midnightblue" stroke="midnightblue" points="323.15,-569.23 333.44,-566.72 323.83,-562.26 323.15,-569.23"/>
</g>
<!-- Node15 -->
<g id="node15" class="node">
<title>Node15</title>
<g id="a_node15"><a xlink:href="../../d9/d1f/namespaceleanux_1_1tools_1_1lsys.html#a4a56050ff78d8c77b6a699ff6d5aea50" target="_top" xlink:title="get named field attributes for the SysDevice.">
<polygon fill="none" stroke="red" points="356.5,-439 356.5,-469 461.5,-469 461.5,-439 356.5,-439"/>
<text text-anchor="start" x="364.5" y="-457" font-family="Helvetica,sans-Serif" font-size="10.00">leanux::tools::lsys</text>
<text text-anchor="middle" x="409" y="-446" font-family="Helvetica,sans-Serif" font-size="10.00">::getLeafColStr</text>
</a>
</g>
</g>
<!-- Node14&#45;&gt;Node15 -->
<g id="edge21" class="edge">
<title>Node14&#45;&gt;Node15</title>
<path fill="none" stroke="midnightblue" d="M225.25,-343.05C243.28,-365.13 279.92,-406.17 320,-429 328.19,-433.67 337.32,-437.52 346.51,-440.67"/>
<polygon fill="midnightblue" stroke="midnightblue" points="345.47,-444.02 356.06,-443.72 347.6,-437.35 345.47,-444.02"/>
</g>
<!-- Node44 -->
<g id="node16" class="node">
<title>Node44</title>
<g id="a_node16"><a xlink:href="../../d1/d02/classleanux_1_1sysdevice_1_1SysDevice.html#a8e5f56a1ac6d79e2c053ea76dac8f2a6" target="_top" xlink:title="Get the path for the SysDevice.">
<polygon fill="none" stroke="black" points="537.5,-461 537.5,-491 647.5,-491 647.5,-461 537.5,-461"/>
<text text-anchor="start" x="545.5" y="-479" font-family="Helvetica,sans-Serif" font-size="10.00">leanux::sysdevice::</text>
<text text-anchor="middle" x="592.5" y="-468" font-family="Helvetica,sans-Serif" font-size="10.00">SysDevice::getPath</text>
</a>
</g>
</g>
<!-- Node14&#45;&gt;Node44 -->
<g id="edge23" class="edge">
<title>Node14&#45;&gt;Node44</title>
<path fill="none" stroke="midnightblue" d="M218.74,-343.24C230.74,-375.42 263.61,-449.77 320,-479 384.45,-512.41 469.61,-504.54 527.24,-492.96"/>
<polygon fill="midnightblue" stroke="midnightblue" points="528.25,-496.33 537.31,-490.84 526.81,-489.47 528.25,-496.33"/>
</g>
<!-- Node74 -->
<g id="node17" class="node">
<title>Node74</title>
<g id="a_node17"><a xlink:href="../../d1/d02/classleanux_1_1sysdevice_1_1SysDevice.html#a773cb91e983a465af90059fcb1ff5371" target="_top" xlink:title="Get the SysDeviceType.">
<polygon fill="none" stroke="black" points="536.5,-290 536.5,-320 648.5,-320 648.5,-290 536.5,-290"/>
<text text-anchor="start" x="544.5" y="-308" font-family="Helvetica,sans-Serif" font-size="10.00">leanux::sysdevice::</text>
<text text-anchor="middle" x="592.5" y="-297" font-family="Helvetica,sans-Serif" font-size="10.00">SysDevice::getType</text>
</a>
</g>
</g>
<!-- Node14&#45;&gt;Node74 -->
<g id="edge24" class="edge">
<title>Node14&#45;&gt;Node74</title>
<path fill="none" stroke="midnightblue" d="M265.12,-342.39C322.7,-356.18 418.24,-372.28 498,-353 520.35,-347.6 543.36,-335.88 560.96,-325.38"/>
<polygon fill="midnightblue" stroke="midnightblue" points="562.95,-328.26 569.63,-320.03 559.28,-322.3 562.95,-328.26"/>
</g>
<!-- Node75 -->
<g id="node18" class="node">
<title>Node75</title>
<g id="a_node18"><a xlink:href="../../d1/d02/classleanux_1_1sysdevice_1_1SysDevice.html#a899968c4a70ecad67694f6850cf730fd" target="_top" xlink:title="Get a string representation for the SysDeviceType.">
<polygon fill="none" stroke="black" points="346.5,-176 346.5,-206 471.5,-206 471.5,-176 346.5,-176"/>
<text text-anchor="start" x="354.5" y="-194" font-family="Helvetica,sans-Serif" font-size="10.00">leanux::sysdevice::</text>
<text text-anchor="middle" x="409" y="-183" font-family="Helvetica,sans-Serif" font-size="10.00">SysDevice::getTypeStr</text>
</a>
</g>
</g>
<!-- Node14&#45;&gt;Node75 -->
<g id="edge25" class="edge">
<title>Node14&#45;&gt;Node75</title>
<path fill="none" stroke="midnightblue" d="M224.91,-312.68C242.78,-289.69 279.54,-246.26 320,-221 326.81,-216.75 334.3,-213.01 341.95,-209.76"/>
<polygon fill="midnightblue" stroke="midnightblue" points="343.33,-212.98 351.32,-206.02 340.73,-206.47 343.33,-212.98"/>
</g>
<!-- Node76 -->
<g id="node19" class="node">
<title>Node76</title>
<g id="a_node19"><a xlink:href="../../d3/d83/namespaceleanux_1_1sysdevice.html#aa76385cfb36c36d3f55f25dfacc1346b" target="_top" xlink:title="Return the leaf SysDevice detected in path.">
<polygon fill="none" stroke="red" points="537.5,-174 537.5,-204 647.5,-204 647.5,-174 537.5,-174"/>
<text text-anchor="start" x="545.5" y="-192" font-family="Helvetica,sans-Serif" font-size="10.00">leanux::sysdevice::</text>
<text text-anchor="middle" x="592.5" y="-181" font-family="Helvetica,sans-Serif" font-size="10.00">leafDetect</text>
</a>
</g>
</g>
<!-- Node14&#45;&gt;Node76 -->
<g id="edge26" class="edge">
<title>Node14&#45;&gt;Node76</title>
<path fill="none" stroke="midnightblue" d="M231.07,-312.75C251.21,-296.08 285.85,-269.77 320,-255 394.33,-222.84 419.5,-235.91 498,-216 509.02,-213.2 520.71,-210.01 531.95,-206.83"/>
<polygon fill="midnightblue" stroke="midnightblue" points="533.03,-210.16 541.68,-204.04 531.11,-203.43 533.03,-210.16"/>
</g>
<!-- Node81 -->
<g id="node20" class="node">
<title>Node81</title>
<g id="a_node20"><a xlink:href="../../df/d3f/classleanux_1_1util_1_1RegExp.html#a8acc45eb950f504e1b224e10313364de" target="_top" xlink:title=" ">
<polygon fill="none" stroke="black" points="352,-313 352,-343 466,-343 466,-313 352,-313"/>
<text text-anchor="start" x="360" y="-331" font-family="Helvetica,sans-Serif" font-size="10.00">leanux::util::RegExp</text>
<text text-anchor="middle" x="409" y="-320" font-family="Helvetica,sans-Serif" font-size="10.00">::match</text>
</a>
</g>
</g>
<!-- Node14&#45;&gt;Node81 -->
<g id="edge27" class="edge">
<title>Node14&#45;&gt;Node81</title>
<path fill="none" stroke="midnightblue" d="M265.11,-328C288.55,-328 316.57,-328 341.56,-328"/>
<polygon fill="midnightblue" stroke="midnightblue" points="341.7,-331.5 351.7,-328 341.7,-324.5 341.7,-331.5"/>
</g>
<!-- Node112 -->
<g id="node21" class="node">
<title>Node112</title>
<g id="a_node21"><a xlink:href="../../d1/d02/classleanux_1_1sysdevice_1_1SysDevice.html#a9910207315385fac43c45714f612092b" target="_top" xlink:title="test if this SysDevice is of type t.">
<polygon fill="none" stroke="black" points="320,-264 320,-294 498,-294 498,-264 320,-264"/>
<text text-anchor="start" x="328" y="-282" font-family="Helvetica,sans-Serif" font-size="10.00">leanux::sysdevice::</text>
<text text-anchor="middle" x="409" y="-271" font-family="Helvetica,sans-Serif" font-size="10.00">SysDevice::matchSysDeviceType</text>
</a>
</g>
</g>
<!-- Node14&#45;&gt;Node112 -->
<g id="edge28" class="edge">
<title>Node14&#45;&gt;Node112</title>
<path fill="none" stroke="midnightblue" d="M265.11,-315C287.57,-309.34 314.22,-302.63 338.38,-296.54"/>
<polygon fill="midnightblue" stroke="midnightblue" points="339.37,-299.9 348.22,-294.06 337.66,-293.11 339.37,-299.9"/>
</g>
<!-- Node82 -->
<g id="node22" class="node">
<title>Node82</title>
<g id="a_node22"><a xlink:href="../../df/d3f/classleanux_1_1util_1_1RegExp.html#ad478a08e79f94ea2c48de6298c6e1178" target="_top" xlink:title=" ">
<polygon fill="none" stroke="black" points="341.5,-400.5 341.5,-419.5 476.5,-419.5 476.5,-400.5 341.5,-400.5"/>
<text text-anchor="middle" x="409" y="-407.5" font-family="Helvetica,sans-Serif" font-size="10.00">leanux::util::RegExp::set</text>
</a>
</g>
</g>
<!-- Node14&#45;&gt;Node82 -->
<g id="edge29" class="edge">
<title>Node14&#45;&gt;Node82</title>
<path fill="none" stroke="midnightblue" d="M237.25,-343.03C258.33,-355.85 290.31,-374.06 320,-386 331.25,-390.52 343.64,-394.49 355.48,-397.83"/>
<polygon fill="midnightblue" stroke="midnightblue" points="354.7,-401.24 365.27,-400.48 356.53,-394.48 354.7,-401.24"/>
</g>
<!-- Node15&#45;&gt;Node44 -->
<g id="edge22" class="edge">
<title>Node15&#45;&gt;Node44</title>
<path fill="none" stroke="midnightblue" d="M461.53,-460.25C481.97,-462.72 505.71,-465.6 527.26,-468.21"/>
<polygon fill="midnightblue" stroke="midnightblue" points="526.96,-471.7 537.31,-469.43 527.81,-464.75 526.96,-471.7"/>
</g>
<!-- Node116 -->
<g id="node26" class="node">
<title>Node116</title>
<g id="a_node26"><a xlink:href="../../d8/db1/namespaceleanux_1_1util.html#a956457b75f9b34b1bf10a7724ceebe7f" target="_top" xlink:title="STL natural less&#45;than string compare.">
<polygon fill="none" stroke="red" points="343.5,-0.5 343.5,-19.5 474.5,-19.5 474.5,-0.5 343.5,-0.5"/>
<text text-anchor="middle" x="409" y="-7.5" font-family="Helvetica,sans-Serif" font-size="10.00">leanux::util::hexnatstrlt</text>
</a>
</g>
</g>
<!-- Node115&#45;&gt;Node116 -->
<g id="edge33" class="edge">
<title>Node115&#45;&gt;Node116</title>
<path fill="none" stroke="midnightblue" d="M284.27,-16.36C300.13,-15.55 317.01,-14.68 333.03,-13.85"/>
<polygon fill="midnightblue" stroke="midnightblue" points="333.61,-17.33 343.42,-13.32 333.25,-10.34 333.61,-17.33"/>
</g>
<!-- Node119&#45;&gt;Node75 -->
<g id="edge36" class="edge">
<title>Node119&#45;&gt;Node75</title>
<path fill="none" stroke="midnightblue" d="M265.11,-183.65C286.88,-184.77 312.58,-186.09 336.15,-187.31"/>
<polygon fill="midnightblue" stroke="midnightblue" points="336.29,-190.82 346.45,-187.84 336.65,-183.83 336.29,-190.82"/>
</g>
<!-- Node120 -->
<g id="node28" class="node">
<title>Node120</title>
<g id="a_node28"><a xlink:href="../../d3/d83/namespaceleanux_1_1sysdevice.html#a9809d47da8329135a70d959d201f012a" target="_top" xlink:title="Destroy list of SysDevice* as returned by treeDetect.">
<polygon fill="none" stroke="black" points="354,-39 354,-69 464,-69 464,-39 354,-39"/>
<text text-anchor="start" x="362" y="-57" font-family="Helvetica,sans-Serif" font-size="10.00">leanux::sysdevice::</text>
<text text-anchor="middle" x="409" y="-46" font-family="Helvetica,sans-Serif" font-size="10.00">destroy</text>
</a>
</g>
</g>
<!-- Node119&#45;&gt;Node120 -->
<g id="edge35" class="edge">
<title>Node119&#45;&gt;Node120</title>
<path fill="none" stroke="midnightblue" d="M265.14,-168.19C271.98,-164.97 278.52,-160.98 284,-156 311.97,-130.61 291.23,-103.48 320,-79 327.02,-73.03 335.37,-68.48 344.1,-65.01"/>
<polygon fill="midnightblue" stroke="midnightblue" points="345.39,-68.27 353.67,-61.66 343.08,-61.66 345.39,-68.27"/>
</g>
<!-- Node121 -->
<g id="node29" class="node">
<title>Node121</title>
<g id="a_node29"><a xlink:href="../../d8/db1/namespaceleanux_1_1util.html#a803c31fd9467bc62367bc248846c3242" target="_top" xlink:title="Shorten a string by replacing characters from the middle with three filler charachters.">
<polygon fill="none" stroke="black" points="337.5,-88.5 337.5,-107.5 480.5,-107.5 480.5,-88.5 337.5,-88.5"/>
<text text-anchor="middle" x="409" y="-95.5" font-family="Helvetica,sans-Serif" font-size="10.00">leanux::util::shortenString</text>
</a>
</g>
</g>
<!-- Node119&#45;&gt;Node121 -->
<g id="edge37" class="edge">
<title>Node119&#45;&gt;Node121</title>
<path fill="none" stroke="midnightblue" d="M265.35,-165.92C271.87,-163.08 278.25,-159.79 284,-156 303.69,-143.01 299.52,-128.7 320,-117 323.92,-114.76 328.08,-112.78 332.37,-111.04"/>
<polygon fill="midnightblue" stroke="midnightblue" points="333.73,-114.27 341.94,-107.58 331.35,-107.69 333.73,-114.27"/>
</g>
<!-- Node122 -->
<g id="node30" class="node">
<title>Node122</title>
<g id="a_node30"><a xlink:href="../../d3/d83/namespaceleanux_1_1sysdevice.html#aa57ce9a4a0b2dd6fcdb6102854cc8292" target="_top" xlink:title="populates devices with the devices detected in path.">
<polygon fill="none" stroke="red" points="354,-127 354,-157 464,-157 464,-127 354,-127"/>
<text text-anchor="start" x="362" y="-145" font-family="Helvetica,sans-Serif" font-size="10.00">leanux::sysdevice::</text>
<text text-anchor="middle" x="409" y="-134" font-family="Helvetica,sans-Serif" font-size="10.00">treeDetect</text>
</a>
</g>
</g>
<!-- Node119&#45;&gt;Node122 -->
<g id="edge38" class="edge">
<title>Node119&#45;&gt;Node122</title>
<path fill="none" stroke="midnightblue" d="M265.11,-170.65C289.25,-165.81 318.25,-160 343.79,-154.87"/>
<polygon fill="midnightblue" stroke="midnightblue" points="344.65,-158.27 353.77,-152.87 343.27,-151.41 344.65,-158.27"/>
</g>
<!-- Node122&#45;&gt;Node74 -->
<g id="edge39" class="edge">
<title>Node122&#45;&gt;Node74</title>
<path fill="none" stroke="midnightblue" d="M464.37,-151.07C476.18,-154.72 488.09,-159.83 498,-167 508.86,-174.86 552.99,-243.64 576.53,-281.03"/>
<polygon fill="midnightblue" stroke="midnightblue" points="573.76,-283.2 582.04,-289.81 579.69,-279.48 573.76,-283.2"/>
</g>
<!-- Node122&#45;&gt;Node76 -->
<g id="edge40" class="edge">
<title>Node122&#45;&gt;Node76</title>
<path fill="none" stroke="midnightblue" d="M464.46,-156.1C484.29,-161.24 506.89,-167.09 527.47,-172.42"/>
<polygon fill="midnightblue" stroke="midnightblue" points="526.84,-175.87 537.4,-174.99 528.59,-169.09 526.84,-175.87"/>
</g>
</g>
</svg>
