<?xml version="1.0" encoding="UTF-8" standalone="no"?>
<!DOCTYPE svg PUBLIC "-//W3C//DTD SVG 1.1//EN"
 "http://www.w3.org/Graphics/SVG/1.1/DTD/svg11.dtd">
<!-- Generated by graphviz version 2.43.0 (0)
 -->
<!-- Title: tools/lmon/trigger.hpp Pages: 1 -->
<svg width="397pt" height="140pt"
 viewBox="0.00 0.00 396.50 140.00" xmlns="http://www.w3.org/2000/svg" xmlns:xlink="http://www.w3.org/1999/xlink">
<g id="graph0" class="graph" transform="scale(1 1) rotate(0) translate(4 136)">
<title>tools/lmon/trigger.hpp</title>
<!-- Node1 -->
<g id="node1" class="node">
<title>Node1</title>
<g id="a_node1"><a xlink:title=" ">
<polygon fill="#bfbfbf" stroke="black" points="120,-112.5 120,-131.5 244,-131.5 244,-112.5 120,-112.5"/>
<text text-anchor="middle" x="182" y="-119.5" font-family="Helvetica,sans-Serif" font-size="10.00">tools/lmon/trigger.hpp</text>
</a>
</g>
</g>
<!-- Node2 -->
<g id="node2" class="node">
<title>Node2</title>
<g id="a_node2"><a xlink:href="../../df/d77/xdata_8hpp.html" target="_top" xlink:title=" ">
<polygon fill="none" stroke="black" points="149.5,-56.5 149.5,-75.5 214.5,-75.5 214.5,-56.5 149.5,-56.5"/>
<text text-anchor="middle" x="182" y="-63.5" font-family="Helvetica,sans-Serif" font-size="10.00">xdata.hpp</text>
</a>
</g>
</g>
<!-- Node1&#45;&gt;Node2 -->
<g id="edge1" class="edge">
<title>Node1&#45;&gt;Node2</title>
<path fill="none" stroke="midnightblue" d="M182,-112.08C182,-105.01 182,-94.86 182,-85.99"/>
<polygon fill="midnightblue" stroke="midnightblue" points="185.5,-85.75 182,-75.75 178.5,-85.75 185.5,-85.75"/>
</g>
<!-- Node3 -->
<g id="node3" class="node">
<title>Node3</title>
<g id="a_node3"><a xlink:href="../../d9/db2/block_8hpp.html" target="_top" xlink:title=" ">
<polygon fill="none" stroke="red" points="0,-0.5 0,-19.5 64,-19.5 64,-0.5 0,-0.5"/>
<text text-anchor="middle" x="32" y="-7.5" font-family="Helvetica,sans-Serif" font-size="10.00">block.hpp</text>
</a>
</g>
</g>
<!-- Node2&#45;&gt;Node3 -->
<g id="edge2" class="edge">
<title>Node2&#45;&gt;Node3</title>
<path fill="none" stroke="midnightblue" d="M158.23,-56.44C133.11,-47.4 93.29,-33.06 65.1,-22.92"/>
<polygon fill="midnightblue" stroke="midnightblue" points="66.25,-19.61 55.66,-19.52 63.88,-26.2 66.25,-19.61"/>
</g>
<!-- Node13 -->
<g id="node4" class="node">
<title>Node13</title>
<g id="a_node4"><a xlink:href="../../df/dbe/cpu_8hpp.html" target="_top" xlink:title=" ">
<polygon fill="none" stroke="red" points="82.5,-0.5 82.5,-19.5 137.5,-19.5 137.5,-0.5 82.5,-0.5"/>
<text text-anchor="middle" x="110" y="-7.5" font-family="Helvetica,sans-Serif" font-size="10.00">cpu.hpp</text>
</a>
</g>
</g>
<!-- Node2&#45;&gt;Node13 -->
<g id="edge3" class="edge">
<title>Node2&#45;&gt;Node13</title>
<path fill="none" stroke="midnightblue" d="M170.43,-56.32C159.58,-48.18 143.12,-35.84 130.12,-26.09"/>
<polygon fill="midnightblue" stroke="midnightblue" points="131.88,-23.03 121.78,-19.83 127.68,-28.63 131.88,-23.03"/>
</g>
<!-- Node14 -->
<g id="node5" class="node">
<title>Node14</title>
<g id="a_node5"><a xlink:href="../../d4/d2d/net_8hpp.html" target="_top" xlink:title=" ">
<polygon fill="none" stroke="red" points="155.5,-0.5 155.5,-19.5 208.5,-19.5 208.5,-0.5 155.5,-0.5"/>
<text text-anchor="middle" x="182" y="-7.5" font-family="Helvetica,sans-Serif" font-size="10.00">net.hpp</text>
</a>
</g>
</g>
<!-- Node2&#45;&gt;Node14 -->
<g id="edge4" class="edge">
<title>Node2&#45;&gt;Node14</title>
<path fill="none" stroke="midnightblue" d="M182,-56.08C182,-49.01 182,-38.86 182,-29.99"/>
<polygon fill="midnightblue" stroke="midnightblue" points="185.5,-29.75 182,-19.75 178.5,-29.75 185.5,-29.75"/>
</g>
<!-- Node17 -->
<g id="node6" class="node">
<title>Node17</title>
<g id="a_node6"><a xlink:href="../../dd/db4/process_8hpp.html" target="_top" xlink:title=" ">
<polygon fill="none" stroke="red" points="226.5,-0.5 226.5,-19.5 301.5,-19.5 301.5,-0.5 226.5,-0.5"/>
<text text-anchor="middle" x="264" y="-7.5" font-family="Helvetica,sans-Serif" font-size="10.00">process.hpp</text>
</a>
</g>
</g>
<!-- Node2&#45;&gt;Node17 -->
<g id="edge5" class="edge">
<title>Node2&#45;&gt;Node17</title>
<path fill="none" stroke="midnightblue" d="M195.17,-56.32C207.85,-47.98 227.23,-35.21 242.21,-25.35"/>
<polygon fill="midnightblue" stroke="midnightblue" points="244.43,-28.08 250.86,-19.65 240.58,-22.23 244.43,-28.08"/>
</g>
<!-- Node20 -->
<g id="node7" class="node">
<title>Node20</title>
<g id="a_node7"><a xlink:href="../../db/da3/vmem_8hpp.html" target="_top" xlink:title=" ">
<polygon fill="none" stroke="red" points="319.5,-0.5 319.5,-19.5 388.5,-19.5 388.5,-0.5 319.5,-0.5"/>
<text text-anchor="middle" x="354" y="-7.5" font-family="Helvetica,sans-Serif" font-size="10.00">vmem.hpp</text>
</a>
</g>
</g>
<!-- Node2&#45;&gt;Node20 -->
<g id="edge6" class="edge">
<title>Node2&#45;&gt;Node20</title>
<path fill="none" stroke="midnightblue" d="M209.25,-56.44C238.44,-47.28 284.92,-32.69 317.31,-22.52"/>
<polygon fill="midnightblue" stroke="midnightblue" points="318.38,-25.85 326.87,-19.52 316.28,-19.17 318.38,-25.85"/>
</g>
</g>
</svg>
