<?xml version="1.0" encoding="UTF-8" standalone="no"?>
<!DOCTYPE svg PUBLIC "-//W3C//DTD SVG 1.1//EN"
 "http://www.w3.org/Graphics/SVG/1.1/DTD/svg11.dtd">
<!-- Generated by graphviz version 2.43.0 (0)
 -->
<!-- Title: leanux::sysdevice::BlockDevice Pages: 1 -->
<svg width="556pt" height="529pt"
 viewBox="0.00 0.00 556.00 529.00" xmlns="http://www.w3.org/2000/svg" xmlns:xlink="http://www.w3.org/1999/xlink">
<g id="graph0" class="graph" transform="scale(1 1) rotate(0) translate(4 525)">
<title>leanux::sysdevice::BlockDevice</title>
<!-- Node1 -->
<g id="node1" class="node">
<title>Node1</title>
<g id="a_node1"><a xlink:title="Generic block device.">
<polygon fill="#bfbfbf" stroke="black" points="146,-245.5 146,-275.5 256,-275.5 256,-245.5 146,-245.5"/>
<text text-anchor="start" x="154" y="-263.5" font-family="Helvetica,sans-Serif" font-size="10.00">leanux::sysdevice::</text>
<text text-anchor="middle" x="201" y="-252.5" font-family="Helvetica,sans-Serif" font-size="10.00">BlockDevice</text>
</a>
</g>
</g>
<!-- Node3 -->
<g id="node3" class="node">
<title>Node3</title>
<g id="a_node3"><a xlink:href="../../df/ddb/classleanux_1_1sysdevice_1_1BCacheDevice.html" target="_top" xlink:title="Say yes to bcache devices.">
<polygon fill="none" stroke="black" points="292,-490.5 292,-520.5 402,-520.5 402,-490.5 292,-490.5"/>
<text text-anchor="start" x="300" y="-508.5" font-family="Helvetica,sans-Serif" font-size="10.00">leanux::sysdevice::</text>
<text text-anchor="middle" x="347" y="-497.5" font-family="Helvetica,sans-Serif" font-size="10.00">BCacheDevice</text>
</a>
</g>
</g>
<!-- Node1&#45;&gt;Node3 -->
<g id="edge2" class="edge">
<title>Node1&#45;&gt;Node3</title>
<path fill="none" stroke="midnightblue" d="M205.96,-285.83C214.22,-330.77 237.27,-425.02 292,-481.5 295.28,-484.89 299.13,-487.84 303.23,-490.39"/>
<polygon fill="midnightblue" stroke="midnightblue" points="209.37,-285.02 204.21,-275.77 202.47,-286.22 209.37,-285.02"/>
</g>
<!-- Node4 -->
<g id="node4" class="node">
<title>Node4</title>
<g id="a_node4"><a xlink:href="../../d6/d19/classleanux_1_1sysdevice_1_1BlockPartition.html" target="_top" xlink:title="Generic block device partition.">
<polygon fill="none" stroke="black" points="292,-441.5 292,-471.5 402,-471.5 402,-441.5 292,-441.5"/>
<text text-anchor="start" x="300" y="-459.5" font-family="Helvetica,sans-Serif" font-size="10.00">leanux::sysdevice::</text>
<text text-anchor="middle" x="347" y="-448.5" font-family="Helvetica,sans-Serif" font-size="10.00">BlockPartition</text>
</a>
</g>
</g>
<!-- Node1&#45;&gt;Node4 -->
<g id="edge3" class="edge">
<title>Node1&#45;&gt;Node4</title>
<path fill="none" stroke="midnightblue" d="M209.35,-285.87C221.17,-322.66 247.71,-390.95 292,-432.5 295.59,-435.87 299.73,-438.82 304.1,-441.39"/>
<polygon fill="midnightblue" stroke="midnightblue" points="212.58,-284.47 206.27,-275.96 205.89,-286.54 212.58,-284.47"/>
</g>
<!-- Node5 -->
<g id="node5" class="node">
<title>Node5</title>
<g id="a_node5"><a xlink:href="../../de/dd2/classleanux_1_1sysdevice_1_1LoopbackDevice.html" target="_top" xlink:title="Say yes to loopback devices.">
<polygon fill="none" stroke="black" points="292,-392.5 292,-422.5 402,-422.5 402,-392.5 292,-392.5"/>
<text text-anchor="start" x="300" y="-410.5" font-family="Helvetica,sans-Serif" font-size="10.00">leanux::sysdevice::</text>
<text text-anchor="middle" x="347" y="-399.5" font-family="Helvetica,sans-Serif" font-size="10.00">LoopbackDevice</text>
</a>
</g>
</g>
<!-- Node1&#45;&gt;Node5 -->
<g id="edge4" class="edge">
<title>Node1&#45;&gt;Node5</title>
<path fill="none" stroke="midnightblue" d="M214.52,-284.57C229.69,-311.72 257.55,-355.71 292,-383.5 296.15,-386.85 300.85,-389.83 305.69,-392.45"/>
<polygon fill="midnightblue" stroke="midnightblue" points="217.56,-282.82 209.7,-275.72 211.41,-286.18 217.56,-282.82"/>
</g>
<!-- Node6 -->
<g id="node6" class="node">
<title>Node6</title>
<g id="a_node6"><a xlink:href="../../dc/dfa/classleanux_1_1sysdevice_1_1MapperDevice.html" target="_top" xlink:title="Say yes to devicemapper devices.">
<polygon fill="none" stroke="black" points="292,-343.5 292,-373.5 402,-373.5 402,-343.5 292,-343.5"/>
<text text-anchor="start" x="300" y="-361.5" font-family="Helvetica,sans-Serif" font-size="10.00">leanux::sysdevice::</text>
<text text-anchor="middle" x="347" y="-350.5" font-family="Helvetica,sans-Serif" font-size="10.00">MapperDevice</text>
</a>
</g>
</g>
<!-- Node1&#45;&gt;Node6 -->
<g id="edge5" class="edge">
<title>Node1&#45;&gt;Node6</title>
<path fill="none" stroke="midnightblue" d="M225.03,-282.4C242.46,-298.23 267.52,-319.38 292,-334.5 297.15,-337.68 302.79,-340.67 308.43,-343.39"/>
<polygon fill="midnightblue" stroke="midnightblue" points="227.31,-279.75 217.58,-275.55 222.57,-284.9 227.31,-279.75"/>
</g>
<!-- Node7 -->
<g id="node7" class="node">
<title>Node7</title>
<g id="a_node7"><a xlink:href="../../dd/d1b/classleanux_1_1sysdevice_1_1MDDevice.html" target="_top" xlink:title="Say yes to metadisk devices.">
<polygon fill="none" stroke="black" points="292,-294.5 292,-324.5 402,-324.5 402,-294.5 292,-294.5"/>
<text text-anchor="start" x="300" y="-312.5" font-family="Helvetica,sans-Serif" font-size="10.00">leanux::sysdevice::</text>
<text text-anchor="middle" x="347" y="-301.5" font-family="Helvetica,sans-Serif" font-size="10.00">MDDevice</text>
</a>
</g>
</g>
<!-- Node1&#45;&gt;Node7 -->
<g id="edge6" class="edge">
<title>Node1&#45;&gt;Node7</title>
<path fill="none" stroke="midnightblue" d="M256.04,-278.89C271.04,-283.99 287.14,-289.47 301.52,-294.36"/>
<polygon fill="midnightblue" stroke="midnightblue" points="256.97,-275.51 246.38,-275.6 254.72,-282.14 256.97,-275.51"/>
</g>
<!-- Node8 -->
<g id="node8" class="node">
<title>Node8</title>
<g id="a_node8"><a xlink:href="../../d8/d7a/classleanux_1_1sysdevice_1_1MMCDevice.html" target="_top" xlink:title="Say yes to MMC devices.">
<polygon fill="none" stroke="black" points="292,-245.5 292,-275.5 402,-275.5 402,-245.5 292,-245.5"/>
<text text-anchor="start" x="300" y="-263.5" font-family="Helvetica,sans-Serif" font-size="10.00">leanux::sysdevice::</text>
<text text-anchor="middle" x="347" y="-252.5" font-family="Helvetica,sans-Serif" font-size="10.00">MMCDevice</text>
</a>
</g>
</g>
<!-- Node1&#45;&gt;Node8 -->
<g id="edge7" class="edge">
<title>Node1&#45;&gt;Node8</title>
<path fill="none" stroke="midnightblue" d="M266.27,-260.5C274.75,-260.5 283.38,-260.5 291.67,-260.5"/>
<polygon fill="midnightblue" stroke="midnightblue" points="266.03,-257 256.03,-260.5 266.03,-264 266.03,-257"/>
</g>
<!-- Node9 -->
<g id="node9" class="node">
<title>Node9</title>
<g id="a_node9"><a xlink:href="../../d2/d7d/classleanux_1_1sysdevice_1_1NVMeDevice.html" target="_top" xlink:title="Say yes to NVMe devices.">
<polygon fill="none" stroke="black" points="292,-196.5 292,-226.5 402,-226.5 402,-196.5 292,-196.5"/>
<text text-anchor="start" x="300" y="-214.5" font-family="Helvetica,sans-Serif" font-size="10.00">leanux::sysdevice::</text>
<text text-anchor="middle" x="347" y="-203.5" font-family="Helvetica,sans-Serif" font-size="10.00">NVMeDevice</text>
</a>
</g>
</g>
<!-- Node1&#45;&gt;Node9 -->
<g id="edge8" class="edge">
<title>Node1&#45;&gt;Node9</title>
<path fill="none" stroke="midnightblue" d="M256.04,-242.11C271.04,-237.01 287.14,-231.53 301.52,-226.64"/>
<polygon fill="midnightblue" stroke="midnightblue" points="254.72,-238.86 246.38,-245.4 256.97,-245.49 254.72,-238.86"/>
</g>
<!-- Node10 -->
<g id="node10" class="node">
<title>Node10</title>
<g id="a_node10"><a xlink:href="../../d2/d73/classleanux_1_1sysdevice_1_1NVMePartition.html" target="_top" xlink:title="Say yes to partitions on NVMe devices.">
<polygon fill="none" stroke="black" points="292,-147.5 292,-177.5 402,-177.5 402,-147.5 292,-147.5"/>
<text text-anchor="start" x="300" y="-165.5" font-family="Helvetica,sans-Serif" font-size="10.00">leanux::sysdevice::</text>
<text text-anchor="middle" x="347" y="-154.5" font-family="Helvetica,sans-Serif" font-size="10.00">NVMePartition</text>
</a>
</g>
</g>
<!-- Node1&#45;&gt;Node10 -->
<g id="edge9" class="edge">
<title>Node1&#45;&gt;Node10</title>
<path fill="none" stroke="midnightblue" d="M225.03,-238.6C242.46,-222.77 267.52,-201.62 292,-186.5 297.15,-183.32 302.79,-180.33 308.43,-177.61"/>
<polygon fill="midnightblue" stroke="midnightblue" points="222.57,-236.1 217.58,-245.45 227.31,-241.25 222.57,-236.1"/>
</g>
<!-- Node11 -->
<g id="node11" class="node">
<title>Node11</title>
<g id="a_node11"><a xlink:href="../../dd/d47/classleanux_1_1sysdevice_1_1RamDiskDevice.html" target="_top" xlink:title="Say yes to ramdisk devices.">
<polygon fill="none" stroke="black" points="292,-98.5 292,-128.5 402,-128.5 402,-98.5 292,-98.5"/>
<text text-anchor="start" x="300" y="-116.5" font-family="Helvetica,sans-Serif" font-size="10.00">leanux::sysdevice::</text>
<text text-anchor="middle" x="347" y="-105.5" font-family="Helvetica,sans-Serif" font-size="10.00">RamDiskDevice</text>
</a>
</g>
</g>
<!-- Node1&#45;&gt;Node11 -->
<g id="edge10" class="edge">
<title>Node1&#45;&gt;Node11</title>
<path fill="none" stroke="midnightblue" d="M214.52,-236.43C229.69,-209.28 257.55,-165.29 292,-137.5 296.15,-134.15 300.85,-131.17 305.69,-128.55"/>
<polygon fill="midnightblue" stroke="midnightblue" points="211.41,-234.82 209.7,-245.28 217.56,-238.18 211.41,-234.82"/>
</g>
<!-- Node12 -->
<g id="node12" class="node">
<title>Node12</title>
<g id="a_node12"><a xlink:href="../../dd/df8/classleanux_1_1sysdevice_1_1SCSIDevice.html" target="_top" xlink:title="Say yes to SCSI devices.">
<polygon fill="none" stroke="black" points="292,-49.5 292,-79.5 402,-79.5 402,-49.5 292,-49.5"/>
<text text-anchor="start" x="300" y="-67.5" font-family="Helvetica,sans-Serif" font-size="10.00">leanux::sysdevice::</text>
<text text-anchor="middle" x="347" y="-56.5" font-family="Helvetica,sans-Serif" font-size="10.00">SCSIDevice</text>
</a>
</g>
</g>
<!-- Node1&#45;&gt;Node12 -->
<g id="edge11" class="edge">
<title>Node1&#45;&gt;Node12</title>
<path fill="none" stroke="midnightblue" d="M209.35,-235.13C221.17,-198.34 247.71,-130.05 292,-88.5 295.59,-85.13 299.73,-82.18 304.1,-79.61"/>
<polygon fill="midnightblue" stroke="midnightblue" points="205.89,-234.46 206.27,-245.04 212.58,-236.53 205.89,-234.46"/>
</g>
<!-- Node14 -->
<g id="node14" class="node">
<title>Node14</title>
<g id="a_node14"><a xlink:href="../../da/d56/classleanux_1_1sysdevice_1_1VirtioBlockDevice.html" target="_top" xlink:title="Say yes to virtio block devices.">
<polygon fill="none" stroke="black" points="292,-0.5 292,-30.5 402,-30.5 402,-0.5 292,-0.5"/>
<text text-anchor="start" x="300" y="-18.5" font-family="Helvetica,sans-Serif" font-size="10.00">leanux::sysdevice::</text>
<text text-anchor="middle" x="347" y="-7.5" font-family="Helvetica,sans-Serif" font-size="10.00">VirtioBlockDevice</text>
</a>
</g>
</g>
<!-- Node1&#45;&gt;Node14 -->
<g id="edge13" class="edge">
<title>Node1&#45;&gt;Node14</title>
<path fill="none" stroke="midnightblue" d="M205.96,-235.17C214.22,-190.23 237.27,-95.98 292,-39.5 295.28,-36.11 299.13,-33.16 303.23,-30.61"/>
<polygon fill="midnightblue" stroke="midnightblue" points="202.47,-234.78 204.21,-245.23 209.37,-235.98 202.47,-234.78"/>
</g>
<!-- Node2 -->
<g id="node2" class="node">
<title>Node2</title>
<g id="a_node2"><a xlink:href="../../d1/d02/classleanux_1_1sysdevice_1_1SysDevice.html" target="_top" xlink:title="Generic SysDevice, utility class for device detection from a SysDevicePath.">
<polygon fill="none" stroke="black" points="0,-245.5 0,-275.5 110,-275.5 110,-245.5 0,-245.5"/>
<text text-anchor="start" x="8" y="-263.5" font-family="Helvetica,sans-Serif" font-size="10.00">leanux::sysdevice::</text>
<text text-anchor="middle" x="55" y="-252.5" font-family="Helvetica,sans-Serif" font-size="10.00">SysDevice</text>
</a>
</g>
</g>
<!-- Node2&#45;&gt;Node1 -->
<g id="edge1" class="edge">
<title>Node2&#45;&gt;Node1</title>
<path fill="none" stroke="midnightblue" d="M120.27,-260.5C128.75,-260.5 137.38,-260.5 145.67,-260.5"/>
<polygon fill="midnightblue" stroke="midnightblue" points="120.03,-257 110.03,-260.5 120.03,-264 120.03,-257"/>
</g>
<!-- Node13 -->
<g id="node13" class="node">
<title>Node13</title>
<g id="a_node13"><a xlink:href="../../df/db8/classleanux_1_1sysdevice_1_1iSCSIDevice.html" target="_top" xlink:title="Say yes to iSCSI devices.">
<polygon fill="none" stroke="black" points="438,-49.5 438,-79.5 548,-79.5 548,-49.5 438,-49.5"/>
<text text-anchor="start" x="446" y="-67.5" font-family="Helvetica,sans-Serif" font-size="10.00">leanux::sysdevice::</text>
<text text-anchor="middle" x="493" y="-56.5" font-family="Helvetica,sans-Serif" font-size="10.00">iSCSIDevice</text>
</a>
</g>
</g>
<!-- Node12&#45;&gt;Node13 -->
<g id="edge12" class="edge">
<title>Node12&#45;&gt;Node13</title>
<path fill="none" stroke="midnightblue" d="M412.27,-64.5C420.75,-64.5 429.38,-64.5 437.67,-64.5"/>
<polygon fill="midnightblue" stroke="midnightblue" points="412.03,-61 402.03,-64.5 412.03,-68 412.03,-61"/>
</g>
</g>
</svg>
