<?xml version="1.0" encoding="UTF-8" standalone="no"?>
<!DOCTYPE svg PUBLIC "-//W3C//DTD SVG 1.1//EN"
 "http://www.w3.org/Graphics/SVG/1.1/DTD/svg11.dtd">
<!-- Generated by graphviz version 2.43.0 (0)
 -->
<!-- Title: leanux::cpu::CPUStat Pages: 1 -->
<svg width="127pt" height="205pt"
 viewBox="0.00 0.00 127.00 205.00" xmlns="http://www.w3.org/2000/svg" xmlns:xlink="http://www.w3.org/1999/xlink">
<g id="graph0" class="graph" transform="scale(1 1) rotate(0) translate(4 201)">
<title>leanux::cpu::CPUStat</title>
<!-- Node1 -->
<g id="node1" class="node">
<title>Node1</title>
<g id="a_node1"><a xlink:title="CPU usage statistics from /proc/stat.">
<polygon fill="#bfbfbf" stroke="black" points="0,-0.5 0,-19.5 119,-19.5 119,-0.5 0,-0.5"/>
<text text-anchor="middle" x="59.5" y="-7.5" font-family="Helvetica,sans-Serif" font-size="10.00">leanux::cpu::CPUStat</text>
</a>
</g>
</g>
<!-- Node2 -->
<g id="node2" class="node">
<title>Node2</title>
<g id="a_node2"><a xlink:title=" ">
<polygon fill="none" stroke="#bfbfbf" points="34.5,-177.5 34.5,-196.5 84.5,-196.5 84.5,-177.5 34.5,-177.5"/>
<text text-anchor="middle" x="59.5" y="-184.5" font-family="Helvetica,sans-Serif" font-size="10.00">double</text>
</a>
</g>
</g>
<!-- Node2&#45;&gt;Node1 -->
<g id="edge1" class="edge">
<title>Node2&#45;&gt;Node1</title>
<path fill="none" stroke="#9a32cd" stroke-dasharray="5,2" d="M59.5,-166.95C59.5,-129.3 59.5,-46.65 59.5,-19.69"/>
<polygon fill="#9a32cd" stroke="#9a32cd" points="56,-167.08 59.5,-177.08 63,-167.08 56,-167.08"/>
<text text-anchor="middle" x="86" y="-151" font-family="Helvetica,sans-Serif" font-size="10.00"> irq</text>
<text text-anchor="middle" x="86" y="-140" font-family="Helvetica,sans-Serif" font-size="10.00">guest</text>
<text text-anchor="middle" x="86" y="-129" font-family="Helvetica,sans-Serif" font-size="10.00">idle</text>
<text text-anchor="middle" x="86" y="-118" font-family="Helvetica,sans-Serif" font-size="10.00">steal</text>
<text text-anchor="middle" x="86" y="-107" font-family="Helvetica,sans-Serif" font-size="10.00">softirq</text>
<text text-anchor="middle" x="86" y="-96" font-family="Helvetica,sans-Serif" font-size="10.00">user</text>
<text text-anchor="middle" x="86" y="-85" font-family="Helvetica,sans-Serif" font-size="10.00">iowait</text>
<text text-anchor="middle" x="86" y="-74" font-family="Helvetica,sans-Serif" font-size="10.00">nice</text>
<text text-anchor="middle" x="86" y="-63" font-family="Helvetica,sans-Serif" font-size="10.00">guest_nice</text>
<text text-anchor="middle" x="86" y="-52" font-family="Helvetica,sans-Serif" font-size="10.00">system</text>
<text text-anchor="middle" x="86" y="-41" font-family="Helvetica,sans-Serif" font-size="10.00">...</text>
</g>
</g>
</svg>
