<?xml version="1.0" encoding="UTF-8" standalone="no"?>
<!DOCTYPE svg PUBLIC "-//W3C//DTD SVG 1.1//EN"
 "http://www.w3.org/Graphics/SVG/1.1/DTD/svg11.dtd">
<!-- Generated by graphviz version 2.43.0 (0)
 -->
<!-- Title: tools/lrep/lrep.cpp Pages: 1 -->
<svg width="1780pt" height="196pt"
 viewBox="0.00 0.00 1779.50 196.00" xmlns="http://www.w3.org/2000/svg" xmlns:xlink="http://www.w3.org/1999/xlink">
<g id="graph0" class="graph" transform="scale(1 1) rotate(0) translate(4 192)">
<title>tools/lrep/lrep.cpp</title>
<!-- Node1 -->
<g id="node1" class="node">
<title>Node1</title>
<g id="a_node1"><a xlink:title=" ">
<polygon fill="#bfbfbf" stroke="black" points="957,-168.5 957,-187.5 1061,-187.5 1061,-168.5 957,-168.5"/>
<text text-anchor="middle" x="1009" y="-175.5" font-family="Helvetica,sans-Serif" font-size="10.00">tools/lrep/lrep.cpp</text>
</a>
</g>
</g>
<!-- Node2 -->
<g id="node2" class="node">
<title>Node2</title>
<g id="a_node2"><a xlink:title=" ">
<polygon fill="none" stroke="#bfbfbf" points="542,-0.5 542,-19.5 574,-19.5 574,-0.5 542,-0.5"/>
<text text-anchor="middle" x="558" y="-7.5" font-family="Helvetica,sans-Serif" font-size="10.00">list</text>
</a>
</g>
</g>
<!-- Node1&#45;&gt;Node2 -->
<g id="edge1" class="edge">
<title>Node1&#45;&gt;Node2</title>
<path fill="none" stroke="midnightblue" d="M956.92,-177.85C893.86,-177 785.71,-169.47 702,-132 646.33,-107.08 595.24,-54.11 571.68,-27.29"/>
<polygon fill="midnightblue" stroke="midnightblue" points="574.21,-24.86 565.03,-19.57 568.9,-29.43 574.21,-24.86"/>
</g>
<!-- Node3 -->
<g id="node3" class="node">
<title>Node3</title>
<g id="a_node3"><a xlink:title=" ">
<polygon fill="none" stroke="#bfbfbf" points="736,-0.5 736,-19.5 780,-19.5 780,-0.5 736,-0.5"/>
<text text-anchor="middle" x="758" y="-7.5" font-family="Helvetica,sans-Serif" font-size="10.00">string</text>
</a>
</g>
</g>
<!-- Node1&#45;&gt;Node3 -->
<g id="edge2" class="edge">
<title>Node1&#45;&gt;Node3</title>
<path fill="none" stroke="midnightblue" d="M1027.44,-168.4C1067.41,-148.65 1155.52,-98.5 1118,-56 1096.44,-31.58 874.58,-17.24 790.27,-12.64"/>
<polygon fill="midnightblue" stroke="midnightblue" points="790.4,-9.14 780.23,-12.1 790.03,-16.13 790.4,-9.14"/>
</g>
<!-- Node4 -->
<g id="node4" class="node">
<title>Node4</title>
<g id="a_node4"><a xlink:title=" ">
<polygon fill="none" stroke="#bfbfbf" points="0,-0.5 0,-19.5 60,-19.5 60,-0.5 0,-0.5"/>
<text text-anchor="middle" x="30" y="-7.5" font-family="Helvetica,sans-Serif" font-size="10.00">iostream</text>
</a>
</g>
</g>
<!-- Node1&#45;&gt;Node4 -->
<g id="edge3" class="edge">
<title>Node1&#45;&gt;Node4</title>
<path fill="none" stroke="midnightblue" d="M956.99,-176.34C803.54,-174.03 354.53,-164.59 212,-132 148.68,-117.52 127.96,-116.29 77,-76 60.67,-63.09 47.38,-43.09 39.16,-28.68"/>
<polygon fill="midnightblue" stroke="midnightblue" points="42.15,-26.87 34.29,-19.76 36,-30.22 42.15,-26.87"/>
</g>
<!-- Node5 -->
<g id="node5" class="node">
<title>Node5</title>
<g id="a_node5"><a xlink:title=" ">
<polygon fill="none" stroke="#bfbfbf" points="324,-112.5 324,-131.5 380,-131.5 380,-112.5 324,-112.5"/>
<text text-anchor="middle" x="352" y="-119.5" font-family="Helvetica,sans-Serif" font-size="10.00">iomanip</text>
</a>
</g>
</g>
<!-- Node1&#45;&gt;Node5 -->
<g id="edge4" class="edge">
<title>Node1&#45;&gt;Node5</title>
<path fill="none" stroke="midnightblue" d="M956.92,-176.02C850.05,-173.4 598.47,-164.05 390,-132 389.9,-131.98 389.8,-131.97 389.7,-131.95"/>
<polygon fill="midnightblue" stroke="midnightblue" points="390.59,-128.56 380.12,-130.19 389.32,-135.44 390.59,-128.56"/>
</g>
<!-- Node6 -->
<g id="node6" class="node">
<title>Node6</title>
<g id="a_node6"><a xlink:title=" ">
<polygon fill="none" stroke="#bfbfbf" points="1165,-56.5 1165,-75.5 1233,-75.5 1233,-56.5 1165,-56.5"/>
<text text-anchor="middle" x="1199" y="-63.5" font-family="Helvetica,sans-Serif" font-size="10.00">sys/time.h</text>
</a>
</g>
</g>
<!-- Node1&#45;&gt;Node6 -->
<g id="edge5" class="edge">
<title>Node1&#45;&gt;Node6</title>
<path fill="none" stroke="midnightblue" d="M1061.16,-168.64C1089.68,-162.15 1124.5,-150.95 1151,-132 1168.24,-119.67 1181.86,-99.24 1190.12,-84.58"/>
<polygon fill="midnightblue" stroke="midnightblue" points="1193.33,-85.99 1194.96,-75.52 1187.16,-82.69 1193.33,-85.99"/>
</g>
<!-- Node7 -->
<g id="node7" class="node">
<title>Node7</title>
<g id="a_node7"><a xlink:href="../../d9/db2/block_8hpp.html" target="_top" xlink:title=" ">
<polygon fill="none" stroke="black" points="207,-56.5 207,-75.5 271,-75.5 271,-56.5 207,-56.5"/>
<text text-anchor="middle" x="239" y="-63.5" font-family="Helvetica,sans-Serif" font-size="10.00">block.hpp</text>
</a>
</g>
</g>
<!-- Node1&#45;&gt;Node7 -->
<g id="edge6" class="edge">
<title>Node1&#45;&gt;Node7</title>
<path fill="none" stroke="midnightblue" d="M956.87,-175.52C805.66,-170.95 373.9,-155.94 315,-132 289.49,-121.63 266.41,-99.15 252.55,-83.56"/>
<polygon fill="midnightblue" stroke="midnightblue" points="255,-81.04 245.84,-75.72 249.68,-85.59 255,-81.04"/>
</g>
<!-- Node14 -->
<g id="node14" class="node">
<title>Node14</title>
<g id="a_node14"><a xlink:href="../../df/dbe/cpu_8hpp.html" target="_top" xlink:title=" ">
<polygon fill="none" stroke="black" points="95.5,-56.5 95.5,-75.5 150.5,-75.5 150.5,-56.5 95.5,-56.5"/>
<text text-anchor="middle" x="123" y="-63.5" font-family="Helvetica,sans-Serif" font-size="10.00">cpu.hpp</text>
</a>
</g>
</g>
<!-- Node1&#45;&gt;Node14 -->
<g id="edge16" class="edge">
<title>Node1&#45;&gt;Node14</title>
<path fill="none" stroke="midnightblue" d="M956.95,-176.05C812.25,-173.07 407.32,-162.18 278,-132 229.79,-120.75 177.41,-95.87 147.56,-80.36"/>
<polygon fill="midnightblue" stroke="midnightblue" points="149.17,-77.25 138.69,-75.68 145.9,-83.44 149.17,-77.25"/>
</g>
<!-- Node15 -->
<g id="node15" class="node">
<title>Node15</title>
<g id="a_node15"><a xlink:title=" ">
<polygon fill="none" stroke="#bfbfbf" points="1251,-56.5 1251,-75.5 1355,-75.5 1355,-56.5 1251,-56.5"/>
<text text-anchor="middle" x="1303" y="-63.5" font-family="Helvetica,sans-Serif" font-size="10.00">leanux&#45;config.hpp</text>
</a>
</g>
</g>
<!-- Node1&#45;&gt;Node15 -->
<g id="edge20" class="edge">
<title>Node1&#45;&gt;Node15</title>
<path fill="none" stroke="midnightblue" d="M1049.65,-168.44C1083.72,-160.68 1133.34,-148.03 1175,-132 1212.95,-117.4 1254.52,-95.01 1279.68,-80.69"/>
<polygon fill="midnightblue" stroke="midnightblue" points="1281.55,-83.64 1288.48,-75.62 1278.06,-77.58 1281.55,-83.64"/>
</g>
<!-- Node16 -->
<g id="node16" class="node">
<title>Node16</title>
<g id="a_node16"><a xlink:title=" ">
<polygon fill="none" stroke="#bfbfbf" points="737.5,-112.5 737.5,-131.5 826.5,-131.5 826.5,-112.5 737.5,-112.5"/>
<text text-anchor="middle" x="782" y="-119.5" font-family="Helvetica,sans-Serif" font-size="10.00">lrep&#45;config.hpp</text>
</a>
</g>
</g>
<!-- Node1&#45;&gt;Node16 -->
<g id="edge21" class="edge">
<title>Node1&#45;&gt;Node16</title>
<path fill="none" stroke="midnightblue" d="M973.03,-168.44C933.68,-159.08 870.51,-144.06 827.69,-133.87"/>
<polygon fill="midnightblue" stroke="midnightblue" points="828.34,-130.43 817.8,-131.52 826.72,-137.24 828.34,-130.43"/>
</g>
<!-- Node17 -->
<g id="node17" class="node">
<title>Node17</title>
<g id="a_node17"><a xlink:href="../../d4/d2d/net_8hpp.html" target="_top" xlink:title=" ">
<polygon fill="none" stroke="black" points="398.5,-112.5 398.5,-131.5 451.5,-131.5 451.5,-112.5 398.5,-112.5"/>
<text text-anchor="middle" x="425" y="-119.5" font-family="Helvetica,sans-Serif" font-size="10.00">net.hpp</text>
</a>
</g>
</g>
<!-- Node1&#45;&gt;Node17 -->
<g id="edge22" class="edge">
<title>Node1&#45;&gt;Node17</title>
<path fill="none" stroke="midnightblue" d="M956.75,-174.62C860.22,-169.79 647.59,-157.09 470,-132 467.28,-131.62 464.48,-131.17 461.67,-130.69"/>
<polygon fill="midnightblue" stroke="midnightblue" points="462.03,-127.2 451.56,-128.84 460.77,-134.09 462.03,-127.2"/>
</g>
<!-- Node20 -->
<g id="node20" class="node">
<title>Node20</title>
<g id="a_node20"><a xlink:href="../../d3/d27/persist_8hpp.html" target="_top" xlink:title=" ">
<polygon fill="none" stroke="black" points="844.5,-112.5 844.5,-131.5 915.5,-131.5 915.5,-112.5 844.5,-112.5"/>
<text text-anchor="middle" x="880" y="-119.5" font-family="Helvetica,sans-Serif" font-size="10.00">persist.hpp</text>
</a>
</g>
</g>
<!-- Node1&#45;&gt;Node20 -->
<g id="edge31" class="edge">
<title>Node1&#45;&gt;Node20</title>
<path fill="none" stroke="midnightblue" d="M988.56,-168.44C967.33,-159.56 933.9,-145.56 909.75,-135.45"/>
<polygon fill="midnightblue" stroke="midnightblue" points="910.92,-132.15 900.34,-131.52 908.22,-138.61 910.92,-132.15"/>
</g>
<!-- Node22 -->
<g id="node22" class="node">
<title>Node22</title>
<g id="a_node22"><a xlink:href="../../d5/d08/device_8hpp.html" target="_top" xlink:title=" ">
<polygon fill="none" stroke="black" points="479,-112.5 479,-131.5 549,-131.5 549,-112.5 479,-112.5"/>
<text text-anchor="middle" x="514" y="-119.5" font-family="Helvetica,sans-Serif" font-size="10.00">device.hpp</text>
</a>
</g>
</g>
<!-- Node1&#45;&gt;Node22 -->
<g id="edge35" class="edge">
<title>Node1&#45;&gt;Node22</title>
<path fill="none" stroke="midnightblue" d="M956.99,-173.13C873.61,-166.61 704.97,-152.17 563,-132 561.72,-131.82 560.43,-131.63 559.12,-131.43"/>
<polygon fill="midnightblue" stroke="midnightblue" points="559.44,-127.93 549.01,-129.79 558.32,-134.84 559.44,-127.93"/>
</g>
<!-- Node23 -->
<g id="node23" class="node">
<title>Node23</title>
<g id="a_node23"><a xlink:href="../../dd/d90/system_8hpp.html" target="_top" xlink:title=" ">
<polygon fill="none" stroke="black" points="972,-112.5 972,-131.5 1046,-131.5 1046,-112.5 972,-112.5"/>
<text text-anchor="middle" x="1009" y="-119.5" font-family="Helvetica,sans-Serif" font-size="10.00">system.hpp</text>
</a>
</g>
</g>
<!-- Node1&#45;&gt;Node23 -->
<g id="edge40" class="edge">
<title>Node1&#45;&gt;Node23</title>
<path fill="none" stroke="midnightblue" d="M1009,-168.08C1009,-161.01 1009,-150.86 1009,-141.99"/>
<polygon fill="midnightblue" stroke="midnightblue" points="1012.5,-141.75 1009,-131.75 1005.5,-141.75 1012.5,-141.75"/>
</g>
<!-- Node24 -->
<g id="node24" class="node">
<title>Node24</title>
<g id="a_node24"><a xlink:title=" ">
<polygon fill="none" stroke="#bfbfbf" points="925,-56.5 925,-75.5 981,-75.5 981,-56.5 925,-56.5"/>
<text text-anchor="middle" x="953" y="-63.5" font-family="Helvetica,sans-Serif" font-size="10.00">unistd.h</text>
</a>
</g>
</g>
<!-- Node1&#45;&gt;Node24 -->
<g id="edge64" class="edge">
<title>Node1&#45;&gt;Node24</title>
<path fill="none" stroke="midnightblue" d="M996.23,-168.23C985.52,-160.14 970.76,-147.11 963,-132 955.58,-117.56 953.32,-99.11 952.77,-85.56"/>
<polygon fill="midnightblue" stroke="midnightblue" points="956.27,-85.47 952.64,-75.52 949.27,-85.56 956.27,-85.47"/>
</g>
<!-- Node25 -->
<g id="node25" class="node">
<title>Node25</title>
<g id="a_node25"><a xlink:title=" ">
<polygon fill="none" stroke="#bfbfbf" points="1037,-56.5 1037,-75.5 1109,-75.5 1109,-56.5 1037,-56.5"/>
<text text-anchor="middle" x="1073" y="-63.5" font-family="Helvetica,sans-Serif" font-size="10.00">sys/types.h</text>
</a>
</g>
</g>
<!-- Node1&#45;&gt;Node25 -->
<g id="edge59" class="edge">
<title>Node1&#45;&gt;Node25</title>
<path fill="none" stroke="midnightblue" d="M1020.92,-168.32C1031.38,-160.09 1046.25,-146.82 1055,-132 1063.46,-117.66 1068.08,-99.2 1070.51,-85.62"/>
<polygon fill="midnightblue" stroke="midnightblue" points="1074,-85.97 1072.07,-75.55 1067.08,-84.9 1074,-85.97"/>
</g>
<!-- Node26 -->
<g id="node26" class="node">
<title>Node26</title>
<g id="a_node26"><a xlink:href="../../d0/d3f/util_8hpp.html" target="_top" xlink:title=" ">
<polygon fill="none" stroke="black" points="1276.5,-112.5 1276.5,-131.5 1329.5,-131.5 1329.5,-112.5 1276.5,-112.5"/>
<text text-anchor="middle" x="1303" y="-119.5" font-family="Helvetica,sans-Serif" font-size="10.00">util.hpp</text>
</a>
</g>
</g>
<!-- Node1&#45;&gt;Node26 -->
<g id="edge45" class="edge">
<title>Node1&#45;&gt;Node26</title>
<path fill="none" stroke="midnightblue" d="M1055.59,-168.44C1114.03,-157.71 1213.03,-139.53 1266.36,-129.73"/>
<polygon fill="midnightblue" stroke="midnightblue" points="1267.19,-133.14 1276.39,-127.89 1265.92,-126.25 1267.19,-133.14"/>
</g>
<!-- Node31 -->
<g id="node31" class="node">
<title>Node31</title>
<g id="a_node31"><a xlink:title=" ">
<polygon fill="none" stroke="#bfbfbf" points="1718.5,-56.5 1718.5,-75.5 1771.5,-75.5 1771.5,-56.5 1718.5,-56.5"/>
<text text-anchor="middle" x="1745" y="-63.5" font-family="Helvetica,sans-Serif" font-size="10.00">string.h</text>
</a>
</g>
</g>
<!-- Node1&#45;&gt;Node31 -->
<g id="edge63" class="edge">
<title>Node1&#45;&gt;Node31</title>
<path fill="none" stroke="midnightblue" d="M1061.05,-175.31C1127.1,-171.95 1243.85,-161.92 1339,-132 1357.58,-126.16 1359.34,-117.59 1378,-112 1516.99,-70.38 1561.96,-101.1 1708.1,-76.09"/>
<polygon fill="midnightblue" stroke="midnightblue" points="1709.1,-79.47 1718.33,-74.28 1707.88,-72.58 1709.1,-79.47"/>
</g>
<!-- Node32 -->
<g id="node32" class="node">
<title>Node32</title>
<g id="a_node32"><a xlink:href="../../db/da3/vmem_8hpp.html" target="_top" xlink:title=" ">
<polygon fill="none" stroke="black" points="643.5,-56.5 643.5,-75.5 712.5,-75.5 712.5,-56.5 643.5,-56.5"/>
<text text-anchor="middle" x="678" y="-63.5" font-family="Helvetica,sans-Serif" font-size="10.00">vmem.hpp</text>
</a>
</g>
</g>
<!-- Node1&#45;&gt;Node32 -->
<g id="edge55" class="edge">
<title>Node1&#45;&gt;Node32</title>
<path fill="none" stroke="midnightblue" d="M956.78,-173.16C886.7,-167.24 766.65,-154.18 729,-132 710.14,-120.89 695.65,-99.93 687.01,-84.81"/>
<polygon fill="midnightblue" stroke="midnightblue" points="690.02,-83.03 682.2,-75.88 683.86,-86.35 690.02,-83.03"/>
</g>
<!-- Node33 -->
<g id="node33" class="node">
<title>Node33</title>
<g id="a_node33"><a xlink:title=" ">
<polygon fill="none" stroke="#bfbfbf" points="1386.5,-112.5 1386.5,-131.5 1473.5,-131.5 1473.5,-112.5 1386.5,-112.5"/>
<text text-anchor="middle" x="1430" y="-119.5" font-family="Helvetica,sans-Serif" font-size="10.00">sys/resource.h</text>
</a>
</g>
</g>
<!-- Node1&#45;&gt;Node33 -->
<g id="edge58" class="edge">
<title>Node1&#45;&gt;Node33</title>
<path fill="none" stroke="midnightblue" d="M1061.06,-171.05C1131.61,-162.88 1261.46,-147.42 1372,-132 1373.45,-131.8 1374.92,-131.59 1376.41,-131.38"/>
<polygon fill="midnightblue" stroke="midnightblue" points="1376.93,-134.84 1386.32,-129.92 1375.92,-127.91 1376.93,-134.84"/>
</g>
<!-- Node34 -->
<g id="node34" class="node">
<title>Node34</title>
<g id="a_node34"><a xlink:title=" ">
<polygon fill="none" stroke="#bfbfbf" points="1491.5,-112.5 1491.5,-131.5 1542.5,-131.5 1542.5,-112.5 1491.5,-112.5"/>
<text text-anchor="middle" x="1517" y="-119.5" font-family="Helvetica,sans-Serif" font-size="10.00">errno.h</text>
</a>
</g>
</g>
<!-- Node1&#45;&gt;Node34 -->
<g id="edge60" class="edge">
<title>Node1&#45;&gt;Node34</title>
<path fill="none" stroke="midnightblue" d="M1061.28,-174.84C1147.23,-170.69 1323.8,-159.57 1481.6,-131.99"/>
<polygon fill="midnightblue" stroke="midnightblue" points="1482.25,-135.43 1491.48,-130.24 1481.02,-128.54 1482.25,-135.43"/>
</g>
<!-- Node35 -->
<g id="node35" class="node">
<title>Node35</title>
<g id="a_node35"><a xlink:title=" ">
<polygon fill="none" stroke="#bfbfbf" points="1560.5,-112.5 1560.5,-131.5 1611.5,-131.5 1611.5,-112.5 1560.5,-112.5"/>
<text text-anchor="middle" x="1586" y="-119.5" font-family="Helvetica,sans-Serif" font-size="10.00">math.h</text>
</a>
</g>
</g>
<!-- Node1&#45;&gt;Node35 -->
<g id="edge61" class="edge">
<title>Node1&#45;&gt;Node35</title>
<path fill="none" stroke="midnightblue" d="M1061.04,-175.73C1156.49,-172.74 1365.95,-163.12 1550.6,-131.96"/>
<polygon fill="midnightblue" stroke="midnightblue" points="1551.22,-135.41 1560.49,-130.27 1550.04,-128.51 1551.22,-135.41"/>
</g>
<!-- Node36 -->
<g id="node36" class="node">
<title>Node36</title>
<g id="a_node36"><a xlink:title=" ">
<polygon fill="none" stroke="#bfbfbf" points="1630,-112.5 1630,-131.5 1694,-131.5 1694,-112.5 1630,-112.5"/>
<text text-anchor="middle" x="1662" y="-119.5" font-family="Helvetica,sans-Serif" font-size="10.00">sys/stat.h</text>
</a>
</g>
</g>
<!-- Node1&#45;&gt;Node36 -->
<g id="edge62" class="edge">
<title>Node1&#45;&gt;Node36</title>
<path fill="none" stroke="midnightblue" d="M1061.26,-175.67C1165.65,-172.47 1407.45,-162.33 1619.76,-131.97"/>
<polygon fill="midnightblue" stroke="midnightblue" points="1620.46,-135.41 1629.85,-130.51 1619.45,-128.48 1620.46,-135.41"/>
</g>
<!-- Node37 -->
<g id="node37" class="node">
<title>Node37</title>
<g id="a_node37"><a xlink:title=" ">
<polygon fill="none" stroke="#bfbfbf" points="1712.5,-112.5 1712.5,-131.5 1769.5,-131.5 1769.5,-112.5 1712.5,-112.5"/>
<text text-anchor="middle" x="1741" y="-119.5" font-family="Helvetica,sans-Serif" font-size="10.00">typeinfo</text>
</a>
</g>
</g>
<!-- Node1&#45;&gt;Node37 -->
<g id="edge65" class="edge">
<title>Node1&#45;&gt;Node37</title>
<path fill="none" stroke="midnightblue" d="M1061.12,-176.6C1175.52,-175.08 1457.24,-167.83 1702.3,-131.81"/>
<polygon fill="midnightblue" stroke="midnightblue" points="1703.09,-135.24 1712.47,-130.3 1702.06,-128.31 1703.09,-135.24"/>
</g>
<!-- Node7&#45;&gt;Node2 -->
<g id="edge9" class="edge">
<title>Node7&#45;&gt;Node2</title>
<path fill="none" stroke="midnightblue" d="M271.41,-59.98C322.6,-51.98 425.25,-35.63 512,-20 518.36,-18.85 525.2,-17.55 531.62,-16.3"/>
<polygon fill="midnightblue" stroke="midnightblue" points="532.71,-19.65 541.84,-14.28 531.35,-12.79 532.71,-19.65"/>
</g>
<!-- Node7&#45;&gt;Node3 -->
<g id="edge7" class="edge">
<title>Node7&#45;&gt;Node3</title>
<path fill="none" stroke="midnightblue" d="M271.3,-61.29C285.87,-59.64 303.3,-57.69 319,-56 470.8,-39.68 652.27,-21.5 725.24,-14.25"/>
<polygon fill="midnightblue" stroke="midnightblue" points="726,-17.69 735.61,-13.22 725.31,-10.72 726,-17.69"/>
</g>
<!-- Node7&#45;&gt;Node4 -->
<g id="edge12" class="edge">
<title>Node7&#45;&gt;Node4</title>
<path fill="none" stroke="midnightblue" d="M206.8,-56.68C170.04,-47.18 109.86,-31.63 70.09,-21.36"/>
<polygon fill="midnightblue" stroke="midnightblue" points="70.76,-17.92 60.2,-18.8 69,-24.69 70.76,-17.92"/>
</g>
<!-- Node8 -->
<g id="node8" class="node">
<title>Node8</title>
<g id="a_node8"><a xlink:title=" ">
<polygon fill="none" stroke="#bfbfbf" points="79.5,-0.5 79.5,-19.5 136.5,-19.5 136.5,-0.5 79.5,-0.5"/>
<text text-anchor="middle" x="108" y="-7.5" font-family="Helvetica,sans-Serif" font-size="10.00">ostream</text>
</a>
</g>
</g>
<!-- Node7&#45;&gt;Node8 -->
<g id="edge8" class="edge">
<title>Node7&#45;&gt;Node8</title>
<path fill="none" stroke="midnightblue" d="M218.24,-56.44C196.68,-47.56 162.74,-33.56 138.21,-23.45"/>
<polygon fill="midnightblue" stroke="midnightblue" points="139.24,-20.09 128.66,-19.52 136.57,-26.56 139.24,-20.09"/>
</g>
<!-- Node9 -->
<g id="node9" class="node">
<title>Node9</title>
<g id="a_node9"><a xlink:title=" ">
<polygon fill="none" stroke="#bfbfbf" points="155,-0.5 155,-19.5 193,-19.5 193,-0.5 155,-0.5"/>
<text text-anchor="middle" x="174" y="-7.5" font-family="Helvetica,sans-Serif" font-size="10.00">map</text>
</a>
</g>
</g>
<!-- Node7&#45;&gt;Node9 -->
<g id="edge10" class="edge">
<title>Node7&#45;&gt;Node9</title>
<path fill="none" stroke="midnightblue" d="M228.56,-56.32C218.85,-48.26 204.18,-36.08 192.5,-26.37"/>
<polygon fill="midnightblue" stroke="midnightblue" points="194.56,-23.53 184.63,-19.83 190.09,-28.92 194.56,-23.53"/>
</g>
<!-- Node10 -->
<g id="node10" class="node">
<title>Node10</title>
<g id="a_node10"><a xlink:title=" ">
<polygon fill="none" stroke="#bfbfbf" points="455.5,-0.5 455.5,-19.5 502.5,-19.5 502.5,-0.5 455.5,-0.5"/>
<text text-anchor="middle" x="479" y="-7.5" font-family="Helvetica,sans-Serif" font-size="10.00">vector</text>
</a>
</g>
</g>
<!-- Node7&#45;&gt;Node10 -->
<g id="edge11" class="edge">
<title>Node7&#45;&gt;Node10</title>
<path fill="none" stroke="midnightblue" d="M271.03,-58.58C309.9,-50.66 377.65,-36.5 445.27,-20.08"/>
<polygon fill="midnightblue" stroke="midnightblue" points="446.36,-23.41 455.25,-17.64 444.7,-16.61 446.36,-23.41"/>
</g>
<!-- Node11 -->
<g id="node11" class="node">
<title>Node11</title>
<g id="a_node11"><a xlink:title=" ">
<polygon fill="none" stroke="#bfbfbf" points="211.5,-0.5 211.5,-19.5 264.5,-19.5 264.5,-0.5 211.5,-0.5"/>
<text text-anchor="middle" x="238" y="-7.5" font-family="Helvetica,sans-Serif" font-size="10.00">stdlib.h</text>
</a>
</g>
</g>
<!-- Node7&#45;&gt;Node11 -->
<g id="edge13" class="edge">
<title>Node7&#45;&gt;Node11</title>
<path fill="none" stroke="midnightblue" d="M238.83,-56.08C238.7,-49.01 238.52,-38.86 238.35,-29.99"/>
<polygon fill="midnightblue" stroke="midnightblue" points="241.85,-29.68 238.16,-19.75 234.85,-29.81 241.85,-29.68"/>
</g>
<!-- Node12 -->
<g id="node12" class="node">
<title>Node12</title>
<g id="a_node12"><a xlink:title=" ">
<polygon fill="none" stroke="#bfbfbf" points="283,-0.5 283,-19.5 369,-19.5 369,-0.5 283,-0.5"/>
<text text-anchor="middle" x="326" y="-7.5" font-family="Helvetica,sans-Serif" font-size="10.00">linux/kdev_t.h</text>
</a>
</g>
</g>
<!-- Node7&#45;&gt;Node12 -->
<g id="edge14" class="edge">
<title>Node7&#45;&gt;Node12</title>
<path fill="none" stroke="midnightblue" d="M252.98,-56.32C266.55,-47.9 287.38,-34.97 303.32,-25.07"/>
<polygon fill="midnightblue" stroke="midnightblue" points="305.41,-27.9 312.06,-19.65 301.71,-21.95 305.41,-27.9"/>
</g>
<!-- Node13 -->
<g id="node13" class="node">
<title>Node13</title>
<g id="a_node13"><a xlink:title=" ">
<polygon fill="none" stroke="#bfbfbf" points="387,-0.5 387,-19.5 437,-19.5 437,-0.5 387,-0.5"/>
<text text-anchor="middle" x="412" y="-7.5" font-family="Helvetica,sans-Serif" font-size="10.00">stdio.h</text>
</a>
</g>
</g>
<!-- Node7&#45;&gt;Node13 -->
<g id="edge15" class="edge">
<title>Node7&#45;&gt;Node13</title>
<path fill="none" stroke="midnightblue" d="M266.41,-56.44C296.46,-47.06 344.73,-32 377.37,-21.81"/>
<polygon fill="midnightblue" stroke="midnightblue" points="378.46,-25.14 386.96,-18.82 376.37,-18.45 378.46,-25.14"/>
</g>
<!-- Node14&#45;&gt;Node3 -->
<g id="edge17" class="edge">
<title>Node14&#45;&gt;Node3</title>
<path fill="none" stroke="midnightblue" d="M150.75,-61.41C164.88,-59.64 182.34,-57.57 198,-56 398.33,-35.94 639.69,-18.97 725.67,-13.15"/>
<polygon fill="midnightblue" stroke="midnightblue" points="726.09,-16.63 735.83,-12.47 725.62,-9.65 726.09,-16.63"/>
</g>
<!-- Node14&#45;&gt;Node8 -->
<g id="edge18" class="edge">
<title>Node14&#45;&gt;Node8</title>
<path fill="none" stroke="midnightblue" d="M120.52,-56.08C118.51,-48.85 115.61,-38.41 113.11,-29.4"/>
<polygon fill="midnightblue" stroke="midnightblue" points="116.48,-28.45 110.43,-19.75 109.74,-30.32 116.48,-28.45"/>
</g>
<!-- Node14&#45;&gt;Node9 -->
<g id="edge19" class="edge">
<title>Node14&#45;&gt;Node9</title>
<path fill="none" stroke="midnightblue" d="M131.42,-56.08C138.85,-48.22 149.85,-36.57 158.81,-27.08"/>
<polygon fill="midnightblue" stroke="midnightblue" points="161.41,-29.42 165.74,-19.75 156.32,-24.62 161.41,-29.42"/>
</g>
<!-- Node17&#45;&gt;Node2 -->
<g id="edge27" class="edge">
<title>Node17&#45;&gt;Node2</title>
<path fill="none" stroke="midnightblue" d="M425.98,-112.25C427.97,-98.55 433.65,-71.94 449,-56 471.27,-32.88 507.15,-21.2 531.61,-15.62"/>
<polygon fill="midnightblue" stroke="midnightblue" points="532.57,-18.99 541.64,-13.52 531.14,-12.14 532.57,-18.99"/>
</g>
<!-- Node17&#45;&gt;Node3 -->
<g id="edge25" class="edge">
<title>Node17&#45;&gt;Node3</title>
<path fill="none" stroke="midnightblue" d="M444.55,-112.46C475.17,-99.28 536.49,-73.64 590,-56 636.65,-40.62 691.85,-26.62 725.89,-18.45"/>
<polygon fill="midnightblue" stroke="midnightblue" points="726.83,-21.82 735.75,-16.11 725.21,-15.01 726.83,-21.82"/>
</g>
<!-- Node17&#45;&gt;Node8 -->
<g id="edge26" class="edge">
<title>Node17&#45;&gt;Node8</title>
<path fill="none" stroke="midnightblue" d="M398.35,-113.94C395.21,-113.22 392.04,-112.56 389,-112 322.31,-99.75 131.03,-126.7 86,-76 73.94,-62.43 84.03,-41.98 94.18,-27.66"/>
<polygon fill="midnightblue" stroke="midnightblue" points="97.01,-29.71 100.3,-19.64 91.45,-25.46 97.01,-29.71"/>
</g>
<!-- Node17&#45;&gt;Node9 -->
<g id="edge28" class="edge">
<title>Node17&#45;&gt;Node9</title>
<path fill="none" stroke="midnightblue" d="M398.3,-114.14C395.17,-113.39 392.02,-112.66 389,-112 304.62,-93.52 263.98,-131.76 198,-76 184.38,-64.49 178.49,-44.52 175.94,-29.74"/>
<polygon fill="midnightblue" stroke="midnightblue" points="179.39,-29.12 174.57,-19.68 172.45,-30.06 179.39,-29.12"/>
</g>
<!-- Node17&#45;&gt;Node10 -->
<g id="edge29" class="edge">
<title>Node17&#45;&gt;Node10</title>
<path fill="none" stroke="midnightblue" d="M398.3,-113.36C370.01,-104.65 328.16,-89.84 319,-76 314.09,-68.59 313.63,-63.09 319,-56 319.98,-54.7 398.92,-32.92 445.54,-20.14"/>
<polygon fill="midnightblue" stroke="midnightblue" points="446.51,-23.51 455.23,-17.49 444.67,-16.75 446.51,-23.51"/>
</g>
<!-- Node18 -->
<g id="node18" class="node">
<title>Node18</title>
<g id="a_node18"><a xlink:href="../../d3/d44/oops_8hpp.html" target="_top" xlink:title=" ">
<polygon fill="none" stroke="black" points="807.5,-56.5 807.5,-75.5 868.5,-75.5 868.5,-56.5 807.5,-56.5"/>
<text text-anchor="middle" x="838" y="-63.5" font-family="Helvetica,sans-Serif" font-size="10.00">oops.hpp</text>
</a>
</g>
</g>
<!-- Node17&#45;&gt;Node18 -->
<g id="edge23" class="edge">
<title>Node17&#45;&gt;Node18</title>
<path fill="none" stroke="midnightblue" d="M451.58,-115.28C457.62,-114.09 464.02,-112.92 470,-112 612.11,-90.06 652.19,-100.1 797.24,-76.12"/>
<polygon fill="midnightblue" stroke="midnightblue" points="798.13,-79.53 807.41,-74.42 796.97,-72.62 798.13,-79.53"/>
</g>
<!-- Node19 -->
<g id="node19" class="node">
<title>Node19</title>
<g id="a_node19"><a xlink:title=" ">
<polygon fill="none" stroke="#bfbfbf" points="327.5,-56.5 327.5,-75.5 396.5,-75.5 396.5,-56.5 327.5,-56.5"/>
<text text-anchor="middle" x="362" y="-63.5" font-family="Helvetica,sans-Serif" font-size="10.00">arpa/inet.h</text>
</a>
</g>
</g>
<!-- Node17&#45;&gt;Node19 -->
<g id="edge30" class="edge">
<title>Node17&#45;&gt;Node19</title>
<path fill="none" stroke="midnightblue" d="M414.88,-112.32C405.47,-104.26 391.26,-92.08 379.93,-82.37"/>
<polygon fill="midnightblue" stroke="midnightblue" points="382.18,-79.68 372.31,-75.83 377.62,-85 382.18,-79.68"/>
</g>
<!-- Node18&#45;&gt;Node3 -->
<g id="edge24" class="edge">
<title>Node18&#45;&gt;Node3</title>
<path fill="none" stroke="midnightblue" d="M825.15,-56.32C812.78,-47.98 793.87,-35.21 779.26,-25.35"/>
<polygon fill="midnightblue" stroke="midnightblue" points="781.07,-22.35 770.82,-19.65 777.15,-28.15 781.07,-22.35"/>
</g>
<!-- Node20&#45;&gt;Node3 -->
<g id="edge33" class="edge">
<title>Node20&#45;&gt;Node3</title>
<path fill="none" stroke="midnightblue" d="M882.48,-112.48C885.84,-99.08 890.09,-72.89 878,-56 858.01,-28.09 818.53,-17.47 790.31,-13.45"/>
<polygon fill="midnightblue" stroke="midnightblue" points="790.46,-9.94 780.11,-12.2 789.61,-16.89 790.46,-9.94"/>
</g>
<!-- Node20&#45;&gt;Node18 -->
<g id="edge32" class="edge">
<title>Node20&#45;&gt;Node18</title>
<path fill="none" stroke="midnightblue" d="M873.06,-112.08C867.07,-104.38 858.25,-93.03 850.95,-83.65"/>
<polygon fill="midnightblue" stroke="midnightblue" points="853.71,-81.5 844.81,-75.75 848.18,-85.79 853.71,-81.5"/>
</g>
<!-- Node21 -->
<g id="node21" class="node">
<title>Node21</title>
<g id="a_node21"><a xlink:title=" ">
<polygon fill="none" stroke="#bfbfbf" points="730.5,-56.5 730.5,-75.5 789.5,-75.5 789.5,-56.5 730.5,-56.5"/>
<text text-anchor="middle" x="760" y="-63.5" font-family="Helvetica,sans-Serif" font-size="10.00">sqlite3.h</text>
</a>
</g>
</g>
<!-- Node20&#45;&gt;Node21 -->
<g id="edge34" class="edge">
<title>Node20&#45;&gt;Node21</title>
<path fill="none" stroke="midnightblue" d="M860.99,-112.44C841.41,-103.64 810.69,-89.81 788.27,-79.72"/>
<polygon fill="midnightblue" stroke="midnightblue" points="789.48,-76.43 778.93,-75.52 786.61,-82.81 789.48,-76.43"/>
</g>
<!-- Node22&#45;&gt;Node2 -->
<g id="edge36" class="edge">
<title>Node22&#45;&gt;Node2</title>
<path fill="none" stroke="midnightblue" d="M517.45,-112.37C524.62,-94.46 541.23,-52.92 550.82,-28.95"/>
<polygon fill="midnightblue" stroke="midnightblue" points="554.1,-30.18 554.56,-19.59 547.6,-27.58 554.1,-30.18"/>
</g>
<!-- Node22&#45;&gt;Node3 -->
<g id="edge37" class="edge">
<title>Node22&#45;&gt;Node3</title>
<path fill="none" stroke="midnightblue" d="M528.56,-112.3C550.95,-99.13 595.4,-73.77 635,-56 665.27,-42.42 700.99,-29.7 726.11,-21.27"/>
<polygon fill="midnightblue" stroke="midnightblue" points="727.46,-24.51 735.85,-18.04 725.26,-17.87 727.46,-24.51"/>
</g>
<!-- Node22&#45;&gt;Node7 -->
<g id="edge39" class="edge">
<title>Node22&#45;&gt;Node7</title>
<path fill="none" stroke="midnightblue" d="M478.89,-114.11C428.42,-104.2 335.5,-85.95 281.31,-75.31"/>
<polygon fill="midnightblue" stroke="midnightblue" points="281.82,-71.84 271.34,-73.35 280.48,-78.71 281.82,-71.84"/>
</g>
<!-- Node22&#45;&gt;Node10 -->
<g id="edge38" class="edge">
<title>Node22&#45;&gt;Node10</title>
<path fill="none" stroke="midnightblue" d="M511.25,-112.37C505.58,-94.54 492.46,-53.3 484.81,-29.27"/>
<polygon fill="midnightblue" stroke="midnightblue" points="488.1,-28.06 481.73,-19.59 481.43,-30.18 488.1,-28.06"/>
</g>
<!-- Node23&#45;&gt;Node3 -->
<g id="edge41" class="edge">
<title>Node23&#45;&gt;Node3</title>
<path fill="none" stroke="midnightblue" d="M1009.14,-112.38C1008.87,-98.37 1006.16,-70.73 990,-56 961.15,-29.71 847.06,-17.65 790.35,-13.18"/>
<polygon fill="midnightblue" stroke="midnightblue" points="790.37,-9.67 780.14,-12.41 789.85,-16.65 790.37,-9.67"/>
</g>
<!-- Node23&#45;&gt;Node18 -->
<g id="edge44" class="edge">
<title>Node23&#45;&gt;Node18</title>
<path fill="none" stroke="midnightblue" d="M981.9,-112.44C953.01,-103.32 907.08,-88.81 874.89,-78.65"/>
<polygon fill="midnightblue" stroke="midnightblue" points="875.56,-75.19 864.97,-75.52 873.45,-81.87 875.56,-75.19"/>
</g>
<!-- Node23&#45;&gt;Node24 -->
<g id="edge42" class="edge">
<title>Node23&#45;&gt;Node24</title>
<path fill="none" stroke="midnightblue" d="M1000,-112.32C991.81,-104.42 979.49,-92.55 969.53,-82.94"/>
<polygon fill="midnightblue" stroke="midnightblue" points="971.79,-80.26 962.16,-75.83 966.93,-85.29 971.79,-80.26"/>
</g>
<!-- Node23&#45;&gt;Node25 -->
<g id="edge43" class="edge">
<title>Node23&#45;&gt;Node25</title>
<path fill="none" stroke="midnightblue" d="M1019.28,-112.32C1028.84,-104.26 1043.28,-92.08 1054.78,-82.37"/>
<polygon fill="midnightblue" stroke="midnightblue" points="1057.14,-84.96 1062.53,-75.83 1052.63,-79.61 1057.14,-84.96"/>
</g>
<!-- Node26&#45;&gt;Node2 -->
<g id="edge50" class="edge">
<title>Node26&#45;&gt;Node2</title>
<path fill="none" stroke="midnightblue" d="M1321.4,-112.36C1345.63,-99.89 1383.03,-76.13 1364,-56 1362.28,-54.18 722.52,-19.81 584.18,-12.4"/>
<polygon fill="midnightblue" stroke="midnightblue" points="584.24,-8.9 574.06,-11.86 583.86,-15.89 584.24,-8.9"/>
</g>
<!-- Node26&#45;&gt;Node3 -->
<g id="edge46" class="edge">
<title>Node26&#45;&gt;Node3</title>
<path fill="none" stroke="midnightblue" d="M1329.67,-114.04C1365.3,-103.53 1421.28,-82.05 1397,-56 1355.33,-11.29 913.99,-10.18 790.15,-10.76"/>
<polygon fill="midnightblue" stroke="midnightblue" points="790.13,-7.26 780.15,-10.82 790.16,-14.26 790.13,-7.26"/>
</g>
<!-- Node26&#45;&gt;Node6 -->
<g id="edge51" class="edge">
<title>Node26&#45;&gt;Node6</title>
<path fill="none" stroke="midnightblue" d="M1286.29,-112.32C1269.69,-103.7 1244,-90.36 1224.78,-80.39"/>
<polygon fill="midnightblue" stroke="midnightblue" points="1226.16,-77.16 1215.67,-75.65 1222.93,-83.37 1226.16,-77.16"/>
</g>
<!-- Node26&#45;&gt;Node15 -->
<g id="edge54" class="edge">
<title>Node26&#45;&gt;Node15</title>
<path fill="none" stroke="midnightblue" d="M1303,-112.08C1303,-105.01 1303,-94.86 1303,-85.99"/>
<polygon fill="midnightblue" stroke="midnightblue" points="1306.5,-85.75 1303,-75.75 1299.5,-85.75 1306.5,-85.75"/>
</g>
<!-- Node27 -->
<g id="node27" class="node">
<title>Node27</title>
<g id="a_node27"><a xlink:title=" ">
<polygon fill="none" stroke="#bfbfbf" points="1449,-56.5 1449,-75.5 1505,-75.5 1505,-56.5 1449,-56.5"/>
<text text-anchor="middle" x="1477" y="-63.5" font-family="Helvetica,sans-Serif" font-size="10.00">sstream</text>
</a>
</g>
</g>
<!-- Node26&#45;&gt;Node27 -->
<g id="edge47" class="edge">
<title>Node26&#45;&gt;Node27</title>
<path fill="none" stroke="midnightblue" d="M1329.81,-112.68C1359.27,-103.54 1406.79,-88.79 1439.83,-78.53"/>
<polygon fill="midnightblue" stroke="midnightblue" points="1441.08,-81.81 1449.59,-75.51 1439,-75.13 1441.08,-81.81"/>
</g>
<!-- Node28 -->
<g id="node28" class="node">
<title>Node28</title>
<g id="a_node28"><a xlink:title=" ">
<polygon fill="none" stroke="#bfbfbf" points="1523.5,-56.5 1523.5,-75.5 1578.5,-75.5 1578.5,-56.5 1523.5,-56.5"/>
<text text-anchor="middle" x="1551" y="-63.5" font-family="Helvetica,sans-Serif" font-size="10.00">fstream</text>
</a>
</g>
</g>
<!-- Node26&#45;&gt;Node28 -->
<g id="edge48" class="edge">
<title>Node26&#45;&gt;Node28</title>
<path fill="none" stroke="midnightblue" d="M1329.9,-115.07C1334.6,-114.04 1339.44,-112.98 1344,-112 1416.4,-96.39 1437.02,-93.36 1513.07,-76.16"/>
<polygon fill="midnightblue" stroke="midnightblue" points="1514.16,-79.5 1523.14,-73.87 1512.61,-72.67 1514.16,-79.5"/>
</g>
<!-- Node29 -->
<g id="node29" class="node">
<title>Node29</title>
<g id="a_node29"><a xlink:title=" ">
<polygon fill="none" stroke="#bfbfbf" points="1597,-56.5 1597,-75.5 1629,-75.5 1629,-56.5 1597,-56.5"/>
<text text-anchor="middle" x="1613" y="-63.5" font-family="Helvetica,sans-Serif" font-size="10.00">set</text>
</a>
</g>
</g>
<!-- Node26&#45;&gt;Node29 -->
<g id="edge49" class="edge">
<title>Node26&#45;&gt;Node29</title>
<path fill="none" stroke="midnightblue" d="M1329.85,-114.83C1334.56,-113.82 1339.41,-112.84 1344,-112 1448.66,-92.82 1479.87,-102.11 1586.84,-75.86"/>
<polygon fill="midnightblue" stroke="midnightblue" points="1587.89,-79.2 1596.74,-73.38 1586.19,-72.41 1587.89,-79.2"/>
</g>
<!-- Node30 -->
<g id="node30" class="node">
<title>Node30</title>
<g id="a_node30"><a xlink:title=" ">
<polygon fill="none" stroke="#bfbfbf" points="1647.5,-56.5 1647.5,-75.5 1700.5,-75.5 1700.5,-56.5 1647.5,-56.5"/>
<text text-anchor="middle" x="1674" y="-63.5" font-family="Helvetica,sans-Serif" font-size="10.00">regex.h</text>
</a>
</g>
</g>
<!-- Node26&#45;&gt;Node30 -->
<g id="edge52" class="edge">
<title>Node26&#45;&gt;Node30</title>
<path fill="none" stroke="midnightblue" d="M1329.84,-114.73C1334.54,-113.74 1339.4,-112.78 1344,-112 1470.6,-90.4 1506.81,-99.53 1637.36,-75.89"/>
<polygon fill="midnightblue" stroke="midnightblue" points="1638.14,-79.31 1647.34,-74.05 1636.88,-72.42 1638.14,-79.31"/>
</g>
<!-- Node26&#45;&gt;Node31 -->
<g id="edge53" class="edge">
<title>Node26&#45;&gt;Node31</title>
<path fill="none" stroke="midnightblue" d="M1329.82,-114.64C1334.53,-113.66 1339.39,-112.73 1344,-112 1502.13,-86.96 1547.2,-103.72 1708.08,-76.1"/>
<polygon fill="midnightblue" stroke="midnightblue" points="1709.09,-79.48 1718.34,-74.31 1707.89,-72.58 1709.09,-79.48"/>
</g>
<!-- Node32&#45;&gt;Node2 -->
<g id="edge57" class="edge">
<title>Node32&#45;&gt;Node2</title>
<path fill="none" stroke="midnightblue" d="M658.99,-56.44C638.61,-47.27 606.14,-32.66 583.54,-22.5"/>
<polygon fill="midnightblue" stroke="midnightblue" points="584.79,-19.22 574.23,-18.3 581.91,-25.6 584.79,-19.22"/>
</g>
<!-- Node32&#45;&gt;Node3 -->
<g id="edge56" class="edge">
<title>Node32&#45;&gt;Node3</title>
<path fill="none" stroke="midnightblue" d="M690.85,-56.32C703.22,-47.98 722.13,-35.21 736.74,-25.35"/>
<polygon fill="midnightblue" stroke="midnightblue" points="738.85,-28.15 745.18,-19.65 734.93,-22.35 738.85,-28.15"/>
</g>
</g>
</svg>
