<?xml version="1.0" encoding="UTF-8" standalone="no"?>
<!DOCTYPE svg PUBLIC "-//W3C//DTD SVG 1.1//EN"
 "http://www.w3.org/Graphics/SVG/1.1/DTD/svg11.dtd">
<!-- Generated by graphviz version 2.43.0 (0)
 -->
<!-- Title: leanux::tools::lmon::Screen Pages: 1 -->
<svg width="769pt" height="419pt"
 viewBox="0.00 0.00 769.00 419.00" xmlns="http://www.w3.org/2000/svg" xmlns:xlink="http://www.w3.org/1999/xlink">
<g id="graph0" class="graph" transform="scale(1 1) rotate(0) translate(4 415)">
<title>leanux::tools::lmon::Screen</title>
<!-- Node1 -->
<g id="node1" class="node">
<title>Node1</title>
<g id="a_node1"><a xlink:title="The curses screen.">
<polygon fill="#bfbfbf" stroke="black" points="428,-111 428,-141 538,-141 538,-111 428,-111"/>
<text text-anchor="start" x="436" y="-129" font-family="Helvetica,sans-Serif" font-size="10.00">leanux::tools::lmon</text>
<text text-anchor="middle" x="483" y="-118" font-family="Helvetica,sans-Serif" font-size="10.00">::Screen</text>
</a>
</g>
</g>
<!-- Node2 -->
<g id="node2" class="node">
<title>Node2</title>
<g id="a_node2"><a xlink:href="../../d1/de8/classleanux_1_1tools_1_1lmon_1_1View.html" target="_top" xlink:title="A reactangular area on the ncurses Screen as a window of information.">
<polygon fill="none" stroke="black" points="651,-220 651,-250 761,-250 761,-220 651,-220"/>
<text text-anchor="start" x="659" y="-238" font-family="Helvetica,sans-Serif" font-size="10.00">leanux::tools::lmon</text>
<text text-anchor="middle" x="706" y="-227" font-family="Helvetica,sans-Serif" font-size="10.00">::View</text>
</a>
</g>
</g>
<!-- Node1&#45;&gt;Node2 -->
<g id="edge3" class="edge">
<title>Node1&#45;&gt;Node2</title>
<path fill="none" stroke="#9a32cd" stroke-dasharray="5,2" d="M505.42,-148.29C518.89,-161.18 537.22,-176.82 556,-187 587.4,-204.02 599.01,-199.03 633,-210 642.57,-213.09 652.8,-216.55 662.46,-219.88"/>
<polygon fill="#9a32cd" stroke="#9a32cd" points="507.67,-145.6 498.09,-141.08 502.76,-150.59 507.67,-145.6"/>
<text text-anchor="middle" x="594.5" y="-213" font-family="Helvetica,sans-Serif" font-size="10.00"> screen_</text>
</g>
<!-- Node2&#45;&gt;Node1 -->
<g id="edge1" class="edge">
<title>Node2&#45;&gt;Node1</title>
<path fill="none" stroke="#9a32cd" stroke-dasharray="5,2" d="M697.3,-209.94C687.37,-182.48 667.18,-139.84 633,-121 604.44,-105.26 567.9,-106.22 538.15,-111.26"/>
<polygon fill="#9a32cd" stroke="#9a32cd" points="694.07,-211.31 700.62,-219.64 700.7,-209.04 694.07,-211.31"/>
<text text-anchor="middle" x="594.5" y="-179" font-family="Helvetica,sans-Serif" font-size="10.00"> vfooter_</text>
<text text-anchor="middle" x="594.5" y="-168" font-family="Helvetica,sans-Serif" font-size="10.00">vsys_</text>
<text text-anchor="middle" x="594.5" y="-157" font-family="Helvetica,sans-Serif" font-size="10.00">vio_</text>
<text text-anchor="middle" x="594.5" y="-146" font-family="Helvetica,sans-Serif" font-size="10.00">vprocess_</text>
<text text-anchor="middle" x="594.5" y="-135" font-family="Helvetica,sans-Serif" font-size="10.00">vnetwork_</text>
<text text-anchor="middle" x="594.5" y="-124" font-family="Helvetica,sans-Serif" font-size="10.00">vheader_</text>
</g>
<!-- Node3 -->
<g id="node3" class="node">
<title>Node3</title>
<g id="a_node3"><a xlink:title=" ">
<polygon fill="none" stroke="#bfbfbf" points="440.5,-302.5 440.5,-321.5 525.5,-321.5 525.5,-302.5 440.5,-302.5"/>
<text text-anchor="middle" x="483" y="-309.5" font-family="Helvetica,sans-Serif" font-size="10.00">unsigned long</text>
</a>
</g>
</g>
<!-- Node3&#45;&gt;Node2 -->
<g id="edge2" class="edge">
<title>Node3&#45;&gt;Node2</title>
<path fill="none" stroke="#9a32cd" stroke-dasharray="5,2" d="M535.67,-309.69C565.13,-306.92 602.2,-300.92 633,-288 654.47,-279 675.5,-262.35 689.23,-250.1"/>
<polygon fill="#9a32cd" stroke="#9a32cd" points="535.26,-306.22 525.59,-310.55 535.85,-313.19 535.26,-306.22"/>
<text text-anchor="middle" x="594.5" y="-310" font-family="Helvetica,sans-Serif" font-size="10.00"> sample_count_</text>
</g>
<!-- Node4 -->
<g id="node4" class="node">
<title>Node4</title>
<g id="a_node4"><a xlink:title=" ">
<polygon fill="none" stroke="#bfbfbf" points="0,-141.5 0,-160.5 29,-160.5 29,-141.5 0,-141.5"/>
<text text-anchor="middle" x="14.5" y="-148.5" font-family="Helvetica,sans-Serif" font-size="10.00">int</text>
</a>
</g>
</g>
<!-- Node4&#45;&gt;Node2 -->
<g id="edge4" class="edge">
<title>Node4&#45;&gt;Node2</title>
<path fill="none" stroke="#9a32cd" stroke-dasharray="5,2" d="M14.69,-170.91C14.88,-196.3 19.56,-239.37 47,-260 141.23,-330.85 510.73,-271.31 650.78,-245.49"/>
<polygon fill="#9a32cd" stroke="#9a32cd" points="18.2,-170.69 14.86,-160.64 11.2,-170.58 18.2,-170.69"/>
<text text-anchor="middle" x="356.5" y="-403" font-family="Helvetica,sans-Serif" font-size="10.00"> attr_bold_text_</text>
<text text-anchor="middle" x="356.5" y="-392" font-family="Helvetica,sans-Serif" font-size="10.00">absy_</text>
<text text-anchor="middle" x="356.5" y="-381" font-family="Helvetica,sans-Serif" font-size="10.00">height_</text>
<text text-anchor="middle" x="356.5" y="-370" font-family="Helvetica,sans-Serif" font-size="10.00">absx_</text>
<text text-anchor="start" x="312.5" y="-359" font-family="Helvetica,sans-Serif" font-size="10.00">attr_plot_element</text>
<text text-anchor="middle" x="356.5" y="-348" font-family="Helvetica,sans-Serif" font-size="10.00">_</text>
<text text-anchor="middle" x="356.5" y="-337" font-family="Helvetica,sans-Serif" font-size="10.00">attr_line_</text>
<text text-anchor="middle" x="356.5" y="-326" font-family="Helvetica,sans-Serif" font-size="10.00">width_</text>
<text text-anchor="start" x="312.5" y="-315" font-family="Helvetica,sans-Serif" font-size="10.00">attr_normal</text>
<text text-anchor="middle" x="356.5" y="-304" font-family="Helvetica,sans-Serif" font-size="10.00">_text_</text>
<text text-anchor="middle" x="356.5" y="-293" font-family="Helvetica,sans-Serif" font-size="10.00">attr_alert_text_</text>
</g>
<!-- Node7 -->
<g id="node7" class="node">
<title>Node7</title>
<g id="a_node7"><a xlink:href="../../d9/d1b/classleanux_1_1tools_1_1lmon_1_1Palette.html" target="_top" xlink:title="The Palette provides reasonable colors within terminal capabilities, hiding the details of such capab...">
<polygon fill="none" stroke="black" points="175,-89 175,-119 285,-119 285,-89 175,-89"/>
<text text-anchor="start" x="183" y="-107" font-family="Helvetica,sans-Serif" font-size="10.00">leanux::tools::lmon</text>
<text text-anchor="middle" x="230" y="-96" font-family="Helvetica,sans-Serif" font-size="10.00">::Palette</text>
</a>
</g>
</g>
<!-- Node4&#45;&gt;Node7 -->
<g id="edge8" class="edge">
<title>Node4&#45;&gt;Node7</title>
<path fill="none" stroke="#9a32cd" stroke-dasharray="5,2" d="M17.72,-131.04C21.65,-99.74 30.98,-41.41 47,-29 85.65,0.94 115.69,-2.86 157,-29 172.79,-38.99 162.87,-52.78 175,-67 182.3,-75.56 192.03,-83.03 201.22,-88.98"/>
<polygon fill="#9a32cd" stroke="#9a32cd" points="14.21,-130.87 16.51,-141.21 21.16,-131.69 14.21,-130.87"/>
<text text-anchor="start" x="47" y="-252" font-family="Helvetica,sans-Serif" font-size="10.00"> idx_softirq_mode_cpu</text>
<text text-anchor="middle" x="102" y="-241" font-family="Helvetica,sans-Serif" font-size="10.00">_</text>
<text text-anchor="start" x="47" y="-230" font-family="Helvetica,sans-Serif" font-size="10.00">idx_color_blocked</text>
<text text-anchor="middle" x="102" y="-219" font-family="Helvetica,sans-Serif" font-size="10.00">_proc_</text>
<text text-anchor="start" x="47" y="-208" font-family="Helvetica,sans-Serif" font-size="10.00">idx_color_line</text>
<text text-anchor="middle" x="102" y="-197" font-family="Helvetica,sans-Serif" font-size="10.00">_</text>
<text text-anchor="start" x="47" y="-186" font-family="Helvetica,sans-Serif" font-size="10.00">idx_user_mode</text>
<text text-anchor="middle" x="102" y="-175" font-family="Helvetica,sans-Serif" font-size="10.00">_cpu_</text>
<text text-anchor="start" x="47" y="-164" font-family="Helvetica,sans-Serif" font-size="10.00">idx_color_bold</text>
<text text-anchor="middle" x="102" y="-153" font-family="Helvetica,sans-Serif" font-size="10.00">_text_</text>
<text text-anchor="start" x="47" y="-142" font-family="Helvetica,sans-Serif" font-size="10.00">idx_color_text</text>
<text text-anchor="middle" x="102" y="-131" font-family="Helvetica,sans-Serif" font-size="10.00">_</text>
<text text-anchor="start" x="47" y="-120" font-family="Helvetica,sans-Serif" font-size="10.00">idx_irq_mode</text>
<text text-anchor="middle" x="102" y="-109" font-family="Helvetica,sans-Serif" font-size="10.00">_cpu_</text>
<text text-anchor="start" x="47" y="-98" font-family="Helvetica,sans-Serif" font-size="10.00">idx_nice_mode</text>
<text text-anchor="middle" x="102" y="-87" font-family="Helvetica,sans-Serif" font-size="10.00">_cpu_</text>
<text text-anchor="start" x="47" y="-76" font-family="Helvetica,sans-Serif" font-size="10.00">idx_iowait</text>
<text text-anchor="middle" x="102" y="-65" font-family="Helvetica,sans-Serif" font-size="10.00">_mode_cpu_</text>
<text text-anchor="start" x="47" y="-54" font-family="Helvetica,sans-Serif" font-size="10.00">idx_system_mode</text>
<text text-anchor="middle" x="102" y="-43" font-family="Helvetica,sans-Serif" font-size="10.00">_cpu_</text>
<text text-anchor="middle" x="102" y="-32" font-family="Helvetica,sans-Serif" font-size="10.00">...</text>
</g>
<!-- Node5 -->
<g id="node5" class="node">
<title>Node5</title>
<g id="a_node5"><a xlink:title=" ">
<polygon fill="none" stroke="#bfbfbf" points="195,-210.5 195,-229.5 265,-229.5 265,-210.5 195,-210.5"/>
<text text-anchor="middle" x="230" y="-217.5" font-family="Helvetica,sans-Serif" font-size="10.00">WINDOW *</text>
</a>
</g>
</g>
<!-- Node5&#45;&gt;Node1 -->
<g id="edge11" class="edge">
<title>Node5&#45;&gt;Node1</title>
<path fill="none" stroke="#9a32cd" stroke-dasharray="5,2" d="M275.2,-208.6C311.92,-198.55 365.21,-182.64 410,-164 425.79,-157.43 442.74,-148.58 456.22,-141.07"/>
<polygon fill="#9a32cd" stroke="#9a32cd" points="274.05,-205.29 265.31,-211.27 275.87,-212.04 274.05,-205.29"/>
<text text-anchor="middle" x="356.5" y="-203" font-family="Helvetica,sans-Serif" font-size="10.00"> wmain_</text>
</g>
<!-- Node5&#45;&gt;Node2 -->
<g id="edge5" class="edge">
<title>Node5&#45;&gt;Node2</title>
<path fill="none" stroke="#9a32cd" stroke-dasharray="5,2" d="M275.17,-221.4C362.31,-224.16 556.07,-230.29 650.78,-233.28"/>
<polygon fill="#9a32cd" stroke="#9a32cd" points="275.19,-217.9 265.09,-221.08 274.97,-224.89 275.19,-217.9"/>
<text text-anchor="middle" x="483" y="-232" font-family="Helvetica,sans-Serif" font-size="10.00"> window_</text>
</g>
<!-- Node6 -->
<g id="node6" class="node">
<title>Node6</title>
<g id="a_node6"><a xlink:title=" ">
<polygon fill="none" stroke="#bfbfbf" points="188,-0.5 188,-19.5 272,-19.5 272,-0.5 188,-0.5"/>
<text text-anchor="middle" x="230" y="-7.5" font-family="Helvetica,sans-Serif" font-size="10.00">struct winsize</text>
</a>
</g>
</g>
<!-- Node6&#45;&gt;Node1 -->
<g id="edge6" class="edge">
<title>Node6&#45;&gt;Node1</title>
<path fill="none" stroke="#9a32cd" stroke-dasharray="5,2" d="M282.52,-1.68C320.24,1.81 371.37,0.89 410,-21 445.58,-41.16 467.33,-87.02 476.67,-110.9"/>
<polygon fill="#9a32cd" stroke="#9a32cd" points="281.83,1.77 272.26,-2.76 282.57,-5.19 281.83,1.77"/>
<text text-anchor="middle" x="356.5" y="-24" font-family="Helvetica,sans-Serif" font-size="10.00"> winsz_</text>
</g>
<!-- Node7&#45;&gt;Node1 -->
<g id="edge7" class="edge">
<title>Node7&#45;&gt;Node1</title>
<path fill="none" stroke="#9a32cd" stroke-dasharray="5,2" d="M295.33,-109.64C336.4,-113.24 389.04,-117.85 427.94,-121.26"/>
<polygon fill="#9a32cd" stroke="#9a32cd" points="295.42,-106.13 285.15,-108.75 294.81,-113.11 295.42,-106.13"/>
<text text-anchor="middle" x="356.5" y="-122" font-family="Helvetica,sans-Serif" font-size="10.00"> palette_</text>
</g>
<!-- Node8 -->
<g id="node8" class="node">
<title>Node8</title>
<g id="a_node8"><a xlink:title=" ">
<polygon fill="none" stroke="#bfbfbf" points="211,-150.5 211,-169.5 249,-169.5 249,-150.5 211,-150.5"/>
<text text-anchor="middle" x="230" y="-157.5" font-family="Helvetica,sans-Serif" font-size="10.00">bool</text>
</a>
</g>
</g>
<!-- Node8&#45;&gt;Node1 -->
<g id="edge9" class="edge">
<title>Node8&#45;&gt;Node1</title>
<path fill="none" stroke="#9a32cd" stroke-dasharray="5,2" d="M259.07,-156.2C299.8,-150.68 376.05,-140.35 427.91,-133.33"/>
<polygon fill="#9a32cd" stroke="#9a32cd" points="258.49,-152.74 249.05,-157.55 259.43,-159.68 258.49,-152.74"/>
<text text-anchor="middle" x="356.5" y="-152" font-family="Helvetica,sans-Serif" font-size="10.00"> stopped_</text>
</g>
<!-- Node9 -->
<g id="node9" class="node">
<title>Node9</title>
<g id="a_node9"><a xlink:title=" ">
<polygon fill="none" stroke="#bfbfbf" points="191.5,-38.5 191.5,-57.5 268.5,-57.5 268.5,-38.5 191.5,-38.5"/>
<text text-anchor="middle" x="230" y="-45.5" font-family="Helvetica,sans-Serif" font-size="10.00">unsigned int</text>
</a>
</g>
</g>
<!-- Node9&#45;&gt;Node1 -->
<g id="edge10" class="edge">
<title>Node9&#45;&gt;Node1</title>
<path fill="none" stroke="#9a32cd" stroke-dasharray="5,2" d="M278.87,-39.12C316.18,-34.43 368.47,-32.88 410,-51 438.29,-63.34 460.91,-92.66 472.82,-110.77"/>
<polygon fill="#9a32cd" stroke="#9a32cd" points="278.19,-35.68 268.76,-40.51 279.14,-42.61 278.19,-35.68"/>
<text text-anchor="start" x="303" y="-98" font-family="Helvetica,sans-Serif" font-size="10.00"> footer_scroll_interval</text>
<text text-anchor="middle" x="356.5" y="-87" font-family="Helvetica,sans-Serif" font-size="10.00">_s_</text>
<text text-anchor="start" x="303" y="-76" font-family="Helvetica,sans-Serif" font-size="10.00">sample_interval_s</text>
<text text-anchor="middle" x="356.5" y="-65" font-family="Helvetica,sans-Serif" font-size="10.00">_</text>
<text text-anchor="middle" x="356.5" y="-54" font-family="Helvetica,sans-Serif" font-size="10.00">sleep_duration_ms_</text>
</g>
</g>
</svg>
