<?xml version="1.0" encoding="UTF-8" standalone="no"?>
<!DOCTYPE svg PUBLIC "-//W3C//DTD SVG 1.1//EN"
 "http://www.w3.org/Graphics/SVG/1.1/DTD/svg11.dtd">
<!-- Generated by graphviz version 2.43.0 (0)
 -->
<!-- Title: leanux::tools::lmon::LardHistory::dayUp Pages: 1 -->
<svg width="515pt" height="235pt"
 viewBox="0.00 0.00 515.00 235.00" xmlns="http://www.w3.org/2000/svg" xmlns:xlink="http://www.w3.org/1999/xlink">
<g id="graph0" class="graph" transform="scale(1 1) rotate(0) translate(4 231)">
<title>leanux::tools::lmon::LardHistory::dayUp</title>
<!-- Node1 -->
<g id="node1" class="node">
<title>Node1</title>
<g id="a_node1"><a xlink:title=" ">
<polygon fill="#bfbfbf" stroke="black" points="0,-97.5 0,-127.5 116,-127.5 116,-97.5 0,-97.5"/>
<text text-anchor="start" x="8" y="-115.5" font-family="Helvetica,sans-Serif" font-size="10.00">leanux::tools::lmon</text>
<text text-anchor="middle" x="58" y="-104.5" font-family="Helvetica,sans-Serif" font-size="10.00">::LardHistory::dayUp</text>
</a>
</g>
</g>
<!-- Node2 -->
<g id="node2" class="node">
<title>Node2</title>
<g id="a_node2"><a xlink:href="../../d7/d6a/classleanux_1_1tools_1_1lmon_1_1LardHistory.html#a1ec352b33775f8da5ea9a32ca1a4cd0c" target="_top" xlink:title=" ">
<polygon fill="none" stroke="black" points="160,-122.5 160,-152.5 317,-152.5 317,-122.5 160,-122.5"/>
<text text-anchor="start" x="168" y="-140.5" font-family="Helvetica,sans-Serif" font-size="10.00">leanux::tools::lmon</text>
<text text-anchor="middle" x="238.5" y="-129.5" font-family="Helvetica,sans-Serif" font-size="10.00">::LardHistory::updateMinMax</text>
</a>
</g>
</g>
<!-- Node1&#45;&gt;Node2 -->
<g id="edge1" class="edge">
<title>Node1&#45;&gt;Node2</title>
<path fill="none" stroke="midnightblue" d="M116.46,-120.55C127.18,-122.05 138.61,-123.65 149.99,-125.24"/>
<polygon fill="midnightblue" stroke="midnightblue" points="149.58,-128.72 159.97,-126.64 150.55,-121.79 149.58,-128.72"/>
</g>
<!-- Node8 -->
<g id="node7" class="node">
<title>Node8</title>
<g id="a_node7"><a xlink:href="../../d7/d6a/classleanux_1_1tools_1_1lmon_1_1LardHistory.html#a7eac92d3a722d105aa2ee05a96238737" target="_top" xlink:title=" ">
<polygon fill="none" stroke="black" points="152,-73.5 152,-103.5 325,-103.5 325,-73.5 152,-73.5"/>
<text text-anchor="start" x="160" y="-91.5" font-family="Helvetica,sans-Serif" font-size="10.00">leanux::tools::lmon</text>
<text text-anchor="middle" x="238.5" y="-80.5" font-family="Helvetica,sans-Serif" font-size="10.00">::LardHistory::updateRangeTime</text>
</a>
</g>
</g>
<!-- Node1&#45;&gt;Node8 -->
<g id="edge6" class="edge">
<title>Node1&#45;&gt;Node8</title>
<path fill="none" stroke="midnightblue" d="M116.46,-104.77C124.59,-103.68 133.13,-102.53 141.75,-101.37"/>
<polygon fill="midnightblue" stroke="midnightblue" points="142.43,-104.81 151.88,-100.01 141.5,-97.88 142.43,-104.81"/>
</g>
<!-- Node3 -->
<g id="node3" class="node">
<title>Node3</title>
<g id="a_node3"><a xlink:href="../../d4/d2c/classleanux_1_1persist_1_1Query.html#ac71ce2dce629c76434dfb541bbe55658" target="_top" xlink:title="Get double value from select list.">
<polygon fill="none" stroke="black" points="372,-196.5 372,-226.5 496,-226.5 496,-196.5 372,-196.5"/>
<text text-anchor="start" x="380" y="-214.5" font-family="Helvetica,sans-Serif" font-size="10.00">leanux::persist::Query</text>
<text text-anchor="middle" x="434" y="-203.5" font-family="Helvetica,sans-Serif" font-size="10.00">::getDouble</text>
</a>
</g>
</g>
<!-- Node2&#45;&gt;Node3 -->
<g id="edge2" class="edge">
<title>Node2&#45;&gt;Node3</title>
<path fill="none" stroke="midnightblue" d="M274.34,-152.58C298.5,-162.85 331.5,-176.53 361,-187.5 366.09,-189.39 371.42,-191.3 376.76,-193.17"/>
<polygon fill="midnightblue" stroke="midnightblue" points="375.76,-196.53 386.36,-196.47 378.04,-189.91 375.76,-196.53"/>
</g>
<!-- Node4 -->
<g id="node4" class="node">
<title>Node4</title>
<g id="a_node4"><a xlink:href="../../d4/d2c/classleanux_1_1persist_1_1Query.html#ada37977ad924b728401fa1fb7506cd2e" target="_top" xlink:title="Get long value from select list.">
<polygon fill="none" stroke="black" points="372,-147.5 372,-177.5 496,-177.5 496,-147.5 372,-147.5"/>
<text text-anchor="start" x="380" y="-165.5" font-family="Helvetica,sans-Serif" font-size="10.00">leanux::persist::Query</text>
<text text-anchor="middle" x="434" y="-154.5" font-family="Helvetica,sans-Serif" font-size="10.00">::getLong</text>
</a>
</g>
</g>
<!-- Node2&#45;&gt;Node4 -->
<g id="edge3" class="edge">
<title>Node2&#45;&gt;Node4</title>
<path fill="none" stroke="midnightblue" d="M317.09,-147.52C331.87,-149.43 347.27,-151.42 361.84,-153.31"/>
<polygon fill="midnightblue" stroke="midnightblue" points="361.4,-156.78 371.77,-154.59 362.3,-149.84 361.4,-156.78"/>
</g>
<!-- Node5 -->
<g id="node5" class="node">
<title>Node5</title>
<g id="a_node5"><a xlink:href="../../db/dff/classleanux_1_1persist_1_1Statement.html#a1b809c1b1d0e9d24af65e439c3893d74" target="_top" xlink:title="Prepare a SQL statement.">
<polygon fill="none" stroke="red" points="361,-98.5 361,-128.5 507,-128.5 507,-98.5 361,-98.5"/>
<text text-anchor="start" x="369" y="-116.5" font-family="Helvetica,sans-Serif" font-size="10.00">leanux::persist::Statement</text>
<text text-anchor="middle" x="434" y="-105.5" font-family="Helvetica,sans-Serif" font-size="10.00">::prepare</text>
</a>
</g>
</g>
<!-- Node2&#45;&gt;Node5 -->
<g id="edge4" class="edge">
<title>Node2&#45;&gt;Node5</title>
<path fill="none" stroke="midnightblue" d="M317.09,-127.88C328.12,-126.51 339.49,-125.1 350.61,-123.72"/>
<polygon fill="midnightblue" stroke="midnightblue" points="351.23,-127.17 360.73,-122.46 350.37,-120.22 351.23,-127.17"/>
</g>
<!-- Node7 -->
<g id="node6" class="node">
<title>Node7</title>
<g id="a_node6"><a xlink:href="../../d4/d2c/classleanux_1_1persist_1_1Query.html#a294e11c33a22761503c49418f5ca9815" target="_top" xlink:title="Step the result list, end of list returns false.">
<polygon fill="none" stroke="black" points="372,-49.5 372,-79.5 496,-79.5 496,-49.5 372,-49.5"/>
<text text-anchor="start" x="380" y="-67.5" font-family="Helvetica,sans-Serif" font-size="10.00">leanux::persist::Query</text>
<text text-anchor="middle" x="434" y="-56.5" font-family="Helvetica,sans-Serif" font-size="10.00">::step</text>
</a>
</g>
</g>
<!-- Node2&#45;&gt;Node7 -->
<g id="edge5" class="edge">
<title>Node2&#45;&gt;Node7</title>
<path fill="none" stroke="midnightblue" d="M301.97,-122.45C309.86,-119.83 317.72,-116.85 325,-113.5 342.47,-105.47 343.78,-98.06 361,-89.5 365.36,-87.33 369.96,-85.27 374.63,-83.33"/>
<polygon fill="midnightblue" stroke="midnightblue" points="376.27,-86.45 384.28,-79.52 373.7,-79.94 376.27,-86.45"/>
</g>
<!-- Node8&#45;&gt;Node4 -->
<g id="edge8" class="edge">
<title>Node8&#45;&gt;Node4</title>
<path fill="none" stroke="midnightblue" d="M300.21,-103.6C308.7,-106.47 317.19,-109.77 325,-113.5 342.58,-121.9 343.58,-129.78 361,-138.5 364.71,-140.36 368.6,-142.12 372.56,-143.79"/>
<polygon fill="midnightblue" stroke="midnightblue" points="371.32,-147.06 381.91,-147.49 373.9,-140.55 371.32,-147.06"/>
</g>
<!-- Node8&#45;&gt;Node5 -->
<g id="edge9" class="edge">
<title>Node8&#45;&gt;Node5</title>
<path fill="none" stroke="midnightblue" d="M325.22,-99.57C333.79,-100.68 342.48,-101.81 351.02,-102.91"/>
<polygon fill="midnightblue" stroke="midnightblue" points="350.58,-106.38 360.94,-104.19 351.48,-99.44 350.58,-106.38"/>
</g>
<!-- Node8&#45;&gt;Node7 -->
<g id="edge10" class="edge">
<title>Node8&#45;&gt;Node7</title>
<path fill="none" stroke="midnightblue" d="M325.22,-77.87C337.34,-76.37 349.69,-74.83 361.5,-73.37"/>
<polygon fill="midnightblue" stroke="midnightblue" points="362.23,-76.8 371.72,-72.1 361.37,-69.86 362.23,-76.8"/>
</g>
<!-- Node9 -->
<g id="node8" class="node">
<title>Node9</title>
<g id="a_node8"><a xlink:href="../../d9/d78/classleanux_1_1persist_1_1DML.html#a8df01a6d880515c22106e424ed342c81" target="_top" xlink:title="Bind a double value to the bind at position.">
<polygon fill="none" stroke="black" points="376,-0.5 376,-30.5 492,-30.5 492,-0.5 376,-0.5"/>
<text text-anchor="start" x="384" y="-18.5" font-family="Helvetica,sans-Serif" font-size="10.00">leanux::persist::DML</text>
<text text-anchor="middle" x="434" y="-7.5" font-family="Helvetica,sans-Serif" font-size="10.00">::bind</text>
</a>
</g>
</g>
<!-- Node8&#45;&gt;Node9 -->
<g id="edge7" class="edge">
<title>Node8&#45;&gt;Node9</title>
<path fill="none" stroke="midnightblue" d="M276.3,-73.5C300.31,-63.82 332.4,-51.11 361,-40.5 366.86,-38.33 373.01,-36.1 379.15,-33.92"/>
<polygon fill="midnightblue" stroke="midnightblue" points="380.46,-37.17 388.73,-30.54 378.13,-30.57 380.46,-37.17"/>
</g>
</g>
</svg>
