<?xml version="1.0" encoding="UTF-8" standalone="no"?>
<!DOCTYPE svg PUBLIC "-//W3C//DTD SVG 1.1//EN"
 "http://www.w3.org/Graphics/SVG/1.1/DTD/svg11.dtd">
<!-- Generated by graphviz version 2.43.0 (0)
 -->
<!-- Title: leanux::tools::lmon::LardHistory::LardHistory Pages: 1 -->
<svg width="521pt" height="98pt"
 viewBox="0.00 0.00 521.00 98.00" xmlns="http://www.w3.org/2000/svg" xmlns:xlink="http://www.w3.org/1999/xlink">
<g id="graph0" class="graph" transform="scale(1 1) rotate(0) translate(4 94)">
<title>leanux::tools::lmon::LardHistory::LardHistory</title>
<!-- Node1 -->
<g id="node1" class="node">
<title>Node1</title>
<g id="a_node1"><a xlink:title=" ">
<polygon fill="#bfbfbf" stroke="black" points="0,-25.5 0,-55.5 140,-55.5 140,-25.5 0,-25.5"/>
<text text-anchor="start" x="8" y="-43.5" font-family="Helvetica,sans-Serif" font-size="10.00">leanux::tools::lmon</text>
<text text-anchor="middle" x="70" y="-32.5" font-family="Helvetica,sans-Serif" font-size="10.00">::LardHistory::LardHistory</text>
</a>
</g>
</g>
<!-- Node2 -->
<g id="node2" class="node">
<title>Node2</title>
<g id="a_node2"><a xlink:href="../../d7/d6a/classleanux_1_1tools_1_1lmon_1_1LardHistory.html#aafd1a1a978d28fd53c8a473071cc64b4" target="_top" xlink:title="Sets the current time selection into the lard data.">
<polygon fill="none" stroke="black" points="176,-25.5 176,-55.5 304,-55.5 304,-25.5 176,-25.5"/>
<text text-anchor="start" x="184" y="-43.5" font-family="Helvetica,sans-Serif" font-size="10.00">leanux::tools::lmon</text>
<text text-anchor="middle" x="240" y="-32.5" font-family="Helvetica,sans-Serif" font-size="10.00">::LardHistory::setZoom</text>
</a>
</g>
</g>
<!-- Node1&#45;&gt;Node2 -->
<g id="edge1" class="edge">
<title>Node1&#45;&gt;Node2</title>
<path fill="none" stroke="midnightblue" d="M140.3,-40.5C148.66,-40.5 157.21,-40.5 165.62,-40.5"/>
<polygon fill="midnightblue" stroke="midnightblue" points="165.78,-44 175.78,-40.5 165.78,-37 165.78,-44"/>
</g>
<!-- Node3 -->
<g id="node3" class="node">
<title>Node3</title>
<g id="a_node3"><a xlink:href="../../d7/d6a/classleanux_1_1tools_1_1lmon_1_1LardHistory.html#a1ec352b33775f8da5ea9a32ca1a4cd0c" target="_top" xlink:title=" ">
<polygon fill="none" stroke="red" points="348,-59.5 348,-89.5 505,-89.5 505,-59.5 348,-59.5"/>
<text text-anchor="start" x="356" y="-77.5" font-family="Helvetica,sans-Serif" font-size="10.00">leanux::tools::lmon</text>
<text text-anchor="middle" x="426.5" y="-66.5" font-family="Helvetica,sans-Serif" font-size="10.00">::LardHistory::updateMinMax</text>
</a>
</g>
</g>
<!-- Node1&#45;&gt;Node3 -->
<g id="edge4" class="edge">
<title>Node1&#45;&gt;Node3</title>
<path fill="none" stroke="midnightblue" d="M125.11,-55.54C141.35,-59.47 159.29,-63.23 176,-65.5 229.43,-72.75 289.85,-75.08 337.85,-75.56"/>
<polygon fill="midnightblue" stroke="midnightblue" points="337.87,-79.06 347.9,-75.63 337.92,-72.06 337.87,-79.06"/>
</g>
<!-- Node9 -->
<g id="node4" class="node">
<title>Node9</title>
<g id="a_node4"><a xlink:href="../../d7/d6a/classleanux_1_1tools_1_1lmon_1_1LardHistory.html#a7eac92d3a722d105aa2ee05a96238737" target="_top" xlink:title=" ">
<polygon fill="none" stroke="red" points="340,-0.5 340,-30.5 513,-30.5 513,-0.5 340,-0.5"/>
<text text-anchor="start" x="348" y="-18.5" font-family="Helvetica,sans-Serif" font-size="10.00">leanux::tools::lmon</text>
<text text-anchor="middle" x="426.5" y="-7.5" font-family="Helvetica,sans-Serif" font-size="10.00">::LardHistory::updateRangeTime</text>
</a>
</g>
</g>
<!-- Node1&#45;&gt;Node9 -->
<g id="edge5" class="edge">
<title>Node1&#45;&gt;Node9</title>
<path fill="none" stroke="midnightblue" d="M123.45,-25.47C140.1,-21.39 158.69,-17.53 176,-15.5 226.5,-9.57 283.15,-9.08 329.69,-10.29"/>
<polygon fill="midnightblue" stroke="midnightblue" points="329.66,-13.79 339.76,-10.58 329.87,-6.79 329.66,-13.79"/>
</g>
<!-- Node2&#45;&gt;Node3 -->
<g id="edge2" class="edge">
<title>Node2&#45;&gt;Node3</title>
<path fill="none" stroke="midnightblue" d="M304.24,-52.15C315.13,-54.16 326.62,-56.28 338.02,-58.38"/>
<polygon fill="midnightblue" stroke="midnightblue" points="337.52,-61.85 347.99,-60.22 338.79,-54.96 337.52,-61.85"/>
</g>
<!-- Node2&#45;&gt;Node9 -->
<g id="edge3" class="edge">
<title>Node2&#45;&gt;Node9</title>
<path fill="none" stroke="midnightblue" d="M304.24,-31.93C312.48,-30.81 321.08,-29.65 329.71,-28.48"/>
<polygon fill="midnightblue" stroke="midnightblue" points="330.4,-31.92 339.84,-27.11 329.46,-24.98 330.4,-31.92"/>
</g>
</g>
</svg>
