<?xml version="1.0" encoding="UTF-8" standalone="no"?>
<!DOCTYPE svg PUBLIC "-//W3C//DTD SVG 1.1//EN"
 "http://www.w3.org/Graphics/SVG/1.1/DTD/svg11.dtd">
<!-- Generated by graphviz version 2.43.0 (0)
 -->
<!-- Title: leanux::tools::lmon::LardHistory::updateRangeTime Pages: 1 -->
<svg width="682pt" height="567pt"
 viewBox="0.00 0.00 682.00 567.14" xmlns="http://www.w3.org/2000/svg" xmlns:xlink="http://www.w3.org/1999/xlink">
<g id="graph0" class="graph" transform="scale(1 1) rotate(0) translate(4 563.14)">
<title>leanux::tools::lmon::LardHistory::updateRangeTime</title>
<!-- Node1 -->
<g id="node1" class="node">
<title>Node1</title>
<g id="a_node1"><a xlink:title=" ">
<polygon fill="#bfbfbf" stroke="black" points="501,-291.42 501,-321.42 674,-321.42 674,-291.42 501,-291.42"/>
<text text-anchor="start" x="509" y="-309.42" font-family="Helvetica,sans-Serif" font-size="10.00">leanux::tools::lmon</text>
<text text-anchor="middle" x="587.5" y="-298.42" font-family="Helvetica,sans-Serif" font-size="10.00">::LardHistory::updateRangeTime</text>
</a>
</g>
</g>
<!-- Node2 -->
<g id="node2" class="node">
<title>Node2</title>
<g id="a_node2"><a xlink:href="../../d7/d6a/classleanux_1_1tools_1_1lmon_1_1LardHistory.html#abbb0f0248af6b10fa46957148cd61bb1" target="_top" xlink:title=" ">
<polygon fill="none" stroke="black" points="154,-485.42 154,-515.42 284,-515.42 284,-485.42 154,-485.42"/>
<text text-anchor="start" x="162" y="-503.42" font-family="Helvetica,sans-Serif" font-size="10.00">leanux::tools::lmon</text>
<text text-anchor="middle" x="219" y="-492.42" font-family="Helvetica,sans-Serif" font-size="10.00">::LardHistory::dayDown</text>
</a>
</g>
</g>
<!-- Node1&#45;&gt;Node2 -->
<g id="edge1" class="edge">
<title>Node1&#45;&gt;Node2</title>
<path fill="none" stroke="midnightblue" d="M570.47,-329.7C549.52,-358.36 510.14,-406.54 465,-433.42 408.93,-466.82 335.81,-484 284.09,-492.55"/>
<polygon fill="midnightblue" stroke="midnightblue" points="573.39,-331.65 576.37,-321.48 567.7,-327.57 573.39,-331.65"/>
</g>
<!-- Node6 -->
<g id="node4" class="node">
<title>Node6</title>
<g id="a_node4"><a xlink:href="../../d7/d6a/classleanux_1_1tools_1_1lmon_1_1LardHistory.html#a2248617d682e0af0e7f2bfc76f7c4bde" target="_top" xlink:title=" ">
<polygon fill="none" stroke="black" points="161,-436.42 161,-466.42 277,-466.42 277,-436.42 161,-436.42"/>
<text text-anchor="start" x="169" y="-454.42" font-family="Helvetica,sans-Serif" font-size="10.00">leanux::tools::lmon</text>
<text text-anchor="middle" x="219" y="-443.42" font-family="Helvetica,sans-Serif" font-size="10.00">::LardHistory::dayUp</text>
</a>
</g>
</g>
<!-- Node1&#45;&gt;Node6 -->
<g id="edge3" class="edge">
<title>Node1&#45;&gt;Node6</title>
<path fill="none" stroke="midnightblue" d="M564.07,-328.95C541.16,-350.62 503.57,-382.65 465,-400.42 404.43,-428.34 328.41,-441.11 277.25,-446.87"/>
<polygon fill="midnightblue" stroke="midnightblue" points="566.77,-331.21 571.54,-321.75 561.91,-326.17 566.77,-331.21"/>
</g>
<!-- Node7 -->
<g id="node5" class="node">
<title>Node7</title>
<g id="a_node5"><a xlink:href="../../d7/d6a/classleanux_1_1tools_1_1lmon_1_1LardHistory.html#a0e50738d2a673a6b539cb33b0c03ef74" target="_top" xlink:title=" ">
<polygon fill="none" stroke="black" points="152,-387.42 152,-417.42 286,-417.42 286,-387.42 152,-387.42"/>
<text text-anchor="start" x="160" y="-405.42" font-family="Helvetica,sans-Serif" font-size="10.00">leanux::tools::lmon</text>
<text text-anchor="middle" x="219" y="-394.42" font-family="Helvetica,sans-Serif" font-size="10.00">::LardHistory::hourDown</text>
</a>
</g>
</g>
<!-- Node1&#45;&gt;Node7 -->
<g id="edge5" class="edge">
<title>Node1&#45;&gt;Node7</title>
<path fill="none" stroke="midnightblue" d="M557.23,-327.2C533.53,-342.91 498.66,-363.57 465,-374.42 406.43,-393.32 336.39,-399.82 286.22,-401.89"/>
<polygon fill="midnightblue" stroke="midnightblue" points="559.42,-329.95 565.75,-321.45 555.5,-324.15 559.42,-329.95"/>
</g>
<!-- Node8 -->
<g id="node6" class="node">
<title>Node8</title>
<g id="a_node6"><a xlink:href="../../d7/d6a/classleanux_1_1tools_1_1lmon_1_1LardHistory.html#aa3ed9afac22ff0c13e5aee6d9e73789e" target="_top" xlink:title=" ">
<polygon fill="none" stroke="black" points="159.5,-338.42 159.5,-368.42 278.5,-368.42 278.5,-338.42 159.5,-338.42"/>
<text text-anchor="start" x="167.5" y="-356.42" font-family="Helvetica,sans-Serif" font-size="10.00">leanux::tools::lmon</text>
<text text-anchor="middle" x="219" y="-345.42" font-family="Helvetica,sans-Serif" font-size="10.00">::LardHistory::hourUp</text>
</a>
</g>
</g>
<!-- Node1&#45;&gt;Node8 -->
<g id="edge7" class="edge">
<title>Node1&#45;&gt;Node8</title>
<path fill="none" stroke="midnightblue" d="M549.3,-326.18C525.84,-337.51 494.5,-350.59 465,-356.42 402.2,-368.84 328.56,-365.62 278.53,-360.86"/>
<polygon fill="midnightblue" stroke="midnightblue" points="551.11,-329.2 558.52,-321.63 548.01,-322.92 551.11,-329.2"/>
</g>
<!-- Node9 -->
<g id="node7" class="node">
<title>Node9</title>
<g id="a_node7"><a xlink:href="../../d7/d6a/classleanux_1_1tools_1_1lmon_1_1LardHistory.html#a577cf0b864133c7e296c4ec1f389099e" target="_top" xlink:title=" ">
<polygon fill="none" stroke="black" points="149,-136.42 149,-166.42 289,-166.42 289,-136.42 149,-136.42"/>
<text text-anchor="start" x="157" y="-154.42" font-family="Helvetica,sans-Serif" font-size="10.00">leanux::tools::lmon</text>
<text text-anchor="middle" x="219" y="-143.42" font-family="Helvetica,sans-Serif" font-size="10.00">::LardHistory::LardHistory</text>
</a>
</g>
</g>
<!-- Node1&#45;&gt;Node9 -->
<g id="edge9" class="edge">
<title>Node1&#45;&gt;Node9</title>
<path fill="none" stroke="midnightblue" d="M574.61,-281.98C556.4,-247.67 518.07,-186.5 465,-160.42 410.37,-133.58 340.33,-133.92 289.13,-139.45"/>
<polygon fill="midnightblue" stroke="midnightblue" points="571.71,-284.01 579.4,-291.3 577.94,-280.81 571.71,-284.01"/>
</g>
<!-- Node10 -->
<g id="node8" class="node">
<title>Node10</title>
<g id="a_node8"><a xlink:href="../../d7/d6a/classleanux_1_1tools_1_1lmon_1_1LardHistory.html#a29f82085fafd7a4b2d932721a5156e02" target="_top" xlink:title=" ">
<polygon fill="none" stroke="black" points="325,-316.42 325,-346.42 465,-346.42 465,-316.42 325,-316.42"/>
<text text-anchor="start" x="333" y="-334.42" font-family="Helvetica,sans-Serif" font-size="10.00">leanux::tools::lmon</text>
<text text-anchor="middle" x="395" y="-323.42" font-family="Helvetica,sans-Serif" font-size="10.00">::LardHistory::rangeDown</text>
</a>
</g>
</g>
<!-- Node1&#45;&gt;Node10 -->
<g id="edge10" class="edge">
<title>Node1&#45;&gt;Node10</title>
<path fill="none" stroke="midnightblue" d="M490.61,-319.01C481.98,-320.14 473.36,-321.27 465.03,-322.36"/>
<polygon fill="midnightblue" stroke="midnightblue" points="491.26,-322.45 500.72,-317.68 490.35,-315.51 491.26,-322.45"/>
</g>
<!-- Node11 -->
<g id="node9" class="node">
<title>Node11</title>
<g id="a_node9"><a xlink:href="../../d7/d6a/classleanux_1_1tools_1_1lmon_1_1LardHistory.html#a89c5b4e1aea91cbbe983475535e64c32" target="_top" xlink:title=" ">
<polygon fill="none" stroke="black" points="330,-267.42 330,-297.42 460,-297.42 460,-267.42 330,-267.42"/>
<text text-anchor="start" x="338" y="-285.42" font-family="Helvetica,sans-Serif" font-size="10.00">leanux::tools::lmon</text>
<text text-anchor="middle" x="395" y="-274.42" font-family="Helvetica,sans-Serif" font-size="10.00">::LardHistory::rangeEnd</text>
</a>
</g>
</g>
<!-- Node1&#45;&gt;Node11 -->
<g id="edge12" class="edge">
<title>Node1&#45;&gt;Node11</title>
<path fill="none" stroke="midnightblue" d="M490.79,-294.37C480.42,-293.06 470.05,-291.75 460.19,-290.51"/>
<polygon fill="midnightblue" stroke="midnightblue" points="490.36,-297.84 500.72,-295.62 491.24,-290.9 490.36,-297.84"/>
</g>
<!-- Node12 -->
<g id="node10" class="node">
<title>Node12</title>
<g id="a_node10"><a xlink:href="../../d7/d6a/classleanux_1_1tools_1_1lmon_1_1LardHistory.html#a4d332725ca42cfad561c91328c3d682d" target="_top" xlink:title=" ">
<polygon fill="none" stroke="black" points="327.5,-218.42 327.5,-248.42 462.5,-248.42 462.5,-218.42 327.5,-218.42"/>
<text text-anchor="start" x="335.5" y="-236.42" font-family="Helvetica,sans-Serif" font-size="10.00">leanux::tools::lmon</text>
<text text-anchor="middle" x="395" y="-225.42" font-family="Helvetica,sans-Serif" font-size="10.00">::LardHistory::rangeStart</text>
</a>
</g>
</g>
<!-- Node1&#45;&gt;Node12 -->
<g id="edge14" class="edge">
<title>Node1&#45;&gt;Node12</title>
<path fill="none" stroke="midnightblue" d="M539.78,-287.61C517.24,-278.62 489.78,-267.81 465,-258.42 456.3,-255.13 446.95,-251.68 438.03,-248.44"/>
<polygon fill="midnightblue" stroke="midnightblue" points="538.53,-290.88 549.11,-291.33 541.13,-284.37 538.53,-290.88"/>
</g>
<!-- Node13 -->
<g id="node11" class="node">
<title>Node13</title>
<g id="a_node11"><a xlink:href="../../d7/d6a/classleanux_1_1tools_1_1lmon_1_1LardHistory.html#ab1097623530fb774e9375980fbb8f326" target="_top" xlink:title=" ">
<polygon fill="none" stroke="black" points="332.5,-169.42 332.5,-199.42 457.5,-199.42 457.5,-169.42 332.5,-169.42"/>
<text text-anchor="start" x="340.5" y="-187.42" font-family="Helvetica,sans-Serif" font-size="10.00">leanux::tools::lmon</text>
<text text-anchor="middle" x="395" y="-176.42" font-family="Helvetica,sans-Serif" font-size="10.00">::LardHistory::rangeUp</text>
</a>
</g>
</g>
<!-- Node1&#45;&gt;Node13 -->
<g id="edge16" class="edge">
<title>Node1&#45;&gt;Node13</title>
<path fill="none" stroke="midnightblue" d="M563.52,-284.24C540.25,-262.75 502.45,-230.4 465,-209.42 458.44,-205.75 451.24,-202.44 444.04,-199.53"/>
<polygon fill="midnightblue" stroke="midnightblue" points="561.14,-286.81 570.84,-291.08 565.93,-281.7 561.14,-286.81"/>
</g>
<!-- Node14 -->
<g id="node12" class="node">
<title>Node14</title>
<g id="a_node12"><a xlink:href="../../d7/d6a/classleanux_1_1tools_1_1lmon_1_1LardHistory.html#aafd1a1a978d28fd53c8a473071cc64b4" target="_top" xlink:title="Sets the current time selection into the lard data.">
<polygon fill="none" stroke="black" points="331,-81.42 331,-111.42 459,-111.42 459,-81.42 331,-81.42"/>
<text text-anchor="start" x="339" y="-99.42" font-family="Helvetica,sans-Serif" font-size="10.00">leanux::tools::lmon</text>
<text text-anchor="middle" x="395" y="-88.42" font-family="Helvetica,sans-Serif" font-size="10.00">::LardHistory::setZoom</text>
</a>
</g>
</g>
<!-- Node1&#45;&gt;Node14 -->
<g id="edge18" class="edge">
<title>Node1&#45;&gt;Node14</title>
<path fill="none" stroke="midnightblue" d="M575.61,-281.99C557.6,-244.04 518.23,-170.68 465,-126.42 457.87,-120.5 449.39,-115.55 440.85,-111.49"/>
<polygon fill="midnightblue" stroke="midnightblue" points="572.54,-283.68 579.93,-291.27 578.89,-280.73 572.54,-283.68"/>
</g>
<!-- Node17 -->
<g id="node15" class="node">
<title>Node17</title>
<g id="a_node15"><a xlink:href="../../d7/d6a/classleanux_1_1tools_1_1lmon_1_1LardHistory.html#ac2757f570c6bdacb51542f518d20f7c8" target="_top" xlink:title=" ">
<polygon fill="none" stroke="black" points="326,-13.42 326,-43.42 464,-43.42 464,-13.42 326,-13.42"/>
<text text-anchor="start" x="334" y="-31.42" font-family="Helvetica,sans-Serif" font-size="10.00">leanux::tools::lmon</text>
<text text-anchor="middle" x="395" y="-20.42" font-family="Helvetica,sans-Serif" font-size="10.00">::LardHistory::weekDown</text>
</a>
</g>
</g>
<!-- Node1&#45;&gt;Node17 -->
<g id="edge24" class="edge">
<title>Node1&#45;&gt;Node17</title>
<path fill="none" stroke="midnightblue" d="M578.54,-281.72C562.84,-236.03 524.2,-137.12 465,-72.42 454.35,-60.79 439.97,-50.97 427.09,-43.58"/>
<polygon fill="midnightblue" stroke="midnightblue" points="575.28,-283.02 581.79,-291.38 581.92,-280.79 575.28,-283.02"/>
</g>
<!-- Node18 -->
<g id="node16" class="node">
<title>Node18</title>
<g id="a_node16"><a xlink:href="../../d7/d6a/classleanux_1_1tools_1_1lmon_1_1LardHistory.html#ab189cc20c695e58eea23f77b780da309" target="_top" xlink:title=" ">
<polygon fill="none" stroke="black" points="333,-526.42 333,-556.42 457,-556.42 457,-526.42 333,-526.42"/>
<text text-anchor="start" x="341" y="-544.42" font-family="Helvetica,sans-Serif" font-size="10.00">leanux::tools::lmon</text>
<text text-anchor="middle" x="395" y="-533.42" font-family="Helvetica,sans-Serif" font-size="10.00">::LardHistory::weekUp</text>
</a>
</g>
</g>
<!-- Node1&#45;&gt;Node18 -->
<g id="edge26" class="edge">
<title>Node1&#45;&gt;Node18</title>
<path fill="none" stroke="midnightblue" d="M577.26,-330.96C560.58,-372.41 521.8,-456.8 465,-508.42 457.04,-515.66 447.21,-521.62 437.49,-526.39"/>
<polygon fill="midnightblue" stroke="midnightblue" points="580.53,-332.22 580.94,-321.63 574.02,-329.65 580.53,-332.22"/>
</g>
<!-- Node3 -->
<g id="node3" class="node">
<title>Node3</title>
<g id="a_node3"><a xlink:href="../../d5/de6/classleanux_1_1tools_1_1lmon_1_1Screen.html#a010f9459d506af3a4251ea0a644282bd" target="_top" xlink:title="Run the Screen in history mode.">
<polygon fill="none" stroke="red" points="0,-275.42 0,-305.42 113,-305.42 113,-275.42 0,-275.42"/>
<text text-anchor="start" x="8" y="-293.42" font-family="Helvetica,sans-Serif" font-size="10.00">leanux::tools::lmon</text>
<text text-anchor="middle" x="56.5" y="-282.42" font-family="Helvetica,sans-Serif" font-size="10.00">::Screen::runHistory</text>
</a>
</g>
</g>
<!-- Node2&#45;&gt;Node3 -->
<g id="edge2" class="edge">
<title>Node2&#45;&gt;Node3</title>
<path fill="none" stroke="midnightblue" d="M153.19,-479.81C151.74,-478.74 150.34,-477.61 149,-476.42 94.68,-428.38 69.18,-340.73 60.79,-305.59"/>
<polygon fill="midnightblue" stroke="midnightblue" points="151.66,-482.98 161.98,-485.36 155.4,-477.06 151.66,-482.98"/>
</g>
<!-- Node6&#45;&gt;Node3 -->
<g id="edge4" class="edge">
<title>Node6&#45;&gt;Node3</title>
<path fill="none" stroke="midnightblue" d="M154.62,-431.36C152.67,-430.12 150.79,-428.81 149,-427.42 105.56,-393.83 75.81,-333.56 63.65,-305.53"/>
<polygon fill="midnightblue" stroke="midnightblue" points="153.06,-434.5 163.5,-436.33 156.48,-428.39 153.06,-434.5"/>
</g>
<!-- Node7&#45;&gt;Node3 -->
<g id="edge6" class="edge">
<title>Node7&#45;&gt;Node3</title>
<path fill="none" stroke="midnightblue" d="M157.62,-383.21C154.65,-381.71 151.76,-380.12 149,-378.42 116.31,-358.37 85.79,-324.92 69.59,-305.55"/>
<polygon fill="midnightblue" stroke="midnightblue" points="156.18,-386.4 166.73,-387.41 159.12,-380.04 156.18,-386.4"/>
</g>
<!-- Node8&#45;&gt;Node3 -->
<g id="edge8" class="edge">
<title>Node8&#45;&gt;Node3</title>
<path fill="none" stroke="midnightblue" d="M170.05,-334.6C146.35,-325.3 118.15,-314.23 95.91,-305.5"/>
<polygon fill="midnightblue" stroke="midnightblue" points="168.97,-337.94 179.56,-338.33 171.53,-331.42 168.97,-337.94"/>
</g>
<!-- Node10&#45;&gt;Node3 -->
<g id="edge11" class="edge">
<title>Node10&#45;&gt;Node3</title>
<path fill="none" stroke="midnightblue" d="M314.55,-321.74C252.56,-314.19 168.02,-303.89 113.1,-297.2"/>
<polygon fill="midnightblue" stroke="midnightblue" points="314.34,-325.24 324.68,-322.98 315.18,-318.3 314.34,-325.24"/>
</g>
<!-- Node11&#45;&gt;Node3 -->
<g id="edge13" class="edge">
<title>Node11&#45;&gt;Node3</title>
<path fill="none" stroke="midnightblue" d="M319.75,-284.19C257.41,-285.67 169.73,-287.76 113.25,-289.1"/>
<polygon fill="midnightblue" stroke="midnightblue" points="320,-287.68 329.91,-283.95 319.83,-280.69 320,-287.68"/>
</g>
<!-- Node12&#45;&gt;Node3 -->
<g id="edge15" class="edge">
<title>Node12&#45;&gt;Node3</title>
<path fill="none" stroke="midnightblue" d="M316.96,-246.47C254.77,-257.01 168.75,-271.58 113.12,-281"/>
<polygon fill="midnightblue" stroke="midnightblue" points="317.84,-249.88 327.12,-244.75 316.67,-242.97 317.84,-249.88"/>
</g>
<!-- Node13&#45;&gt;Node3 -->
<g id="edge17" class="edge">
<title>Node13&#45;&gt;Node3</title>
<path fill="none" stroke="midnightblue" d="M322.42,-199.1C272.98,-210.14 206.12,-226.86 149,-247.42 127.37,-255.21 103.91,-266.29 86.17,-275.25"/>
<polygon fill="midnightblue" stroke="midnightblue" points="323.37,-202.48 332.38,-196.9 321.86,-195.64 323.37,-202.48"/>
</g>
<!-- Node14&#45;&gt;Node9 -->
<g id="edge19" class="edge">
<title>Node14&#45;&gt;Node9</title>
<path fill="none" stroke="midnightblue" d="M336.72,-114.53C314.29,-121.62 288.87,-129.66 267.49,-136.41"/>
<polygon fill="midnightblue" stroke="midnightblue" points="337.97,-117.8 346.45,-111.45 335.86,-111.13 337.97,-117.8"/>
</g>
<!-- Node15 -->
<g id="node13" class="node">
<title>Node15</title>
<g id="a_node13"><a xlink:href="../../d7/d6a/classleanux_1_1tools_1_1lmon_1_1LardHistory.html#a10f36becfe8720990cc1d61cb5c4fb69" target="_top" xlink:title=" ">
<polygon fill="none" stroke="black" points="159,-38.42 159,-68.42 279,-68.42 279,-38.42 159,-38.42"/>
<text text-anchor="start" x="167" y="-56.42" font-family="Helvetica,sans-Serif" font-size="10.00">leanux::tools::lmon</text>
<text text-anchor="middle" x="219" y="-45.42" font-family="Helvetica,sans-Serif" font-size="10.00">::LardHistory::zoomIn</text>
</a>
</g>
</g>
<!-- Node14&#45;&gt;Node15 -->
<g id="edge20" class="edge">
<title>Node14&#45;&gt;Node15</title>
<path fill="none" stroke="midnightblue" d="M323.13,-78.91C308.5,-75.29 293.23,-71.52 279.06,-68.02"/>
<polygon fill="midnightblue" stroke="midnightblue" points="322.6,-82.38 333.14,-81.39 324.27,-75.59 322.6,-82.38"/>
</g>
<!-- Node16 -->
<g id="node14" class="node">
<title>Node16</title>
<g id="a_node14"><a xlink:href="../../d7/d6a/classleanux_1_1tools_1_1lmon_1_1LardHistory.html#a3f832bdd26bec87963018ca9dd4655a4" target="_top" xlink:title=" ">
<polygon fill="none" stroke="black" points="155,-87.42 155,-117.42 283,-117.42 283,-87.42 155,-87.42"/>
<text text-anchor="start" x="163" y="-105.42" font-family="Helvetica,sans-Serif" font-size="10.00">leanux::tools::lmon</text>
<text text-anchor="middle" x="219" y="-94.42" font-family="Helvetica,sans-Serif" font-size="10.00">::LardHistory::zoomOut</text>
</a>
</g>
</g>
<!-- Node14&#45;&gt;Node16 -->
<g id="edge22" class="edge">
<title>Node14&#45;&gt;Node16</title>
<path fill="none" stroke="midnightblue" d="M320.42,-98.96C308.06,-99.39 295.33,-99.83 283.26,-100.24"/>
<polygon fill="midnightblue" stroke="midnightblue" points="320.82,-102.45 330.69,-98.61 320.58,-95.45 320.82,-102.45"/>
</g>
<!-- Node15&#45;&gt;Node3 -->
<g id="edge21" class="edge">
<title>Node15&#45;&gt;Node3</title>
<path fill="none" stroke="midnightblue" d="M154.27,-74.02C152.42,-75.4 150.66,-76.86 149,-78.42 89.18,-134.77 66.49,-236.82 59.82,-275.24"/>
<polygon fill="midnightblue" stroke="midnightblue" points="156.27,-76.89 162.81,-68.55 152.5,-71 156.27,-76.89"/>
</g>
<!-- Node16&#45;&gt;Node3 -->
<g id="edge23" class="edge">
<title>Node16&#45;&gt;Node3</title>
<path fill="none" stroke="midnightblue" d="M155.33,-122.67C153.12,-124.15 151,-125.73 149,-127.42 100.24,-168.78 72.34,-243.01 62.07,-275.03"/>
<polygon fill="midnightblue" stroke="midnightblue" points="157.38,-125.52 164.25,-117.46 153.85,-119.48 157.38,-125.52"/>
</g>
<!-- Node17&#45;&gt;Node3 -->
<g id="edge25" class="edge">
<title>Node17&#45;&gt;Node3</title>
<path fill="none" stroke="midnightblue" d="M336.25,-10.94C282.67,1.54 203.25,10.09 149,-28.42 65.71,-87.56 57.62,-228.43 57.3,-275.11"/>
<polygon fill="midnightblue" stroke="midnightblue" points="335.73,-14.42 346.28,-13.39 337.39,-7.62 335.73,-14.42"/>
</g>
<!-- Node18&#45;&gt;Node3 -->
<g id="edge27" class="edge">
<title>Node18&#45;&gt;Node3</title>
<path fill="none" stroke="midnightblue" d="M322.75,-555.75C269.81,-562.23 198.5,-561.7 149,-525.42 75.01,-471.21 60.84,-348.35 58.14,-305.5"/>
<polygon fill="midnightblue" stroke="midnightblue" points="323.29,-559.21 332.74,-554.42 322.37,-552.27 323.29,-559.21"/>
</g>
</g>
</svg>
