<?xml version="1.0" encoding="UTF-8" standalone="no"?>
<!DOCTYPE svg PUBLIC "-//W3C//DTD SVG 1.1//EN"
 "http://www.w3.org/Graphics/SVG/1.1/DTD/svg11.dtd">
<!-- Generated by graphviz version 2.43.0 (0)
 -->
<!-- Title: leanux::tools::lmon::LardHistory::hourUp Pages: 1 -->
<svg width="518pt" height="235pt"
 viewBox="0.00 0.00 518.00 235.00" xmlns="http://www.w3.org/2000/svg" xmlns:xlink="http://www.w3.org/1999/xlink">
<g id="graph0" class="graph" transform="scale(1 1) rotate(0) translate(4 231)">
<title>leanux::tools::lmon::LardHistory::hourUp</title>
<!-- Node1 -->
<g id="node1" class="node">
<title>Node1</title>
<g id="a_node1"><a xlink:title=" ">
<polygon fill="#bfbfbf" stroke="black" points="0,-97.5 0,-127.5 119,-127.5 119,-97.5 0,-97.5"/>
<text text-anchor="start" x="8" y="-115.5" font-family="Helvetica,sans-Serif" font-size="10.00">leanux::tools::lmon</text>
<text text-anchor="middle" x="59.5" y="-104.5" font-family="Helvetica,sans-Serif" font-size="10.00">::LardHistory::hourUp</text>
</a>
</g>
</g>
<!-- Node2 -->
<g id="node2" class="node">
<title>Node2</title>
<g id="a_node2"><a xlink:href="../../d7/d6a/classleanux_1_1tools_1_1lmon_1_1LardHistory.html#a1ec352b33775f8da5ea9a32ca1a4cd0c" target="_top" xlink:title=" ">
<polygon fill="none" stroke="black" points="163,-122.5 163,-152.5 320,-152.5 320,-122.5 163,-122.5"/>
<text text-anchor="start" x="171" y="-140.5" font-family="Helvetica,sans-Serif" font-size="10.00">leanux::tools::lmon</text>
<text text-anchor="middle" x="241.5" y="-129.5" font-family="Helvetica,sans-Serif" font-size="10.00">::LardHistory::updateMinMax</text>
</a>
</g>
</g>
<!-- Node1&#45;&gt;Node2 -->
<g id="edge1" class="edge">
<title>Node1&#45;&gt;Node2</title>
<path fill="none" stroke="midnightblue" d="M119.44,-120.69C130.14,-122.17 141.52,-123.75 152.84,-125.33"/>
<polygon fill="midnightblue" stroke="midnightblue" points="152.38,-128.79 162.76,-126.7 153.34,-121.86 152.38,-128.79"/>
</g>
<!-- Node8 -->
<g id="node7" class="node">
<title>Node8</title>
<g id="a_node7"><a xlink:href="../../d7/d6a/classleanux_1_1tools_1_1lmon_1_1LardHistory.html#a7eac92d3a722d105aa2ee05a96238737" target="_top" xlink:title=" ">
<polygon fill="none" stroke="black" points="155,-73.5 155,-103.5 328,-103.5 328,-73.5 155,-73.5"/>
<text text-anchor="start" x="163" y="-91.5" font-family="Helvetica,sans-Serif" font-size="10.00">leanux::tools::lmon</text>
<text text-anchor="middle" x="241.5" y="-80.5" font-family="Helvetica,sans-Serif" font-size="10.00">::LardHistory::updateRangeTime</text>
</a>
</g>
</g>
<!-- Node1&#45;&gt;Node8 -->
<g id="edge6" class="edge">
<title>Node1&#45;&gt;Node8</title>
<path fill="none" stroke="midnightblue" d="M119.44,-104.64C127.62,-103.55 136.19,-102.41 144.83,-101.26"/>
<polygon fill="midnightblue" stroke="midnightblue" points="145.54,-104.69 154.98,-99.9 144.61,-97.75 145.54,-104.69"/>
</g>
<!-- Node3 -->
<g id="node3" class="node">
<title>Node3</title>
<g id="a_node3"><a xlink:href="../../d4/d2c/classleanux_1_1persist_1_1Query.html#ac71ce2dce629c76434dfb541bbe55658" target="_top" xlink:title="Get double value from select list.">
<polygon fill="none" stroke="black" points="375,-196.5 375,-226.5 499,-226.5 499,-196.5 375,-196.5"/>
<text text-anchor="start" x="383" y="-214.5" font-family="Helvetica,sans-Serif" font-size="10.00">leanux::persist::Query</text>
<text text-anchor="middle" x="437" y="-203.5" font-family="Helvetica,sans-Serif" font-size="10.00">::getDouble</text>
</a>
</g>
</g>
<!-- Node2&#45;&gt;Node3 -->
<g id="edge2" class="edge">
<title>Node2&#45;&gt;Node3</title>
<path fill="none" stroke="midnightblue" d="M277.34,-152.58C301.5,-162.85 334.5,-176.53 364,-187.5 369.09,-189.39 374.42,-191.3 379.76,-193.17"/>
<polygon fill="midnightblue" stroke="midnightblue" points="378.76,-196.53 389.36,-196.47 381.04,-189.91 378.76,-196.53"/>
</g>
<!-- Node4 -->
<g id="node4" class="node">
<title>Node4</title>
<g id="a_node4"><a xlink:href="../../d4/d2c/classleanux_1_1persist_1_1Query.html#ada37977ad924b728401fa1fb7506cd2e" target="_top" xlink:title="Get long value from select list.">
<polygon fill="none" stroke="black" points="375,-147.5 375,-177.5 499,-177.5 499,-147.5 375,-147.5"/>
<text text-anchor="start" x="383" y="-165.5" font-family="Helvetica,sans-Serif" font-size="10.00">leanux::persist::Query</text>
<text text-anchor="middle" x="437" y="-154.5" font-family="Helvetica,sans-Serif" font-size="10.00">::getLong</text>
</a>
</g>
</g>
<!-- Node2&#45;&gt;Node4 -->
<g id="edge3" class="edge">
<title>Node2&#45;&gt;Node4</title>
<path fill="none" stroke="midnightblue" d="M320.09,-147.52C334.87,-149.43 350.27,-151.42 364.84,-153.31"/>
<polygon fill="midnightblue" stroke="midnightblue" points="364.4,-156.78 374.77,-154.59 365.3,-149.84 364.4,-156.78"/>
</g>
<!-- Node5 -->
<g id="node5" class="node">
<title>Node5</title>
<g id="a_node5"><a xlink:href="../../db/dff/classleanux_1_1persist_1_1Statement.html#a1b809c1b1d0e9d24af65e439c3893d74" target="_top" xlink:title="Prepare a SQL statement.">
<polygon fill="none" stroke="red" points="364,-98.5 364,-128.5 510,-128.5 510,-98.5 364,-98.5"/>
<text text-anchor="start" x="372" y="-116.5" font-family="Helvetica,sans-Serif" font-size="10.00">leanux::persist::Statement</text>
<text text-anchor="middle" x="437" y="-105.5" font-family="Helvetica,sans-Serif" font-size="10.00">::prepare</text>
</a>
</g>
</g>
<!-- Node2&#45;&gt;Node5 -->
<g id="edge4" class="edge">
<title>Node2&#45;&gt;Node5</title>
<path fill="none" stroke="midnightblue" d="M320.09,-127.88C331.12,-126.51 342.49,-125.1 353.61,-123.72"/>
<polygon fill="midnightblue" stroke="midnightblue" points="354.23,-127.17 363.73,-122.46 353.37,-120.22 354.23,-127.17"/>
</g>
<!-- Node7 -->
<g id="node6" class="node">
<title>Node7</title>
<g id="a_node6"><a xlink:href="../../d4/d2c/classleanux_1_1persist_1_1Query.html#a294e11c33a22761503c49418f5ca9815" target="_top" xlink:title="Step the result list, end of list returns false.">
<polygon fill="none" stroke="black" points="375,-49.5 375,-79.5 499,-79.5 499,-49.5 375,-49.5"/>
<text text-anchor="start" x="383" y="-67.5" font-family="Helvetica,sans-Serif" font-size="10.00">leanux::persist::Query</text>
<text text-anchor="middle" x="437" y="-56.5" font-family="Helvetica,sans-Serif" font-size="10.00">::step</text>
</a>
</g>
</g>
<!-- Node2&#45;&gt;Node7 -->
<g id="edge5" class="edge">
<title>Node2&#45;&gt;Node7</title>
<path fill="none" stroke="midnightblue" d="M304.97,-122.45C312.86,-119.83 320.72,-116.85 328,-113.5 345.47,-105.47 346.78,-98.06 364,-89.5 368.36,-87.33 372.96,-85.27 377.63,-83.33"/>
<polygon fill="midnightblue" stroke="midnightblue" points="379.27,-86.45 387.28,-79.52 376.7,-79.94 379.27,-86.45"/>
</g>
<!-- Node8&#45;&gt;Node4 -->
<g id="edge8" class="edge">
<title>Node8&#45;&gt;Node4</title>
<path fill="none" stroke="midnightblue" d="M303.21,-103.6C311.7,-106.47 320.19,-109.77 328,-113.5 345.58,-121.9 346.58,-129.78 364,-138.5 367.71,-140.36 371.6,-142.12 375.56,-143.79"/>
<polygon fill="midnightblue" stroke="midnightblue" points="374.32,-147.06 384.91,-147.49 376.9,-140.55 374.32,-147.06"/>
</g>
<!-- Node8&#45;&gt;Node5 -->
<g id="edge9" class="edge">
<title>Node8&#45;&gt;Node5</title>
<path fill="none" stroke="midnightblue" d="M328.22,-99.57C336.79,-100.68 345.48,-101.81 354.02,-102.91"/>
<polygon fill="midnightblue" stroke="midnightblue" points="353.58,-106.38 363.94,-104.19 354.48,-99.44 353.58,-106.38"/>
</g>
<!-- Node8&#45;&gt;Node7 -->
<g id="edge10" class="edge">
<title>Node8&#45;&gt;Node7</title>
<path fill="none" stroke="midnightblue" d="M328.22,-77.87C340.34,-76.37 352.69,-74.83 364.5,-73.37"/>
<polygon fill="midnightblue" stroke="midnightblue" points="365.23,-76.8 374.72,-72.1 364.37,-69.86 365.23,-76.8"/>
</g>
<!-- Node9 -->
<g id="node8" class="node">
<title>Node9</title>
<g id="a_node8"><a xlink:href="../../d9/d78/classleanux_1_1persist_1_1DML.html#a8df01a6d880515c22106e424ed342c81" target="_top" xlink:title="Bind a double value to the bind at position.">
<polygon fill="none" stroke="black" points="379,-0.5 379,-30.5 495,-30.5 495,-0.5 379,-0.5"/>
<text text-anchor="start" x="387" y="-18.5" font-family="Helvetica,sans-Serif" font-size="10.00">leanux::persist::DML</text>
<text text-anchor="middle" x="437" y="-7.5" font-family="Helvetica,sans-Serif" font-size="10.00">::bind</text>
</a>
</g>
</g>
<!-- Node8&#45;&gt;Node9 -->
<g id="edge7" class="edge">
<title>Node8&#45;&gt;Node9</title>
<path fill="none" stroke="midnightblue" d="M279.3,-73.5C303.31,-63.82 335.4,-51.11 364,-40.5 369.86,-38.33 376.01,-36.1 382.15,-33.92"/>
<polygon fill="midnightblue" stroke="midnightblue" points="383.46,-37.17 391.73,-30.54 381.13,-30.57 383.46,-37.17"/>
</g>
</g>
</svg>
