<?xml version="1.0" encoding="UTF-8" standalone="no"?>
<!DOCTYPE svg PUBLIC "-//W3C//DTD SVG 1.1//EN"
 "http://www.w3.org/Graphics/SVG/1.1/DTD/svg11.dtd">
<!-- Generated by graphviz version 2.43.0 (0)
 -->
<!-- Title: leanux::tools::lmon::LardHistory::updateMinMax Pages: 1 -->
<svg width="529pt" height="186pt"
 viewBox="0.00 0.00 529.00 186.00" xmlns="http://www.w3.org/2000/svg" xmlns:xlink="http://www.w3.org/1999/xlink">
<g id="graph0" class="graph" transform="scale(1 1) rotate(0) translate(4 182)">
<title>leanux::tools::lmon::LardHistory::updateMinMax</title>
<!-- Node1 -->
<g id="node1" class="node">
<title>Node1</title>
<g id="a_node1"><a xlink:title=" ">
<polygon fill="#bfbfbf" stroke="black" points="0,-73.5 0,-103.5 157,-103.5 157,-73.5 0,-73.5"/>
<text text-anchor="start" x="8" y="-91.5" font-family="Helvetica,sans-Serif" font-size="10.00">leanux::tools::lmon</text>
<text text-anchor="middle" x="78.5" y="-80.5" font-family="Helvetica,sans-Serif" font-size="10.00">::LardHistory::updateMinMax</text>
</a>
</g>
</g>
<!-- Node2 -->
<g id="node2" class="node">
<title>Node2</title>
<g id="a_node2"><a xlink:href="../../d4/d2c/classleanux_1_1persist_1_1Query.html#ac71ce2dce629c76434dfb541bbe55658" target="_top" xlink:title="Get double value from select list.">
<polygon fill="none" stroke="black" points="204,-147.5 204,-177.5 328,-177.5 328,-147.5 204,-147.5"/>
<text text-anchor="start" x="212" y="-165.5" font-family="Helvetica,sans-Serif" font-size="10.00">leanux::persist::Query</text>
<text text-anchor="middle" x="266" y="-154.5" font-family="Helvetica,sans-Serif" font-size="10.00">::getDouble</text>
</a>
</g>
</g>
<!-- Node1&#45;&gt;Node2 -->
<g id="edge1" class="edge">
<title>Node1&#45;&gt;Node2</title>
<path fill="none" stroke="midnightblue" d="M111.46,-103.53C134.02,-113.91 165.08,-127.72 193,-138.5 197.79,-140.35 202.8,-142.19 207.84,-143.99"/>
<polygon fill="midnightblue" stroke="midnightblue" points="206.93,-147.38 217.53,-147.37 209.24,-140.77 206.93,-147.38"/>
</g>
<!-- Node3 -->
<g id="node3" class="node">
<title>Node3</title>
<g id="a_node3"><a xlink:href="../../d4/d2c/classleanux_1_1persist_1_1Query.html#ada37977ad924b728401fa1fb7506cd2e" target="_top" xlink:title="Get long value from select list.">
<polygon fill="none" stroke="black" points="204,-98.5 204,-128.5 328,-128.5 328,-98.5 204,-98.5"/>
<text text-anchor="start" x="212" y="-116.5" font-family="Helvetica,sans-Serif" font-size="10.00">leanux::persist::Query</text>
<text text-anchor="middle" x="266" y="-105.5" font-family="Helvetica,sans-Serif" font-size="10.00">::getLong</text>
</a>
</g>
</g>
<!-- Node1&#45;&gt;Node3 -->
<g id="edge2" class="edge">
<title>Node1&#45;&gt;Node3</title>
<path fill="none" stroke="midnightblue" d="M157.09,-98.96C169.27,-100.6 181.81,-102.29 193.83,-103.91"/>
<polygon fill="midnightblue" stroke="midnightblue" points="193.41,-107.38 203.79,-105.25 194.35,-100.45 193.41,-107.38"/>
</g>
<!-- Node4 -->
<g id="node4" class="node">
<title>Node4</title>
<g id="a_node4"><a xlink:href="../../db/dff/classleanux_1_1persist_1_1Statement.html#a1b809c1b1d0e9d24af65e439c3893d74" target="_top" xlink:title="Prepare a SQL statement.">
<polygon fill="none" stroke="black" points="193,-49.5 193,-79.5 339,-79.5 339,-49.5 193,-49.5"/>
<text text-anchor="start" x="201" y="-67.5" font-family="Helvetica,sans-Serif" font-size="10.00">leanux::persist::Statement</text>
<text text-anchor="middle" x="266" y="-56.5" font-family="Helvetica,sans-Serif" font-size="10.00">::prepare</text>
</a>
</g>
</g>
<!-- Node1&#45;&gt;Node4 -->
<g id="edge3" class="edge">
<title>Node1&#45;&gt;Node4</title>
<path fill="none" stroke="midnightblue" d="M157.09,-78.46C165.59,-77.36 174.25,-76.24 182.8,-75.14"/>
<polygon fill="midnightblue" stroke="midnightblue" points="183.29,-78.6 192.75,-73.85 182.39,-71.66 183.29,-78.6"/>
</g>
<!-- Node6 -->
<g id="node6" class="node">
<title>Node6</title>
<g id="a_node6"><a xlink:href="../../d4/d2c/classleanux_1_1persist_1_1Query.html#a294e11c33a22761503c49418f5ca9815" target="_top" xlink:title="Step the result list, end of list returns false.">
<polygon fill="none" stroke="black" points="204,-0.5 204,-30.5 328,-30.5 328,-0.5 204,-0.5"/>
<text text-anchor="start" x="212" y="-18.5" font-family="Helvetica,sans-Serif" font-size="10.00">leanux::persist::Query</text>
<text text-anchor="middle" x="266" y="-7.5" font-family="Helvetica,sans-Serif" font-size="10.00">::step</text>
</a>
</g>
</g>
<!-- Node1&#45;&gt;Node6 -->
<g id="edge5" class="edge">
<title>Node1&#45;&gt;Node6</title>
<path fill="none" stroke="midnightblue" d="M113.53,-73.42C135.95,-63.65 166.04,-50.87 193,-40.5 198.75,-38.29 204.8,-36.05 210.84,-33.87"/>
<polygon fill="midnightblue" stroke="midnightblue" points="212.03,-37.16 220.28,-30.51 209.69,-30.57 212.03,-37.16"/>
</g>
<!-- Node5 -->
<g id="node5" class="node">
<title>Node5</title>
<g id="a_node5"><a xlink:href="../../db/dff/classleanux_1_1persist_1_1Statement.html#a5b31fb14297ad5c1c342cfc0d8f797de" target="_top" xlink:title="A statement handle can be explicitly closed without deleting the Statement object itself.">
<polygon fill="none" stroke="black" points="375,-49.5 375,-79.5 521,-79.5 521,-49.5 375,-49.5"/>
<text text-anchor="start" x="383" y="-67.5" font-family="Helvetica,sans-Serif" font-size="10.00">leanux::persist::Statement</text>
<text text-anchor="middle" x="448" y="-56.5" font-family="Helvetica,sans-Serif" font-size="10.00">::close</text>
</a>
</g>
</g>
<!-- Node4&#45;&gt;Node5 -->
<g id="edge4" class="edge">
<title>Node4&#45;&gt;Node5</title>
<path fill="none" stroke="midnightblue" d="M339.18,-64.5C347.52,-64.5 356.08,-64.5 364.54,-64.5"/>
<polygon fill="midnightblue" stroke="midnightblue" points="364.81,-68 374.81,-64.5 364.81,-61 364.81,-68"/>
</g>
</g>
</svg>
