<?xml version="1.0" encoding="UTF-8" standalone="no"?>
<!DOCTYPE svg PUBLIC "-//W3C//DTD SVG 1.1//EN"
 "http://www.w3.org/Graphics/SVG/1.1/DTD/svg11.dtd">
<!-- Generated by graphviz version 2.43.0 (0)
 -->
<!-- Title: leanux::tools::lmon::LardHistory::fetchXSysView Pages: 1 -->
<svg width="553pt" height="350pt"
 viewBox="0.00 0.00 553.00 350.00" xmlns="http://www.w3.org/2000/svg" xmlns:xlink="http://www.w3.org/1999/xlink">
<g id="graph0" class="graph" transform="scale(1 1) rotate(0) translate(4 346)">
<title>leanux::tools::lmon::LardHistory::fetchXSysView</title>
<!-- Node1 -->
<g id="node1" class="node">
<title>Node1</title>
<g id="a_node1"><a xlink:title=" ">
<polygon fill="#bfbfbf" stroke="black" points="0,-150.5 0,-180.5 157,-180.5 157,-150.5 0,-150.5"/>
<text text-anchor="start" x="8" y="-168.5" font-family="Helvetica,sans-Serif" font-size="10.00">leanux::tools::lmon</text>
<text text-anchor="middle" x="78.5" y="-157.5" font-family="Helvetica,sans-Serif" font-size="10.00">::LardHistory::fetchXSysView</text>
</a>
</g>
</g>
<!-- Node2 -->
<g id="node2" class="node">
<title>Node2</title>
<g id="a_node2"><a xlink:href="../../d9/d78/classleanux_1_1persist_1_1DML.html#a8df01a6d880515c22106e424ed342c81" target="_top" xlink:title="Bind a double value to the bind at position.">
<polygon fill="none" stroke="black" points="414,-311.5 414,-341.5 530,-341.5 530,-311.5 414,-311.5"/>
<text text-anchor="start" x="422" y="-329.5" font-family="Helvetica,sans-Serif" font-size="10.00">leanux::persist::DML</text>
<text text-anchor="middle" x="472" y="-318.5" font-family="Helvetica,sans-Serif" font-size="10.00">::bind</text>
</a>
</g>
</g>
<!-- Node1&#45;&gt;Node2 -->
<g id="edge1" class="edge">
<title>Node1&#45;&gt;Node2</title>
<path fill="none" stroke="midnightblue" d="M89.32,-180.54C106.81,-205.99 145.98,-257.12 193,-281.5 259.13,-315.79 345.01,-325.2 403.71,-327.21"/>
<polygon fill="midnightblue" stroke="midnightblue" points="403.88,-330.71 413.98,-327.49 404.08,-323.72 403.88,-330.71"/>
</g>
<!-- Node3 -->
<g id="node3" class="node">
<title>Node3</title>
<g id="a_node3"><a xlink:href="../../d7/d6a/classleanux_1_1tools_1_1lmon_1_1LardHistory.html#aa3deeb2cd3e963efe871d19289a1457d" target="_top" xlink:title=" ">
<polygon fill="none" stroke="black" points="193,-213.5 193,-243.5 363,-243.5 363,-213.5 193,-213.5"/>
<text text-anchor="start" x="201" y="-231.5" font-family="Helvetica,sans-Serif" font-size="10.00">leanux::tools::lmon</text>
<text text-anchor="middle" x="278" y="-220.5" font-family="Helvetica,sans-Serif" font-size="10.00">::LardHistory::getCPUStatRange</text>
</a>
</g>
</g>
<!-- Node1&#45;&gt;Node3 -->
<g id="edge2" class="edge">
<title>Node1&#45;&gt;Node3</title>
<path fill="none" stroke="midnightblue" d="M126.56,-180.51C154.64,-189.47 190.5,-200.91 220.16,-210.37"/>
<polygon fill="midnightblue" stroke="midnightblue" points="219.37,-213.79 229.96,-213.5 221.5,-207.12 219.37,-213.79"/>
</g>
<!-- Node4 -->
<g id="node4" class="node">
<title>Node4</title>
<g id="a_node4"><a xlink:href="../../d4/d2c/classleanux_1_1persist_1_1Query.html#ac71ce2dce629c76434dfb541bbe55658" target="_top" xlink:title="Get double value from select list.">
<polygon fill="none" stroke="black" points="410,-262.5 410,-292.5 534,-292.5 534,-262.5 410,-262.5"/>
<text text-anchor="start" x="418" y="-280.5" font-family="Helvetica,sans-Serif" font-size="10.00">leanux::persist::Query</text>
<text text-anchor="middle" x="472" y="-269.5" font-family="Helvetica,sans-Serif" font-size="10.00">::getDouble</text>
</a>
</g>
</g>
<!-- Node1&#45;&gt;Node4 -->
<g id="edge10" class="edge">
<title>Node1&#45;&gt;Node4</title>
<path fill="none" stroke="midnightblue" d="M93.18,-180.53C112.94,-201.1 151.67,-237.33 193,-253.5 259.71,-279.59 342.11,-283.55 399.81,-282.24"/>
<polygon fill="midnightblue" stroke="midnightblue" points="400.04,-285.73 409.93,-281.95 399.84,-278.73 400.04,-285.73"/>
</g>
<!-- Node6 -->
<g id="node6" class="node">
<title>Node6</title>
<g id="a_node6"><a xlink:href="../../db/dff/classleanux_1_1persist_1_1Statement.html#a1b809c1b1d0e9d24af65e439c3893d74" target="_top" xlink:title="Prepare a SQL statement.">
<polygon fill="none" stroke="red" points="399,-164.5 399,-194.5 545,-194.5 545,-164.5 399,-164.5"/>
<text text-anchor="start" x="407" y="-182.5" font-family="Helvetica,sans-Serif" font-size="10.00">leanux::persist::Statement</text>
<text text-anchor="middle" x="472" y="-171.5" font-family="Helvetica,sans-Serif" font-size="10.00">::prepare</text>
</a>
</g>
</g>
<!-- Node1&#45;&gt;Node6 -->
<g id="edge12" class="edge">
<title>Node1&#45;&gt;Node6</title>
<path fill="none" stroke="midnightblue" d="M157.32,-168.28C224.24,-170.68 320.47,-174.12 388.67,-176.56"/>
<polygon fill="midnightblue" stroke="midnightblue" points="388.82,-180.06 398.94,-176.92 389.07,-173.07 388.82,-180.06"/>
</g>
<!-- Node8 -->
<g id="node7" class="node">
<title>Node8</title>
<g id="a_node7"><a xlink:href="../../d4/d2c/classleanux_1_1persist_1_1Query.html#a294e11c33a22761503c49418f5ca9815" target="_top" xlink:title="Step the result list, end of list returns false.">
<polygon fill="none" stroke="black" points="410,-115.5 410,-145.5 534,-145.5 534,-115.5 410,-115.5"/>
<text text-anchor="start" x="418" y="-133.5" font-family="Helvetica,sans-Serif" font-size="10.00">leanux::persist::Query</text>
<text text-anchor="middle" x="472" y="-122.5" font-family="Helvetica,sans-Serif" font-size="10.00">::step</text>
</a>
</g>
</g>
<!-- Node1&#45;&gt;Node8 -->
<g id="edge13" class="edge">
<title>Node1&#45;&gt;Node8</title>
<path fill="none" stroke="midnightblue" d="M157.32,-158.54C227.84,-152.24 330.93,-143.02 399.44,-136.9"/>
<polygon fill="midnightblue" stroke="midnightblue" points="400.06,-140.36 409.71,-135.98 399.44,-133.38 400.06,-140.36"/>
</g>
<!-- Node9 -->
<g id="node8" class="node">
<title>Node9</title>
<g id="a_node8"><a xlink:href="../../da/da3/namespaceleanux_1_1cpu.html#aed13e7a256443ad29418d1fd83b27b8e" target="_top" xlink:title="Sum the entries in all to derive the total.">
<polygon fill="none" stroke="black" points="209,-99 209,-118 347,-118 347,-99 209,-99"/>
<text text-anchor="middle" x="278" y="-106" font-family="Helvetica,sans-Serif" font-size="10.00">leanux::cpu::getCPUTotal</text>
</a>
</g>
</g>
<!-- Node1&#45;&gt;Node9 -->
<g id="edge8" class="edge">
<title>Node1&#45;&gt;Node9</title>
<path fill="none" stroke="midnightblue" d="M131.18,-150.42C150.57,-144.78 172.79,-138.33 193,-132.5 206.24,-128.68 220.66,-124.55 233.76,-120.81"/>
<polygon fill="midnightblue" stroke="midnightblue" points="234.82,-124.15 243.47,-118.04 232.9,-117.42 234.82,-124.15"/>
</g>
<!-- Node10 -->
<g id="node9" class="node">
<title>Node10</title>
<g id="a_node9"><a xlink:href="../../da/da3/namespaceleanux_1_1cpu.html#a3b1bbe660ecf384b94d5915f3d90e2b7" target="_top" xlink:title="Compute the total amount of CPU time in stat.">
<polygon fill="none" stroke="black" points="205,-49.5 205,-79.5 351,-79.5 351,-49.5 205,-49.5"/>
<text text-anchor="start" x="213" y="-67.5" font-family="Helvetica,sans-Serif" font-size="10.00">leanux::cpu::getCPUUsage</text>
<text text-anchor="middle" x="278" y="-56.5" font-family="Helvetica,sans-Serif" font-size="10.00">Total</text>
</a>
</g>
</g>
<!-- Node1&#45;&gt;Node10 -->
<g id="edge9" class="edge">
<title>Node1&#45;&gt;Node10</title>
<path fill="none" stroke="midnightblue" d="M98.12,-150.44C119.78,-133.56 157.16,-106.36 193,-89.5 197.91,-87.19 203.07,-85.04 208.33,-83.05"/>
<polygon fill="midnightblue" stroke="midnightblue" points="209.63,-86.31 217.87,-79.64 207.27,-79.72 209.63,-86.31"/>
</g>
<!-- Node11 -->
<g id="node10" class="node">
<title>Node11</title>
<g id="a_node10"><a xlink:href="../../d4/d2c/classleanux_1_1persist_1_1Query.html#ada37977ad924b728401fa1fb7506cd2e" target="_top" xlink:title="Get long value from select list.">
<polygon fill="none" stroke="black" points="216,-0.5 216,-30.5 340,-30.5 340,-0.5 216,-0.5"/>
<text text-anchor="start" x="224" y="-18.5" font-family="Helvetica,sans-Serif" font-size="10.00">leanux::persist::Query</text>
<text text-anchor="middle" x="278" y="-7.5" font-family="Helvetica,sans-Serif" font-size="10.00">::getLong</text>
</a>
</g>
</g>
<!-- Node1&#45;&gt;Node11 -->
<g id="edge11" class="edge">
<title>Node1&#45;&gt;Node11</title>
<path fill="none" stroke="midnightblue" d="M89.05,-150.18C106.43,-123.6 145.79,-68.96 193,-39.5 197.13,-36.93 201.54,-34.62 206.09,-32.55"/>
<polygon fill="midnightblue" stroke="midnightblue" points="207.69,-35.68 215.61,-28.65 205.03,-29.21 207.69,-35.68"/>
</g>
<!-- Node3&#45;&gt;Node2 -->
<g id="edge3" class="edge">
<title>Node3&#45;&gt;Node2</title>
<path fill="none" stroke="midnightblue" d="M300.26,-243.72C323.61,-259.92 362.63,-285.51 399,-302.5 403,-304.37 407.19,-306.16 411.45,-307.87"/>
<polygon fill="midnightblue" stroke="midnightblue" points="410.25,-311.15 420.84,-311.44 412.74,-304.61 410.25,-311.15"/>
</g>
<!-- Node3&#45;&gt;Node4 -->
<g id="edge4" class="edge">
<title>Node3&#45;&gt;Node4</title>
<path fill="none" stroke="midnightblue" d="M337.91,-243.53C358.28,-248.73 381.27,-254.6 402.35,-259.98"/>
<polygon fill="midnightblue" stroke="midnightblue" points="401.65,-263.41 412.2,-262.49 403.38,-256.63 401.65,-263.41"/>
</g>
<!-- Node5 -->
<g id="node5" class="node">
<title>Node5</title>
<g id="a_node5"><a xlink:href="../../d4/d2c/classleanux_1_1persist_1_1Query.html#ab4af83ebf13a4f8c91b3dde1ab2a927b" target="_top" xlink:title="Test if the result is NULL.">
<polygon fill="none" stroke="black" points="410,-213.5 410,-243.5 534,-243.5 534,-213.5 410,-213.5"/>
<text text-anchor="start" x="418" y="-231.5" font-family="Helvetica,sans-Serif" font-size="10.00">leanux::persist::Query</text>
<text text-anchor="middle" x="472" y="-220.5" font-family="Helvetica,sans-Serif" font-size="10.00">::isNull</text>
</a>
</g>
</g>
<!-- Node3&#45;&gt;Node5 -->
<g id="edge5" class="edge">
<title>Node3&#45;&gt;Node5</title>
<path fill="none" stroke="midnightblue" d="M363.21,-228.5C375.37,-228.5 387.78,-228.5 399.66,-228.5"/>
<polygon fill="midnightblue" stroke="midnightblue" points="399.93,-232 409.93,-228.5 399.93,-225 399.93,-232"/>
</g>
<!-- Node3&#45;&gt;Node6 -->
<g id="edge6" class="edge">
<title>Node3&#45;&gt;Node6</title>
<path fill="none" stroke="midnightblue" d="M337.91,-213.47C358.28,-208.27 381.27,-202.4 402.35,-197.02"/>
<polygon fill="midnightblue" stroke="midnightblue" points="403.38,-200.37 412.2,-194.51 401.65,-193.59 403.38,-200.37"/>
</g>
<!-- Node3&#45;&gt;Node8 -->
<g id="edge7" class="edge">
<title>Node3&#45;&gt;Node8</title>
<path fill="none" stroke="midnightblue" d="M300.26,-213.28C323.61,-197.08 362.63,-171.49 399,-154.5 403,-152.63 407.19,-150.84 411.45,-149.13"/>
<polygon fill="midnightblue" stroke="midnightblue" points="412.74,-152.39 420.84,-145.56 410.25,-145.85 412.74,-152.39"/>
</g>
</g>
</svg>
