<?xml version="1.0" encoding="UTF-8" standalone="no"?>
<!DOCTYPE svg PUBLIC "-//W3C//DTD SVG 1.1//EN"
 "http://www.w3.org/Graphics/SVG/1.1/DTD/svg11.dtd">
<!-- Generated by graphviz version 2.43.0 (0)
 -->
<!-- Title: leanux::tools::lmon::LardHistory::setZoom Pages: 1 -->
<svg width="461pt" height="137pt"
 viewBox="0.00 0.00 461.00 137.00" xmlns="http://www.w3.org/2000/svg" xmlns:xlink="http://www.w3.org/1999/xlink">
<g id="graph0" class="graph" transform="scale(1 1) rotate(0) translate(4 133)">
<title>leanux::tools::lmon::LardHistory::setZoom</title>
<!-- Node1 -->
<g id="node1" class="node">
<title>Node1</title>
<g id="a_node1"><a xlink:title="Sets the current time selection into the lard data.">
<polygon fill="#bfbfbf" stroke="black" points="325,-49.5 325,-79.5 453,-79.5 453,-49.5 325,-49.5"/>
<text text-anchor="start" x="333" y="-67.5" font-family="Helvetica,sans-Serif" font-size="10.00">leanux::tools::lmon</text>
<text text-anchor="middle" x="389" y="-56.5" font-family="Helvetica,sans-Serif" font-size="10.00">::LardHistory::setZoom</text>
</a>
</g>
</g>
<!-- Node2 -->
<g id="node2" class="node">
<title>Node2</title>
<g id="a_node2"><a xlink:href="../../d7/d6a/classleanux_1_1tools_1_1lmon_1_1LardHistory.html#a577cf0b864133c7e296c4ec1f389099e" target="_top" xlink:title=" ">
<polygon fill="none" stroke="black" points="149,-98.5 149,-128.5 289,-128.5 289,-98.5 149,-98.5"/>
<text text-anchor="start" x="157" y="-116.5" font-family="Helvetica,sans-Serif" font-size="10.00">leanux::tools::lmon</text>
<text text-anchor="middle" x="219" y="-105.5" font-family="Helvetica,sans-Serif" font-size="10.00">::LardHistory::LardHistory</text>
</a>
</g>
</g>
<!-- Node1&#45;&gt;Node2 -->
<g id="edge1" class="edge">
<title>Node1&#45;&gt;Node2</title>
<path fill="none" stroke="midnightblue" d="M326.4,-82.47C308.4,-87.72 288.92,-93.4 271.61,-98.45"/>
<polygon fill="midnightblue" stroke="midnightblue" points="327.6,-85.76 336.22,-79.6 325.64,-79.04 327.6,-85.76"/>
</g>
<!-- Node3 -->
<g id="node3" class="node">
<title>Node3</title>
<g id="a_node3"><a xlink:href="../../d7/d6a/classleanux_1_1tools_1_1lmon_1_1LardHistory.html#a10f36becfe8720990cc1d61cb5c4fb69" target="_top" xlink:title=" ">
<polygon fill="none" stroke="black" points="159,-49.5 159,-79.5 279,-79.5 279,-49.5 159,-49.5"/>
<text text-anchor="start" x="167" y="-67.5" font-family="Helvetica,sans-Serif" font-size="10.00">leanux::tools::lmon</text>
<text text-anchor="middle" x="219" y="-56.5" font-family="Helvetica,sans-Serif" font-size="10.00">::LardHistory::zoomIn</text>
</a>
</g>
</g>
<!-- Node1&#45;&gt;Node3 -->
<g id="edge2" class="edge">
<title>Node1&#45;&gt;Node3</title>
<path fill="none" stroke="midnightblue" d="M314.65,-64.5C302.81,-64.5 290.68,-64.5 279.22,-64.5"/>
<polygon fill="midnightblue" stroke="midnightblue" points="314.97,-68 324.97,-64.5 314.96,-61 314.97,-68"/>
</g>
<!-- Node7 -->
<g id="node5" class="node">
<title>Node7</title>
<g id="a_node5"><a xlink:href="../../d7/d6a/classleanux_1_1tools_1_1lmon_1_1LardHistory.html#a3f832bdd26bec87963018ca9dd4655a4" target="_top" xlink:title=" ">
<polygon fill="none" stroke="black" points="155,-0.5 155,-30.5 283,-30.5 283,-0.5 155,-0.5"/>
<text text-anchor="start" x="163" y="-18.5" font-family="Helvetica,sans-Serif" font-size="10.00">leanux::tools::lmon</text>
<text text-anchor="middle" x="219" y="-7.5" font-family="Helvetica,sans-Serif" font-size="10.00">::LardHistory::zoomOut</text>
</a>
</g>
</g>
<!-- Node1&#45;&gt;Node7 -->
<g id="edge4" class="edge">
<title>Node1&#45;&gt;Node7</title>
<path fill="none" stroke="midnightblue" d="M326.4,-46.53C308.4,-41.28 288.92,-35.6 271.61,-30.55"/>
<polygon fill="midnightblue" stroke="midnightblue" points="325.64,-49.96 336.22,-49.4 327.6,-43.24 325.64,-49.96"/>
</g>
<!-- Node4 -->
<g id="node4" class="node">
<title>Node4</title>
<g id="a_node4"><a xlink:href="../../d5/de6/classleanux_1_1tools_1_1lmon_1_1Screen.html#a010f9459d506af3a4251ea0a644282bd" target="_top" xlink:title="Run the Screen in history mode.">
<polygon fill="none" stroke="red" points="0,-24.5 0,-54.5 113,-54.5 113,-24.5 0,-24.5"/>
<text text-anchor="start" x="8" y="-42.5" font-family="Helvetica,sans-Serif" font-size="10.00">leanux::tools::lmon</text>
<text text-anchor="middle" x="56.5" y="-31.5" font-family="Helvetica,sans-Serif" font-size="10.00">::Screen::runHistory</text>
</a>
</g>
</g>
<!-- Node3&#45;&gt;Node4 -->
<g id="edge3" class="edge">
<title>Node3&#45;&gt;Node4</title>
<path fill="none" stroke="midnightblue" d="M148.78,-53.72C136.86,-51.86 124.61,-49.95 113.1,-48.16"/>
<polygon fill="midnightblue" stroke="midnightblue" points="148.27,-57.18 158.69,-55.26 149.35,-50.26 148.27,-57.18"/>
</g>
<!-- Node7&#45;&gt;Node4 -->
<g id="edge5" class="edge">
<title>Node7&#45;&gt;Node4</title>
<path fill="none" stroke="midnightblue" d="M144.54,-26.48C134,-28.06 123.31,-29.66 113.2,-31.17"/>
<polygon fill="midnightblue" stroke="midnightblue" points="145.19,-29.93 154.57,-24.99 144.16,-23 145.19,-29.93"/>
</g>
</g>
</svg>
