<?xml version="1.0" encoding="UTF-8" standalone="no"?>
<!DOCTYPE svg PUBLIC "-//W3C//DTD SVG 1.1//EN"
 "http://www.w3.org/Graphics/SVG/1.1/DTD/svg11.dtd">
<!-- Generated by graphviz version 2.43.0 (0)
 -->
<!-- Title: leanux::tools::lmon::LardHistory::fetchXIOView Pages: 1 -->
<svg width="522pt" height="235pt"
 viewBox="0.00 0.00 522.00 235.00" xmlns="http://www.w3.org/2000/svg" xmlns:xlink="http://www.w3.org/1999/xlink">
<g id="graph0" class="graph" transform="scale(1 1) rotate(0) translate(4 231)">
<title>leanux::tools::lmon::LardHistory::fetchXIOView</title>
<!-- Node1 -->
<g id="node1" class="node">
<title>Node1</title>
<g id="a_node1"><a xlink:title=" ">
<polygon fill="#bfbfbf" stroke="black" points="0,-98.5 0,-128.5 150,-128.5 150,-98.5 0,-98.5"/>
<text text-anchor="start" x="8" y="-116.5" font-family="Helvetica,sans-Serif" font-size="10.00">leanux::tools::lmon</text>
<text text-anchor="middle" x="75" y="-105.5" font-family="Helvetica,sans-Serif" font-size="10.00">::LardHistory::fetchXIOView</text>
</a>
</g>
</g>
<!-- Node2 -->
<g id="node2" class="node">
<title>Node2</title>
<g id="a_node2"><a xlink:href="../../d9/d78/classleanux_1_1persist_1_1DML.html#a8df01a6d880515c22106e424ed342c81" target="_top" xlink:title="Bind a double value to the bind at position.">
<polygon fill="none" stroke="black" points="201,-196.5 201,-226.5 317,-226.5 317,-196.5 201,-196.5"/>
<text text-anchor="start" x="209" y="-214.5" font-family="Helvetica,sans-Serif" font-size="10.00">leanux::persist::DML</text>
<text text-anchor="middle" x="259" y="-203.5" font-family="Helvetica,sans-Serif" font-size="10.00">::bind</text>
</a>
</g>
</g>
<!-- Node1&#45;&gt;Node2 -->
<g id="edge1" class="edge">
<title>Node1&#45;&gt;Node2</title>
<path fill="none" stroke="midnightblue" d="M94.9,-128.55C116.07,-144.85 151.92,-170.74 186,-187.5 189.72,-189.33 193.62,-191.08 197.6,-192.73"/>
<polygon fill="midnightblue" stroke="midnightblue" points="196.37,-196 206.95,-196.4 198.93,-189.49 196.37,-196"/>
</g>
<!-- Node3 -->
<g id="node3" class="node">
<title>Node3</title>
<g id="a_node3"><a xlink:href="../../d4/d2c/classleanux_1_1persist_1_1Query.html#ac71ce2dce629c76434dfb541bbe55658" target="_top" xlink:title="Get double value from select list.">
<polygon fill="none" stroke="black" points="197,-147.5 197,-177.5 321,-177.5 321,-147.5 197,-147.5"/>
<text text-anchor="start" x="205" y="-165.5" font-family="Helvetica,sans-Serif" font-size="10.00">leanux::persist::Query</text>
<text text-anchor="middle" x="259" y="-154.5" font-family="Helvetica,sans-Serif" font-size="10.00">::getDouble</text>
</a>
</g>
</g>
<!-- Node1&#45;&gt;Node3 -->
<g id="edge2" class="edge">
<title>Node1&#45;&gt;Node3</title>
<path fill="none" stroke="midnightblue" d="M132.09,-128.6C151.12,-133.73 172.56,-139.5 192.27,-144.8"/>
<polygon fill="midnightblue" stroke="midnightblue" points="191.53,-148.23 202.09,-147.45 193.35,-141.47 191.53,-148.23"/>
</g>
<!-- Node4 -->
<g id="node4" class="node">
<title>Node4</title>
<g id="a_node4"><a xlink:href="../../d4/d2c/classleanux_1_1persist_1_1Query.html#a1fb83650612ff31e31805b1496fdf0fb" target="_top" xlink:title="Get string value from select list.">
<polygon fill="none" stroke="black" points="197,-98.5 197,-128.5 321,-128.5 321,-98.5 197,-98.5"/>
<text text-anchor="start" x="205" y="-116.5" font-family="Helvetica,sans-Serif" font-size="10.00">leanux::persist::Query</text>
<text text-anchor="middle" x="259" y="-105.5" font-family="Helvetica,sans-Serif" font-size="10.00">::getText</text>
</a>
</g>
</g>
<!-- Node1&#45;&gt;Node4 -->
<g id="edge3" class="edge">
<title>Node1&#45;&gt;Node4</title>
<path fill="none" stroke="midnightblue" d="M150.03,-113.5C162.17,-113.5 174.74,-113.5 186.82,-113.5"/>
<polygon fill="midnightblue" stroke="midnightblue" points="186.83,-117 196.83,-113.5 186.83,-110 186.83,-117"/>
</g>
<!-- Node5 -->
<g id="node5" class="node">
<title>Node5</title>
<g id="a_node5"><a xlink:href="../../db/dff/classleanux_1_1persist_1_1Statement.html#a1b809c1b1d0e9d24af65e439c3893d74" target="_top" xlink:title="Prepare a SQL statement.">
<polygon fill="none" stroke="black" points="186,-49.5 186,-79.5 332,-79.5 332,-49.5 186,-49.5"/>
<text text-anchor="start" x="194" y="-67.5" font-family="Helvetica,sans-Serif" font-size="10.00">leanux::persist::Statement</text>
<text text-anchor="middle" x="259" y="-56.5" font-family="Helvetica,sans-Serif" font-size="10.00">::prepare</text>
</a>
</g>
</g>
<!-- Node1&#45;&gt;Node5 -->
<g id="edge4" class="edge">
<title>Node1&#45;&gt;Node5</title>
<path fill="none" stroke="midnightblue" d="M132.09,-98.4C151.12,-93.27 172.56,-87.5 192.27,-82.2"/>
<polygon fill="midnightblue" stroke="midnightblue" points="193.35,-85.53 202.09,-79.55 191.53,-78.77 193.35,-85.53"/>
</g>
<!-- Node7 -->
<g id="node7" class="node">
<title>Node7</title>
<g id="a_node7"><a xlink:href="../../d4/d2c/classleanux_1_1persist_1_1Query.html#a294e11c33a22761503c49418f5ca9815" target="_top" xlink:title="Step the result list, end of list returns false.">
<polygon fill="none" stroke="black" points="197,-0.5 197,-30.5 321,-30.5 321,-0.5 197,-0.5"/>
<text text-anchor="start" x="205" y="-18.5" font-family="Helvetica,sans-Serif" font-size="10.00">leanux::persist::Query</text>
<text text-anchor="middle" x="259" y="-7.5" font-family="Helvetica,sans-Serif" font-size="10.00">::step</text>
</a>
</g>
</g>
<!-- Node1&#45;&gt;Node7 -->
<g id="edge6" class="edge">
<title>Node1&#45;&gt;Node7</title>
<path fill="none" stroke="midnightblue" d="M95.36,-98.46C116.65,-82.45 152.32,-57.19 186,-40.5 190.36,-38.34 194.96,-36.28 199.64,-34.34"/>
<polygon fill="midnightblue" stroke="midnightblue" points="201.27,-37.46 209.29,-30.54 198.7,-30.95 201.27,-37.46"/>
</g>
<!-- Node6 -->
<g id="node6" class="node">
<title>Node6</title>
<g id="a_node6"><a xlink:href="../../db/dff/classleanux_1_1persist_1_1Statement.html#a5b31fb14297ad5c1c342cfc0d8f797de" target="_top" xlink:title="A statement handle can be explicitly closed without deleting the Statement object itself.">
<polygon fill="none" stroke="black" points="368,-49.5 368,-79.5 514,-79.5 514,-49.5 368,-49.5"/>
<text text-anchor="start" x="376" y="-67.5" font-family="Helvetica,sans-Serif" font-size="10.00">leanux::persist::Statement</text>
<text text-anchor="middle" x="441" y="-56.5" font-family="Helvetica,sans-Serif" font-size="10.00">::close</text>
</a>
</g>
</g>
<!-- Node5&#45;&gt;Node6 -->
<g id="edge5" class="edge">
<title>Node5&#45;&gt;Node6</title>
<path fill="none" stroke="midnightblue" d="M332.18,-64.5C340.52,-64.5 349.08,-64.5 357.54,-64.5"/>
<polygon fill="midnightblue" stroke="midnightblue" points="357.81,-68 367.81,-64.5 357.81,-61 357.81,-68"/>
</g>
</g>
</svg>
