<?xml version="1.0" encoding="UTF-8" standalone="no"?>
<!DOCTYPE svg PUBLIC "-//W3C//DTD SVG 1.1//EN"
 "http://www.w3.org/Graphics/SVG/1.1/DTD/svg11.dtd">
<!-- Generated by graphviz version 2.43.0 (0)
 -->
<!-- Title: leanux::tools::lmon::LardHistory::rangeUp Pages: 1 -->
<svg width="524pt" height="235pt"
 viewBox="0.00 0.00 524.00 235.00" xmlns="http://www.w3.org/2000/svg" xmlns:xlink="http://www.w3.org/1999/xlink">
<g id="graph0" class="graph" transform="scale(1 1) rotate(0) translate(4 231)">
<title>leanux::tools::lmon::LardHistory::rangeUp</title>
<!-- Node1 -->
<g id="node1" class="node">
<title>Node1</title>
<g id="a_node1"><a xlink:title=" ">
<polygon fill="#bfbfbf" stroke="black" points="0,-97.5 0,-127.5 125,-127.5 125,-97.5 0,-97.5"/>
<text text-anchor="start" x="8" y="-115.5" font-family="Helvetica,sans-Serif" font-size="10.00">leanux::tools::lmon</text>
<text text-anchor="middle" x="62.5" y="-104.5" font-family="Helvetica,sans-Serif" font-size="10.00">::LardHistory::rangeUp</text>
</a>
</g>
</g>
<!-- Node2 -->
<g id="node2" class="node">
<title>Node2</title>
<g id="a_node2"><a xlink:href="../../d7/d6a/classleanux_1_1tools_1_1lmon_1_1LardHistory.html#a1ec352b33775f8da5ea9a32ca1a4cd0c" target="_top" xlink:title=" ">
<polygon fill="none" stroke="black" points="169,-122.5 169,-152.5 326,-152.5 326,-122.5 169,-122.5"/>
<text text-anchor="start" x="177" y="-140.5" font-family="Helvetica,sans-Serif" font-size="10.00">leanux::tools::lmon</text>
<text text-anchor="middle" x="247.5" y="-129.5" font-family="Helvetica,sans-Serif" font-size="10.00">::LardHistory::updateMinMax</text>
</a>
</g>
</g>
<!-- Node1&#45;&gt;Node2 -->
<g id="edge1" class="edge">
<title>Node1&#45;&gt;Node2</title>
<path fill="none" stroke="midnightblue" d="M125.2,-120.93C136.03,-122.41 147.49,-123.97 158.87,-125.53"/>
<polygon fill="midnightblue" stroke="midnightblue" points="158.46,-129 168.84,-126.89 159.4,-122.07 158.46,-129"/>
</g>
<!-- Node8 -->
<g id="node7" class="node">
<title>Node8</title>
<g id="a_node7"><a xlink:href="../../d7/d6a/classleanux_1_1tools_1_1lmon_1_1LardHistory.html#a7eac92d3a722d105aa2ee05a96238737" target="_top" xlink:title=" ">
<polygon fill="none" stroke="black" points="161,-73.5 161,-103.5 334,-103.5 334,-73.5 161,-73.5"/>
<text text-anchor="start" x="169" y="-91.5" font-family="Helvetica,sans-Serif" font-size="10.00">leanux::tools::lmon</text>
<text text-anchor="middle" x="247.5" y="-80.5" font-family="Helvetica,sans-Serif" font-size="10.00">::LardHistory::updateRangeTime</text>
</a>
</g>
</g>
<!-- Node1&#45;&gt;Node8 -->
<g id="edge6" class="edge">
<title>Node1&#45;&gt;Node8</title>
<path fill="none" stroke="midnightblue" d="M125.2,-104.41C133.4,-103.33 141.97,-102.21 150.58,-101.08"/>
<polygon fill="midnightblue" stroke="midnightblue" points="151.24,-104.52 160.7,-99.75 150.33,-97.58 151.24,-104.52"/>
</g>
<!-- Node3 -->
<g id="node3" class="node">
<title>Node3</title>
<g id="a_node3"><a xlink:href="../../d4/d2c/classleanux_1_1persist_1_1Query.html#ac71ce2dce629c76434dfb541bbe55658" target="_top" xlink:title="Get double value from select list.">
<polygon fill="none" stroke="black" points="381,-196.5 381,-226.5 505,-226.5 505,-196.5 381,-196.5"/>
<text text-anchor="start" x="389" y="-214.5" font-family="Helvetica,sans-Serif" font-size="10.00">leanux::persist::Query</text>
<text text-anchor="middle" x="443" y="-203.5" font-family="Helvetica,sans-Serif" font-size="10.00">::getDouble</text>
</a>
</g>
</g>
<!-- Node2&#45;&gt;Node3 -->
<g id="edge2" class="edge">
<title>Node2&#45;&gt;Node3</title>
<path fill="none" stroke="midnightblue" d="M283.34,-152.58C307.5,-162.85 340.5,-176.53 370,-187.5 375.09,-189.39 380.42,-191.3 385.76,-193.17"/>
<polygon fill="midnightblue" stroke="midnightblue" points="384.76,-196.53 395.36,-196.47 387.04,-189.91 384.76,-196.53"/>
</g>
<!-- Node4 -->
<g id="node4" class="node">
<title>Node4</title>
<g id="a_node4"><a xlink:href="../../d4/d2c/classleanux_1_1persist_1_1Query.html#ada37977ad924b728401fa1fb7506cd2e" target="_top" xlink:title="Get long value from select list.">
<polygon fill="none" stroke="black" points="381,-147.5 381,-177.5 505,-177.5 505,-147.5 381,-147.5"/>
<text text-anchor="start" x="389" y="-165.5" font-family="Helvetica,sans-Serif" font-size="10.00">leanux::persist::Query</text>
<text text-anchor="middle" x="443" y="-154.5" font-family="Helvetica,sans-Serif" font-size="10.00">::getLong</text>
</a>
</g>
</g>
<!-- Node2&#45;&gt;Node4 -->
<g id="edge3" class="edge">
<title>Node2&#45;&gt;Node4</title>
<path fill="none" stroke="midnightblue" d="M326.09,-147.52C340.87,-149.43 356.27,-151.42 370.84,-153.31"/>
<polygon fill="midnightblue" stroke="midnightblue" points="370.4,-156.78 380.77,-154.59 371.3,-149.84 370.4,-156.78"/>
</g>
<!-- Node5 -->
<g id="node5" class="node">
<title>Node5</title>
<g id="a_node5"><a xlink:href="../../db/dff/classleanux_1_1persist_1_1Statement.html#a1b809c1b1d0e9d24af65e439c3893d74" target="_top" xlink:title="Prepare a SQL statement.">
<polygon fill="none" stroke="red" points="370,-98.5 370,-128.5 516,-128.5 516,-98.5 370,-98.5"/>
<text text-anchor="start" x="378" y="-116.5" font-family="Helvetica,sans-Serif" font-size="10.00">leanux::persist::Statement</text>
<text text-anchor="middle" x="443" y="-105.5" font-family="Helvetica,sans-Serif" font-size="10.00">::prepare</text>
</a>
</g>
</g>
<!-- Node2&#45;&gt;Node5 -->
<g id="edge4" class="edge">
<title>Node2&#45;&gt;Node5</title>
<path fill="none" stroke="midnightblue" d="M326.09,-127.88C337.12,-126.51 348.49,-125.1 359.61,-123.72"/>
<polygon fill="midnightblue" stroke="midnightblue" points="360.23,-127.17 369.73,-122.46 359.37,-120.22 360.23,-127.17"/>
</g>
<!-- Node7 -->
<g id="node6" class="node">
<title>Node7</title>
<g id="a_node6"><a xlink:href="../../d4/d2c/classleanux_1_1persist_1_1Query.html#a294e11c33a22761503c49418f5ca9815" target="_top" xlink:title="Step the result list, end of list returns false.">
<polygon fill="none" stroke="black" points="381,-49.5 381,-79.5 505,-79.5 505,-49.5 381,-49.5"/>
<text text-anchor="start" x="389" y="-67.5" font-family="Helvetica,sans-Serif" font-size="10.00">leanux::persist::Query</text>
<text text-anchor="middle" x="443" y="-56.5" font-family="Helvetica,sans-Serif" font-size="10.00">::step</text>
</a>
</g>
</g>
<!-- Node2&#45;&gt;Node7 -->
<g id="edge5" class="edge">
<title>Node2&#45;&gt;Node7</title>
<path fill="none" stroke="midnightblue" d="M310.97,-122.45C318.86,-119.83 326.72,-116.85 334,-113.5 351.47,-105.47 352.78,-98.06 370,-89.5 374.36,-87.33 378.96,-85.27 383.63,-83.33"/>
<polygon fill="midnightblue" stroke="midnightblue" points="385.27,-86.45 393.28,-79.52 382.7,-79.94 385.27,-86.45"/>
</g>
<!-- Node8&#45;&gt;Node4 -->
<g id="edge8" class="edge">
<title>Node8&#45;&gt;Node4</title>
<path fill="none" stroke="midnightblue" d="M309.21,-103.6C317.7,-106.47 326.19,-109.77 334,-113.5 351.58,-121.9 352.58,-129.78 370,-138.5 373.71,-140.36 377.6,-142.12 381.56,-143.79"/>
<polygon fill="midnightblue" stroke="midnightblue" points="380.32,-147.06 390.91,-147.49 382.9,-140.55 380.32,-147.06"/>
</g>
<!-- Node8&#45;&gt;Node5 -->
<g id="edge9" class="edge">
<title>Node8&#45;&gt;Node5</title>
<path fill="none" stroke="midnightblue" d="M334.22,-99.57C342.79,-100.68 351.48,-101.81 360.02,-102.91"/>
<polygon fill="midnightblue" stroke="midnightblue" points="359.58,-106.38 369.94,-104.19 360.48,-99.44 359.58,-106.38"/>
</g>
<!-- Node8&#45;&gt;Node7 -->
<g id="edge10" class="edge">
<title>Node8&#45;&gt;Node7</title>
<path fill="none" stroke="midnightblue" d="M334.22,-77.87C346.34,-76.37 358.69,-74.83 370.5,-73.37"/>
<polygon fill="midnightblue" stroke="midnightblue" points="371.23,-76.8 380.72,-72.1 370.37,-69.86 371.23,-76.8"/>
</g>
<!-- Node9 -->
<g id="node8" class="node">
<title>Node9</title>
<g id="a_node8"><a xlink:href="../../d9/d78/classleanux_1_1persist_1_1DML.html#a8df01a6d880515c22106e424ed342c81" target="_top" xlink:title="Bind a double value to the bind at position.">
<polygon fill="none" stroke="black" points="385,-0.5 385,-30.5 501,-30.5 501,-0.5 385,-0.5"/>
<text text-anchor="start" x="393" y="-18.5" font-family="Helvetica,sans-Serif" font-size="10.00">leanux::persist::DML</text>
<text text-anchor="middle" x="443" y="-7.5" font-family="Helvetica,sans-Serif" font-size="10.00">::bind</text>
</a>
</g>
</g>
<!-- Node8&#45;&gt;Node9 -->
<g id="edge7" class="edge">
<title>Node8&#45;&gt;Node9</title>
<path fill="none" stroke="midnightblue" d="M285.3,-73.5C309.31,-63.82 341.4,-51.11 370,-40.5 375.86,-38.33 382.01,-36.1 388.15,-33.92"/>
<polygon fill="midnightblue" stroke="midnightblue" points="389.46,-37.17 397.73,-30.54 387.13,-30.57 389.46,-37.17"/>
</g>
</g>
</svg>
