<?xml version="1.0" encoding="UTF-8" standalone="no"?>
<!DOCTYPE svg PUBLIC "-//W3C//DTD SVG 1.1//EN"
 "http://www.w3.org/Graphics/SVG/1.1/DTD/svg11.dtd">
<!-- Generated by graphviz version 2.43.0 (0)
 -->
<!-- Title: leanux::tools::lmon::LardHistory::weekDown Pages: 1 -->
<svg width="537pt" height="235pt"
 viewBox="0.00 0.00 537.00 235.00" xmlns="http://www.w3.org/2000/svg" xmlns:xlink="http://www.w3.org/1999/xlink">
<g id="graph0" class="graph" transform="scale(1 1) rotate(0) translate(4 231)">
<title>leanux::tools::lmon::LardHistory::weekDown</title>
<!-- Node1 -->
<g id="node1" class="node">
<title>Node1</title>
<g id="a_node1"><a xlink:title=" ">
<polygon fill="#bfbfbf" stroke="black" points="0,-97.5 0,-127.5 138,-127.5 138,-97.5 0,-97.5"/>
<text text-anchor="start" x="8" y="-115.5" font-family="Helvetica,sans-Serif" font-size="10.00">leanux::tools::lmon</text>
<text text-anchor="middle" x="69" y="-104.5" font-family="Helvetica,sans-Serif" font-size="10.00">::LardHistory::weekDown</text>
</a>
</g>
</g>
<!-- Node2 -->
<g id="node2" class="node">
<title>Node2</title>
<g id="a_node2"><a xlink:href="../../d7/d6a/classleanux_1_1tools_1_1lmon_1_1LardHistory.html#a1ec352b33775f8da5ea9a32ca1a4cd0c" target="_top" xlink:title=" ">
<polygon fill="none" stroke="black" points="182,-122.5 182,-152.5 339,-152.5 339,-122.5 182,-122.5"/>
<text text-anchor="start" x="190" y="-140.5" font-family="Helvetica,sans-Serif" font-size="10.00">leanux::tools::lmon</text>
<text text-anchor="middle" x="260.5" y="-129.5" font-family="Helvetica,sans-Serif" font-size="10.00">::LardHistory::updateMinMax</text>
</a>
</g>
</g>
<!-- Node1&#45;&gt;Node2 -->
<g id="edge1" class="edge">
<title>Node1&#45;&gt;Node2</title>
<path fill="none" stroke="midnightblue" d="M138.15,-121.49C149.14,-122.94 160.66,-124.46 172.04,-125.96"/>
<polygon fill="midnightblue" stroke="midnightblue" points="171.61,-129.44 181.98,-127.27 172.53,-122.5 171.61,-129.44"/>
</g>
<!-- Node8 -->
<g id="node7" class="node">
<title>Node8</title>
<g id="a_node7"><a xlink:href="../../d7/d6a/classleanux_1_1tools_1_1lmon_1_1LardHistory.html#a7eac92d3a722d105aa2ee05a96238737" target="_top" xlink:title=" ">
<polygon fill="none" stroke="black" points="174,-73.5 174,-103.5 347,-103.5 347,-73.5 174,-73.5"/>
<text text-anchor="start" x="182" y="-91.5" font-family="Helvetica,sans-Serif" font-size="10.00">leanux::tools::lmon</text>
<text text-anchor="middle" x="260.5" y="-80.5" font-family="Helvetica,sans-Serif" font-size="10.00">::LardHistory::updateRangeTime</text>
</a>
</g>
</g>
<!-- Node1&#45;&gt;Node8 -->
<g id="edge6" class="edge">
<title>Node1&#45;&gt;Node8</title>
<path fill="none" stroke="midnightblue" d="M138.15,-103.87C146.46,-102.82 155.07,-101.73 163.69,-100.63"/>
<polygon fill="midnightblue" stroke="midnightblue" points="164.32,-104.08 173.8,-99.35 163.44,-97.14 164.32,-104.08"/>
</g>
<!-- Node3 -->
<g id="node3" class="node">
<title>Node3</title>
<g id="a_node3"><a xlink:href="../../d4/d2c/classleanux_1_1persist_1_1Query.html#ac71ce2dce629c76434dfb541bbe55658" target="_top" xlink:title="Get double value from select list.">
<polygon fill="none" stroke="black" points="394,-196.5 394,-226.5 518,-226.5 518,-196.5 394,-196.5"/>
<text text-anchor="start" x="402" y="-214.5" font-family="Helvetica,sans-Serif" font-size="10.00">leanux::persist::Query</text>
<text text-anchor="middle" x="456" y="-203.5" font-family="Helvetica,sans-Serif" font-size="10.00">::getDouble</text>
</a>
</g>
</g>
<!-- Node2&#45;&gt;Node3 -->
<g id="edge2" class="edge">
<title>Node2&#45;&gt;Node3</title>
<path fill="none" stroke="midnightblue" d="M296.34,-152.58C320.5,-162.85 353.5,-176.53 383,-187.5 388.09,-189.39 393.42,-191.3 398.76,-193.17"/>
<polygon fill="midnightblue" stroke="midnightblue" points="397.76,-196.53 408.36,-196.47 400.04,-189.91 397.76,-196.53"/>
</g>
<!-- Node4 -->
<g id="node4" class="node">
<title>Node4</title>
<g id="a_node4"><a xlink:href="../../d4/d2c/classleanux_1_1persist_1_1Query.html#ada37977ad924b728401fa1fb7506cd2e" target="_top" xlink:title="Get long value from select list.">
<polygon fill="none" stroke="black" points="394,-147.5 394,-177.5 518,-177.5 518,-147.5 394,-147.5"/>
<text text-anchor="start" x="402" y="-165.5" font-family="Helvetica,sans-Serif" font-size="10.00">leanux::persist::Query</text>
<text text-anchor="middle" x="456" y="-154.5" font-family="Helvetica,sans-Serif" font-size="10.00">::getLong</text>
</a>
</g>
</g>
<!-- Node2&#45;&gt;Node4 -->
<g id="edge3" class="edge">
<title>Node2&#45;&gt;Node4</title>
<path fill="none" stroke="midnightblue" d="M339.09,-147.52C353.87,-149.43 369.27,-151.42 383.84,-153.31"/>
<polygon fill="midnightblue" stroke="midnightblue" points="383.4,-156.78 393.77,-154.59 384.3,-149.84 383.4,-156.78"/>
</g>
<!-- Node5 -->
<g id="node5" class="node">
<title>Node5</title>
<g id="a_node5"><a xlink:href="../../db/dff/classleanux_1_1persist_1_1Statement.html#a1b809c1b1d0e9d24af65e439c3893d74" target="_top" xlink:title="Prepare a SQL statement.">
<polygon fill="none" stroke="red" points="383,-98.5 383,-128.5 529,-128.5 529,-98.5 383,-98.5"/>
<text text-anchor="start" x="391" y="-116.5" font-family="Helvetica,sans-Serif" font-size="10.00">leanux::persist::Statement</text>
<text text-anchor="middle" x="456" y="-105.5" font-family="Helvetica,sans-Serif" font-size="10.00">::prepare</text>
</a>
</g>
</g>
<!-- Node2&#45;&gt;Node5 -->
<g id="edge4" class="edge">
<title>Node2&#45;&gt;Node5</title>
<path fill="none" stroke="midnightblue" d="M339.09,-127.88C350.12,-126.51 361.49,-125.1 372.61,-123.72"/>
<polygon fill="midnightblue" stroke="midnightblue" points="373.23,-127.17 382.73,-122.46 372.37,-120.22 373.23,-127.17"/>
</g>
<!-- Node7 -->
<g id="node6" class="node">
<title>Node7</title>
<g id="a_node6"><a xlink:href="../../d4/d2c/classleanux_1_1persist_1_1Query.html#a294e11c33a22761503c49418f5ca9815" target="_top" xlink:title="Step the result list, end of list returns false.">
<polygon fill="none" stroke="black" points="394,-49.5 394,-79.5 518,-79.5 518,-49.5 394,-49.5"/>
<text text-anchor="start" x="402" y="-67.5" font-family="Helvetica,sans-Serif" font-size="10.00">leanux::persist::Query</text>
<text text-anchor="middle" x="456" y="-56.5" font-family="Helvetica,sans-Serif" font-size="10.00">::step</text>
</a>
</g>
</g>
<!-- Node2&#45;&gt;Node7 -->
<g id="edge5" class="edge">
<title>Node2&#45;&gt;Node7</title>
<path fill="none" stroke="midnightblue" d="M323.97,-122.45C331.86,-119.83 339.72,-116.85 347,-113.5 364.47,-105.47 365.78,-98.06 383,-89.5 387.36,-87.33 391.96,-85.27 396.63,-83.33"/>
<polygon fill="midnightblue" stroke="midnightblue" points="398.27,-86.45 406.28,-79.52 395.7,-79.94 398.27,-86.45"/>
</g>
<!-- Node8&#45;&gt;Node4 -->
<g id="edge8" class="edge">
<title>Node8&#45;&gt;Node4</title>
<path fill="none" stroke="midnightblue" d="M322.21,-103.6C330.7,-106.47 339.19,-109.77 347,-113.5 364.58,-121.9 365.58,-129.78 383,-138.5 386.71,-140.36 390.6,-142.12 394.56,-143.79"/>
<polygon fill="midnightblue" stroke="midnightblue" points="393.32,-147.06 403.91,-147.49 395.9,-140.55 393.32,-147.06"/>
</g>
<!-- Node8&#45;&gt;Node5 -->
<g id="edge9" class="edge">
<title>Node8&#45;&gt;Node5</title>
<path fill="none" stroke="midnightblue" d="M347.22,-99.57C355.79,-100.68 364.48,-101.81 373.02,-102.91"/>
<polygon fill="midnightblue" stroke="midnightblue" points="372.58,-106.38 382.94,-104.19 373.48,-99.44 372.58,-106.38"/>
</g>
<!-- Node8&#45;&gt;Node7 -->
<g id="edge10" class="edge">
<title>Node8&#45;&gt;Node7</title>
<path fill="none" stroke="midnightblue" d="M347.22,-77.87C359.34,-76.37 371.69,-74.83 383.5,-73.37"/>
<polygon fill="midnightblue" stroke="midnightblue" points="384.23,-76.8 393.72,-72.1 383.37,-69.86 384.23,-76.8"/>
</g>
<!-- Node9 -->
<g id="node8" class="node">
<title>Node9</title>
<g id="a_node8"><a xlink:href="../../d9/d78/classleanux_1_1persist_1_1DML.html#a8df01a6d880515c22106e424ed342c81" target="_top" xlink:title="Bind a double value to the bind at position.">
<polygon fill="none" stroke="black" points="398,-0.5 398,-30.5 514,-30.5 514,-0.5 398,-0.5"/>
<text text-anchor="start" x="406" y="-18.5" font-family="Helvetica,sans-Serif" font-size="10.00">leanux::persist::DML</text>
<text text-anchor="middle" x="456" y="-7.5" font-family="Helvetica,sans-Serif" font-size="10.00">::bind</text>
</a>
</g>
</g>
<!-- Node8&#45;&gt;Node9 -->
<g id="edge7" class="edge">
<title>Node8&#45;&gt;Node9</title>
<path fill="none" stroke="midnightblue" d="M298.3,-73.5C322.31,-63.82 354.4,-51.11 383,-40.5 388.86,-38.33 395.01,-36.1 401.15,-33.92"/>
<polygon fill="midnightblue" stroke="midnightblue" points="402.46,-37.17 410.73,-30.54 400.13,-30.57 402.46,-37.17"/>
</g>
</g>
</svg>
