<?xml version="1.0" encoding="UTF-8" standalone="no"?>
<!DOCTYPE svg PUBLIC "-//W3C//DTD SVG 1.1//EN"
 "http://www.w3.org/Graphics/SVG/1.1/DTD/svg11.dtd">
<!-- Generated by graphviz version 2.43.0 (0)
 -->
<!-- Title: leanux::tools::lmon::LardHistory::rangeStart Pages: 1 -->
<svg width="534pt" height="235pt"
 viewBox="0.00 0.00 534.00 235.00" xmlns="http://www.w3.org/2000/svg" xmlns:xlink="http://www.w3.org/1999/xlink">
<g id="graph0" class="graph" transform="scale(1 1) rotate(0) translate(4 231)">
<title>leanux::tools::lmon::LardHistory::rangeStart</title>
<!-- Node1 -->
<g id="node1" class="node">
<title>Node1</title>
<g id="a_node1"><a xlink:title=" ">
<polygon fill="#bfbfbf" stroke="black" points="0,-97.5 0,-127.5 135,-127.5 135,-97.5 0,-97.5"/>
<text text-anchor="start" x="8" y="-115.5" font-family="Helvetica,sans-Serif" font-size="10.00">leanux::tools::lmon</text>
<text text-anchor="middle" x="67.5" y="-104.5" font-family="Helvetica,sans-Serif" font-size="10.00">::LardHistory::rangeStart</text>
</a>
</g>
</g>
<!-- Node2 -->
<g id="node2" class="node">
<title>Node2</title>
<g id="a_node2"><a xlink:href="../../d7/d6a/classleanux_1_1tools_1_1lmon_1_1LardHistory.html#a1ec352b33775f8da5ea9a32ca1a4cd0c" target="_top" xlink:title=" ">
<polygon fill="none" stroke="black" points="179,-122.5 179,-152.5 336,-152.5 336,-122.5 179,-122.5"/>
<text text-anchor="start" x="187" y="-140.5" font-family="Helvetica,sans-Serif" font-size="10.00">leanux::tools::lmon</text>
<text text-anchor="middle" x="257.5" y="-129.5" font-family="Helvetica,sans-Serif" font-size="10.00">::LardHistory::updateMinMax</text>
</a>
</g>
</g>
<!-- Node1&#45;&gt;Node2 -->
<g id="edge1" class="edge">
<title>Node1&#45;&gt;Node2</title>
<path fill="none" stroke="midnightblue" d="M135.05,-121.35C145.99,-122.81 157.49,-124.33 168.85,-125.84"/>
<polygon fill="midnightblue" stroke="midnightblue" points="168.42,-129.32 178.79,-127.17 169.34,-122.38 168.42,-129.32"/>
</g>
<!-- Node8 -->
<g id="node7" class="node">
<title>Node8</title>
<g id="a_node7"><a xlink:href="../../d7/d6a/classleanux_1_1tools_1_1lmon_1_1LardHistory.html#a7eac92d3a722d105aa2ee05a96238737" target="_top" xlink:title=" ">
<polygon fill="none" stroke="black" points="171,-73.5 171,-103.5 344,-103.5 344,-73.5 171,-73.5"/>
<text text-anchor="start" x="179" y="-91.5" font-family="Helvetica,sans-Serif" font-size="10.00">leanux::tools::lmon</text>
<text text-anchor="middle" x="257.5" y="-80.5" font-family="Helvetica,sans-Serif" font-size="10.00">::LardHistory::updateRangeTime</text>
</a>
</g>
</g>
<!-- Node1&#45;&gt;Node8 -->
<g id="edge6" class="edge">
<title>Node1&#45;&gt;Node8</title>
<path fill="none" stroke="midnightblue" d="M135.05,-104C143.4,-102.94 152.07,-101.83 160.75,-100.72"/>
<polygon fill="midnightblue" stroke="midnightblue" points="161.47,-104.16 170.94,-99.42 160.58,-97.22 161.47,-104.16"/>
</g>
<!-- Node3 -->
<g id="node3" class="node">
<title>Node3</title>
<g id="a_node3"><a xlink:href="../../d4/d2c/classleanux_1_1persist_1_1Query.html#ac71ce2dce629c76434dfb541bbe55658" target="_top" xlink:title="Get double value from select list.">
<polygon fill="none" stroke="black" points="391,-196.5 391,-226.5 515,-226.5 515,-196.5 391,-196.5"/>
<text text-anchor="start" x="399" y="-214.5" font-family="Helvetica,sans-Serif" font-size="10.00">leanux::persist::Query</text>
<text text-anchor="middle" x="453" y="-203.5" font-family="Helvetica,sans-Serif" font-size="10.00">::getDouble</text>
</a>
</g>
</g>
<!-- Node2&#45;&gt;Node3 -->
<g id="edge2" class="edge">
<title>Node2&#45;&gt;Node3</title>
<path fill="none" stroke="midnightblue" d="M293.34,-152.58C317.5,-162.85 350.5,-176.53 380,-187.5 385.09,-189.39 390.42,-191.3 395.76,-193.17"/>
<polygon fill="midnightblue" stroke="midnightblue" points="394.76,-196.53 405.36,-196.47 397.04,-189.91 394.76,-196.53"/>
</g>
<!-- Node4 -->
<g id="node4" class="node">
<title>Node4</title>
<g id="a_node4"><a xlink:href="../../d4/d2c/classleanux_1_1persist_1_1Query.html#ada37977ad924b728401fa1fb7506cd2e" target="_top" xlink:title="Get long value from select list.">
<polygon fill="none" stroke="black" points="391,-147.5 391,-177.5 515,-177.5 515,-147.5 391,-147.5"/>
<text text-anchor="start" x="399" y="-165.5" font-family="Helvetica,sans-Serif" font-size="10.00">leanux::persist::Query</text>
<text text-anchor="middle" x="453" y="-154.5" font-family="Helvetica,sans-Serif" font-size="10.00">::getLong</text>
</a>
</g>
</g>
<!-- Node2&#45;&gt;Node4 -->
<g id="edge3" class="edge">
<title>Node2&#45;&gt;Node4</title>
<path fill="none" stroke="midnightblue" d="M336.09,-147.52C350.87,-149.43 366.27,-151.42 380.84,-153.31"/>
<polygon fill="midnightblue" stroke="midnightblue" points="380.4,-156.78 390.77,-154.59 381.3,-149.84 380.4,-156.78"/>
</g>
<!-- Node5 -->
<g id="node5" class="node">
<title>Node5</title>
<g id="a_node5"><a xlink:href="../../db/dff/classleanux_1_1persist_1_1Statement.html#a1b809c1b1d0e9d24af65e439c3893d74" target="_top" xlink:title="Prepare a SQL statement.">
<polygon fill="none" stroke="red" points="380,-98.5 380,-128.5 526,-128.5 526,-98.5 380,-98.5"/>
<text text-anchor="start" x="388" y="-116.5" font-family="Helvetica,sans-Serif" font-size="10.00">leanux::persist::Statement</text>
<text text-anchor="middle" x="453" y="-105.5" font-family="Helvetica,sans-Serif" font-size="10.00">::prepare</text>
</a>
</g>
</g>
<!-- Node2&#45;&gt;Node5 -->
<g id="edge4" class="edge">
<title>Node2&#45;&gt;Node5</title>
<path fill="none" stroke="midnightblue" d="M336.09,-127.88C347.12,-126.51 358.49,-125.1 369.61,-123.72"/>
<polygon fill="midnightblue" stroke="midnightblue" points="370.23,-127.17 379.73,-122.46 369.37,-120.22 370.23,-127.17"/>
</g>
<!-- Node7 -->
<g id="node6" class="node">
<title>Node7</title>
<g id="a_node6"><a xlink:href="../../d4/d2c/classleanux_1_1persist_1_1Query.html#a294e11c33a22761503c49418f5ca9815" target="_top" xlink:title="Step the result list, end of list returns false.">
<polygon fill="none" stroke="black" points="391,-49.5 391,-79.5 515,-79.5 515,-49.5 391,-49.5"/>
<text text-anchor="start" x="399" y="-67.5" font-family="Helvetica,sans-Serif" font-size="10.00">leanux::persist::Query</text>
<text text-anchor="middle" x="453" y="-56.5" font-family="Helvetica,sans-Serif" font-size="10.00">::step</text>
</a>
</g>
</g>
<!-- Node2&#45;&gt;Node7 -->
<g id="edge5" class="edge">
<title>Node2&#45;&gt;Node7</title>
<path fill="none" stroke="midnightblue" d="M320.97,-122.45C328.86,-119.83 336.72,-116.85 344,-113.5 361.47,-105.47 362.78,-98.06 380,-89.5 384.36,-87.33 388.96,-85.27 393.63,-83.33"/>
<polygon fill="midnightblue" stroke="midnightblue" points="395.27,-86.45 403.28,-79.52 392.7,-79.94 395.27,-86.45"/>
</g>
<!-- Node8&#45;&gt;Node4 -->
<g id="edge8" class="edge">
<title>Node8&#45;&gt;Node4</title>
<path fill="none" stroke="midnightblue" d="M319.21,-103.6C327.7,-106.47 336.19,-109.77 344,-113.5 361.58,-121.9 362.58,-129.78 380,-138.5 383.71,-140.36 387.6,-142.12 391.56,-143.79"/>
<polygon fill="midnightblue" stroke="midnightblue" points="390.32,-147.06 400.91,-147.49 392.9,-140.55 390.32,-147.06"/>
</g>
<!-- Node8&#45;&gt;Node5 -->
<g id="edge9" class="edge">
<title>Node8&#45;&gt;Node5</title>
<path fill="none" stroke="midnightblue" d="M344.22,-99.57C352.79,-100.68 361.48,-101.81 370.02,-102.91"/>
<polygon fill="midnightblue" stroke="midnightblue" points="369.58,-106.38 379.94,-104.19 370.48,-99.44 369.58,-106.38"/>
</g>
<!-- Node8&#45;&gt;Node7 -->
<g id="edge10" class="edge">
<title>Node8&#45;&gt;Node7</title>
<path fill="none" stroke="midnightblue" d="M344.22,-77.87C356.34,-76.37 368.69,-74.83 380.5,-73.37"/>
<polygon fill="midnightblue" stroke="midnightblue" points="381.23,-76.8 390.72,-72.1 380.37,-69.86 381.23,-76.8"/>
</g>
<!-- Node9 -->
<g id="node8" class="node">
<title>Node9</title>
<g id="a_node8"><a xlink:href="../../d9/d78/classleanux_1_1persist_1_1DML.html#a8df01a6d880515c22106e424ed342c81" target="_top" xlink:title="Bind a double value to the bind at position.">
<polygon fill="none" stroke="black" points="395,-0.5 395,-30.5 511,-30.5 511,-0.5 395,-0.5"/>
<text text-anchor="start" x="403" y="-18.5" font-family="Helvetica,sans-Serif" font-size="10.00">leanux::persist::DML</text>
<text text-anchor="middle" x="453" y="-7.5" font-family="Helvetica,sans-Serif" font-size="10.00">::bind</text>
</a>
</g>
</g>
<!-- Node8&#45;&gt;Node9 -->
<g id="edge7" class="edge">
<title>Node8&#45;&gt;Node9</title>
<path fill="none" stroke="midnightblue" d="M295.3,-73.5C319.31,-63.82 351.4,-51.11 380,-40.5 385.86,-38.33 392.01,-36.1 398.15,-33.92"/>
<polygon fill="midnightblue" stroke="midnightblue" points="399.46,-37.17 407.73,-30.54 397.13,-30.57 399.46,-37.17"/>
</g>
</g>
</svg>
