<?xml version="1.0" encoding="UTF-8" standalone="no"?>
<!DOCTYPE svg PUBLIC "-//W3C//DTD SVG 1.1//EN"
 "http://www.w3.org/Graphics/SVG/1.1/DTD/svg11.dtd">
<!-- Generated by graphviz version 2.43.0 (0)
 -->
<!-- Title: lib/persist.hpp Pages: 1 -->
<svg width="185pt" height="140pt"
 viewBox="0.00 0.00 185.00 140.00" xmlns="http://www.w3.org/2000/svg" xmlns:xlink="http://www.w3.org/1999/xlink">
<g id="graph0" class="graph" transform="scale(1 1) rotate(0) translate(4 136)">
<title>lib/persist.hpp</title>
<!-- Node1 -->
<g id="node1" class="node">
<title>Node1</title>
<g id="a_node1"><a xlink:title=" ">
<polygon fill="#bfbfbf" stroke="black" points="46.5,-112.5 46.5,-131.5 132.5,-131.5 132.5,-112.5 46.5,-112.5"/>
<text text-anchor="middle" x="89.5" y="-119.5" font-family="Helvetica,sans-Serif" font-size="10.00">lib/persist.hpp</text>
</a>
</g>
</g>
<!-- Node2 -->
<g id="node2" class="node">
<title>Node2</title>
<g id="a_node2"><a xlink:href="../../d3/d44/oops_8hpp.html" target="_top" xlink:title=" ">
<polygon fill="none" stroke="black" points="0,-56.5 0,-75.5 61,-75.5 61,-56.5 0,-56.5"/>
<text text-anchor="middle" x="30.5" y="-63.5" font-family="Helvetica,sans-Serif" font-size="10.00">oops.hpp</text>
</a>
</g>
</g>
<!-- Node1&#45;&gt;Node2 -->
<g id="edge1" class="edge">
<title>Node1&#45;&gt;Node2</title>
<path fill="none" stroke="midnightblue" d="M80.02,-112.32C71.3,-104.34 58.16,-92.31 47.6,-82.65"/>
<polygon fill="midnightblue" stroke="midnightblue" points="49.89,-80 40.15,-75.83 45.17,-85.17 49.89,-80"/>
</g>
<!-- Node3 -->
<g id="node3" class="node">
<title>Node3</title>
<g id="a_node3"><a xlink:title=" ">
<polygon fill="none" stroke="#bfbfbf" points="37.5,-0.5 37.5,-19.5 81.5,-19.5 81.5,-0.5 37.5,-0.5"/>
<text text-anchor="middle" x="59.5" y="-7.5" font-family="Helvetica,sans-Serif" font-size="10.00">string</text>
</a>
</g>
</g>
<!-- Node1&#45;&gt;Node3 -->
<g id="edge3" class="edge">
<title>Node1&#45;&gt;Node3</title>
<path fill="none" stroke="midnightblue" d="M87.15,-112.37C82.28,-94.54 71.04,-53.3 64.48,-29.27"/>
<polygon fill="midnightblue" stroke="midnightblue" points="67.85,-28.32 61.84,-19.59 61.1,-30.16 67.85,-28.32"/>
</g>
<!-- Node4 -->
<g id="node4" class="node">
<title>Node4</title>
<g id="a_node4"><a xlink:title=" ">
<polygon fill="none" stroke="#bfbfbf" points="118,-56.5 118,-75.5 177,-75.5 177,-56.5 118,-56.5"/>
<text text-anchor="middle" x="147.5" y="-63.5" font-family="Helvetica,sans-Serif" font-size="10.00">sqlite3.h</text>
</a>
</g>
</g>
<!-- Node1&#45;&gt;Node4 -->
<g id="edge4" class="edge">
<title>Node1&#45;&gt;Node4</title>
<path fill="none" stroke="midnightblue" d="M98.82,-112.32C107.39,-104.34 120.31,-92.31 130.69,-82.65"/>
<polygon fill="midnightblue" stroke="midnightblue" points="133.08,-85.21 138.01,-75.83 128.31,-80.09 133.08,-85.21"/>
</g>
<!-- Node2&#45;&gt;Node3 -->
<g id="edge2" class="edge">
<title>Node2&#45;&gt;Node3</title>
<path fill="none" stroke="midnightblue" d="M35.29,-56.08C39.26,-48.69 45.03,-37.95 49.93,-28.81"/>
<polygon fill="midnightblue" stroke="midnightblue" points="53.15,-30.22 54.8,-19.75 46.99,-26.91 53.15,-30.22"/>
</g>
</g>
</svg>
