<?xml version="1.0" encoding="UTF-8" standalone="no"?>
<!DOCTYPE svg PUBLIC "-//W3C//DTD SVG 1.1//EN"
 "http://www.w3.org/Graphics/SVG/1.1/DTD/svg11.dtd">
<!-- Generated by graphviz version 2.43.0 (0)
 -->
<!-- Title: tools/lard/lar_snap.cpp Pages: 1 -->
<svg width="758pt" height="252pt"
 viewBox="0.00 0.00 757.99 252.00" xmlns="http://www.w3.org/2000/svg" xmlns:xlink="http://www.w3.org/1999/xlink">
<g id="graph0" class="graph" transform="scale(1 1) rotate(0) translate(4 248)">
<title>tools/lard/lar_snap.cpp</title>
<!-- Node1 -->
<g id="node1" class="node">
<title>Node1</title>
<g id="a_node1"><a xlink:title=" ">
<polygon fill="#bfbfbf" stroke="black" points="417.5,-224.5 417.5,-243.5 544.5,-243.5 544.5,-224.5 417.5,-224.5"/>
<text text-anchor="middle" x="481" y="-231.5" font-family="Helvetica,sans-Serif" font-size="10.00">tools/lard/lar_snap.cpp</text>
</a>
</g>
</g>
<!-- Node2 -->
<g id="node2" class="node">
<title>Node2</title>
<g id="a_node2"><a xlink:href="../../d1/d59/lar__snap_8hpp.html" target="_top" xlink:title=" ">
<polygon fill="none" stroke="black" points="316.5,-168.5 316.5,-187.5 395.5,-187.5 395.5,-168.5 316.5,-168.5"/>
<text text-anchor="middle" x="356" y="-175.5" font-family="Helvetica,sans-Serif" font-size="10.00">lar_snap.hpp</text>
</a>
</g>
</g>
<!-- Node1&#45;&gt;Node2 -->
<g id="edge1" class="edge">
<title>Node1&#45;&gt;Node2</title>
<path fill="none" stroke="midnightblue" d="M461.19,-224.44C440.71,-215.6 408.52,-201.69 385.14,-191.59"/>
<polygon fill="midnightblue" stroke="midnightblue" points="386.28,-188.27 375.71,-187.52 383.51,-194.7 386.28,-188.27"/>
</g>
<!-- Node24 -->
<g id="node17" class="node">
<title>Node24</title>
<g id="a_node17"><a xlink:href="../../db/d57/configfile_8hpp.html" target="_top" xlink:title=" ">
<polygon fill="none" stroke="black" points="0,-112.5 0,-131.5 82,-131.5 82,-112.5 0,-112.5"/>
<text text-anchor="middle" x="41" y="-119.5" font-family="Helvetica,sans-Serif" font-size="10.00">configfile.hpp</text>
</a>
</g>
</g>
<!-- Node1&#45;&gt;Node24 -->
<g id="edge29" class="edge">
<title>Node1&#45;&gt;Node24</title>
<path fill="none" stroke="midnightblue" d="M446.84,-224.46C367.89,-204.72 172.82,-155.96 85.05,-134.01"/>
<polygon fill="midnightblue" stroke="midnightblue" points="85.69,-130.56 75.14,-131.53 83.99,-137.36 85.69,-130.56"/>
</g>
<!-- Node25 -->
<g id="node18" class="node">
<title>Node25</title>
<g id="a_node18"><a xlink:href="../../dd/d90/system_8hpp.html" target="_top" xlink:title=" ">
<polygon fill="none" stroke="black" points="573,-112.5 573,-131.5 647,-131.5 647,-112.5 573,-112.5"/>
<text text-anchor="middle" x="610" y="-119.5" font-family="Helvetica,sans-Serif" font-size="10.00">system.hpp</text>
</a>
</g>
</g>
<!-- Node1&#45;&gt;Node25 -->
<g id="edge34" class="edge">
<title>Node1&#45;&gt;Node25</title>
<path fill="none" stroke="midnightblue" d="M469.66,-224.34C454.13,-211.43 429.72,-186.67 444,-168 451.37,-158.36 516.33,-142.82 562.75,-132.75"/>
<polygon fill="midnightblue" stroke="midnightblue" points="563.6,-136.15 572.65,-130.63 562.13,-129.31 563.6,-136.15"/>
</g>
<!-- Node26 -->
<g id="node19" class="node">
<title>Node26</title>
<g id="a_node19"><a xlink:title=" ">
<polygon fill="none" stroke="#bfbfbf" points="452.5,-168.5 452.5,-187.5 509.5,-187.5 509.5,-168.5 452.5,-168.5"/>
<text text-anchor="middle" x="481" y="-175.5" font-family="Helvetica,sans-Serif" font-size="10.00">syslog.h</text>
</a>
</g>
</g>
<!-- Node1&#45;&gt;Node26 -->
<g id="edge39" class="edge">
<title>Node1&#45;&gt;Node26</title>
<path fill="none" stroke="midnightblue" d="M481,-224.08C481,-217.01 481,-206.86 481,-197.99"/>
<polygon fill="midnightblue" stroke="midnightblue" points="484.5,-197.75 481,-187.75 477.5,-197.75 484.5,-197.75"/>
</g>
<!-- Node27 -->
<g id="node20" class="node">
<title>Node27</title>
<g id="a_node20"><a xlink:title=" ">
<polygon fill="none" stroke="#bfbfbf" points="528,-168.5 528,-187.5 592,-187.5 592,-168.5 528,-168.5"/>
<text text-anchor="middle" x="560" y="-175.5" font-family="Helvetica,sans-Serif" font-size="10.00">algorithm</text>
</a>
</g>
</g>
<!-- Node1&#45;&gt;Node27 -->
<g id="edge40" class="edge">
<title>Node1&#45;&gt;Node27</title>
<path fill="none" stroke="midnightblue" d="M493.69,-224.32C505.9,-215.98 524.58,-203.21 539,-193.35"/>
<polygon fill="midnightblue" stroke="midnightblue" points="541.06,-196.19 547.34,-187.65 537.11,-190.41 541.06,-196.19"/>
</g>
<!-- Node28 -->
<g id="node21" class="node">
<title>Node28</title>
<g id="a_node21"><a xlink:title=" ">
<polygon fill="none" stroke="#bfbfbf" points="610,-168.5 610,-187.5 666,-187.5 666,-168.5 610,-168.5"/>
<text text-anchor="middle" x="638" y="-175.5" font-family="Helvetica,sans-Serif" font-size="10.00">sstream</text>
</a>
</g>
</g>
<!-- Node1&#45;&gt;Node28 -->
<g id="edge41" class="edge">
<title>Node1&#45;&gt;Node28</title>
<path fill="none" stroke="midnightblue" d="M505.88,-224.44C532.29,-215.36 574.22,-200.94 603.74,-190.78"/>
<polygon fill="midnightblue" stroke="midnightblue" points="604.92,-194.08 613.24,-187.52 602.64,-187.46 604.92,-194.08"/>
</g>
<!-- Node29 -->
<g id="node22" class="node">
<title>Node29</title>
<g id="a_node22"><a xlink:title=" ">
<polygon fill="none" stroke="#bfbfbf" points="684.5,-168.5 684.5,-187.5 737.5,-187.5 737.5,-168.5 684.5,-168.5"/>
<text text-anchor="middle" x="711" y="-175.5" font-family="Helvetica,sans-Serif" font-size="10.00">string.h</text>
</a>
</g>
</g>
<!-- Node1&#45;&gt;Node29 -->
<g id="edge42" class="edge">
<title>Node1&#45;&gt;Node29</title>
<path fill="none" stroke="midnightblue" d="M518.6,-224.48C555.65,-216.04 614.14,-202.59 674.23,-188.15"/>
<polygon fill="midnightblue" stroke="midnightblue" points="675.37,-191.48 684.28,-185.73 673.73,-184.67 675.37,-191.48"/>
</g>
<!-- Node3 -->
<g id="node3" class="node">
<title>Node3</title>
<g id="a_node3"><a xlink:title=" ">
<polygon fill="none" stroke="#bfbfbf" points="182,-112.5 182,-131.5 230,-131.5 230,-112.5 182,-112.5"/>
<text text-anchor="middle" x="206" y="-119.5" font-family="Helvetica,sans-Serif" font-size="10.00">time.h</text>
</a>
</g>
</g>
<!-- Node2&#45;&gt;Node3 -->
<g id="edge2" class="edge">
<title>Node2&#45;&gt;Node3</title>
<path fill="none" stroke="midnightblue" d="M332.23,-168.44C307.11,-159.4 267.29,-145.06 239.1,-134.92"/>
<polygon fill="midnightblue" stroke="midnightblue" points="240.25,-131.61 229.66,-131.52 237.88,-138.2 240.25,-131.61"/>
</g>
<!-- Node4 -->
<g id="node4" class="node">
<title>Node4</title>
<g id="a_node4"><a xlink:href="../../d9/db2/block_8hpp.html" target="_top" xlink:title=" ">
<polygon fill="none" stroke="red" points="100,-112.5 100,-131.5 164,-131.5 164,-112.5 100,-112.5"/>
<text text-anchor="middle" x="132" y="-119.5" font-family="Helvetica,sans-Serif" font-size="10.00">block.hpp</text>
</a>
</g>
</g>
<!-- Node2&#45;&gt;Node4 -->
<g id="edge3" class="edge">
<title>Node2&#45;&gt;Node4</title>
<path fill="none" stroke="midnightblue" d="M320.51,-168.44C280.73,-158.86 216.3,-143.32 174.04,-133.13"/>
<polygon fill="midnightblue" stroke="midnightblue" points="174.6,-129.67 164.06,-130.73 172.96,-136.48 174.6,-129.67"/>
</g>
<!-- Node14 -->
<g id="node9" class="node">
<title>Node14</title>
<g id="a_node9"><a xlink:href="../../df/dbe/cpu_8hpp.html" target="_top" xlink:title=" ">
<polygon fill="none" stroke="red" points="248.5,-112.5 248.5,-131.5 303.5,-131.5 303.5,-112.5 248.5,-112.5"/>
<text text-anchor="middle" x="276" y="-119.5" font-family="Helvetica,sans-Serif" font-size="10.00">cpu.hpp</text>
</a>
</g>
</g>
<!-- Node2&#45;&gt;Node14 -->
<g id="edge8" class="edge">
<title>Node2&#45;&gt;Node14</title>
<path fill="none" stroke="midnightblue" d="M343.15,-168.32C330.78,-159.98 311.87,-147.21 297.26,-137.35"/>
<polygon fill="midnightblue" stroke="midnightblue" points="299.07,-134.35 288.82,-131.65 295.15,-140.15 299.07,-134.35"/>
</g>
<!-- Node15 -->
<g id="node10" class="node">
<title>Node15</title>
<g id="a_node10"><a xlink:href="../../d4/d2d/net_8hpp.html" target="_top" xlink:title=" ">
<polygon fill="none" stroke="red" points="408.5,-112.5 408.5,-131.5 461.5,-131.5 461.5,-112.5 408.5,-112.5"/>
<text text-anchor="middle" x="435" y="-119.5" font-family="Helvetica,sans-Serif" font-size="10.00">net.hpp</text>
</a>
</g>
</g>
<!-- Node2&#45;&gt;Node15 -->
<g id="edge11" class="edge">
<title>Node2&#45;&gt;Node15</title>
<path fill="none" stroke="midnightblue" d="M368.69,-168.32C380.9,-159.98 399.58,-147.21 414,-137.35"/>
<polygon fill="midnightblue" stroke="midnightblue" points="416.06,-140.19 422.34,-131.65 412.11,-134.41 416.06,-140.19"/>
</g>
<!-- Node18 -->
<g id="node12" class="node">
<title>Node18</title>
<g id="a_node12"><a xlink:href="../../dd/db4/process_8hpp.html" target="_top" xlink:title=" ">
<polygon fill="none" stroke="red" points="479.5,-112.5 479.5,-131.5 554.5,-131.5 554.5,-112.5 479.5,-112.5"/>
<text text-anchor="middle" x="517" y="-119.5" font-family="Helvetica,sans-Serif" font-size="10.00">process.hpp</text>
</a>
</g>
</g>
<!-- Node2&#45;&gt;Node18 -->
<g id="edge17" class="edge">
<title>Node2&#45;&gt;Node18</title>
<path fill="none" stroke="midnightblue" d="M381.51,-168.44C408.6,-159.36 451.59,-144.94 481.87,-134.78"/>
<polygon fill="midnightblue" stroke="midnightblue" points="483.24,-138.01 491.61,-131.52 481.01,-131.38 483.24,-138.01"/>
</g>
<!-- Node21 -->
<g id="node15" class="node">
<title>Node21</title>
<g id="a_node15"><a xlink:href="../../db/da3/vmem_8hpp.html" target="_top" xlink:title=" ">
<polygon fill="none" stroke="black" points="321.5,-112.5 321.5,-131.5 390.5,-131.5 390.5,-112.5 321.5,-112.5"/>
<text text-anchor="middle" x="356" y="-119.5" font-family="Helvetica,sans-Serif" font-size="10.00">vmem.hpp</text>
</a>
</g>
</g>
<!-- Node2&#45;&gt;Node21 -->
<g id="edge23" class="edge">
<title>Node2&#45;&gt;Node21</title>
<path fill="none" stroke="midnightblue" d="M356,-168.08C356,-161.01 356,-150.86 356,-141.99"/>
<polygon fill="midnightblue" stroke="midnightblue" points="359.5,-141.75 356,-131.75 352.5,-141.75 359.5,-141.75"/>
</g>
<!-- Node22 -->
<g id="node16" class="node">
<title>Node22</title>
<g id="a_node16"><a xlink:href="../../d3/d27/persist_8hpp.html" target="_top" xlink:title=" ">
<polygon fill="none" stroke="red" points="669.5,-112.5 669.5,-131.5 740.5,-131.5 740.5,-112.5 669.5,-112.5"/>
<text text-anchor="middle" x="705" y="-119.5" font-family="Helvetica,sans-Serif" font-size="10.00">persist.hpp</text>
</a>
</g>
</g>
<!-- Node2&#45;&gt;Node22 -->
<g id="edge26" class="edge">
<title>Node2&#45;&gt;Node22</title>
<path fill="none" stroke="midnightblue" d="M395.86,-171.45C453.39,-163.33 563.01,-147.51 656,-132 657.09,-131.82 658.19,-131.63 659.3,-131.44"/>
<polygon fill="midnightblue" stroke="midnightblue" points="660.18,-134.84 669.43,-129.67 658.98,-127.95 660.18,-134.84"/>
</g>
<!-- Node5 -->
<g id="node5" class="node">
<title>Node5</title>
<g id="a_node5"><a xlink:title=" ">
<polygon fill="none" stroke="#bfbfbf" points="384,-0.5 384,-19.5 428,-19.5 428,-0.5 384,-0.5"/>
<text text-anchor="middle" x="406" y="-7.5" font-family="Helvetica,sans-Serif" font-size="10.00">string</text>
</a>
</g>
</g>
<!-- Node4&#45;&gt;Node5 -->
<g id="edge4" class="edge">
<title>Node4&#45;&gt;Node5</title>
<path fill="none" stroke="midnightblue" d="M143.1,-112.37C161.31,-98.6 199.13,-71.6 235,-56 281.31,-35.87 338.7,-23.03 373.82,-16.42"/>
<polygon fill="midnightblue" stroke="midnightblue" points="374.76,-19.81 383.97,-14.57 373.5,-12.92 374.76,-19.81"/>
</g>
<!-- Node7 -->
<g id="node6" class="node">
<title>Node7</title>
<g id="a_node6"><a xlink:title=" ">
<polygon fill="none" stroke="#bfbfbf" points="308,-56.5 308,-75.5 340,-75.5 340,-56.5 308,-56.5"/>
<text text-anchor="middle" x="324" y="-63.5" font-family="Helvetica,sans-Serif" font-size="10.00">list</text>
</a>
</g>
</g>
<!-- Node4&#45;&gt;Node7 -->
<g id="edge5" class="edge">
<title>Node4&#45;&gt;Node7</title>
<path fill="none" stroke="midnightblue" d="M164.24,-113.15C196.06,-105.22 246.27,-92.22 298.21,-76.06"/>
<polygon fill="midnightblue" stroke="midnightblue" points="299.44,-79.34 307.93,-73.01 297.34,-72.67 299.44,-79.34"/>
</g>
<!-- Node8 -->
<g id="node7" class="node">
<title>Node8</title>
<g id="a_node7"><a xlink:title=" ">
<polygon fill="none" stroke="#bfbfbf" points="252,-56.5 252,-75.5 290,-75.5 290,-56.5 252,-56.5"/>
<text text-anchor="middle" x="271" y="-63.5" font-family="Helvetica,sans-Serif" font-size="10.00">map</text>
</a>
</g>
</g>
<!-- Node4&#45;&gt;Node8 -->
<g id="edge6" class="edge">
<title>Node4&#45;&gt;Node8</title>
<path fill="none" stroke="midnightblue" d="M154.02,-112.44C177.92,-103.16 216.15,-88.31 242.36,-78.13"/>
<polygon fill="midnightblue" stroke="midnightblue" points="243.71,-81.36 251.76,-74.47 241.18,-74.83 243.71,-81.36"/>
</g>
<!-- Node10 -->
<g id="node8" class="node">
<title>Node10</title>
<g id="a_node8"><a xlink:title=" ">
<polygon fill="none" stroke="#bfbfbf" points="89,-56.5 89,-75.5 149,-75.5 149,-56.5 89,-56.5"/>
<text text-anchor="middle" x="119" y="-63.5" font-family="Helvetica,sans-Serif" font-size="10.00">iostream</text>
</a>
</g>
</g>
<!-- Node4&#45;&gt;Node10 -->
<g id="edge7" class="edge">
<title>Node4&#45;&gt;Node10</title>
<path fill="none" stroke="midnightblue" d="M129.85,-112.08C128.13,-104.93 125.65,-94.64 123.5,-85.69"/>
<polygon fill="midnightblue" stroke="midnightblue" points="126.85,-84.65 121.11,-75.75 120.04,-86.29 126.85,-84.65"/>
</g>
<!-- Node14&#45;&gt;Node5 -->
<g id="edge9" class="edge">
<title>Node14&#45;&gt;Node5</title>
<path fill="none" stroke="midnightblue" d="M265.82,-112.44C251.61,-99.45 229.05,-74.33 243,-56 258.77,-35.28 330.94,-21.67 373.78,-15.26"/>
<polygon fill="midnightblue" stroke="midnightblue" points="374.34,-18.72 383.73,-13.83 373.33,-11.79 374.34,-18.72"/>
</g>
<!-- Node14&#45;&gt;Node8 -->
<g id="edge10" class="edge">
<title>Node14&#45;&gt;Node8</title>
<path fill="none" stroke="midnightblue" d="M275.17,-112.08C274.52,-105.01 273.58,-94.86 272.76,-85.99"/>
<polygon fill="midnightblue" stroke="midnightblue" points="276.22,-85.39 271.81,-75.75 269.25,-86.03 276.22,-85.39"/>
</g>
<!-- Node15&#45;&gt;Node5 -->
<g id="edge14" class="edge">
<title>Node15&#45;&gt;Node5</title>
<path fill="none" stroke="midnightblue" d="M432.72,-112.37C428.02,-94.54 417.15,-53.3 410.82,-29.27"/>
<polygon fill="midnightblue" stroke="midnightblue" points="414.2,-28.37 408.27,-19.59 407.43,-30.15 414.2,-28.37"/>
</g>
<!-- Node15&#45;&gt;Node7 -->
<g id="edge15" class="edge">
<title>Node15&#45;&gt;Node7</title>
<path fill="none" stroke="midnightblue" d="M417.17,-112.32C398.86,-103.42 370.21,-89.48 349.51,-79.41"/>
<polygon fill="midnightblue" stroke="midnightblue" points="350.87,-76.18 340.34,-74.95 347.8,-82.47 350.87,-76.18"/>
</g>
<!-- Node15&#45;&gt;Node8 -->
<g id="edge16" class="edge">
<title>Node15&#45;&gt;Node8</title>
<path fill="none" stroke="midnightblue" d="M409.01,-112.44C379.31,-102.66 330.84,-86.7 299.95,-76.53"/>
<polygon fill="midnightblue" stroke="midnightblue" points="300.8,-73.13 290.2,-73.32 298.61,-79.77 300.8,-73.13"/>
</g>
<!-- Node16 -->
<g id="node11" class="node">
<title>Node16</title>
<g id="a_node11"><a xlink:href="../../d3/d44/oops_8hpp.html" target="_top" xlink:title=" ">
<polygon fill="none" stroke="black" points="674.5,-56.5 674.5,-75.5 735.5,-75.5 735.5,-56.5 674.5,-56.5"/>
<text text-anchor="middle" x="705" y="-63.5" font-family="Helvetica,sans-Serif" font-size="10.00">oops.hpp</text>
</a>
</g>
</g>
<!-- Node15&#45;&gt;Node16 -->
<g id="edge12" class="edge">
<title>Node15&#45;&gt;Node16</title>
<path fill="none" stroke="midnightblue" d="M461.7,-114.15C464.83,-113.4 467.98,-112.67 471,-112 538.41,-97.1 617.37,-82.51 664.18,-74.15"/>
<polygon fill="midnightblue" stroke="midnightblue" points="664.99,-77.56 674.23,-72.36 663.77,-70.67 664.99,-77.56"/>
</g>
<!-- Node16&#45;&gt;Node5 -->
<g id="edge13" class="edge">
<title>Node16&#45;&gt;Node5</title>
<path fill="none" stroke="midnightblue" d="M674.03,-58.71C669.33,-57.79 664.54,-56.86 660,-56 580.42,-40.99 486.54,-24.74 438.26,-16.48"/>
<polygon fill="midnightblue" stroke="midnightblue" points="438.56,-12.98 428.11,-14.75 437.38,-19.88 438.56,-12.98"/>
</g>
<!-- Node18&#45;&gt;Node5 -->
<g id="edge18" class="edge">
<title>Node18&#45;&gt;Node5</title>
<path fill="none" stroke="midnightblue" d="M505.39,-112.18C494.14,-103.45 476.8,-89.46 463,-76 447.13,-60.53 430.61,-41.28 419.46,-27.76"/>
<polygon fill="midnightblue" stroke="midnightblue" points="422,-25.34 412.97,-19.8 416.58,-29.76 422,-25.34"/>
</g>
<!-- Node18&#45;&gt;Node7 -->
<g id="edge20" class="edge">
<title>Node18&#45;&gt;Node7</title>
<path fill="none" stroke="midnightblue" d="M486.42,-112.44C448.85,-101.93 385.75,-84.28 350.27,-74.35"/>
<polygon fill="midnightblue" stroke="midnightblue" points="350.78,-70.86 340.21,-71.54 348.9,-77.6 350.78,-70.86"/>
</g>
<!-- Node18&#45;&gt;Node8 -->
<g id="edge19" class="edge">
<title>Node18&#45;&gt;Node8</title>
<path fill="none" stroke="midnightblue" d="M479.05,-113.4C426.93,-102.92 336.27,-84.59 299.96,-75.92"/>
<polygon fill="midnightblue" stroke="midnightblue" points="300.75,-72.51 290.2,-73.47 299.05,-79.3 300.75,-72.51"/>
</g>
<!-- Node19 -->
<g id="node13" class="node">
<title>Node19</title>
<g id="a_node13"><a xlink:title=" ">
<polygon fill="none" stroke="#bfbfbf" points="472,-56.5 472,-75.5 528,-75.5 528,-56.5 472,-56.5"/>
<text text-anchor="middle" x="500" y="-63.5" font-family="Helvetica,sans-Serif" font-size="10.00">unistd.h</text>
</a>
</g>
</g>
<!-- Node18&#45;&gt;Node19 -->
<g id="edge21" class="edge">
<title>Node18&#45;&gt;Node19</title>
<path fill="none" stroke="midnightblue" d="M514.19,-112.08C511.92,-104.85 508.63,-94.41 505.79,-85.4"/>
<polygon fill="midnightblue" stroke="midnightblue" points="509.1,-84.24 502.75,-75.75 502.42,-86.34 509.1,-84.24"/>
</g>
<!-- Node20 -->
<g id="node14" class="node">
<title>Node20</title>
<g id="a_node14"><a xlink:title=" ">
<polygon fill="none" stroke="#bfbfbf" points="546,-56.5 546,-75.5 618,-75.5 618,-56.5 546,-56.5"/>
<text text-anchor="middle" x="582" y="-63.5" font-family="Helvetica,sans-Serif" font-size="10.00">sys/types.h</text>
</a>
</g>
</g>
<!-- Node18&#45;&gt;Node20 -->
<g id="edge22" class="edge">
<title>Node18&#45;&gt;Node20</title>
<path fill="none" stroke="midnightblue" d="M527.44,-112.32C537.15,-104.26 551.82,-92.08 563.5,-82.37"/>
<polygon fill="midnightblue" stroke="midnightblue" points="565.91,-84.92 571.37,-75.83 561.44,-79.53 565.91,-84.92"/>
</g>
<!-- Node21&#45;&gt;Node5 -->
<g id="edge24" class="edge">
<title>Node21&#45;&gt;Node5</title>
<path fill="none" stroke="midnightblue" d="M359.92,-112.37C368.07,-94.46 386.94,-52.92 397.84,-28.95"/>
<polygon fill="midnightblue" stroke="midnightblue" points="401.14,-30.14 402.09,-19.59 394.77,-27.25 401.14,-30.14"/>
</g>
<!-- Node21&#45;&gt;Node7 -->
<g id="edge25" class="edge">
<title>Node21&#45;&gt;Node7</title>
<path fill="none" stroke="midnightblue" d="M350.72,-112.08C346.29,-104.61 339.84,-93.72 334.38,-84.52"/>
<polygon fill="midnightblue" stroke="midnightblue" points="337.29,-82.57 329.19,-75.75 331.27,-86.14 337.29,-82.57"/>
</g>
<!-- Node22&#45;&gt;Node5 -->
<g id="edge28" class="edge">
<title>Node22&#45;&gt;Node5</title>
<path fill="none" stroke="midnightblue" d="M717.08,-112.39C733.97,-99.34 760.89,-74.14 745,-56 724.92,-33.08 519.06,-17.98 438.28,-12.9"/>
<polygon fill="midnightblue" stroke="midnightblue" points="438.38,-9.4 428.18,-12.28 437.95,-16.39 438.38,-9.4"/>
</g>
<!-- Node22&#45;&gt;Node16 -->
<g id="edge27" class="edge">
<title>Node22&#45;&gt;Node16</title>
<path fill="none" stroke="midnightblue" d="M705,-112.08C705,-105.01 705,-94.86 705,-85.99"/>
<polygon fill="midnightblue" stroke="midnightblue" points="708.5,-85.75 705,-75.75 701.5,-85.75 708.5,-85.75"/>
</g>
<!-- Node24&#45;&gt;Node5 -->
<g id="edge30" class="edge">
<title>Node24&#45;&gt;Node5</title>
<path fill="none" stroke="midnightblue" d="M43.57,-112.1C48.24,-97.69 59.58,-69.49 80,-56 127.84,-24.4 301.03,-14.69 373.63,-11.97"/>
<polygon fill="midnightblue" stroke="midnightblue" points="374.11,-15.45 383.98,-11.6 373.87,-8.46 374.11,-15.45"/>
</g>
<!-- Node24&#45;&gt;Node7 -->
<g id="edge33" class="edge">
<title>Node24&#45;&gt;Node7</title>
<path fill="none" stroke="midnightblue" d="M82.2,-113.56C85.18,-113.03 88.13,-112.51 91,-112 180.32,-96.23 206.57,-99.72 298.3,-75.79"/>
<polygon fill="midnightblue" stroke="midnightblue" points="299.22,-79.17 307.99,-73.23 297.43,-72.4 299.22,-79.17"/>
</g>
<!-- Node24&#45;&gt;Node8 -->
<g id="edge32" class="edge">
<title>Node24&#45;&gt;Node8</title>
<path fill="none" stroke="midnightblue" d="M77.44,-112.44C123.1,-101.72 200.4,-83.57 242.17,-73.77"/>
<polygon fill="midnightblue" stroke="midnightblue" points="243.04,-77.16 251.98,-71.47 241.44,-70.34 243.04,-77.16"/>
</g>
<!-- Node24&#45;&gt;Node10 -->
<g id="edge31" class="edge">
<title>Node24&#45;&gt;Node10</title>
<path fill="none" stroke="midnightblue" d="M53.53,-112.32C65.59,-103.98 84.03,-91.21 98.27,-81.35"/>
<polygon fill="midnightblue" stroke="midnightblue" points="100.27,-84.22 106.5,-75.65 96.28,-78.47 100.27,-84.22"/>
</g>
<!-- Node25&#45;&gt;Node5 -->
<g id="edge35" class="edge">
<title>Node25&#45;&gt;Node5</title>
<path fill="none" stroke="midnightblue" d="M616.5,-112.41C625.86,-98.93 640.58,-72.62 627,-56 603.5,-27.23 493.4,-16.38 438,-12.7"/>
<polygon fill="midnightblue" stroke="midnightblue" points="438.21,-9.21 428.01,-12.07 437.77,-16.19 438.21,-9.21"/>
</g>
<!-- Node25&#45;&gt;Node16 -->
<g id="edge38" class="edge">
<title>Node25&#45;&gt;Node16</title>
<path fill="none" stroke="midnightblue" d="M625.26,-112.32C640.22,-103.82 663.25,-90.73 680.73,-80.8"/>
<polygon fill="midnightblue" stroke="midnightblue" points="682.81,-83.64 689.77,-75.65 679.35,-77.55 682.81,-83.64"/>
</g>
<!-- Node25&#45;&gt;Node19 -->
<g id="edge36" class="edge">
<title>Node25&#45;&gt;Node19</title>
<path fill="none" stroke="midnightblue" d="M592.33,-112.32C574.61,-103.62 547.1,-90.12 526.71,-80.11"/>
<polygon fill="midnightblue" stroke="midnightblue" points="528.15,-76.92 517.63,-75.65 525.06,-83.2 528.15,-76.92"/>
</g>
<!-- Node25&#45;&gt;Node20 -->
<g id="edge37" class="edge">
<title>Node25&#45;&gt;Node20</title>
<path fill="none" stroke="midnightblue" d="M605.38,-112.08C601.54,-104.69 595.98,-93.95 591.24,-84.81"/>
<polygon fill="midnightblue" stroke="midnightblue" points="594.25,-83.02 586.54,-75.75 588.03,-86.24 594.25,-83.02"/>
</g>
</g>
</svg>
