<?xml version="1.0" encoding="UTF-8" standalone="no"?>
<!DOCTYPE svg PUBLIC "-//W3C//DTD SVG 1.1//EN"
 "http://www.w3.org/Graphics/SVG/1.1/DTD/svg11.dtd">
<!-- Generated by graphviz version 2.43.0 (0)
 -->
<!-- Title: leanux::sysdevice::NetDevice Pages: 1 -->
<svg width="188pt" height="185pt"
 viewBox="0.00 0.00 187.50 185.00" xmlns="http://www.w3.org/2000/svg" xmlns:xlink="http://www.w3.org/1999/xlink">
<g id="graph0" class="graph" transform="scale(1 1) rotate(0) translate(4 181)">
<title>leanux::sysdevice::NetDevice</title>
<!-- Node1 -->
<g id="node1" class="node">
<title>Node1</title>
<g id="a_node1"><a xlink:title="Generic networking device.">
<polygon fill="#bfbfbf" stroke="black" points="41,-0.5 41,-30.5 151,-30.5 151,-0.5 41,-0.5"/>
<text text-anchor="start" x="49" y="-18.5" font-family="Helvetica,sans-Serif" font-size="10.00">leanux::sysdevice::</text>
<text text-anchor="middle" x="96" y="-7.5" font-family="Helvetica,sans-Serif" font-size="10.00">NetDevice</text>
</a>
</g>
</g>
<!-- Node2 -->
<g id="node2" class="node">
<title>Node2</title>
<g id="a_node2"><a xlink:href="../../d1/d02/classleanux_1_1sysdevice_1_1SysDevice.html" target="_top" xlink:title="Generic SysDevice, utility class for device detection from a SysDevicePath.">
<polygon fill="none" stroke="black" points="41,-68.5 41,-98.5 151,-98.5 151,-68.5 41,-68.5"/>
<text text-anchor="start" x="49" y="-86.5" font-family="Helvetica,sans-Serif" font-size="10.00">leanux::sysdevice::</text>
<text text-anchor="middle" x="96" y="-75.5" font-family="Helvetica,sans-Serif" font-size="10.00">SysDevice</text>
</a>
</g>
</g>
<!-- Node2&#45;&gt;Node1 -->
<g id="edge1" class="edge">
<title>Node2&#45;&gt;Node1</title>
<path fill="none" stroke="midnightblue" d="M96,-58.03C96,-48.86 96,-38.74 96,-30.79"/>
<polygon fill="midnightblue" stroke="midnightblue" points="92.5,-58.18 96,-68.18 99.5,-58.18 92.5,-58.18"/>
</g>
<!-- Node3 -->
<g id="node3" class="node">
<title>Node3</title>
<g id="a_node3"><a xlink:title=" ">
<polygon fill="none" stroke="#bfbfbf" points="0,-157.5 0,-176.5 90,-176.5 90,-157.5 0,-157.5"/>
<text text-anchor="middle" x="45" y="-164.5" font-family="Helvetica,sans-Serif" font-size="10.00">SysDeviceType</text>
</a>
</g>
</g>
<!-- Node3&#45;&gt;Node2 -->
<g id="edge2" class="edge">
<title>Node3&#45;&gt;Node2</title>
<path fill="none" stroke="#9a32cd" stroke-dasharray="5,2" d="M41.39,-147.28C40.49,-137.66 40.95,-126.09 46,-117 50.23,-109.4 57.06,-103.29 64.34,-98.51"/>
<polygon fill="#9a32cd" stroke="#9a32cd" points="37.96,-148.02 42.88,-157.41 44.89,-147 37.96,-148.02"/>
<text text-anchor="middle" x="85.5" y="-125.5" font-family="Helvetica,sans-Serif" font-size="10.00"> sysdevicetype_</text>
</g>
<!-- Node4 -->
<g id="node4" class="node">
<title>Node4</title>
<g id="a_node4"><a xlink:title="STL class.">
<polygon fill="none" stroke="#bfbfbf" points="114.5,-157.5 114.5,-176.5 179.5,-176.5 179.5,-157.5 114.5,-157.5"/>
<text text-anchor="middle" x="147" y="-164.5" font-family="Helvetica,sans-Serif" font-size="10.00">std::string</text>
</a>
</g>
</g>
<!-- Node4&#45;&gt;Node2 -->
<g id="edge3" class="edge">
<title>Node4&#45;&gt;Node2</title>
<path fill="none" stroke="#9a32cd" stroke-dasharray="5,2" d="M140.32,-147.64C136.48,-138.13 131.19,-126.55 125,-117 120.8,-110.53 115.35,-104.05 110.3,-98.61"/>
<polygon fill="#9a32cd" stroke="#9a32cd" points="137.16,-149.18 144.01,-157.27 143.7,-146.68 137.16,-149.18"/>
<text text-anchor="middle" x="151.5" y="-131" font-family="Helvetica,sans-Serif" font-size="10.00"> path_</text>
<text text-anchor="middle" x="151.5" y="-120" font-family="Helvetica,sans-Serif" font-size="10.00">leaf_</text>
</g>
</g>
</svg>
