<?xml version="1.0" encoding="UTF-8" standalone="no"?>
<!DOCTYPE svg PUBLIC "-//W3C//DTD SVG 1.1//EN"
 "http://www.w3.org/Graphics/SVG/1.1/DTD/svg11.dtd">
<!-- Generated by graphviz version 2.43.0 (0)
 -->
<!-- Title: leanux::net::enumTCP6Sockets Pages: 1 -->
<svg width="610pt" height="88pt"
 viewBox="0.00 0.00 610.00 88.00" xmlns="http://www.w3.org/2000/svg" xmlns:xlink="http://www.w3.org/1999/xlink">
<g id="graph0" class="graph" transform="scale(1 1) rotate(0) translate(4 84)">
<title>leanux::net::enumTCP6Sockets</title>
<!-- Node1 -->
<g id="node1" class="node">
<title>Node1</title>
<g id="a_node1"><a xlink:title="Enumerate TCP6 sockets from /proc/net/tcp6.">
<polygon fill="#bfbfbf" stroke="black" points="435,-30 435,-49 602,-49 602,-30 435,-30"/>
<text text-anchor="middle" x="518.5" y="-37" font-family="Helvetica,sans-Serif" font-size="10.00">leanux::net::enumTCP6Sockets</text>
</a>
</g>
</g>
<!-- Node2 -->
<g id="node2" class="node">
<title>Node2</title>
<g id="a_node2"><a xlink:href="../../d5/db8/namespaceleanux_1_1net.html#ae1bc6c94c0c1352bbad7abeb430dea86" target="_top" xlink:title="Return the number of established TCP connections grouped by (ip,port,uid).">
<polygon fill="none" stroke="black" points="233,-24.5 233,-54.5 399,-54.5 399,-24.5 233,-24.5"/>
<text text-anchor="start" x="241" y="-42.5" font-family="Helvetica,sans-Serif" font-size="10.00">leanux::net::getTCPConnection</text>
<text text-anchor="middle" x="316" y="-31.5" font-family="Helvetica,sans-Serif" font-size="10.00">Counters</text>
</a>
</g>
</g>
<!-- Node1&#45;&gt;Node2 -->
<g id="edge1" class="edge">
<title>Node1&#45;&gt;Node2</title>
<path fill="none" stroke="midnightblue" d="M424.53,-39.5C416.07,-39.5 407.55,-39.5 399.2,-39.5"/>
<polygon fill="midnightblue" stroke="midnightblue" points="424.79,-43 434.79,-39.5 424.79,-36 424.79,-43"/>
</g>
<!-- Node3 -->
<g id="node3" class="node">
<title>Node3</title>
<g id="a_node3"><a xlink:href="../../da/d21/classleanux_1_1tools_1_1lmon_1_1RealtimeSampler.html#a38271e7bf2e0c59ad4648027b7802d8d" target="_top" xlink:title=" ">
<polygon fill="none" stroke="red" points="0,-49.5 0,-79.5 197,-79.5 197,-49.5 0,-49.5"/>
<text text-anchor="start" x="8" y="-67.5" font-family="Helvetica,sans-Serif" font-size="10.00">leanux::tools::lmon</text>
<text text-anchor="middle" x="98.5" y="-56.5" font-family="Helvetica,sans-Serif" font-size="10.00">::RealtimeSampler::sampleXNetView</text>
</a>
</g>
</g>
<!-- Node2&#45;&gt;Node3 -->
<g id="edge2" class="edge">
<title>Node2&#45;&gt;Node3</title>
<path fill="none" stroke="midnightblue" d="M222.71,-50.21C214.29,-51.18 205.73,-52.18 197.26,-53.16"/>
<polygon fill="midnightblue" stroke="midnightblue" points="223.38,-53.65 232.91,-49.02 222.58,-46.7 223.38,-53.65"/>
</g>
<!-- Node9 -->
<g id="node4" class="node">
<title>Node9</title>
<g id="a_node4"><a xlink:href="../../d7/dff/classleanux_1_1tools_1_1lard_1_1TCPEstaSnap.html#adc30b5d65eacc454cb653851f6180f8b" target="_top" xlink:title=" ">
<polygon fill="none" stroke="red" points="28.5,-0.5 28.5,-30.5 168.5,-30.5 168.5,-0.5 28.5,-0.5"/>
<text text-anchor="start" x="36.5" y="-18.5" font-family="Helvetica,sans-Serif" font-size="10.00">leanux::tools::lard</text>
<text text-anchor="middle" x="98.5" y="-7.5" font-family="Helvetica,sans-Serif" font-size="10.00">::TCPEstaSnap::storeSnap</text>
</a>
</g>
</g>
<!-- Node2&#45;&gt;Node9 -->
<g id="edge3" class="edge">
<title>Node2&#45;&gt;Node9</title>
<path fill="none" stroke="midnightblue" d="M222.9,-29.24C204.74,-27.22 185.97,-25.13 168.72,-23.21"/>
<polygon fill="midnightblue" stroke="midnightblue" points="222.59,-32.73 232.91,-30.36 223.36,-25.77 222.59,-32.73"/>
</g>
</g>
</svg>
