<?xml version="1.0" encoding="UTF-8" standalone="no"?>
<!DOCTYPE svg PUBLIC "-//W3C//DTD SVG 1.1//EN"
 "http://www.w3.org/Graphics/SVG/1.1/DTD/svg11.dtd">
<!-- Generated by graphviz version 2.43.0 (0)
 -->
<!-- Title: leanux::net::getTCPConnectionCounters Pages: 1 -->
<svg width="592pt" height="88pt"
 viewBox="0.00 0.00 592.00 88.00" xmlns="http://www.w3.org/2000/svg" xmlns:xlink="http://www.w3.org/1999/xlink">
<g id="graph0" class="graph" transform="scale(1 1) rotate(0) translate(4 84)">
<title>leanux::net::getTCPConnectionCounters</title>
<!-- Node1 -->
<g id="node1" class="node">
<title>Node1</title>
<g id="a_node1"><a xlink:title="Return the number of established TCP connections grouped by (ip,port,uid).">
<polygon fill="#bfbfbf" stroke="black" points="418,-24.5 418,-54.5 584,-54.5 584,-24.5 418,-24.5"/>
<text text-anchor="start" x="426" y="-42.5" font-family="Helvetica,sans-Serif" font-size="10.00">leanux::net::getTCPConnection</text>
<text text-anchor="middle" x="501" y="-31.5" font-family="Helvetica,sans-Serif" font-size="10.00">Counters</text>
</a>
</g>
</g>
<!-- Node2 -->
<g id="node2" class="node">
<title>Node2</title>
<g id="a_node2"><a xlink:href="../../da/d21/classleanux_1_1tools_1_1lmon_1_1RealtimeSampler.html#a38271e7bf2e0c59ad4648027b7802d8d" target="_top" xlink:title=" ">
<polygon fill="none" stroke="black" points="185,-49.5 185,-79.5 382,-79.5 382,-49.5 185,-49.5"/>
<text text-anchor="start" x="193" y="-67.5" font-family="Helvetica,sans-Serif" font-size="10.00">leanux::tools::lmon</text>
<text text-anchor="middle" x="283.5" y="-56.5" font-family="Helvetica,sans-Serif" font-size="10.00">::RealtimeSampler::sampleXNetView</text>
</a>
</g>
</g>
<!-- Node1&#45;&gt;Node2 -->
<g id="edge1" class="edge">
<title>Node1&#45;&gt;Node2</title>
<path fill="none" stroke="midnightblue" d="M407.71,-50.21C399.29,-51.18 390.73,-52.18 382.26,-53.16"/>
<polygon fill="midnightblue" stroke="midnightblue" points="408.38,-53.65 417.91,-49.02 407.58,-46.7 408.38,-53.65"/>
</g>
<!-- Node8 -->
<g id="node4" class="node">
<title>Node8</title>
<g id="a_node4"><a xlink:href="../../d7/dff/classleanux_1_1tools_1_1lard_1_1TCPEstaSnap.html#adc30b5d65eacc454cb653851f6180f8b" target="_top" xlink:title=" ">
<polygon fill="none" stroke="black" points="213.5,-0.5 213.5,-30.5 353.5,-30.5 353.5,-0.5 213.5,-0.5"/>
<text text-anchor="start" x="221.5" y="-18.5" font-family="Helvetica,sans-Serif" font-size="10.00">leanux::tools::lard</text>
<text text-anchor="middle" x="283.5" y="-7.5" font-family="Helvetica,sans-Serif" font-size="10.00">::TCPEstaSnap::storeSnap</text>
</a>
</g>
</g>
<!-- Node1&#45;&gt;Node8 -->
<g id="edge3" class="edge">
<title>Node1&#45;&gt;Node8</title>
<path fill="none" stroke="midnightblue" d="M407.9,-29.24C389.74,-27.22 370.97,-25.13 353.72,-23.21"/>
<polygon fill="midnightblue" stroke="midnightblue" points="407.59,-32.73 417.91,-30.36 408.36,-25.77 407.59,-32.73"/>
</g>
<!-- Node3 -->
<g id="node3" class="node">
<title>Node3</title>
<g id="a_node3"><a xlink:href="../../da/d21/classleanux_1_1tools_1_1lmon_1_1RealtimeSampler.html#a9522a4a46961eb4f75d3207da1efd07f" target="_top" xlink:title="Sample a snapshot.">
<polygon fill="none" stroke="red" points="0,-49.5 0,-79.5 149,-79.5 149,-49.5 0,-49.5"/>
<text text-anchor="start" x="8" y="-67.5" font-family="Helvetica,sans-Serif" font-size="10.00">leanux::tools::lmon</text>
<text text-anchor="middle" x="74.5" y="-56.5" font-family="Helvetica,sans-Serif" font-size="10.00">::RealtimeSampler::sample</text>
</a>
</g>
</g>
<!-- Node2&#45;&gt;Node3 -->
<g id="edge2" class="edge">
<title>Node2&#45;&gt;Node3</title>
<path fill="none" stroke="midnightblue" d="M174.68,-64.5C166.1,-64.5 157.55,-64.5 149.29,-64.5"/>
<polygon fill="midnightblue" stroke="midnightblue" points="174.76,-68 184.76,-64.5 174.76,-61 174.76,-68"/>
</g>
<!-- Node9 -->
<g id="node5" class="node">
<title>Node9</title>
<g id="a_node5"><a xlink:href="../../d4/d62/namespaceleanux_1_1tools_1_1lard.html#a6de74bbef1d571bf7eb000e62900a11d" target="_top" xlink:title=" ">
<polygon fill="none" stroke="red" points="22.5,-0.5 22.5,-30.5 126.5,-30.5 126.5,-0.5 22.5,-0.5"/>
<text text-anchor="start" x="30.5" y="-18.5" font-family="Helvetica,sans-Serif" font-size="10.00">leanux::tools::lard</text>
<text text-anchor="middle" x="74.5" y="-7.5" font-family="Helvetica,sans-Serif" font-size="10.00">::mainLoop</text>
</a>
</g>
</g>
<!-- Node8&#45;&gt;Node9 -->
<g id="edge4" class="edge">
<title>Node8&#45;&gt;Node9</title>
<path fill="none" stroke="midnightblue" d="M203.18,-15.5C177.5,-15.5 149.71,-15.5 126.63,-15.5"/>
<polygon fill="midnightblue" stroke="midnightblue" points="203.28,-19 213.28,-15.5 203.28,-12 203.28,-19"/>
</g>
</g>
</svg>
