<?xml version="1.0" encoding="UTF-8" standalone="no"?>
<!DOCTYPE svg PUBLIC "-//W3C//DTD SVG 1.1//EN"
 "http://www.w3.org/Graphics/SVG/1.1/DTD/svg11.dtd">
<!-- Generated by graphviz version 2.43.0 (0)
 -->
<!-- Title: leanux::net::parseTCP6Line Pages: 1 -->
<svg width="562pt" height="39pt"
 viewBox="0.00 0.00 562.00 39.00" xmlns="http://www.w3.org/2000/svg" xmlns:xlink="http://www.w3.org/1999/xlink">
<g id="graph0" class="graph" transform="scale(1 1) rotate(0) translate(4 35)">
<title>leanux::net::parseTCP6Line</title>
<!-- Node1 -->
<g id="node1" class="node">
<title>Node1</title>
<g id="a_node1"><a xlink:title="parse a TCP6 std::string from /proc/net/tcp.">
<polygon fill="#bfbfbf" stroke="black" points="405,-6 405,-25 554,-25 554,-6 405,-6"/>
<text text-anchor="middle" x="479.5" y="-13" font-family="Helvetica,sans-Serif" font-size="10.00">leanux::net::parseTCP6Line</text>
</a>
</g>
</g>
<!-- Node2 -->
<g id="node2" class="node">
<title>Node2</title>
<g id="a_node2"><a xlink:href="../../d5/db8/namespaceleanux_1_1net.html#a33866249dbf7e15b43f35f422147f06e" target="_top" xlink:title="Enumerate TCP6 sockets from /proc/net/tcp6.">
<polygon fill="none" stroke="black" points="202,-6 202,-25 369,-25 369,-6 202,-6"/>
<text text-anchor="middle" x="285.5" y="-13" font-family="Helvetica,sans-Serif" font-size="10.00">leanux::net::enumTCP6Sockets</text>
</a>
</g>
</g>
<!-- Node1&#45;&gt;Node2 -->
<g id="edge1" class="edge">
<title>Node1&#45;&gt;Node2</title>
<path fill="none" stroke="midnightblue" d="M394.63,-15.5C386.21,-15.5 377.67,-15.5 369.27,-15.5"/>
<polygon fill="midnightblue" stroke="midnightblue" points="394.82,-19 404.82,-15.5 394.82,-12 394.82,-19"/>
</g>
<!-- Node3 -->
<g id="node3" class="node">
<title>Node3</title>
<g id="a_node3"><a xlink:href="../../d5/db8/namespaceleanux_1_1net.html#ae1bc6c94c0c1352bbad7abeb430dea86" target="_top" xlink:title="Return the number of established TCP connections grouped by (ip,port,uid).">
<polygon fill="none" stroke="red" points="0,-0.5 0,-30.5 166,-30.5 166,-0.5 0,-0.5"/>
<text text-anchor="start" x="8" y="-18.5" font-family="Helvetica,sans-Serif" font-size="10.00">leanux::net::getTCPConnection</text>
<text text-anchor="middle" x="83" y="-7.5" font-family="Helvetica,sans-Serif" font-size="10.00">Counters</text>
</a>
</g>
</g>
<!-- Node2&#45;&gt;Node3 -->
<g id="edge2" class="edge">
<title>Node2&#45;&gt;Node3</title>
<path fill="none" stroke="midnightblue" d="M191.53,-15.5C183.07,-15.5 174.55,-15.5 166.2,-15.5"/>
<polygon fill="midnightblue" stroke="midnightblue" points="191.79,-19 201.79,-15.5 191.79,-12 191.79,-19"/>
</g>
</g>
</svg>
