<?xml version="1.0" encoding="UTF-8" standalone="no"?>
<!DOCTYPE svg PUBLIC "-//W3C//DTD SVG 1.1//EN"
 "http://www.w3.org/Graphics/SVG/1.1/DTD/svg11.dtd">
<!-- Generated by graphviz version 2.43.0 (0)
 -->
<!-- Title: leanux::net::getNetStat Pages: 1 -->
<svg width="556pt" height="235pt"
 viewBox="0.00 0.00 556.00 235.00" xmlns="http://www.w3.org/2000/svg" xmlns:xlink="http://www.w3.org/1999/xlink">
<g id="graph0" class="graph" transform="scale(1 1) rotate(0) translate(4 231)">
<title>leanux::net::getNetStat</title>
<!-- Node1 -->
<g id="node1" class="node">
<title>Node1</title>
<g id="a_node1"><a xlink:title="Get network device statistics from /proc/net/dev.">
<polygon fill="#bfbfbf" stroke="black" points="418,-104 418,-123 548,-123 548,-104 418,-104"/>
<text text-anchor="middle" x="483" y="-111" font-family="Helvetica,sans-Serif" font-size="10.00">leanux::net::getNetStat</text>
</a>
</g>
</g>
<!-- Node2 -->
<g id="node2" class="node">
<title>Node2</title>
<g id="a_node2"><a xlink:href="../../d9/d1f/namespaceleanux_1_1tools_1_1lsys.html#a4a56050ff78d8c77b6a699ff6d5aea50" target="_top" xlink:title="get named field attributes for the SysDevice.">
<polygon fill="none" stroke="black" points="231,-196.5 231,-226.5 336,-226.5 336,-196.5 231,-196.5"/>
<text text-anchor="start" x="239" y="-214.5" font-family="Helvetica,sans-Serif" font-size="10.00">leanux::tools::lsys</text>
<text text-anchor="middle" x="283.5" y="-203.5" font-family="Helvetica,sans-Serif" font-size="10.00">::getLeafColStr</text>
</a>
</g>
</g>
<!-- Node1&#45;&gt;Node2 -->
<g id="edge1" class="edge">
<title>Node1&#45;&gt;Node2</title>
<path fill="none" stroke="midnightblue" d="M464.27,-130.08C445.31,-146.93 413.67,-172.62 382,-187.5 367.72,-194.21 351.35,-199.17 336.16,-202.79"/>
<polygon fill="midnightblue" stroke="midnightblue" points="466.76,-132.55 471.81,-123.24 462.05,-127.36 466.76,-132.55"/>
</g>
<!-- Node7 -->
<g id="node4" class="node">
<title>Node7</title>
<g id="a_node4"><a xlink:href="../../df/dcc/classleanux_1_1tools_1_1lmon_1_1NetView.html#a90d83dccb33390f86d92374070075b29" target="_top" xlink:title="provide the optimal height for the NetView,">
<polygon fill="none" stroke="black" points="205.5,-147.5 205.5,-177.5 361.5,-177.5 361.5,-147.5 205.5,-147.5"/>
<text text-anchor="start" x="213.5" y="-165.5" font-family="Helvetica,sans-Serif" font-size="10.00">leanux::tools::lmon</text>
<text text-anchor="middle" x="283.5" y="-154.5" font-family="Helvetica,sans-Serif" font-size="10.00">::NetView::getOptimalHeight</text>
</a>
</g>
</g>
<!-- Node1&#45;&gt;Node7 -->
<g id="edge3" class="edge">
<title>Node1&#45;&gt;Node7</title>
<path fill="none" stroke="midnightblue" d="M434.05,-125.52C417.56,-129.65 398.97,-134.29 382,-138.5 370.24,-141.42 357.68,-144.52 345.62,-147.49"/>
<polygon fill="midnightblue" stroke="midnightblue" points="435.17,-128.85 444.02,-123.03 433.47,-122.06 435.17,-128.85"/>
</g>
<!-- Node14 -->
<g id="node6" class="node">
<title>Node14</title>
<g id="a_node6"><a xlink:href="../../da/d21/classleanux_1_1tools_1_1lmon_1_1RealtimeSampler.html#a38271e7bf2e0c59ad4648027b7802d8d" target="_top" xlink:title=" ">
<polygon fill="none" stroke="black" points="185,-98.5 185,-128.5 382,-128.5 382,-98.5 185,-98.5"/>
<text text-anchor="start" x="193" y="-116.5" font-family="Helvetica,sans-Serif" font-size="10.00">leanux::tools::lmon</text>
<text text-anchor="middle" x="283.5" y="-105.5" font-family="Helvetica,sans-Serif" font-size="10.00">::RealtimeSampler::sampleXNetView</text>
</a>
</g>
</g>
<!-- Node1&#45;&gt;Node14 -->
<g id="edge5" class="edge">
<title>Node1&#45;&gt;Node14</title>
<path fill="none" stroke="midnightblue" d="M407.75,-113.5C399.34,-113.5 390.66,-113.5 382,-113.5"/>
<polygon fill="midnightblue" stroke="midnightblue" points="407.88,-117 417.88,-113.5 407.88,-110 407.88,-117"/>
</g>
<!-- Node17 -->
<g id="node8" class="node">
<title>Node17</title>
<g id="a_node8"><a xlink:href="../../d2/de5/classleanux_1_1tools_1_1lard_1_1NetSnap.html#a856922288b7d4d63dd2f173ee7eb0dd3" target="_top" xlink:title=" ">
<polygon fill="none" stroke="black" points="225.5,-49.5 225.5,-79.5 341.5,-79.5 341.5,-49.5 225.5,-49.5"/>
<text text-anchor="start" x="233.5" y="-67.5" font-family="Helvetica,sans-Serif" font-size="10.00">leanux::tools::lard</text>
<text text-anchor="middle" x="283.5" y="-56.5" font-family="Helvetica,sans-Serif" font-size="10.00">::NetSnap::startSnap</text>
</a>
</g>
</g>
<!-- Node1&#45;&gt;Node17 -->
<g id="edge7" class="edge">
<title>Node1&#45;&gt;Node17</title>
<path fill="none" stroke="midnightblue" d="M433.57,-101.48C405.8,-94.59 370.78,-85.91 341.66,-78.68"/>
<polygon fill="midnightblue" stroke="midnightblue" points="432.9,-104.92 443.45,-103.94 434.59,-98.13 432.9,-104.92"/>
</g>
<!-- Node21 -->
<g id="node10" class="node">
<title>Node21</title>
<g id="a_node10"><a xlink:href="../../d2/de5/classleanux_1_1tools_1_1lard_1_1NetSnap.html#a7a429b2ea8298f49fbd0e0f9c70d7fc7" target="_top" xlink:title=" ">
<polygon fill="none" stroke="black" points="226,-0.5 226,-30.5 341,-30.5 341,-0.5 226,-0.5"/>
<text text-anchor="start" x="234" y="-18.5" font-family="Helvetica,sans-Serif" font-size="10.00">leanux::tools::lard</text>
<text text-anchor="middle" x="283.5" y="-7.5" font-family="Helvetica,sans-Serif" font-size="10.00">::NetSnap::stopSnap</text>
</a>
</g>
</g>
<!-- Node1&#45;&gt;Node21 -->
<g id="edge9" class="edge">
<title>Node1&#45;&gt;Node21</title>
<path fill="none" stroke="midnightblue" d="M464.2,-97.22C445.18,-80.65 413.5,-55.36 382,-40.5 369.28,-34.5 354.92,-29.8 341.2,-26.18"/>
<polygon fill="midnightblue" stroke="midnightblue" points="461.97,-99.92 471.77,-103.94 466.61,-94.68 461.97,-99.92"/>
</g>
<!-- Node3 -->
<g id="node3" class="node">
<title>Node3</title>
<g id="a_node3"><a xlink:href="../../d9/d1f/namespaceleanux_1_1tools_1_1lsys.html#ad858cdc5736e1be415f25fdaec024b58" target="_top" xlink:title="list devices, filtered if opt_t is set.">
<polygon fill="none" stroke="red" points="22,-196.5 22,-226.5 127,-226.5 127,-196.5 22,-196.5"/>
<text text-anchor="start" x="30" y="-214.5" font-family="Helvetica,sans-Serif" font-size="10.00">leanux::tools::lsys</text>
<text text-anchor="middle" x="74.5" y="-203.5" font-family="Helvetica,sans-Serif" font-size="10.00">::listDevices</text>
</a>
</g>
</g>
<!-- Node2&#45;&gt;Node3 -->
<g id="edge2" class="edge">
<title>Node2&#45;&gt;Node3</title>
<path fill="none" stroke="midnightblue" d="M220.53,-211.5C190.78,-211.5 155.55,-211.5 127.26,-211.5"/>
<polygon fill="midnightblue" stroke="midnightblue" points="220.8,-215 230.8,-211.5 220.8,-208 220.8,-215"/>
</g>
<!-- Node8 -->
<g id="node5" class="node">
<title>Node8</title>
<g id="a_node5"><a xlink:href="../../d5/de6/classleanux_1_1tools_1_1lmon_1_1Screen.html#abcaa706fe703bbf453808220fcaf8263" target="_top" xlink:title="Recalculate the window sizes.">
<polygon fill="none" stroke="red" points="11.5,-147.5 11.5,-177.5 137.5,-177.5 137.5,-147.5 11.5,-147.5"/>
<text text-anchor="start" x="19.5" y="-165.5" font-family="Helvetica,sans-Serif" font-size="10.00">leanux::tools::lmon</text>
<text text-anchor="middle" x="74.5" y="-154.5" font-family="Helvetica,sans-Serif" font-size="10.00">::Screen::screenResize</text>
</a>
</g>
</g>
<!-- Node7&#45;&gt;Node8 -->
<g id="edge4" class="edge">
<title>Node7&#45;&gt;Node8</title>
<path fill="none" stroke="midnightblue" d="M195.39,-162.5C176.04,-162.5 155.91,-162.5 137.79,-162.5"/>
<polygon fill="midnightblue" stroke="midnightblue" points="195.42,-166 205.42,-162.5 195.42,-159 195.42,-166"/>
</g>
<!-- Node15 -->
<g id="node7" class="node">
<title>Node15</title>
<g id="a_node7"><a xlink:href="../../da/d21/classleanux_1_1tools_1_1lmon_1_1RealtimeSampler.html#a9522a4a46961eb4f75d3207da1efd07f" target="_top" xlink:title="Sample a snapshot.">
<polygon fill="none" stroke="red" points="0,-98.5 0,-128.5 149,-128.5 149,-98.5 0,-98.5"/>
<text text-anchor="start" x="8" y="-116.5" font-family="Helvetica,sans-Serif" font-size="10.00">leanux::tools::lmon</text>
<text text-anchor="middle" x="74.5" y="-105.5" font-family="Helvetica,sans-Serif" font-size="10.00">::RealtimeSampler::sample</text>
</a>
</g>
</g>
<!-- Node14&#45;&gt;Node15 -->
<g id="edge6" class="edge">
<title>Node14&#45;&gt;Node15</title>
<path fill="none" stroke="midnightblue" d="M174.68,-113.5C166.1,-113.5 157.55,-113.5 149.29,-113.5"/>
<polygon fill="midnightblue" stroke="midnightblue" points="174.76,-117 184.76,-113.5 174.76,-110 174.76,-117"/>
</g>
<!-- Node18 -->
<g id="node9" class="node">
<title>Node18</title>
<g id="a_node9"><a xlink:href="../../d4/d62/namespaceleanux_1_1tools_1_1lard.html#a6de74bbef1d571bf7eb000e62900a11d" target="_top" xlink:title=" ">
<polygon fill="none" stroke="red" points="22.5,-25.5 22.5,-55.5 126.5,-55.5 126.5,-25.5 22.5,-25.5"/>
<text text-anchor="start" x="30.5" y="-43.5" font-family="Helvetica,sans-Serif" font-size="10.00">leanux::tools::lard</text>
<text text-anchor="middle" x="74.5" y="-32.5" font-family="Helvetica,sans-Serif" font-size="10.00">::mainLoop</text>
</a>
</g>
</g>
<!-- Node17&#45;&gt;Node18 -->
<g id="edge8" class="edge">
<title>Node17&#45;&gt;Node18</title>
<path fill="none" stroke="midnightblue" d="M215.41,-56.72C186.62,-53.38 153.54,-49.55 126.77,-46.44"/>
<polygon fill="midnightblue" stroke="midnightblue" points="215.05,-60.2 225.39,-57.88 215.86,-53.25 215.05,-60.2"/>
</g>
<!-- Node21&#45;&gt;Node18 -->
<g id="edge10" class="edge">
<title>Node21&#45;&gt;Node18</title>
<path fill="none" stroke="midnightblue" d="M215.91,-23.54C186.98,-27.04 153.62,-31.06 126.69,-34.32"/>
<polygon fill="midnightblue" stroke="midnightblue" points="216.43,-27.01 225.94,-22.33 215.59,-20.06 216.43,-27.01"/>
</g>
</g>
</svg>
