<?xml version="1.0" encoding="UTF-8" standalone="no"?>
<!DOCTYPE svg PUBLIC "-//W3C//DTD SVG 1.1//EN"
 "http://www.w3.org/Graphics/SVG/1.1/DTD/svg11.dtd">
<!-- Generated by graphviz version 2.43.0 (0)
 -->
<!-- Title: leanux::net::getServiceName Pages: 1 -->
<svg width="502pt" height="186pt"
 viewBox="0.00 0.00 502.00 186.00" xmlns="http://www.w3.org/2000/svg" xmlns:xlink="http://www.w3.org/1999/xlink">
<g id="graph0" class="graph" transform="scale(1 1) rotate(0) translate(4 182)">
<title>leanux::net::getServiceName</title>
<!-- Node1 -->
<g id="node1" class="node">
<title>Node1</title>
<g id="a_node1"><a xlink:title="Get the service name, eg &#39;ssh&#39; for port 22.">
<polygon fill="#bfbfbf" stroke="black" points="336,-79 336,-98 494,-98 494,-79 336,-79"/>
<text text-anchor="middle" x="415" y="-86" font-family="Helvetica,sans-Serif" font-size="10.00">leanux::net::getServiceName</text>
</a>
</g>
</g>
<!-- Node2 -->
<g id="node2" class="node">
<title>Node2</title>
<g id="a_node2"><a xlink:href="../../d6/dd3/namespaceleanux_1_1tools_1_1lrep.html#ade6717549f68d3afc101be46a59d4348" target="_top" xlink:title=" ">
<polygon fill="none" stroke="black" points="162,-147.5 162,-177.5 296,-177.5 296,-147.5 162,-147.5"/>
<text text-anchor="start" x="170" y="-165.5" font-family="Helvetica,sans-Serif" font-size="10.00">leanux::tools::lrep</text>
<text text-anchor="middle" x="229" y="-154.5" font-family="Helvetica,sans-Serif" font-size="10.00">::chartTCPClientAverage</text>
</a>
</g>
</g>
<!-- Node1&#45;&gt;Node2 -->
<g id="edge1" class="edge">
<title>Node1&#45;&gt;Node2</title>
<path fill="none" stroke="midnightblue" d="M384.46,-102.26C361.61,-112.71 329.07,-127.16 300,-138.5 292.22,-141.53 283.88,-144.57 275.76,-147.42"/>
<polygon fill="midnightblue" stroke="midnightblue" points="386,-105.41 393.62,-98.05 383.07,-99.05 386,-105.41"/>
</g>
<!-- Node6 -->
<g id="node4" class="node">
<title>Node6</title>
<g id="a_node4"><a xlink:href="../../d6/dd3/namespaceleanux_1_1tools_1_1lrep.html#abb105274c50a277438a21f4c73e1d381" target="_top" xlink:title=" ">
<polygon fill="none" stroke="black" points="159.5,-49.5 159.5,-79.5 298.5,-79.5 298.5,-49.5 159.5,-49.5"/>
<text text-anchor="start" x="167.5" y="-67.5" font-family="Helvetica,sans-Serif" font-size="10.00">leanux::tools::lrep</text>
<text text-anchor="middle" x="229" y="-56.5" font-family="Helvetica,sans-Serif" font-size="10.00">::chartTCPClientTimeLine</text>
</a>
</g>
</g>
<!-- Node1&#45;&gt;Node6 -->
<g id="edge3" class="edge">
<title>Node1&#45;&gt;Node6</title>
<path fill="none" stroke="midnightblue" d="M330.79,-77.65C320.06,-76.25 309.17,-74.83 298.7,-73.46"/>
<polygon fill="midnightblue" stroke="midnightblue" points="330.65,-81.16 341.01,-78.98 331.55,-74.22 330.65,-81.16"/>
</g>
<!-- Node8 -->
<g id="node6" class="node">
<title>Node8</title>
<g id="a_node6"><a xlink:href="../../d6/dd3/namespaceleanux_1_1tools_1_1lrep.html#ad20c11d51522dd9480766869e451ca22" target="_top" xlink:title=" ">
<polygon fill="none" stroke="black" points="160.5,-98.5 160.5,-128.5 297.5,-128.5 297.5,-98.5 160.5,-98.5"/>
<text text-anchor="start" x="168.5" y="-116.5" font-family="Helvetica,sans-Serif" font-size="10.00">leanux::tools::lrep</text>
<text text-anchor="middle" x="229" y="-105.5" font-family="Helvetica,sans-Serif" font-size="10.00">::chartTCPServerAverage</text>
</a>
</g>
</g>
<!-- Node1&#45;&gt;Node8 -->
<g id="edge5" class="edge">
<title>Node1&#45;&gt;Node8</title>
<path fill="none" stroke="midnightblue" d="M333.88,-99.39C321.84,-101.02 309.52,-102.7 297.77,-104.29"/>
<polygon fill="midnightblue" stroke="midnightblue" points="334.47,-102.84 343.91,-98.02 333.53,-95.9 334.47,-102.84"/>
</g>
<!-- Node9 -->
<g id="node7" class="node">
<title>Node9</title>
<g id="a_node7"><a xlink:href="../../d6/dd3/namespaceleanux_1_1tools_1_1lrep.html#afea1d8a7ccefd494266833dd4ecfa33d" target="_top" xlink:title=" ">
<polygon fill="none" stroke="black" points="158,-0.5 158,-30.5 300,-30.5 300,-0.5 158,-0.5"/>
<text text-anchor="start" x="166" y="-18.5" font-family="Helvetica,sans-Serif" font-size="10.00">leanux::tools::lrep</text>
<text text-anchor="middle" x="229" y="-7.5" font-family="Helvetica,sans-Serif" font-size="10.00">::chartTCPServerTimeLine</text>
</a>
</g>
</g>
<!-- Node1&#45;&gt;Node9 -->
<g id="edge7" class="edge">
<title>Node1&#45;&gt;Node9</title>
<path fill="none" stroke="midnightblue" d="M383.1,-74.94C360.28,-65.06 328.37,-51.53 300,-40.5 291.46,-37.18 282.27,-33.78 273.45,-30.6"/>
<polygon fill="midnightblue" stroke="midnightblue" points="381.73,-78.16 392.29,-78.94 384.52,-71.74 381.73,-78.16"/>
</g>
<!-- Node3 -->
<g id="node3" class="node">
<title>Node3</title>
<g id="a_node3"><a xlink:href="../../d6/dd3/namespaceleanux_1_1tools_1_1lrep.html#ae8f0cfa4040dda0d19fe047d8a186a59" target="_top" xlink:title=" ">
<polygon fill="none" stroke="red" points="0,-110.5 0,-140.5 122,-140.5 122,-110.5 0,-110.5"/>
<text text-anchor="start" x="8" y="-128.5" font-family="Helvetica,sans-Serif" font-size="10.00">leanux::tools::lrep</text>
<text text-anchor="middle" x="61" y="-117.5" font-family="Helvetica,sans-Serif" font-size="10.00">::htmlReportAverages</text>
</a>
</g>
</g>
<!-- Node2&#45;&gt;Node3 -->
<g id="edge2" class="edge">
<title>Node2&#45;&gt;Node3</title>
<path fill="none" stroke="midnightblue" d="M151.99,-145.56C142.01,-143.33 131.88,-141.08 122.21,-138.92"/>
<polygon fill="midnightblue" stroke="midnightblue" points="151.39,-149.01 161.92,-147.77 152.92,-142.18 151.39,-149.01"/>
</g>
<!-- Node7 -->
<g id="node5" class="node">
<title>Node7</title>
<g id="a_node5"><a xlink:href="../../d6/dd3/namespaceleanux_1_1tools_1_1lrep.html#a6f351b4134bb9689630c092625774c9d" target="_top" xlink:title=" ">
<polygon fill="none" stroke="red" points="9,-37.5 9,-67.5 113,-67.5 113,-37.5 9,-37.5"/>
<text text-anchor="start" x="17" y="-55.5" font-family="Helvetica,sans-Serif" font-size="10.00">leanux::tools::lrep</text>
<text text-anchor="middle" x="61" y="-44.5" font-family="Helvetica,sans-Serif" font-size="10.00">::htmlTimeLines</text>
</a>
</g>
</g>
<!-- Node6&#45;&gt;Node7 -->
<g id="edge4" class="edge">
<title>Node6&#45;&gt;Node7</title>
<path fill="none" stroke="midnightblue" d="M148.86,-58.78C136.67,-57.9 124.38,-57.01 113.02,-56.19"/>
<polygon fill="midnightblue" stroke="midnightblue" points="148.82,-62.28 159.04,-59.52 149.32,-55.3 148.82,-62.28"/>
</g>
<!-- Node8&#45;&gt;Node3 -->
<g id="edge6" class="edge">
<title>Node8&#45;&gt;Node3</title>
<path fill="none" stroke="midnightblue" d="M150.31,-119.12C140.89,-119.8 131.37,-120.49 122.25,-121.14"/>
<polygon fill="midnightblue" stroke="midnightblue" points="150.76,-122.59 160.48,-118.38 150.26,-115.61 150.76,-122.59"/>
</g>
<!-- Node9&#45;&gt;Node7 -->
<g id="edge8" class="edge">
<title>Node9&#45;&gt;Node7</title>
<path fill="none" stroke="midnightblue" d="M150.4,-32.8C137.76,-35.61 124.96,-38.47 113.16,-41.1"/>
<polygon fill="midnightblue" stroke="midnightblue" points="151.48,-36.14 160.48,-30.55 149.96,-29.31 151.48,-36.14"/>
</g>
</g>
</svg>
