<?xml version="1.0" encoding="UTF-8" standalone="no"?>
<!DOCTYPE svg PUBLIC "-//W3C//DTD SVG 1.1//EN"
 "http://www.w3.org/Graphics/SVG/1.1/DTD/svg11.dtd">
<!-- Generated by graphviz version 2.43.0 (0)
 -->
<!-- Title: leanux::net::convertAF_INET6 Pages: 1 -->
<svg width="570pt" height="225pt"
 viewBox="0.00 0.00 570.00 224.50" xmlns="http://www.w3.org/2000/svg" xmlns:xlink="http://www.w3.org/1999/xlink">
<g id="graph0" class="graph" transform="scale(1 1) rotate(0) translate(4 220.5)">
<title>leanux::net::convertAF_INET6</title>
<!-- Node1 -->
<g id="node1" class="node">
<title>Node1</title>
<g id="a_node1"><a xlink:title="convert IPv6 network IP representation to human readable format.">
<polygon fill="#bfbfbf" stroke="black" points="435,-73.5 435,-103.5 562,-103.5 562,-73.5 435,-73.5"/>
<text text-anchor="start" x="443" y="-91.5" font-family="Helvetica,sans-Serif" font-size="10.00">leanux::net::convertAF</text>
<text text-anchor="middle" x="498.5" y="-80.5" font-family="Helvetica,sans-Serif" font-size="10.00">_INET6</text>
</a>
</g>
</g>
<!-- Node2 -->
<g id="node2" class="node">
<title>Node2</title>
<g id="a_node2"><a xlink:href="../../d5/db8/namespaceleanux_1_1net.html#a7c381b1111743825c892ab901076314b" target="_top" xlink:title="Get a list of IP6 adresses assigned to the device.">
<polygon fill="none" stroke="black" points="245,-122.5 245,-152.5 387,-152.5 387,-122.5 245,-122.5"/>
<text text-anchor="start" x="253" y="-140.5" font-family="Helvetica,sans-Serif" font-size="10.00">leanux::net::getDeviceIP6</text>
<text text-anchor="middle" x="316" y="-129.5" font-family="Helvetica,sans-Serif" font-size="10.00">Addresses</text>
</a>
</g>
</g>
<!-- Node1&#45;&gt;Node2 -->
<g id="edge1" class="edge">
<title>Node1&#45;&gt;Node2</title>
<path fill="none" stroke="midnightblue" d="M432.12,-106.25C412.56,-111.56 391.3,-117.33 372.45,-122.45"/>
<polygon fill="midnightblue" stroke="midnightblue" points="433.14,-109.6 441.87,-103.6 431.3,-102.84 433.14,-109.6"/>
</g>
<!-- Node10 -->
<g id="node6" class="node">
<title>Node10</title>
<g id="a_node6"><a xlink:href="../../d5/db8/namespaceleanux_1_1net.html#ae1bc6c94c0c1352bbad7abeb430dea86" target="_top" xlink:title="Return the number of established TCP connections grouped by (ip,port,uid).">
<polygon fill="none" stroke="black" points="233,-49.5 233,-79.5 399,-79.5 399,-49.5 233,-49.5"/>
<text text-anchor="start" x="241" y="-67.5" font-family="Helvetica,sans-Serif" font-size="10.00">leanux::net::getTCPConnection</text>
<text text-anchor="middle" x="316" y="-56.5" font-family="Helvetica,sans-Serif" font-size="10.00">Counters</text>
</a>
</g>
</g>
<!-- Node1&#45;&gt;Node10 -->
<g id="edge5" class="edge">
<title>Node1&#45;&gt;Node10</title>
<path fill="none" stroke="midnightblue" d="M424.75,-78.83C416.35,-77.71 407.74,-76.57 399.22,-75.43"/>
<polygon fill="midnightblue" stroke="midnightblue" points="424.5,-82.32 434.88,-80.17 425.43,-75.39 424.5,-82.32"/>
</g>
<!-- Node3 -->
<g id="node3" class="node">
<title>Node3</title>
<g id="a_node3"><a xlink:href="../../d5/db8/namespaceleanux_1_1net.html#a68c41b642109410b979396878c9fec22" target="_top" xlink:title="Return the device name configured with the given ip address.">
<polygon fill="none" stroke="black" points="24,-197 24,-216 173,-216 173,-197 24,-197"/>
<text text-anchor="middle" x="98.5" y="-204" font-family="Helvetica,sans-Serif" font-size="10.00">leanux::net::getDeviceByIP</text>
</a>
</g>
</g>
<!-- Node2&#45;&gt;Node3 -->
<g id="edge2" class="edge">
<title>Node2&#45;&gt;Node3</title>
<path fill="none" stroke="midnightblue" d="M274.89,-156.96C252.41,-167.24 223.62,-179.36 197,-187.5 184.88,-191.2 171.68,-194.35 159.02,-196.95"/>
<polygon fill="midnightblue" stroke="midnightblue" points="276.51,-160.07 284.11,-152.69 273.56,-153.72 276.51,-160.07"/>
</g>
<!-- Node4 -->
<g id="node4" class="node">
<title>Node4</title>
<g id="a_node4"><a xlink:href="../../d9/d1f/namespaceleanux_1_1tools_1_1lsys.html#a4a56050ff78d8c77b6a699ff6d5aea50" target="_top" xlink:title="get named field attributes for the SysDevice.">
<polygon fill="none" stroke="red" points="46,-147.5 46,-177.5 151,-177.5 151,-147.5 46,-147.5"/>
<text text-anchor="start" x="54" y="-165.5" font-family="Helvetica,sans-Serif" font-size="10.00">leanux::tools::lsys</text>
<text text-anchor="middle" x="98.5" y="-154.5" font-family="Helvetica,sans-Serif" font-size="10.00">::getLeafColStr</text>
</a>
</g>
</g>
<!-- Node2&#45;&gt;Node4 -->
<g id="edge3" class="edge">
<title>Node2&#45;&gt;Node4</title>
<path fill="none" stroke="midnightblue" d="M234.59,-146.83C206.7,-150.06 176.18,-153.6 151.22,-156.5"/>
<polygon fill="midnightblue" stroke="midnightblue" points="235.21,-150.28 244.74,-145.65 234.4,-143.33 235.21,-150.28"/>
</g>
<!-- Node9 -->
<g id="node5" class="node">
<title>Node9</title>
<g id="a_node5"><a xlink:href="../../dc/d23/classleanux_1_1sysdevice_1_1NetDevice.html#a1debae3dd366106e7b0f90018c503b9e" target="_top" xlink:title=" ">
<polygon fill="none" stroke="black" points="11,-98.5 11,-128.5 186,-128.5 186,-98.5 11,-98.5"/>
<text text-anchor="start" x="19" y="-116.5" font-family="Helvetica,sans-Serif" font-size="10.00">leanux::sysdevice::</text>
<text text-anchor="middle" x="98.5" y="-105.5" font-family="Helvetica,sans-Serif" font-size="10.00">NetDevice::getPropertyValueList</text>
</a>
</g>
</g>
<!-- Node2&#45;&gt;Node9 -->
<g id="edge4" class="edge">
<title>Node2&#45;&gt;Node9</title>
<path fill="none" stroke="midnightblue" d="M234.52,-128.54C218.77,-126.78 202.19,-124.94 186.24,-123.16"/>
<polygon fill="midnightblue" stroke="midnightblue" points="234.41,-132.05 244.74,-129.67 235.18,-125.09 234.41,-132.05"/>
</g>
<!-- Node11 -->
<g id="node7" class="node">
<title>Node11</title>
<g id="a_node7"><a xlink:href="../../da/d21/classleanux_1_1tools_1_1lmon_1_1RealtimeSampler.html#a38271e7bf2e0c59ad4648027b7802d8d" target="_top" xlink:title=" ">
<polygon fill="none" stroke="red" points="0,-49.5 0,-79.5 197,-79.5 197,-49.5 0,-49.5"/>
<text text-anchor="start" x="8" y="-67.5" font-family="Helvetica,sans-Serif" font-size="10.00">leanux::tools::lmon</text>
<text text-anchor="middle" x="98.5" y="-56.5" font-family="Helvetica,sans-Serif" font-size="10.00">::RealtimeSampler::sampleXNetView</text>
</a>
</g>
</g>
<!-- Node10&#45;&gt;Node11 -->
<g id="edge6" class="edge">
<title>Node10&#45;&gt;Node11</title>
<path fill="none" stroke="midnightblue" d="M222.71,-64.5C214.29,-64.5 205.73,-64.5 197.26,-64.5"/>
<polygon fill="midnightblue" stroke="midnightblue" points="222.91,-68 232.91,-64.5 222.91,-61 222.91,-68"/>
</g>
<!-- Node17 -->
<g id="node8" class="node">
<title>Node17</title>
<g id="a_node8"><a xlink:href="../../d7/dff/classleanux_1_1tools_1_1lard_1_1TCPEstaSnap.html#adc30b5d65eacc454cb653851f6180f8b" target="_top" xlink:title=" ">
<polygon fill="none" stroke="red" points="28.5,-0.5 28.5,-30.5 168.5,-30.5 168.5,-0.5 28.5,-0.5"/>
<text text-anchor="start" x="36.5" y="-18.5" font-family="Helvetica,sans-Serif" font-size="10.00">leanux::tools::lard</text>
<text text-anchor="middle" x="98.5" y="-7.5" font-family="Helvetica,sans-Serif" font-size="10.00">::TCPEstaSnap::storeSnap</text>
</a>
</g>
</g>
<!-- Node10&#45;&gt;Node17 -->
<g id="edge7" class="edge">
<title>Node10&#45;&gt;Node17</title>
<path fill="none" stroke="midnightblue" d="M239.1,-47.24C215.09,-41.78 188.76,-35.79 165.5,-30.51"/>
<polygon fill="midnightblue" stroke="midnightblue" points="238.35,-50.66 248.88,-49.47 239.9,-43.84 238.35,-50.66"/>
</g>
</g>
</svg>
