<?xml version="1.0" encoding="UTF-8" standalone="no"?>
<!DOCTYPE svg PUBLIC "-//W3C//DTD SVG 1.1//EN"
 "http://www.w3.org/Graphics/SVG/1.1/DTD/svg11.dtd">
<!-- Generated by graphviz version 2.43.0 (0)
 -->
<!-- Title: leanux::net::operator&lt;&lt; Pages: 1 -->
<svg width="344pt" height="116pt"
 viewBox="0.00 0.00 344.00 116.00" xmlns="http://www.w3.org/2000/svg" xmlns:xlink="http://www.w3.org/1999/xlink">
<g id="graph0" class="graph" transform="scale(1 1) rotate(0) translate(4 112)">
<title>leanux::net::operator&lt;&lt;</title>
<!-- Node1 -->
<g id="node1" class="node">
<title>Node1</title>
<g id="a_node1"><a xlink:title="Dump a TCP4Socket to stream.">
<polygon fill="#bfbfbf" stroke="black" points="0,-44.5 0,-63.5 135,-63.5 135,-44.5 0,-44.5"/>
<text text-anchor="middle" x="67.5" y="-51.5" font-family="Helvetica,sans-Serif" font-size="10.00">leanux::net::operator&lt;&lt;</text>
</a>
</g>
</g>
<!-- Node2 -->
<g id="node2" class="node">
<title>Node2</title>
<g id="a_node2"><a xlink:href="../../d5/db8/namespaceleanux_1_1net.html#a1961711f7416e2fc1f75688e973b7305" target="_top" xlink:title="convert IPv4 network IP representation to human readable format.">
<polygon fill="none" stroke="black" points="176,-88.5 176,-107.5 331,-107.5 331,-88.5 176,-88.5"/>
<text text-anchor="middle" x="253.5" y="-95.5" font-family="Helvetica,sans-Serif" font-size="10.00">leanux::net::convertAF_INET</text>
</a>
</g>
</g>
<!-- Node1&#45;&gt;Node2 -->
<g id="edge1" class="edge">
<title>Node1&#45;&gt;Node2</title>
<path fill="none" stroke="midnightblue" d="M107.42,-63.59C126.56,-68.28 149.98,-73.99 171,-79 180.75,-81.33 191.17,-83.78 201.18,-86.12"/>
<polygon fill="midnightblue" stroke="midnightblue" points="200.49,-89.55 211.02,-88.42 202.08,-82.73 200.49,-89.55"/>
</g>
<!-- Node3 -->
<g id="node3" class="node">
<title>Node3</title>
<g id="a_node3"><a xlink:href="../../d5/db8/namespaceleanux_1_1net.html#ab8fe3018bd00dd43f6d16815049c423a" target="_top" xlink:title="Get human readable name for a tcp state.">
<polygon fill="none" stroke="black" points="185,-39 185,-69 322,-69 322,-39 185,-39"/>
<text text-anchor="start" x="193" y="-57" font-family="Helvetica,sans-Serif" font-size="10.00">leanux::net::getTCPState</text>
<text text-anchor="middle" x="253.5" y="-46" font-family="Helvetica,sans-Serif" font-size="10.00">String</text>
</a>
</g>
</g>
<!-- Node1&#45;&gt;Node3 -->
<g id="edge2" class="edge">
<title>Node1&#45;&gt;Node3</title>
<path fill="none" stroke="midnightblue" d="M135.19,-54C147.93,-54 161.37,-54 174.43,-54"/>
<polygon fill="midnightblue" stroke="midnightblue" points="174.8,-57.5 184.8,-54 174.8,-50.5 174.8,-57.5"/>
</g>
<!-- Node4 -->
<g id="node4" class="node">
<title>Node4</title>
<g id="a_node4"><a xlink:href="../../dd/d42/namespaceleanux_1_1system.html#a15a1517cb994968027d406402a588157" target="_top" xlink:title="Get username from a uid.">
<polygon fill="none" stroke="black" points="171,-0.5 171,-19.5 336,-19.5 336,-0.5 171,-0.5"/>
<text text-anchor="middle" x="253.5" y="-7.5" font-family="Helvetica,sans-Serif" font-size="10.00">leanux::system::getUserName</text>
</a>
</g>
</g>
<!-- Node1&#45;&gt;Node4 -->
<g id="edge3" class="edge">
<title>Node1&#45;&gt;Node4</title>
<path fill="none" stroke="midnightblue" d="M108.43,-44.45C136.15,-37.82 173.29,-28.94 202.92,-21.86"/>
<polygon fill="midnightblue" stroke="midnightblue" points="203.74,-25.26 212.65,-19.53 202.11,-18.45 203.74,-25.26"/>
</g>
</g>
</svg>
