<?xml version="1.0" encoding="UTF-8" standalone="no"?>
<!DOCTYPE svg PUBLIC "-//W3C//DTD SVG 1.1//EN"
 "http://www.w3.org/Graphics/SVG/1.1/DTD/svg11.dtd">
<!-- Generated by graphviz version 2.43.0 (0)
 -->
<!-- Title: leanux::net::getDeviceIP6Addresses Pages: 1 -->
<svg width="502pt" height="127pt"
 viewBox="0.00 0.00 502.00 126.50" xmlns="http://www.w3.org/2000/svg" xmlns:xlink="http://www.w3.org/1999/xlink">
<g id="graph0" class="graph" transform="scale(1 1) rotate(0) translate(4 122.5)">
<title>leanux::net::getDeviceIP6Addresses</title>
<!-- Node1 -->
<g id="node1" class="node">
<title>Node1</title>
<g id="a_node1"><a xlink:title="Get a list of IP6 adresses assigned to the device.">
<polygon fill="#bfbfbf" stroke="black" points="352,-49.5 352,-79.5 494,-79.5 494,-49.5 352,-49.5"/>
<text text-anchor="start" x="360" y="-67.5" font-family="Helvetica,sans-Serif" font-size="10.00">leanux::net::getDeviceIP6</text>
<text text-anchor="middle" x="423" y="-56.5" font-family="Helvetica,sans-Serif" font-size="10.00">Addresses</text>
</a>
</g>
</g>
<!-- Node2 -->
<g id="node2" class="node">
<title>Node2</title>
<g id="a_node2"><a xlink:href="../../d5/db8/namespaceleanux_1_1net.html#a68c41b642109410b979396878c9fec22" target="_top" xlink:title="Return the device name configured with the given ip address.">
<polygon fill="none" stroke="black" points="154,-99 154,-118 303,-118 303,-99 154,-99"/>
<text text-anchor="middle" x="228.5" y="-106" font-family="Helvetica,sans-Serif" font-size="10.00">leanux::net::getDeviceByIP</text>
</a>
</g>
</g>
<!-- Node1&#45;&gt;Node2 -->
<g id="edge1" class="edge">
<title>Node1&#45;&gt;Node2</title>
<path fill="none" stroke="midnightblue" d="M348.94,-81.89C337.91,-84.47 326.66,-87.07 316,-89.5 302.21,-92.64 287.16,-95.98 273.53,-98.97"/>
<polygon fill="midnightblue" stroke="midnightblue" points="350.04,-85.22 358.98,-79.53 348.44,-78.41 350.04,-85.22"/>
</g>
<!-- Node3 -->
<g id="node3" class="node">
<title>Node3</title>
<g id="a_node3"><a xlink:href="../../d9/d1f/namespaceleanux_1_1tools_1_1lsys.html#a4a56050ff78d8c77b6a699ff6d5aea50" target="_top" xlink:title="get named field attributes for the SysDevice.">
<polygon fill="none" stroke="black" points="176,-49.5 176,-79.5 281,-79.5 281,-49.5 176,-49.5"/>
<text text-anchor="start" x="184" y="-67.5" font-family="Helvetica,sans-Serif" font-size="10.00">leanux::tools::lsys</text>
<text text-anchor="middle" x="228.5" y="-56.5" font-family="Helvetica,sans-Serif" font-size="10.00">::getLeafColStr</text>
</a>
</g>
</g>
<!-- Node1&#45;&gt;Node3 -->
<g id="edge2" class="edge">
<title>Node1&#45;&gt;Node3</title>
<path fill="none" stroke="midnightblue" d="M341.96,-64.5C321.38,-64.5 299.78,-64.5 281.08,-64.5"/>
<polygon fill="midnightblue" stroke="midnightblue" points="341.96,-68 351.96,-64.5 341.96,-61 341.96,-68"/>
</g>
<!-- Node8 -->
<g id="node5" class="node">
<title>Node8</title>
<g id="a_node5"><a xlink:href="../../dc/d23/classleanux_1_1sysdevice_1_1NetDevice.html#a1debae3dd366106e7b0f90018c503b9e" target="_top" xlink:title=" ">
<polygon fill="none" stroke="black" points="141,-0.5 141,-30.5 316,-30.5 316,-0.5 141,-0.5"/>
<text text-anchor="start" x="149" y="-18.5" font-family="Helvetica,sans-Serif" font-size="10.00">leanux::sysdevice::</text>
<text text-anchor="middle" x="228.5" y="-7.5" font-family="Helvetica,sans-Serif" font-size="10.00">NetDevice::getPropertyValueList</text>
</a>
</g>
</g>
<!-- Node1&#45;&gt;Node8 -->
<g id="edge4" class="edge">
<title>Node1&#45;&gt;Node8</title>
<path fill="none" stroke="midnightblue" d="M353.05,-46.95C331.92,-41.57 308.86,-35.7 288.45,-30.51"/>
<polygon fill="midnightblue" stroke="midnightblue" points="352.38,-50.39 362.94,-49.47 354.11,-43.61 352.38,-50.39"/>
</g>
<!-- Node4 -->
<g id="node4" class="node">
<title>Node4</title>
<g id="a_node4"><a xlink:href="../../d9/d1f/namespaceleanux_1_1tools_1_1lsys.html#ad858cdc5736e1be415f25fdaec024b58" target="_top" xlink:title="list devices, filtered if opt_t is set.">
<polygon fill="none" stroke="red" points="0,-49.5 0,-79.5 105,-79.5 105,-49.5 0,-49.5"/>
<text text-anchor="start" x="8" y="-67.5" font-family="Helvetica,sans-Serif" font-size="10.00">leanux::tools::lsys</text>
<text text-anchor="middle" x="52.5" y="-56.5" font-family="Helvetica,sans-Serif" font-size="10.00">::listDevices</text>
</a>
</g>
</g>
<!-- Node3&#45;&gt;Node4 -->
<g id="edge3" class="edge">
<title>Node3&#45;&gt;Node4</title>
<path fill="none" stroke="midnightblue" d="M165.6,-64.5C145.77,-64.5 124.04,-64.5 105.04,-64.5"/>
<polygon fill="midnightblue" stroke="midnightblue" points="165.77,-68 175.77,-64.5 165.77,-61 165.77,-68"/>
</g>
</g>
</svg>
