<?xml version="1.0" encoding="UTF-8" standalone="no"?>
<!DOCTYPE svg PUBLIC "-//W3C//DTD SVG 1.1//EN"
 "http://www.w3.org/Graphics/SVG/1.1/DTD/svg11.dtd">
<!-- Generated by graphviz version 2.43.0 (0)
 -->
<!-- Title: tools/lmon/lmon_curses.hpp Pages: 1 -->
<svg width="1399pt" height="308pt"
 viewBox="0.00 0.00 1398.79 308.00" xmlns="http://www.w3.org/2000/svg" xmlns:xlink="http://www.w3.org/1999/xlink">
<g id="graph0" class="graph" transform="scale(1 1) rotate(0) translate(4 304)">
<title>tools/lmon/lmon_curses.hpp</title>
<!-- Node1 -->
<g id="node1" class="node">
<title>Node1</title>
<g id="a_node1"><a xlink:title=" ">
<polygon fill="#bfbfbf" stroke="black" points="775.79,-280.5 775.79,-299.5 929.79,-299.5 929.79,-280.5 775.79,-280.5"/>
<text text-anchor="middle" x="852.79" y="-287.5" font-family="Helvetica,sans-Serif" font-size="10.00">tools/lmon/lmon_curses.hpp</text>
</a>
</g>
</g>
<!-- Node2 -->
<g id="node2" class="node">
<title>Node2</title>
<g id="a_node2"><a xlink:href="../../d9/db2/block_8hpp.html" target="_top" xlink:title=" ">
<polygon fill="none" stroke="black" points="355.79,-112.5 355.79,-131.5 419.79,-131.5 419.79,-112.5 355.79,-112.5"/>
<text text-anchor="middle" x="387.79" y="-119.5" font-family="Helvetica,sans-Serif" font-size="10.00">block.hpp</text>
</a>
</g>
</g>
<!-- Node1&#45;&gt;Node2 -->
<g id="edge1" class="edge">
<title>Node1&#45;&gt;Node2</title>
<path fill="none" stroke="midnightblue" d="M775.63,-287.9C712.68,-284.6 622.58,-274.3 549.79,-244 489,-218.69 430.31,-165.5 403.29,-138.88"/>
<polygon fill="midnightblue" stroke="midnightblue" points="405.5,-136.14 395.95,-131.53 400.54,-141.08 405.5,-136.14"/>
</g>
<!-- Node5 -->
<g id="node5" class="node">
<title>Node5</title>
<g id="a_node5"><a xlink:title=" ">
<polygon fill="none" stroke="#bfbfbf" points="812.79,-56.5 812.79,-75.5 844.79,-75.5 844.79,-56.5 812.79,-56.5"/>
<text text-anchor="middle" x="828.79" y="-63.5" font-family="Helvetica,sans-Serif" font-size="10.00">list</text>
</a>
</g>
</g>
<!-- Node1&#45;&gt;Node5 -->
<g id="edge51" class="edge">
<title>Node1&#45;&gt;Node5</title>
<path fill="none" stroke="midnightblue" d="M848.42,-280.45C836.87,-257.32 805.83,-191.22 796.79,-132 795.45,-123.21 794.09,-120.47 796.79,-112 800.14,-101.54 806.89,-91.43 813.34,-83.45"/>
<polygon fill="midnightblue" stroke="midnightblue" points="816.14,-85.56 820.04,-75.71 810.85,-80.98 816.14,-85.56"/>
</g>
<!-- Node12 -->
<g id="node12" class="node">
<title>Node12</title>
<g id="a_node12"><a xlink:href="../../df/dbe/cpu_8hpp.html" target="_top" xlink:title=" ">
<polygon fill="none" stroke="black" points="438.29,-112.5 438.29,-131.5 493.29,-131.5 493.29,-112.5 438.29,-112.5"/>
<text text-anchor="middle" x="465.79" y="-119.5" font-family="Helvetica,sans-Serif" font-size="10.00">cpu.hpp</text>
</a>
</g>
</g>
<!-- Node1&#45;&gt;Node12 -->
<g id="edge11" class="edge">
<title>Node1&#45;&gt;Node12</title>
<path fill="none" stroke="midnightblue" d="M775.75,-288.57C719.91,-285.36 644.11,-274.88 584.79,-244 536.4,-218.8 495.76,-166.75 476.97,-139.88"/>
<polygon fill="midnightblue" stroke="midnightblue" points="479.79,-137.79 471.26,-131.51 474,-141.74 479.79,-137.79"/>
</g>
<!-- Node13 -->
<g id="node13" class="node">
<title>Node13</title>
<g id="a_node13"><a xlink:href="../../d4/d2d/net_8hpp.html" target="_top" xlink:title=" ">
<polygon fill="none" stroke="black" points="695.29,-112.5 695.29,-131.5 748.29,-131.5 748.29,-112.5 695.29,-112.5"/>
<text text-anchor="middle" x="721.79" y="-119.5" font-family="Helvetica,sans-Serif" font-size="10.00">net.hpp</text>
</a>
</g>
</g>
<!-- Node1&#45;&gt;Node13 -->
<g id="edge15" class="edge">
<title>Node1&#45;&gt;Node13</title>
<path fill="none" stroke="midnightblue" d="M822.3,-280.41C802.83,-273.49 778.41,-261.91 762.79,-244 736.9,-214.29 727.2,-167.52 723.69,-141.69"/>
<polygon fill="midnightblue" stroke="midnightblue" points="727.16,-141.24 722.5,-131.73 720.21,-142.07 727.16,-141.24"/>
</g>
<!-- Node16 -->
<g id="node16" class="node">
<title>Node16</title>
<g id="a_node16"><a xlink:href="../../dd/db4/process_8hpp.html" target="_top" xlink:title=" ">
<polygon fill="none" stroke="black" points="595.29,-112.5 595.29,-131.5 670.29,-131.5 670.29,-112.5 595.29,-112.5"/>
<text text-anchor="middle" x="632.79" y="-119.5" font-family="Helvetica,sans-Serif" font-size="10.00">process.hpp</text>
</a>
</g>
</g>
<!-- Node1&#45;&gt;Node16 -->
<g id="edge24" class="edge">
<title>Node1&#45;&gt;Node16</title>
<path fill="none" stroke="midnightblue" d="M823.41,-280.38C800.91,-272.93 769.77,-260.71 745.79,-244 745.43,-243.75 678.52,-172.03 647.85,-139.14"/>
<polygon fill="midnightblue" stroke="midnightblue" points="650.27,-136.61 640.89,-131.68 645.15,-141.38 650.27,-136.61"/>
</g>
<!-- Node19 -->
<g id="node19" class="node">
<title>Node19</title>
<g id="a_node19"><a xlink:href="../../db/da3/vmem_8hpp.html" target="_top" xlink:title=" ">
<polygon fill="none" stroke="black" points="805.29,-112.5 805.29,-131.5 874.29,-131.5 874.29,-112.5 805.29,-112.5"/>
<text text-anchor="middle" x="839.79" y="-119.5" font-family="Helvetica,sans-Serif" font-size="10.00">vmem.hpp</text>
</a>
</g>
</g>
<!-- Node1&#45;&gt;Node19 -->
<g id="edge32" class="edge">
<title>Node1&#45;&gt;Node19</title>
<path fill="none" stroke="midnightblue" d="M849.19,-280.22C845.74,-271.28 840.76,-256.94 838.79,-244 833.34,-208.12 835.7,-165.57 837.82,-141.69"/>
<polygon fill="midnightblue" stroke="midnightblue" points="841.32,-141.87 838.8,-131.57 834.35,-141.19 841.32,-141.87"/>
</g>
<!-- Node20 -->
<g id="node20" class="node">
<title>Node20</title>
<g id="a_node20"><a xlink:href="../../d3/d27/persist_8hpp.html" target="_top" xlink:title=" ">
<polygon fill="none" stroke="black" points="1013.29,-112.5 1013.29,-131.5 1084.29,-131.5 1084.29,-112.5 1013.29,-112.5"/>
<text text-anchor="middle" x="1048.79" y="-119.5" font-family="Helvetica,sans-Serif" font-size="10.00">persist.hpp</text>
</a>
</g>
</g>
<!-- Node1&#45;&gt;Node20 -->
<g id="edge35" class="edge">
<title>Node1&#45;&gt;Node20</title>
<path fill="none" stroke="midnightblue" d="M853.43,-280.49C854.83,-267.13 859.23,-240.97 872.79,-224 909.08,-178.58 971.72,-149.75 1011.65,-134.99"/>
<polygon fill="midnightblue" stroke="midnightblue" points="1013.05,-138.21 1021.29,-131.54 1010.69,-131.62 1013.05,-138.21"/>
</g>
<!-- Node22 -->
<g id="node22" class="node">
<title>Node22</title>
<g id="a_node22"><a xlink:href="../../dd/d86/realtime_8hpp.html" target="_top" xlink:title=" ">
<polygon fill="none" stroke="black" points="593.29,-224.5 593.29,-243.5 672.29,-243.5 672.29,-224.5 593.29,-224.5"/>
<text text-anchor="middle" x="632.79" y="-231.5" font-family="Helvetica,sans-Serif" font-size="10.00">realtime.hpp</text>
</a>
</g>
</g>
<!-- Node1&#45;&gt;Node22 -->
<g id="edge39" class="edge">
<title>Node1&#45;&gt;Node22</title>
<path fill="none" stroke="midnightblue" d="M817.94,-280.44C779.88,-271.1 718.84,-256.12 677.33,-245.93"/>
<polygon fill="midnightblue" stroke="midnightblue" points="678.04,-242.5 667.49,-243.52 676.37,-249.3 678.04,-242.5"/>
</g>
<!-- Node24 -->
<g id="node24" class="node">
<title>Node24</title>
<g id="a_node24"><a xlink:title=" ">
<polygon fill="none" stroke="#bfbfbf" points="881.29,-224.5 881.29,-243.5 944.29,-243.5 944.29,-224.5 881.29,-224.5"/>
<text text-anchor="middle" x="912.79" y="-231.5" font-family="Helvetica,sans-Serif" font-size="10.00">ncurses.h</text>
</a>
</g>
</g>
<!-- Node1&#45;&gt;Node24 -->
<g id="edge46" class="edge">
<title>Node1&#45;&gt;Node24</title>
<path fill="none" stroke="midnightblue" d="M862.43,-280.32C871.3,-272.34 884.67,-260.31 895.4,-250.65"/>
<polygon fill="midnightblue" stroke="midnightblue" points="897.89,-253.13 902.98,-243.83 893.21,-247.92 897.89,-253.13"/>
</g>
<!-- Node25 -->
<g id="node25" class="node">
<title>Node25</title>
<g id="a_node25"><a xlink:title=" ">
<polygon fill="none" stroke="#bfbfbf" points="962.79,-224.5 962.79,-243.5 1028.79,-243.5 1028.79,-224.5 962.79,-224.5"/>
<text text-anchor="middle" x="995.79" y="-231.5" font-family="Helvetica,sans-Serif" font-size="10.00">sys/ioctl.h</text>
</a>
</g>
</g>
<!-- Node1&#45;&gt;Node25 -->
<g id="edge47" class="edge">
<title>Node1&#45;&gt;Node25</title>
<path fill="none" stroke="midnightblue" d="M875.45,-280.44C899.2,-271.48 936.7,-257.31 963.53,-247.18"/>
<polygon fill="midnightblue" stroke="midnightblue" points="965.12,-250.32 973.24,-243.52 962.65,-243.77 965.12,-250.32"/>
</g>
<!-- Node26 -->
<g id="node26" class="node">
<title>Node26</title>
<g id="a_node26"><a xlink:title=" ">
<polygon fill="none" stroke="#bfbfbf" points="1046.79,-224.5 1046.79,-243.5 1114.79,-243.5 1114.79,-224.5 1046.79,-224.5"/>
<text text-anchor="middle" x="1080.79" y="-231.5" font-family="Helvetica,sans-Serif" font-size="10.00">sys/time.h</text>
</a>
</g>
</g>
<!-- Node1&#45;&gt;Node26 -->
<g id="edge48" class="edge">
<title>Node1&#45;&gt;Node26</title>
<path fill="none" stroke="midnightblue" d="M888.92,-280.44C929.03,-270.94 993.76,-255.61 1036.79,-245.42"/>
<polygon fill="midnightblue" stroke="midnightblue" points="1037.77,-248.79 1046.7,-243.08 1036.16,-241.97 1037.77,-248.79"/>
</g>
<!-- Node27 -->
<g id="node27" class="node">
<title>Node27</title>
<g id="a_node27"><a xlink:title=" ">
<polygon fill="none" stroke="#bfbfbf" points="1132.79,-224.5 1132.79,-243.5 1176.79,-243.5 1176.79,-224.5 1132.79,-224.5"/>
<text text-anchor="middle" x="1154.79" y="-231.5" font-family="Helvetica,sans-Serif" font-size="10.00">poll.h</text>
</a>
</g>
</g>
<!-- Node1&#45;&gt;Node27 -->
<g id="edge49" class="edge">
<title>Node1&#45;&gt;Node27</title>
<path fill="none" stroke="midnightblue" d="M917.27,-280.48C970.07,-273 1046.86,-261 1122.37,-244.11"/>
<polygon fill="midnightblue" stroke="midnightblue" points="1123.55,-247.43 1132.53,-241.81 1122,-240.6 1123.55,-247.43"/>
</g>
<!-- Node28 -->
<g id="node28" class="node">
<title>Node28</title>
<g id="a_node28"><a xlink:title=" ">
<polygon fill="none" stroke="#bfbfbf" points="1194.79,-224.5 1194.79,-243.5 1250.79,-243.5 1250.79,-224.5 1194.79,-224.5"/>
<text text-anchor="middle" x="1222.79" y="-231.5" font-family="Helvetica,sans-Serif" font-size="10.00">iomanip</text>
</a>
</g>
</g>
<!-- Node1&#45;&gt;Node28 -->
<g id="edge50" class="edge">
<title>Node1&#45;&gt;Node28</title>
<path fill="none" stroke="midnightblue" d="M929.87,-280.89C995.29,-273.48 1091.79,-261.31 1184.73,-244.04"/>
<polygon fill="midnightblue" stroke="midnightblue" points="1185.4,-247.47 1194.58,-242.18 1184.1,-240.59 1185.4,-247.47"/>
</g>
<!-- Node29 -->
<g id="node29" class="node">
<title>Node29</title>
<g id="a_node29"><a xlink:title=" ">
<polygon fill="none" stroke="#bfbfbf" points="1269.29,-224.5 1269.29,-243.5 1316.29,-243.5 1316.29,-224.5 1269.29,-224.5"/>
<text text-anchor="middle" x="1292.79" y="-231.5" font-family="Helvetica,sans-Serif" font-size="10.00">queue</text>
</a>
</g>
</g>
<!-- Node1&#45;&gt;Node29 -->
<g id="edge52" class="edge">
<title>Node1&#45;&gt;Node29</title>
<path fill="none" stroke="midnightblue" d="M929.84,-284.08C1009.84,-278.16 1138.68,-266.35 1258.98,-243.86"/>
<polygon fill="midnightblue" stroke="midnightblue" points="1259.93,-247.24 1269.11,-241.94 1258.63,-240.36 1259.93,-247.24"/>
</g>
<!-- Node30 -->
<g id="node30" class="node">
<title>Node30</title>
<g id="a_node30"><a xlink:title=" ">
<polygon fill="none" stroke="#bfbfbf" points="1334.79,-224.5 1334.79,-243.5 1390.79,-243.5 1390.79,-224.5 1334.79,-224.5"/>
<text text-anchor="middle" x="1362.79" y="-231.5" font-family="Helvetica,sans-Serif" font-size="10.00">sstream</text>
</a>
</g>
</g>
<!-- Node1&#45;&gt;Node30 -->
<g id="edge53" class="edge">
<title>Node1&#45;&gt;Node30</title>
<path fill="none" stroke="midnightblue" d="M929.84,-285.08C1021.71,-279.64 1180,-267.85 1324.65,-243.97"/>
<polygon fill="midnightblue" stroke="midnightblue" points="1325.32,-247.4 1334.6,-242.3 1324.16,-240.5 1325.32,-247.4"/>
</g>
<!-- Node3 -->
<g id="node3" class="node">
<title>Node3</title>
<g id="a_node3"><a xlink:title=" ">
<polygon fill="none" stroke="#bfbfbf" points="762.79,-0.5 762.79,-19.5 806.79,-19.5 806.79,-0.5 762.79,-0.5"/>
<text text-anchor="middle" x="784.79" y="-7.5" font-family="Helvetica,sans-Serif" font-size="10.00">string</text>
</a>
</g>
</g>
<!-- Node2&#45;&gt;Node3 -->
<g id="edge2" class="edge">
<title>Node2&#45;&gt;Node3</title>
<path fill="none" stroke="midnightblue" d="M355.63,-120.54C255.12,-118.55 -43.5,-108.22 5.79,-56 31.82,-28.43 608.3,-14.66 752.38,-11.64"/>
<polygon fill="midnightblue" stroke="midnightblue" points="752.82,-15.14 762.75,-11.43 752.67,-8.14 752.82,-15.14"/>
</g>
<!-- Node4 -->
<g id="node4" class="node">
<title>Node4</title>
<g id="a_node4"><a xlink:title=" ">
<polygon fill="none" stroke="#bfbfbf" points="431.29,-56.5 431.29,-75.5 488.29,-75.5 488.29,-56.5 431.29,-56.5"/>
<text text-anchor="middle" x="459.79" y="-63.5" font-family="Helvetica,sans-Serif" font-size="10.00">ostream</text>
</a>
</g>
</g>
<!-- Node2&#45;&gt;Node4 -->
<g id="edge3" class="edge">
<title>Node2&#45;&gt;Node4</title>
<path fill="none" stroke="midnightblue" d="M399.36,-112.32C410.22,-104.18 426.68,-91.84 439.68,-82.09"/>
<polygon fill="midnightblue" stroke="midnightblue" points="442.12,-84.63 448.02,-75.83 437.92,-79.03 442.12,-84.63"/>
</g>
<!-- Node2&#45;&gt;Node5 -->
<g id="edge4" class="edge">
<title>Node2&#45;&gt;Node5</title>
<path fill="none" stroke="midnightblue" d="M419.96,-113.59C422.94,-113.01 425.92,-112.47 428.79,-112 577.47,-87.82 616.32,-94.65 765.79,-76 777.92,-74.49 791.34,-72.6 802.66,-70.95"/>
<polygon fill="midnightblue" stroke="midnightblue" points="803.38,-74.38 812.76,-69.45 802.36,-67.45 803.38,-74.38"/>
</g>
<!-- Node6 -->
<g id="node6" class="node">
<title>Node6</title>
<g id="a_node6"><a xlink:title=" ">
<polygon fill="none" stroke="#bfbfbf" points="374.79,-56.5 374.79,-75.5 412.79,-75.5 412.79,-56.5 374.79,-56.5"/>
<text text-anchor="middle" x="393.79" y="-63.5" font-family="Helvetica,sans-Serif" font-size="10.00">map</text>
</a>
</g>
</g>
<!-- Node2&#45;&gt;Node6 -->
<g id="edge5" class="edge">
<title>Node2&#45;&gt;Node6</title>
<path fill="none" stroke="midnightblue" d="M388.79,-112.08C389.58,-104.93 390.72,-94.64 391.72,-85.69"/>
<polygon fill="midnightblue" stroke="midnightblue" points="395.2,-86.08 392.82,-75.75 388.24,-85.3 395.2,-86.08"/>
</g>
<!-- Node7 -->
<g id="node7" class="node">
<title>Node7</title>
<g id="a_node7"><a xlink:title=" ">
<polygon fill="none" stroke="#bfbfbf" points="709.29,-56.5 709.29,-75.5 756.29,-75.5 756.29,-56.5 709.29,-56.5"/>
<text text-anchor="middle" x="732.79" y="-63.5" font-family="Helvetica,sans-Serif" font-size="10.00">vector</text>
</a>
</g>
</g>
<!-- Node2&#45;&gt;Node7 -->
<g id="edge6" class="edge">
<title>Node2&#45;&gt;Node7</title>
<path fill="none" stroke="midnightblue" d="M419.97,-113.67C422.95,-113.07 425.92,-112.5 428.79,-112 545.31,-91.51 578.93,-99.58 699.13,-75.87"/>
<polygon fill="midnightblue" stroke="midnightblue" points="699.98,-79.27 709.09,-73.87 698.6,-72.41 699.98,-79.27"/>
</g>
<!-- Node8 -->
<g id="node8" class="node">
<title>Node8</title>
<g id="a_node8"><a xlink:title=" ">
<polygon fill="none" stroke="#bfbfbf" points="14.79,-56.5 14.79,-75.5 74.79,-75.5 74.79,-56.5 14.79,-56.5"/>
<text text-anchor="middle" x="44.79" y="-63.5" font-family="Helvetica,sans-Serif" font-size="10.00">iostream</text>
</a>
</g>
</g>
<!-- Node2&#45;&gt;Node8 -->
<g id="edge7" class="edge">
<title>Node2&#45;&gt;Node8</title>
<path fill="none" stroke="midnightblue" d="M355.7,-117.11C301.84,-110.39 189.65,-95.6 85.07,-76.12"/>
<polygon fill="midnightblue" stroke="midnightblue" points="85.45,-72.63 74.98,-74.22 84.16,-79.51 85.45,-72.63"/>
</g>
<!-- Node9 -->
<g id="node9" class="node">
<title>Node9</title>
<g id="a_node9"><a xlink:title=" ">
<polygon fill="none" stroke="#bfbfbf" points="93.29,-56.5 93.29,-75.5 146.29,-75.5 146.29,-56.5 93.29,-56.5"/>
<text text-anchor="middle" x="119.79" y="-63.5" font-family="Helvetica,sans-Serif" font-size="10.00">stdlib.h</text>
</a>
</g>
</g>
<!-- Node2&#45;&gt;Node9 -->
<g id="edge8" class="edge">
<title>Node2&#45;&gt;Node9</title>
<path fill="none" stroke="midnightblue" d="M355.79,-115.35C312.77,-107.64 233.72,-93.03 156.4,-76.04"/>
<polygon fill="midnightblue" stroke="midnightblue" points="157.01,-72.59 146.49,-73.84 155.5,-79.42 157.01,-72.59"/>
</g>
<!-- Node10 -->
<g id="node10" class="node">
<title>Node10</title>
<g id="a_node10"><a xlink:title=" ">
<polygon fill="none" stroke="#bfbfbf" points="164.79,-56.5 164.79,-75.5 250.79,-75.5 250.79,-56.5 164.79,-56.5"/>
<text text-anchor="middle" x="207.79" y="-63.5" font-family="Helvetica,sans-Serif" font-size="10.00">linux/kdev_t.h</text>
</a>
</g>
</g>
<!-- Node2&#45;&gt;Node10 -->
<g id="edge9" class="edge">
<title>Node2&#45;&gt;Node10</title>
<path fill="none" stroke="midnightblue" d="M359.27,-112.44C328.73,-103.28 280.09,-88.69 246.19,-78.52"/>
<polygon fill="midnightblue" stroke="midnightblue" points="246.77,-75.04 236.18,-75.52 244.76,-81.74 246.77,-75.04"/>
</g>
<!-- Node11 -->
<g id="node11" class="node">
<title>Node11</title>
<g id="a_node11"><a xlink:title=" ">
<polygon fill="none" stroke="#bfbfbf" points="268.79,-56.5 268.79,-75.5 318.79,-75.5 318.79,-56.5 268.79,-56.5"/>
<text text-anchor="middle" x="293.79" y="-63.5" font-family="Helvetica,sans-Serif" font-size="10.00">stdio.h</text>
</a>
</g>
</g>
<!-- Node2&#45;&gt;Node11 -->
<g id="edge10" class="edge">
<title>Node2&#45;&gt;Node11</title>
<path fill="none" stroke="midnightblue" d="M372.69,-112.32C357.89,-103.82 335.1,-90.73 317.81,-80.8"/>
<polygon fill="midnightblue" stroke="midnightblue" points="319.27,-77.6 308.86,-75.65 315.79,-83.67 319.27,-77.6"/>
</g>
<!-- Node12&#45;&gt;Node3 -->
<g id="edge12" class="edge">
<title>Node12&#45;&gt;Node3</title>
<path fill="none" stroke="midnightblue" d="M438,-114.55C400.44,-104.6 340.89,-83.73 365.79,-56 391.57,-27.31 659.18,-15.35 752.73,-12.03"/>
<polygon fill="midnightblue" stroke="midnightblue" points="752.87,-15.52 762.74,-11.68 752.63,-8.53 752.87,-15.52"/>
</g>
<!-- Node12&#45;&gt;Node4 -->
<g id="edge13" class="edge">
<title>Node12&#45;&gt;Node4</title>
<path fill="none" stroke="midnightblue" d="M464.8,-112.08C464.01,-104.93 462.87,-94.64 461.87,-85.69"/>
<polygon fill="midnightblue" stroke="midnightblue" points="465.35,-85.3 460.77,-75.75 458.39,-86.08 465.35,-85.3"/>
</g>
<!-- Node12&#45;&gt;Node6 -->
<g id="edge14" class="edge">
<title>Node12&#45;&gt;Node6</title>
<path fill="none" stroke="midnightblue" d="M454.23,-112.32C443.37,-104.18 426.91,-91.84 413.91,-82.09"/>
<polygon fill="midnightblue" stroke="midnightblue" points="415.67,-79.03 405.57,-75.83 411.47,-84.63 415.67,-79.03"/>
</g>
<!-- Node13&#45;&gt;Node3 -->
<g id="edge18" class="edge">
<title>Node13&#45;&gt;Node3</title>
<path fill="none" stroke="midnightblue" d="M733.14,-112.18C743.1,-103.86 757.3,-90.52 765.79,-76 774.24,-61.57 779.16,-43.12 781.87,-29.56"/>
<polygon fill="midnightblue" stroke="midnightblue" points="785.35,-29.98 783.66,-19.52 778.46,-28.76 785.35,-29.98"/>
</g>
<!-- Node13&#45;&gt;Node4 -->
<g id="edge19" class="edge">
<title>Node13&#45;&gt;Node4</title>
<path fill="none" stroke="midnightblue" d="M695.15,-115.22C690.05,-114.14 684.76,-113.02 679.79,-112 602.19,-96.01 580.08,-93.67 498.64,-76.11"/>
<polygon fill="midnightblue" stroke="midnightblue" points="498.92,-72.59 488.4,-73.9 497.43,-79.44 498.92,-72.59"/>
</g>
<!-- Node13&#45;&gt;Node5 -->
<g id="edge20" class="edge">
<title>Node13&#45;&gt;Node5</title>
<path fill="none" stroke="midnightblue" d="M738.99,-112.32C756.45,-103.51 783.69,-89.76 803.59,-79.72"/>
<polygon fill="midnightblue" stroke="midnightblue" points="805.35,-82.75 812.7,-75.12 802.19,-76.51 805.35,-82.75"/>
</g>
<!-- Node13&#45;&gt;Node6 -->
<g id="edge21" class="edge">
<title>Node13&#45;&gt;Node6</title>
<path fill="none" stroke="midnightblue" d="M695.19,-115C690.09,-113.93 684.79,-112.88 679.79,-112 568.9,-92.41 536.42,-101.29 422.74,-75.87"/>
<polygon fill="midnightblue" stroke="midnightblue" points="423.48,-72.45 412.95,-73.64 421.93,-79.27 423.48,-72.45"/>
</g>
<!-- Node13&#45;&gt;Node7 -->
<g id="edge22" class="edge">
<title>Node13&#45;&gt;Node7</title>
<path fill="none" stroke="midnightblue" d="M723.61,-112.08C725.07,-104.93 727.17,-94.64 728.99,-85.69"/>
<polygon fill="midnightblue" stroke="midnightblue" points="732.45,-86.25 731.01,-75.75 725.59,-84.85 732.45,-86.25"/>
</g>
<!-- Node14 -->
<g id="node14" class="node">
<title>Node14</title>
<g id="a_node14"><a xlink:href="../../d3/d44/oops_8hpp.html" target="_top" xlink:title=" ">
<polygon fill="none" stroke="black" points="989.29,-56.5 989.29,-75.5 1050.29,-75.5 1050.29,-56.5 989.29,-56.5"/>
<text text-anchor="middle" x="1019.79" y="-63.5" font-family="Helvetica,sans-Serif" font-size="10.00">oops.hpp</text>
</a>
</g>
</g>
<!-- Node13&#45;&gt;Node14 -->
<g id="edge16" class="edge">
<title>Node13&#45;&gt;Node14</title>
<path fill="none" stroke="midnightblue" d="M748.5,-116.16C800.77,-106.69 916.85,-85.65 978.87,-74.42"/>
<polygon fill="midnightblue" stroke="midnightblue" points="979.85,-77.8 989.07,-72.57 978.6,-70.91 979.85,-77.8"/>
</g>
<!-- Node15 -->
<g id="node15" class="node">
<title>Node15</title>
<g id="a_node15"><a xlink:title=" ">
<polygon fill="none" stroke="#bfbfbf" points="863.29,-56.5 863.29,-75.5 932.29,-75.5 932.29,-56.5 863.29,-56.5"/>
<text text-anchor="middle" x="897.79" y="-63.5" font-family="Helvetica,sans-Serif" font-size="10.00">arpa/inet.h</text>
</a>
</g>
</g>
<!-- Node13&#45;&gt;Node15 -->
<g id="edge23" class="edge">
<title>Node13&#45;&gt;Node15</title>
<path fill="none" stroke="midnightblue" d="M748.53,-112.8C778.24,-103.68 826.47,-88.88 860.03,-78.59"/>
<polygon fill="midnightblue" stroke="midnightblue" points="861.41,-81.83 869.94,-75.55 859.35,-75.13 861.41,-81.83"/>
</g>
<!-- Node14&#45;&gt;Node3 -->
<g id="edge17" class="edge">
<title>Node14&#45;&gt;Node3</title>
<path fill="none" stroke="midnightblue" d="M989.07,-57.94C944.52,-47.7 862.36,-28.82 816.99,-18.4"/>
<polygon fill="midnightblue" stroke="midnightblue" points="817.62,-14.95 807.1,-16.12 816.06,-21.77 817.62,-14.95"/>
</g>
<!-- Node16&#45;&gt;Node3 -->
<g id="edge25" class="edge">
<title>Node16&#45;&gt;Node3</title>
<path fill="none" stroke="midnightblue" d="M628.46,-112.42C622.33,-98.95 613.2,-72.66 625.79,-56 641.07,-35.8 710.89,-22.06 752.76,-15.48"/>
<polygon fill="midnightblue" stroke="midnightblue" points="753.4,-18.92 762.76,-13.96 752.34,-12 753.4,-18.92"/>
</g>
<!-- Node16&#45;&gt;Node4 -->
<g id="edge26" class="edge">
<title>Node16&#45;&gt;Node4</title>
<path fill="none" stroke="midnightblue" d="M605.38,-112.44C576.03,-103.28 529.28,-88.69 496.7,-78.52"/>
<polygon fill="midnightblue" stroke="midnightblue" points="497.67,-75.16 487.08,-75.52 495.58,-81.84 497.67,-75.16"/>
</g>
<!-- Node16&#45;&gt;Node5 -->
<g id="edge28" class="edge">
<title>Node16&#45;&gt;Node5</title>
<path fill="none" stroke="midnightblue" d="M663.85,-112.44C702.27,-101.86 766.97,-84.03 802.85,-74.15"/>
<polygon fill="midnightblue" stroke="midnightblue" points="803.87,-77.5 812.58,-71.47 802.01,-70.75 803.87,-77.5"/>
</g>
<!-- Node16&#45;&gt;Node6 -->
<g id="edge27" class="edge">
<title>Node16&#45;&gt;Node6</title>
<path fill="none" stroke="midnightblue" d="M595.17,-114.16C554.74,-106.56 488.46,-93.33 422.69,-76.04"/>
<polygon fill="midnightblue" stroke="midnightblue" points="423.56,-72.64 413,-73.45 421.76,-79.41 423.56,-72.64"/>
</g>
<!-- Node16&#45;&gt;Node7 -->
<g id="edge29" class="edge">
<title>Node16&#45;&gt;Node7</title>
<path fill="none" stroke="midnightblue" d="M648.86,-112.32C664.75,-103.74 689.3,-90.49 707.75,-80.52"/>
<polygon fill="midnightblue" stroke="midnightblue" points="709.63,-83.49 716.77,-75.65 706.31,-77.33 709.63,-83.49"/>
</g>
<!-- Node17 -->
<g id="node17" class="node">
<title>Node17</title>
<g id="a_node17"><a xlink:title=" ">
<polygon fill="none" stroke="#bfbfbf" points="634.79,-56.5 634.79,-75.5 690.79,-75.5 690.79,-56.5 634.79,-56.5"/>
<text text-anchor="middle" x="662.79" y="-63.5" font-family="Helvetica,sans-Serif" font-size="10.00">unistd.h</text>
</a>
</g>
</g>
<!-- Node16&#45;&gt;Node17 -->
<g id="edge30" class="edge">
<title>Node16&#45;&gt;Node17</title>
<path fill="none" stroke="midnightblue" d="M637.75,-112.08C641.9,-104.61 647.95,-93.72 653.06,-84.52"/>
<polygon fill="midnightblue" stroke="midnightblue" points="656.14,-86.19 657.93,-75.75 650.02,-82.79 656.14,-86.19"/>
</g>
<!-- Node18 -->
<g id="node18" class="node">
<title>Node18</title>
<g id="a_node18"><a xlink:title=" ">
<polygon fill="none" stroke="#bfbfbf" points="506.79,-56.5 506.79,-75.5 578.79,-75.5 578.79,-56.5 506.79,-56.5"/>
<text text-anchor="middle" x="542.79" y="-63.5" font-family="Helvetica,sans-Serif" font-size="10.00">sys/types.h</text>
</a>
</g>
</g>
<!-- Node16&#45;&gt;Node18 -->
<g id="edge31" class="edge">
<title>Node16&#45;&gt;Node18</title>
<path fill="none" stroke="midnightblue" d="M618.33,-112.32C604.3,-103.9 582.75,-90.97 566.25,-81.07"/>
<polygon fill="midnightblue" stroke="midnightblue" points="567.59,-77.8 557.22,-75.65 563.99,-83.8 567.59,-77.8"/>
</g>
<!-- Node19&#45;&gt;Node3 -->
<g id="edge33" class="edge">
<title>Node19&#45;&gt;Node3</title>
<path fill="none" stroke="midnightblue" d="M874.53,-113.4C911.86,-103.59 963.15,-84.34 941.79,-56 926.77,-36.06 858.14,-22.26 816.75,-15.59"/>
<polygon fill="midnightblue" stroke="midnightblue" points="817.29,-12.13 806.87,-14.05 816.21,-19.05 817.29,-12.13"/>
</g>
<!-- Node19&#45;&gt;Node5 -->
<g id="edge34" class="edge">
<title>Node19&#45;&gt;Node5</title>
<path fill="none" stroke="midnightblue" d="M837.98,-112.08C836.52,-104.93 834.42,-94.64 832.6,-85.69"/>
<polygon fill="midnightblue" stroke="midnightblue" points="836,-84.85 830.58,-75.75 829.14,-86.25 836,-84.85"/>
</g>
<!-- Node20&#45;&gt;Node3 -->
<g id="edge37" class="edge">
<title>Node20&#45;&gt;Node3</title>
<path fill="none" stroke="midnightblue" d="M1054.15,-112.28C1061.78,-98.61 1073.43,-72.05 1059.79,-56 1029.01,-19.77 883.38,-12.65 817.41,-11.29"/>
<polygon fill="midnightblue" stroke="midnightblue" points="817.23,-7.79 807.17,-11.11 817.1,-14.79 817.23,-7.79"/>
</g>
<!-- Node20&#45;&gt;Node14 -->
<g id="edge36" class="edge">
<title>Node20&#45;&gt;Node14</title>
<path fill="none" stroke="midnightblue" d="M1044.01,-112.08C1040.04,-104.69 1034.27,-93.95 1029.36,-84.81"/>
<polygon fill="midnightblue" stroke="midnightblue" points="1032.31,-82.91 1024.49,-75.75 1026.14,-86.22 1032.31,-82.91"/>
</g>
<!-- Node21 -->
<g id="node21" class="node">
<title>Node21</title>
<g id="a_node21"><a xlink:title=" ">
<polygon fill="none" stroke="#bfbfbf" points="1107.29,-56.5 1107.29,-75.5 1166.29,-75.5 1166.29,-56.5 1107.29,-56.5"/>
<text text-anchor="middle" x="1136.79" y="-63.5" font-family="Helvetica,sans-Serif" font-size="10.00">sqlite3.h</text>
</a>
</g>
</g>
<!-- Node20&#45;&gt;Node21 -->
<g id="edge38" class="edge">
<title>Node20&#45;&gt;Node21</title>
<path fill="none" stroke="midnightblue" d="M1062.93,-112.32C1076.66,-103.9 1097.73,-90.97 1113.86,-81.07"/>
<polygon fill="midnightblue" stroke="midnightblue" points="1116,-83.87 1122.69,-75.65 1112.34,-77.9 1116,-83.87"/>
</g>
<!-- Node23 -->
<g id="node23" class="node">
<title>Node23</title>
<g id="a_node23"><a xlink:href="../../df/d77/xdata_8hpp.html" target="_top" xlink:title=" ">
<polygon fill="none" stroke="black" points="600.29,-168.5 600.29,-187.5 665.29,-187.5 665.29,-168.5 600.29,-168.5"/>
<text text-anchor="middle" x="632.79" y="-175.5" font-family="Helvetica,sans-Serif" font-size="10.00">xdata.hpp</text>
</a>
</g>
</g>
<!-- Node22&#45;&gt;Node23 -->
<g id="edge40" class="edge">
<title>Node22&#45;&gt;Node23</title>
<path fill="none" stroke="midnightblue" d="M632.79,-224.08C632.79,-217.01 632.79,-206.86 632.79,-197.99"/>
<polygon fill="midnightblue" stroke="midnightblue" points="636.3,-197.75 632.79,-187.75 629.3,-197.75 636.3,-197.75"/>
</g>
<!-- Node23&#45;&gt;Node2 -->
<g id="edge41" class="edge">
<title>Node23&#45;&gt;Node2</title>
<path fill="none" stroke="midnightblue" d="M600.26,-169.83C556.39,-160.16 478.21,-142.93 429.91,-132.28"/>
<polygon fill="midnightblue" stroke="midnightblue" points="430.59,-128.85 420.07,-130.11 429.09,-135.68 430.59,-128.85"/>
</g>
<!-- Node23&#45;&gt;Node12 -->
<g id="edge42" class="edge">
<title>Node23&#45;&gt;Node12</title>
<path fill="none" stroke="midnightblue" d="M606.33,-168.44C578.12,-159.32 533.25,-144.81 501.83,-134.65"/>
<polygon fill="midnightblue" stroke="midnightblue" points="502.72,-131.26 492.13,-131.52 500.57,-137.92 502.72,-131.26"/>
</g>
<!-- Node23&#45;&gt;Node13 -->
<g id="edge43" class="edge">
<title>Node23&#45;&gt;Node13</title>
<path fill="none" stroke="midnightblue" d="M647.09,-168.32C660.98,-159.9 682.29,-146.97 698.6,-137.07"/>
<polygon fill="midnightblue" stroke="midnightblue" points="700.8,-139.83 707.53,-131.65 697.17,-133.85 700.8,-139.83"/>
</g>
<!-- Node23&#45;&gt;Node16 -->
<g id="edge44" class="edge">
<title>Node23&#45;&gt;Node16</title>
<path fill="none" stroke="midnightblue" d="M632.79,-168.08C632.79,-161.01 632.79,-150.86 632.79,-141.99"/>
<polygon fill="midnightblue" stroke="midnightblue" points="636.3,-141.75 632.79,-131.75 629.3,-141.75 636.3,-141.75"/>
</g>
<!-- Node23&#45;&gt;Node19 -->
<g id="edge45" class="edge">
<title>Node23&#45;&gt;Node19</title>
<path fill="none" stroke="midnightblue" d="M665.59,-168.44C701.18,-159.16 758.11,-144.31 797.14,-134.13"/>
<polygon fill="midnightblue" stroke="midnightblue" points="798.36,-137.43 807.15,-131.52 796.59,-130.65 798.36,-137.43"/>
</g>
</g>
</svg>
