<?xml version="1.0" encoding="UTF-8" standalone="no"?>
<!DOCTYPE svg PUBLIC "-//W3C//DTD SVG 1.1//EN"
 "http://www.w3.org/Graphics/SVG/1.1/DTD/svg11.dtd">
<!-- Generated by graphviz version 2.43.0 (0)
 -->
<!-- Title: leanux::persist::Statement Pages: 1 -->
<svg width="262pt" height="140pt"
 viewBox="0.00 0.00 261.50 140.00" xmlns="http://www.w3.org/2000/svg" xmlns:xlink="http://www.w3.org/1999/xlink">
<g id="graph0" class="graph" transform="scale(1 1) rotate(0) translate(4 136)">
<title>leanux::persist::Statement</title>
<!-- Node1 -->
<g id="node1" class="node">
<title>Node1</title>
<g id="a_node1"><a xlink:title="Generic SQL Statement.">
<polygon fill="#bfbfbf" stroke="black" points="51.5,-112.5 51.5,-131.5 197.5,-131.5 197.5,-112.5 51.5,-112.5"/>
<text text-anchor="middle" x="124.5" y="-119.5" font-family="Helvetica,sans-Serif" font-size="10.00">leanux::persist::Statement</text>
</a>
</g>
</g>
<!-- Node2 -->
<g id="node2" class="node">
<title>Node2</title>
<g id="a_node2"><a xlink:href="../../dc/d43/classleanux_1_1persist_1_1DDL.html" target="_top" xlink:title="Data Definition Language, SQL that takes no parameters, returns no data such as CREATE TABLE.">
<polygon fill="none" stroke="black" points="0,-56.5 0,-75.5 115,-75.5 115,-56.5 0,-56.5"/>
<text text-anchor="middle" x="57.5" y="-63.5" font-family="Helvetica,sans-Serif" font-size="10.00">leanux::persist::DDL</text>
</a>
</g>
</g>
<!-- Node1&#45;&gt;Node2 -->
<g id="edge1" class="edge">
<title>Node1&#45;&gt;Node2</title>
<path fill="none" stroke="midnightblue" d="M105.67,-105.82C93.66,-96.15 78.53,-83.95 68.46,-75.83"/>
<polygon fill="midnightblue" stroke="midnightblue" points="103.75,-108.77 113.74,-112.32 108.15,-103.32 103.75,-108.77"/>
</g>
<!-- Node3 -->
<g id="node3" class="node">
<title>Node3</title>
<g id="a_node3"><a xlink:href="../../d9/d78/classleanux_1_1persist_1_1DML.html" target="_top" xlink:title="Data Modification Language statements can take bind values.">
<polygon fill="none" stroke="black" points="133.5,-56.5 133.5,-75.5 249.5,-75.5 249.5,-56.5 133.5,-56.5"/>
<text text-anchor="middle" x="191.5" y="-63.5" font-family="Helvetica,sans-Serif" font-size="10.00">leanux::persist::DML</text>
</a>
</g>
</g>
<!-- Node1&#45;&gt;Node3 -->
<g id="edge2" class="edge">
<title>Node1&#45;&gt;Node3</title>
<path fill="none" stroke="midnightblue" d="M143.33,-105.82C155.34,-96.15 170.47,-83.95 180.54,-75.83"/>
<polygon fill="midnightblue" stroke="midnightblue" points="140.85,-103.32 135.26,-112.32 145.25,-108.77 140.85,-103.32"/>
</g>
<!-- Node4 -->
<g id="node4" class="node">
<title>Node4</title>
<g id="a_node4"><a xlink:href="../../d4/d2c/classleanux_1_1persist_1_1Query.html" target="_top" xlink:title="Queries can take bind values and return select lists.">
<polygon fill="none" stroke="black" points="129.5,-0.5 129.5,-19.5 253.5,-19.5 253.5,-0.5 129.5,-0.5"/>
<text text-anchor="middle" x="191.5" y="-7.5" font-family="Helvetica,sans-Serif" font-size="10.00">leanux::persist::Query</text>
</a>
</g>
</g>
<!-- Node3&#45;&gt;Node4 -->
<g id="edge3" class="edge">
<title>Node3&#45;&gt;Node4</title>
<path fill="none" stroke="midnightblue" d="M191.5,-45.8C191.5,-36.91 191.5,-26.78 191.5,-19.75"/>
<polygon fill="midnightblue" stroke="midnightblue" points="188,-46.08 191.5,-56.08 195,-46.08 188,-46.08"/>
</g>
</g>
</svg>
