<?xml version="1.0" encoding="UTF-8" standalone="no"?>
<!DOCTYPE svg PUBLIC "-//W3C//DTD SVG 1.1//EN"
 "http://www.w3.org/Graphics/SVG/1.1/DTD/svg11.dtd">
<!-- Generated by graphviz version 2.43.0 (0)
 -->
<!-- Title: leanux::cpu::getCPUTopology Pages: 1 -->
<svg width="584pt" height="88pt"
 viewBox="0.00 0.00 584.00 88.00" xmlns="http://www.w3.org/2000/svg" xmlns:xlink="http://www.w3.org/1999/xlink">
<g id="graph0" class="graph" transform="scale(1 1) rotate(0) translate(4 84)">
<title>leanux::cpu::getCPUTopology</title>
<!-- Node1 -->
<g id="node1" class="node">
<title>Node1</title>
<g id="a_node1"><a xlink:title="get the CPU topology.">
<polygon fill="#bfbfbf" stroke="black" points="418,-30 418,-49 576,-49 576,-30 418,-30"/>
<text text-anchor="middle" x="497" y="-37" font-family="Helvetica,sans-Serif" font-size="10.00">leanux::cpu::getCPUTopology</text>
</a>
</g>
</g>
<!-- Node2 -->
<g id="node2" class="node">
<title>Node2</title>
<g id="a_node2"><a xlink:href="../../d6/dd3/namespaceleanux_1_1tools_1_1lrep.html#aa664245209dbbb081139c961a4c6d878" target="_top" xlink:title="generate system details html.">
<polygon fill="none" stroke="black" points="225.5,-49.5 225.5,-79.5 341.5,-79.5 341.5,-49.5 225.5,-49.5"/>
<text text-anchor="start" x="233.5" y="-67.5" font-family="Helvetica,sans-Serif" font-size="10.00">leanux::tools::lrep</text>
<text text-anchor="middle" x="283.5" y="-56.5" font-family="Helvetica,sans-Serif" font-size="10.00">::htmlSystemDetails</text>
</a>
</g>
</g>
<!-- Node1&#45;&gt;Node2 -->
<g id="edge1" class="edge">
<title>Node1&#45;&gt;Node2</title>
<path fill="none" stroke="midnightblue" d="M407.66,-49.94C385.3,-52.59 361.86,-55.36 341.51,-57.76"/>
<polygon fill="midnightblue" stroke="midnightblue" points="408.33,-53.39 417.85,-48.74 407.5,-46.44 408.33,-53.39"/>
</g>
<!-- Node5 -->
<g id="node4" class="node">
<title>Node5</title>
<g id="a_node4"><a xlink:href="../../da/d21/classleanux_1_1tools_1_1lmon_1_1RealtimeSampler.html#a8de42eb5d528bfa157565a81a16ae5bd" target="_top" xlink:title=" ">
<polygon fill="none" stroke="black" points="185,-0.5 185,-30.5 382,-30.5 382,-0.5 185,-0.5"/>
<text text-anchor="start" x="193" y="-18.5" font-family="Helvetica,sans-Serif" font-size="10.00">leanux::tools::lmon</text>
<text text-anchor="middle" x="283.5" y="-7.5" font-family="Helvetica,sans-Serif" font-size="10.00">::RealtimeSampler::sampleXSysView</text>
</a>
</g>
</g>
<!-- Node1&#45;&gt;Node5 -->
<g id="edge3" class="edge">
<title>Node1&#45;&gt;Node5</title>
<path fill="none" stroke="midnightblue" d="M407.64,-29.47C399.2,-28.52 390.6,-27.54 382.08,-26.57"/>
<polygon fill="midnightblue" stroke="midnightblue" points="407.52,-32.98 417.85,-30.63 408.3,-26.03 407.52,-32.98"/>
</g>
<!-- Node3 -->
<g id="node3" class="node">
<title>Node3</title>
<g id="a_node3"><a xlink:href="../../d6/dd3/namespaceleanux_1_1tools_1_1lrep.html#aa0e1422d8d75831ea3801ffa728bf436" target="_top" xlink:title=" ">
<polygon fill="none" stroke="red" points="22.5,-49.5 22.5,-79.5 126.5,-79.5 126.5,-49.5 22.5,-49.5"/>
<text text-anchor="start" x="30.5" y="-67.5" font-family="Helvetica,sans-Serif" font-size="10.00">leanux::tools::lrep</text>
<text text-anchor="middle" x="74.5" y="-56.5" font-family="Helvetica,sans-Serif" font-size="10.00">::main</text>
</a>
</g>
</g>
<!-- Node2&#45;&gt;Node3 -->
<g id="edge2" class="edge">
<title>Node2&#45;&gt;Node3</title>
<path fill="none" stroke="midnightblue" d="M215.03,-64.5C186.34,-64.5 153.42,-64.5 126.77,-64.5"/>
<polygon fill="midnightblue" stroke="midnightblue" points="215.39,-68 225.39,-64.5 215.39,-61 215.39,-68"/>
</g>
<!-- Node6 -->
<g id="node5" class="node">
<title>Node6</title>
<g id="a_node5"><a xlink:href="../../da/d21/classleanux_1_1tools_1_1lmon_1_1RealtimeSampler.html#a9522a4a46961eb4f75d3207da1efd07f" target="_top" xlink:title="Sample a snapshot.">
<polygon fill="none" stroke="red" points="0,-0.5 0,-30.5 149,-30.5 149,-0.5 0,-0.5"/>
<text text-anchor="start" x="8" y="-18.5" font-family="Helvetica,sans-Serif" font-size="10.00">leanux::tools::lmon</text>
<text text-anchor="middle" x="74.5" y="-7.5" font-family="Helvetica,sans-Serif" font-size="10.00">::RealtimeSampler::sample</text>
</a>
</g>
</g>
<!-- Node5&#45;&gt;Node6 -->
<g id="edge4" class="edge">
<title>Node5&#45;&gt;Node6</title>
<path fill="none" stroke="midnightblue" d="M174.68,-15.5C166.1,-15.5 157.55,-15.5 149.29,-15.5"/>
<polygon fill="midnightblue" stroke="midnightblue" points="174.76,-19 184.76,-15.5 174.76,-12 174.76,-19"/>
</g>
</g>
</svg>
