<?xml version="1.0" encoding="UTF-8" standalone="no"?>
<!DOCTYPE svg PUBLIC "-//W3C//DTD SVG 1.1//EN"
 "http://www.w3.org/Graphics/SVG/1.1/DTD/svg11.dtd">
<!-- Generated by graphviz version 2.43.0 (0)
 -->
<!-- Title: leanux::cpu::getCPUInfo Pages: 1 -->
<svg width="476pt" height="149pt"
 viewBox="0.00 0.00 476.00 148.50" xmlns="http://www.w3.org/2000/svg" xmlns:xlink="http://www.w3.org/1999/xlink">
<g id="graph0" class="graph" transform="scale(1 1) rotate(0) translate(4 144.5)">
<title>leanux::cpu::getCPUInfo</title>
<!-- Node1 -->
<g id="node1" class="node">
<title>Node1</title>
<g id="a_node1"><a xlink:title="Get CPU info.">
<polygon fill="#bfbfbf" stroke="black" points="334,-66.5 334,-85.5 468,-85.5 468,-66.5 334,-66.5"/>
<text text-anchor="middle" x="401" y="-73.5" font-family="Helvetica,sans-Serif" font-size="10.00">leanux::cpu::getCPUInfo</text>
</a>
</g>
</g>
<!-- Node2 -->
<g id="node2" class="node">
<title>Node2</title>
<g id="a_node2"><a xlink:href="../../db/dda/classleanux_1_1tools_1_1lmon_1_1Footer.html#a5fd79b07f7441318e0a842b4b3024ee9" target="_top" xlink:title="Construct a Footer.">
<polygon fill="none" stroke="black" points="164,-110 164,-140 274,-140 274,-110 164,-110"/>
<text text-anchor="start" x="172" y="-128" font-family="Helvetica,sans-Serif" font-size="10.00">leanux::tools::lmon</text>
<text text-anchor="middle" x="219" y="-117" font-family="Helvetica,sans-Serif" font-size="10.00">::Footer::Footer</text>
</a>
</g>
</g>
<!-- Node1&#45;&gt;Node2 -->
<g id="edge1" class="edge">
<title>Node1&#45;&gt;Node2</title>
<path fill="none" stroke="midnightblue" d="M355.1,-88.22C330.58,-94.9 300.03,-103.21 274.19,-110.25"/>
<polygon fill="midnightblue" stroke="midnightblue" points="356.14,-91.57 364.87,-85.56 354.3,-84.81 356.14,-91.57"/>
</g>
<!-- Node3 -->
<g id="node3" class="node">
<title>Node3</title>
<g id="a_node3"><a xlink:href="../../d6/dd3/namespaceleanux_1_1tools_1_1lrep.html#aa664245209dbbb081139c961a4c6d878" target="_top" xlink:title="generate system details html.">
<polygon fill="none" stroke="black" points="161,-61 161,-91 277,-91 277,-61 161,-61"/>
<text text-anchor="start" x="169" y="-79" font-family="Helvetica,sans-Serif" font-size="10.00">leanux::tools::lrep</text>
<text text-anchor="middle" x="219" y="-68" font-family="Helvetica,sans-Serif" font-size="10.00">::htmlSystemDetails</text>
</a>
</g>
</g>
<!-- Node1&#45;&gt;Node3 -->
<g id="edge2" class="edge">
<title>Node1&#45;&gt;Node3</title>
<path fill="none" stroke="midnightblue" d="M323.81,-76C308.16,-76 291.94,-76 277.1,-76"/>
<polygon fill="midnightblue" stroke="midnightblue" points="324,-79.5 334,-76 324,-72.5 324,-79.5"/>
</g>
<!-- Node6 -->
<g id="node5" class="node">
<title>Node6</title>
<g id="a_node5"><a xlink:href="../../da/d21/classleanux_1_1tools_1_1lmon_1_1RealtimeSampler.html#a792fec91ecc8ca43919fbab7e89cd840" target="_top" xlink:title="Constructor.">
<polygon fill="none" stroke="black" points="140,-0.5 140,-41.5 298,-41.5 298,-0.5 140,-0.5"/>
<text text-anchor="start" x="148" y="-29.5" font-family="Helvetica,sans-Serif" font-size="10.00">leanux::tools::lmon</text>
<text text-anchor="start" x="148" y="-18.5" font-family="Helvetica,sans-Serif" font-size="10.00">::RealtimeSampler::Realtime</text>
<text text-anchor="middle" x="219" y="-7.5" font-family="Helvetica,sans-Serif" font-size="10.00">Sampler</text>
</a>
</g>
</g>
<!-- Node1&#45;&gt;Node6 -->
<g id="edge4" class="edge">
<title>Node1&#45;&gt;Node6</title>
<path fill="none" stroke="midnightblue" d="M358.98,-63.47C337.74,-56.98 311.27,-48.89 287.15,-41.52"/>
<polygon fill="midnightblue" stroke="midnightblue" points="358.06,-66.84 368.65,-66.42 360.11,-60.15 358.06,-66.84"/>
</g>
<!-- Node4 -->
<g id="node4" class="node">
<title>Node4</title>
<g id="a_node4"><a xlink:href="../../d6/dd3/namespaceleanux_1_1tools_1_1lrep.html#aa0e1422d8d75831ea3801ffa728bf436" target="_top" xlink:title=" ">
<polygon fill="none" stroke="red" points="0,-61 0,-91 104,-91 104,-61 0,-61"/>
<text text-anchor="start" x="8" y="-79" font-family="Helvetica,sans-Serif" font-size="10.00">leanux::tools::lrep</text>
<text text-anchor="middle" x="52" y="-68" font-family="Helvetica,sans-Serif" font-size="10.00">::main</text>
</a>
</g>
</g>
<!-- Node3&#45;&gt;Node4 -->
<g id="edge3" class="edge">
<title>Node3&#45;&gt;Node4</title>
<path fill="none" stroke="midnightblue" d="M150.66,-76C135.11,-76 118.81,-76 104.08,-76"/>
<polygon fill="midnightblue" stroke="midnightblue" points="150.75,-79.5 160.75,-76 150.75,-72.5 150.75,-79.5"/>
</g>
</g>
</svg>
