<?xml version="1.0" encoding="UTF-8" standalone="no"?>
<!DOCTYPE svg PUBLIC "-//W3C//DTD SVG 1.1//EN"
 "http://www.w3.org/Graphics/SVG/1.1/DTD/svg11.dtd">
<!-- Generated by graphviz version 2.43.0 (0)
 -->
<!-- Title: leanux::cpu::getLoadAvg Pages: 1 -->
<svg width="562pt" height="137pt"
 viewBox="0.00 0.00 562.00 137.00" xmlns="http://www.w3.org/2000/svg" xmlns:xlink="http://www.w3.org/1999/xlink">
<g id="graph0" class="graph" transform="scale(1 1) rotate(0) translate(4 133)">
<title>leanux::cpu::getLoadAvg</title>
<!-- Node1 -->
<g id="node1" class="node">
<title>Node1</title>
<g id="a_node1"><a xlink:title="Get the system load averages.">
<polygon fill="#bfbfbf" stroke="black" points="418,-55 418,-74 554,-74 554,-55 418,-55"/>
<text text-anchor="middle" x="486" y="-62" font-family="Helvetica,sans-Serif" font-size="10.00">leanux::cpu::getLoadAvg</text>
</a>
</g>
</g>
<!-- Node2 -->
<g id="node2" class="node">
<title>Node2</title>
<g id="a_node2"><a xlink:href="../../da/d21/classleanux_1_1tools_1_1lmon_1_1RealtimeSampler.html#a8de42eb5d528bfa157565a81a16ae5bd" target="_top" xlink:title=" ">
<polygon fill="none" stroke="black" points="185,-98.5 185,-128.5 382,-128.5 382,-98.5 185,-98.5"/>
<text text-anchor="start" x="193" y="-116.5" font-family="Helvetica,sans-Serif" font-size="10.00">leanux::tools::lmon</text>
<text text-anchor="middle" x="283.5" y="-105.5" font-family="Helvetica,sans-Serif" font-size="10.00">::RealtimeSampler::sampleXSysView</text>
</a>
</g>
</g>
<!-- Node1&#45;&gt;Node2 -->
<g id="edge1" class="edge">
<title>Node1&#45;&gt;Node2</title>
<path fill="none" stroke="midnightblue" d="M435.84,-76.51C408.75,-83.14 374.86,-91.42 346.03,-98.46"/>
<polygon fill="midnightblue" stroke="midnightblue" points="436.98,-79.84 445.87,-74.06 435.32,-73.04 436.98,-79.84"/>
</g>
<!-- Node8 -->
<g id="node4" class="node">
<title>Node8</title>
<g id="a_node4"><a xlink:href="../../d3/d40/classleanux_1_1tools_1_1lard_1_1SchedSnap.html#ad519ce292b396ea7b34eb8f98c3d76bd" target="_top" xlink:title=" ">
<polygon fill="none" stroke="black" points="219.5,-49.5 219.5,-79.5 347.5,-79.5 347.5,-49.5 219.5,-49.5"/>
<text text-anchor="start" x="227.5" y="-67.5" font-family="Helvetica,sans-Serif" font-size="10.00">leanux::tools::lard</text>
<text text-anchor="middle" x="283.5" y="-56.5" font-family="Helvetica,sans-Serif" font-size="10.00">::SchedSnap::startSnap</text>
</a>
</g>
</g>
<!-- Node1&#45;&gt;Node8 -->
<g id="edge3" class="edge">
<title>Node1&#45;&gt;Node8</title>
<path fill="none" stroke="midnightblue" d="M407.72,-64.5C387.88,-64.5 366.78,-64.5 347.75,-64.5"/>
<polygon fill="midnightblue" stroke="midnightblue" points="407.96,-68 417.96,-64.5 407.96,-61 407.96,-68"/>
</g>
<!-- Node12 -->
<g id="node6" class="node">
<title>Node12</title>
<g id="a_node6"><a xlink:href="../../d3/d40/classleanux_1_1tools_1_1lard_1_1SchedSnap.html#aa6adf554028f38d4652a368f029a605d" target="_top" xlink:title=" ">
<polygon fill="none" stroke="black" points="220,-0.5 220,-30.5 347,-30.5 347,-0.5 220,-0.5"/>
<text text-anchor="start" x="228" y="-18.5" font-family="Helvetica,sans-Serif" font-size="10.00">leanux::tools::lard</text>
<text text-anchor="middle" x="283.5" y="-7.5" font-family="Helvetica,sans-Serif" font-size="10.00">::SchedSnap::stopSnap</text>
</a>
</g>
</g>
<!-- Node1&#45;&gt;Node12 -->
<g id="edge5" class="edge">
<title>Node1&#45;&gt;Node12</title>
<path fill="none" stroke="midnightblue" d="M435.84,-52.49C408.75,-45.86 374.86,-37.58 346.03,-30.54"/>
<polygon fill="midnightblue" stroke="midnightblue" points="435.32,-55.96 445.87,-54.94 436.98,-49.16 435.32,-55.96"/>
</g>
<!-- Node3 -->
<g id="node3" class="node">
<title>Node3</title>
<g id="a_node3"><a xlink:href="../../da/d21/classleanux_1_1tools_1_1lmon_1_1RealtimeSampler.html#a9522a4a46961eb4f75d3207da1efd07f" target="_top" xlink:title="Sample a snapshot.">
<polygon fill="none" stroke="red" points="0,-98.5 0,-128.5 149,-128.5 149,-98.5 0,-98.5"/>
<text text-anchor="start" x="8" y="-116.5" font-family="Helvetica,sans-Serif" font-size="10.00">leanux::tools::lmon</text>
<text text-anchor="middle" x="74.5" y="-105.5" font-family="Helvetica,sans-Serif" font-size="10.00">::RealtimeSampler::sample</text>
</a>
</g>
</g>
<!-- Node2&#45;&gt;Node3 -->
<g id="edge2" class="edge">
<title>Node2&#45;&gt;Node3</title>
<path fill="none" stroke="midnightblue" d="M174.68,-113.5C166.1,-113.5 157.55,-113.5 149.29,-113.5"/>
<polygon fill="midnightblue" stroke="midnightblue" points="174.76,-117 184.76,-113.5 174.76,-110 174.76,-117"/>
</g>
<!-- Node9 -->
<g id="node5" class="node">
<title>Node9</title>
<g id="a_node5"><a xlink:href="../../d4/d62/namespaceleanux_1_1tools_1_1lard.html#a6de74bbef1d571bf7eb000e62900a11d" target="_top" xlink:title=" ">
<polygon fill="none" stroke="red" points="22.5,-25.5 22.5,-55.5 126.5,-55.5 126.5,-25.5 22.5,-25.5"/>
<text text-anchor="start" x="30.5" y="-43.5" font-family="Helvetica,sans-Serif" font-size="10.00">leanux::tools::lard</text>
<text text-anchor="middle" x="74.5" y="-32.5" font-family="Helvetica,sans-Serif" font-size="10.00">::mainLoop</text>
</a>
</g>
</g>
<!-- Node8&#45;&gt;Node9 -->
<g id="edge4" class="edge">
<title>Node8&#45;&gt;Node9</title>
<path fill="none" stroke="midnightblue" d="M208.98,-55.98C181.71,-52.81 151.4,-49.3 126.56,-46.42"/>
<polygon fill="midnightblue" stroke="midnightblue" points="208.93,-59.49 219.27,-57.17 209.74,-52.54 208.93,-59.49"/>
</g>
<!-- Node12&#45;&gt;Node9 -->
<g id="edge6" class="edge">
<title>Node12&#45;&gt;Node9</title>
<path fill="none" stroke="midnightblue" d="M209.89,-24.27C182.49,-27.58 151.9,-31.27 126.83,-34.3"/>
<polygon fill="midnightblue" stroke="midnightblue" points="210.32,-27.74 219.83,-23.07 209.48,-20.79 210.32,-27.74"/>
</g>
</g>
</svg>
