<?xml version="1.0" encoding="UTF-8" standalone="no"?>
<!DOCTYPE svg PUBLIC "-//W3C//DTD SVG 1.1//EN"
 "http://www.w3.org/Graphics/SVG/1.1/DTD/svg11.dtd">
<!-- Generated by graphviz version 2.43.0 (0)
 -->
<!-- Title: leanux::block::StatsSorter Pages: 1 -->
<svg width="150pt" height="162pt"
 viewBox="0.00 0.00 150.00 162.00" xmlns="http://www.w3.org/2000/svg" xmlns:xlink="http://www.w3.org/1999/xlink">
<g id="graph0" class="graph" transform="scale(1 1) rotate(0) translate(4 158)">
<title>leanux::block::StatsSorter</title>
<!-- Node1 -->
<g id="node1" class="node">
<title>Node1</title>
<g id="a_node1"><a xlink:title="sorter for DeviceStatsMap delta.">
<polygon fill="#bfbfbf" stroke="black" points="0,-0.5 0,-19.5 142,-19.5 142,-0.5 0,-0.5"/>
<text text-anchor="middle" x="71" y="-7.5" font-family="Helvetica,sans-Serif" font-size="10.00">leanux::block::StatsSorter</text>
</a>
</g>
</g>
<!-- Node2 -->
<g id="node2" class="node">
<title>Node2</title>
<g id="a_node2"><a xlink:title="STL class.">
<polygon fill="none" stroke="#bfbfbf" points="20.5,-67.5 20.5,-86.5 121.5,-86.5 121.5,-67.5 20.5,-67.5"/>
<text text-anchor="middle" x="71" y="-74.5" font-family="Helvetica,sans-Serif" font-size="10.00">std::map&lt; K, T &gt;</text>
</a>
</g>
</g>
<!-- Node2&#45;&gt;Node1 -->
<g id="edge1" class="edge">
<title>Node2&#45;&gt;Node1</title>
<path fill="none" stroke="#9a32cd" stroke-dasharray="5,2" d="M71,-57.04C71,-44.67 71,-29.12 71,-19.63"/>
<polygon fill="#9a32cd" stroke="#9a32cd" points="67.5,-57.23 71,-67.23 74.5,-57.23 67.5,-57.23"/>
<text text-anchor="middle" x="88" y="-41" font-family="Helvetica,sans-Serif" font-size="10.00"> delta_</text>
</g>
<!-- Node3 -->
<g id="node3" class="node">
<title>Node3</title>
<g id="a_node3"><a xlink:title=" ">
<polygon fill="none" stroke="#bfbfbf" points="32.5,-134.5 32.5,-153.5 61.5,-153.5 61.5,-134.5 32.5,-134.5"/>
<text text-anchor="middle" x="47" y="-141.5" font-family="Helvetica,sans-Serif" font-size="10.00">K</text>
</a>
</g>
</g>
<!-- Node3&#45;&gt;Node2 -->
<g id="edge2" class="edge">
<title>Node3&#45;&gt;Node2</title>
<path fill="none" stroke="#9a32cd" stroke-dasharray="5,2" d="M45.03,-124C45.02,-117.77 45.73,-110.93 48,-105 50.64,-98.1 55.86,-91.74 60.66,-86.92"/>
<polygon fill="#9a32cd" stroke="#9a32cd" points="41.55,-124.45 45.62,-134.23 48.53,-124.04 41.55,-124.45"/>
<text text-anchor="middle" x="61" y="-108" font-family="Helvetica,sans-Serif" font-size="10.00"> keys</text>
</g>
<!-- Node4 -->
<g id="node4" class="node">
<title>Node4</title>
<g id="a_node4"><a xlink:title=" ">
<polygon fill="none" stroke="#bfbfbf" points="81.5,-134.5 81.5,-153.5 110.5,-153.5 110.5,-134.5 81.5,-134.5"/>
<text text-anchor="middle" x="96" y="-141.5" font-family="Helvetica,sans-Serif" font-size="10.00">T</text>
</a>
</g>
</g>
<!-- Node4&#45;&gt;Node2 -->
<g id="edge3" class="edge">
<title>Node4&#45;&gt;Node2</title>
<path fill="none" stroke="#9a32cd" stroke-dasharray="5,2" d="M89,-124.79C84.2,-112.31 78.04,-96.31 74.32,-86.63"/>
<polygon fill="#9a32cd" stroke="#9a32cd" points="85.77,-126.16 92.63,-134.23 92.31,-123.64 85.77,-126.16"/>
<text text-anchor="middle" x="108.5" y="-108" font-family="Helvetica,sans-Serif" font-size="10.00"> elements</text>
</g>
</g>
</svg>
