<?xml version="1.0" encoding="UTF-8" standalone="no"?>
<!DOCTYPE svg PUBLIC "-//W3C//DTD SVG 1.1//EN"
 "http://www.w3.org/Graphics/SVG/1.1/DTD/svg11.dtd">
<!-- Generated by graphviz version 2.43.0 (0)
 -->
<!-- Title: leanux::sysdevice::PCIBus::getPropertyValueList Pages: 1 -->
<svg width="568pt" height="361pt"
 viewBox="0.00 0.00 568.00 360.50" xmlns="http://www.w3.org/2000/svg" xmlns:xlink="http://www.w3.org/1999/xlink">
<g id="graph0" class="graph" transform="scale(1 1) rotate(0) translate(4 356.5)">
<title>leanux::sysdevice::PCIBus::getPropertyValueList</title>
<!-- Node1 -->
<g id="node1" class="node">
<title>Node1</title>
<g id="a_node1"><a xlink:title=" ">
<polygon fill="#bfbfbf" stroke="black" points="0,-220.5 0,-250.5 158,-250.5 158,-220.5 0,-220.5"/>
<text text-anchor="start" x="8" y="-238.5" font-family="Helvetica,sans-Serif" font-size="10.00">leanux::sysdevice::</text>
<text text-anchor="middle" x="79" y="-227.5" font-family="Helvetica,sans-Serif" font-size="10.00">PCIBus::getPropertyValueList</text>
</a>
</g>
</g>
<!-- Node2 -->
<g id="node2" class="node">
<title>Node2</title>
<g id="a_node2"><a xlink:href="../../de/d5d/namespaceleanux_1_1pci.html#a516af433630717aadba97a39c7f99361" target="_top" xlink:title="Get the IRQ assigned to a PCI device.">
<polygon fill="none" stroke="black" points="202.5,-295 202.5,-314 360.5,-314 360.5,-295 202.5,-295"/>
<text text-anchor="middle" x="281.5" y="-302" font-family="Helvetica,sans-Serif" font-size="10.00">leanux::pci::getPCIDeviceIRQ</text>
</a>
</g>
</g>
<!-- Node1&#45;&gt;Node2 -->
<g id="edge1" class="edge">
<title>Node1&#45;&gt;Node2</title>
<path fill="none" stroke="midnightblue" d="M124,-250.64C159.67,-262.92 209.39,-280.03 243.15,-291.65"/>
<polygon fill="midnightblue" stroke="midnightblue" points="242.06,-294.97 252.65,-294.92 244.33,-288.35 242.06,-294.97"/>
</g>
<!-- Node5 -->
<g id="node5" class="node">
<title>Node5</title>
<g id="a_node5"><a xlink:href="../../de/d5d/namespaceleanux_1_1pci.html#a48810ffbe83e8a8e357edfa1181c33a5" target="_top" xlink:title="get PCIHardwareId for a PCI device path relative to /sys/devives/">
<polygon fill="none" stroke="black" points="199.5,-246 199.5,-265 363.5,-265 363.5,-246 199.5,-246"/>
<text text-anchor="middle" x="281.5" y="-253" font-family="Helvetica,sans-Serif" font-size="10.00">leanux::pci::getPCIHardwareId</text>
</a>
</g>
</g>
<!-- Node1&#45;&gt;Node5 -->
<g id="edge4" class="edge">
<title>Node1&#45;&gt;Node5</title>
<path fill="none" stroke="midnightblue" d="M158.09,-243.29C168.34,-244.31 178.92,-245.37 189.36,-246.41"/>
<polygon fill="midnightblue" stroke="midnightblue" points="189.01,-249.89 199.31,-247.4 189.71,-242.93 189.01,-249.89"/>
</g>
<!-- Node7 -->
<g id="node7" class="node">
<title>Node7</title>
<g id="a_node7"><a xlink:href="../../de/d5d/namespaceleanux_1_1pci.html#ac5de5302fd54c5e26d2f3745877a750c" target="_top" xlink:title="Get PCI device info based on (vendor,device) function retrieves data from /usr/share/misc/pci....">
<polygon fill="none" stroke="black" points="195,-202 195,-221 368,-221 368,-202 195,-202"/>
<text text-anchor="middle" x="281.5" y="-209" font-family="Helvetica,sans-Serif" font-size="10.00">leanux::pci::getPCIHardwareInfo</text>
</a>
</g>
</g>
<!-- Node1&#45;&gt;Node7 -->
<g id="edge6" class="edge">
<title>Node1&#45;&gt;Node7</title>
<path fill="none" stroke="midnightblue" d="M158.09,-226.15C168.87,-224.86 180,-223.53 190.97,-222.22"/>
<polygon fill="midnightblue" stroke="midnightblue" points="191.46,-225.68 200.97,-221.02 190.62,-218.73 191.46,-225.68"/>
</g>
<!-- Node10 -->
<g id="node10" class="node">
<title>Node10</title>
<g id="a_node10"><a xlink:href="../../d1/d02/classleanux_1_1sysdevice_1_1SysDevice.html#ae45d4c50b05a48b480911a1aaeaeacc1" target="_top" xlink:title=" ">
<polygon fill="none" stroke="black" points="194,-74.5 194,-104.5 369,-104.5 369,-74.5 194,-74.5"/>
<text text-anchor="start" x="202" y="-92.5" font-family="Helvetica,sans-Serif" font-size="10.00">leanux::sysdevice::</text>
<text text-anchor="middle" x="281.5" y="-81.5" font-family="Helvetica,sans-Serif" font-size="10.00">SysDevice::getPropertyValueList</text>
</a>
</g>
</g>
<!-- Node1&#45;&gt;Node10 -->
<g id="edge9" class="edge">
<title>Node1&#45;&gt;Node10</title>
<path fill="none" stroke="midnightblue" d="M100.7,-220.43C136.57,-194.31 210.36,-140.57 251.38,-110.7"/>
<polygon fill="midnightblue" stroke="midnightblue" points="253.59,-113.43 259.61,-104.71 249.47,-107.77 253.59,-113.43"/>
</g>
<!-- Node3 -->
<g id="node3" class="node">
<title>Node3</title>
<g id="a_node3"><a xlink:href="../../d8/db1/namespaceleanux_1_1util.html#a6421ca2c46c56eebe1a486c6a498ce7d" target="_top" xlink:title="Test if a file exists and can be read.">
<polygon fill="none" stroke="black" points="407,-333 407,-352 558,-352 558,-333 407,-333"/>
<text text-anchor="middle" x="482.5" y="-340" font-family="Helvetica,sans-Serif" font-size="10.00">leanux::util::fileReadAccess</text>
</a>
</g>
</g>
<!-- Node2&#45;&gt;Node3 -->
<g id="edge2" class="edge">
<title>Node2&#45;&gt;Node3</title>
<path fill="none" stroke="midnightblue" d="M332.46,-314.04C359.55,-319.21 393.21,-325.64 421.68,-331.08"/>
<polygon fill="midnightblue" stroke="midnightblue" points="421.04,-334.52 431.52,-332.96 422.35,-327.64 421.04,-334.52"/>
</g>
<!-- Node4 -->
<g id="node4" class="node">
<title>Node4</title>
<g id="a_node4"><a xlink:href="../../d8/db1/namespaceleanux_1_1util.html#aff0a888cebf58e4cf942fc3dc681aac8" target="_top" xlink:title="read the first data in the file as a string representation of a signed int.">
<polygon fill="none" stroke="black" points="417.5,-295 417.5,-314 547.5,-314 547.5,-295 417.5,-295"/>
<text text-anchor="middle" x="482.5" y="-302" font-family="Helvetica,sans-Serif" font-size="10.00">leanux::util::fileReadInt</text>
</a>
</g>
</g>
<!-- Node2&#45;&gt;Node4 -->
<g id="edge3" class="edge">
<title>Node2&#45;&gt;Node4</title>
<path fill="none" stroke="midnightblue" d="M360.58,-304.5C375.88,-304.5 391.9,-304.5 407.08,-304.5"/>
<polygon fill="midnightblue" stroke="midnightblue" points="407.44,-308 417.44,-304.5 407.44,-301 407.44,-308"/>
</g>
<!-- Node6 -->
<g id="node6" class="node">
<title>Node6</title>
<g id="a_node6"><a xlink:href="../../d8/db1/namespaceleanux_1_1util.html#a7efa8c5cecc9bb8beada58ee60fa71c4" target="_top" xlink:title="read the first data in the file as a hexadecimal string representation of a signed long.">
<polygon fill="none" stroke="black" points="414,-245.5 414,-275.5 551,-275.5 551,-245.5 414,-245.5"/>
<text text-anchor="start" x="422" y="-263.5" font-family="Helvetica,sans-Serif" font-size="10.00">leanux::util::fileReadHex</text>
<text text-anchor="middle" x="482.5" y="-252.5" font-family="Helvetica,sans-Serif" font-size="10.00">String</text>
</a>
</g>
</g>
<!-- Node5&#45;&gt;Node6 -->
<g id="edge5" class="edge">
<title>Node5&#45;&gt;Node6</title>
<path fill="none" stroke="midnightblue" d="M363.73,-257.54C376.87,-257.87 390.46,-258.21 403.52,-258.54"/>
<polygon fill="midnightblue" stroke="midnightblue" points="403.79,-262.05 413.87,-258.8 403.96,-255.05 403.79,-262.05"/>
</g>
<!-- Node8 -->
<g id="node8" class="node">
<title>Node8</title>
<g id="a_node8"><a xlink:href="../../de/d5d/namespaceleanux_1_1pci.html#a757a53b4facb1212c1bf2aa90bea46a3" target="_top" xlink:title="Transform a PCI class code to class name.">
<polygon fill="none" stroke="black" points="405,-196.5 405,-226.5 560,-226.5 560,-196.5 405,-196.5"/>
<text text-anchor="start" x="413" y="-214.5" font-family="Helvetica,sans-Serif" font-size="10.00">leanux::pci::getPCIHardware</text>
<text text-anchor="middle" x="482.5" y="-203.5" font-family="Helvetica,sans-Serif" font-size="10.00">ClassString</text>
</a>
</g>
</g>
<!-- Node7&#45;&gt;Node8 -->
<g id="edge7" class="edge">
<title>Node7&#45;&gt;Node8</title>
<path fill="none" stroke="midnightblue" d="M368.05,-211.5C376.83,-211.5 385.76,-211.5 394.56,-211.5"/>
<polygon fill="midnightblue" stroke="midnightblue" points="394.81,-215 404.81,-211.5 394.81,-208 394.81,-215"/>
</g>
<!-- Node9 -->
<g id="node9" class="node">
<title>Node9</title>
<g id="a_node9"><a xlink:href="../../de/d5d/namespaceleanux_1_1pci.html#a1697f5b7863d9051b766e856eca0e6cc" target="_top" xlink:title="Get the PCI subclass name for a PCI class code http://wiki.osdev.org/PCI#Class_Codes.">
<polygon fill="none" stroke="black" points="406.5,-147.5 406.5,-177.5 558.5,-177.5 558.5,-147.5 406.5,-147.5"/>
<text text-anchor="start" x="414.5" y="-165.5" font-family="Helvetica,sans-Serif" font-size="10.00">leanux::pci::getPCISubClass</text>
<text text-anchor="middle" x="482.5" y="-154.5" font-family="Helvetica,sans-Serif" font-size="10.00">String</text>
</a>
</g>
</g>
<!-- Node7&#45;&gt;Node9 -->
<g id="edge8" class="edge">
<title>Node7&#45;&gt;Node9</title>
<path fill="none" stroke="midnightblue" d="M321.34,-201.94C346.65,-195.71 380.41,-187.39 410.42,-180"/>
<polygon fill="midnightblue" stroke="midnightblue" points="411.56,-183.33 420.43,-177.54 409.88,-176.53 411.56,-183.33"/>
</g>
<!-- Node11 -->
<g id="node11" class="node">
<title>Node11</title>
<g id="a_node11"><a xlink:href="../../d1/d02/classleanux_1_1sysdevice_1_1SysDevice.html#af93bf56dfb812cdfa443dcfaffcbbb25" target="_top" xlink:title="Get the device class for this device.">
<polygon fill="none" stroke="black" points="424.5,-98.5 424.5,-128.5 540.5,-128.5 540.5,-98.5 424.5,-98.5"/>
<text text-anchor="start" x="432.5" y="-116.5" font-family="Helvetica,sans-Serif" font-size="10.00">leanux::sysdevice::</text>
<text text-anchor="middle" x="482.5" y="-105.5" font-family="Helvetica,sans-Serif" font-size="10.00">SysDevice::getClass</text>
</a>
</g>
</g>
<!-- Node10&#45;&gt;Node11 -->
<g id="edge10" class="edge">
<title>Node10&#45;&gt;Node11</title>
<path fill="none" stroke="midnightblue" d="M369.21,-99.96C384.21,-101.77 399.6,-103.62 414,-105.36"/>
<polygon fill="midnightblue" stroke="midnightblue" points="413.94,-108.88 424.29,-106.6 414.78,-101.93 413.94,-108.88"/>
</g>
<!-- Node12 -->
<g id="node12" class="node">
<title>Node12</title>
<g id="a_node12"><a xlink:href="../../d1/d02/classleanux_1_1sysdevice_1_1SysDevice.html#af7a1af7a4b7729e150cceed395e4425b" target="_top" xlink:title="Get the driver for this device.">
<polygon fill="none" stroke="red" points="423,-49.5 423,-79.5 542,-79.5 542,-49.5 423,-49.5"/>
<text text-anchor="start" x="431" y="-67.5" font-family="Helvetica,sans-Serif" font-size="10.00">leanux::sysdevice::</text>
<text text-anchor="middle" x="482.5" y="-56.5" font-family="Helvetica,sans-Serif" font-size="10.00">SysDevice::getDriver</text>
</a>
</g>
</g>
<!-- Node10&#45;&gt;Node12 -->
<g id="edge11" class="edge">
<title>Node10&#45;&gt;Node12</title>
<path fill="none" stroke="midnightblue" d="M369.21,-78.61C383.79,-76.78 398.74,-74.9 412.79,-73.13"/>
<polygon fill="midnightblue" stroke="midnightblue" points="413.35,-76.59 422.83,-71.87 412.48,-69.64 413.35,-76.59"/>
</g>
<!-- Node15 -->
<g id="node13" class="node">
<title>Node15</title>
<g id="a_node13"><a xlink:href="../../d1/d02/classleanux_1_1sysdevice_1_1SysDevice.html#a899968c4a70ecad67694f6850cf730fd" target="_top" xlink:title="Get a string representation for the SysDeviceType.">
<polygon fill="none" stroke="black" points="420,-0.5 420,-30.5 545,-30.5 545,-0.5 420,-0.5"/>
<text text-anchor="start" x="428" y="-18.5" font-family="Helvetica,sans-Serif" font-size="10.00">leanux::sysdevice::</text>
<text text-anchor="middle" x="482.5" y="-7.5" font-family="Helvetica,sans-Serif" font-size="10.00">SysDevice::getTypeStr</text>
</a>
</g>
</g>
<!-- Node10&#45;&gt;Node15 -->
<g id="edge12" class="edge">
<title>Node10&#45;&gt;Node15</title>
<path fill="none" stroke="midnightblue" d="M317.05,-74.5C341.43,-64.13 374.96,-50.32 405,-39.5 410.45,-37.54 416.16,-35.58 421.88,-33.67"/>
<polygon fill="midnightblue" stroke="midnightblue" points="423.09,-36.96 431.51,-30.52 420.91,-30.3 423.09,-36.96"/>
</g>
</g>
</svg>
