<?xml version="1.0" encoding="UTF-8" standalone="no"?>
<!DOCTYPE svg PUBLIC "-//W3C//DTD SVG 1.1//EN"
 "http://www.w3.org/Graphics/SVG/1.1/DTD/svg11.dtd">
<!-- Generated by graphviz version 2.43.0 (0)
 -->
<!-- Title: leanux::sysdevice::PCIBus::getDisplayName Pages: 1 -->
<svg width="546pt" height="175pt"
 viewBox="0.00 0.00 546.00 175.00" xmlns="http://www.w3.org/2000/svg" xmlns:xlink="http://www.w3.org/1999/xlink">
<g id="graph0" class="graph" transform="scale(1 1) rotate(0) translate(4 171)">
<title>leanux::sysdevice::PCIBus::getDisplayName</title>
<!-- Node1 -->
<g id="node1" class="node">
<title>Node1</title>
<g id="a_node1"><a xlink:title=" ">
<polygon fill="#bfbfbf" stroke="black" points="0,-92.5 0,-122.5 138,-122.5 138,-92.5 0,-92.5"/>
<text text-anchor="start" x="8" y="-110.5" font-family="Helvetica,sans-Serif" font-size="10.00">leanux::sysdevice::</text>
<text text-anchor="middle" x="69" y="-99.5" font-family="Helvetica,sans-Serif" font-size="10.00">PCIBus::getDisplayName</text>
</a>
</g>
</g>
<!-- Node2 -->
<g id="node2" class="node">
<title>Node2</title>
<g id="a_node2"><a xlink:href="../../d1/d02/classleanux_1_1sysdevice_1_1SysDevice.html#a869141642aa173656c57a6509f0fb6e5" target="_top" xlink:title=" ">
<polygon fill="none" stroke="black" points="183,-136.5 183,-166.5 338,-166.5 338,-136.5 183,-136.5"/>
<text text-anchor="start" x="191" y="-154.5" font-family="Helvetica,sans-Serif" font-size="10.00">leanux::sysdevice::</text>
<text text-anchor="middle" x="260.5" y="-143.5" font-family="Helvetica,sans-Serif" font-size="10.00">SysDevice::getDisplayName</text>
</a>
</g>
</g>
<!-- Node1&#45;&gt;Node2 -->
<g id="edge1" class="edge">
<title>Node1&#45;&gt;Node2</title>
<path fill="none" stroke="midnightblue" d="M134.69,-122.52C150.76,-126.25 168.12,-130.28 184.63,-134.12"/>
<polygon fill="midnightblue" stroke="midnightblue" points="184.25,-137.62 194.78,-136.47 185.84,-130.8 184.25,-137.62"/>
</g>
<!-- Node3 -->
<g id="node3" class="node">
<title>Node3</title>
<g id="a_node3"><a xlink:href="../../de/d5d/namespaceleanux_1_1pci.html#a48810ffbe83e8a8e357edfa1181c33a5" target="_top" xlink:title="get PCIHardwareId for a PCI device path relative to /sys/devives/">
<polygon fill="none" stroke="black" points="178.5,-98 178.5,-117 342.5,-117 342.5,-98 178.5,-98"/>
<text text-anchor="middle" x="260.5" y="-105" font-family="Helvetica,sans-Serif" font-size="10.00">leanux::pci::getPCIHardwareId</text>
</a>
</g>
</g>
<!-- Node1&#45;&gt;Node3 -->
<g id="edge2" class="edge">
<title>Node1&#45;&gt;Node3</title>
<path fill="none" stroke="midnightblue" d="M138.15,-107.5C147.93,-107.5 158.14,-107.5 168.28,-107.5"/>
<polygon fill="midnightblue" stroke="midnightblue" points="168.39,-111 178.39,-107.5 168.39,-104 168.39,-111"/>
</g>
<!-- Node5 -->
<g id="node5" class="node">
<title>Node5</title>
<g id="a_node5"><a xlink:href="../../de/d5d/namespaceleanux_1_1pci.html#ac5de5302fd54c5e26d2f3745877a750c" target="_top" xlink:title="Get PCI device info based on (vendor,device) function retrieves data from /usr/share/misc/pci....">
<polygon fill="none" stroke="black" points="174,-55 174,-74 347,-74 347,-55 174,-55"/>
<text text-anchor="middle" x="260.5" y="-62" font-family="Helvetica,sans-Serif" font-size="10.00">leanux::pci::getPCIHardwareInfo</text>
</a>
</g>
</g>
<!-- Node1&#45;&gt;Node5 -->
<g id="edge4" class="edge">
<title>Node1&#45;&gt;Node5</title>
<path fill="none" stroke="midnightblue" d="M136.28,-92.46C159.69,-87.15 185.67,-81.25 207.71,-76.25"/>
<polygon fill="midnightblue" stroke="midnightblue" points="208.56,-79.65 217.54,-74.02 207.01,-72.82 208.56,-79.65"/>
</g>
<!-- Node4 -->
<g id="node4" class="node">
<title>Node4</title>
<g id="a_node4"><a xlink:href="../../d8/db1/namespaceleanux_1_1util.html#a7efa8c5cecc9bb8beada58ee60fa71c4" target="_top" xlink:title="read the first data in the file as a hexadecimal string representation of a signed long.">
<polygon fill="none" stroke="black" points="392,-98.5 392,-128.5 529,-128.5 529,-98.5 392,-98.5"/>
<text text-anchor="start" x="400" y="-116.5" font-family="Helvetica,sans-Serif" font-size="10.00">leanux::util::fileReadHex</text>
<text text-anchor="middle" x="460.5" y="-105.5" font-family="Helvetica,sans-Serif" font-size="10.00">String</text>
</a>
</g>
</g>
<!-- Node3&#45;&gt;Node4 -->
<g id="edge3" class="edge">
<title>Node3&#45;&gt;Node4</title>
<path fill="none" stroke="midnightblue" d="M342.61,-109.96C355.5,-110.35 368.81,-110.75 381.63,-111.14"/>
<polygon fill="midnightblue" stroke="midnightblue" points="381.68,-114.64 391.78,-111.45 381.89,-107.65 381.68,-114.64"/>
</g>
<!-- Node6 -->
<g id="node6" class="node">
<title>Node6</title>
<g id="a_node6"><a xlink:href="../../de/d5d/namespaceleanux_1_1pci.html#a757a53b4facb1212c1bf2aa90bea46a3" target="_top" xlink:title="Transform a PCI class code to class name.">
<polygon fill="none" stroke="black" points="383,-49.5 383,-79.5 538,-79.5 538,-49.5 383,-49.5"/>
<text text-anchor="start" x="391" y="-67.5" font-family="Helvetica,sans-Serif" font-size="10.00">leanux::pci::getPCIHardware</text>
<text text-anchor="middle" x="460.5" y="-56.5" font-family="Helvetica,sans-Serif" font-size="10.00">ClassString</text>
</a>
</g>
</g>
<!-- Node5&#45;&gt;Node6 -->
<g id="edge5" class="edge">
<title>Node5&#45;&gt;Node6</title>
<path fill="none" stroke="midnightblue" d="M347.19,-64.5C355.59,-64.5 364.12,-64.5 372.53,-64.5"/>
<polygon fill="midnightblue" stroke="midnightblue" points="372.71,-68 382.71,-64.5 372.71,-61 372.71,-68"/>
</g>
<!-- Node7 -->
<g id="node7" class="node">
<title>Node7</title>
<g id="a_node7"><a xlink:href="../../de/d5d/namespaceleanux_1_1pci.html#a1697f5b7863d9051b766e856eca0e6cc" target="_top" xlink:title="Get the PCI subclass name for a PCI class code http://wiki.osdev.org/PCI#Class_Codes.">
<polygon fill="none" stroke="black" points="384.5,-0.5 384.5,-30.5 536.5,-30.5 536.5,-0.5 384.5,-0.5"/>
<text text-anchor="start" x="392.5" y="-18.5" font-family="Helvetica,sans-Serif" font-size="10.00">leanux::pci::getPCISubClass</text>
<text text-anchor="middle" x="460.5" y="-7.5" font-family="Helvetica,sans-Serif" font-size="10.00">String</text>
</a>
</g>
</g>
<!-- Node5&#45;&gt;Node7 -->
<g id="edge6" class="edge">
<title>Node5&#45;&gt;Node7</title>
<path fill="none" stroke="midnightblue" d="M300.15,-54.94C325.32,-48.71 358.92,-40.39 388.78,-33"/>
<polygon fill="midnightblue" stroke="midnightblue" points="389.87,-36.34 398.74,-30.54 388.19,-29.54 389.87,-36.34"/>
</g>
</g>
</svg>
