<?xml version="1.0" encoding="UTF-8" standalone="no"?>
<!DOCTYPE svg PUBLIC "-//W3C//DTD SVG 1.1//EN"
 "http://www.w3.org/Graphics/SVG/1.1/DTD/svg11.dtd">
<!-- Generated by graphviz version 2.43.0 (0)
 -->
<!-- Title: tools/lmon/xdata.hpp Pages: 1 -->
<svg width="635pt" height="196pt"
 viewBox="0.00 0.00 634.50 196.00" xmlns="http://www.w3.org/2000/svg" xmlns:xlink="http://www.w3.org/1999/xlink">
<g id="graph0" class="graph" transform="scale(1 1) rotate(0) translate(4 192)">
<title>tools/lmon/xdata.hpp</title>
<!-- Node1 -->
<g id="node1" class="node">
<title>Node1</title>
<g id="a_node1"><a xlink:title=" ">
<polygon fill="#bfbfbf" stroke="black" points="299,-168.5 299,-187.5 419,-187.5 419,-168.5 299,-168.5"/>
<text text-anchor="middle" x="359" y="-175.5" font-family="Helvetica,sans-Serif" font-size="10.00">tools/lmon/xdata.hpp</text>
</a>
</g>
</g>
<!-- Node2 -->
<g id="node2" class="node">
<title>Node2</title>
<g id="a_node2"><a xlink:href="../../d4/de1/history_8hpp.html" target="_top" xlink:title=" ">
<polygon fill="none" stroke="black" points="89.5,-112.5 89.5,-131.5 214.5,-131.5 214.5,-112.5 89.5,-112.5"/>
<text text-anchor="middle" x="152" y="-119.5" font-family="Helvetica,sans-Serif" font-size="10.00">tools/lmon/history.hpp</text>
</a>
</g>
</g>
<!-- Node1&#45;&gt;Node2 -->
<g id="edge1" class="edge">
<title>Node1&#45;&gt;Node2</title>
<path fill="none" stroke="midnightblue" d="M316.18,-165.83C277.09,-155.63 220.17,-140.78 184.65,-131.52"/>
<polygon fill="midnightblue" stroke="midnightblue" points="315.64,-169.31 326.2,-168.44 317.41,-162.53 315.64,-169.31"/>
</g>
<!-- Node5 -->
<g id="node5" class="node">
<title>Node5</title>
<g id="a_node5"><a xlink:href="../../dd/d86/realtime_8hpp.html" target="_top" xlink:title=" ">
<polygon fill="none" stroke="black" points="292,-112.5 292,-131.5 426,-131.5 426,-112.5 292,-112.5"/>
<text text-anchor="middle" x="359" y="-119.5" font-family="Helvetica,sans-Serif" font-size="10.00">tools/lmon/realtime.hpp</text>
</a>
</g>
</g>
<!-- Node1&#45;&gt;Node5 -->
<g id="edge4" class="edge">
<title>Node1&#45;&gt;Node5</title>
<path fill="none" stroke="midnightblue" d="M359,-157.8C359,-148.91 359,-138.78 359,-131.75"/>
<polygon fill="midnightblue" stroke="midnightblue" points="355.5,-158.08 359,-168.08 362.5,-158.08 355.5,-158.08"/>
</g>
<!-- Node9 -->
<g id="node8" class="node">
<title>Node9</title>
<g id="a_node8"><a xlink:href="../../d5/da4/trigger_8hpp.html" target="_top" xlink:title=" ">
<polygon fill="none" stroke="black" points="473,-112.5 473,-131.5 597,-131.5 597,-112.5 473,-112.5"/>
<text text-anchor="middle" x="535" y="-119.5" font-family="Helvetica,sans-Serif" font-size="10.00">tools/lmon/trigger.hpp</text>
</a>
</g>
</g>
<!-- Node1&#45;&gt;Node9 -->
<g id="edge8" class="edge">
<title>Node1&#45;&gt;Node9</title>
<path fill="none" stroke="midnightblue" d="M396.69,-165.44C429.87,-155.26 477.43,-140.66 507.24,-131.52"/>
<polygon fill="midnightblue" stroke="midnightblue" points="395.42,-162.16 386.89,-168.44 397.47,-168.86 395.42,-162.16"/>
</g>
<!-- Node3 -->
<g id="node3" class="node">
<title>Node3</title>
<g id="a_node3"><a xlink:href="../../d1/d3e/history_8cpp.html" target="_top" xlink:title=" ">
<polygon fill="none" stroke="black" points="0,-56.5 0,-75.5 124,-75.5 124,-56.5 0,-56.5"/>
<text text-anchor="middle" x="62" y="-63.5" font-family="Helvetica,sans-Serif" font-size="10.00">tools/lmon/history.cpp</text>
</a>
</g>
</g>
<!-- Node2&#45;&gt;Node3 -->
<g id="edge2" class="edge">
<title>Node2&#45;&gt;Node3</title>
<path fill="none" stroke="midnightblue" d="M128.96,-107.18C112.4,-97.24 90.58,-84.15 76.42,-75.65"/>
<polygon fill="midnightblue" stroke="midnightblue" points="127.16,-110.18 137.54,-112.32 130.77,-104.18 127.16,-110.18"/>
</g>
<!-- Node4 -->
<g id="node4" class="node">
<title>Node4</title>
<g id="a_node4"><a xlink:href="../../d4/d0e/lmon__curses_8cpp.html" target="_top" xlink:title=" ">
<polygon fill="none" stroke="black" points="127.5,-0.5 127.5,-19.5 280.5,-19.5 280.5,-0.5 127.5,-0.5"/>
<text text-anchor="middle" x="204" y="-7.5" font-family="Helvetica,sans-Serif" font-size="10.00">tools/lmon/lmon_curses.cpp</text>
</a>
</g>
</g>
<!-- Node2&#45;&gt;Node4 -->
<g id="edge3" class="edge">
<title>Node2&#45;&gt;Node4</title>
<path fill="none" stroke="midnightblue" d="M155.64,-102.33C158.67,-88.98 163.68,-70.83 171,-56 177.78,-42.27 188.76,-28.35 196.17,-19.7"/>
<polygon fill="midnightblue" stroke="midnightblue" points="152.19,-101.73 153.55,-112.23 159.04,-103.17 152.19,-101.73"/>
</g>
<!-- Node6 -->
<g id="node6" class="node">
<title>Node6</title>
<g id="a_node6"><a xlink:href="../../d4/d35/lmon__curses_8hpp.html" target="_top" xlink:title=" ">
<polygon fill="none" stroke="red" points="180,-56.5 180,-75.5 334,-75.5 334,-56.5 180,-56.5"/>
<text text-anchor="middle" x="257" y="-63.5" font-family="Helvetica,sans-Serif" font-size="10.00">tools/lmon/lmon_curses.hpp</text>
</a>
</g>
</g>
<!-- Node5&#45;&gt;Node6 -->
<g id="edge5" class="edge">
<title>Node5&#45;&gt;Node6</title>
<path fill="none" stroke="midnightblue" d="M333.67,-107.59C314.81,-97.61 289.62,-84.27 273.35,-75.65"/>
<polygon fill="midnightblue" stroke="midnightblue" points="332.14,-110.74 342.61,-112.32 335.41,-104.55 332.14,-110.74"/>
</g>
<!-- Node8 -->
<g id="node7" class="node">
<title>Node8</title>
<g id="a_node7"><a xlink:href="../../d4/df0/realtime_8cpp.html" target="_top" xlink:title=" ">
<polygon fill="none" stroke="black" points="352.5,-56.5 352.5,-75.5 485.5,-75.5 485.5,-56.5 352.5,-56.5"/>
<text text-anchor="middle" x="419" y="-63.5" font-family="Helvetica,sans-Serif" font-size="10.00">tools/lmon/realtime.cpp</text>
</a>
</g>
</g>
<!-- Node5&#45;&gt;Node8 -->
<g id="edge7" class="edge">
<title>Node5&#45;&gt;Node8</title>
<path fill="none" stroke="midnightblue" d="M376.18,-105.54C386.88,-95.91 400.26,-83.87 409.18,-75.83"/>
<polygon fill="midnightblue" stroke="midnightblue" points="373.73,-103.03 368.64,-112.32 378.41,-108.24 373.73,-103.03"/>
</g>
<!-- Node6&#45;&gt;Node4 -->
<g id="edge6" class="edge">
<title>Node6&#45;&gt;Node4</title>
<path fill="none" stroke="midnightblue" d="M241.02,-48.72C231.68,-39.2 220.25,-27.56 212.59,-19.75"/>
<polygon fill="midnightblue" stroke="midnightblue" points="238.75,-51.4 248.25,-56.08 243.74,-46.49 238.75,-51.4"/>
</g>
<!-- Node10 -->
<g id="node9" class="node">
<title>Node10</title>
<g id="a_node9"><a xlink:href="../../db/d4d/trigger_8cpp.html" target="_top" xlink:title=" ">
<polygon fill="none" stroke="black" points="503.5,-56.5 503.5,-75.5 626.5,-75.5 626.5,-56.5 503.5,-56.5"/>
<text text-anchor="middle" x="565" y="-63.5" font-family="Helvetica,sans-Serif" font-size="10.00">tools/lmon/trigger.cpp</text>
</a>
</g>
</g>
<!-- Node9&#45;&gt;Node10 -->
<g id="edge9" class="edge">
<title>Node9&#45;&gt;Node10</title>
<path fill="none" stroke="midnightblue" d="M544.85,-103.27C549.97,-94.05 556.02,-83.17 560.14,-75.75"/>
<polygon fill="midnightblue" stroke="midnightblue" points="541.75,-101.64 539.95,-112.08 547.87,-105.04 541.75,-101.64"/>
</g>
</g>
</svg>
