<?xml version="1.0" encoding="UTF-8" standalone="no"?>
<!DOCTYPE svg PUBLIC "-//W3C//DTD SVG 1.1//EN"
 "http://www.w3.org/Graphics/SVG/1.1/DTD/svg11.dtd">
<!-- Generated by graphviz version 2.43.0 (0)
 -->
<!-- Title: leanux::tools::lmon::XSysView Pages: 1 -->
<svg width="771pt" height="775pt"
 viewBox="0.00 0.00 771.00 775.00" xmlns="http://www.w3.org/2000/svg" xmlns:xlink="http://www.w3.org/1999/xlink">
<g id="graph0" class="graph" transform="scale(1 1) rotate(0) translate(4 771)">
<title>leanux::tools::lmon::XSysView</title>
<!-- Node1 -->
<g id="node1" class="node">
<title>Node1</title>
<g id="a_node1"><a xlink:title="Data record for SysView display.">
<polygon fill="#bfbfbf" stroke="black" points="653,-223 653,-253 763,-253 763,-223 653,-223"/>
<text text-anchor="start" x="661" y="-241" font-family="Helvetica,sans-Serif" font-size="10.00">leanux::tools::lmon</text>
<text text-anchor="middle" x="708" y="-230" font-family="Helvetica,sans-Serif" font-size="10.00">::XSysView</text>
</a>
</g>
</g>
<!-- Node2 -->
<g id="node2" class="node">
<title>Node2</title>
<g id="a_node2"><a xlink:title=" ">
<polygon fill="none" stroke="#bfbfbf" points="434,-477 434,-507 537,-507 537,-477 434,-477"/>
<text text-anchor="start" x="442" y="-495" font-family="Helvetica,sans-Serif" font-size="10.00">std::list&lt; leanux::</text>
<text text-anchor="middle" x="485.5" y="-484" font-family="Helvetica,sans-Serif" font-size="10.00">cpu::CPUStat &gt;</text>
</a>
</g>
</g>
<!-- Node2&#45;&gt;Node1 -->
<g id="edge1" class="edge">
<title>Node2&#45;&gt;Node1</title>
<path fill="none" stroke="#9a32cd" stroke-dasharray="5,2" d="M547.57,-492.96C577.22,-490.3 611.43,-482.18 635,-461 697.63,-404.71 706.05,-293.65 706.98,-253.19"/>
<polygon fill="#9a32cd" stroke="#9a32cd" points="547.02,-489.49 537.3,-493.68 547.52,-496.47 547.02,-489.49"/>
<text text-anchor="middle" x="605" y="-502" font-family="Helvetica,sans-Serif" font-size="10.00"> cpupast</text>
<text text-anchor="middle" x="605" y="-491" font-family="Helvetica,sans-Serif" font-size="10.00">cpufuture</text>
</g>
<!-- Node3 -->
<g id="node3" class="node">
<title>Node3</title>
<g id="a_node3"><a xlink:href="../../da/da3/namespaceleanux_1_1cpu.html#d0/d5a/structleanux_1_1cpu_1_1CPUStat" target="_top" xlink:title="CPU usage statistics from /proc/stat.">
<polygon fill="none" stroke="black" points="139,-490.5 139,-509.5 258,-509.5 258,-490.5 139,-490.5"/>
<text text-anchor="middle" x="198.5" y="-497.5" font-family="Helvetica,sans-Serif" font-size="10.00">leanux::cpu::CPUStat</text>
</a>
</g>
</g>
<!-- Node3&#45;&gt;Node1 -->
<g id="edge17" class="edge">
<title>Node3&#45;&gt;Node1</title>
<path fill="none" stroke="#9a32cd" stroke-dasharray="5,2" d="M230.91,-513.35C309.06,-544.21 514.56,-610.8 635,-514 676.78,-480.42 699.39,-306.24 705.37,-253.29"/>
<polygon fill="#9a32cd" stroke="#9a32cd" points="232.19,-510.08 221.6,-509.6 229.57,-516.58 232.19,-510.08"/>
<text text-anchor="middle" x="485.5" y="-567" font-family="Helvetica,sans-Serif" font-size="10.00"> cpu_total</text>
</g>
<!-- Node3&#45;&gt;Node2 -->
<g id="edge2" class="edge">
<title>Node3&#45;&gt;Node2</title>
<path fill="none" stroke="#9a32cd" stroke-dasharray="5,2" d="M268.5,-498.06C319.55,-496.63 387.94,-494.71 433.97,-493.42"/>
<polygon fill="#9a32cd" stroke="#9a32cd" points="268.1,-494.57 258.21,-498.35 268.3,-501.57 268.1,-494.57"/>
<text text-anchor="middle" x="336" y="-500" font-family="Helvetica,sans-Serif" font-size="10.00"> elements</text>
</g>
<!-- Node4 -->
<g id="node4" class="node">
<title>Node4</title>
<g id="a_node4"><a xlink:title=" ">
<polygon fill="none" stroke="#bfbfbf" points="0,-490.5 0,-509.5 50,-509.5 50,-490.5 0,-490.5"/>
<text text-anchor="middle" x="25" y="-497.5" font-family="Helvetica,sans-Serif" font-size="10.00">double</text>
</a>
</g>
</g>
<!-- Node4&#45;&gt;Node1 -->
<g id="edge5" class="edge">
<title>Node4&#45;&gt;Node1</title>
<path fill="none" stroke="#9a32cd" stroke-dasharray="5,2" d="M26.25,-520.01C27.8,-548.18 35.3,-598.68 68,-622 98.18,-643.53 11.96,-727.12 557,-579 593.84,-568.99 610.84,-572.57 635,-543 672.52,-497.08 698.35,-308.19 705.19,-253.13"/>
<polygon fill="#9a32cd" stroke="#9a32cd" points="29.74,-519.64 25.89,-509.77 22.74,-519.89 29.74,-519.64"/>
<text text-anchor="middle" x="336" y="-759" font-family="Helvetica,sans-Serif" font-size="10.00"> mem_swapouts</text>
<text text-anchor="middle" x="336" y="-748" font-family="Helvetica,sans-Serif" font-size="10.00">cpu_seconds</text>
<text text-anchor="middle" x="336" y="-737" font-family="Helvetica,sans-Serif" font-size="10.00">mem_allocs</text>
<text text-anchor="middle" x="336" y="-726" font-family="Helvetica,sans-Serif" font-size="10.00">time_slice</text>
<text text-anchor="middle" x="336" y="-715" font-family="Helvetica,sans-Serif" font-size="10.00">mem_pageouts</text>
<text text-anchor="middle" x="336" y="-704" font-family="Helvetica,sans-Serif" font-size="10.00">mem_frees</text>
<text text-anchor="middle" x="336" y="-693" font-family="Helvetica,sans-Serif" font-size="10.00">mem_minflts</text>
<text text-anchor="middle" x="336" y="-682" font-family="Helvetica,sans-Serif" font-size="10.00">ctxsws</text>
<text text-anchor="middle" x="336" y="-671" font-family="Helvetica,sans-Serif" font-size="10.00">mem_pageins</text>
<text text-anchor="middle" x="336" y="-660" font-family="Helvetica,sans-Serif" font-size="10.00">mem_majflts</text>
<text text-anchor="middle" x="336" y="-649" font-family="Helvetica,sans-Serif" font-size="10.00">...</text>
</g>
<!-- Node4&#45;&gt;Node3 -->
<g id="edge3" class="edge">
<title>Node4&#45;&gt;Node3</title>
<path fill="none" stroke="#9a32cd" stroke-dasharray="5,2" d="M60.25,-500C82.66,-500 112.52,-500 138.67,-500"/>
<polygon fill="#9a32cd" stroke="#9a32cd" points="60.21,-496.5 50.21,-500 60.21,-503.5 60.21,-496.5"/>
<text text-anchor="middle" x="94.5" y="-613" font-family="Helvetica,sans-Serif" font-size="10.00"> irq</text>
<text text-anchor="middle" x="94.5" y="-602" font-family="Helvetica,sans-Serif" font-size="10.00">guest</text>
<text text-anchor="middle" x="94.5" y="-591" font-family="Helvetica,sans-Serif" font-size="10.00">idle</text>
<text text-anchor="middle" x="94.5" y="-580" font-family="Helvetica,sans-Serif" font-size="10.00">steal</text>
<text text-anchor="middle" x="94.5" y="-569" font-family="Helvetica,sans-Serif" font-size="10.00">softirq</text>
<text text-anchor="middle" x="94.5" y="-558" font-family="Helvetica,sans-Serif" font-size="10.00">user</text>
<text text-anchor="middle" x="94.5" y="-547" font-family="Helvetica,sans-Serif" font-size="10.00">iowait</text>
<text text-anchor="middle" x="94.5" y="-536" font-family="Helvetica,sans-Serif" font-size="10.00">nice</text>
<text text-anchor="middle" x="94.5" y="-525" font-family="Helvetica,sans-Serif" font-size="10.00">guest_nice</text>
<text text-anchor="middle" x="94.5" y="-514" font-family="Helvetica,sans-Serif" font-size="10.00">system</text>
<text text-anchor="middle" x="94.5" y="-503" font-family="Helvetica,sans-Serif" font-size="10.00">...</text>
</g>
<!-- Node11 -->
<g id="node11" class="node">
<title>Node11</title>
<g id="a_node11"><a xlink:href="../../da/da3/namespaceleanux_1_1cpu.html#dd/d31/structleanux_1_1cpu_1_1LoadAvg" target="_top" xlink:title="System load average &#45; the average number of processes on the run queue.">
<polygon fill="none" stroke="black" points="276,-436.5 276,-455.5 396,-455.5 396,-436.5 276,-436.5"/>
<text text-anchor="middle" x="336" y="-443.5" font-family="Helvetica,sans-Serif" font-size="10.00">leanux::cpu::LoadAvg</text>
</a>
</g>
</g>
<!-- Node4&#45;&gt;Node11 -->
<g id="edge12" class="edge">
<title>Node4&#45;&gt;Node11</title>
<path fill="none" stroke="#9a32cd" stroke-dasharray="5,2" d="M40.6,-482.78C47.98,-475.32 57.58,-467.32 68,-463 135.15,-435.17 219.98,-435.01 275.78,-439.1"/>
<polygon fill="#9a32cd" stroke="#9a32cd" points="37.72,-480.74 33.52,-490.47 42.87,-485.49 37.72,-480.74"/>
<text text-anchor="middle" x="94.5" y="-488" font-family="Helvetica,sans-Serif" font-size="10.00"> avg5_</text>
<text text-anchor="middle" x="94.5" y="-477" font-family="Helvetica,sans-Serif" font-size="10.00">avg15_</text>
<text text-anchor="middle" x="94.5" y="-466" font-family="Helvetica,sans-Serif" font-size="10.00">avg10_</text>
</g>
<!-- Node5 -->
<g id="node5" class="node">
<title>Node5</title>
<g id="a_node5"><a xlink:title=" ">
<polygon fill="none" stroke="#bfbfbf" points="156,-262.5 156,-281.5 241,-281.5 241,-262.5 156,-262.5"/>
<text text-anchor="middle" x="198.5" y="-269.5" font-family="Helvetica,sans-Serif" font-size="10.00">unsigned long</text>
</a>
</g>
</g>
<!-- Node5&#45;&gt;Node1 -->
<g id="edge4" class="edge">
<title>Node5&#45;&gt;Node1</title>
<path fill="none" stroke="#9a32cd" stroke-dasharray="5,2" d="M251.43,-275.08C259.65,-275.46 268.05,-275.79 276,-276 435.83,-280.18 477.33,-279.49 635,-253 640.79,-252.03 646.83,-250.92 652.83,-249.76"/>
<polygon fill="#9a32cd" stroke="#9a32cd" points="251.33,-271.57 241.17,-274.57 250.99,-278.56 251.33,-271.57"/>
<text text-anchor="middle" x="485.5" y="-390" font-family="Helvetica,sans-Serif" font-size="10.00"> mem_hptotal</text>
<text text-anchor="middle" x="485.5" y="-379" font-family="Helvetica,sans-Serif" font-size="10.00">mem_total</text>
<text text-anchor="middle" x="485.5" y="-368" font-family="Helvetica,sans-Serif" font-size="10.00">mem_anon</text>
<text text-anchor="middle" x="485.5" y="-357" font-family="Helvetica,sans-Serif" font-size="10.00">mem_swpsize</text>
<text text-anchor="middle" x="485.5" y="-346" font-family="Helvetica,sans-Serif" font-size="10.00">mem_shmem</text>
<text text-anchor="middle" x="485.5" y="-335" font-family="Helvetica,sans-Serif" font-size="10.00">res_users</text>
<text text-anchor="middle" x="485.5" y="-324" font-family="Helvetica,sans-Serif" font-size="10.00">mem_mapped</text>
<text text-anchor="middle" x="485.5" y="-313" font-family="Helvetica,sans-Serif" font-size="10.00">res_inodesopen</text>
<text text-anchor="middle" x="485.5" y="-302" font-family="Helvetica,sans-Serif" font-size="10.00">mem_swpused</text>
<text text-anchor="middle" x="485.5" y="-291" font-family="Helvetica,sans-Serif" font-size="10.00">mem_mlock</text>
<text text-anchor="middle" x="485.5" y="-280" font-family="Helvetica,sans-Serif" font-size="10.00">...</text>
</g>
<!-- Node13 -->
<g id="node13" class="node">
<title>Node13</title>
<g id="a_node13"><a xlink:href="../../da/dbe/namespaceleanux_1_1tools_1_1lmon.html#d4/de6/structleanux_1_1tools_1_1lmon_1_1SnapRange" target="_top" xlink:title=" ">
<polygon fill="none" stroke="black" points="430.5,-223 430.5,-253 540.5,-253 540.5,-223 430.5,-223"/>
<text text-anchor="start" x="438.5" y="-241" font-family="Helvetica,sans-Serif" font-size="10.00">leanux::tools::lmon</text>
<text text-anchor="middle" x="485.5" y="-230" font-family="Helvetica,sans-Serif" font-size="10.00">::SnapRange</text>
</a>
</g>
</g>
<!-- Node5&#45;&gt;Node13 -->
<g id="edge16" class="edge">
<title>Node5&#45;&gt;Node13</title>
<path fill="none" stroke="#9a32cd" stroke-dasharray="5,2" d="M244.98,-260.08C255.13,-257.76 265.89,-255.57 276,-254 328.02,-245.93 388,-241.87 430.24,-239.87"/>
<polygon fill="#9a32cd" stroke="#9a32cd" points="244.01,-256.72 235.08,-262.42 245.62,-263.53 244.01,-256.72"/>
<text text-anchor="middle" x="336" y="-268" font-family="Helvetica,sans-Serif" font-size="10.00"> snap_max</text>
<text text-anchor="middle" x="336" y="-257" font-family="Helvetica,sans-Serif" font-size="10.00">snap_min</text>
</g>
<!-- Node6 -->
<g id="node6" class="node">
<title>Node6</title>
<g id="a_node6"><a xlink:href="../../da/da3/namespaceleanux_1_1cpu.html#d3/d90/structleanux_1_1cpu_1_1CPUTopology" target="_top" xlink:title="CPU topology.">
<polygon fill="none" stroke="black" points="414,-184.5 414,-203.5 557,-203.5 557,-184.5 414,-184.5"/>
<text text-anchor="middle" x="485.5" y="-191.5" font-family="Helvetica,sans-Serif" font-size="10.00">leanux::cpu::CPUTopology</text>
</a>
</g>
</g>
<!-- Node6&#45;&gt;Node1 -->
<g id="edge6" class="edge">
<title>Node6&#45;&gt;Node1</title>
<path fill="none" stroke="#9a32cd" stroke-dasharray="5,2" d="M546.15,-205.47C573.27,-210.73 605.77,-217.1 635,-223 640.76,-224.16 646.77,-225.39 652.76,-226.62"/>
<polygon fill="#9a32cd" stroke="#9a32cd" points="546.51,-201.98 536.03,-203.51 545.18,-208.85 546.51,-201.98"/>
<text text-anchor="middle" x="605" y="-226" font-family="Helvetica,sans-Serif" font-size="10.00"> cpu_topo</text>
</g>
<!-- Node7 -->
<g id="node7" class="node">
<title>Node7</title>
<g id="a_node7"><a xlink:title=" ">
<polygon fill="none" stroke="#bfbfbf" points="184,-188.5 184,-207.5 213,-207.5 213,-188.5 184,-188.5"/>
<text text-anchor="middle" x="198.5" y="-195.5" font-family="Helvetica,sans-Serif" font-size="10.00">int</text>
</a>
</g>
</g>
<!-- Node7&#45;&gt;Node6 -->
<g id="edge7" class="edge">
<title>Node7&#45;&gt;Node6</title>
<path fill="none" stroke="#9a32cd" stroke-dasharray="5,2" d="M223.46,-197.66C264.92,-197.08 351.58,-195.87 413.68,-194.99"/>
<polygon fill="#9a32cd" stroke="#9a32cd" points="223.2,-194.17 213.25,-197.81 223.29,-201.17 223.2,-194.17"/>
<text text-anchor="middle" x="336" y="-221" font-family="Helvetica,sans-Serif" font-size="10.00"> logical</text>
<text text-anchor="middle" x="336" y="-210" font-family="Helvetica,sans-Serif" font-size="10.00">physical</text>
<text text-anchor="middle" x="336" y="-199" font-family="Helvetica,sans-Serif" font-size="10.00">cores</text>
</g>
<!-- Node8 -->
<g id="node8" class="node">
<title>Node8</title>
<g id="a_node8"><a xlink:title=" ">
<polygon fill="none" stroke="#bfbfbf" points="428,-135 428,-165 543,-165 543,-135 428,-135"/>
<text text-anchor="start" x="436" y="-153" font-family="Helvetica,sans-Serif" font-size="10.00">std::map&lt; unsigned</text>
<text text-anchor="middle" x="485.5" y="-142" font-family="Helvetica,sans-Serif" font-size="10.00"> int, CPUStat &gt;</text>
</a>
</g>
</g>
<!-- Node8&#45;&gt;Node1 -->
<g id="edge8" class="edge">
<title>Node8&#45;&gt;Node1</title>
<path fill="none" stroke="#9a32cd" stroke-dasharray="5,2" d="M553.09,-167.11C579.12,-174.71 608.93,-184.54 635,-196 652.22,-203.57 670.52,-214.28 684.36,-222.99"/>
<polygon fill="#9a32cd" stroke="#9a32cd" points="553.88,-163.7 543.31,-164.32 551.96,-170.43 553.88,-163.7"/>
<text text-anchor="middle" x="605" y="-199" font-family="Helvetica,sans-Serif" font-size="10.00"> cpu_delta</text>
</g>
<!-- Node9 -->
<g id="node9" class="node">
<title>Node9</title>
<g id="a_node9"><a xlink:title=" ">
<polygon fill="none" stroke="#bfbfbf" points="170.5,-150.5 170.5,-169.5 226.5,-169.5 226.5,-150.5 170.5,-150.5"/>
<text text-anchor="middle" x="198.5" y="-157.5" font-family="Helvetica,sans-Serif" font-size="10.00">CPUStat</text>
</a>
</g>
</g>
<!-- Node9&#45;&gt;Node8 -->
<g id="edge9" class="edge">
<title>Node9&#45;&gt;Node8</title>
<path fill="none" stroke="#9a32cd" stroke-dasharray="5,2" d="M236.65,-158.7C285.3,-156.99 371.05,-153.98 427.83,-151.99"/>
<polygon fill="#9a32cd" stroke="#9a32cd" points="236.44,-155.2 226.57,-159.05 236.69,-162.2 236.44,-155.2"/>
<text text-anchor="middle" x="336" y="-160" font-family="Helvetica,sans-Serif" font-size="10.00"> elements</text>
</g>
<!-- Node10 -->
<g id="node10" class="node">
<title>Node10</title>
<g id="a_node10"><a xlink:title=" ">
<polygon fill="none" stroke="#bfbfbf" points="160,-98.5 160,-117.5 237,-117.5 237,-98.5 160,-98.5"/>
<text text-anchor="middle" x="198.5" y="-105.5" font-family="Helvetica,sans-Serif" font-size="10.00">unsigned int</text>
</a>
</g>
</g>
<!-- Node10&#45;&gt;Node1 -->
<g id="edge14" class="edge">
<title>Node10&#45;&gt;Node1</title>
<path fill="none" stroke="#9a32cd" stroke-dasharray="5,2" d="M247.1,-97.18C317.32,-83.47 451.73,-65.89 557,-104 621.03,-127.18 674.54,-192.8 696.41,-222.75"/>
<polygon fill="#9a32cd" stroke="#9a32cd" points="246.33,-93.77 237.21,-99.17 247.71,-100.63 246.33,-93.77"/>
<text text-anchor="middle" x="485.5" y="-118" font-family="Helvetica,sans-Serif" font-size="10.00"> blockq</text>
<text text-anchor="middle" x="485.5" y="-107" font-family="Helvetica,sans-Serif" font-size="10.00">runq</text>
</g>
<!-- Node10&#45;&gt;Node8 -->
<g id="edge10" class="edge">
<title>Node10&#45;&gt;Node8</title>
<path fill="none" stroke="#9a32cd" stroke-dasharray="5,2" d="M247.23,-115.03C297.03,-122.37 375.07,-133.87 427.93,-141.66"/>
<polygon fill="#9a32cd" stroke="#9a32cd" points="247.46,-111.53 237.05,-113.53 246.43,-118.45 247.46,-111.53"/>
<text text-anchor="middle" x="336" y="-139" font-family="Helvetica,sans-Serif" font-size="10.00"> keys</text>
</g>
<!-- Node11&#45;&gt;Node1 -->
<g id="edge11" class="edge">
<title>Node11&#45;&gt;Node1</title>
<path fill="none" stroke="#9a32cd" stroke-dasharray="5,2" d="M406.22,-448.65C451.67,-447.52 510.99,-440.37 557,-415 628.25,-375.71 680.45,-288.22 699.3,-253.06"/>
<polygon fill="#9a32cd" stroke="#9a32cd" points="406.1,-445.15 396.16,-448.81 406.21,-452.15 406.1,-445.15"/>
<text text-anchor="middle" x="485.5" y="-451" font-family="Helvetica,sans-Serif" font-size="10.00"> loadavg</text>
</g>
<!-- Node12 -->
<g id="node12" class="node">
<title>Node12</title>
<g id="a_node12"><a xlink:title=" ">
<polygon fill="none" stroke="#bfbfbf" points="443,-38.5 443,-57.5 528,-57.5 528,-38.5 443,-38.5"/>
<text text-anchor="middle" x="485.5" y="-45.5" font-family="Helvetica,sans-Serif" font-size="10.00">struct timeval</text>
</a>
</g>
</g>
<!-- Node12&#45;&gt;Node1 -->
<g id="edge13" class="edge">
<title>Node12&#45;&gt;Node1</title>
<path fill="none" stroke="#9a32cd" stroke-dasharray="5,2" d="M538.44,-38.59C569.28,-35.93 607.59,-38.07 635,-58 690.12,-98.09 703.09,-187.38 706.1,-222.95"/>
<polygon fill="#9a32cd" stroke="#9a32cd" points="537.87,-35.14 528.29,-39.66 538.6,-42.1 537.87,-35.14"/>
<text text-anchor="middle" x="605" y="-72" font-family="Helvetica,sans-Serif" font-size="10.00"> t1</text>
<text text-anchor="middle" x="605" y="-61" font-family="Helvetica,sans-Serif" font-size="10.00">t2</text>
</g>
<!-- Node13&#45;&gt;Node1 -->
<g id="edge15" class="edge">
<title>Node13&#45;&gt;Node1</title>
<path fill="none" stroke="#9a32cd" stroke-dasharray="5,2" d="M551,-238C583.39,-238 622.19,-238 652.99,-238"/>
<polygon fill="#9a32cd" stroke="#9a32cd" points="550.72,-234.5 540.72,-238 550.72,-241.5 550.72,-234.5"/>
<text text-anchor="middle" x="605" y="-241" font-family="Helvetica,sans-Serif" font-size="10.00"> snap_range</text>
</g>
<!-- Node14 -->
<g id="node14" class="node">
<title>Node14</title>
<g id="a_node14"><a xlink:title=" ">
<polygon fill="none" stroke="#bfbfbf" points="423.5,-0.5 423.5,-19.5 547.5,-19.5 547.5,-0.5 423.5,-0.5"/>
<text text-anchor="middle" x="485.5" y="-7.5" font-family="Helvetica,sans-Serif" font-size="10.00">std::list&lt; std::string &gt;</text>
</a>
</g>
</g>
<!-- Node14&#45;&gt;Node1 -->
<g id="edge18" class="edge">
<title>Node14&#45;&gt;Node1</title>
<path fill="none" stroke="#9a32cd" stroke-dasharray="5,2" d="M557.91,-1.23C584.59,-1.67 613.58,-7.03 635,-24 698.44,-74.27 706.38,-182.69 707.08,-222.73"/>
<polygon fill="#9a32cd" stroke="#9a32cd" points="557.8,2.27 547.82,-1.29 557.84,-4.73 557.8,2.27"/>
<text text-anchor="middle" x="605" y="-27" font-family="Helvetica,sans-Serif" font-size="10.00"> cpurtpast</text>
</g>
<!-- Node15 -->
<g id="node15" class="node">
<title>Node15</title>
<g id="a_node15"><a xlink:title="STL class.">
<polygon fill="none" stroke="#bfbfbf" points="166,-0.5 166,-19.5 231,-19.5 231,-0.5 166,-0.5"/>
<text text-anchor="middle" x="198.5" y="-7.5" font-family="Helvetica,sans-Serif" font-size="10.00">std::string</text>
</a>
</g>
</g>
<!-- Node15&#45;&gt;Node14 -->
<g id="edge19" class="edge">
<title>Node15&#45;&gt;Node14</title>
<path fill="none" stroke="#9a32cd" stroke-dasharray="5,2" d="M241.12,-10C289.08,-10 368.35,-10 423.33,-10"/>
<polygon fill="#9a32cd" stroke="#9a32cd" points="241.09,-6.5 231.09,-10 241.09,-13.5 241.09,-6.5"/>
<text text-anchor="middle" x="336" y="-13" font-family="Helvetica,sans-Serif" font-size="10.00"> elements</text>
</g>
</g>
</svg>
