<?xml version="1.0" encoding="UTF-8" standalone="no"?>
<!DOCTYPE svg PUBLIC "-//W3C//DTD SVG 1.1//EN"
 "http://www.w3.org/Graphics/SVG/1.1/DTD/svg11.dtd">
<!-- Generated by graphviz version 2.43.0 (0)
 -->
<!-- Title: tools/lmon/lmon.cpp Pages: 1 -->
<svg width="1951pt" height="252pt"
 viewBox="0.00 0.00 1950.50 252.00" xmlns="http://www.w3.org/2000/svg" xmlns:xlink="http://www.w3.org/1999/xlink">
<g id="graph0" class="graph" transform="scale(1 1) rotate(0) translate(4 248)">
<title>tools/lmon/lmon.cpp</title>
<!-- Node1 -->
<g id="node1" class="node">
<title>Node1</title>
<g id="a_node1"><a xlink:title=" ">
<polygon fill="#bfbfbf" stroke="black" points="708.5,-224.5 708.5,-243.5 824.5,-243.5 824.5,-224.5 708.5,-224.5"/>
<text text-anchor="middle" x="766.5" y="-231.5" font-family="Helvetica,sans-Serif" font-size="10.00">tools/lmon/lmon.cpp</text>
</a>
</g>
</g>
<!-- Node2 -->
<g id="node2" class="node">
<title>Node2</title>
<g id="a_node2"><a xlink:title=" ">
<polygon fill="none" stroke="#bfbfbf" points="1663.5,-56.5 1663.5,-75.5 1723.5,-75.5 1723.5,-56.5 1663.5,-56.5"/>
<text text-anchor="middle" x="1693.5" y="-63.5" font-family="Helvetica,sans-Serif" font-size="10.00">iostream</text>
</a>
</g>
</g>
<!-- Node1&#45;&gt;Node2 -->
<g id="edge1" class="edge">
<title>Node1&#45;&gt;Node2</title>
<path fill="none" stroke="midnightblue" d="M824.64,-229.54C1039.38,-216.48 1777.26,-169.03 1810.5,-132 1836.85,-102.64 1776.79,-83.63 1733.35,-74.16"/>
<polygon fill="midnightblue" stroke="midnightblue" points="1734.05,-70.73 1723.54,-72.12 1732.62,-77.59 1734.05,-70.73"/>
</g>
<!-- Node3 -->
<g id="node3" class="node">
<title>Node3</title>
<g id="a_node3"><a xlink:title=" ">
<polygon fill="none" stroke="#bfbfbf" points="769.5,-112.5 769.5,-131.5 825.5,-131.5 825.5,-112.5 769.5,-112.5"/>
<text text-anchor="middle" x="797.5" y="-119.5" font-family="Helvetica,sans-Serif" font-size="10.00">iomanip</text>
</a>
</g>
</g>
<!-- Node1&#45;&gt;Node3 -->
<g id="edge2" class="edge">
<title>Node1&#45;&gt;Node3</title>
<path fill="none" stroke="midnightblue" d="M768.93,-224.37C773.96,-206.54 785.58,-165.3 792.35,-141.27"/>
<polygon fill="midnightblue" stroke="midnightblue" points="795.73,-142.17 795.08,-131.59 789,-140.27 795.73,-142.17"/>
</g>
<!-- Node4 -->
<g id="node4" class="node">
<title>Node4</title>
<g id="a_node4"><a xlink:title=" ">
<polygon fill="none" stroke="#bfbfbf" points="427.5,-112.5 427.5,-131.5 483.5,-131.5 483.5,-112.5 427.5,-112.5"/>
<text text-anchor="middle" x="455.5" y="-119.5" font-family="Helvetica,sans-Serif" font-size="10.00">sstream</text>
</a>
</g>
</g>
<!-- Node1&#45;&gt;Node4 -->
<g id="edge3" class="edge">
<title>Node1&#45;&gt;Node4</title>
<path fill="none" stroke="midnightblue" d="M738.68,-224.43C710.52,-215.65 665.8,-201.43 627.5,-188 577.87,-170.6 520.89,-148.68 486.57,-135.26"/>
<polygon fill="midnightblue" stroke="midnightblue" points="487.69,-131.94 477.1,-131.55 485.13,-138.45 487.69,-131.94"/>
</g>
<!-- Node5 -->
<g id="node5" class="node">
<title>Node5</title>
<g id="a_node5"><a xlink:href="../../dd/d90/system_8hpp.html" target="_top" xlink:title=" ">
<polygon fill="none" stroke="black" points="501.5,-112.5 501.5,-131.5 575.5,-131.5 575.5,-112.5 501.5,-112.5"/>
<text text-anchor="middle" x="538.5" y="-119.5" font-family="Helvetica,sans-Serif" font-size="10.00">system.hpp</text>
</a>
</g>
</g>
<!-- Node1&#45;&gt;Node5 -->
<g id="edge4" class="edge">
<title>Node1&#45;&gt;Node5</title>
<path fill="none" stroke="midnightblue" d="M748.61,-224.37C708.82,-205.17 612.79,-158.84 565.6,-136.07"/>
<polygon fill="midnightblue" stroke="midnightblue" points="566.84,-132.78 556.31,-131.59 563.79,-139.09 566.84,-132.78"/>
</g>
<!-- Node10 -->
<g id="node10" class="node">
<title>Node10</title>
<g id="a_node10"><a xlink:href="../../d3/d27/persist_8hpp.html" target="_top" xlink:title=" ">
<polygon fill="none" stroke="black" points="680,-112.5 680,-131.5 751,-131.5 751,-112.5 680,-112.5"/>
<text text-anchor="middle" x="715.5" y="-119.5" font-family="Helvetica,sans-Serif" font-size="10.00">persist.hpp</text>
</a>
</g>
</g>
<!-- Node1&#45;&gt;Node10 -->
<g id="edge10" class="edge">
<title>Node1&#45;&gt;Node10</title>
<path fill="none" stroke="midnightblue" d="M762.5,-224.37C754.19,-206.46 734.94,-164.92 723.82,-140.95"/>
<polygon fill="midnightblue" stroke="midnightblue" points="726.86,-139.19 719.48,-131.59 720.51,-142.14 726.86,-139.19"/>
</g>
<!-- Node12 -->
<g id="node12" class="node">
<title>Node12</title>
<g id="a_node12"><a xlink:href="../../d0/d3f/util_8hpp.html" target="_top" xlink:title=" ">
<polygon fill="none" stroke="black" points="283,-168.5 283,-187.5 336,-187.5 336,-168.5 283,-168.5"/>
<text text-anchor="middle" x="309.5" y="-175.5" font-family="Helvetica,sans-Serif" font-size="10.00">util.hpp</text>
</a>
</g>
</g>
<!-- Node1&#45;&gt;Node12 -->
<g id="edge14" class="edge">
<title>Node1&#45;&gt;Node12</title>
<path fill="none" stroke="midnightblue" d="M708.16,-226.11C612.59,-214.81 425.4,-192.69 346.24,-183.34"/>
<polygon fill="midnightblue" stroke="midnightblue" points="346.59,-179.86 336.25,-182.16 345.77,-186.81 346.59,-179.86"/>
</g>
<!-- Node16 -->
<g id="node16" class="node">
<title>Node16</title>
<g id="a_node16"><a xlink:title=" ">
<polygon fill="none" stroke="#bfbfbf" points="593.5,-112.5 593.5,-131.5 661.5,-131.5 661.5,-112.5 593.5,-112.5"/>
<text text-anchor="middle" x="627.5" y="-119.5" font-family="Helvetica,sans-Serif" font-size="10.00">sys/time.h</text>
</a>
</g>
</g>
<!-- Node1&#45;&gt;Node16 -->
<g id="edge65" class="edge">
<title>Node1&#45;&gt;Node16</title>
<path fill="none" stroke="midnightblue" d="M755.59,-224.37C731.94,-205.65 675.71,-161.15 646.24,-137.83"/>
<polygon fill="midnightblue" stroke="midnightblue" points="648.37,-135.05 638.36,-131.59 644.03,-140.54 648.37,-135.05"/>
</g>
<!-- Node18 -->
<g id="node18" class="node">
<title>Node18</title>
<g id="a_node18"><a xlink:title=" ">
<polygon fill="none" stroke="#bfbfbf" points="0,-112.5 0,-131.5 53,-131.5 53,-112.5 0,-112.5"/>
<text text-anchor="middle" x="26.5" y="-119.5" font-family="Helvetica,sans-Serif" font-size="10.00">string.h</text>
</a>
</g>
</g>
<!-- Node1&#45;&gt;Node18 -->
<g id="edge67" class="edge">
<title>Node1&#45;&gt;Node18</title>
<path fill="none" stroke="midnightblue" d="M708.4,-230.83C615.79,-226.66 429.25,-215.41 273.5,-188 197.46,-174.62 110.6,-149.37 62.81,-134.59"/>
<polygon fill="midnightblue" stroke="midnightblue" points="63.81,-131.24 53.22,-131.6 61.73,-137.92 63.81,-131.24"/>
</g>
<!-- Node19 -->
<g id="node19" class="node">
<title>Node19</title>
<g id="a_node19"><a xlink:title=" ">
<polygon fill="none" stroke="#bfbfbf" points="305.5,-112.5 305.5,-131.5 409.5,-131.5 409.5,-112.5 305.5,-112.5"/>
<text text-anchor="middle" x="357.5" y="-119.5" font-family="Helvetica,sans-Serif" font-size="10.00">leanux&#45;config.hpp</text>
</a>
</g>
</g>
<!-- Node1&#45;&gt;Node19 -->
<g id="edge57" class="edge">
<title>Node1&#45;&gt;Node19</title>
<path fill="none" stroke="midnightblue" d="M725.37,-224.44C685.57,-215.95 623.63,-202.19 570.5,-188 507.56,-171.19 435.2,-148.35 393.09,-134.7"/>
<polygon fill="midnightblue" stroke="midnightblue" points="394.15,-131.37 383.56,-131.6 391.99,-138.02 394.15,-131.37"/>
</g>
<!-- Node20 -->
<g id="node20" class="node">
<title>Node20</title>
<g id="a_node20"><a xlink:href="../../d4/d35/lmon__curses_8hpp.html" target="_top" xlink:title=" ">
<polygon fill="none" stroke="black" points="1051,-168.5 1051,-187.5 1150,-187.5 1150,-168.5 1051,-168.5"/>
<text text-anchor="middle" x="1100.5" y="-175.5" font-family="Helvetica,sans-Serif" font-size="10.00">lmon_curses.hpp</text>
</a>
</g>
</g>
<!-- Node1&#45;&gt;Node20 -->
<g id="edge24" class="edge">
<title>Node1&#45;&gt;Node20</title>
<path fill="none" stroke="midnightblue" d="M819.42,-224.44C879.62,-214.71 977.71,-198.85 1040.65,-188.68"/>
<polygon fill="midnightblue" stroke="midnightblue" points="1041.51,-192.08 1050.82,-187.03 1040.39,-185.17 1041.51,-192.08"/>
</g>
<!-- Node39 -->
<g id="node32" class="node">
<title>Node39</title>
<g id="a_node32"><a xlink:href="../../db/d57/configfile_8hpp.html" target="_top" xlink:title=" ">
<polygon fill="none" stroke="black" points="1645.5,-112.5 1645.5,-131.5 1727.5,-131.5 1727.5,-112.5 1645.5,-112.5"/>
<text text-anchor="middle" x="1686.5" y="-119.5" font-family="Helvetica,sans-Serif" font-size="10.00">configfile.hpp</text>
</a>
</g>
</g>
<!-- Node1&#45;&gt;Node39 -->
<g id="edge58" class="edge">
<title>Node1&#45;&gt;Node39</title>
<path fill="none" stroke="midnightblue" d="M824.7,-227.54C963.33,-214.25 1324.07,-178.04 1635.21,-132.12"/>
<polygon fill="midnightblue" stroke="midnightblue" points="1635.95,-135.54 1645.33,-130.62 1634.93,-128.62 1635.95,-135.54"/>
</g>
<!-- Node40 -->
<g id="node33" class="node">
<title>Node40</title>
<g id="a_node33"><a xlink:title=" ">
<polygon fill="none" stroke="#bfbfbf" points="1698,-168.5 1698,-187.5 1787,-187.5 1787,-168.5 1698,-168.5"/>
<text text-anchor="middle" x="1742.5" y="-175.5" font-family="Helvetica,sans-Serif" font-size="10.00">lard&#45;config.hpp</text>
</a>
</g>
</g>
<!-- Node1&#45;&gt;Node40 -->
<g id="edge63" class="edge">
<title>Node1&#45;&gt;Node40</title>
<path fill="none" stroke="midnightblue" d="M824.59,-232.21C969.76,-229.79 1359.97,-220.53 1683.5,-188 1684.8,-187.87 1686.12,-187.73 1687.46,-187.58"/>
<polygon fill="midnightblue" stroke="midnightblue" points="1688.28,-191.01 1697.78,-186.31 1687.43,-184.06 1688.28,-191.01"/>
</g>
<!-- Node41 -->
<g id="node34" class="node">
<title>Node41</title>
<g id="a_node34"><a xlink:title=" ">
<polygon fill="none" stroke="#bfbfbf" points="1805,-168.5 1805,-187.5 1860,-187.5 1860,-168.5 1805,-168.5"/>
<text text-anchor="middle" x="1832.5" y="-175.5" font-family="Helvetica,sans-Serif" font-size="10.00">signal.h</text>
</a>
</g>
</g>
<!-- Node1&#45;&gt;Node41 -->
<g id="edge64" class="edge">
<title>Node1&#45;&gt;Node41</title>
<path fill="none" stroke="midnightblue" d="M824.61,-232C1010.04,-228.57 1587.15,-216 1794.52,-187.97"/>
<polygon fill="midnightblue" stroke="midnightblue" points="1795.29,-191.4 1804.7,-186.54 1794.31,-184.46 1795.29,-191.4"/>
</g>
<!-- Node42 -->
<g id="node35" class="node">
<title>Node42</title>
<g id="a_node35"><a xlink:title=" ">
<polygon fill="none" stroke="#bfbfbf" points="1878.5,-168.5 1878.5,-187.5 1942.5,-187.5 1942.5,-168.5 1878.5,-168.5"/>
<text text-anchor="middle" x="1910.5" y="-175.5" font-family="Helvetica,sans-Serif" font-size="10.00">algorithm</text>
</a>
</g>
</g>
<!-- Node1&#45;&gt;Node42 -->
<g id="edge66" class="edge">
<title>Node1&#45;&gt;Node42</title>
<path fill="none" stroke="midnightblue" d="M824.52,-231.98C1018.62,-228.34 1645.1,-214.9 1868.36,-187.87"/>
<polygon fill="midnightblue" stroke="midnightblue" points="1868.88,-191.33 1878.36,-186.61 1868.01,-184.38 1868.88,-191.33"/>
</g>
<!-- Node6 -->
<g id="node6" class="node">
<title>Node6</title>
<g id="a_node6"><a xlink:title=" ">
<polygon fill="none" stroke="#bfbfbf" points="969.5,-0.5 969.5,-19.5 1013.5,-19.5 1013.5,-0.5 969.5,-0.5"/>
<text text-anchor="middle" x="991.5" y="-7.5" font-family="Helvetica,sans-Serif" font-size="10.00">string</text>
</a>
</g>
</g>
<!-- Node5&#45;&gt;Node6 -->
<g id="edge5" class="edge">
<title>Node5&#45;&gt;Node6</title>
<path fill="none" stroke="midnightblue" d="M540.76,-112.05C544.92,-97.56 555.3,-69.25 575.5,-56 638.55,-14.64 872.89,-10.77 959.26,-10.78"/>
<polygon fill="midnightblue" stroke="midnightblue" points="959.27,-14.28 969.28,-10.8 959.28,-7.28 959.27,-14.28"/>
</g>
<!-- Node7 -->
<g id="node7" class="node">
<title>Node7</title>
<g id="a_node7"><a xlink:title=" ">
<polygon fill="none" stroke="#bfbfbf" points="584.5,-56.5 584.5,-75.5 640.5,-75.5 640.5,-56.5 584.5,-56.5"/>
<text text-anchor="middle" x="612.5" y="-63.5" font-family="Helvetica,sans-Serif" font-size="10.00">unistd.h</text>
</a>
</g>
</g>
<!-- Node5&#45;&gt;Node7 -->
<g id="edge6" class="edge">
<title>Node5&#45;&gt;Node7</title>
<path fill="none" stroke="midnightblue" d="M550.39,-112.32C561.65,-104.11 578.79,-91.6 592.21,-81.81"/>
<polygon fill="midnightblue" stroke="midnightblue" points="594.38,-84.56 600.39,-75.83 590.25,-78.9 594.38,-84.56"/>
</g>
<!-- Node8 -->
<g id="node8" class="node">
<title>Node8</title>
<g id="a_node8"><a xlink:title=" ">
<polygon fill="none" stroke="#bfbfbf" points="754.5,-56.5 754.5,-75.5 826.5,-75.5 826.5,-56.5 754.5,-56.5"/>
<text text-anchor="middle" x="790.5" y="-63.5" font-family="Helvetica,sans-Serif" font-size="10.00">sys/types.h</text>
</a>
</g>
</g>
<!-- Node5&#45;&gt;Node8 -->
<g id="edge7" class="edge">
<title>Node5&#45;&gt;Node8</title>
<path fill="none" stroke="midnightblue" d="M575.68,-113.03C620.55,-103.42 695.98,-87.25 744.47,-76.86"/>
<polygon fill="midnightblue" stroke="midnightblue" points="745.35,-80.26 754.39,-74.74 743.88,-73.41 745.35,-80.26"/>
</g>
<!-- Node9 -->
<g id="node9" class="node">
<title>Node9</title>
<g id="a_node9"><a xlink:href="../../d3/d44/oops_8hpp.html" target="_top" xlink:title=" ">
<polygon fill="none" stroke="black" points="883,-56.5 883,-75.5 944,-75.5 944,-56.5 883,-56.5"/>
<text text-anchor="middle" x="913.5" y="-63.5" font-family="Helvetica,sans-Serif" font-size="10.00">oops.hpp</text>
</a>
</g>
</g>
<!-- Node5&#45;&gt;Node9 -->
<g id="edge8" class="edge">
<title>Node5&#45;&gt;Node9</title>
<path fill="none" stroke="midnightblue" d="M575.62,-113.55C578.62,-113 581.61,-112.48 584.5,-112 687.72,-94.86 809.95,-79.4 872.35,-71.86"/>
<polygon fill="midnightblue" stroke="midnightblue" points="873.06,-75.3 882.57,-70.63 872.22,-68.35 873.06,-75.3"/>
</g>
<!-- Node9&#45;&gt;Node6 -->
<g id="edge9" class="edge">
<title>Node9&#45;&gt;Node6</title>
<path fill="none" stroke="midnightblue" d="M926.03,-56.32C938.09,-47.98 956.53,-35.21 970.77,-25.35"/>
<polygon fill="midnightblue" stroke="midnightblue" points="972.77,-28.22 979,-19.65 968.78,-22.47 972.77,-28.22"/>
</g>
<!-- Node10&#45;&gt;Node6 -->
<g id="edge12" class="edge">
<title>Node10&#45;&gt;Node6</title>
<path fill="none" stroke="midnightblue" d="M741.12,-112.35C765.66,-103.85 803.55,-90.13 835.5,-76 853.32,-68.12 856.72,-63.95 874.5,-56 902.84,-43.33 935.91,-30.81 959.66,-22.2"/>
<polygon fill="midnightblue" stroke="midnightblue" points="960.99,-25.44 969.22,-18.77 958.62,-18.86 960.99,-25.44"/>
</g>
<!-- Node10&#45;&gt;Node9 -->
<g id="edge11" class="edge">
<title>Node10&#45;&gt;Node9</title>
<path fill="none" stroke="midnightblue" d="M746.87,-112.44C780.96,-103.15 835.54,-88.26 872.88,-78.08"/>
<polygon fill="midnightblue" stroke="midnightblue" points="874.2,-81.35 882.92,-75.34 872.36,-74.59 874.2,-81.35"/>
</g>
<!-- Node11 -->
<g id="node11" class="node">
<title>Node11</title>
<g id="a_node11"><a xlink:title=" ">
<polygon fill="none" stroke="#bfbfbf" points="677,-56.5 677,-75.5 736,-75.5 736,-56.5 677,-56.5"/>
<text text-anchor="middle" x="706.5" y="-63.5" font-family="Helvetica,sans-Serif" font-size="10.00">sqlite3.h</text>
</a>
</g>
</g>
<!-- Node10&#45;&gt;Node11 -->
<g id="edge13" class="edge">
<title>Node10&#45;&gt;Node11</title>
<path fill="none" stroke="midnightblue" d="M714.01,-112.08C712.82,-104.93 711.11,-94.64 709.62,-85.69"/>
<polygon fill="midnightblue" stroke="midnightblue" points="713.05,-85.04 707.96,-75.75 706.15,-86.19 713.05,-85.04"/>
</g>
<!-- Node12&#45;&gt;Node4 -->
<g id="edge16" class="edge">
<title>Node12&#45;&gt;Node4</title>
<path fill="none" stroke="midnightblue" d="M332.63,-168.44C356.98,-159.44 395.51,-145.19 422.92,-135.05"/>
<polygon fill="midnightblue" stroke="midnightblue" points="424.31,-138.27 432.47,-131.52 421.88,-131.7 424.31,-138.27"/>
</g>
<!-- Node12&#45;&gt;Node6 -->
<g id="edge15" class="edge">
<title>Node12&#45;&gt;Node6</title>
<path fill="none" stroke="midnightblue" d="M282.73,-173.14C228.96,-165.11 111.96,-146.19 100.5,-132 94.92,-125.08 94.61,-118.66 100.5,-112 158.64,-46.21 806.18,-17.94 959.22,-12.15"/>
<polygon fill="midnightblue" stroke="midnightblue" points="959.51,-15.64 969.37,-11.77 959.25,-8.65 959.51,-15.64"/>
</g>
<!-- Node13 -->
<g id="node13" class="node">
<title>Node13</title>
<g id="a_node13"><a xlink:title=" ">
<polygon fill="none" stroke="#bfbfbf" points="110,-112.5 110,-131.5 165,-131.5 165,-112.5 110,-112.5"/>
<text text-anchor="middle" x="137.5" y="-119.5" font-family="Helvetica,sans-Serif" font-size="10.00">fstream</text>
</a>
</g>
</g>
<!-- Node12&#45;&gt;Node13 -->
<g id="edge17" class="edge">
<title>Node12&#45;&gt;Node13</title>
<path fill="none" stroke="midnightblue" d="M282.62,-168.56C253.51,-159.42 206.88,-144.78 174.36,-134.57"/>
<polygon fill="midnightblue" stroke="midnightblue" points="175.34,-131.21 164.75,-131.56 173.25,-137.89 175.34,-131.21"/>
</g>
<!-- Node14 -->
<g id="node14" class="node">
<title>Node14</title>
<g id="a_node14"><a xlink:title=" ">
<polygon fill="none" stroke="#bfbfbf" points="183.5,-112.5 183.5,-131.5 215.5,-131.5 215.5,-112.5 183.5,-112.5"/>
<text text-anchor="middle" x="199.5" y="-119.5" font-family="Helvetica,sans-Serif" font-size="10.00">set</text>
</a>
</g>
</g>
<!-- Node12&#45;&gt;Node14 -->
<g id="edge18" class="edge">
<title>Node12&#45;&gt;Node14</title>
<path fill="none" stroke="midnightblue" d="M291.83,-168.32C273.69,-159.42 245.29,-145.48 224.78,-135.41"/>
<polygon fill="midnightblue" stroke="midnightblue" points="226.21,-132.22 215.7,-130.95 223.13,-138.5 226.21,-132.22"/>
</g>
<!-- Node15 -->
<g id="node15" class="node">
<title>Node15</title>
<g id="a_node15"><a xlink:title=" ">
<polygon fill="none" stroke="#bfbfbf" points="1057.5,-56.5 1057.5,-75.5 1089.5,-75.5 1089.5,-56.5 1057.5,-56.5"/>
<text text-anchor="middle" x="1073.5" y="-63.5" font-family="Helvetica,sans-Serif" font-size="10.00">list</text>
</a>
</g>
</g>
<!-- Node12&#45;&gt;Node15 -->
<g id="edge19" class="edge">
<title>Node12&#45;&gt;Node15</title>
<path fill="none" stroke="midnightblue" d="M336.01,-176.48C439.25,-174.23 814.37,-163.98 928.5,-132 947.26,-126.74 949.86,-120.26 967.5,-112 994.54,-99.35 1026.11,-86.14 1047.72,-77.33"/>
<polygon fill="midnightblue" stroke="midnightblue" points="1049.22,-80.5 1057.18,-73.5 1046.59,-74.01 1049.22,-80.5"/>
</g>
<!-- Node12&#45;&gt;Node16 -->
<g id="edge20" class="edge">
<title>Node12&#45;&gt;Node16</title>
<path fill="none" stroke="midnightblue" d="M336.11,-173.04C383.66,-165.89 486.53,-150.03 583.31,-132.16"/>
<polygon fill="midnightblue" stroke="midnightblue" points="584.07,-135.58 593.26,-130.31 582.79,-128.69 584.07,-135.58"/>
</g>
<!-- Node17 -->
<g id="node17" class="node">
<title>Node17</title>
<g id="a_node17"><a xlink:title=" ">
<polygon fill="none" stroke="#bfbfbf" points="234,-112.5 234,-131.5 287,-131.5 287,-112.5 234,-112.5"/>
<text text-anchor="middle" x="260.5" y="-119.5" font-family="Helvetica,sans-Serif" font-size="10.00">regex.h</text>
</a>
</g>
</g>
<!-- Node12&#45;&gt;Node17 -->
<g id="edge21" class="edge">
<title>Node12&#45;&gt;Node17</title>
<path fill="none" stroke="midnightblue" d="M301.41,-168.08C294.34,-160.3 283.91,-148.8 275.35,-139.37"/>
<polygon fill="midnightblue" stroke="midnightblue" points="277.75,-136.8 268.44,-131.75 272.57,-141.51 277.75,-136.8"/>
</g>
<!-- Node12&#45;&gt;Node18 -->
<g id="edge22" class="edge">
<title>Node12&#45;&gt;Node18</title>
<path fill="none" stroke="midnightblue" d="M282.95,-172.35C238.35,-164.48 145.61,-147.83 67.5,-132 66.21,-131.74 64.91,-131.47 63.59,-131.2"/>
<polygon fill="midnightblue" stroke="midnightblue" points="63.89,-127.68 53.38,-129.03 62.44,-134.53 63.89,-127.68"/>
</g>
<!-- Node12&#45;&gt;Node19 -->
<g id="edge23" class="edge">
<title>Node12&#45;&gt;Node19</title>
<path fill="none" stroke="midnightblue" d="M317.43,-168.08C324.35,-160.3 334.57,-148.8 342.95,-139.37"/>
<polygon fill="midnightblue" stroke="midnightblue" points="345.69,-141.55 349.72,-131.75 340.46,-136.9 345.69,-141.55"/>
</g>
<!-- Node20&#45;&gt;Node3 -->
<g id="edge53" class="edge">
<title>Node20&#45;&gt;Node3</title>
<path fill="none" stroke="midnightblue" d="M1050.99,-169.57C997.63,-161.33 910.27,-147.19 835.5,-132 835.4,-131.98 835.3,-131.96 835.2,-131.94"/>
<polygon fill="midnightblue" stroke="midnightblue" points="836.19,-128.57 825.68,-129.89 834.72,-135.41 836.19,-128.57"/>
</g>
<!-- Node20&#45;&gt;Node4 -->
<g id="edge56" class="edge">
<title>Node20&#45;&gt;Node4</title>
<path fill="none" stroke="midnightblue" d="M1050.93,-176.09C948.48,-173.62 705.95,-164.69 493.77,-131.94"/>
<polygon fill="midnightblue" stroke="midnightblue" points="494.11,-128.45 483.69,-130.36 493.02,-135.37 494.11,-128.45"/>
</g>
<!-- Node20&#45;&gt;Node10 -->
<g id="edge47" class="edge">
<title>Node20&#45;&gt;Node10</title>
<path fill="none" stroke="midnightblue" d="M1050.8,-171.46C986.44,-164.06 870.58,-149.95 761.51,-132.07"/>
<polygon fill="midnightblue" stroke="midnightblue" points="761.76,-128.56 751.32,-130.39 760.62,-135.47 761.76,-128.56"/>
</g>
<!-- Node20&#45;&gt;Node15 -->
<g id="edge54" class="edge">
<title>Node20&#45;&gt;Node15</title>
<path fill="none" stroke="midnightblue" d="M1098.38,-168.37C1094.02,-150.62 1083.97,-109.67 1078.06,-85.6"/>
<polygon fill="midnightblue" stroke="midnightblue" points="1081.39,-84.47 1075.61,-75.59 1074.59,-86.14 1081.39,-84.47"/>
</g>
<!-- Node20&#45;&gt;Node16 -->
<g id="edge51" class="edge">
<title>Node20&#45;&gt;Node16</title>
<path fill="none" stroke="midnightblue" d="M1050.75,-173.36C970.6,-167.15 808.05,-153.08 671.5,-132 671.4,-131.98 671.3,-131.97 671.2,-131.95"/>
<polygon fill="midnightblue" stroke="midnightblue" points="672,-128.54 661.55,-130.31 670.82,-135.44 672,-128.54"/>
</g>
<!-- Node21 -->
<g id="node21" class="node">
<title>Node21</title>
<g id="a_node21"><a xlink:href="../../d9/db2/block_8hpp.html" target="_top" xlink:title=" ">
<polygon fill="none" stroke="red" points="1563.5,-112.5 1563.5,-131.5 1627.5,-131.5 1627.5,-112.5 1563.5,-112.5"/>
<text text-anchor="middle" x="1595.5" y="-119.5" font-family="Helvetica,sans-Serif" font-size="10.00">block.hpp</text>
</a>
</g>
</g>
<!-- Node20&#45;&gt;Node21 -->
<g id="edge25" class="edge">
<title>Node20&#45;&gt;Node21</title>
<path fill="none" stroke="midnightblue" d="M1150.12,-173.99C1232.07,-168.61 1400.95,-155.76 1553.33,-132.01"/>
<polygon fill="midnightblue" stroke="midnightblue" points="1554.01,-135.45 1563.34,-130.43 1552.92,-128.54 1554.01,-135.45"/>
</g>
<!-- Node28 -->
<g id="node23" class="node">
<title>Node28</title>
<g id="a_node23"><a xlink:href="../../df/dbe/cpu_8hpp.html" target="_top" xlink:title=" ">
<polygon fill="none" stroke="red" points="1746,-112.5 1746,-131.5 1801,-131.5 1801,-112.5 1746,-112.5"/>
<text text-anchor="middle" x="1773.5" y="-119.5" font-family="Helvetica,sans-Serif" font-size="10.00">cpu.hpp</text>
</a>
</g>
</g>
<!-- Node20&#45;&gt;Node28 -->
<g id="edge30" class="edge">
<title>Node20&#45;&gt;Node28</title>
<path fill="none" stroke="midnightblue" d="M1150.3,-176.31C1256.34,-174.24 1512.3,-166 1735.78,-131.83"/>
<polygon fill="midnightblue" stroke="midnightblue" points="1736.37,-135.28 1745.72,-130.29 1735.3,-128.36 1736.37,-135.28"/>
</g>
<!-- Node29 -->
<g id="node24" class="node">
<title>Node29</title>
<g id="a_node24"><a xlink:href="../../d4/d2d/net_8hpp.html" target="_top" xlink:title=" ">
<polygon fill="none" stroke="red" points="1102,-112.5 1102,-131.5 1155,-131.5 1155,-112.5 1102,-112.5"/>
<text text-anchor="middle" x="1128.5" y="-119.5" font-family="Helvetica,sans-Serif" font-size="10.00">net.hpp</text>
</a>
</g>
</g>
<!-- Node20&#45;&gt;Node29 -->
<g id="edge33" class="edge">
<title>Node20&#45;&gt;Node29</title>
<path fill="none" stroke="midnightblue" d="M1105.12,-168.08C1108.96,-160.69 1114.52,-149.95 1119.26,-140.81"/>
<polygon fill="midnightblue" stroke="midnightblue" points="1122.47,-142.24 1123.96,-131.75 1116.25,-139.02 1122.47,-142.24"/>
</g>
<!-- Node31 -->
<g id="node25" class="node">
<title>Node31</title>
<g id="a_node25"><a xlink:href="../../dd/db4/process_8hpp.html" target="_top" xlink:title=" ">
<polygon fill="none" stroke="red" points="844,-112.5 844,-131.5 919,-131.5 919,-112.5 844,-112.5"/>
<text text-anchor="middle" x="881.5" y="-119.5" font-family="Helvetica,sans-Serif" font-size="10.00">process.hpp</text>
</a>
</g>
</g>
<!-- Node20&#45;&gt;Node31 -->
<g id="edge38" class="edge">
<title>Node20&#45;&gt;Node31</title>
<path fill="none" stroke="midnightblue" d="M1065.8,-168.44C1027.92,-159.1 967.15,-144.12 925.84,-133.93"/>
<polygon fill="midnightblue" stroke="midnightblue" points="926.59,-130.51 916.04,-131.52 924.91,-137.31 926.59,-130.51"/>
</g>
<!-- Node32 -->
<g id="node26" class="node">
<title>Node32</title>
<g id="a_node26"><a xlink:href="../../db/da3/vmem_8hpp.html" target="_top" xlink:title=" ">
<polygon fill="none" stroke="black" points="976,-112.5 976,-131.5 1045,-131.5 1045,-112.5 976,-112.5"/>
<text text-anchor="middle" x="1010.5" y="-119.5" font-family="Helvetica,sans-Serif" font-size="10.00">vmem.hpp</text>
</a>
</g>
</g>
<!-- Node20&#45;&gt;Node32 -->
<g id="edge44" class="edge">
<title>Node20&#45;&gt;Node32</title>
<path fill="none" stroke="midnightblue" d="M1086.04,-168.32C1072,-159.9 1050.45,-146.97 1033.96,-137.07"/>
<polygon fill="midnightblue" stroke="midnightblue" points="1035.3,-133.8 1024.92,-131.65 1031.7,-139.8 1035.3,-133.8"/>
</g>
<!-- Node33 -->
<g id="node27" class="node">
<title>Node33</title>
<g id="a_node27"><a xlink:href="../../dd/d86/realtime_8hpp.html" target="_top" xlink:title=" ">
<polygon fill="none" stroke="red" points="1173,-112.5 1173,-131.5 1252,-131.5 1252,-112.5 1173,-112.5"/>
<text text-anchor="middle" x="1212.5" y="-119.5" font-family="Helvetica,sans-Serif" font-size="10.00">realtime.hpp</text>
</a>
</g>
</g>
<!-- Node20&#45;&gt;Node33 -->
<g id="edge48" class="edge">
<title>Node20&#45;&gt;Node33</title>
<path fill="none" stroke="midnightblue" d="M1118.49,-168.32C1136.54,-159.62 1164.55,-146.12 1185.3,-136.11"/>
<polygon fill="midnightblue" stroke="midnightblue" points="1187.06,-139.15 1194.55,-131.65 1184.02,-132.84 1187.06,-139.15"/>
</g>
<!-- Node35 -->
<g id="node28" class="node">
<title>Node35</title>
<g id="a_node28"><a xlink:title=" ">
<polygon fill="none" stroke="#bfbfbf" points="1270,-112.5 1270,-131.5 1333,-131.5 1333,-112.5 1270,-112.5"/>
<text text-anchor="middle" x="1301.5" y="-119.5" font-family="Helvetica,sans-Serif" font-size="10.00">ncurses.h</text>
</a>
</g>
</g>
<!-- Node20&#45;&gt;Node35 -->
<g id="edge49" class="edge">
<title>Node20&#45;&gt;Node35</title>
<path fill="none" stroke="midnightblue" d="M1132.35,-168.44C1166.9,-159.16 1222.18,-144.31 1260.08,-134.13"/>
<polygon fill="midnightblue" stroke="midnightblue" points="1261.05,-137.49 1269.8,-131.52 1259.23,-130.73 1261.05,-137.49"/>
</g>
<!-- Node36 -->
<g id="node29" class="node">
<title>Node36</title>
<g id="a_node29"><a xlink:title=" ">
<polygon fill="none" stroke="#bfbfbf" points="1351.5,-112.5 1351.5,-131.5 1417.5,-131.5 1417.5,-112.5 1351.5,-112.5"/>
<text text-anchor="middle" x="1384.5" y="-119.5" font-family="Helvetica,sans-Serif" font-size="10.00">sys/ioctl.h</text>
</a>
</g>
</g>
<!-- Node20&#45;&gt;Node36 -->
<g id="edge50" class="edge">
<title>Node20&#45;&gt;Node36</title>
<path fill="none" stroke="midnightblue" d="M1148.79,-168.42C1195.49,-160.03 1268.53,-146.68 1340.85,-132.29"/>
<polygon fill="midnightblue" stroke="midnightblue" points="1341.93,-135.65 1351.05,-130.25 1340.55,-128.78 1341.93,-135.65"/>
</g>
<!-- Node37 -->
<g id="node30" class="node">
<title>Node37</title>
<g id="a_node30"><a xlink:title=" ">
<polygon fill="none" stroke="#bfbfbf" points="1435.5,-112.5 1435.5,-131.5 1479.5,-131.5 1479.5,-112.5 1435.5,-112.5"/>
<text text-anchor="middle" x="1457.5" y="-119.5" font-family="Helvetica,sans-Serif" font-size="10.00">poll.h</text>
</a>
</g>
</g>
<!-- Node20&#45;&gt;Node37 -->
<g id="edge52" class="edge">
<title>Node20&#45;&gt;Node37</title>
<path fill="none" stroke="midnightblue" d="M1150.04,-172.43C1212.26,-166.18 1322.39,-153.48 1425.31,-131.99"/>
<polygon fill="midnightblue" stroke="midnightblue" points="1426.19,-135.38 1435.25,-129.88 1424.74,-128.53 1426.19,-135.38"/>
</g>
<!-- Node38 -->
<g id="node31" class="node">
<title>Node38</title>
<g id="a_node31"><a xlink:title=" ">
<polygon fill="none" stroke="#bfbfbf" points="1498,-112.5 1498,-131.5 1545,-131.5 1545,-112.5 1498,-112.5"/>
<text text-anchor="middle" x="1521.5" y="-119.5" font-family="Helvetica,sans-Serif" font-size="10.00">queue</text>
</a>
</g>
</g>
<!-- Node20&#45;&gt;Node38 -->
<g id="edge55" class="edge">
<title>Node20&#45;&gt;Node38</title>
<path fill="none" stroke="midnightblue" d="M1150.17,-173.65C1222.44,-168.24 1360.9,-155.9 1487.91,-131.83"/>
<polygon fill="midnightblue" stroke="midnightblue" points="1488.65,-135.25 1497.81,-129.92 1487.33,-128.37 1488.65,-135.25"/>
</g>
<!-- Node21&#45;&gt;Node2 -->
<g id="edge29" class="edge">
<title>Node21&#45;&gt;Node2</title>
<path fill="none" stroke="midnightblue" d="M1611.25,-112.32C1626.82,-103.74 1650.88,-90.49 1668.96,-80.52"/>
<polygon fill="midnightblue" stroke="midnightblue" points="1670.72,-83.55 1677.79,-75.65 1667.35,-77.42 1670.72,-83.55"/>
</g>
<!-- Node21&#45;&gt;Node6 -->
<g id="edge26" class="edge">
<title>Node21&#45;&gt;Node6</title>
<path fill="none" stroke="midnightblue" d="M1563.3,-113.81C1560.33,-113.18 1557.36,-112.57 1554.5,-112 1353.03,-71.83 1109.53,-30.63 1023.49,-16.29"/>
<polygon fill="midnightblue" stroke="midnightblue" points="1024,-12.83 1013.56,-14.64 1022.85,-19.74 1024,-12.83"/>
</g>
<!-- Node21&#45;&gt;Node15 -->
<g id="edge27" class="edge">
<title>Node21&#45;&gt;Node15</title>
<path fill="none" stroke="midnightblue" d="M1563.34,-113.55C1560.36,-112.98 1557.38,-112.45 1554.5,-112 1382.27,-85.14 1172.67,-72.23 1099.89,-68.33"/>
<polygon fill="midnightblue" stroke="midnightblue" points="1099.95,-64.83 1089.78,-67.8 1099.59,-71.82 1099.95,-64.83"/>
</g>
<!-- Node23 -->
<g id="node22" class="node">
<title>Node23</title>
<g id="a_node22"><a xlink:title=" ">
<polygon fill="none" stroke="#bfbfbf" points="1569.5,-56.5 1569.5,-75.5 1607.5,-75.5 1607.5,-56.5 1569.5,-56.5"/>
<text text-anchor="middle" x="1588.5" y="-63.5" font-family="Helvetica,sans-Serif" font-size="10.00">map</text>
</a>
</g>
</g>
<!-- Node21&#45;&gt;Node23 -->
<g id="edge28" class="edge">
<title>Node21&#45;&gt;Node23</title>
<path fill="none" stroke="midnightblue" d="M1594.34,-112.08C1593.42,-104.93 1592.08,-94.64 1590.92,-85.69"/>
<polygon fill="midnightblue" stroke="midnightblue" points="1594.39,-85.22 1589.63,-75.75 1587.45,-86.12 1594.39,-85.22"/>
</g>
<!-- Node28&#45;&gt;Node6 -->
<g id="edge31" class="edge">
<title>Node28&#45;&gt;Node6</title>
<path fill="none" stroke="midnightblue" d="M1770.93,-112.38C1766.08,-97.84 1754.09,-68.77 1732.5,-56 1670.88,-19.53 1157.84,-12.47 1023.56,-11.24"/>
<polygon fill="midnightblue" stroke="midnightblue" points="1023.53,-7.74 1013.5,-11.15 1023.47,-14.74 1023.53,-7.74"/>
</g>
<!-- Node28&#45;&gt;Node23 -->
<g id="edge32" class="edge">
<title>Node28&#45;&gt;Node23</title>
<path fill="none" stroke="midnightblue" d="M1745.8,-112.92C1711.22,-102.82 1652.34,-85.63 1617.26,-75.4"/>
<polygon fill="midnightblue" stroke="midnightblue" points="1618.2,-72.02 1607.62,-72.58 1616.23,-78.74 1618.2,-72.02"/>
</g>
<!-- Node29&#45;&gt;Node6 -->
<g id="edge35" class="edge">
<title>Node29&#45;&gt;Node6</title>
<path fill="none" stroke="midnightblue" d="M1126.62,-112.24C1123.25,-98.52 1114.95,-71.89 1098.5,-56 1077.8,-35.99 1046.88,-24.3 1023.59,-17.88"/>
<polygon fill="midnightblue" stroke="midnightblue" points="1024.37,-14.46 1013.82,-15.36 1022.63,-21.24 1024.37,-14.46"/>
</g>
<!-- Node29&#45;&gt;Node9 -->
<g id="edge34" class="edge">
<title>Node29&#45;&gt;Node9</title>
<path fill="none" stroke="midnightblue" d="M1101.7,-114.27C1064.61,-104.95 997.28,-88.04 954.02,-77.18"/>
<polygon fill="midnightblue" stroke="midnightblue" points="954.66,-73.73 944.11,-74.69 952.95,-80.52 954.66,-73.73"/>
</g>
<!-- Node29&#45;&gt;Node15 -->
<g id="edge36" class="edge">
<title>Node29&#45;&gt;Node15</title>
<path fill="none" stroke="midnightblue" d="M1119.42,-112.08C1111.33,-104.14 1099.3,-92.34 1089.59,-82.8"/>
<polygon fill="midnightblue" stroke="midnightblue" points="1092,-80.26 1082.41,-75.75 1087.1,-85.25 1092,-80.26"/>
</g>
<!-- Node29&#45;&gt;Node23 -->
<g id="edge37" class="edge">
<title>Node29&#45;&gt;Node23</title>
<path fill="none" stroke="midnightblue" d="M1155.15,-113.9C1158.29,-113.19 1161.46,-112.54 1164.5,-112 1311.52,-85.95 1490.09,-73.01 1559.22,-68.7"/>
<polygon fill="midnightblue" stroke="midnightblue" points="1559.58,-72.18 1569.35,-68.08 1559.16,-65.2 1559.58,-72.18"/>
</g>
<!-- Node31&#45;&gt;Node6 -->
<g id="edge39" class="edge">
<title>Node31&#45;&gt;Node6</title>
<path fill="none" stroke="midnightblue" d="M900.39,-112.4C916.03,-104.59 938.1,-91.86 953.5,-76 966.71,-62.4 977.14,-43.35 983.71,-29.38"/>
<polygon fill="midnightblue" stroke="midnightblue" points="987.08,-30.43 987.96,-19.87 980.69,-27.58 987.08,-30.43"/>
</g>
<!-- Node31&#45;&gt;Node7 -->
<g id="edge42" class="edge">
<title>Node31&#45;&gt;Node7</title>
<path fill="none" stroke="midnightblue" d="M843.81,-113.43C792.68,-103.17 701.83,-84.93 650.52,-74.63"/>
<polygon fill="midnightblue" stroke="midnightblue" points="651,-71.16 640.51,-72.62 649.62,-78.02 651,-71.16"/>
</g>
<!-- Node31&#45;&gt;Node8 -->
<g id="edge43" class="edge">
<title>Node31&#45;&gt;Node8</title>
<path fill="none" stroke="midnightblue" d="M866.88,-112.32C852.55,-103.82 830.49,-90.73 813.75,-80.8"/>
<polygon fill="midnightblue" stroke="midnightblue" points="815.47,-77.75 805.08,-75.65 811.9,-83.77 815.47,-77.75"/>
</g>
<!-- Node31&#45;&gt;Node15 -->
<g id="edge41" class="edge">
<title>Node31&#45;&gt;Node15</title>
<path fill="none" stroke="midnightblue" d="M911.92,-112.44C949.3,-101.93 1012.07,-84.28 1047.36,-74.35"/>
<polygon fill="midnightblue" stroke="midnightblue" points="1048.7,-77.61 1057.37,-71.54 1046.8,-70.87 1048.7,-77.61"/>
</g>
<!-- Node31&#45;&gt;Node23 -->
<g id="edge40" class="edge">
<title>Node31&#45;&gt;Node23</title>
<path fill="none" stroke="midnightblue" d="M919.15,-116.8C934.18,-115.19 951.65,-113.4 967.5,-112 1195.16,-91.84 1470.36,-74.29 1559.29,-68.78"/>
<polygon fill="midnightblue" stroke="midnightblue" points="1559.66,-72.27 1569.43,-68.16 1559.23,-65.28 1559.66,-72.27"/>
</g>
<!-- Node32&#45;&gt;Node6 -->
<g id="edge45" class="edge">
<title>Node32&#45;&gt;Node6</title>
<path fill="none" stroke="midnightblue" d="M1009.01,-112.37C1005.94,-94.62 998.87,-53.67 994.71,-29.6"/>
<polygon fill="midnightblue" stroke="midnightblue" points="998.14,-28.85 992.98,-19.59 991.24,-30.04 998.14,-28.85"/>
</g>
<!-- Node32&#45;&gt;Node15 -->
<g id="edge46" class="edge">
<title>Node32&#45;&gt;Node15</title>
<path fill="none" stroke="midnightblue" d="M1020.62,-112.32C1030.03,-104.26 1044.24,-92.08 1055.57,-82.37"/>
<polygon fill="midnightblue" stroke="midnightblue" points="1057.88,-85 1063.19,-75.83 1053.32,-79.68 1057.88,-85"/>
</g>
<!-- Node39&#45;&gt;Node2 -->
<g id="edge60" class="edge">
<title>Node39&#45;&gt;Node2</title>
<path fill="none" stroke="midnightblue" d="M1687.66,-112.08C1688.58,-104.93 1689.92,-94.64 1691.08,-85.69"/>
<polygon fill="midnightblue" stroke="midnightblue" points="1694.55,-86.12 1692.37,-75.75 1687.61,-85.22 1694.55,-86.12"/>
</g>
<!-- Node39&#45;&gt;Node6 -->
<g id="edge59" class="edge">
<title>Node39&#45;&gt;Node6</title>
<path fill="none" stroke="midnightblue" d="M1680.36,-112.31C1669.44,-97.66 1645.09,-68.43 1616.5,-56 1508.5,-9.04 1136.11,-9.33 1023.81,-10.53"/>
<polygon fill="midnightblue" stroke="midnightblue" points="1023.73,-7.03 1013.77,-10.65 1023.81,-14.03 1023.73,-7.03"/>
</g>
<!-- Node39&#45;&gt;Node15 -->
<g id="edge62" class="edge">
<title>Node39&#45;&gt;Node15</title>
<path fill="none" stroke="midnightblue" d="M1645.35,-113.26C1642.36,-112.8 1639.39,-112.37 1636.5,-112 1430.79,-85.33 1180.6,-72.01 1099.92,-68.19"/>
<polygon fill="midnightblue" stroke="midnightblue" points="1099.84,-64.68 1089.68,-67.71 1099.51,-71.67 1099.84,-64.68"/>
</g>
<!-- Node39&#45;&gt;Node23 -->
<g id="edge61" class="edge">
<title>Node39&#45;&gt;Node23</title>
<path fill="none" stroke="midnightblue" d="M1670.75,-112.32C1655.18,-103.74 1631.12,-90.49 1613.04,-80.52"/>
<polygon fill="midnightblue" stroke="midnightblue" points="1614.65,-77.42 1604.21,-75.65 1611.28,-83.55 1614.65,-77.42"/>
</g>
</g>
</svg>
