<?xml version="1.0" encoding="UTF-8" standalone="no"?>
<!DOCTYPE svg PUBLIC "-//W3C//DTD SVG 1.1//EN"
 "http://www.w3.org/Graphics/SVG/1.1/DTD/svg11.dtd">
<!-- Generated by graphviz version 2.43.0 (0)
 -->
<!-- Title: leanux::sysdevice::USBBus::getDescription Pages: 1 -->
<svg width="544pt" height="88pt"
 viewBox="0.00 0.00 544.00 88.00" xmlns="http://www.w3.org/2000/svg" xmlns:xlink="http://www.w3.org/1999/xlink">
<g id="graph0" class="graph" transform="scale(1 1) rotate(0) translate(4 84)">
<title>leanux::sysdevice::USBBus::getDescription</title>
<!-- Node1 -->
<g id="node1" class="node">
<title>Node1</title>
<g id="a_node1"><a xlink:title="Get a human readable description of this SysDevice.">
<polygon fill="#bfbfbf" stroke="black" points="0,-14 0,-44 132,-44 132,-14 0,-14"/>
<text text-anchor="start" x="8" y="-32" font-family="Helvetica,sans-Serif" font-size="10.00">leanux::sysdevice::</text>
<text text-anchor="middle" x="66" y="-21" font-family="Helvetica,sans-Serif" font-size="10.00">USBBus::getDescription</text>
</a>
</g>
</g>
<!-- Node2 -->
<g id="node2" class="node">
<title>Node2</title>
<g id="a_node2"><a xlink:href="../../d5/d9c/namespaceleanux_1_1usb.html#a40b22561354d4885b6abe9a59f952904" target="_top" xlink:title="Get the USBHardwareId from an USBDevicePath.">
<polygon fill="none" stroke="black" points="173,-38.5 173,-57.5 344,-57.5 344,-38.5 173,-38.5"/>
<text text-anchor="middle" x="258.5" y="-45.5" font-family="Helvetica,sans-Serif" font-size="10.00">leanux::usb::getUSBHardwareId</text>
</a>
</g>
</g>
<!-- Node1&#45;&gt;Node2 -->
<g id="edge1" class="edge">
<title>Node1&#45;&gt;Node2</title>
<path fill="none" stroke="midnightblue" d="M132.03,-35.49C141.99,-36.48 152.45,-37.52 162.9,-38.56"/>
<polygon fill="midnightblue" stroke="midnightblue" points="162.6,-42.05 172.89,-39.56 163.29,-35.09 162.6,-42.05"/>
</g>
<!-- Node5 -->
<g id="node5" class="node">
<title>Node5</title>
<g id="a_node5"><a xlink:href="../../d5/d9c/namespaceleanux_1_1usb.html#a72944e4549fc2c4adf4d01c2d467bb6a" target="_top" xlink:title="Translate an USBHardwareId into an USBHardwareInfo by using the system (/usr/share) usb....">
<polygon fill="none" stroke="black" points="168,-0.5 168,-19.5 349,-19.5 349,-0.5 168,-0.5"/>
<text text-anchor="middle" x="258.5" y="-7.5" font-family="Helvetica,sans-Serif" font-size="10.00">leanux::usb::getUSBHardwareInfo</text>
</a>
</g>
</g>
<!-- Node1&#45;&gt;Node5 -->
<g id="edge4" class="edge">
<title>Node1&#45;&gt;Node5</title>
<path fill="none" stroke="midnightblue" d="M132.03,-22.51C140.32,-21.69 148.95,-20.83 157.63,-19.96"/>
<polygon fill="midnightblue" stroke="midnightblue" points="158.22,-23.42 167.82,-18.94 157.53,-16.45 158.22,-23.42"/>
</g>
<!-- Node3 -->
<g id="node3" class="node">
<title>Node3</title>
<g id="a_node3"><a xlink:href="../../d8/db1/namespaceleanux_1_1util.html#a6421ca2c46c56eebe1a486c6a498ce7d" target="_top" xlink:title="Test if a file exists and can be read.">
<polygon fill="none" stroke="black" points="385,-60.5 385,-79.5 536,-79.5 536,-60.5 385,-60.5"/>
<text text-anchor="middle" x="460.5" y="-67.5" font-family="Helvetica,sans-Serif" font-size="10.00">leanux::util::fileReadAccess</text>
</a>
</g>
</g>
<!-- Node2&#45;&gt;Node3 -->
<g id="edge2" class="edge">
<title>Node2&#45;&gt;Node3</title>
<path fill="none" stroke="midnightblue" d="M344.03,-57.3C354.18,-58.42 364.56,-59.56 374.71,-60.67"/>
<polygon fill="midnightblue" stroke="midnightblue" points="374.46,-64.17 384.78,-61.78 375.23,-57.21 374.46,-64.17"/>
</g>
<!-- Node4 -->
<g id="node4" class="node">
<title>Node4</title>
<g id="a_node4"><a xlink:href="../../d8/db1/namespaceleanux_1_1util.html#a7efa8c5cecc9bb8beada58ee60fa71c4" target="_top" xlink:title="read the first data in the file as a hexadecimal string representation of a signed long.">
<polygon fill="none" stroke="black" points="392,-11 392,-41 529,-41 529,-11 392,-11"/>
<text text-anchor="start" x="400" y="-29" font-family="Helvetica,sans-Serif" font-size="10.00">leanux::util::fileReadHex</text>
<text text-anchor="middle" x="460.5" y="-18" font-family="Helvetica,sans-Serif" font-size="10.00">String</text>
</a>
</g>
</g>
<!-- Node2&#45;&gt;Node4 -->
<g id="edge3" class="edge">
<title>Node2&#45;&gt;Node4</title>
<path fill="none" stroke="midnightblue" d="M344.03,-38.7C356.52,-37.33 369.35,-35.92 381.69,-34.56"/>
<polygon fill="midnightblue" stroke="midnightblue" points="382.38,-38 391.94,-33.43 381.61,-31.05 382.38,-38"/>
</g>
</g>
</svg>
