<?xml version="1.0" encoding="UTF-8" standalone="no"?>
<!DOCTYPE svg PUBLIC "-//W3C//DTD SVG 1.1//EN"
 "http://www.w3.org/Graphics/SVG/1.1/DTD/svg11.dtd">
<!-- Generated by graphviz version 2.43.0 (0)
 -->
<!-- Title: leanux::sysdevice::USBBus::getPropertyValueList Pages: 1 -->
<svg width="574pt" height="225pt"
 viewBox="0.00 0.00 574.00 225.00" xmlns="http://www.w3.org/2000/svg" xmlns:xlink="http://www.w3.org/1999/xlink">
<g id="graph0" class="graph" transform="scale(1 1) rotate(0) translate(4 221)">
<title>leanux::sysdevice::USBBus::getPropertyValueList</title>
<!-- Node1 -->
<g id="node1" class="node">
<title>Node1</title>
<g id="a_node1"><a xlink:title=" ">
<polygon fill="#bfbfbf" stroke="black" points="0,-44.5 0,-74.5 162,-74.5 162,-44.5 0,-44.5"/>
<text text-anchor="start" x="8" y="-62.5" font-family="Helvetica,sans-Serif" font-size="10.00">leanux::sysdevice::</text>
<text text-anchor="middle" x="81" y="-51.5" font-family="Helvetica,sans-Serif" font-size="10.00">USBBus::getPropertyValueList</text>
</a>
</g>
</g>
<!-- Node2 -->
<g id="node2" class="node">
<title>Node2</title>
<g id="a_node2"><a xlink:href="../../d1/d02/classleanux_1_1sysdevice_1_1SysDevice.html#ae45d4c50b05a48b480911a1aaeaeacc1" target="_top" xlink:title=" ">
<polygon fill="none" stroke="black" points="201,-112.5 201,-142.5 376,-142.5 376,-112.5 201,-112.5"/>
<text text-anchor="start" x="209" y="-130.5" font-family="Helvetica,sans-Serif" font-size="10.00">leanux::sysdevice::</text>
<text text-anchor="middle" x="288.5" y="-119.5" font-family="Helvetica,sans-Serif" font-size="10.00">SysDevice::getPropertyValueList</text>
</a>
</g>
</g>
<!-- Node1&#45;&gt;Node2 -->
<g id="edge1" class="edge">
<title>Node1&#45;&gt;Node2</title>
<path fill="none" stroke="midnightblue" d="M127.35,-74.51C158.2,-84.72 199.22,-98.29 232.01,-109.14"/>
<polygon fill="midnightblue" stroke="midnightblue" points="231.32,-112.6 241.91,-112.41 233.51,-105.95 231.32,-112.6"/>
</g>
<!-- Node8 -->
<g id="node6" class="node">
<title>Node8</title>
<g id="a_node6"><a xlink:href="../../d5/d9c/namespaceleanux_1_1usb.html#a40b22561354d4885b6abe9a59f952904" target="_top" xlink:title="Get the USBHardwareId from an USBDevicePath.">
<polygon fill="none" stroke="black" points="203,-50 203,-69 374,-69 374,-50 203,-50"/>
<text text-anchor="middle" x="288.5" y="-57" font-family="Helvetica,sans-Serif" font-size="10.00">leanux::usb::getUSBHardwareId</text>
</a>
</g>
</g>
<!-- Node1&#45;&gt;Node8 -->
<g id="edge5" class="edge">
<title>Node1&#45;&gt;Node8</title>
<path fill="none" stroke="midnightblue" d="M162.04,-59.5C172.1,-59.5 182.46,-59.5 192.72,-59.5"/>
<polygon fill="midnightblue" stroke="midnightblue" points="192.93,-63 202.93,-59.5 192.93,-56 192.93,-63"/>
</g>
<!-- Node11 -->
<g id="node9" class="node">
<title>Node11</title>
<g id="a_node9"><a xlink:href="../../d5/d9c/namespaceleanux_1_1usb.html#a72944e4549fc2c4adf4d01c2d467bb6a" target="_top" xlink:title="Translate an USBHardwareId into an USBHardwareInfo by using the system (/usr/share) usb....">
<polygon fill="none" stroke="black" points="198,-12 198,-31 379,-31 379,-12 198,-12"/>
<text text-anchor="middle" x="288.5" y="-19" font-family="Helvetica,sans-Serif" font-size="10.00">leanux::usb::getUSBHardwareInfo</text>
</a>
</g>
</g>
<!-- Node1&#45;&gt;Node11 -->
<g id="edge8" class="edge">
<title>Node1&#45;&gt;Node11</title>
<path fill="none" stroke="midnightblue" d="M162.04,-44.7C183.35,-40.76 206.02,-36.57 226.16,-32.84"/>
<polygon fill="midnightblue" stroke="midnightblue" points="226.93,-36.26 236.12,-31 225.65,-29.38 226.93,-36.26"/>
</g>
<!-- Node3 -->
<g id="node3" class="node">
<title>Node3</title>
<g id="a_node3"><a xlink:href="../../d1/d02/classleanux_1_1sysdevice_1_1SysDevice.html#af93bf56dfb812cdfa443dcfaffcbbb25" target="_top" xlink:title="Get the device class for this device.">
<polygon fill="none" stroke="black" points="432.5,-186.5 432.5,-216.5 548.5,-216.5 548.5,-186.5 432.5,-186.5"/>
<text text-anchor="start" x="440.5" y="-204.5" font-family="Helvetica,sans-Serif" font-size="10.00">leanux::sysdevice::</text>
<text text-anchor="middle" x="490.5" y="-193.5" font-family="Helvetica,sans-Serif" font-size="10.00">SysDevice::getClass</text>
</a>
</g>
</g>
<!-- Node2&#45;&gt;Node3 -->
<g id="edge2" class="edge">
<title>Node2&#45;&gt;Node3</title>
<path fill="none" stroke="midnightblue" d="M325.5,-142.59C350.46,-152.87 384.55,-166.54 415,-177.5 420.41,-179.45 426.06,-181.4 431.73,-183.31"/>
<polygon fill="midnightblue" stroke="midnightblue" points="430.65,-186.65 441.25,-186.48 432.86,-180 430.65,-186.65"/>
</g>
<!-- Node4 -->
<g id="node4" class="node">
<title>Node4</title>
<g id="a_node4"><a xlink:href="../../d1/d02/classleanux_1_1sysdevice_1_1SysDevice.html#af7a1af7a4b7729e150cceed395e4425b" target="_top" xlink:title="Get the driver for this device.">
<polygon fill="none" stroke="red" points="431,-137.5 431,-167.5 550,-167.5 550,-137.5 431,-137.5"/>
<text text-anchor="start" x="439" y="-155.5" font-family="Helvetica,sans-Serif" font-size="10.00">leanux::sysdevice::</text>
<text text-anchor="middle" x="490.5" y="-144.5" font-family="Helvetica,sans-Serif" font-size="10.00">SysDevice::getDriver</text>
</a>
</g>
</g>
<!-- Node2&#45;&gt;Node4 -->
<g id="edge3" class="edge">
<title>Node2&#45;&gt;Node4</title>
<path fill="none" stroke="midnightblue" d="M376.06,-138.32C390.93,-140.18 406.2,-142.09 420.52,-143.88"/>
<polygon fill="midnightblue" stroke="midnightblue" points="420.41,-147.39 430.77,-145.16 421.28,-140.45 420.41,-147.39"/>
</g>
<!-- Node7 -->
<g id="node5" class="node">
<title>Node7</title>
<g id="a_node5"><a xlink:href="../../d1/d02/classleanux_1_1sysdevice_1_1SysDevice.html#a899968c4a70ecad67694f6850cf730fd" target="_top" xlink:title="Get a string representation for the SysDeviceType.">
<polygon fill="none" stroke="black" points="428,-88.5 428,-118.5 553,-118.5 553,-88.5 428,-88.5"/>
<text text-anchor="start" x="436" y="-106.5" font-family="Helvetica,sans-Serif" font-size="10.00">leanux::sysdevice::</text>
<text text-anchor="middle" x="490.5" y="-95.5" font-family="Helvetica,sans-Serif" font-size="10.00">SysDevice::getTypeStr</text>
</a>
</g>
</g>
<!-- Node2&#45;&gt;Node7 -->
<g id="edge4" class="edge">
<title>Node2&#45;&gt;Node7</title>
<path fill="none" stroke="midnightblue" d="M376.06,-117.11C389.94,-115.45 404.17,-113.74 417.66,-112.12"/>
<polygon fill="midnightblue" stroke="midnightblue" points="418.3,-115.57 427.81,-110.9 417.47,-108.62 418.3,-115.57"/>
</g>
<!-- Node9 -->
<g id="node7" class="node">
<title>Node9</title>
<g id="a_node7"><a xlink:href="../../d8/db1/namespaceleanux_1_1util.html#a6421ca2c46c56eebe1a486c6a498ce7d" target="_top" xlink:title="Test if a file exists and can be read.">
<polygon fill="none" stroke="black" points="415,-50 415,-69 566,-69 566,-50 415,-50"/>
<text text-anchor="middle" x="490.5" y="-57" font-family="Helvetica,sans-Serif" font-size="10.00">leanux::util::fileReadAccess</text>
</a>
</g>
</g>
<!-- Node8&#45;&gt;Node9 -->
<g id="edge6" class="edge">
<title>Node8&#45;&gt;Node9</title>
<path fill="none" stroke="midnightblue" d="M374.03,-59.5C384.18,-59.5 394.56,-59.5 404.71,-59.5"/>
<polygon fill="midnightblue" stroke="midnightblue" points="404.78,-63 414.78,-59.5 404.78,-56 404.78,-63"/>
</g>
<!-- Node10 -->
<g id="node8" class="node">
<title>Node10</title>
<g id="a_node8"><a xlink:href="../../d8/db1/namespaceleanux_1_1util.html#a7efa8c5cecc9bb8beada58ee60fa71c4" target="_top" xlink:title="read the first data in the file as a hexadecimal string representation of a signed long.">
<polygon fill="none" stroke="black" points="422,-0.5 422,-30.5 559,-30.5 559,-0.5 422,-0.5"/>
<text text-anchor="start" x="430" y="-18.5" font-family="Helvetica,sans-Serif" font-size="10.00">leanux::util::fileReadHex</text>
<text text-anchor="middle" x="490.5" y="-7.5" font-family="Helvetica,sans-Serif" font-size="10.00">String</text>
</a>
</g>
</g>
<!-- Node8&#45;&gt;Node10 -->
<g id="edge7" class="edge">
<title>Node8&#45;&gt;Node10</title>
<path fill="none" stroke="midnightblue" d="M335.06,-49.95C349.15,-46.96 364.73,-43.63 379,-40.5 390.33,-38.02 402.31,-35.35 414.03,-32.72"/>
<polygon fill="midnightblue" stroke="midnightblue" points="414.81,-36.13 423.8,-30.52 413.27,-29.3 414.81,-36.13"/>
</g>
</g>
</svg>
