<?xml version="1.0" encoding="UTF-8" standalone="no"?>
<!DOCTYPE svg PUBLIC "-//W3C//DTD SVG 1.1//EN"
 "http://www.w3.org/Graphics/SVG/1.1/DTD/svg11.dtd">
<!-- Generated by graphviz version 2.43.0 (0)
 -->
<!-- Title: leanux::sysdevice::enumSCSIHostDevices Pages: 1 -->
<svg width="423pt" height="39pt"
 viewBox="0.00 0.00 423.00 39.00" xmlns="http://www.w3.org/2000/svg" xmlns:xlink="http://www.w3.org/1999/xlink">
<g id="graph0" class="graph" transform="scale(1 1) rotate(0) translate(4 35)">
<title>leanux::sysdevice::enumSCSIHostDevices</title>
<!-- Node1 -->
<g id="node1" class="node">
<title>Node1</title>
<g id="a_node1"><a xlink:title="Enumerate all SCSI host devices.">
<polygon fill="#bfbfbf" stroke="black" points="287,-0.5 287,-30.5 415,-30.5 415,-0.5 287,-0.5"/>
<text text-anchor="start" x="295" y="-18.5" font-family="Helvetica,sans-Serif" font-size="10.00">leanux::sysdevice::</text>
<text text-anchor="middle" x="351" y="-7.5" font-family="Helvetica,sans-Serif" font-size="10.00">enumSCSIHostDevices</text>
</a>
</g>
</g>
<!-- Node2 -->
<g id="node2" class="node">
<title>Node2</title>
<g id="a_node2"><a xlink:href="../../d3/d83/namespaceleanux_1_1sysdevice.html#aa4d04a4d3dc09edd32e7aa6426bca203" target="_top" xlink:title="Enumerate all devices.">
<polygon fill="none" stroke="black" points="141,-0.5 141,-30.5 251,-30.5 251,-0.5 141,-0.5"/>
<text text-anchor="start" x="149" y="-18.5" font-family="Helvetica,sans-Serif" font-size="10.00">leanux::sysdevice::</text>
<text text-anchor="middle" x="196" y="-7.5" font-family="Helvetica,sans-Serif" font-size="10.00">enumDevices</text>
</a>
</g>
</g>
<!-- Node1&#45;&gt;Node2 -->
<g id="edge1" class="edge">
<title>Node1&#45;&gt;Node2</title>
<path fill="none" stroke="midnightblue" d="M276.81,-15.5C268.17,-15.5 259.49,-15.5 251.18,-15.5"/>
<polygon fill="midnightblue" stroke="midnightblue" points="276.89,-19 286.89,-15.5 276.89,-12 276.89,-19"/>
</g>
<!-- Node3 -->
<g id="node3" class="node">
<title>Node3</title>
<g id="a_node3"><a xlink:href="../../d9/d1f/namespaceleanux_1_1tools_1_1lsys.html#a33a75c6955dcd3ac89c9a6f86a0a1337" target="_top" xlink:title="Run based on options.">
<polygon fill="none" stroke="red" points="0,-0.5 0,-30.5 105,-30.5 105,-0.5 0,-0.5"/>
<text text-anchor="start" x="8" y="-18.5" font-family="Helvetica,sans-Serif" font-size="10.00">leanux::tools::lsys</text>
<text text-anchor="middle" x="52.5" y="-7.5" font-family="Helvetica,sans-Serif" font-size="10.00">::runOptions</text>
</a>
</g>
</g>
<!-- Node2&#45;&gt;Node3 -->
<g id="edge2" class="edge">
<title>Node2&#45;&gt;Node3</title>
<path fill="none" stroke="midnightblue" d="M130.43,-15.5C121.94,-15.5 113.33,-15.5 105.1,-15.5"/>
<polygon fill="midnightblue" stroke="midnightblue" points="130.7,-19 140.7,-15.5 130.7,-12 130.7,-19"/>
</g>
</g>
</svg>
