<?xml version="1.0" encoding="UTF-8" standalone="no"?>
<!DOCTYPE svg PUBLIC "-//W3C//DTD SVG 1.1//EN"
 "http://www.w3.org/Graphics/SVG/1.1/DTD/svg11.dtd">
<!-- Generated by graphviz version 2.43.0 (0)
 -->
<!-- Title: leanux::sysdevice::treeDetect Pages: 1 -->
<svg width="400pt" height="137pt"
 viewBox="0.00 0.00 400.00 137.00" xmlns="http://www.w3.org/2000/svg" xmlns:xlink="http://www.w3.org/1999/xlink">
<g id="graph0" class="graph" transform="scale(1 1) rotate(0) translate(4 133)">
<title>leanux::sysdevice::treeDetect</title>
<!-- Node1 -->
<g id="node1" class="node">
<title>Node1</title>
<g id="a_node1"><a xlink:title="populates devices with the devices detected in path.">
<polygon fill="#bfbfbf" stroke="black" points="282,-49.5 282,-79.5 392,-79.5 392,-49.5 282,-49.5"/>
<text text-anchor="start" x="290" y="-67.5" font-family="Helvetica,sans-Serif" font-size="10.00">leanux::sysdevice::</text>
<text text-anchor="middle" x="337" y="-56.5" font-family="Helvetica,sans-Serif" font-size="10.00">treeDetect</text>
</a>
</g>
</g>
<!-- Node2 -->
<g id="node2" class="node">
<title>Node2</title>
<g id="a_node2"><a xlink:href="../../d5/d1b/namespaceleanux_1_1tools_1_1lblk.html#ade16c362a9900ba9267433bf57da42ce" target="_top" xlink:title="Write disk details.">
<polygon fill="none" stroke="black" points="141.5,-98.5 141.5,-128.5 245.5,-128.5 245.5,-98.5 141.5,-98.5"/>
<text text-anchor="start" x="149.5" y="-116.5" font-family="Helvetica,sans-Serif" font-size="10.00">leanux::tools::lblk</text>
<text text-anchor="middle" x="193.5" y="-105.5" font-family="Helvetica,sans-Serif" font-size="10.00">::detailDisk</text>
</a>
</g>
</g>
<!-- Node1&#45;&gt;Node2 -->
<g id="edge1" class="edge">
<title>Node1&#45;&gt;Node2</title>
<path fill="none" stroke="midnightblue" d="M282.9,-82.89C268.16,-87.99 252.34,-93.47 238.21,-98.36"/>
<polygon fill="midnightblue" stroke="midnightblue" points="284.09,-86.18 292.39,-79.6 281.8,-79.57 284.09,-86.18"/>
</g>
<!-- Node6 -->
<g id="node4" class="node">
<title>Node6</title>
<g id="a_node4"><a xlink:href="../../d6/dd3/namespaceleanux_1_1tools_1_1lrep.html#ab9b4bc8a1806ab977597271e15f34c11" target="_top" xlink:title=" ">
<polygon fill="none" stroke="black" points="141.5,-49.5 141.5,-79.5 245.5,-79.5 245.5,-49.5 141.5,-49.5"/>
<text text-anchor="start" x="149.5" y="-67.5" font-family="Helvetica,sans-Serif" font-size="10.00">leanux::tools::lrep</text>
<text text-anchor="middle" x="193.5" y="-56.5" font-family="Helvetica,sans-Serif" font-size="10.00">::htmlDiskDetails</text>
</a>
</g>
</g>
<!-- Node1&#45;&gt;Node6 -->
<g id="edge3" class="edge">
<title>Node1&#45;&gt;Node6</title>
<path fill="none" stroke="midnightblue" d="M271.58,-64.5C262.88,-64.5 254.06,-64.5 245.63,-64.5"/>
<polygon fill="midnightblue" stroke="midnightblue" points="271.7,-68 281.7,-64.5 271.7,-61 271.7,-68"/>
</g>
<!-- Node9 -->
<g id="node6" class="node">
<title>Node9</title>
<g id="a_node6"><a xlink:href="../../d9/d1f/namespaceleanux_1_1tools_1_1lsys.html#a33d815e2817f56776217177ef1016d8c" target="_top" xlink:title=" ">
<polygon fill="none" stroke="black" points="141,-0.5 141,-30.5 246,-30.5 246,-0.5 141,-0.5"/>
<text text-anchor="start" x="149" y="-18.5" font-family="Helvetica,sans-Serif" font-size="10.00">leanux::tools::lsys</text>
<text text-anchor="middle" x="193.5" y="-7.5" font-family="Helvetica,sans-Serif" font-size="10.00">::sysfsTree</text>
</a>
</g>
</g>
<!-- Node1&#45;&gt;Node9 -->
<g id="edge5" class="edge">
<title>Node1&#45;&gt;Node9</title>
<path fill="none" stroke="midnightblue" d="M282.9,-46.11C268.16,-41.01 252.34,-35.53 238.21,-30.64"/>
<polygon fill="midnightblue" stroke="midnightblue" points="281.8,-49.43 292.39,-49.4 284.09,-42.82 281.8,-49.43"/>
</g>
<!-- Node3 -->
<g id="node3" class="node">
<title>Node3</title>
<g id="a_node3"><a xlink:href="../../d5/d1b/namespaceleanux_1_1tools_1_1lblk.html#aafee1346a1081bfa4f7470f921cd66b8" target="_top" xlink:title="Direct output run from options.">
<polygon fill="none" stroke="red" points="0.5,-98.5 0.5,-128.5 104.5,-128.5 104.5,-98.5 0.5,-98.5"/>
<text text-anchor="start" x="8.5" y="-116.5" font-family="Helvetica,sans-Serif" font-size="10.00">leanux::tools::lblk</text>
<text text-anchor="middle" x="52.5" y="-105.5" font-family="Helvetica,sans-Serif" font-size="10.00">::runOptions</text>
</a>
</g>
</g>
<!-- Node2&#45;&gt;Node3 -->
<g id="edge2" class="edge">
<title>Node2&#45;&gt;Node3</title>
<path fill="none" stroke="midnightblue" d="M130.94,-113.5C122.16,-113.5 113.21,-113.5 104.65,-113.5"/>
<polygon fill="midnightblue" stroke="midnightblue" points="131.14,-117 141.14,-113.5 131.14,-110 131.14,-117"/>
</g>
<!-- Node7 -->
<g id="node5" class="node">
<title>Node7</title>
<g id="a_node5"><a xlink:href="../../d6/dd3/namespaceleanux_1_1tools_1_1lrep.html#aa0e1422d8d75831ea3801ffa728bf436" target="_top" xlink:title=" ">
<polygon fill="none" stroke="red" points="0.5,-49.5 0.5,-79.5 104.5,-79.5 104.5,-49.5 0.5,-49.5"/>
<text text-anchor="start" x="8.5" y="-67.5" font-family="Helvetica,sans-Serif" font-size="10.00">leanux::tools::lrep</text>
<text text-anchor="middle" x="52.5" y="-56.5" font-family="Helvetica,sans-Serif" font-size="10.00">::main</text>
</a>
</g>
</g>
<!-- Node6&#45;&gt;Node7 -->
<g id="edge4" class="edge">
<title>Node6&#45;&gt;Node7</title>
<path fill="none" stroke="midnightblue" d="M130.94,-64.5C122.16,-64.5 113.21,-64.5 104.65,-64.5"/>
<polygon fill="midnightblue" stroke="midnightblue" points="131.14,-68 141.14,-64.5 131.14,-61 131.14,-68"/>
</g>
<!-- Node10 -->
<g id="node7" class="node">
<title>Node10</title>
<g id="a_node7"><a xlink:href="../../d9/d1f/namespaceleanux_1_1tools_1_1lsys.html#a33a75c6955dcd3ac89c9a6f86a0a1337" target="_top" xlink:title="Run based on options.">
<polygon fill="none" stroke="red" points="0,-0.5 0,-30.5 105,-30.5 105,-0.5 0,-0.5"/>
<text text-anchor="start" x="8" y="-18.5" font-family="Helvetica,sans-Serif" font-size="10.00">leanux::tools::lsys</text>
<text text-anchor="middle" x="52.5" y="-7.5" font-family="Helvetica,sans-Serif" font-size="10.00">::runOptions</text>
</a>
</g>
</g>
<!-- Node9&#45;&gt;Node10 -->
<g id="edge6" class="edge">
<title>Node9&#45;&gt;Node10</title>
<path fill="none" stroke="midnightblue" d="M130.56,-15.5C122.12,-15.5 113.53,-15.5 105.3,-15.5"/>
<polygon fill="midnightblue" stroke="midnightblue" points="130.74,-19 140.74,-15.5 130.74,-12 130.74,-19"/>
</g>
</g>
</svg>
