<?xml version="1.0" encoding="UTF-8" standalone="no"?>
<!DOCTYPE svg PUBLIC "-//W3C//DTD SVG 1.1//EN"
 "http://www.w3.org/Graphics/SVG/1.1/DTD/svg11.dtd">
<!-- Generated by graphviz version 2.43.0 (0)
 -->
<!-- Title: leanux::process::getProcPidStat Pages: 1 -->
<svg width="706pt" height="273pt"
 viewBox="0.00 0.00 706.00 273.21" xmlns="http://www.w3.org/2000/svg" xmlns:xlink="http://www.w3.org/1999/xlink">
<g id="graph0" class="graph" transform="scale(1 1) rotate(0) translate(4 269.21)">
<title>leanux::process::getProcPidStat</title>
<!-- Node1 -->
<g id="node1" class="node">
<title>Node1</title>
<g id="a_node1"><a xlink:title="Get the ProcPidStat for the pid.">
<polygon fill="#bfbfbf" stroke="black" points="562,-146.5 562,-176.5 698,-176.5 698,-146.5 562,-146.5"/>
<text text-anchor="start" x="570" y="-164.5" font-family="Helvetica,sans-Serif" font-size="10.00">leanux::process::getProc</text>
<text text-anchor="middle" x="630" y="-153.5" font-family="Helvetica,sans-Serif" font-size="10.00">PidStat</text>
</a>
</g>
</g>
<!-- Node2 -->
<g id="node2" class="node">
<title>Node2</title>
<g id="a_node2"><a xlink:href="../../d4/d62/namespaceleanux_1_1tools_1_1lard.html#aee987aaaf44a4832b535ecf78065d963" target="_top" xlink:title=" ">
<polygon fill="none" stroke="black" points="399.5,-205.5 399.5,-235.5 503.5,-235.5 503.5,-205.5 399.5,-205.5"/>
<text text-anchor="start" x="407.5" y="-223.5" font-family="Helvetica,sans-Serif" font-size="10.00">leanux::tools::lard</text>
<text text-anchor="middle" x="451.5" y="-212.5" font-family="Helvetica,sans-Serif" font-size="10.00">::ensureSinglePid</text>
</a>
</g>
</g>
<!-- Node1&#45;&gt;Node2 -->
<g id="edge1" class="edge">
<title>Node1&#45;&gt;Node2</title>
<path fill="none" stroke="midnightblue" d="M574.41,-179.75C549.69,-188.01 520.84,-197.65 497.41,-205.49"/>
<polygon fill="midnightblue" stroke="midnightblue" points="575.63,-183.03 584,-176.54 573.41,-176.39 575.63,-183.03"/>
</g>
<!-- Node6 -->
<g id="node4" class="node">
<title>Node6</title>
<g id="a_node4"><a xlink:href="../../d9/d34/namespaceleanux_1_1process.html#a385cafe09f0dc82ce8a830124665d69d" target="_top" xlink:title="Get a snapshot of all pids (seen as /proc/PID) into a std::map keyed by pid_t.">
<polygon fill="none" stroke="black" points="377,-122.5 377,-152.5 526,-152.5 526,-122.5 377,-122.5"/>
<text text-anchor="start" x="385" y="-140.5" font-family="Helvetica,sans-Serif" font-size="10.00">leanux::process::getAllProc</text>
<text text-anchor="middle" x="451.5" y="-129.5" font-family="Helvetica,sans-Serif" font-size="10.00">PidStat</text>
</a>
</g>
</g>
<!-- Node1&#45;&gt;Node6 -->
<g id="edge3" class="edge">
<title>Node1&#45;&gt;Node6</title>
<path fill="none" stroke="midnightblue" d="M551.8,-151C543.24,-149.84 534.53,-148.65 526.02,-147.5"/>
<polygon fill="midnightblue" stroke="midnightblue" points="551.39,-154.48 561.77,-152.36 552.33,-147.54 551.39,-154.48"/>
</g>
<!-- Node3 -->
<g id="node3" class="node">
<title>Node3</title>
<g id="a_node3"><a xlink:href="../../d4/d62/namespaceleanux_1_1tools_1_1lard.html#a6de74bbef1d571bf7eb000e62900a11d" target="_top" xlink:title=" ">
<polygon fill="none" stroke="red" points="0,-49.5 0,-79.5 104,-79.5 104,-49.5 0,-49.5"/>
<text text-anchor="start" x="8" y="-67.5" font-family="Helvetica,sans-Serif" font-size="10.00">leanux::tools::lard</text>
<text text-anchor="middle" x="52" y="-56.5" font-family="Helvetica,sans-Serif" font-size="10.00">::mainLoop</text>
</a>
</g>
</g>
<!-- Node2&#45;&gt;Node3 -->
<g id="edge2" class="edge">
<title>Node2&#45;&gt;Node3</title>
<path fill="none" stroke="midnightblue" d="M402.16,-238.8C337.3,-260.05 220.91,-286.25 140,-236.5 82.42,-201.1 61.54,-114.47 55.29,-79.5"/>
<polygon fill="midnightblue" stroke="midnightblue" points="403.37,-242.09 411.73,-235.58 401.13,-235.45 403.37,-242.09"/>
</g>
<!-- Node7 -->
<g id="node5" class="node">
<title>Node7</title>
<g id="a_node5"><a xlink:href="../../d9/d34/namespaceleanux_1_1process.html#af0c8e37dbbfb1b7d7efb8aa7892d568d" target="_top" xlink:title="return all pids with specified comm (executable image) into stats">
<polygon fill="none" stroke="black" points="171.5,-196.5 171.5,-226.5 309.5,-226.5 309.5,-196.5 171.5,-196.5"/>
<text text-anchor="start" x="179.5" y="-214.5" font-family="Helvetica,sans-Serif" font-size="10.00">leanux::process::findProc</text>
<text text-anchor="middle" x="240.5" y="-203.5" font-family="Helvetica,sans-Serif" font-size="10.00">ByComm</text>
</a>
</g>
</g>
<!-- Node6&#45;&gt;Node7 -->
<g id="edge4" class="edge">
<title>Node6&#45;&gt;Node7</title>
<path fill="none" stroke="midnightblue" d="M412.29,-157.14C391.58,-167.21 365.32,-179.1 341,-187.5 331.01,-190.95 320.28,-194.09 309.71,-196.89"/>
<polygon fill="midnightblue" stroke="midnightblue" points="413.96,-160.21 421.38,-152.65 410.87,-153.93 413.96,-160.21"/>
</g>
<!-- Node8 -->
<g id="node6" class="node">
<title>Node8</title>
<g id="a_node6"><a xlink:href="../../d9/d34/namespaceleanux_1_1process.html#a670ad342b1dd7423a5882b43e31b72c0" target="_top" xlink:title="return all pids with specified uid.">
<polygon fill="none" stroke="black" points="171.5,-147.5 171.5,-177.5 309.5,-177.5 309.5,-147.5 171.5,-147.5"/>
<text text-anchor="start" x="179.5" y="-165.5" font-family="Helvetica,sans-Serif" font-size="10.00">leanux::process::findProc</text>
<text text-anchor="middle" x="240.5" y="-154.5" font-family="Helvetica,sans-Serif" font-size="10.00">ByUid</text>
</a>
</g>
</g>
<!-- Node6&#45;&gt;Node8 -->
<g id="edge5" class="edge">
<title>Node6&#45;&gt;Node8</title>
<path fill="none" stroke="midnightblue" d="M366.7,-147.52C347.75,-149.79 327.85,-152.17 309.63,-154.35"/>
<polygon fill="midnightblue" stroke="midnightblue" points="367.3,-150.98 376.81,-146.31 366.47,-144.03 367.3,-150.98"/>
</g>
<!-- Node9 -->
<g id="node7" class="node">
<title>Node9</title>
<g id="a_node7"><a xlink:href="../../da/d21/classleanux_1_1tools_1_1lmon_1_1RealtimeSampler.html#af80582780bfa40a11a40e647f9657d0f" target="_top" xlink:title=" ">
<polygon fill="none" stroke="red" points="140,-98.5 140,-128.5 341,-128.5 341,-98.5 140,-98.5"/>
<text text-anchor="start" x="148" y="-116.5" font-family="Helvetica,sans-Serif" font-size="10.00">leanux::tools::lmon</text>
<text text-anchor="middle" x="240.5" y="-105.5" font-family="Helvetica,sans-Serif" font-size="10.00">::RealtimeSampler::sampleXProcView</text>
</a>
</g>
</g>
<!-- Node6&#45;&gt;Node9 -->
<g id="edge6" class="edge">
<title>Node6&#45;&gt;Node9</title>
<path fill="none" stroke="midnightblue" d="M366.7,-127.88C358.33,-126.92 349.77,-125.93 341.25,-124.95"/>
<polygon fill="midnightblue" stroke="midnightblue" points="366.48,-131.37 376.81,-129.04 367.28,-124.42 366.48,-131.37"/>
</g>
<!-- Node15 -->
<g id="node8" class="node">
<title>Node15</title>
<g id="a_node8"><a xlink:href="../../d4/d0e/classleanux_1_1tools_1_1lard_1_1ProcSnap.html#ab54043cba9664efa3321d9456c9bb3a0" target="_top" xlink:title=" ">
<polygon fill="none" stroke="black" points="180.5,-49.5 180.5,-79.5 300.5,-79.5 300.5,-49.5 180.5,-49.5"/>
<text text-anchor="start" x="188.5" y="-67.5" font-family="Helvetica,sans-Serif" font-size="10.00">leanux::tools::lard</text>
<text text-anchor="middle" x="240.5" y="-56.5" font-family="Helvetica,sans-Serif" font-size="10.00">::ProcSnap::startSnap</text>
</a>
</g>
</g>
<!-- Node6&#45;&gt;Node15 -->
<g id="edge7" class="edge">
<title>Node6&#45;&gt;Node15</title>
<path fill="none" stroke="midnightblue" d="M410.58,-118.08C390.1,-108.61 364.57,-97.56 341,-89.5 328.11,-85.09 314.04,-81.08 300.64,-77.63"/>
<polygon fill="midnightblue" stroke="midnightblue" points="409.36,-121.37 419.9,-122.44 412.32,-115.03 409.36,-121.37"/>
</g>
<!-- Node16 -->
<g id="node9" class="node">
<title>Node16</title>
<g id="a_node9"><a xlink:href="../../d4/d0e/classleanux_1_1tools_1_1lard_1_1ProcSnap.html#a2922f8c93498c97d1b47ec2e6b7d817d" target="_top" xlink:title=" ">
<polygon fill="none" stroke="black" points="181,-0.5 181,-30.5 300,-30.5 300,-0.5 181,-0.5"/>
<text text-anchor="start" x="189" y="-18.5" font-family="Helvetica,sans-Serif" font-size="10.00">leanux::tools::lard</text>
<text text-anchor="middle" x="240.5" y="-7.5" font-family="Helvetica,sans-Serif" font-size="10.00">::ProcSnap::stopSnap</text>
</a>
</g>
</g>
<!-- Node6&#45;&gt;Node16 -->
<g id="edge9" class="edge">
<title>Node6&#45;&gt;Node16</title>
<path fill="none" stroke="midnightblue" d="M431.22,-114.63C411.01,-92.14 377.21,-58.51 341,-39.5 328.41,-32.89 313.98,-28.07 300.07,-24.57"/>
<polygon fill="midnightblue" stroke="midnightblue" points="428.79,-117.17 438.03,-122.36 434.05,-112.54 428.79,-117.17"/>
</g>
<!-- Node15&#45;&gt;Node3 -->
<g id="edge8" class="edge">
<title>Node15&#45;&gt;Node3</title>
<path fill="none" stroke="midnightblue" d="M170.24,-64.5C148.31,-64.5 124.49,-64.5 104.09,-64.5"/>
<polygon fill="midnightblue" stroke="midnightblue" points="170.49,-68 180.49,-64.5 170.49,-61 170.49,-68"/>
</g>
<!-- Node16&#45;&gt;Node3 -->
<g id="edge10" class="edge">
<title>Node16&#45;&gt;Node3</title>
<path fill="none" stroke="midnightblue" d="M171.08,-31.59C160.65,-34.16 150.03,-36.85 140,-39.5 128.3,-42.59 115.77,-46.08 103.96,-49.46"/>
<polygon fill="midnightblue" stroke="midnightblue" points="172.11,-34.94 180.99,-29.17 170.45,-28.14 172.11,-34.94"/>
</g>
</g>
</svg>
