<?xml version="1.0" encoding="UTF-8" standalone="no"?>
<!DOCTYPE svg PUBLIC "-//W3C//DTD SVG 1.1//EN"
 "http://www.w3.org/Graphics/SVG/1.1/DTD/svg11.dtd">
<!-- Generated by graphviz version 2.43.0 (0)
 -->
<!-- Title: leanux::process::getProcPidStat Pages: 1 -->
<svg width="511pt" height="66pt"
 viewBox="0.00 0.00 511.00 66.00" xmlns="http://www.w3.org/2000/svg" xmlns:xlink="http://www.w3.org/1999/xlink">
<g id="graph0" class="graph" transform="scale(1 1) rotate(0) translate(4 62)">
<title>leanux::process::getProcPidStat</title>
<!-- Node1 -->
<g id="node1" class="node">
<title>Node1</title>
<g id="a_node1"><a xlink:title="Get the ProcPidStat for the pid.">
<polygon fill="#bfbfbf" stroke="black" points="0,-14 0,-44 136,-44 136,-14 0,-14"/>
<text text-anchor="start" x="8" y="-32" font-family="Helvetica,sans-Serif" font-size="10.00">leanux::process::getProc</text>
<text text-anchor="middle" x="68" y="-21" font-family="Helvetica,sans-Serif" font-size="10.00">PidStat</text>
</a>
</g>
</g>
<!-- Node2 -->
<g id="node2" class="node">
<title>Node2</title>
<g id="a_node2"><a xlink:href="../../dd/d42/namespaceleanux_1_1system.html#abb67aa26c6ef63b4ad7b4194f1a8d774" target="_top" xlink:title="Get the number of clock ticks per second.">
<polygon fill="none" stroke="black" points="172,-38.5 172,-57.5 321,-57.5 321,-38.5 172,-38.5"/>
<text text-anchor="middle" x="246.5" y="-45.5" font-family="Helvetica,sans-Serif" font-size="10.00">leanux::system::getUserHz</text>
</a>
</g>
</g>
<!-- Node1&#45;&gt;Node2 -->
<g id="edge1" class="edge">
<title>Node1&#45;&gt;Node2</title>
<path fill="none" stroke="midnightblue" d="M136.23,-36.24C144.63,-37.14 153.31,-38.08 161.92,-39"/>
<polygon fill="midnightblue" stroke="midnightblue" points="161.66,-42.5 171.98,-40.09 162.41,-35.54 161.66,-42.5"/>
</g>
<!-- Node3 -->
<g id="node3" class="node">
<title>Node3</title>
<g id="a_node3"><a xlink:href="../../d9/d34/namespaceleanux_1_1process.html#ae296bd326d85ba028518123373e431ce" target="_top" xlink:title="get the current kernel channel waited on by the process.">
<polygon fill="none" stroke="black" points="172,-0.5 172,-19.5 321,-19.5 321,-0.5 172,-0.5"/>
<text text-anchor="middle" x="246.5" y="-7.5" font-family="Helvetica,sans-Serif" font-size="10.00">leanux::process::getWChan</text>
</a>
</g>
</g>
<!-- Node1&#45;&gt;Node3 -->
<g id="edge2" class="edge">
<title>Node1&#45;&gt;Node3</title>
<path fill="none" stroke="midnightblue" d="M136.23,-21.76C144.63,-20.86 153.31,-19.92 161.92,-19"/>
<polygon fill="midnightblue" stroke="midnightblue" points="162.41,-22.46 171.98,-17.91 161.66,-15.5 162.41,-22.46"/>
</g>
<!-- Node4 -->
<g id="node4" class="node">
<title>Node4</title>
<g id="a_node4"><a xlink:href="../../d8/db1/namespaceleanux_1_1util.html#a57bfd49353610b3d0b6d121b264c676e" target="_top" xlink:title="read the file as a single string.">
<polygon fill="none" stroke="black" points="357,-0.5 357,-19.5 503,-19.5 503,-0.5 357,-0.5"/>
<text text-anchor="middle" x="430" y="-7.5" font-family="Helvetica,sans-Serif" font-size="10.00">leanux::util::fileReadString</text>
</a>
</g>
</g>
<!-- Node3&#45;&gt;Node4 -->
<g id="edge3" class="edge">
<title>Node3&#45;&gt;Node4</title>
<path fill="none" stroke="midnightblue" d="M321.06,-10C329.54,-10 338.22,-10 346.8,-10"/>
<polygon fill="midnightblue" stroke="midnightblue" points="346.81,-13.5 356.81,-10 346.81,-6.5 346.81,-13.5"/>
</g>
</g>
</svg>
