<?xml version="1.0" encoding="UTF-8" standalone="no"?>
<!DOCTYPE svg PUBLIC "-//W3C//DTD SVG 1.1//EN"
 "http://www.w3.org/Graphics/SVG/1.1/DTD/svg11.dtd">
<!-- Generated by graphviz version 2.43.0 (0)
 -->
<!-- Title: leanux::process::getWChan Pages: 1 -->
<svg width="514pt" height="88pt"
 viewBox="0.00 0.00 514.00 88.00" xmlns="http://www.w3.org/2000/svg" xmlns:xlink="http://www.w3.org/1999/xlink">
<g id="graph0" class="graph" transform="scale(1 1) rotate(0) translate(4 84)">
<title>leanux::process::getWChan</title>
<!-- Node1 -->
<g id="node1" class="node">
<title>Node1</title>
<g id="a_node1"><a xlink:title="get the current kernel channel waited on by the process.">
<polygon fill="#bfbfbf" stroke="black" points="357,-30 357,-49 506,-49 506,-30 357,-30"/>
<text text-anchor="middle" x="431.5" y="-37" font-family="Helvetica,sans-Serif" font-size="10.00">leanux::process::getWChan</text>
</a>
</g>
</g>
<!-- Node2 -->
<g id="node2" class="node">
<title>Node2</title>
<g id="a_node2"><a xlink:href="../../d9/d34/namespaceleanux_1_1process.html#a6533e64a7e3e102f65df053802c83919" target="_top" xlink:title="Get the ProcPidStat for the pid.">
<polygon fill="none" stroke="black" points="185,-24.5 185,-54.5 321,-54.5 321,-24.5 185,-24.5"/>
<text text-anchor="start" x="193" y="-42.5" font-family="Helvetica,sans-Serif" font-size="10.00">leanux::process::getProc</text>
<text text-anchor="middle" x="253" y="-31.5" font-family="Helvetica,sans-Serif" font-size="10.00">PidStat</text>
</a>
</g>
</g>
<!-- Node1&#45;&gt;Node2 -->
<g id="edge1" class="edge">
<title>Node1&#45;&gt;Node2</title>
<path fill="none" stroke="midnightblue" d="M346.88,-39.5C338.29,-39.5 329.64,-39.5 321.25,-39.5"/>
<polygon fill="midnightblue" stroke="midnightblue" points="346.93,-43 356.93,-39.5 346.93,-36 346.93,-43"/>
</g>
<!-- Node3 -->
<g id="node3" class="node">
<title>Node3</title>
<g id="a_node3"><a xlink:href="../../d4/d62/namespaceleanux_1_1tools_1_1lard.html#aee987aaaf44a4832b535ecf78065d963" target="_top" xlink:title=" ">
<polygon fill="none" stroke="red" points="22.5,-49.5 22.5,-79.5 126.5,-79.5 126.5,-49.5 22.5,-49.5"/>
<text text-anchor="start" x="30.5" y="-67.5" font-family="Helvetica,sans-Serif" font-size="10.00">leanux::tools::lard</text>
<text text-anchor="middle" x="74.5" y="-56.5" font-family="Helvetica,sans-Serif" font-size="10.00">::ensureSinglePid</text>
</a>
</g>
</g>
<!-- Node2&#45;&gt;Node3 -->
<g id="edge2" class="edge">
<title>Node2&#45;&gt;Node3</title>
<path fill="none" stroke="midnightblue" d="M174.72,-50.45C158.44,-52.75 141.65,-55.13 126.62,-57.26"/>
<polygon fill="midnightblue" stroke="midnightblue" points="175.36,-53.89 184.77,-49.02 174.38,-46.96 175.36,-53.89"/>
</g>
<!-- Node7 -->
<g id="node4" class="node">
<title>Node7</title>
<g id="a_node4"><a xlink:href="../../d9/d34/namespaceleanux_1_1process.html#a385cafe09f0dc82ce8a830124665d69d" target="_top" xlink:title="Get a snapshot of all pids (seen as /proc/PID) into a std::map keyed by pid_t.">
<polygon fill="none" stroke="red" points="0,-0.5 0,-30.5 149,-30.5 149,-0.5 0,-0.5"/>
<text text-anchor="start" x="8" y="-18.5" font-family="Helvetica,sans-Serif" font-size="10.00">leanux::process::getAllProc</text>
<text text-anchor="middle" x="74.5" y="-7.5" font-family="Helvetica,sans-Serif" font-size="10.00">PidStat</text>
</a>
</g>
</g>
<!-- Node2&#45;&gt;Node7 -->
<g id="edge3" class="edge">
<title>Node2&#45;&gt;Node7</title>
<path fill="none" stroke="midnightblue" d="M174.8,-29C166.24,-27.84 157.53,-26.65 149.02,-25.5"/>
<polygon fill="midnightblue" stroke="midnightblue" points="174.39,-32.48 184.77,-30.36 175.33,-25.54 174.39,-32.48"/>
</g>
</g>
</svg>
