<?xml version="1.0" encoding="UTF-8" standalone="no"?>
<!DOCTYPE svg PUBLIC "-//W3C//DTD SVG 1.1//EN"
 "http://www.w3.org/Graphics/SVG/1.1/DTD/svg11.dtd">
<!-- Generated by graphviz version 2.43.0 (0)
 -->
<!-- Title: leanux::process::getAllProcPidStat Pages: 1 -->
<svg width="579pt" height="235pt"
 viewBox="0.00 0.00 579.00 235.00" xmlns="http://www.w3.org/2000/svg" xmlns:xlink="http://www.w3.org/1999/xlink">
<g id="graph0" class="graph" transform="scale(1 1) rotate(0) translate(4 231)">
<title>leanux::process::getAllProcPidStat</title>
<!-- Node1 -->
<g id="node1" class="node">
<title>Node1</title>
<g id="a_node1"><a xlink:title="Get a snapshot of all pids (seen as /proc/PID) into a std::map keyed by pid_t.">
<polygon fill="#bfbfbf" stroke="black" points="422,-98.5 422,-128.5 571,-128.5 571,-98.5 422,-98.5"/>
<text text-anchor="start" x="430" y="-116.5" font-family="Helvetica,sans-Serif" font-size="10.00">leanux::process::getAllProc</text>
<text text-anchor="middle" x="496.5" y="-105.5" font-family="Helvetica,sans-Serif" font-size="10.00">PidStat</text>
</a>
</g>
</g>
<!-- Node2 -->
<g id="node2" class="node">
<title>Node2</title>
<g id="a_node2"><a xlink:href="../../d9/d34/namespaceleanux_1_1process.html#af0c8e37dbbfb1b7d7efb8aa7892d568d" target="_top" xlink:title="return all pids with specified comm (executable image) into stats">
<polygon fill="none" stroke="black" points="216.5,-196.5 216.5,-226.5 354.5,-226.5 354.5,-196.5 216.5,-196.5"/>
<text text-anchor="start" x="224.5" y="-214.5" font-family="Helvetica,sans-Serif" font-size="10.00">leanux::process::findProc</text>
<text text-anchor="middle" x="285.5" y="-203.5" font-family="Helvetica,sans-Serif" font-size="10.00">ByComm</text>
</a>
</g>
</g>
<!-- Node1&#45;&gt;Node2 -->
<g id="edge1" class="edge">
<title>Node1&#45;&gt;Node2</title>
<path fill="none" stroke="midnightblue" d="M469.82,-134.77C448.57,-151.38 416.95,-173.85 386,-187.5 376.16,-191.84 365.42,-195.47 354.75,-198.48"/>
<polygon fill="midnightblue" stroke="midnightblue" points="472.06,-137.47 477.71,-128.51 467.7,-131.98 472.06,-137.47"/>
</g>
<!-- Node3 -->
<g id="node3" class="node">
<title>Node3</title>
<g id="a_node3"><a xlink:href="../../d9/d34/namespaceleanux_1_1process.html#a670ad342b1dd7423a5882b43e31b72c0" target="_top" xlink:title="return all pids with specified uid.">
<polygon fill="none" stroke="black" points="216.5,-147.5 216.5,-177.5 354.5,-177.5 354.5,-147.5 216.5,-147.5"/>
<text text-anchor="start" x="224.5" y="-165.5" font-family="Helvetica,sans-Serif" font-size="10.00">leanux::process::findProc</text>
<text text-anchor="middle" x="285.5" y="-154.5" font-family="Helvetica,sans-Serif" font-size="10.00">ByUid</text>
</a>
</g>
</g>
<!-- Node1&#45;&gt;Node3 -->
<g id="edge2" class="edge">
<title>Node1&#45;&gt;Node3</title>
<path fill="none" stroke="midnightblue" d="M421.58,-130.83C398.37,-136.27 372.96,-142.23 350.51,-147.49"/>
<polygon fill="midnightblue" stroke="midnightblue" points="422.44,-134.22 431.37,-128.53 420.84,-127.41 422.44,-134.22"/>
</g>
<!-- Node4 -->
<g id="node4" class="node">
<title>Node4</title>
<g id="a_node4"><a xlink:href="../../da/d21/classleanux_1_1tools_1_1lmon_1_1RealtimeSampler.html#af80582780bfa40a11a40e647f9657d0f" target="_top" xlink:title=" ">
<polygon fill="none" stroke="black" points="185,-98.5 185,-128.5 386,-128.5 386,-98.5 185,-98.5"/>
<text text-anchor="start" x="193" y="-116.5" font-family="Helvetica,sans-Serif" font-size="10.00">leanux::tools::lmon</text>
<text text-anchor="middle" x="285.5" y="-105.5" font-family="Helvetica,sans-Serif" font-size="10.00">::RealtimeSampler::sampleXProcView</text>
</a>
</g>
</g>
<!-- Node1&#45;&gt;Node4 -->
<g id="edge3" class="edge">
<title>Node1&#45;&gt;Node4</title>
<path fill="none" stroke="midnightblue" d="M411.7,-113.5C403.33,-113.5 394.77,-113.5 386.25,-113.5"/>
<polygon fill="midnightblue" stroke="midnightblue" points="411.81,-117 421.81,-113.5 411.81,-110 411.81,-117"/>
</g>
<!-- Node10 -->
<g id="node6" class="node">
<title>Node10</title>
<g id="a_node6"><a xlink:href="../../d4/d0e/classleanux_1_1tools_1_1lard_1_1ProcSnap.html#ab54043cba9664efa3321d9456c9bb3a0" target="_top" xlink:title=" ">
<polygon fill="none" stroke="black" points="225.5,-49.5 225.5,-79.5 345.5,-79.5 345.5,-49.5 225.5,-49.5"/>
<text text-anchor="start" x="233.5" y="-67.5" font-family="Helvetica,sans-Serif" font-size="10.00">leanux::tools::lard</text>
<text text-anchor="middle" x="285.5" y="-56.5" font-family="Helvetica,sans-Serif" font-size="10.00">::ProcSnap::startSnap</text>
</a>
</g>
</g>
<!-- Node1&#45;&gt;Node10 -->
<g id="edge5" class="edge">
<title>Node1&#45;&gt;Node10</title>
<path fill="none" stroke="midnightblue" d="M421.59,-96.17C396.65,-90.32 369.16,-83.88 345.52,-78.34"/>
<polygon fill="midnightblue" stroke="midnightblue" points="420.84,-99.59 431.37,-98.47 422.44,-92.78 420.84,-99.59"/>
</g>
<!-- Node14 -->
<g id="node8" class="node">
<title>Node14</title>
<g id="a_node8"><a xlink:href="../../d4/d0e/classleanux_1_1tools_1_1lard_1_1ProcSnap.html#a2922f8c93498c97d1b47ec2e6b7d817d" target="_top" xlink:title=" ">
<polygon fill="none" stroke="black" points="226,-0.5 226,-30.5 345,-30.5 345,-0.5 226,-0.5"/>
<text text-anchor="start" x="234" y="-18.5" font-family="Helvetica,sans-Serif" font-size="10.00">leanux::tools::lard</text>
<text text-anchor="middle" x="285.5" y="-7.5" font-family="Helvetica,sans-Serif" font-size="10.00">::ProcSnap::stopSnap</text>
</a>
</g>
</g>
<!-- Node1&#45;&gt;Node14 -->
<g id="edge7" class="edge">
<title>Node1&#45;&gt;Node14</title>
<path fill="none" stroke="midnightblue" d="M469.35,-92.32C448.06,-76.02 416.61,-54.06 386,-40.5 373.22,-34.84 358.92,-30.29 345.23,-26.72"/>
<polygon fill="midnightblue" stroke="midnightblue" points="467.23,-95.1 477.27,-98.47 471.53,-89.57 467.23,-95.1"/>
</g>
<!-- Node5 -->
<g id="node5" class="node">
<title>Node5</title>
<g id="a_node5"><a xlink:href="../../da/d21/classleanux_1_1tools_1_1lmon_1_1RealtimeSampler.html#a9522a4a46961eb4f75d3207da1efd07f" target="_top" xlink:title="Sample a snapshot.">
<polygon fill="none" stroke="red" points="0,-98.5 0,-128.5 149,-128.5 149,-98.5 0,-98.5"/>
<text text-anchor="start" x="8" y="-116.5" font-family="Helvetica,sans-Serif" font-size="10.00">leanux::tools::lmon</text>
<text text-anchor="middle" x="74.5" y="-105.5" font-family="Helvetica,sans-Serif" font-size="10.00">::RealtimeSampler::sample</text>
</a>
</g>
</g>
<!-- Node4&#45;&gt;Node5 -->
<g id="edge4" class="edge">
<title>Node4&#45;&gt;Node5</title>
<path fill="none" stroke="midnightblue" d="M174.69,-113.5C166,-113.5 157.36,-113.5 149.01,-113.5"/>
<polygon fill="midnightblue" stroke="midnightblue" points="174.9,-117 184.9,-113.5 174.9,-110 174.9,-117"/>
</g>
<!-- Node11 -->
<g id="node7" class="node">
<title>Node11</title>
<g id="a_node7"><a xlink:href="../../d4/d62/namespaceleanux_1_1tools_1_1lard.html#a6de74bbef1d571bf7eb000e62900a11d" target="_top" xlink:title=" ">
<polygon fill="none" stroke="red" points="22.5,-25.5 22.5,-55.5 126.5,-55.5 126.5,-25.5 22.5,-25.5"/>
<text text-anchor="start" x="30.5" y="-43.5" font-family="Helvetica,sans-Serif" font-size="10.00">leanux::tools::lard</text>
<text text-anchor="middle" x="74.5" y="-32.5" font-family="Helvetica,sans-Serif" font-size="10.00">::mainLoop</text>
</a>
</g>
</g>
<!-- Node10&#45;&gt;Node11 -->
<g id="edge6" class="edge">
<title>Node10&#45;&gt;Node11</title>
<path fill="none" stroke="midnightblue" d="M215.39,-56.56C186.41,-53.24 153.32,-49.44 126.6,-46.37"/>
<polygon fill="midnightblue" stroke="midnightblue" points="215.11,-60.06 225.45,-57.72 215.91,-53.1 215.11,-60.06"/>
</g>
<!-- Node14&#45;&gt;Node11 -->
<g id="edge8" class="edge">
<title>Node14&#45;&gt;Node11</title>
<path fill="none" stroke="midnightblue" d="M215.66,-23.73C186.67,-27.2 153.52,-31.17 126.73,-34.37"/>
<polygon fill="midnightblue" stroke="midnightblue" points="216.21,-27.19 225.73,-22.53 215.38,-20.24 216.21,-27.19"/>
</g>
</g>
</svg>
