<?xml version="1.0" encoding="UTF-8" standalone="no"?>
<!DOCTYPE svg PUBLIC "-//W3C//DTD SVG 1.1//EN"
 "http://www.w3.org/Graphics/SVG/1.1/DTD/svg11.dtd">
<!-- Generated by graphviz version 2.43.0 (0)
 -->
<!-- Title: lib/vmem.hpp Pages: 1 -->
<svg width="887pt" height="196pt"
 viewBox="0.00 0.00 887.00 196.00" xmlns="http://www.w3.org/2000/svg" xmlns:xlink="http://www.w3.org/1999/xlink">
<g id="graph0" class="graph" transform="scale(1 1) rotate(0) translate(4 192)">
<title>lib/vmem.hpp</title>
<!-- Node1 -->
<g id="node1" class="node">
<title>Node1</title>
<g id="a_node1"><a xlink:title=" ">
<polygon fill="#bfbfbf" stroke="black" points="445.5,-168.5 445.5,-187.5 529.5,-187.5 529.5,-168.5 445.5,-168.5"/>
<text text-anchor="middle" x="487.5" y="-175.5" font-family="Helvetica,sans-Serif" font-size="10.00">lib/vmem.hpp</text>
</a>
</g>
</g>
<!-- Node2 -->
<g id="node2" class="node">
<title>Node2</title>
<g id="a_node2"><a xlink:href="../../df/d45/vmem_8cpp.html" target="_top" xlink:title=" ">
<polygon fill="none" stroke="black" points="196,-112.5 196,-131.5 279,-131.5 279,-112.5 196,-112.5"/>
<text text-anchor="middle" x="237.5" y="-119.5" font-family="Helvetica,sans-Serif" font-size="10.00">lib/vmem.cpp</text>
</a>
</g>
</g>
<!-- Node1&#45;&gt;Node2 -->
<g id="edge1" class="edge">
<title>Node1&#45;&gt;Node2</title>
<path fill="none" stroke="midnightblue" d="M437.88,-166.28C390.63,-156.08 320.46,-140.92 276.93,-131.52"/>
<polygon fill="midnightblue" stroke="midnightblue" points="437.37,-169.75 447.89,-168.44 438.85,-162.91 437.37,-169.75"/>
</g>
<!-- Node3 -->
<g id="node3" class="node">
<title>Node3</title>
<g id="a_node3"><a xlink:href="../../df/d77/xdata_8hpp.html" target="_top" xlink:title=" ">
<polygon fill="none" stroke="black" points="297.5,-112.5 297.5,-131.5 417.5,-131.5 417.5,-112.5 297.5,-112.5"/>
<text text-anchor="middle" x="357.5" y="-119.5" font-family="Helvetica,sans-Serif" font-size="10.00">tools/lmon/xdata.hpp</text>
</a>
</g>
</g>
<!-- Node1&#45;&gt;Node3 -->
<g id="edge2" class="edge">
<title>Node1&#45;&gt;Node3</title>
<path fill="none" stroke="midnightblue" d="M457.41,-164.5C433.04,-154.38 399.36,-140.39 378,-131.52"/>
<polygon fill="midnightblue" stroke="midnightblue" points="456.32,-167.84 466.9,-168.44 459.01,-161.38 456.32,-167.84"/>
</g>
<!-- Node8 -->
<g id="node6" class="node">
<title>Node8</title>
<g id="a_node6"><a xlink:href="../../d4/d35/lmon__curses_8hpp.html" target="_top" xlink:title=" ">
<polygon fill="none" stroke="red" points="251.5,-0.5 251.5,-19.5 405.5,-19.5 405.5,-0.5 251.5,-0.5"/>
<text text-anchor="middle" x="328.5" y="-7.5" font-family="Helvetica,sans-Serif" font-size="10.00">tools/lmon/lmon_curses.hpp</text>
</a>
</g>
</g>
<!-- Node1&#45;&gt;Node8 -->
<g id="edge7" class="edge">
<title>Node1&#45;&gt;Node8</title>
<path fill="none" stroke="midnightblue" d="M479.08,-158.93C463.77,-126.15 432.53,-59.91 428.5,-56 409.91,-37.98 382.85,-26.4 361.57,-19.51"/>
<polygon fill="midnightblue" stroke="midnightblue" points="476.04,-160.69 483.44,-168.27 482.39,-157.73 476.04,-160.69"/>
</g>
<!-- Node13 -->
<g id="node8" class="node">
<title>Node13</title>
<g id="a_node8"><a xlink:href="../../dd/d15/lrep_8cpp.html" target="_top" xlink:title=" ">
<polygon fill="none" stroke="black" points="475.5,-112.5 475.5,-131.5 579.5,-131.5 579.5,-112.5 475.5,-112.5"/>
<text text-anchor="middle" x="527.5" y="-119.5" font-family="Helvetica,sans-Serif" font-size="10.00">tools/lrep/lrep.cpp</text>
</a>
</g>
</g>
<!-- Node1&#45;&gt;Node13 -->
<g id="edge8" class="edge">
<title>Node1&#45;&gt;Node13</title>
<path fill="none" stroke="midnightblue" d="M500.2,-159.86C507.13,-150.5 515.41,-139.33 521.02,-131.75"/>
<polygon fill="midnightblue" stroke="midnightblue" points="497.25,-157.96 494.11,-168.08 502.87,-162.13 497.25,-157.96"/>
</g>
<!-- Node14 -->
<g id="node9" class="node">
<title>Node14</title>
<g id="a_node9"><a xlink:href="../../d1/d59/lar__snap_8hpp.html" target="_top" xlink:title=" ">
<polygon fill="none" stroke="black" points="597.5,-112.5 597.5,-131.5 725.5,-131.5 725.5,-112.5 597.5,-112.5"/>
<text text-anchor="middle" x="661.5" y="-119.5" font-family="Helvetica,sans-Serif" font-size="10.00">tools/lard/lar_snap.hpp</text>
</a>
</g>
</g>
<!-- Node1&#45;&gt;Node14 -->
<g id="edge9" class="edge">
<title>Node1&#45;&gt;Node14</title>
<path fill="none" stroke="midnightblue" d="M524.76,-165.44C557.57,-155.26 604.58,-140.66 634.06,-131.52"/>
<polygon fill="midnightblue" stroke="midnightblue" points="523.58,-162.14 515.07,-168.44 525.66,-168.82 523.58,-162.14"/>
</g>
<!-- Node18 -->
<g id="node13" class="node">
<title>Node18</title>
<g id="a_node13"><a xlink:href="../../d9/d3a/lblk_8cpp.html" target="_top" xlink:title=" ">
<polygon fill="none" stroke="black" points="744,-112.5 744,-131.5 847,-131.5 847,-112.5 744,-112.5"/>
<text text-anchor="middle" x="795.5" y="-119.5" font-family="Helvetica,sans-Serif" font-size="10.00">tools/lblk/lblk.cpp</text>
</a>
</g>
</g>
<!-- Node1&#45;&gt;Node18 -->
<g id="edge13" class="edge">
<title>Node1&#45;&gt;Node18</title>
<path fill="none" stroke="midnightblue" d="M539.73,-167.84C597.72,-157.68 690.55,-141.4 746.99,-131.51"/>
<polygon fill="midnightblue" stroke="midnightblue" points="538.93,-164.43 529.68,-169.6 540.13,-171.33 538.93,-164.43"/>
</g>
<!-- Node4 -->
<g id="node4" class="node">
<title>Node4</title>
<g id="a_node4"><a xlink:href="../../d4/de1/history_8hpp.html" target="_top" xlink:title=" ">
<polygon fill="none" stroke="red" points="0,-56.5 0,-75.5 125,-75.5 125,-56.5 0,-56.5"/>
<text text-anchor="middle" x="62.5" y="-63.5" font-family="Helvetica,sans-Serif" font-size="10.00">tools/lmon/history.hpp</text>
</a>
</g>
</g>
<!-- Node3&#45;&gt;Node4 -->
<g id="edge3" class="edge">
<title>Node3&#45;&gt;Node4</title>
<path fill="none" stroke="midnightblue" d="M300.69,-110.6C244.94,-100.4 160.94,-85.02 109.02,-75.52"/>
<polygon fill="midnightblue" stroke="midnightblue" points="300.29,-114.09 310.76,-112.44 301.55,-107.2 300.29,-114.09"/>
</g>
<!-- Node7 -->
<g id="node5" class="node">
<title>Node7</title>
<g id="a_node5"><a xlink:href="../../dd/d86/realtime_8hpp.html" target="_top" xlink:title=" ">
<polygon fill="none" stroke="red" points="143.5,-56.5 143.5,-75.5 277.5,-75.5 277.5,-56.5 143.5,-56.5"/>
<text text-anchor="middle" x="210.5" y="-63.5" font-family="Helvetica,sans-Serif" font-size="10.00">tools/lmon/realtime.hpp</text>
</a>
</g>
</g>
<!-- Node3&#45;&gt;Node7 -->
<g id="edge4" class="edge">
<title>Node3&#45;&gt;Node7</title>
<path fill="none" stroke="midnightblue" d="M324.58,-108.91C296.94,-98.75 258.16,-84.51 233.68,-75.52"/>
<polygon fill="midnightblue" stroke="midnightblue" points="323.61,-112.28 334.21,-112.44 326.03,-105.71 323.61,-112.28"/>
</g>
<!-- Node11 -->
<g id="node7" class="node">
<title>Node11</title>
<g id="a_node7"><a xlink:href="../../d5/da4/trigger_8hpp.html" target="_top" xlink:title=" ">
<polygon fill="none" stroke="red" points="295.5,-56.5 295.5,-75.5 419.5,-75.5 419.5,-56.5 295.5,-56.5"/>
<text text-anchor="middle" x="357.5" y="-63.5" font-family="Helvetica,sans-Serif" font-size="10.00">tools/lmon/trigger.hpp</text>
</a>
</g>
</g>
<!-- Node3&#45;&gt;Node11 -->
<g id="edge6" class="edge">
<title>Node3&#45;&gt;Node11</title>
<path fill="none" stroke="midnightblue" d="M357.5,-101.8C357.5,-92.91 357.5,-82.78 357.5,-75.75"/>
<polygon fill="midnightblue" stroke="midnightblue" points="354,-102.08 357.5,-112.08 361,-102.08 354,-102.08"/>
</g>
<!-- Node7&#45;&gt;Node8 -->
<g id="edge5" class="edge">
<title>Node7&#45;&gt;Node8</title>
<path fill="none" stroke="midnightblue" d="M238.4,-52.23C260.47,-42.13 290.68,-28.31 309.89,-19.52"/>
<polygon fill="midnightblue" stroke="midnightblue" points="236.83,-49.1 229.2,-56.44 239.75,-55.46 236.83,-49.1"/>
</g>
<!-- Node15 -->
<g id="node10" class="node">
<title>Node15</title>
<g id="a_node10"><a xlink:href="../../da/de9/lar_8cpp.html" target="_top" xlink:title=" ">
<polygon fill="none" stroke="black" points="475.5,-56.5 475.5,-75.5 573.5,-75.5 573.5,-56.5 475.5,-56.5"/>
<text text-anchor="middle" x="524.5" y="-63.5" font-family="Helvetica,sans-Serif" font-size="10.00">tools/lard/lar.cpp</text>
</a>
</g>
</g>
<!-- Node14&#45;&gt;Node15 -->
<g id="edge10" class="edge">
<title>Node14&#45;&gt;Node15</title>
<path fill="none" stroke="midnightblue" d="M630.48,-108.77C604.74,-98.63 568.81,-84.47 546.11,-75.52"/>
<polygon fill="midnightblue" stroke="midnightblue" points="629.21,-112.03 639.79,-112.44 631.77,-105.52 629.21,-112.03"/>
</g>
<!-- Node16 -->
<g id="node11" class="node">
<title>Node16</title>
<g id="a_node11"><a xlink:href="../../da/da6/lar__schema_8cpp.html" target="_top" xlink:title=" ">
<polygon fill="none" stroke="black" points="591.5,-56.5 591.5,-75.5 733.5,-75.5 733.5,-56.5 591.5,-56.5"/>
<text text-anchor="middle" x="662.5" y="-63.5" font-family="Helvetica,sans-Serif" font-size="10.00">tools/lard/lar_schema.cpp</text>
</a>
</g>
</g>
<!-- Node14&#45;&gt;Node16 -->
<g id="edge11" class="edge">
<title>Node14&#45;&gt;Node16</title>
<path fill="none" stroke="midnightblue" d="M661.86,-101.8C662.02,-92.91 662.21,-82.78 662.34,-75.75"/>
<polygon fill="midnightblue" stroke="midnightblue" points="658.35,-102.02 661.67,-112.08 665.35,-102.15 658.35,-102.02"/>
</g>
<!-- Node17 -->
<g id="node12" class="node">
<title>Node17</title>
<g id="a_node12"><a xlink:href="../../d4/dc8/lar__snap_8cpp.html" target="_top" xlink:title=" ">
<polygon fill="none" stroke="black" points="752,-56.5 752,-75.5 879,-75.5 879,-56.5 752,-56.5"/>
<text text-anchor="middle" x="815.5" y="-63.5" font-family="Helvetica,sans-Serif" font-size="10.00">tools/lard/lar_snap.cpp</text>
</a>
</g>
</g>
<!-- Node14&#45;&gt;Node17 -->
<g id="edge12" class="edge">
<title>Node14&#45;&gt;Node17</title>
<path fill="none" stroke="midnightblue" d="M695.61,-109.04C724.59,-98.88 765.46,-84.55 791.21,-75.52"/>
<polygon fill="midnightblue" stroke="midnightblue" points="694.18,-105.83 685.9,-112.44 696.5,-112.44 694.18,-105.83"/>
</g>
</g>
</svg>
