<?xml version="1.0" encoding="UTF-8" standalone="no"?>
<!DOCTYPE svg PUBLIC "-//W3C//DTD SVG 1.1//EN"
 "http://www.w3.org/Graphics/SVG/1.1/DTD/svg11.dtd">
<!-- Generated by graphviz version 2.43.0 (0)
 -->
<!-- Title: leanux::tools::lard::Options Pages: 1 -->
<svg width="160pt" height="185pt"
 viewBox="0.00 0.00 160.00 185.00" xmlns="http://www.w3.org/2000/svg" xmlns:xlink="http://www.w3.org/1999/xlink">
<g id="graph0" class="graph" transform="scale(1 1) rotate(0) translate(4 181)">
<title>leanux::tools::lard::Options</title>
<!-- Node1 -->
<g id="node1" class="node">
<title>Node1</title>
<g id="a_node1"><a xlink:title=" ">
<polygon fill="#bfbfbf" stroke="black" points="7,-0.5 7,-30.5 111,-30.5 111,-0.5 7,-0.5"/>
<text text-anchor="start" x="15" y="-18.5" font-family="Helvetica,sans-Serif" font-size="10.00">leanux::tools::lard</text>
<text text-anchor="middle" x="59" y="-7.5" font-family="Helvetica,sans-Serif" font-size="10.00">::Options</text>
</a>
</g>
</g>
<!-- Node2 -->
<g id="node2" class="node">
<title>Node2</title>
<g id="a_node2"><a xlink:title=" ">
<polygon fill="none" stroke="#bfbfbf" points="0,-89.5 0,-108.5 38,-108.5 38,-89.5 0,-89.5"/>
<text text-anchor="middle" x="19" y="-96.5" font-family="Helvetica,sans-Serif" font-size="10.00">bool</text>
</a>
</g>
</g>
<!-- Node2&#45;&gt;Node1 -->
<g id="edge1" class="edge">
<title>Node2&#45;&gt;Node1</title>
<path fill="none" stroke="#9a32cd" stroke-dasharray="5,2" d="M15.81,-79.17C15.07,-69.69 15.55,-58.26 20,-49 23.44,-41.85 29.28,-35.71 35.41,-30.76"/>
<polygon fill="#9a32cd" stroke="#9a32cd" points="12.35,-79.69 17.08,-89.18 19.3,-78.82 12.35,-79.69"/>
<text text-anchor="middle" x="49" y="-57.5" font-family="Helvetica,sans-Serif" font-size="10.00"> daemonize</text>
</g>
<!-- Node3 -->
<g id="node3" class="node">
<title>Node3</title>
<g id="a_node3"><a xlink:title="STL class.">
<polygon fill="none" stroke="#bfbfbf" points="67.5,-89.5 67.5,-108.5 132.5,-108.5 132.5,-89.5 67.5,-89.5"/>
<text text-anchor="middle" x="100" y="-96.5" font-family="Helvetica,sans-Serif" font-size="10.00">std::string</text>
</a>
</g>
</g>
<!-- Node3&#45;&gt;Node1 -->
<g id="edge2" class="edge">
<title>Node3&#45;&gt;Node1</title>
<path fill="none" stroke="#9a32cd" stroke-dasharray="5,2" d="M92.37,-79.77C88.33,-70.45 83.15,-59 78,-49 74.83,-42.84 71.03,-36.21 67.66,-30.55"/>
<polygon fill="#9a32cd" stroke="#9a32cd" points="89.24,-81.36 96.38,-89.19 95.68,-78.62 89.24,-81.36"/>
<text text-anchor="middle" x="112" y="-63" font-family="Helvetica,sans-Serif" font-size="10.00"> config</text>
<text text-anchor="middle" x="112" y="-52" font-family="Helvetica,sans-Serif" font-size="10.00">database</text>
</g>
<!-- Node4 -->
<g id="node4" class="node">
<title>Node4</title>
<g id="a_node4"><a xlink:title="STL class.">
<polygon fill="none" stroke="#bfbfbf" points="48,-146.5 48,-176.5 152,-176.5 152,-146.5 48,-146.5"/>
<text text-anchor="start" x="56" y="-164.5" font-family="Helvetica,sans-Serif" font-size="10.00">std::basic_string&lt;</text>
<text text-anchor="middle" x="100" y="-153.5" font-family="Helvetica,sans-Serif" font-size="10.00"> char &gt;</text>
</a>
</g>
</g>
<!-- Node4&#45;&gt;Node3 -->
<g id="edge3" class="edge">
<title>Node4&#45;&gt;Node3</title>
<path fill="none" stroke="midnightblue" d="M100,-136.35C100,-126.51 100,-115.78 100,-108.54"/>
<polygon fill="midnightblue" stroke="midnightblue" points="96.5,-136.47 100,-146.47 103.5,-136.47 96.5,-136.47"/>
</g>
</g>
</svg>
