<?xml version="1.0" encoding="UTF-8" standalone="no"?>
<!DOCTYPE svg PUBLIC "-//W3C//DTD SVG 1.1//EN"
 "http://www.w3.org/Graphics/SVG/1.1/DTD/svg11.dtd">
<!-- Generated by graphviz version 2.43.0 (0)
 -->
<!-- Title: leanux::tools::lmon::XIORec Pages: 1 -->
<svg width="161pt" height="295pt"
 viewBox="0.00 0.00 161.00 295.00" xmlns="http://www.w3.org/2000/svg" xmlns:xlink="http://www.w3.org/1999/xlink">
<g id="graph0" class="graph" transform="scale(1 1) rotate(0) translate(4 291)">
<title>leanux::tools::lmon::XIORec</title>
<!-- Node1 -->
<g id="node1" class="node">
<title>Node1</title>
<g id="a_node1"><a xlink:title="I/O statistics in a form suitable for XIOView.">
<polygon fill="#bfbfbf" stroke="black" points="4,-0.5 4,-30.5 114,-30.5 114,-0.5 4,-0.5"/>
<text text-anchor="start" x="12" y="-18.5" font-family="Helvetica,sans-Serif" font-size="10.00">leanux::tools::lmon</text>
<text text-anchor="middle" x="59" y="-7.5" font-family="Helvetica,sans-Serif" font-size="10.00">::XIORec</text>
</a>
</g>
</g>
<!-- Node2 -->
<g id="node2" class="node">
<title>Node2</title>
<g id="a_node2"><a xlink:title=" ">
<polygon fill="none" stroke="#bfbfbf" points="0,-199.5 0,-218.5 50,-218.5 50,-199.5 0,-199.5"/>
<text text-anchor="middle" x="25" y="-206.5" font-family="Helvetica,sans-Serif" font-size="10.00">double</text>
</a>
</g>
</g>
<!-- Node2&#45;&gt;Node1 -->
<g id="edge1" class="edge">
<title>Node2&#45;&gt;Node1</title>
<path fill="none" stroke="#9a32cd" stroke-dasharray="5,2" d="M21.35,-189.18C16.28,-158.51 9.77,-96.42 29,-49 31.77,-42.17 36.68,-35.89 41.74,-30.71"/>
<polygon fill="#9a32cd" stroke="#9a32cd" points="17.95,-190.07 23.16,-199.3 24.84,-188.84 17.95,-190.07"/>
<text text-anchor="middle" x="52" y="-173" font-family="Helvetica,sans-Serif" font-size="10.00"> wbs</text>
<text text-anchor="middle" x="52" y="-162" font-family="Helvetica,sans-Serif" font-size="10.00">growths</text>
<text text-anchor="middle" x="52" y="-151" font-family="Helvetica,sans-Serif" font-size="10.00">qsz</text>
<text text-anchor="middle" x="52" y="-140" font-family="Helvetica,sans-Serif" font-size="10.00">rs</text>
<text text-anchor="middle" x="52" y="-129" font-family="Helvetica,sans-Serif" font-size="10.00">util</text>
<text text-anchor="middle" x="52" y="-118" font-family="Helvetica,sans-Serif" font-size="10.00">svctm</text>
<text text-anchor="middle" x="52" y="-107" font-family="Helvetica,sans-Serif" font-size="10.00">ioerr_cnt</text>
<text text-anchor="start" x="29" y="-96" font-family="Helvetica,sans-Serif" font-size="10.00">iorequest</text>
<text text-anchor="middle" x="52" y="-85" font-family="Helvetica,sans-Serif" font-size="10.00">_cnt</text>
<text text-anchor="middle" x="52" y="-74" font-family="Helvetica,sans-Serif" font-size="10.00">artm</text>
<text text-anchor="middle" x="52" y="-63" font-family="Helvetica,sans-Serif" font-size="10.00">rbs</text>
<text text-anchor="middle" x="52" y="-52" font-family="Helvetica,sans-Serif" font-size="10.00">...</text>
</g>
<!-- Node3 -->
<g id="node3" class="node">
<title>Node3</title>
<g id="a_node3"><a xlink:title="STL class.">
<polygon fill="none" stroke="#bfbfbf" points="68.5,-199.5 68.5,-218.5 133.5,-218.5 133.5,-199.5 68.5,-199.5"/>
<text text-anchor="middle" x="101" y="-206.5" font-family="Helvetica,sans-Serif" font-size="10.00">std::string</text>
</a>
</g>
</g>
<!-- Node3&#45;&gt;Node1 -->
<g id="edge2" class="edge">
<title>Node3&#45;&gt;Node1</title>
<path fill="none" stroke="#9a32cd" stroke-dasharray="5,2" d="M99.73,-189.19C97.29,-159 90.73,-98.13 75,-49 73.01,-42.77 69.99,-36.24 67.11,-30.68"/>
<polygon fill="#9a32cd" stroke="#9a32cd" points="96.24,-189.46 100.47,-199.17 103.22,-188.94 96.24,-189.46"/>
<text text-anchor="middle" x="117" y="-112.5" font-family="Helvetica,sans-Serif" font-size="10.00"> device</text>
</g>
<!-- Node4 -->
<g id="node4" class="node">
<title>Node4</title>
<g id="a_node4"><a xlink:title="STL class.">
<polygon fill="none" stroke="#bfbfbf" points="49,-256.5 49,-286.5 153,-286.5 153,-256.5 49,-256.5"/>
<text text-anchor="start" x="57" y="-274.5" font-family="Helvetica,sans-Serif" font-size="10.00">std::basic_string&lt;</text>
<text text-anchor="middle" x="101" y="-263.5" font-family="Helvetica,sans-Serif" font-size="10.00"> char &gt;</text>
</a>
</g>
</g>
<!-- Node4&#45;&gt;Node3 -->
<g id="edge3" class="edge">
<title>Node4&#45;&gt;Node3</title>
<path fill="none" stroke="midnightblue" d="M101,-246.35C101,-236.51 101,-225.78 101,-218.54"/>
<polygon fill="midnightblue" stroke="midnightblue" points="97.5,-246.47 101,-256.47 104.5,-246.47 97.5,-246.47"/>
</g>
</g>
</svg>
