<?xml version="1.0" encoding="UTF-8" standalone="no"?>
<!DOCTYPE svg PUBLIC "-//W3C//DTD SVG 1.1//EN"
 "http://www.w3.org/Graphics/SVG/1.1/DTD/svg11.dtd">
<!-- Generated by graphviz version 2.43.0 (0)
 -->
<!-- Title: lib/block.hpp Pages: 1 -->
<svg width="1646pt" height="252pt"
 viewBox="0.00 0.00 1646.00 252.00" xmlns="http://www.w3.org/2000/svg" xmlns:xlink="http://www.w3.org/1999/xlink">
<g id="graph0" class="graph" transform="scale(1 1) rotate(0) translate(4 248)">
<title>lib/block.hpp</title>
<!-- Node1 -->
<g id="node1" class="node">
<title>Node1</title>
<g id="a_node1"><a xlink:title=" ">
<polygon fill="#bfbfbf" stroke="black" points="904.5,-224.5 904.5,-243.5 983.5,-243.5 983.5,-224.5 904.5,-224.5"/>
<text text-anchor="middle" x="944" y="-231.5" font-family="Helvetica,sans-Serif" font-size="10.00">lib/block.hpp</text>
</a>
</g>
</g>
<!-- Node2 -->
<g id="node2" class="node">
<title>Node2</title>
<g id="a_node2"><a xlink:href="../../d9/d4d/block_8cpp.html" target="_top" xlink:title=" ">
<polygon fill="none" stroke="black" points="0,-112.5 0,-131.5 78,-131.5 78,-112.5 0,-112.5"/>
<text text-anchor="middle" x="39" y="-119.5" font-family="Helvetica,sans-Serif" font-size="10.00">lib/block.cpp</text>
</a>
</g>
</g>
<!-- Node1&#45;&gt;Node2 -->
<g id="edge1" class="edge">
<title>Node1&#45;&gt;Node2</title>
<path fill="none" stroke="midnightblue" d="M894.3,-232.23C787.12,-229.95 526.5,-221.18 311,-188 221.27,-174.18 117.49,-145.87 68.07,-131.61"/>
<polygon fill="midnightblue" stroke="midnightblue" points="894.42,-235.73 904.49,-232.43 894.56,-228.73 894.42,-235.73"/>
</g>
<!-- Node3 -->
<g id="node3" class="node">
<title>Node3</title>
<g id="a_node3"><a xlink:href="../../d5/d08/device_8hpp.html" target="_top" xlink:title=" ">
<polygon fill="none" stroke="black" points="423.5,-168.5 423.5,-187.5 508.5,-187.5 508.5,-168.5 423.5,-168.5"/>
<text text-anchor="middle" x="466" y="-175.5" font-family="Helvetica,sans-Serif" font-size="10.00">lib/device.hpp</text>
</a>
</g>
</g>
<!-- Node1&#45;&gt;Node3 -->
<g id="edge2" class="edge">
<title>Node1&#45;&gt;Node3</title>
<path fill="none" stroke="midnightblue" d="M894.36,-227.39C800.18,-216.75 597.1,-193.81 508.64,-183.82"/>
<polygon fill="midnightblue" stroke="midnightblue" points="894.15,-230.89 904.48,-228.54 894.93,-223.93 894.15,-230.89"/>
</g>
<!-- Node5 -->
<g id="node5" class="node">
<title>Node5</title>
<g id="a_node5"><a xlink:href="../../d3/dd4/device_8cpp.html" target="_top" xlink:title=" ">
<polygon fill="none" stroke="black" points="96,-112.5 96,-131.5 180,-131.5 180,-112.5 96,-112.5"/>
<text text-anchor="middle" x="138" y="-119.5" font-family="Helvetica,sans-Serif" font-size="10.00">lib/device.cpp</text>
</a>
</g>
</g>
<!-- Node1&#45;&gt;Node5 -->
<g id="edge12" class="edge">
<title>Node1&#45;&gt;Node5</title>
<path fill="none" stroke="midnightblue" d="M894.09,-231.2C799.78,-227.27 589.14,-215.9 414,-188 323.33,-173.55 218.29,-145.66 167.93,-131.58"/>
<polygon fill="midnightblue" stroke="midnightblue" points="894.07,-234.7 904.2,-231.61 894.35,-227.71 894.07,-234.7"/>
</g>
<!-- Node8 -->
<g id="node8" class="node">
<title>Node8</title>
<g id="a_node8"><a xlink:href="../../dd/d15/lrep_8cpp.html" target="_top" xlink:title=" ">
<polygon fill="none" stroke="black" points="582,-112.5 582,-131.5 686,-131.5 686,-112.5 582,-112.5"/>
<text text-anchor="middle" x="634" y="-119.5" font-family="Helvetica,sans-Serif" font-size="10.00">tools/lrep/lrep.cpp</text>
</a>
</g>
</g>
<!-- Node1&#45;&gt;Node8 -->
<g id="edge23" class="edge">
<title>Node1&#45;&gt;Node8</title>
<path fill="none" stroke="midnightblue" d="M910.47,-221.1C847.58,-198.79 713.28,-151.13 658.27,-131.61"/>
<polygon fill="midnightblue" stroke="midnightblue" points="909.34,-224.41 919.93,-224.46 911.68,-217.82 909.34,-224.41"/>
</g>
<!-- Node11 -->
<g id="node11" class="node">
<title>Node11</title>
<g id="a_node11"><a xlink:href="../../d9/d3a/lblk_8cpp.html" target="_top" xlink:title=" ">
<polygon fill="none" stroke="black" points="704.5,-112.5 704.5,-131.5 807.5,-131.5 807.5,-112.5 704.5,-112.5"/>
<text text-anchor="middle" x="756" y="-119.5" font-family="Helvetica,sans-Serif" font-size="10.00">tools/lblk/lblk.cpp</text>
</a>
</g>
</g>
<!-- Node1&#45;&gt;Node11 -->
<g id="edge28" class="edge">
<title>Node1&#45;&gt;Node11</title>
<path fill="none" stroke="midnightblue" d="M920.59,-219.3C881.28,-196.3 803.15,-150.59 770.68,-131.59"/>
<polygon fill="midnightblue" stroke="midnightblue" points="918.85,-222.34 929.25,-224.37 922.38,-216.3 918.85,-222.34"/>
</g>
<!-- Node12 -->
<g id="node12" class="node">
<title>Node12</title>
<g id="a_node12"><a xlink:href="../../d6/df8/system_8cpp.html" target="_top" xlink:title=" ">
<polygon fill="none" stroke="black" points="1026,-168.5 1026,-187.5 1114,-187.5 1114,-168.5 1026,-168.5"/>
<text text-anchor="middle" x="1070" y="-175.5" font-family="Helvetica,sans-Serif" font-size="10.00">lib/system.cpp</text>
</a>
</g>
</g>
<!-- Node1&#45;&gt;Node12 -->
<g id="edge13" class="edge">
<title>Node1&#45;&gt;Node12</title>
<path fill="none" stroke="midnightblue" d="M973.16,-220.5C996.78,-210.38 1029.43,-196.39 1050.13,-187.52"/>
<polygon fill="midnightblue" stroke="midnightblue" points="971.78,-217.29 963.97,-224.44 974.54,-223.72 971.78,-217.29"/>
</g>
<!-- Node13 -->
<g id="node13" class="node">
<title>Node13</title>
<g id="a_node13"><a xlink:href="../../df/d77/xdata_8hpp.html" target="_top" xlink:title=" ">
<polygon fill="none" stroke="black" points="1331,-168.5 1331,-187.5 1451,-187.5 1451,-168.5 1331,-168.5"/>
<text text-anchor="middle" x="1391" y="-175.5" font-family="Helvetica,sans-Serif" font-size="10.00">tools/lmon/xdata.hpp</text>
</a>
</g>
</g>
<!-- Node1&#45;&gt;Node13 -->
<g id="edge14" class="edge">
<title>Node1&#45;&gt;Node13</title>
<path fill="none" stroke="midnightblue" d="M993.81,-226.98C1076.46,-217 1241.66,-197.04 1330.74,-186.28"/>
<polygon fill="midnightblue" stroke="midnightblue" points="993.18,-223.53 983.67,-228.21 994.02,-230.48 993.18,-223.53"/>
</g>
<!-- Node16 -->
<g id="node15" class="node">
<title>Node16</title>
<g id="a_node15"><a xlink:href="../../d4/d0e/lmon__curses_8cpp.html" target="_top" xlink:title=" ">
<polygon fill="none" stroke="black" points="1286.5,-0.5 1286.5,-19.5 1439.5,-19.5 1439.5,-0.5 1286.5,-0.5"/>
<text text-anchor="middle" x="1363" y="-7.5" font-family="Helvetica,sans-Serif" font-size="10.00">tools/lmon/lmon_curses.cpp</text>
</a>
</g>
</g>
<!-- Node1&#45;&gt;Node16 -->
<g id="edge22" class="edge">
<title>Node1&#45;&gt;Node16</title>
<path fill="none" stroke="midnightblue" d="M993.68,-223.36C1030.06,-215.61 1080.32,-203.48 1123,-188 1176.82,-168.48 1198.24,-172.2 1239,-132 1265.89,-105.48 1250.54,-82.95 1277,-56 1293.88,-38.8 1318.74,-26.78 1337.39,-19.51"/>
<polygon fill="midnightblue" stroke="midnightblue" points="992.87,-219.95 983.8,-225.42 994.3,-226.8 992.87,-219.95"/>
</g>
<!-- Node18 -->
<g id="node17" class="node">
<title>Node18</title>
<g id="a_node17"><a xlink:href="../../d4/d35/lmon__curses_8hpp.html" target="_top" xlink:title=" ">
<polygon fill="none" stroke="red" points="1286,-56.5 1286,-75.5 1440,-75.5 1440,-56.5 1286,-56.5"/>
<text text-anchor="middle" x="1363" y="-63.5" font-family="Helvetica,sans-Serif" font-size="10.00">tools/lmon/lmon_curses.hpp</text>
</a>
</g>
</g>
<!-- Node1&#45;&gt;Node18 -->
<g id="edge21" class="edge">
<title>Node1&#45;&gt;Node18</title>
<path fill="none" stroke="midnightblue" d="M994.05,-231.49C1074.43,-228.18 1227.73,-218.03 1272,-188 1304.12,-166.21 1291.01,-142.51 1315,-112 1326.01,-97.99 1341.43,-84.35 1351.79,-75.82"/>
<polygon fill="midnightblue" stroke="midnightblue" points="993.54,-228 983.69,-231.89 993.81,-235 993.54,-228"/>
</g>
<!-- Node23 -->
<g id="node19" class="node">
<title>Node23</title>
<g id="a_node19"><a xlink:href="../../d1/d59/lar__snap_8hpp.html" target="_top" xlink:title=" ">
<polygon fill="none" stroke="black" points="880,-168.5 880,-187.5 1008,-187.5 1008,-168.5 880,-168.5"/>
<text text-anchor="middle" x="944" y="-175.5" font-family="Helvetica,sans-Serif" font-size="10.00">tools/lard/lar_snap.hpp</text>
</a>
</g>
</g>
<!-- Node1&#45;&gt;Node23 -->
<g id="edge24" class="edge">
<title>Node1&#45;&gt;Node23</title>
<path fill="none" stroke="midnightblue" d="M944,-213.8C944,-204.91 944,-194.78 944,-187.75"/>
<polygon fill="midnightblue" stroke="midnightblue" points="940.5,-214.08 944,-224.08 947.5,-214.08 940.5,-214.08"/>
</g>
<!-- Node26 -->
<g id="node22" class="node">
<title>Node26</title>
<g id="a_node22"><a xlink:href="../../da/d06/labbix_8cpp.html" target="_top" xlink:title=" ">
<polygon fill="none" stroke="black" points="1469.5,-168.5 1469.5,-187.5 1596.5,-187.5 1596.5,-168.5 1469.5,-168.5"/>
<text text-anchor="middle" x="1533" y="-175.5" font-family="Helvetica,sans-Serif" font-size="10.00">tools/labbix/labbix.cpp</text>
</a>
</g>
</g>
<!-- Node1&#45;&gt;Node26 -->
<g id="edge29" class="edge">
<title>Node1&#45;&gt;Node26</title>
<path fill="none" stroke="midnightblue" d="M993.68,-229.26C1085.74,-222.2 1289.07,-205.98 1460,-188 1463.05,-187.68 1466.17,-187.34 1469.31,-186.99"/>
<polygon fill="midnightblue" stroke="midnightblue" points="993.24,-225.78 983.53,-230.04 993.77,-232.76 993.24,-225.78"/>
</g>
<!-- Node3&#45;&gt;Node2 -->
<g id="edge3" class="edge">
<title>Node3&#45;&gt;Node2</title>
<path fill="none" stroke="midnightblue" d="M412.88,-171.83C339.43,-164.42 202.81,-149.71 87,-132 84.15,-131.56 81.21,-131.09 78.26,-130.58"/>
<polygon fill="midnightblue" stroke="midnightblue" points="412.95,-175.35 423.25,-172.87 413.64,-168.39 412.95,-175.35"/>
</g>
<!-- Node4 -->
<g id="node4" class="node">
<title>Node4</title>
<g id="a_node4"><a xlink:href="../../d7/dfc/cpu_8cpp.html" target="_top" xlink:title=" ">
<polygon fill="none" stroke="black" points="198.5,-112.5 198.5,-131.5 267.5,-131.5 267.5,-112.5 198.5,-112.5"/>
<text text-anchor="middle" x="233" y="-119.5" font-family="Helvetica,sans-Serif" font-size="10.00">lib/cpu.cpp</text>
</a>
</g>
</g>
<!-- Node3&#45;&gt;Node4 -->
<g id="edge4" class="edge">
<title>Node3&#45;&gt;Node4</title>
<path fill="none" stroke="midnightblue" d="M419.33,-166.18C374.6,-155.82 308.13,-140.41 267.84,-131.08"/>
<polygon fill="midnightblue" stroke="midnightblue" points="418.55,-169.6 429.08,-168.44 420.13,-162.78 418.55,-169.6"/>
</g>
<!-- Node3&#45;&gt;Node5 -->
<g id="edge5" class="edge">
<title>Node3&#45;&gt;Node5</title>
<path fill="none" stroke="midnightblue" d="M413.27,-168.65C357.51,-159.77 267.01,-145.22 189,-132 186.07,-131.5 183.06,-130.99 180.02,-130.46"/>
<polygon fill="midnightblue" stroke="midnightblue" points="412.84,-172.13 423.26,-170.24 413.94,-165.21 412.84,-172.13"/>
</g>
<!-- Node6 -->
<g id="node6" class="node">
<title>Node6</title>
<g id="a_node6"><a xlink:href="../../d5/d87/pci_8cpp.html" target="_top" xlink:title=" ">
<polygon fill="none" stroke="black" points="286,-112.5 286,-131.5 352,-131.5 352,-112.5 286,-112.5"/>
<text text-anchor="middle" x="319" y="-119.5" font-family="Helvetica,sans-Serif" font-size="10.00">lib/pci.cpp</text>
</a>
</g>
</g>
<!-- Node3&#45;&gt;Node6 -->
<g id="edge6" class="edge">
<title>Node3&#45;&gt;Node6</title>
<path fill="none" stroke="midnightblue" d="M433.08,-164.91C405.44,-154.75 366.66,-140.51 342.18,-131.52"/>
<polygon fill="midnightblue" stroke="midnightblue" points="432.11,-168.28 442.71,-168.44 434.53,-161.71 432.11,-168.28"/>
</g>
<!-- Node7 -->
<g id="node7" class="node">
<title>Node7</title>
<g id="a_node7"><a xlink:href="../../d3/d35/usb_8cpp.html" target="_top" xlink:title=" ">
<polygon fill="none" stroke="black" points="370.5,-112.5 370.5,-131.5 439.5,-131.5 439.5,-112.5 370.5,-112.5"/>
<text text-anchor="middle" x="405" y="-119.5" font-family="Helvetica,sans-Serif" font-size="10.00">lib/usb.cpp</text>
</a>
</g>
</g>
<!-- Node3&#45;&gt;Node7 -->
<g id="edge7" class="edge">
<title>Node3&#45;&gt;Node7</title>
<path fill="none" stroke="midnightblue" d="M448.53,-161.54C437.66,-151.91 424.06,-139.87 414.98,-131.83"/>
<polygon fill="midnightblue" stroke="midnightblue" points="446.39,-164.32 456.2,-168.32 451.03,-159.07 446.39,-164.32"/>
</g>
<!-- Node3&#45;&gt;Node8 -->
<g id="edge8" class="edge">
<title>Node3&#45;&gt;Node8</title>
<path fill="none" stroke="midnightblue" d="M502.39,-165.3C534.04,-155.13 579.17,-140.62 607.5,-131.52"/>
<polygon fill="midnightblue" stroke="midnightblue" points="501.07,-162.05 492.62,-168.44 503.21,-168.72 501.07,-162.05"/>
</g>
<!-- Node9 -->
<g id="node9" class="node">
<title>Node9</title>
<g id="a_node9"><a xlink:href="../../de/d17/lsys_8cpp.html" target="_top" xlink:title=" ">
<polygon fill="none" stroke="black" points="458,-112.5 458,-131.5 564,-131.5 564,-112.5 458,-112.5"/>
<text text-anchor="middle" x="511" y="-119.5" font-family="Helvetica,sans-Serif" font-size="10.00">tools/lsys/lsys.cpp</text>
</a>
</g>
</g>
<!-- Node3&#45;&gt;Node9 -->
<g id="edge9" class="edge">
<title>Node3&#45;&gt;Node9</title>
<path fill="none" stroke="midnightblue" d="M480.05,-160.14C487.89,-150.74 497.33,-139.4 503.71,-131.75"/>
<polygon fill="midnightblue" stroke="midnightblue" points="477.14,-158.16 473.43,-168.08 482.52,-162.64 477.14,-158.16"/>
</g>
<!-- Node10 -->
<g id="node10" class="node">
<title>Node10</title>
<g id="a_node10"><a xlink:href="../../da/de9/lar_8cpp.html" target="_top" xlink:title=" ">
<polygon fill="none" stroke="black" points="826,-112.5 826,-131.5 924,-131.5 924,-112.5 826,-112.5"/>
<text text-anchor="middle" x="875" y="-119.5" font-family="Helvetica,sans-Serif" font-size="10.00">tools/lard/lar.cpp</text>
</a>
</g>
</g>
<!-- Node3&#45;&gt;Node10 -->
<g id="edge10" class="edge">
<title>Node3&#45;&gt;Node10</title>
<path fill="none" stroke="midnightblue" d="M518.88,-170.66C587.63,-162.32 711.41,-146.96 817,-132 819.93,-131.59 822.93,-131.15 825.97,-130.7"/>
<polygon fill="midnightblue" stroke="midnightblue" points="518.24,-167.21 508.73,-171.89 519.08,-174.16 518.24,-167.21"/>
</g>
<!-- Node3&#45;&gt;Node11 -->
<g id="edge11" class="edge">
<title>Node3&#45;&gt;Node11</title>
<path fill="none" stroke="midnightblue" d="M518.64,-167.2C573.35,-157.01 658.11,-141.23 710.16,-131.54"/>
<polygon fill="midnightblue" stroke="midnightblue" points="517.98,-163.76 508.79,-169.03 519.26,-170.64 517.98,-163.76"/>
</g>
<!-- Node14 -->
<g id="node14" class="node">
<title>Node14</title>
<g id="a_node14"><a xlink:href="../../d4/de1/history_8hpp.html" target="_top" xlink:title=" ">
<polygon fill="none" stroke="red" points="1458.5,-56.5 1458.5,-75.5 1583.5,-75.5 1583.5,-56.5 1458.5,-56.5"/>
<text text-anchor="middle" x="1521" y="-63.5" font-family="Helvetica,sans-Serif" font-size="10.00">tools/lmon/history.hpp</text>
</a>
</g>
</g>
<!-- Node13&#45;&gt;Node14 -->
<g id="edge15" class="edge">
<title>Node13&#45;&gt;Node14</title>
<path fill="none" stroke="midnightblue" d="M1418.26,-163.81C1433.45,-155.76 1452.22,-144.61 1467,-132 1487.32,-114.67 1506.04,-89.13 1515.17,-75.81"/>
<polygon fill="midnightblue" stroke="midnightblue" points="1416.63,-160.71 1409.34,-168.4 1419.83,-166.93 1416.63,-160.71"/>
</g>
<!-- Node17 -->
<g id="node16" class="node">
<title>Node17</title>
<g id="a_node16"><a xlink:href="../../dd/d86/realtime_8hpp.html" target="_top" xlink:title=" ">
<polygon fill="none" stroke="red" points="1324,-112.5 1324,-131.5 1458,-131.5 1458,-112.5 1324,-112.5"/>
<text text-anchor="middle" x="1391" y="-119.5" font-family="Helvetica,sans-Serif" font-size="10.00">tools/lmon/realtime.hpp</text>
</a>
</g>
</g>
<!-- Node13&#45;&gt;Node17 -->
<g id="edge17" class="edge">
<title>Node13&#45;&gt;Node17</title>
<path fill="none" stroke="midnightblue" d="M1391,-157.8C1391,-148.91 1391,-138.78 1391,-131.75"/>
<polygon fill="midnightblue" stroke="midnightblue" points="1387.5,-158.08 1391,-168.08 1394.5,-158.08 1387.5,-158.08"/>
</g>
<!-- Node21 -->
<g id="node18" class="node">
<title>Node21</title>
<g id="a_node18"><a xlink:href="../../d5/da4/trigger_8hpp.html" target="_top" xlink:title=" ">
<polygon fill="none" stroke="red" points="1514,-112.5 1514,-131.5 1638,-131.5 1638,-112.5 1514,-112.5"/>
<text text-anchor="middle" x="1576" y="-119.5" font-family="Helvetica,sans-Serif" font-size="10.00">tools/lmon/trigger.hpp</text>
</a>
</g>
</g>
<!-- Node13&#45;&gt;Node21 -->
<g id="edge20" class="edge">
<title>Node13&#45;&gt;Node21</title>
<path fill="none" stroke="midnightblue" d="M1430.17,-165.57C1465.07,-155.38 1515.35,-140.7 1546.82,-131.52"/>
<polygon fill="midnightblue" stroke="midnightblue" points="1428.93,-162.28 1420.31,-168.44 1430.89,-169 1428.93,-162.28"/>
</g>
<!-- Node14&#45;&gt;Node16 -->
<g id="edge16" class="edge">
<title>Node14&#45;&gt;Node16</title>
<path fill="none" stroke="midnightblue" d="M1486.39,-53.17C1456.64,-43 1414.45,-28.59 1387.92,-19.52"/>
<polygon fill="midnightblue" stroke="midnightblue" points="1485.37,-56.52 1495.96,-56.44 1487.63,-49.9 1485.37,-56.52"/>
</g>
<!-- Node17&#45;&gt;Node18 -->
<g id="edge18" class="edge">
<title>Node17&#45;&gt;Node18</title>
<path fill="none" stroke="midnightblue" d="M1381.66,-102.98C1376.91,-93.82 1371.34,-83.09 1367.54,-75.75"/>
<polygon fill="midnightblue" stroke="midnightblue" points="1378.67,-104.82 1386.38,-112.08 1384.88,-101.59 1378.67,-104.82"/>
</g>
<!-- Node18&#45;&gt;Node16 -->
<g id="edge19" class="edge">
<title>Node18&#45;&gt;Node16</title>
<path fill="none" stroke="midnightblue" d="M1363,-45.8C1363,-36.91 1363,-26.78 1363,-19.75"/>
<polygon fill="midnightblue" stroke="midnightblue" points="1359.5,-46.08 1363,-56.08 1366.5,-46.08 1359.5,-46.08"/>
</g>
<!-- Node23&#45;&gt;Node10 -->
<g id="edge25" class="edge">
<title>Node23&#45;&gt;Node10</title>
<path fill="none" stroke="midnightblue" d="M924.96,-162.1C912.54,-152.38 896.76,-140.03 886.29,-131.83"/>
<polygon fill="midnightblue" stroke="midnightblue" points="922.88,-164.92 932.91,-168.32 927.2,-159.4 922.88,-164.92"/>
</g>
<!-- Node24 -->
<g id="node20" class="node">
<title>Node24</title>
<g id="a_node20"><a xlink:href="../../da/da6/lar__schema_8cpp.html" target="_top" xlink:title=" ">
<polygon fill="none" stroke="black" points="942,-112.5 942,-131.5 1084,-131.5 1084,-112.5 942,-112.5"/>
<text text-anchor="middle" x="1013" y="-119.5" font-family="Helvetica,sans-Serif" font-size="10.00">tools/lard/lar_schema.cpp</text>
</a>
</g>
</g>
<!-- Node23&#45;&gt;Node24 -->
<g id="edge26" class="edge">
<title>Node23&#45;&gt;Node24</title>
<path fill="none" stroke="midnightblue" d="M963.04,-162.1C975.46,-152.38 991.24,-140.03 1001.71,-131.83"/>
<polygon fill="midnightblue" stroke="midnightblue" points="960.8,-159.4 955.09,-168.32 965.12,-164.92 960.8,-159.4"/>
</g>
<!-- Node25 -->
<g id="node21" class="node">
<title>Node25</title>
<g id="a_node21"><a xlink:href="../../d4/dc8/lar__snap_8cpp.html" target="_top" xlink:title=" ">
<polygon fill="none" stroke="black" points="1102.5,-112.5 1102.5,-131.5 1229.5,-131.5 1229.5,-112.5 1102.5,-112.5"/>
<text text-anchor="middle" x="1166" y="-119.5" font-family="Helvetica,sans-Serif" font-size="10.00">tools/lard/lar_snap.cpp</text>
</a>
</g>
</g>
<!-- Node23&#45;&gt;Node25 -->
<g id="edge27" class="edge">
<title>Node23&#45;&gt;Node25</title>
<path fill="none" stroke="midnightblue" d="M989.12,-166.02C1031.06,-155.82 1092.65,-140.84 1130.99,-131.52"/>
<polygon fill="midnightblue" stroke="midnightblue" points="988.07,-162.68 979.18,-168.44 989.72,-169.48 988.07,-162.68"/>
</g>
</g>
</svg>
