<?xml version="1.0" encoding="UTF-8" standalone="no"?>
<!DOCTYPE svg PUBLIC "-//W3C//DTD SVG 1.1//EN"
 "http://www.w3.org/Graphics/SVG/1.1/DTD/svg11.dtd">
<!-- Generated by graphviz version 2.43.0 (0)
 -->
<!-- Title: leanux::tools::lmon::Palette::getColorRunningProc Pages: 1 -->
<svg width="338pt" height="88pt"
 viewBox="0.00 0.00 338.00 88.00" xmlns="http://www.w3.org/2000/svg" xmlns:xlink="http://www.w3.org/1999/xlink">
<g id="graph0" class="graph" transform="scale(1 1) rotate(0) translate(4 84)">
<title>leanux::tools::lmon::Palette::getColorRunningProc</title>
<!-- Node1 -->
<g id="node1" class="node">
<title>Node1</title>
<g id="a_node1"><a xlink:title="get running process color.">
<polygon fill="#bfbfbf" stroke="black" points="166,-24.5 166,-54.5 330,-54.5 330,-24.5 166,-24.5"/>
<text text-anchor="start" x="174" y="-42.5" font-family="Helvetica,sans-Serif" font-size="10.00">leanux::tools::lmon</text>
<text text-anchor="middle" x="248" y="-31.5" font-family="Helvetica,sans-Serif" font-size="10.00">::Palette::getColorRunningProc</text>
</a>
</g>
</g>
<!-- Node2 -->
<g id="node2" class="node">
<title>Node2</title>
<g id="a_node2"><a xlink:href="../../d1/de8/classleanux_1_1tools_1_1lmon_1_1View.html#a1d79fb91685ffcecf4d9fe9cbdd01700" target="_top" xlink:title="The constructor specifies location and size of the View on the Screen.">
<polygon fill="none" stroke="black" points="10,-49.5 10,-79.5 120,-79.5 120,-49.5 10,-49.5"/>
<text text-anchor="start" x="18" y="-67.5" font-family="Helvetica,sans-Serif" font-size="10.00">leanux::tools::lmon</text>
<text text-anchor="middle" x="65" y="-56.5" font-family="Helvetica,sans-Serif" font-size="10.00">::View::View</text>
</a>
</g>
</g>
<!-- Node1&#45;&gt;Node2 -->
<g id="edge1" class="edge">
<title>Node1&#45;&gt;Node2</title>
<path fill="none" stroke="midnightblue" d="M155.62,-52.12C143.52,-53.79 131.44,-55.46 120.25,-57.01"/>
<polygon fill="midnightblue" stroke="midnightblue" points="156.34,-55.56 165.77,-50.72 155.38,-48.62 156.34,-55.56"/>
</g>
<!-- Node3 -->
<g id="node3" class="node">
<title>Node3</title>
<g id="a_node3"><a xlink:href="../../d6/d0a/classleanux_1_1tools_1_1lmon_1_1ProcessView.html#af3566e8ec176744fcd254c558de68eed" target="_top" xlink:title="Refresh/redraw the ProcessView.">
<polygon fill="none" stroke="black" points="0,-0.5 0,-30.5 130,-30.5 130,-0.5 0,-0.5"/>
<text text-anchor="start" x="8" y="-18.5" font-family="Helvetica,sans-Serif" font-size="10.00">leanux::tools::lmon</text>
<text text-anchor="middle" x="65" y="-7.5" font-family="Helvetica,sans-Serif" font-size="10.00">::ProcessView::xrefresh</text>
</a>
</g>
</g>
<!-- Node1&#45;&gt;Node3 -->
<g id="edge2" class="edge">
<title>Node1&#45;&gt;Node3</title>
<path fill="none" stroke="midnightblue" d="M155.66,-27.39C147.04,-26.25 138.44,-25.1 130.15,-24.01"/>
<polygon fill="midnightblue" stroke="midnightblue" points="155.39,-30.88 165.77,-28.73 156.31,-23.94 155.39,-30.88"/>
</g>
</g>
</svg>
