<?xml version="1.0" encoding="UTF-8" standalone="no"?>
<!DOCTYPE svg PUBLIC "-//W3C//DTD SVG 1.1//EN"
 "http://www.w3.org/Graphics/SVG/1.1/DTD/svg11.dtd">
<!-- Generated by graphviz version 2.43.0 (0)
 -->
<!-- Title: leanux::tools::lmon::Palette::getColorSystemCPU Pages: 1 -->
<svg width="505pt" height="88pt"
 viewBox="0.00 0.00 505.00 88.00" xmlns="http://www.w3.org/2000/svg" xmlns:xlink="http://www.w3.org/1999/xlink">
<g id="graph0" class="graph" transform="scale(1 1) rotate(0) translate(4 84)">
<title>leanux::tools::lmon::Palette::getColorSystemCPU</title>
<!-- Node1 -->
<g id="node1" class="node">
<title>Node1</title>
<g id="a_node1"><a xlink:title="get system cpu color.">
<polygon fill="#bfbfbf" stroke="black" points="336,-24.5 336,-54.5 497,-54.5 497,-24.5 336,-24.5"/>
<text text-anchor="start" x="344" y="-42.5" font-family="Helvetica,sans-Serif" font-size="10.00">leanux::tools::lmon</text>
<text text-anchor="middle" x="416.5" y="-31.5" font-family="Helvetica,sans-Serif" font-size="10.00">::Palette::getColorSystemCPU</text>
</a>
</g>
</g>
<!-- Node2 -->
<g id="node2" class="node">
<title>Node2</title>
<g id="a_node2"><a xlink:href="../../da/d9f/classleanux_1_1tools_1_1lmon_1_1SysView.html#a01702243a446d6a32114b87b8c4d399b" target="_top" xlink:title="Get ncurses display attributes depending on the type of CPU chararcter.">
<polygon fill="none" stroke="black" points="146,-49.5 146,-79.5 300,-79.5 300,-49.5 146,-49.5"/>
<text text-anchor="start" x="154" y="-67.5" font-family="Helvetica,sans-Serif" font-size="10.00">leanux::tools::lmon</text>
<text text-anchor="middle" x="223" y="-56.5" font-family="Helvetica,sans-Serif" font-size="10.00">::SysView::attrFromCPUChar</text>
</a>
</g>
</g>
<!-- Node1&#45;&gt;Node2 -->
<g id="edge1" class="edge">
<title>Node1&#45;&gt;Node2</title>
<path fill="none" stroke="midnightblue" d="M325.92,-51.2C317.33,-52.32 308.67,-53.45 300.23,-54.55"/>
<polygon fill="midnightblue" stroke="midnightblue" points="326.49,-54.65 335.95,-49.89 325.58,-47.71 326.49,-54.65"/>
</g>
<!-- Node4 -->
<g id="node4" class="node">
<title>Node4</title>
<g id="a_node4"><a xlink:href="../../db/dda/classleanux_1_1tools_1_1lmon_1_1Footer.html#a5fd79b07f7441318e0a842b4b3024ee9" target="_top" xlink:title="Construct a Footer.">
<polygon fill="none" stroke="black" points="168,-0.5 168,-30.5 278,-30.5 278,-0.5 168,-0.5"/>
<text text-anchor="start" x="176" y="-18.5" font-family="Helvetica,sans-Serif" font-size="10.00">leanux::tools::lmon</text>
<text text-anchor="middle" x="223" y="-7.5" font-family="Helvetica,sans-Serif" font-size="10.00">::Footer::Footer</text>
</a>
</g>
</g>
<!-- Node1&#45;&gt;Node4 -->
<g id="edge3" class="edge">
<title>Node1&#45;&gt;Node4</title>
<path fill="none" stroke="midnightblue" d="M325.87,-28.27C309.61,-26.23 293.11,-24.16 278.26,-22.3"/>
<polygon fill="midnightblue" stroke="midnightblue" points="325.59,-31.76 335.95,-29.53 326.46,-24.81 325.59,-31.76"/>
</g>
<!-- Node3 -->
<g id="node3" class="node">
<title>Node3</title>
<g id="a_node3"><a xlink:href="../../da/d9f/classleanux_1_1tools_1_1lmon_1_1SysView.html#ad72b5ee6be63091f3d320a23721d5cb4" target="_top" xlink:title="refresh (redraw) the View.">
<polygon fill="none" stroke="black" points="0,-49.5 0,-79.5 110,-79.5 110,-49.5 0,-49.5"/>
<text text-anchor="start" x="8" y="-67.5" font-family="Helvetica,sans-Serif" font-size="10.00">leanux::tools::lmon</text>
<text text-anchor="middle" x="55" y="-56.5" font-family="Helvetica,sans-Serif" font-size="10.00">::SysView::xrefresh</text>
</a>
</g>
</g>
<!-- Node2&#45;&gt;Node3 -->
<g id="edge2" class="edge">
<title>Node2&#45;&gt;Node3</title>
<path fill="none" stroke="midnightblue" d="M135.71,-64.5C127.12,-64.5 118.57,-64.5 110.43,-64.5"/>
<polygon fill="midnightblue" stroke="midnightblue" points="135.8,-68 145.8,-64.5 135.8,-61 135.8,-68"/>
</g>
</g>
</svg>
