<?xml version="1.0" encoding="UTF-8" standalone="no"?>
<!DOCTYPE svg PUBLIC "-//W3C//DTD SVG 1.1//EN"
 "http://www.w3.org/Graphics/SVG/1.1/DTD/svg11.dtd">
<!-- Generated by graphviz version 2.43.0 (0)
 -->
<!-- Title: leanux::tools::lmon::Palette::getColorBlockedProc Pages: 1 -->
<svg width="337pt" height="186pt"
 viewBox="0.00 0.00 337.00 186.00" xmlns="http://www.w3.org/2000/svg" xmlns:xlink="http://www.w3.org/1999/xlink">
<g id="graph0" class="graph" transform="scale(1 1) rotate(0) translate(4 182)">
<title>leanux::tools::lmon::Palette::getColorBlockedProc</title>
<!-- Node1 -->
<g id="node1" class="node">
<title>Node1</title>
<g id="a_node1"><a xlink:title="get blocked process color.">
<polygon fill="#bfbfbf" stroke="black" points="166,-73.5 166,-103.5 329,-103.5 329,-73.5 166,-73.5"/>
<text text-anchor="start" x="174" y="-91.5" font-family="Helvetica,sans-Serif" font-size="10.00">leanux::tools::lmon</text>
<text text-anchor="middle" x="247.5" y="-80.5" font-family="Helvetica,sans-Serif" font-size="10.00">::Palette::getColorBlockedProc</text>
</a>
</g>
</g>
<!-- Node2 -->
<g id="node2" class="node">
<title>Node2</title>
<g id="a_node2"><a xlink:href="../../db/dda/classleanux_1_1tools_1_1lmon_1_1Footer.html#a5fd79b07f7441318e0a842b4b3024ee9" target="_top" xlink:title="Construct a Footer.">
<polygon fill="none" stroke="black" points="10,-147.5 10,-177.5 120,-177.5 120,-147.5 10,-147.5"/>
<text text-anchor="start" x="18" y="-165.5" font-family="Helvetica,sans-Serif" font-size="10.00">leanux::tools::lmon</text>
<text text-anchor="middle" x="65" y="-154.5" font-family="Helvetica,sans-Serif" font-size="10.00">::Footer::Footer</text>
</a>
</g>
</g>
<!-- Node1&#45;&gt;Node2 -->
<g id="edge1" class="edge">
<title>Node1&#45;&gt;Node2</title>
<path fill="none" stroke="midnightblue" d="M203.18,-107.66C181.34,-117.18 154.37,-128.71 130,-138.5 122.62,-141.46 114.72,-144.52 107.08,-147.42"/>
<polygon fill="midnightblue" stroke="midnightblue" points="204.76,-110.79 212.52,-103.58 201.96,-104.38 204.76,-110.79"/>
</g>
<!-- Node3 -->
<g id="node3" class="node">
<title>Node3</title>
<g id="a_node3"><a xlink:href="../../d1/de8/classleanux_1_1tools_1_1lmon_1_1View.html#a1d79fb91685ffcecf4d9fe9cbdd01700" target="_top" xlink:title="The constructor specifies location and size of the View on the Screen.">
<polygon fill="none" stroke="black" points="10,-98.5 10,-128.5 120,-128.5 120,-98.5 10,-98.5"/>
<text text-anchor="start" x="18" y="-116.5" font-family="Helvetica,sans-Serif" font-size="10.00">leanux::tools::lmon</text>
<text text-anchor="middle" x="65" y="-105.5" font-family="Helvetica,sans-Serif" font-size="10.00">::View::View</text>
</a>
</g>
</g>
<!-- Node1&#45;&gt;Node3 -->
<g id="edge2" class="edge">
<title>Node1&#45;&gt;Node3</title>
<path fill="none" stroke="midnightblue" d="M155.55,-101.1C143.39,-102.78 131.25,-104.46 120.01,-106.02"/>
<polygon fill="midnightblue" stroke="midnightblue" points="156.33,-104.52 165.75,-99.68 155.37,-97.59 156.33,-104.52"/>
</g>
<!-- Node4 -->
<g id="node4" class="node">
<title>Node4</title>
<g id="a_node4"><a xlink:href="../../d8/d7f/classleanux_1_1tools_1_1lmon_1_1IOView.html#ad5d8db29927cc18e861cfa5ba48ecd94" target="_top" xlink:title="refresh (redraw) the View.">
<polygon fill="none" stroke="black" points="10,-49.5 10,-79.5 120,-79.5 120,-49.5 10,-49.5"/>
<text text-anchor="start" x="18" y="-67.5" font-family="Helvetica,sans-Serif" font-size="10.00">leanux::tools::lmon</text>
<text text-anchor="middle" x="65" y="-56.5" font-family="Helvetica,sans-Serif" font-size="10.00">::IOView::xrefresh</text>
</a>
</g>
</g>
<!-- Node1&#45;&gt;Node4 -->
<g id="edge3" class="edge">
<title>Node1&#45;&gt;Node4</title>
<path fill="none" stroke="midnightblue" d="M155.55,-76.41C143.39,-74.79 131.25,-73.18 120.01,-71.68"/>
<polygon fill="midnightblue" stroke="midnightblue" points="155.38,-79.91 165.75,-77.76 156.3,-72.98 155.38,-79.91"/>
</g>
<!-- Node5 -->
<g id="node5" class="node">
<title>Node5</title>
<g id="a_node5"><a xlink:href="../../d6/d0a/classleanux_1_1tools_1_1lmon_1_1ProcessView.html#af3566e8ec176744fcd254c558de68eed" target="_top" xlink:title="Refresh/redraw the ProcessView.">
<polygon fill="none" stroke="black" points="0,-0.5 0,-30.5 130,-30.5 130,-0.5 0,-0.5"/>
<text text-anchor="start" x="8" y="-18.5" font-family="Helvetica,sans-Serif" font-size="10.00">leanux::tools::lmon</text>
<text text-anchor="middle" x="65" y="-7.5" font-family="Helvetica,sans-Serif" font-size="10.00">::ProcessView::xrefresh</text>
</a>
</g>
</g>
<!-- Node1&#45;&gt;Node5 -->
<g id="edge4" class="edge">
<title>Node1&#45;&gt;Node5</title>
<path fill="none" stroke="midnightblue" d="M200.84,-69.46C179.38,-60.57 153.42,-49.9 130,-40.5 121.92,-37.26 113.24,-33.83 104.97,-30.59"/>
<polygon fill="midnightblue" stroke="midnightblue" points="199.78,-72.81 210.36,-73.41 202.47,-66.34 199.78,-72.81"/>
</g>
</g>
</svg>
