<?xml version="1.0" encoding="UTF-8" standalone="no"?>
<!DOCTYPE svg PUBLIC "-//W3C//DTD SVG 1.1//EN"
 "http://www.w3.org/Graphics/SVG/1.1/DTD/svg11.dtd">
<!-- Generated by graphviz version 2.43.0 (0)
 -->
<!-- Title: leanux::tools::lmon::Palette::setup Pages: 1 -->
<svg width="440pt" height="88pt"
 viewBox="0.00 0.00 440.00 88.00" xmlns="http://www.w3.org/2000/svg" xmlns:xlink="http://www.w3.org/1999/xlink">
<g id="graph0" class="graph" transform="scale(1 1) rotate(0) translate(4 84)">
<title>leanux::tools::lmon::Palette::setup</title>
<!-- Node1 -->
<g id="node1" class="node">
<title>Node1</title>
<g id="a_node1"><a xlink:title="setup the Palette.">
<polygon fill="#bfbfbf" stroke="black" points="0,-24.5 0,-54.5 110,-54.5 110,-24.5 0,-24.5"/>
<text text-anchor="start" x="8" y="-42.5" font-family="Helvetica,sans-Serif" font-size="10.00">leanux::tools::lmon</text>
<text text-anchor="middle" x="55" y="-31.5" font-family="Helvetica,sans-Serif" font-size="10.00">::Palette::setup</text>
</a>
</g>
</g>
<!-- Node2 -->
<g id="node2" class="node">
<title>Node2</title>
<g id="a_node2"><a xlink:href="../../de/d84/classleanux_1_1util_1_1ConfigFile.html#a8cef175948cd9727c732de3a605c99ba" target="_top" xlink:title="Get the ConfigurationFile object for the appname, or construct one if it does not exist.">
<polygon fill="none" stroke="black" points="146,-49.5 146,-79.5 271,-79.5 271,-49.5 146,-49.5"/>
<text text-anchor="start" x="154" y="-67.5" font-family="Helvetica,sans-Serif" font-size="10.00">leanux::util::ConfigFile</text>
<text text-anchor="middle" x="208.5" y="-56.5" font-family="Helvetica,sans-Serif" font-size="10.00">::getConfig</text>
</a>
</g>
</g>
<!-- Node1&#45;&gt;Node2 -->
<g id="edge1" class="edge">
<title>Node1&#45;&gt;Node2</title>
<path fill="none" stroke="midnightblue" d="M110.27,-48.45C118.57,-49.82 127.24,-51.26 135.84,-52.68"/>
<polygon fill="midnightblue" stroke="midnightblue" points="135.45,-56.16 145.89,-54.33 136.59,-49.25 135.45,-56.16"/>
</g>
<!-- Node3 -->
<g id="node3" class="node">
<title>Node3</title>
<g id="a_node3"><a xlink:href="../../de/d84/classleanux_1_1util_1_1ConfigFile.html#ac0a26e361b745b7e933134618c9fad97" target="_top" xlink:title="return the configuration parameter as a RGB struct.">
<polygon fill="none" stroke="black" points="146,-0.5 146,-30.5 271,-30.5 271,-0.5 146,-0.5"/>
<text text-anchor="start" x="154" y="-18.5" font-family="Helvetica,sans-Serif" font-size="10.00">leanux::util::ConfigFile</text>
<text text-anchor="middle" x="208.5" y="-7.5" font-family="Helvetica,sans-Serif" font-size="10.00">::getRGBValue</text>
</a>
</g>
</g>
<!-- Node1&#45;&gt;Node3 -->
<g id="edge2" class="edge">
<title>Node1&#45;&gt;Node3</title>
<path fill="none" stroke="midnightblue" d="M110.27,-30.9C118.57,-29.59 127.24,-28.21 135.84,-26.85"/>
<polygon fill="midnightblue" stroke="midnightblue" points="136.56,-30.28 145.89,-25.26 135.46,-23.37 136.56,-30.28"/>
</g>
<!-- Node4 -->
<g id="node4" class="node">
<title>Node4</title>
<g id="a_node4"><a xlink:href="../../de/d84/classleanux_1_1util_1_1ConfigFile.html#aece3326e1c10df9dcfb48f4c12967336" target="_top" xlink:title="return the configuration parameter as a string.">
<polygon fill="none" stroke="black" points="307,-0.5 307,-30.5 432,-30.5 432,-0.5 307,-0.5"/>
<text text-anchor="start" x="315" y="-18.5" font-family="Helvetica,sans-Serif" font-size="10.00">leanux::util::ConfigFile</text>
<text text-anchor="middle" x="369.5" y="-7.5" font-family="Helvetica,sans-Serif" font-size="10.00">::getValue</text>
</a>
</g>
</g>
<!-- Node3&#45;&gt;Node4 -->
<g id="edge3" class="edge">
<title>Node3&#45;&gt;Node4</title>
<path fill="none" stroke="midnightblue" d="M271.43,-15.5C279.67,-15.5 288.18,-15.5 296.58,-15.5"/>
<polygon fill="midnightblue" stroke="midnightblue" points="296.74,-19 306.74,-15.5 296.74,-12 296.74,-19"/>
</g>
</g>
</svg>
