<?xml version="1.0" encoding="UTF-8" standalone="no"?>
<!DOCTYPE svg PUBLIC "-//W3C//DTD SVG 1.1//EN"
 "http://www.w3.org/Graphics/SVG/1.1/DTD/svg11.dtd">
<!-- Generated by graphviz version 2.43.0 (0)
 -->
<!-- Title: leanux::tools::lmon::Palette::getColorIRQCPU Pages: 1 -->
<svg width="485pt" height="39pt"
 viewBox="0.00 0.00 485.00 39.00" xmlns="http://www.w3.org/2000/svg" xmlns:xlink="http://www.w3.org/1999/xlink">
<g id="graph0" class="graph" transform="scale(1 1) rotate(0) translate(4 35)">
<title>leanux::tools::lmon::Palette::getColorIRQCPU</title>
<!-- Node1 -->
<g id="node1" class="node">
<title>Node1</title>
<g id="a_node1"><a xlink:title="get irq color.">
<polygon fill="#bfbfbf" stroke="black" points="336,-0.5 336,-30.5 477,-30.5 477,-0.5 336,-0.5"/>
<text text-anchor="start" x="344" y="-18.5" font-family="Helvetica,sans-Serif" font-size="10.00">leanux::tools::lmon</text>
<text text-anchor="middle" x="406.5" y="-7.5" font-family="Helvetica,sans-Serif" font-size="10.00">::Palette::getColorIRQCPU</text>
</a>
</g>
</g>
<!-- Node2 -->
<g id="node2" class="node">
<title>Node2</title>
<g id="a_node2"><a xlink:href="../../da/d9f/classleanux_1_1tools_1_1lmon_1_1SysView.html#a01702243a446d6a32114b87b8c4d399b" target="_top" xlink:title="Get ncurses display attributes depending on the type of CPU chararcter.">
<polygon fill="none" stroke="black" points="146,-0.5 146,-30.5 300,-30.5 300,-0.5 146,-0.5"/>
<text text-anchor="start" x="154" y="-18.5" font-family="Helvetica,sans-Serif" font-size="10.00">leanux::tools::lmon</text>
<text text-anchor="middle" x="223" y="-7.5" font-family="Helvetica,sans-Serif" font-size="10.00">::SysView::attrFromCPUChar</text>
</a>
</g>
</g>
<!-- Node1&#45;&gt;Node2 -->
<g id="edge1" class="edge">
<title>Node1&#45;&gt;Node2</title>
<path fill="none" stroke="midnightblue" d="M325.6,-15.5C317.13,-15.5 308.53,-15.5 300.11,-15.5"/>
<polygon fill="midnightblue" stroke="midnightblue" points="325.85,-19 335.85,-15.5 325.85,-12 325.85,-19"/>
</g>
<!-- Node3 -->
<g id="node3" class="node">
<title>Node3</title>
<g id="a_node3"><a xlink:href="../../da/d9f/classleanux_1_1tools_1_1lmon_1_1SysView.html#ad72b5ee6be63091f3d320a23721d5cb4" target="_top" xlink:title="refresh (redraw) the View.">
<polygon fill="none" stroke="black" points="0,-0.5 0,-30.5 110,-30.5 110,-0.5 0,-0.5"/>
<text text-anchor="start" x="8" y="-18.5" font-family="Helvetica,sans-Serif" font-size="10.00">leanux::tools::lmon</text>
<text text-anchor="middle" x="55" y="-7.5" font-family="Helvetica,sans-Serif" font-size="10.00">::SysView::xrefresh</text>
</a>
</g>
</g>
<!-- Node2&#45;&gt;Node3 -->
<g id="edge2" class="edge">
<title>Node2&#45;&gt;Node3</title>
<path fill="none" stroke="midnightblue" d="M135.71,-15.5C127.12,-15.5 118.57,-15.5 110.43,-15.5"/>
<polygon fill="midnightblue" stroke="midnightblue" points="135.8,-19 145.8,-15.5 135.8,-12 135.8,-19"/>
</g>
</g>
</svg>
