<?xml version="1.0" encoding="UTF-8" standalone="no"?>
<!DOCTYPE svg PUBLIC "-//W3C//DTD SVG 1.1//EN"
 "http://www.w3.org/Graphics/SVG/1.1/DTD/svg11.dtd">
<!-- Generated by graphviz version 2.43.0 (0)
 -->
<!-- Title: tools/lmon/lmon_curses.cpp Pages: 1 -->
<svg width="1702pt" height="364pt"
 viewBox="0.00 0.00 1702.31 364.00" xmlns="http://www.w3.org/2000/svg" xmlns:xlink="http://www.w3.org/1999/xlink">
<g id="graph0" class="graph" transform="scale(1 1) rotate(0) translate(4 360)">
<title>tools/lmon/lmon_curses.cpp</title>
<!-- Node1 -->
<g id="node1" class="node">
<title>Node1</title>
<g id="a_node1"><a xlink:title=" ">
<polygon fill="#bfbfbf" stroke="black" points="1137.31,-336.5 1137.31,-355.5 1290.31,-355.5 1290.31,-336.5 1137.31,-336.5"/>
<text text-anchor="middle" x="1213.81" y="-343.5" font-family="Helvetica,sans-Serif" font-size="10.00">tools/lmon/lmon_curses.cpp</text>
</a>
</g>
</g>
<!-- Node2 -->
<g id="node2" class="node">
<title>Node2</title>
<g id="a_node2"><a xlink:href="../../d4/d35/lmon__curses_8hpp.html" target="_top" xlink:title=" ">
<polygon fill="none" stroke="black" points="570.31,-280.5 570.31,-299.5 669.31,-299.5 669.31,-280.5 570.31,-280.5"/>
<text text-anchor="middle" x="619.81" y="-287.5" font-family="Helvetica,sans-Serif" font-size="10.00">lmon_curses.hpp</text>
</a>
</g>
</g>
<!-- Node1&#45;&gt;Node2 -->
<g id="edge1" class="edge">
<title>Node1&#45;&gt;Node2</title>
<path fill="none" stroke="midnightblue" d="M1137.07,-338.02C1017.21,-327.13 788.09,-306.3 679.6,-296.44"/>
<polygon fill="midnightblue" stroke="midnightblue" points="679.76,-292.94 669.49,-295.52 679.13,-299.91 679.76,-292.94"/>
</g>
<!-- Node3 -->
<g id="node3" class="node">
<title>Node3</title>
<g id="a_node3"><a xlink:href="../../d9/db2/block_8hpp.html" target="_top" xlink:title=" ">
<polygon fill="none" stroke="red" points="655.81,-112.5 655.81,-131.5 719.81,-131.5 719.81,-112.5 655.81,-112.5"/>
<text text-anchor="middle" x="687.81" y="-119.5" font-family="Helvetica,sans-Serif" font-size="10.00">block.hpp</text>
</a>
</g>
</g>
<!-- Node1&#45;&gt;Node3 -->
<g id="edge43" class="edge">
<title>Node1&#45;&gt;Node3</title>
<path fill="none" stroke="midnightblue" d="M1190.97,-336.41C1172.25,-328.68 1145.7,-316.07 1125.81,-300 1091.9,-272.6 1100.41,-247.69 1063.81,-224 956.86,-154.77 803.58,-132.74 730.16,-125.92"/>
<polygon fill="midnightblue" stroke="midnightblue" points="730.19,-122.41 719.93,-125.03 729.58,-129.39 730.19,-122.41"/>
</g>
<!-- Node9 -->
<g id="node7" class="node">
<title>Node9</title>
<g id="a_node7"><a xlink:title=" ">
<polygon fill="none" stroke="#bfbfbf" points="923.81,-56.5 923.81,-75.5 983.81,-75.5 983.81,-56.5 923.81,-56.5"/>
<text text-anchor="middle" x="953.81" y="-63.5" font-family="Helvetica,sans-Serif" font-size="10.00">iostream</text>
</a>
</g>
</g>
<!-- Node1&#45;&gt;Node9 -->
<g id="edge70" class="edge">
<title>Node1&#45;&gt;Node9</title>
<path fill="none" stroke="midnightblue" d="M1205.52,-336.36C1197.67,-327.76 1186.03,-313.87 1178.81,-300 1164.86,-273.19 1158.81,-265.23 1158.81,-235 1158.81,-235 1158.81,-235 1158.81,-177 1158.81,-103.08 1054.04,-78.63 994.3,-70.7"/>
<polygon fill="midnightblue" stroke="midnightblue" points="994.41,-67.19 984.06,-69.44 993.56,-74.14 994.41,-67.19"/>
</g>
<!-- Node15 -->
<g id="node10" class="node">
<title>Node15</title>
<g id="a_node10"><a xlink:href="../../d3/d44/oops_8hpp.html" target="_top" xlink:title=" ">
<polygon fill="none" stroke="black" points="219.31,-56.5 219.31,-75.5 280.31,-75.5 280.31,-56.5 219.31,-56.5"/>
<text text-anchor="middle" x="249.81" y="-63.5" font-family="Helvetica,sans-Serif" font-size="10.00">oops.hpp</text>
</a>
</g>
</g>
<!-- Node1&#45;&gt;Node15 -->
<g id="edge47" class="edge">
<title>Node1&#45;&gt;Node15</title>
<path fill="none" stroke="midnightblue" d="M1137.07,-344.56C901.91,-342.82 205.1,-334.76 171.81,-300 157.25,-284.8 96.8,-302.65 200.81,-112 207.31,-100.08 218.18,-89.62 228.03,-81.79"/>
<polygon fill="midnightblue" stroke="midnightblue" points="230.37,-84.41 236.28,-75.62 226.18,-78.8 230.37,-84.41"/>
</g>
<!-- Node21 -->
<g id="node15" class="node">
<title>Node21</title>
<g id="a_node15"><a xlink:href="../../d3/d27/persist_8hpp.html" target="_top" xlink:title=" ">
<polygon fill="none" stroke="red" points="53.31,-224.5 53.31,-243.5 124.31,-243.5 124.31,-224.5 53.31,-224.5"/>
<text text-anchor="middle" x="88.81" y="-231.5" font-family="Helvetica,sans-Serif" font-size="10.00">persist.hpp</text>
</a>
</g>
</g>
<!-- Node1&#45;&gt;Node21 -->
<g id="edge48" class="edge">
<title>Node1&#45;&gt;Node21</title>
<path fill="none" stroke="midnightblue" d="M1137.25,-345.51C906.25,-346.53 226.7,-345.58 138.81,-300 119.32,-289.89 105.17,-268.37 96.99,-252.86"/>
<polygon fill="midnightblue" stroke="midnightblue" points="100.05,-251.14 92.49,-243.71 93.77,-254.23 100.05,-251.14"/>
</g>
<!-- Node32 -->
<g id="node25" class="node">
<title>Node32</title>
<g id="a_node25"><a xlink:href="../../d4/de1/history_8hpp.html" target="_top" xlink:title=" ">
<polygon fill="none" stroke="black" points="180.81,-280.5 180.81,-299.5 250.81,-299.5 250.81,-280.5 180.81,-280.5"/>
<text text-anchor="middle" x="215.81" y="-287.5" font-family="Helvetica,sans-Serif" font-size="10.00">history.hpp</text>
</a>
</g>
</g>
<!-- Node1&#45;&gt;Node32 -->
<g id="edge44" class="edge">
<title>Node1&#45;&gt;Node32</title>
<path fill="none" stroke="midnightblue" d="M1137.16,-340.85C939.72,-330.17 418.27,-301.95 261.21,-293.46"/>
<polygon fill="midnightblue" stroke="midnightblue" points="261.14,-289.95 250.97,-292.9 260.76,-296.94 261.14,-289.95"/>
</g>
<!-- Node33 -->
<g id="node26" class="node">
<title>Node33</title>
<g id="a_node26"><a xlink:href="../../dd/d90/system_8hpp.html" target="_top" xlink:title=" ">
<polygon fill="none" stroke="black" points="13.81,-112.5 13.81,-131.5 87.81,-131.5 87.81,-112.5 13.81,-112.5"/>
<text text-anchor="middle" x="50.81" y="-119.5" font-family="Helvetica,sans-Serif" font-size="10.00">system.hpp</text>
</a>
</g>
</g>
<!-- Node1&#45;&gt;Node33 -->
<g id="edge49" class="edge">
<title>Node1&#45;&gt;Node33</title>
<path fill="none" stroke="midnightblue" d="M1136.99,-344.69C902.6,-343.33 206.78,-336.28 111.81,-300 75.24,-286.03 60.52,-279.41 43.81,-244 28.08,-210.67 37.16,-166.3 44.45,-141.6"/>
<polygon fill="midnightblue" stroke="midnightblue" points="47.89,-142.34 47.59,-131.75 41.22,-140.22 47.89,-142.34"/>
</g>
<!-- Node34 -->
<g id="node27" class="node">
<title>Node34</title>
<g id="a_node27"><a xlink:title=" ">
<polygon fill="none" stroke="#bfbfbf" points="1334.81,-224.5 1334.81,-243.5 1438.81,-243.5 1438.81,-224.5 1334.81,-224.5"/>
<text text-anchor="middle" x="1386.81" y="-231.5" font-family="Helvetica,sans-Serif" font-size="10.00">leanux&#45;config.hpp</text>
</a>
</g>
</g>
<!-- Node1&#45;&gt;Node34 -->
<g id="edge54" class="edge">
<title>Node1&#45;&gt;Node34</title>
<path fill="none" stroke="midnightblue" d="M1222.97,-336.2C1237.12,-322.9 1265.55,-297.38 1292.81,-280 1312.82,-267.25 1337,-255.75 1355.82,-247.57"/>
<polygon fill="midnightblue" stroke="midnightblue" points="1357.3,-250.75 1365.12,-243.61 1354.55,-244.31 1357.3,-250.75"/>
</g>
<!-- Node35 -->
<g id="node28" class="node">
<title>Node35</title>
<g id="a_node28"><a xlink:href="../../db/d57/configfile_8hpp.html" target="_top" xlink:title=" ">
<polygon fill="none" stroke="black" points="912.81,-112.5 912.81,-131.5 994.81,-131.5 994.81,-112.5 912.81,-112.5"/>
<text text-anchor="middle" x="953.81" y="-119.5" font-family="Helvetica,sans-Serif" font-size="10.00">configfile.hpp</text>
</a>
</g>
</g>
<!-- Node1&#45;&gt;Node35 -->
<g id="edge55" class="edge">
<title>Node1&#45;&gt;Node35</title>
<path fill="none" stroke="midnightblue" d="M1196.46,-336.42C1181.53,-328.44 1160.07,-315.48 1144.81,-300 1116.77,-271.55 1124.32,-252.97 1096.81,-224 1061.12,-186.41 1009.52,-154.08 979.04,-136.68"/>
<polygon fill="midnightblue" stroke="midnightblue" points="980.37,-133.42 969.94,-131.57 976.95,-139.52 980.37,-133.42"/>
</g>
<!-- Node36 -->
<g id="node29" class="node">
<title>Node36</title>
<g id="a_node29"><a xlink:href="../../d0/d3f/util_8hpp.html" target="_top" xlink:title=" ">
<polygon fill="none" stroke="black" points="1187.31,-280.5 1187.31,-299.5 1240.31,-299.5 1240.31,-280.5 1187.31,-280.5"/>
<text text-anchor="middle" x="1213.81" y="-287.5" font-family="Helvetica,sans-Serif" font-size="10.00">util.hpp</text>
</a>
</g>
</g>
<!-- Node1&#45;&gt;Node36 -->
<g id="edge60" class="edge">
<title>Node1&#45;&gt;Node36</title>
<path fill="none" stroke="midnightblue" d="M1213.81,-336.08C1213.81,-329.01 1213.81,-318.86 1213.81,-309.99"/>
<polygon fill="midnightblue" stroke="midnightblue" points="1217.31,-309.75 1213.81,-299.75 1210.31,-309.75 1217.31,-309.75"/>
</g>
<!-- Node37 -->
<g id="node30" class="node">
<title>Node37</title>
<g id="a_node30"><a xlink:title=" ">
<polygon fill="none" stroke="#bfbfbf" points="1457.31,-224.5 1457.31,-243.5 1512.31,-243.5 1512.31,-224.5 1457.31,-224.5"/>
<text text-anchor="middle" x="1484.81" y="-231.5" font-family="Helvetica,sans-Serif" font-size="10.00">fstream</text>
</a>
</g>
</g>
<!-- Node1&#45;&gt;Node37 -->
<g id="edge71" class="edge">
<title>Node1&#45;&gt;Node37</title>
<path fill="none" stroke="midnightblue" d="M1228.79,-336.43C1257.94,-319.79 1320.36,-284.37 1330.81,-280 1351.81,-271.23 1408.74,-255.32 1447.18,-244.96"/>
<polygon fill="midnightblue" stroke="midnightblue" points="1448.25,-248.3 1457,-242.33 1446.44,-241.54 1448.25,-248.3"/>
</g>
<!-- Node38 -->
<g id="node31" class="node">
<title>Node38</title>
<g id="a_node31"><a xlink:title=" ">
<polygon fill="none" stroke="#bfbfbf" points="1530.81,-224.5 1530.81,-243.5 1562.81,-243.5 1562.81,-224.5 1530.81,-224.5"/>
<text text-anchor="middle" x="1546.81" y="-231.5" font-family="Helvetica,sans-Serif" font-size="10.00">set</text>
</a>
</g>
</g>
<!-- Node1&#45;&gt;Node38 -->
<g id="edge73" class="edge">
<title>Node1&#45;&gt;Node38</title>
<path fill="none" stroke="midnightblue" d="M1236.27,-336.38C1258.99,-327.57 1295.04,-313.32 1325.81,-300 1345.15,-291.62 1348.89,-286.89 1368.81,-280 1431.86,-258.18 1452.95,-263.32 1520.86,-243.98"/>
<polygon fill="midnightblue" stroke="midnightblue" points="1522.15,-247.25 1530.76,-241.08 1520.18,-240.53 1522.15,-247.25"/>
</g>
<!-- Node40 -->
<g id="node33" class="node">
<title>Node40</title>
<g id="a_node33"><a xlink:title=" ">
<polygon fill="none" stroke="#bfbfbf" points="1581.31,-224.5 1581.31,-243.5 1634.31,-243.5 1634.31,-224.5 1581.31,-224.5"/>
<text text-anchor="middle" x="1607.81" y="-231.5" font-family="Helvetica,sans-Serif" font-size="10.00">string.h</text>
</a>
</g>
</g>
<!-- Node1&#45;&gt;Node40 -->
<g id="edge76" class="edge">
<title>Node1&#45;&gt;Node40</title>
<path fill="none" stroke="midnightblue" d="M1247.01,-336.44C1277.14,-328.3 1322.57,-315.07 1360.81,-300 1379.67,-292.57 1382.64,-286.59 1401.81,-280 1471.85,-255.91 1494.69,-260.89 1571.01,-244.07"/>
<polygon fill="midnightblue" stroke="midnightblue" points="1572.12,-247.41 1581.1,-241.79 1570.58,-240.58 1572.12,-247.41"/>
</g>
<!-- Node41 -->
<g id="node34" class="node">
<title>Node41</title>
<g id="a_node34"><a xlink:title=" ">
<polygon fill="none" stroke="#bfbfbf" points="1410.81,-280.5 1410.81,-299.5 1474.81,-299.5 1474.81,-280.5 1410.81,-280.5"/>
<text text-anchor="middle" x="1442.81" y="-287.5" font-family="Helvetica,sans-Serif" font-size="10.00">algorithm</text>
</a>
</g>
</g>
<!-- Node1&#45;&gt;Node41 -->
<g id="edge72" class="edge">
<title>Node1&#45;&gt;Node41</title>
<path fill="none" stroke="midnightblue" d="M1250.1,-336.44C1291.08,-326.78 1357.67,-311.08 1400.85,-300.89"/>
<polygon fill="midnightblue" stroke="midnightblue" points="1401.83,-304.26 1410.76,-298.56 1400.22,-297.45 1401.83,-304.26"/>
</g>
<!-- Node42 -->
<g id="node35" class="node">
<title>Node42</title>
<g id="a_node35"><a xlink:title=" ">
<polygon fill="none" stroke="#bfbfbf" points="1493.31,-280.5 1493.31,-299.5 1544.31,-299.5 1544.31,-280.5 1493.31,-280.5"/>
<text text-anchor="middle" x="1518.81" y="-287.5" font-family="Helvetica,sans-Serif" font-size="10.00">errno.h</text>
</a>
</g>
</g>
<!-- Node1&#45;&gt;Node42 -->
<g id="edge74" class="edge">
<title>Node1&#45;&gt;Node42</title>
<path fill="none" stroke="midnightblue" d="M1274.14,-336.47C1326.8,-328.68 1405.44,-316.22 1483.28,-299.95"/>
<polygon fill="midnightblue" stroke="midnightblue" points="1484.2,-303.33 1493.26,-297.84 1482.75,-296.49 1484.2,-303.33"/>
</g>
<!-- Node43 -->
<g id="node36" class="node">
<title>Node43</title>
<g id="a_node36"><a xlink:title=" ">
<polygon fill="none" stroke="#bfbfbf" points="1562.31,-280.5 1562.31,-299.5 1613.31,-299.5 1613.31,-280.5 1562.31,-280.5"/>
<text text-anchor="middle" x="1587.81" y="-287.5" font-family="Helvetica,sans-Serif" font-size="10.00">math.h</text>
</a>
</g>
</g>
<!-- Node1&#45;&gt;Node43 -->
<g id="edge75" class="edge">
<title>Node1&#45;&gt;Node43</title>
<path fill="none" stroke="midnightblue" d="M1290.56,-337.66C1357.41,-330.62 1457.05,-318.58 1552.19,-300.12"/>
<polygon fill="midnightblue" stroke="midnightblue" points="1553.14,-303.5 1562.27,-298.13 1551.79,-296.63 1553.14,-303.5"/>
</g>
<!-- Node44 -->
<g id="node37" class="node">
<title>Node44</title>
<g id="a_node37"><a xlink:title=" ">
<polygon fill="none" stroke="#bfbfbf" points="1631.31,-280.5 1631.31,-299.5 1694.31,-299.5 1694.31,-280.5 1631.31,-280.5"/>
<text text-anchor="middle" x="1662.81" y="-287.5" font-family="Helvetica,sans-Serif" font-size="10.00">termios.h</text>
</a>
</g>
</g>
<!-- Node1&#45;&gt;Node44 -->
<g id="edge77" class="edge">
<title>Node1&#45;&gt;Node44</title>
<path fill="none" stroke="midnightblue" d="M1290.67,-339.12C1370.89,-332.41 1500.46,-319.91 1620.87,-300.18"/>
<polygon fill="midnightblue" stroke="midnightblue" points="1621.71,-303.59 1631,-298.49 1620.56,-296.68 1621.71,-303.59"/>
</g>
<!-- Node2&#45;&gt;Node3 -->
<g id="edge2" class="edge">
<title>Node2&#45;&gt;Node3</title>
<path fill="none" stroke="midnightblue" d="M669.5,-285.23C724.34,-279.92 807.43,-268.05 826.81,-244 863.87,-198.01 775.21,-155.43 722.86,-135.25"/>
<polygon fill="midnightblue" stroke="midnightblue" points="723.83,-131.88 713.24,-131.64 721.37,-138.43 723.83,-131.88"/>
</g>
<!-- Node6 -->
<g id="node5" class="node">
<title>Node6</title>
<g id="a_node5"><a xlink:title=" ">
<polygon fill="none" stroke="#bfbfbf" points="671.81,-56.5 671.81,-75.5 703.81,-75.5 703.81,-56.5 671.81,-56.5"/>
<text text-anchor="middle" x="687.81" y="-63.5" font-family="Helvetica,sans-Serif" font-size="10.00">list</text>
</a>
</g>
</g>
<!-- Node2&#45;&gt;Node6 -->
<g id="edge40" class="edge">
<title>Node2&#45;&gt;Node6</title>
<path fill="none" stroke="midnightblue" d="M669.53,-286.26C729.19,-281.8 823.96,-270.64 845.81,-244 898.54,-179.73 769.93,-106.79 713.13,-78.79"/>
<polygon fill="midnightblue" stroke="midnightblue" points="714.57,-75.6 704.04,-74.39 711.52,-81.9 714.57,-75.6"/>
</g>
<!-- Node13 -->
<g id="node8" class="node">
<title>Node13</title>
<g id="a_node8"><a xlink:href="../../df/dbe/cpu_8hpp.html" target="_top" xlink:title=" ">
<polygon fill="none" stroke="red" points="303.31,-112.5 303.31,-131.5 358.31,-131.5 358.31,-112.5 303.31,-112.5"/>
<text text-anchor="middle" x="330.81" y="-119.5" font-family="Helvetica,sans-Serif" font-size="10.00">cpu.hpp</text>
</a>
</g>
</g>
<!-- Node2&#45;&gt;Node13 -->
<g id="edge7" class="edge">
<title>Node2&#45;&gt;Node13</title>
<path fill="none" stroke="midnightblue" d="M570.3,-289.92C486.48,-290.3 322.16,-285.57 285.81,-244 276.88,-233.78 278.05,-201.71 292.81,-168 297.61,-157.04 305.96,-146.7 313.61,-138.7"/>
<polygon fill="midnightblue" stroke="midnightblue" points="316.21,-141.06 320.88,-131.55 311.3,-136.07 316.21,-141.06"/>
</g>
<!-- Node14 -->
<g id="node9" class="node">
<title>Node14</title>
<g id="a_node9"><a xlink:href="../../d4/d2d/net_8hpp.html" target="_top" xlink:title=" ">
<polygon fill="none" stroke="red" points="376.31,-112.5 376.31,-131.5 429.31,-131.5 429.31,-112.5 376.31,-112.5"/>
<text text-anchor="middle" x="402.81" y="-119.5" font-family="Helvetica,sans-Serif" font-size="10.00">net.hpp</text>
</a>
</g>
</g>
<!-- Node2&#45;&gt;Node14 -->
<g id="edge10" class="edge">
<title>Node2&#45;&gt;Node14</title>
<path fill="none" stroke="midnightblue" d="M569.95,-287.92C532.13,-284.54 481.12,-274.13 447.81,-244 418,-217.03 407.87,-168.45 404.48,-141.78"/>
<polygon fill="midnightblue" stroke="midnightblue" points="407.96,-141.39 403.4,-131.82 401,-142.14 407.96,-141.39"/>
</g>
<!-- Node17 -->
<g id="node11" class="node">
<title>Node17</title>
<g id="a_node11"><a xlink:href="../../dd/db4/process_8hpp.html" target="_top" xlink:title=" ">
<polygon fill="none" stroke="red" points="210.31,-112.5 210.31,-131.5 285.31,-131.5 285.31,-112.5 210.31,-112.5"/>
<text text-anchor="middle" x="247.81" y="-119.5" font-family="Helvetica,sans-Serif" font-size="10.00">process.hpp</text>
</a>
</g>
</g>
<!-- Node2&#45;&gt;Node17 -->
<g id="edge16" class="edge">
<title>Node2&#45;&gt;Node17</title>
<path fill="none" stroke="midnightblue" d="M570.29,-289.17C485.84,-288.41 318.99,-281.98 276.81,-244 247.87,-217.95 245.31,-168.59 246.33,-141.67"/>
<polygon fill="midnightblue" stroke="midnightblue" points="249.82,-141.82 246.91,-131.64 242.83,-141.41 249.82,-141.82"/>
</g>
<!-- Node20 -->
<g id="node14" class="node">
<title>Node20</title>
<g id="a_node14"><a xlink:href="../../db/da3/vmem_8hpp.html" target="_top" xlink:title=" ">
<polygon fill="none" stroke="black" points="447.31,-112.5 447.31,-131.5 516.31,-131.5 516.31,-112.5 447.31,-112.5"/>
<text text-anchor="middle" x="481.81" y="-119.5" font-family="Helvetica,sans-Serif" font-size="10.00">vmem.hpp</text>
</a>
</g>
</g>
<!-- Node2&#45;&gt;Node20 -->
<g id="edge22" class="edge">
<title>Node2&#45;&gt;Node20</title>
<path fill="none" stroke="midnightblue" d="M570.24,-281.7C528.4,-274.4 473.23,-261.71 459.81,-244 436.59,-213.35 456.93,-165.94 471.03,-140.52"/>
<polygon fill="midnightblue" stroke="midnightblue" points="474.19,-142.05 476.2,-131.65 468.14,-138.53 474.19,-142.05"/>
</g>
<!-- Node2&#45;&gt;Node21 -->
<g id="edge25" class="edge">
<title>Node2&#45;&gt;Node21</title>
<path fill="none" stroke="midnightblue" d="M569.86,-283.92C467.12,-273.47 233.52,-249.72 134.52,-239.65"/>
<polygon fill="midnightblue" stroke="midnightblue" points="134.82,-236.16 124.52,-238.63 134.12,-243.13 134.82,-236.16"/>
</g>
<!-- Node23 -->
<g id="node16" class="node">
<title>Node23</title>
<g id="a_node16"><a xlink:href="../../dd/d86/realtime_8hpp.html" target="_top" xlink:title=" ">
<polygon fill="none" stroke="black" points="295.31,-224.5 295.31,-243.5 374.31,-243.5 374.31,-224.5 295.31,-224.5"/>
<text text-anchor="middle" x="334.81" y="-231.5" font-family="Helvetica,sans-Serif" font-size="10.00">realtime.hpp</text>
</a>
</g>
</g>
<!-- Node2&#45;&gt;Node23 -->
<g id="edge28" class="edge">
<title>Node2&#45;&gt;Node23</title>
<path fill="none" stroke="midnightblue" d="M574.65,-280.44C522.9,-270.64 438.32,-254.61 384.67,-244.45"/>
<polygon fill="midnightblue" stroke="midnightblue" points="385.18,-240.98 374.7,-242.56 383.87,-247.86 385.18,-240.98"/>
</g>
<!-- Node25 -->
<g id="node18" class="node">
<title>Node25</title>
<g id="a_node18"><a xlink:title=" ">
<polygon fill="none" stroke="#bfbfbf" points="469.31,-224.5 469.31,-243.5 532.31,-243.5 532.31,-224.5 469.31,-224.5"/>
<text text-anchor="middle" x="500.81" y="-231.5" font-family="Helvetica,sans-Serif" font-size="10.00">ncurses.h</text>
</a>
</g>
</g>
<!-- Node2&#45;&gt;Node25 -->
<g id="edge35" class="edge">
<title>Node2&#45;&gt;Node25</title>
<path fill="none" stroke="midnightblue" d="M600.96,-280.44C581.55,-271.64 551.08,-257.81 528.85,-247.72"/>
<polygon fill="midnightblue" stroke="midnightblue" points="530.13,-244.46 519.58,-243.52 527.24,-250.84 530.13,-244.46"/>
</g>
<!-- Node26 -->
<g id="node19" class="node">
<title>Node26</title>
<g id="a_node19"><a xlink:title=" ">
<polygon fill="none" stroke="#bfbfbf" points="550.81,-224.5 550.81,-243.5 616.81,-243.5 616.81,-224.5 550.81,-224.5"/>
<text text-anchor="middle" x="583.81" y="-231.5" font-family="Helvetica,sans-Serif" font-size="10.00">sys/ioctl.h</text>
</a>
</g>
</g>
<!-- Node2&#45;&gt;Node26 -->
<g id="edge36" class="edge">
<title>Node2&#45;&gt;Node26</title>
<path fill="none" stroke="midnightblue" d="M613.87,-280.08C608.83,-272.53 601.47,-261.49 595.3,-252.23"/>
<polygon fill="midnightblue" stroke="midnightblue" points="598.1,-250.13 589.65,-243.75 592.28,-254.01 598.1,-250.13"/>
</g>
<!-- Node27 -->
<g id="node20" class="node">
<title>Node27</title>
<g id="a_node20"><a xlink:title=" ">
<polygon fill="none" stroke="#bfbfbf" points="986.81,-224.5 986.81,-243.5 1054.81,-243.5 1054.81,-224.5 986.81,-224.5"/>
<text text-anchor="middle" x="1020.81" y="-231.5" font-family="Helvetica,sans-Serif" font-size="10.00">sys/time.h</text>
</a>
</g>
</g>
<!-- Node2&#45;&gt;Node27 -->
<g id="edge37" class="edge">
<title>Node2&#45;&gt;Node27</title>
<path fill="none" stroke="midnightblue" d="M669.51,-284.04C736.85,-277.04 861.01,-263.13 976.52,-244.1"/>
<polygon fill="midnightblue" stroke="midnightblue" points="977.3,-247.52 986.59,-242.42 976.15,-240.61 977.3,-247.52"/>
</g>
<!-- Node28 -->
<g id="node21" class="node">
<title>Node28</title>
<g id="a_node21"><a xlink:title=" ">
<polygon fill="none" stroke="#bfbfbf" points="634.81,-224.5 634.81,-243.5 678.81,-243.5 678.81,-224.5 634.81,-224.5"/>
<text text-anchor="middle" x="656.81" y="-231.5" font-family="Helvetica,sans-Serif" font-size="10.00">poll.h</text>
</a>
</g>
</g>
<!-- Node2&#45;&gt;Node28 -->
<g id="edge38" class="edge">
<title>Node2&#45;&gt;Node28</title>
<path fill="none" stroke="midnightblue" d="M625.92,-280.08C631.09,-272.53 638.66,-261.49 645.01,-252.23"/>
<polygon fill="midnightblue" stroke="midnightblue" points="648.05,-253.98 650.82,-243.75 642.28,-250.02 648.05,-253.98"/>
</g>
<!-- Node29 -->
<g id="node22" class="node">
<title>Node29</title>
<g id="a_node22"><a xlink:title=" ">
<polygon fill="none" stroke="#bfbfbf" points="696.81,-224.5 696.81,-243.5 752.81,-243.5 752.81,-224.5 696.81,-224.5"/>
<text text-anchor="middle" x="724.81" y="-231.5" font-family="Helvetica,sans-Serif" font-size="10.00">iomanip</text>
</a>
</g>
</g>
<!-- Node2&#45;&gt;Node29 -->
<g id="edge39" class="edge">
<title>Node2&#45;&gt;Node29</title>
<path fill="none" stroke="midnightblue" d="M636.68,-280.32C653.52,-271.66 679.62,-258.24 699.05,-248.25"/>
<polygon fill="midnightblue" stroke="midnightblue" points="700.69,-251.34 707.98,-243.65 697.49,-245.12 700.69,-251.34"/>
</g>
<!-- Node30 -->
<g id="node23" class="node">
<title>Node30</title>
<g id="a_node23"><a xlink:title=" ">
<polygon fill="none" stroke="#bfbfbf" points="771.31,-224.5 771.31,-243.5 818.31,-243.5 818.31,-224.5 771.31,-224.5"/>
<text text-anchor="middle" x="794.81" y="-231.5" font-family="Helvetica,sans-Serif" font-size="10.00">queue</text>
</a>
</g>
</g>
<!-- Node2&#45;&gt;Node30 -->
<g id="edge41" class="edge">
<title>Node2&#45;&gt;Node30</title>
<path fill="none" stroke="midnightblue" d="M647.54,-280.44C678.46,-270.9 728.45,-255.48 761.48,-245.29"/>
<polygon fill="midnightblue" stroke="midnightblue" points="762.62,-248.6 771.14,-242.3 760.55,-241.91 762.62,-248.6"/>
</g>
<!-- Node31 -->
<g id="node24" class="node">
<title>Node31</title>
<g id="a_node24"><a xlink:title=" ">
<polygon fill="none" stroke="#bfbfbf" points="912.81,-224.5 912.81,-243.5 968.81,-243.5 968.81,-224.5 912.81,-224.5"/>
<text text-anchor="middle" x="940.81" y="-231.5" font-family="Helvetica,sans-Serif" font-size="10.00">sstream</text>
</a>
</g>
</g>
<!-- Node2&#45;&gt;Node31 -->
<g id="edge42" class="edge">
<title>Node2&#45;&gt;Node31</title>
<path fill="none" stroke="midnightblue" d="M669.33,-281.8C725.22,-273.48 818.76,-259.02 898.81,-244 900.05,-243.77 901.3,-243.53 902.57,-243.28"/>
<polygon fill="midnightblue" stroke="midnightblue" points="903.28,-246.71 912.38,-241.3 901.89,-239.85 903.28,-246.71"/>
</g>
<!-- Node4 -->
<g id="node4" class="node">
<title>Node4</title>
<g id="a_node4"><a xlink:title=" ">
<polygon fill="none" stroke="#bfbfbf" points="343.81,-0.5 343.81,-19.5 387.81,-19.5 387.81,-0.5 343.81,-0.5"/>
<text text-anchor="middle" x="365.81" y="-7.5" font-family="Helvetica,sans-Serif" font-size="10.00">string</text>
</a>
</g>
</g>
<!-- Node3&#45;&gt;Node4 -->
<g id="edge3" class="edge">
<title>Node3&#45;&gt;Node4</title>
<path fill="none" stroke="midnightblue" d="M662.81,-112.46C604.88,-92.67 461.54,-43.7 397.55,-21.84"/>
<polygon fill="midnightblue" stroke="midnightblue" points="398.58,-18.5 387.98,-18.57 396.32,-25.12 398.58,-18.5"/>
</g>
<!-- Node3&#45;&gt;Node6 -->
<g id="edge4" class="edge">
<title>Node3&#45;&gt;Node6</title>
<path fill="none" stroke="midnightblue" d="M687.81,-112.08C687.81,-105.01 687.81,-94.86 687.81,-85.99"/>
<polygon fill="midnightblue" stroke="midnightblue" points="691.31,-85.75 687.81,-75.75 684.31,-85.75 691.31,-85.75"/>
</g>
<!-- Node7 -->
<g id="node6" class="node">
<title>Node7</title>
<g id="a_node6"><a xlink:title=" ">
<polygon fill="none" stroke="#bfbfbf" points="412.81,-56.5 412.81,-75.5 450.81,-75.5 450.81,-56.5 412.81,-56.5"/>
<text text-anchor="middle" x="431.81" y="-63.5" font-family="Helvetica,sans-Serif" font-size="10.00">map</text>
</a>
</g>
</g>
<!-- Node3&#45;&gt;Node7 -->
<g id="edge5" class="edge">
<title>Node3&#45;&gt;Node7</title>
<path fill="none" stroke="midnightblue" d="M655.65,-114.22C605.35,-103.61 508.87,-83.25 460.68,-73.09"/>
<polygon fill="midnightblue" stroke="midnightblue" points="461.4,-69.66 450.89,-71.02 459.95,-76.51 461.4,-69.66"/>
</g>
<!-- Node3&#45;&gt;Node9 -->
<g id="edge6" class="edge">
<title>Node3&#45;&gt;Node9</title>
<path fill="none" stroke="midnightblue" d="M719.9,-114.49C768.48,-104.62 860.63,-85.92 913.61,-75.16"/>
<polygon fill="midnightblue" stroke="midnightblue" points="914.56,-78.54 923.66,-73.12 913.16,-71.68 914.56,-78.54"/>
</g>
<!-- Node13&#45;&gt;Node4 -->
<g id="edge8" class="edge">
<title>Node13&#45;&gt;Node4</title>
<path fill="none" stroke="midnightblue" d="M333.56,-112.37C339.23,-94.54 352.35,-53.3 360,-29.27"/>
<polygon fill="midnightblue" stroke="midnightblue" points="363.38,-30.18 363.08,-19.59 356.71,-28.06 363.38,-30.18"/>
</g>
<!-- Node13&#45;&gt;Node7 -->
<g id="edge9" class="edge">
<title>Node13&#45;&gt;Node7</title>
<path fill="none" stroke="midnightblue" d="M347.04,-112.32C363.16,-103.7 388.11,-90.36 406.78,-80.39"/>
<polygon fill="midnightblue" stroke="midnightblue" points="408.46,-83.46 415.62,-75.65 405.16,-77.28 408.46,-83.46"/>
</g>
<!-- Node14&#45;&gt;Node4 -->
<g id="edge13" class="edge">
<title>Node14&#45;&gt;Node4</title>
<path fill="none" stroke="midnightblue" d="M399.91,-112.37C393.91,-94.54 380.04,-53.3 371.96,-29.27"/>
<polygon fill="midnightblue" stroke="midnightblue" points="375.21,-27.95 368.7,-19.59 368.57,-30.19 375.21,-27.95"/>
</g>
<!-- Node14&#45;&gt;Node6 -->
<g id="edge14" class="edge">
<title>Node14&#45;&gt;Node6</title>
<path fill="none" stroke="midnightblue" d="M429.52,-113.92C432.31,-113.24 435.11,-112.59 437.81,-112 518.98,-94.28 616.08,-78.27 661.7,-71.05"/>
<polygon fill="midnightblue" stroke="midnightblue" points="662.31,-74.5 671.64,-69.49 661.22,-67.58 662.31,-74.5"/>
</g>
<!-- Node14&#45;&gt;Node7 -->
<g id="edge15" class="edge">
<title>Node14&#45;&gt;Node7</title>
<path fill="none" stroke="midnightblue" d="M407.6,-112.08C411.57,-104.69 417.34,-93.95 422.25,-84.81"/>
<polygon fill="midnightblue" stroke="midnightblue" points="425.46,-86.22 427.11,-75.75 419.3,-82.91 425.46,-86.22"/>
</g>
<!-- Node14&#45;&gt;Node15 -->
<g id="edge11" class="edge">
<title>Node14&#45;&gt;Node15</title>
<path fill="none" stroke="midnightblue" d="M378.57,-112.44C352.94,-103.4 312.33,-89.06 283.57,-78.92"/>
<polygon fill="midnightblue" stroke="midnightblue" points="284.54,-75.54 273.94,-75.52 282.21,-82.15 284.54,-75.54"/>
</g>
<!-- Node15&#45;&gt;Node4 -->
<g id="edge12" class="edge">
<title>Node15&#45;&gt;Node4</title>
<path fill="none" stroke="midnightblue" d="M268.19,-56.44C287.03,-47.68 316.54,-33.94 338.19,-23.86"/>
<polygon fill="midnightblue" stroke="midnightblue" points="339.93,-26.91 347.52,-19.52 336.97,-20.56 339.93,-26.91"/>
</g>
<!-- Node17&#45;&gt;Node4 -->
<g id="edge17" class="edge">
<title>Node17&#45;&gt;Node4</title>
<path fill="none" stroke="midnightblue" d="M257.07,-112.37C276.97,-93.81 324.07,-49.91 349.25,-26.44"/>
<polygon fill="midnightblue" stroke="midnightblue" points="351.67,-28.97 356.6,-19.59 346.89,-23.85 351.67,-28.97"/>
</g>
<!-- Node17&#45;&gt;Node6 -->
<g id="edge19" class="edge">
<title>Node17&#45;&gt;Node6</title>
<path fill="none" stroke="midnightblue" d="M285.42,-113.39C288.26,-112.89 291.08,-112.42 293.81,-112 431.49,-90.7 597.68,-74.96 661.29,-69.29"/>
<polygon fill="midnightblue" stroke="midnightblue" points="661.96,-72.75 671.61,-68.38 661.34,-65.78 661.96,-72.75"/>
</g>
<!-- Node17&#45;&gt;Node7 -->
<g id="edge18" class="edge">
<title>Node17&#45;&gt;Node7</title>
<path fill="none" stroke="midnightblue" d="M276.97,-112.44C311.4,-102.34 368.35,-85.63 402.75,-75.53"/>
<polygon fill="midnightblue" stroke="midnightblue" points="404.04,-78.8 412.65,-72.62 402.07,-72.08 404.04,-78.8"/>
</g>
<!-- Node18 -->
<g id="node12" class="node">
<title>Node18</title>
<g id="a_node12"><a xlink:title=" ">
<polygon fill="none" stroke="#bfbfbf" points="144.81,-56.5 144.81,-75.5 200.81,-75.5 200.81,-56.5 144.81,-56.5"/>
<text text-anchor="middle" x="172.81" y="-63.5" font-family="Helvetica,sans-Serif" font-size="10.00">unistd.h</text>
</a>
</g>
</g>
<!-- Node17&#45;&gt;Node18 -->
<g id="edge20" class="edge">
<title>Node17&#45;&gt;Node18</title>
<path fill="none" stroke="midnightblue" d="M235.76,-112.32C224.35,-104.11 206.98,-91.6 193.38,-81.81"/>
<polygon fill="midnightblue" stroke="midnightblue" points="195.24,-78.84 185.08,-75.83 191.15,-84.52 195.24,-78.84"/>
</g>
<!-- Node19 -->
<g id="node13" class="node">
<title>Node19</title>
<g id="a_node13"><a xlink:title=" ">
<polygon fill="none" stroke="#bfbfbf" points="54.81,-56.5 54.81,-75.5 126.81,-75.5 126.81,-56.5 54.81,-56.5"/>
<text text-anchor="middle" x="90.81" y="-63.5" font-family="Helvetica,sans-Serif" font-size="10.00">sys/types.h</text>
</a>
</g>
</g>
<!-- Node17&#45;&gt;Node19 -->
<g id="edge21" class="edge">
<title>Node17&#45;&gt;Node19</title>
<path fill="none" stroke="midnightblue" d="M222.93,-112.44C196.52,-103.36 154.6,-88.94 125.07,-78.78"/>
<polygon fill="midnightblue" stroke="midnightblue" points="126.17,-75.46 115.57,-75.52 123.89,-82.08 126.17,-75.46"/>
</g>
<!-- Node20&#45;&gt;Node4 -->
<g id="edge23" class="edge">
<title>Node20&#45;&gt;Node4</title>
<path fill="none" stroke="midnightblue" d="M481.02,-112.36C479.36,-98.81 474.35,-72.4 459.81,-56 443.49,-37.58 417.97,-26.03 397.64,-19.25"/>
<polygon fill="midnightblue" stroke="midnightblue" points="398.44,-15.84 387.85,-16.21 396.36,-22.52 398.44,-15.84"/>
</g>
<!-- Node20&#45;&gt;Node6 -->
<g id="edge24" class="edge">
<title>Node20&#45;&gt;Node6</title>
<path fill="none" stroke="midnightblue" d="M514.45,-112.44C555.24,-101.75 624.22,-83.67 661.69,-73.85"/>
<polygon fill="midnightblue" stroke="midnightblue" points="663.03,-77.12 671.81,-71.19 661.25,-70.34 663.03,-77.12"/>
</g>
<!-- Node21&#45;&gt;Node4 -->
<g id="edge27" class="edge">
<title>Node21&#45;&gt;Node4</title>
<path fill="none" stroke="midnightblue" d="M77.88,-224.45C58.68,-208.65 19.54,-172.75 4.81,-132 -7.53,-97.85 4.99,-76.72 34.81,-56 82.71,-22.73 259.62,-13.96 333.29,-11.73"/>
<polygon fill="midnightblue" stroke="midnightblue" points="333.48,-15.23 343.38,-11.45 333.29,-8.23 333.48,-15.23"/>
</g>
<!-- Node21&#45;&gt;Node15 -->
<g id="edge26" class="edge">
<title>Node21&#45;&gt;Node15</title>
<path fill="none" stroke="midnightblue" d="M90.12,-224.42C93.87,-202.69 106.59,-144.87 139.81,-112 150.56,-101.37 185.03,-88.17 212.55,-78.82"/>
<polygon fill="midnightblue" stroke="midnightblue" points="213.94,-82.05 222.32,-75.56 211.73,-75.41 213.94,-82.05"/>
</g>
<!-- Node24 -->
<g id="node17" class="node">
<title>Node24</title>
<g id="a_node17"><a xlink:href="../../df/d77/xdata_8hpp.html" target="_top" xlink:title=" ">
<polygon fill="none" stroke="black" points="302.31,-168.5 302.31,-187.5 367.31,-187.5 367.31,-168.5 302.31,-168.5"/>
<text text-anchor="middle" x="334.81" y="-175.5" font-family="Helvetica,sans-Serif" font-size="10.00">xdata.hpp</text>
</a>
</g>
</g>
<!-- Node23&#45;&gt;Node24 -->
<g id="edge29" class="edge">
<title>Node23&#45;&gt;Node24</title>
<path fill="none" stroke="midnightblue" d="M334.81,-224.08C334.81,-217.01 334.81,-206.86 334.81,-197.99"/>
<polygon fill="midnightblue" stroke="midnightblue" points="338.31,-197.75 334.81,-187.75 331.31,-197.75 338.31,-197.75"/>
</g>
<!-- Node24&#45;&gt;Node3 -->
<g id="edge30" class="edge">
<title>Node24&#45;&gt;Node3</title>
<path fill="none" stroke="midnightblue" d="M367.39,-172.02C431.57,-162.2 574.29,-140.37 645.59,-129.46"/>
<polygon fill="midnightblue" stroke="midnightblue" points="646.21,-132.9 655.57,-127.93 645.15,-125.98 646.21,-132.9"/>
</g>
<!-- Node24&#45;&gt;Node13 -->
<g id="edge31" class="edge">
<title>Node24&#45;&gt;Node13</title>
<path fill="none" stroke="midnightblue" d="M334.15,-168.08C333.63,-161.01 332.88,-150.86 332.22,-141.99"/>
<polygon fill="midnightblue" stroke="midnightblue" points="335.69,-141.47 331.46,-131.75 328.71,-141.98 335.69,-141.47"/>
</g>
<!-- Node24&#45;&gt;Node14 -->
<g id="edge32" class="edge">
<title>Node24&#45;&gt;Node14</title>
<path fill="none" stroke="midnightblue" d="M345.74,-168.32C355.99,-160.18 371.53,-147.84 383.81,-138.09"/>
<polygon fill="midnightblue" stroke="midnightblue" points="386.03,-140.79 391.69,-131.83 381.68,-135.31 386.03,-140.79"/>
</g>
<!-- Node24&#45;&gt;Node17 -->
<g id="edge33" class="edge">
<title>Node24&#45;&gt;Node17</title>
<path fill="none" stroke="midnightblue" d="M320.83,-168.32C307.26,-159.9 286.43,-146.97 270.49,-137.07"/>
<polygon fill="midnightblue" stroke="midnightblue" points="272.1,-133.95 261.75,-131.65 268.41,-139.9 272.1,-133.95"/>
</g>
<!-- Node24&#45;&gt;Node20 -->
<g id="edge34" class="edge">
<title>Node24&#45;&gt;Node20</title>
<path fill="none" stroke="midnightblue" d="M358.1,-168.44C382.62,-159.44 421.41,-145.19 449.01,-135.05"/>
<polygon fill="midnightblue" stroke="midnightblue" points="450.45,-138.25 458.63,-131.52 448.03,-131.68 450.45,-138.25"/>
</g>
<!-- Node32&#45;&gt;Node21 -->
<g id="edge45" class="edge">
<title>Node32&#45;&gt;Node21</title>
<path fill="none" stroke="midnightblue" d="M195.69,-280.44C174.79,-271.56 141.88,-257.56 118.1,-247.45"/>
<polygon fill="midnightblue" stroke="midnightblue" points="119.41,-244.21 108.84,-243.52 116.67,-250.65 119.41,-244.21"/>
</g>
<!-- Node32&#45;&gt;Node24 -->
<g id="edge46" class="edge">
<title>Node32&#45;&gt;Node24</title>
<path fill="none" stroke="midnightblue" d="M225.31,-280.15C238.75,-267.63 264.12,-244.03 285.81,-224 296.44,-214.18 308.41,-203.19 317.85,-194.53"/>
<polygon fill="midnightblue" stroke="midnightblue" points="320.4,-196.95 325.4,-187.61 315.67,-191.79 320.4,-196.95"/>
</g>
<!-- Node33&#45;&gt;Node4 -->
<g id="edge50" class="edge">
<title>Node33&#45;&gt;Node4</title>
<path fill="none" stroke="midnightblue" d="M46.61,-112.2C40.71,-98.42 32.15,-71.72 45.81,-56 82.91,-13.32 260,-9.95 333.61,-10.45"/>
<polygon fill="midnightblue" stroke="midnightblue" points="333.66,-13.95 343.69,-10.55 333.73,-6.95 333.66,-13.95"/>
</g>
<!-- Node33&#45;&gt;Node15 -->
<g id="edge53" class="edge">
<title>Node33&#45;&gt;Node15</title>
<path fill="none" stroke="midnightblue" d="M82.34,-112.44C116.6,-103.15 171.46,-88.26 208.99,-78.08"/>
<polygon fill="midnightblue" stroke="midnightblue" points="210.35,-81.34 219.08,-75.34 208.51,-74.58 210.35,-81.34"/>
</g>
<!-- Node33&#45;&gt;Node18 -->
<g id="edge51" class="edge">
<title>Node33&#45;&gt;Node18</title>
<path fill="none" stroke="midnightblue" d="M70.14,-112.44C90.13,-103.6 121.55,-89.69 144.38,-79.59"/>
<polygon fill="midnightblue" stroke="midnightblue" points="145.84,-82.76 153.57,-75.52 143.01,-76.36 145.84,-82.76"/>
</g>
<!-- Node33&#45;&gt;Node19 -->
<g id="edge52" class="edge">
<title>Node33&#45;&gt;Node19</title>
<path fill="none" stroke="midnightblue" d="M57.42,-112.08C63.07,-104.46 71.36,-93.26 78.26,-83.94"/>
<polygon fill="midnightblue" stroke="midnightblue" points="81.19,-85.87 84.33,-75.75 75.56,-81.7 81.19,-85.87"/>
</g>
<!-- Node35&#45;&gt;Node4 -->
<g id="edge56" class="edge">
<title>Node35&#45;&gt;Node4</title>
<path fill="none" stroke="midnightblue" d="M926.98,-112.49C882.78,-98.76 791.66,-71.67 712.81,-56 598.15,-33.21 459.78,-19.25 398.15,-13.73"/>
<polygon fill="midnightblue" stroke="midnightblue" points="398.17,-10.22 387.9,-12.83 397.56,-17.19 398.17,-10.22"/>
</g>
<!-- Node35&#45;&gt;Node6 -->
<g id="edge59" class="edge">
<title>Node35&#45;&gt;Node6</title>
<path fill="none" stroke="midnightblue" d="M912.54,-112.62C857.03,-101.35 759.97,-81.65 713.73,-72.26"/>
<polygon fill="midnightblue" stroke="midnightblue" points="714.39,-68.82 703.89,-70.26 713,-75.68 714.39,-68.82"/>
</g>
<!-- Node35&#45;&gt;Node7 -->
<g id="edge58" class="edge">
<title>Node35&#45;&gt;Node7</title>
<path fill="none" stroke="midnightblue" d="M912.41,-116.72C810.33,-106.16 548.49,-79.07 460.87,-70.01"/>
<polygon fill="midnightblue" stroke="midnightblue" points="461.15,-66.52 450.84,-68.97 460.43,-73.48 461.15,-66.52"/>
</g>
<!-- Node35&#45;&gt;Node9 -->
<g id="edge57" class="edge">
<title>Node35&#45;&gt;Node9</title>
<path fill="none" stroke="midnightblue" d="M953.81,-112.08C953.81,-105.01 953.81,-94.86 953.81,-85.99"/>
<polygon fill="midnightblue" stroke="midnightblue" points="957.31,-85.75 953.81,-75.75 950.31,-85.75 957.31,-85.75"/>
</g>
<!-- Node36&#45;&gt;Node4 -->
<g id="edge61" class="edge">
<title>Node36&#45;&gt;Node4</title>
<path fill="none" stroke="midnightblue" d="M1236.69,-280.41C1253.17,-273.1 1274.72,-261.06 1287.81,-244 1306.13,-220.12 1306.81,-209.1 1306.81,-179 1306.81,-179 1306.81,-179 1306.81,-121 1306.81,-27.45 563.64,-13.3 398.19,-11.31"/>
<polygon fill="midnightblue" stroke="midnightblue" points="398.18,-7.81 388.14,-11.19 398.1,-14.81 398.18,-7.81"/>
</g>
<!-- Node36&#45;&gt;Node6 -->
<g id="edge65" class="edge">
<title>Node36&#45;&gt;Node6</title>
<path fill="none" stroke="midnightblue" d="M1206.92,-280.47C1182.69,-251.16 1097.81,-154.08 1003.81,-112 951.95,-88.78 780.38,-73.89 714.19,-68.88"/>
<polygon fill="midnightblue" stroke="midnightblue" points="714.38,-65.38 704.15,-68.13 713.86,-72.36 714.38,-65.38"/>
</g>
<!-- Node36&#45;&gt;Node27 -->
<g id="edge66" class="edge">
<title>Node36&#45;&gt;Node27</title>
<path fill="none" stroke="midnightblue" d="M1186.98,-281.49C1154.27,-272.34 1098.7,-256.79 1060.91,-246.22"/>
<polygon fill="midnightblue" stroke="midnightblue" points="1061.81,-242.84 1051.23,-243.51 1059.92,-249.58 1061.81,-242.84"/>
</g>
<!-- Node36&#45;&gt;Node31 -->
<g id="edge62" class="edge">
<title>Node36&#45;&gt;Node31</title>
<path fill="none" stroke="midnightblue" d="M1187.18,-284.37C1145.08,-276.96 1060.38,-261.65 978.97,-244.17"/>
<polygon fill="midnightblue" stroke="midnightblue" points="979.57,-240.72 969.06,-242.03 978.09,-247.56 979.57,-240.72"/>
</g>
<!-- Node36&#45;&gt;Node34 -->
<g id="edge69" class="edge">
<title>Node36&#45;&gt;Node34</title>
<path fill="none" stroke="midnightblue" d="M1240.46,-280.68C1269.75,-271.54 1317,-256.79 1349.86,-246.53"/>
<polygon fill="midnightblue" stroke="midnightblue" points="1351.05,-249.83 1359.56,-243.51 1348.97,-243.15 1351.05,-249.83"/>
</g>
<!-- Node36&#45;&gt;Node37 -->
<g id="edge63" class="edge">
<title>Node36&#45;&gt;Node37</title>
<path fill="none" stroke="midnightblue" d="M1240.57,-284.29C1282.43,-276.83 1366.15,-261.53 1447.11,-244.07"/>
<polygon fill="midnightblue" stroke="midnightblue" points="1447.94,-247.47 1456.96,-241.93 1446.45,-240.63 1447.94,-247.47"/>
</g>
<!-- Node36&#45;&gt;Node38 -->
<g id="edge64" class="edge">
<title>Node36&#45;&gt;Node38</title>
<path fill="none" stroke="midnightblue" d="M1240.53,-286.91C1292.81,-282.44 1412.31,-270.33 1520.76,-243.82"/>
<polygon fill="midnightblue" stroke="midnightblue" points="1521.69,-247.2 1530.55,-241.38 1520,-240.41 1521.69,-247.2"/>
</g>
<!-- Node39 -->
<g id="node32" class="node">
<title>Node39</title>
<g id="a_node32"><a xlink:title=" ">
<polygon fill="none" stroke="#bfbfbf" points="1225.31,-224.5 1225.31,-243.5 1278.31,-243.5 1278.31,-224.5 1225.31,-224.5"/>
<text text-anchor="middle" x="1251.81" y="-231.5" font-family="Helvetica,sans-Serif" font-size="10.00">regex.h</text>
</a>
</g>
</g>
<!-- Node36&#45;&gt;Node39 -->
<g id="edge67" class="edge">
<title>Node36&#45;&gt;Node39</title>
<path fill="none" stroke="midnightblue" d="M1220.09,-280.08C1225.45,-272.46 1233.33,-261.26 1239.89,-251.94"/>
<polygon fill="midnightblue" stroke="midnightblue" points="1242.76,-253.94 1245.65,-243.75 1237.04,-249.91 1242.76,-253.94"/>
</g>
<!-- Node36&#45;&gt;Node40 -->
<g id="edge68" class="edge">
<title>Node36&#45;&gt;Node40</title>
<path fill="none" stroke="midnightblue" d="M1240.48,-286.75C1298.66,-281.61 1441.47,-267.72 1571.05,-243.92"/>
<polygon fill="midnightblue" stroke="midnightblue" points="1571.96,-247.31 1581.15,-242.04 1570.68,-240.43 1571.96,-247.31"/>
</g>
</g>
</svg>
