<?xml version="1.0" encoding="UTF-8" standalone="no"?>
<!DOCTYPE svg PUBLIC "-//W3C//DTD SVG 1.1//EN"
 "http://www.w3.org/Graphics/SVG/1.1/DTD/svg11.dtd">
<!-- Generated by graphviz version 2.43.0 (0)
 -->
<!-- Title: lib/persist.hpp Pages: 1 -->
<svg width="970pt" height="140pt"
 viewBox="0.00 0.00 969.50 140.00" xmlns="http://www.w3.org/2000/svg" xmlns:xlink="http://www.w3.org/1999/xlink">
<g id="graph0" class="graph" transform="scale(1 1) rotate(0) translate(4 136)">
<title>lib/persist.hpp</title>
<!-- Node1 -->
<g id="node1" class="node">
<title>Node1</title>
<g id="a_node1"><a xlink:title=" ">
<polygon fill="#bfbfbf" stroke="black" points="423.5,-112.5 423.5,-131.5 509.5,-131.5 509.5,-112.5 423.5,-112.5"/>
<text text-anchor="middle" x="466.5" y="-119.5" font-family="Helvetica,sans-Serif" font-size="10.00">lib/persist.hpp</text>
</a>
</g>
</g>
<!-- Node2 -->
<g id="node2" class="node">
<title>Node2</title>
<g id="a_node2"><a xlink:href="../../d7/d97/persist_8cpp.html" target="_top" xlink:title=" ">
<polygon fill="none" stroke="black" points="0,-56.5 0,-75.5 85,-75.5 85,-56.5 0,-56.5"/>
<text text-anchor="middle" x="42.5" y="-63.5" font-family="Helvetica,sans-Serif" font-size="10.00">lib/persist.cpp</text>
</a>
</g>
</g>
<!-- Node1&#45;&gt;Node2 -->
<g id="edge1" class="edge">
<title>Node1&#45;&gt;Node2</title>
<path fill="none" stroke="midnightblue" d="M413.07,-115.48C340.55,-107.78 206.96,-92.84 93.5,-76 90.74,-75.59 87.91,-75.15 85.05,-74.69"/>
<polygon fill="midnightblue" stroke="midnightblue" points="413.01,-118.99 423.32,-116.57 413.74,-112.03 413.01,-118.99"/>
</g>
<!-- Node3 -->
<g id="node3" class="node">
<title>Node3</title>
<g id="a_node3"><a xlink:href="../../d4/de1/history_8hpp.html" target="_top" xlink:title=" ">
<polygon fill="none" stroke="black" points="103,-56.5 103,-75.5 228,-75.5 228,-56.5 103,-56.5"/>
<text text-anchor="middle" x="165.5" y="-63.5" font-family="Helvetica,sans-Serif" font-size="10.00">tools/lmon/history.hpp</text>
</a>
</g>
</g>
<!-- Node1&#45;&gt;Node3 -->
<g id="edge2" class="edge">
<title>Node1&#45;&gt;Node3</title>
<path fill="none" stroke="midnightblue" d="M413.52,-111.5C356.78,-101.32 267.56,-85.31 213.02,-75.52"/>
<polygon fill="midnightblue" stroke="midnightblue" points="412.91,-114.94 423.37,-113.26 414.15,-108.05 412.91,-114.94"/>
</g>
<!-- Node5 -->
<g id="node5" class="node">
<title>Node5</title>
<g id="a_node5"><a xlink:href="../../d4/d0e/lmon__curses_8cpp.html" target="_top" xlink:title=" ">
<polygon fill="none" stroke="black" points="195,-0.5 195,-19.5 348,-19.5 348,-0.5 195,-0.5"/>
<text text-anchor="middle" x="271.5" y="-7.5" font-family="Helvetica,sans-Serif" font-size="10.00">tools/lmon/lmon_curses.cpp</text>
</a>
</g>
</g>
<!-- Node1&#45;&gt;Node5 -->
<g id="edge9" class="edge">
<title>Node1&#45;&gt;Node5</title>
<path fill="none" stroke="midnightblue" d="M413.02,-115.49C362.86,-109.13 293.01,-96.77 275.5,-76 262.09,-60.09 265.89,-33.47 269.09,-19.76"/>
<polygon fill="midnightblue" stroke="midnightblue" points="412.73,-118.98 423.08,-116.72 413.58,-112.04 412.73,-118.98"/>
</g>
<!-- Node6 -->
<g id="node6" class="node">
<title>Node6</title>
<g id="a_node6"><a xlink:href="../../df/dde/lmon_8cpp.html" target="_top" xlink:title=" ">
<polygon fill="none" stroke="black" points="394.5,-0.5 394.5,-19.5 510.5,-19.5 510.5,-0.5 394.5,-0.5"/>
<text text-anchor="middle" x="452.5" y="-7.5" font-family="Helvetica,sans-Serif" font-size="10.00">tools/lmon/lmon.cpp</text>
</a>
</g>
</g>
<!-- Node1&#45;&gt;Node6 -->
<g id="edge5" class="edge">
<title>Node1&#45;&gt;Node6</title>
<path fill="none" stroke="midnightblue" d="M464.13,-102.35C461.06,-78.25 455.85,-37.31 453.59,-19.59"/>
<polygon fill="midnightblue" stroke="midnightblue" points="460.67,-102.89 465.4,-112.37 467.61,-102.01 460.67,-102.89"/>
</g>
<!-- Node7 -->
<g id="node7" class="node">
<title>Node7</title>
<g id="a_node7"><a xlink:href="../../d4/d35/lmon__curses_8hpp.html" target="_top" xlink:title=" ">
<polygon fill="none" stroke="black" points="284.5,-56.5 284.5,-75.5 438.5,-75.5 438.5,-56.5 284.5,-56.5"/>
<text text-anchor="middle" x="361.5" y="-63.5" font-family="Helvetica,sans-Serif" font-size="10.00">tools/lmon/lmon_curses.hpp</text>
</a>
</g>
</g>
<!-- Node1&#45;&gt;Node7 -->
<g id="edge6" class="edge">
<title>Node1&#45;&gt;Node7</title>
<path fill="none" stroke="midnightblue" d="M440.69,-107.73C421.25,-97.73 395.15,-84.31 378.33,-75.65"/>
<polygon fill="midnightblue" stroke="midnightblue" points="439.14,-110.86 449.63,-112.32 442.34,-104.64 439.14,-110.86"/>
</g>
<!-- Node8 -->
<g id="node8" class="node">
<title>Node8</title>
<g id="a_node8"><a xlink:href="../../dd/d15/lrep_8cpp.html" target="_top" xlink:title=" ">
<polygon fill="none" stroke="black" points="494.5,-56.5 494.5,-75.5 598.5,-75.5 598.5,-56.5 494.5,-56.5"/>
<text text-anchor="middle" x="546.5" y="-63.5" font-family="Helvetica,sans-Serif" font-size="10.00">tools/lrep/lrep.cpp</text>
</a>
</g>
</g>
<!-- Node1&#45;&gt;Node8 -->
<g id="edge10" class="edge">
<title>Node1&#45;&gt;Node8</title>
<path fill="none" stroke="midnightblue" d="M487.8,-106.62C502.42,-96.76 521.33,-83.99 533.68,-75.65"/>
<polygon fill="midnightblue" stroke="midnightblue" points="485.68,-103.83 479.35,-112.32 489.6,-109.63 485.68,-103.83"/>
</g>
<!-- Node9 -->
<g id="node9" class="node">
<title>Node9</title>
<g id="a_node9"><a xlink:href="../../d1/d59/lar__snap_8hpp.html" target="_top" xlink:title=" ">
<polygon fill="none" stroke="black" points="616.5,-56.5 616.5,-75.5 744.5,-75.5 744.5,-56.5 616.5,-56.5"/>
<text text-anchor="middle" x="680.5" y="-63.5" font-family="Helvetica,sans-Serif" font-size="10.00">tools/lard/lar_snap.hpp</text>
</a>
</g>
</g>
<!-- Node1&#45;&gt;Node9 -->
<g id="edge11" class="edge">
<title>Node1&#45;&gt;Node9</title>
<path fill="none" stroke="midnightblue" d="M510.26,-109.96C550.67,-99.76 609.87,-84.82 646.75,-75.52"/>
<polygon fill="midnightblue" stroke="midnightblue" points="509.25,-106.6 500.41,-112.44 510.96,-113.39 509.25,-106.6"/>
</g>
<!-- Node11 -->
<g id="node11" class="node">
<title>Node11</title>
<g id="a_node11"><a xlink:href="../../da/da6/lar__schema_8cpp.html" target="_top" xlink:title=" ">
<polygon fill="none" stroke="black" points="819.5,-0.5 819.5,-19.5 961.5,-19.5 961.5,-0.5 819.5,-0.5"/>
<text text-anchor="middle" x="890.5" y="-7.5" font-family="Helvetica,sans-Serif" font-size="10.00">tools/lard/lar_schema.cpp</text>
</a>
</g>
</g>
<!-- Node1&#45;&gt;Node11 -->
<g id="edge18" class="edge">
<title>Node1&#45;&gt;Node11</title>
<path fill="none" stroke="midnightblue" d="M519.83,-119.59C633.07,-116.04 889.38,-104.87 915.5,-76 930.43,-59.5 910.98,-33.14 898.86,-19.62"/>
<polygon fill="midnightblue" stroke="midnightblue" points="519.54,-116.1 509.65,-119.9 519.75,-123.09 519.54,-116.1"/>
</g>
<!-- Node13 -->
<g id="node13" class="node">
<title>Node13</title>
<g id="a_node13"><a xlink:href="../../dd/d35/lar__schema_8hpp.html" target="_top" xlink:title=" ">
<polygon fill="none" stroke="black" points="763,-56.5 763,-75.5 906,-75.5 906,-56.5 763,-56.5"/>
<text text-anchor="middle" x="834.5" y="-63.5" font-family="Helvetica,sans-Serif" font-size="10.00">tools/lard/lar_schema.hpp</text>
</a>
</g>
</g>
<!-- Node1&#45;&gt;Node13 -->
<g id="edge15" class="edge">
<title>Node1&#45;&gt;Node13</title>
<path fill="none" stroke="midnightblue" d="M519.91,-113.16C588.24,-103.14 706.14,-85.84 776.57,-75.5"/>
<polygon fill="midnightblue" stroke="midnightblue" points="519.18,-109.73 509.8,-114.65 520.2,-116.66 519.18,-109.73"/>
</g>
<!-- Node4 -->
<g id="node4" class="node">
<title>Node4</title>
<g id="a_node4"><a xlink:href="../../d1/d3e/history_8cpp.html" target="_top" xlink:title=" ">
<polygon fill="none" stroke="black" points="52.5,-0.5 52.5,-19.5 176.5,-19.5 176.5,-0.5 52.5,-0.5"/>
<text text-anchor="middle" x="114.5" y="-7.5" font-family="Helvetica,sans-Serif" font-size="10.00">tools/lmon/history.cpp</text>
</a>
</g>
</g>
<!-- Node3&#45;&gt;Node4 -->
<g id="edge3" class="edge">
<title>Node3&#45;&gt;Node4</title>
<path fill="none" stroke="midnightblue" d="M150.12,-48.72C141.13,-39.2 130.14,-27.56 122.76,-19.75"/>
<polygon fill="midnightblue" stroke="midnightblue" points="147.67,-51.22 157.08,-56.08 152.76,-46.41 147.67,-51.22"/>
</g>
<!-- Node3&#45;&gt;Node5 -->
<g id="edge4" class="edge">
<title>Node3&#45;&gt;Node5</title>
<path fill="none" stroke="midnightblue" d="M191.56,-51.73C211.18,-41.73 237.53,-28.31 254.51,-19.65"/>
<polygon fill="midnightblue" stroke="midnightblue" points="189.85,-48.67 182.53,-56.32 193.03,-54.9 189.85,-48.67"/>
</g>
<!-- Node7&#45;&gt;Node5 -->
<g id="edge8" class="edge">
<title>Node7&#45;&gt;Node5</title>
<path fill="none" stroke="midnightblue" d="M338.46,-51.18C321.9,-41.24 300.08,-28.15 285.92,-19.65"/>
<polygon fill="midnightblue" stroke="midnightblue" points="336.66,-54.18 347.04,-56.32 340.27,-48.18 336.66,-54.18"/>
</g>
<!-- Node7&#45;&gt;Node6 -->
<g id="edge7" class="edge">
<title>Node7&#45;&gt;Node6</title>
<path fill="none" stroke="midnightblue" d="M384.79,-51.18C401.54,-41.24 423.6,-28.15 437.92,-19.65"/>
<polygon fill="midnightblue" stroke="midnightblue" points="382.93,-48.21 376.12,-56.32 386.51,-54.23 382.93,-48.21"/>
</g>
<!-- Node10 -->
<g id="node10" class="node">
<title>Node10</title>
<g id="a_node10"><a xlink:href="../../da/de9/lar_8cpp.html" target="_top" xlink:title=" ">
<polygon fill="none" stroke="black" points="703.5,-0.5 703.5,-19.5 801.5,-19.5 801.5,-0.5 703.5,-0.5"/>
<text text-anchor="middle" x="752.5" y="-7.5" font-family="Helvetica,sans-Serif" font-size="10.00">tools/lard/lar.cpp</text>
</a>
</g>
</g>
<!-- Node9&#45;&gt;Node10 -->
<g id="edge12" class="edge">
<title>Node9&#45;&gt;Node10</title>
<path fill="none" stroke="midnightblue" d="M700.37,-50.1C713.32,-40.38 729.8,-28.03 740.72,-19.83"/>
<polygon fill="midnightblue" stroke="midnightblue" points="697.97,-47.52 692.07,-56.32 702.17,-53.12 697.97,-47.52"/>
</g>
<!-- Node9&#45;&gt;Node11 -->
<g id="edge13" class="edge">
<title>Node9&#45;&gt;Node11</title>
<path fill="none" stroke="midnightblue" d="M723.69,-53.89C763.35,-43.7 821.27,-28.8 857.38,-19.52"/>
<polygon fill="midnightblue" stroke="midnightblue" points="722.59,-50.56 713.78,-56.44 724.33,-57.34 722.59,-50.56"/>
</g>
<!-- Node12 -->
<g id="node12" class="node">
<title>Node12</title>
<g id="a_node12"><a xlink:href="../../d4/dc8/lar__snap_8cpp.html" target="_top" xlink:title=" ">
<polygon fill="none" stroke="black" points="558,-0.5 558,-19.5 685,-19.5 685,-0.5 558,-0.5"/>
<text text-anchor="middle" x="621.5" y="-7.5" font-family="Helvetica,sans-Serif" font-size="10.00">tools/lard/lar_snap.cpp</text>
</a>
</g>
</g>
<!-- Node9&#45;&gt;Node12 -->
<g id="edge14" class="edge">
<title>Node9&#45;&gt;Node12</title>
<path fill="none" stroke="midnightblue" d="M663.61,-49.54C653.09,-39.91 639.93,-27.87 631.15,-19.83"/>
<polygon fill="midnightblue" stroke="midnightblue" points="661.28,-52.15 671.02,-56.32 666.01,-46.99 661.28,-52.15"/>
</g>
<!-- Node13&#45;&gt;Node10 -->
<g id="edge16" class="edge">
<title>Node13&#45;&gt;Node10</title>
<path fill="none" stroke="midnightblue" d="M812.67,-50.62C797.69,-40.76 778.3,-27.99 765.64,-19.65"/>
<polygon fill="midnightblue" stroke="midnightblue" points="811.05,-53.75 821.33,-56.32 814.9,-47.9 811.05,-53.75"/>
</g>
<!-- Node13&#45;&gt;Node11 -->
<g id="edge17" class="edge">
<title>Node13&#45;&gt;Node11</title>
<path fill="none" stroke="midnightblue" d="M850.83,-49.25C860.76,-39.67 873.09,-27.79 881.34,-19.83"/>
<polygon fill="midnightblue" stroke="midnightblue" points="848.27,-46.86 843.5,-56.32 853.13,-51.9 848.27,-46.86"/>
</g>
</g>
</svg>
