<?xml version="1.0" encoding="UTF-8" standalone="no"?>
<!DOCTYPE svg PUBLIC "-//W3C//DTD SVG 1.1//EN"
 "http://www.w3.org/Graphics/SVG/1.1/DTD/svg11.dtd">
<!-- Generated by graphviz version 2.43.0 (0)
 -->
<!-- Title: leanux::tools::lmon::TriggerBase Pages: 1 -->
<svg width="509pt" height="235pt"
 viewBox="0.00 0.00 509.00 235.00" xmlns="http://www.w3.org/2000/svg" xmlns:xlink="http://www.w3.org/1999/xlink">
<g id="graph0" class="graph" transform="scale(1 1) rotate(0) translate(4 231)">
<title>leanux::tools::lmon::TriggerBase</title>
<!-- Node1 -->
<g id="node1" class="node">
<title>Node1</title>
<g id="a_node1"><a xlink:title=" ">
<polygon fill="#bfbfbf" stroke="black" points="391,-120.5 391,-150.5 501,-150.5 501,-120.5 391,-120.5"/>
<text text-anchor="start" x="399" y="-138.5" font-family="Helvetica,sans-Serif" font-size="10.00">leanux::tools::lmon</text>
<text text-anchor="middle" x="446" y="-127.5" font-family="Helvetica,sans-Serif" font-size="10.00">::TriggerBase</text>
</a>
</g>
</g>
<!-- Node2 -->
<g id="node2" class="node">
<title>Node2</title>
<g id="a_node2"><a xlink:title=" ">
<polygon fill="none" stroke="#bfbfbf" points="201.5,-175 201.5,-194 306.5,-194 306.5,-175 201.5,-175"/>
<text text-anchor="middle" x="254" y="-182" font-family="Helvetica,sans-Serif" font-size="10.00">std::list&lt; Signal &gt;</text>
</a>
</g>
</g>
<!-- Node2&#45;&gt;Node1 -->
<g id="edge1" class="edge">
<title>Node2&#45;&gt;Node1</title>
<path fill="none" stroke="#9a32cd" stroke-dasharray="5,2" d="M302.02,-172.37C328.9,-165.44 362.74,-156.72 390.74,-149.49"/>
<polygon fill="#9a32cd" stroke="#9a32cd" points="300.89,-169.05 292.08,-174.94 302.64,-175.83 300.89,-169.05"/>
<text text-anchor="middle" x="350" y="-168.5" font-family="Helvetica,sans-Serif" font-size="10.00"> signals_</text>
</g>
<!-- Node3 -->
<g id="node3" class="node">
<title>Node3</title>
<g id="a_node3"><a xlink:href="../../da/dbe/namespaceleanux_1_1tools_1_1lmon.html#d3/d8b/structleanux_1_1tools_1_1lmon_1_1Signal" target="_top" xlink:title=" ">
<polygon fill="none" stroke="red" points="0,-196.5 0,-226.5 110,-226.5 110,-196.5 0,-196.5"/>
<text text-anchor="start" x="8" y="-214.5" font-family="Helvetica,sans-Serif" font-size="10.00">leanux::tools::lmon</text>
<text text-anchor="middle" x="55" y="-203.5" font-family="Helvetica,sans-Serif" font-size="10.00">::Signal</text>
</a>
</g>
</g>
<!-- Node3&#45;&gt;Node2 -->
<g id="edge2" class="edge">
<title>Node3&#45;&gt;Node2</title>
<path fill="none" stroke="#9a32cd" stroke-dasharray="5,2" d="M120.34,-202.68C146.62,-199.08 176.6,-194.97 201.4,-191.57"/>
<polygon fill="#9a32cd" stroke="#9a32cd" points="119.52,-199.26 110.09,-204.09 120.47,-206.2 119.52,-199.26"/>
<text text-anchor="middle" x="154.5" y="-203.5" font-family="Helvetica,sans-Serif" font-size="10.00"> elements</text>
</g>
<!-- Node6 -->
<g id="node4" class="node">
<title>Node6</title>
<g id="a_node4"><a xlink:href="../../da/dbe/namespaceleanux_1_1tools_1_1lmon.html#dc/dc9/structleanux_1_1tools_1_1lmon_1_1TriggerContext" target="_top" xlink:title=" ">
<polygon fill="none" stroke="black" points="199,-98.5 199,-128.5 309,-128.5 309,-98.5 199,-98.5"/>
<text text-anchor="start" x="207" y="-116.5" font-family="Helvetica,sans-Serif" font-size="10.00">leanux::tools::lmon</text>
<text text-anchor="middle" x="254" y="-105.5" font-family="Helvetica,sans-Serif" font-size="10.00">::TriggerContext</text>
</a>
</g>
</g>
<!-- Node6&#45;&gt;Node1 -->
<g id="edge3" class="edge">
<title>Node6&#45;&gt;Node1</title>
<path fill="none" stroke="#9a32cd" stroke-dasharray="5,2" d="M319.28,-116.4C336.75,-117.59 355.64,-119.23 373,-121.5 378.81,-122.26 384.85,-123.2 390.86,-124.23"/>
<polygon fill="#9a32cd" stroke="#9a32cd" points="319.39,-112.9 309.18,-115.76 318.94,-119.89 319.39,-112.9"/>
<text text-anchor="middle" x="350" y="-124.5" font-family="Helvetica,sans-Serif" font-size="10.00"> context_</text>
</g>
<!-- Node7 -->
<g id="node5" class="node">
<title>Node7</title>
<g id="a_node5"><a xlink:href="../../da/dbe/namespaceleanux_1_1tools_1_1lmon.html#db/d0a/structleanux_1_1tools_1_1lmon_1_1XSysView" target="_top" xlink:title="Data record for SysView display.">
<polygon fill="none" stroke="red" points="0,-147.5 0,-177.5 110,-177.5 110,-147.5 0,-147.5"/>
<text text-anchor="start" x="8" y="-165.5" font-family="Helvetica,sans-Serif" font-size="10.00">leanux::tools::lmon</text>
<text text-anchor="middle" x="55" y="-154.5" font-family="Helvetica,sans-Serif" font-size="10.00">::XSysView</text>
</a>
</g>
</g>
<!-- Node7&#45;&gt;Node6 -->
<g id="edge4" class="edge">
<title>Node7&#45;&gt;Node6</title>
<path fill="none" stroke="#9a32cd" stroke-dasharray="5,2" d="M120.01,-146.58C145.41,-140.26 174.32,-133.07 198.69,-127.01"/>
<polygon fill="#9a32cd" stroke="#9a32cd" points="118.95,-143.24 110.09,-149.05 120.64,-150.03 118.95,-143.24"/>
<text text-anchor="middle" x="154.5" y="-146.5" font-family="Helvetica,sans-Serif" font-size="10.00"> sysview_</text>
</g>
<!-- Node21 -->
<g id="node6" class="node">
<title>Node21</title>
<g id="a_node6"><a xlink:href="../../da/dbe/namespaceleanux_1_1tools_1_1lmon.html#d4/d83/structleanux_1_1tools_1_1lmon_1_1XProcView" target="_top" xlink:title=" ">
<polygon fill="none" stroke="red" points="0,-98.5 0,-128.5 110,-128.5 110,-98.5 0,-98.5"/>
<text text-anchor="start" x="8" y="-116.5" font-family="Helvetica,sans-Serif" font-size="10.00">leanux::tools::lmon</text>
<text text-anchor="middle" x="55" y="-105.5" font-family="Helvetica,sans-Serif" font-size="10.00">::XProcView</text>
</a>
</g>
</g>
<!-- Node21&#45;&gt;Node6 -->
<g id="edge5" class="edge">
<title>Node21&#45;&gt;Node6</title>
<path fill="none" stroke="#9a32cd" stroke-dasharray="5,2" d="M120.34,-113.5C145.67,-113.5 174.43,-113.5 198.69,-113.5"/>
<polygon fill="#9a32cd" stroke="#9a32cd" points="120.09,-110 110.09,-113.5 120.09,-117 120.09,-110"/>
<text text-anchor="middle" x="154.5" y="-116.5" font-family="Helvetica,sans-Serif" font-size="10.00"> procview_</text>
</g>
<!-- Node30 -->
<g id="node7" class="node">
<title>Node30</title>
<g id="a_node7"><a xlink:href="../../da/dbe/namespaceleanux_1_1tools_1_1lmon.html#db/ddd/structleanux_1_1tools_1_1lmon_1_1XIOView" target="_top" xlink:title="Data record for IOView display.">
<polygon fill="none" stroke="red" points="0,-49.5 0,-79.5 110,-79.5 110,-49.5 0,-49.5"/>
<text text-anchor="start" x="8" y="-67.5" font-family="Helvetica,sans-Serif" font-size="10.00">leanux::tools::lmon</text>
<text text-anchor="middle" x="55" y="-56.5" font-family="Helvetica,sans-Serif" font-size="10.00">::XIOView</text>
</a>
</g>
</g>
<!-- Node30&#45;&gt;Node6 -->
<g id="edge6" class="edge">
<title>Node30&#45;&gt;Node6</title>
<path fill="none" stroke="#9a32cd" stroke-dasharray="5,2" d="M120.01,-80.42C145.41,-86.74 174.32,-93.93 198.69,-99.99"/>
<polygon fill="#9a32cd" stroke="#9a32cd" points="120.64,-76.97 110.09,-77.95 118.95,-83.76 120.64,-76.97"/>
<text text-anchor="middle" x="154.5" y="-97.5" font-family="Helvetica,sans-Serif" font-size="10.00"> ioview_</text>
</g>
<!-- Node35 -->
<g id="node8" class="node">
<title>Node35</title>
<g id="a_node8"><a xlink:href="../../da/dbe/namespaceleanux_1_1tools_1_1lmon.html#db/d56/structleanux_1_1tools_1_1lmon_1_1XNetView" target="_top" xlink:title="Data record for NetView display.">
<polygon fill="none" stroke="red" points="0,-0.5 0,-30.5 110,-30.5 110,-0.5 0,-0.5"/>
<text text-anchor="start" x="8" y="-18.5" font-family="Helvetica,sans-Serif" font-size="10.00">leanux::tools::lmon</text>
<text text-anchor="middle" x="55" y="-7.5" font-family="Helvetica,sans-Serif" font-size="10.00">::XNetView</text>
</a>
</g>
</g>
<!-- Node35&#45;&gt;Node6 -->
<g id="edge7" class="edge">
<title>Node35&#45;&gt;Node6</title>
<path fill="none" stroke="#9a32cd" stroke-dasharray="5,2" d="M106.94,-34.36C129.98,-43.48 157.3,-55.12 181,-67.5 198.62,-76.7 217.52,-88.87 231.53,-98.39"/>
<polygon fill="#9a32cd" stroke="#9a32cd" points="107.94,-30.99 97.35,-30.61 105.39,-37.51 107.94,-30.99"/>
<text text-anchor="middle" x="154.5" y="-70.5" font-family="Helvetica,sans-Serif" font-size="10.00"> netview_</text>
</g>
</g>
</svg>
