<?xml version="1.0" encoding="UTF-8" standalone="no"?>
<!DOCTYPE svg PUBLIC "-//W3C//DTD SVG 1.1//EN"
 "http://www.w3.org/Graphics/SVG/1.1/DTD/svg11.dtd">
<!-- Generated by graphviz version 2.43.0 (0)
 -->
<!-- Title: leanux::persist::DML::execute Pages: 1 -->
<svg width="607pt" height="628pt"
 viewBox="0.00 0.00 607.00 628.00" xmlns="http://www.w3.org/2000/svg" xmlns:xlink="http://www.w3.org/1999/xlink">
<g id="graph0" class="graph" transform="scale(1 1) rotate(0) translate(4 624)">
<title>leanux::persist::DML::execute</title>
<!-- Node1 -->
<g id="node1" class="node">
<title>Node1</title>
<g id="a_node1"><a xlink:title="Execute.">
<polygon fill="#bfbfbf" stroke="black" points="483,-289.5 483,-319.5 599,-319.5 599,-289.5 483,-289.5"/>
<text text-anchor="start" x="491" y="-307.5" font-family="Helvetica,sans-Serif" font-size="10.00">leanux::persist::DML</text>
<text text-anchor="middle" x="541" y="-296.5" font-family="Helvetica,sans-Serif" font-size="10.00">::execute</text>
</a>
</g>
</g>
<!-- Node2 -->
<g id="node2" class="node">
<title>Node2</title>
<g id="a_node2"><a xlink:href="../../d4/d62/namespaceleanux_1_1tools_1_1lard.html#a9249744b0576a17dd109b8fad44863d3" target="_top" xlink:title=" ">
<polygon fill="none" stroke="black" points="325,-540.5 325,-570.5 429,-570.5 429,-540.5 325,-540.5"/>
<text text-anchor="start" x="333" y="-558.5" font-family="Helvetica,sans-Serif" font-size="10.00">leanux::tools::lard</text>
<text text-anchor="middle" x="377" y="-547.5" font-family="Helvetica,sans-Serif" font-size="10.00">::deleteSnapshots</text>
</a>
</g>
</g>
<!-- Node1&#45;&gt;Node2 -->
<g id="edge1" class="edge">
<title>Node1&#45;&gt;Node2</title>
<path fill="none" stroke="midnightblue" d="M535.77,-329.56C526.97,-374.45 502.68,-469.15 447,-525.5 441.03,-531.54 433.65,-536.45 425.95,-540.41"/>
<polygon fill="midnightblue" stroke="midnightblue" points="539.25,-329.99 537.64,-319.52 532.37,-328.71 539.25,-329.99"/>
</g>
<!-- Node4 -->
<g id="node4" class="node">
<title>Node4</title>
<g id="a_node4"><a xlink:href="../../d4/d62/namespaceleanux_1_1tools_1_1lard.html#a6de74bbef1d571bf7eb000e62900a11d" target="_top" xlink:title=" ">
<polygon fill="none" stroke="red" points="0,-280.5 0,-310.5 104,-310.5 104,-280.5 0,-280.5"/>
<text text-anchor="start" x="8" y="-298.5" font-family="Helvetica,sans-Serif" font-size="10.00">leanux::tools::lard</text>
<text text-anchor="middle" x="52" y="-287.5" font-family="Helvetica,sans-Serif" font-size="10.00">::mainLoop</text>
</a>
</g>
</g>
<!-- Node1&#45;&gt;Node4 -->
<g id="edge8" class="edge">
<title>Node1&#45;&gt;Node4</title>
<path fill="none" stroke="midnightblue" d="M528.55,-328.61C513.64,-357.52 484.95,-405.55 447,-433.5 335.13,-515.9 256.41,-568.35 140,-492.5 75.63,-450.56 58.54,-349.01 54.31,-310.58"/>
<polygon fill="midnightblue" stroke="midnightblue" points="531.71,-330.11 533.07,-319.6 525.45,-326.97 531.71,-330.11"/>
</g>
<!-- Node8 -->
<g id="node6" class="node">
<title>Node8</title>
<g id="a_node6"><a xlink:href="../../d4/d62/namespaceleanux_1_1tools_1_1lard.html#aee987aaaf44a4832b535ecf78065d963" target="_top" xlink:title=" ">
<polygon fill="none" stroke="black" points="153.5,-452.5 153.5,-482.5 257.5,-482.5 257.5,-452.5 153.5,-452.5"/>
<text text-anchor="start" x="161.5" y="-470.5" font-family="Helvetica,sans-Serif" font-size="10.00">leanux::tools::lard</text>
<text text-anchor="middle" x="205.5" y="-459.5" font-family="Helvetica,sans-Serif" font-size="10.00">::ensureSinglePid</text>
</a>
</g>
</g>
<!-- Node1&#45;&gt;Node8 -->
<g id="edge6" class="edge">
<title>Node1&#45;&gt;Node8</title>
<path fill="none" stroke="midnightblue" d="M521.54,-327.4C504.24,-347.48 476.64,-376.09 447,-393.5 386.92,-428.78 308.34,-448.83 257.64,-458.92"/>
<polygon fill="midnightblue" stroke="midnightblue" points="524.32,-329.54 528.09,-319.64 518.97,-325.03 524.32,-329.54"/>
</g>
<!-- Node9 -->
<g id="node7" class="node">
<title>Node9</title>
<g id="a_node7"><a xlink:href="../../d3/d88/classleanux_1_1tools_1_1lard_1_1TimeSnap.html#ae4186449701030aec1986be6c197ba24" target="_top" xlink:title=" ">
<polygon fill="none" stroke="black" points="142.5,-403.5 142.5,-433.5 268.5,-433.5 268.5,-403.5 142.5,-403.5"/>
<text text-anchor="start" x="150.5" y="-421.5" font-family="Helvetica,sans-Serif" font-size="10.00">leanux::tools::lard</text>
<text text-anchor="middle" x="205.5" y="-410.5" font-family="Helvetica,sans-Serif" font-size="10.00">::TimeSnap::storeSnap</text>
</a>
</g>
</g>
<!-- Node1&#45;&gt;Node9 -->
<g id="edge9" class="edge">
<title>Node1&#45;&gt;Node9</title>
<path fill="none" stroke="midnightblue" d="M510.06,-325.27C492.39,-336.74 469.19,-350.45 447,-359.5 388.58,-383.33 318.11,-399.23 268.6,-408.46"/>
<polygon fill="midnightblue" stroke="midnightblue" points="512.36,-327.95 518.77,-319.51 508.5,-322.11 512.36,-327.95"/>
</g>
<!-- Node10 -->
<g id="node8" class="node">
<title>Node10</title>
<g id="a_node8"><a xlink:href="../../d8/d77/classleanux_1_1tools_1_1lard_1_1IOSnap.html#acd9defb7ca62e96d5f76b04b3e365b41" target="_top" xlink:title=" ">
<polygon fill="none" stroke="black" points="149.5,-354.5 149.5,-384.5 261.5,-384.5 261.5,-354.5 149.5,-354.5"/>
<text text-anchor="start" x="157.5" y="-372.5" font-family="Helvetica,sans-Serif" font-size="10.00">leanux::tools::lard</text>
<text text-anchor="middle" x="205.5" y="-361.5" font-family="Helvetica,sans-Serif" font-size="10.00">::IOSnap::storeSnap</text>
</a>
</g>
</g>
<!-- Node1&#45;&gt;Node10 -->
<g id="edge11" class="edge">
<title>Node1&#45;&gt;Node10</title>
<path fill="none" stroke="midnightblue" d="M488.72,-322.74C475.27,-327.05 460.7,-331.32 447,-334.5 384.32,-349.06 310.98,-358.69 261.91,-364.1"/>
<polygon fill="midnightblue" stroke="midnightblue" points="489.88,-326.04 498.29,-319.6 487.7,-319.39 489.88,-326.04"/>
</g>
<!-- Node11 -->
<g id="node9" class="node">
<title>Node11</title>
<g id="a_node9"><a xlink:href="../../d5/d03/classleanux_1_1tools_1_1lard_1_1CPUSnap.html#a08144ea8cd0e5e5ff868278abc111f44" target="_top" xlink:title=" ">
<polygon fill="none" stroke="black" points="144.5,-305.5 144.5,-335.5 266.5,-335.5 266.5,-305.5 144.5,-305.5"/>
<text text-anchor="start" x="152.5" y="-323.5" font-family="Helvetica,sans-Serif" font-size="10.00">leanux::tools::lard</text>
<text text-anchor="middle" x="205.5" y="-312.5" font-family="Helvetica,sans-Serif" font-size="10.00">::CPUSnap::storeSnap</text>
</a>
</g>
</g>
<!-- Node1&#45;&gt;Node11 -->
<g id="edge13" class="edge">
<title>Node1&#45;&gt;Node11</title>
<path fill="none" stroke="midnightblue" d="M472.59,-315.79C464,-316.89 455.31,-317.84 447,-318.5 385.81,-323.34 315.59,-323.28 266.89,-322.35"/>
<polygon fill="midnightblue" stroke="midnightblue" points="473.16,-319.25 482.6,-314.44 472.22,-312.31 473.16,-319.25"/>
</g>
<!-- Node12 -->
<g id="node10" class="node">
<title>Node12</title>
<g id="a_node10"><a xlink:href="../../d3/d40/classleanux_1_1tools_1_1lard_1_1SchedSnap.html#a2726e1f32a987d973afd8d5dcc1b96b1" target="_top" xlink:title=" ">
<polygon fill="none" stroke="black" points="140,-256.5 140,-286.5 271,-286.5 271,-256.5 140,-256.5"/>
<text text-anchor="start" x="148" y="-274.5" font-family="Helvetica,sans-Serif" font-size="10.00">leanux::tools::lard</text>
<text text-anchor="middle" x="205.5" y="-263.5" font-family="Helvetica,sans-Serif" font-size="10.00">::SchedSnap::storeSnap</text>
</a>
</g>
</g>
<!-- Node1&#45;&gt;Node12 -->
<g id="edge15" class="edge">
<title>Node1&#45;&gt;Node12</title>
<path fill="none" stroke="midnightblue" d="M472.96,-300.05C426.35,-296.71 362.81,-291.66 307,-285.5 295.36,-284.22 282.98,-282.65 271.04,-281.04"/>
<polygon fill="midnightblue" stroke="midnightblue" points="472.72,-303.54 482.94,-300.76 473.21,-296.56 472.72,-303.54"/>
</g>
<!-- Node13 -->
<g id="node11" class="node">
<title>Node13</title>
<g id="a_node11"><a xlink:href="../../d2/de5/classleanux_1_1tools_1_1lard_1_1NetSnap.html#a6a04b1f2237b5fe9ac5f7be64721f23f" target="_top" xlink:title=" ">
<polygon fill="none" stroke="black" points="317.5,-245.5 317.5,-275.5 436.5,-275.5 436.5,-245.5 317.5,-245.5"/>
<text text-anchor="start" x="325.5" y="-263.5" font-family="Helvetica,sans-Serif" font-size="10.00">leanux::tools::lard</text>
<text text-anchor="middle" x="377" y="-252.5" font-family="Helvetica,sans-Serif" font-size="10.00">::NetSnap::storeSnap</text>
</a>
</g>
</g>
<!-- Node1&#45;&gt;Node13 -->
<g id="edge17" class="edge">
<title>Node1&#45;&gt;Node13</title>
<path fill="none" stroke="midnightblue" d="M474.82,-286.8C461.06,-283.06 446.68,-279.15 433.32,-275.53"/>
<polygon fill="midnightblue" stroke="midnightblue" points="474.13,-290.24 484.7,-289.48 475.97,-283.48 474.13,-290.24"/>
</g>
<!-- Node14 -->
<g id="node12" class="node">
<title>Node14</title>
<g id="a_node12"><a xlink:href="../../d5/d46/classleanux_1_1tools_1_1lard_1_1VMSnap.html#ad7ebbd5cb631d19b7c1a08aeeb7e138b" target="_top" xlink:title=" ">
<polygon fill="none" stroke="black" points="318.5,-196.5 318.5,-226.5 435.5,-226.5 435.5,-196.5 318.5,-196.5"/>
<text text-anchor="start" x="326.5" y="-214.5" font-family="Helvetica,sans-Serif" font-size="10.00">leanux::tools::lard</text>
<text text-anchor="middle" x="377" y="-203.5" font-family="Helvetica,sans-Serif" font-size="10.00">::VMSnap::storeSnap</text>
</a>
</g>
</g>
<!-- Node1&#45;&gt;Node14 -->
<g id="edge19" class="edge">
<title>Node1&#45;&gt;Node14</title>
<path fill="none" stroke="midnightblue" d="M514.76,-282.98C496.76,-268.43 471.49,-249.55 447,-236.5 440.14,-232.85 432.63,-229.51 425.17,-226.56"/>
<polygon fill="midnightblue" stroke="midnightblue" points="512.54,-285.69 522.49,-289.33 516.98,-280.28 512.54,-285.69"/>
</g>
<!-- Node15 -->
<g id="node13" class="node">
<title>Node15</title>
<g id="a_node13"><a xlink:href="../../d4/d0e/classleanux_1_1tools_1_1lard_1_1ProcSnap.html#ab816bcbf8f8986599df48ee7131c10fb" target="_top" xlink:title=" ">
<polygon fill="none" stroke="black" points="316,-147.5 316,-177.5 438,-177.5 438,-147.5 316,-147.5"/>
<text text-anchor="start" x="324" y="-165.5" font-family="Helvetica,sans-Serif" font-size="10.00">leanux::tools::lard</text>
<text text-anchor="middle" x="377" y="-154.5" font-family="Helvetica,sans-Serif" font-size="10.00">::ProcSnap::storeSnap</text>
</a>
</g>
</g>
<!-- Node1&#45;&gt;Node15 -->
<g id="edge21" class="edge">
<title>Node1&#45;&gt;Node15</title>
<path fill="none" stroke="midnightblue" d="M526.47,-280.45C510.57,-254.2 481.9,-212.59 447,-187.5 441.72,-183.71 435.81,-180.43 429.73,-177.62"/>
<polygon fill="midnightblue" stroke="midnightblue" points="523.63,-282.53 531.73,-289.36 529.66,-278.97 523.63,-282.53"/>
</g>
<!-- Node16 -->
<g id="node14" class="node">
<title>Node16</title>
<g id="a_node14"><a xlink:href="../../d4/d46/classleanux_1_1tools_1_1lard_1_1ResSnap.html#a03496036d673feae3ae05cd1106c2858" target="_top" xlink:title=" ">
<polygon fill="none" stroke="black" points="317.5,-98.5 317.5,-128.5 436.5,-128.5 436.5,-98.5 317.5,-98.5"/>
<text text-anchor="start" x="325.5" y="-116.5" font-family="Helvetica,sans-Serif" font-size="10.00">leanux::tools::lard</text>
<text text-anchor="middle" x="377" y="-105.5" font-family="Helvetica,sans-Serif" font-size="10.00">::ResSnap::storeSnap</text>
</a>
</g>
</g>
<!-- Node1&#45;&gt;Node16 -->
<g id="edge23" class="edge">
<title>Node1&#45;&gt;Node16</title>
<path fill="none" stroke="midnightblue" d="M532.31,-279.6C519.96,-243.57 492.38,-177.03 447,-138.5 442.43,-134.62 437.22,-131.33 431.75,-128.53"/>
<polygon fill="midnightblue" stroke="midnightblue" points="529.06,-280.92 535.52,-289.32 535.7,-278.72 529.06,-280.92"/>
</g>
<!-- Node17 -->
<g id="node15" class="node">
<title>Node17</title>
<g id="a_node15"><a xlink:href="../../d0/db5/classleanux_1_1tools_1_1lard_1_1MountSnap.html#a7288efb64fc31818416b8c52c4ba3a0d" target="_top" xlink:title=" ">
<polygon fill="none" stroke="black" points="311,-49.5 311,-79.5 443,-79.5 443,-49.5 311,-49.5"/>
<text text-anchor="start" x="319" y="-67.5" font-family="Helvetica,sans-Serif" font-size="10.00">leanux::tools::lard</text>
<text text-anchor="middle" x="377" y="-56.5" font-family="Helvetica,sans-Serif" font-size="10.00">::MountSnap::storeSnap</text>
</a>
</g>
</g>
<!-- Node1&#45;&gt;Node17 -->
<g id="edge25" class="edge">
<title>Node1&#45;&gt;Node17</title>
<path fill="none" stroke="midnightblue" d="M535.84,-279.45C527.2,-235.09 503.22,-142.41 447,-89.5 442.92,-85.66 438.2,-82.4 433.19,-79.63"/>
<polygon fill="midnightblue" stroke="midnightblue" points="532.42,-280.19 537.68,-289.39 539.3,-278.92 532.42,-280.19"/>
</g>
<!-- Node18 -->
<g id="node16" class="node">
<title>Node18</title>
<g id="a_node16"><a xlink:href="../../d7/dff/classleanux_1_1tools_1_1lard_1_1TCPEstaSnap.html#adc30b5d65eacc454cb653851f6180f8b" target="_top" xlink:title=" ">
<polygon fill="none" stroke="black" points="307,-0.5 307,-30.5 447,-30.5 447,-0.5 307,-0.5"/>
<text text-anchor="start" x="315" y="-18.5" font-family="Helvetica,sans-Serif" font-size="10.00">leanux::tools::lard</text>
<text text-anchor="middle" x="377" y="-7.5" font-family="Helvetica,sans-Serif" font-size="10.00">::TCPEstaSnap::storeSnap</text>
</a>
</g>
</g>
<!-- Node1&#45;&gt;Node18 -->
<g id="edge27" class="edge">
<title>Node1&#45;&gt;Node18</title>
<path fill="none" stroke="midnightblue" d="M538.16,-279.35C533.04,-227.59 514.23,-108.33 447,-40.5 443.14,-36.61 438.64,-33.32 433.8,-30.54"/>
<polygon fill="midnightblue" stroke="midnightblue" points="534.67,-279.68 539.05,-289.33 541.65,-279.06 534.67,-279.68"/>
</g>
<!-- Node3 -->
<g id="node3" class="node">
<title>Node3</title>
<g id="a_node3"><a xlink:href="../../d4/d62/namespaceleanux_1_1tools_1_1lard.html#a98a04e0c068c5083ad571ebc9b79d693" target="_top" xlink:title=" ">
<polygon fill="none" stroke="black" points="153.5,-589.5 153.5,-619.5 257.5,-619.5 257.5,-589.5 153.5,-589.5"/>
<text text-anchor="start" x="161.5" y="-607.5" font-family="Helvetica,sans-Serif" font-size="10.00">leanux::tools::lard</text>
<text text-anchor="middle" x="205.5" y="-596.5" font-family="Helvetica,sans-Serif" font-size="10.00">::applyRetention</text>
</a>
</g>
</g>
<!-- Node2&#45;&gt;Node3 -->
<g id="edge2" class="edge">
<title>Node2&#45;&gt;Node3</title>
<path fill="none" stroke="midnightblue" d="M315.03,-573.13C296.22,-578.56 275.71,-584.49 257.64,-589.72"/>
<polygon fill="midnightblue" stroke="midnightblue" points="316.05,-576.47 324.68,-570.33 314.11,-569.75 316.05,-576.47"/>
</g>
<!-- Node7 -->
<g id="node5" class="node">
<title>Node7</title>
<g id="a_node5"><a xlink:href="../../d4/d62/namespaceleanux_1_1tools_1_1lard.html#a45d90387f852d7a71981b5d4ff93d8da" target="_top" xlink:title=" ">
<polygon fill="none" stroke="black" points="153.5,-540.5 153.5,-570.5 257.5,-570.5 257.5,-540.5 153.5,-540.5"/>
<text text-anchor="start" x="161.5" y="-558.5" font-family="Helvetica,sans-Serif" font-size="10.00">leanux::tools::lard</text>
<text text-anchor="middle" x="205.5" y="-547.5" font-family="Helvetica,sans-Serif" font-size="10.00">::shrinkDB</text>
</a>
</g>
</g>
<!-- Node2&#45;&gt;Node7 -->
<g id="edge4" class="edge">
<title>Node2&#45;&gt;Node7</title>
<path fill="none" stroke="midnightblue" d="M314.51,-555.5C295.84,-555.5 275.55,-555.5 257.64,-555.5"/>
<polygon fill="midnightblue" stroke="midnightblue" points="314.68,-559 324.68,-555.5 314.68,-552 314.68,-559"/>
</g>
<!-- Node3&#45;&gt;Node4 -->
<g id="edge3" class="edge">
<title>Node3&#45;&gt;Node4</title>
<path fill="none" stroke="midnightblue" d="M145.04,-585.15C143.25,-583.71 141.56,-582.16 140,-580.5 64.81,-500.66 54.49,-357.6 53.16,-310.79"/>
<polygon fill="midnightblue" stroke="midnightblue" points="143.18,-588.11 153.42,-590.8 147.09,-582.31 143.18,-588.11"/>
</g>
<!-- Node7&#45;&gt;Node4 -->
<g id="edge5" class="edge">
<title>Node7&#45;&gt;Node4</title>
<path fill="none" stroke="midnightblue" d="M151.16,-535.02C147.09,-532.21 143.29,-529.05 140,-525.5 80,-460.91 60.19,-350.87 54.77,-310.73"/>
<polygon fill="midnightblue" stroke="midnightblue" points="149.46,-538.09 159.82,-540.32 153.12,-532.12 149.46,-538.09"/>
</g>
<!-- Node8&#45;&gt;Node4 -->
<g id="edge7" class="edge">
<title>Node8&#45;&gt;Node4</title>
<path fill="none" stroke="midnightblue" d="M144.74,-447.11C143.09,-445.97 141.51,-444.77 140,-443.5 95.69,-406.35 68.58,-340.51 58.04,-310.8"/>
<polygon fill="midnightblue" stroke="midnightblue" points="142.98,-450.14 153.35,-452.33 146.61,-444.16 142.98,-450.14"/>
</g>
<!-- Node9&#45;&gt;Node4 -->
<g id="edge10" class="edge">
<title>Node9&#45;&gt;Node4</title>
<path fill="none" stroke="midnightblue" d="M146.73,-398.72C144.41,-397.39 142.15,-395.98 140,-394.5 106.27,-371.27 77.17,-332.12 62.72,-310.68"/>
<polygon fill="midnightblue" stroke="midnightblue" points="145.48,-402.01 155.98,-403.47 148.69,-395.78 145.48,-402.01"/>
</g>
<!-- Node10&#45;&gt;Node4 -->
<g id="edge12" class="edge">
<title>Node10&#45;&gt;Node4</title>
<path fill="none" stroke="midnightblue" d="M151.71,-350.68C147.71,-349 143.77,-347.27 140,-345.5 117.92,-335.14 93.97,-321.15 76.8,-310.61"/>
<polygon fill="midnightblue" stroke="midnightblue" points="150.49,-353.96 161.07,-354.46 153.11,-347.47 150.49,-353.96"/>
</g>
<!-- Node11&#45;&gt;Node4 -->
<g id="edge14" class="edge">
<title>Node11&#45;&gt;Node4</title>
<path fill="none" stroke="midnightblue" d="M134.19,-308.9C124.12,-307.24 113.93,-305.55 104.32,-303.97"/>
<polygon fill="midnightblue" stroke="midnightblue" points="133.75,-312.37 144.19,-310.55 134.89,-305.47 133.75,-312.37"/>
</g>
<!-- Node12&#45;&gt;Node4 -->
<g id="edge16" class="edge">
<title>Node12&#45;&gt;Node4</title>
<path fill="none" stroke="midnightblue" d="M129.71,-283.35C121.07,-284.72 112.42,-286.09 104.2,-287.39"/>
<polygon fill="midnightblue" stroke="midnightblue" points="130.48,-286.77 139.81,-281.75 129.39,-279.86 130.48,-286.77"/>
</g>
<!-- Node13&#45;&gt;Node4 -->
<g id="edge18" class="edge">
<title>Node13&#45;&gt;Node4</title>
<path fill="none" stroke="midnightblue" d="M307.41,-245.86C259.73,-238.3 195.09,-233.31 140,-247.5 115.28,-253.87 90.06,-268.92 73.19,-280.48"/>
<polygon fill="midnightblue" stroke="midnightblue" points="306.88,-249.32 317.32,-247.51 308.03,-242.42 306.88,-249.32"/>
</g>
<!-- Node14&#45;&gt;Node4 -->
<g id="edge20" class="edge">
<title>Node14&#45;&gt;Node4</title>
<path fill="none" stroke="midnightblue" d="M308.33,-208.59C259.99,-208.69 194.19,-213.35 140,-233.5 112.19,-243.84 85.15,-265.48 68.79,-280.25"/>
<polygon fill="midnightblue" stroke="midnightblue" points="308.35,-212.09 318.37,-208.63 308.38,-205.09 308.35,-212.09"/>
</g>
<!-- Node15&#45;&gt;Node4 -->
<g id="edge22" class="edge">
<title>Node15&#45;&gt;Node4</title>
<path fill="none" stroke="midnightblue" d="M305.76,-164.08C256.77,-167.78 191.25,-178.08 140,-205.5 106.08,-223.65 77.48,-259.72 63.05,-280.26"/>
<polygon fill="midnightblue" stroke="midnightblue" points="306.21,-167.55 315.95,-163.38 305.74,-160.57 306.21,-167.55"/>
</g>
<!-- Node16&#45;&gt;Node4 -->
<g id="edge24" class="edge">
<title>Node16&#45;&gt;Node4</title>
<path fill="none" stroke="midnightblue" d="M307.22,-114.43C257.01,-118.17 189.37,-129.84 140,-163.5 96.46,-193.19 69.29,-252.59 58.43,-280.44"/>
<polygon fill="midnightblue" stroke="midnightblue" points="307.59,-117.91 317.34,-113.77 307.13,-110.93 307.59,-117.91"/>
</g>
<!-- Node17&#45;&gt;Node4 -->
<g id="edge26" class="edge">
<title>Node17&#45;&gt;Node4</title>
<path fill="none" stroke="midnightblue" d="M300.76,-63.82C250.48,-67.06 185.45,-78.8 140,-114.5 84.75,-157.89 62.58,-245.11 55.64,-280.28"/>
<polygon fill="midnightblue" stroke="midnightblue" points="301.14,-67.31 310.94,-63.27 300.76,-60.32 301.14,-67.31"/>
</g>
<!-- Node18&#45;&gt;Node4 -->
<g id="edge28" class="edge">
<title>Node18&#45;&gt;Node4</title>
<path fill="none" stroke="midnightblue" d="M296.67,-12.57C246.41,-14.85 183.01,-25.9 140,-62.5 71.43,-120.84 56.85,-238.71 53.79,-280.44"/>
<polygon fill="midnightblue" stroke="midnightblue" points="296.98,-16.06 306.86,-12.22 296.74,-9.06 296.98,-16.06"/>
</g>
</g>
</svg>
