<?xml version="1.0" encoding="UTF-8" standalone="no"?>
<!DOCTYPE svg PUBLIC "-//W3C//DTD SVG 1.1//EN"
 "http://www.w3.org/Graphics/SVG/1.1/DTD/svg11.dtd">
<!-- Generated by graphviz version 2.43.0 (0)
 -->
<!-- Title: leanux::tools::lard::SchedSnap Pages: 1 -->
<svg width="396pt" height="217pt"
 viewBox="0.00 0.00 396.00 217.00" xmlns="http://www.w3.org/2000/svg" xmlns:xlink="http://www.w3.org/1999/xlink">
<g id="graph0" class="graph" transform="scale(1 1) rotate(0) translate(4 213)">
<title>leanux::tools::lard::SchedSnap</title>
<!-- Node1 -->
<g id="node1" class="node">
<title>Node1</title>
<g id="a_node1"><a xlink:title=" ">
<polygon fill="#bfbfbf" stroke="black" points="134,-0.5 134,-30.5 238,-30.5 238,-0.5 134,-0.5"/>
<text text-anchor="start" x="142" y="-18.5" font-family="Helvetica,sans-Serif" font-size="10.00">leanux::tools::lard</text>
<text text-anchor="middle" x="186" y="-7.5" font-family="Helvetica,sans-Serif" font-size="10.00">::SchedSnap</text>
</a>
</g>
</g>
<!-- Node2 -->
<g id="node2" class="node">
<title>Node2</title>
<g id="a_node2"><a xlink:href="../../db/dc1/classleanux_1_1tools_1_1lard_1_1Snapshot.html" target="_top" xlink:title=" ">
<polygon fill="none" stroke="black" points="0,-89.5 0,-119.5 104,-119.5 104,-89.5 0,-89.5"/>
<text text-anchor="start" x="8" y="-107.5" font-family="Helvetica,sans-Serif" font-size="10.00">leanux::tools::lard</text>
<text text-anchor="middle" x="52" y="-96.5" font-family="Helvetica,sans-Serif" font-size="10.00">::Snapshot</text>
</a>
</g>
</g>
<!-- Node2&#45;&gt;Node1 -->
<g id="edge1" class="edge">
<title>Node2&#45;&gt;Node1</title>
<path fill="none" stroke="midnightblue" d="M82.52,-83.68C107.42,-67.52 141.99,-45.07 164.18,-30.67"/>
<polygon fill="midnightblue" stroke="midnightblue" points="80.31,-80.95 73.83,-89.33 84.12,-86.82 80.31,-80.95"/>
</g>
<!-- Node3 -->
<g id="node3" class="node">
<title>Node3</title>
<g id="a_node3"><a xlink:href="../../da/da3/namespaceleanux_1_1cpu.html#db/d9d/structleanux_1_1cpu_1_1SchedInfo" target="_top" xlink:title="CPU scheduler info.">
<polygon fill="none" stroke="black" points="122.5,-95 122.5,-114 249.5,-114 249.5,-95 122.5,-95"/>
<text text-anchor="middle" x="186" y="-102" font-family="Helvetica,sans-Serif" font-size="10.00">leanux::cpu::SchedInfo</text>
</a>
</g>
</g>
<!-- Node3&#45;&gt;Node1 -->
<g id="edge2" class="edge">
<title>Node3&#45;&gt;Node1</title>
<path fill="none" stroke="#9a32cd" stroke-dasharray="5,2" d="M186,-84.41C186,-68.15 186,-45.16 186,-30.55"/>
<polygon fill="#9a32cd" stroke="#9a32cd" points="182.5,-84.84 186,-94.84 189.5,-84.84 182.5,-84.84"/>
<text text-anchor="middle" x="207.5" y="-63" font-family="Helvetica,sans-Serif" font-size="10.00"> sched1_</text>
<text text-anchor="middle" x="207.5" y="-52" font-family="Helvetica,sans-Serif" font-size="10.00">sched2_</text>
</g>
<!-- Node4 -->
<g id="node4" class="node">
<title>Node4</title>
<g id="a_node4"><a xlink:title=" ">
<polygon fill="none" stroke="#bfbfbf" points="139.5,-189.5 139.5,-208.5 168.5,-208.5 168.5,-189.5 139.5,-189.5"/>
<text text-anchor="middle" x="154" y="-196.5" font-family="Helvetica,sans-Serif" font-size="10.00">int</text>
</a>
</g>
</g>
<!-- Node4&#45;&gt;Node3 -->
<g id="edge3" class="edge">
<title>Node4&#45;&gt;Node3</title>
<path fill="none" stroke="#9a32cd" stroke-dasharray="5,2" d="M149.95,-179.5C148.15,-167.25 147.52,-151.1 153,-138 157.1,-128.21 165.74,-119.87 173.16,-114.1"/>
<polygon fill="#9a32cd" stroke="#9a32cd" points="146.53,-180.25 151.78,-189.45 153.41,-178.98 146.53,-180.25"/>
<text text-anchor="middle" x="173" y="-157.5" font-family="Helvetica,sans-Serif" font-size="10.00"> running</text>
<text text-anchor="middle" x="173" y="-146.5" font-family="Helvetica,sans-Serif" font-size="10.00">blocked</text>
</g>
<!-- Node5 -->
<g id="node5" class="node">
<title>Node5</title>
<g id="a_node5"><a xlink:title=" ">
<polygon fill="none" stroke="#bfbfbf" points="198,-189.5 198,-208.5 236,-208.5 236,-189.5 198,-189.5"/>
<text text-anchor="middle" x="217" y="-196.5" font-family="Helvetica,sans-Serif" font-size="10.00">long</text>
</a>
</g>
</g>
<!-- Node5&#45;&gt;Node3 -->
<g id="edge4" class="edge">
<title>Node5&#45;&gt;Node3</title>
<path fill="none" stroke="#9a32cd" stroke-dasharray="5,2" d="M210.87,-179.72C204.21,-159.82 193.83,-128.87 188.85,-114.02"/>
<polygon fill="#9a32cd" stroke="#9a32cd" points="207.64,-181.09 214.14,-189.46 214.28,-178.87 207.64,-181.09"/>
<text text-anchor="middle" x="234" y="-157.5" font-family="Helvetica,sans-Serif" font-size="10.00"> processes</text>
<text text-anchor="middle" x="234" y="-146.5" font-family="Helvetica,sans-Serif" font-size="10.00">ctxt</text>
</g>
<!-- Node6 -->
<g id="node6" class="node">
<title>Node6</title>
<g id="a_node6"><a xlink:href="../../da/da3/namespaceleanux_1_1cpu.html#dd/d31/structleanux_1_1cpu_1_1LoadAvg" target="_top" xlink:title="System load average &#45; the average number of processes on the run queue.">
<polygon fill="none" stroke="black" points="268,-95 268,-114 388,-114 388,-95 268,-95"/>
<text text-anchor="middle" x="328" y="-102" font-family="Helvetica,sans-Serif" font-size="10.00">leanux::cpu::LoadAvg</text>
</a>
</g>
</g>
<!-- Node6&#45;&gt;Node1 -->
<g id="edge5" class="edge">
<title>Node6&#45;&gt;Node1</title>
<path fill="none" stroke="#9a32cd" stroke-dasharray="5,2" d="M305.57,-89.76C279.2,-73.6 235.66,-46.92 209.03,-30.61"/>
<polygon fill="#9a32cd" stroke="#9a32cd" points="303.77,-92.76 314.13,-95 307.43,-86.79 303.77,-92.76"/>
<text text-anchor="middle" x="292" y="-63" font-family="Helvetica,sans-Serif" font-size="10.00"> load2_</text>
<text text-anchor="middle" x="292" y="-52" font-family="Helvetica,sans-Serif" font-size="10.00">load1_</text>
</g>
<!-- Node7 -->
<g id="node7" class="node">
<title>Node7</title>
<g id="a_node7"><a xlink:title=" ">
<polygon fill="none" stroke="#bfbfbf" points="303,-189.5 303,-208.5 353,-208.5 353,-189.5 303,-189.5"/>
<text text-anchor="middle" x="328" y="-196.5" font-family="Helvetica,sans-Serif" font-size="10.00">double</text>
</a>
</g>
</g>
<!-- Node7&#45;&gt;Node6 -->
<g id="edge6" class="edge">
<title>Node7&#45;&gt;Node6</title>
<path fill="none" stroke="#9a32cd" stroke-dasharray="5,2" d="M328,-179.44C328,-159.54 328,-128.8 328,-114.02"/>
<polygon fill="#9a32cd" stroke="#9a32cd" points="324.5,-179.46 328,-189.46 331.5,-179.46 324.5,-179.46"/>
<text text-anchor="middle" x="346" y="-163" font-family="Helvetica,sans-Serif" font-size="10.00"> avg5_</text>
<text text-anchor="middle" x="346" y="-152" font-family="Helvetica,sans-Serif" font-size="10.00">avg15_</text>
<text text-anchor="middle" x="346" y="-141" font-family="Helvetica,sans-Serif" font-size="10.00">avg10_</text>
</g>
</g>
</svg>
