<?xml version="1.0" encoding="UTF-8" standalone="no"?>
<!DOCTYPE svg PUBLIC "-//W3C//DTD SVG 1.1//EN"
 "http://www.w3.org/Graphics/SVG/1.1/DTD/svg11.dtd">
<!-- Generated by graphviz version 2.43.0 (0)
 -->
<!-- Title: leanux::sysdevice::NetDevice Pages: 1 -->
<svg width="246pt" height="173pt"
 viewBox="0.00 0.00 246.00 173.00" xmlns="http://www.w3.org/2000/svg" xmlns:xlink="http://www.w3.org/1999/xlink">
<g id="graph0" class="graph" transform="scale(1 1) rotate(0) translate(4 169)">
<title>leanux::sysdevice::NetDevice</title>
<!-- Node1 -->
<g id="node1" class="node">
<title>Node1</title>
<g id="a_node1"><a xlink:title="Generic networking device.">
<polygon fill="#bfbfbf" stroke="black" points="64,-67.5 64,-97.5 174,-97.5 174,-67.5 64,-67.5"/>
<text text-anchor="start" x="72" y="-85.5" font-family="Helvetica,sans-Serif" font-size="10.00">leanux::sysdevice::</text>
<text text-anchor="middle" x="119" y="-74.5" font-family="Helvetica,sans-Serif" font-size="10.00">NetDevice</text>
</a>
</g>
</g>
<!-- Node3 -->
<g id="node3" class="node">
<title>Node3</title>
<g id="a_node3"><a xlink:href="../../d9/d1e/classleanux_1_1sysdevice_1_1VirtioNetDevice.html" target="_top" xlink:title="Say yes to virtio net devices.">
<polygon fill="none" stroke="black" points="0,-0.5 0,-30.5 110,-30.5 110,-0.5 0,-0.5"/>
<text text-anchor="start" x="8" y="-18.5" font-family="Helvetica,sans-Serif" font-size="10.00">leanux::sysdevice::</text>
<text text-anchor="middle" x="55" y="-7.5" font-family="Helvetica,sans-Serif" font-size="10.00">VirtioNetDevice</text>
</a>
</g>
</g>
<!-- Node1&#45;&gt;Node3 -->
<g id="edge2" class="edge">
<title>Node1&#45;&gt;Node3</title>
<path fill="none" stroke="midnightblue" d="M97.85,-60.02C88.32,-50.34 77.33,-39.17 68.86,-30.58"/>
<polygon fill="midnightblue" stroke="midnightblue" points="95.6,-62.73 105.11,-67.4 100.59,-57.81 95.6,-62.73"/>
</g>
<!-- Node4 -->
<g id="node4" class="node">
<title>Node4</title>
<g id="a_node4"><a xlink:href="../../de/d36/classleanux_1_1sysdevice_1_1VirtualNetDevice.html" target="_top" xlink:title="Virtual networking device.">
<polygon fill="none" stroke="black" points="128,-0.5 128,-30.5 238,-30.5 238,-0.5 128,-0.5"/>
<text text-anchor="start" x="136" y="-18.5" font-family="Helvetica,sans-Serif" font-size="10.00">leanux::sysdevice::</text>
<text text-anchor="middle" x="183" y="-7.5" font-family="Helvetica,sans-Serif" font-size="10.00">VirtualNetDevice</text>
</a>
</g>
</g>
<!-- Node1&#45;&gt;Node4 -->
<g id="edge3" class="edge">
<title>Node1&#45;&gt;Node4</title>
<path fill="none" stroke="midnightblue" d="M140.15,-60.02C149.68,-50.34 160.67,-39.17 169.14,-30.58"/>
<polygon fill="midnightblue" stroke="midnightblue" points="137.41,-57.81 132.89,-67.4 142.4,-62.73 137.41,-57.81"/>
</g>
<!-- Node2 -->
<g id="node2" class="node">
<title>Node2</title>
<g id="a_node2"><a xlink:href="../../d1/d02/classleanux_1_1sysdevice_1_1SysDevice.html" target="_top" xlink:title="Generic SysDevice, utility class for device detection from a SysDevicePath.">
<polygon fill="none" stroke="black" points="64,-134.5 64,-164.5 174,-164.5 174,-134.5 64,-134.5"/>
<text text-anchor="start" x="72" y="-152.5" font-family="Helvetica,sans-Serif" font-size="10.00">leanux::sysdevice::</text>
<text text-anchor="middle" x="119" y="-141.5" font-family="Helvetica,sans-Serif" font-size="10.00">SysDevice</text>
</a>
</g>
</g>
<!-- Node2&#45;&gt;Node1 -->
<g id="edge1" class="edge">
<title>Node2&#45;&gt;Node1</title>
<path fill="none" stroke="midnightblue" d="M119,-124.11C119,-115.15 119,-105.32 119,-97.58"/>
<polygon fill="midnightblue" stroke="midnightblue" points="115.5,-124.4 119,-134.4 122.5,-124.4 115.5,-124.4"/>
</g>
</g>
</svg>
