<?xml version="1.0" encoding="UTF-8" standalone="no"?>
<!DOCTYPE svg PUBLIC "-//W3C//DTD SVG 1.1//EN"
 "http://www.w3.org/Graphics/SVG/1.1/DTD/svg11.dtd">
<!-- Generated by graphviz version 2.43.0 (0)
 -->
<!-- Title: lib/cpu.cpp Pages: 1 -->
<svg width="1316pt" height="196pt"
 viewBox="0.00 0.00 1315.50 196.00" xmlns="http://www.w3.org/2000/svg" xmlns:xlink="http://www.w3.org/1999/xlink">
<g id="graph0" class="graph" transform="scale(1 1) rotate(0) translate(4 192)">
<title>lib/cpu.cpp</title>
<!-- Node1 -->
<g id="node1" class="node">
<title>Node1</title>
<g id="a_node1"><a xlink:title=" ">
<polygon fill="#bfbfbf" stroke="black" points="791,-168.5 791,-187.5 860,-187.5 860,-168.5 791,-168.5"/>
<text text-anchor="middle" x="825.5" y="-175.5" font-family="Helvetica,sans-Serif" font-size="10.00">lib/cpu.cpp</text>
</a>
</g>
</g>
<!-- Node2 -->
<g id="node2" class="node">
<title>Node2</title>
<g id="a_node2"><a xlink:href="../../df/dbe/cpu_8hpp.html" target="_top" xlink:title=" ">
<polygon fill="none" stroke="black" points="798,-56.5 798,-75.5 853,-75.5 853,-56.5 798,-56.5"/>
<text text-anchor="middle" x="825.5" y="-63.5" font-family="Helvetica,sans-Serif" font-size="10.00">cpu.hpp</text>
</a>
</g>
</g>
<!-- Node1&#45;&gt;Node2 -->
<g id="edge1" class="edge">
<title>Node1&#45;&gt;Node2</title>
<path fill="none" stroke="midnightblue" d="M825.5,-168.37C825.5,-150.62 825.5,-109.67 825.5,-85.6"/>
<polygon fill="midnightblue" stroke="midnightblue" points="829,-85.59 825.5,-75.59 822,-85.59 829,-85.59"/>
</g>
<!-- Node6 -->
<g id="node6" class="node">
<title>Node6</title>
<g id="a_node6"><a xlink:href="../../d3/d44/oops_8hpp.html" target="_top" xlink:title=" ">
<polygon fill="none" stroke="black" points="0,-56.5 0,-75.5 61,-75.5 61,-56.5 0,-56.5"/>
<text text-anchor="middle" x="30.5" y="-63.5" font-family="Helvetica,sans-Serif" font-size="10.00">oops.hpp</text>
</a>
</g>
</g>
<!-- Node1&#45;&gt;Node6 -->
<g id="edge5" class="edge">
<title>Node1&#45;&gt;Node6</title>
<path fill="none" stroke="midnightblue" d="M790.58,-176.77C669.21,-175.67 266.44,-169.22 143.5,-132 107.87,-121.21 71.37,-97.45 49.83,-81.84"/>
<polygon fill="midnightblue" stroke="midnightblue" points="51.68,-78.86 41.56,-75.71 47.51,-84.48 51.68,-78.86"/>
</g>
<!-- Node7 -->
<g id="node7" class="node">
<title>Node7</title>
<g id="a_node7"><a xlink:href="../../dd/d90/system_8hpp.html" target="_top" xlink:title=" ">
<polygon fill="none" stroke="black" points="152.5,-112.5 152.5,-131.5 226.5,-131.5 226.5,-112.5 152.5,-112.5"/>
<text text-anchor="middle" x="189.5" y="-119.5" font-family="Helvetica,sans-Serif" font-size="10.00">system.hpp</text>
</a>
</g>
</g>
<!-- Node1&#45;&gt;Node7 -->
<g id="edge7" class="edge">
<title>Node1&#45;&gt;Node7</title>
<path fill="none" stroke="midnightblue" d="M790.85,-174.06C683.93,-164.98 358.99,-137.39 236.71,-127.01"/>
<polygon fill="midnightblue" stroke="midnightblue" points="236.81,-123.5 226.55,-126.15 236.21,-130.48 236.81,-123.5"/>
</g>
<!-- Node10 -->
<g id="node10" class="node">
<title>Node10</title>
<g id="a_node10"><a xlink:href="../../d0/d3f/util_8hpp.html" target="_top" xlink:title=" ">
<polygon fill="none" stroke="black" points="578,-112.5 578,-131.5 631,-131.5 631,-112.5 578,-112.5"/>
<text text-anchor="middle" x="604.5" y="-119.5" font-family="Helvetica,sans-Serif" font-size="10.00">util.hpp</text>
</a>
</g>
</g>
<!-- Node1&#45;&gt;Node10 -->
<g id="edge12" class="edge">
<title>Node1&#45;&gt;Node10</title>
<path fill="none" stroke="midnightblue" d="M790.97,-168.56C750.15,-158.59 682.51,-142.06 640.89,-131.89"/>
<polygon fill="midnightblue" stroke="midnightblue" points="641.7,-128.49 631.16,-129.51 640.04,-135.29 641.7,-128.49"/>
</g>
<!-- Node12 -->
<g id="node12" class="node">
<title>Node12</title>
<g id="a_node12"><a xlink:title=" ">
<polygon fill="none" stroke="#bfbfbf" points="282,-56.5 282,-75.5 337,-75.5 337,-56.5 282,-56.5"/>
<text text-anchor="middle" x="309.5" y="-63.5" font-family="Helvetica,sans-Serif" font-size="10.00">fstream</text>
</a>
</g>
</g>
<!-- Node1&#45;&gt;Node12 -->
<g id="edge34" class="edge">
<title>Node1&#45;&gt;Node12</title>
<path fill="none" stroke="midnightblue" d="M790.83,-174.42C730.83,-169.47 604,-156.84 499.5,-132 441.83,-118.29 376.96,-94.12 339.89,-79.43"/>
<polygon fill="midnightblue" stroke="midnightblue" points="340.78,-76.02 330.2,-75.56 338.18,-82.52 340.78,-76.02"/>
</g>
<!-- Node13 -->
<g id="node13" class="node">
<title>Node13</title>
<g id="a_node13"><a xlink:title=" ">
<polygon fill="none" stroke="#bfbfbf" points="355.5,-56.5 355.5,-75.5 387.5,-75.5 387.5,-56.5 355.5,-56.5"/>
<text text-anchor="middle" x="371.5" y="-63.5" font-family="Helvetica,sans-Serif" font-size="10.00">set</text>
</a>
</g>
</g>
<!-- Node1&#45;&gt;Node13 -->
<g id="edge35" class="edge">
<title>Node1&#45;&gt;Node13</title>
<path fill="none" stroke="midnightblue" d="M790.66,-172.54C740.93,-165.8 646.92,-151.69 568.5,-132 505.92,-116.29 434.45,-90.73 397.18,-76.81"/>
<polygon fill="midnightblue" stroke="midnightblue" points="398.2,-73.45 387.61,-73.2 395.74,-80 398.2,-73.45"/>
</g>
<!-- Node17 -->
<g id="node17" class="node">
<title>Node17</title>
<g id="a_node17"><a xlink:title=" ">
<polygon fill="none" stroke="#bfbfbf" points="910,-56.5 910,-75.5 963,-75.5 963,-56.5 910,-56.5"/>
<text text-anchor="middle" x="936.5" y="-63.5" font-family="Helvetica,sans-Serif" font-size="10.00">string.h</text>
</a>
</g>
</g>
<!-- Node1&#45;&gt;Node17 -->
<g id="edge36" class="edge">
<title>Node1&#45;&gt;Node17</title>
<path fill="none" stroke="midnightblue" d="M834.21,-168.37C852.85,-149.89 896.85,-106.29 920.61,-82.74"/>
<polygon fill="midnightblue" stroke="midnightblue" points="923.19,-85.12 927.83,-75.59 918.26,-80.14 923.19,-85.12"/>
</g>
<!-- Node19 -->
<g id="node19" class="node">
<title>Node19</title>
<g id="a_node19"><a xlink:href="../../d5/d08/device_8hpp.html" target="_top" xlink:title=" ">
<polygon fill="none" stroke="black" points="994.5,-112.5 994.5,-131.5 1064.5,-131.5 1064.5,-112.5 994.5,-112.5"/>
<text text-anchor="middle" x="1029.5" y="-119.5" font-family="Helvetica,sans-Serif" font-size="10.00">device.hpp</text>
</a>
</g>
</g>
<!-- Node1&#45;&gt;Node19 -->
<g id="edge22" class="edge">
<title>Node1&#45;&gt;Node19</title>
<path fill="none" stroke="midnightblue" d="M857.82,-168.44C892.89,-159.16 949,-144.31 987.46,-134.13"/>
<polygon fill="midnightblue" stroke="midnightblue" points="988.56,-137.46 997.33,-131.52 986.76,-130.69 988.56,-137.46"/>
</g>
<!-- Node22 -->
<g id="node22" class="node">
<title>Node22</title>
<g id="a_node22"><a xlink:title=" ">
<polygon fill="none" stroke="#bfbfbf" points="1130.5,-0.5 1130.5,-19.5 1190.5,-19.5 1190.5,-0.5 1130.5,-0.5"/>
<text text-anchor="middle" x="1160.5" y="-7.5" font-family="Helvetica,sans-Serif" font-size="10.00">iostream</text>
</a>
</g>
</g>
<!-- Node1&#45;&gt;Node22 -->
<g id="edge39" class="edge">
<title>Node1&#45;&gt;Node22</title>
<path fill="none" stroke="midnightblue" d="M860.32,-175.89C909.75,-173.17 1002.19,-163.87 1073.5,-132 1110.51,-115.46 1123.68,-110.17 1145.5,-76 1154.36,-62.12 1158.01,-43.61 1159.5,-29.89"/>
<polygon fill="midnightblue" stroke="midnightblue" points="1163,-29.95 1160.31,-19.7 1156.03,-29.39 1163,-29.95"/>
</g>
<!-- Node25 -->
<g id="node23" class="node">
<title>Node25</title>
<g id="a_node23"><a xlink:title=" ">
<polygon fill="none" stroke="#bfbfbf" points="1208.5,-0.5 1208.5,-19.5 1258.5,-19.5 1258.5,-0.5 1208.5,-0.5"/>
<text text-anchor="middle" x="1233.5" y="-7.5" font-family="Helvetica,sans-Serif" font-size="10.00">stdio.h</text>
</a>
</g>
</g>
<!-- Node1&#45;&gt;Node25 -->
<g id="edge38" class="edge">
<title>Node1&#45;&gt;Node25</title>
<path fill="none" stroke="midnightblue" d="M860.35,-177.9C915.51,-177.95 1025.04,-172.36 1106.5,-132 1157.03,-106.97 1200.91,-54.84 1221.32,-27.91"/>
<polygon fill="midnightblue" stroke="midnightblue" points="1224.39,-29.64 1227.53,-19.53 1218.77,-25.48 1224.39,-29.64"/>
</g>
<!-- Node26 -->
<g id="node24" class="node">
<title>Node26</title>
<g id="a_node24"><a xlink:title=" ">
<polygon fill="none" stroke="#bfbfbf" points="1253.5,-112.5 1253.5,-131.5 1307.5,-131.5 1307.5,-112.5 1253.5,-112.5"/>
<text text-anchor="middle" x="1280.5" y="-119.5" font-family="Helvetica,sans-Serif" font-size="10.00">dirent.h</text>
</a>
</g>
</g>
<!-- Node1&#45;&gt;Node26 -->
<g id="edge37" class="edge">
<title>Node1&#45;&gt;Node26</title>
<path fill="none" stroke="midnightblue" d="M860.02,-174.51C931.27,-169.1 1099.65,-154.88 1239.5,-132 1240.75,-131.79 1242.03,-131.58 1243.31,-131.35"/>
<polygon fill="midnightblue" stroke="midnightblue" points="1244.08,-134.76 1253.23,-129.42 1242.75,-127.89 1244.08,-134.76"/>
</g>
<!-- Node3 -->
<g id="node3" class="node">
<title>Node3</title>
<g id="a_node3"><a xlink:title=" ">
<polygon fill="none" stroke="#bfbfbf" points="585.5,-0.5 585.5,-19.5 629.5,-19.5 629.5,-0.5 585.5,-0.5"/>
<text text-anchor="middle" x="607.5" y="-7.5" font-family="Helvetica,sans-Serif" font-size="10.00">string</text>
</a>
</g>
</g>
<!-- Node2&#45;&gt;Node3 -->
<g id="edge2" class="edge">
<title>Node2&#45;&gt;Node3</title>
<path fill="none" stroke="midnightblue" d="M797.89,-58.16C757.46,-48.15 682.31,-29.53 639.51,-18.93"/>
<polygon fill="midnightblue" stroke="midnightblue" points="640.17,-15.49 629.62,-16.48 638.49,-22.28 640.17,-15.49"/>
</g>
<!-- Node4 -->
<g id="node4" class="node">
<title>Node4</title>
<g id="a_node4"><a xlink:title=" ">
<polygon fill="none" stroke="#bfbfbf" points="818,-0.5 818,-19.5 875,-19.5 875,-0.5 818,-0.5"/>
<text text-anchor="middle" x="846.5" y="-7.5" font-family="Helvetica,sans-Serif" font-size="10.00">ostream</text>
</a>
</g>
</g>
<!-- Node2&#45;&gt;Node4 -->
<g id="edge3" class="edge">
<title>Node2&#45;&gt;Node4</title>
<path fill="none" stroke="midnightblue" d="M828.97,-56.08C831.81,-48.77 835.93,-38.18 839.46,-29.1"/>
<polygon fill="midnightblue" stroke="midnightblue" points="842.73,-30.34 843.1,-19.75 836.21,-27.8 842.73,-30.34"/>
</g>
<!-- Node5 -->
<g id="node5" class="node">
<title>Node5</title>
<g id="a_node5"><a xlink:title=" ">
<polygon fill="none" stroke="#bfbfbf" points="915.5,-0.5 915.5,-19.5 953.5,-19.5 953.5,-0.5 915.5,-0.5"/>
<text text-anchor="middle" x="934.5" y="-7.5" font-family="Helvetica,sans-Serif" font-size="10.00">map</text>
</a>
</g>
</g>
<!-- Node2&#45;&gt;Node5 -->
<g id="edge4" class="edge">
<title>Node2&#45;&gt;Node5</title>
<path fill="none" stroke="midnightblue" d="M843.01,-56.32C860.57,-47.62 887.83,-34.12 908.03,-24.11"/>
<polygon fill="midnightblue" stroke="midnightblue" points="909.62,-27.23 917.03,-19.65 906.52,-20.96 909.62,-27.23"/>
</g>
<!-- Node6&#45;&gt;Node3 -->
<g id="edge6" class="edge">
<title>Node6&#45;&gt;Node3</title>
<path fill="none" stroke="midnightblue" d="M61.43,-57.6C64.48,-57 67.55,-56.45 70.5,-56 260.52,-26.8 491.49,-15.48 575.23,-12.15"/>
<polygon fill="midnightblue" stroke="midnightblue" points="575.52,-15.65 585.38,-11.76 575.25,-8.65 575.52,-15.65"/>
</g>
<!-- Node7&#45;&gt;Node3 -->
<g id="edge8" class="edge">
<title>Node7&#45;&gt;Node3</title>
<path fill="none" stroke="midnightblue" d="M197.69,-112.04C211.53,-97.54 241.13,-69.22 272.5,-56 326.76,-33.13 501.84,-18.46 574.95,-13.19"/>
<polygon fill="midnightblue" stroke="midnightblue" points="575.65,-16.65 585.37,-12.45 575.15,-9.67 575.65,-16.65"/>
</g>
<!-- Node7&#45;&gt;Node6 -->
<g id="edge11" class="edge">
<title>Node7&#45;&gt;Node6</title>
<path fill="none" stroke="midnightblue" d="M164.31,-112.44C137.56,-103.36 95.1,-88.94 65.19,-78.78"/>
<polygon fill="midnightblue" stroke="midnightblue" points="66.17,-75.42 55.58,-75.52 63.92,-82.05 66.17,-75.42"/>
</g>
<!-- Node8 -->
<g id="node8" class="node">
<title>Node8</title>
<g id="a_node8"><a xlink:title=" ">
<polygon fill="none" stroke="#bfbfbf" points="79.5,-56.5 79.5,-75.5 135.5,-75.5 135.5,-56.5 79.5,-56.5"/>
<text text-anchor="middle" x="107.5" y="-63.5" font-family="Helvetica,sans-Serif" font-size="10.00">unistd.h</text>
</a>
</g>
</g>
<!-- Node7&#45;&gt;Node8 -->
<g id="edge9" class="edge">
<title>Node7&#45;&gt;Node8</title>
<path fill="none" stroke="midnightblue" d="M176.33,-112.32C163.65,-103.98 144.27,-91.21 129.29,-81.35"/>
<polygon fill="midnightblue" stroke="midnightblue" points="130.92,-78.23 120.64,-75.65 127.07,-84.08 130.92,-78.23"/>
</g>
<!-- Node9 -->
<g id="node9" class="node">
<title>Node9</title>
<g id="a_node9"><a xlink:title=" ">
<polygon fill="none" stroke="#bfbfbf" points="153.5,-56.5 153.5,-75.5 225.5,-75.5 225.5,-56.5 153.5,-56.5"/>
<text text-anchor="middle" x="189.5" y="-63.5" font-family="Helvetica,sans-Serif" font-size="10.00">sys/types.h</text>
</a>
</g>
</g>
<!-- Node7&#45;&gt;Node9 -->
<g id="edge10" class="edge">
<title>Node7&#45;&gt;Node9</title>
<path fill="none" stroke="midnightblue" d="M189.5,-112.08C189.5,-105.01 189.5,-94.86 189.5,-85.99"/>
<polygon fill="midnightblue" stroke="midnightblue" points="193,-85.75 189.5,-75.75 186,-85.75 193,-85.75"/>
</g>
<!-- Node10&#45;&gt;Node3 -->
<g id="edge13" class="edge">
<title>Node10&#45;&gt;Node3</title>
<path fill="none" stroke="midnightblue" d="M577.68,-120.19C520.72,-117.49 395.94,-105.87 434.5,-56 451.55,-33.95 529.82,-20.69 575.03,-14.74"/>
<polygon fill="midnightblue" stroke="midnightblue" points="575.73,-18.18 585.21,-13.45 574.85,-11.23 575.73,-18.18"/>
</g>
<!-- Node11 -->
<g id="node11" class="node">
<title>Node11</title>
<g id="a_node11"><a xlink:title=" ">
<polygon fill="none" stroke="#bfbfbf" points="723.5,-56.5 723.5,-75.5 779.5,-75.5 779.5,-56.5 723.5,-56.5"/>
<text text-anchor="middle" x="751.5" y="-63.5" font-family="Helvetica,sans-Serif" font-size="10.00">sstream</text>
</a>
</g>
</g>
<!-- Node10&#45;&gt;Node11 -->
<g id="edge14" class="edge">
<title>Node10&#45;&gt;Node11</title>
<path fill="none" stroke="midnightblue" d="M627.79,-112.44C652.31,-103.44 691.1,-89.19 718.7,-79.05"/>
<polygon fill="midnightblue" stroke="midnightblue" points="720.14,-82.25 728.32,-75.52 717.72,-75.68 720.14,-82.25"/>
</g>
<!-- Node10&#45;&gt;Node12 -->
<g id="edge15" class="edge">
<title>Node10&#45;&gt;Node12</title>
<path fill="none" stroke="midnightblue" d="M577.65,-116.91C532.28,-109.88 437.38,-94.62 347.18,-76.03"/>
<polygon fill="midnightblue" stroke="midnightblue" points="347.84,-72.59 337.34,-73.98 346.41,-79.44 347.84,-72.59"/>
</g>
<!-- Node10&#45;&gt;Node13 -->
<g id="edge16" class="edge">
<title>Node10&#45;&gt;Node13</title>
<path fill="none" stroke="midnightblue" d="M577.75,-115.72C538.78,-107.89 464.2,-92.33 401.5,-76 400.23,-75.67 398.93,-75.32 397.62,-74.96"/>
<polygon fill="midnightblue" stroke="midnightblue" points="398.21,-71.49 387.63,-72.08 396.27,-78.21 398.21,-71.49"/>
</g>
<!-- Node14 -->
<g id="node14" class="node">
<title>Node14</title>
<g id="a_node14"><a xlink:title=" ">
<polygon fill="none" stroke="#bfbfbf" points="1013.5,-0.5 1013.5,-19.5 1045.5,-19.5 1045.5,-0.5 1013.5,-0.5"/>
<text text-anchor="middle" x="1029.5" y="-7.5" font-family="Helvetica,sans-Serif" font-size="10.00">list</text>
</a>
</g>
</g>
<!-- Node10&#45;&gt;Node14 -->
<g id="edge17" class="edge">
<title>Node10&#45;&gt;Node14</title>
<path fill="none" stroke="midnightblue" d="M631.04,-118.99C678.4,-114.84 780.12,-103.29 861.5,-76 879.97,-69.81 882.59,-63.67 900.5,-56 935.53,-40.99 977.4,-27.1 1003.73,-18.83"/>
<polygon fill="midnightblue" stroke="midnightblue" points="1004.83,-22.15 1013.34,-15.85 1002.75,-15.47 1004.83,-22.15"/>
</g>
<!-- Node15 -->
<g id="node15" class="node">
<title>Node15</title>
<g id="a_node15"><a xlink:title=" ">
<polygon fill="none" stroke="#bfbfbf" points="443.5,-56.5 443.5,-75.5 511.5,-75.5 511.5,-56.5 443.5,-56.5"/>
<text text-anchor="middle" x="477.5" y="-63.5" font-family="Helvetica,sans-Serif" font-size="10.00">sys/time.h</text>
</a>
</g>
</g>
<!-- Node10&#45;&gt;Node15 -->
<g id="edge18" class="edge">
<title>Node10&#45;&gt;Node15</title>
<path fill="none" stroke="midnightblue" d="M584.38,-112.44C563.48,-103.56 530.57,-89.56 506.78,-79.45"/>
<polygon fill="midnightblue" stroke="midnightblue" points="508.1,-76.21 497.53,-75.52 505.36,-82.65 508.1,-76.21"/>
</g>
<!-- Node16 -->
<g id="node16" class="node">
<title>Node16</title>
<g id="a_node16"><a xlink:title=" ">
<polygon fill="none" stroke="#bfbfbf" points="530,-56.5 530,-75.5 583,-75.5 583,-56.5 530,-56.5"/>
<text text-anchor="middle" x="556.5" y="-63.5" font-family="Helvetica,sans-Serif" font-size="10.00">regex.h</text>
</a>
</g>
</g>
<!-- Node10&#45;&gt;Node16 -->
<g id="edge19" class="edge">
<title>Node10&#45;&gt;Node16</title>
<path fill="none" stroke="midnightblue" d="M596.57,-112.08C589.65,-104.3 579.43,-92.8 571.05,-83.37"/>
<polygon fill="midnightblue" stroke="midnightblue" points="573.54,-80.9 564.28,-75.75 568.31,-85.55 573.54,-80.9"/>
</g>
<!-- Node10&#45;&gt;Node17 -->
<g id="edge20" class="edge">
<title>Node10&#45;&gt;Node17</title>
<path fill="none" stroke="midnightblue" d="M631.08,-117.46C682.37,-110.5 798.51,-94.13 895.5,-76 896.79,-75.76 898.1,-75.51 899.42,-75.25"/>
<polygon fill="midnightblue" stroke="midnightblue" points="900.55,-78.59 909.64,-73.15 899.14,-71.73 900.55,-78.59"/>
</g>
<!-- Node18 -->
<g id="node18" class="node">
<title>Node18</title>
<g id="a_node18"><a xlink:title=" ">
<polygon fill="none" stroke="#bfbfbf" points="601.5,-56.5 601.5,-75.5 705.5,-75.5 705.5,-56.5 601.5,-56.5"/>
<text text-anchor="middle" x="653.5" y="-63.5" font-family="Helvetica,sans-Serif" font-size="10.00">leanux&#45;config.hpp</text>
</a>
</g>
</g>
<!-- Node10&#45;&gt;Node18 -->
<g id="edge21" class="edge">
<title>Node10&#45;&gt;Node18</title>
<path fill="none" stroke="midnightblue" d="M612.59,-112.08C619.66,-104.3 630.09,-92.8 638.65,-83.37"/>
<polygon fill="midnightblue" stroke="midnightblue" points="641.43,-85.51 645.56,-75.75 636.25,-80.8 641.43,-85.51"/>
</g>
<!-- Node19&#45;&gt;Node3 -->
<g id="edge24" class="edge">
<title>Node19&#45;&gt;Node3</title>
<path fill="none" stroke="midnightblue" d="M1024.73,-112.47C1016.16,-98.07 996.69,-69.2 971.5,-56 914.13,-25.94 718.08,-15.24 639.99,-12.11"/>
<polygon fill="midnightblue" stroke="midnightblue" points="639.9,-8.61 629.77,-11.72 639.63,-15.6 639.9,-8.61"/>
</g>
<!-- Node19&#45;&gt;Node14 -->
<g id="edge23" class="edge">
<title>Node19&#45;&gt;Node14</title>
<path fill="none" stroke="midnightblue" d="M1029.5,-112.37C1029.5,-94.62 1029.5,-53.67 1029.5,-29.6"/>
<polygon fill="midnightblue" stroke="midnightblue" points="1033,-29.59 1029.5,-19.59 1026,-29.59 1033,-29.59"/>
</g>
<!-- Node20 -->
<g id="node20" class="node">
<title>Node20</title>
<g id="a_node20"><a xlink:title=" ">
<polygon fill="none" stroke="#bfbfbf" points="1065,-0.5 1065,-19.5 1112,-19.5 1112,-0.5 1065,-0.5"/>
<text text-anchor="middle" x="1088.5" y="-7.5" font-family="Helvetica,sans-Serif" font-size="10.00">vector</text>
</a>
</g>
</g>
<!-- Node19&#45;&gt;Node20 -->
<g id="edge25" class="edge">
<title>Node19&#45;&gt;Node20</title>
<path fill="none" stroke="midnightblue" d="M1064.9,-115.29C1087.85,-109.56 1116.07,-98.22 1130.5,-76 1141.65,-58.82 1124.63,-39.06 1109.04,-25.87"/>
<polygon fill="midnightblue" stroke="midnightblue" points="1111.18,-23.1 1101.17,-19.63 1106.83,-28.59 1111.18,-23.1"/>
</g>
<!-- Node21 -->
<g id="node21" class="node">
<title>Node21</title>
<g id="a_node21"><a xlink:href="../../d9/db2/block_8hpp.html" target="_top" xlink:title=" ">
<polygon fill="none" stroke="red" points="1057.5,-56.5 1057.5,-75.5 1121.5,-75.5 1121.5,-56.5 1057.5,-56.5"/>
<text text-anchor="middle" x="1089.5" y="-63.5" font-family="Helvetica,sans-Serif" font-size="10.00">block.hpp</text>
</a>
</g>
</g>
<!-- Node19&#45;&gt;Node21 -->
<g id="edge26" class="edge">
<title>Node19&#45;&gt;Node21</title>
<path fill="none" stroke="midnightblue" d="M1039.14,-112.32C1048.01,-104.34 1061.37,-92.31 1072.11,-82.65"/>
<polygon fill="midnightblue" stroke="midnightblue" points="1074.59,-85.13 1079.68,-75.83 1069.91,-79.92 1074.59,-85.13"/>
</g>
<!-- Node21&#45;&gt;Node3 -->
<g id="edge27" class="edge">
<title>Node21&#45;&gt;Node3</title>
<path fill="none" stroke="midnightblue" d="M1057.13,-61.37C969.29,-51.53 727.21,-24.41 639.64,-14.6"/>
<polygon fill="midnightblue" stroke="midnightblue" points="639.84,-11.1 629.51,-13.47 639.06,-18.06 639.84,-11.1"/>
</g>
<!-- Node21&#45;&gt;Node4 -->
<g id="edge28" class="edge">
<title>Node21&#45;&gt;Node4</title>
<path fill="none" stroke="midnightblue" d="M1057.48,-57.88C1013.06,-48.01 932.82,-30.18 885.13,-19.58"/>
<polygon fill="midnightblue" stroke="midnightblue" points="885.7,-16.13 875.18,-17.37 884.18,-22.96 885.7,-16.13"/>
</g>
<!-- Node21&#45;&gt;Node5 -->
<g id="edge30" class="edge">
<title>Node21&#45;&gt;Node5</title>
<path fill="none" stroke="midnightblue" d="M1064.94,-56.44C1037.3,-46.81 992.44,-31.19 963.21,-21"/>
<polygon fill="midnightblue" stroke="midnightblue" points="964.17,-17.63 953.57,-17.64 961.86,-24.24 964.17,-17.63"/>
</g>
<!-- Node21&#45;&gt;Node14 -->
<g id="edge29" class="edge">
<title>Node21&#45;&gt;Node14</title>
<path fill="none" stroke="midnightblue" d="M1079.86,-56.32C1070.99,-48.34 1057.63,-36.31 1046.89,-26.65"/>
<polygon fill="midnightblue" stroke="midnightblue" points="1049.09,-23.92 1039.32,-19.83 1044.41,-29.13 1049.09,-23.92"/>
</g>
<!-- Node21&#45;&gt;Node20 -->
<g id="edge31" class="edge">
<title>Node21&#45;&gt;Node20</title>
<path fill="none" stroke="midnightblue" d="M1089.33,-56.08C1089.2,-49.01 1089.02,-38.86 1088.85,-29.99"/>
<polygon fill="midnightblue" stroke="midnightblue" points="1092.35,-29.68 1088.66,-19.75 1085.35,-29.81 1092.35,-29.68"/>
</g>
<!-- Node21&#45;&gt;Node22 -->
<g id="edge32" class="edge">
<title>Node21&#45;&gt;Node22</title>
<path fill="none" stroke="midnightblue" d="M1100.91,-56.32C1111.61,-48.18 1127.84,-35.84 1140.66,-26.09"/>
<polygon fill="midnightblue" stroke="midnightblue" points="1143.04,-28.67 1148.89,-19.83 1138.81,-23.1 1143.04,-28.67"/>
</g>
<!-- Node21&#45;&gt;Node25 -->
<g id="edge33" class="edge">
<title>Node21&#45;&gt;Node25</title>
<path fill="none" stroke="midnightblue" d="M1112.32,-56.44C1136.33,-47.44 1174.33,-33.19 1201.37,-23.05"/>
<polygon fill="midnightblue" stroke="midnightblue" points="1202.66,-26.3 1210.79,-19.52 1200.2,-19.75 1202.66,-26.3"/>
</g>
</g>
</svg>
