<?xml version="1.0" encoding="UTF-8" standalone="no"?>
<!DOCTYPE svg PUBLIC "-//W3C//DTD SVG 1.1//EN"
 "http://www.w3.org/Graphics/SVG/1.1/DTD/svg11.dtd">
<!-- Generated by graphviz version 2.43.0 (0)
 -->
<!-- Title: leanux::block::MajorMinor::getWWN Pages: 1 -->
<svg width="691pt" height="165pt"
 viewBox="0.00 0.00 691.00 164.50" xmlns="http://www.w3.org/2000/svg" xmlns:xlink="http://www.w3.org/1999/xlink">
<g id="graph0" class="graph" transform="scale(1 1) rotate(0) translate(4 160.5)">
<title>leanux::block::MajorMinor::getWWN</title>
<!-- Node1 -->
<g id="node1" class="node">
<title>Node1</title>
<g id="a_node1"><a xlink:title="Some block devices do not have a WWN, so there is no guarentee a WWN exists.">
<polygon fill="#bfbfbf" stroke="black" points="0,-71.5 0,-101.5 143,-101.5 143,-71.5 0,-71.5"/>
<text text-anchor="start" x="8" y="-89.5" font-family="Helvetica,sans-Serif" font-size="10.00">leanux::block::MajorMinor</text>
<text text-anchor="middle" x="71.5" y="-78.5" font-family="Helvetica,sans-Serif" font-size="10.00">::getWWN</text>
</a>
</g>
</g>
<!-- Node2 -->
<g id="node2" class="node">
<title>Node2</title>
<g id="a_node2"><a xlink:href="../../d8/db1/namespaceleanux_1_1util.html#a57bfd49353610b3d0b6d121b264c676e" target="_top" xlink:title="read the file as a single string.">
<polygon fill="none" stroke="black" points="179,-137 179,-156 325,-156 325,-137 179,-137"/>
<text text-anchor="middle" x="252" y="-144" font-family="Helvetica,sans-Serif" font-size="10.00">leanux::util::fileReadString</text>
</a>
</g>
</g>
<!-- Node1&#45;&gt;Node2 -->
<g id="edge1" class="edge">
<title>Node1&#45;&gt;Node2</title>
<path fill="none" stroke="midnightblue" d="M116.79,-101.52C135.92,-107.99 158.55,-115.64 179,-122.5 189.9,-126.16 201.74,-130.11 212.61,-133.74"/>
<polygon fill="midnightblue" stroke="midnightblue" points="211.67,-137.11 222.26,-136.95 213.88,-130.47 211.67,-137.11"/>
</g>
<!-- Node3 -->
<g id="node3" class="node">
<title>Node3</title>
<g id="a_node3"><a xlink:href="../../d7/d28/classleanux_1_1block_1_1MajorMinor.html#adc3f437e329318ee21bddbbebaeb740e" target="_top" xlink:title="Get the DeviceName for the MajorMinor.">
<polygon fill="none" stroke="black" points="361,-49.5 361,-79.5 504,-79.5 504,-49.5 361,-49.5"/>
<text text-anchor="start" x="369" y="-67.5" font-family="Helvetica,sans-Serif" font-size="10.00">leanux::block::MajorMinor</text>
<text text-anchor="middle" x="432.5" y="-56.5" font-family="Helvetica,sans-Serif" font-size="10.00">::getNameByMajorMinor</text>
</a>
</g>
</g>
<!-- Node1&#45;&gt;Node3 -->
<g id="edge2" class="edge">
<title>Node1&#45;&gt;Node3</title>
<path fill="none" stroke="midnightblue" d="M143.22,-92.12C193.98,-95 263.92,-96.57 325,-89.5 339.12,-87.87 354.08,-85.05 368.19,-81.88"/>
<polygon fill="midnightblue" stroke="midnightblue" points="369.35,-85.21 378.29,-79.53 367.76,-78.39 369.35,-85.21"/>
</g>
<!-- Node7 -->
<g id="node5" class="node">
<title>Node7</title>
<g id="a_node5"><a xlink:href="../../d7/d28/classleanux_1_1block_1_1MajorMinor.html#a7ef43192321c82d296575f35b69c52d4" target="_top" xlink:title="Get the udev path for the device.">
<polygon fill="none" stroke="black" points="180.5,-49.5 180.5,-79.5 323.5,-79.5 323.5,-49.5 180.5,-49.5"/>
<text text-anchor="start" x="188.5" y="-67.5" font-family="Helvetica,sans-Serif" font-size="10.00">leanux::block::MajorMinor</text>
<text text-anchor="middle" x="252" y="-56.5" font-family="Helvetica,sans-Serif" font-size="10.00">::getUDevPath</text>
</a>
</g>
</g>
<!-- Node1&#45;&gt;Node7 -->
<g id="edge4" class="edge">
<title>Node1&#45;&gt;Node7</title>
<path fill="none" stroke="midnightblue" d="M143.05,-77.81C151.97,-76.71 161.15,-75.57 170.22,-74.46"/>
<polygon fill="midnightblue" stroke="midnightblue" points="170.88,-77.9 180.38,-73.2 170.03,-70.95 170.88,-77.9"/>
</g>
<!-- Node8 -->
<g id="node6" class="node">
<title>Node8</title>
<g id="a_node6"><a xlink:href="../../d7/d28/classleanux_1_1block_1_1MajorMinor.html#ab248c720a63908f9e3ef78ed23536de8" target="_top" xlink:title="determine if the MajorMinor represents a NVMe disk.">
<polygon fill="none" stroke="black" points="180.5,-0.5 180.5,-30.5 323.5,-30.5 323.5,-0.5 180.5,-0.5"/>
<text text-anchor="start" x="188.5" y="-18.5" font-family="Helvetica,sans-Serif" font-size="10.00">leanux::block::MajorMinor</text>
<text text-anchor="middle" x="252" y="-7.5" font-family="Helvetica,sans-Serif" font-size="10.00">::isNVMeDisk</text>
</a>
</g>
</g>
<!-- Node1&#45;&gt;Node8 -->
<g id="edge6" class="edge">
<title>Node1&#45;&gt;Node8</title>
<path fill="none" stroke="midnightblue" d="M105.82,-71.36C126.68,-62.07 154.22,-50.14 179,-40.5 184.53,-38.35 190.33,-36.18 196.14,-34.08"/>
<polygon fill="midnightblue" stroke="midnightblue" points="197.64,-37.26 205.88,-30.6 195.28,-30.67 197.64,-37.26"/>
</g>
<!-- Node4 -->
<g id="node4" class="node">
<title>Node4</title>
<g id="a_node4"><a xlink:href="../../d7/d28/classleanux_1_1block_1_1MajorMinor.html#a4d83c063088eb618533f31e2cc78b2f3" target="_top" xlink:title="(re)build the cached mapping between device names and MajorMinor numbers.">
<polygon fill="none" stroke="red" points="540,-49.5 540,-79.5 683,-79.5 683,-49.5 540,-49.5"/>
<text text-anchor="start" x="548" y="-67.5" font-family="Helvetica,sans-Serif" font-size="10.00">leanux::block::MajorMinor</text>
<text text-anchor="middle" x="611.5" y="-56.5" font-family="Helvetica,sans-Serif" font-size="10.00">::buildCache</text>
</a>
</g>
</g>
<!-- Node3&#45;&gt;Node4 -->
<g id="edge3" class="edge">
<title>Node3&#45;&gt;Node4</title>
<path fill="none" stroke="midnightblue" d="M504.22,-64.5C512.57,-64.5 521.14,-64.5 529.62,-64.5"/>
<polygon fill="midnightblue" stroke="midnightblue" points="529.89,-68 539.89,-64.5 529.89,-61 529.89,-68"/>
</g>
<!-- Node7&#45;&gt;Node3 -->
<g id="edge5" class="edge">
<title>Node7&#45;&gt;Node3</title>
<path fill="none" stroke="midnightblue" d="M323.55,-64.5C332.47,-64.5 341.65,-64.5 350.72,-64.5"/>
<polygon fill="midnightblue" stroke="midnightblue" points="350.88,-68 360.88,-64.5 350.88,-61 350.88,-68"/>
</g>
<!-- Node8&#45;&gt;Node3 -->
<g id="edge7" class="edge">
<title>Node8&#45;&gt;Node3</title>
<path fill="none" stroke="midnightblue" d="M308.01,-30.6C326.59,-35.7 347.51,-41.44 366.77,-46.73"/>
<polygon fill="midnightblue" stroke="midnightblue" points="366.1,-50.18 376.67,-49.45 367.95,-43.43 366.1,-50.18"/>
</g>
</g>
</svg>
