<?xml version="1.0" encoding="UTF-8" standalone="no"?>
<!DOCTYPE svg PUBLIC "-//W3C//DTD SVG 1.1//EN"
 "http://www.w3.org/Graphics/SVG/1.1/DTD/svg11.dtd">
<!-- Generated by graphviz version 2.43.0 (0)
 -->
<!-- Title: leanux::block::MajorMinor::getLVMPV2VG Pages: 1 -->
<svg width="688pt" height="264pt"
 viewBox="0.00 0.00 688.00 264.00" xmlns="http://www.w3.org/2000/svg" xmlns:xlink="http://www.w3.org/1999/xlink">
<g id="graph0" class="graph" transform="scale(1 1) rotate(0) translate(4 260)">
<title>leanux::block::MajorMinor::getLVMPV2VG</title>
<!-- Node1 -->
<g id="node1" class="node">
<title>Node1</title>
<g id="a_node1"><a xlink:title="return the VG name the PV belongs to, or empty if the device is not a LVM PV.">
<polygon fill="#bfbfbf" stroke="black" points="0,-88.5 0,-118.5 143,-118.5 143,-88.5 0,-88.5"/>
<text text-anchor="start" x="8" y="-106.5" font-family="Helvetica,sans-Serif" font-size="10.00">leanux::block::MajorMinor</text>
<text text-anchor="middle" x="71.5" y="-95.5" font-family="Helvetica,sans-Serif" font-size="10.00">::getLVMPV2VG</text>
</a>
</g>
</g>
<!-- Node2 -->
<g id="node2" class="node">
<title>Node2</title>
<g id="a_node2"><a xlink:href="../../d7/d28/classleanux_1_1block_1_1MajorMinor.html#af09033a9db9d908d1132bbab667a0801" target="_top" xlink:title="Get a list of devices holding (using) the device m.">
<polygon fill="none" stroke="black" points="179,-110.5 179,-140.5 322,-140.5 322,-110.5 179,-110.5"/>
<text text-anchor="start" x="187" y="-128.5" font-family="Helvetica,sans-Serif" font-size="10.00">leanux::block::MajorMinor</text>
<text text-anchor="middle" x="250.5" y="-117.5" font-family="Helvetica,sans-Serif" font-size="10.00">::getHolders</text>
</a>
</g>
</g>
<!-- Node1&#45;&gt;Node2 -->
<g id="edge1" class="edge">
<title>Node1&#45;&gt;Node2</title>
<path fill="none" stroke="midnightblue" d="M143.22,-112.29C151.66,-113.34 160.33,-114.42 168.9,-115.48"/>
<polygon fill="midnightblue" stroke="midnightblue" points="168.54,-118.96 178.89,-116.72 169.4,-112.02 168.54,-118.96"/>
</g>
<!-- Node4 -->
<g id="node4" class="node">
<title>Node4</title>
<g id="a_node4"><a xlink:href="../../d7/d28/classleanux_1_1block_1_1MajorMinor.html#a3f7315088bb27e09449e3c2542b65958" target="_top" xlink:title="Get the MajorMinor for the device name.">
<polygon fill="none" stroke="red" points="537,-76.5 537,-106.5 680,-106.5 680,-76.5 537,-76.5"/>
<text text-anchor="start" x="545" y="-94.5" font-family="Helvetica,sans-Serif" font-size="10.00">leanux::block::MajorMinor</text>
<text text-anchor="middle" x="608.5" y="-83.5" font-family="Helvetica,sans-Serif" font-size="10.00">::getMajorMinorByName</text>
</a>
</g>
</g>
<!-- Node1&#45;&gt;Node4 -->
<g id="edge8" class="edge">
<title>Node1&#45;&gt;Node4</title>
<path fill="none" stroke="midnightblue" d="M143.02,-94.71C227.94,-85.24 374.91,-72.42 501,-79.5 509.35,-79.97 518.04,-80.64 526.71,-81.43"/>
<polygon fill="midnightblue" stroke="midnightblue" points="526.55,-84.94 536.84,-82.41 527.23,-77.97 526.55,-84.94"/>
</g>
<!-- Node16 -->
<g id="node7" class="node">
<title>Node16</title>
<g id="a_node7"><a xlink:href="../../d7/d28/classleanux_1_1block_1_1MajorMinor.html#a0843f4cee97fda4733b1579fb7544727" target="_top" xlink:title="Get the VG name the block device belongs to, or empty string if the device is not a LVM PV.">
<polygon fill="none" stroke="black" points="179,-203.5 179,-233.5 322,-233.5 322,-203.5 179,-203.5"/>
<text text-anchor="start" x="187" y="-221.5" font-family="Helvetica,sans-Serif" font-size="10.00">leanux::block::MajorMinor</text>
<text text-anchor="middle" x="250.5" y="-210.5" font-family="Helvetica,sans-Serif" font-size="10.00">::getVGName</text>
</a>
</g>
</g>
<!-- Node1&#45;&gt;Node16 -->
<g id="edge9" class="edge">
<title>Node1&#45;&gt;Node16</title>
<path fill="none" stroke="midnightblue" d="M95.64,-118.53C126.91,-138.85 182.78,-175.15 217.9,-197.97"/>
<polygon fill="midnightblue" stroke="midnightblue" points="216.06,-200.95 226.35,-203.46 219.88,-195.08 216.06,-200.95"/>
</g>
<!-- Node18 -->
<g id="node9" class="node">
<title>Node18</title>
<g id="a_node9"><a xlink:href="../../d7/d28/classleanux_1_1block_1_1MajorMinor.html#a26905a16bdd3e525abb2ada713f80704" target="_top" xlink:title="Test MajorMinor validity.">
<polygon fill="none" stroke="black" points="179,-0.5 179,-30.5 322,-30.5 322,-0.5 179,-0.5"/>
<text text-anchor="start" x="187" y="-18.5" font-family="Helvetica,sans-Serif" font-size="10.00">leanux::block::MajorMinor</text>
<text text-anchor="middle" x="250.5" y="-7.5" font-family="Helvetica,sans-Serif" font-size="10.00">::isValid</text>
</a>
</g>
</g>
<!-- Node1&#45;&gt;Node18 -->
<g id="edge12" class="edge">
<title>Node1&#45;&gt;Node18</title>
<path fill="none" stroke="midnightblue" d="M98.39,-88.49C119.74,-76.33 150.95,-59.07 179,-45.5 186.66,-41.8 194.89,-38.07 202.94,-34.56"/>
<polygon fill="midnightblue" stroke="midnightblue" points="204.44,-37.73 212.24,-30.56 201.67,-31.3 204.44,-37.73"/>
</g>
<!-- Node3 -->
<g id="node3" class="node">
<title>Node3</title>
<g id="a_node3"><a xlink:href="../../d7/d28/classleanux_1_1block_1_1MajorMinor.html#a5771b2baf04dd79e61c5bcd3f4ec532c" target="_top" xlink:title="Derive the MajorMinor of the whole disk holding a partition.">
<polygon fill="none" stroke="red" points="358,-88.5 358,-118.5 501,-118.5 501,-88.5 358,-88.5"/>
<text text-anchor="start" x="366" y="-106.5" font-family="Helvetica,sans-Serif" font-size="10.00">leanux::block::MajorMinor</text>
<text text-anchor="middle" x="429.5" y="-95.5" font-family="Helvetica,sans-Serif" font-size="10.00">::deriveWholeDisk</text>
</a>
</g>
</g>
<!-- Node2&#45;&gt;Node3 -->
<g id="edge2" class="edge">
<title>Node2&#45;&gt;Node3</title>
<path fill="none" stroke="midnightblue" d="M322.22,-116.71C330.66,-115.66 339.33,-114.58 347.9,-113.52"/>
<polygon fill="midnightblue" stroke="midnightblue" points="348.4,-116.98 357.89,-112.28 347.54,-110.04 348.4,-116.98"/>
</g>
<!-- Node8 -->
<g id="node5" class="node">
<title>Node8</title>
<g id="a_node5"><a xlink:href="../../d7/d28/classleanux_1_1block_1_1MajorMinor.html#adc3f437e329318ee21bddbbebaeb740e" target="_top" xlink:title="Get the DeviceName for the MajorMinor.">
<polygon fill="none" stroke="red" points="537,-144.5 537,-174.5 680,-174.5 680,-144.5 537,-144.5"/>
<text text-anchor="start" x="545" y="-162.5" font-family="Helvetica,sans-Serif" font-size="10.00">leanux::block::MajorMinor</text>
<text text-anchor="middle" x="608.5" y="-151.5" font-family="Helvetica,sans-Serif" font-size="10.00">::getNameByMajorMinor</text>
</a>
</g>
</g>
<!-- Node2&#45;&gt;Node8 -->
<g id="edge5" class="edge">
<title>Node2&#45;&gt;Node8</title>
<path fill="none" stroke="midnightblue" d="M322.26,-132.26C381.23,-137.89 465.23,-145.91 526.81,-151.79"/>
<polygon fill="midnightblue" stroke="midnightblue" points="526.59,-155.29 536.87,-152.75 527.25,-148.32 526.59,-155.29"/>
</g>
<!-- Node15 -->
<g id="node6" class="node">
<title>Node15</title>
<g id="a_node6"><a xlink:href="../../d7/d28/classleanux_1_1block_1_1MajorMinor.html#ad5136fe7853cb6f2ca04eadb465976da" target="_top" xlink:title=" ">
<polygon fill="none" stroke="red" points="358,-176.5 358,-206.5 501,-206.5 501,-176.5 358,-176.5"/>
<text text-anchor="start" x="366" y="-194.5" font-family="Helvetica,sans-Serif" font-size="10.00">leanux::block::MajorMinor</text>
<text text-anchor="middle" x="429.5" y="-183.5" font-family="Helvetica,sans-Serif" font-size="10.00">::isPartition</text>
</a>
</g>
</g>
<!-- Node2&#45;&gt;Node15 -->
<g id="edge6" class="edge">
<title>Node2&#45;&gt;Node15</title>
<path fill="none" stroke="midnightblue" d="M292.11,-140.64C317.85,-150.24 351.34,-162.73 378.69,-172.93"/>
<polygon fill="midnightblue" stroke="midnightblue" points="377.49,-176.21 388.08,-176.43 379.93,-169.66 377.49,-176.21"/>
</g>
<!-- Node3&#45;&gt;Node4 -->
<g id="edge3" class="edge">
<title>Node3&#45;&gt;Node4</title>
<path fill="none" stroke="midnightblue" d="M501.22,-98.71C509.66,-98.13 518.33,-97.55 526.9,-96.96"/>
<polygon fill="midnightblue" stroke="midnightblue" points="527.15,-100.46 536.89,-96.29 526.68,-93.47 527.15,-100.46"/>
</g>
<!-- Node3&#45;&gt;Node8 -->
<g id="edge4" class="edge">
<title>Node3&#45;&gt;Node8</title>
<path fill="none" stroke="midnightblue" d="M477.93,-118.51C500.15,-125.54 526.81,-133.97 550.16,-141.36"/>
<polygon fill="midnightblue" stroke="midnightblue" points="549.35,-144.77 559.94,-144.45 551.46,-138.1 549.35,-144.77"/>
</g>
<!-- Node15&#45;&gt;Node8 -->
<g id="edge7" class="edge">
<title>Node15&#45;&gt;Node8</title>
<path fill="none" stroke="midnightblue" d="M501.22,-178.71C509.66,-177.19 518.33,-175.62 526.9,-174.07"/>
<polygon fill="midnightblue" stroke="midnightblue" points="527.68,-177.49 536.89,-172.26 526.43,-170.6 527.68,-177.49"/>
</g>
<!-- Node17 -->
<g id="node8" class="node">
<title>Node17</title>
<g id="a_node8"><a xlink:href="../../d7/d28/classleanux_1_1block_1_1MajorMinor.html#a7ef43192321c82d296575f35b69c52d4" target="_top" xlink:title="Get the udev path for the device.">
<polygon fill="none" stroke="black" points="358,-225.5 358,-255.5 501,-255.5 501,-225.5 358,-225.5"/>
<text text-anchor="start" x="366" y="-243.5" font-family="Helvetica,sans-Serif" font-size="10.00">leanux::block::MajorMinor</text>
<text text-anchor="middle" x="429.5" y="-232.5" font-family="Helvetica,sans-Serif" font-size="10.00">::getUDevPath</text>
</a>
</g>
</g>
<!-- Node16&#45;&gt;Node17 -->
<g id="edge10" class="edge">
<title>Node16&#45;&gt;Node17</title>
<path fill="none" stroke="midnightblue" d="M322.22,-227.29C330.66,-228.34 339.33,-229.42 347.9,-230.48"/>
<polygon fill="midnightblue" stroke="midnightblue" points="347.54,-233.96 357.89,-231.72 348.4,-227.02 347.54,-233.96"/>
</g>
<!-- Node17&#45;&gt;Node8 -->
<g id="edge11" class="edge">
<title>Node17&#45;&gt;Node8</title>
<path fill="none" stroke="midnightblue" d="M478.31,-225.41C485.98,-222.65 493.77,-219.64 501,-216.5 525.97,-205.66 552.99,-191.16 573.57,-179.49"/>
<polygon fill="midnightblue" stroke="midnightblue" points="575.32,-182.53 582.26,-174.52 571.84,-176.45 575.32,-182.53"/>
</g>
</g>
</svg>
