<?xml version="1.0" encoding="UTF-8" standalone="no"?>
<!DOCTYPE svg PUBLIC "-//W3C//DTD SVG 1.1//EN"
 "http://www.w3.org/Graphics/SVG/1.1/DTD/svg11.dtd">
<!-- Generated by graphviz version 2.43.0 (0)
 -->
<!-- Title: leanux::block::MajorMinor::getMDRaidDiskStates Pages: 1 -->
<svg width="512pt" height="127pt"
 viewBox="0.00 0.00 512.00 126.50" xmlns="http://www.w3.org/2000/svg" xmlns:xlink="http://www.w3.org/1999/xlink">
<g id="graph0" class="graph" transform="scale(1 1) rotate(0) translate(4 122.5)">
<title>leanux::block::MajorMinor::getMDRaidDiskStates</title>
<!-- Node1 -->
<g id="node1" class="node">
<title>Node1</title>
<g id="a_node1"><a xlink:title="Get a string representing raid disk states as seen in /proc/mdstat.">
<polygon fill="#bfbfbf" stroke="black" points="0,-49.5 0,-79.5 143,-79.5 143,-49.5 0,-49.5"/>
<text text-anchor="start" x="8" y="-67.5" font-family="Helvetica,sans-Serif" font-size="10.00">leanux::block::MajorMinor</text>
<text text-anchor="middle" x="71.5" y="-56.5" font-family="Helvetica,sans-Serif" font-size="10.00">::getMDRaidDiskStates</text>
</a>
</g>
</g>
<!-- Node2 -->
<g id="node2" class="node">
<title>Node2</title>
<g id="a_node2"><a xlink:href="../../d8/db1/namespaceleanux_1_1util.html#a57bfd49353610b3d0b6d121b264c676e" target="_top" xlink:title="read the file as a single string.">
<polygon fill="none" stroke="black" points="358,-99 358,-118 504,-118 504,-99 358,-99"/>
<text text-anchor="middle" x="431" y="-106" font-family="Helvetica,sans-Serif" font-size="10.00">leanux::util::fileReadString</text>
</a>
</g>
</g>
<!-- Node1&#45;&gt;Node2 -->
<g id="edge1" class="edge">
<title>Node1&#45;&gt;Node2</title>
<path fill="none" stroke="midnightblue" d="M129.11,-79.51C145.14,-83.29 162.67,-86.98 179,-89.5 234.95,-98.13 298.54,-102.89 347.72,-105.49"/>
<polygon fill="midnightblue" stroke="midnightblue" points="347.82,-109 357.99,-106.01 348.18,-102.01 347.82,-109"/>
</g>
<!-- Node3 -->
<g id="node3" class="node">
<title>Node3</title>
<g id="a_node3"><a xlink:href="../../d7/d28/classleanux_1_1block_1_1MajorMinor.html#ad5d99ca38ec1da09595471284c8f0781" target="_top" xlink:title="Get the raid disks participating in the MD array specified my MajorMinor.">
<polygon fill="none" stroke="black" points="179,-49.5 179,-79.5 322,-79.5 322,-49.5 179,-49.5"/>
<text text-anchor="start" x="187" y="-67.5" font-family="Helvetica,sans-Serif" font-size="10.00">leanux::block::MajorMinor</text>
<text text-anchor="middle" x="250.5" y="-56.5" font-family="Helvetica,sans-Serif" font-size="10.00">::getMDRaidDisks</text>
</a>
</g>
</g>
<!-- Node1&#45;&gt;Node3 -->
<g id="edge2" class="edge">
<title>Node1&#45;&gt;Node3</title>
<path fill="none" stroke="midnightblue" d="M143.22,-64.5C151.57,-64.5 160.14,-64.5 168.62,-64.5"/>
<polygon fill="midnightblue" stroke="midnightblue" points="168.89,-68 178.89,-64.5 168.89,-61 168.89,-68"/>
</g>
<!-- Node4 -->
<g id="node4" class="node">
<title>Node4</title>
<g id="a_node4"><a xlink:href="../../d7/d28/classleanux_1_1block_1_1MajorMinor.html#adc3f437e329318ee21bddbbebaeb740e" target="_top" xlink:title="Get the DeviceName for the MajorMinor.">
<polygon fill="none" stroke="red" points="359.5,-0.5 359.5,-30.5 502.5,-30.5 502.5,-0.5 359.5,-0.5"/>
<text text-anchor="start" x="367.5" y="-18.5" font-family="Helvetica,sans-Serif" font-size="10.00">leanux::block::MajorMinor</text>
<text text-anchor="middle" x="431" y="-7.5" font-family="Helvetica,sans-Serif" font-size="10.00">::getNameByMajorMinor</text>
</a>
</g>
</g>
<!-- Node1&#45;&gt;Node4 -->
<g id="edge6" class="edge">
<title>Node1&#45;&gt;Node4</title>
<path fill="none" stroke="midnightblue" d="M130.25,-49.44C145.98,-45.75 163.07,-42.12 179,-39.5 235.58,-30.2 299.96,-24.13 349.36,-20.43"/>
<polygon fill="midnightblue" stroke="midnightblue" points="349.63,-23.92 359.35,-19.69 349.12,-16.93 349.63,-23.92"/>
</g>
<!-- Node3&#45;&gt;Node2 -->
<g id="edge3" class="edge">
<title>Node3&#45;&gt;Node2</title>
<path fill="none" stroke="midnightblue" d="M312.43,-79.52C335.01,-85.09 360.29,-91.32 381.61,-96.57"/>
<polygon fill="midnightblue" stroke="midnightblue" points="380.86,-99.99 391.41,-98.99 382.54,-93.2 380.86,-99.99"/>
</g>
<!-- Node3&#45;&gt;Node4 -->
<g id="edge4" class="edge">
<title>Node3&#45;&gt;Node4</title>
<path fill="none" stroke="midnightblue" d="M306.51,-49.4C325.09,-44.3 346.01,-38.56 365.27,-33.27"/>
<polygon fill="midnightblue" stroke="midnightblue" points="366.45,-36.57 375.17,-30.55 364.6,-29.82 366.45,-36.57"/>
</g>
<!-- Node6 -->
<g id="node5" class="node">
<title>Node6</title>
<g id="a_node5"><a xlink:href="../../d7/d28/classleanux_1_1block_1_1MajorMinor.html#a464bd4b85ec6d88f850ef7d76e950f44" target="_top" xlink:title="Default constructor.">
<polygon fill="none" stroke="black" points="359.5,-49.5 359.5,-79.5 502.5,-79.5 502.5,-49.5 359.5,-49.5"/>
<text text-anchor="start" x="367.5" y="-67.5" font-family="Helvetica,sans-Serif" font-size="10.00">leanux::block::MajorMinor</text>
<text text-anchor="middle" x="431" y="-56.5" font-family="Helvetica,sans-Serif" font-size="10.00">::MajorMinor</text>
</a>
</g>
</g>
<!-- Node3&#45;&gt;Node6 -->
<g id="edge5" class="edge">
<title>Node3&#45;&gt;Node6</title>
<path fill="none" stroke="midnightblue" d="M322.05,-64.5C330.97,-64.5 340.15,-64.5 349.22,-64.5"/>
<polygon fill="midnightblue" stroke="midnightblue" points="349.38,-68 359.38,-64.5 349.38,-61 349.38,-68"/>
</g>
</g>
</svg>
