<?xml version="1.0" encoding="UTF-8" standalone="no"?>
<!DOCTYPE svg PUBLIC "-//W3C//DTD SVG 1.1//EN"
 "http://www.w3.org/Graphics/SVG/1.1/DTD/svg11.dtd">
<!-- Generated by graphviz version 2.43.0 (0)
 -->
<!-- Title: leanux::block::MajorMinor::getSectorSize Pages: 1 -->
<svg width="688pt" height="498pt"
 viewBox="0.00 0.00 688.00 497.50" xmlns="http://www.w3.org/2000/svg" xmlns:xlink="http://www.w3.org/1999/xlink">
<g id="graph0" class="graph" transform="scale(1 1) rotate(0) translate(4 493.5)">
<title>leanux::block::MajorMinor::getSectorSize</title>
<!-- Node1 -->
<g id="node1" class="node">
<title>Node1</title>
<g id="a_node1"><a xlink:title="get the device sector size.">
<polygon fill="#bfbfbf" stroke="black" points="0,-33 0,-63 143,-63 143,-33 0,-33"/>
<text text-anchor="start" x="8" y="-51" font-family="Helvetica,sans-Serif" font-size="10.00">leanux::block::MajorMinor</text>
<text text-anchor="middle" x="71.5" y="-40" font-family="Helvetica,sans-Serif" font-size="10.00">::getSectorSize</text>
</a>
</g>
</g>
<!-- Node2 -->
<g id="node2" class="node">
<title>Node2</title>
<g id="a_node2"><a xlink:href="../../d7/d28/classleanux_1_1block_1_1MajorMinor.html#a5771b2baf04dd79e61c5bcd3f4ec532c" target="_top" xlink:title="Derive the MajorMinor of the whole disk holding a partition.">
<polygon fill="none" stroke="black" points="179,-248 179,-278 322,-278 322,-248 179,-248"/>
<text text-anchor="start" x="187" y="-266" font-family="Helvetica,sans-Serif" font-size="10.00">leanux::block::MajorMinor</text>
<text text-anchor="middle" x="250.5" y="-255" font-family="Helvetica,sans-Serif" font-size="10.00">::deriveWholeDisk</text>
</a>
</g>
</g>
<!-- Node1&#45;&gt;Node2 -->
<g id="edge1" class="edge">
<title>Node1&#45;&gt;Node2</title>
<path fill="none" stroke="midnightblue" d="M84.95,-63.12C115.48,-100.2 194.23,-195.87 230.59,-240.03"/>
<polygon fill="midnightblue" stroke="midnightblue" points="228.01,-242.4 237.07,-247.9 233.41,-237.95 228.01,-242.4"/>
</g>
<!-- Node7 -->
<g id="node4" class="node">
<title>Node7</title>
<g id="a_node4"><a xlink:href="../../d7/d28/classleanux_1_1block_1_1MajorMinor.html#adc3f437e329318ee21bddbbebaeb740e" target="_top" xlink:title="Get the DeviceName for the MajorMinor.">
<polygon fill="none" stroke="red" points="537,-248 537,-278 680,-278 680,-248 537,-248"/>
<text text-anchor="start" x="545" y="-266" font-family="Helvetica,sans-Serif" font-size="10.00">leanux::block::MajorMinor</text>
<text text-anchor="middle" x="608.5" y="-255" font-family="Helvetica,sans-Serif" font-size="10.00">::getNameByMajorMinor</text>
</a>
</g>
</g>
<!-- Node1&#45;&gt;Node7 -->
<g id="edge16" class="edge">
<title>Node1&#45;&gt;Node7</title>
<path fill="none" stroke="midnightblue" d="M143.06,-42.94C249.09,-36.69 443.22,-30.88 501,-67 563.19,-105.88 591.65,-194.5 602.25,-237.99"/>
<polygon fill="midnightblue" stroke="midnightblue" points="598.85,-238.82 604.52,-247.77 605.67,-237.24 598.85,-238.82"/>
</g>
<!-- Node14 -->
<g id="node12" class="node">
<title>Node14</title>
<g id="a_node12"><a xlink:href="../../d8/db1/namespaceleanux_1_1util.html#a1e9a1206d94b2f96e8e0c6adc4e4cd12" target="_top" xlink:title="read the first data in the file as a string representation of a unsigned long.">
<polygon fill="none" stroke="black" points="185.5,-0.5 185.5,-19.5 315.5,-19.5 315.5,-0.5 185.5,-0.5"/>
<text text-anchor="middle" x="250.5" y="-7.5" font-family="Helvetica,sans-Serif" font-size="10.00">leanux::util::fileReadUL</text>
</a>
</g>
</g>
<!-- Node1&#45;&gt;Node14 -->
<g id="edge15" class="edge">
<title>Node1&#45;&gt;Node14</title>
<path fill="none" stroke="midnightblue" d="M142.46,-32.98C159.98,-29.22 178.52,-25.24 195.16,-21.67"/>
<polygon fill="midnightblue" stroke="midnightblue" points="196.2,-25.02 205.25,-19.5 194.73,-18.18 196.2,-25.02"/>
</g>
<!-- Node3 -->
<g id="node3" class="node">
<title>Node3</title>
<g id="a_node3"><a xlink:href="../../d7/d28/classleanux_1_1block_1_1MajorMinor.html#a3f7315088bb27e09449e3c2542b65958" target="_top" xlink:title="Get the MajorMinor for the device name.">
<polygon fill="none" stroke="red" points="358,-459 358,-489 501,-489 501,-459 358,-459"/>
<text text-anchor="start" x="366" y="-477" font-family="Helvetica,sans-Serif" font-size="10.00">leanux::block::MajorMinor</text>
<text text-anchor="middle" x="429.5" y="-466" font-family="Helvetica,sans-Serif" font-size="10.00">::getMajorMinorByName</text>
</a>
</g>
</g>
<!-- Node2&#45;&gt;Node3 -->
<g id="edge2" class="edge">
<title>Node2&#45;&gt;Node3</title>
<path fill="none" stroke="midnightblue" d="M256.6,-278.03C268.86,-312.06 303.07,-395.76 358,-444 362.35,-447.82 367.27,-451.21 372.42,-454.21"/>
<polygon fill="midnightblue" stroke="midnightblue" points="370.8,-457.31 381.28,-458.88 374.07,-451.12 370.8,-457.31"/>
</g>
<!-- Node2&#45;&gt;Node7 -->
<g id="edge3" class="edge">
<title>Node2&#45;&gt;Node7</title>
<path fill="none" stroke="midnightblue" d="M257.02,-278.43C269.35,-310.25 302.5,-382.56 358,-411 414.56,-439.98 444.44,-439.98 501,-411 551.51,-385.12 583.51,-322.89 598.15,-287.92"/>
<polygon fill="midnightblue" stroke="midnightblue" points="601.49,-289.01 601.98,-278.43 594.99,-286.39 601.49,-289.01"/>
</g>
<!-- Node8 -->
<g id="node5" class="node">
<title>Node8</title>
<g id="a_node5"><a xlink:href="../../d7/d28/classleanux_1_1block_1_1MajorMinor.html#a59e3fe2f1a574b79bad1fe48a2334c27" target="_top" xlink:title="determine if the MajorMinor represents a bcache disk.">
<polygon fill="none" stroke="black" points="358,-371 358,-401 501,-401 501,-371 358,-371"/>
<text text-anchor="start" x="366" y="-389" font-family="Helvetica,sans-Serif" font-size="10.00">leanux::block::MajorMinor</text>
<text text-anchor="middle" x="429.5" y="-378" font-family="Helvetica,sans-Serif" font-size="10.00">::isBCacheDisk</text>
</a>
</g>
</g>
<!-- Node2&#45;&gt;Node8 -->
<g id="edge4" class="edge">
<title>Node2&#45;&gt;Node8</title>
<path fill="none" stroke="midnightblue" d="M264.08,-278.19C282.6,-299.66 319.21,-338.83 358,-362 360.83,-363.69 363.8,-365.28 366.84,-366.78"/>
<polygon fill="midnightblue" stroke="midnightblue" points="365.61,-370.06 376.17,-370.98 368.49,-363.68 365.61,-370.06"/>
</g>
<!-- Node9 -->
<g id="node6" class="node">
<title>Node9</title>
<g id="a_node6"><a xlink:href="../../d7/d28/classleanux_1_1block_1_1MajorMinor.html#a546aa9297e382543cb031126190bc8c9" target="_top" xlink:title="determine if the major represents an IDE disk.">
<polygon fill="none" stroke="black" points="358,-322 358,-352 501,-352 501,-322 358,-322"/>
<text text-anchor="start" x="366" y="-340" font-family="Helvetica,sans-Serif" font-size="10.00">leanux::block::MajorMinor</text>
<text text-anchor="middle" x="429.5" y="-329" font-family="Helvetica,sans-Serif" font-size="10.00">::isIDEDisk</text>
</a>
</g>
</g>
<!-- Node2&#45;&gt;Node9 -->
<g id="edge6" class="edge">
<title>Node2&#45;&gt;Node9</title>
<path fill="none" stroke="midnightblue" d="M281.4,-278.13C302.54,-288.55 331.67,-302.38 358,-313 362.68,-314.89 367.56,-316.76 372.49,-318.57"/>
<polygon fill="midnightblue" stroke="midnightblue" points="371.37,-321.89 381.96,-321.98 373.74,-315.3 371.37,-321.89"/>
</g>
<!-- Node10 -->
<g id="node7" class="node">
<title>Node10</title>
<g id="a_node7"><a xlink:href="../../d7/d28/classleanux_1_1block_1_1MajorMinor.html#a852aa9e7ee1c107c95cd27ad47b5cf86" target="_top" xlink:title="determine if the MajorMinor represents an MMC disk.">
<polygon fill="none" stroke="black" points="358,-273 358,-303 501,-303 501,-273 358,-273"/>
<text text-anchor="start" x="366" y="-291" font-family="Helvetica,sans-Serif" font-size="10.00">leanux::block::MajorMinor</text>
<text text-anchor="middle" x="429.5" y="-280" font-family="Helvetica,sans-Serif" font-size="10.00">::isMMCDisk</text>
</a>
</g>
</g>
<!-- Node2&#45;&gt;Node10 -->
<g id="edge7" class="edge">
<title>Node2&#45;&gt;Node10</title>
<path fill="none" stroke="midnightblue" d="M322.22,-272.99C330.66,-274.18 339.33,-275.41 347.9,-276.62"/>
<polygon fill="midnightblue" stroke="midnightblue" points="347.5,-280.09 357.89,-278.03 348.48,-273.16 347.5,-280.09"/>
</g>
<!-- Node11 -->
<g id="node8" class="node">
<title>Node11</title>
<g id="a_node8"><a xlink:href="../../d7/d28/classleanux_1_1block_1_1MajorMinor.html#ab248c720a63908f9e3ef78ed23536de8" target="_top" xlink:title="determine if the MajorMinor represents a NVMe disk.">
<polygon fill="none" stroke="black" points="358,-224 358,-254 501,-254 501,-224 358,-224"/>
<text text-anchor="start" x="366" y="-242" font-family="Helvetica,sans-Serif" font-size="10.00">leanux::block::MajorMinor</text>
<text text-anchor="middle" x="429.5" y="-231" font-family="Helvetica,sans-Serif" font-size="10.00">::isNVMeDisk</text>
</a>
</g>
</g>
<!-- Node2&#45;&gt;Node11 -->
<g id="edge9" class="edge">
<title>Node2&#45;&gt;Node11</title>
<path fill="none" stroke="midnightblue" d="M322.22,-253.41C330.66,-252.27 339.33,-251.09 347.9,-249.93"/>
<polygon fill="midnightblue" stroke="midnightblue" points="348.46,-253.39 357.89,-248.57 347.51,-246.45 348.46,-253.39"/>
</g>
<!-- Node12 -->
<g id="node9" class="node">
<title>Node12</title>
<g id="a_node9"><a xlink:href="../../d7/d28/classleanux_1_1block_1_1MajorMinor.html#a6c5b98f8ffc7b8904754ecfe33407e8c" target="_top" xlink:title="determine if the major represents a SCSI disk.">
<polygon fill="none" stroke="black" points="358,-175 358,-205 501,-205 501,-175 358,-175"/>
<text text-anchor="start" x="366" y="-193" font-family="Helvetica,sans-Serif" font-size="10.00">leanux::block::MajorMinor</text>
<text text-anchor="middle" x="429.5" y="-182" font-family="Helvetica,sans-Serif" font-size="10.00">::isSCSIDisk</text>
</a>
</g>
</g>
<!-- Node2&#45;&gt;Node12 -->
<g id="edge11" class="edge">
<title>Node2&#45;&gt;Node12</title>
<path fill="none" stroke="midnightblue" d="M283.36,-247.81C304.37,-238 332.6,-225.21 358,-215 363.4,-212.83 369.08,-210.65 374.76,-208.54"/>
<polygon fill="midnightblue" stroke="midnightblue" points="376.1,-211.77 384.29,-205.05 373.7,-205.2 376.1,-211.77"/>
</g>
<!-- Node13 -->
<g id="node10" class="node">
<title>Node13</title>
<g id="a_node10"><a xlink:href="../../d7/d28/classleanux_1_1block_1_1MajorMinor.html#aaa91d26165ff4b7a32cfe052e72463cc" target="_top" xlink:title="determine if the MajorMinor represents a virtio disk.">
<polygon fill="none" stroke="black" points="358,-126 358,-156 501,-156 501,-126 358,-126"/>
<text text-anchor="start" x="366" y="-144" font-family="Helvetica,sans-Serif" font-size="10.00">leanux::block::MajorMinor</text>
<text text-anchor="middle" x="429.5" y="-133" font-family="Helvetica,sans-Serif" font-size="10.00">::isVirtIODisk</text>
</a>
</g>
</g>
<!-- Node2&#45;&gt;Node13 -->
<g id="edge12" class="edge">
<title>Node2&#45;&gt;Node13</title>
<path fill="none" stroke="midnightblue" d="M264.11,-247.97C282.67,-226.73 319.33,-187.97 358,-165 360.83,-163.32 363.8,-161.73 366.85,-160.24"/>
<polygon fill="midnightblue" stroke="midnightblue" points="368.5,-163.34 376.19,-156.04 365.63,-156.95 368.5,-163.34"/>
</g>
<!-- Node5 -->
<g id="node11" class="node">
<title>Node5</title>
<g id="a_node11"><a xlink:href="../../d7/d28/classleanux_1_1block_1_1MajorMinor.html#a464bd4b85ec6d88f850ef7d76e950f44" target="_top" xlink:title="Default constructor.">
<polygon fill="none" stroke="black" points="358,-77 358,-107 501,-107 501,-77 358,-77"/>
<text text-anchor="start" x="366" y="-95" font-family="Helvetica,sans-Serif" font-size="10.00">leanux::block::MajorMinor</text>
<text text-anchor="middle" x="429.5" y="-84" font-family="Helvetica,sans-Serif" font-size="10.00">::MajorMinor</text>
</a>
</g>
</g>
<!-- Node2&#45;&gt;Node5 -->
<g id="edge14" class="edge">
<title>Node2&#45;&gt;Node5</title>
<path fill="none" stroke="midnightblue" d="M258.56,-247.7C273.01,-218.01 308.81,-152.31 358,-116 359.86,-114.63 361.8,-113.33 363.81,-112.1"/>
<polygon fill="midnightblue" stroke="midnightblue" points="365.81,-115 372.95,-107.16 362.49,-108.84 365.81,-115"/>
</g>
<!-- Node8&#45;&gt;Node7 -->
<g id="edge5" class="edge">
<title>Node8&#45;&gt;Node7</title>
<path fill="none" stroke="midnightblue" d="M482.83,-370.98C489.14,-368.37 495.34,-365.38 501,-362 535.55,-341.36 568.37,-308.03 588.22,-285.83"/>
<polygon fill="midnightblue" stroke="midnightblue" points="590.95,-288.02 594.92,-278.19 585.69,-283.4 590.95,-288.02"/>
</g>
<!-- Node10&#45;&gt;Node7 -->
<g id="edge8" class="edge">
<title>Node10&#45;&gt;Node7</title>
<path fill="none" stroke="midnightblue" d="M501.22,-278.01C509.66,-276.82 518.33,-275.59 526.9,-274.38"/>
<polygon fill="midnightblue" stroke="midnightblue" points="527.48,-277.84 536.89,-272.97 526.5,-270.91 527.48,-277.84"/>
</g>
<!-- Node11&#45;&gt;Node7 -->
<g id="edge10" class="edge">
<title>Node11&#45;&gt;Node7</title>
<path fill="none" stroke="midnightblue" d="M501.22,-248.59C509.66,-249.73 518.33,-250.91 526.9,-252.07"/>
<polygon fill="midnightblue" stroke="midnightblue" points="526.51,-255.55 536.89,-253.43 527.46,-248.61 526.51,-255.55"/>
</g>
<!-- Node13&#45;&gt;Node7 -->
<g id="edge13" class="edge">
<title>Node13&#45;&gt;Node7</title>
<path fill="none" stroke="midnightblue" d="M482.81,-156.04C489.12,-158.65 495.33,-161.63 501,-165 535.44,-185.46 568.29,-218.44 588.17,-240.42"/>
<polygon fill="midnightblue" stroke="midnightblue" points="585.63,-242.82 594.89,-247.97 590.86,-238.17 585.63,-242.82"/>
</g>
</g>
</svg>
