<?xml version="1.0" encoding="UTF-8" standalone="no"?>
<!DOCTYPE svg PUBLIC "-//W3C//DTD SVG 1.1//EN"
 "http://www.w3.org/Graphics/SVG/1.1/DTD/svg11.dtd">
<!-- Generated by graphviz version 2.43.0 (0)
 -->
<!-- Title: leanux::block::MajorMinor::isMMCDisk Pages: 1 -->
<svg width="828pt" height="547pt"
 viewBox="0.00 0.00 828.00 547.37" xmlns="http://www.w3.org/2000/svg" xmlns:xlink="http://www.w3.org/1999/xlink">
<g id="graph0" class="graph" transform="scale(1 1) rotate(0) translate(4 543.37)">
<title>leanux::block::MajorMinor::isMMCDisk</title>
<!-- Node1 -->
<g id="node1" class="node">
<title>Node1</title>
<g id="a_node1"><a xlink:title="determine if the MajorMinor represents an MMC disk.">
<polygon fill="#bfbfbf" stroke="black" points="677,-63.91 677,-93.91 820,-93.91 820,-63.91 677,-63.91"/>
<text text-anchor="start" x="685" y="-81.91" font-family="Helvetica,sans-Serif" font-size="10.00">leanux::block::MajorMinor</text>
<text text-anchor="middle" x="748.5" y="-70.91" font-family="Helvetica,sans-Serif" font-size="10.00">::isMMCDisk</text>
</a>
</g>
</g>
<!-- Node2 -->
<g id="node2" class="node">
<title>Node2</title>
<g id="a_node2"><a xlink:href="../../d7/d28/classleanux_1_1block_1_1MajorMinor.html#a5771b2baf04dd79e61c5bcd3f4ec532c" target="_top" xlink:title="Derive the MajorMinor of the whole disk holding a partition.">
<polygon fill="none" stroke="black" points="498,-332.91 498,-362.91 641,-362.91 641,-332.91 498,-332.91"/>
<text text-anchor="start" x="506" y="-350.91" font-family="Helvetica,sans-Serif" font-size="10.00">leanux::block::MajorMinor</text>
<text text-anchor="middle" x="569.5" y="-339.91" font-family="Helvetica,sans-Serif" font-size="10.00">::deriveWholeDisk</text>
</a>
</g>
</g>
<!-- Node1&#45;&gt;Node2 -->
<g id="edge1" class="edge">
<title>Node1&#45;&gt;Node2</title>
<path fill="none" stroke="midnightblue" d="M731.81,-102.75C696.13,-156.98 609.72,-288.3 580.41,-332.84"/>
<polygon fill="midnightblue" stroke="midnightblue" points="734.9,-104.42 737.48,-94.14 729.06,-100.57 734.9,-104.42"/>
</g>
<!-- Node4 -->
<g id="node4" class="node">
<title>Node4</title>
<g id="a_node4"><a xlink:href="../../d5/d1b/namespaceleanux_1_1tools_1_1lblk.html#aafee1346a1081bfa4f7470f921cd66b8" target="_top" xlink:title="Direct output run from options.">
<polygon fill="none" stroke="red" points="0,-163.91 0,-193.91 104,-193.91 104,-163.91 0,-163.91"/>
<text text-anchor="start" x="8" y="-181.91" font-family="Helvetica,sans-Serif" font-size="10.00">leanux::tools::lblk</text>
<text text-anchor="middle" x="52" y="-170.91" font-family="Helvetica,sans-Serif" font-size="10.00">::runOptions</text>
</a>
</g>
</g>
<!-- Node1&#45;&gt;Node4 -->
<g id="edge30" class="edge">
<title>Node1&#45;&gt;Node4</title>
<path fill="none" stroke="midnightblue" d="M698.52,-60.39C680.59,-54.01 660.03,-47.16 641,-41.91 502.13,-3.61 462.52,7.43 319,-4.91 238.56,-11.82 206.73,9.54 140,-35.91 93.16,-67.81 67.2,-134.08 57.49,-163.86"/>
<polygon fill="midnightblue" stroke="midnightblue" points="697.59,-63.78 708.19,-63.87 699.96,-57.19 697.59,-63.78"/>
</g>
<!-- Node40 -->
<g id="node13" class="node">
<title>Node40</title>
<g id="a_node13"><a xlink:href="../../d7/d28/classleanux_1_1block_1_1MajorMinor.html#ad8b93c3f6fc290008c2025e5e3d42eb5" target="_top" xlink:title="Get the DeviceClass for a MajorMinor.">
<polygon fill="none" stroke="black" points="319,-63.91 319,-93.91 462,-93.91 462,-63.91 319,-63.91"/>
<text text-anchor="start" x="327" y="-81.91" font-family="Helvetica,sans-Serif" font-size="10.00">leanux::block::MajorMinor</text>
<text text-anchor="middle" x="390.5" y="-70.91" font-family="Helvetica,sans-Serif" font-size="10.00">::getClass</text>
</a>
</g>
</g>
<!-- Node1&#45;&gt;Node40 -->
<g id="edge14" class="edge">
<title>Node1&#45;&gt;Node40</title>
<path fill="none" stroke="midnightblue" d="M666.67,-78.91C605.06,-78.91 521.06,-78.91 462.13,-78.91"/>
<polygon fill="midnightblue" stroke="midnightblue" points="666.74,-82.41 676.74,-78.91 666.74,-75.41 666.74,-82.41"/>
</g>
<!-- Node45 -->
<g id="node17" class="node">
<title>Node45</title>
<g id="a_node17"><a xlink:href="../../d7/d28/classleanux_1_1block_1_1MajorMinor.html#ad5136fe7853cb6f2ca04eadb465976da" target="_top" xlink:title=" ">
<polygon fill="none" stroke="black" points="498,-185.91 498,-215.91 641,-215.91 641,-185.91 498,-185.91"/>
<text text-anchor="start" x="506" y="-203.91" font-family="Helvetica,sans-Serif" font-size="10.00">leanux::block::MajorMinor</text>
<text text-anchor="middle" x="569.5" y="-192.91" font-family="Helvetica,sans-Serif" font-size="10.00">::isPartition</text>
</a>
</g>
</g>
<!-- Node1&#45;&gt;Node45 -->
<g id="edge19" class="edge">
<title>Node1&#45;&gt;Node45</title>
<path fill="none" stroke="midnightblue" d="M716.91,-100C681.35,-124.5 623.56,-164.34 592.28,-185.9"/>
<polygon fill="midnightblue" stroke="midnightblue" points="719.19,-102.67 725.44,-94.12 715.22,-96.91 719.19,-102.67"/>
</g>
<!-- Node53 -->
<g id="node19" class="node">
<title>Node53</title>
<g id="a_node19"><a xlink:href="../../d7/d28/classleanux_1_1block_1_1MajorMinor.html#a0538b77a5964620e5c5cd2943e631049" target="_top" xlink:title="Check if a disk is a whole disk (and not a partition).">
<polygon fill="none" stroke="black" points="319,-14.91 319,-44.91 462,-44.91 462,-14.91 319,-14.91"/>
<text text-anchor="start" x="327" y="-32.91" font-family="Helvetica,sans-Serif" font-size="10.00">leanux::block::MajorMinor</text>
<text text-anchor="middle" x="390.5" y="-21.91" font-family="Helvetica,sans-Serif" font-size="10.00">::isWholeDisk</text>
</a>
</g>
</g>
<!-- Node1&#45;&gt;Node53 -->
<g id="edge29" class="edge">
<title>Node1&#45;&gt;Node53</title>
<path fill="none" stroke="midnightblue" d="M666.67,-67.78C605.06,-59.3 521.06,-47.74 462.13,-39.63"/>
<polygon fill="midnightblue" stroke="midnightblue" points="666.36,-71.27 676.74,-69.17 667.31,-64.34 666.36,-71.27"/>
</g>
<!-- Node3 -->
<g id="node3" class="node">
<title>Node3</title>
<g id="a_node3"><a xlink:href="../../d5/d1b/namespaceleanux_1_1tools_1_1lblk.html#ade16c362a9900ba9267433bf57da42ce" target="_top" xlink:title="Write disk details.">
<polygon fill="none" stroke="black" points="159.5,-308.91 159.5,-338.91 263.5,-338.91 263.5,-308.91 159.5,-308.91"/>
<text text-anchor="start" x="167.5" y="-326.91" font-family="Helvetica,sans-Serif" font-size="10.00">leanux::tools::lblk</text>
<text text-anchor="middle" x="211.5" y="-315.91" font-family="Helvetica,sans-Serif" font-size="10.00">::detailDisk</text>
</a>
</g>
</g>
<!-- Node2&#45;&gt;Node3 -->
<g id="edge2" class="edge">
<title>Node2&#45;&gt;Node3</title>
<path fill="none" stroke="midnightblue" d="M559.15,-372.83C544.51,-407.8 512.51,-470.03 462,-495.91 405.44,-524.89 374.52,-526.84 319,-495.91 317,-494.79 247.28,-380.86 221.75,-339.06"/>
<polygon fill="midnightblue" stroke="midnightblue" points="562.49,-373.92 562.98,-363.34 555.99,-371.3 562.49,-373.92"/>
</g>
<!-- Node7 -->
<g id="node5" class="node">
<title>Node7</title>
<g id="a_node5"><a xlink:href="../../d7/d28/classleanux_1_1block_1_1MajorMinor.html#af09033a9db9d908d1132bbab667a0801" target="_top" xlink:title="Get a list of devices holding (using) the device m.">
<polygon fill="none" stroke="red" points="319,-406.91 319,-436.91 462,-436.91 462,-406.91 319,-406.91"/>
<text text-anchor="start" x="327" y="-424.91" font-family="Helvetica,sans-Serif" font-size="10.00">leanux::block::MajorMinor</text>
<text text-anchor="middle" x="390.5" y="-413.91" font-family="Helvetica,sans-Serif" font-size="10.00">::getHolders</text>
</a>
</g>
</g>
<!-- Node2&#45;&gt;Node7 -->
<g id="edge4" class="edge">
<title>Node2&#45;&gt;Node7</title>
<path fill="none" stroke="midnightblue" d="M529.51,-367.49C509.55,-377.18 484.73,-388.74 462,-397.91 454.33,-401.01 446.08,-404.06 438.04,-406.89"/>
<polygon fill="midnightblue" stroke="midnightblue" points="531.15,-370.58 538.6,-363.04 528.08,-364.29 531.15,-370.58"/>
</g>
<!-- Node11 -->
<g id="node6" class="node">
<title>Node11</title>
<g id="a_node6"><a xlink:href="../../d7/d28/classleanux_1_1block_1_1MajorMinor.html#aefbe4f5de2bcdf31cfb0ece97e8e12e7" target="_top" xlink:title="get the IO scheduler (elevator) configured for the device.">
<polygon fill="none" stroke="red" points="319,-357.91 319,-387.91 462,-387.91 462,-357.91 319,-357.91"/>
<text text-anchor="start" x="327" y="-375.91" font-family="Helvetica,sans-Serif" font-size="10.00">leanux::block::MajorMinor</text>
<text text-anchor="middle" x="390.5" y="-364.91" font-family="Helvetica,sans-Serif" font-size="10.00">::getIOScheduler</text>
</a>
</g>
</g>
<!-- Node2&#45;&gt;Node11 -->
<g id="edge5" class="edge">
<title>Node2&#45;&gt;Node11</title>
<path fill="none" stroke="midnightblue" d="M487.79,-359.31C479.22,-360.52 470.55,-361.75 462.11,-362.94"/>
<polygon fill="midnightblue" stroke="midnightblue" points="488.37,-362.76 497.78,-357.9 487.39,-355.83 488.37,-362.76"/>
</g>
<!-- Node18 -->
<g id="node7" class="node">
<title>Node18</title>
<g id="a_node7"><a xlink:href="../../d7/d28/classleanux_1_1block_1_1MajorMinor.html#a80d3a92692140016ab3973ace30d65c2" target="_top" xlink:title="get the read&#45;ahead size for the device">
<polygon fill="none" stroke="red" points="319,-259.91 319,-289.91 462,-289.91 462,-259.91 319,-259.91"/>
<text text-anchor="start" x="327" y="-277.91" font-family="Helvetica,sans-Serif" font-size="10.00">leanux::block::MajorMinor</text>
<text text-anchor="middle" x="390.5" y="-266.91" font-family="Helvetica,sans-Serif" font-size="10.00">::getReadAhead</text>
</a>
</g>
</g>
<!-- Node2&#45;&gt;Node18 -->
<g id="edge6" class="edge">
<title>Node2&#45;&gt;Node18</title>
<path fill="none" stroke="midnightblue" d="M527.38,-328.42C507.75,-319.36 483.83,-308.68 462,-299.91 453.57,-296.52 444.47,-293.12 435.71,-289.96"/>
<polygon fill="midnightblue" stroke="midnightblue" points="526.1,-331.68 536.64,-332.72 529.04,-325.33 526.1,-331.68"/>
</g>
<!-- Node19 -->
<g id="node8" class="node">
<title>Node19</title>
<g id="a_node8"><a xlink:href="../../d7/d28/classleanux_1_1block_1_1MajorMinor.html#ae8569c67c7ab725af5c89e8e01011a7b" target="_top" xlink:title="Chech if a disk is mechanical or solid state.">
<polygon fill="none" stroke="red" points="319,-210.91 319,-240.91 462,-240.91 462,-210.91 319,-210.91"/>
<text text-anchor="start" x="327" y="-228.91" font-family="Helvetica,sans-Serif" font-size="10.00">leanux::block::MajorMinor</text>
<text text-anchor="middle" x="390.5" y="-217.91" font-family="Helvetica,sans-Serif" font-size="10.00">::getRotational</text>
</a>
</g>
</g>
<!-- Node2&#45;&gt;Node19 -->
<g id="edge7" class="edge">
<title>Node2&#45;&gt;Node19</title>
<path fill="none" stroke="midnightblue" d="M548.73,-325.3C528.74,-303.62 496.01,-271.29 462,-250.91 455.76,-247.17 448.88,-243.87 441.93,-241"/>
<polygon fill="midnightblue" stroke="midnightblue" points="546.19,-327.7 555.5,-332.75 551.37,-323 546.19,-327.7"/>
</g>
<!-- Node21 -->
<g id="node9" class="node">
<title>Node21</title>
<g id="a_node9"><a xlink:href="../../d7/d28/classleanux_1_1block_1_1MajorMinor.html#a89962016f65109842c3941fa188eae95" target="_top" xlink:title="get the device sector size.">
<polygon fill="none" stroke="red" points="319,-455.91 319,-485.91 462,-485.91 462,-455.91 319,-455.91"/>
<text text-anchor="start" x="327" y="-473.91" font-family="Helvetica,sans-Serif" font-size="10.00">leanux::block::MajorMinor</text>
<text text-anchor="middle" x="390.5" y="-462.91" font-family="Helvetica,sans-Serif" font-size="10.00">::getSectorSize</text>
</a>
</g>
</g>
<!-- Node2&#45;&gt;Node21 -->
<g id="edge8" class="edge">
<title>Node2&#45;&gt;Node21</title>
<path fill="none" stroke="midnightblue" d="M549.22,-370.74C529.37,-392.94 496.55,-426.27 462,-446.91 456.34,-450.29 450.14,-453.28 443.83,-455.89"/>
<polygon fill="midnightblue" stroke="midnightblue" points="551.95,-372.93 555.92,-363.1 546.69,-368.31 551.95,-372.93"/>
</g>
<!-- Node23 -->
<g id="node10" class="node">
<title>Node23</title>
<g id="a_node10"><a xlink:href="../../d7/d28/classleanux_1_1block_1_1MajorMinor.html#a5466f74de32fbbcaccceff77133e2b7b" target="_top" xlink:title="Get a list of devices slave to the device m.">
<polygon fill="none" stroke="black" points="319,-161.91 319,-191.91 462,-191.91 462,-161.91 319,-161.91"/>
<text text-anchor="start" x="327" y="-179.91" font-family="Helvetica,sans-Serif" font-size="10.00">leanux::block::MajorMinor</text>
<text text-anchor="middle" x="390.5" y="-168.91" font-family="Helvetica,sans-Serif" font-size="10.00">::getSlaves</text>
</a>
</g>
</g>
<!-- Node2&#45;&gt;Node23 -->
<g id="edge9" class="edge">
<title>Node2&#45;&gt;Node23</title>
<path fill="none" stroke="midnightblue" d="M556.82,-323.36C540.16,-290.86 506.57,-233.82 462,-200.91 457.42,-197.53 452.34,-194.61 447.05,-192.08"/>
<polygon fill="midnightblue" stroke="midnightblue" points="553.84,-325.23 561.44,-332.61 560.1,-322.1 553.84,-325.23"/>
</g>
<!-- Node24 -->
<g id="node11" class="node">
<title>Node24</title>
<g id="a_node11"><a xlink:href="../../d7/d28/classleanux_1_1block_1_1MajorMinor.html#a742f510de3aea2ec0a1eb112e3ca3c1e" target="_top" xlink:title="return the full device path as it appears under /sys/devices/block">
<polygon fill="none" stroke="red" points="319,-308.91 319,-338.91 462,-338.91 462,-308.91 319,-308.91"/>
<text text-anchor="start" x="327" y="-326.91" font-family="Helvetica,sans-Serif" font-size="10.00">leanux::block::MajorMinor</text>
<text text-anchor="middle" x="390.5" y="-315.91" font-family="Helvetica,sans-Serif" font-size="10.00">::getSysPath</text>
</a>
</g>
</g>
<!-- Node2&#45;&gt;Node24 -->
<g id="edge10" class="edge">
<title>Node2&#45;&gt;Node24</title>
<path fill="none" stroke="midnightblue" d="M487.79,-336.97C479.22,-335.8 470.55,-334.63 462.11,-333.48"/>
<polygon fill="midnightblue" stroke="midnightblue" points="487.4,-340.45 497.78,-338.32 488.34,-333.51 487.4,-340.45"/>
</g>
<!-- Node37 -->
<g id="node12" class="node">
<title>Node37</title>
<g id="a_node12"><a xlink:href="../../d5/d1b/namespaceleanux_1_1tools_1_1lblk.html#a514a93d2172ba20b92f77ba1062d822c" target="_top" xlink:title="Write the tree of slaves beneath and including mm, append to tab, starting with level.">
<polygon fill="none" stroke="red" points="159.5,-447.91 159.5,-477.91 263.5,-477.91 263.5,-447.91 159.5,-447.91"/>
<text text-anchor="start" x="167.5" y="-465.91" font-family="Helvetica,sans-Serif" font-size="10.00">leanux::tools::lblk</text>
<text text-anchor="middle" x="211.5" y="-454.91" font-family="Helvetica,sans-Serif" font-size="10.00">::printSlaveTree</text>
</a>
</g>
</g>
<!-- Node2&#45;&gt;Node37 -->
<g id="edge12" class="edge">
<title>Node2&#45;&gt;Node37</title>
<path fill="none" stroke="midnightblue" d="M561.7,-372.83C549.35,-412.56 519.09,-489.01 462,-520.91 406.52,-551.91 380.59,-536.59 319,-520.91 286.56,-512.65 253.33,-492.28 232.81,-478.02"/>
<polygon fill="midnightblue" stroke="midnightblue" points="565.09,-373.7 564.59,-363.12 558.38,-371.71 565.09,-373.7"/>
</g>
<!-- Node3&#45;&gt;Node4 -->
<g id="edge3" class="edge">
<title>Node3&#45;&gt;Node4</title>
<path fill="none" stroke="midnightblue" d="M186.25,-301.58C153.8,-271.71 97.14,-219.55 69.34,-193.95"/>
<polygon fill="midnightblue" stroke="midnightblue" points="184.21,-304.47 193.94,-308.67 188.96,-299.32 184.21,-304.47"/>
</g>
<!-- Node24&#45;&gt;Node3 -->
<g id="edge11" class="edge">
<title>Node24&#45;&gt;Node3</title>
<path fill="none" stroke="midnightblue" d="M308.35,-323.91C293.17,-323.91 277.71,-323.91 263.76,-323.91"/>
<polygon fill="midnightblue" stroke="midnightblue" points="308.78,-327.41 318.78,-323.91 308.78,-320.41 308.78,-327.41"/>
</g>
<!-- Node37&#45;&gt;Node4 -->
<g id="edge13" class="edge">
<title>Node37&#45;&gt;Node4</title>
<path fill="none" stroke="midnightblue" d="M194.92,-438.99C180.24,-416.15 157.88,-380.62 140,-348.91 108.41,-292.88 74.74,-224.15 60.28,-194.14"/>
<polygon fill="midnightblue" stroke="midnightblue" points="192.16,-441.16 200.52,-447.66 198.04,-437.36 192.16,-441.16"/>
</g>
<!-- Node40&#45;&gt;Node4 -->
<g id="edge18" class="edge">
<title>Node40&#45;&gt;Node4</title>
<path fill="none" stroke="midnightblue" d="M326.19,-61.53C312.08,-58.36 297.12,-55.55 283,-53.91 219.87,-46.6 196.33,-24.48 140,-53.91 95,-77.41 68.56,-135.98 58.16,-163.79"/>
<polygon fill="midnightblue" stroke="midnightblue" points="325.76,-65.02 336.29,-63.88 327.35,-58.2 325.76,-65.02"/>
</g>
<!-- Node41 -->
<g id="node14" class="node">
<title>Node41</title>
<g id="a_node14"><a xlink:href="../../d7/d28/classleanux_1_1block_1_1MajorMinor.html#a0262599b45d4425a1841853e830a7c46" target="_top" xlink:title="Get a descriptive string for the device type of the MajorMinor.">
<polygon fill="none" stroke="red" points="140,-161.91 140,-191.91 283,-191.91 283,-161.91 140,-161.91"/>
<text text-anchor="start" x="148" y="-179.91" font-family="Helvetica,sans-Serif" font-size="10.00">leanux::block::MajorMinor</text>
<text text-anchor="middle" x="211.5" y="-168.91" font-family="Helvetica,sans-Serif" font-size="10.00">::getClassStr</text>
</a>
</g>
</g>
<!-- Node40&#45;&gt;Node41 -->
<g id="edge15" class="edge">
<title>Node40&#45;&gt;Node41</title>
<path fill="none" stroke="midnightblue" d="M325.43,-98.66C323.21,-99.99 321.05,-101.41 319,-102.91 297.21,-118.89 304.69,-135.79 283,-151.91 277.89,-155.71 272.16,-158.96 266.22,-161.75"/>
<polygon fill="midnightblue" stroke="midnightblue" points="327.14,-101.72 334.33,-93.94 323.86,-95.53 327.14,-101.72"/>
</g>
<!-- Node9 -->
<g id="node15" class="node">
<title>Node9</title>
<g id="a_node15"><a xlink:href="../../d7/d28/classleanux_1_1block_1_1MajorMinor.html#a26a2363b1eea927b6ebb4aad44dea876" target="_top" xlink:title="Get a pretty&#45;print description for the device.">
<polygon fill="none" stroke="red" points="140,-112.91 140,-142.91 283,-142.91 283,-112.91 140,-112.91"/>
<text text-anchor="start" x="148" y="-130.91" font-family="Helvetica,sans-Serif" font-size="10.00">leanux::block::MajorMinor</text>
<text text-anchor="middle" x="211.5" y="-119.91" font-family="Helvetica,sans-Serif" font-size="10.00">::getDescription</text>
</a>
</g>
</g>
<!-- Node40&#45;&gt;Node9 -->
<g id="edge16" class="edge">
<title>Node40&#45;&gt;Node9</title>
<path fill="none" stroke="midnightblue" d="M325.13,-96.73C306.01,-102.02 285.28,-107.76 266.87,-112.86"/>
<polygon fill="midnightblue" stroke="midnightblue" points="326.25,-100.05 334.95,-94.01 324.38,-93.31 326.25,-100.05"/>
</g>
<!-- Node44 -->
<g id="node16" class="node">
<title>Node44</title>
<g id="a_node16"><a xlink:href="../../d7/d28/classleanux_1_1block_1_1MajorMinor.html#a52999f02212469e3e0e74760d7637470" target="_top" xlink:title="Retrieve a string identifying a disk on a best&#45;efffort basis.">
<polygon fill="none" stroke="red" points="140,-63.91 140,-93.91 283,-93.91 283,-63.91 140,-63.91"/>
<text text-anchor="start" x="148" y="-81.91" font-family="Helvetica,sans-Serif" font-size="10.00">leanux::block::MajorMinor</text>
<text text-anchor="middle" x="211.5" y="-70.91" font-family="Helvetica,sans-Serif" font-size="10.00">::getDiskId</text>
</a>
</g>
</g>
<!-- Node40&#45;&gt;Node44 -->
<g id="edge17" class="edge">
<title>Node40&#45;&gt;Node44</title>
<path fill="none" stroke="midnightblue" d="M308.51,-78.91C300.03,-78.91 291.46,-78.91 283.11,-78.91"/>
<polygon fill="midnightblue" stroke="midnightblue" points="308.78,-82.41 318.78,-78.91 308.78,-75.41 308.78,-82.41"/>
</g>
<!-- Node45&#45;&gt;Node7 -->
<g id="edge22" class="edge">
<title>Node45&#45;&gt;Node7</title>
<path fill="none" stroke="midnightblue" d="M554.1,-224.91C539.49,-249.51 516.47,-288.99 498,-323.91 480.9,-356.24 489.42,-373.71 462,-397.91 458.12,-401.33 453.74,-404.27 449.09,-406.79"/>
<polygon fill="midnightblue" stroke="midnightblue" points="557.15,-226.64 559.26,-216.26 551.13,-223.06 557.15,-226.64"/>
</g>
<!-- Node45&#45;&gt;Node11 -->
<g id="edge23" class="edge">
<title>Node45&#45;&gt;Node11</title>
<path fill="none" stroke="midnightblue" d="M556.86,-225.63C540.25,-258.35 506.72,-315.78 462,-348.91 457.43,-352.3 452.35,-355.23 447.06,-357.76"/>
<polygon fill="midnightblue" stroke="midnightblue" points="560.17,-226.83 561.47,-216.32 553.9,-223.73 560.17,-226.83"/>
</g>
<!-- Node45&#45;&gt;Node18 -->
<g id="edge24" class="edge">
<title>Node45&#45;&gt;Node18</title>
<path fill="none" stroke="midnightblue" d="M529.51,-220.49C509.55,-230.18 484.73,-241.74 462,-250.91 454.33,-254.01 446.08,-257.06 438.04,-259.89"/>
<polygon fill="midnightblue" stroke="midnightblue" points="531.15,-223.58 538.6,-216.04 528.08,-217.29 531.15,-223.58"/>
</g>
<!-- Node45&#45;&gt;Node19 -->
<g id="edge25" class="edge">
<title>Node45&#45;&gt;Node19</title>
<path fill="none" stroke="midnightblue" d="M487.79,-212.31C479.22,-213.52 470.55,-214.75 462.11,-215.94"/>
<polygon fill="midnightblue" stroke="midnightblue" points="488.37,-215.76 497.78,-210.9 487.39,-208.83 488.37,-215.76"/>
</g>
<!-- Node45&#45;&gt;Node23 -->
<g id="edge26" class="edge">
<title>Node45&#45;&gt;Node23</title>
<path fill="none" stroke="midnightblue" d="M487.79,-189.97C479.22,-188.8 470.55,-187.63 462.11,-186.48"/>
<polygon fill="midnightblue" stroke="midnightblue" points="487.4,-193.45 497.78,-191.32 488.34,-186.51 487.4,-193.45"/>
</g>
<!-- Node45&#45;&gt;Node24 -->
<g id="edge27" class="edge">
<title>Node45&#45;&gt;Node24</title>
<path fill="none" stroke="midnightblue" d="M549.22,-223.74C529.37,-245.94 496.55,-279.27 462,-299.91 456.34,-303.29 450.14,-306.28 443.83,-308.89"/>
<polygon fill="midnightblue" stroke="midnightblue" points="551.95,-225.93 555.92,-216.1 546.69,-221.31 551.95,-225.93"/>
</g>
<!-- Node45&#45;&gt;Node40 -->
<g id="edge21" class="edge">
<title>Node45&#45;&gt;Node40</title>
<path fill="none" stroke="midnightblue" d="M549.17,-178.33C529.29,-156.35 496.44,-123.37 462,-102.91 456.33,-99.54 450.12,-96.56 443.81,-93.95"/>
<polygon fill="midnightblue" stroke="midnightblue" points="546.63,-180.73 555.89,-185.88 551.86,-176.08 546.63,-180.73"/>
</g>
<!-- Node46 -->
<g id="node18" class="node">
<title>Node46</title>
<g id="a_node18"><a xlink:href="../../d6/d19/classleanux_1_1sysdevice_1_1BlockPartition.html#a66d61b5a78be267835e09b8d9e4c405f" target="_top" xlink:title="Return true if the SysDevice recognizes itself in the trailing part of path.">
<polygon fill="none" stroke="red" points="329.5,-112.91 329.5,-142.91 451.5,-142.91 451.5,-112.91 329.5,-112.91"/>
<text text-anchor="start" x="337.5" y="-130.91" font-family="Helvetica,sans-Serif" font-size="10.00">leanux::sysdevice::</text>
<text text-anchor="middle" x="390.5" y="-119.91" font-family="Helvetica,sans-Serif" font-size="10.00">BlockPartition::accept</text>
</a>
</g>
</g>
<!-- Node45&#45;&gt;Node46 -->
<g id="edge20" class="edge">
<title>Node45&#45;&gt;Node46</title>
<path fill="none" stroke="midnightblue" d="M528.6,-181.37C508.79,-171.97 484.36,-160.83 462,-151.91 454.31,-148.84 446.07,-145.81 438.02,-142.99"/>
<polygon fill="midnightblue" stroke="midnightblue" points="527.11,-184.54 537.64,-185.69 530.13,-178.22 527.11,-184.54"/>
</g>
<!-- Node45&#45;&gt;Node53 -->
<g id="edge28" class="edge">
<title>Node45&#45;&gt;Node53</title>
<path fill="none" stroke="midnightblue" d="M556.82,-176.36C540.16,-143.86 506.57,-86.82 462,-53.91 457.42,-50.53 452.34,-47.61 447.05,-45.08"/>
<polygon fill="midnightblue" stroke="midnightblue" points="553.84,-178.23 561.44,-185.61 560.1,-175.1 553.84,-178.23"/>
</g>
</g>
</svg>
