<?xml version="1.0" encoding="UTF-8" standalone="no"?>
<!DOCTYPE svg PUBLIC "-//W3C//DTD SVG 1.1//EN"
 "http://www.w3.org/Graphics/SVG/1.1/DTD/svg11.dtd">
<!-- Generated by graphviz version 2.43.0 (0)
 -->
<!-- Title: leanux::block::MajorMinor::isValid Pages: 1 -->
<svg width="745pt" height="452pt"
 viewBox="0.00 0.00 745.00 452.00" xmlns="http://www.w3.org/2000/svg" xmlns:xlink="http://www.w3.org/1999/xlink">
<g id="graph0" class="graph" transform="scale(1 1) rotate(0) translate(4 448)">
<title>leanux::block::MajorMinor::isValid</title>
<!-- Node1 -->
<g id="node1" class="node">
<title>Node1</title>
<g id="a_node1"><a xlink:title="Test MajorMinor validity.">
<polygon fill="#bfbfbf" stroke="black" points="594,-132.5 594,-162.5 737,-162.5 737,-132.5 594,-132.5"/>
<text text-anchor="start" x="602" y="-150.5" font-family="Helvetica,sans-Serif" font-size="10.00">leanux::block::MajorMinor</text>
<text text-anchor="middle" x="665.5" y="-139.5" font-family="Helvetica,sans-Serif" font-size="10.00">::isValid</text>
</a>
</g>
</g>
<!-- Node2 -->
<g id="node2" class="node">
<title>Node2</title>
<g id="a_node2"><a xlink:href="../../d5/d01/namespaceleanux_1_1block.html#afaee6721d578e4e9ccbebb7dea5919a6" target="_top" xlink:title="Get a map of MajorMinor to MountInfo from /proc/mounts.">
<polygon fill="none" stroke="black" points="406,-298 406,-317 558,-317 558,-298 406,-298"/>
<text text-anchor="middle" x="482" y="-305" font-family="Helvetica,sans-Serif" font-size="10.00">leanux::block::enumMounts</text>
</a>
</g>
</g>
<!-- Node1&#45;&gt;Node2 -->
<g id="edge1" class="edge">
<title>Node1&#45;&gt;Node2</title>
<path fill="none" stroke="midnightblue" d="M647.3,-170.72C627.67,-196.13 593.66,-237.04 558,-265.5 541.32,-278.81 519.87,-290.36 504.19,-297.96"/>
<polygon fill="midnightblue" stroke="midnightblue" points="650.11,-172.81 653.38,-162.74 644.54,-168.57 650.11,-172.81"/>
</g>
<!-- Node24 -->
<g id="node9" class="node">
<title>Node24</title>
<g id="a_node9"><a xlink:href="../../df/db8/classleanux_1_1sysdevice_1_1iSCSIDevice.html#a2f46ff48d80ee056fa13e72e9d791c82" target="_top" xlink:title="Get a human readable description of this SysDevice.">
<polygon fill="none" stroke="black" points="406,-225.5 406,-255.5 558,-255.5 558,-225.5 406,-225.5"/>
<text text-anchor="start" x="414" y="-243.5" font-family="Helvetica,sans-Serif" font-size="10.00">leanux::sysdevice::</text>
<text text-anchor="middle" x="482" y="-232.5" font-family="Helvetica,sans-Serif" font-size="10.00">iSCSIDevice::getDescription</text>
</a>
</g>
</g>
<!-- Node1&#45;&gt;Node24 -->
<g id="edge8" class="edge">
<title>Node1&#45;&gt;Node24</title>
<path fill="none" stroke="midnightblue" d="M636.28,-168.75C615.48,-183.66 586.05,-203.22 558,-216.5 551.08,-219.78 543.6,-222.77 536.13,-225.44"/>
<polygon fill="midnightblue" stroke="midnightblue" points="638.6,-171.39 644.63,-162.68 634.48,-165.73 638.6,-171.39"/>
</g>
<!-- Node25 -->
<g id="node10" class="node">
<title>Node25</title>
<g id="a_node10"><a xlink:href="../../d7/d28/classleanux_1_1block_1_1MajorMinor.html#a6e82e367d0d6d6038391ac28c2e510c5" target="_top" xlink:title="return the VG name the PV belongs to, or empty if the device is not a LVM PV.">
<polygon fill="none" stroke="black" points="410.5,-176.5 410.5,-206.5 553.5,-206.5 553.5,-176.5 410.5,-176.5"/>
<text text-anchor="start" x="418.5" y="-194.5" font-family="Helvetica,sans-Serif" font-size="10.00">leanux::block::MajorMinor</text>
<text text-anchor="middle" x="482" y="-183.5" font-family="Helvetica,sans-Serif" font-size="10.00">::getLVMPV2VG</text>
</a>
</g>
</g>
<!-- Node1&#45;&gt;Node25 -->
<g id="edge9" class="edge">
<title>Node1&#45;&gt;Node25</title>
<path fill="none" stroke="midnightblue" d="M592.82,-164.88C577,-168.71 560.38,-172.74 544.98,-176.47"/>
<polygon fill="midnightblue" stroke="midnightblue" points="593.65,-168.28 602.55,-162.52 592,-161.47 593.65,-168.28"/>
</g>
<!-- Node26 -->
<g id="node11" class="node">
<title>Node26</title>
<g id="a_node11"><a xlink:href="../../d5/d01/namespaceleanux_1_1block.html#a927d958ef9b9b66a13c32754e91d0c7d" target="_top" xlink:title="Initialize the block API.">
<polygon fill="none" stroke="black" points="430,-138 430,-157 534,-157 534,-138 430,-138"/>
<text text-anchor="middle" x="482" y="-145" font-family="Helvetica,sans-Serif" font-size="10.00">leanux::block::init</text>
</a>
</g>
</g>
<!-- Node1&#45;&gt;Node26 -->
<g id="edge11" class="edge">
<title>Node1&#45;&gt;Node26</title>
<path fill="none" stroke="midnightblue" d="M583.44,-147.5C566.67,-147.5 549.45,-147.5 534.12,-147.5"/>
<polygon fill="midnightblue" stroke="midnightblue" points="583.81,-151 593.81,-147.5 583.81,-144 583.81,-151"/>
</g>
<!-- Node34 -->
<g id="node13" class="node">
<title>Node34</title>
<g id="a_node13"><a xlink:href="../../d5/d1b/namespaceleanux_1_1tools_1_1lblk.html#ae7d5c6185a714de483a152b1846eadcb" target="_top" xlink:title="Table listing all storage needed for the filesystem containing file.">
<polygon fill="none" stroke="black" points="430,-88.5 430,-118.5 534,-118.5 534,-88.5 430,-88.5"/>
<text text-anchor="start" x="438" y="-106.5" font-family="Helvetica,sans-Serif" font-size="10.00">leanux::tools::lblk</text>
<text text-anchor="middle" x="482" y="-95.5" font-family="Helvetica,sans-Serif" font-size="10.00">::listFile</text>
</a>
</g>
</g>
<!-- Node1&#45;&gt;Node34 -->
<g id="edge13" class="edge">
<title>Node1&#45;&gt;Node34</title>
<path fill="none" stroke="midnightblue" d="M592.74,-130.1C573.15,-125.35 552.32,-120.3 534.13,-115.9"/>
<polygon fill="midnightblue" stroke="midnightblue" points="592,-133.53 602.55,-132.48 593.65,-126.72 592,-133.53"/>
</g>
<!-- Node6 -->
<g id="node14" class="node">
<title>Node6</title>
<g id="a_node14"><a xlink:href="../../d5/d1b/namespaceleanux_1_1tools_1_1lblk.html#aafee1346a1081bfa4f7470f921cd66b8" target="_top" xlink:title="Direct output run from options.">
<polygon fill="none" stroke="red" points="222.5,-44.5 222.5,-74.5 326.5,-74.5 326.5,-44.5 222.5,-44.5"/>
<text text-anchor="start" x="230.5" y="-62.5" font-family="Helvetica,sans-Serif" font-size="10.00">leanux::tools::lblk</text>
<text text-anchor="middle" x="274.5" y="-51.5" font-family="Helvetica,sans-Serif" font-size="10.00">::runOptions</text>
</a>
</g>
</g>
<!-- Node1&#45;&gt;Node6 -->
<g id="edge17" class="edge">
<title>Node1&#45;&gt;Node6</title>
<path fill="none" stroke="midnightblue" d="M639.64,-126.11C619.19,-109.89 588.68,-88.7 558,-78.5 480.45,-52.71 384.49,-52.41 326.73,-55.36"/>
<polygon fill="midnightblue" stroke="midnightblue" points="637.52,-128.9 647.49,-132.49 641.94,-123.47 637.52,-128.9"/>
</g>
<!-- Node35 -->
<g id="node15" class="node">
<title>Node35</title>
<g id="a_node15"><a xlink:href="../../d5/d1b/namespaceleanux_1_1tools_1_1lblk.html#a2c15ffbda4dc6a336718fafe080e56fc" target="_top" xlink:title="do smart things with user input for device name so that we are not overly picky in user specified dev...">
<polygon fill="none" stroke="black" points="430,-0.5 430,-30.5 534,-30.5 534,-0.5 430,-0.5"/>
<text text-anchor="start" x="438" y="-18.5" font-family="Helvetica,sans-Serif" font-size="10.00">leanux::tools::lblk</text>
<text text-anchor="middle" x="482" y="-7.5" font-family="Helvetica,sans-Serif" font-size="10.00">::parseDeviceArg</text>
</a>
</g>
</g>
<!-- Node1&#45;&gt;Node35 -->
<g id="edge15" class="edge">
<title>Node1&#45;&gt;Node35</title>
<path fill="none" stroke="midnightblue" d="M645.45,-124.72C625.56,-102.11 592.51,-67.72 558,-45.5 549.04,-39.73 538.79,-34.74 528.8,-30.58"/>
<polygon fill="midnightblue" stroke="midnightblue" points="642.97,-127.2 652.16,-132.47 648.26,-122.61 642.97,-127.2"/>
</g>
<!-- Node3 -->
<g id="node3" class="node">
<title>Node3</title>
<g id="a_node3"><a xlink:href="../../d7/d28/classleanux_1_1block_1_1MajorMinor.html#a6360a7c70665f9615ddb4682f96866b1" target="_top" xlink:title="get MountInfo on devices with a mounted filesystem.">
<polygon fill="none" stroke="black" points="203,-413.5 203,-443.5 346,-443.5 346,-413.5 203,-413.5"/>
<text text-anchor="start" x="211" y="-431.5" font-family="Helvetica,sans-Serif" font-size="10.00">leanux::block::MajorMinor</text>
<text text-anchor="middle" x="274.5" y="-420.5" font-family="Helvetica,sans-Serif" font-size="10.00">::getMountInfo</text>
</a>
</g>
</g>
<!-- Node2&#45;&gt;Node3 -->
<g id="edge2" class="edge">
<title>Node2&#45;&gt;Node3</title>
<path fill="none" stroke="midnightblue" d="M466.2,-324.69C446.45,-346.52 409.38,-383.82 370,-404.5 362.51,-408.43 354.34,-411.75 346.04,-414.53"/>
<polygon fill="midnightblue" stroke="midnightblue" points="468.87,-326.95 472.88,-317.14 463.63,-322.3 468.87,-326.95"/>
</g>
<!-- Node9 -->
<g id="node5" class="node">
<title>Node9</title>
<g id="a_node5"><a xlink:href="../../d8/d7f/classleanux_1_1tools_1_1lmon_1_1IOView.html#a466bf2f2261b917b31ae2664ec8fbed0" target="_top" xlink:title="provide the optimal height for the Header.">
<polygon fill="none" stroke="red" points="200,-364.5 200,-394.5 349,-394.5 349,-364.5 200,-364.5"/>
<text text-anchor="start" x="208" y="-382.5" font-family="Helvetica,sans-Serif" font-size="10.00">leanux::tools::lmon</text>
<text text-anchor="middle" x="274.5" y="-371.5" font-family="Helvetica,sans-Serif" font-size="10.00">::IOView::getOptimalHeight</text>
</a>
</g>
</g>
<!-- Node2&#45;&gt;Node9 -->
<g id="edge4" class="edge">
<title>Node2&#45;&gt;Node9</title>
<path fill="none" stroke="midnightblue" d="M452.16,-321.48C430.04,-331.83 398.56,-345.77 370,-355.5 360.55,-358.72 350.43,-361.73 340.46,-364.46"/>
<polygon fill="midnightblue" stroke="midnightblue" points="453.78,-324.59 461.32,-317.15 450.79,-318.26 453.78,-324.59"/>
</g>
<!-- Node16 -->
<g id="node6" class="node">
<title>Node16</title>
<g id="a_node6"><a xlink:href="../../da/d21/classleanux_1_1tools_1_1lmon_1_1RealtimeSampler.html#ae43e18aacfceb09eb9bd70db9c67fc98" target="_top" xlink:title=" ">
<polygon fill="none" stroke="red" points="179,-315.5 179,-345.5 370,-345.5 370,-315.5 179,-315.5"/>
<text text-anchor="start" x="187" y="-333.5" font-family="Helvetica,sans-Serif" font-size="10.00">leanux::tools::lmon</text>
<text text-anchor="middle" x="274.5" y="-322.5" font-family="Helvetica,sans-Serif" font-size="10.00">::RealtimeSampler::sampleXIOView</text>
</a>
</g>
</g>
<!-- Node2&#45;&gt;Node16 -->
<g id="edge5" class="edge">
<title>Node2&#45;&gt;Node16</title>
<path fill="none" stroke="midnightblue" d="M395.78,-317.04C387.38,-317.98 378.82,-318.94 370.33,-319.89"/>
<polygon fill="midnightblue" stroke="midnightblue" points="396.39,-320.49 405.94,-315.9 395.61,-313.54 396.39,-320.49"/>
</g>
<!-- Node19 -->
<g id="node7" class="node">
<title>Node19</title>
<g id="a_node7"><a xlink:href="../../d0/db5/classleanux_1_1tools_1_1lard_1_1MountSnap.html#a03ffa5736036aaed951d16b51d181c29" target="_top" xlink:title=" ">
<polygon fill="none" stroke="red" points="210.5,-266.5 210.5,-296.5 338.5,-296.5 338.5,-266.5 210.5,-266.5"/>
<text text-anchor="start" x="218.5" y="-284.5" font-family="Helvetica,sans-Serif" font-size="10.00">leanux::tools::lard</text>
<text text-anchor="middle" x="274.5" y="-273.5" font-family="Helvetica,sans-Serif" font-size="10.00">::MountSnap::stopSnap</text>
</a>
</g>
</g>
<!-- Node2&#45;&gt;Node19 -->
<g id="edge6" class="edge">
<title>Node2&#45;&gt;Node19</title>
<path fill="none" stroke="midnightblue" d="M395.98,-296.74C376.75,-294.31 356.67,-291.77 338.54,-289.48"/>
<polygon fill="midnightblue" stroke="midnightblue" points="395.58,-300.22 405.94,-298 396.46,-293.28 395.58,-300.22"/>
</g>
<!-- Node23 -->
<g id="node8" class="node">
<title>Node23</title>
<g id="a_node8"><a xlink:href="../../d0/db5/classleanux_1_1tools_1_1lard_1_1MountSnap.html#a7288efb64fc31818416b8c52c4ba3a0d" target="_top" xlink:title=" ">
<polygon fill="none" stroke="red" points="208.5,-217.5 208.5,-247.5 340.5,-247.5 340.5,-217.5 208.5,-217.5"/>
<text text-anchor="start" x="216.5" y="-235.5" font-family="Helvetica,sans-Serif" font-size="10.00">leanux::tools::lard</text>
<text text-anchor="middle" x="274.5" y="-224.5" font-family="Helvetica,sans-Serif" font-size="10.00">::MountSnap::storeSnap</text>
</a>
</g>
</g>
<!-- Node2&#45;&gt;Node23 -->
<g id="edge7" class="edge">
<title>Node2&#45;&gt;Node23</title>
<path fill="none" stroke="midnightblue" d="M453,-293.34C430.86,-282.52 398.98,-267.78 370,-257.5 359.84,-253.9 348.91,-250.54 338.21,-247.54"/>
<polygon fill="midnightblue" stroke="midnightblue" points="451.63,-296.56 462.14,-297.85 454.73,-290.29 451.63,-296.56"/>
</g>
<!-- Node4 -->
<g id="node4" class="node">
<title>Node4</title>
<g id="a_node4"><a xlink:href="../../d7/d28/classleanux_1_1block_1_1MajorMinor.html#a26a2363b1eea927b6ebb4aad44dea876" target="_top" xlink:title="Get a pretty&#45;print description for the device.">
<polygon fill="none" stroke="red" points="0,-293.5 0,-323.5 143,-323.5 143,-293.5 0,-293.5"/>
<text text-anchor="start" x="8" y="-311.5" font-family="Helvetica,sans-Serif" font-size="10.00">leanux::block::MajorMinor</text>
<text text-anchor="middle" x="71.5" y="-300.5" font-family="Helvetica,sans-Serif" font-size="10.00">::getDescription</text>
</a>
</g>
</g>
<!-- Node3&#45;&gt;Node4 -->
<g id="edge3" class="edge">
<title>Node3&#45;&gt;Node4</title>
<path fill="none" stroke="midnightblue" d="M193.29,-411.1C188.35,-409.13 183.55,-406.93 179,-404.5 139.71,-383.48 103.3,-344.92 84.95,-323.63"/>
<polygon fill="midnightblue" stroke="midnightblue" points="192.31,-414.47 202.9,-414.64 194.73,-407.9 192.31,-414.47"/>
</g>
<!-- Node25&#45;&gt;Node4 -->
<g id="edge10" class="edge">
<title>Node25&#45;&gt;Node4</title>
<path fill="none" stroke="midnightblue" d="M400.21,-181.45C337.35,-177.01 249.29,-178.36 179,-208.5 136.34,-226.79 100.25,-270.03 83.13,-293.21"/>
<polygon fill="midnightblue" stroke="midnightblue" points="400.23,-184.96 410.47,-182.24 400.76,-177.98 400.23,-184.96"/>
</g>
<!-- Node27 -->
<g id="node12" class="node">
<title>Node27</title>
<g id="a_node12"><a xlink:href="../../d2/dd1/namespaceleanux.html#a757c5a3a5fb84a0ab93de54fd0c8db30" target="_top" xlink:title="Initialize leanux, run checks to verify leanux is compatible with the runtime environment.">
<polygon fill="none" stroke="red" points="239,-138 239,-157 310,-157 310,-138 239,-138"/>
<text text-anchor="middle" x="274.5" y="-145" font-family="Helvetica,sans-Serif" font-size="10.00">leanux::init</text>
</a>
</g>
</g>
<!-- Node26&#45;&gt;Node27 -->
<g id="edge12" class="edge">
<title>Node26&#45;&gt;Node27</title>
<path fill="none" stroke="midnightblue" d="M419.6,-147.5C383.83,-147.5 340.04,-147.5 310.18,-147.5"/>
<polygon fill="midnightblue" stroke="midnightblue" points="419.94,-151 429.94,-147.5 419.94,-144 419.94,-151"/>
</g>
<!-- Node34&#45;&gt;Node6 -->
<g id="edge14" class="edge">
<title>Node34&#45;&gt;Node6</title>
<path fill="none" stroke="midnightblue" d="M420.09,-90.46C390.35,-84.09 354.97,-76.52 326.66,-70.45"/>
<polygon fill="midnightblue" stroke="midnightblue" points="419.43,-93.9 429.94,-92.57 420.89,-87.05 419.43,-93.9"/>
</g>
<!-- Node35&#45;&gt;Node6 -->
<g id="edge16" class="edge">
<title>Node35&#45;&gt;Node6</title>
<path fill="none" stroke="midnightblue" d="M420.09,-28.54C390.35,-34.91 354.97,-42.48 326.66,-48.55"/>
<polygon fill="midnightblue" stroke="midnightblue" points="420.89,-31.95 429.94,-26.43 419.43,-25.1 420.89,-31.95"/>
</g>
</g>
</svg>
