<?xml version="1.0" encoding="UTF-8" standalone="no"?>
<!DOCTYPE svg PUBLIC "-//W3C//DTD SVG 1.1//EN"
 "http://www.w3.org/Graphics/SVG/1.1/DTD/svg11.dtd">
<!-- Generated by graphviz version 2.43.0 (0)
 -->
<!-- Title: leanux::block::MajorMinor::getIOScheduler Pages: 1 -->
<svg width="696pt" height="567pt"
 viewBox="0.00 0.00 696.00 566.58" xmlns="http://www.w3.org/2000/svg" xmlns:xlink="http://www.w3.org/1999/xlink">
<g id="graph0" class="graph" transform="scale(1 1) rotate(0) translate(4 562.58)">
<title>leanux::block::MajorMinor::getIOScheduler</title>
<!-- Node1 -->
<g id="node1" class="node">
<title>Node1</title>
<g id="a_node1"><a xlink:title="get the IO scheduler (elevator) configured for the device.">
<polygon fill="#bfbfbf" stroke="black" points="0,-71 0,-101 143,-101 143,-71 0,-71"/>
<text text-anchor="start" x="8" y="-89" font-family="Helvetica,sans-Serif" font-size="10.00">leanux::block::MajorMinor</text>
<text text-anchor="middle" x="71.5" y="-78" font-family="Helvetica,sans-Serif" font-size="10.00">::getIOScheduler</text>
</a>
</g>
</g>
<!-- Node2 -->
<g id="node2" class="node">
<title>Node2</title>
<g id="a_node2"><a xlink:href="../../d7/d28/classleanux_1_1block_1_1MajorMinor.html#a5771b2baf04dd79e61c5bcd3f4ec532c" target="_top" xlink:title="Derive the MajorMinor of the whole disk holding a partition.">
<polygon fill="none" stroke="black" points="183,-277 183,-307 326,-307 326,-277 183,-277"/>
<text text-anchor="start" x="191" y="-295" font-family="Helvetica,sans-Serif" font-size="10.00">leanux::block::MajorMinor</text>
<text text-anchor="middle" x="254.5" y="-284" font-family="Helvetica,sans-Serif" font-size="10.00">::deriveWholeDisk</text>
</a>
</g>
</g>
<!-- Node1&#45;&gt;Node2 -->
<g id="edge1" class="edge">
<title>Node1&#45;&gt;Node2</title>
<path fill="none" stroke="midnightblue" d="M85.81,-101.15C117.26,-136.94 196.29,-226.89 233.52,-269.26"/>
<polygon fill="midnightblue" stroke="midnightblue" points="230.94,-271.63 240.17,-276.83 236.2,-267.01 230.94,-271.63"/>
</g>
<!-- Node7 -->
<g id="node4" class="node">
<title>Node7</title>
<g id="a_node4"><a xlink:href="../../d7/d28/classleanux_1_1block_1_1MajorMinor.html#adc3f437e329318ee21bddbbebaeb740e" target="_top" xlink:title="Get the DeviceName for the MajorMinor.">
<polygon fill="none" stroke="red" points="545,-399 545,-429 688,-429 688,-399 545,-399"/>
<text text-anchor="start" x="553" y="-417" font-family="Helvetica,sans-Serif" font-size="10.00">leanux::block::MajorMinor</text>
<text text-anchor="middle" x="616.5" y="-406" font-family="Helvetica,sans-Serif" font-size="10.00">::getNameByMajorMinor</text>
</a>
</g>
</g>
<!-- Node1&#45;&gt;Node7 -->
<g id="edge17" class="edge">
<title>Node1&#45;&gt;Node7</title>
<path fill="none" stroke="midnightblue" d="M143.39,-79.76C252.05,-71.7 453.08,-63.26 509,-105 601.25,-173.86 614.17,-327.64 615.56,-388.5"/>
<polygon fill="midnightblue" stroke="midnightblue" points="612.07,-388.79 615.7,-398.74 619.07,-388.69 612.07,-388.79"/>
</g>
<!-- Node14 -->
<g id="node12" class="node">
<title>Node14</title>
<g id="a_node12"><a xlink:href="../../d8/db1/namespaceleanux_1_1util.html#a6421ca2c46c56eebe1a486c6a498ce7d" target="_top" xlink:title="Test if a file exists and can be read.">
<polygon fill="none" stroke="black" points="179,-38.5 179,-57.5 330,-57.5 330,-38.5 179,-38.5"/>
<text text-anchor="middle" x="254.5" y="-45.5" font-family="Helvetica,sans-Serif" font-size="10.00">leanux::util::fileReadAccess</text>
</a>
</g>
</g>
<!-- Node1&#45;&gt;Node14 -->
<g id="edge15" class="edge">
<title>Node1&#45;&gt;Node14</title>
<path fill="none" stroke="midnightblue" d="M143.26,-71.14C161.49,-67.32 180.85,-63.25 198.17,-59.62"/>
<polygon fill="midnightblue" stroke="midnightblue" points="199.05,-63.01 208.11,-57.53 197.61,-56.16 199.05,-63.01"/>
</g>
<!-- Node15 -->
<g id="node13" class="node">
<title>Node15</title>
<g id="a_node13"><a xlink:href="../../d8/db1/namespaceleanux_1_1util.html#a57bfd49353610b3d0b6d121b264c676e" target="_top" xlink:title="read the file as a single string.">
<polygon fill="none" stroke="black" points="181.5,-0.5 181.5,-19.5 327.5,-19.5 327.5,-0.5 181.5,-0.5"/>
<text text-anchor="middle" x="254.5" y="-7.5" font-family="Helvetica,sans-Serif" font-size="10.00">leanux::util::fileReadString</text>
</a>
</g>
</g>
<!-- Node1&#45;&gt;Node15 -->
<g id="edge16" class="edge">
<title>Node1&#45;&gt;Node15</title>
<path fill="none" stroke="midnightblue" d="M96.66,-70.89C117.73,-58.24 149.48,-40.47 179,-29 185.35,-26.53 192.14,-24.29 198.92,-22.29"/>
<polygon fill="midnightblue" stroke="midnightblue" points="200.14,-25.58 208.82,-19.52 198.25,-18.84 200.14,-25.58"/>
</g>
<!-- Node16 -->
<g id="node14" class="node">
<title>Node16</title>
<g id="a_node14"><a xlink:href="../../d7/d28/classleanux_1_1block_1_1MajorMinor.html#ad5136fe7853cb6f2ca04eadb465976da" target="_top" xlink:title=" ">
<polygon fill="none" stroke="black" points="183,-350 183,-380 326,-380 326,-350 183,-350"/>
<text text-anchor="start" x="191" y="-368" font-family="Helvetica,sans-Serif" font-size="10.00">leanux::block::MajorMinor</text>
<text text-anchor="middle" x="254.5" y="-357" font-family="Helvetica,sans-Serif" font-size="10.00">::isPartition</text>
</a>
</g>
</g>
<!-- Node1&#45;&gt;Node16 -->
<g id="edge18" class="edge">
<title>Node1&#45;&gt;Node16</title>
<path fill="none" stroke="midnightblue" d="M76.33,-101.04C86.92,-140.25 119.82,-247.34 179,-316 188.68,-327.23 201.54,-336.91 213.85,-344.64"/>
<polygon fill="midnightblue" stroke="midnightblue" points="212.28,-347.78 222.66,-349.91 215.88,-341.77 212.28,-347.78"/>
</g>
<!-- Node3 -->
<g id="node3" class="node">
<title>Node3</title>
<g id="a_node3"><a xlink:href="../../d7/d28/classleanux_1_1block_1_1MajorMinor.html#a3f7315088bb27e09449e3c2542b65958" target="_top" xlink:title="Get the MajorMinor for the device name.">
<polygon fill="none" stroke="red" points="366,-115 366,-145 509,-145 509,-115 366,-115"/>
<text text-anchor="start" x="374" y="-133" font-family="Helvetica,sans-Serif" font-size="10.00">leanux::block::MajorMinor</text>
<text text-anchor="middle" x="437.5" y="-122" font-family="Helvetica,sans-Serif" font-size="10.00">::getMajorMinorByName</text>
</a>
</g>
</g>
<!-- Node2&#45;&gt;Node3 -->
<g id="edge2" class="edge">
<title>Node2&#45;&gt;Node3</title>
<path fill="none" stroke="midnightblue" d="M264.65,-276.95C281.61,-250.15 320.39,-193.82 366,-160 371.19,-156.15 376.95,-152.68 382.87,-149.59"/>
<polygon fill="midnightblue" stroke="midnightblue" points="384.79,-152.55 392.26,-145.04 381.73,-146.25 384.79,-152.55"/>
</g>
<!-- Node2&#45;&gt;Node7 -->
<g id="edge3" class="edge">
<title>Node2&#45;&gt;Node7</title>
<path fill="none" stroke="midnightblue" d="M266.3,-276.93C284.02,-253.67 321.73,-209.93 366,-193 425.36,-170.3 455.18,-159.19 509,-193 578.76,-236.82 603.9,-340.6 612.03,-388.7"/>
<polygon fill="midnightblue" stroke="midnightblue" points="608.62,-389.54 613.63,-398.88 615.53,-388.45 608.62,-389.54"/>
</g>
<!-- Node8 -->
<g id="node5" class="node">
<title>Node8</title>
<g id="a_node5"><a xlink:href="../../d7/d28/classleanux_1_1block_1_1MajorMinor.html#a59e3fe2f1a574b79bad1fe48a2334c27" target="_top" xlink:title="determine if the MajorMinor represents a bcache disk.">
<polygon fill="none" stroke="black" points="366,-497 366,-527 509,-527 509,-497 366,-497"/>
<text text-anchor="start" x="374" y="-515" font-family="Helvetica,sans-Serif" font-size="10.00">leanux::block::MajorMinor</text>
<text text-anchor="middle" x="437.5" y="-504" font-family="Helvetica,sans-Serif" font-size="10.00">::isBCacheDisk</text>
</a>
</g>
</g>
<!-- Node2&#45;&gt;Node8 -->
<g id="edge4" class="edge">
<title>Node2&#45;&gt;Node8</title>
<path fill="none" stroke="midnightblue" d="M290.21,-307.15C304.5,-315.02 320.01,-325.96 330,-340 369.25,-395.15 320.32,-438.04 366,-488 366.88,-488.97 367.81,-489.89 368.77,-490.78"/>
<polygon fill="midnightblue" stroke="midnightblue" points="366.68,-493.6 376.75,-496.9 370.94,-488.04 366.68,-493.6"/>
</g>
<!-- Node9 -->
<g id="node6" class="node">
<title>Node9</title>
<g id="a_node6"><a xlink:href="../../d7/d28/classleanux_1_1block_1_1MajorMinor.html#a546aa9297e382543cb031126190bc8c9" target="_top" xlink:title="determine if the major represents an IDE disk.">
<polygon fill="none" stroke="black" points="366,-301 366,-331 509,-331 509,-301 366,-301"/>
<text text-anchor="start" x="374" y="-319" font-family="Helvetica,sans-Serif" font-size="10.00">leanux::block::MajorMinor</text>
<text text-anchor="middle" x="437.5" y="-308" font-family="Helvetica,sans-Serif" font-size="10.00">::isIDEDisk</text>
</a>
</g>
</g>
<!-- Node2&#45;&gt;Node9 -->
<g id="edge6" class="edge">
<title>Node2&#45;&gt;Node9</title>
<path fill="none" stroke="midnightblue" d="M326.26,-301.38C335.9,-302.66 345.85,-303.98 355.65,-305.28"/>
<polygon fill="midnightblue" stroke="midnightblue" points="355.42,-308.78 365.79,-306.62 356.34,-301.84 355.42,-308.78"/>
</g>
<!-- Node10 -->
<g id="node7" class="node">
<title>Node10</title>
<g id="a_node7"><a xlink:href="../../d7/d28/classleanux_1_1block_1_1MajorMinor.html#a852aa9e7ee1c107c95cd27ad47b5cf86" target="_top" xlink:title="determine if the MajorMinor represents an MMC disk.">
<polygon fill="none" stroke="black" points="366,-448 366,-478 509,-478 509,-448 366,-448"/>
<text text-anchor="start" x="374" y="-466" font-family="Helvetica,sans-Serif" font-size="10.00">leanux::block::MajorMinor</text>
<text text-anchor="middle" x="437.5" y="-455" font-family="Helvetica,sans-Serif" font-size="10.00">::isMMCDisk</text>
</a>
</g>
</g>
<!-- Node2&#45;&gt;Node10 -->
<g id="edge7" class="edge">
<title>Node2&#45;&gt;Node10</title>
<path fill="none" stroke="midnightblue" d="M288.34,-307.07C302.78,-315.1 318.94,-326.19 330,-340 359,-376.22 333,-405.37 366,-438 367.45,-439.44 369,-440.79 370.61,-442.07"/>
<polygon fill="midnightblue" stroke="midnightblue" points="368.95,-445.17 379.2,-447.84 372.85,-439.36 368.95,-445.17"/>
</g>
<!-- Node11 -->
<g id="node8" class="node">
<title>Node11</title>
<g id="a_node8"><a xlink:href="../../d7/d28/classleanux_1_1block_1_1MajorMinor.html#ab248c720a63908f9e3ef78ed23536de8" target="_top" xlink:title="determine if the MajorMinor represents a NVMe disk.">
<polygon fill="none" stroke="black" points="366,-399 366,-429 509,-429 509,-399 366,-399"/>
<text text-anchor="start" x="374" y="-417" font-family="Helvetica,sans-Serif" font-size="10.00">leanux::block::MajorMinor</text>
<text text-anchor="middle" x="437.5" y="-406" font-family="Helvetica,sans-Serif" font-size="10.00">::isNVMeDisk</text>
</a>
</g>
</g>
<!-- Node2&#45;&gt;Node11 -->
<g id="edge9" class="edge">
<title>Node2&#45;&gt;Node11</title>
<path fill="none" stroke="midnightblue" d="M284.13,-307.12C298.77,-315.64 316.33,-327.14 330,-340 349.68,-358.51 344.31,-372.88 366,-389 368.47,-390.84 371.1,-392.55 373.82,-394.14"/>
<polygon fill="midnightblue" stroke="midnightblue" points="372.3,-397.3 382.78,-398.84 375.55,-391.1 372.3,-397.3"/>
</g>
<!-- Node12 -->
<g id="node9" class="node">
<title>Node12</title>
<g id="a_node9"><a xlink:href="../../d7/d28/classleanux_1_1block_1_1MajorMinor.html#a6c5b98f8ffc7b8904754ecfe33407e8c" target="_top" xlink:title="determine if the major represents a SCSI disk.">
<polygon fill="none" stroke="black" points="366,-252 366,-282 509,-282 509,-252 366,-252"/>
<text text-anchor="start" x="374" y="-270" font-family="Helvetica,sans-Serif" font-size="10.00">leanux::block::MajorMinor</text>
<text text-anchor="middle" x="437.5" y="-259" font-family="Helvetica,sans-Serif" font-size="10.00">::isSCSIDisk</text>
</a>
</g>
</g>
<!-- Node2&#45;&gt;Node12 -->
<g id="edge11" class="edge">
<title>Node2&#45;&gt;Node12</title>
<path fill="none" stroke="midnightblue" d="M326.26,-282.23C335.9,-280.9 345.85,-279.52 355.65,-278.17"/>
<polygon fill="midnightblue" stroke="midnightblue" points="356.37,-281.6 365.79,-276.77 355.41,-274.67 356.37,-281.6"/>
</g>
<!-- Node13 -->
<g id="node10" class="node">
<title>Node13</title>
<g id="a_node10"><a xlink:href="../../d7/d28/classleanux_1_1block_1_1MajorMinor.html#aaa91d26165ff4b7a32cfe052e72463cc" target="_top" xlink:title="determine if the MajorMinor represents a virtio disk.">
<polygon fill="none" stroke="black" points="366,-350 366,-380 509,-380 509,-350 366,-350"/>
<text text-anchor="start" x="374" y="-368" font-family="Helvetica,sans-Serif" font-size="10.00">leanux::block::MajorMinor</text>
<text text-anchor="middle" x="437.5" y="-357" font-family="Helvetica,sans-Serif" font-size="10.00">::isVirtIODisk</text>
</a>
</g>
</g>
<!-- Node2&#45;&gt;Node13 -->
<g id="edge12" class="edge">
<title>Node2&#45;&gt;Node13</title>
<path fill="none" stroke="midnightblue" d="M288.62,-307.1C310.44,-316.87 339.73,-329.65 366,-340 371.5,-342.17 377.26,-344.35 383.03,-346.48"/>
<polygon fill="midnightblue" stroke="midnightblue" points="382.11,-349.87 392.7,-350 384.5,-343.29 382.11,-349.87"/>
</g>
<!-- Node5 -->
<g id="node11" class="node">
<title>Node5</title>
<g id="a_node11"><a xlink:href="../../d7/d28/classleanux_1_1block_1_1MajorMinor.html#a464bd4b85ec6d88f850ef7d76e950f44" target="_top" xlink:title="Default constructor.">
<polygon fill="none" stroke="black" points="366,-203 366,-233 509,-233 509,-203 366,-203"/>
<text text-anchor="start" x="374" y="-221" font-family="Helvetica,sans-Serif" font-size="10.00">leanux::block::MajorMinor</text>
<text text-anchor="middle" x="437.5" y="-210" font-family="Helvetica,sans-Serif" font-size="10.00">::MajorMinor</text>
</a>
</g>
</g>
<!-- Node2&#45;&gt;Node5 -->
<g id="edge14" class="edge">
<title>Node2&#45;&gt;Node5</title>
<path fill="none" stroke="midnightblue" d="M286.59,-276.96C308.54,-266.58 338.78,-252.76 366,-242 370.69,-240.15 375.59,-238.3 380.52,-236.5"/>
<polygon fill="midnightblue" stroke="midnightblue" points="381.76,-239.77 390,-233.12 379.41,-233.18 381.76,-239.77"/>
</g>
<!-- Node8&#45;&gt;Node7 -->
<g id="edge5" class="edge">
<title>Node8&#45;&gt;Node7</title>
<path fill="none" stroke="midnightblue" d="M488.52,-496.92C495.53,-494.25 502.54,-491.26 509,-488 538.14,-473.28 568.45,-451.49 589.24,-435.36"/>
<polygon fill="midnightblue" stroke="midnightblue" points="591.57,-437.99 597.27,-429.06 587.24,-432.48 591.57,-437.99"/>
</g>
<!-- Node10&#45;&gt;Node7 -->
<g id="edge8" class="edge">
<title>Node10&#45;&gt;Node7</title>
<path fill="none" stroke="midnightblue" d="M493.05,-447.9C511.47,-442.8 532.21,-437.06 551.31,-431.77"/>
<polygon fill="midnightblue" stroke="midnightblue" points="552.43,-435.09 561.13,-429.05 550.56,-428.35 552.43,-435.09"/>
</g>
<!-- Node11&#45;&gt;Node7 -->
<g id="edge10" class="edge">
<title>Node11&#45;&gt;Node7</title>
<path fill="none" stroke="midnightblue" d="M509.22,-414C517.57,-414 526.14,-414 534.62,-414"/>
<polygon fill="midnightblue" stroke="midnightblue" points="534.89,-417.5 544.89,-414 534.89,-410.5 534.89,-417.5"/>
</g>
<!-- Node13&#45;&gt;Node7 -->
<g id="edge13" class="edge">
<title>Node13&#45;&gt;Node7</title>
<path fill="none" stroke="midnightblue" d="M493.05,-380.1C511.47,-385.2 532.21,-390.94 551.31,-396.23"/>
<polygon fill="midnightblue" stroke="midnightblue" points="550.56,-399.65 561.13,-398.95 552.43,-392.91 550.56,-399.65"/>
</g>
<!-- Node16&#45;&gt;Node7 -->
<g id="edge19" class="edge">
<title>Node16&#45;&gt;Node7</title>
<path fill="none" stroke="midnightblue" d="M259.78,-380.14C270.66,-415.41 303.08,-502.64 366,-537 421.78,-567.46 451.19,-563.41 509,-537 553.28,-516.77 586.21,-468.03 603,-438.34"/>
<polygon fill="midnightblue" stroke="midnightblue" points="606.15,-439.88 607.88,-429.43 600.01,-436.52 606.15,-439.88"/>
</g>
<!-- Node16&#45;&gt;Node8 -->
<g id="edge20" class="edge">
<title>Node16&#45;&gt;Node8</title>
<path fill="none" stroke="midnightblue" d="M265.21,-380.13C282.48,-405.87 320.96,-458.27 366,-488 368.43,-489.6 370.97,-491.11 373.6,-492.52"/>
<polygon fill="midnightblue" stroke="midnightblue" points="372.24,-495.76 382.76,-496.99 375.3,-489.46 372.24,-495.76"/>
</g>
<!-- Node16&#45;&gt;Node9 -->
<g id="edge21" class="edge">
<title>Node16&#45;&gt;Node9</title>
<path fill="none" stroke="midnightblue" d="M311.28,-349.9C330.21,-344.77 351.52,-339 371.13,-333.7"/>
<polygon fill="midnightblue" stroke="midnightblue" points="372.16,-337.04 380.9,-331.05 370.33,-330.29 372.16,-337.04"/>
</g>
<!-- Node16&#45;&gt;Node10 -->
<g id="edge22" class="edge">
<title>Node16&#45;&gt;Node10</title>
<path fill="none" stroke="midnightblue" d="M275.37,-380.28C296.83,-396.26 332.46,-421.28 366,-438 370.28,-440.13 374.78,-442.17 379.36,-444.09"/>
<polygon fill="midnightblue" stroke="midnightblue" points="378.23,-447.41 388.82,-447.88 380.83,-440.91 378.23,-447.41"/>
</g>
<!-- Node16&#45;&gt;Node11 -->
<g id="edge23" class="edge">
<title>Node16&#45;&gt;Node11</title>
<path fill="none" stroke="midnightblue" d="M311.28,-380.1C330.21,-385.23 351.52,-391 371.13,-396.3"/>
<polygon fill="midnightblue" stroke="midnightblue" points="370.33,-399.71 380.9,-398.95 372.16,-392.96 370.33,-399.71"/>
</g>
<!-- Node16&#45;&gt;Node12 -->
<g id="edge24" class="edge">
<title>Node16&#45;&gt;Node12</title>
<path fill="none" stroke="midnightblue" d="M278.75,-349.92C293.5,-340.31 312.94,-327.53 330,-316 346.14,-305.09 348.61,-299.78 366,-291 369.53,-289.22 373.23,-287.51 377,-285.9"/>
<polygon fill="midnightblue" stroke="midnightblue" points="378.51,-289.07 386.48,-282.08 375.9,-282.58 378.51,-289.07"/>
</g>
<!-- Node16&#45;&gt;Node13 -->
<g id="edge25" class="edge">
<title>Node16&#45;&gt;Node13</title>
<path fill="none" stroke="midnightblue" d="M326.26,-365C335.9,-365 345.85,-365 355.65,-365"/>
<polygon fill="midnightblue" stroke="midnightblue" points="355.79,-368.5 365.79,-365 355.79,-361.5 355.79,-368.5"/>
</g>
<!-- Node16&#45;&gt;Node5 -->
<g id="edge26" class="edge">
<title>Node16&#45;&gt;Node5</title>
<path fill="none" stroke="midnightblue" d="M286.22,-349.81C300.89,-341.4 317.84,-329.84 330,-316 354.14,-288.52 338.58,-266.2 366,-242 367.33,-240.82 368.73,-239.7 370.17,-238.64"/>
<polygon fill="midnightblue" stroke="midnightblue" points="372.32,-241.42 378.91,-233.12 368.58,-235.5 372.32,-241.42"/>
</g>
</g>
</svg>
