<?xml version="1.0" encoding="UTF-8" standalone="no"?>
<!DOCTYPE svg PUBLIC "-//W3C//DTD SVG 1.1//EN"
 "http://www.w3.org/Graphics/SVG/1.1/DTD/svg11.dtd">
<!-- Generated by graphviz version 2.43.0 (0)
 -->
<!-- Title: leanux::block::MajorMinor::getSize Pages: 1 -->
<svg width="433pt" height="137pt"
 viewBox="0.00 0.00 433.00 137.00" xmlns="http://www.w3.org/2000/svg" xmlns:xlink="http://www.w3.org/1999/xlink">
<g id="graph0" class="graph" transform="scale(1 1) rotate(0) translate(4 133)">
<title>leanux::block::MajorMinor::getSize</title>
<!-- Node1 -->
<g id="node1" class="node">
<title>Node1</title>
<g id="a_node1"><a xlink:title="Return the size (capacity) of the device in bytes.">
<polygon fill="#bfbfbf" stroke="black" points="282,-49.5 282,-79.5 425,-79.5 425,-49.5 282,-49.5"/>
<text text-anchor="start" x="290" y="-67.5" font-family="Helvetica,sans-Serif" font-size="10.00">leanux::block::MajorMinor</text>
<text text-anchor="middle" x="353.5" y="-56.5" font-family="Helvetica,sans-Serif" font-size="10.00">::getSize</text>
</a>
</g>
</g>
<!-- Node2 -->
<g id="node2" class="node">
<title>Node2</title>
<g id="a_node2"><a xlink:href="../../d5/d1b/namespaceleanux_1_1tools_1_1lblk.html#ac57ae7d9a91a4259052d4ae1da5a36a2" target="_top" xlink:title="Write LVM details.">
<polygon fill="none" stroke="black" points="141.5,-98.5 141.5,-128.5 245.5,-128.5 245.5,-98.5 141.5,-98.5"/>
<text text-anchor="start" x="149.5" y="-116.5" font-family="Helvetica,sans-Serif" font-size="10.00">leanux::tools::lblk</text>
<text text-anchor="middle" x="193.5" y="-105.5" font-family="Helvetica,sans-Serif" font-size="10.00">::detailLVM</text>
</a>
</g>
</g>
<!-- Node1&#45;&gt;Node2 -->
<g id="edge1" class="edge">
<title>Node1&#45;&gt;Node2</title>
<path fill="none" stroke="midnightblue" d="M294.1,-82.61C277.3,-87.82 259.17,-93.45 243.03,-98.45"/>
<polygon fill="midnightblue" stroke="midnightblue" points="295.29,-85.91 303.81,-79.6 293.22,-79.22 295.29,-85.91"/>
</g>
<!-- Node6 -->
<g id="node4" class="node">
<title>Node6</title>
<g id="a_node4"><a xlink:href="../../d5/d1b/namespaceleanux_1_1tools_1_1lblk.html#a3ed79ca6c9f478be774a6d9f4a4cb016" target="_top" xlink:title="Write MetaDisk details.">
<polygon fill="none" stroke="black" points="141.5,-49.5 141.5,-79.5 245.5,-79.5 245.5,-49.5 141.5,-49.5"/>
<text text-anchor="start" x="149.5" y="-67.5" font-family="Helvetica,sans-Serif" font-size="10.00">leanux::tools::lblk</text>
<text text-anchor="middle" x="193.5" y="-56.5" font-family="Helvetica,sans-Serif" font-size="10.00">::detailMetaDisk</text>
</a>
</g>
</g>
<!-- Node1&#45;&gt;Node6 -->
<g id="edge3" class="edge">
<title>Node1&#45;&gt;Node6</title>
<path fill="none" stroke="midnightblue" d="M271.81,-64.5C262.93,-64.5 254.08,-64.5 245.71,-64.5"/>
<polygon fill="midnightblue" stroke="midnightblue" points="271.82,-68 281.82,-64.5 271.82,-61 271.82,-68"/>
</g>
<!-- Node7 -->
<g id="node5" class="node">
<title>Node7</title>
<g id="a_node5"><a xlink:href="../../d9/d1f/namespaceleanux_1_1tools_1_1lsys.html#a4a56050ff78d8c77b6a699ff6d5aea50" target="_top" xlink:title="get named field attributes for the SysDevice.">
<polygon fill="none" stroke="black" points="141,-0.5 141,-30.5 246,-30.5 246,-0.5 141,-0.5"/>
<text text-anchor="start" x="149" y="-18.5" font-family="Helvetica,sans-Serif" font-size="10.00">leanux::tools::lsys</text>
<text text-anchor="middle" x="193.5" y="-7.5" font-family="Helvetica,sans-Serif" font-size="10.00">::getLeafColStr</text>
</a>
</g>
</g>
<!-- Node1&#45;&gt;Node7 -->
<g id="edge5" class="edge">
<title>Node1&#45;&gt;Node7</title>
<path fill="none" stroke="midnightblue" d="M294.1,-46.39C277.3,-41.18 259.17,-35.55 243.03,-30.55"/>
<polygon fill="midnightblue" stroke="midnightblue" points="293.22,-49.78 303.81,-49.4 295.29,-43.09 293.22,-49.78"/>
</g>
<!-- Node3 -->
<g id="node3" class="node">
<title>Node3</title>
<g id="a_node3"><a xlink:href="../../d5/d1b/namespaceleanux_1_1tools_1_1lblk.html#aafee1346a1081bfa4f7470f921cd66b8" target="_top" xlink:title="Direct output run from options.">
<polygon fill="none" stroke="red" points="0.5,-73.5 0.5,-103.5 104.5,-103.5 104.5,-73.5 0.5,-73.5"/>
<text text-anchor="start" x="8.5" y="-91.5" font-family="Helvetica,sans-Serif" font-size="10.00">leanux::tools::lblk</text>
<text text-anchor="middle" x="52.5" y="-80.5" font-family="Helvetica,sans-Serif" font-size="10.00">::runOptions</text>
</a>
</g>
</g>
<!-- Node2&#45;&gt;Node3 -->
<g id="edge2" class="edge">
<title>Node2&#45;&gt;Node3</title>
<path fill="none" stroke="midnightblue" d="M131.23,-102.48C122.35,-100.88 113.3,-99.26 104.65,-97.7"/>
<polygon fill="midnightblue" stroke="midnightblue" points="130.67,-105.94 141.14,-104.26 131.91,-99.05 130.67,-105.94"/>
</g>
<!-- Node6&#45;&gt;Node3 -->
<g id="edge4" class="edge">
<title>Node6&#45;&gt;Node3</title>
<path fill="none" stroke="midnightblue" d="M131.23,-75.08C122.35,-76.61 113.3,-78.17 104.65,-79.67"/>
<polygon fill="midnightblue" stroke="midnightblue" points="131.88,-78.52 141.14,-73.37 130.69,-71.62 131.88,-78.52"/>
</g>
<!-- Node8 -->
<g id="node6" class="node">
<title>Node8</title>
<g id="a_node6"><a xlink:href="../../d9/d1f/namespaceleanux_1_1tools_1_1lsys.html#ad858cdc5736e1be415f25fdaec024b58" target="_top" xlink:title="list devices, filtered if opt_t is set.">
<polygon fill="none" stroke="red" points="0,-0.5 0,-30.5 105,-30.5 105,-0.5 0,-0.5"/>
<text text-anchor="start" x="8" y="-18.5" font-family="Helvetica,sans-Serif" font-size="10.00">leanux::tools::lsys</text>
<text text-anchor="middle" x="52.5" y="-7.5" font-family="Helvetica,sans-Serif" font-size="10.00">::listDevices</text>
</a>
</g>
</g>
<!-- Node7&#45;&gt;Node8 -->
<g id="edge6" class="edge">
<title>Node7&#45;&gt;Node8</title>
<path fill="none" stroke="midnightblue" d="M130.56,-15.5C122.12,-15.5 113.53,-15.5 105.3,-15.5"/>
<polygon fill="midnightblue" stroke="midnightblue" points="130.74,-19 140.74,-15.5 130.74,-12 130.74,-19"/>
</g>
</g>
</svg>
