<?xml version="1.0" encoding="UTF-8" standalone="no"?>
<!DOCTYPE svg PUBLIC "-//W3C//DTD SVG 1.1//EN"
 "http://www.w3.org/Graphics/SVG/1.1/DTD/svg11.dtd">
<!-- Generated by graphviz version 2.43.0 (0)
 -->
<!-- Title: leanux::block::MajorMinor::getDMName Pages: 1 -->
<svg width="512pt" height="78pt"
 viewBox="0.00 0.00 512.00 77.50" xmlns="http://www.w3.org/2000/svg" xmlns:xlink="http://www.w3.org/1999/xlink">
<g id="graph0" class="graph" transform="scale(1 1) rotate(0) translate(4 73.5)">
<title>leanux::block::MajorMinor::getDMName</title>
<!-- Node1 -->
<g id="node1" class="node">
<title>Node1</title>
<g id="a_node1"><a xlink:title="return the device dm name (or an empty string if not a dm device)">
<polygon fill="#bfbfbf" stroke="black" points="0,-22.5 0,-52.5 143,-52.5 143,-22.5 0,-22.5"/>
<text text-anchor="start" x="8" y="-40.5" font-family="Helvetica,sans-Serif" font-size="10.00">leanux::block::MajorMinor</text>
<text text-anchor="middle" x="71.5" y="-29.5" font-family="Helvetica,sans-Serif" font-size="10.00">::getDMName</text>
</a>
</g>
</g>
<!-- Node2 -->
<g id="node2" class="node">
<title>Node2</title>
<g id="a_node2"><a xlink:href="../../d8/db1/namespaceleanux_1_1util.html#a57bfd49353610b3d0b6d121b264c676e" target="_top" xlink:title="read the file as a single string.">
<polygon fill="none" stroke="black" points="179,-50 179,-69 325,-69 325,-50 179,-50"/>
<text text-anchor="middle" x="252" y="-57" font-family="Helvetica,sans-Serif" font-size="10.00">leanux::util::fileReadString</text>
</a>
</g>
</g>
<!-- Node1&#45;&gt;Node2 -->
<g id="edge1" class="edge">
<title>Node1&#45;&gt;Node2</title>
<path fill="none" stroke="midnightblue" d="M143.05,-46.19C151.52,-47.24 160.23,-48.31 168.86,-49.38"/>
<polygon fill="midnightblue" stroke="midnightblue" points="168.56,-52.87 178.92,-50.62 169.42,-45.92 168.56,-52.87"/>
</g>
<!-- Node3 -->
<g id="node3" class="node">
<title>Node3</title>
<g id="a_node3"><a xlink:href="../../d7/d28/classleanux_1_1block_1_1MajorMinor.html#adc3f437e329318ee21bddbbebaeb740e" target="_top" xlink:title="Get the DeviceName for the MajorMinor.">
<polygon fill="none" stroke="black" points="180.5,-0.5 180.5,-30.5 323.5,-30.5 323.5,-0.5 180.5,-0.5"/>
<text text-anchor="start" x="188.5" y="-18.5" font-family="Helvetica,sans-Serif" font-size="10.00">leanux::block::MajorMinor</text>
<text text-anchor="middle" x="252" y="-7.5" font-family="Helvetica,sans-Serif" font-size="10.00">::getNameByMajorMinor</text>
</a>
</g>
</g>
<!-- Node1&#45;&gt;Node3 -->
<g id="edge2" class="edge">
<title>Node1&#45;&gt;Node3</title>
<path fill="none" stroke="midnightblue" d="M143.05,-28.81C151.97,-27.71 161.15,-26.57 170.22,-25.46"/>
<polygon fill="midnightblue" stroke="midnightblue" points="170.88,-28.9 180.38,-24.2 170.03,-21.95 170.88,-28.9"/>
</g>
<!-- Node4 -->
<g id="node4" class="node">
<title>Node4</title>
<g id="a_node4"><a xlink:href="../../d7/d28/classleanux_1_1block_1_1MajorMinor.html#a4d83c063088eb618533f31e2cc78b2f3" target="_top" xlink:title="(re)build the cached mapping between device names and MajorMinor numbers.">
<polygon fill="none" stroke="red" points="361,-0.5 361,-30.5 504,-30.5 504,-0.5 361,-0.5"/>
<text text-anchor="start" x="369" y="-18.5" font-family="Helvetica,sans-Serif" font-size="10.00">leanux::block::MajorMinor</text>
<text text-anchor="middle" x="432.5" y="-7.5" font-family="Helvetica,sans-Serif" font-size="10.00">::buildCache</text>
</a>
</g>
</g>
<!-- Node3&#45;&gt;Node4 -->
<g id="edge3" class="edge">
<title>Node3&#45;&gt;Node4</title>
<path fill="none" stroke="midnightblue" d="M323.55,-15.5C332.47,-15.5 341.65,-15.5 350.72,-15.5"/>
<polygon fill="midnightblue" stroke="midnightblue" points="350.88,-19 360.88,-15.5 350.88,-12 350.88,-19"/>
</g>
</g>
</svg>
