<?xml version="1.0" encoding="UTF-8" standalone="no"?>
<!DOCTYPE svg PUBLIC "-//W3C//DTD SVG 1.1//EN"
 "http://www.w3.org/Graphics/SVG/1.1/DTD/svg11.dtd">
<!-- Generated by graphviz version 2.43.0 (0)
 -->
<!-- Title: leanux::block::MajorMinor::isBCacheDisk Pages: 1 -->
<svg width="828pt" height="623pt"
 viewBox="0.00 0.00 828.00 623.44" xmlns="http://www.w3.org/2000/svg" xmlns:xlink="http://www.w3.org/1999/xlink">
<g id="graph0" class="graph" transform="scale(1 1) rotate(0) translate(4 619.44)">
<title>leanux::block::MajorMinor::isBCacheDisk</title>
<!-- Node1 -->
<g id="node1" class="node">
<title>Node1</title>
<g id="a_node1"><a xlink:title="determine if the MajorMinor represents a bcache disk.">
<polygon fill="#bfbfbf" stroke="black" points="677,-185.65 677,-215.65 820,-215.65 820,-185.65 677,-185.65"/>
<text text-anchor="start" x="685" y="-203.65" font-family="Helvetica,sans-Serif" font-size="10.00">leanux::block::MajorMinor</text>
<text text-anchor="middle" x="748.5" y="-192.65" font-family="Helvetica,sans-Serif" font-size="10.00">::isBCacheDisk</text>
</a>
</g>
</g>
<!-- Node2 -->
<g id="node2" class="node">
<title>Node2</title>
<g id="a_node2"><a xlink:href="../../d7/d28/classleanux_1_1block_1_1MajorMinor.html#a5771b2baf04dd79e61c5bcd3f4ec532c" target="_top" xlink:title="Derive the MajorMinor of the whole disk holding a partition.">
<polygon fill="none" stroke="black" points="498,-393.65 498,-423.65 641,-423.65 641,-393.65 498,-393.65"/>
<text text-anchor="start" x="506" y="-411.65" font-family="Helvetica,sans-Serif" font-size="10.00">leanux::block::MajorMinor</text>
<text text-anchor="middle" x="569.5" y="-400.65" font-family="Helvetica,sans-Serif" font-size="10.00">::deriveWholeDisk</text>
</a>
</g>
</g>
<!-- Node1&#45;&gt;Node2 -->
<g id="edge1" class="edge">
<title>Node1&#45;&gt;Node2</title>
<path fill="none" stroke="midnightblue" d="M727.97,-223.61C691.48,-266.49 613.9,-357.66 583.3,-393.62"/>
<polygon fill="midnightblue" stroke="midnightblue" points="730.67,-225.83 734.48,-215.95 725.34,-221.3 730.67,-225.83"/>
</g>
<!-- Node4 -->
<g id="node4" class="node">
<title>Node4</title>
<g id="a_node4"><a xlink:href="../../d5/d1b/namespaceleanux_1_1tools_1_1lblk.html#aafee1346a1081bfa4f7470f921cd66b8" target="_top" xlink:title="Direct output run from options.">
<polygon fill="none" stroke="red" points="0,-293.65 0,-323.65 104,-323.65 104,-293.65 0,-293.65"/>
<text text-anchor="start" x="8" y="-311.65" font-family="Helvetica,sans-Serif" font-size="10.00">leanux::tools::lblk</text>
<text text-anchor="middle" x="52" y="-300.65" font-family="Helvetica,sans-Serif" font-size="10.00">::runOptions</text>
</a>
</g>
</g>
<!-- Node1&#45;&gt;Node4 -->
<g id="edge29" class="edge">
<title>Node1&#45;&gt;Node4</title>
<path fill="none" stroke="midnightblue" d="M722.9,-179.03C702.24,-161.79 671.3,-138.05 641,-122.65 441.22,-21.12 323.24,63.37 140,-65.65 62.88,-119.96 53.76,-249.26 52.96,-293.5"/>
<polygon fill="midnightblue" stroke="midnightblue" points="720.67,-181.73 730.57,-185.52 725.2,-176.39 720.67,-181.73"/>
</g>
<!-- Node40 -->
<g id="node13" class="node">
<title>Node40</title>
<g id="a_node13"><a xlink:href="../../d7/d28/classleanux_1_1block_1_1MajorMinor.html#ad8b93c3f6fc290008c2025e5e3d42eb5" target="_top" xlink:title="Get the DeviceClass for a MajorMinor.">
<polygon fill="none" stroke="black" points="319,-75.65 319,-105.65 462,-105.65 462,-75.65 319,-75.65"/>
<text text-anchor="start" x="327" y="-93.65" font-family="Helvetica,sans-Serif" font-size="10.00">leanux::block::MajorMinor</text>
<text text-anchor="middle" x="390.5" y="-82.65" font-family="Helvetica,sans-Serif" font-size="10.00">::getClass</text>
</a>
</g>
</g>
<!-- Node1&#45;&gt;Node40 -->
<g id="edge14" class="edge">
<title>Node1&#45;&gt;Node40</title>
<path fill="none" stroke="midnightblue" d="M688.84,-182.53C619.39,-161.07 505.02,-125.73 440.23,-105.71"/>
<polygon fill="midnightblue" stroke="midnightblue" points="688.16,-185.98 698.75,-185.59 690.23,-179.29 688.16,-185.98"/>
</g>
<!-- Node45 -->
<g id="node17" class="node">
<title>Node45</title>
<g id="a_node17"><a xlink:href="../../d7/d28/classleanux_1_1block_1_1MajorMinor.html#ad5136fe7853cb6f2ca04eadb465976da" target="_top" xlink:title=" ">
<polygon fill="none" stroke="black" points="498,-246.65 498,-276.65 641,-276.65 641,-246.65 498,-246.65"/>
<text text-anchor="start" x="506" y="-264.65" font-family="Helvetica,sans-Serif" font-size="10.00">leanux::block::MajorMinor</text>
<text text-anchor="middle" x="569.5" y="-253.65" font-family="Helvetica,sans-Serif" font-size="10.00">::isPartition</text>
</a>
</g>
</g>
<!-- Node1&#45;&gt;Node45 -->
<g id="edge19" class="edge">
<title>Node1&#45;&gt;Node45</title>
<path fill="none" stroke="midnightblue" d="M694.18,-219.03C668.57,-227.86 638.26,-238.3 614.06,-246.64"/>
<polygon fill="midnightblue" stroke="midnightblue" points="695.43,-222.3 703.75,-215.73 693.15,-215.68 695.43,-222.3"/>
</g>
<!-- Node3 -->
<g id="node3" class="node">
<title>Node3</title>
<g id="a_node3"><a xlink:href="../../d5/d1b/namespaceleanux_1_1tools_1_1lblk.html#ade16c362a9900ba9267433bf57da42ce" target="_top" xlink:title="Write disk details.">
<polygon fill="none" stroke="black" points="159.5,-369.65 159.5,-399.65 263.5,-399.65 263.5,-369.65 159.5,-369.65"/>
<text text-anchor="start" x="167.5" y="-387.65" font-family="Helvetica,sans-Serif" font-size="10.00">leanux::tools::lblk</text>
<text text-anchor="middle" x="211.5" y="-376.65" font-family="Helvetica,sans-Serif" font-size="10.00">::detailDisk</text>
</a>
</g>
</g>
<!-- Node2&#45;&gt;Node3 -->
<g id="edge2" class="edge">
<title>Node2&#45;&gt;Node3</title>
<path fill="none" stroke="midnightblue" d="M552.01,-432.01C533.35,-456.2 500.5,-492.52 462,-507.65 402.85,-530.9 376.81,-534.07 319,-507.65 269.93,-485.23 234.8,-427.8 220.12,-400.08"/>
<polygon fill="midnightblue" stroke="midnightblue" points="555.03,-433.81 558.22,-423.71 549.43,-429.62 555.03,-433.81"/>
</g>
<!-- Node7 -->
<g id="node5" class="node">
<title>Node7</title>
<g id="a_node5"><a xlink:href="../../d7/d28/classleanux_1_1block_1_1MajorMinor.html#af09033a9db9d908d1132bbab667a0801" target="_top" xlink:title="Get a list of devices holding (using) the device m.">
<polygon fill="none" stroke="red" points="319,-271.65 319,-301.65 462,-301.65 462,-271.65 319,-271.65"/>
<text text-anchor="start" x="327" y="-289.65" font-family="Helvetica,sans-Serif" font-size="10.00">leanux::block::MajorMinor</text>
<text text-anchor="middle" x="390.5" y="-278.65" font-family="Helvetica,sans-Serif" font-size="10.00">::getHolders</text>
</a>
</g>
</g>
<!-- Node2&#45;&gt;Node7 -->
<g id="edge4" class="edge">
<title>Node2&#45;&gt;Node7</title>
<path fill="none" stroke="midnightblue" d="M548.73,-386.04C528.74,-364.37 496.01,-332.03 462,-311.65 455.76,-307.92 448.88,-304.62 441.93,-301.74"/>
<polygon fill="midnightblue" stroke="midnightblue" points="546.19,-388.44 555.5,-393.5 551.37,-383.74 546.19,-388.44"/>
</g>
<!-- Node11 -->
<g id="node6" class="node">
<title>Node11</title>
<g id="a_node6"><a xlink:href="../../d7/d28/classleanux_1_1block_1_1MajorMinor.html#aefbe4f5de2bcdf31cfb0ece97e8e12e7" target="_top" xlink:title="get the IO scheduler (elevator) configured for the device.">
<polygon fill="none" stroke="red" points="319,-222.65 319,-252.65 462,-252.65 462,-222.65 319,-222.65"/>
<text text-anchor="start" x="327" y="-240.65" font-family="Helvetica,sans-Serif" font-size="10.00">leanux::block::MajorMinor</text>
<text text-anchor="middle" x="390.5" y="-229.65" font-family="Helvetica,sans-Serif" font-size="10.00">::getIOScheduler</text>
</a>
</g>
</g>
<!-- Node2&#45;&gt;Node11 -->
<g id="edge5" class="edge">
<title>Node2&#45;&gt;Node11</title>
<path fill="none" stroke="midnightblue" d="M556.71,-384.36C539.93,-352.17 506.22,-295.63 462,-262.65 456.9,-258.85 451.17,-255.59 445.23,-252.8"/>
<polygon fill="midnightblue" stroke="midnightblue" points="553.72,-386.19 561.37,-393.51 559.96,-383.01 553.72,-386.19"/>
</g>
<!-- Node18 -->
<g id="node7" class="node">
<title>Node18</title>
<g id="a_node7"><a xlink:href="../../d7/d28/classleanux_1_1block_1_1MajorMinor.html#a80d3a92692140016ab3973ace30d65c2" target="_top" xlink:title="get the read&#45;ahead size for the device">
<polygon fill="none" stroke="red" points="319,-467.65 319,-497.65 462,-497.65 462,-467.65 319,-467.65"/>
<text text-anchor="start" x="327" y="-485.65" font-family="Helvetica,sans-Serif" font-size="10.00">leanux::block::MajorMinor</text>
<text text-anchor="middle" x="390.5" y="-474.65" font-family="Helvetica,sans-Serif" font-size="10.00">::getReadAhead</text>
</a>
</g>
</g>
<!-- Node2&#45;&gt;Node18 -->
<g id="edge6" class="edge">
<title>Node2&#45;&gt;Node18</title>
<path fill="none" stroke="midnightblue" d="M529.51,-428.23C509.55,-437.92 484.73,-449.48 462,-458.65 454.33,-461.75 446.08,-464.8 438.04,-467.63"/>
<polygon fill="midnightblue" stroke="midnightblue" points="531.15,-431.32 538.6,-423.78 528.08,-425.03 531.15,-431.32"/>
</g>
<!-- Node19 -->
<g id="node8" class="node">
<title>Node19</title>
<g id="a_node8"><a xlink:href="../../d7/d28/classleanux_1_1block_1_1MajorMinor.html#ae8569c67c7ab725af5c89e8e01011a7b" target="_top" xlink:title="Chech if a disk is mechanical or solid state.">
<polygon fill="none" stroke="red" points="319,-418.65 319,-448.65 462,-448.65 462,-418.65 319,-418.65"/>
<text text-anchor="start" x="327" y="-436.65" font-family="Helvetica,sans-Serif" font-size="10.00">leanux::block::MajorMinor</text>
<text text-anchor="middle" x="390.5" y="-425.65" font-family="Helvetica,sans-Serif" font-size="10.00">::getRotational</text>
</a>
</g>
</g>
<!-- Node2&#45;&gt;Node19 -->
<g id="edge7" class="edge">
<title>Node2&#45;&gt;Node19</title>
<path fill="none" stroke="midnightblue" d="M487.79,-420.05C479.22,-421.26 470.55,-422.49 462.11,-423.68"/>
<polygon fill="midnightblue" stroke="midnightblue" points="488.37,-423.51 497.78,-418.64 487.39,-416.58 488.37,-423.51"/>
</g>
<!-- Node21 -->
<g id="node9" class="node">
<title>Node21</title>
<g id="a_node9"><a xlink:href="../../d7/d28/classleanux_1_1block_1_1MajorMinor.html#a89962016f65109842c3941fa188eae95" target="_top" xlink:title="get the device sector size.">
<polygon fill="none" stroke="red" points="319,-555.65 319,-585.65 462,-585.65 462,-555.65 319,-555.65"/>
<text text-anchor="start" x="327" y="-573.65" font-family="Helvetica,sans-Serif" font-size="10.00">leanux::block::MajorMinor</text>
<text text-anchor="middle" x="390.5" y="-562.65" font-family="Helvetica,sans-Serif" font-size="10.00">::getSectorSize</text>
</a>
</g>
</g>
<!-- Node2&#45;&gt;Node21 -->
<g id="edge8" class="edge">
<title>Node2&#45;&gt;Node21</title>
<path fill="none" stroke="midnightblue" d="M554.5,-432.38C536.37,-461.35 502.28,-510.22 462,-540.65 454.25,-546.51 445.19,-551.46 436.2,-555.56"/>
<polygon fill="midnightblue" stroke="midnightblue" points="557.57,-434.08 559.81,-423.73 551.6,-430.42 557.57,-434.08"/>
</g>
<!-- Node23 -->
<g id="node10" class="node">
<title>Node23</title>
<g id="a_node10"><a xlink:href="../../d7/d28/classleanux_1_1block_1_1MajorMinor.html#a5466f74de32fbbcaccceff77133e2b7b" target="_top" xlink:title="Get a list of devices slave to the device m.">
<polygon fill="none" stroke="black" points="319,-320.65 319,-350.65 462,-350.65 462,-320.65 319,-320.65"/>
<text text-anchor="start" x="327" y="-338.65" font-family="Helvetica,sans-Serif" font-size="10.00">leanux::block::MajorMinor</text>
<text text-anchor="middle" x="390.5" y="-327.65" font-family="Helvetica,sans-Serif" font-size="10.00">::getSlaves</text>
</a>
</g>
</g>
<!-- Node2&#45;&gt;Node23 -->
<g id="edge9" class="edge">
<title>Node2&#45;&gt;Node23</title>
<path fill="none" stroke="midnightblue" d="M527.38,-389.16C507.75,-380.11 483.83,-369.43 462,-360.65 453.57,-357.26 444.47,-353.86 435.71,-350.7"/>
<polygon fill="midnightblue" stroke="midnightblue" points="526.1,-392.43 536.64,-393.46 529.04,-386.08 526.1,-392.43"/>
</g>
<!-- Node24 -->
<g id="node11" class="node">
<title>Node24</title>
<g id="a_node11"><a xlink:href="../../d7/d28/classleanux_1_1block_1_1MajorMinor.html#a742f510de3aea2ec0a1eb112e3ca3c1e" target="_top" xlink:title="return the full device path as it appears under /sys/devices/block">
<polygon fill="none" stroke="red" points="319,-369.65 319,-399.65 462,-399.65 462,-369.65 319,-369.65"/>
<text text-anchor="start" x="327" y="-387.65" font-family="Helvetica,sans-Serif" font-size="10.00">leanux::block::MajorMinor</text>
<text text-anchor="middle" x="390.5" y="-376.65" font-family="Helvetica,sans-Serif" font-size="10.00">::getSysPath</text>
</a>
</g>
</g>
<!-- Node2&#45;&gt;Node24 -->
<g id="edge10" class="edge">
<title>Node2&#45;&gt;Node24</title>
<path fill="none" stroke="midnightblue" d="M487.79,-397.71C479.22,-396.55 470.55,-395.37 462.11,-394.23"/>
<polygon fill="midnightblue" stroke="midnightblue" points="487.4,-401.19 497.78,-399.07 488.34,-394.25 487.4,-401.19"/>
</g>
<!-- Node37 -->
<g id="node12" class="node">
<title>Node37</title>
<g id="a_node12"><a xlink:href="../../d5/d1b/namespaceleanux_1_1tools_1_1lblk.html#a514a93d2172ba20b92f77ba1062d822c" target="_top" xlink:title="Write the tree of slaves beneath and including mm, append to tab, starting with level.">
<polygon fill="none" stroke="red" points="159.5,-508.65 159.5,-538.65 263.5,-538.65 263.5,-508.65 159.5,-508.65"/>
<text text-anchor="start" x="167.5" y="-526.65" font-family="Helvetica,sans-Serif" font-size="10.00">leanux::tools::lblk</text>
<text text-anchor="middle" x="211.5" y="-515.65" font-family="Helvetica,sans-Serif" font-size="10.00">::printSlaveTree</text>
</a>
</g>
</g>
<!-- Node2&#45;&gt;Node37 -->
<g id="edge12" class="edge">
<title>Node2&#45;&gt;Node37</title>
<path fill="none" stroke="midnightblue" d="M562.81,-433.71C551.72,-476 522.75,-560.34 462,-595.65 407.05,-627.59 379.77,-614.27 319,-595.65 282.72,-584.54 247.66,-556.44 228.2,-538.81"/>
<polygon fill="midnightblue" stroke="midnightblue" points="566.23,-434.48 565.26,-423.93 559.44,-432.78 566.23,-434.48"/>
</g>
<!-- Node3&#45;&gt;Node4 -->
<g id="edge3" class="edge">
<title>Node3&#45;&gt;Node4</title>
<path fill="none" stroke="midnightblue" d="M170.29,-365.25C143.57,-352.36 109,-335.67 84.32,-323.77"/>
<polygon fill="midnightblue" stroke="midnightblue" points="168.86,-368.45 179.38,-369.64 171.9,-362.14 168.86,-368.45"/>
</g>
<!-- Node24&#45;&gt;Node3 -->
<g id="edge11" class="edge">
<title>Node24&#45;&gt;Node3</title>
<path fill="none" stroke="midnightblue" d="M308.35,-384.65C293.17,-384.65 277.71,-384.65 263.76,-384.65"/>
<polygon fill="midnightblue" stroke="midnightblue" points="308.78,-388.15 318.78,-384.65 308.78,-381.15 308.78,-388.15"/>
</g>
<!-- Node37&#45;&gt;Node4 -->
<g id="edge13" class="edge">
<title>Node37&#45;&gt;Node4</title>
<path fill="none" stroke="midnightblue" d="M193.46,-500.39C161,-456.09 91.16,-360.75 64.06,-323.76"/>
<polygon fill="midnightblue" stroke="midnightblue" points="190.69,-502.54 199.42,-508.54 196.34,-498.4 190.69,-502.54"/>
</g>
<!-- Node40&#45;&gt;Node4 -->
<g id="edge18" class="edge">
<title>Node40&#45;&gt;Node4</title>
<path fill="none" stroke="midnightblue" d="M322.44,-111.58C321.25,-112.56 320.1,-113.58 319,-114.65 285.8,-147.07 315.09,-179.14 283,-212.65 234.67,-263.13 155.78,-288.12 104.13,-299.7"/>
<polygon fill="midnightblue" stroke="midnightblue" points="324.62,-114.33 330.85,-105.76 320.63,-108.57 324.62,-114.33"/>
</g>
<!-- Node41 -->
<g id="node14" class="node">
<title>Node41</title>
<g id="a_node14"><a xlink:href="../../d7/d28/classleanux_1_1block_1_1MajorMinor.html#a0262599b45d4425a1841853e830a7c46" target="_top" xlink:title="Get a descriptive string for the device type of the MajorMinor.">
<polygon fill="none" stroke="red" points="140,-173.65 140,-203.65 283,-203.65 283,-173.65 140,-173.65"/>
<text text-anchor="start" x="148" y="-191.65" font-family="Helvetica,sans-Serif" font-size="10.00">leanux::block::MajorMinor</text>
<text text-anchor="middle" x="211.5" y="-180.65" font-family="Helvetica,sans-Serif" font-size="10.00">::getClassStr</text>
</a>
</g>
</g>
<!-- Node40&#45;&gt;Node41 -->
<g id="edge15" class="edge">
<title>Node40&#45;&gt;Node41</title>
<path fill="none" stroke="midnightblue" d="M325.43,-110.4C323.21,-111.73 321.05,-113.15 319,-114.65 297.21,-130.63 304.69,-147.54 283,-163.65 277.89,-167.45 272.16,-170.71 266.22,-173.49"/>
<polygon fill="midnightblue" stroke="midnightblue" points="327.14,-113.46 334.33,-105.68 323.86,-107.28 327.14,-113.46"/>
</g>
<!-- Node9 -->
<g id="node15" class="node">
<title>Node9</title>
<g id="a_node15"><a xlink:href="../../d7/d28/classleanux_1_1block_1_1MajorMinor.html#a26a2363b1eea927b6ebb4aad44dea876" target="_top" xlink:title="Get a pretty&#45;print description for the device.">
<polygon fill="none" stroke="red" points="140,-124.65 140,-154.65 283,-154.65 283,-124.65 140,-124.65"/>
<text text-anchor="start" x="148" y="-142.65" font-family="Helvetica,sans-Serif" font-size="10.00">leanux::block::MajorMinor</text>
<text text-anchor="middle" x="211.5" y="-131.65" font-family="Helvetica,sans-Serif" font-size="10.00">::getDescription</text>
</a>
</g>
</g>
<!-- Node40&#45;&gt;Node9 -->
<g id="edge16" class="edge">
<title>Node40&#45;&gt;Node9</title>
<path fill="none" stroke="midnightblue" d="M325.13,-108.48C306.01,-113.77 285.28,-119.51 266.87,-124.6"/>
<polygon fill="midnightblue" stroke="midnightblue" points="326.25,-111.8 334.95,-105.76 324.38,-105.05 326.25,-111.8"/>
</g>
<!-- Node44 -->
<g id="node16" class="node">
<title>Node44</title>
<g id="a_node16"><a xlink:href="../../d7/d28/classleanux_1_1block_1_1MajorMinor.html#a52999f02212469e3e0e74760d7637470" target="_top" xlink:title="Retrieve a string identifying a disk on a best&#45;efffort basis.">
<polygon fill="none" stroke="red" points="140,-75.65 140,-105.65 283,-105.65 283,-75.65 140,-75.65"/>
<text text-anchor="start" x="148" y="-93.65" font-family="Helvetica,sans-Serif" font-size="10.00">leanux::block::MajorMinor</text>
<text text-anchor="middle" x="211.5" y="-82.65" font-family="Helvetica,sans-Serif" font-size="10.00">::getDiskId</text>
</a>
</g>
</g>
<!-- Node40&#45;&gt;Node44 -->
<g id="edge17" class="edge">
<title>Node40&#45;&gt;Node44</title>
<path fill="none" stroke="midnightblue" d="M308.51,-90.65C300.03,-90.65 291.46,-90.65 283.11,-90.65"/>
<polygon fill="midnightblue" stroke="midnightblue" points="308.78,-94.15 318.78,-90.65 308.78,-87.15 308.78,-94.15"/>
</g>
<!-- Node45&#45;&gt;Node7 -->
<g id="edge22" class="edge">
<title>Node45&#45;&gt;Node7</title>
<path fill="none" stroke="midnightblue" d="M487.79,-273.05C479.22,-274.26 470.55,-275.49 462.11,-276.68"/>
<polygon fill="midnightblue" stroke="midnightblue" points="488.37,-276.51 497.78,-271.64 487.39,-269.58 488.37,-276.51"/>
</g>
<!-- Node45&#45;&gt;Node11 -->
<g id="edge23" class="edge">
<title>Node45&#45;&gt;Node11</title>
<path fill="none" stroke="midnightblue" d="M487.79,-250.71C479.22,-249.55 470.55,-248.37 462.11,-247.23"/>
<polygon fill="midnightblue" stroke="midnightblue" points="487.4,-254.19 497.78,-252.07 488.34,-247.25 487.4,-254.19"/>
</g>
<!-- Node45&#45;&gt;Node18 -->
<g id="edge24" class="edge">
<title>Node45&#45;&gt;Node18</title>
<path fill="none" stroke="midnightblue" d="M554.1,-285.66C539.49,-310.26 516.47,-349.74 498,-384.65 480.9,-416.98 489.42,-434.45 462,-458.65 458.12,-462.08 453.74,-465.01 449.09,-467.54"/>
<polygon fill="midnightblue" stroke="midnightblue" points="557.15,-287.38 559.26,-277 551.13,-283.8 557.15,-287.38"/>
</g>
<!-- Node45&#45;&gt;Node19 -->
<g id="edge25" class="edge">
<title>Node45&#45;&gt;Node19</title>
<path fill="none" stroke="midnightblue" d="M556.86,-286.37C540.25,-319.1 506.72,-376.53 462,-409.65 457.43,-413.04 452.35,-415.97 447.06,-418.5"/>
<polygon fill="midnightblue" stroke="midnightblue" points="560.17,-287.57 561.47,-277.06 553.9,-284.47 560.17,-287.57"/>
</g>
<!-- Node45&#45;&gt;Node23 -->
<g id="edge26" class="edge">
<title>Node45&#45;&gt;Node23</title>
<path fill="none" stroke="midnightblue" d="M529.51,-281.23C509.55,-290.92 484.73,-302.48 462,-311.65 454.33,-314.75 446.08,-317.8 438.04,-320.63"/>
<polygon fill="midnightblue" stroke="midnightblue" points="531.15,-284.32 538.6,-276.78 528.08,-278.03 531.15,-284.32"/>
</g>
<!-- Node45&#45;&gt;Node24 -->
<g id="edge27" class="edge">
<title>Node45&#45;&gt;Node24</title>
<path fill="none" stroke="midnightblue" d="M549.22,-284.48C529.37,-306.69 496.55,-340.01 462,-360.65 456.34,-364.04 450.14,-367.02 443.83,-369.64"/>
<polygon fill="midnightblue" stroke="midnightblue" points="551.95,-286.67 555.92,-276.85 546.69,-282.05 551.95,-286.67"/>
</g>
<!-- Node45&#45;&gt;Node40 -->
<g id="edge21" class="edge">
<title>Node45&#45;&gt;Node40</title>
<path fill="none" stroke="midnightblue" d="M556.82,-237.11C540.16,-204.6 506.57,-147.56 462,-114.65 457.42,-111.27 452.34,-108.35 447.05,-105.82"/>
<polygon fill="midnightblue" stroke="midnightblue" points="553.84,-238.97 561.44,-246.35 560.1,-235.84 553.84,-238.97"/>
</g>
<!-- Node46 -->
<g id="node18" class="node">
<title>Node46</title>
<g id="a_node18"><a xlink:href="../../d6/d19/classleanux_1_1sysdevice_1_1BlockPartition.html#a66d61b5a78be267835e09b8d9e4c405f" target="_top" xlink:title="Return true if the SysDevice recognizes itself in the trailing part of path.">
<polygon fill="none" stroke="red" points="329.5,-124.65 329.5,-154.65 451.5,-154.65 451.5,-124.65 329.5,-124.65"/>
<text text-anchor="start" x="337.5" y="-142.65" font-family="Helvetica,sans-Serif" font-size="10.00">leanux::sysdevice::</text>
<text text-anchor="middle" x="390.5" y="-131.65" font-family="Helvetica,sans-Serif" font-size="10.00">BlockPartition::accept</text>
</a>
</g>
</g>
<!-- Node45&#45;&gt;Node46 -->
<g id="edge20" class="edge">
<title>Node45&#45;&gt;Node46</title>
<path fill="none" stroke="midnightblue" d="M549.17,-239.07C529.29,-217.09 496.44,-184.11 462,-163.65 456.33,-160.29 450.12,-157.31 443.81,-154.7"/>
<polygon fill="midnightblue" stroke="midnightblue" points="546.63,-241.48 555.89,-246.62 551.86,-236.82 546.63,-241.48"/>
</g>
<!-- Node53 -->
<g id="node19" class="node">
<title>Node53</title>
<g id="a_node19"><a xlink:href="../../d7/d28/classleanux_1_1block_1_1MajorMinor.html#a0538b77a5964620e5c5cd2943e631049" target="_top" xlink:title="Check if a disk is a whole disk (and not a partition).">
<polygon fill="none" stroke="black" points="319,-173.65 319,-203.65 462,-203.65 462,-173.65 319,-173.65"/>
<text text-anchor="start" x="327" y="-191.65" font-family="Helvetica,sans-Serif" font-size="10.00">leanux::block::MajorMinor</text>
<text text-anchor="middle" x="390.5" y="-180.65" font-family="Helvetica,sans-Serif" font-size="10.00">::isWholeDisk</text>
</a>
</g>
</g>
<!-- Node45&#45;&gt;Node53 -->
<g id="edge28" class="edge">
<title>Node45&#45;&gt;Node53</title>
<path fill="none" stroke="midnightblue" d="M528.6,-242.11C508.79,-232.71 484.36,-221.57 462,-212.65 454.31,-209.59 446.07,-206.55 438.02,-203.73"/>
<polygon fill="midnightblue" stroke="midnightblue" points="527.11,-245.28 537.64,-246.43 530.13,-238.96 527.11,-245.28"/>
</g>
</g>
</svg>
