<?xml version="1.0" encoding="UTF-8" standalone="no"?>
<!DOCTYPE svg PUBLIC "-//W3C//DTD SVG 1.1//EN"
 "http://www.w3.org/Graphics/SVG/1.1/DTD/svg11.dtd">
<!-- Generated by graphviz version 2.43.0 (0)
 -->
<!-- Title: leanux::block::MajorMinor::getRotational Pages: 1 -->
<svg width="691pt" height="529pt"
 viewBox="0.00 0.00 691.00 528.71" xmlns="http://www.w3.org/2000/svg" xmlns:xlink="http://www.w3.org/1999/xlink">
<g id="graph0" class="graph" transform="scale(1 1) rotate(0) translate(4 524.71)">
<title>leanux::block::MajorMinor::getRotational</title>
<!-- Node1 -->
<g id="node1" class="node">
<title>Node1</title>
<g id="a_node1"><a xlink:title="Chech if a disk is mechanical or solid state.">
<polygon fill="#bfbfbf" stroke="black" points="0,-123 0,-153 143,-153 143,-123 0,-123"/>
<text text-anchor="start" x="8" y="-141" font-family="Helvetica,sans-Serif" font-size="10.00">leanux::block::MajorMinor</text>
<text text-anchor="middle" x="71.5" y="-130" font-family="Helvetica,sans-Serif" font-size="10.00">::getRotational</text>
</a>
</g>
</g>
<!-- Node2 -->
<g id="node2" class="node">
<title>Node2</title>
<g id="a_node2"><a xlink:href="../../d7/d28/classleanux_1_1block_1_1MajorMinor.html#a5771b2baf04dd79e61c5bcd3f4ec532c" target="_top" xlink:title="Derive the MajorMinor of the whole disk holding a partition.">
<polygon fill="none" stroke="black" points="180.5,-238 180.5,-268 323.5,-268 323.5,-238 180.5,-238"/>
<text text-anchor="start" x="188.5" y="-256" font-family="Helvetica,sans-Serif" font-size="10.00">leanux::block::MajorMinor</text>
<text text-anchor="middle" x="252" y="-245" font-family="Helvetica,sans-Serif" font-size="10.00">::deriveWholeDisk</text>
</a>
</g>
</g>
<!-- Node1&#45;&gt;Node2 -->
<g id="edge1" class="edge">
<title>Node1&#45;&gt;Node2</title>
<path fill="none" stroke="midnightblue" d="M95.84,-153.03C127.37,-173.35 183.72,-209.65 219.13,-232.47"/>
<polygon fill="midnightblue" stroke="midnightblue" points="217.36,-235.49 227.66,-237.96 221.15,-229.6 217.36,-235.49"/>
</g>
<!-- Node7 -->
<g id="node4" class="node">
<title>Node7</title>
<g id="a_node4"><a xlink:href="../../d7/d28/classleanux_1_1block_1_1MajorMinor.html#adc3f437e329318ee21bddbbebaeb740e" target="_top" xlink:title="Get the DeviceName for the MajorMinor.">
<polygon fill="none" stroke="red" points="540,-361 540,-391 683,-391 683,-361 540,-361"/>
<text text-anchor="start" x="548" y="-379" font-family="Helvetica,sans-Serif" font-size="10.00">leanux::block::MajorMinor</text>
<text text-anchor="middle" x="611.5" y="-368" font-family="Helvetica,sans-Serif" font-size="10.00">::getNameByMajorMinor</text>
</a>
</g>
</g>
<!-- Node1&#45;&gt;Node7 -->
<g id="edge16" class="edge">
<title>Node1&#45;&gt;Node7</title>
<path fill="none" stroke="midnightblue" d="M96.72,-122.98C166.99,-81.51 374.19,25.56 504,-67 597.94,-133.99 609.84,-289.52 610.76,-350.66"/>
<polygon fill="midnightblue" stroke="midnightblue" points="607.26,-350.96 610.82,-360.94 614.26,-350.92 607.26,-350.96"/>
</g>
<!-- Node14 -->
<g id="node12" class="node">
<title>Node14</title>
<g id="a_node12"><a xlink:href="../../d8/db1/namespaceleanux_1_1util.html#a57bfd49353610b3d0b6d121b264c676e" target="_top" xlink:title="read the file as a single string.">
<polygon fill="none" stroke="black" points="179,-0.5 179,-19.5 325,-19.5 325,-0.5 179,-0.5"/>
<text text-anchor="middle" x="252" y="-7.5" font-family="Helvetica,sans-Serif" font-size="10.00">leanux::util::fileReadString</text>
</a>
</g>
</g>
<!-- Node1&#45;&gt;Node14 -->
<g id="edge15" class="edge">
<title>Node1&#45;&gt;Node14</title>
<path fill="none" stroke="midnightblue" d="M84.28,-122.72C102.36,-100.26 139.06,-58.35 179,-34 186.2,-29.61 194.29,-25.92 202.39,-22.85"/>
<polygon fill="midnightblue" stroke="midnightblue" points="203.57,-26.14 211.84,-19.52 201.24,-19.54 203.57,-26.14"/>
</g>
<!-- Node15 -->
<g id="node13" class="node">
<title>Node15</title>
<g id="a_node13"><a xlink:href="../../d7/d28/classleanux_1_1block_1_1MajorMinor.html#ad5136fe7853cb6f2ca04eadb465976da" target="_top" xlink:title=" ">
<polygon fill="none" stroke="black" points="180.5,-312 180.5,-342 323.5,-342 323.5,-312 180.5,-312"/>
<text text-anchor="start" x="188.5" y="-330" font-family="Helvetica,sans-Serif" font-size="10.00">leanux::block::MajorMinor</text>
<text text-anchor="middle" x="252" y="-319" font-family="Helvetica,sans-Serif" font-size="10.00">::isPartition</text>
</a>
</g>
</g>
<!-- Node1&#45;&gt;Node15 -->
<g id="edge17" class="edge">
<title>Node1&#45;&gt;Node15</title>
<path fill="none" stroke="midnightblue" d="M81.75,-153C98.79,-179.87 137.21,-237.12 179,-277 190.36,-287.84 204.26,-298.07 216.81,-306.41"/>
<polygon fill="midnightblue" stroke="midnightblue" points="214.93,-309.37 225.23,-311.87 218.74,-303.49 214.93,-309.37"/>
</g>
<!-- Node3 -->
<g id="node3" class="node">
<title>Node3</title>
<g id="a_node3"><a xlink:href="../../d7/d28/classleanux_1_1block_1_1MajorMinor.html#a3f7315088bb27e09449e3c2542b65958" target="_top" xlink:title="Get the MajorMinor for the device name.">
<polygon fill="none" stroke="red" points="361,-77 361,-107 504,-107 504,-77 361,-77"/>
<text text-anchor="start" x="369" y="-95" font-family="Helvetica,sans-Serif" font-size="10.00">leanux::block::MajorMinor</text>
<text text-anchor="middle" x="432.5" y="-84" font-family="Helvetica,sans-Serif" font-size="10.00">::getMajorMinorByName</text>
</a>
</g>
</g>
<!-- Node2&#45;&gt;Node3 -->
<g id="edge2" class="edge">
<title>Node2&#45;&gt;Node3</title>
<path fill="none" stroke="midnightblue" d="M262.15,-237.63C278.78,-210.86 316.38,-155.35 361,-122 366.1,-118.19 371.77,-114.75 377.6,-111.68"/>
<polygon fill="midnightblue" stroke="midnightblue" points="379.4,-114.69 386.85,-107.16 376.33,-108.4 379.4,-114.69"/>
</g>
<!-- Node2&#45;&gt;Node7 -->
<g id="edge3" class="edge">
<title>Node2&#45;&gt;Node7</title>
<path fill="none" stroke="midnightblue" d="M263.79,-237.71C281.16,-214.6 317.78,-171.69 361,-155 420.29,-132.11 450.18,-121.19 504,-155 573.76,-198.82 598.9,-302.6 607.03,-350.7"/>
<polygon fill="midnightblue" stroke="midnightblue" points="603.62,-351.54 608.63,-360.88 610.53,-350.45 603.62,-351.54"/>
</g>
<!-- Node8 -->
<g id="node5" class="node">
<title>Node8</title>
<g id="a_node5"><a xlink:href="../../d7/d28/classleanux_1_1block_1_1MajorMinor.html#a59e3fe2f1a574b79bad1fe48a2334c27" target="_top" xlink:title="determine if the MajorMinor represents a bcache disk.">
<polygon fill="none" stroke="black" points="361,-459 361,-489 504,-489 504,-459 361,-459"/>
<text text-anchor="start" x="369" y="-477" font-family="Helvetica,sans-Serif" font-size="10.00">leanux::block::MajorMinor</text>
<text text-anchor="middle" x="432.5" y="-466" font-family="Helvetica,sans-Serif" font-size="10.00">::isBCacheDisk</text>
</a>
</g>
</g>
<!-- Node2&#45;&gt;Node8 -->
<g id="edge4" class="edge">
<title>Node2&#45;&gt;Node8</title>
<path fill="none" stroke="midnightblue" d="M285.09,-268C299.29,-276.17 315.01,-287.58 325,-302 363.55,-357.64 315.32,-400.04 361,-450 361.88,-450.97 362.81,-451.89 363.77,-452.78"/>
<polygon fill="midnightblue" stroke="midnightblue" points="361.68,-455.6 371.75,-458.9 365.94,-450.04 361.68,-455.6"/>
</g>
<!-- Node9 -->
<g id="node6" class="node">
<title>Node9</title>
<g id="a_node6"><a xlink:href="../../d7/d28/classleanux_1_1block_1_1MajorMinor.html#a546aa9297e382543cb031126190bc8c9" target="_top" xlink:title="determine if the major represents an IDE disk.">
<polygon fill="none" stroke="black" points="361,-263 361,-293 504,-293 504,-263 361,-263"/>
<text text-anchor="start" x="369" y="-281" font-family="Helvetica,sans-Serif" font-size="10.00">leanux::block::MajorMinor</text>
<text text-anchor="middle" x="432.5" y="-270" font-family="Helvetica,sans-Serif" font-size="10.00">::isIDEDisk</text>
</a>
</g>
</g>
<!-- Node2&#45;&gt;Node9 -->
<g id="edge6" class="edge">
<title>Node2&#45;&gt;Node9</title>
<path fill="none" stroke="midnightblue" d="M323.55,-262.88C332.47,-264.13 341.65,-265.42 350.72,-266.69"/>
<polygon fill="midnightblue" stroke="midnightblue" points="350.49,-270.19 360.88,-268.11 351.46,-263.26 350.49,-270.19"/>
</g>
<!-- Node10 -->
<g id="node7" class="node">
<title>Node10</title>
<g id="a_node7"><a xlink:href="../../d7/d28/classleanux_1_1block_1_1MajorMinor.html#a852aa9e7ee1c107c95cd27ad47b5cf86" target="_top" xlink:title="determine if the MajorMinor represents an MMC disk.">
<polygon fill="none" stroke="black" points="361,-410 361,-440 504,-440 504,-410 361,-410"/>
<text text-anchor="start" x="369" y="-428" font-family="Helvetica,sans-Serif" font-size="10.00">leanux::block::MajorMinor</text>
<text text-anchor="middle" x="432.5" y="-417" font-family="Helvetica,sans-Serif" font-size="10.00">::isMMCDisk</text>
</a>
</g>
</g>
<!-- Node2&#45;&gt;Node10 -->
<g id="edge7" class="edge">
<title>Node2&#45;&gt;Node10</title>
<path fill="none" stroke="midnightblue" d="M283.64,-268.1C297.87,-276.42 314.02,-287.93 325,-302 353.55,-338.58 328,-367.37 361,-400 362.45,-401.44 364,-402.79 365.61,-404.07"/>
<polygon fill="midnightblue" stroke="midnightblue" points="363.95,-407.17 374.2,-409.84 367.85,-401.36 363.95,-407.17"/>
</g>
<!-- Node11 -->
<g id="node8" class="node">
<title>Node11</title>
<g id="a_node8"><a xlink:href="../../d7/d28/classleanux_1_1block_1_1MajorMinor.html#ab248c720a63908f9e3ef78ed23536de8" target="_top" xlink:title="determine if the MajorMinor represents a NVMe disk.">
<polygon fill="none" stroke="black" points="361,-361 361,-391 504,-391 504,-361 361,-361"/>
<text text-anchor="start" x="369" y="-379" font-family="Helvetica,sans-Serif" font-size="10.00">leanux::block::MajorMinor</text>
<text text-anchor="middle" x="432.5" y="-368" font-family="Helvetica,sans-Serif" font-size="10.00">::isNVMeDisk</text>
</a>
</g>
</g>
<!-- Node2&#45;&gt;Node11 -->
<g id="edge9" class="edge">
<title>Node2&#45;&gt;Node11</title>
<path fill="none" stroke="midnightblue" d="M279.58,-268.05C293.91,-276.89 311.4,-288.88 325,-302 344.45,-320.76 339.31,-334.88 361,-351 363.47,-352.84 366.1,-354.55 368.82,-356.14"/>
<polygon fill="midnightblue" stroke="midnightblue" points="367.3,-359.3 377.78,-360.84 370.55,-353.1 367.3,-359.3"/>
</g>
<!-- Node12 -->
<g id="node9" class="node">
<title>Node12</title>
<g id="a_node9"><a xlink:href="../../d7/d28/classleanux_1_1block_1_1MajorMinor.html#a6c5b98f8ffc7b8904754ecfe33407e8c" target="_top" xlink:title="determine if the major represents a SCSI disk.">
<polygon fill="none" stroke="black" points="361,-214 361,-244 504,-244 504,-214 361,-214"/>
<text text-anchor="start" x="369" y="-232" font-family="Helvetica,sans-Serif" font-size="10.00">leanux::block::MajorMinor</text>
<text text-anchor="middle" x="432.5" y="-221" font-family="Helvetica,sans-Serif" font-size="10.00">::isSCSIDisk</text>
</a>
</g>
</g>
<!-- Node2&#45;&gt;Node12 -->
<g id="edge11" class="edge">
<title>Node2&#45;&gt;Node12</title>
<path fill="none" stroke="midnightblue" d="M323.55,-243.51C332.47,-242.32 341.65,-241.08 350.72,-239.86"/>
<polygon fill="midnightblue" stroke="midnightblue" points="351.44,-243.3 360.88,-238.5 350.5,-236.36 351.44,-243.3"/>
</g>
<!-- Node13 -->
<g id="node10" class="node">
<title>Node13</title>
<g id="a_node10"><a xlink:href="../../d7/d28/classleanux_1_1block_1_1MajorMinor.html#aaa91d26165ff4b7a32cfe052e72463cc" target="_top" xlink:title="determine if the MajorMinor represents a virtio disk.">
<polygon fill="none" stroke="black" points="361,-312 361,-342 504,-342 504,-312 361,-312"/>
<text text-anchor="start" x="369" y="-330" font-family="Helvetica,sans-Serif" font-size="10.00">leanux::block::MajorMinor</text>
<text text-anchor="middle" x="432.5" y="-319" font-family="Helvetica,sans-Serif" font-size="10.00">::isVirtIODisk</text>
</a>
</g>
</g>
<!-- Node2&#45;&gt;Node13 -->
<g id="edge12" class="edge">
<title>Node2&#45;&gt;Node13</title>
<path fill="none" stroke="midnightblue" d="M284.36,-268.08C305.75,-278.16 334.84,-291.45 361,-302 366.4,-304.18 372.07,-306.36 377.76,-308.48"/>
<polygon fill="midnightblue" stroke="midnightblue" points="376.69,-311.82 387.28,-311.97 379.1,-305.24 376.69,-311.82"/>
</g>
<!-- Node5 -->
<g id="node11" class="node">
<title>Node5</title>
<g id="a_node11"><a xlink:href="../../d7/d28/classleanux_1_1block_1_1MajorMinor.html#a464bd4b85ec6d88f850ef7d76e950f44" target="_top" xlink:title="Default constructor.">
<polygon fill="none" stroke="black" points="361,-165 361,-195 504,-195 504,-165 361,-165"/>
<text text-anchor="start" x="369" y="-183" font-family="Helvetica,sans-Serif" font-size="10.00">leanux::block::MajorMinor</text>
<text text-anchor="middle" x="432.5" y="-172" font-family="Helvetica,sans-Serif" font-size="10.00">::MajorMinor</text>
</a>
</g>
</g>
<!-- Node2&#45;&gt;Node5 -->
<g id="edge14" class="edge">
<title>Node2&#45;&gt;Node5</title>
<path fill="none" stroke="midnightblue" d="M284.31,-237.81C305.69,-227.69 334.77,-214.38 361,-204 365.69,-202.14 370.58,-200.3 375.52,-198.5"/>
<polygon fill="midnightblue" stroke="midnightblue" points="376.76,-201.77 385,-195.11 374.4,-195.18 376.76,-201.77"/>
</g>
<!-- Node8&#45;&gt;Node7 -->
<g id="edge5" class="edge">
<title>Node8&#45;&gt;Node7</title>
<path fill="none" stroke="midnightblue" d="M483.52,-458.92C490.53,-456.25 497.54,-453.26 504,-450 533.14,-435.28 563.45,-413.49 584.24,-397.36"/>
<polygon fill="midnightblue" stroke="midnightblue" points="586.57,-399.99 592.27,-391.06 582.24,-394.48 586.57,-399.99"/>
</g>
<!-- Node10&#45;&gt;Node7 -->
<g id="edge8" class="edge">
<title>Node10&#45;&gt;Node7</title>
<path fill="none" stroke="midnightblue" d="M488.05,-409.9C506.47,-404.8 527.21,-399.06 546.31,-393.77"/>
<polygon fill="midnightblue" stroke="midnightblue" points="547.43,-397.09 556.13,-391.05 545.56,-390.35 547.43,-397.09"/>
</g>
<!-- Node11&#45;&gt;Node7 -->
<g id="edge10" class="edge">
<title>Node11&#45;&gt;Node7</title>
<path fill="none" stroke="midnightblue" d="M504.22,-376C512.57,-376 521.14,-376 529.62,-376"/>
<polygon fill="midnightblue" stroke="midnightblue" points="529.89,-379.5 539.89,-376 529.89,-372.5 529.89,-379.5"/>
</g>
<!-- Node13&#45;&gt;Node7 -->
<g id="edge13" class="edge">
<title>Node13&#45;&gt;Node7</title>
<path fill="none" stroke="midnightblue" d="M488.05,-342.1C506.47,-347.2 527.21,-352.94 546.31,-358.23"/>
<polygon fill="midnightblue" stroke="midnightblue" points="545.56,-361.65 556.13,-360.95 547.43,-354.91 545.56,-361.65"/>
</g>
<!-- Node15&#45;&gt;Node7 -->
<g id="edge18" class="edge">
<title>Node15&#45;&gt;Node7</title>
<path fill="none" stroke="midnightblue" d="M257.07,-342.13C267.46,-377.37 298.67,-464.54 361,-499 416.62,-529.75 446.19,-525.41 504,-499 548.28,-478.77 581.21,-430.03 598,-400.34"/>
<polygon fill="midnightblue" stroke="midnightblue" points="601.15,-401.88 602.88,-391.43 595.01,-398.52 601.15,-401.88"/>
</g>
<!-- Node15&#45;&gt;Node8 -->
<g id="edge19" class="edge">
<title>Node15&#45;&gt;Node8</title>
<path fill="none" stroke="midnightblue" d="M262.41,-342.14C279.16,-367.89 316.58,-420.31 361,-450 363.29,-451.53 365.69,-452.97 368.16,-454.33"/>
<polygon fill="midnightblue" stroke="midnightblue" points="366.84,-457.58 377.36,-458.88 369.95,-451.31 366.84,-457.58"/>
</g>
<!-- Node15&#45;&gt;Node9 -->
<g id="edge20" class="edge">
<title>Node15&#45;&gt;Node9</title>
<path fill="none" stroke="midnightblue" d="M308.01,-311.9C326.59,-306.8 347.51,-301.06 366.77,-295.77"/>
<polygon fill="midnightblue" stroke="midnightblue" points="367.95,-299.07 376.67,-293.05 366.1,-292.32 367.95,-299.07"/>
</g>
<!-- Node15&#45;&gt;Node10 -->
<g id="edge21" class="edge">
<title>Node15&#45;&gt;Node10</title>
<path fill="none" stroke="midnightblue" d="M271.98,-342.03C292.86,-358.02 327.87,-383.27 361,-400 365.27,-402.15 369.77,-404.21 374.34,-406.14"/>
<polygon fill="midnightblue" stroke="midnightblue" points="373.2,-409.46 383.79,-409.94 375.81,-402.96 373.2,-409.46"/>
</g>
<!-- Node15&#45;&gt;Node11 -->
<g id="edge22" class="edge">
<title>Node15&#45;&gt;Node11</title>
<path fill="none" stroke="midnightblue" d="M308.01,-342.1C326.59,-347.2 347.51,-352.94 366.77,-358.23"/>
<polygon fill="midnightblue" stroke="midnightblue" points="366.1,-361.68 376.67,-360.95 367.95,-354.93 366.1,-361.68"/>
</g>
<!-- Node15&#45;&gt;Node12 -->
<g id="edge23" class="edge">
<title>Node15&#45;&gt;Node12</title>
<path fill="none" stroke="midnightblue" d="M274.7,-311.91C304.89,-290.94 356.43,-255.29 361,-253 364.54,-251.23 368.24,-249.53 372.02,-247.93"/>
<polygon fill="midnightblue" stroke="midnightblue" points="373.52,-251.09 381.5,-244.12 370.91,-244.6 373.52,-251.09"/>
</g>
<!-- Node15&#45;&gt;Node13 -->
<g id="edge24" class="edge">
<title>Node15&#45;&gt;Node13</title>
<path fill="none" stroke="midnightblue" d="M323.55,-327C332.47,-327 341.65,-327 350.72,-327"/>
<polygon fill="midnightblue" stroke="midnightblue" points="350.88,-330.5 360.88,-327 350.88,-323.5 350.88,-330.5"/>
</g>
<!-- Node15&#45;&gt;Node5 -->
<g id="edge25" class="edge">
<title>Node15&#45;&gt;Node5</title>
<path fill="none" stroke="midnightblue" d="M281.57,-311.81C295.96,-303.08 312.88,-291.07 325,-277 348.61,-249.59 333.81,-227.86 361,-204 362.34,-202.83 363.73,-201.71 365.18,-200.65"/>
<polygon fill="midnightblue" stroke="midnightblue" points="367.33,-203.43 373.93,-195.14 363.6,-197.51 367.33,-203.43"/>
</g>
</g>
</svg>
