<?xml version="1.0" encoding="UTF-8" standalone="no"?>
<!DOCTYPE svg PUBLIC "-//W3C//DTD SVG 1.1//EN"
 "http://www.w3.org/Graphics/SVG/1.1/DTD/svg11.dtd">
<!-- Generated by graphviz version 2.43.0 (0)
 -->
<!-- Title: leanux::block::MajorMinor::getSysPath Pages: 1 -->
<svg width="688pt" height="486pt"
 viewBox="0.00 0.00 688.00 486.02" xmlns="http://www.w3.org/2000/svg" xmlns:xlink="http://www.w3.org/1999/xlink">
<g id="graph0" class="graph" transform="scale(1 1) rotate(0) translate(4 482.02)">
<title>leanux::block::MajorMinor::getSysPath</title>
<!-- Node1 -->
<g id="node1" class="node">
<title>Node1</title>
<g id="a_node1"><a xlink:title="return the full device path as it appears under /sys/devices/block">
<polygon fill="#bfbfbf" stroke="black" points="0,-150.52 0,-180.52 143,-180.52 143,-150.52 0,-150.52"/>
<text text-anchor="start" x="8" y="-168.52" font-family="Helvetica,sans-Serif" font-size="10.00">leanux::block::MajorMinor</text>
<text text-anchor="middle" x="71.5" y="-157.52" font-family="Helvetica,sans-Serif" font-size="10.00">::getSysPath</text>
</a>
</g>
</g>
<!-- Node2 -->
<g id="node2" class="node">
<title>Node2</title>
<g id="a_node2"><a xlink:href="../../d7/d28/classleanux_1_1block_1_1MajorMinor.html#a5771b2baf04dd79e61c5bcd3f4ec532c" target="_top" xlink:title="Derive the MajorMinor of the whole disk holding a partition.">
<polygon fill="none" stroke="black" points="179,-248.52 179,-278.52 322,-278.52 322,-248.52 179,-248.52"/>
<text text-anchor="start" x="187" y="-266.52" font-family="Helvetica,sans-Serif" font-size="10.00">leanux::block::MajorMinor</text>
<text text-anchor="middle" x="250.5" y="-255.52" font-family="Helvetica,sans-Serif" font-size="10.00">::deriveWholeDisk</text>
</a>
</g>
</g>
<!-- Node1&#45;&gt;Node2 -->
<g id="edge1" class="edge">
<title>Node1&#45;&gt;Node2</title>
<path fill="none" stroke="midnightblue" d="M99.77,-180.62C130.17,-197.45 179.49,-224.76 213.15,-243.4"/>
<polygon fill="midnightblue" stroke="midnightblue" points="211.76,-246.62 222.2,-248.41 215.15,-240.5 211.76,-246.62"/>
</g>
<!-- Node14 -->
<g id="node12" class="node">
<title>Node14</title>
<g id="a_node12"><a xlink:href="../../d7/d28/classleanux_1_1block_1_1MajorMinor.html#a08c4dd48259318cfd77067e866e05e84" target="_top" xlink:title="get the device name for this MajorMinor.">
<polygon fill="none" stroke="black" points="179,-126.52 179,-156.52 322,-156.52 322,-126.52 179,-126.52"/>
<text text-anchor="start" x="187" y="-144.52" font-family="Helvetica,sans-Serif" font-size="10.00">leanux::block::MajorMinor</text>
<text text-anchor="middle" x="250.5" y="-133.52" font-family="Helvetica,sans-Serif" font-size="10.00">::getName</text>
</a>
</g>
</g>
<!-- Node1&#45;&gt;Node14 -->
<g id="edge15" class="edge">
<title>Node1&#45;&gt;Node14</title>
<path fill="none" stroke="midnightblue" d="M143.22,-155.93C151.66,-154.79 160.33,-153.61 168.9,-152.45"/>
<polygon fill="midnightblue" stroke="midnightblue" points="169.46,-155.91 178.89,-151.1 168.51,-148.97 169.46,-155.91"/>
</g>
<!-- Node15 -->
<g id="node13" class="node">
<title>Node15</title>
<g id="a_node13"><a xlink:href="../../d7/d28/classleanux_1_1block_1_1MajorMinor.html#ad5136fe7853cb6f2ca04eadb465976da" target="_top" xlink:title=" ">
<polygon fill="none" stroke="black" points="179,-175.52 179,-205.52 322,-205.52 322,-175.52 179,-175.52"/>
<text text-anchor="start" x="187" y="-193.52" font-family="Helvetica,sans-Serif" font-size="10.00">leanux::block::MajorMinor</text>
<text text-anchor="middle" x="250.5" y="-182.52" font-family="Helvetica,sans-Serif" font-size="10.00">::isPartition</text>
</a>
</g>
</g>
<!-- Node1&#45;&gt;Node15 -->
<g id="edge17" class="edge">
<title>Node1&#45;&gt;Node15</title>
<path fill="none" stroke="midnightblue" d="M143.22,-175.51C151.66,-176.7 160.33,-177.93 168.9,-179.14"/>
<polygon fill="midnightblue" stroke="midnightblue" points="168.5,-182.62 178.89,-180.55 169.48,-175.68 168.5,-182.62"/>
</g>
<!-- Node6 -->
<g id="node14" class="node">
<title>Node6</title>
<g id="a_node14"><a xlink:href="../../d8/db1/namespaceleanux_1_1util.html#a9ae898fe02934e4905ef4665c2871158" target="_top" xlink:title="Convert a path on a filesystem to the realpath if the path is a link.">
<polygon fill="none" stroke="black" points="192,-88.02 192,-107.02 309,-107.02 309,-88.02 192,-88.02"/>
<text text-anchor="middle" x="250.5" y="-95.02" font-family="Helvetica,sans-Serif" font-size="10.00">leanux::util::realPath</text>
</a>
</g>
</g>
<!-- Node1&#45;&gt;Node6 -->
<g id="edge26" class="edge">
<title>Node1&#45;&gt;Node6</title>
<path fill="none" stroke="midnightblue" d="M102.76,-150.44C123.82,-140.32 152.71,-127.12 179,-117.52 186.4,-114.82 194.33,-112.26 202.12,-109.93"/>
<polygon fill="midnightblue" stroke="midnightblue" points="203.23,-113.25 211.85,-107.1 201.27,-106.53 203.23,-113.25"/>
</g>
<!-- Node3 -->
<g id="node3" class="node">
<title>Node3</title>
<g id="a_node3"><a xlink:href="../../d7/d28/classleanux_1_1block_1_1MajorMinor.html#a3f7315088bb27e09449e3c2542b65958" target="_top" xlink:title="Get the MajorMinor for the device name.">
<polygon fill="none" stroke="red" points="358,-447.52 358,-477.52 501,-477.52 501,-447.52 358,-447.52"/>
<text text-anchor="start" x="366" y="-465.52" font-family="Helvetica,sans-Serif" font-size="10.00">leanux::block::MajorMinor</text>
<text text-anchor="middle" x="429.5" y="-454.52" font-family="Helvetica,sans-Serif" font-size="10.00">::getMajorMinorByName</text>
</a>
</g>
</g>
<!-- Node2&#45;&gt;Node3 -->
<g id="edge2" class="edge">
<title>Node2&#45;&gt;Node3</title>
<path fill="none" stroke="midnightblue" d="M257.37,-278.76C270.6,-311.25 305.72,-388 358,-432.52 362.48,-436.33 367.51,-439.72 372.77,-442.72"/>
<polygon fill="midnightblue" stroke="midnightblue" points="371.3,-445.9 381.79,-447.41 374.53,-439.69 371.3,-445.9"/>
</g>
<!-- Node7 -->
<g id="node4" class="node">
<title>Node7</title>
<g id="a_node4"><a xlink:href="../../d7/d28/classleanux_1_1block_1_1MajorMinor.html#adc3f437e329318ee21bddbbebaeb740e" target="_top" xlink:title="Get the DeviceName for the MajorMinor.">
<polygon fill="none" stroke="red" points="537,-261.52 537,-291.52 680,-291.52 680,-261.52 537,-261.52"/>
<text text-anchor="start" x="545" y="-279.52" font-family="Helvetica,sans-Serif" font-size="10.00">leanux::block::MajorMinor</text>
<text text-anchor="middle" x="608.5" y="-268.52" font-family="Helvetica,sans-Serif" font-size="10.00">::getNameByMajorMinor</text>
</a>
</g>
</g>
<!-- Node2&#45;&gt;Node7 -->
<g id="edge3" class="edge">
<title>Node2&#45;&gt;Node7</title>
<path fill="none" stroke="midnightblue" d="M257.8,-278.65C271.15,-308.41 305.43,-373.92 358,-399.52 415.14,-427.35 443.19,-425.93 501,-399.52 545.28,-379.29 578.21,-330.55 595,-300.86"/>
<polygon fill="midnightblue" stroke="midnightblue" points="598.15,-302.4 599.88,-291.95 592.01,-299.04 598.15,-302.4"/>
</g>
<!-- Node8 -->
<g id="node5" class="node">
<title>Node8</title>
<g id="a_node5"><a xlink:href="../../d7/d28/classleanux_1_1block_1_1MajorMinor.html#a59e3fe2f1a574b79bad1fe48a2334c27" target="_top" xlink:title="determine if the MajorMinor represents a bcache disk.">
<polygon fill="none" stroke="black" points="358,-212.52 358,-242.52 501,-242.52 501,-212.52 358,-212.52"/>
<text text-anchor="start" x="366" y="-230.52" font-family="Helvetica,sans-Serif" font-size="10.00">leanux::block::MajorMinor</text>
<text text-anchor="middle" x="429.5" y="-219.52" font-family="Helvetica,sans-Serif" font-size="10.00">::isBCacheDisk</text>
</a>
</g>
</g>
<!-- Node2&#45;&gt;Node8 -->
<g id="edge4" class="edge">
<title>Node2&#45;&gt;Node8</title>
<path fill="none" stroke="midnightblue" d="M322.22,-249.14C330.66,-247.42 339.33,-245.66 347.9,-243.91"/>
<polygon fill="midnightblue" stroke="midnightblue" points="348.79,-247.31 357.89,-241.88 347.4,-240.45 348.79,-247.31"/>
</g>
<!-- Node9 -->
<g id="node6" class="node">
<title>Node9</title>
<g id="a_node6"><a xlink:href="../../d7/d28/classleanux_1_1block_1_1MajorMinor.html#a546aa9297e382543cb031126190bc8c9" target="_top" xlink:title="determine if the major represents an IDE disk.">
<polygon fill="none" stroke="black" points="358,-163.52 358,-193.52 501,-193.52 501,-163.52 358,-163.52"/>
<text text-anchor="start" x="366" y="-181.52" font-family="Helvetica,sans-Serif" font-size="10.00">leanux::block::MajorMinor</text>
<text text-anchor="middle" x="429.5" y="-170.52" font-family="Helvetica,sans-Serif" font-size="10.00">::isIDEDisk</text>
</a>
</g>
</g>
<!-- Node2&#45;&gt;Node9 -->
<g id="edge6" class="edge">
<title>Node2&#45;&gt;Node9</title>
<path fill="none" stroke="midnightblue" d="M275.41,-248.47C296.6,-235.53 328.64,-216.88 358,-203.52 362.75,-201.36 367.75,-199.26 372.81,-197.25"/>
<polygon fill="midnightblue" stroke="midnightblue" points="374.45,-200.37 382.53,-193.53 371.94,-193.84 374.45,-200.37"/>
</g>
<!-- Node10 -->
<g id="node7" class="node">
<title>Node10</title>
<g id="a_node7"><a xlink:href="../../d7/d28/classleanux_1_1block_1_1MajorMinor.html#a852aa9e7ee1c107c95cd27ad47b5cf86" target="_top" xlink:title="determine if the MajorMinor represents an MMC disk.">
<polygon fill="none" stroke="black" points="358,-359.52 358,-389.52 501,-389.52 501,-359.52 358,-359.52"/>
<text text-anchor="start" x="366" y="-377.52" font-family="Helvetica,sans-Serif" font-size="10.00">leanux::block::MajorMinor</text>
<text text-anchor="middle" x="429.5" y="-366.52" font-family="Helvetica,sans-Serif" font-size="10.00">::isMMCDisk</text>
</a>
</g>
</g>
<!-- Node2&#45;&gt;Node10 -->
<g id="edge7" class="edge">
<title>Node2&#45;&gt;Node10</title>
<path fill="none" stroke="midnightblue" d="M266.44,-278.71C285.94,-297.8 321.88,-330.48 358,-350.52 361.09,-352.24 364.32,-353.86 367.63,-355.39"/>
<polygon fill="midnightblue" stroke="midnightblue" points="366.55,-358.73 377.12,-359.45 369.31,-352.3 366.55,-358.73"/>
</g>
<!-- Node11 -->
<g id="node8" class="node">
<title>Node11</title>
<g id="a_node8"><a xlink:href="../../d7/d28/classleanux_1_1block_1_1MajorMinor.html#ab248c720a63908f9e3ef78ed23536de8" target="_top" xlink:title="determine if the MajorMinor represents a NVMe disk.">
<polygon fill="none" stroke="black" points="358,-310.52 358,-340.52 501,-340.52 501,-310.52 358,-310.52"/>
<text text-anchor="start" x="366" y="-328.52" font-family="Helvetica,sans-Serif" font-size="10.00">leanux::block::MajorMinor</text>
<text text-anchor="middle" x="429.5" y="-317.52" font-family="Helvetica,sans-Serif" font-size="10.00">::isNVMeDisk</text>
</a>
</g>
</g>
<!-- Node2&#45;&gt;Node11 -->
<g id="edge9" class="edge">
<title>Node2&#45;&gt;Node11</title>
<path fill="none" stroke="midnightblue" d="M293.18,-278.55C312.82,-285.59 336.59,-294.06 358,-301.52 363.27,-303.36 368.76,-305.26 374.25,-307.14"/>
<polygon fill="midnightblue" stroke="midnightblue" points="373.49,-310.58 384.09,-310.51 375.76,-303.96 373.49,-310.58"/>
</g>
<!-- Node12 -->
<g id="node9" class="node">
<title>Node12</title>
<g id="a_node9"><a xlink:href="../../d7/d28/classleanux_1_1block_1_1MajorMinor.html#a6c5b98f8ffc7b8904754ecfe33407e8c" target="_top" xlink:title="determine if the major represents a SCSI disk.">
<polygon fill="none" stroke="black" points="358,-114.52 358,-144.52 501,-144.52 501,-114.52 358,-114.52"/>
<text text-anchor="start" x="366" y="-132.52" font-family="Helvetica,sans-Serif" font-size="10.00">leanux::block::MajorMinor</text>
<text text-anchor="middle" x="429.5" y="-121.52" font-family="Helvetica,sans-Serif" font-size="10.00">::isSCSIDisk</text>
</a>
</g>
</g>
<!-- Node2&#45;&gt;Node12 -->
<g id="edge11" class="edge">
<title>Node2&#45;&gt;Node12</title>
<path fill="none" stroke="midnightblue" d="M279.42,-248.46C293.33,-240.03 309.75,-228.59 322,-215.52 343.53,-192.55 333.71,-174.54 358,-154.52 360.06,-152.82 362.25,-151.24 364.52,-149.75"/>
<polygon fill="midnightblue" stroke="midnightblue" points="366.72,-152.53 373.68,-144.54 363.25,-146.45 366.72,-152.53"/>
</g>
<!-- Node13 -->
<g id="node10" class="node">
<title>Node13</title>
<g id="a_node10"><a xlink:href="../../d7/d28/classleanux_1_1block_1_1MajorMinor.html#aaa91d26165ff4b7a32cfe052e72463cc" target="_top" xlink:title="determine if the MajorMinor represents a virtio disk.">
<polygon fill="none" stroke="black" points="358,-261.52 358,-291.52 501,-291.52 501,-261.52 358,-261.52"/>
<text text-anchor="start" x="366" y="-279.52" font-family="Helvetica,sans-Serif" font-size="10.00">leanux::block::MajorMinor</text>
<text text-anchor="middle" x="429.5" y="-268.52" font-family="Helvetica,sans-Serif" font-size="10.00">::isVirtIODisk</text>
</a>
</g>
</g>
<!-- Node2&#45;&gt;Node13 -->
<g id="edge12" class="edge">
<title>Node2&#45;&gt;Node13</title>
<path fill="none" stroke="midnightblue" d="M322.22,-268.72C330.66,-269.34 339.33,-269.97 347.9,-270.6"/>
<polygon fill="midnightblue" stroke="midnightblue" points="347.66,-274.09 357.89,-271.34 348.18,-267.11 347.66,-274.09"/>
</g>
<!-- Node5 -->
<g id="node11" class="node">
<title>Node5</title>
<g id="a_node11"><a xlink:href="../../d7/d28/classleanux_1_1block_1_1MajorMinor.html#a464bd4b85ec6d88f850ef7d76e950f44" target="_top" xlink:title="Default constructor.">
<polygon fill="none" stroke="black" points="358,-65.52 358,-95.52 501,-95.52 501,-65.52 358,-65.52"/>
<text text-anchor="start" x="366" y="-83.52" font-family="Helvetica,sans-Serif" font-size="10.00">leanux::block::MajorMinor</text>
<text text-anchor="middle" x="429.5" y="-72.52" font-family="Helvetica,sans-Serif" font-size="10.00">::MajorMinor</text>
</a>
</g>
</g>
<!-- Node2&#45;&gt;Node5 -->
<g id="edge14" class="edge">
<title>Node2&#45;&gt;Node5</title>
<path fill="none" stroke="midnightblue" d="M282.43,-248.47C296.24,-240.39 311.68,-229.25 322,-215.52 352.91,-174.41 322.07,-142.34 358,-105.52 359.43,-104.06 360.95,-102.68 362.54,-101.38"/>
<polygon fill="midnightblue" stroke="midnightblue" points="364.79,-104.08 371.06,-95.54 360.83,-98.31 364.79,-104.08"/>
</g>
<!-- Node8&#45;&gt;Node7 -->
<g id="edge5" class="edge">
<title>Node8&#45;&gt;Node7</title>
<path fill="none" stroke="midnightblue" d="M485.05,-242.62C503.47,-247.72 524.21,-253.46 543.31,-258.75"/>
<polygon fill="midnightblue" stroke="midnightblue" points="542.56,-262.18 553.13,-261.47 544.43,-255.43 542.56,-262.18"/>
</g>
<!-- Node10&#45;&gt;Node7 -->
<g id="edge8" class="edge">
<title>Node10&#45;&gt;Node7</title>
<path fill="none" stroke="midnightblue" d="M480.52,-359.44C487.53,-356.77 494.54,-353.79 501,-350.52 530.14,-335.8 560.45,-314.01 581.24,-297.89"/>
<polygon fill="midnightblue" stroke="midnightblue" points="583.57,-300.51 589.27,-291.58 579.24,-295.01 583.57,-300.51"/>
</g>
<!-- Node11&#45;&gt;Node7 -->
<g id="edge10" class="edge">
<title>Node11&#45;&gt;Node7</title>
<path fill="none" stroke="midnightblue" d="M485.05,-310.42C503.47,-305.32 524.21,-299.58 543.31,-294.29"/>
<polygon fill="midnightblue" stroke="midnightblue" points="544.43,-297.61 553.13,-291.57 542.56,-290.87 544.43,-297.61"/>
</g>
<!-- Node13&#45;&gt;Node7 -->
<g id="edge13" class="edge">
<title>Node13&#45;&gt;Node7</title>
<path fill="none" stroke="midnightblue" d="M501.22,-276.52C509.57,-276.52 518.14,-276.52 526.62,-276.52"/>
<polygon fill="midnightblue" stroke="midnightblue" points="526.89,-280.02 536.89,-276.52 526.89,-273.02 526.89,-280.02"/>
</g>
<!-- Node14&#45;&gt;Node7 -->
<g id="edge16" class="edge">
<title>Node14&#45;&gt;Node7</title>
<path fill="none" stroke="midnightblue" d="M308.34,-126.44C313.31,-123.67 317.97,-120.39 322,-116.52 353.06,-86.67 322.33,-50.67 358,-26.52 410.63,9.11 447.98,8.52 501,-26.52 578.71,-77.89 599.9,-198.74 605.53,-251.34"/>
<polygon fill="midnightblue" stroke="midnightblue" points="602.06,-251.86 606.51,-261.47 609.03,-251.18 602.06,-251.86"/>
</g>
<!-- Node15&#45;&gt;Node7 -->
<g id="edge18" class="edge">
<title>Node15&#45;&gt;Node7</title>
<path fill="none" stroke="midnightblue" d="M310.63,-175.35C314.77,-172.84 318.64,-169.92 322,-166.52 358.16,-129.93 316.35,-86.71 358,-56.52 409.46,-19.22 447.15,-22.76 501,-56.52 570.55,-100.12 595.8,-203.44 603.99,-251.33"/>
<polygon fill="midnightblue" stroke="midnightblue" points="600.57,-252.14 605.6,-261.46 607.48,-251.04 600.57,-252.14"/>
</g>
<!-- Node15&#45;&gt;Node8 -->
<g id="edge19" class="edge">
<title>Node15&#45;&gt;Node8</title>
<path fill="none" stroke="midnightblue" d="M322.22,-205.3C330.66,-207.07 339.33,-208.88 347.9,-210.67"/>
<polygon fill="midnightblue" stroke="midnightblue" points="347.39,-214.14 357.89,-212.76 348.82,-207.29 347.39,-214.14"/>
</g>
<!-- Node15&#45;&gt;Node9 -->
<g id="edge20" class="edge">
<title>Node15&#45;&gt;Node9</title>
<path fill="none" stroke="midnightblue" d="M322.22,-185.73C330.66,-185.15 339.33,-184.57 347.9,-183.99"/>
<polygon fill="midnightblue" stroke="midnightblue" points="348.15,-187.48 357.89,-183.31 347.68,-180.49 348.15,-187.48"/>
</g>
<!-- Node15&#45;&gt;Node10 -->
<g id="edge21" class="edge">
<title>Node15&#45;&gt;Node10</title>
<path fill="none" stroke="midnightblue" d="M281.73,-205.57C295.72,-213.88 311.52,-225.4 322,-239.52 352.91,-281.17 321.59,-313.58 358,-350.52 358.94,-351.48 359.93,-352.4 360.95,-353.28"/>
<polygon fill="midnightblue" stroke="midnightblue" points="359.21,-356.34 369.37,-359.36 363.31,-350.67 359.21,-356.34"/>
</g>
<!-- Node15&#45;&gt;Node11 -->
<g id="edge22" class="edge">
<title>Node15&#45;&gt;Node11</title>
<path fill="none" stroke="midnightblue" d="M278.75,-205.54C292.81,-214.2 309.57,-226.04 322,-239.52 343.6,-262.95 333.35,-281.33 358,-301.52 359.58,-302.81 361.22,-304.03 362.93,-305.19"/>
<polygon fill="midnightblue" stroke="midnightblue" points="361.48,-308.4 371.88,-310.46 365.04,-302.37 361.48,-308.4"/>
</g>
<!-- Node15&#45;&gt;Node12 -->
<g id="edge23" class="edge">
<title>Node15&#45;&gt;Node12</title>
<path fill="none" stroke="midnightblue" d="M295.89,-175.46C304.55,-172.5 313.56,-169.42 322,-166.52 339.48,-160.51 358.57,-153.9 375.69,-147.94"/>
<polygon fill="midnightblue" stroke="midnightblue" points="377.22,-151.12 385.51,-144.53 374.92,-144.51 377.22,-151.12"/>
</g>
<!-- Node15&#45;&gt;Node13 -->
<g id="edge24" class="edge">
<title>Node15&#45;&gt;Node13</title>
<path fill="none" stroke="midnightblue" d="M274.47,-205.7C295.57,-219.2 328.02,-238.86 358,-252.52 362.08,-254.38 366.35,-256.18 370.68,-257.89"/>
<polygon fill="midnightblue" stroke="midnightblue" points="369.63,-261.24 380.22,-261.52 372.11,-254.69 369.63,-261.24"/>
</g>
<!-- Node15&#45;&gt;Node5 -->
<g id="edge25" class="edge">
<title>Node15&#45;&gt;Node5</title>
<path fill="none" stroke="midnightblue" d="M308.1,-175.43C313.06,-172.9 317.79,-169.95 322,-166.52 346.42,-146.66 333.71,-125.54 358,-105.52 360.06,-103.82 362.25,-102.24 364.52,-100.75"/>
<polygon fill="midnightblue" stroke="midnightblue" points="366.72,-103.53 373.68,-95.54 363.25,-97.45 366.72,-103.53"/>
</g>
</g>
</svg>
