<?xml version="1.0" encoding="UTF-8" standalone="no"?>
<!DOCTYPE svg PUBLIC "-//W3C//DTD SVG 1.1//EN"
 "http://www.w3.org/Graphics/SVG/1.1/DTD/svg11.dtd">
<!-- Generated by graphviz version 2.43.0 (0)
 -->
<!-- Title: leanux::block::MajorMinor::getRotationalStr Pages: 1 -->
<svg width="691pt" height="214pt"
 viewBox="0.00 0.00 691.00 214.00" xmlns="http://www.w3.org/2000/svg" xmlns:xlink="http://www.w3.org/1999/xlink">
<g id="graph0" class="graph" transform="scale(1 1) rotate(0) translate(4 210)">
<title>leanux::block::MajorMinor::getRotationalStr</title>
<!-- Node1 -->
<g id="node1" class="node">
<title>Node1</title>
<g id="a_node1"><a xlink:title="Get a descriptive string of the rotational nature of the disk,.">
<polygon fill="#bfbfbf" stroke="black" points="0,-46.5 0,-76.5 143,-76.5 143,-46.5 0,-46.5"/>
<text text-anchor="start" x="8" y="-64.5" font-family="Helvetica,sans-Serif" font-size="10.00">leanux::block::MajorMinor</text>
<text text-anchor="middle" x="71.5" y="-53.5" font-family="Helvetica,sans-Serif" font-size="10.00">::getRotationalStr</text>
</a>
</g>
</g>
<!-- Node2 -->
<g id="node2" class="node">
<title>Node2</title>
<g id="a_node2"><a xlink:href="../../d7/d28/classleanux_1_1block_1_1MajorMinor.html#ae8569c67c7ab725af5c89e8e01011a7b" target="_top" xlink:title="Chech if a disk is mechanical or solid state.">
<polygon fill="none" stroke="black" points="179,-93.5 179,-123.5 322,-123.5 322,-93.5 179,-93.5"/>
<text text-anchor="start" x="187" y="-111.5" font-family="Helvetica,sans-Serif" font-size="10.00">leanux::block::MajorMinor</text>
<text text-anchor="middle" x="250.5" y="-100.5" font-family="Helvetica,sans-Serif" font-size="10.00">::getRotational</text>
</a>
</g>
</g>
<!-- Node1&#45;&gt;Node2 -->
<g id="edge1" class="edge">
<title>Node1&#45;&gt;Node2</title>
<path fill="none" stroke="midnightblue" d="M128.99,-76.5C146.23,-81.08 165.35,-86.16 183.18,-90.89"/>
<polygon fill="midnightblue" stroke="midnightblue" points="182.38,-94.3 192.94,-93.48 184.17,-87.53 182.38,-94.3"/>
</g>
<!-- Node17 -->
<g id="node7" class="node">
<title>Node17</title>
<g id="a_node7"><a xlink:href="../../d7/d28/classleanux_1_1block_1_1MajorMinor.html#ad3540e93c53ad2bb4656989caec3c053" target="_top" xlink:title="Get the rotation speed of a device.">
<polygon fill="none" stroke="black" points="179,-22.5 179,-52.5 322,-52.5 322,-22.5 179,-22.5"/>
<text text-anchor="start" x="187" y="-40.5" font-family="Helvetica,sans-Serif" font-size="10.00">leanux::block::MajorMinor</text>
<text text-anchor="middle" x="250.5" y="-29.5" font-family="Helvetica,sans-Serif" font-size="10.00">::getRPM</text>
</a>
</g>
</g>
<!-- Node1&#45;&gt;Node17 -->
<g id="edge8" class="edge">
<title>Node1&#45;&gt;Node17</title>
<path fill="none" stroke="midnightblue" d="M143.22,-51.91C151.66,-50.77 160.33,-49.59 168.9,-48.43"/>
<polygon fill="midnightblue" stroke="midnightblue" points="169.46,-51.89 178.89,-47.07 168.51,-44.95 169.46,-51.89"/>
</g>
<!-- Node3 -->
<g id="node3" class="node">
<title>Node3</title>
<g id="a_node3"><a xlink:href="../../d7/d28/classleanux_1_1block_1_1MajorMinor.html#a5771b2baf04dd79e61c5bcd3f4ec532c" target="_top" xlink:title="Derive the MajorMinor of the whole disk holding a partition.">
<polygon fill="none" stroke="red" points="359.5,-175.5 359.5,-205.5 502.5,-205.5 502.5,-175.5 359.5,-175.5"/>
<text text-anchor="start" x="367.5" y="-193.5" font-family="Helvetica,sans-Serif" font-size="10.00">leanux::block::MajorMinor</text>
<text text-anchor="middle" x="431" y="-182.5" font-family="Helvetica,sans-Serif" font-size="10.00">::deriveWholeDisk</text>
</a>
</g>
</g>
<!-- Node2&#45;&gt;Node3 -->
<g id="edge2" class="edge">
<title>Node2&#45;&gt;Node3</title>
<path fill="none" stroke="midnightblue" d="M281.11,-123.55C302.36,-134.2 331.75,-148.64 358,-160.5 366.07,-164.15 374.71,-167.89 383.11,-171.44"/>
<polygon fill="midnightblue" stroke="midnightblue" points="381.87,-174.71 392.45,-175.35 384.58,-168.26 381.87,-174.71"/>
</g>
<!-- Node8 -->
<g id="node4" class="node">
<title>Node8</title>
<g id="a_node4"><a xlink:href="../../d7/d28/classleanux_1_1block_1_1MajorMinor.html#adc3f437e329318ee21bddbbebaeb740e" target="_top" xlink:title="Get the DeviceName for the MajorMinor.">
<polygon fill="none" stroke="red" points="540,-90.5 540,-120.5 683,-120.5 683,-90.5 540,-90.5"/>
<text text-anchor="start" x="548" y="-108.5" font-family="Helvetica,sans-Serif" font-size="10.00">leanux::block::MajorMinor</text>
<text text-anchor="middle" x="611.5" y="-97.5" font-family="Helvetica,sans-Serif" font-size="10.00">::getNameByMajorMinor</text>
</a>
</g>
</g>
<!-- Node2&#45;&gt;Node8 -->
<g id="edge5" class="edge">
<title>Node2&#45;&gt;Node8</title>
<path fill="none" stroke="midnightblue" d="M322.01,-122.88C333.98,-124.8 346.31,-126.47 358,-127.5 422.64,-133.22 439.45,-134.1 504,-127.5 515.26,-126.35 527.08,-124.53 538.59,-122.42"/>
<polygon fill="midnightblue" stroke="midnightblue" points="539.44,-125.82 548.6,-120.5 538.12,-118.95 539.44,-125.82"/>
</g>
<!-- Node15 -->
<g id="node5" class="node">
<title>Node15</title>
<g id="a_node5"><a xlink:href="../../d8/db1/namespaceleanux_1_1util.html#a57bfd49353610b3d0b6d121b264c676e" target="_top" xlink:title="read the file as a single string.">
<polygon fill="none" stroke="black" points="358,-99 358,-118 504,-118 504,-99 358,-99"/>
<text text-anchor="middle" x="431" y="-106" font-family="Helvetica,sans-Serif" font-size="10.00">leanux::util::fileReadString</text>
</a>
</g>
</g>
<!-- Node2&#45;&gt;Node15 -->
<g id="edge4" class="edge">
<title>Node2&#45;&gt;Node15</title>
<path fill="none" stroke="midnightblue" d="M322.05,-108.5C330.52,-108.5 339.23,-108.5 347.86,-108.5"/>
<polygon fill="midnightblue" stroke="midnightblue" points="347.92,-112 357.92,-108.5 347.92,-105 347.92,-112"/>
</g>
<!-- Node16 -->
<g id="node6" class="node">
<title>Node16</title>
<g id="a_node6"><a xlink:href="../../d7/d28/classleanux_1_1block_1_1MajorMinor.html#ad5136fe7853cb6f2ca04eadb465976da" target="_top" xlink:title=" ">
<polygon fill="none" stroke="red" points="359.5,-49.5 359.5,-79.5 502.5,-79.5 502.5,-49.5 359.5,-49.5"/>
<text text-anchor="start" x="367.5" y="-67.5" font-family="Helvetica,sans-Serif" font-size="10.00">leanux::block::MajorMinor</text>
<text text-anchor="middle" x="431" y="-56.5" font-family="Helvetica,sans-Serif" font-size="10.00">::isPartition</text>
</a>
</g>
</g>
<!-- Node2&#45;&gt;Node16 -->
<g id="edge6" class="edge">
<title>Node2&#45;&gt;Node16</title>
<path fill="none" stroke="midnightblue" d="M312.43,-93.48C327.43,-89.78 343.61,-85.79 359.04,-81.99"/>
<polygon fill="midnightblue" stroke="midnightblue" points="360.17,-85.32 369.04,-79.53 358.49,-78.52 360.17,-85.32"/>
</g>
<!-- Node3&#45;&gt;Node8 -->
<g id="edge3" class="edge">
<title>Node3&#45;&gt;Node8</title>
<path fill="none" stroke="midnightblue" d="M470,-175.35C481.04,-170.76 493.07,-165.59 504,-160.5 527.56,-149.53 553.47,-136.18 573.84,-125.37"/>
<polygon fill="midnightblue" stroke="midnightblue" points="575.6,-128.4 582.78,-120.61 572.31,-122.22 575.6,-128.4"/>
</g>
<!-- Node16&#45;&gt;Node8 -->
<g id="edge7" class="edge">
<title>Node16&#45;&gt;Node8</title>
<path fill="none" stroke="midnightblue" d="M497.45,-79.53C509.7,-82.35 522.59,-85.31 535.11,-88.18"/>
<polygon fill="midnightblue" stroke="midnightblue" points="534.52,-91.64 545.05,-90.47 536.09,-84.82 534.52,-91.64"/>
</g>
<!-- Node18 -->
<g id="node8" class="node">
<title>Node18</title>
<g id="a_node8"><a xlink:href="../../d7/d28/classleanux_1_1block_1_1MajorMinor.html#a7ef43192321c82d296575f35b69c52d4" target="_top" xlink:title="Get the udev path for the device.">
<polygon fill="none" stroke="black" points="359.5,-0.5 359.5,-30.5 502.5,-30.5 502.5,-0.5 359.5,-0.5"/>
<text text-anchor="start" x="367.5" y="-18.5" font-family="Helvetica,sans-Serif" font-size="10.00">leanux::block::MajorMinor</text>
<text text-anchor="middle" x="431" y="-7.5" font-family="Helvetica,sans-Serif" font-size="10.00">::getUDevPath</text>
</a>
</g>
</g>
<!-- Node17&#45;&gt;Node18 -->
<g id="edge9" class="edge">
<title>Node17&#45;&gt;Node18</title>
<path fill="none" stroke="midnightblue" d="M322.05,-28.81C330.97,-27.71 340.15,-26.57 349.22,-25.46"/>
<polygon fill="midnightblue" stroke="midnightblue" points="349.88,-28.9 359.38,-24.2 349.03,-21.95 349.88,-28.9"/>
</g>
<!-- Node18&#45;&gt;Node8 -->
<g id="edge10" class="edge">
<title>Node18&#45;&gt;Node8</title>
<path fill="none" stroke="midnightblue" d="M482.17,-30.54C489.6,-33.25 497.08,-36.26 504,-39.5 531.23,-52.26 560.11,-70.49 580.92,-84.56"/>
<polygon fill="midnightblue" stroke="midnightblue" points="579.08,-87.54 589.31,-90.3 583.03,-81.76 579.08,-87.54"/>
</g>
</g>
</svg>
