<?xml version="1.0" encoding="UTF-8" standalone="no"?>
<!DOCTYPE svg PUBLIC "-//W3C//DTD SVG 1.1//EN"
 "http://www.w3.org/Graphics/SVG/1.1/DTD/svg11.dtd">
<!-- Generated by graphviz version 2.43.0 (0)
 -->
<!-- Title: leanux::block::MajorMinor::getATAPort Pages: 1 -->
<svg width="509pt" height="176pt"
 viewBox="0.00 0.00 509.00 175.50" xmlns="http://www.w3.org/2000/svg" xmlns:xlink="http://www.w3.org/1999/xlink">
<g id="graph0" class="graph" transform="scale(1 1) rotate(0) translate(4 171.5)">
<title>leanux::block::MajorMinor::getATAPort</title>
<!-- Node1 -->
<g id="node1" class="node">
<title>Node1</title>
<g id="a_node1"><a xlink:title="Get the ATA port for the block MajorMinor.">
<polygon fill="#bfbfbf" stroke="black" points="0,-63 0,-93 143,-93 143,-63 0,-63"/>
<text text-anchor="start" x="8" y="-81" font-family="Helvetica,sans-Serif" font-size="10.00">leanux::block::MajorMinor</text>
<text text-anchor="middle" x="71.5" y="-70" font-family="Helvetica,sans-Serif" font-size="10.00">::getATAPort</text>
</a>
</g>
</g>
<!-- Node2 -->
<g id="node2" class="node">
<title>Node2</title>
<g id="a_node2"><a xlink:href="../../d7/d28/classleanux_1_1block_1_1MajorMinor.html#a742f510de3aea2ec0a1eb112e3ca3c1e" target="_top" xlink:title="return the full device path as it appears under /sys/devices/block">
<polygon fill="none" stroke="black" points="179,-63 179,-93 322,-93 322,-63 179,-63"/>
<text text-anchor="start" x="187" y="-81" font-family="Helvetica,sans-Serif" font-size="10.00">leanux::block::MajorMinor</text>
<text text-anchor="middle" x="250.5" y="-70" font-family="Helvetica,sans-Serif" font-size="10.00">::getSysPath</text>
</a>
</g>
</g>
<!-- Node1&#45;&gt;Node2 -->
<g id="edge1" class="edge">
<title>Node1&#45;&gt;Node2</title>
<path fill="none" stroke="midnightblue" d="M143.22,-78C151.57,-78 160.14,-78 168.62,-78"/>
<polygon fill="midnightblue" stroke="midnightblue" points="168.89,-81.5 178.89,-78 168.89,-74.5 168.89,-81.5"/>
</g>
<!-- Node3 -->
<g id="node3" class="node">
<title>Node3</title>
<g id="a_node3"><a xlink:href="../../d7/d28/classleanux_1_1block_1_1MajorMinor.html#a5771b2baf04dd79e61c5bcd3f4ec532c" target="_top" xlink:title="Derive the MajorMinor of the whole disk holding a partition.">
<polygon fill="none" stroke="red" points="358,-137 358,-167 501,-167 501,-137 358,-137"/>
<text text-anchor="start" x="366" y="-155" font-family="Helvetica,sans-Serif" font-size="10.00">leanux::block::MajorMinor</text>
<text text-anchor="middle" x="429.5" y="-144" font-family="Helvetica,sans-Serif" font-size="10.00">::deriveWholeDisk</text>
</a>
</g>
</g>
<!-- Node2&#45;&gt;Node3 -->
<g id="edge2" class="edge">
<title>Node2&#45;&gt;Node3</title>
<path fill="none" stroke="midnightblue" d="M281.4,-93.13C302.54,-103.55 331.67,-117.38 358,-128 362.68,-129.89 367.56,-131.76 372.49,-133.57"/>
<polygon fill="midnightblue" stroke="midnightblue" points="371.37,-136.89 381.96,-136.98 373.74,-130.3 371.37,-136.89"/>
</g>
<!-- Node15 -->
<g id="node4" class="node">
<title>Node15</title>
<g id="a_node4"><a xlink:href="../../d7/d28/classleanux_1_1block_1_1MajorMinor.html#a08c4dd48259318cfd77067e866e05e84" target="_top" xlink:title="get the device name for this MajorMinor.">
<polygon fill="none" stroke="red" points="358,-88 358,-118 501,-118 501,-88 358,-88"/>
<text text-anchor="start" x="366" y="-106" font-family="Helvetica,sans-Serif" font-size="10.00">leanux::block::MajorMinor</text>
<text text-anchor="middle" x="429.5" y="-95" font-family="Helvetica,sans-Serif" font-size="10.00">::getName</text>
</a>
</g>
</g>
<!-- Node2&#45;&gt;Node15 -->
<g id="edge3" class="edge">
<title>Node2&#45;&gt;Node15</title>
<path fill="none" stroke="midnightblue" d="M322.22,-87.99C330.66,-89.18 339.33,-90.41 347.9,-91.62"/>
<polygon fill="midnightblue" stroke="midnightblue" points="347.5,-95.09 357.89,-93.03 348.48,-88.16 347.5,-95.09"/>
</g>
<!-- Node16 -->
<g id="node5" class="node">
<title>Node16</title>
<g id="a_node5"><a xlink:href="../../d7/d28/classleanux_1_1block_1_1MajorMinor.html#ad5136fe7853cb6f2ca04eadb465976da" target="_top" xlink:title=" ">
<polygon fill="none" stroke="red" points="358,-39 358,-69 501,-69 501,-39 358,-39"/>
<text text-anchor="start" x="366" y="-57" font-family="Helvetica,sans-Serif" font-size="10.00">leanux::block::MajorMinor</text>
<text text-anchor="middle" x="429.5" y="-46" font-family="Helvetica,sans-Serif" font-size="10.00">::isPartition</text>
</a>
</g>
</g>
<!-- Node2&#45;&gt;Node16 -->
<g id="edge4" class="edge">
<title>Node2&#45;&gt;Node16</title>
<path fill="none" stroke="midnightblue" d="M322.22,-68.41C330.66,-67.27 339.33,-66.09 347.9,-64.93"/>
<polygon fill="midnightblue" stroke="midnightblue" points="348.46,-68.39 357.89,-63.57 347.51,-61.45 348.46,-68.39"/>
</g>
<!-- Node7 -->
<g id="node6" class="node">
<title>Node7</title>
<g id="a_node6"><a xlink:href="../../d8/db1/namespaceleanux_1_1util.html#a9ae898fe02934e4905ef4665c2871158" target="_top" xlink:title="Convert a path on a filesystem to the realpath if the path is a link.">
<polygon fill="none" stroke="black" points="371,-0.5 371,-19.5 488,-19.5 488,-0.5 371,-0.5"/>
<text text-anchor="middle" x="429.5" y="-7.5" font-family="Helvetica,sans-Serif" font-size="10.00">leanux::util::realPath</text>
</a>
</g>
</g>
<!-- Node2&#45;&gt;Node7 -->
<g id="edge5" class="edge">
<title>Node2&#45;&gt;Node7</title>
<path fill="none" stroke="midnightblue" d="M281.76,-62.92C302.82,-52.79 331.71,-39.6 358,-30 365.4,-27.3 373.33,-24.74 381.12,-22.4"/>
<polygon fill="midnightblue" stroke="midnightblue" points="382.23,-25.73 390.85,-19.58 380.27,-19.01 382.23,-25.73"/>
</g>
</g>
</svg>
