<?xml version="1.0" encoding="UTF-8" standalone="no"?>
<!DOCTYPE svg PUBLIC "-//W3C//DTD SVG 1.1//EN"
 "http://www.w3.org/Graphics/SVG/1.1/DTD/svg11.dtd">
<!-- Generated by graphviz version 2.43.0 (0)
 -->
<!-- Title: leanux::block::MajorMinor::getClass Pages: 1 -->
<svg width="691pt" height="504pt"
 viewBox="0.00 0.00 691.00 503.50" xmlns="http://www.w3.org/2000/svg" xmlns:xlink="http://www.w3.org/1999/xlink">
<g id="graph0" class="graph" transform="scale(1 1) rotate(0) translate(4 499.5)">
<title>leanux::block::MajorMinor::getClass</title>
<!-- Node1 -->
<g id="node1" class="node">
<title>Node1</title>
<g id="a_node1"><a xlink:title="Get the DeviceClass for a MajorMinor.">
<polygon fill="#bfbfbf" stroke="black" points="0,-191.5 0,-221.5 143,-221.5 143,-191.5 0,-191.5"/>
<text text-anchor="start" x="8" y="-209.5" font-family="Helvetica,sans-Serif" font-size="10.00">leanux::block::MajorMinor</text>
<text text-anchor="middle" x="71.5" y="-198.5" font-family="Helvetica,sans-Serif" font-size="10.00">::getClass</text>
</a>
</g>
</g>
<!-- Node2 -->
<g id="node2" class="node">
<title>Node2</title>
<g id="a_node2"><a xlink:href="../../d7/d28/classleanux_1_1block_1_1MajorMinor.html#a211f6f6595c83289600887d41d394742" target="_top" xlink:title="return the device dm uuid (or an empty string if not a dm device)">
<polygon fill="none" stroke="black" points="179,-432.5 179,-462.5 322,-462.5 322,-432.5 179,-432.5"/>
<text text-anchor="start" x="187" y="-450.5" font-family="Helvetica,sans-Serif" font-size="10.00">leanux::block::MajorMinor</text>
<text text-anchor="middle" x="250.5" y="-439.5" font-family="Helvetica,sans-Serif" font-size="10.00">::getDMUUID</text>
</a>
</g>
</g>
<!-- Node1&#45;&gt;Node2 -->
<g id="edge1" class="edge">
<title>Node1&#45;&gt;Node2</title>
<path fill="none" stroke="midnightblue" d="M77.48,-221.57C89.82,-257.07 124.78,-347.26 179,-404.5 187.4,-413.36 198.01,-421.09 208.43,-427.45"/>
<polygon fill="midnightblue" stroke="midnightblue" points="206.68,-430.48 217.09,-432.47 210.19,-424.43 206.68,-430.48"/>
</g>
<!-- Node8 -->
<g id="node5" class="node">
<title>Node8</title>
<g id="a_node5"><a xlink:href="../../d7/d28/classleanux_1_1block_1_1MajorMinor.html#aedaa770034a3bc139513e7a9aaa5c7f4" target="_top" xlink:title="Get the LV name the block device belongs to, or empty string if the device is not a LVM PV.">
<polygon fill="none" stroke="black" points="179,-49.5 179,-79.5 322,-79.5 322,-49.5 179,-49.5"/>
<text text-anchor="start" x="187" y="-67.5" font-family="Helvetica,sans-Serif" font-size="10.00">leanux::block::MajorMinor</text>
<text text-anchor="middle" x="250.5" y="-56.5" font-family="Helvetica,sans-Serif" font-size="10.00">::getLVName</text>
</a>
</g>
</g>
<!-- Node1&#45;&gt;Node8 -->
<g id="edge4" class="edge">
<title>Node1&#45;&gt;Node8</title>
<path fill="none" stroke="midnightblue" d="M83.7,-191.2C101.57,-167.69 138.65,-122.49 179,-94.5 184.58,-90.63 190.74,-87.11 197.03,-83.95"/>
<polygon fill="midnightblue" stroke="midnightblue" points="198.72,-87.02 206.27,-79.59 195.73,-80.69 198.72,-87.02"/>
</g>
<!-- Node10 -->
<g id="node7" class="node">
<title>Node10</title>
<g id="a_node7"><a xlink:href="../../d7/d28/classleanux_1_1block_1_1MajorMinor.html#a7e5217cefada330c0b412a4cc0e8ba8a" target="_top" xlink:title="Get the major.">
<polygon fill="none" stroke="black" points="179,-0.5 179,-30.5 322,-30.5 322,-0.5 179,-0.5"/>
<text text-anchor="start" x="187" y="-18.5" font-family="Helvetica,sans-Serif" font-size="10.00">leanux::block::MajorMinor</text>
<text text-anchor="middle" x="250.5" y="-7.5" font-family="Helvetica,sans-Serif" font-size="10.00">::getMajor</text>
</a>
</g>
</g>
<!-- Node1&#45;&gt;Node10 -->
<g id="edge7" class="edge">
<title>Node1&#45;&gt;Node10</title>
<path fill="none" stroke="midnightblue" d="M78.24,-191.29C91.22,-158.89 125.88,-82.63 179,-40.5 181.29,-38.68 183.72,-36.99 186.25,-35.42"/>
<polygon fill="midnightblue" stroke="midnightblue" points="188.1,-38.4 195.18,-30.52 184.73,-32.27 188.1,-38.4"/>
</g>
<!-- Node11 -->
<g id="node8" class="node">
<title>Node11</title>
<g id="a_node8"><a xlink:href="../../d7/d28/classleanux_1_1block_1_1MajorMinor.html#a59e3fe2f1a574b79bad1fe48a2334c27" target="_top" xlink:title="determine if the MajorMinor represents a bcache disk.">
<polygon fill="none" stroke="black" points="359.5,-388.5 359.5,-418.5 502.5,-418.5 502.5,-388.5 359.5,-388.5"/>
<text text-anchor="start" x="367.5" y="-406.5" font-family="Helvetica,sans-Serif" font-size="10.00">leanux::block::MajorMinor</text>
<text text-anchor="middle" x="431" y="-395.5" font-family="Helvetica,sans-Serif" font-size="10.00">::isBCacheDisk</text>
</a>
</g>
</g>
<!-- Node1&#45;&gt;Node11 -->
<g id="edge8" class="edge">
<title>Node1&#45;&gt;Node11</title>
<path fill="none" stroke="midnightblue" d="M82.43,-221.62C99.37,-246.25 136.19,-295.05 179,-322.5 230.97,-355.82 297.81,-376.51 349.45,-388.63"/>
<polygon fill="midnightblue" stroke="midnightblue" points="348.7,-392.05 359.23,-390.87 350.26,-385.23 348.7,-392.05"/>
</g>
<!-- Node12 -->
<g id="node9" class="node">
<title>Node12</title>
<g id="a_node9"><a xlink:href="../../d7/d28/classleanux_1_1block_1_1MajorMinor.html#a546aa9297e382543cb031126190bc8c9" target="_top" xlink:title="determine if the major represents an IDE disk.">
<polygon fill="none" stroke="black" points="359.5,-153.5 359.5,-183.5 502.5,-183.5 502.5,-153.5 359.5,-153.5"/>
<text text-anchor="start" x="367.5" y="-171.5" font-family="Helvetica,sans-Serif" font-size="10.00">leanux::block::MajorMinor</text>
<text text-anchor="middle" x="431" y="-160.5" font-family="Helvetica,sans-Serif" font-size="10.00">::isIDEDisk</text>
</a>
</g>
</g>
<!-- Node1&#45;&gt;Node12 -->
<g id="edge10" class="edge">
<title>Node1&#45;&gt;Node12</title>
<path fill="none" stroke="midnightblue" d="M143.13,-198.99C202.4,-192.69 287.08,-183.69 349.08,-177.1"/>
<polygon fill="midnightblue" stroke="midnightblue" points="349.64,-180.56 359.21,-176.02 348.9,-173.6 349.64,-180.56"/>
</g>
<!-- Node13 -->
<g id="node10" class="node">
<title>Node13</title>
<g id="a_node10"><a xlink:href="../../d7/d28/classleanux_1_1block_1_1MajorMinor.html#a852aa9e7ee1c107c95cd27ad47b5cf86" target="_top" xlink:title="determine if the MajorMinor represents an MMC disk.">
<polygon fill="none" stroke="black" points="359.5,-339.5 359.5,-369.5 502.5,-369.5 502.5,-339.5 359.5,-339.5"/>
<text text-anchor="start" x="367.5" y="-357.5" font-family="Helvetica,sans-Serif" font-size="10.00">leanux::block::MajorMinor</text>
<text text-anchor="middle" x="431" y="-346.5" font-family="Helvetica,sans-Serif" font-size="10.00">::isMMCDisk</text>
</a>
</g>
</g>
<!-- Node1&#45;&gt;Node13 -->
<g id="edge11" class="edge">
<title>Node1&#45;&gt;Node13</title>
<path fill="none" stroke="midnightblue" d="M88.97,-221.54C108.91,-239.01 144.16,-267.58 179,-284.5 233.18,-310.81 298.88,-328.68 349.48,-339.78"/>
<polygon fill="midnightblue" stroke="midnightblue" points="348.87,-343.23 359.39,-341.91 350.34,-336.39 348.87,-343.23"/>
</g>
<!-- Node14 -->
<g id="node11" class="node">
<title>Node14</title>
<g id="a_node11"><a xlink:href="../../d7/d28/classleanux_1_1block_1_1MajorMinor.html#ab248c720a63908f9e3ef78ed23536de8" target="_top" xlink:title="determine if the MajorMinor represents a NVMe disk.">
<polygon fill="none" stroke="black" points="359.5,-290.5 359.5,-320.5 502.5,-320.5 502.5,-290.5 359.5,-290.5"/>
<text text-anchor="start" x="367.5" y="-308.5" font-family="Helvetica,sans-Serif" font-size="10.00">leanux::block::MajorMinor</text>
<text text-anchor="middle" x="431" y="-297.5" font-family="Helvetica,sans-Serif" font-size="10.00">::isNVMeDisk</text>
</a>
</g>
</g>
<!-- Node1&#45;&gt;Node14 -->
<g id="edge13" class="edge">
<title>Node1&#45;&gt;Node14</title>
<path fill="none" stroke="midnightblue" d="M102.14,-221.61C123.15,-231.81 152.25,-244.93 179,-253.5 234.81,-271.37 299.61,-284.62 349.39,-293.27"/>
<polygon fill="midnightblue" stroke="midnightblue" points="349.01,-296.75 359.46,-294.99 350.19,-289.85 349.01,-296.75"/>
</g>
<!-- Node15 -->
<g id="node12" class="node">
<title>Node15</title>
<g id="a_node12"><a xlink:href="../../d7/d28/classleanux_1_1block_1_1MajorMinor.html#ad5136fe7853cb6f2ca04eadb465976da" target="_top" xlink:title=" ">
<polygon fill="none" stroke="black" points="179,-213.5 179,-243.5 322,-243.5 322,-213.5 179,-213.5"/>
<text text-anchor="start" x="187" y="-231.5" font-family="Helvetica,sans-Serif" font-size="10.00">leanux::block::MajorMinor</text>
<text text-anchor="middle" x="250.5" y="-220.5" font-family="Helvetica,sans-Serif" font-size="10.00">::isPartition</text>
</a>
</g>
</g>
<!-- Node1&#45;&gt;Node15 -->
<g id="edge15" class="edge">
<title>Node1&#45;&gt;Node15</title>
<path fill="none" stroke="midnightblue" d="M143.22,-215.29C151.66,-216.34 160.33,-217.42 168.9,-218.48"/>
<polygon fill="midnightblue" stroke="midnightblue" points="168.54,-221.96 178.89,-219.72 169.4,-215.02 168.54,-221.96"/>
</g>
<!-- Node16 -->
<g id="node13" class="node">
<title>Node16</title>
<g id="a_node13"><a xlink:href="../../d7/d28/classleanux_1_1block_1_1MajorMinor.html#a6c5b98f8ffc7b8904754ecfe33407e8c" target="_top" xlink:title="determine if the major represents a SCSI disk.">
<polygon fill="none" stroke="black" points="359.5,-104.5 359.5,-134.5 502.5,-134.5 502.5,-104.5 359.5,-104.5"/>
<text text-anchor="start" x="367.5" y="-122.5" font-family="Helvetica,sans-Serif" font-size="10.00">leanux::block::MajorMinor</text>
<text text-anchor="middle" x="431" y="-111.5" font-family="Helvetica,sans-Serif" font-size="10.00">::isSCSIDisk</text>
</a>
</g>
</g>
<!-- Node1&#45;&gt;Node16 -->
<g id="edge25" class="edge">
<title>Node1&#45;&gt;Node16</title>
<path fill="none" stroke="midnightblue" d="M123.82,-191.47C141.28,-186.51 160.94,-181.09 179,-176.5 235.72,-162.08 300.11,-147.49 349.46,-136.69"/>
<polygon fill="midnightblue" stroke="midnightblue" points="350.42,-140.06 359.44,-134.51 348.93,-133.22 350.42,-140.06"/>
</g>
<!-- Node17 -->
<g id="node14" class="node">
<title>Node17</title>
<g id="a_node14"><a xlink:href="../../d7/d28/classleanux_1_1block_1_1MajorMinor.html#aaa91d26165ff4b7a32cfe052e72463cc" target="_top" xlink:title="determine if the MajorMinor represents a virtio disk.">
<polygon fill="none" stroke="black" points="359.5,-55.5 359.5,-85.5 502.5,-85.5 502.5,-55.5 359.5,-55.5"/>
<text text-anchor="start" x="367.5" y="-73.5" font-family="Helvetica,sans-Serif" font-size="10.00">leanux::block::MajorMinor</text>
<text text-anchor="middle" x="431" y="-62.5" font-family="Helvetica,sans-Serif" font-size="10.00">::isVirtIODisk</text>
</a>
</g>
</g>
<!-- Node1&#45;&gt;Node17 -->
<g id="edge26" class="edge">
<title>Node1&#45;&gt;Node17</title>
<path fill="none" stroke="midnightblue" d="M92.27,-191.26C112.9,-176 146.7,-152.79 179,-138.5 233.77,-114.28 299.18,-96.9 349.49,-85.78"/>
<polygon fill="midnightblue" stroke="midnightblue" points="350.32,-89.18 359.34,-83.63 348.83,-82.34 350.32,-89.18"/>
</g>
<!-- Node3 -->
<g id="node3" class="node">
<title>Node3</title>
<g id="a_node3"><a xlink:href="../../d8/db1/namespaceleanux_1_1util.html#a57bfd49353610b3d0b6d121b264c676e" target="_top" xlink:title="read the file as a single string.">
<polygon fill="none" stroke="black" points="358,-476 358,-495 504,-495 504,-476 358,-476"/>
<text text-anchor="middle" x="431" y="-483" font-family="Helvetica,sans-Serif" font-size="10.00">leanux::util::fileReadString</text>
</a>
</g>
</g>
<!-- Node2&#45;&gt;Node3 -->
<g id="edge2" class="edge">
<title>Node2&#45;&gt;Node3</title>
<path fill="none" stroke="midnightblue" d="M322.05,-462.52C339.72,-466.28 358.42,-470.26 375.2,-473.83"/>
<polygon fill="midnightblue" stroke="midnightblue" points="374.86,-477.34 385.37,-476 376.32,-470.49 374.86,-477.34"/>
</g>
<!-- Node4 -->
<g id="node4" class="node">
<title>Node4</title>
<g id="a_node4"><a xlink:href="../../d7/d28/classleanux_1_1block_1_1MajorMinor.html#adc3f437e329318ee21bddbbebaeb740e" target="_top" xlink:title="Get the DeviceName for the MajorMinor.">
<polygon fill="none" stroke="red" points="540,-290.5 540,-320.5 683,-320.5 683,-290.5 540,-290.5"/>
<text text-anchor="start" x="548" y="-308.5" font-family="Helvetica,sans-Serif" font-size="10.00">leanux::block::MajorMinor</text>
<text text-anchor="middle" x="611.5" y="-297.5" font-family="Helvetica,sans-Serif" font-size="10.00">::getNameByMajorMinor</text>
</a>
</g>
</g>
<!-- Node2&#45;&gt;Node4 -->
<g id="edge3" class="edge">
<title>Node2&#45;&gt;Node4</title>
<path fill="none" stroke="midnightblue" d="M322.01,-456.13C374.88,-459.4 447.55,-456.9 504,-428.5 547.49,-406.62 580.69,-358.45 597.75,-329.31"/>
<polygon fill="midnightblue" stroke="midnightblue" points="600.81,-331 602.71,-320.57 594.73,-327.54 600.81,-331"/>
</g>
<!-- Node9 -->
<g id="node6" class="node">
<title>Node9</title>
<g id="a_node6"><a xlink:href="../../d7/d28/classleanux_1_1block_1_1MajorMinor.html#a7ef43192321c82d296575f35b69c52d4" target="_top" xlink:title="Get the udev path for the device.">
<polygon fill="none" stroke="black" points="359.5,-6.5 359.5,-36.5 502.5,-36.5 502.5,-6.5 359.5,-6.5"/>
<text text-anchor="start" x="367.5" y="-24.5" font-family="Helvetica,sans-Serif" font-size="10.00">leanux::block::MajorMinor</text>
<text text-anchor="middle" x="431" y="-13.5" font-family="Helvetica,sans-Serif" font-size="10.00">::getUDevPath</text>
</a>
</g>
</g>
<!-- Node8&#45;&gt;Node9 -->
<g id="edge5" class="edge">
<title>Node8&#45;&gt;Node9</title>
<path fill="none" stroke="midnightblue" d="M313.93,-49.46C328.06,-46.06 343.18,-42.41 357.68,-38.92"/>
<polygon fill="midnightblue" stroke="midnightblue" points="358.7,-42.28 367.6,-36.53 357.06,-35.47 358.7,-42.28"/>
</g>
<!-- Node9&#45;&gt;Node4 -->
<g id="edge6" class="edge">
<title>Node9&#45;&gt;Node4</title>
<path fill="none" stroke="midnightblue" d="M490,-36.5C495.09,-39.29 499.87,-42.59 504,-46.5 573.26,-111.99 598.9,-229.08 607.11,-280.32"/>
<polygon fill="midnightblue" stroke="midnightblue" points="603.65,-280.85 608.61,-290.21 610.57,-279.8 603.65,-280.85"/>
</g>
<!-- Node11&#45;&gt;Node4 -->
<g id="edge9" class="edge">
<title>Node11&#45;&gt;Node4</title>
<path fill="none" stroke="midnightblue" d="M483.09,-388.5C490.25,-385.81 497.4,-382.81 504,-379.5 533.19,-364.87 563.49,-343.07 584.27,-326.92"/>
<polygon fill="midnightblue" stroke="midnightblue" points="586.6,-329.53 592.29,-320.6 582.27,-324.04 586.6,-329.53"/>
</g>
<!-- Node13&#45;&gt;Node4 -->
<g id="edge12" class="edge">
<title>Node13&#45;&gt;Node4</title>
<path fill="none" stroke="midnightblue" d="M487.01,-339.4C505.59,-334.3 526.51,-328.56 545.77,-323.27"/>
<polygon fill="midnightblue" stroke="midnightblue" points="546.95,-326.57 555.67,-320.55 545.1,-319.82 546.95,-326.57"/>
</g>
<!-- Node14&#45;&gt;Node4 -->
<g id="edge14" class="edge">
<title>Node14&#45;&gt;Node4</title>
<path fill="none" stroke="midnightblue" d="M502.55,-305.5C511.47,-305.5 520.65,-305.5 529.72,-305.5"/>
<polygon fill="midnightblue" stroke="midnightblue" points="529.88,-309 539.88,-305.5 529.88,-302 529.88,-309"/>
</g>
<!-- Node15&#45;&gt;Node4 -->
<g id="edge16" class="edge">
<title>Node15&#45;&gt;Node4</title>
<path fill="none" stroke="midnightblue" d="M322.03,-243.01C372.7,-253.51 442.62,-268.14 504,-281.5 513.96,-283.67 524.44,-285.99 534.78,-288.29"/>
<polygon fill="midnightblue" stroke="midnightblue" points="534.11,-291.73 544.63,-290.5 535.64,-284.9 534.11,-291.73"/>
</g>
<!-- Node15&#45;&gt;Node11 -->
<g id="edge17" class="edge">
<title>Node15&#45;&gt;Node11</title>
<path fill="none" stroke="midnightblue" d="M258.21,-243.78C272.28,-274.1 307.79,-342.19 358,-379.5 360.04,-381.01 362.17,-382.43 364.38,-383.77"/>
<polygon fill="midnightblue" stroke="midnightblue" points="362.75,-386.87 373.22,-388.5 366.06,-380.69 362.75,-386.87"/>
</g>
<!-- Node15&#45;&gt;Node12 -->
<g id="edge18" class="edge">
<title>Node15&#45;&gt;Node12</title>
<path fill="none" stroke="midnightblue" d="M296.54,-213.36C320.52,-205.3 350.2,-195.32 375.47,-186.83"/>
<polygon fill="midnightblue" stroke="midnightblue" points="376.92,-190.04 385.28,-183.53 374.69,-183.4 376.92,-190.04"/>
</g>
<!-- Node15&#45;&gt;Node13 -->
<g id="edge19" class="edge">
<title>Node15&#45;&gt;Node13</title>
<path fill="none" stroke="midnightblue" d="M263.65,-243.84C281.92,-265.94 318.54,-306.7 358,-330.5 360.82,-332.2 363.78,-333.8 366.82,-335.3"/>
<polygon fill="midnightblue" stroke="midnightblue" points="365.57,-338.58 376.13,-339.5 368.45,-332.2 365.57,-338.58"/>
</g>
<!-- Node15&#45;&gt;Node14 -->
<g id="edge20" class="edge">
<title>Node15&#45;&gt;Node14</title>
<path fill="none" stroke="midnightblue" d="M285.48,-243.71C306.35,-253 333.67,-265.06 358,-275.5 366.41,-279.11 375.39,-282.9 384.06,-286.53"/>
<polygon fill="midnightblue" stroke="midnightblue" points="382.73,-289.76 393.31,-290.39 385.43,-283.3 382.73,-289.76"/>
</g>
<!-- Node15&#45;&gt;Node16 -->
<g id="edge21" class="edge">
<title>Node15&#45;&gt;Node16</title>
<path fill="none" stroke="midnightblue" d="M267.25,-213.26C287.03,-194.82 322.68,-163.84 358,-144.5 361.89,-142.37 366,-140.37 370.2,-138.5"/>
<polygon fill="midnightblue" stroke="midnightblue" points="371.61,-141.7 379.49,-134.62 368.92,-135.24 371.61,-141.7"/>
</g>
<!-- Node15&#45;&gt;Node17 -->
<g id="edge22" class="edge">
<title>Node15&#45;&gt;Node17</title>
<path fill="none" stroke="midnightblue" d="M259.69,-213.43C275.28,-186.09 311.85,-128.09 358,-95.5 360.7,-93.59 363.56,-91.82 366.53,-90.17"/>
<polygon fill="midnightblue" stroke="midnightblue" points="368.29,-93.2 375.66,-85.6 365.16,-86.94 368.29,-93.2"/>
</g>
<!-- Node6 -->
<g id="node15" class="node">
<title>Node6</title>
<g id="a_node15"><a xlink:href="../../d7/d28/classleanux_1_1block_1_1MajorMinor.html#a464bd4b85ec6d88f850ef7d76e950f44" target="_top" xlink:title="Default constructor.">
<polygon fill="none" stroke="black" points="359.5,-202.5 359.5,-232.5 502.5,-232.5 502.5,-202.5 359.5,-202.5"/>
<text text-anchor="start" x="367.5" y="-220.5" font-family="Helvetica,sans-Serif" font-size="10.00">leanux::block::MajorMinor</text>
<text text-anchor="middle" x="431" y="-209.5" font-family="Helvetica,sans-Serif" font-size="10.00">::MajorMinor</text>
</a>
</g>
</g>
<!-- Node15&#45;&gt;Node6 -->
<g id="edge24" class="edge">
<title>Node15&#45;&gt;Node6</title>
<path fill="none" stroke="midnightblue" d="M322.05,-224.15C330.97,-223.6 340.15,-223.04 349.22,-222.48"/>
<polygon fill="midnightblue" stroke="midnightblue" points="349.61,-225.96 359.38,-221.85 349.18,-218.97 349.61,-225.96"/>
</g>
<!-- Node17&#45;&gt;Node4 -->
<g id="edge23" class="edge">
<title>Node17&#45;&gt;Node4</title>
<path fill="none" stroke="midnightblue" d="M489.33,-85.66C494.61,-88.42 499.61,-91.67 504,-95.5 562.31,-146.42 592.63,-236.93 604.46,-280.59"/>
<polygon fill="midnightblue" stroke="midnightblue" points="601.11,-281.59 607.02,-290.38 607.88,-279.82 601.11,-281.59"/>
</g>
</g>
</svg>
