<?xml version="1.0" encoding="UTF-8" standalone="no"?>
<!DOCTYPE svg PUBLIC "-//W3C//DTD SVG 1.1//EN"
 "http://www.w3.org/Graphics/SVG/1.1/DTD/svg11.dtd">
<!-- Generated by graphviz version 2.43.0 (0)
 -->
<!-- Title: leanux::block::MajorMinor::getReadAhead Pages: 1 -->
<svg width="688pt" height="529pt"
 viewBox="0.00 0.00 688.00 528.78" xmlns="http://www.w3.org/2000/svg" xmlns:xlink="http://www.w3.org/1999/xlink">
<g id="graph0" class="graph" transform="scale(1 1) rotate(0) translate(4 524.78)">
<title>leanux::block::MajorMinor::getReadAhead</title>
<!-- Node1 -->
<g id="node1" class="node">
<title>Node1</title>
<g id="a_node1"><a xlink:title="get the read&#45;ahead size for the device">
<polygon fill="#bfbfbf" stroke="black" points="0,-123 0,-153 143,-153 143,-123 0,-123"/>
<text text-anchor="start" x="8" y="-141" font-family="Helvetica,sans-Serif" font-size="10.00">leanux::block::MajorMinor</text>
<text text-anchor="middle" x="71.5" y="-130" font-family="Helvetica,sans-Serif" font-size="10.00">::getReadAhead</text>
</a>
</g>
</g>
<!-- Node2 -->
<g id="node2" class="node">
<title>Node2</title>
<g id="a_node2"><a xlink:href="../../d7/d28/classleanux_1_1block_1_1MajorMinor.html#a5771b2baf04dd79e61c5bcd3f4ec532c" target="_top" xlink:title="Derive the MajorMinor of the whole disk holding a partition.">
<polygon fill="none" stroke="black" points="179,-238 179,-268 322,-268 322,-238 179,-238"/>
<text text-anchor="start" x="187" y="-256" font-family="Helvetica,sans-Serif" font-size="10.00">leanux::block::MajorMinor</text>
<text text-anchor="middle" x="250.5" y="-245" font-family="Helvetica,sans-Serif" font-size="10.00">::deriveWholeDisk</text>
</a>
</g>
</g>
<!-- Node1&#45;&gt;Node2 -->
<g id="edge1" class="edge">
<title>Node1&#45;&gt;Node2</title>
<path fill="none" stroke="midnightblue" d="M95.64,-153.03C126.91,-173.35 182.78,-209.65 217.9,-232.47"/>
<polygon fill="midnightblue" stroke="midnightblue" points="216.06,-235.45 226.35,-237.96 219.88,-229.58 216.06,-235.45"/>
</g>
<!-- Node7 -->
<g id="node4" class="node">
<title>Node7</title>
<g id="a_node4"><a xlink:href="../../d7/d28/classleanux_1_1block_1_1MajorMinor.html#adc3f437e329318ee21bddbbebaeb740e" target="_top" xlink:title="Get the DeviceName for the MajorMinor.">
<polygon fill="none" stroke="red" points="537,-361 537,-391 680,-391 680,-361 537,-361"/>
<text text-anchor="start" x="545" y="-379" font-family="Helvetica,sans-Serif" font-size="10.00">leanux::block::MajorMinor</text>
<text text-anchor="middle" x="608.5" y="-368" font-family="Helvetica,sans-Serif" font-size="10.00">::getNameByMajorMinor</text>
</a>
</g>
</g>
<!-- Node1&#45;&gt;Node7 -->
<g id="edge16" class="edge">
<title>Node1&#45;&gt;Node7</title>
<path fill="none" stroke="midnightblue" d="M96.79,-122.89C166.81,-81.48 372.22,24.83 501,-67 594.94,-133.99 606.84,-289.52 607.76,-350.66"/>
<polygon fill="midnightblue" stroke="midnightblue" points="604.26,-350.96 607.82,-360.94 611.26,-350.92 604.26,-350.96"/>
</g>
<!-- Node14 -->
<g id="node12" class="node">
<title>Node14</title>
<g id="a_node12"><a xlink:href="../../d8/db1/namespaceleanux_1_1util.html#a1e9a1206d94b2f96e8e0c6adc4e4cd12" target="_top" xlink:title="read the first data in the file as a string representation of a unsigned long.">
<polygon fill="none" stroke="black" points="185.5,-0.5 185.5,-19.5 315.5,-19.5 315.5,-0.5 185.5,-0.5"/>
<text text-anchor="middle" x="250.5" y="-7.5" font-family="Helvetica,sans-Serif" font-size="10.00">leanux::util::fileReadUL</text>
</a>
</g>
</g>
<!-- Node1&#45;&gt;Node14 -->
<g id="edge15" class="edge">
<title>Node1&#45;&gt;Node14</title>
<path fill="none" stroke="midnightblue" d="M84.3,-122.76C102.41,-100.33 139.14,-58.48 179,-34 186.05,-29.67 193.98,-26.01 201.91,-22.94"/>
<polygon fill="midnightblue" stroke="midnightblue" points="203.28,-26.17 211.52,-19.5 200.93,-19.58 203.28,-26.17"/>
</g>
<!-- Node15 -->
<g id="node13" class="node">
<title>Node15</title>
<g id="a_node13"><a xlink:href="../../d7/d28/classleanux_1_1block_1_1MajorMinor.html#ad5136fe7853cb6f2ca04eadb465976da" target="_top" xlink:title=" ">
<polygon fill="none" stroke="black" points="179,-312 179,-342 322,-342 322,-312 179,-312"/>
<text text-anchor="start" x="187" y="-330" font-family="Helvetica,sans-Serif" font-size="10.00">leanux::block::MajorMinor</text>
<text text-anchor="middle" x="250.5" y="-319" font-family="Helvetica,sans-Serif" font-size="10.00">::isPartition</text>
</a>
</g>
</g>
<!-- Node1&#45;&gt;Node15 -->
<g id="edge17" class="edge">
<title>Node1&#45;&gt;Node15</title>
<path fill="none" stroke="midnightblue" d="M82.06,-153.39C99.3,-180.37 137.63,-237.13 179,-277 190.13,-287.73 203.71,-297.91 215.98,-306.26"/>
<polygon fill="midnightblue" stroke="midnightblue" points="214.35,-309.38 224.62,-312 218.22,-303.55 214.35,-309.38"/>
</g>
<!-- Node3 -->
<g id="node3" class="node">
<title>Node3</title>
<g id="a_node3"><a xlink:href="../../d7/d28/classleanux_1_1block_1_1MajorMinor.html#a3f7315088bb27e09449e3c2542b65958" target="_top" xlink:title="Get the MajorMinor for the device name.">
<polygon fill="none" stroke="red" points="358,-77 358,-107 501,-107 501,-77 358,-77"/>
<text text-anchor="start" x="366" y="-95" font-family="Helvetica,sans-Serif" font-size="10.00">leanux::block::MajorMinor</text>
<text text-anchor="middle" x="429.5" y="-84" font-family="Helvetica,sans-Serif" font-size="10.00">::getMajorMinorByName</text>
</a>
</g>
</g>
<!-- Node2&#45;&gt;Node3 -->
<g id="edge2" class="edge">
<title>Node2&#45;&gt;Node3</title>
<path fill="none" stroke="midnightblue" d="M260.47,-237.62C276.78,-210.84 313.74,-155.32 358,-122 363.09,-118.17 368.75,-114.72 374.57,-111.64"/>
<polygon fill="midnightblue" stroke="midnightblue" points="376.38,-114.66 383.82,-107.12 373.3,-108.37 376.38,-114.66"/>
</g>
<!-- Node2&#45;&gt;Node7 -->
<g id="edge3" class="edge">
<title>Node2&#45;&gt;Node7</title>
<path fill="none" stroke="midnightblue" d="M262.09,-237.71C279.15,-214.61 315.16,-171.71 358,-155 417.21,-131.9 447.18,-121.19 501,-155 570.76,-198.82 595.9,-302.6 604.03,-350.7"/>
<polygon fill="midnightblue" stroke="midnightblue" points="600.62,-351.54 605.63,-360.88 607.53,-350.45 600.62,-351.54"/>
</g>
<!-- Node8 -->
<g id="node5" class="node">
<title>Node8</title>
<g id="a_node5"><a xlink:href="../../d7/d28/classleanux_1_1block_1_1MajorMinor.html#a59e3fe2f1a574b79bad1fe48a2334c27" target="_top" xlink:title="determine if the MajorMinor represents a bcache disk.">
<polygon fill="none" stroke="black" points="358,-459 358,-489 501,-489 501,-459 358,-459"/>
<text text-anchor="start" x="366" y="-477" font-family="Helvetica,sans-Serif" font-size="10.00">leanux::block::MajorMinor</text>
<text text-anchor="middle" x="429.5" y="-466" font-family="Helvetica,sans-Serif" font-size="10.00">::isBCacheDisk</text>
</a>
</g>
</g>
<!-- Node2&#45;&gt;Node8 -->
<g id="edge4" class="edge">
<title>Node2&#45;&gt;Node8</title>
<path fill="none" stroke="midnightblue" d="M282.92,-268.14C296.83,-276.34 312.22,-287.74 322,-302 360.28,-357.83 312.32,-400.04 358,-450 358.88,-450.97 359.81,-451.89 360.77,-452.78"/>
<polygon fill="midnightblue" stroke="midnightblue" points="358.68,-455.6 368.75,-458.9 362.94,-450.04 358.68,-455.6"/>
</g>
<!-- Node9 -->
<g id="node6" class="node">
<title>Node9</title>
<g id="a_node6"><a xlink:href="../../d7/d28/classleanux_1_1block_1_1MajorMinor.html#a546aa9297e382543cb031126190bc8c9" target="_top" xlink:title="determine if the major represents an IDE disk.">
<polygon fill="none" stroke="black" points="358,-263 358,-293 501,-293 501,-263 358,-263"/>
<text text-anchor="start" x="366" y="-281" font-family="Helvetica,sans-Serif" font-size="10.00">leanux::block::MajorMinor</text>
<text text-anchor="middle" x="429.5" y="-270" font-family="Helvetica,sans-Serif" font-size="10.00">::isIDEDisk</text>
</a>
</g>
</g>
<!-- Node2&#45;&gt;Node9 -->
<g id="edge6" class="edge">
<title>Node2&#45;&gt;Node9</title>
<path fill="none" stroke="midnightblue" d="M322.22,-262.99C330.66,-264.18 339.33,-265.41 347.9,-266.62"/>
<polygon fill="midnightblue" stroke="midnightblue" points="347.5,-270.09 357.89,-268.03 348.48,-263.16 347.5,-270.09"/>
</g>
<!-- Node10 -->
<g id="node7" class="node">
<title>Node10</title>
<g id="a_node7"><a xlink:href="../../d7/d28/classleanux_1_1block_1_1MajorMinor.html#a852aa9e7ee1c107c95cd27ad47b5cf86" target="_top" xlink:title="determine if the MajorMinor represents an MMC disk.">
<polygon fill="none" stroke="black" points="358,-410 358,-440 501,-440 501,-410 358,-410"/>
<text text-anchor="start" x="366" y="-428" font-family="Helvetica,sans-Serif" font-size="10.00">leanux::block::MajorMinor</text>
<text text-anchor="middle" x="429.5" y="-417" font-family="Helvetica,sans-Serif" font-size="10.00">::isMMCDisk</text>
</a>
</g>
</g>
<!-- Node2&#45;&gt;Node10 -->
<g id="edge7" class="edge">
<title>Node2&#45;&gt;Node10</title>
<path fill="none" stroke="midnightblue" d="M281.15,-268.02C295.16,-276.39 311.16,-287.96 322,-302 350.37,-338.72 325,-367.37 358,-400 359.45,-401.44 361,-402.79 362.61,-404.07"/>
<polygon fill="midnightblue" stroke="midnightblue" points="360.95,-407.17 371.2,-409.84 364.85,-401.36 360.95,-407.17"/>
</g>
<!-- Node11 -->
<g id="node8" class="node">
<title>Node11</title>
<g id="a_node8"><a xlink:href="../../d7/d28/classleanux_1_1block_1_1MajorMinor.html#ab248c720a63908f9e3ef78ed23536de8" target="_top" xlink:title="determine if the MajorMinor represents a NVMe disk.">
<polygon fill="none" stroke="black" points="358,-361 358,-391 501,-391 501,-361 358,-361"/>
<text text-anchor="start" x="366" y="-379" font-family="Helvetica,sans-Serif" font-size="10.00">leanux::block::MajorMinor</text>
<text text-anchor="middle" x="429.5" y="-368" font-family="Helvetica,sans-Serif" font-size="10.00">::isNVMeDisk</text>
</a>
</g>
</g>
<!-- Node2&#45;&gt;Node11 -->
<g id="edge9" class="edge">
<title>Node2&#45;&gt;Node11</title>
<path fill="none" stroke="midnightblue" d="M277.5,-268.15C291.53,-277.01 308.65,-289 322,-302 341.36,-320.86 336.31,-334.88 358,-351 360.47,-352.84 363.1,-354.55 365.82,-356.14"/>
<polygon fill="midnightblue" stroke="midnightblue" points="364.3,-359.3 374.78,-360.84 367.55,-353.1 364.3,-359.3"/>
</g>
<!-- Node12 -->
<g id="node9" class="node">
<title>Node12</title>
<g id="a_node9"><a xlink:href="../../d7/d28/classleanux_1_1block_1_1MajorMinor.html#a6c5b98f8ffc7b8904754ecfe33407e8c" target="_top" xlink:title="determine if the major represents a SCSI disk.">
<polygon fill="none" stroke="black" points="358,-214 358,-244 501,-244 501,-214 358,-214"/>
<text text-anchor="start" x="366" y="-232" font-family="Helvetica,sans-Serif" font-size="10.00">leanux::block::MajorMinor</text>
<text text-anchor="middle" x="429.5" y="-221" font-family="Helvetica,sans-Serif" font-size="10.00">::isSCSIDisk</text>
</a>
</g>
</g>
<!-- Node2&#45;&gt;Node12 -->
<g id="edge11" class="edge">
<title>Node2&#45;&gt;Node12</title>
<path fill="none" stroke="midnightblue" d="M322.22,-243.41C330.66,-242.27 339.33,-241.09 347.9,-239.93"/>
<polygon fill="midnightblue" stroke="midnightblue" points="348.46,-243.39 357.89,-238.57 347.51,-236.45 348.46,-243.39"/>
</g>
<!-- Node13 -->
<g id="node10" class="node">
<title>Node13</title>
<g id="a_node10"><a xlink:href="../../d7/d28/classleanux_1_1block_1_1MajorMinor.html#aaa91d26165ff4b7a32cfe052e72463cc" target="_top" xlink:title="determine if the MajorMinor represents a virtio disk.">
<polygon fill="none" stroke="black" points="358,-312 358,-342 501,-342 501,-312 358,-312"/>
<text text-anchor="start" x="366" y="-330" font-family="Helvetica,sans-Serif" font-size="10.00">leanux::block::MajorMinor</text>
<text text-anchor="middle" x="429.5" y="-319" font-family="Helvetica,sans-Serif" font-size="10.00">::isVirtIODisk</text>
</a>
</g>
</g>
<!-- Node2&#45;&gt;Node13 -->
<g id="edge12" class="edge">
<title>Node2&#45;&gt;Node13</title>
<path fill="none" stroke="midnightblue" d="M282.4,-268.12C303.48,-278.21 332.17,-291.5 358,-302 363.32,-304.16 368.9,-306.32 374.5,-308.42"/>
<polygon fill="midnightblue" stroke="midnightblue" points="373.3,-311.7 383.89,-311.87 375.71,-305.13 373.3,-311.7"/>
</g>
<!-- Node5 -->
<g id="node11" class="node">
<title>Node5</title>
<g id="a_node11"><a xlink:href="../../d7/d28/classleanux_1_1block_1_1MajorMinor.html#a464bd4b85ec6d88f850ef7d76e950f44" target="_top" xlink:title="Default constructor.">
<polygon fill="none" stroke="black" points="358,-165 358,-195 501,-195 501,-165 358,-165"/>
<text text-anchor="start" x="366" y="-183" font-family="Helvetica,sans-Serif" font-size="10.00">leanux::block::MajorMinor</text>
<text text-anchor="middle" x="429.5" y="-172" font-family="Helvetica,sans-Serif" font-size="10.00">::MajorMinor</text>
</a>
</g>
</g>
<!-- Node2&#45;&gt;Node5 -->
<g id="edge14" class="edge">
<title>Node2&#45;&gt;Node5</title>
<path fill="none" stroke="midnightblue" d="M282.36,-237.78C303.42,-227.64 332.1,-214.33 358,-204 362.68,-202.13 367.58,-200.27 372.51,-198.47"/>
<polygon fill="midnightblue" stroke="midnightblue" points="373.75,-201.74 381.98,-195.07 371.39,-195.15 373.75,-201.74"/>
</g>
<!-- Node8&#45;&gt;Node7 -->
<g id="edge5" class="edge">
<title>Node8&#45;&gt;Node7</title>
<path fill="none" stroke="midnightblue" d="M480.52,-458.92C487.53,-456.25 494.54,-453.26 501,-450 530.14,-435.28 560.45,-413.49 581.24,-397.36"/>
<polygon fill="midnightblue" stroke="midnightblue" points="583.57,-399.99 589.27,-391.06 579.24,-394.48 583.57,-399.99"/>
</g>
<!-- Node10&#45;&gt;Node7 -->
<g id="edge8" class="edge">
<title>Node10&#45;&gt;Node7</title>
<path fill="none" stroke="midnightblue" d="M485.05,-409.9C503.47,-404.8 524.21,-399.06 543.31,-393.77"/>
<polygon fill="midnightblue" stroke="midnightblue" points="544.43,-397.09 553.13,-391.05 542.56,-390.35 544.43,-397.09"/>
</g>
<!-- Node11&#45;&gt;Node7 -->
<g id="edge10" class="edge">
<title>Node11&#45;&gt;Node7</title>
<path fill="none" stroke="midnightblue" d="M501.22,-376C509.57,-376 518.14,-376 526.62,-376"/>
<polygon fill="midnightblue" stroke="midnightblue" points="526.89,-379.5 536.89,-376 526.89,-372.5 526.89,-379.5"/>
</g>
<!-- Node13&#45;&gt;Node7 -->
<g id="edge13" class="edge">
<title>Node13&#45;&gt;Node7</title>
<path fill="none" stroke="midnightblue" d="M485.05,-342.1C503.47,-347.2 524.21,-352.94 543.31,-358.23"/>
<polygon fill="midnightblue" stroke="midnightblue" points="542.56,-361.65 553.13,-360.95 544.43,-354.91 542.56,-361.65"/>
</g>
<!-- Node15&#45;&gt;Node7 -->
<g id="edge18" class="edge">
<title>Node15&#45;&gt;Node7</title>
<path fill="none" stroke="midnightblue" d="M255.44,-342.12C265.54,-377.35 296.02,-464.48 358,-499 413.52,-529.93 443.19,-525.41 501,-499 545.28,-478.77 578.21,-430.03 595,-400.34"/>
<polygon fill="midnightblue" stroke="midnightblue" points="598.15,-401.88 599.88,-391.43 592.01,-398.52 598.15,-401.88"/>
</g>
<!-- Node15&#45;&gt;Node8 -->
<g id="edge19" class="edge">
<title>Node15&#45;&gt;Node8</title>
<path fill="none" stroke="midnightblue" d="M260.73,-342.15C277.16,-367.91 313.95,-420.34 358,-450 360.28,-451.54 362.68,-452.99 365.14,-454.35"/>
<polygon fill="midnightblue" stroke="midnightblue" points="363.82,-457.6 374.34,-458.92 366.94,-451.33 363.82,-457.6"/>
</g>
<!-- Node15&#45;&gt;Node9 -->
<g id="edge20" class="edge">
<title>Node15&#45;&gt;Node9</title>
<path fill="none" stroke="midnightblue" d="M306.05,-311.9C324.47,-306.8 345.21,-301.06 364.31,-295.77"/>
<polygon fill="midnightblue" stroke="midnightblue" points="365.43,-299.09 374.13,-293.05 363.56,-292.35 365.43,-299.09"/>
</g>
<!-- Node15&#45;&gt;Node10 -->
<g id="edge21" class="edge">
<title>Node15&#45;&gt;Node10</title>
<path fill="none" stroke="midnightblue" d="M270.18,-342.05C290.74,-358.05 325.24,-383.32 358,-400 362.26,-402.17 366.75,-404.23 371.32,-406.17"/>
<polygon fill="midnightblue" stroke="midnightblue" points="370.18,-409.48 380.76,-409.98 372.8,-402.99 370.18,-409.48"/>
</g>
<!-- Node15&#45;&gt;Node11 -->
<g id="edge22" class="edge">
<title>Node15&#45;&gt;Node11</title>
<path fill="none" stroke="midnightblue" d="M306.05,-342.1C324.47,-347.2 345.21,-352.94 364.31,-358.23"/>
<polygon fill="midnightblue" stroke="midnightblue" points="363.56,-361.65 374.13,-360.95 365.43,-354.91 363.56,-361.65"/>
</g>
<!-- Node15&#45;&gt;Node12 -->
<g id="edge23" class="edge">
<title>Node15&#45;&gt;Node12</title>
<path fill="none" stroke="midnightblue" d="M272.89,-311.91C302.66,-290.94 353.48,-255.28 358,-253 361.53,-251.21 365.23,-249.51 369,-247.9"/>
<polygon fill="midnightblue" stroke="midnightblue" points="370.51,-251.07 378.48,-244.08 367.9,-244.57 370.51,-251.07"/>
</g>
<!-- Node15&#45;&gt;Node13 -->
<g id="edge24" class="edge">
<title>Node15&#45;&gt;Node13</title>
<path fill="none" stroke="midnightblue" d="M322.22,-327C330.57,-327 339.14,-327 347.62,-327"/>
<polygon fill="midnightblue" stroke="midnightblue" points="347.89,-330.5 357.89,-327 347.89,-323.5 347.89,-330.5"/>
</g>
<!-- Node15&#45;&gt;Node5 -->
<g id="edge25" class="edge">
<title>Node15&#45;&gt;Node5</title>
<path fill="none" stroke="midnightblue" d="M279.12,-311.91C293.28,-303.14 310.03,-291.04 322,-277 345.47,-249.47 330.81,-227.86 358,-204 359.34,-202.83 360.73,-201.71 362.18,-200.65"/>
<polygon fill="midnightblue" stroke="midnightblue" points="364.33,-203.43 370.93,-195.14 360.6,-197.51 364.33,-203.43"/>
</g>
</g>
</svg>
