<?xml version="1.0" encoding="UTF-8" standalone="no"?>
<!DOCTYPE svg PUBLIC "-//W3C//DTD SVG 1.1//EN"
 "http://www.w3.org/Graphics/SVG/1.1/DTD/svg11.dtd">
<!-- Generated by graphviz version 2.43.0 (0)
 -->
<!-- Title: leanux::block::MajorMinor::getDiskId Pages: 1 -->
<svg width="875pt" height="647pt"
 viewBox="0.00 0.00 875.00 647.17" xmlns="http://www.w3.org/2000/svg" xmlns:xlink="http://www.w3.org/1999/xlink">
<g id="graph0" class="graph" transform="scale(1 1) rotate(0) translate(4 643.17)">
<title>leanux::block::MajorMinor::getDiskId</title>
<!-- Node1 -->
<g id="node1" class="node">
<title>Node1</title>
<g id="a_node1"><a xlink:title="Retrieve a string identifying a disk on a best&#45;efffort basis.">
<polygon fill="#bfbfbf" stroke="black" points="0,-420.5 0,-450.5 143,-450.5 143,-420.5 0,-420.5"/>
<text text-anchor="start" x="8" y="-438.5" font-family="Helvetica,sans-Serif" font-size="10.00">leanux::block::MajorMinor</text>
<text text-anchor="middle" x="71.5" y="-427.5" font-family="Helvetica,sans-Serif" font-size="10.00">::getDiskId</text>
</a>
</g>
</g>
<!-- Node2 -->
<g id="node2" class="node">
<title>Node2</title>
<g id="a_node2"><a xlink:href="../../d7/d28/classleanux_1_1block_1_1MajorMinor.html#ad8b93c3f6fc290008c2025e5e3d42eb5" target="_top" xlink:title="Get the DeviceClass for a MajorMinor.">
<polygon fill="none" stroke="black" points="179,-218.5 179,-248.5 322,-248.5 322,-218.5 179,-218.5"/>
<text text-anchor="start" x="187" y="-236.5" font-family="Helvetica,sans-Serif" font-size="10.00">leanux::block::MajorMinor</text>
<text text-anchor="middle" x="250.5" y="-225.5" font-family="Helvetica,sans-Serif" font-size="10.00">::getClass</text>
</a>
</g>
</g>
<!-- Node1&#45;&gt;Node2 -->
<g id="edge1" class="edge">
<title>Node1&#45;&gt;Node2</title>
<path fill="none" stroke="midnightblue" d="M85.8,-420.32C116.63,-385.14 193.09,-297.87 229.55,-256.27"/>
<polygon fill="midnightblue" stroke="midnightblue" points="232.33,-258.41 236.28,-248.58 227.06,-253.8 232.33,-258.41"/>
</g>
<!-- Node3 -->
<g id="node3" class="node">
<title>Node3</title>
<g id="a_node3"><a xlink:href="../../d7/d28/classleanux_1_1block_1_1MajorMinor.html#a211f6f6595c83289600887d41d394742" target="_top" xlink:title="return the device dm uuid (or an empty string if not a dm device)">
<polygon fill="none" stroke="black" points="358,-344.5 358,-374.5 501,-374.5 501,-344.5 358,-344.5"/>
<text text-anchor="start" x="366" y="-362.5" font-family="Helvetica,sans-Serif" font-size="10.00">leanux::block::MajorMinor</text>
<text text-anchor="middle" x="429.5" y="-351.5" font-family="Helvetica,sans-Serif" font-size="10.00">::getDMUUID</text>
</a>
</g>
</g>
<!-- Node1&#45;&gt;Node3 -->
<g id="edge27" class="edge">
<title>Node1&#45;&gt;Node3</title>
<path fill="none" stroke="midnightblue" d="M142.83,-420.48C201.86,-407.88 286.18,-389.88 347.92,-376.7"/>
<polygon fill="midnightblue" stroke="midnightblue" points="348.96,-380.06 358.01,-374.55 347.5,-373.21 348.96,-380.06"/>
</g>
<!-- Node5 -->
<g id="node5" class="node">
<title>Node5</title>
<g id="a_node5"><a xlink:href="../../d7/d28/classleanux_1_1block_1_1MajorMinor.html#adc3f437e329318ee21bddbbebaeb740e" target="_top" xlink:title="Get the DeviceName for the MajorMinor.">
<polygon fill="none" stroke="red" points="724,-306.5 724,-336.5 867,-336.5 867,-306.5 724,-306.5"/>
<text text-anchor="start" x="732" y="-324.5" font-family="Helvetica,sans-Serif" font-size="10.00">leanux::block::MajorMinor</text>
<text text-anchor="middle" x="795.5" y="-313.5" font-family="Helvetica,sans-Serif" font-size="10.00">::getNameByMajorMinor</text>
</a>
</g>
</g>
<!-- Node1&#45;&gt;Node5 -->
<g id="edge30" class="edge">
<title>Node1&#45;&gt;Node5</title>
<path fill="none" stroke="midnightblue" d="M81.68,-450.68C97.79,-475.7 133.76,-524.9 179,-545.5 385.03,-639.31 498.5,-688.35 688,-564.5 763.77,-514.98 785.97,-398.29 792.2,-346.74"/>
<polygon fill="midnightblue" stroke="midnightblue" points="795.68,-347.1 793.29,-336.77 788.72,-346.33 795.68,-347.1"/>
</g>
<!-- Node19 -->
<g id="node16" class="node">
<title>Node19</title>
<g id="a_node16"><a xlink:href="../../d7/d28/classleanux_1_1block_1_1MajorMinor.html#ae38226ce52162353e6fd5d77fd610442" target="_top" xlink:title="Get the device MetaDisk name or empty if the device is not an MetaDisk.">
<polygon fill="none" stroke="black" points="179,-505.5 179,-535.5 322,-535.5 322,-505.5 179,-505.5"/>
<text text-anchor="start" x="187" y="-523.5" font-family="Helvetica,sans-Serif" font-size="10.00">leanux::block::MajorMinor</text>
<text text-anchor="middle" x="250.5" y="-512.5" font-family="Helvetica,sans-Serif" font-size="10.00">::getMDName</text>
</a>
</g>
</g>
<!-- Node1&#45;&gt;Node19 -->
<g id="edge28" class="edge">
<title>Node1&#45;&gt;Node19</title>
<path fill="none" stroke="midnightblue" d="M103.74,-450.5C133,-464.56 176.91,-485.64 208.89,-501"/>
<polygon fill="midnightblue" stroke="midnightblue" points="207.45,-504.19 217.98,-505.36 210.48,-497.88 207.45,-504.19"/>
</g>
<!-- Node20 -->
<g id="node17" class="node">
<title>Node20</title>
<g id="a_node17"><a xlink:href="../../d7/d28/classleanux_1_1block_1_1MajorMinor.html#ac25722522d86fe9a2ecbd2528a15561a" target="_top" xlink:title="Get the serial number for the device.">
<polygon fill="none" stroke="black" points="358,-442.5 358,-472.5 501,-472.5 501,-442.5 358,-442.5"/>
<text text-anchor="start" x="366" y="-460.5" font-family="Helvetica,sans-Serif" font-size="10.00">leanux::block::MajorMinor</text>
<text text-anchor="middle" x="429.5" y="-449.5" font-family="Helvetica,sans-Serif" font-size="10.00">::getSerial</text>
</a>
</g>
</g>
<!-- Node1&#45;&gt;Node20 -->
<g id="edge31" class="edge">
<title>Node1&#45;&gt;Node20</title>
<path fill="none" stroke="midnightblue" d="M143.26,-439.87C202.23,-443.52 286.23,-448.71 347.81,-452.51"/>
<polygon fill="midnightblue" stroke="midnightblue" points="347.68,-456.01 357.87,-453.14 348.11,-449.03 347.68,-456.01"/>
</g>
<!-- Node22 -->
<g id="node19" class="node">
<title>Node22</title>
<g id="a_node19"><a xlink:href="../../d7/d28/classleanux_1_1block_1_1MajorMinor.html#aab3feb649c83cb299c1a4175873b3f74" target="_top" xlink:title="Some block devices do not have a WWN, so there is no guarentee a WWN exists.">
<polygon fill="none" stroke="black" points="358,-393.5 358,-423.5 501,-423.5 501,-393.5 358,-393.5"/>
<text text-anchor="start" x="366" y="-411.5" font-family="Helvetica,sans-Serif" font-size="10.00">leanux::block::MajorMinor</text>
<text text-anchor="middle" x="429.5" y="-400.5" font-family="Helvetica,sans-Serif" font-size="10.00">::getWWN</text>
</a>
</g>
</g>
<!-- Node1&#45;&gt;Node22 -->
<g id="edge36" class="edge">
<title>Node1&#45;&gt;Node22</title>
<path fill="none" stroke="midnightblue" d="M143.26,-430.13C202.23,-425.66 286.23,-419.29 347.81,-414.62"/>
<polygon fill="midnightblue" stroke="midnightblue" points="348.17,-418.1 357.87,-413.86 347.64,-411.12 348.17,-418.1"/>
</g>
<!-- Node2&#45;&gt;Node3 -->
<g id="edge2" class="edge">
<title>Node2&#45;&gt;Node3</title>
<path fill="none" stroke="midnightblue" d="M265.06,-248.51C284.16,-268.98 320.86,-305.8 358,-329.5 364.09,-333.39 370.77,-336.97 377.51,-340.21"/>
<polygon fill="midnightblue" stroke="midnightblue" points="376.15,-343.44 386.7,-344.41 379.06,-337.07 376.15,-343.44"/>
</g>
<!-- Node9 -->
<g id="node6" class="node">
<title>Node9</title>
<g id="a_node6"><a xlink:href="../../d7/d28/classleanux_1_1block_1_1MajorMinor.html#aedaa770034a3bc139513e7a9aaa5c7f4" target="_top" xlink:title="Get the LV name the block device belongs to, or empty string if the device is not a LVM PV.">
<polygon fill="none" stroke="black" points="358,-491.5 358,-521.5 501,-521.5 501,-491.5 358,-491.5"/>
<text text-anchor="start" x="366" y="-509.5" font-family="Helvetica,sans-Serif" font-size="10.00">leanux::block::MajorMinor</text>
<text text-anchor="middle" x="429.5" y="-498.5" font-family="Helvetica,sans-Serif" font-size="10.00">::getLVName</text>
</a>
</g>
</g>
<!-- Node2&#45;&gt;Node9 -->
<g id="edge5" class="edge">
<title>Node2&#45;&gt;Node9</title>
<path fill="none" stroke="midnightblue" d="M253.61,-248.53C260.43,-291.42 285.75,-415.55 358,-482.5 359.27,-483.68 360.6,-484.8 361.98,-485.86"/>
<polygon fill="midnightblue" stroke="midnightblue" points="360.1,-488.82 370.38,-491.39 363.95,-482.97 360.1,-488.82"/>
</g>
<!-- Node11 -->
<g id="node8" class="node">
<title>Node11</title>
<g id="a_node8"><a xlink:href="../../d7/d28/classleanux_1_1block_1_1MajorMinor.html#a7e5217cefada330c0b412a4cc0e8ba8a" target="_top" xlink:title="Get the major.">
<polygon fill="none" stroke="black" points="358,-218.5 358,-248.5 501,-248.5 501,-218.5 358,-218.5"/>
<text text-anchor="start" x="366" y="-236.5" font-family="Helvetica,sans-Serif" font-size="10.00">leanux::block::MajorMinor</text>
<text text-anchor="middle" x="429.5" y="-225.5" font-family="Helvetica,sans-Serif" font-size="10.00">::getMajor</text>
</a>
</g>
</g>
<!-- Node2&#45;&gt;Node11 -->
<g id="edge8" class="edge">
<title>Node2&#45;&gt;Node11</title>
<path fill="none" stroke="midnightblue" d="M322.22,-233.5C330.57,-233.5 339.14,-233.5 347.62,-233.5"/>
<polygon fill="midnightblue" stroke="midnightblue" points="347.89,-237 357.89,-233.5 347.89,-230 347.89,-237"/>
</g>
<!-- Node12 -->
<g id="node9" class="node">
<title>Node12</title>
<g id="a_node9"><a xlink:href="../../d7/d28/classleanux_1_1block_1_1MajorMinor.html#a59e3fe2f1a574b79bad1fe48a2334c27" target="_top" xlink:title="determine if the MajorMinor represents a bcache disk.">
<polygon fill="none" stroke="black" points="541,-0.5 541,-30.5 684,-30.5 684,-0.5 541,-0.5"/>
<text text-anchor="start" x="549" y="-18.5" font-family="Helvetica,sans-Serif" font-size="10.00">leanux::block::MajorMinor</text>
<text text-anchor="middle" x="612.5" y="-7.5" font-family="Helvetica,sans-Serif" font-size="10.00">::isBCacheDisk</text>
</a>
</g>
</g>
<!-- Node2&#45;&gt;Node12 -->
<g id="edge9" class="edge">
<title>Node2&#45;&gt;Node12</title>
<path fill="none" stroke="midnightblue" d="M255.75,-218.26C266.42,-183.07 297.87,-96.12 358,-55.5 408.55,-21.35 477.55,-12.29 530.8,-11.25"/>
<polygon fill="midnightblue" stroke="midnightblue" points="530.93,-14.75 540.89,-11.14 530.85,-7.75 530.93,-14.75"/>
</g>
<!-- Node13 -->
<g id="node10" class="node">
<title>Node13</title>
<g id="a_node10"><a xlink:href="../../d7/d28/classleanux_1_1block_1_1MajorMinor.html#a546aa9297e382543cb031126190bc8c9" target="_top" xlink:title="determine if the major represents an IDE disk.">
<polygon fill="none" stroke="black" points="541,-98.5 541,-128.5 684,-128.5 684,-98.5 541,-98.5"/>
<text text-anchor="start" x="549" y="-116.5" font-family="Helvetica,sans-Serif" font-size="10.00">leanux::block::MajorMinor</text>
<text text-anchor="middle" x="612.5" y="-105.5" font-family="Helvetica,sans-Serif" font-size="10.00">::isIDEDisk</text>
</a>
</g>
</g>
<!-- Node2&#45;&gt;Node13 -->
<g id="edge11" class="edge">
<title>Node2&#45;&gt;Node13</title>
<path fill="none" stroke="midnightblue" d="M260.26,-218.2C275.99,-192.45 311.75,-141.23 358,-120.5 411.96,-96.32 479.07,-95.58 530.68,-100.35"/>
<polygon fill="midnightblue" stroke="midnightblue" points="530.49,-103.85 540.79,-101.37 531.19,-96.88 530.49,-103.85"/>
</g>
<!-- Node14 -->
<g id="node11" class="node">
<title>Node14</title>
<g id="a_node11"><a xlink:href="../../d7/d28/classleanux_1_1block_1_1MajorMinor.html#a852aa9e7ee1c107c95cd27ad47b5cf86" target="_top" xlink:title="determine if the MajorMinor represents an MMC disk.">
<polygon fill="none" stroke="black" points="541,-186.5 541,-216.5 684,-216.5 684,-186.5 541,-186.5"/>
<text text-anchor="start" x="549" y="-204.5" font-family="Helvetica,sans-Serif" font-size="10.00">leanux::block::MajorMinor</text>
<text text-anchor="middle" x="612.5" y="-193.5" font-family="Helvetica,sans-Serif" font-size="10.00">::isMMCDisk</text>
</a>
</g>
</g>
<!-- Node2&#45;&gt;Node14 -->
<g id="edge12" class="edge">
<title>Node2&#45;&gt;Node14</title>
<path fill="none" stroke="midnightblue" d="M306.11,-218.44C322.65,-214.49 340.96,-210.71 358,-208.5 415.49,-201.04 480.91,-199.4 530.89,-199.57"/>
<polygon fill="midnightblue" stroke="midnightblue" points="530.97,-203.07 540.99,-199.63 531.01,-196.07 530.97,-203.07"/>
</g>
<!-- Node15 -->
<g id="node12" class="node">
<title>Node15</title>
<g id="a_node12"><a xlink:href="../../d7/d28/classleanux_1_1block_1_1MajorMinor.html#ab248c720a63908f9e3ef78ed23536de8" target="_top" xlink:title="determine if the MajorMinor represents a NVMe disk.">
<polygon fill="none" stroke="black" points="541,-284.5 541,-314.5 684,-314.5 684,-284.5 541,-284.5"/>
<text text-anchor="start" x="549" y="-302.5" font-family="Helvetica,sans-Serif" font-size="10.00">leanux::block::MajorMinor</text>
<text text-anchor="middle" x="612.5" y="-291.5" font-family="Helvetica,sans-Serif" font-size="10.00">::isNVMeDisk</text>
</a>
</g>
</g>
<!-- Node2&#45;&gt;Node15 -->
<g id="edge14" class="edge">
<title>Node2&#45;&gt;Node15</title>
<path fill="none" stroke="midnightblue" d="M283.88,-248.59C304.62,-257.59 332.36,-268.42 358,-274.5 414.86,-287.99 480.57,-294.21 530.83,-297.08"/>
<polygon fill="midnightblue" stroke="midnightblue" points="530.82,-300.58 541,-297.62 531.2,-293.59 530.82,-300.58"/>
</g>
<!-- Node16 -->
<g id="node13" class="node">
<title>Node16</title>
<g id="a_node13"><a xlink:href="../../d7/d28/classleanux_1_1block_1_1MajorMinor.html#ad5136fe7853cb6f2ca04eadb465976da" target="_top" xlink:title=" ">
<polygon fill="none" stroke="red" points="358,-130.5 358,-160.5 501,-160.5 501,-130.5 358,-130.5"/>
<text text-anchor="start" x="366" y="-148.5" font-family="Helvetica,sans-Serif" font-size="10.00">leanux::block::MajorMinor</text>
<text text-anchor="middle" x="429.5" y="-137.5" font-family="Helvetica,sans-Serif" font-size="10.00">::isPartition</text>
</a>
</g>
</g>
<!-- Node2&#45;&gt;Node16 -->
<g id="edge16" class="edge">
<title>Node2&#45;&gt;Node16</title>
<path fill="none" stroke="midnightblue" d="M277.39,-218.49C298.74,-206.33 329.95,-189.07 358,-175.5 365.66,-171.8 373.89,-168.07 381.94,-164.56"/>
<polygon fill="midnightblue" stroke="midnightblue" points="383.44,-167.73 391.24,-160.56 380.67,-161.3 383.44,-167.73"/>
</g>
<!-- Node17 -->
<g id="node14" class="node">
<title>Node17</title>
<g id="a_node14"><a xlink:href="../../d7/d28/classleanux_1_1block_1_1MajorMinor.html#a6c5b98f8ffc7b8904754ecfe33407e8c" target="_top" xlink:title="determine if the major represents a SCSI disk.">
<polygon fill="none" stroke="black" points="541,-235.5 541,-265.5 684,-265.5 684,-235.5 541,-235.5"/>
<text text-anchor="start" x="549" y="-253.5" font-family="Helvetica,sans-Serif" font-size="10.00">leanux::block::MajorMinor</text>
<text text-anchor="middle" x="612.5" y="-242.5" font-family="Helvetica,sans-Serif" font-size="10.00">::isSCSIDisk</text>
</a>
</g>
</g>
<!-- Node2&#45;&gt;Node17 -->
<g id="edge25" class="edge">
<title>Node2&#45;&gt;Node17</title>
<path fill="none" stroke="midnightblue" d="M307.48,-248.56C323.66,-252.24 341.42,-255.66 358,-257.5 415.52,-263.9 480.8,-261.88 530.71,-258.4"/>
<polygon fill="midnightblue" stroke="midnightblue" points="531.08,-261.89 540.8,-257.67 530.57,-254.91 531.08,-261.89"/>
</g>
<!-- Node18 -->
<g id="node15" class="node">
<title>Node18</title>
<g id="a_node15"><a xlink:href="../../d7/d28/classleanux_1_1block_1_1MajorMinor.html#aaa91d26165ff4b7a32cfe052e72463cc" target="_top" xlink:title="determine if the MajorMinor represents a virtio disk.">
<polygon fill="none" stroke="black" points="541,-49.5 541,-79.5 684,-79.5 684,-49.5 541,-49.5"/>
<text text-anchor="start" x="549" y="-67.5" font-family="Helvetica,sans-Serif" font-size="10.00">leanux::block::MajorMinor</text>
<text text-anchor="middle" x="612.5" y="-56.5" font-family="Helvetica,sans-Serif" font-size="10.00">::isVirtIODisk</text>
</a>
</g>
</g>
<!-- Node2&#45;&gt;Node18 -->
<g id="edge26" class="edge">
<title>Node2&#45;&gt;Node18</title>
<path fill="none" stroke="midnightblue" d="M258.19,-218.12C272.01,-188.46 306.74,-123.67 358,-94.5 410.18,-64.8 478.12,-58.14 530.53,-58.44"/>
<polygon fill="midnightblue" stroke="midnightblue" points="530.75,-61.94 540.8,-58.59 530.85,-54.94 530.75,-61.94"/>
</g>
<!-- Node4 -->
<g id="node4" class="node">
<title>Node4</title>
<g id="a_node4"><a xlink:href="../../d8/db1/namespaceleanux_1_1util.html#a57bfd49353610b3d0b6d121b264c676e" target="_top" xlink:title="read the file as a single string.">
<polygon fill="none" stroke="black" points="539.5,-372 539.5,-391 685.5,-391 685.5,-372 539.5,-372"/>
<text text-anchor="middle" x="612.5" y="-379" font-family="Helvetica,sans-Serif" font-size="10.00">leanux::util::fileReadString</text>
</a>
</g>
</g>
<!-- Node3&#45;&gt;Node4 -->
<g id="edge3" class="edge">
<title>Node3&#45;&gt;Node4</title>
<path fill="none" stroke="midnightblue" d="M501.26,-368.1C510.43,-369.22 519.89,-370.37 529.23,-371.5"/>
<polygon fill="midnightblue" stroke="midnightblue" points="528.95,-374.99 539.3,-372.72 529.8,-368.04 528.95,-374.99"/>
</g>
<!-- Node3&#45;&gt;Node5 -->
<g id="edge4" class="edge">
<title>Node3&#45;&gt;Node5</title>
<path fill="none" stroke="midnightblue" d="M501.11,-352.13C562.05,-345.77 650.05,-336.58 713.76,-329.93"/>
<polygon fill="midnightblue" stroke="midnightblue" points="714.19,-333.4 723.77,-328.88 713.46,-326.44 714.19,-333.4"/>
</g>
<!-- Node10 -->
<g id="node7" class="node">
<title>Node10</title>
<g id="a_node7"><a xlink:href="../../d7/d28/classleanux_1_1block_1_1MajorMinor.html#a7ef43192321c82d296575f35b69c52d4" target="_top" xlink:title="Get the udev path for the device.">
<polygon fill="none" stroke="black" points="541,-524.5 541,-554.5 684,-554.5 684,-524.5 541,-524.5"/>
<text text-anchor="start" x="549" y="-542.5" font-family="Helvetica,sans-Serif" font-size="10.00">leanux::block::MajorMinor</text>
<text text-anchor="middle" x="612.5" y="-531.5" font-family="Helvetica,sans-Serif" font-size="10.00">::getUDevPath</text>
</a>
</g>
</g>
<!-- Node9&#45;&gt;Node10 -->
<g id="edge6" class="edge">
<title>Node9&#45;&gt;Node10</title>
<path fill="none" stroke="midnightblue" d="M501.26,-519.4C510.9,-521.16 520.85,-522.97 530.65,-524.76"/>
<polygon fill="midnightblue" stroke="midnightblue" points="530.33,-528.26 540.79,-526.61 531.58,-521.37 530.33,-528.26"/>
</g>
<!-- Node10&#45;&gt;Node5 -->
<g id="edge7" class="edge">
<title>Node10&#45;&gt;Node5</title>
<path fill="none" stroke="midnightblue" d="M664.26,-524.47C672.77,-520.49 681.08,-515.56 688,-509.5 740.21,-463.79 772.57,-385.99 786.51,-346.33"/>
<polygon fill="midnightblue" stroke="midnightblue" points="789.89,-347.26 789.81,-336.66 783.27,-345 789.89,-347.26"/>
</g>
<!-- Node12&#45;&gt;Node5 -->
<g id="edge10" class="edge">
<title>Node12&#45;&gt;Node5</title>
<path fill="none" stroke="midnightblue" d="M675.79,-30.53C680.21,-33.07 684.36,-36.03 688,-39.5 763.36,-111.23 785.9,-241.62 792.21,-296.3"/>
<polygon fill="midnightblue" stroke="midnightblue" points="788.76,-296.91 793.3,-306.48 795.72,-296.17 788.76,-296.91"/>
</g>
<!-- Node14&#45;&gt;Node5 -->
<g id="edge13" class="edge">
<title>Node14&#45;&gt;Node5</title>
<path fill="none" stroke="midnightblue" d="M669.15,-216.52C675.68,-219.13 682.11,-222.11 688,-225.5 722.19,-245.2 754.88,-277.31 774.81,-298.91"/>
<polygon fill="midnightblue" stroke="midnightblue" points="772.25,-301.3 781.56,-306.35 777.43,-296.59 772.25,-301.3"/>
</g>
<!-- Node15&#45;&gt;Node5 -->
<g id="edge15" class="edge">
<title>Node15&#45;&gt;Node5</title>
<path fill="none" stroke="midnightblue" d="M684.26,-308.1C693.9,-309.27 703.85,-310.48 713.65,-311.67"/>
<polygon fill="midnightblue" stroke="midnightblue" points="713.44,-315.17 723.79,-312.91 714.29,-308.22 713.44,-315.17"/>
</g>
<!-- Node16&#45;&gt;Node5 -->
<g id="edge17" class="edge">
<title>Node16&#45;&gt;Node5</title>
<path fill="none" stroke="midnightblue" d="M501.11,-139.38C555.72,-137.95 631.33,-143.4 688,-176.5 735.91,-204.48 768.61,-263.44 784.14,-296.92"/>
<polygon fill="midnightblue" stroke="midnightblue" points="781.12,-298.73 788.4,-306.43 787.5,-295.87 781.12,-298.73"/>
</g>
<!-- Node16&#45;&gt;Node12 -->
<g id="edge18" class="edge">
<title>Node16&#45;&gt;Node12</title>
<path fill="none" stroke="midnightblue" d="M441.89,-130.24C459.73,-107.36 496.46,-64.21 537,-39.5 539.78,-37.8 542.7,-36.21 545.7,-34.72"/>
<polygon fill="midnightblue" stroke="midnightblue" points="547.24,-37.87 554.91,-30.56 544.35,-31.49 547.24,-37.87"/>
</g>
<!-- Node16&#45;&gt;Node13 -->
<g id="edge19" class="edge">
<title>Node16&#45;&gt;Node13</title>
<path fill="none" stroke="midnightblue" d="M501.26,-132.99C510.9,-131.29 520.85,-129.53 530.65,-127.79"/>
<polygon fill="midnightblue" stroke="midnightblue" points="531.55,-131.19 540.79,-126 530.34,-124.3 531.55,-131.19"/>
</g>
<!-- Node16&#45;&gt;Node14 -->
<g id="edge20" class="edge">
<title>Node16&#45;&gt;Node14</title>
<path fill="none" stroke="midnightblue" d="M479,-160.51C501.83,-167.57 529.23,-176.05 553.18,-183.46"/>
<polygon fill="midnightblue" stroke="midnightblue" points="552.27,-186.84 562.86,-186.45 554.34,-180.15 552.27,-186.84"/>
</g>
<!-- Node16&#45;&gt;Node15 -->
<g id="edge21" class="edge">
<title>Node16&#45;&gt;Node15</title>
<path fill="none" stroke="midnightblue" d="M451.06,-160.74C466.13,-172.61 486.42,-190.11 501,-208.5 521.76,-234.68 511.39,-253.04 537,-274.5 539.01,-276.19 541.14,-277.76 543.36,-279.23"/>
<polygon fill="midnightblue" stroke="midnightblue" points="541.9,-282.43 552.31,-284.4 545.4,-276.36 541.9,-282.43"/>
</g>
<!-- Node16&#45;&gt;Node17 -->
<g id="edge22" class="edge">
<title>Node16&#45;&gt;Node17</title>
<path fill="none" stroke="midnightblue" d="M447.05,-160.64C467.07,-178.27 502.41,-207.31 537,-225.5 541.16,-227.69 545.55,-229.74 550.03,-231.65"/>
<polygon fill="midnightblue" stroke="midnightblue" points="548.72,-234.9 559.31,-235.38 551.33,-228.4 548.72,-234.9"/>
</g>
<!-- Node16&#45;&gt;Node18 -->
<g id="edge23" class="edge">
<title>Node16&#45;&gt;Node18</title>
<path fill="none" stroke="midnightblue" d="M455.69,-130.35C476.88,-118.02 508.24,-100.71 537,-88.5 541.46,-86.61 546.11,-84.78 550.83,-83.03"/>
<polygon fill="midnightblue" stroke="midnightblue" points="552.31,-86.22 560.56,-79.56 549.96,-79.62 552.31,-86.22"/>
</g>
<!-- Node18&#45;&gt;Node5 -->
<g id="edge24" class="edge">
<title>Node18&#45;&gt;Node5</title>
<path fill="none" stroke="midnightblue" d="M675.17,-79.61C679.79,-82.13 684.14,-85.07 688,-88.5 752.13,-145.53 780.09,-248.97 789.97,-296.45"/>
<polygon fill="midnightblue" stroke="midnightblue" points="786.58,-297.35 791.96,-306.48 793.45,-295.99 786.58,-297.35"/>
</g>
<!-- Node19&#45;&gt;Node10 -->
<g id="edge29" class="edge">
<title>Node19&#45;&gt;Node10</title>
<path fill="none" stroke="midnightblue" d="M322.19,-528.52C334.13,-529.66 346.41,-530.72 358,-531.5 415.75,-535.39 481.02,-537.39 530.88,-538.42"/>
<polygon fill="midnightblue" stroke="midnightblue" points="530.88,-541.92 540.95,-538.62 531.02,-534.93 530.88,-541.92"/>
</g>
<!-- Node20&#45;&gt;Node4 -->
<g id="edge33" class="edge">
<title>Node20&#45;&gt;Node4</title>
<path fill="none" stroke="midnightblue" d="M475.11,-442.38C483.75,-439.25 492.7,-435.88 501,-432.5 529.3,-420.98 560.88,-406.2 583.01,-395.52"/>
<polygon fill="midnightblue" stroke="midnightblue" points="584.71,-398.59 592.18,-391.07 581.65,-392.29 584.71,-398.59"/>
</g>
<!-- Node20&#45;&gt;Node5 -->
<g id="edge34" class="edge">
<title>Node20&#45;&gt;Node5</title>
<path fill="none" stroke="midnightblue" d="M469.32,-472.52C522.11,-490.35 617.98,-513.34 688,-476.5 740.33,-448.96 771.92,-382.8 785.93,-346.46"/>
<polygon fill="midnightblue" stroke="midnightblue" points="789.38,-347.22 789.56,-336.63 782.81,-344.79 789.38,-347.22"/>
</g>
<!-- Node20&#45;&gt;Node10 -->
<g id="edge35" class="edge">
<title>Node20&#45;&gt;Node10</title>
<path fill="none" stroke="midnightblue" d="M479.12,-472.55C486.61,-475.49 494.13,-478.82 501,-482.5 518.63,-491.95 519.58,-499.68 537,-509.5 544,-513.44 551.61,-517.13 559.22,-520.47"/>
<polygon fill="midnightblue" stroke="midnightblue" points="557.88,-523.71 568.45,-524.38 560.61,-517.26 557.88,-523.71"/>
</g>
<!-- Node21 -->
<g id="node18" class="node">
<title>Node21</title>
<g id="a_node18"><a xlink:href="../../d8/db1/namespaceleanux_1_1util.html#a6421ca2c46c56eebe1a486c6a498ce7d" target="_top" xlink:title="Test if a file exists and can be read.">
<polygon fill="none" stroke="black" points="537,-448 537,-467 688,-467 688,-448 537,-448"/>
<text text-anchor="middle" x="612.5" y="-455" font-family="Helvetica,sans-Serif" font-size="10.00">leanux::util::fileReadAccess</text>
</a>
</g>
</g>
<!-- Node20&#45;&gt;Node21 -->
<g id="edge32" class="edge">
<title>Node20&#45;&gt;Node21</title>
<path fill="none" stroke="midnightblue" d="M501.26,-457.5C509.67,-457.5 518.31,-457.5 526.89,-457.5"/>
<polygon fill="midnightblue" stroke="midnightblue" points="526.91,-461 536.91,-457.5 526.91,-454 526.91,-461"/>
</g>
<!-- Node22&#45;&gt;Node4 -->
<g id="edge37" class="edge">
<title>Node22&#45;&gt;Node4</title>
<path fill="none" stroke="midnightblue" d="M501.26,-397.95C513.19,-396.17 525.6,-394.31 537.6,-392.52"/>
<polygon fill="midnightblue" stroke="midnightblue" points="538.2,-395.97 547.57,-391.04 537.17,-389.05 538.2,-395.97"/>
</g>
<!-- Node22&#45;&gt;Node5 -->
<g id="edge38" class="edge">
<title>Node22&#45;&gt;Node5</title>
<path fill="none" stroke="midnightblue" d="M501.13,-417.46C554.07,-421.54 627.48,-421.54 688,-400.5 721.4,-388.89 753.06,-362.77 773.05,-343.73"/>
<polygon fill="midnightblue" stroke="midnightblue" points="775.66,-346.07 780.36,-336.57 770.77,-341.06 775.66,-346.07"/>
</g>
<!-- Node22&#45;&gt;Node10 -->
<g id="edge39" class="edge">
<title>Node22&#45;&gt;Node10</title>
<path fill="none" stroke="midnightblue" d="M483.26,-423.65C489.49,-426.45 495.56,-429.72 501,-433.5 521.47,-447.72 519.42,-458.83 537,-476.5 551.58,-491.15 569.19,-506.15 583.63,-517.84"/>
<polygon fill="midnightblue" stroke="midnightblue" points="581.72,-520.8 591.72,-524.31 586.1,-515.33 581.72,-520.8"/>
</g>
<!-- Node22&#45;&gt;Node15 -->
<g id="edge40" class="edge">
<title>Node22&#45;&gt;Node15</title>
<path fill="none" stroke="midnightblue" d="M479.14,-393.49C486.63,-390.54 494.14,-387.2 501,-383.5 533.15,-366.13 565.98,-339.87 587.41,-321.34"/>
<polygon fill="midnightblue" stroke="midnightblue" points="589.82,-323.88 595.03,-314.65 585.21,-318.61 589.82,-323.88"/>
</g>
</g>
</svg>
