<?xml version="1.0" encoding="UTF-8" standalone="no"?>
<!DOCTYPE svg PUBLIC "-//W3C//DTD SVG 1.1//EN"
 "http://www.w3.org/Graphics/SVG/1.1/DTD/svg11.dtd">
<!-- Generated by graphviz version 2.43.0 (0)
 -->
<!-- Title: leanux::block::MajorMinor::getVGName Pages: 1 -->
<svg width="509pt" height="88pt"
 viewBox="0.00 0.00 509.00 88.00" xmlns="http://www.w3.org/2000/svg" xmlns:xlink="http://www.w3.org/1999/xlink">
<g id="graph0" class="graph" transform="scale(1 1) rotate(0) translate(4 84)">
<title>leanux::block::MajorMinor::getVGName</title>
<!-- Node1 -->
<g id="node1" class="node">
<title>Node1</title>
<g id="a_node1"><a xlink:title="Get the VG name the block device belongs to, or empty string if the device is not a LVM PV.">
<polygon fill="#bfbfbf" stroke="black" points="358,-24.5 358,-54.5 501,-54.5 501,-24.5 358,-24.5"/>
<text text-anchor="start" x="366" y="-42.5" font-family="Helvetica,sans-Serif" font-size="10.00">leanux::block::MajorMinor</text>
<text text-anchor="middle" x="429.5" y="-31.5" font-family="Helvetica,sans-Serif" font-size="10.00">::getVGName</text>
</a>
</g>
</g>
<!-- Node2 -->
<g id="node2" class="node">
<title>Node2</title>
<g id="a_node2"><a xlink:href="../../d5/d1b/namespaceleanux_1_1tools_1_1lblk.html#ac57ae7d9a91a4259052d4ae1da5a36a2" target="_top" xlink:title="Write LVM details.">
<polygon fill="none" stroke="black" points="198.5,-49.5 198.5,-79.5 302.5,-79.5 302.5,-49.5 198.5,-49.5"/>
<text text-anchor="start" x="206.5" y="-67.5" font-family="Helvetica,sans-Serif" font-size="10.00">leanux::tools::lblk</text>
<text text-anchor="middle" x="250.5" y="-56.5" font-family="Helvetica,sans-Serif" font-size="10.00">::detailLVM</text>
</a>
</g>
</g>
<!-- Node1&#45;&gt;Node2 -->
<g id="edge1" class="edge">
<title>Node1&#45;&gt;Node2</title>
<path fill="none" stroke="midnightblue" d="M347.78,-50.9C332.47,-53.06 316.84,-55.27 302.76,-57.26"/>
<polygon fill="midnightblue" stroke="midnightblue" points="348.37,-54.35 357.78,-49.49 347.39,-47.42 348.37,-54.35"/>
</g>
<!-- Node6 -->
<g id="node4" class="node">
<title>Node6</title>
<g id="a_node4"><a xlink:href="../../d7/d28/classleanux_1_1block_1_1MajorMinor.html#a6e82e367d0d6d6038391ac28c2e510c5" target="_top" xlink:title="return the VG name the PV belongs to, or empty if the device is not a LVM PV.">
<polygon fill="none" stroke="black" points="179,-0.5 179,-30.5 322,-30.5 322,-0.5 179,-0.5"/>
<text text-anchor="start" x="187" y="-18.5" font-family="Helvetica,sans-Serif" font-size="10.00">leanux::block::MajorMinor</text>
<text text-anchor="middle" x="250.5" y="-7.5" font-family="Helvetica,sans-Serif" font-size="10.00">::getLVMPV2VG</text>
</a>
</g>
</g>
<!-- Node1&#45;&gt;Node6 -->
<g id="edge3" class="edge">
<title>Node1&#45;&gt;Node6</title>
<path fill="none" stroke="midnightblue" d="M347.79,-28.56C339.22,-27.39 330.55,-26.22 322.11,-25.07"/>
<polygon fill="midnightblue" stroke="midnightblue" points="347.4,-32.04 357.78,-29.91 348.34,-25.1 347.4,-32.04"/>
</g>
<!-- Node3 -->
<g id="node3" class="node">
<title>Node3</title>
<g id="a_node3"><a xlink:href="../../d5/d1b/namespaceleanux_1_1tools_1_1lblk.html#aafee1346a1081bfa4f7470f921cd66b8" target="_top" xlink:title="Direct output run from options.">
<polygon fill="none" stroke="red" points="19.5,-49.5 19.5,-79.5 123.5,-79.5 123.5,-49.5 19.5,-49.5"/>
<text text-anchor="start" x="27.5" y="-67.5" font-family="Helvetica,sans-Serif" font-size="10.00">leanux::tools::lblk</text>
<text text-anchor="middle" x="71.5" y="-56.5" font-family="Helvetica,sans-Serif" font-size="10.00">::runOptions</text>
</a>
</g>
</g>
<!-- Node2&#45;&gt;Node3 -->
<g id="edge2" class="edge">
<title>Node2&#45;&gt;Node3</title>
<path fill="none" stroke="midnightblue" d="M188.17,-64.5C167.1,-64.5 143.75,-64.5 123.58,-64.5"/>
<polygon fill="midnightblue" stroke="midnightblue" points="188.3,-68 198.3,-64.5 188.3,-61 188.3,-68"/>
</g>
<!-- Node7 -->
<g id="node5" class="node">
<title>Node7</title>
<g id="a_node5"><a xlink:href="../../d7/d28/classleanux_1_1block_1_1MajorMinor.html#a26a2363b1eea927b6ebb4aad44dea876" target="_top" xlink:title="Get a pretty&#45;print description for the device.">
<polygon fill="none" stroke="red" points="0,-0.5 0,-30.5 143,-30.5 143,-0.5 0,-0.5"/>
<text text-anchor="start" x="8" y="-18.5" font-family="Helvetica,sans-Serif" font-size="10.00">leanux::block::MajorMinor</text>
<text text-anchor="middle" x="71.5" y="-7.5" font-family="Helvetica,sans-Serif" font-size="10.00">::getDescription</text>
</a>
</g>
</g>
<!-- Node6&#45;&gt;Node7 -->
<g id="edge4" class="edge">
<title>Node6&#45;&gt;Node7</title>
<path fill="none" stroke="midnightblue" d="M168.51,-15.5C160.03,-15.5 151.46,-15.5 143.11,-15.5"/>
<polygon fill="midnightblue" stroke="midnightblue" points="168.78,-19 178.78,-15.5 168.78,-12 168.78,-19"/>
</g>
</g>
</svg>
