<?xml version="1.0" encoding="UTF-8" standalone="no"?>
<!DOCTYPE svg PUBLIC "-//W3C//DTD SVG 1.1//EN"
 "http://www.w3.org/Graphics/SVG/1.1/DTD/svg11.dtd">
<!-- Generated by graphviz version 2.43.0 (0)
 -->
<!-- Title: leanux::block::MajorMinor::isNVMeDisk Pages: 1 -->
<svg width="828pt" height="721pt"
 viewBox="0.00 0.00 828.00 721.00" xmlns="http://www.w3.org/2000/svg" xmlns:xlink="http://www.w3.org/1999/xlink">
<g id="graph0" class="graph" transform="scale(1 1) rotate(0) translate(4 717)">
<title>leanux::block::MajorMinor::isNVMeDisk</title>
<!-- Node1 -->
<g id="node1" class="node">
<title>Node1</title>
<g id="a_node1"><a xlink:title="determine if the MajorMinor represents a NVMe disk.">
<polygon fill="#bfbfbf" stroke="black" points="677,-203.5 677,-233.5 820,-233.5 820,-203.5 677,-203.5"/>
<text text-anchor="start" x="685" y="-221.5" font-family="Helvetica,sans-Serif" font-size="10.00">leanux::block::MajorMinor</text>
<text text-anchor="middle" x="748.5" y="-210.5" font-family="Helvetica,sans-Serif" font-size="10.00">::isNVMeDisk</text>
</a>
</g>
</g>
<!-- Node2 -->
<g id="node2" class="node">
<title>Node2</title>
<g id="a_node2"><a xlink:href="../../d7/d28/classleanux_1_1block_1_1MajorMinor.html#a5771b2baf04dd79e61c5bcd3f4ec532c" target="_top" xlink:title="Derive the MajorMinor of the whole disk holding a partition.">
<polygon fill="none" stroke="black" points="498,-494.5 498,-524.5 641,-524.5 641,-494.5 498,-494.5"/>
<text text-anchor="start" x="506" y="-512.5" font-family="Helvetica,sans-Serif" font-size="10.00">leanux::block::MajorMinor</text>
<text text-anchor="middle" x="569.5" y="-501.5" font-family="Helvetica,sans-Serif" font-size="10.00">::deriveWholeDisk</text>
</a>
</g>
</g>
<!-- Node1&#45;&gt;Node2 -->
<g id="edge1" class="edge">
<title>Node1&#45;&gt;Node2</title>
<path fill="none" stroke="midnightblue" d="M732.86,-242.58C697.55,-300.62 608.52,-446.99 579.68,-494.42"/>
<polygon fill="midnightblue" stroke="midnightblue" points="736.03,-244.1 738.23,-233.74 730.05,-240.46 736.03,-244.1"/>
</g>
<!-- Node4 -->
<g id="node4" class="node">
<title>Node4</title>
<g id="a_node4"><a xlink:href="../../d5/d1b/namespaceleanux_1_1tools_1_1lblk.html#aafee1346a1081bfa4f7470f921cd66b8" target="_top" xlink:title="Direct output run from options.">
<polygon fill="none" stroke="red" points="0,-399.5 0,-429.5 104,-429.5 104,-399.5 0,-399.5"/>
<text text-anchor="start" x="8" y="-417.5" font-family="Helvetica,sans-Serif" font-size="10.00">leanux::tools::lblk</text>
<text text-anchor="middle" x="52" y="-406.5" font-family="Helvetica,sans-Serif" font-size="10.00">::runOptions</text>
</a>
</g>
</g>
<!-- Node1&#45;&gt;Node4 -->
<g id="edge35" class="edge">
<title>Node1&#45;&gt;Node4</title>
<path fill="none" stroke="midnightblue" d="M666.79,-203.14C578.82,-189.8 435.11,-178.03 319,-216.5 206.15,-253.89 102.28,-359.79 66.33,-399.35"/>
<polygon fill="midnightblue" stroke="midnightblue" points="666.29,-206.61 676.71,-204.69 667.37,-199.69 666.29,-206.61"/>
</g>
<!-- Node40 -->
<g id="node14" class="node">
<title>Node40</title>
<g id="a_node14"><a xlink:href="../../d7/d28/classleanux_1_1block_1_1MajorMinor.html#ad8b93c3f6fc290008c2025e5e3d42eb5" target="_top" xlink:title="Get the DeviceClass for a MajorMinor.">
<polygon fill="none" stroke="black" points="319,-88.5 319,-118.5 462,-118.5 462,-88.5 319,-88.5"/>
<text text-anchor="start" x="327" y="-106.5" font-family="Helvetica,sans-Serif" font-size="10.00">leanux::block::MajorMinor</text>
<text text-anchor="middle" x="390.5" y="-95.5" font-family="Helvetica,sans-Serif" font-size="10.00">::getClass</text>
</a>
</g>
</g>
<!-- Node1&#45;&gt;Node40 -->
<g id="edge16" class="edge">
<title>Node1&#45;&gt;Node40</title>
<path fill="none" stroke="midnightblue" d="M717.75,-197.72C697.08,-184.16 668.42,-167.08 641,-156.5 582.75,-134.02 512.98,-120.23 462.04,-112.37"/>
<polygon fill="midnightblue" stroke="midnightblue" points="715.84,-200.64 726.1,-203.28 719.72,-194.82 715.84,-200.64"/>
</g>
<!-- Node45 -->
<g id="node18" class="node">
<title>Node45</title>
<g id="a_node18"><a xlink:href="../../d7/d28/classleanux_1_1block_1_1MajorMinor.html#aab3feb649c83cb299c1a4175873b3f74" target="_top" xlink:title="Some block devices do not have a WWN, so there is no guarentee a WWN exists.">
<polygon fill="none" stroke="black" points="319,-137.5 319,-167.5 462,-167.5 462,-137.5 319,-137.5"/>
<text text-anchor="start" x="327" y="-155.5" font-family="Helvetica,sans-Serif" font-size="10.00">leanux::block::MajorMinor</text>
<text text-anchor="middle" x="390.5" y="-144.5" font-family="Helvetica,sans-Serif" font-size="10.00">::getWWN</text>
</a>
</g>
</g>
<!-- Node1&#45;&gt;Node45 -->
<g id="edge21" class="edge">
<title>Node1&#45;&gt;Node45</title>
<path fill="none" stroke="midnightblue" d="M699.38,-199.88C681.3,-193.52 660.43,-186.9 641,-182.5 581.43,-169 512.4,-161.3 462.07,-157.08"/>
<polygon fill="midnightblue" stroke="midnightblue" points="698.51,-203.29 709.1,-203.38 700.87,-196.7 698.51,-203.29"/>
</g>
<!-- Node46 -->
<g id="node19" class="node">
<title>Node46</title>
<g id="a_node19"><a xlink:href="../../d7/d28/classleanux_1_1block_1_1MajorMinor.html#ad5136fe7853cb6f2ca04eadb465976da" target="_top" xlink:title=" ">
<polygon fill="none" stroke="black" points="498,-347.5 498,-377.5 641,-377.5 641,-347.5 498,-347.5"/>
<text text-anchor="start" x="506" y="-365.5" font-family="Helvetica,sans-Serif" font-size="10.00">leanux::block::MajorMinor</text>
<text text-anchor="middle" x="569.5" y="-354.5" font-family="Helvetica,sans-Serif" font-size="10.00">::isPartition</text>
</a>
</g>
</g>
<!-- Node1&#45;&gt;Node46 -->
<g id="edge24" class="edge">
<title>Node1&#45;&gt;Node46</title>
<path fill="none" stroke="midnightblue" d="M720.73,-240.28C684.45,-269.79 620.61,-321.74 589.12,-347.35"/>
<polygon fill="midnightblue" stroke="midnightblue" points="723.34,-242.66 728.89,-233.64 718.93,-237.23 723.34,-242.66"/>
</g>
<!-- Node54 -->
<g id="node21" class="node">
<title>Node54</title>
<g id="a_node21"><a xlink:href="../../d7/d28/classleanux_1_1block_1_1MajorMinor.html#a0538b77a5964620e5c5cd2943e631049" target="_top" xlink:title="Check if a disk is a whole disk (and not a partition).">
<polygon fill="none" stroke="black" points="319,-225.5 319,-255.5 462,-255.5 462,-225.5 319,-225.5"/>
<text text-anchor="start" x="327" y="-243.5" font-family="Helvetica,sans-Serif" font-size="10.00">leanux::block::MajorMinor</text>
<text text-anchor="middle" x="390.5" y="-232.5" font-family="Helvetica,sans-Serif" font-size="10.00">::isWholeDisk</text>
</a>
</g>
</g>
<!-- Node1&#45;&gt;Node54 -->
<g id="edge34" class="edge">
<title>Node1&#45;&gt;Node54</title>
<path fill="none" stroke="midnightblue" d="M666.67,-223.5C605.06,-227.3 521.06,-232.49 462.13,-236.14"/>
<polygon fill="midnightblue" stroke="midnightblue" points="666.98,-226.98 676.74,-222.87 666.54,-220 666.98,-226.98"/>
</g>
<!-- Node3 -->
<g id="node3" class="node">
<title>Node3</title>
<g id="a_node3"><a xlink:href="../../d5/d1b/namespaceleanux_1_1tools_1_1lblk.html#ade16c362a9900ba9267433bf57da42ce" target="_top" xlink:title="Write disk details.">
<polygon fill="none" stroke="black" points="159.5,-617.5 159.5,-647.5 263.5,-647.5 263.5,-617.5 159.5,-617.5"/>
<text text-anchor="start" x="167.5" y="-635.5" font-family="Helvetica,sans-Serif" font-size="10.00">leanux::tools::lblk</text>
<text text-anchor="middle" x="211.5" y="-624.5" font-family="Helvetica,sans-Serif" font-size="10.00">::detailDisk</text>
</a>
</g>
</g>
<!-- Node2&#45;&gt;Node3 -->
<g id="edge2" class="edge">
<title>Node2&#45;&gt;Node3</title>
<path fill="none" stroke="midnightblue" d="M559.15,-534.42C544.51,-569.39 512.51,-631.62 462,-657.5 392.65,-693.03 298.3,-666.65 247.82,-647.57"/>
<polygon fill="midnightblue" stroke="midnightblue" points="562.49,-535.51 562.98,-524.93 555.99,-532.89 562.49,-535.51"/>
</g>
<!-- Node7 -->
<g id="node5" class="node">
<title>Node7</title>
<g id="a_node5"><a xlink:href="../../d7/d28/classleanux_1_1block_1_1MajorMinor.html#af09033a9db9d908d1132bbab667a0801" target="_top" xlink:title="Get a list of devices holding (using) the device m.">
<polygon fill="none" stroke="red" points="319,-323.5 319,-353.5 462,-353.5 462,-323.5 319,-323.5"/>
<text text-anchor="start" x="327" y="-341.5" font-family="Helvetica,sans-Serif" font-size="10.00">leanux::block::MajorMinor</text>
<text text-anchor="middle" x="390.5" y="-330.5" font-family="Helvetica,sans-Serif" font-size="10.00">::getHolders</text>
</a>
</g>
</g>
<!-- Node2&#45;&gt;Node7 -->
<g id="edge4" class="edge">
<title>Node2&#45;&gt;Node7</title>
<path fill="none" stroke="midnightblue" d="M556.71,-485.2C539.93,-453.02 506.22,-396.47 462,-363.5 456.9,-359.7 451.17,-356.43 445.23,-353.64"/>
<polygon fill="midnightblue" stroke="midnightblue" points="553.72,-487.03 561.37,-494.36 559.96,-483.86 553.72,-487.03"/>
</g>
<!-- Node11 -->
<g id="node6" class="node">
<title>Node11</title>
<g id="a_node6"><a xlink:href="../../d7/d28/classleanux_1_1block_1_1MajorMinor.html#aefbe4f5de2bcdf31cfb0ece97e8e12e7" target="_top" xlink:title="get the IO scheduler (elevator) configured for the device.">
<polygon fill="none" stroke="red" points="319,-519.5 319,-549.5 462,-549.5 462,-519.5 319,-519.5"/>
<text text-anchor="start" x="327" y="-537.5" font-family="Helvetica,sans-Serif" font-size="10.00">leanux::block::MajorMinor</text>
<text text-anchor="middle" x="390.5" y="-526.5" font-family="Helvetica,sans-Serif" font-size="10.00">::getIOScheduler</text>
</a>
</g>
</g>
<!-- Node2&#45;&gt;Node11 -->
<g id="edge5" class="edge">
<title>Node2&#45;&gt;Node11</title>
<path fill="none" stroke="midnightblue" d="M487.79,-520.9C479.22,-522.11 470.55,-523.34 462.11,-524.53"/>
<polygon fill="midnightblue" stroke="midnightblue" points="488.37,-524.35 497.78,-519.49 487.39,-517.42 488.37,-524.35"/>
</g>
<!-- Node18 -->
<g id="node8" class="node">
<title>Node18</title>
<g id="a_node8"><a xlink:href="../../d7/d28/classleanux_1_1block_1_1MajorMinor.html#a80d3a92692140016ab3973ace30d65c2" target="_top" xlink:title="get the read&#45;ahead size for the device">
<polygon fill="none" stroke="red" points="319,-470.5 319,-500.5 462,-500.5 462,-470.5 319,-470.5"/>
<text text-anchor="start" x="327" y="-488.5" font-family="Helvetica,sans-Serif" font-size="10.00">leanux::block::MajorMinor</text>
<text text-anchor="middle" x="390.5" y="-477.5" font-family="Helvetica,sans-Serif" font-size="10.00">::getReadAhead</text>
</a>
</g>
</g>
<!-- Node2&#45;&gt;Node18 -->
<g id="edge7" class="edge">
<title>Node2&#45;&gt;Node18</title>
<path fill="none" stroke="midnightblue" d="M487.79,-498.56C479.22,-497.39 470.55,-496.22 462.11,-495.07"/>
<polygon fill="midnightblue" stroke="midnightblue" points="487.4,-502.04 497.78,-499.91 488.34,-495.1 487.4,-502.04"/>
</g>
<!-- Node19 -->
<g id="node9" class="node">
<title>Node19</title>
<g id="a_node9"><a xlink:href="../../d7/d28/classleanux_1_1block_1_1MajorMinor.html#ae8569c67c7ab725af5c89e8e01011a7b" target="_top" xlink:title="Chech if a disk is mechanical or solid state.">
<polygon fill="none" stroke="red" points="319,-421.5 319,-451.5 462,-451.5 462,-421.5 319,-421.5"/>
<text text-anchor="start" x="327" y="-439.5" font-family="Helvetica,sans-Serif" font-size="10.00">leanux::block::MajorMinor</text>
<text text-anchor="middle" x="390.5" y="-428.5" font-family="Helvetica,sans-Serif" font-size="10.00">::getRotational</text>
</a>
</g>
</g>
<!-- Node2&#45;&gt;Node19 -->
<g id="edge8" class="edge">
<title>Node2&#45;&gt;Node19</title>
<path fill="none" stroke="midnightblue" d="M527.38,-490.01C507.75,-480.95 483.83,-470.27 462,-461.5 453.57,-458.11 444.47,-454.71 435.71,-451.55"/>
<polygon fill="midnightblue" stroke="midnightblue" points="526.1,-493.27 536.64,-494.31 529.04,-486.92 526.1,-493.27"/>
</g>
<!-- Node21 -->
<g id="node10" class="node">
<title>Node21</title>
<g id="a_node10"><a xlink:href="../../d7/d28/classleanux_1_1block_1_1MajorMinor.html#a89962016f65109842c3941fa188eae95" target="_top" xlink:title="get the device sector size.">
<polygon fill="none" stroke="red" points="319,-568.5 319,-598.5 462,-598.5 462,-568.5 319,-568.5"/>
<text text-anchor="start" x="327" y="-586.5" font-family="Helvetica,sans-Serif" font-size="10.00">leanux::block::MajorMinor</text>
<text text-anchor="middle" x="390.5" y="-575.5" font-family="Helvetica,sans-Serif" font-size="10.00">::getSectorSize</text>
</a>
</g>
</g>
<!-- Node2&#45;&gt;Node21 -->
<g id="edge9" class="edge">
<title>Node2&#45;&gt;Node21</title>
<path fill="none" stroke="midnightblue" d="M529.51,-529.08C509.55,-538.77 484.73,-550.33 462,-559.5 454.33,-562.6 446.08,-565.64 438.04,-568.48"/>
<polygon fill="midnightblue" stroke="midnightblue" points="531.15,-532.17 538.6,-524.63 528.08,-525.88 531.15,-532.17"/>
</g>
<!-- Node23 -->
<g id="node11" class="node">
<title>Node23</title>
<g id="a_node11"><a xlink:href="../../d7/d28/classleanux_1_1block_1_1MajorMinor.html#a5466f74de32fbbcaccceff77133e2b7b" target="_top" xlink:title="Get a list of devices slave to the device m.">
<polygon fill="none" stroke="black" points="319,-372.5 319,-402.5 462,-402.5 462,-372.5 319,-372.5"/>
<text text-anchor="start" x="327" y="-390.5" font-family="Helvetica,sans-Serif" font-size="10.00">leanux::block::MajorMinor</text>
<text text-anchor="middle" x="390.5" y="-379.5" font-family="Helvetica,sans-Serif" font-size="10.00">::getSlaves</text>
</a>
</g>
</g>
<!-- Node2&#45;&gt;Node23 -->
<g id="edge11" class="edge">
<title>Node2&#45;&gt;Node23</title>
<path fill="none" stroke="midnightblue" d="M548.73,-486.88C528.74,-465.21 496.01,-432.88 462,-412.5 455.76,-408.76 448.88,-405.46 441.93,-402.59"/>
<polygon fill="midnightblue" stroke="midnightblue" points="546.19,-489.29 555.5,-494.34 551.37,-484.59 546.19,-489.29"/>
</g>
<!-- Node24 -->
<g id="node12" class="node">
<title>Node24</title>
<g id="a_node12"><a xlink:href="../../d7/d28/classleanux_1_1block_1_1MajorMinor.html#a742f510de3aea2ec0a1eb112e3ca3c1e" target="_top" xlink:title="return the full device path as it appears under /sys/devices/block">
<polygon fill="none" stroke="red" points="319,-617.5 319,-647.5 462,-647.5 462,-617.5 319,-617.5"/>
<text text-anchor="start" x="327" y="-635.5" font-family="Helvetica,sans-Serif" font-size="10.00">leanux::block::MajorMinor</text>
<text text-anchor="middle" x="390.5" y="-624.5" font-family="Helvetica,sans-Serif" font-size="10.00">::getSysPath</text>
</a>
</g>
</g>
<!-- Node2&#45;&gt;Node24 -->
<g id="edge12" class="edge">
<title>Node2&#45;&gt;Node24</title>
<path fill="none" stroke="midnightblue" d="M549.22,-532.33C529.37,-554.53 496.55,-587.86 462,-608.5 456.34,-611.88 450.14,-614.87 443.83,-617.48"/>
<polygon fill="midnightblue" stroke="midnightblue" points="551.95,-534.52 555.92,-524.69 546.69,-529.9 551.95,-534.52"/>
</g>
<!-- Node37 -->
<g id="node13" class="node">
<title>Node37</title>
<g id="a_node13"><a xlink:href="../../d5/d1b/namespaceleanux_1_1tools_1_1lblk.html#a514a93d2172ba20b92f77ba1062d822c" target="_top" xlink:title="Write the tree of slaves beneath and including mm, append to tab, starting with level.">
<polygon fill="none" stroke="red" points="159.5,-682.5 159.5,-712.5 263.5,-712.5 263.5,-682.5 159.5,-682.5"/>
<text text-anchor="start" x="167.5" y="-700.5" font-family="Helvetica,sans-Serif" font-size="10.00">leanux::tools::lblk</text>
<text text-anchor="middle" x="211.5" y="-689.5" font-family="Helvetica,sans-Serif" font-size="10.00">::printSlaveTree</text>
</a>
</g>
</g>
<!-- Node2&#45;&gt;Node37 -->
<g id="edge14" class="edge">
<title>Node2&#45;&gt;Node37</title>
<path fill="none" stroke="midnightblue" d="M560.94,-534.61C547.81,-573.31 516.83,-646.52 462,-679.5 401.53,-715.88 317.3,-713.33 263.83,-706.61"/>
<polygon fill="midnightblue" stroke="midnightblue" points="564.41,-535.26 564.17,-524.67 557.75,-533.1 564.41,-535.26"/>
</g>
<!-- Node3&#45;&gt;Node4 -->
<g id="edge3" class="edge">
<title>Node3&#45;&gt;Node4</title>
<path fill="none" stroke="midnightblue" d="M186.46,-610.31C172.12,-596.44 154.02,-577.78 140,-559.5 106.06,-515.24 74.58,-456.81 60.6,-429.62"/>
<polygon fill="midnightblue" stroke="midnightblue" points="184.35,-613.13 194,-617.5 189.18,-608.06 184.35,-613.13"/>
</g>
<!-- Node13 -->
<g id="node7" class="node">
<title>Node13</title>
<g id="a_node7"><a xlink:href="../../d9/d1f/namespaceleanux_1_1tools_1_1lsys.html#a4a56050ff78d8c77b6a699ff6d5aea50" target="_top" xlink:title="get named field attributes for the SysDevice.">
<polygon fill="none" stroke="red" points="159,-519.5 159,-549.5 264,-549.5 264,-519.5 159,-519.5"/>
<text text-anchor="start" x="167" y="-537.5" font-family="Helvetica,sans-Serif" font-size="10.00">leanux::tools::lsys</text>
<text text-anchor="middle" x="211.5" y="-526.5" font-family="Helvetica,sans-Serif" font-size="10.00">::getLeafColStr</text>
</a>
</g>
</g>
<!-- Node11&#45;&gt;Node13 -->
<g id="edge6" class="edge">
<title>Node11&#45;&gt;Node13</title>
<path fill="none" stroke="midnightblue" d="M308.4,-534.5C293.31,-534.5 277.93,-534.5 264.03,-534.5"/>
<polygon fill="midnightblue" stroke="midnightblue" points="308.78,-538 318.78,-534.5 308.78,-531 308.78,-538"/>
</g>
<!-- Node21&#45;&gt;Node13 -->
<g id="edge10" class="edge">
<title>Node21&#45;&gt;Node13</title>
<path fill="none" stroke="midnightblue" d="M325.25,-565.71C305.16,-560.15 283.26,-554.09 264.15,-548.8"/>
<polygon fill="midnightblue" stroke="midnightblue" points="324.38,-569.1 334.95,-568.4 326.25,-562.36 324.38,-569.1"/>
</g>
<!-- Node24&#45;&gt;Node3 -->
<g id="edge13" class="edge">
<title>Node24&#45;&gt;Node3</title>
<path fill="none" stroke="midnightblue" d="M308.35,-632.5C293.17,-632.5 277.71,-632.5 263.76,-632.5"/>
<polygon fill="midnightblue" stroke="midnightblue" points="308.78,-636 318.78,-632.5 308.78,-629 308.78,-636"/>
</g>
<!-- Node37&#45;&gt;Node4 -->
<g id="edge15" class="edge">
<title>Node37&#45;&gt;Node4</title>
<path fill="none" stroke="midnightblue" d="M163.97,-677.4C155.13,-671.95 146.59,-665.34 140,-657.5 80.15,-586.34 60.17,-470.89 54.74,-429.7"/>
<polygon fill="midnightblue" stroke="midnightblue" points="162.44,-680.55 172.86,-682.47 165.91,-674.47 162.44,-680.55"/>
</g>
<!-- Node40&#45;&gt;Node4 -->
<g id="edge20" class="edge">
<title>Node40&#45;&gt;Node4</title>
<path fill="none" stroke="midnightblue" d="M308.77,-90.22C255.16,-86.09 186.38,-90.4 140,-128.5 54.38,-198.83 51.06,-350.77 52.32,-399.29"/>
<polygon fill="midnightblue" stroke="midnightblue" points="308.67,-93.72 318.94,-91.12 309.28,-86.75 308.67,-93.72"/>
</g>
<!-- Node41 -->
<g id="node15" class="node">
<title>Node41</title>
<g id="a_node15"><a xlink:href="../../d7/d28/classleanux_1_1block_1_1MajorMinor.html#a0262599b45d4425a1841853e830a7c46" target="_top" xlink:title="Get a descriptive string for the device type of the MajorMinor.">
<polygon fill="none" stroke="red" points="140,-49.5 140,-79.5 283,-79.5 283,-49.5 140,-49.5"/>
<text text-anchor="start" x="148" y="-67.5" font-family="Helvetica,sans-Serif" font-size="10.00">leanux::block::MajorMinor</text>
<text text-anchor="middle" x="211.5" y="-56.5" font-family="Helvetica,sans-Serif" font-size="10.00">::getClassStr</text>
</a>
</g>
</g>
<!-- Node40&#45;&gt;Node41 -->
<g id="edge17" class="edge">
<title>Node40&#45;&gt;Node41</title>
<path fill="none" stroke="midnightblue" d="M311.53,-86.32C301.24,-84.05 290.75,-81.74 280.64,-79.51"/>
<polygon fill="midnightblue" stroke="midnightblue" points="310.8,-89.74 321.32,-88.48 312.31,-82.91 310.8,-89.74"/>
</g>
<!-- Node9 -->
<g id="node16" class="node">
<title>Node9</title>
<g id="a_node16"><a xlink:href="../../d7/d28/classleanux_1_1block_1_1MajorMinor.html#a26a2363b1eea927b6ebb4aad44dea876" target="_top" xlink:title="Get a pretty&#45;print description for the device.">
<polygon fill="none" stroke="red" points="140,-0.5 140,-30.5 283,-30.5 283,-0.5 140,-0.5"/>
<text text-anchor="start" x="148" y="-18.5" font-family="Helvetica,sans-Serif" font-size="10.00">leanux::block::MajorMinor</text>
<text text-anchor="middle" x="211.5" y="-7.5" font-family="Helvetica,sans-Serif" font-size="10.00">::getDescription</text>
</a>
</g>
</g>
<!-- Node40&#45;&gt;Node9 -->
<g id="edge18" class="edge">
<title>Node40&#45;&gt;Node9</title>
<path fill="none" stroke="midnightblue" d="M359,-82.79C338.21,-69.27 309.71,-51.9 283,-39.5 276.08,-36.29 268.61,-33.28 261.2,-30.56"/>
<polygon fill="midnightblue" stroke="midnightblue" points="357.14,-85.75 367.42,-88.32 360.98,-79.9 357.14,-85.75"/>
</g>
<!-- Node44 -->
<g id="node17" class="node">
<title>Node44</title>
<g id="a_node17"><a xlink:href="../../d7/d28/classleanux_1_1block_1_1MajorMinor.html#a52999f02212469e3e0e74760d7637470" target="_top" xlink:title="Retrieve a string identifying a disk on a best&#45;efffort basis.">
<polygon fill="none" stroke="red" points="140,-137.5 140,-167.5 283,-167.5 283,-137.5 140,-137.5"/>
<text text-anchor="start" x="148" y="-155.5" font-family="Helvetica,sans-Serif" font-size="10.00">leanux::block::MajorMinor</text>
<text text-anchor="middle" x="211.5" y="-144.5" font-family="Helvetica,sans-Serif" font-size="10.00">::getDiskId</text>
</a>
</g>
</g>
<!-- Node40&#45;&gt;Node44 -->
<g id="edge19" class="edge">
<title>Node40&#45;&gt;Node44</title>
<path fill="none" stroke="midnightblue" d="M325.13,-121.32C306.01,-126.61 285.28,-132.35 266.87,-137.45"/>
<polygon fill="midnightblue" stroke="midnightblue" points="326.25,-124.64 334.95,-118.6 324.38,-117.9 326.25,-124.64"/>
</g>
<!-- Node45&#45;&gt;Node13 -->
<g id="edge23" class="edge">
<title>Node45&#45;&gt;Node13</title>
<path fill="none" stroke="midnightblue" d="M359.67,-173.8C345.66,-185.12 329.73,-200.07 319,-216.5 251.2,-320.34 222.5,-471.53 214.77,-519.39"/>
<polygon fill="midnightblue" stroke="midnightblue" points="361.92,-176.49 367.64,-167.58 357.61,-170.97 361.92,-176.49"/>
</g>
<!-- Node45&#45;&gt;Node44 -->
<g id="edge22" class="edge">
<title>Node45&#45;&gt;Node44</title>
<path fill="none" stroke="midnightblue" d="M308.51,-152.5C300.03,-152.5 291.46,-152.5 283.11,-152.5"/>
<polygon fill="midnightblue" stroke="midnightblue" points="308.78,-156 318.78,-152.5 308.78,-149 308.78,-156"/>
</g>
<!-- Node46&#45;&gt;Node7 -->
<g id="edge27" class="edge">
<title>Node46&#45;&gt;Node7</title>
<path fill="none" stroke="midnightblue" d="M487.79,-351.56C479.22,-350.39 470.55,-349.22 462.11,-348.07"/>
<polygon fill="midnightblue" stroke="midnightblue" points="487.4,-355.04 497.78,-352.91 488.34,-348.1 487.4,-355.04"/>
</g>
<!-- Node46&#45;&gt;Node11 -->
<g id="edge28" class="edge">
<title>Node46&#45;&gt;Node11</title>
<path fill="none" stroke="midnightblue" d="M556.86,-387.21C540.25,-419.94 506.72,-477.37 462,-510.5 457.43,-513.89 452.35,-516.82 447.06,-519.35"/>
<polygon fill="midnightblue" stroke="midnightblue" points="560.17,-388.42 561.47,-377.91 553.9,-385.32 560.17,-388.42"/>
</g>
<!-- Node46&#45;&gt;Node18 -->
<g id="edge29" class="edge">
<title>Node46&#45;&gt;Node18</title>
<path fill="none" stroke="midnightblue" d="M549.22,-385.33C529.37,-407.53 496.55,-440.86 462,-461.5 456.34,-464.88 450.14,-467.87 443.83,-470.48"/>
<polygon fill="midnightblue" stroke="midnightblue" points="551.95,-387.52 555.92,-377.69 546.69,-382.9 551.95,-387.52"/>
</g>
<!-- Node46&#45;&gt;Node19 -->
<g id="edge30" class="edge">
<title>Node46&#45;&gt;Node19</title>
<path fill="none" stroke="midnightblue" d="M529.51,-382.08C509.55,-391.77 484.73,-403.33 462,-412.5 454.33,-415.6 446.08,-418.64 438.04,-421.48"/>
<polygon fill="midnightblue" stroke="midnightblue" points="531.15,-385.17 538.6,-377.63 528.08,-378.88 531.15,-385.17"/>
</g>
<!-- Node46&#45;&gt;Node23 -->
<g id="edge31" class="edge">
<title>Node46&#45;&gt;Node23</title>
<path fill="none" stroke="midnightblue" d="M487.79,-373.9C479.22,-375.11 470.55,-376.34 462.11,-377.53"/>
<polygon fill="midnightblue" stroke="midnightblue" points="488.37,-377.35 497.78,-372.49 487.39,-370.42 488.37,-377.35"/>
</g>
<!-- Node46&#45;&gt;Node24 -->
<g id="edge32" class="edge">
<title>Node46&#45;&gt;Node24</title>
<path fill="none" stroke="midnightblue" d="M552.59,-386.31C537,-410.47 513.39,-449.36 498,-485.5 475.68,-537.91 501.39,-567.36 462,-608.5 458.69,-611.96 454.87,-614.91 450.74,-617.45"/>
<polygon fill="midnightblue" stroke="midnightblue" points="555.6,-388.09 558.14,-377.81 549.74,-384.27 555.6,-388.09"/>
</g>
<!-- Node46&#45;&gt;Node40 -->
<g id="edge26" class="edge">
<title>Node46&#45;&gt;Node40</title>
<path fill="none" stroke="midnightblue" d="M563.78,-337.17C553.63,-289.63 525.32,-186.58 462,-128.5 457.79,-124.64 452.94,-121.36 447.8,-118.59"/>
<polygon fill="midnightblue" stroke="midnightblue" points="560.4,-338.13 565.83,-347.23 567.26,-336.73 560.4,-338.13"/>
</g>
<!-- Node47 -->
<g id="node20" class="node">
<title>Node47</title>
<g id="a_node20"><a xlink:href="../../d6/d19/classleanux_1_1sysdevice_1_1BlockPartition.html#a66d61b5a78be267835e09b8d9e4c405f" target="_top" xlink:title="Return true if the SysDevice recognizes itself in the trailing part of path.">
<polygon fill="none" stroke="red" points="329.5,-274.5 329.5,-304.5 451.5,-304.5 451.5,-274.5 329.5,-274.5"/>
<text text-anchor="start" x="337.5" y="-292.5" font-family="Helvetica,sans-Serif" font-size="10.00">leanux::sysdevice::</text>
<text text-anchor="middle" x="390.5" y="-281.5" font-family="Helvetica,sans-Serif" font-size="10.00">BlockPartition::accept</text>
</a>
</g>
</g>
<!-- Node46&#45;&gt;Node47 -->
<g id="edge25" class="edge">
<title>Node46&#45;&gt;Node47</title>
<path fill="none" stroke="midnightblue" d="M527.38,-343.01C507.75,-333.95 483.83,-323.27 462,-314.5 453.57,-311.11 444.47,-307.71 435.71,-304.55"/>
<polygon fill="midnightblue" stroke="midnightblue" points="526.1,-346.27 536.64,-347.31 529.04,-339.92 526.1,-346.27"/>
</g>
<!-- Node46&#45;&gt;Node54 -->
<g id="edge33" class="edge">
<title>Node46&#45;&gt;Node54</title>
<path fill="none" stroke="midnightblue" d="M548.73,-339.88C528.74,-318.21 496.01,-285.88 462,-265.5 455.76,-261.76 448.88,-258.46 441.93,-255.59"/>
<polygon fill="midnightblue" stroke="midnightblue" points="546.19,-342.29 555.5,-347.34 551.37,-337.59 546.19,-342.29"/>
</g>
</g>
</svg>
