<?xml version="1.0" encoding="UTF-8" standalone="no"?>
<!DOCTYPE svg PUBLIC "-//W3C//DTD SVG 1.1//EN"
 "http://www.w3.org/Graphics/SVG/1.1/DTD/svg11.dtd">
<!-- Generated by graphviz version 2.43.0 (0)
 -->
<!-- Title: leanux::block::MajorMinor::getClass Pages: 1 -->
<svg width="655pt" height="208pt"
 viewBox="0.00 0.00 655.00 208.26" xmlns="http://www.w3.org/2000/svg" xmlns:xlink="http://www.w3.org/1999/xlink">
<g id="graph0" class="graph" transform="scale(1 1) rotate(0) translate(4 204.26)">
<title>leanux::block::MajorMinor::getClass</title>
<!-- Node1 -->
<g id="node1" class="node">
<title>Node1</title>
<g id="a_node1"><a xlink:title="Get the DeviceClass for a MajorMinor.">
<polygon fill="#bfbfbf" stroke="black" points="504,-73.5 504,-103.5 647,-103.5 647,-73.5 504,-73.5"/>
<text text-anchor="start" x="512" y="-91.5" font-family="Helvetica,sans-Serif" font-size="10.00">leanux::block::MajorMinor</text>
<text text-anchor="middle" x="575.5" y="-80.5" font-family="Helvetica,sans-Serif" font-size="10.00">::getClass</text>
</a>
</g>
</g>
<!-- Node2 -->
<g id="node2" class="node">
<title>Node2</title>
<g id="a_node2"><a xlink:href="../../d7/d28/classleanux_1_1block_1_1MajorMinor.html#a0262599b45d4425a1841853e830a7c46" target="_top" xlink:title="Get a descriptive string for the device type of the MajorMinor.">
<polygon fill="none" stroke="black" points="325,-98.5 325,-128.5 468,-128.5 468,-98.5 325,-98.5"/>
<text text-anchor="start" x="333" y="-116.5" font-family="Helvetica,sans-Serif" font-size="10.00">leanux::block::MajorMinor</text>
<text text-anchor="middle" x="396.5" y="-105.5" font-family="Helvetica,sans-Serif" font-size="10.00">::getClassStr</text>
</a>
</g>
</g>
<!-- Node1&#45;&gt;Node2 -->
<g id="edge1" class="edge">
<title>Node1&#45;&gt;Node2</title>
<path fill="none" stroke="midnightblue" d="M493.79,-99.9C485.22,-101.11 476.55,-102.34 468.11,-103.53"/>
<polygon fill="midnightblue" stroke="midnightblue" points="494.37,-103.35 503.78,-98.49 493.39,-96.42 494.37,-103.35"/>
</g>
<!-- Node4 -->
<g id="node4" class="node">
<title>Node4</title>
<g id="a_node4"><a xlink:href="../../d5/d1b/namespaceleanux_1_1tools_1_1lblk.html#aafee1346a1081bfa4f7470f921cd66b8" target="_top" xlink:title="Direct output run from options.">
<polygon fill="none" stroke="red" points="0,-98.5 0,-128.5 104,-128.5 104,-98.5 0,-98.5"/>
<text text-anchor="start" x="8" y="-116.5" font-family="Helvetica,sans-Serif" font-size="10.00">leanux::tools::lblk</text>
<text text-anchor="middle" x="52" y="-105.5" font-family="Helvetica,sans-Serif" font-size="10.00">::runOptions</text>
</a>
</g>
</g>
<!-- Node1&#45;&gt;Node4 -->
<g id="edge14" class="edge">
<title>Node1&#45;&gt;Node4</title>
<path fill="none" stroke="midnightblue" d="M536.59,-108.24C516.55,-118.18 491.33,-129.9 468,-138.5 390.61,-167.02 370.75,-176.51 289,-187.5 223.37,-196.32 202.15,-210.36 140,-187.5 108.18,-175.8 80.05,-146.71 64.88,-128.69"/>
<polygon fill="midnightblue" stroke="midnightblue" points="538.33,-111.29 545.69,-103.68 535.19,-105.03 538.33,-111.29"/>
</g>
<!-- Node10 -->
<g id="node8" class="node">
<title>Node10</title>
<g id="a_node8"><a xlink:href="../../d7/d28/classleanux_1_1block_1_1MajorMinor.html#a26a2363b1eea927b6ebb4aad44dea876" target="_top" xlink:title="Get a pretty&#45;print description for the device.">
<polygon fill="none" stroke="black" points="325,-0.5 325,-30.5 468,-30.5 468,-0.5 325,-0.5"/>
<text text-anchor="start" x="333" y="-18.5" font-family="Helvetica,sans-Serif" font-size="10.00">leanux::block::MajorMinor</text>
<text text-anchor="middle" x="396.5" y="-7.5" font-family="Helvetica,sans-Serif" font-size="10.00">::getDescription</text>
</a>
</g>
</g>
<!-- Node1&#45;&gt;Node10 -->
<g id="edge10" class="edge">
<title>Node1&#45;&gt;Node10</title>
<path fill="none" stroke="midnightblue" d="M534.6,-68.96C514.79,-59.56 490.36,-48.42 468,-39.5 460.31,-36.43 452.07,-33.4 444.02,-30.57"/>
<polygon fill="midnightblue" stroke="midnightblue" points="533.11,-72.13 543.64,-73.28 536.13,-65.81 533.11,-72.13"/>
</g>
<!-- Node11 -->
<g id="node9" class="node">
<title>Node11</title>
<g id="a_node9"><a xlink:href="../../d7/d28/classleanux_1_1block_1_1MajorMinor.html#a52999f02212469e3e0e74760d7637470" target="_top" xlink:title="Retrieve a string identifying a disk on a best&#45;efffort basis.">
<polygon fill="none" stroke="black" points="325,-49.5 325,-79.5 468,-79.5 468,-49.5 325,-49.5"/>
<text text-anchor="start" x="333" y="-67.5" font-family="Helvetica,sans-Serif" font-size="10.00">leanux::block::MajorMinor</text>
<text text-anchor="middle" x="396.5" y="-56.5" font-family="Helvetica,sans-Serif" font-size="10.00">::getDiskId</text>
</a>
</g>
</g>
<!-- Node1&#45;&gt;Node11 -->
<g id="edge12" class="edge">
<title>Node1&#45;&gt;Node11</title>
<path fill="none" stroke="midnightblue" d="M493.79,-77.56C485.22,-76.39 476.55,-75.22 468.11,-74.07"/>
<polygon fill="midnightblue" stroke="midnightblue" points="493.4,-81.04 503.78,-78.91 494.34,-74.1 493.4,-81.04"/>
</g>
<!-- Node3 -->
<g id="node3" class="node">
<title>Node3</title>
<g id="a_node3"><a xlink:href="../../d5/d1b/namespaceleanux_1_1tools_1_1lblk.html#ab1dd99f5a818f4a86f50527aa9835a0a" target="_top" xlink:title="Write device mapper details.">
<polygon fill="none" stroke="black" points="154,-98.5 154,-128.5 275,-128.5 275,-98.5 154,-98.5"/>
<text text-anchor="start" x="162" y="-116.5" font-family="Helvetica,sans-Serif" font-size="10.00">leanux::tools::lblk</text>
<text text-anchor="middle" x="214.5" y="-105.5" font-family="Helvetica,sans-Serif" font-size="10.00">::detailDeviceMapper</text>
</a>
</g>
</g>
<!-- Node2&#45;&gt;Node3 -->
<g id="edge2" class="edge">
<title>Node2&#45;&gt;Node3</title>
<path fill="none" stroke="midnightblue" d="M314.76,-113.5C301.44,-113.5 287.84,-113.5 275.15,-113.5"/>
<polygon fill="midnightblue" stroke="midnightblue" points="314.88,-117 324.88,-113.5 314.88,-110 314.88,-117"/>
</g>
<!-- Node7 -->
<g id="node5" class="node">
<title>Node7</title>
<g id="a_node5"><a xlink:href="../../d5/d1b/namespaceleanux_1_1tools_1_1lblk.html#a166e28aa95689343dc660fb59f69b4a1" target="_top" xlink:title="Write generic block device details.">
<polygon fill="none" stroke="black" points="140,-147.5 140,-177.5 289,-177.5 289,-147.5 140,-147.5"/>
<text text-anchor="start" x="148" y="-165.5" font-family="Helvetica,sans-Serif" font-size="10.00">leanux::tools::lblk</text>
<text text-anchor="middle" x="214.5" y="-154.5" font-family="Helvetica,sans-Serif" font-size="10.00">::detailGenericBlockDevice</text>
</a>
</g>
</g>
<!-- Node2&#45;&gt;Node7 -->
<g id="edge4" class="edge">
<title>Node2&#45;&gt;Node7</title>
<path fill="none" stroke="midnightblue" d="M330.3,-131.25C310.79,-136.56 289.6,-142.33 270.79,-147.45"/>
<polygon fill="midnightblue" stroke="midnightblue" points="331.3,-134.61 340.03,-128.6 329.46,-127.85 331.3,-134.61"/>
</g>
<!-- Node8 -->
<g id="node6" class="node">
<title>Node8</title>
<g id="a_node6"><a xlink:href="../../d5/d1b/namespaceleanux_1_1tools_1_1lblk.html#ac57ae7d9a91a4259052d4ae1da5a36a2" target="_top" xlink:title="Write LVM details.">
<polygon fill="none" stroke="black" points="162.5,-49.5 162.5,-79.5 266.5,-79.5 266.5,-49.5 162.5,-49.5"/>
<text text-anchor="start" x="170.5" y="-67.5" font-family="Helvetica,sans-Serif" font-size="10.00">leanux::tools::lblk</text>
<text text-anchor="middle" x="214.5" y="-56.5" font-family="Helvetica,sans-Serif" font-size="10.00">::detailLVM</text>
</a>
</g>
</g>
<!-- Node2&#45;&gt;Node8 -->
<g id="edge6" class="edge">
<title>Node2&#45;&gt;Node8</title>
<path fill="none" stroke="midnightblue" d="M330.22,-95.73C309.24,-90.02 286.31,-83.78 266.5,-78.38"/>
<polygon fill="midnightblue" stroke="midnightblue" points="329.46,-99.15 340.03,-98.4 331.3,-92.39 329.46,-99.15"/>
</g>
<!-- Node9 -->
<g id="node7" class="node">
<title>Node9</title>
<g id="a_node7"><a xlink:href="../../d5/d1b/namespaceleanux_1_1tools_1_1lblk.html#a3ed79ca6c9f478be774a6d9f4a4cb016" target="_top" xlink:title="Write MetaDisk details.">
<polygon fill="none" stroke="black" points="162.5,-0.5 162.5,-30.5 266.5,-30.5 266.5,-0.5 162.5,-0.5"/>
<text text-anchor="start" x="170.5" y="-18.5" font-family="Helvetica,sans-Serif" font-size="10.00">leanux::tools::lblk</text>
<text text-anchor="middle" x="214.5" y="-7.5" font-family="Helvetica,sans-Serif" font-size="10.00">::detailMetaDisk</text>
</a>
</g>
</g>
<!-- Node2&#45;&gt;Node9 -->
<g id="edge8" class="edge">
<title>Node2&#45;&gt;Node9</title>
<path fill="none" stroke="midnightblue" d="M330.8,-93.4C328.8,-92.18 326.86,-90.88 325,-89.5 302.99,-73.2 311.11,-55.66 289,-39.5 282.28,-34.59 274.51,-30.65 266.58,-27.5"/>
<polygon fill="midnightblue" stroke="midnightblue" points="329.48,-96.67 339.94,-98.35 332.81,-90.51 329.48,-96.67"/>
</g>
<!-- Node3&#45;&gt;Node4 -->
<g id="edge3" class="edge">
<title>Node3&#45;&gt;Node4</title>
<path fill="none" stroke="midnightblue" d="M143.67,-113.5C130.38,-113.5 116.7,-113.5 104.12,-113.5"/>
<polygon fill="midnightblue" stroke="midnightblue" points="143.74,-117 153.74,-113.5 143.74,-110 143.74,-117"/>
</g>
<!-- Node7&#45;&gt;Node4 -->
<g id="edge5" class="edge">
<title>Node7&#45;&gt;Node4</title>
<path fill="none" stroke="midnightblue" d="M154.17,-144.39C137.11,-139.18 118.69,-133.55 102.3,-128.55"/>
<polygon fill="midnightblue" stroke="midnightblue" points="153.45,-147.83 164.04,-147.4 155.49,-141.13 153.45,-147.83"/>
</g>
<!-- Node8&#45;&gt;Node4 -->
<g id="edge7" class="edge">
<title>Node8&#45;&gt;Node4</title>
<path fill="none" stroke="midnightblue" d="M154.17,-82.61C137.11,-87.82 118.69,-93.45 102.3,-98.45"/>
<polygon fill="midnightblue" stroke="midnightblue" points="155.49,-85.87 164.04,-79.6 153.45,-79.17 155.49,-85.87"/>
</g>
<!-- Node9&#45;&gt;Node4 -->
<g id="edge9" class="edge">
<title>Node9&#45;&gt;Node4</title>
<path fill="none" stroke="midnightblue" d="M152.57,-33.3C148.23,-35.2 144,-37.26 140,-39.5 111.28,-55.58 83.22,-81.92 67.05,-98.45"/>
<polygon fill="midnightblue" stroke="midnightblue" points="154.24,-36.4 162.19,-29.39 151.61,-29.91 154.24,-36.4"/>
</g>
<!-- Node10&#45;&gt;Node9 -->
<g id="edge11" class="edge">
<title>Node10&#45;&gt;Node9</title>
<path fill="none" stroke="midnightblue" d="M314.78,-15.5C298.45,-15.5 281.7,-15.5 266.73,-15.5"/>
<polygon fill="midnightblue" stroke="midnightblue" points="314.88,-19 324.88,-15.5 314.88,-12 314.88,-19"/>
</g>
<!-- Node11&#45;&gt;Node8 -->
<g id="edge13" class="edge">
<title>Node11&#45;&gt;Node8</title>
<path fill="none" stroke="midnightblue" d="M314.78,-64.5C298.45,-64.5 281.7,-64.5 266.73,-64.5"/>
<polygon fill="midnightblue" stroke="midnightblue" points="314.88,-68 324.88,-64.5 314.88,-61 314.88,-68"/>
</g>
</g>
</svg>
