<?xml version="1.0" encoding="UTF-8" standalone="no"?>
<!DOCTYPE svg PUBLIC "-//W3C//DTD SVG 1.1//EN"
 "http://www.w3.org/Graphics/SVG/1.1/DTD/svg11.dtd">
<!-- Generated by graphviz version 2.43.0 (0)
 -->
<!-- Title: leanux::block::MajorMinor::isPartition Pages: 1 -->
<svg width="867pt" height="354pt"
 viewBox="0.00 0.00 867.00 354.45" xmlns="http://www.w3.org/2000/svg" xmlns:xlink="http://www.w3.org/1999/xlink">
<g id="graph0" class="graph" transform="scale(1 1) rotate(0) translate(4 350.45)">
<title>leanux::block::MajorMinor::isPartition</title>
<!-- Node1 -->
<g id="node1" class="node">
<title>Node1</title>
<g id="a_node1"><a xlink:title=" ">
<polygon fill="#bfbfbf" stroke="black" points="0,-171.5 0,-201.5 143,-201.5 143,-171.5 0,-171.5"/>
<text text-anchor="start" x="8" y="-189.5" font-family="Helvetica,sans-Serif" font-size="10.00">leanux::block::MajorMinor</text>
<text text-anchor="middle" x="71.5" y="-178.5" font-family="Helvetica,sans-Serif" font-size="10.00">::isPartition</text>
</a>
</g>
</g>
<!-- Node2 -->
<g id="node2" class="node">
<title>Node2</title>
<g id="a_node2"><a xlink:href="../../d7/d28/classleanux_1_1block_1_1MajorMinor.html#adc3f437e329318ee21bddbbebaeb740e" target="_top" xlink:title="Get the DeviceName for the MajorMinor.">
<polygon fill="none" stroke="black" points="358,-181.5 358,-211.5 501,-211.5 501,-181.5 358,-181.5"/>
<text text-anchor="start" x="366" y="-199.5" font-family="Helvetica,sans-Serif" font-size="10.00">leanux::block::MajorMinor</text>
<text text-anchor="middle" x="429.5" y="-188.5" font-family="Helvetica,sans-Serif" font-size="10.00">::getNameByMajorMinor</text>
</a>
</g>
</g>
<!-- Node1&#45;&gt;Node2 -->
<g id="edge1" class="edge">
<title>Node1&#45;&gt;Node2</title>
<path fill="none" stroke="midnightblue" d="M82.78,-201.56C99.66,-224.8 135.77,-268.51 179,-285.5 238.15,-308.75 262.26,-307.18 322,-285.5 357.95,-272.46 390.26,-241.37 409.63,-219.64"/>
<polygon fill="midnightblue" stroke="midnightblue" points="412.5,-221.67 416.4,-211.82 407.2,-217.09 412.5,-221.67"/>
</g>
<!-- Node4 -->
<g id="node4" class="node">
<title>Node4</title>
<g id="a_node4"><a xlink:href="../../d7/d28/classleanux_1_1block_1_1MajorMinor.html#a464bd4b85ec6d88f850ef7d76e950f44" target="_top" xlink:title="Default constructor.">
<polygon fill="none" stroke="black" points="716,-237.5 716,-267.5 859,-267.5 859,-237.5 716,-237.5"/>
<text text-anchor="start" x="724" y="-255.5" font-family="Helvetica,sans-Serif" font-size="10.00">leanux::block::MajorMinor</text>
<text text-anchor="middle" x="787.5" y="-244.5" font-family="Helvetica,sans-Serif" font-size="10.00">::MajorMinor</text>
</a>
</g>
</g>
<!-- Node1&#45;&gt;Node4 -->
<g id="edge14" class="edge">
<title>Node1&#45;&gt;Node4</title>
<path fill="none" stroke="midnightblue" d="M80.19,-201.68C94.98,-228.96 130.29,-285.48 179,-307.5 372.75,-395.08 636.26,-311.46 740.93,-271.3"/>
<polygon fill="midnightblue" stroke="midnightblue" points="742.51,-274.44 750.56,-267.56 739.97,-267.92 742.51,-274.44"/>
</g>
<!-- Node6 -->
<g id="node5" class="node">
<title>Node6</title>
<g id="a_node5"><a xlink:href="../../d7/d28/classleanux_1_1block_1_1MajorMinor.html#a59e3fe2f1a574b79bad1fe48a2334c27" target="_top" xlink:title="determine if the MajorMinor represents a bcache disk.">
<polygon fill="none" stroke="black" points="179,-245.5 179,-275.5 322,-275.5 322,-245.5 179,-245.5"/>
<text text-anchor="start" x="187" y="-263.5" font-family="Helvetica,sans-Serif" font-size="10.00">leanux::block::MajorMinor</text>
<text text-anchor="middle" x="250.5" y="-252.5" font-family="Helvetica,sans-Serif" font-size="10.00">::isBCacheDisk</text>
</a>
</g>
</g>
<!-- Node1&#45;&gt;Node6 -->
<g id="edge4" class="edge">
<title>Node1&#45;&gt;Node6</title>
<path fill="none" stroke="midnightblue" d="M102.4,-201.63C123.54,-212.05 152.67,-225.88 179,-236.5 183.68,-238.39 188.56,-240.26 193.49,-242.07"/>
<polygon fill="midnightblue" stroke="midnightblue" points="192.37,-245.39 202.96,-245.48 194.74,-238.8 192.37,-245.39"/>
</g>
<!-- Node7 -->
<g id="node6" class="node">
<title>Node7</title>
<g id="a_node6"><a xlink:href="../../d7/d28/classleanux_1_1block_1_1MajorMinor.html#a546aa9297e382543cb031126190bc8c9" target="_top" xlink:title="determine if the major represents an IDE disk.">
<polygon fill="none" stroke="black" points="179,-196.5 179,-226.5 322,-226.5 322,-196.5 179,-196.5"/>
<text text-anchor="start" x="187" y="-214.5" font-family="Helvetica,sans-Serif" font-size="10.00">leanux::block::MajorMinor</text>
<text text-anchor="middle" x="250.5" y="-203.5" font-family="Helvetica,sans-Serif" font-size="10.00">::isIDEDisk</text>
</a>
</g>
</g>
<!-- Node1&#45;&gt;Node7 -->
<g id="edge6" class="edge">
<title>Node1&#45;&gt;Node7</title>
<path fill="none" stroke="midnightblue" d="M143.22,-196.49C151.66,-197.68 160.33,-198.91 168.9,-200.12"/>
<polygon fill="midnightblue" stroke="midnightblue" points="168.5,-203.59 178.89,-201.53 169.48,-196.66 168.5,-203.59"/>
</g>
<!-- Node8 -->
<g id="node7" class="node">
<title>Node8</title>
<g id="a_node7"><a xlink:href="../../d7/d28/classleanux_1_1block_1_1MajorMinor.html#a852aa9e7ee1c107c95cd27ad47b5cf86" target="_top" xlink:title="determine if the MajorMinor represents an MMC disk.">
<polygon fill="none" stroke="black" points="179,-147.5 179,-177.5 322,-177.5 322,-147.5 179,-147.5"/>
<text text-anchor="start" x="187" y="-165.5" font-family="Helvetica,sans-Serif" font-size="10.00">leanux::block::MajorMinor</text>
<text text-anchor="middle" x="250.5" y="-154.5" font-family="Helvetica,sans-Serif" font-size="10.00">::isMMCDisk</text>
</a>
</g>
</g>
<!-- Node1&#45;&gt;Node8 -->
<g id="edge7" class="edge">
<title>Node1&#45;&gt;Node8</title>
<path fill="none" stroke="midnightblue" d="M143.22,-176.91C151.66,-175.77 160.33,-174.59 168.9,-173.43"/>
<polygon fill="midnightblue" stroke="midnightblue" points="169.46,-176.89 178.89,-172.07 168.51,-169.95 169.46,-176.89"/>
</g>
<!-- Node9 -->
<g id="node8" class="node">
<title>Node9</title>
<g id="a_node8"><a xlink:href="../../d7/d28/classleanux_1_1block_1_1MajorMinor.html#ab248c720a63908f9e3ef78ed23536de8" target="_top" xlink:title="determine if the MajorMinor represents a NVMe disk.">
<polygon fill="none" stroke="black" points="179,-98.5 179,-128.5 322,-128.5 322,-98.5 179,-98.5"/>
<text text-anchor="start" x="187" y="-116.5" font-family="Helvetica,sans-Serif" font-size="10.00">leanux::block::MajorMinor</text>
<text text-anchor="middle" x="250.5" y="-105.5" font-family="Helvetica,sans-Serif" font-size="10.00">::isNVMeDisk</text>
</a>
</g>
</g>
<!-- Node1&#45;&gt;Node9 -->
<g id="edge9" class="edge">
<title>Node1&#45;&gt;Node9</title>
<path fill="none" stroke="midnightblue" d="M104.36,-171.31C125.37,-161.5 153.6,-148.71 179,-138.5 184.4,-136.33 190.08,-134.15 195.76,-132.04"/>
<polygon fill="midnightblue" stroke="midnightblue" points="197.1,-135.27 205.29,-128.55 194.7,-128.7 197.1,-135.27"/>
</g>
<!-- Node10 -->
<g id="node9" class="node">
<title>Node10</title>
<g id="a_node9"><a xlink:href="../../d7/d28/classleanux_1_1block_1_1MajorMinor.html#a6c5b98f8ffc7b8904754ecfe33407e8c" target="_top" xlink:title="determine if the major represents a SCSI disk.">
<polygon fill="none" stroke="black" points="179,-49.5 179,-79.5 322,-79.5 322,-49.5 179,-49.5"/>
<text text-anchor="start" x="187" y="-67.5" font-family="Helvetica,sans-Serif" font-size="10.00">leanux::block::MajorMinor</text>
<text text-anchor="middle" x="250.5" y="-56.5" font-family="Helvetica,sans-Serif" font-size="10.00">::isSCSIDisk</text>
</a>
</g>
</g>
<!-- Node1&#45;&gt;Node10 -->
<g id="edge11" class="edge">
<title>Node1&#45;&gt;Node10</title>
<path fill="none" stroke="midnightblue" d="M85.5,-171.34C104.24,-150.34 140.81,-112.38 179,-89.5 182.41,-87.46 186.02,-85.54 189.72,-83.76"/>
<polygon fill="midnightblue" stroke="midnightblue" points="191.36,-86.86 199.07,-79.59 188.51,-80.47 191.36,-86.86"/>
</g>
<!-- Node11 -->
<g id="node10" class="node">
<title>Node11</title>
<g id="a_node10"><a xlink:href="../../d7/d28/classleanux_1_1block_1_1MajorMinor.html#aaa91d26165ff4b7a32cfe052e72463cc" target="_top" xlink:title="determine if the MajorMinor represents a virtio disk.">
<polygon fill="none" stroke="black" points="179,-0.5 179,-30.5 322,-30.5 322,-0.5 179,-0.5"/>
<text text-anchor="start" x="187" y="-18.5" font-family="Helvetica,sans-Serif" font-size="10.00">leanux::block::MajorMinor</text>
<text text-anchor="middle" x="250.5" y="-7.5" font-family="Helvetica,sans-Serif" font-size="10.00">::isVirtIODisk</text>
</a>
</g>
</g>
<!-- Node1&#45;&gt;Node11 -->
<g id="edge12" class="edge">
<title>Node1&#45;&gt;Node11</title>
<path fill="none" stroke="midnightblue" d="M79.56,-171.2C94.01,-141.51 129.81,-75.81 179,-39.5 180.86,-38.13 182.8,-36.83 184.81,-35.6"/>
<polygon fill="midnightblue" stroke="midnightblue" points="186.81,-38.5 193.95,-30.66 183.49,-32.34 186.81,-38.5"/>
</g>
<!-- Node3 -->
<g id="node3" class="node">
<title>Node3</title>
<g id="a_node3"><a xlink:href="../../d7/d28/classleanux_1_1block_1_1MajorMinor.html#a4d83c063088eb618533f31e2cc78b2f3" target="_top" xlink:title="(re)build the cached mapping between device names and MajorMinor numbers.">
<polygon fill="none" stroke="red" points="537,-215.5 537,-245.5 680,-245.5 680,-215.5 537,-215.5"/>
<text text-anchor="start" x="545" y="-233.5" font-family="Helvetica,sans-Serif" font-size="10.00">leanux::block::MajorMinor</text>
<text text-anchor="middle" x="608.5" y="-222.5" font-family="Helvetica,sans-Serif" font-size="10.00">::buildCache</text>
</a>
</g>
</g>
<!-- Node2&#45;&gt;Node3 -->
<g id="edge2" class="edge">
<title>Node2&#45;&gt;Node3</title>
<path fill="none" stroke="midnightblue" d="M501.22,-210.08C509.66,-211.71 518.33,-213.37 526.9,-215.02"/>
<polygon fill="midnightblue" stroke="midnightblue" points="526.41,-218.49 536.89,-216.94 527.73,-211.61 526.41,-218.49"/>
</g>
<!-- Node3&#45;&gt;Node4 -->
<g id="edge3" class="edge">
<title>Node3&#45;&gt;Node4</title>
<path fill="none" stroke="midnightblue" d="M680.22,-239.29C688.66,-240.34 697.33,-241.42 705.9,-242.48"/>
<polygon fill="midnightblue" stroke="midnightblue" points="705.54,-245.96 715.89,-243.72 706.4,-239.02 705.54,-245.96"/>
</g>
<!-- Node6&#45;&gt;Node2 -->
<g id="edge5" class="edge">
<title>Node6&#45;&gt;Node2</title>
<path fill="none" stroke="midnightblue" d="M296.33,-245.47C304.87,-242.54 313.72,-239.46 322,-236.5 340.83,-229.76 361.42,-222.1 379.44,-215.29"/>
<polygon fill="midnightblue" stroke="midnightblue" points="381.05,-218.43 389.16,-211.61 378.57,-211.88 381.05,-218.43"/>
</g>
<!-- Node8&#45;&gt;Node2 -->
<g id="edge8" class="edge">
<title>Node8&#45;&gt;Node2</title>
<path fill="none" stroke="midnightblue" d="M322.22,-176.08C330.66,-177.71 339.33,-179.37 347.9,-181.02"/>
<polygon fill="midnightblue" stroke="midnightblue" points="347.41,-184.49 357.89,-182.94 348.73,-177.61 347.41,-184.49"/>
</g>
<!-- Node9&#45;&gt;Node2 -->
<g id="edge10" class="edge">
<title>Node9&#45;&gt;Node2</title>
<path fill="none" stroke="midnightblue" d="M297.42,-128.6C305.7,-131.65 314.17,-135.01 322,-138.5 346.95,-149.64 373.98,-164.39 394.56,-176.23"/>
<polygon fill="midnightblue" stroke="midnightblue" points="392.85,-179.28 403.25,-181.27 396.36,-173.22 392.85,-179.28"/>
</g>
<!-- Node11&#45;&gt;Node2 -->
<g id="edge13" class="edge">
<title>Node11&#45;&gt;Node2</title>
<path fill="none" stroke="midnightblue" d="M307.16,-30.52C312.42,-33.08 317.48,-36.05 322,-39.5 368.72,-75.13 402.04,-137.34 417.95,-171.78"/>
<polygon fill="midnightblue" stroke="midnightblue" points="414.86,-173.44 422.15,-181.12 421.24,-170.56 414.86,-173.44"/>
</g>
</g>
</svg>
