<?xml version="1.0" encoding="UTF-8" standalone="no"?>
<!DOCTYPE svg PUBLIC "-//W3C//DTD SVG 1.1//EN"
 "http://www.w3.org/Graphics/SVG/1.1/DTD/svg11.dtd">
<!-- Generated by graphviz version 2.43.0 (0)
 -->
<!-- Title: leanux::block::MajorMinor::getStats Pages: 1 -->
<svg width="688pt" height="330pt"
 viewBox="0.00 0.00 688.00 330.18" xmlns="http://www.w3.org/2000/svg" xmlns:xlink="http://www.w3.org/1999/xlink">
<g id="graph0" class="graph" transform="scale(1 1) rotate(0) translate(4 326.18)">
<title>leanux::block::MajorMinor::getStats</title>
<!-- Node1 -->
<g id="node1" class="node">
<title>Node1</title>
<g id="a_node1"><a xlink:title="get performance statistics for the block device specified by MajorMinor.">
<polygon fill="#bfbfbf" stroke="black" points="0,-205 0,-235 143,-235 143,-205 0,-205"/>
<text text-anchor="start" x="8" y="-223" font-family="Helvetica,sans-Serif" font-size="10.00">leanux::block::MajorMinor</text>
<text text-anchor="middle" x="71.5" y="-212" font-family="Helvetica,sans-Serif" font-size="10.00">::getStats</text>
</a>
</g>
</g>
<!-- Node2 -->
<g id="node2" class="node">
<title>Node2</title>
<g id="a_node2"><a xlink:href="../../d7/d28/classleanux_1_1block_1_1MajorMinor.html#aec5c9aa75e9cb579163989cece64adc7" target="_top" xlink:title="Get SCSI iodone_cnt (number of SCSI IO completions)">
<polygon fill="none" stroke="black" points="179,-279 179,-309 322,-309 322,-279 179,-279"/>
<text text-anchor="start" x="187" y="-297" font-family="Helvetica,sans-Serif" font-size="10.00">leanux::block::MajorMinor</text>
<text text-anchor="middle" x="250.5" y="-286" font-family="Helvetica,sans-Serif" font-size="10.00">::getSCSIIODone</text>
</a>
</g>
</g>
<!-- Node1&#45;&gt;Node2 -->
<g id="edge1" class="edge">
<title>Node1&#45;&gt;Node2</title>
<path fill="none" stroke="midnightblue" d="M102.4,-235.13C123.54,-245.55 152.67,-259.38 179,-270 183.68,-271.89 188.56,-273.76 193.49,-275.57"/>
<polygon fill="midnightblue" stroke="midnightblue" points="192.37,-278.89 202.96,-278.98 194.74,-272.3 192.37,-278.89"/>
</g>
<!-- Node8 -->
<g id="node5" class="node">
<title>Node8</title>
<g id="a_node5"><a xlink:href="../../d7/d28/classleanux_1_1block_1_1MajorMinor.html#ab3f52da181b760aa9d9240c08beb8ae8" target="_top" xlink:title="Get SCSI ioerr_cnt (number of SCSI IO errors)">
<polygon fill="none" stroke="black" points="179,-230 179,-260 322,-260 322,-230 179,-230"/>
<text text-anchor="start" x="187" y="-248" font-family="Helvetica,sans-Serif" font-size="10.00">leanux::block::MajorMinor</text>
<text text-anchor="middle" x="250.5" y="-237" font-family="Helvetica,sans-Serif" font-size="10.00">::getSCSIIOError</text>
</a>
</g>
</g>
<!-- Node1&#45;&gt;Node8 -->
<g id="edge4" class="edge">
<title>Node1&#45;&gt;Node8</title>
<path fill="none" stroke="midnightblue" d="M143.22,-229.99C151.66,-231.18 160.33,-232.41 168.9,-233.62"/>
<polygon fill="midnightblue" stroke="midnightblue" points="168.5,-237.09 178.89,-235.03 169.48,-230.16 168.5,-237.09"/>
</g>
<!-- Node9 -->
<g id="node6" class="node">
<title>Node9</title>
<g id="a_node6"><a xlink:href="../../d7/d28/classleanux_1_1block_1_1MajorMinor.html#a0c501b00fcddef5167f8f4e4f98e3bdb" target="_top" xlink:title="Get SCSI iorequest_cnt (number of SCSI IO requests)">
<polygon fill="none" stroke="black" points="179,-181 179,-211 322,-211 322,-181 179,-181"/>
<text text-anchor="start" x="187" y="-199" font-family="Helvetica,sans-Serif" font-size="10.00">leanux::block::MajorMinor</text>
<text text-anchor="middle" x="250.5" y="-188" font-family="Helvetica,sans-Serif" font-size="10.00">::getSCSIIORequest</text>
</a>
</g>
</g>
<!-- Node1&#45;&gt;Node9 -->
<g id="edge7" class="edge">
<title>Node1&#45;&gt;Node9</title>
<path fill="none" stroke="midnightblue" d="M143.22,-210.41C151.66,-209.27 160.33,-208.09 168.9,-206.93"/>
<polygon fill="midnightblue" stroke="midnightblue" points="169.46,-210.39 178.89,-205.57 168.51,-203.45 169.46,-210.39"/>
</g>
<!-- Node10 -->
<g id="node7" class="node">
<title>Node10</title>
<g id="a_node7"><a xlink:href="../../d7/d28/classleanux_1_1block_1_1MajorMinor.html#a742f510de3aea2ec0a1eb112e3ca3c1e" target="_top" xlink:title="return the full device path as it appears under /sys/devices/block">
<polygon fill="none" stroke="black" points="179,-88 179,-118 322,-118 322,-88 179,-88"/>
<text text-anchor="start" x="187" y="-106" font-family="Helvetica,sans-Serif" font-size="10.00">leanux::block::MajorMinor</text>
<text text-anchor="middle" x="250.5" y="-95" font-family="Helvetica,sans-Serif" font-size="10.00">::getSysPath</text>
</a>
</g>
</g>
<!-- Node1&#45;&gt;Node10 -->
<g id="edge10" class="edge">
<title>Node1&#45;&gt;Node10</title>
<path fill="none" stroke="midnightblue" d="M95.28,-204.94C126.52,-184.29 182.81,-147.09 218.05,-123.79"/>
<polygon fill="midnightblue" stroke="midnightblue" points="220.12,-126.62 226.53,-118.18 216.26,-120.78 220.12,-126.62"/>
</g>
<!-- Node3 -->
<g id="node3" class="node">
<title>Node3</title>
<g id="a_node3"><a xlink:href="../../d8/db1/namespaceleanux_1_1util.html#a7efa8c5cecc9bb8beada58ee60fa71c4" target="_top" xlink:title="read the first data in the file as a hexadecimal string representation of a signed long.">
<polygon fill="none" stroke="black" points="361,-263 361,-293 498,-293 498,-263 361,-263"/>
<text text-anchor="start" x="369" y="-281" font-family="Helvetica,sans-Serif" font-size="10.00">leanux::util::fileReadHex</text>
<text text-anchor="middle" x="429.5" y="-270" font-family="Helvetica,sans-Serif" font-size="10.00">String</text>
</a>
</g>
</g>
<!-- Node2&#45;&gt;Node3 -->
<g id="edge2" class="edge">
<title>Node2&#45;&gt;Node3</title>
<path fill="none" stroke="midnightblue" d="M322.22,-287.61C331.55,-286.76 341.16,-285.89 350.61,-285.04"/>
<polygon fill="midnightblue" stroke="midnightblue" points="351.13,-288.51 360.77,-284.12 350.5,-281.54 351.13,-288.51"/>
</g>
<!-- Node4 -->
<g id="node4" class="node">
<title>Node4</title>
<g id="a_node4"><a xlink:href="../../d7/d28/classleanux_1_1block_1_1MajorMinor.html#adc3f437e329318ee21bddbbebaeb740e" target="_top" xlink:title="Get the DeviceName for the MajorMinor.">
<polygon fill="none" stroke="red" points="537,-159 537,-189 680,-189 680,-159 537,-159"/>
<text text-anchor="start" x="545" y="-177" font-family="Helvetica,sans-Serif" font-size="10.00">leanux::block::MajorMinor</text>
<text text-anchor="middle" x="608.5" y="-166" font-family="Helvetica,sans-Serif" font-size="10.00">::getNameByMajorMinor</text>
</a>
</g>
</g>
<!-- Node2&#45;&gt;Node4 -->
<g id="edge3" class="edge">
<title>Node2&#45;&gt;Node4</title>
<path fill="none" stroke="midnightblue" d="M303,-309.09C355.46,-321.52 437.87,-332.74 501,-303 546.75,-281.44 579.54,-229.52 595.83,-198.52"/>
<polygon fill="midnightblue" stroke="midnightblue" points="599.13,-199.75 600.54,-189.25 592.89,-196.58 599.13,-199.75"/>
</g>
<!-- Node8&#45;&gt;Node3 -->
<g id="edge5" class="edge">
<title>Node8&#45;&gt;Node3</title>
<path fill="none" stroke="midnightblue" d="M322.22,-258.18C331.65,-259.94 341.37,-261.75 350.91,-263.53"/>
<polygon fill="midnightblue" stroke="midnightblue" points="350.3,-266.98 360.77,-265.37 351.58,-260.1 350.3,-266.98"/>
</g>
<!-- Node8&#45;&gt;Node4 -->
<g id="edge6" class="edge">
<title>Node8&#45;&gt;Node4</title>
<path fill="none" stroke="midnightblue" d="M322.12,-232.92C372.18,-224.12 440.86,-211.59 501,-199 512.21,-196.65 524.06,-194.02 535.61,-191.37"/>
<polygon fill="midnightblue" stroke="midnightblue" points="536.71,-194.71 545.67,-189.05 535.13,-187.89 536.71,-194.71"/>
</g>
<!-- Node9&#45;&gt;Node3 -->
<g id="edge8" class="edge">
<title>Node9&#45;&gt;Node3</title>
<path fill="none" stroke="midnightblue" d="M297.03,-211.01C305.42,-214.09 314.04,-217.48 322,-221 346.62,-231.88 373.32,-246.18 393.83,-257.73"/>
<polygon fill="midnightblue" stroke="midnightblue" points="392.36,-260.92 402.79,-262.82 395.82,-254.84 392.36,-260.92"/>
</g>
<!-- Node9&#45;&gt;Node4 -->
<g id="edge9" class="edge">
<title>Node9&#45;&gt;Node4</title>
<path fill="none" stroke="midnightblue" d="M322.26,-191.63C381.23,-187.98 465.23,-182.79 526.81,-178.99"/>
<polygon fill="midnightblue" stroke="midnightblue" points="527.11,-182.47 536.87,-178.36 526.68,-175.49 527.11,-182.47"/>
</g>
<!-- Node11 -->
<g id="node8" class="node">
<title>Node11</title>
<g id="a_node8"><a xlink:href="../../d7/d28/classleanux_1_1block_1_1MajorMinor.html#a5771b2baf04dd79e61c5bcd3f4ec532c" target="_top" xlink:title="Derive the MajorMinor of the whole disk holding a partition.">
<polygon fill="none" stroke="red" points="358,-137 358,-167 501,-167 501,-137 358,-137"/>
<text text-anchor="start" x="366" y="-155" font-family="Helvetica,sans-Serif" font-size="10.00">leanux::block::MajorMinor</text>
<text text-anchor="middle" x="429.5" y="-144" font-family="Helvetica,sans-Serif" font-size="10.00">::deriveWholeDisk</text>
</a>
</g>
</g>
<!-- Node10&#45;&gt;Node11 -->
<g id="edge11" class="edge">
<title>Node10&#45;&gt;Node11</title>
<path fill="none" stroke="midnightblue" d="M306.05,-118.1C324.47,-123.2 345.21,-128.94 364.31,-134.23"/>
<polygon fill="midnightblue" stroke="midnightblue" points="363.56,-137.65 374.13,-136.95 365.43,-130.91 363.56,-137.65"/>
</g>
<!-- Node19 -->
<g id="node9" class="node">
<title>Node19</title>
<g id="a_node9"><a xlink:href="../../d7/d28/classleanux_1_1block_1_1MajorMinor.html#a08c4dd48259318cfd77067e866e05e84" target="_top" xlink:title="get the device name for this MajorMinor.">
<polygon fill="none" stroke="black" points="358,-88 358,-118 501,-118 501,-88 358,-88"/>
<text text-anchor="start" x="366" y="-106" font-family="Helvetica,sans-Serif" font-size="10.00">leanux::block::MajorMinor</text>
<text text-anchor="middle" x="429.5" y="-95" font-family="Helvetica,sans-Serif" font-size="10.00">::getName</text>
</a>
</g>
</g>
<!-- Node10&#45;&gt;Node19 -->
<g id="edge13" class="edge">
<title>Node10&#45;&gt;Node19</title>
<path fill="none" stroke="midnightblue" d="M322.22,-103C330.57,-103 339.14,-103 347.62,-103"/>
<polygon fill="midnightblue" stroke="midnightblue" points="347.89,-106.5 357.89,-103 347.89,-99.5 347.89,-106.5"/>
</g>
<!-- Node20 -->
<g id="node10" class="node">
<title>Node20</title>
<g id="a_node10"><a xlink:href="../../d7/d28/classleanux_1_1block_1_1MajorMinor.html#ad5136fe7853cb6f2ca04eadb465976da" target="_top" xlink:title=" ">
<polygon fill="none" stroke="red" points="358,-39 358,-69 501,-69 501,-39 358,-39"/>
<text text-anchor="start" x="366" y="-57" font-family="Helvetica,sans-Serif" font-size="10.00">leanux::block::MajorMinor</text>
<text text-anchor="middle" x="429.5" y="-46" font-family="Helvetica,sans-Serif" font-size="10.00">::isPartition</text>
</a>
</g>
</g>
<!-- Node10&#45;&gt;Node20 -->
<g id="edge15" class="edge">
<title>Node10&#45;&gt;Node20</title>
<path fill="none" stroke="midnightblue" d="M306.05,-87.9C324.47,-82.8 345.21,-77.06 364.31,-71.77"/>
<polygon fill="midnightblue" stroke="midnightblue" points="365.43,-75.09 374.13,-69.05 363.56,-68.35 365.43,-75.09"/>
</g>
<!-- Node7 -->
<g id="node11" class="node">
<title>Node7</title>
<g id="a_node11"><a xlink:href="../../d8/db1/namespaceleanux_1_1util.html#a9ae898fe02934e4905ef4665c2871158" target="_top" xlink:title="Convert a path on a filesystem to the realpath if the path is a link.">
<polygon fill="none" stroke="black" points="371,-0.5 371,-19.5 488,-19.5 488,-0.5 371,-0.5"/>
<text text-anchor="middle" x="429.5" y="-7.5" font-family="Helvetica,sans-Serif" font-size="10.00">leanux::util::realPath</text>
</a>
</g>
</g>
<!-- Node10&#45;&gt;Node7 -->
<g id="edge17" class="edge">
<title>Node10&#45;&gt;Node7</title>
<path fill="none" stroke="midnightblue" d="M269.61,-87.84C289.95,-71.49 324.52,-45.71 358,-30 363.82,-27.27 370.09,-24.84 376.4,-22.69"/>
<polygon fill="midnightblue" stroke="midnightblue" points="377.83,-25.91 386.31,-19.56 375.72,-19.24 377.83,-25.91"/>
</g>
<!-- Node11&#45;&gt;Node4 -->
<g id="edge12" class="edge">
<title>Node11&#45;&gt;Node4</title>
<path fill="none" stroke="midnightblue" d="M501.22,-160.79C509.66,-161.84 518.33,-162.92 526.9,-163.98"/>
<polygon fill="midnightblue" stroke="midnightblue" points="526.54,-167.46 536.89,-165.22 527.4,-160.52 526.54,-167.46"/>
</g>
<!-- Node19&#45;&gt;Node4 -->
<g id="edge14" class="edge">
<title>Node19&#45;&gt;Node4</title>
<path fill="none" stroke="midnightblue" d="M474.29,-118.02C483.17,-121.21 492.42,-124.63 501,-128 522.27,-136.35 545.6,-146.33 564.99,-154.86"/>
<polygon fill="midnightblue" stroke="midnightblue" points="563.6,-158.08 574.16,-158.92 566.43,-151.67 563.6,-158.08"/>
</g>
<!-- Node20&#45;&gt;Node4 -->
<g id="edge16" class="edge">
<title>Node20&#45;&gt;Node4</title>
<path fill="none" stroke="midnightblue" d="M480.9,-69.15C487.85,-72.01 494.74,-75.29 501,-79 534.46,-98.81 566.92,-130.04 587.03,-151.24"/>
<polygon fill="midnightblue" stroke="midnightblue" points="584.73,-153.9 594.11,-158.83 589.85,-149.13 584.73,-153.9"/>
</g>
</g>
</svg>
