<?xml version="1.0" encoding="UTF-8" standalone="no"?>
<!DOCTYPE svg PUBLIC "-//W3C//DTD SVG 1.1//EN"
 "http://www.w3.org/Graphics/SVG/1.1/DTD/svg11.dtd">
<!-- Generated by graphviz version 2.43.0 (0)
 -->
<!-- Title: leanux::block::MajorMinor::getModel Pages: 1 -->
<svg width="537pt" height="137pt"
 viewBox="0.00 0.00 537.00 137.00" xmlns="http://www.w3.org/2000/svg" xmlns:xlink="http://www.w3.org/1999/xlink">
<g id="graph0" class="graph" transform="scale(1 1) rotate(0) translate(4 133)">
<title>leanux::block::MajorMinor::getModel</title>
<!-- Node1 -->
<g id="node1" class="node">
<title>Node1</title>
<g id="a_node1"><a xlink:title="Get the model for the device.">
<polygon fill="#bfbfbf" stroke="black" points="386,-49.5 386,-79.5 529,-79.5 529,-49.5 386,-49.5"/>
<text text-anchor="start" x="394" y="-67.5" font-family="Helvetica,sans-Serif" font-size="10.00">leanux::block::MajorMinor</text>
<text text-anchor="middle" x="457.5" y="-56.5" font-family="Helvetica,sans-Serif" font-size="10.00">::getModel</text>
</a>
</g>
</g>
<!-- Node2 -->
<g id="node2" class="node">
<title>Node2</title>
<g id="a_node2"><a xlink:href="../../d2/d31/classleanux_1_1sysdevice_1_1BlockDevice.html#ac4b9e0008260b83d9c20f8cad7a43ac6" target="_top" xlink:title="Get a human readable description of this SysDevice.">
<polygon fill="none" stroke="black" points="190,-98.5 190,-128.5 345,-128.5 345,-98.5 190,-98.5"/>
<text text-anchor="start" x="198" y="-116.5" font-family="Helvetica,sans-Serif" font-size="10.00">leanux::sysdevice::</text>
<text text-anchor="middle" x="267.5" y="-105.5" font-family="Helvetica,sans-Serif" font-size="10.00">BlockDevice::getDescription</text>
</a>
</g>
</g>
<!-- Node1&#45;&gt;Node2 -->
<g id="edge1" class="edge">
<title>Node1&#45;&gt;Node2</title>
<path fill="none" stroke="midnightblue" d="M388.89,-82.12C368.32,-87.48 345.92,-93.32 326.07,-98.49"/>
<polygon fill="midnightblue" stroke="midnightblue" points="390.02,-85.44 398.82,-79.53 388.26,-78.67 390.02,-85.44"/>
</g>
<!-- Node5 -->
<g id="node4" class="node">
<title>Node5</title>
<g id="a_node4"><a xlink:href="../../d2/d31/classleanux_1_1sysdevice_1_1BlockDevice.html#a575120cf630a3eb5e31b493a9260786f" target="_top" xlink:title=" ">
<polygon fill="none" stroke="black" points="185,-49.5 185,-79.5 350,-79.5 350,-49.5 185,-49.5"/>
<text text-anchor="start" x="193" y="-67.5" font-family="Helvetica,sans-Serif" font-size="10.00">leanux::sysdevice::</text>
<text text-anchor="middle" x="267.5" y="-56.5" font-family="Helvetica,sans-Serif" font-size="10.00">BlockDevice::getDisplayName</text>
</a>
</g>
</g>
<!-- Node1&#45;&gt;Node5 -->
<g id="edge3" class="edge">
<title>Node1&#45;&gt;Node5</title>
<path fill="none" stroke="midnightblue" d="M375.73,-64.5C367.27,-64.5 358.66,-64.5 350.19,-64.5"/>
<polygon fill="midnightblue" stroke="midnightblue" points="375.96,-68 385.96,-64.5 375.96,-61 375.96,-68"/>
</g>
<!-- Node6 -->
<g id="node5" class="node">
<title>Node6</title>
<g id="a_node5"><a xlink:href="../../d9/d1f/namespaceleanux_1_1tools_1_1lsys.html#a4a56050ff78d8c77b6a699ff6d5aea50" target="_top" xlink:title="get named field attributes for the SysDevice.">
<polygon fill="none" stroke="black" points="215,-0.5 215,-30.5 320,-30.5 320,-0.5 215,-0.5"/>
<text text-anchor="start" x="223" y="-18.5" font-family="Helvetica,sans-Serif" font-size="10.00">leanux::tools::lsys</text>
<text text-anchor="middle" x="267.5" y="-7.5" font-family="Helvetica,sans-Serif" font-size="10.00">::getLeafColStr</text>
</a>
</g>
</g>
<!-- Node1&#45;&gt;Node6 -->
<g id="edge4" class="edge">
<title>Node1&#45;&gt;Node6</title>
<path fill="none" stroke="midnightblue" d="M388.91,-46.88C366.21,-40.97 341.27,-34.47 320.01,-28.93"/>
<polygon fill="midnightblue" stroke="midnightblue" points="388.26,-50.33 398.82,-49.47 390.02,-43.56 388.26,-50.33"/>
</g>
<!-- Node3 -->
<g id="node3" class="node">
<title>Node3</title>
<g id="a_node3"><a xlink:href="../../dd/df8/classleanux_1_1sysdevice_1_1SCSIDevice.html#a7cc63ea1acf3422fb2f3d61a88e59bec" target="_top" xlink:title="Get a human readable description of this SysDevice.">
<polygon fill="none" stroke="red" points="0,-98.5 0,-128.5 149,-128.5 149,-98.5 0,-98.5"/>
<text text-anchor="start" x="8" y="-116.5" font-family="Helvetica,sans-Serif" font-size="10.00">leanux::sysdevice::</text>
<text text-anchor="middle" x="74.5" y="-105.5" font-family="Helvetica,sans-Serif" font-size="10.00">SCSIDevice::getDescription</text>
</a>
</g>
</g>
<!-- Node2&#45;&gt;Node3 -->
<g id="edge2" class="edge">
<title>Node2&#45;&gt;Node3</title>
<path fill="none" stroke="midnightblue" d="M179.79,-113.5C169.61,-113.5 159.29,-113.5 149.31,-113.5"/>
<polygon fill="midnightblue" stroke="midnightblue" points="179.91,-117 189.91,-113.5 179.91,-110 179.91,-117"/>
</g>
<!-- Node7 -->
<g id="node6" class="node">
<title>Node7</title>
<g id="a_node6"><a xlink:href="../../d9/d1f/namespaceleanux_1_1tools_1_1lsys.html#ad858cdc5736e1be415f25fdaec024b58" target="_top" xlink:title="list devices, filtered if opt_t is set.">
<polygon fill="none" stroke="red" points="22,-0.5 22,-30.5 127,-30.5 127,-0.5 22,-0.5"/>
<text text-anchor="start" x="30" y="-18.5" font-family="Helvetica,sans-Serif" font-size="10.00">leanux::tools::lsys</text>
<text text-anchor="middle" x="74.5" y="-7.5" font-family="Helvetica,sans-Serif" font-size="10.00">::listDevices</text>
</a>
</g>
</g>
<!-- Node6&#45;&gt;Node7 -->
<g id="edge5" class="edge">
<title>Node6&#45;&gt;Node7</title>
<path fill="none" stroke="midnightblue" d="M204.69,-15.5C179.68,-15.5 151.12,-15.5 127.23,-15.5"/>
<polygon fill="midnightblue" stroke="midnightblue" points="204.81,-19 214.81,-15.5 204.81,-12 204.81,-19"/>
</g>
</g>
</svg>
