<?xml version="1.0" encoding="UTF-8" standalone="no"?>
<!DOCTYPE svg PUBLIC "-//W3C//DTD SVG 1.1//EN"
 "http://www.w3.org/Graphics/SVG/1.1/DTD/svg11.dtd">
<!-- Generated by graphviz version 2.43.0 (0)
 -->
<!-- Title: leanux::block::MajorMinor::getMajorMinorByName Pages: 1 -->
<svg width="828pt" height="568pt"
 viewBox="0.00 0.00 828.00 567.60" xmlns="http://www.w3.org/2000/svg" xmlns:xlink="http://www.w3.org/1999/xlink">
<g id="graph0" class="graph" transform="scale(1 1) rotate(0) translate(4 563.6)">
<title>leanux::block::MajorMinor::getMajorMinorByName</title>
<!-- Node1 -->
<g id="node1" class="node">
<title>Node1</title>
<g id="a_node1"><a xlink:title="Get the MajorMinor for the device name.">
<polygon fill="#bfbfbf" stroke="black" points="677,-269.1 677,-299.1 820,-299.1 820,-269.1 677,-269.1"/>
<text text-anchor="start" x="685" y="-287.1" font-family="Helvetica,sans-Serif" font-size="10.00">leanux::block::MajorMinor</text>
<text text-anchor="middle" x="748.5" y="-276.1" font-family="Helvetica,sans-Serif" font-size="10.00">::getMajorMinorByName</text>
</a>
</g>
</g>
<!-- Node2 -->
<g id="node2" class="node">
<title>Node2</title>
<g id="a_node2"><a xlink:href="../../d6/d19/classleanux_1_1sysdevice_1_1BlockPartition.html#a66d61b5a78be267835e09b8d9e4c405f" target="_top" xlink:title="Return true if the SysDevice recognizes itself in the trailing part of path.">
<polygon fill="none" stroke="black" points="508.5,-516.1 508.5,-546.1 630.5,-546.1 630.5,-516.1 508.5,-516.1"/>
<text text-anchor="start" x="516.5" y="-534.1" font-family="Helvetica,sans-Serif" font-size="10.00">leanux::sysdevice::</text>
<text text-anchor="middle" x="569.5" y="-523.1" font-family="Helvetica,sans-Serif" font-size="10.00">BlockPartition::accept</text>
</a>
</g>
</g>
<!-- Node1&#45;&gt;Node2 -->
<g id="edge1" class="edge">
<title>Node1&#45;&gt;Node2</title>
<path fill="none" stroke="midnightblue" d="M737.88,-308.61C721.88,-347.33 686.95,-423.71 641,-477.1 627.82,-492.4 609.67,-506.18 595.09,-515.99"/>
<polygon fill="midnightblue" stroke="midnightblue" points="741.19,-309.76 741.71,-299.18 734.71,-307.12 741.19,-309.76"/>
</g>
<!-- Node17 -->
<g id="node4" class="node">
<title>Node17</title>
<g id="a_node4"><a xlink:href="../../d7/d28/classleanux_1_1block_1_1MajorMinor.html#a5771b2baf04dd79e61c5bcd3f4ec532c" target="_top" xlink:title="Derive the MajorMinor of the whole disk holding a partition.">
<polygon fill="none" stroke="black" points="498,-247.1 498,-277.1 641,-277.1 641,-247.1 498,-247.1"/>
<text text-anchor="start" x="506" y="-265.1" font-family="Helvetica,sans-Serif" font-size="10.00">leanux::block::MajorMinor</text>
<text text-anchor="middle" x="569.5" y="-254.1" font-family="Helvetica,sans-Serif" font-size="10.00">::deriveWholeDisk</text>
</a>
</g>
</g>
<!-- Node1&#45;&gt;Node17 -->
<g id="edge3" class="edge">
<title>Node1&#45;&gt;Node17</title>
<path fill="none" stroke="midnightblue" d="M666.79,-274.06C658.22,-273 649.55,-271.92 641.11,-270.87"/>
<polygon fill="midnightblue" stroke="midnightblue" points="666.43,-277.55 676.78,-275.31 667.29,-270.6 666.43,-277.55"/>
</g>
<!-- Node19 -->
<g id="node8" class="node">
<title>Node19</title>
<g id="a_node8"><a xlink:href="../../d7/d28/classleanux_1_1block_1_1MajorMinor.html#a6e82e367d0d6d6038391ac28c2e510c5" target="_top" xlink:title="return the VG name the PV belongs to, or empty if the device is not a LVM PV.">
<polygon fill="none" stroke="red" points="140,-74.1 140,-104.1 283,-104.1 283,-74.1 140,-74.1"/>
<text text-anchor="start" x="148" y="-92.1" font-family="Helvetica,sans-Serif" font-size="10.00">leanux::block::MajorMinor</text>
<text text-anchor="middle" x="211.5" y="-81.1" font-family="Helvetica,sans-Serif" font-size="10.00">::getLVMPV2VG</text>
</a>
</g>
</g>
<!-- Node1&#45;&gt;Node19 -->
<g id="edge19" class="edge">
<title>Node1&#45;&gt;Node19</title>
<path fill="none" stroke="midnightblue" d="M740.81,-259.15C728.33,-217.52 697.53,-134.03 641,-89.1 527.63,1.03 460.35,-7.57 319,-39.1 289.1,-45.77 257.67,-61.79 236.78,-73.91"/>
<polygon fill="midnightblue" stroke="midnightblue" points="737.52,-260.38 743.65,-269.02 744.24,-258.44 737.52,-260.38"/>
</g>
<!-- Node44 -->
<g id="node15" class="node">
<title>Node44</title>
<g id="a_node15"><a xlink:href="../../d5/d1b/namespaceleanux_1_1tools_1_1lblk.html#a514a93d2172ba20b92f77ba1062d822c" target="_top" xlink:title="Write the tree of slaves beneath and including mm, append to tab, starting with level.">
<polygon fill="none" stroke="red" points="338.5,-431.1 338.5,-461.1 442.5,-461.1 442.5,-431.1 338.5,-431.1"/>
<text text-anchor="start" x="346.5" y="-449.1" font-family="Helvetica,sans-Serif" font-size="10.00">leanux::tools::lblk</text>
<text text-anchor="middle" x="390.5" y="-438.1" font-family="Helvetica,sans-Serif" font-size="10.00">::printSlaveTree</text>
</a>
</g>
</g>
<!-- Node1&#45;&gt;Node44 -->
<g id="edge25" class="edge">
<title>Node1&#45;&gt;Node44</title>
<path fill="none" stroke="midnightblue" d="M710.09,-304C656.16,-332.27 553.06,-384.75 462,-422.1 454.46,-425.19 446.37,-428.21 438.44,-431.01"/>
<polygon fill="midnightblue" stroke="midnightblue" points="712.03,-306.93 719.25,-299.18 708.77,-300.74 712.03,-306.93"/>
</g>
<!-- Node47 -->
<g id="node17" class="node">
<title>Node47</title>
<g id="a_node17"><a xlink:href="../../d5/d1b/namespaceleanux_1_1tools_1_1lblk.html#a2c15ffbda4dc6a336718fafe080e56fc" target="_top" xlink:title="do smart things with user input for device name so that we are not overly picky in user specified dev...">
<polygon fill="none" stroke="black" points="517.5,-98.1 517.5,-128.1 621.5,-128.1 621.5,-98.1 517.5,-98.1"/>
<text text-anchor="start" x="525.5" y="-116.1" font-family="Helvetica,sans-Serif" font-size="10.00">leanux::tools::lblk</text>
<text text-anchor="middle" x="569.5" y="-105.1" font-family="Helvetica,sans-Serif" font-size="10.00">::parseDeviceArg</text>
</a>
</g>
</g>
<!-- Node1&#45;&gt;Node47 -->
<g id="edge20" class="edge">
<title>Node1&#45;&gt;Node47</title>
<path fill="none" stroke="midnightblue" d="M724.53,-261.91C687.98,-226.59 617.5,-158.5 586.17,-128.24"/>
<polygon fill="midnightblue" stroke="midnightblue" points="722.17,-264.49 731.79,-268.92 727.03,-259.46 722.17,-264.49"/>
</g>
<!-- Node48 -->
<g id="node18" class="node">
<title>Node48</title>
<g id="a_node18"><a xlink:href="../../d5/d1b/namespaceleanux_1_1tools_1_1lblk.html#a0ce6fe01f37dc9d73d699030825432be" target="_top" xlink:title="Write the tree of holders above and including mm, append to tab, starting with level.">
<polygon fill="none" stroke="black" points="338.5,-480.1 338.5,-510.1 442.5,-510.1 442.5,-480.1 338.5,-480.1"/>
<text text-anchor="start" x="346.5" y="-498.1" font-family="Helvetica,sans-Serif" font-size="10.00">leanux::tools::lblk</text>
<text text-anchor="middle" x="390.5" y="-487.1" font-family="Helvetica,sans-Serif" font-size="10.00">::printHolderTree</text>
</a>
</g>
</g>
<!-- Node1&#45;&gt;Node48 -->
<g id="edge22" class="edge">
<title>Node1&#45;&gt;Node48</title>
<path fill="none" stroke="midnightblue" d="M727.81,-306.8C707.66,-329.06 674.6,-362.93 641,-386.1 577.18,-430.1 492.73,-462.45 440.28,-480.03"/>
<polygon fill="midnightblue" stroke="midnightblue" points="730.58,-308.96 734.63,-299.17 725.36,-304.29 730.58,-308.96"/>
</g>
<!-- Node3 -->
<g id="node3" class="node">
<title>Node3</title>
<g id="a_node3"><a xlink:href="../../d3/d83/namespaceleanux_1_1sysdevice.html#aa76385cfb36c36d3f55f25dfacc1346b" target="_top" xlink:title="Return the leaf SysDevice detected in path.">
<polygon fill="none" stroke="red" points="335.5,-529.1 335.5,-559.1 445.5,-559.1 445.5,-529.1 335.5,-529.1"/>
<text text-anchor="start" x="343.5" y="-547.1" font-family="Helvetica,sans-Serif" font-size="10.00">leanux::sysdevice::</text>
<text text-anchor="middle" x="390.5" y="-536.1" font-family="Helvetica,sans-Serif" font-size="10.00">leafDetect</text>
</a>
</g>
</g>
<!-- Node2&#45;&gt;Node3 -->
<g id="edge2" class="edge">
<title>Node2&#45;&gt;Node3</title>
<path fill="none" stroke="midnightblue" d="M497.97,-536.28C480.57,-537.55 462.2,-538.9 445.71,-540.11"/>
<polygon fill="midnightblue" stroke="midnightblue" points="498.36,-539.76 508.08,-535.53 497.85,-532.78 498.36,-539.76"/>
</g>
<!-- Node9 -->
<g id="node5" class="node">
<title>Node9</title>
<g id="a_node5"><a xlink:href="../../d5/d1b/namespaceleanux_1_1tools_1_1lblk.html#ade16c362a9900ba9267433bf57da42ce" target="_top" xlink:title="Write disk details.">
<polygon fill="none" stroke="black" points="159.5,-186.1 159.5,-216.1 263.5,-216.1 263.5,-186.1 159.5,-186.1"/>
<text text-anchor="start" x="167.5" y="-204.1" font-family="Helvetica,sans-Serif" font-size="10.00">leanux::tools::lblk</text>
<text text-anchor="middle" x="211.5" y="-193.1" font-family="Helvetica,sans-Serif" font-size="10.00">::detailDisk</text>
</a>
</g>
</g>
<!-- Node17&#45;&gt;Node9 -->
<g id="edge4" class="edge">
<title>Node17&#45;&gt;Node9</title>
<path fill="none" stroke="midnightblue" d="M548.75,-239.28C529.15,-218.54 497.04,-189.37 462,-177.1 393,-152.94 307.11,-170.82 256.22,-185.97"/>
<polygon fill="midnightblue" stroke="midnightblue" points="546.28,-241.77 555.62,-246.76 551.43,-237.03 546.28,-241.77"/>
</g>
<!-- Node18 -->
<g id="node7" class="node">
<title>Node18</title>
<g id="a_node7"><a xlink:href="../../d7/d28/classleanux_1_1block_1_1MajorMinor.html#af09033a9db9d908d1132bbab667a0801" target="_top" xlink:title="Get a list of devices holding (using) the device m.">
<polygon fill="none" stroke="black" points="319,-98.1 319,-128.1 462,-128.1 462,-98.1 319,-98.1"/>
<text text-anchor="start" x="327" y="-116.1" font-family="Helvetica,sans-Serif" font-size="10.00">leanux::block::MajorMinor</text>
<text text-anchor="middle" x="390.5" y="-105.1" font-family="Helvetica,sans-Serif" font-size="10.00">::getHolders</text>
</a>
</g>
</g>
<!-- Node17&#45;&gt;Node18 -->
<g id="edge6" class="edge">
<title>Node17&#45;&gt;Node18</title>
<path fill="none" stroke="midnightblue" d="M552.52,-238.78C533.54,-212.54 499.67,-170.07 462,-143.1 453.89,-137.29 444.48,-132.31 435.23,-128.17"/>
<polygon fill="midnightblue" stroke="midnightblue" points="549.72,-240.88 558.37,-247 555.43,-236.83 549.72,-240.88"/>
</g>
<!-- Node22 -->
<g id="node9" class="node">
<title>Node22</title>
<g id="a_node9"><a xlink:href="../../d7/d28/classleanux_1_1block_1_1MajorMinor.html#aefbe4f5de2bcdf31cfb0ece97e8e12e7" target="_top" xlink:title="get the IO scheduler (elevator) configured for the device.">
<polygon fill="none" stroke="red" points="319,-49.1 319,-79.1 462,-79.1 462,-49.1 319,-49.1"/>
<text text-anchor="start" x="327" y="-67.1" font-family="Helvetica,sans-Serif" font-size="10.00">leanux::block::MajorMinor</text>
<text text-anchor="middle" x="390.5" y="-56.1" font-family="Helvetica,sans-Serif" font-size="10.00">::getIOScheduler</text>
</a>
</g>
</g>
<!-- Node17&#45;&gt;Node22 -->
<g id="edge8" class="edge">
<title>Node17&#45;&gt;Node22</title>
<path fill="none" stroke="midnightblue" d="M555.02,-238.27C529.45,-193.39 475.28,-99.83 462,-89.1 457.25,-85.26 451.87,-81.99 446.25,-79.2"/>
<polygon fill="midnightblue" stroke="midnightblue" points="552.03,-240.09 560.01,-247.06 558.11,-236.64 552.03,-240.09"/>
</g>
<!-- Node25 -->
<g id="node10" class="node">
<title>Node25</title>
<g id="a_node10"><a xlink:href="../../d7/d28/classleanux_1_1block_1_1MajorMinor.html#a80d3a92692140016ab3973ace30d65c2" target="_top" xlink:title="get the read&#45;ahead size for the device">
<polygon fill="none" stroke="red" points="319,-382.1 319,-412.1 462,-412.1 462,-382.1 319,-382.1"/>
<text text-anchor="start" x="327" y="-400.1" font-family="Helvetica,sans-Serif" font-size="10.00">leanux::block::MajorMinor</text>
<text text-anchor="middle" x="390.5" y="-389.1" font-family="Helvetica,sans-Serif" font-size="10.00">::getReadAhead</text>
</a>
</g>
</g>
<!-- Node17&#45;&gt;Node25 -->
<g id="edge9" class="edge">
<title>Node17&#45;&gt;Node25</title>
<path fill="none" stroke="midnightblue" d="M551.64,-285.41C532.5,-310.35 499.08,-349.48 462,-373.1 456.66,-376.5 450.78,-379.48 444.76,-382.07"/>
<polygon fill="midnightblue" stroke="midnightblue" points="554.58,-287.33 557.8,-277.23 548.99,-283.12 554.58,-287.33"/>
</g>
<!-- Node26 -->
<g id="node11" class="node">
<title>Node26</title>
<g id="a_node11"><a xlink:href="../../d7/d28/classleanux_1_1block_1_1MajorMinor.html#ae8569c67c7ab725af5c89e8e01011a7b" target="_top" xlink:title="Chech if a disk is mechanical or solid state.">
<polygon fill="none" stroke="red" points="319,-333.1 319,-363.1 462,-363.1 462,-333.1 319,-333.1"/>
<text text-anchor="start" x="327" y="-351.1" font-family="Helvetica,sans-Serif" font-size="10.00">leanux::block::MajorMinor</text>
<text text-anchor="middle" x="390.5" y="-340.1" font-family="Helvetica,sans-Serif" font-size="10.00">::getRotational</text>
</a>
</g>
</g>
<!-- Node17&#45;&gt;Node26 -->
<g id="edge10" class="edge">
<title>Node17&#45;&gt;Node26</title>
<path fill="none" stroke="midnightblue" d="M536.83,-282.77C516.11,-295.74 488.12,-312.19 462,-324.1 454.94,-327.31 447.32,-330.34 439.78,-333.09"/>
<polygon fill="midnightblue" stroke="midnightblue" points="538.95,-285.58 545.53,-277.27 535.21,-279.66 538.95,-285.58"/>
</g>
<!-- Node28 -->
<g id="node12" class="node">
<title>Node28</title>
<g id="a_node12"><a xlink:href="../../d7/d28/classleanux_1_1block_1_1MajorMinor.html#a89962016f65109842c3941fa188eae95" target="_top" xlink:title="get the device sector size.">
<polygon fill="none" stroke="red" points="319,-284.1 319,-314.1 462,-314.1 462,-284.1 319,-284.1"/>
<text text-anchor="start" x="327" y="-302.1" font-family="Helvetica,sans-Serif" font-size="10.00">leanux::block::MajorMinor</text>
<text text-anchor="middle" x="390.5" y="-291.1" font-family="Helvetica,sans-Serif" font-size="10.00">::getSectorSize</text>
</a>
</g>
</g>
<!-- Node17&#45;&gt;Node28 -->
<g id="edge11" class="edge">
<title>Node17&#45;&gt;Node28</title>
<path fill="none" stroke="midnightblue" d="M487.79,-278.97C479.22,-280.76 470.55,-282.57 462.11,-284.34"/>
<polygon fill="midnightblue" stroke="midnightblue" points="488.71,-282.35 497.78,-276.88 487.28,-275.5 488.71,-282.35"/>
</g>
<!-- Node30 -->
<g id="node13" class="node">
<title>Node30</title>
<g id="a_node13"><a xlink:href="../../d7/d28/classleanux_1_1block_1_1MajorMinor.html#a5466f74de32fbbcaccceff77133e2b7b" target="_top" xlink:title="Get a list of devices slave to the device m.">
<polygon fill="none" stroke="black" points="319,-235.1 319,-265.1 462,-265.1 462,-235.1 319,-235.1"/>
<text text-anchor="start" x="327" y="-253.1" font-family="Helvetica,sans-Serif" font-size="10.00">leanux::block::MajorMinor</text>
<text text-anchor="middle" x="390.5" y="-242.1" font-family="Helvetica,sans-Serif" font-size="10.00">::getSlaves</text>
</a>
</g>
</g>
<!-- Node17&#45;&gt;Node30 -->
<g id="edge12" class="edge">
<title>Node17&#45;&gt;Node30</title>
<path fill="none" stroke="midnightblue" d="M487.79,-256.62C479.22,-256.04 470.55,-255.46 462.11,-254.88"/>
<polygon fill="midnightblue" stroke="midnightblue" points="487.57,-260.12 497.78,-257.3 488.04,-253.13 487.57,-260.12"/>
</g>
<!-- Node31 -->
<g id="node14" class="node">
<title>Node31</title>
<g id="a_node14"><a xlink:href="../../d7/d28/classleanux_1_1block_1_1MajorMinor.html#a742f510de3aea2ec0a1eb112e3ca3c1e" target="_top" xlink:title="return the full device path as it appears under /sys/devices/block">
<polygon fill="none" stroke="red" points="319,-186.1 319,-216.1 462,-216.1 462,-186.1 319,-186.1"/>
<text text-anchor="start" x="327" y="-204.1" font-family="Helvetica,sans-Serif" font-size="10.00">leanux::block::MajorMinor</text>
<text text-anchor="middle" x="390.5" y="-193.1" font-family="Helvetica,sans-Serif" font-size="10.00">::getSysPath</text>
</a>
</g>
</g>
<!-- Node17&#45;&gt;Node31 -->
<g id="edge13" class="edge">
<title>Node17&#45;&gt;Node31</title>
<path fill="none" stroke="midnightblue" d="M515.18,-243.72C489.57,-234.89 459.26,-224.45 435.06,-216.11"/>
<polygon fill="midnightblue" stroke="midnightblue" points="514.15,-247.07 524.75,-247.02 516.43,-240.45 514.15,-247.07"/>
</g>
<!-- Node17&#45;&gt;Node44 -->
<g id="edge15" class="edge">
<title>Node17&#45;&gt;Node44</title>
<path fill="none" stroke="midnightblue" d="M552.88,-285.59C523.34,-330.02 462.2,-421.94 462,-422.1 456.26,-426.51 449.66,-430.14 442.85,-433.12"/>
<polygon fill="midnightblue" stroke="midnightblue" points="555.88,-287.4 558.5,-277.13 550.05,-283.52 555.88,-287.4"/>
</g>
<!-- Node10 -->
<g id="node6" class="node">
<title>Node10</title>
<g id="a_node6"><a xlink:href="../../d5/d1b/namespaceleanux_1_1tools_1_1lblk.html#aafee1346a1081bfa4f7470f921cd66b8" target="_top" xlink:title="Direct output run from options.">
<polygon fill="none" stroke="red" points="0,-388.1 0,-418.1 104,-418.1 104,-388.1 0,-388.1"/>
<text text-anchor="start" x="8" y="-406.1" font-family="Helvetica,sans-Serif" font-size="10.00">leanux::tools::lblk</text>
<text text-anchor="middle" x="52" y="-395.1" font-family="Helvetica,sans-Serif" font-size="10.00">::runOptions</text>
</a>
</g>
</g>
<!-- Node9&#45;&gt;Node10 -->
<g id="edge5" class="edge">
<title>Node9&#45;&gt;Node10</title>
<path fill="none" stroke="midnightblue" d="M192.45,-224.24C159.87,-266.04 92.06,-353 64.76,-388.01"/>
<polygon fill="midnightblue" stroke="midnightblue" points="195.27,-226.32 198.66,-216.28 189.75,-222.01 195.27,-226.32"/>
</g>
<!-- Node18&#45;&gt;Node19 -->
<g id="edge7" class="edge">
<title>Node18&#45;&gt;Node19</title>
<path fill="none" stroke="midnightblue" d="M308.79,-102.15C300.22,-100.99 291.55,-99.81 283.11,-98.67"/>
<polygon fill="midnightblue" stroke="midnightblue" points="308.4,-105.63 318.78,-103.51 309.34,-98.7 308.4,-105.63"/>
</g>
<!-- Node31&#45;&gt;Node9 -->
<g id="edge14" class="edge">
<title>Node31&#45;&gt;Node9</title>
<path fill="none" stroke="midnightblue" d="M308.35,-201.1C293.17,-201.1 277.71,-201.1 263.76,-201.1"/>
<polygon fill="midnightblue" stroke="midnightblue" points="308.78,-204.6 318.78,-201.1 308.78,-197.6 308.78,-204.6"/>
</g>
<!-- Node44&#45;&gt;Node10 -->
<g id="edge18" class="edge">
<title>Node44&#45;&gt;Node10</title>
<path fill="none" stroke="midnightblue" d="M328.25,-431.49C313.5,-428.35 297.74,-425.32 283,-423.1 221.97,-413.89 151.13,-408.52 104.37,-405.71"/>
<polygon fill="midnightblue" stroke="midnightblue" points="327.76,-434.96 338.28,-433.67 329.25,-428.12 327.76,-434.96"/>
</g>
<!-- Node46 -->
<g id="node16" class="node">
<title>Node46</title>
<g id="a_node16"><a xlink:href="../../d5/d1b/namespaceleanux_1_1tools_1_1lblk.html#a3ad2e43162ca1213c491e96d5d2a5a9c" target="_top" xlink:title="Table listing LVM devices.">
<polygon fill="none" stroke="black" points="159.5,-432.1 159.5,-462.1 263.5,-462.1 263.5,-432.1 159.5,-432.1"/>
<text text-anchor="start" x="167.5" y="-450.1" font-family="Helvetica,sans-Serif" font-size="10.00">leanux::tools::lblk</text>
<text text-anchor="middle" x="211.5" y="-439.1" font-family="Helvetica,sans-Serif" font-size="10.00">::listLVM</text>
</a>
</g>
</g>
<!-- Node44&#45;&gt;Node46 -->
<g id="edge16" class="edge">
<title>Node44&#45;&gt;Node46</title>
<path fill="none" stroke="midnightblue" d="M328.17,-446.44C307.1,-446.56 283.75,-446.69 263.58,-446.81"/>
<polygon fill="midnightblue" stroke="midnightblue" points="328.32,-449.94 338.3,-446.39 328.28,-442.94 328.32,-449.94"/>
</g>
<!-- Node46&#45;&gt;Node10 -->
<g id="edge17" class="edge">
<title>Node46&#45;&gt;Node10</title>
<path fill="none" stroke="midnightblue" d="M149.64,-430.09C134.61,-425.9 118.66,-421.44 104.15,-417.39"/>
<polygon fill="midnightblue" stroke="midnightblue" points="148.79,-433.49 159.36,-432.81 150.67,-426.75 148.79,-433.49"/>
</g>
<!-- Node47&#45;&gt;Node10 -->
<g id="edge21" class="edge">
<title>Node47&#45;&gt;Node10</title>
<path fill="none" stroke="midnightblue" d="M545.81,-91.08C525.65,-73.17 494.43,-49.26 462,-39.1 324.99,3.83 246.84,30.82 140,-65.1 90.29,-109.72 61.67,-328.23 54.69,-387.97"/>
<polygon fill="midnightblue" stroke="midnightblue" points="543.48,-93.69 553.22,-97.85 548.2,-88.52 543.48,-93.69"/>
</g>
<!-- Node48&#45;&gt;Node10 -->
<g id="edge24" class="edge">
<title>Node48&#45;&gt;Node10</title>
<path fill="none" stroke="midnightblue" d="M328.23,-499.01C276.29,-500.12 200.75,-496.45 140,-472.1 110.3,-460.19 82.53,-434.71 66.68,-418.27"/>
<polygon fill="midnightblue" stroke="midnightblue" points="328.4,-502.5 338.3,-498.73 328.2,-495.51 328.4,-502.5"/>
</g>
<!-- Node48&#45;&gt;Node46 -->
<g id="edge23" class="edge">
<title>Node48&#45;&gt;Node46</title>
<path fill="none" stroke="midnightblue" d="M328.45,-478.54C307.31,-472.81 283.84,-466.44 263.58,-460.95"/>
<polygon fill="midnightblue" stroke="midnightblue" points="327.74,-481.97 338.3,-481.21 329.57,-475.22 327.74,-481.97"/>
</g>
</g>
</svg>
