<?xml version="1.0" encoding="UTF-8" standalone="no"?>
<!DOCTYPE svg PUBLIC "-//W3C//DTD SVG 1.1//EN"
 "http://www.w3.org/Graphics/SVG/1.1/DTD/svg11.dtd">
<!-- Generated by graphviz version 2.43.0 (0)
 -->
<!-- Title: leanux::block::MajorMinor::deriveWholeDisk Pages: 1 -->
<svg width="867pt" height="420pt"
 viewBox="0.00 0.00 867.00 420.08" xmlns="http://www.w3.org/2000/svg" xmlns:xlink="http://www.w3.org/1999/xlink">
<g id="graph0" class="graph" transform="scale(1 1) rotate(0) translate(4 416.08)">
<title>leanux::block::MajorMinor::deriveWholeDisk</title>
<!-- Node1 -->
<g id="node1" class="node">
<title>Node1</title>
<g id="a_node1"><a xlink:title="Derive the MajorMinor of the whole disk holding a partition.">
<polygon fill="#bfbfbf" stroke="black" points="0,-185.58 0,-215.58 143,-215.58 143,-185.58 0,-185.58"/>
<text text-anchor="start" x="8" y="-203.58" font-family="Helvetica,sans-Serif" font-size="10.00">leanux::block::MajorMinor</text>
<text text-anchor="middle" x="71.5" y="-192.58" font-family="Helvetica,sans-Serif" font-size="10.00">::deriveWholeDisk</text>
</a>
</g>
</g>
<!-- Node2 -->
<g id="node2" class="node">
<title>Node2</title>
<g id="a_node2"><a xlink:href="../../d7/d28/classleanux_1_1block_1_1MajorMinor.html#a3f7315088bb27e09449e3c2542b65958" target="_top" xlink:title="Get the MajorMinor for the device name.">
<polygon fill="none" stroke="black" points="358,-103.58 358,-133.58 501,-133.58 501,-103.58 358,-103.58"/>
<text text-anchor="start" x="366" y="-121.58" font-family="Helvetica,sans-Serif" font-size="10.00">leanux::block::MajorMinor</text>
<text text-anchor="middle" x="429.5" y="-110.58" font-family="Helvetica,sans-Serif" font-size="10.00">::getMajorMinorByName</text>
</a>
</g>
</g>
<!-- Node1&#45;&gt;Node2 -->
<g id="edge1" class="edge">
<title>Node1&#45;&gt;Node2</title>
<path fill="none" stroke="midnightblue" d="M105.44,-185.45C126.17,-176.46 153.7,-165.51 179,-158.58 234.52,-143.38 298.67,-133.25 348.02,-126.99"/>
<polygon fill="midnightblue" stroke="midnightblue" points="348.51,-130.46 358,-125.76 347.64,-123.51 348.51,-130.46"/>
</g>
<!-- Node4 -->
<g id="node4" class="node">
<title>Node4</title>
<g id="a_node4"><a xlink:href="../../d7/d28/classleanux_1_1block_1_1MajorMinor.html#a464bd4b85ec6d88f850ef7d76e950f44" target="_top" xlink:title="Default constructor.">
<polygon fill="none" stroke="black" points="716,-59.58 716,-89.58 859,-89.58 859,-59.58 716,-59.58"/>
<text text-anchor="start" x="724" y="-77.58" font-family="Helvetica,sans-Serif" font-size="10.00">leanux::block::MajorMinor</text>
<text text-anchor="middle" x="787.5" y="-66.58" font-family="Helvetica,sans-Serif" font-size="10.00">::MajorMinor</text>
</a>
</g>
</g>
<!-- Node1&#45;&gt;Node4 -->
<g id="edge16" class="edge">
<title>Node1&#45;&gt;Node4</title>
<path fill="none" stroke="midnightblue" d="M77.74,-185.35C89.74,-153.16 122.61,-78.82 179,-49.58 364.16,46.4 625.38,-20.67 734.96,-56.28"/>
<polygon fill="midnightblue" stroke="midnightblue" points="734.18,-59.71 744.77,-59.52 736.37,-53.06 734.18,-59.71"/>
</g>
<!-- Node6 -->
<g id="node5" class="node">
<title>Node6</title>
<g id="a_node5"><a xlink:href="../../d7/d28/classleanux_1_1block_1_1MajorMinor.html#adc3f437e329318ee21bddbbebaeb740e" target="_top" xlink:title="Get the DeviceName for the MajorMinor.">
<polygon fill="none" stroke="black" points="358,-258.58 358,-288.58 501,-288.58 501,-258.58 358,-258.58"/>
<text text-anchor="start" x="366" y="-276.58" font-family="Helvetica,sans-Serif" font-size="10.00">leanux::block::MajorMinor</text>
<text text-anchor="middle" x="429.5" y="-265.58" font-family="Helvetica,sans-Serif" font-size="10.00">::getNameByMajorMinor</text>
</a>
</g>
</g>
<!-- Node1&#45;&gt;Node6 -->
<g id="edge4" class="edge">
<title>Node1&#45;&gt;Node6</title>
<path fill="none" stroke="midnightblue" d="M112.93,-185.49C163.59,-169.01 252.24,-148.37 322,-175.58 360.15,-190.47 392.89,-226.12 411.65,-250.07"/>
<polygon fill="midnightblue" stroke="midnightblue" points="409.07,-252.46 417.91,-258.3 414.64,-248.22 409.07,-252.46"/>
</g>
<!-- Node7 -->
<g id="node6" class="node">
<title>Node7</title>
<g id="a_node6"><a xlink:href="../../d7/d28/classleanux_1_1block_1_1MajorMinor.html#a59e3fe2f1a574b79bad1fe48a2334c27" target="_top" xlink:title="determine if the MajorMinor represents a bcache disk.">
<polygon fill="none" stroke="black" points="179,-381.58 179,-411.58 322,-411.58 322,-381.58 179,-381.58"/>
<text text-anchor="start" x="187" y="-399.58" font-family="Helvetica,sans-Serif" font-size="10.00">leanux::block::MajorMinor</text>
<text text-anchor="middle" x="250.5" y="-388.58" font-family="Helvetica,sans-Serif" font-size="10.00">::isBCacheDisk</text>
</a>
</g>
</g>
<!-- Node1&#45;&gt;Node7 -->
<g id="edge6" class="edge">
<title>Node1&#45;&gt;Node7</title>
<path fill="none" stroke="midnightblue" d="M77.76,-215.64C90.12,-248.87 124.18,-328.95 179,-372.58 180.77,-373.99 182.62,-375.32 184.54,-376.57"/>
<polygon fill="midnightblue" stroke="midnightblue" points="182.91,-379.67 193.33,-381.58 186.38,-373.59 182.91,-379.67"/>
</g>
<!-- Node8 -->
<g id="node7" class="node">
<title>Node8</title>
<g id="a_node7"><a xlink:href="../../d7/d28/classleanux_1_1block_1_1MajorMinor.html#a546aa9297e382543cb031126190bc8c9" target="_top" xlink:title="determine if the major represents an IDE disk.">
<polygon fill="none" stroke="black" points="179,-185.58 179,-215.58 322,-215.58 322,-185.58 179,-185.58"/>
<text text-anchor="start" x="187" y="-203.58" font-family="Helvetica,sans-Serif" font-size="10.00">leanux::block::MajorMinor</text>
<text text-anchor="middle" x="250.5" y="-192.58" font-family="Helvetica,sans-Serif" font-size="10.00">::isIDEDisk</text>
</a>
</g>
</g>
<!-- Node1&#45;&gt;Node8 -->
<g id="edge8" class="edge">
<title>Node1&#45;&gt;Node8</title>
<path fill="none" stroke="midnightblue" d="M143.22,-200.58C151.57,-200.58 160.14,-200.58 168.62,-200.58"/>
<polygon fill="midnightblue" stroke="midnightblue" points="168.89,-204.09 178.89,-200.58 168.89,-197.09 168.89,-204.09"/>
</g>
<!-- Node9 -->
<g id="node8" class="node">
<title>Node9</title>
<g id="a_node8"><a xlink:href="../../d7/d28/classleanux_1_1block_1_1MajorMinor.html#a852aa9e7ee1c107c95cd27ad47b5cf86" target="_top" xlink:title="determine if the MajorMinor represents an MMC disk.">
<polygon fill="none" stroke="black" points="179,-332.58 179,-362.58 322,-362.58 322,-332.58 179,-332.58"/>
<text text-anchor="start" x="187" y="-350.58" font-family="Helvetica,sans-Serif" font-size="10.00">leanux::block::MajorMinor</text>
<text text-anchor="middle" x="250.5" y="-339.58" font-family="Helvetica,sans-Serif" font-size="10.00">::isMMCDisk</text>
</a>
</g>
</g>
<!-- Node1&#45;&gt;Node9 -->
<g id="edge9" class="edge">
<title>Node1&#45;&gt;Node9</title>
<path fill="none" stroke="midnightblue" d="M81.73,-215.73C98.16,-241.49 134.95,-293.92 179,-323.58 181.28,-325.12 183.68,-326.57 186.14,-327.93"/>
<polygon fill="midnightblue" stroke="midnightblue" points="184.82,-331.19 195.34,-332.5 187.94,-324.92 184.82,-331.19"/>
</g>
<!-- Node10 -->
<g id="node9" class="node">
<title>Node10</title>
<g id="a_node9"><a xlink:href="../../d7/d28/classleanux_1_1block_1_1MajorMinor.html#ab248c720a63908f9e3ef78ed23536de8" target="_top" xlink:title="determine if the MajorMinor represents a NVMe disk.">
<polygon fill="none" stroke="black" points="179,-283.58 179,-313.58 322,-313.58 322,-283.58 179,-283.58"/>
<text text-anchor="start" x="187" y="-301.58" font-family="Helvetica,sans-Serif" font-size="10.00">leanux::block::MajorMinor</text>
<text text-anchor="middle" x="250.5" y="-290.58" font-family="Helvetica,sans-Serif" font-size="10.00">::isNVMeDisk</text>
</a>
</g>
</g>
<!-- Node1&#45;&gt;Node10 -->
<g id="edge11" class="edge">
<title>Node1&#45;&gt;Node10</title>
<path fill="none" stroke="midnightblue" d="M90.73,-215.64C111.18,-231.94 145.84,-257.84 179,-274.58 182.53,-276.37 186.23,-278.07 190,-279.68"/>
<polygon fill="midnightblue" stroke="midnightblue" points="188.9,-283.01 199.48,-283.5 191.51,-276.52 188.9,-283.01"/>
</g>
<!-- Node11 -->
<g id="node10" class="node">
<title>Node11</title>
<g id="a_node10"><a xlink:href="../../d7/d28/classleanux_1_1block_1_1MajorMinor.html#a6c5b98f8ffc7b8904754ecfe33407e8c" target="_top" xlink:title="determine if the major represents a SCSI disk.">
<polygon fill="none" stroke="black" points="179,-59.58 179,-89.58 322,-89.58 322,-59.58 179,-59.58"/>
<text text-anchor="start" x="187" y="-77.58" font-family="Helvetica,sans-Serif" font-size="10.00">leanux::block::MajorMinor</text>
<text text-anchor="middle" x="250.5" y="-66.58" font-family="Helvetica,sans-Serif" font-size="10.00">::isSCSIDisk</text>
</a>
</g>
</g>
<!-- Node1&#45;&gt;Node11 -->
<g id="edge13" class="edge">
<title>Node1&#45;&gt;Node11</title>
<path fill="none" stroke="midnightblue" d="M86.06,-185.57C105.16,-165.1 141.86,-128.29 179,-104.58 185.09,-100.7 191.77,-97.11 198.51,-93.87"/>
<polygon fill="midnightblue" stroke="midnightblue" points="200.06,-97.01 207.7,-89.67 197.15,-90.64 200.06,-97.01"/>
</g>
<!-- Node12 -->
<g id="node11" class="node">
<title>Node12</title>
<g id="a_node11"><a xlink:href="../../d7/d28/classleanux_1_1block_1_1MajorMinor.html#aaa91d26165ff4b7a32cfe052e72463cc" target="_top" xlink:title="determine if the MajorMinor represents a virtio disk.">
<polygon fill="none" stroke="black" points="179,-234.58 179,-264.58 322,-264.58 322,-234.58 179,-234.58"/>
<text text-anchor="start" x="187" y="-252.58" font-family="Helvetica,sans-Serif" font-size="10.00">leanux::block::MajorMinor</text>
<text text-anchor="middle" x="250.5" y="-241.58" font-family="Helvetica,sans-Serif" font-size="10.00">::isVirtIODisk</text>
</a>
</g>
</g>
<!-- Node1&#45;&gt;Node12 -->
<g id="edge14" class="edge">
<title>Node1&#45;&gt;Node12</title>
<path fill="none" stroke="midnightblue" d="M127.05,-215.69C145.47,-220.79 166.21,-226.53 185.31,-231.82"/>
<polygon fill="midnightblue" stroke="midnightblue" points="184.56,-235.24 195.13,-234.53 186.43,-228.49 184.56,-235.24"/>
</g>
<!-- Node3 -->
<g id="node3" class="node">
<title>Node3</title>
<g id="a_node3"><a xlink:href="../../d7/d28/classleanux_1_1block_1_1MajorMinor.html#a4d83c063088eb618533f31e2cc78b2f3" target="_top" xlink:title="(re)build the cached mapping between device names and MajorMinor numbers.">
<polygon fill="none" stroke="red" points="537,-103.58 537,-133.58 680,-133.58 680,-103.58 537,-103.58"/>
<text text-anchor="start" x="545" y="-121.58" font-family="Helvetica,sans-Serif" font-size="10.00">leanux::block::MajorMinor</text>
<text text-anchor="middle" x="608.5" y="-110.58" font-family="Helvetica,sans-Serif" font-size="10.00">::buildCache</text>
</a>
</g>
</g>
<!-- Node2&#45;&gt;Node3 -->
<g id="edge2" class="edge">
<title>Node2&#45;&gt;Node3</title>
<path fill="none" stroke="midnightblue" d="M501.22,-118.58C509.57,-118.58 518.14,-118.58 526.62,-118.58"/>
<polygon fill="midnightblue" stroke="midnightblue" points="526.89,-122.09 536.89,-118.58 526.89,-115.09 526.89,-122.09"/>
</g>
<!-- Node3&#45;&gt;Node4 -->
<g id="edge3" class="edge">
<title>Node3&#45;&gt;Node4</title>
<path fill="none" stroke="midnightblue" d="M669.92,-103.57C684.79,-99.87 700.84,-95.88 716.13,-92.08"/>
<polygon fill="midnightblue" stroke="midnightblue" points="717.19,-95.42 726.05,-89.61 715.5,-88.63 717.19,-95.42"/>
</g>
<!-- Node6&#45;&gt;Node3 -->
<g id="edge5" class="edge">
<title>Node6&#45;&gt;Node3</title>
<path fill="none" stroke="midnightblue" d="M447.79,-258.44C479.25,-230.89 545.95,-172.48 582.41,-140.56"/>
<polygon fill="midnightblue" stroke="midnightblue" points="584.92,-143.01 590.14,-133.79 580.31,-137.75 584.92,-143.01"/>
</g>
<!-- Node7&#45;&gt;Node6 -->
<g id="edge7" class="edge">
<title>Node7&#45;&gt;Node6</title>
<path fill="none" stroke="midnightblue" d="M303.83,-381.57C310.14,-378.95 316.34,-375.97 322,-372.58 356.55,-351.94 389.37,-318.62 409.22,-296.41"/>
<polygon fill="midnightblue" stroke="midnightblue" points="411.95,-298.6 415.92,-288.78 406.69,-293.98 411.95,-298.6"/>
</g>
<!-- Node9&#45;&gt;Node6 -->
<g id="edge10" class="edge">
<title>Node9&#45;&gt;Node6</title>
<path fill="none" stroke="midnightblue" d="M298.04,-332.56C306.08,-329.73 314.33,-326.68 322,-323.58 344.73,-314.41 369.55,-302.85 389.51,-293.16"/>
<polygon fill="midnightblue" stroke="midnightblue" points="391.15,-296.25 398.6,-288.71 388.08,-289.97 391.15,-296.25"/>
</g>
<!-- Node10&#45;&gt;Node6 -->
<g id="edge12" class="edge">
<title>Node10&#45;&gt;Node6</title>
<path fill="none" stroke="midnightblue" d="M322.22,-288.6C330.66,-287.4 339.33,-286.18 347.9,-284.97"/>
<polygon fill="midnightblue" stroke="midnightblue" points="348.48,-288.42 357.89,-283.56 347.5,-281.49 348.48,-288.42"/>
</g>
<!-- Node12&#45;&gt;Node6 -->
<g id="edge15" class="edge">
<title>Node12&#45;&gt;Node6</title>
<path fill="none" stroke="midnightblue" d="M322.22,-259.17C330.66,-260.32 339.33,-261.49 347.9,-262.66"/>
<polygon fill="midnightblue" stroke="midnightblue" points="347.51,-266.14 357.89,-264.01 348.46,-259.2 347.51,-266.14"/>
</g>
</g>
</svg>
