<?xml version="1.0" encoding="UTF-8" standalone="no"?>
<!DOCTYPE svg PUBLIC "-//W3C//DTD SVG 1.1//EN"
 "http://www.w3.org/Graphics/SVG/1.1/DTD/svg11.dtd">
<!-- Generated by graphviz version 2.43.0 (0)
 -->
<!-- Title: leanux::block::MajorMinor::getAliases Pages: 1 -->
<svg width="521pt" height="527pt"
 viewBox="0.00 0.00 521.00 527.00" xmlns="http://www.w3.org/2000/svg" xmlns:xlink="http://www.w3.org/1999/xlink">
<g id="graph0" class="graph" transform="scale(1 1) rotate(0) translate(4 523)">
<title>leanux::block::MajorMinor::getAliases</title>
<!-- Node1 -->
<g id="node1" class="node">
<title>Node1</title>
<g id="a_node1"><a xlink:title="get a list of device aliases, returned as full paths.">
<polygon fill="#bfbfbf" stroke="black" points="370,-252.5 370,-282.5 513,-282.5 513,-252.5 370,-252.5"/>
<text text-anchor="start" x="378" y="-270.5" font-family="Helvetica,sans-Serif" font-size="10.00">leanux::block::MajorMinor</text>
<text text-anchor="middle" x="441.5" y="-259.5" font-family="Helvetica,sans-Serif" font-size="10.00">::getAliases</text>
</a>
</g>
</g>
<!-- Node2 -->
<g id="node2" class="node">
<title>Node2</title>
<g id="a_node2"><a xlink:href="../../d5/d1b/namespaceleanux_1_1tools_1_1lblk.html#ac57ae7d9a91a4259052d4ae1da5a36a2" target="_top" xlink:title="Write LVM details.">
<polygon fill="none" stroke="black" points="185,-488.5 185,-518.5 289,-518.5 289,-488.5 185,-488.5"/>
<text text-anchor="start" x="193" y="-506.5" font-family="Helvetica,sans-Serif" font-size="10.00">leanux::tools::lblk</text>
<text text-anchor="middle" x="237" y="-495.5" font-family="Helvetica,sans-Serif" font-size="10.00">::detailLVM</text>
</a>
</g>
</g>
<!-- Node1&#45;&gt;Node2 -->
<g id="edge1" class="edge">
<title>Node1&#45;&gt;Node2</title>
<path fill="none" stroke="midnightblue" d="M435.15,-292.54C424.26,-337.2 395.19,-430.51 334,-479.5 321.26,-489.7 304.75,-495.64 289.03,-499.07"/>
<polygon fill="midnightblue" stroke="midnightblue" points="438.62,-293.07 437.48,-282.53 431.8,-291.48 438.62,-293.07"/>
</g>
<!-- Node6 -->
<g id="node4" class="node">
<title>Node6</title>
<g id="a_node4"><a xlink:href="../../d5/d1b/namespaceleanux_1_1tools_1_1lblk.html#a3ed79ca6c9f478be774a6d9f4a4cb016" target="_top" xlink:title="Write MetaDisk details.">
<polygon fill="none" stroke="black" points="185,-439.5 185,-469.5 289,-469.5 289,-439.5 185,-439.5"/>
<text text-anchor="start" x="193" y="-457.5" font-family="Helvetica,sans-Serif" font-size="10.00">leanux::tools::lblk</text>
<text text-anchor="middle" x="237" y="-446.5" font-family="Helvetica,sans-Serif" font-size="10.00">::detailMetaDisk</text>
</a>
</g>
</g>
<!-- Node1&#45;&gt;Node6 -->
<g id="edge3" class="edge">
<title>Node1&#45;&gt;Node6</title>
<path fill="none" stroke="midnightblue" d="M431.27,-292.15C416.44,-328.24 383.85,-395.03 334,-430.5 320.98,-439.76 304.75,-445.46 289.36,-448.97"/>
<polygon fill="midnightblue" stroke="midnightblue" points="434.53,-293.42 434.97,-282.83 428.02,-290.83 434.53,-293.42"/>
</g>
<!-- Node7 -->
<g id="node5" class="node">
<title>Node7</title>
<g id="a_node5"><a xlink:href="../../d2/d31/classleanux_1_1sysdevice_1_1BlockDevice.html#a591c377c1807e5c333738d24ec3e88ef" target="_top" xlink:title=" ">
<polygon fill="none" stroke="black" points="144.5,-390.5 144.5,-420.5 329.5,-420.5 329.5,-390.5 144.5,-390.5"/>
<text text-anchor="start" x="152.5" y="-408.5" font-family="Helvetica,sans-Serif" font-size="10.00">leanux::sysdevice::</text>
<text text-anchor="middle" x="237" y="-397.5" font-family="Helvetica,sans-Serif" font-size="10.00">BlockDevice::getPropertyValueList</text>
</a>
</g>
</g>
<!-- Node1&#45;&gt;Node7 -->
<g id="edge5" class="edge">
<title>Node1&#45;&gt;Node7</title>
<path fill="none" stroke="midnightblue" d="M424.37,-291.36C405.64,-317.2 372.38,-357.76 334,-380.5 327.48,-384.36 320.37,-387.64 313.05,-390.41"/>
<polygon fill="midnightblue" stroke="midnightblue" points="427.45,-293.07 430.37,-282.89 421.73,-289.03 427.45,-293.07"/>
</g>
<!-- Node8 -->
<g id="node6" class="node">
<title>Node8</title>
<g id="a_node6"><a xlink:href="../../d6/d19/classleanux_1_1sysdevice_1_1BlockPartition.html#ab0933694a58d1f25eb9158f219cf13bb" target="_top" xlink:title=" ">
<polygon fill="none" stroke="black" points="163.5,-330 163.5,-371 310.5,-371 310.5,-330 163.5,-330"/>
<text text-anchor="start" x="171.5" y="-359" font-family="Helvetica,sans-Serif" font-size="10.00">leanux::sysdevice::</text>
<text text-anchor="start" x="171.5" y="-348" font-family="Helvetica,sans-Serif" font-size="10.00">BlockPartition::getProperty</text>
<text text-anchor="middle" x="237" y="-337" font-family="Helvetica,sans-Serif" font-size="10.00">ValueList</text>
</a>
</g>
</g>
<!-- Node1&#45;&gt;Node8 -->
<g id="edge6" class="edge">
<title>Node1&#45;&gt;Node8</title>
<path fill="none" stroke="midnightblue" d="M404.13,-287.4C383.85,-298.03 357.93,-310.88 334,-320.5 325.74,-323.82 316.96,-327.01 308.19,-329.99"/>
<polygon fill="midnightblue" stroke="midnightblue" points="405.83,-290.46 413.03,-282.69 402.55,-284.27 405.83,-290.46"/>
</g>
<!-- Node9 -->
<g id="node7" class="node">
<title>Node9</title>
<g id="a_node7"><a xlink:href="../../d2/d7d/classleanux_1_1sysdevice_1_1NVMeDevice.html#ad7e8752666421aa75de8fd7de9a50269" target="_top" xlink:title=" ">
<polygon fill="none" stroke="black" points="143.5,-280.5 143.5,-310.5 330.5,-310.5 330.5,-280.5 143.5,-280.5"/>
<text text-anchor="start" x="151.5" y="-298.5" font-family="Helvetica,sans-Serif" font-size="10.00">leanux::sysdevice::</text>
<text text-anchor="middle" x="237" y="-287.5" font-family="Helvetica,sans-Serif" font-size="10.00">NVMeDevice::getPropertyValueList</text>
</a>
</g>
</g>
<!-- Node1&#45;&gt;Node9 -->
<g id="edge7" class="edge">
<title>Node1&#45;&gt;Node9</title>
<path fill="none" stroke="midnightblue" d="M360.03,-278.63C350.4,-279.96 340.51,-281.33 330.73,-282.68"/>
<polygon fill="midnightblue" stroke="midnightblue" points="360.53,-282.09 369.96,-277.25 359.57,-275.16 360.53,-282.09"/>
</g>
<!-- Node10 -->
<g id="node8" class="node">
<title>Node10</title>
<g id="a_node8"><a xlink:href="../../d2/d73/classleanux_1_1sysdevice_1_1NVMePartition.html#acc2f959ca131c3f4fea3cdf2dcaa3ee7" target="_top" xlink:title=" ">
<polygon fill="none" stroke="black" points="162.5,-220 162.5,-261 311.5,-261 311.5,-220 162.5,-220"/>
<text text-anchor="start" x="170.5" y="-249" font-family="Helvetica,sans-Serif" font-size="10.00">leanux::sysdevice::</text>
<text text-anchor="start" x="170.5" y="-238" font-family="Helvetica,sans-Serif" font-size="10.00">NVMePartition::getProperty</text>
<text text-anchor="middle" x="237" y="-227" font-family="Helvetica,sans-Serif" font-size="10.00">ValueList</text>
</a>
</g>
</g>
<!-- Node1&#45;&gt;Node10 -->
<g id="edge8" class="edge">
<title>Node1&#45;&gt;Node10</title>
<path fill="none" stroke="midnightblue" d="M359.67,-256.72C343.84,-254.61 327.31,-252.41 311.73,-250.33"/>
<polygon fill="midnightblue" stroke="midnightblue" points="359.58,-260.24 369.96,-258.09 360.51,-253.3 359.58,-260.24"/>
</g>
<!-- Node11 -->
<g id="node9" class="node">
<title>Node11</title>
<g id="a_node9"><a xlink:href="../../dc/dfa/classleanux_1_1sysdevice_1_1MapperDevice.html#ac1c473120b391ef8c039deba490885c2" target="_top" xlink:title=" ">
<polygon fill="none" stroke="black" points="140,-170.5 140,-200.5 334,-200.5 334,-170.5 140,-170.5"/>
<text text-anchor="start" x="148" y="-188.5" font-family="Helvetica,sans-Serif" font-size="10.00">leanux::sysdevice::</text>
<text text-anchor="middle" x="237" y="-177.5" font-family="Helvetica,sans-Serif" font-size="10.00">MapperDevice::getPropertyValueList</text>
</a>
</g>
</g>
<!-- Node1&#45;&gt;Node11 -->
<g id="edge9" class="edge">
<title>Node1&#45;&gt;Node11</title>
<path fill="none" stroke="midnightblue" d="M407.67,-247.31C387.09,-235.32 359.69,-220.55 334,-210.5 324.54,-206.8 314.34,-203.47 304.24,-200.55"/>
<polygon fill="midnightblue" stroke="midnightblue" points="405.94,-250.35 416.33,-252.42 409.5,-244.33 405.94,-250.35"/>
</g>
<!-- Node12 -->
<g id="node10" class="node">
<title>Node12</title>
<g id="a_node10"><a xlink:href="../../de/dd2/classleanux_1_1sysdevice_1_1LoopbackDevice.html#a78a94f35dbb27bf85ffea19b19ab6e9e" target="_top" xlink:title=" ">
<polygon fill="none" stroke="black" points="157,-110 157,-151 317,-151 317,-110 157,-110"/>
<text text-anchor="start" x="165" y="-139" font-family="Helvetica,sans-Serif" font-size="10.00">leanux::sysdevice::</text>
<text text-anchor="start" x="165" y="-128" font-family="Helvetica,sans-Serif" font-size="10.00">LoopbackDevice::getProperty</text>
<text text-anchor="middle" x="237" y="-117" font-family="Helvetica,sans-Serif" font-size="10.00">ValueList</text>
</a>
</g>
</g>
<!-- Node1&#45;&gt;Node12 -->
<g id="edge10" class="edge">
<title>Node1&#45;&gt;Node12</title>
<path fill="none" stroke="midnightblue" d="M422.85,-244.38C403.47,-220.47 370.26,-183.62 334,-161.5 327.57,-157.58 320.59,-154.1 313.43,-151.03"/>
<polygon fill="midnightblue" stroke="midnightblue" points="420.14,-246.6 429.11,-252.25 425.62,-242.24 420.14,-246.6"/>
</g>
<!-- Node13 -->
<g id="node11" class="node">
<title>Node13</title>
<g id="a_node11"><a xlink:href="../../dd/d47/classleanux_1_1sysdevice_1_1RamDiskDevice.html#a096f69feac55c9c0c004fa8003f3f5a0" target="_top" xlink:title=" ">
<polygon fill="none" stroke="black" points="158,-50 158,-91 316,-91 316,-50 158,-50"/>
<text text-anchor="start" x="166" y="-79" font-family="Helvetica,sans-Serif" font-size="10.00">leanux::sysdevice::</text>
<text text-anchor="start" x="166" y="-68" font-family="Helvetica,sans-Serif" font-size="10.00">RamDiskDevice::getProperty</text>
<text text-anchor="middle" x="237" y="-57" font-family="Helvetica,sans-Serif" font-size="10.00">ValueList</text>
</a>
</g>
</g>
<!-- Node1&#45;&gt;Node13 -->
<g id="edge11" class="edge">
<title>Node1&#45;&gt;Node13</title>
<path fill="none" stroke="midnightblue" d="M431.16,-242.63C416.2,-206.13 383.43,-138.31 334,-100.5 328.59,-96.36 322.6,-92.79 316.34,-89.7"/>
<polygon fill="midnightblue" stroke="midnightblue" points="427.95,-244.04 434.9,-252.04 434.46,-241.45 427.95,-244.04"/>
</g>
<!-- Node14 -->
<g id="node12" class="node">
<title>Node14</title>
<g id="a_node12"><a xlink:href="../../dd/d1b/classleanux_1_1sysdevice_1_1MDDevice.html#a25f52dff392b1266aeb201b46a41fa0d" target="_top" xlink:title=" ">
<polygon fill="none" stroke="black" points="150,-0.5 150,-30.5 324,-30.5 324,-0.5 150,-0.5"/>
<text text-anchor="start" x="158" y="-18.5" font-family="Helvetica,sans-Serif" font-size="10.00">leanux::sysdevice::</text>
<text text-anchor="middle" x="237" y="-7.5" font-family="Helvetica,sans-Serif" font-size="10.00">MDDevice::getPropertyValueList</text>
</a>
</g>
</g>
<!-- Node1&#45;&gt;Node14 -->
<g id="edge12" class="edge">
<title>Node1&#45;&gt;Node14</title>
<path fill="none" stroke="midnightblue" d="M435.99,-242.42C426.19,-195.43 398.45,-94.06 334,-40.5 329.36,-36.65 324.2,-33.38 318.74,-30.61"/>
<polygon fill="midnightblue" stroke="midnightblue" points="432.58,-243.23 437.96,-252.36 439.45,-241.87 432.58,-243.23"/>
</g>
<!-- Node3 -->
<g id="node3" class="node">
<title>Node3</title>
<g id="a_node3"><a xlink:href="../../d5/d1b/namespaceleanux_1_1tools_1_1lblk.html#aafee1346a1081bfa4f7470f921cd66b8" target="_top" xlink:title="Direct output run from options.">
<polygon fill="none" stroke="red" points="0,-463.5 0,-493.5 104,-493.5 104,-463.5 0,-463.5"/>
<text text-anchor="start" x="8" y="-481.5" font-family="Helvetica,sans-Serif" font-size="10.00">leanux::tools::lblk</text>
<text text-anchor="middle" x="52" y="-470.5" font-family="Helvetica,sans-Serif" font-size="10.00">::runOptions</text>
</a>
</g>
</g>
<!-- Node2&#45;&gt;Node3 -->
<g id="edge2" class="edge">
<title>Node2&#45;&gt;Node3</title>
<path fill="none" stroke="midnightblue" d="M174.58,-495.11C151.68,-491.98 125.95,-488.47 104.08,-485.48"/>
<polygon fill="midnightblue" stroke="midnightblue" points="174.16,-498.58 184.54,-496.47 175.1,-491.65 174.16,-498.58"/>
</g>
<!-- Node6&#45;&gt;Node3 -->
<g id="edge4" class="edge">
<title>Node6&#45;&gt;Node3</title>
<path fill="none" stroke="midnightblue" d="M174.58,-462.56C151.68,-465.56 125.95,-468.93 104.08,-471.8"/>
<polygon fill="midnightblue" stroke="midnightblue" points="175.08,-466.02 184.54,-461.25 174.17,-459.08 175.08,-466.02"/>
</g>
</g>
</svg>
