<?xml version="1.0" encoding="UTF-8" standalone="no"?>
<!DOCTYPE svg PUBLIC "-//W3C//DTD SVG 1.1//EN"
 "http://www.w3.org/Graphics/SVG/1.1/DTD/svg11.dtd">
<!-- Generated by graphviz version 2.43.0 (0)
 -->
<!-- Title: leanux::block::MajorMinor::getMountInfo Pages: 1 -->
<svg width="524pt" height="137pt"
 viewBox="0.00 0.00 524.00 137.00" xmlns="http://www.w3.org/2000/svg" xmlns:xlink="http://www.w3.org/1999/xlink">
<g id="graph0" class="graph" transform="scale(1 1) rotate(0) translate(4 133)">
<title>leanux::block::MajorMinor::getMountInfo</title>
<!-- Node1 -->
<g id="node1" class="node">
<title>Node1</title>
<g id="a_node1"><a xlink:title="get MountInfo on devices with a mounted filesystem.">
<polygon fill="#bfbfbf" stroke="black" points="0,-49.5 0,-79.5 143,-79.5 143,-49.5 0,-49.5"/>
<text text-anchor="start" x="8" y="-67.5" font-family="Helvetica,sans-Serif" font-size="10.00">leanux::block::MajorMinor</text>
<text text-anchor="middle" x="71.5" y="-56.5" font-family="Helvetica,sans-Serif" font-size="10.00">::getMountInfo</text>
</a>
</g>
</g>
<!-- Node2 -->
<g id="node2" class="node">
<title>Node2</title>
<g id="a_node2"><a xlink:href="../../d5/d01/namespaceleanux_1_1block.html#afaee6721d578e4e9ccbebb7dea5919a6" target="_top" xlink:title="Get a map of MajorMinor to MountInfo from /proc/mounts.">
<polygon fill="none" stroke="black" points="179,-55 179,-74 331,-74 331,-55 179,-55"/>
<text text-anchor="middle" x="255" y="-62" font-family="Helvetica,sans-Serif" font-size="10.00">leanux::block::enumMounts</text>
</a>
</g>
</g>
<!-- Node1&#45;&gt;Node2 -->
<g id="edge1" class="edge">
<title>Node1&#45;&gt;Node2</title>
<path fill="none" stroke="midnightblue" d="M143.19,-64.5C151.47,-64.5 159.99,-64.5 168.44,-64.5"/>
<polygon fill="midnightblue" stroke="midnightblue" points="168.7,-68 178.7,-64.5 168.7,-61 168.7,-68"/>
</g>
<!-- Node3 -->
<g id="node3" class="node">
<title>Node3</title>
<g id="a_node3"><a xlink:href="../../d5/d01/namespaceleanux_1_1block.html#a12e7b3a8ce8e601504f25c9c3e2fa7f0" target="_top" xlink:title="get the MajorMinor for a device file or aliases to it, resolves the devicefile with realpath.">
<polygon fill="none" stroke="red" points="367,-98.5 367,-128.5 516,-128.5 516,-98.5 367,-98.5"/>
<text text-anchor="start" x="375" y="-116.5" font-family="Helvetica,sans-Serif" font-size="10.00">leanux::block::getFileMajor</text>
<text text-anchor="middle" x="441.5" y="-105.5" font-family="Helvetica,sans-Serif" font-size="10.00">Minor</text>
</a>
</g>
</g>
<!-- Node2&#45;&gt;Node3 -->
<g id="edge2" class="edge">
<title>Node2&#45;&gt;Node3</title>
<path fill="none" stroke="midnightblue" d="M292.01,-74.06C315.27,-80.24 346.24,-88.46 373.87,-95.8"/>
<polygon fill="midnightblue" stroke="midnightblue" points="373.32,-99.28 383.88,-98.46 375.11,-92.51 373.32,-99.28"/>
</g>
<!-- Node5 -->
<g id="node4" class="node">
<title>Node5</title>
<g id="a_node4"><a xlink:href="../../d7/d28/classleanux_1_1block_1_1MajorMinor.html#a08c4dd48259318cfd77067e866e05e84" target="_top" xlink:title="get the device name for this MajorMinor.">
<polygon fill="none" stroke="red" points="370,-49.5 370,-79.5 513,-79.5 513,-49.5 370,-49.5"/>
<text text-anchor="start" x="378" y="-67.5" font-family="Helvetica,sans-Serif" font-size="10.00">leanux::block::MajorMinor</text>
<text text-anchor="middle" x="441.5" y="-56.5" font-family="Helvetica,sans-Serif" font-size="10.00">::getName</text>
</a>
</g>
</g>
<!-- Node2&#45;&gt;Node5 -->
<g id="edge3" class="edge">
<title>Node2&#45;&gt;Node5</title>
<path fill="none" stroke="midnightblue" d="M331.04,-64.5C340.49,-64.5 350.2,-64.5 359.73,-64.5"/>
<polygon fill="midnightblue" stroke="midnightblue" points="359.99,-68 369.99,-64.5 359.99,-61 359.99,-68"/>
</g>
<!-- Node9 -->
<g id="node5" class="node">
<title>Node9</title>
<g id="a_node5"><a xlink:href="../../d7/d28/classleanux_1_1block_1_1MajorMinor.html#a26905a16bdd3e525abb2ada713f80704" target="_top" xlink:title="Test MajorMinor validity.">
<polygon fill="none" stroke="black" points="370,-0.5 370,-30.5 513,-30.5 513,-0.5 370,-0.5"/>
<text text-anchor="start" x="378" y="-18.5" font-family="Helvetica,sans-Serif" font-size="10.00">leanux::block::MajorMinor</text>
<text text-anchor="middle" x="441.5" y="-7.5" font-family="Helvetica,sans-Serif" font-size="10.00">::isValid</text>
</a>
</g>
</g>
<!-- Node2&#45;&gt;Node9 -->
<g id="edge4" class="edge">
<title>Node2&#45;&gt;Node9</title>
<path fill="none" stroke="midnightblue" d="M292.01,-54.94C315.27,-48.76 346.24,-40.54 373.87,-33.2"/>
<polygon fill="midnightblue" stroke="midnightblue" points="375.11,-36.49 383.88,-30.54 373.32,-29.72 375.11,-36.49"/>
</g>
</g>
</svg>
