<?xml version="1.0" encoding="UTF-8" standalone="no"?>
<!DOCTYPE svg PUBLIC "-//W3C//DTD SVG 1.1//EN"
 "http://www.w3.org/Graphics/SVG/1.1/DTD/svg11.dtd">
<!-- Generated by graphviz version 2.43.0 (0)
 -->
<!-- Title: leanux::block::MajorMinor::getName Pages: 1 -->
<svg width="726pt" height="781pt"
 viewBox="0.00 0.00 726.00 781.00" xmlns="http://www.w3.org/2000/svg" xmlns:xlink="http://www.w3.org/1999/xlink">
<g id="graph0" class="graph" transform="scale(1 1) rotate(0) translate(4 777)">
<title>leanux::block::MajorMinor::getName</title>
<!-- Node1 -->
<g id="node1" class="node">
<title>Node1</title>
<g id="a_node1"><a xlink:title="get the device name for this MajorMinor.">
<polygon fill="#bfbfbf" stroke="black" points="575,-307.5 575,-337.5 718,-337.5 718,-307.5 575,-307.5"/>
<text text-anchor="start" x="583" y="-325.5" font-family="Helvetica,sans-Serif" font-size="10.00">leanux::block::MajorMinor</text>
<text text-anchor="middle" x="646.5" y="-314.5" font-family="Helvetica,sans-Serif" font-size="10.00">::getName</text>
</a>
</g>
</g>
<!-- Node2 -->
<g id="node2" class="node">
<title>Node2</title>
<g id="a_node2"><a xlink:href="../../d5/d1b/namespaceleanux_1_1tools_1_1lblk.html#ab1dd99f5a818f4a86f50527aa9835a0a" target="_top" xlink:title="Write device mapper details.">
<polygon fill="none" stroke="black" points="392.5,-332.5 392.5,-362.5 513.5,-362.5 513.5,-332.5 392.5,-332.5"/>
<text text-anchor="start" x="400.5" y="-350.5" font-family="Helvetica,sans-Serif" font-size="10.00">leanux::tools::lblk</text>
<text text-anchor="middle" x="453" y="-339.5" font-family="Helvetica,sans-Serif" font-size="10.00">::detailDeviceMapper</text>
</a>
</g>
</g>
<!-- Node1&#45;&gt;Node2 -->
<g id="edge1" class="edge">
<title>Node1&#45;&gt;Node2</title>
<path fill="none" stroke="midnightblue" d="M564.77,-333.04C547.68,-335.27 529.94,-337.59 513.79,-339.69"/>
<polygon fill="midnightblue" stroke="midnightblue" points="565.27,-336.5 574.74,-331.74 564.37,-329.56 565.27,-336.5"/>
</g>
<!-- Node6 -->
<g id="node4" class="node">
<title>Node6</title>
<g id="a_node4"><a xlink:href="../../d5/d1b/namespaceleanux_1_1tools_1_1lblk.html#a166e28aa95689343dc660fb59f69b4a1" target="_top" xlink:title="Write generic block device details.">
<polygon fill="none" stroke="black" points="378.5,-283.5 378.5,-313.5 527.5,-313.5 527.5,-283.5 378.5,-283.5"/>
<text text-anchor="start" x="386.5" y="-301.5" font-family="Helvetica,sans-Serif" font-size="10.00">leanux::tools::lblk</text>
<text text-anchor="middle" x="453" y="-290.5" font-family="Helvetica,sans-Serif" font-size="10.00">::detailGenericBlockDevice</text>
</a>
</g>
</g>
<!-- Node1&#45;&gt;Node6 -->
<g id="edge3" class="edge">
<title>Node1&#45;&gt;Node6</title>
<path fill="none" stroke="midnightblue" d="M564.55,-312.36C552.32,-310.82 539.75,-309.25 527.68,-307.73"/>
<polygon fill="midnightblue" stroke="midnightblue" points="564.38,-315.86 574.74,-313.63 565.25,-308.92 564.38,-315.86"/>
</g>
<!-- Node7 -->
<g id="node5" class="node">
<title>Node7</title>
<g id="a_node5"><a xlink:href="../../d5/d1b/namespaceleanux_1_1tools_1_1lblk.html#ac57ae7d9a91a4259052d4ae1da5a36a2" target="_top" xlink:title="Write LVM details.">
<polygon fill="none" stroke="black" points="183.5,-546.5 183.5,-576.5 287.5,-576.5 287.5,-546.5 183.5,-546.5"/>
<text text-anchor="start" x="191.5" y="-564.5" font-family="Helvetica,sans-Serif" font-size="10.00">leanux::tools::lblk</text>
<text text-anchor="middle" x="235.5" y="-553.5" font-family="Helvetica,sans-Serif" font-size="10.00">::detailLVM</text>
</a>
</g>
</g>
<!-- Node1&#45;&gt;Node7 -->
<g id="edge5" class="edge">
<title>Node1&#45;&gt;Node7</title>
<path fill="none" stroke="midnightblue" d="M637.63,-347.6C624.09,-386.44 592.56,-460.59 539,-498.5 463.36,-552.04 352.06,-562.01 287.67,-562.83"/>
<polygon fill="midnightblue" stroke="midnightblue" points="641.11,-348.23 640.98,-337.64 634.48,-346 641.11,-348.23"/>
</g>
<!-- Node8 -->
<g id="node6" class="node">
<title>Node8</title>
<g id="a_node6"><a xlink:href="../../d5/d1b/namespaceleanux_1_1tools_1_1lblk.html#a3ed79ca6c9f478be774a6d9f4a4cb016" target="_top" xlink:title="Write MetaDisk details.">
<polygon fill="none" stroke="black" points="183.5,-742.5 183.5,-772.5 287.5,-772.5 287.5,-742.5 183.5,-742.5"/>
<text text-anchor="start" x="191.5" y="-760.5" font-family="Helvetica,sans-Serif" font-size="10.00">leanux::tools::lblk</text>
<text text-anchor="middle" x="235.5" y="-749.5" font-family="Helvetica,sans-Serif" font-size="10.00">::detailMetaDisk</text>
</a>
</g>
</g>
<!-- Node1&#45;&gt;Node8 -->
<g id="edge7" class="edge">
<title>Node1&#45;&gt;Node8</title>
<path fill="none" stroke="midnightblue" d="M644.85,-347.63C641.9,-409.28 625.82,-569.53 539,-659.5 471.82,-729.12 354.86,-749.35 287.75,-755.18"/>
<polygon fill="midnightblue" stroke="midnightblue" points="648.35,-347.76 645.25,-337.63 641.35,-347.48 648.35,-347.76"/>
</g>
<!-- Node9 -->
<g id="node7" class="node">
<title>Node9</title>
<g id="a_node7"><a xlink:href="../../d5/d01/namespaceleanux_1_1block.html#afaee6721d578e4e9ccbebb7dea5919a6" target="_top" xlink:title="Get a map of MajorMinor to MountInfo from /proc/mounts.">
<polygon fill="none" stroke="black" points="377,-238 377,-257 529,-257 529,-238 377,-238"/>
<text text-anchor="middle" x="453" y="-245" font-family="Helvetica,sans-Serif" font-size="10.00">leanux::block::enumMounts</text>
</a>
</g>
</g>
<!-- Node1&#45;&gt;Node9 -->
<g id="edge9" class="edge">
<title>Node1&#45;&gt;Node9</title>
<path fill="none" stroke="midnightblue" d="M605.37,-303.09C585.61,-293.87 561.3,-283.03 539,-274.5 522.08,-268.03 502.87,-261.83 487,-257.01"/>
<polygon fill="midnightblue" stroke="midnightblue" points="604.14,-306.38 614.68,-307.46 607.12,-300.04 604.14,-306.38"/>
</g>
<!-- Node27 -->
<g id="node13" class="node">
<title>Node27</title>
<g id="a_node13"><a xlink:href="../../d2/d31/classleanux_1_1sysdevice_1_1BlockDevice.html#a575120cf630a3eb5e31b493a9260786f" target="_top" xlink:title=" ">
<polygon fill="none" stroke="black" points="370.5,-188.5 370.5,-218.5 535.5,-218.5 535.5,-188.5 370.5,-188.5"/>
<text text-anchor="start" x="378.5" y="-206.5" font-family="Helvetica,sans-Serif" font-size="10.00">leanux::sysdevice::</text>
<text text-anchor="middle" x="453" y="-195.5" font-family="Helvetica,sans-Serif" font-size="10.00">BlockDevice::getDisplayName</text>
</a>
</g>
</g>
<!-- Node1&#45;&gt;Node27 -->
<g id="edge15" class="edge">
<title>Node1&#45;&gt;Node27</title>
<path fill="none" stroke="midnightblue" d="M625.22,-299.58C605.25,-278.31 572.88,-247.21 539,-228.5 532.13,-224.71 524.63,-221.43 517.01,-218.62"/>
<polygon fill="midnightblue" stroke="midnightblue" points="622.9,-302.22 632.25,-307.2 628.05,-297.47 622.9,-302.22"/>
</g>
<!-- Node28 -->
<g id="node14" class="node">
<title>Node28</title>
<g id="a_node14"><a xlink:href="../../d6/d19/classleanux_1_1sysdevice_1_1BlockPartition.html#ad6e352ab7210d8d47ad2d59478cf31d8" target="_top" xlink:title=" ">
<polygon fill="none" stroke="black" points="367,-139.5 367,-169.5 539,-169.5 539,-139.5 367,-139.5"/>
<text text-anchor="start" x="375" y="-157.5" font-family="Helvetica,sans-Serif" font-size="10.00">leanux::sysdevice::</text>
<text text-anchor="middle" x="453" y="-146.5" font-family="Helvetica,sans-Serif" font-size="10.00">BlockPartition::getDisplayName</text>
</a>
</g>
</g>
<!-- Node1&#45;&gt;Node28 -->
<g id="edge16" class="edge">
<title>Node1&#45;&gt;Node28</title>
<path fill="none" stroke="midnightblue" d="M633.94,-298.11C617.41,-265.88 583.98,-209.57 539,-178.5 534.08,-175.1 528.69,-172.18 523.08,-169.67"/>
<polygon fill="midnightblue" stroke="midnightblue" points="630.92,-299.9 638.52,-307.29 637.18,-296.78 630.92,-299.9"/>
</g>
<!-- Node29 -->
<g id="node15" class="node">
<title>Node29</title>
<g id="a_node15"><a xlink:href="../../d7/d28/classleanux_1_1block_1_1MajorMinor.html#a742f510de3aea2ec0a1eb112e3ca3c1e" target="_top" xlink:title="return the full device path as it appears under /sys/devices/block">
<polygon fill="none" stroke="black" points="381.5,-619.5 381.5,-649.5 524.5,-649.5 524.5,-619.5 381.5,-619.5"/>
<text text-anchor="start" x="389.5" y="-637.5" font-family="Helvetica,sans-Serif" font-size="10.00">leanux::block::MajorMinor</text>
<text text-anchor="middle" x="453" y="-626.5" font-family="Helvetica,sans-Serif" font-size="10.00">::getSysPath</text>
</a>
</g>
</g>
<!-- Node1&#45;&gt;Node29 -->
<g id="edge17" class="edge">
<title>Node1&#45;&gt;Node29</title>
<path fill="none" stroke="midnightblue" d="M637.59,-347.18C622.75,-391.28 587.75,-485.32 539,-553.5 520.27,-579.7 492.28,-604.41 473.6,-619.5"/>
<polygon fill="midnightblue" stroke="midnightblue" points="640.95,-348.18 640.77,-337.58 634.31,-345.98 640.95,-348.18"/>
</g>
<!-- Node48 -->
<g id="node19" class="node">
<title>Node48</title>
<g id="a_node19"><a xlink:href="../../d6/dd3/namespaceleanux_1_1tools_1_1lrep.html#ae4da66e8bfc19d1c979aa5746b3935ba" target="_top" xlink:title=" ">
<polygon fill="none" stroke="black" points="176,-0.5 176,-30.5 295,-30.5 295,-0.5 176,-0.5"/>
<text text-anchor="start" x="184" y="-18.5" font-family="Helvetica,sans-Serif" font-size="10.00">leanux::tools::lrep</text>
<text text-anchor="middle" x="235.5" y="-7.5" font-family="Helvetica,sans-Serif" font-size="10.00">::htmlDiskHolderTree</text>
</a>
</g>
</g>
<!-- Node1&#45;&gt;Node48 -->
<g id="edge24" class="edge">
<title>Node1&#45;&gt;Node48</title>
<path fill="none" stroke="midnightblue" d="M637.75,-297.72C623.97,-257.41 591.64,-177.32 539,-129.5 501.72,-95.63 378.67,-55.75 331,-39.5 319.54,-35.59 307.12,-32 295.15,-28.84"/>
<polygon fill="midnightblue" stroke="midnightblue" points="634.45,-298.91 640.92,-307.3 641.1,-296.71 634.45,-298.91"/>
</g>
<!-- Node52 -->
<g id="node21" class="node">
<title>Node52</title>
<g id="a_node21"><a xlink:href="../../d6/dd3/namespaceleanux_1_1tools_1_1lrep.html#a8634850f0d03b1684c24dd922d0f5bb0" target="_top" xlink:title=" ">
<polygon fill="none" stroke="black" points="383,-12.5 383,-42.5 523,-42.5 523,-12.5 383,-12.5"/>
<text text-anchor="start" x="391" y="-30.5" font-family="Helvetica,sans-Serif" font-size="10.00">leanux::tools::lrep</text>
<text text-anchor="middle" x="453" y="-19.5" font-family="Helvetica,sans-Serif" font-size="10.00">::htmlDiskHolderTreeLine</text>
</a>
</g>
</g>
<!-- Node1&#45;&gt;Node52 -->
<g id="edge26" class="edge">
<title>Node1&#45;&gt;Node52</title>
<path fill="none" stroke="midnightblue" d="M639.45,-297.65C627.14,-251.23 595.45,-150.01 539,-83.5 524.36,-66.25 503.11,-52.25 485.52,-42.57"/>
<polygon fill="midnightblue" stroke="midnightblue" points="636.09,-298.65 641.98,-307.46 642.87,-296.91 636.09,-298.65"/>
</g>
<!-- Node53 -->
<g id="node22" class="node">
<title>Node53</title>
<g id="a_node22"><a xlink:href="../../d5/d1b/namespaceleanux_1_1tools_1_1lblk.html#a0ce6fe01f37dc9d73d699030825432be" target="_top" xlink:title="Write the tree of holders above and including mm, append to tab, starting with level.">
<polygon fill="none" stroke="black" points="401,-458.5 401,-488.5 505,-488.5 505,-458.5 401,-458.5"/>
<text text-anchor="start" x="409" y="-476.5" font-family="Helvetica,sans-Serif" font-size="10.00">leanux::tools::lblk</text>
<text text-anchor="middle" x="453" y="-465.5" font-family="Helvetica,sans-Serif" font-size="10.00">::printHolderTree</text>
</a>
</g>
</g>
<!-- Node1&#45;&gt;Node53 -->
<g id="edge28" class="edge">
<title>Node1&#45;&gt;Node53</title>
<path fill="none" stroke="midnightblue" d="M627.98,-346.01C608.49,-370.86 574.98,-409.94 539,-435.5 526.09,-444.67 510.6,-452.39 496.41,-458.43"/>
<polygon fill="midnightblue" stroke="midnightblue" points="630.93,-347.91 634.27,-337.86 625.39,-343.63 630.93,-347.91"/>
</g>
<!-- Node55 -->
<g id="node24" class="node">
<title>Node55</title>
<g id="a_node24"><a xlink:href="../../d5/d1b/namespaceleanux_1_1tools_1_1lblk.html#a514a93d2172ba20b92f77ba1062d822c" target="_top" xlink:title="Write the tree of slaves beneath and including mm, append to tab, starting with level.">
<polygon fill="none" stroke="black" points="401,-395.5 401,-425.5 505,-425.5 505,-395.5 401,-395.5"/>
<text text-anchor="start" x="409" y="-413.5" font-family="Helvetica,sans-Serif" font-size="10.00">leanux::tools::lblk</text>
<text text-anchor="middle" x="453" y="-402.5" font-family="Helvetica,sans-Serif" font-size="10.00">::printSlaveTree</text>
</a>
</g>
</g>
<!-- Node1&#45;&gt;Node55 -->
<g id="edge32" class="edge">
<title>Node1&#45;&gt;Node55</title>
<path fill="none" stroke="midnightblue" d="M604.82,-341.81C585.01,-351.17 560.8,-362.51 539,-372.5 522.25,-380.18 503.56,-388.55 487.98,-395.48"/>
<polygon fill="midnightblue" stroke="midnightblue" points="606.34,-344.97 613.88,-337.53 603.35,-338.64 606.34,-344.97"/>
</g>
<!-- Node3 -->
<g id="node3" class="node">
<title>Node3</title>
<g id="a_node3"><a xlink:href="../../d5/d1b/namespaceleanux_1_1tools_1_1lblk.html#aafee1346a1081bfa4f7470f921cd66b8" target="_top" xlink:title="Direct output run from options.">
<polygon fill="none" stroke="red" points="0,-458.5 0,-488.5 104,-488.5 104,-458.5 0,-458.5"/>
<text text-anchor="start" x="8" y="-476.5" font-family="Helvetica,sans-Serif" font-size="10.00">leanux::tools::lblk</text>
<text text-anchor="middle" x="52" y="-465.5" font-family="Helvetica,sans-Serif" font-size="10.00">::runOptions</text>
</a>
</g>
</g>
<!-- Node2&#45;&gt;Node3 -->
<g id="edge2" class="edge">
<title>Node2&#45;&gt;Node3</title>
<path fill="none" stroke="midnightblue" d="M382.19,-340.28C316.22,-336.58 216.29,-339.21 140,-377.5 103.61,-395.76 75.19,-436.19 61.66,-458.31"/>
<polygon fill="midnightblue" stroke="midnightblue" points="382.27,-343.8 392.47,-340.93 382.71,-336.81 382.27,-343.8"/>
</g>
<!-- Node6&#45;&gt;Node3 -->
<g id="edge4" class="edge">
<title>Node6&#45;&gt;Node3</title>
<path fill="none" stroke="midnightblue" d="M368.25,-289.29C301.43,-286.14 208.08,-291.51 140,-334.5 93.3,-363.99 67.42,-428.61 57.62,-458.18"/>
<polygon fill="midnightblue" stroke="midnightblue" points="368.15,-292.79 378.32,-289.84 368.53,-285.8 368.15,-292.79"/>
</g>
<!-- Node7&#45;&gt;Node3 -->
<g id="edge6" class="edge">
<title>Node7&#45;&gt;Node3</title>
<path fill="none" stroke="midnightblue" d="M173.91,-545.05C162.42,-541.16 150.67,-536.62 140,-531.5 115.13,-519.56 89.12,-501.35 72.09,-488.53"/>
<polygon fill="midnightblue" stroke="midnightblue" points="172.87,-548.39 183.46,-548.17 175.04,-541.74 172.87,-548.39"/>
</g>
<!-- Node8&#45;&gt;Node3 -->
<g id="edge8" class="edge">
<title>Node8&#45;&gt;Node3</title>
<path fill="none" stroke="midnightblue" d="M173.51,-751.42C161.25,-747.77 149.3,-742.13 140,-733.5 66.57,-665.33 55.08,-533.48 53.31,-488.76"/>
<polygon fill="midnightblue" stroke="midnightblue" points="172.81,-754.85 183.37,-753.94 174.55,-748.07 172.81,-754.85"/>
</g>
<!-- Node10 -->
<g id="node8" class="node">
<title>Node10</title>
<g id="a_node8"><a xlink:href="../../d7/d28/classleanux_1_1block_1_1MajorMinor.html#a6360a7c70665f9615ddb4682f96866b1" target="_top" xlink:title="get MountInfo on devices with a mounted filesystem.">
<polygon fill="none" stroke="red" points="164,-196.5 164,-226.5 307,-226.5 307,-196.5 164,-196.5"/>
<text text-anchor="start" x="172" y="-214.5" font-family="Helvetica,sans-Serif" font-size="10.00">leanux::block::MajorMinor</text>
<text text-anchor="middle" x="235.5" y="-203.5" font-family="Helvetica,sans-Serif" font-size="10.00">::getMountInfo</text>
</a>
</g>
</g>
<!-- Node9&#45;&gt;Node10 -->
<g id="edge10" class="edge">
<title>Node9&#45;&gt;Node10</title>
<path fill="none" stroke="midnightblue" d="M385.09,-236.32C360.37,-232.19 332.28,-227.5 307.23,-223.32"/>
<polygon fill="midnightblue" stroke="midnightblue" points="384.66,-239.8 395.1,-237.99 385.81,-232.89 384.66,-239.8"/>
</g>
<!-- Node12 -->
<g id="node9" class="node">
<title>Node12</title>
<g id="a_node9"><a xlink:href="../../d8/d7f/classleanux_1_1tools_1_1lmon_1_1IOView.html#a466bf2f2261b917b31ae2664ec8fbed0" target="_top" xlink:title="provide the optimal height for the Header.">
<polygon fill="none" stroke="red" points="161,-147.5 161,-177.5 310,-177.5 310,-147.5 161,-147.5"/>
<text text-anchor="start" x="169" y="-165.5" font-family="Helvetica,sans-Serif" font-size="10.00">leanux::tools::lmon</text>
<text text-anchor="middle" x="235.5" y="-154.5" font-family="Helvetica,sans-Serif" font-size="10.00">::IOView::getOptimalHeight</text>
</a>
</g>
</g>
<!-- Node9&#45;&gt;Node12 -->
<g id="edge11" class="edge">
<title>Node9&#45;&gt;Node12</title>
<path fill="none" stroke="midnightblue" d="M378.55,-234.29C374.54,-232.59 370.66,-230.67 367,-228.5 346.14,-216.13 351.62,-200.27 331,-187.5 324.51,-183.48 317.38,-180.1 310.03,-177.26"/>
<polygon fill="midnightblue" stroke="midnightblue" points="377.5,-237.64 388.09,-237.88 379.97,-231.09 377.5,-237.64"/>
</g>
<!-- Node19 -->
<g id="node10" class="node">
<title>Node19</title>
<g id="a_node10"><a xlink:href="../../da/d21/classleanux_1_1tools_1_1lmon_1_1RealtimeSampler.html#ae43e18aacfceb09eb9bd70db9c67fc98" target="_top" xlink:title=" ">
<polygon fill="none" stroke="red" points="140,-98.5 140,-128.5 331,-128.5 331,-98.5 140,-98.5"/>
<text text-anchor="start" x="148" y="-116.5" font-family="Helvetica,sans-Serif" font-size="10.00">leanux::tools::lmon</text>
<text text-anchor="middle" x="235.5" y="-105.5" font-family="Helvetica,sans-Serif" font-size="10.00">::RealtimeSampler::sampleXIOView</text>
</a>
</g>
</g>
<!-- Node9&#45;&gt;Node19 -->
<g id="edge12" class="edge">
<title>Node9&#45;&gt;Node19</title>
<path fill="none" stroke="midnightblue" d="M373.21,-233.12C371.04,-231.71 368.96,-230.18 367,-228.5 333.93,-200.25 363.66,-166.23 331,-137.5 327.19,-134.15 322.97,-131.25 318.5,-128.75"/>
<polygon fill="midnightblue" stroke="midnightblue" points="371.53,-236.19 381.98,-237.95 374.91,-230.06 371.53,-236.19"/>
</g>
<!-- Node22 -->
<g id="node11" class="node">
<title>Node22</title>
<g id="a_node11"><a xlink:href="../../d0/db5/classleanux_1_1tools_1_1lard_1_1MountSnap.html#a03ffa5736036aaed951d16b51d181c29" target="_top" xlink:title=" ">
<polygon fill="none" stroke="red" points="171.5,-49.5 171.5,-79.5 299.5,-79.5 299.5,-49.5 171.5,-49.5"/>
<text text-anchor="start" x="179.5" y="-67.5" font-family="Helvetica,sans-Serif" font-size="10.00">leanux::tools::lard</text>
<text text-anchor="middle" x="235.5" y="-56.5" font-family="Helvetica,sans-Serif" font-size="10.00">::MountSnap::stopSnap</text>
</a>
</g>
</g>
<!-- Node9&#45;&gt;Node22 -->
<g id="edge13" class="edge">
<title>Node9&#45;&gt;Node22</title>
<path fill="none" stroke="midnightblue" d="M371.63,-232.48C370.01,-231.24 368.47,-229.92 367,-228.5 320.85,-183.8 376.5,-133.86 331,-88.5 322.49,-80.01 311.43,-74.39 299.89,-70.69"/>
<polygon fill="midnightblue" stroke="midnightblue" points="369.91,-235.53 380.23,-237.91 373.65,-229.61 369.91,-235.53"/>
</g>
<!-- Node26 -->
<g id="node12" class="node">
<title>Node26</title>
<g id="a_node12"><a xlink:href="../../d0/db5/classleanux_1_1tools_1_1lard_1_1MountSnap.html#a7288efb64fc31818416b8c52c4ba3a0d" target="_top" xlink:title=" ">
<polygon fill="none" stroke="red" points="169.5,-245.5 169.5,-275.5 301.5,-275.5 301.5,-245.5 169.5,-245.5"/>
<text text-anchor="start" x="177.5" y="-263.5" font-family="Helvetica,sans-Serif" font-size="10.00">leanux::tools::lard</text>
<text text-anchor="middle" x="235.5" y="-252.5" font-family="Helvetica,sans-Serif" font-size="10.00">::MountSnap::storeSnap</text>
</a>
</g>
</g>
<!-- Node9&#45;&gt;Node26 -->
<g id="edge14" class="edge">
<title>Node9&#45;&gt;Node26</title>
<path fill="none" stroke="midnightblue" d="M366.74,-252.64C345.06,-253.95 322.11,-255.34 301.62,-256.57"/>
<polygon fill="midnightblue" stroke="midnightblue" points="367.16,-256.12 376.93,-252.03 366.74,-249.14 367.16,-256.12"/>
</g>
<!-- Node29&#45;&gt;Node7 -->
<g id="edge20" class="edge">
<title>Node29&#45;&gt;Node7</title>
<path fill="none" stroke="midnightblue" d="M407.82,-615.51C385.1,-606.12 356.83,-595.01 331,-586.5 317.14,-581.93 301.92,-577.62 287.83,-573.89"/>
<polygon fill="midnightblue" stroke="midnightblue" points="406.62,-618.8 417.2,-619.42 409.31,-612.34 406.62,-618.8"/>
</g>
<!-- Node29&#45;&gt;Node8 -->
<g id="edge21" class="edge">
<title>Node29&#45;&gt;Node8</title>
<path fill="none" stroke="midnightblue" d="M430.8,-656.85C408.15,-679.43 370.19,-713.73 331,-733.5 317.55,-740.29 302.03,-745.25 287.5,-748.85"/>
<polygon fill="midnightblue" stroke="midnightblue" points="433.34,-659.25 437.87,-649.68 428.36,-654.34 433.34,-659.25"/>
</g>
<!-- Node30 -->
<g id="node16" class="node">
<title>Node30</title>
<g id="a_node16"><a xlink:href="../../d5/d1b/namespaceleanux_1_1tools_1_1lblk.html#ade16c362a9900ba9267433bf57da42ce" target="_top" xlink:title="Write disk details.">
<polygon fill="none" stroke="black" points="183.5,-693.5 183.5,-723.5 287.5,-723.5 287.5,-693.5 183.5,-693.5"/>
<text text-anchor="start" x="191.5" y="-711.5" font-family="Helvetica,sans-Serif" font-size="10.00">leanux::tools::lblk</text>
<text text-anchor="middle" x="235.5" y="-700.5" font-family="Helvetica,sans-Serif" font-size="10.00">::detailDisk</text>
</a>
</g>
</g>
<!-- Node29&#45;&gt;Node30 -->
<g id="edge18" class="edge">
<title>Node29&#45;&gt;Node30</title>
<path fill="none" stroke="midnightblue" d="M409.65,-653.75C386.68,-663.74 357.62,-675.67 331,-684.5 317.18,-689.08 301.98,-693.3 287.89,-696.87"/>
<polygon fill="midnightblue" stroke="midnightblue" points="411.35,-656.82 419.1,-649.6 408.54,-650.41 411.35,-656.82"/>
</g>
<!-- Node31 -->
<g id="node17" class="node">
<title>Node31</title>
<g id="a_node17"><a xlink:href="../../d7/d28/classleanux_1_1block_1_1MajorMinor.html#a55e3a0a84afa637e63e70a21b0b6a11b" target="_top" xlink:title="Get the ATA port for the block MajorMinor.">
<polygon fill="none" stroke="black" points="164,-644.5 164,-674.5 307,-674.5 307,-644.5 164,-644.5"/>
<text text-anchor="start" x="172" y="-662.5" font-family="Helvetica,sans-Serif" font-size="10.00">leanux::block::MajorMinor</text>
<text text-anchor="middle" x="235.5" y="-651.5" font-family="Helvetica,sans-Serif" font-size="10.00">::getATAPort</text>
</a>
</g>
</g>
<!-- Node29&#45;&gt;Node31 -->
<g id="edge22" class="edge">
<title>Node29&#45;&gt;Node31</title>
<path fill="none" stroke="midnightblue" d="M371.24,-643.87C350.2,-646.31 327.7,-648.92 307.22,-651.3"/>
<polygon fill="midnightblue" stroke="midnightblue" points="371.91,-647.32 381.44,-642.69 371.1,-640.36 371.91,-647.32"/>
</g>
<!-- Node32 -->
<g id="node18" class="node">
<title>Node32</title>
<g id="a_node18"><a xlink:href="../../d7/d28/classleanux_1_1block_1_1MajorMinor.html#a314abee5e9b9cc4c609d54e61103863a" target="_top" xlink:title="get performance statistics for the block device specified by MajorMinor.">
<polygon fill="none" stroke="red" points="164,-595.5 164,-625.5 307,-625.5 307,-595.5 164,-595.5"/>
<text text-anchor="start" x="172" y="-613.5" font-family="Helvetica,sans-Serif" font-size="10.00">leanux::block::MajorMinor</text>
<text text-anchor="middle" x="235.5" y="-602.5" font-family="Helvetica,sans-Serif" font-size="10.00">::getStats</text>
</a>
</g>
</g>
<!-- Node29&#45;&gt;Node32 -->
<g id="edge23" class="edge">
<title>Node29&#45;&gt;Node32</title>
<path fill="none" stroke="midnightblue" d="M371.24,-625.51C350.2,-623.16 327.7,-620.66 307.22,-618.38"/>
<polygon fill="midnightblue" stroke="midnightblue" points="371.11,-629.01 381.44,-626.64 371.89,-622.06 371.11,-629.01"/>
</g>
<!-- Node30&#45;&gt;Node3 -->
<g id="edge19" class="edge">
<title>Node30&#45;&gt;Node3</title>
<path fill="none" stroke="midnightblue" d="M173.56,-701.82C161.41,-698.2 149.49,-692.72 140,-684.5 78.47,-631.16 59.66,-527.49 54.64,-488.67"/>
<polygon fill="midnightblue" stroke="midnightblue" points="172.75,-705.23 183.31,-704.35 174.51,-698.45 172.75,-705.23"/>
</g>
<!-- Node49 -->
<g id="node20" class="node">
<title>Node49</title>
<g id="a_node20"><a xlink:href="../../d6/dd3/namespaceleanux_1_1tools_1_1lrep.html#ab9b4bc8a1806ab977597271e15f34c11" target="_top" xlink:title=" ">
<polygon fill="none" stroke="red" points="0,-0.5 0,-30.5 104,-30.5 104,-0.5 0,-0.5"/>
<text text-anchor="start" x="8" y="-18.5" font-family="Helvetica,sans-Serif" font-size="10.00">leanux::tools::lrep</text>
<text text-anchor="middle" x="52" y="-7.5" font-family="Helvetica,sans-Serif" font-size="10.00">::htmlDiskDetails</text>
</a>
</g>
</g>
<!-- Node48&#45;&gt;Node49 -->
<g id="edge25" class="edge">
<title>Node48&#45;&gt;Node49</title>
<path fill="none" stroke="midnightblue" d="M165.63,-15.5C145.21,-15.5 123.23,-15.5 104.14,-15.5"/>
<polygon fill="midnightblue" stroke="midnightblue" points="165.82,-19 175.82,-15.5 165.82,-12 165.82,-19"/>
</g>
<!-- Node52&#45;&gt;Node48 -->
<g id="edge27" class="edge">
<title>Node52&#45;&gt;Node48</title>
<path fill="none" stroke="midnightblue" d="M372.82,-23.09C347.08,-21.66 319.01,-20.09 295.06,-18.76"/>
<polygon fill="midnightblue" stroke="midnightblue" points="372.75,-26.59 382.93,-23.65 373.14,-19.6 372.75,-26.59"/>
</g>
<!-- Node53&#45;&gt;Node3 -->
<g id="edge31" class="edge">
<title>Node53&#45;&gt;Node3</title>
<path fill="none" stroke="midnightblue" d="M391.07,-488.61C371.96,-492.67 350.72,-496.48 331,-498.5 246.55,-507.13 224.06,-510.34 140,-498.5 125.53,-496.46 110.09,-492.61 96.3,-488.52"/>
<polygon fill="midnightblue" stroke="midnightblue" points="391.82,-492.03 400.84,-486.48 390.32,-485.19 391.82,-492.03"/>
</g>
<!-- Node54 -->
<g id="node23" class="node">
<title>Node54</title>
<g id="a_node23"><a xlink:href="../../d5/d1b/namespaceleanux_1_1tools_1_1lblk.html#a3ad2e43162ca1213c491e96d5d2a5a9c" target="_top" xlink:title="Table listing LVM devices.">
<polygon fill="none" stroke="black" points="183.5,-458.5 183.5,-488.5 287.5,-488.5 287.5,-458.5 183.5,-458.5"/>
<text text-anchor="start" x="191.5" y="-476.5" font-family="Helvetica,sans-Serif" font-size="10.00">leanux::tools::lblk</text>
<text text-anchor="middle" x="235.5" y="-465.5" font-family="Helvetica,sans-Serif" font-size="10.00">::listLVM</text>
</a>
</g>
</g>
<!-- Node53&#45;&gt;Node54 -->
<g id="edge29" class="edge">
<title>Node53&#45;&gt;Node54</title>
<path fill="none" stroke="midnightblue" d="M390.62,-473.5C358.03,-473.5 318.46,-473.5 287.58,-473.5"/>
<polygon fill="midnightblue" stroke="midnightblue" points="390.93,-477 400.93,-473.5 390.93,-470 390.93,-477"/>
</g>
<!-- Node54&#45;&gt;Node3 -->
<g id="edge30" class="edge">
<title>Node54&#45;&gt;Node3</title>
<path fill="none" stroke="midnightblue" d="M173.36,-473.5C150.92,-473.5 125.77,-473.5 104.29,-473.5"/>
<polygon fill="midnightblue" stroke="midnightblue" points="173.46,-477 183.46,-473.5 173.46,-470 173.46,-477"/>
</g>
<!-- Node55&#45;&gt;Node3 -->
<g id="edge36" class="edge">
<title>Node55&#45;&gt;Node3</title>
<path fill="none" stroke="midnightblue" d="M390.72,-395.43C326.23,-382.54 222.78,-370.37 140,-400.5 108.5,-411.96 80.47,-440.39 65.19,-458.2"/>
<polygon fill="midnightblue" stroke="midnightblue" points="390.23,-398.9 400.73,-397.5 391.65,-392.05 390.23,-398.9"/>
</g>
<!-- Node55&#45;&gt;Node54 -->
<g id="edge35" class="edge">
<title>Node55&#45;&gt;Node54</title>
<path fill="none" stroke="midnightblue" d="M398.03,-428.7C377.18,-435.52 353.06,-443.15 331,-449.5 317.01,-453.53 301.76,-457.56 287.66,-461.13"/>
<polygon fill="midnightblue" stroke="midnightblue" points="399.26,-431.98 407.67,-425.53 397.08,-425.33 399.26,-431.98"/>
</g>
<!-- Node56 -->
<g id="node25" class="node">
<title>Node56</title>
<g id="a_node25"><a xlink:href="../../d5/d1b/namespaceleanux_1_1tools_1_1lblk.html#ae7d5c6185a714de483a152b1846eadcb" target="_top" xlink:title="Table listing all storage needed for the filesystem containing file.">
<polygon fill="none" stroke="black" points="183.5,-409.5 183.5,-439.5 287.5,-439.5 287.5,-409.5 183.5,-409.5"/>
<text text-anchor="start" x="191.5" y="-427.5" font-family="Helvetica,sans-Serif" font-size="10.00">leanux::tools::lblk</text>
<text text-anchor="middle" x="235.5" y="-416.5" font-family="Helvetica,sans-Serif" font-size="10.00">::listFile</text>
</a>
</g>
</g>
<!-- Node55&#45;&gt;Node56 -->
<g id="edge33" class="edge">
<title>Node55&#45;&gt;Node56</title>
<path fill="none" stroke="midnightblue" d="M390.62,-414.49C358.03,-416.6 318.46,-419.18 287.58,-421.18"/>
<polygon fill="midnightblue" stroke="midnightblue" points="391.18,-417.96 400.93,-413.82 390.72,-410.97 391.18,-417.96"/>
</g>
<!-- Node56&#45;&gt;Node3 -->
<g id="edge34" class="edge">
<title>Node56&#45;&gt;Node3</title>
<path fill="none" stroke="midnightblue" d="M173.73,-440.47C162.51,-443.45 150.9,-446.56 140,-449.5 128.35,-452.65 115.84,-456.07 104.04,-459.32"/>
<polygon fill="midnightblue" stroke="midnightblue" points="174.7,-443.84 183.47,-437.9 172.91,-437.07 174.7,-443.84"/>
</g>
</g>
</svg>
