<?xml version="1.0" encoding="UTF-8" standalone="no"?>
<!DOCTYPE svg PUBLIC "-//W3C//DTD SVG 1.1//EN"
 "http://www.w3.org/Graphics/SVG/1.1/DTD/svg11.dtd">
<!-- Generated by graphviz version 2.43.0 (0)
 -->
<!-- Title: leanux::block::MajorMinor::MajorMinor Pages: 1 -->
<svg width="703pt" height="266pt"
 viewBox="0.00 0.00 703.00 265.66" xmlns="http://www.w3.org/2000/svg" xmlns:xlink="http://www.w3.org/1999/xlink">
<g id="graph0" class="graph" transform="scale(1 1) rotate(0) translate(4 261.66)">
<title>leanux::block::MajorMinor::MajorMinor</title>
<!-- Node1 -->
<g id="node1" class="node">
<title>Node1</title>
<g id="a_node1"><a xlink:title="Default constructor.">
<polygon fill="#bfbfbf" stroke="black" points="552,-63.5 552,-93.5 695,-93.5 695,-63.5 552,-63.5"/>
<text text-anchor="start" x="560" y="-81.5" font-family="Helvetica,sans-Serif" font-size="10.00">leanux::block::MajorMinor</text>
<text text-anchor="middle" x="623.5" y="-70.5" font-family="Helvetica,sans-Serif" font-size="10.00">::MajorMinor</text>
</a>
</g>
</g>
<!-- Node2 -->
<g id="node2" class="node">
<title>Node2</title>
<g id="a_node2"><a xlink:href="../../d7/d28/classleanux_1_1block_1_1MajorMinor.html#a4d83c063088eb618533f31e2cc78b2f3" target="_top" xlink:title="(re)build the cached mapping between device names and MajorMinor numbers.">
<polygon fill="none" stroke="black" points="373,-110.5 373,-140.5 516,-140.5 516,-110.5 373,-110.5"/>
<text text-anchor="start" x="381" y="-128.5" font-family="Helvetica,sans-Serif" font-size="10.00">leanux::block::MajorMinor</text>
<text text-anchor="middle" x="444.5" y="-117.5" font-family="Helvetica,sans-Serif" font-size="10.00">::buildCache</text>
</a>
</g>
</g>
<!-- Node1&#45;&gt;Node2 -->
<g id="edge1" class="edge">
<title>Node1&#45;&gt;Node2</title>
<path fill="none" stroke="midnightblue" d="M556.26,-96.09C538.43,-100.82 519.31,-105.9 502.06,-110.48"/>
<polygon fill="midnightblue" stroke="midnightblue" points="557.24,-99.45 566.01,-93.5 555.45,-92.68 557.24,-99.45"/>
</g>
<!-- Node21 -->
<g id="node6" class="node">
<title>Node21</title>
<g id="a_node6"><a xlink:href="../../d7/d28/classleanux_1_1block_1_1MajorMinor.html#a5771b2baf04dd79e61c5bcd3f4ec532c" target="_top" xlink:title="Derive the MajorMinor of the whole disk holding a partition.">
<polygon fill="none" stroke="red" points="0,-208.5 0,-238.5 143,-238.5 143,-208.5 0,-208.5"/>
<text text-anchor="start" x="8" y="-226.5" font-family="Helvetica,sans-Serif" font-size="10.00">leanux::block::MajorMinor</text>
<text text-anchor="middle" x="71.5" y="-215.5" font-family="Helvetica,sans-Serif" font-size="10.00">::deriveWholeDisk</text>
</a>
</g>
</g>
<!-- Node1&#45;&gt;Node21 -->
<g id="edge10" class="edge">
<title>Node1&#45;&gt;Node21</title>
<path fill="none" stroke="midnightblue" d="M597.65,-100.22C550.69,-139.57 444.03,-221.12 337,-248.5 264.39,-267.08 177.38,-252 123.52,-238.5"/>
<polygon fill="midnightblue" stroke="midnightblue" points="600.08,-102.75 605.44,-93.61 595.55,-97.41 600.08,-102.75"/>
</g>
<!-- Node71 -->
<g id="node8" class="node">
<title>Node71</title>
<g id="a_node8"><a xlink:href="../../d7/d28/classleanux_1_1block_1_1MajorMinor.html#ad5d99ca38ec1da09595471284c8f0781" target="_top" xlink:title="Get the raid disks participating in the MD array specified my MajorMinor.">
<polygon fill="none" stroke="red" points="0,-90.5 0,-120.5 143,-120.5 143,-90.5 0,-90.5"/>
<text text-anchor="start" x="8" y="-108.5" font-family="Helvetica,sans-Serif" font-size="10.00">leanux::block::MajorMinor</text>
<text text-anchor="middle" x="71.5" y="-97.5" font-family="Helvetica,sans-Serif" font-size="10.00">::getMDRaidDisks</text>
</a>
</g>
</g>
<!-- Node1&#45;&gt;Node71 -->
<g id="edge11" class="edge">
<title>Node1&#45;&gt;Node71</title>
<path fill="none" stroke="midnightblue" d="M548.73,-61.42C459.81,-43.73 306.42,-22.55 179,-52.5 148.04,-59.78 115.79,-77.48 95,-90.43"/>
<polygon fill="midnightblue" stroke="midnightblue" points="548.23,-64.89 558.72,-63.45 549.62,-58.03 548.23,-64.89"/>
</g>
<!-- Node132 -->
<g id="node9" class="node">
<title>Node132</title>
<g id="a_node9"><a xlink:href="../../d7/d28/classleanux_1_1block_1_1MajorMinor.html#ad5136fe7853cb6f2ca04eadb465976da" target="_top" xlink:title=" ">
<polygon fill="none" stroke="red" points="0,-0.5 0,-30.5 143,-30.5 143,-0.5 0,-0.5"/>
<text text-anchor="start" x="8" y="-18.5" font-family="Helvetica,sans-Serif" font-size="10.00">leanux::block::MajorMinor</text>
<text text-anchor="middle" x="71.5" y="-7.5" font-family="Helvetica,sans-Serif" font-size="10.00">::isPartition</text>
</a>
</g>
</g>
<!-- Node1&#45;&gt;Node132 -->
<g id="edge12" class="edge">
<title>Node1&#45;&gt;Node132</title>
<path fill="none" stroke="midnightblue" d="M584.27,-58.89C564.44,-49.72 539.5,-39.69 516,-34.5 386.94,-6 231.76,-7.16 143.38,-11.03"/>
<polygon fill="midnightblue" stroke="midnightblue" points="583.03,-62.18 593.56,-63.3 586.03,-55.86 583.03,-62.18"/>
</g>
<!-- Node3 -->
<g id="node3" class="node">
<title>Node3</title>
<g id="a_node3"><a xlink:href="../../d7/d28/classleanux_1_1block_1_1MajorMinor.html#adbc85a06dc6d8aa13cb646b63d6c4d41" target="_top" xlink:title="Get the DeviceFile for the MajorMinor, such as &#39;/dev/sda&#39;.">
<polygon fill="none" stroke="black" points="179,-159.5 179,-189.5 337,-189.5 337,-159.5 179,-159.5"/>
<text text-anchor="start" x="187" y="-177.5" font-family="Helvetica,sans-Serif" font-size="10.00">leanux::block::MajorMinor</text>
<text text-anchor="middle" x="258" y="-166.5" font-family="Helvetica,sans-Serif" font-size="10.00">::getDeviceFileByMajorMinor</text>
</a>
</g>
</g>
<!-- Node2&#45;&gt;Node3 -->
<g id="edge2" class="edge">
<title>Node2&#45;&gt;Node3</title>
<path fill="none" stroke="midnightblue" d="M377.14,-143.12C356.96,-148.48 334.97,-154.32 315.5,-159.49"/>
<polygon fill="midnightblue" stroke="midnightblue" points="378.12,-146.48 386.89,-140.53 376.33,-139.72 378.12,-146.48"/>
</g>
<!-- Node4 -->
<g id="node4" class="node">
<title>Node4</title>
<g id="a_node4"><a xlink:href="../../d7/d28/classleanux_1_1block_1_1MajorMinor.html#a1eacb57963e0a088ef493d4cd23ea650" target="_top" xlink:title=" ">
<polygon fill="none" stroke="black" points="179,-61.5 179,-91.5 337,-91.5 337,-61.5 179,-61.5"/>
<text text-anchor="start" x="187" y="-79.5" font-family="Helvetica,sans-Serif" font-size="10.00">leanux::block::MajorMinor</text>
<text text-anchor="middle" x="258" y="-68.5" font-family="Helvetica,sans-Serif" font-size="10.00">::getMajorMinorByDeviceFile</text>
</a>
</g>
</g>
<!-- Node2&#45;&gt;Node4 -->
<g id="edge3" class="edge">
<title>Node2&#45;&gt;Node4</title>
<path fill="none" stroke="midnightblue" d="M377.14,-107.88C356.96,-102.52 334.97,-96.68 315.5,-91.51"/>
<polygon fill="midnightblue" stroke="midnightblue" points="376.33,-111.28 386.89,-110.47 378.12,-104.52 376.33,-111.28"/>
</g>
<!-- Node5 -->
<g id="node5" class="node">
<title>Node5</title>
<g id="a_node5"><a xlink:href="../../d7/d28/classleanux_1_1block_1_1MajorMinor.html#a3f7315088bb27e09449e3c2542b65958" target="_top" xlink:title="Get the MajorMinor for the device name.">
<polygon fill="none" stroke="red" points="186.5,-208.5 186.5,-238.5 329.5,-238.5 329.5,-208.5 186.5,-208.5"/>
<text text-anchor="start" x="194.5" y="-226.5" font-family="Helvetica,sans-Serif" font-size="10.00">leanux::block::MajorMinor</text>
<text text-anchor="middle" x="258" y="-215.5" font-family="Helvetica,sans-Serif" font-size="10.00">::getMajorMinorByName</text>
</a>
</g>
</g>
<!-- Node2&#45;&gt;Node5 -->
<g id="edge4" class="edge">
<title>Node2&#45;&gt;Node5</title>
<path fill="none" stroke="midnightblue" d="M417.36,-147.11C396.63,-163.37 366.36,-185.21 337,-199.5 330.25,-202.79 322.95,-205.74 315.62,-208.36"/>
<polygon fill="midnightblue" stroke="midnightblue" points="419.72,-149.71 425.36,-140.74 415.36,-144.23 419.72,-149.71"/>
</g>
<!-- Node53 -->
<g id="node7" class="node">
<title>Node53</title>
<g id="a_node7"><a xlink:href="../../d7/d28/classleanux_1_1block_1_1MajorMinor.html#adc3f437e329318ee21bddbbebaeb740e" target="_top" xlink:title="Get the DeviceName for the MajorMinor.">
<polygon fill="none" stroke="red" points="186.5,-110.5 186.5,-140.5 329.5,-140.5 329.5,-110.5 186.5,-110.5"/>
<text text-anchor="start" x="194.5" y="-128.5" font-family="Helvetica,sans-Serif" font-size="10.00">leanux::block::MajorMinor</text>
<text text-anchor="middle" x="258" y="-117.5" font-family="Helvetica,sans-Serif" font-size="10.00">::getNameByMajorMinor</text>
</a>
</g>
</g>
<!-- Node2&#45;&gt;Node53 -->
<g id="edge6" class="edge">
<title>Node2&#45;&gt;Node53</title>
<path fill="none" stroke="midnightblue" d="M362.84,-125.5C351.74,-125.5 340.41,-125.5 329.5,-125.5"/>
<polygon fill="midnightblue" stroke="midnightblue" points="362.96,-129 372.96,-125.5 362.96,-122 362.96,-129"/>
</g>
<!-- Node5&#45;&gt;Node21 -->
<g id="edge5" class="edge">
<title>Node5&#45;&gt;Node21</title>
<path fill="none" stroke="midnightblue" d="M176.34,-223.5C165.24,-223.5 153.91,-223.5 143,-223.5"/>
<polygon fill="midnightblue" stroke="midnightblue" points="176.46,-227 186.46,-223.5 176.46,-220 176.46,-227"/>
</g>
<!-- Node53&#45;&gt;Node21 -->
<g id="edge7" class="edge">
<title>Node53&#45;&gt;Node21</title>
<path fill="none" stroke="midnightblue" d="M193.36,-144.17C188.43,-146.14 183.59,-148.25 179,-150.5 145.99,-166.67 111.56,-192.08 91.09,-208.26"/>
<polygon fill="midnightblue" stroke="midnightblue" points="194.78,-147.38 202.9,-140.57 192.31,-140.83 194.78,-147.38"/>
</g>
<!-- Node53&#45;&gt;Node71 -->
<g id="edge8" class="edge">
<title>Node53&#45;&gt;Node71</title>
<path fill="none" stroke="midnightblue" d="M176.34,-116.76C165.24,-115.55 153.91,-114.32 143,-113.14"/>
<polygon fill="midnightblue" stroke="midnightblue" points="176.14,-120.26 186.46,-117.85 176.89,-113.3 176.14,-120.26"/>
</g>
<!-- Node53&#45;&gt;Node132 -->
<g id="edge9" class="edge">
<title>Node53&#45;&gt;Node132</title>
<path fill="none" stroke="midnightblue" d="M189.35,-106.48C185.8,-104.93 182.32,-103.27 179,-101.5 142.7,-82.19 106.83,-49.7 87.38,-30.67"/>
<polygon fill="midnightblue" stroke="midnightblue" points="188.33,-109.84 198.91,-110.35 190.96,-103.36 188.33,-109.84"/>
</g>
</g>
</svg>
