<?xml version="1.0" encoding="UTF-8" standalone="no"?>
<!DOCTYPE svg PUBLIC "-//W3C//DTD SVG 1.1//EN"
 "http://www.w3.org/Graphics/SVG/1.1/DTD/svg11.dtd">
<!-- Generated by graphviz version 2.43.0 (0)
 -->
<!-- Title: leanux::block::MajorMinor::getMajorMinorByName Pages: 1 -->
<svg width="509pt" height="78pt"
 viewBox="0.00 0.00 509.00 77.50" xmlns="http://www.w3.org/2000/svg" xmlns:xlink="http://www.w3.org/1999/xlink">
<g id="graph0" class="graph" transform="scale(1 1) rotate(0) translate(4 73.5)">
<title>leanux::block::MajorMinor::getMajorMinorByName</title>
<!-- Node1 -->
<g id="node1" class="node">
<title>Node1</title>
<g id="a_node1"><a xlink:title="Get the MajorMinor for the device name.">
<polygon fill="#bfbfbf" stroke="black" points="0,-17 0,-47 143,-47 143,-17 0,-17"/>
<text text-anchor="start" x="8" y="-35" font-family="Helvetica,sans-Serif" font-size="10.00">leanux::block::MajorMinor</text>
<text text-anchor="middle" x="71.5" y="-24" font-family="Helvetica,sans-Serif" font-size="10.00">::getMajorMinorByName</text>
</a>
</g>
</g>
<!-- Node2 -->
<g id="node2" class="node">
<title>Node2</title>
<g id="a_node2"><a xlink:href="../../d7/d28/classleanux_1_1block_1_1MajorMinor.html#a4d83c063088eb618533f31e2cc78b2f3" target="_top" xlink:title="(re)build the cached mapping between device names and MajorMinor numbers.">
<polygon fill="none" stroke="black" points="179,-17 179,-47 322,-47 322,-17 179,-17"/>
<text text-anchor="start" x="187" y="-35" font-family="Helvetica,sans-Serif" font-size="10.00">leanux::block::MajorMinor</text>
<text text-anchor="middle" x="250.5" y="-24" font-family="Helvetica,sans-Serif" font-size="10.00">::buildCache</text>
</a>
</g>
</g>
<!-- Node1&#45;&gt;Node2 -->
<g id="edge1" class="edge">
<title>Node1&#45;&gt;Node2</title>
<path fill="none" stroke="midnightblue" d="M143.22,-32C151.57,-32 160.14,-32 168.62,-32"/>
<polygon fill="midnightblue" stroke="midnightblue" points="168.89,-35.5 178.89,-32 168.89,-28.5 168.89,-35.5"/>
</g>
<!-- Node3 -->
<g id="node3" class="node">
<title>Node3</title>
<g id="a_node3"><a xlink:href="../../d7/d28/classleanux_1_1block_1_1MajorMinor.html#a464bd4b85ec6d88f850ef7d76e950f44" target="_top" xlink:title="Default constructor.">
<polygon fill="none" stroke="black" points="358,-39 358,-69 501,-69 501,-39 358,-39"/>
<text text-anchor="start" x="366" y="-57" font-family="Helvetica,sans-Serif" font-size="10.00">leanux::block::MajorMinor</text>
<text text-anchor="middle" x="429.5" y="-46" font-family="Helvetica,sans-Serif" font-size="10.00">::MajorMinor</text>
</a>
</g>
</g>
<!-- Node2&#45;&gt;Node3 -->
<g id="edge2" class="edge">
<title>Node2&#45;&gt;Node3</title>
<path fill="none" stroke="midnightblue" d="M322.22,-40.79C330.66,-41.84 339.33,-42.92 347.9,-43.98"/>
<polygon fill="midnightblue" stroke="midnightblue" points="347.54,-47.46 357.89,-45.22 348.4,-40.52 347.54,-47.46"/>
</g>
<!-- Node4 -->
<g id="node4" class="node">
<title>Node4</title>
<g id="a_node4"><a xlink:href="../../d8/db1/namespaceleanux_1_1util.html#a9ae898fe02934e4905ef4665c2871158" target="_top" xlink:title="Convert a path on a filesystem to the realpath if the path is a link.">
<polygon fill="none" stroke="black" points="371,-0.5 371,-19.5 488,-19.5 488,-0.5 371,-0.5"/>
<text text-anchor="middle" x="429.5" y="-7.5" font-family="Helvetica,sans-Serif" font-size="10.00">leanux::util::realPath</text>
</a>
</g>
</g>
<!-- Node2&#45;&gt;Node4 -->
<g id="edge3" class="edge">
<title>Node2&#45;&gt;Node4</title>
<path fill="none" stroke="midnightblue" d="M322.22,-23.21C334.98,-21.62 348.26,-19.97 360.93,-18.4"/>
<polygon fill="midnightblue" stroke="midnightblue" points="361.45,-21.86 370.95,-17.15 360.59,-14.91 361.45,-21.86"/>
</g>
</g>
</svg>
