<?xml version="1.0" encoding="UTF-8" standalone="no"?>
<!DOCTYPE svg PUBLIC "-//W3C//DTD SVG 1.1//EN"
 "http://www.w3.org/Graphics/SVG/1.1/DTD/svg11.dtd">
<!-- Generated by graphviz version 2.43.0 (0)
 -->
<!-- Title: leanux::block::MajorMinor::getSCSIIOError Pages: 1 -->
<svg width="557pt" height="676pt"
 viewBox="0.00 0.00 557.00 676.00" xmlns="http://www.w3.org/2000/svg" xmlns:xlink="http://www.w3.org/1999/xlink">
<g id="graph0" class="graph" transform="scale(1 1) rotate(0) translate(4 672)">
<title>leanux::block::MajorMinor::getSCSIIOError</title>
<!-- Node1 -->
<g id="node1" class="node">
<title>Node1</title>
<g id="a_node1"><a xlink:title="Get SCSI ioerr_cnt (number of SCSI IO errors)">
<polygon fill="#bfbfbf" stroke="black" points="406,-245.5 406,-275.5 549,-275.5 549,-245.5 406,-245.5"/>
<text text-anchor="start" x="414" y="-263.5" font-family="Helvetica,sans-Serif" font-size="10.00">leanux::block::MajorMinor</text>
<text text-anchor="middle" x="477.5" y="-252.5" font-family="Helvetica,sans-Serif" font-size="10.00">::getSCSIIOError</text>
</a>
</g>
</g>
<!-- Node2 -->
<g id="node2" class="node">
<title>Node2</title>
<g id="a_node2"><a xlink:href="../../d7/d28/classleanux_1_1block_1_1MajorMinor.html#a314abee5e9b9cc4c609d54e61103863a" target="_top" xlink:title="get performance statistics for the block device specified by MajorMinor.">
<polygon fill="none" stroke="black" points="227,-416.5 227,-446.5 370,-446.5 370,-416.5 227,-416.5"/>
<text text-anchor="start" x="235" y="-434.5" font-family="Helvetica,sans-Serif" font-size="10.00">leanux::block::MajorMinor</text>
<text text-anchor="middle" x="298.5" y="-423.5" font-family="Helvetica,sans-Serif" font-size="10.00">::getStats</text>
</a>
</g>
</g>
<!-- Node1&#45;&gt;Node2 -->
<g id="edge1" class="edge">
<title>Node1&#45;&gt;Node2</title>
<path fill="none" stroke="midnightblue" d="M453.53,-282.69C416.98,-318 346.5,-386.09 315.17,-416.36"/>
<polygon fill="midnightblue" stroke="midnightblue" points="456.03,-285.14 460.79,-275.68 451.17,-280.11 456.03,-285.14"/>
</g>
<!-- Node18 -->
<g id="node12" class="node">
<title>Node18</title>
<g id="a_node12"><a xlink:href="../../d5/d01/namespaceleanux_1_1block.html#ae227ed1fa83d91988072e335ea0f81e9" target="_top" xlink:title="get block device statistics into a DeviceStatsMap.">
<polygon fill="none" stroke="black" points="234.5,-129 234.5,-148 362.5,-148 362.5,-129 234.5,-129"/>
<text text-anchor="middle" x="298.5" y="-136" font-family="Helvetica,sans-Serif" font-size="10.00">leanux::block::getStats</text>
</a>
</g>
</g>
<!-- Node1&#45;&gt;Node18 -->
<g id="edge11" class="edge">
<title>Node1&#45;&gt;Node18</title>
<path fill="none" stroke="midnightblue" d="M446.15,-239.58C407.48,-212.93 342.23,-167.95 313.64,-148.24"/>
<polygon fill="midnightblue" stroke="midnightblue" points="444.22,-242.5 454.44,-245.3 448.19,-236.74 444.22,-242.5"/>
</g>
<!-- Node3 -->
<g id="node3" class="node">
<title>Node3</title>
<g id="a_node3"><a xlink:href="../../d2/d89/namespaceleanux_1_1tools_1_1labbix.html#aea87f0c72ad32fa0b12a485e8f265e3a" target="_top" xlink:title=" ">
<polygon fill="none" stroke="red" points="37.5,-637.5 37.5,-667.5 153.5,-667.5 153.5,-637.5 37.5,-637.5"/>
<text text-anchor="start" x="45.5" y="-655.5" font-family="Helvetica,sans-Serif" font-size="10.00">leanux::tools::labbix</text>
<text text-anchor="middle" x="95.5" y="-644.5" font-family="Helvetica,sans-Serif" font-size="10.00">::getIOms</text>
</a>
</g>
</g>
<!-- Node2&#45;&gt;Node3 -->
<g id="edge2" class="edge">
<title>Node2&#45;&gt;Node3</title>
<path fill="none" stroke="midnightblue" d="M291.17,-456.26C279.09,-498.33 248.67,-583.56 191,-628.5 180.32,-636.82 167.08,-642.29 153.94,-645.87"/>
<polygon fill="midnightblue" stroke="midnightblue" points="294.56,-457.12 293.85,-446.55 287.81,-455.26 294.56,-457.12"/>
</g>
<!-- Node6 -->
<g id="node4" class="node">
<title>Node6</title>
<g id="a_node4"><a xlink:href="../../d2/d89/namespaceleanux_1_1tools_1_1labbix.html#aa6367c0ce0a9370f9b5b0b2d805f3768" target="_top" xlink:title=" ">
<polygon fill="none" stroke="red" points="37.5,-588.5 37.5,-618.5 153.5,-618.5 153.5,-588.5 37.5,-588.5"/>
<text text-anchor="start" x="45.5" y="-606.5" font-family="Helvetica,sans-Serif" font-size="10.00">leanux::tools::labbix</text>
<text text-anchor="middle" x="95.5" y="-595.5" font-family="Helvetica,sans-Serif" font-size="10.00">::getIOs</text>
</a>
</g>
</g>
<!-- Node2&#45;&gt;Node6 -->
<g id="edge3" class="edge">
<title>Node2&#45;&gt;Node6</title>
<path fill="none" stroke="midnightblue" d="M286.49,-456.23C270.39,-489.47 237.24,-548.01 191,-579.5 179.95,-587.03 166.72,-592.19 153.71,-595.74"/>
<polygon fill="midnightblue" stroke="midnightblue" points="289.84,-457.32 290.93,-446.79 283.51,-454.34 289.84,-457.32"/>
</g>
<!-- Node7 -->
<g id="node5" class="node">
<title>Node7</title>
<g id="a_node5"><a xlink:href="../../d9/d1f/namespaceleanux_1_1tools_1_1lsys.html#a4a56050ff78d8c77b6a699ff6d5aea50" target="_top" xlink:title="get named field attributes for the SysDevice.">
<polygon fill="none" stroke="red" points="43,-539.5 43,-569.5 148,-569.5 148,-539.5 43,-539.5"/>
<text text-anchor="start" x="51" y="-557.5" font-family="Helvetica,sans-Serif" font-size="10.00">leanux::tools::lsys</text>
<text text-anchor="middle" x="95.5" y="-546.5" font-family="Helvetica,sans-Serif" font-size="10.00">::getLeafColStr</text>
</a>
</g>
</g>
<!-- Node2&#45;&gt;Node7 -->
<g id="edge4" class="edge">
<title>Node2&#45;&gt;Node7</title>
<path fill="none" stroke="midnightblue" d="M278.88,-454.54C259.33,-477.2 226.54,-511.14 191,-530.5 177.92,-537.63 162.66,-542.69 148.28,-546.26"/>
<polygon fill="midnightblue" stroke="midnightblue" points="281.68,-456.65 285.46,-446.75 276.34,-452.13 281.68,-456.65"/>
</g>
<!-- Node12 -->
<g id="node6" class="node">
<title>Node12</title>
<g id="a_node6"><a xlink:href="../../d2/d89/namespaceleanux_1_1tools_1_1labbix.html#a4ed156d3dd393c88023d89cb3de4f327" target="_top" xlink:title=" ">
<polygon fill="none" stroke="red" points="37.5,-490.5 37.5,-520.5 153.5,-520.5 153.5,-490.5 37.5,-490.5"/>
<text text-anchor="start" x="45.5" y="-508.5" font-family="Helvetica,sans-Serif" font-size="10.00">leanux::tools::labbix</text>
<text text-anchor="middle" x="95.5" y="-497.5" font-family="Helvetica,sans-Serif" font-size="10.00">::getReadms</text>
</a>
</g>
</g>
<!-- Node2&#45;&gt;Node12 -->
<g id="edge5" class="edge">
<title>Node2&#45;&gt;Node12</title>
<path fill="none" stroke="midnightblue" d="M260.08,-451.21C239.99,-461.24 214.57,-473.06 191,-481.5 179.13,-485.75 166.16,-489.56 153.74,-492.82"/>
<polygon fill="midnightblue" stroke="midnightblue" points="261.85,-454.23 269.2,-446.6 258.69,-447.99 261.85,-454.23"/>
</g>
<!-- Node13 -->
<g id="node7" class="node">
<title>Node13</title>
<g id="a_node7"><a xlink:href="../../d2/d89/namespaceleanux_1_1tools_1_1labbix.html#a5119e01f3f750e313aa39b2091560502" target="_top" xlink:title=" ">
<polygon fill="none" stroke="red" points="37.5,-441.5 37.5,-471.5 153.5,-471.5 153.5,-441.5 37.5,-441.5"/>
<text text-anchor="start" x="45.5" y="-459.5" font-family="Helvetica,sans-Serif" font-size="10.00">leanux::tools::labbix</text>
<text text-anchor="middle" x="95.5" y="-448.5" font-family="Helvetica,sans-Serif" font-size="10.00">::getReads</text>
</a>
</g>
</g>
<!-- Node2&#45;&gt;Node13 -->
<g id="edge6" class="edge">
<title>Node2&#45;&gt;Node13</title>
<path fill="none" stroke="midnightblue" d="M216.96,-441.52C195.76,-444.15 173.34,-446.94 153.66,-449.39"/>
<polygon fill="midnightblue" stroke="midnightblue" points="217.43,-444.99 226.92,-440.28 216.56,-438.04 217.43,-444.99"/>
</g>
<!-- Node14 -->
<g id="node8" class="node">
<title>Node14</title>
<g id="a_node8"><a xlink:href="../../d2/d89/namespaceleanux_1_1tools_1_1labbix.html#a2a148cecfe8dcf3c00e0bb19f57044f3" target="_top" xlink:title=" ">
<polygon fill="none" stroke="red" points="37.5,-392.5 37.5,-422.5 153.5,-422.5 153.5,-392.5 37.5,-392.5"/>
<text text-anchor="start" x="45.5" y="-410.5" font-family="Helvetica,sans-Serif" font-size="10.00">leanux::tools::labbix</text>
<text text-anchor="middle" x="95.5" y="-399.5" font-family="Helvetica,sans-Serif" font-size="10.00">::getReadSectors</text>
</a>
</g>
</g>
<!-- Node2&#45;&gt;Node14 -->
<g id="edge7" class="edge">
<title>Node2&#45;&gt;Node14</title>
<path fill="none" stroke="midnightblue" d="M216.96,-421.88C195.76,-419.35 173.34,-416.67 153.66,-414.32"/>
<polygon fill="midnightblue" stroke="midnightblue" points="216.57,-425.36 226.92,-423.07 217.4,-418.41 216.57,-425.36"/>
</g>
<!-- Node15 -->
<g id="node9" class="node">
<title>Node15</title>
<g id="a_node9"><a xlink:href="../../d2/d89/namespaceleanux_1_1tools_1_1labbix.html#aac6bd9b75ac1a266cc601b0245013aa8" target="_top" xlink:title=" ">
<polygon fill="none" stroke="red" points="37.5,-343.5 37.5,-373.5 153.5,-373.5 153.5,-343.5 37.5,-343.5"/>
<text text-anchor="start" x="45.5" y="-361.5" font-family="Helvetica,sans-Serif" font-size="10.00">leanux::tools::labbix</text>
<text text-anchor="middle" x="95.5" y="-350.5" font-family="Helvetica,sans-Serif" font-size="10.00">::getWritems</text>
</a>
</g>
</g>
<!-- Node2&#45;&gt;Node15 -->
<g id="edge8" class="edge">
<title>Node2&#45;&gt;Node15</title>
<path fill="none" stroke="midnightblue" d="M258.68,-412.14C238.77,-402.69 213.93,-391.64 191,-383.5 179.08,-379.27 166.1,-375.39 153.68,-372"/>
<polygon fill="midnightblue" stroke="midnightblue" points="257.22,-415.32 267.74,-416.49 260.24,-409.01 257.22,-415.32"/>
</g>
<!-- Node16 -->
<g id="node10" class="node">
<title>Node16</title>
<g id="a_node10"><a xlink:href="../../d2/d89/namespaceleanux_1_1tools_1_1labbix.html#ae7137e2b91a00754bf3f74b6cc7be8f0" target="_top" xlink:title=" ">
<polygon fill="none" stroke="red" points="37.5,-294.5 37.5,-324.5 153.5,-324.5 153.5,-294.5 37.5,-294.5"/>
<text text-anchor="start" x="45.5" y="-312.5" font-family="Helvetica,sans-Serif" font-size="10.00">leanux::tools::labbix</text>
<text text-anchor="middle" x="95.5" y="-301.5" font-family="Helvetica,sans-Serif" font-size="10.00">::getWrites</text>
</a>
</g>
</g>
<!-- Node2&#45;&gt;Node16 -->
<g id="edge9" class="edge">
<title>Node2&#45;&gt;Node16</title>
<path fill="none" stroke="midnightblue" d="M278.41,-408.64C258.72,-386.51 226.01,-353.57 191,-334.5 179.52,-328.25 166.4,-323.5 153.66,-319.91"/>
<polygon fill="midnightblue" stroke="midnightblue" points="275.85,-411.03 285.06,-416.26 281.13,-406.43 275.85,-411.03"/>
</g>
<!-- Node17 -->
<g id="node11" class="node">
<title>Node17</title>
<g id="a_node11"><a xlink:href="../../d2/d89/namespaceleanux_1_1tools_1_1labbix.html#a89bf8cba18d6ec80534e7fbef8b19496" target="_top" xlink:title=" ">
<polygon fill="none" stroke="red" points="37.5,-245.5 37.5,-275.5 153.5,-275.5 153.5,-245.5 37.5,-245.5"/>
<text text-anchor="start" x="45.5" y="-263.5" font-family="Helvetica,sans-Serif" font-size="10.00">leanux::tools::labbix</text>
<text text-anchor="middle" x="95.5" y="-252.5" font-family="Helvetica,sans-Serif" font-size="10.00">::getWriteSectors</text>
</a>
</g>
</g>
<!-- Node2&#45;&gt;Node17 -->
<g id="edge10" class="edge">
<title>Node2&#45;&gt;Node17</title>
<path fill="none" stroke="midnightblue" d="M286.35,-407.17C270.1,-374.45 236.77,-316.79 191,-285.5 179.93,-277.93 166.7,-272.66 153.68,-268.98"/>
<polygon fill="midnightblue" stroke="midnightblue" points="283.34,-408.98 290.84,-416.46 289.65,-405.94 283.34,-408.98"/>
</g>
<!-- Node19 -->
<g id="node13" class="node">
<title>Node19</title>
<g id="a_node13"><a xlink:href="../../da/d21/classleanux_1_1tools_1_1lmon_1_1RealtimeSampler.html#ae43e18aacfceb09eb9bd70db9c67fc98" target="_top" xlink:title=" ">
<polygon fill="none" stroke="red" points="0,-196.5 0,-226.5 191,-226.5 191,-196.5 0,-196.5"/>
<text text-anchor="start" x="8" y="-214.5" font-family="Helvetica,sans-Serif" font-size="10.00">leanux::tools::lmon</text>
<text text-anchor="middle" x="95.5" y="-203.5" font-family="Helvetica,sans-Serif" font-size="10.00">::RealtimeSampler::sampleXIOView</text>
</a>
</g>
</g>
<!-- Node18&#45;&gt;Node19 -->
<g id="edge12" class="edge">
<title>Node18&#45;&gt;Node19</title>
<path fill="none" stroke="midnightblue" d="M270.41,-152.64C249.22,-163.28 218.79,-177.67 191,-187.5 181.82,-190.75 172,-193.74 162.29,-196.44"/>
<polygon fill="midnightblue" stroke="midnightblue" points="272.12,-155.69 279.45,-148.04 268.95,-149.45 272.12,-155.69"/>
</g>
<!-- Node25 -->
<g id="node14" class="node">
<title>Node25</title>
<g id="a_node14"><a xlink:href="../../d8/d77/classleanux_1_1tools_1_1lard_1_1IOSnap.html#aaa09ea465f8fc251716e47382551cf13" target="_top" xlink:title=" ">
<polygon fill="none" stroke="red" points="40.5,-147.5 40.5,-177.5 150.5,-177.5 150.5,-147.5 40.5,-147.5"/>
<text text-anchor="start" x="48.5" y="-165.5" font-family="Helvetica,sans-Serif" font-size="10.00">leanux::tools::lard</text>
<text text-anchor="middle" x="95.5" y="-154.5" font-family="Helvetica,sans-Serif" font-size="10.00">::IOSnap::startSnap</text>
</a>
</g>
</g>
<!-- Node18&#45;&gt;Node25 -->
<g id="edge13" class="edge">
<title>Node18&#45;&gt;Node25</title>
<path fill="none" stroke="midnightblue" d="M224.5,-147.22C200.05,-150.14 173.25,-153.34 150.52,-156.05"/>
<polygon fill="midnightblue" stroke="midnightblue" points="224.94,-150.69 234.45,-146.03 224.11,-143.74 224.94,-150.69"/>
</g>
<!-- Node29 -->
<g id="node15" class="node">
<title>Node29</title>
<g id="a_node15"><a xlink:href="../../d0/db5/classleanux_1_1tools_1_1lard_1_1MountSnap.html#a934aedfb855a789ff7039b23112c4ae1" target="_top" xlink:title=" ">
<polygon fill="none" stroke="red" points="30.5,-98.5 30.5,-128.5 160.5,-128.5 160.5,-98.5 30.5,-98.5"/>
<text text-anchor="start" x="38.5" y="-116.5" font-family="Helvetica,sans-Serif" font-size="10.00">leanux::tools::lard</text>
<text text-anchor="middle" x="95.5" y="-105.5" font-family="Helvetica,sans-Serif" font-size="10.00">::MountSnap::startSnap</text>
</a>
</g>
</g>
<!-- Node18&#45;&gt;Node29 -->
<g id="edge14" class="edge">
<title>Node18&#45;&gt;Node29</title>
<path fill="none" stroke="midnightblue" d="M224.37,-129.4C203.53,-126.81 180.98,-124.01 160.71,-121.49"/>
<polygon fill="midnightblue" stroke="midnightblue" points="224.1,-132.9 234.45,-130.66 224.96,-125.95 224.1,-132.9"/>
</g>
<!-- Node30 -->
<g id="node16" class="node">
<title>Node30</title>
<g id="a_node16"><a xlink:href="../../d8/d77/classleanux_1_1tools_1_1lard_1_1IOSnap.html#ab020781eb6e152bf9b884a4000d7e923" target="_top" xlink:title=" ">
<polygon fill="none" stroke="red" points="41.5,-49.5 41.5,-79.5 149.5,-79.5 149.5,-49.5 41.5,-49.5"/>
<text text-anchor="start" x="49.5" y="-67.5" font-family="Helvetica,sans-Serif" font-size="10.00">leanux::tools::lard</text>
<text text-anchor="middle" x="95.5" y="-56.5" font-family="Helvetica,sans-Serif" font-size="10.00">::IOSnap::stopSnap</text>
</a>
</g>
</g>
<!-- Node18&#45;&gt;Node30 -->
<g id="edge15" class="edge">
<title>Node18&#45;&gt;Node30</title>
<path fill="none" stroke="midnightblue" d="M270,-124.25C248.81,-113.67 218.57,-99.41 191,-89.5 177.9,-84.79 163.5,-80.54 149.97,-76.93"/>
<polygon fill="midnightblue" stroke="midnightblue" points="268.55,-127.44 279.06,-128.83 271.71,-121.19 268.55,-127.44"/>
</g>
<!-- Node31 -->
<g id="node17" class="node">
<title>Node31</title>
<g id="a_node17"><a xlink:href="../../d0/db5/classleanux_1_1tools_1_1lard_1_1MountSnap.html#a03ffa5736036aaed951d16b51d181c29" target="_top" xlink:title=" ">
<polygon fill="none" stroke="red" points="31.5,-0.5 31.5,-30.5 159.5,-30.5 159.5,-0.5 31.5,-0.5"/>
<text text-anchor="start" x="39.5" y="-18.5" font-family="Helvetica,sans-Serif" font-size="10.00">leanux::tools::lard</text>
<text text-anchor="middle" x="95.5" y="-7.5" font-family="Helvetica,sans-Serif" font-size="10.00">::MountSnap::stopSnap</text>
</a>
</g>
</g>
<!-- Node18&#45;&gt;Node31 -->
<g id="edge16" class="edge">
<title>Node18&#45;&gt;Node31</title>
<path fill="none" stroke="midnightblue" d="M283.56,-120.97C264.88,-98.66 229.55,-60.5 191,-39.5 181.34,-34.24 170.49,-30.1 159.68,-26.85"/>
<polygon fill="midnightblue" stroke="midnightblue" points="281.05,-123.42 290.1,-128.94 286.46,-118.99 281.05,-123.42"/>
</g>
</g>
</svg>
