<?xml version="1.0" encoding="UTF-8" standalone="no"?>
<!DOCTYPE svg PUBLIC "-//W3C//DTD SVG 1.1//EN"
 "http://www.w3.org/Graphics/SVG/1.1/DTD/svg11.dtd">
<!-- Generated by graphviz version 2.43.0 (0)
 -->
<!-- Title: leanux::util::ConfigFile Pages: 1 -->
<svg width="776pt" height="185pt"
 viewBox="0.00 0.00 776.00 184.50" xmlns="http://www.w3.org/2000/svg" xmlns:xlink="http://www.w3.org/1999/xlink">
<g id="graph0" class="graph" transform="scale(1 1) rotate(0) translate(4 180.5)">
<title>leanux::util::ConfigFile</title>
<!-- Node1 -->
<g id="node1" class="node">
<title>Node1</title>
<g id="a_node1"><a xlink:title="A configuration file of name=value pairs.">
<polygon fill="#bfbfbf" stroke="black" points="643,-87 643,-106 768,-106 768,-87 643,-87"/>
<text text-anchor="middle" x="705.5" y="-94" font-family="Helvetica,sans-Serif" font-size="10.00">leanux::util::ConfigFile</text>
</a>
</g>
</g>
<!-- Node1&#45;&gt;Node1 -->
<g id="edge8" class="edge">
<title>Node1&#45;&gt;Node1</title>
<path fill="none" stroke="#9a32cd" stroke-dasharray="5,2" d="M686.24,-115.9C687.53,-120.81 693.95,-124.5 705.5,-124.5 723.98,-124.5 729.33,-115.07 721.53,-106.26"/>
<polygon fill="#9a32cd" stroke="#9a32cd" points="689.61,-116.85 689.47,-106.26 682.98,-114.63 689.61,-116.85"/>
<text text-anchor="middle" x="705.5" y="-127.5" font-family="Helvetica,sans-Serif" font-size="10.00"> config_</text>
</g>
<!-- Node2 -->
<g id="node2" class="node">
<title>Node2</title>
<g id="a_node2"><a xlink:title=" ">
<polygon fill="none" stroke="#bfbfbf" points="290,-89.5 290,-119.5 412,-119.5 412,-89.5 290,-89.5"/>
<text text-anchor="start" x="298" y="-107.5" font-family="Helvetica,sans-Serif" font-size="10.00">std::map&lt; std::string,</text>
<text text-anchor="middle" x="351" y="-96.5" font-family="Helvetica,sans-Serif" font-size="10.00"> std::string &gt;</text>
</a>
</g>
</g>
<!-- Node2&#45;&gt;Node1 -->
<g id="edge1" class="edge">
<title>Node2&#45;&gt;Node1</title>
<path fill="none" stroke="#9a32cd" stroke-dasharray="5,2" d="M422.27,-102.91C486.7,-101.44 581.19,-99.3 642.78,-97.9"/>
<polygon fill="#9a32cd" stroke="#9a32cd" points="422.11,-99.41 412.2,-103.13 422.27,-106.41 422.11,-99.41"/>
<text text-anchor="middle" x="494" y="-116.5" font-family="Helvetica,sans-Serif" font-size="10.00"> descriptions_</text>
<text text-anchor="middle" x="494" y="-105.5" font-family="Helvetica,sans-Serif" font-size="10.00">comments_</text>
</g>
<!-- Node3 -->
<g id="node3" class="node">
<title>Node3</title>
<g id="a_node3"><a xlink:title="STL class.">
<polygon fill="none" stroke="#bfbfbf" points="0,-77 0,-96 65,-96 65,-77 0,-77"/>
<text text-anchor="middle" x="32.5" y="-84" font-family="Helvetica,sans-Serif" font-size="10.00">std::string</text>
</a>
</g>
</g>
<!-- Node3&#45;&gt;Node1 -->
<g id="edge3" class="edge">
<title>Node3&#45;&gt;Node1</title>
<path fill="none" stroke="#9a32cd" stroke-dasharray="5,2" d="M53.06,-102.09C61.72,-108.07 72.35,-114.24 83,-117.5 284.94,-179.23 348.05,-151.16 558,-128.5 597.21,-124.27 641.32,-113.84 670.8,-106.03"/>
<polygon fill="#9a32cd" stroke="#9a32cd" points="54.97,-99.15 44.83,-96.05 50.83,-104.79 54.97,-99.15"/>
<text text-anchor="middle" x="351" y="-168.5" font-family="Helvetica,sans-Serif" font-size="10.00"> filename_</text>
<text text-anchor="middle" x="351" y="-157.5" font-family="Helvetica,sans-Serif" font-size="10.00">appname_</text>
</g>
<!-- Node3&#45;&gt;Node2 -->
<g id="edge2" class="edge">
<title>Node3&#45;&gt;Node2</title>
<path fill="none" stroke="#9a32cd" stroke-dasharray="5,2" d="M75.07,-88.86C129.95,-91.99 226.96,-97.5 289.85,-101.08"/>
<polygon fill="#9a32cd" stroke="#9a32cd" points="75.19,-85.37 65,-88.29 74.79,-92.35 75.19,-85.37"/>
<text text-anchor="middle" x="106" y="-105.5" font-family="Helvetica,sans-Serif" font-size="10.00"> keys</text>
<text text-anchor="middle" x="106" y="-94.5" font-family="Helvetica,sans-Serif" font-size="10.00">elements</text>
</g>
<!-- Node5 -->
<g id="node4" class="node">
<title>Node5</title>
<g id="a_node4"><a xlink:title=" ">
<polygon fill="none" stroke="#bfbfbf" points="430,-19 430,-60 558,-60 558,-19 430,-19"/>
<text text-anchor="start" x="438" y="-48" font-family="Helvetica,sans-Serif" font-size="10.00">std::map&lt; std::string,</text>
<text text-anchor="start" x="438" y="-37" font-family="Helvetica,sans-Serif" font-size="10.00"> leanux::util::ConfigFile</text>
<text text-anchor="middle" x="494" y="-26" font-family="Helvetica,sans-Serif" font-size="10.00">::Parameter &gt;</text>
</a>
</g>
</g>
<!-- Node3&#45;&gt;Node5 -->
<g id="edge7" class="edge">
<title>Node3&#45;&gt;Node5</title>
<path fill="none" stroke="#9a32cd" stroke-dasharray="5,2" d="M75.37,-82.22C156.27,-73.94 334.45,-55.72 429.82,-45.96"/>
<polygon fill="#9a32cd" stroke="#9a32cd" points="74.68,-78.77 65.08,-83.27 75.39,-85.73 74.68,-78.77"/>
<text text-anchor="middle" x="209.5" y="-76.5" font-family="Helvetica,sans-Serif" font-size="10.00"> keys</text>
</g>
<!-- Node6 -->
<g id="node5" class="node">
<title>Node6</title>
<g id="a_node5"><a xlink:href="../../d1/ddf/structleanux_1_1util_1_1ConfigFile_1_1Parameter.html" target="_top" xlink:title="A name&#45;value pair as configuration parameter.">
<polygon fill="none" stroke="black" points="147,-0.5 147,-30.5 272,-30.5 272,-0.5 147,-0.5"/>
<text text-anchor="start" x="155" y="-18.5" font-family="Helvetica,sans-Serif" font-size="10.00">leanux::util::ConfigFile</text>
<text text-anchor="middle" x="209.5" y="-7.5" font-family="Helvetica,sans-Serif" font-size="10.00">::Parameter</text>
</a>
</g>
</g>
<!-- Node3&#45;&gt;Node6 -->
<g id="edge6" class="edge">
<title>Node3&#45;&gt;Node6</title>
<path fill="none" stroke="#9a32cd" stroke-dasharray="5,2" d="M44.66,-68.43C53.45,-55.87 66.88,-39.94 83,-31.5 102.36,-21.36 125.63,-16.69 146.85,-14.76"/>
<polygon fill="#9a32cd" stroke="#9a32cd" points="41.71,-66.55 39.11,-76.82 47.55,-70.41 41.71,-66.55"/>
<text text-anchor="middle" x="106" y="-45.5" font-family="Helvetica,sans-Serif" font-size="10.00"> name_</text>
<text text-anchor="middle" x="106" y="-34.5" font-family="Helvetica,sans-Serif" font-size="10.00">value_</text>
</g>
<!-- Node5&#45;&gt;Node1 -->
<g id="edge4" class="edge">
<title>Node5&#45;&gt;Node1</title>
<path fill="none" stroke="#9a32cd" stroke-dasharray="5,2" d="M568.21,-47.85C586.95,-50.93 606.91,-55.05 625,-60.5 647.2,-67.19 671.26,-78.74 687.03,-86.95"/>
<polygon fill="#9a32cd" stroke="#9a32cd" points="568.67,-44.38 558.25,-46.29 567.59,-51.29 568.67,-44.38"/>
<text text-anchor="middle" x="600.5" y="-74.5" font-family="Helvetica,sans-Serif" font-size="10.00"> defaults_</text>
<text text-anchor="middle" x="600.5" y="-63.5" font-family="Helvetica,sans-Serif" font-size="10.00">values_</text>
</g>
<!-- Node6&#45;&gt;Node5 -->
<g id="edge5" class="edge">
<title>Node6&#45;&gt;Node5</title>
<path fill="none" stroke="#9a32cd" stroke-dasharray="5,2" d="M282.22,-21.59C327.62,-25.45 385.8,-30.39 429.53,-34.11"/>
<polygon fill="#9a32cd" stroke="#9a32cd" points="282.41,-18.1 272.15,-20.74 281.81,-25.07 282.41,-18.1"/>
<text text-anchor="middle" x="351" y="-35.5" font-family="Helvetica,sans-Serif" font-size="10.00"> elements</text>
</g>
</g>
</svg>
