<?xml version="1.0" encoding="UTF-8" standalone="no"?>
<!DOCTYPE svg PUBLIC "-//W3C//DTD SVG 1.1//EN"
 "http://www.w3.org/Graphics/SVG/1.1/DTD/svg11.dtd">
<!-- Generated by graphviz version 2.43.0 (0)
 -->
<!-- Title: leanux::process::ProcPidStatDelta Pages: 1 -->
<svg width="347pt" height="207pt"
 viewBox="0.00 0.00 347.00 207.00" xmlns="http://www.w3.org/2000/svg" xmlns:xlink="http://www.w3.org/1999/xlink">
<g id="graph0" class="graph" transform="scale(1 1) rotate(0) translate(4 203)">
<title>leanux::process::ProcPidStatDelta</title>
<!-- Node1 -->
<g id="node1" class="node">
<title>Node1</title>
<g id="a_node1"><a xlink:title="Delta of a pid&#39;s stats.">
<polygon fill="#bfbfbf" stroke="black" points="111.5,-0.5 111.5,-30.5 246.5,-30.5 246.5,-0.5 111.5,-0.5"/>
<text text-anchor="start" x="119.5" y="-18.5" font-family="Helvetica,sans-Serif" font-size="10.00">leanux::process::ProcPid</text>
<text text-anchor="middle" x="179" y="-7.5" font-family="Helvetica,sans-Serif" font-size="10.00">StatDelta</text>
</a>
</g>
</g>
<!-- Node2 -->
<g id="node2" class="node">
<title>Node2</title>
<g id="a_node2"><a xlink:title=" ">
<polygon fill="none" stroke="#bfbfbf" points="0,-111.5 0,-130.5 50,-130.5 50,-111.5 0,-111.5"/>
<text text-anchor="middle" x="25" y="-118.5" font-family="Helvetica,sans-Serif" font-size="10.00">double</text>
</a>
</g>
</g>
<!-- Node2&#45;&gt;Node1 -->
<g id="edge1" class="edge">
<title>Node2&#45;&gt;Node1</title>
<path fill="none" stroke="#9a32cd" stroke-dasharray="5,2" d="M25.9,-100.8C27.7,-84.75 32.79,-62.39 47,-49 64.26,-32.73 88.31,-24.23 111.16,-19.9"/>
<polygon fill="#9a32cd" stroke="#9a32cd" points="22.38,-100.91 25.1,-111.16 29.36,-101.46 22.38,-100.91"/>
<text text-anchor="middle" x="85.5" y="-85" font-family="Helvetica,sans-Serif" font-size="10.00"> stime</text>
<text text-anchor="start" x="47" y="-74" font-family="Helvetica,sans-Serif" font-size="10.00">delayacct_blkio</text>
<text text-anchor="middle" x="85.5" y="-63" font-family="Helvetica,sans-Serif" font-size="10.00">_ticks</text>
<text text-anchor="middle" x="85.5" y="-52" font-family="Helvetica,sans-Serif" font-size="10.00">utime</text>
</g>
<!-- Node3 -->
<g id="node3" class="node">
<title>Node3</title>
<g id="a_node3"><a xlink:title=" ">
<polygon fill="none" stroke="#bfbfbf" points="102,-111.5 102,-130.5 140,-130.5 140,-111.5 102,-111.5"/>
<text text-anchor="middle" x="121" y="-118.5" font-family="Helvetica,sans-Serif" font-size="10.00">char</text>
</a>
</g>
</g>
<!-- Node3&#45;&gt;Node1 -->
<g id="edge2" class="edge">
<title>Node3&#45;&gt;Node1</title>
<path fill="none" stroke="#9a32cd" stroke-dasharray="5,2" d="M125.55,-101.1C129.67,-86.19 136.71,-65.26 147,-49 151.24,-42.31 157.04,-35.89 162.55,-30.54"/>
<polygon fill="#9a32cd" stroke="#9a32cd" points="122.06,-100.6 122.95,-111.15 128.84,-102.35 122.06,-100.6"/>
<text text-anchor="middle" x="161" y="-68.5" font-family="Helvetica,sans-Serif" font-size="10.00"> state</text>
</g>
<!-- Node4 -->
<g id="node4" class="node">
<title>Node4</title>
<g id="a_node4"><a xlink:title=" ">
<polygon fill="none" stroke="#bfbfbf" points="158.5,-111.5 158.5,-130.5 199.5,-130.5 199.5,-111.5 158.5,-111.5"/>
<text text-anchor="middle" x="179" y="-118.5" font-family="Helvetica,sans-Serif" font-size="10.00">pid_t</text>
</a>
</g>
</g>
<!-- Node4&#45;&gt;Node1 -->
<g id="edge3" class="edge">
<title>Node4&#45;&gt;Node1</title>
<path fill="none" stroke="#9a32cd" stroke-dasharray="5,2" d="M179,-101C179,-80.74 179,-49.11 179,-30.84"/>
<polygon fill="#9a32cd" stroke="#9a32cd" points="175.5,-101.18 179,-111.18 182.5,-101.18 175.5,-101.18"/>
<text text-anchor="middle" x="190" y="-74" font-family="Helvetica,sans-Serif" font-size="10.00"> pid</text>
<text text-anchor="middle" x="190" y="-63" font-family="Helvetica,sans-Serif" font-size="10.00">pgrp</text>
</g>
<!-- Node5 -->
<g id="node5" class="node">
<title>Node5</title>
<g id="a_node5"><a xlink:title="STL class.">
<polygon fill="none" stroke="#bfbfbf" points="217.5,-111.5 217.5,-130.5 282.5,-130.5 282.5,-111.5 217.5,-111.5"/>
<text text-anchor="middle" x="250" y="-118.5" font-family="Helvetica,sans-Serif" font-size="10.00">std::string</text>
</a>
</g>
</g>
<!-- Node5&#45;&gt;Node1 -->
<g id="edge4" class="edge">
<title>Node5&#45;&gt;Node1</title>
<path fill="none" stroke="#9a32cd" stroke-dasharray="5,2" d="M239.7,-102.58C230.89,-87.99 217.67,-66.76 205,-49 200.63,-42.88 195.53,-36.37 191,-30.8"/>
<polygon fill="#9a32cd" stroke="#9a32cd" points="236.89,-104.71 245.03,-111.5 242.9,-101.12 236.89,-104.71"/>
<text text-anchor="middle" x="250.5" y="-74" font-family="Helvetica,sans-Serif" font-size="10.00"> wchan</text>
<text text-anchor="middle" x="250.5" y="-63" font-family="Helvetica,sans-Serif" font-size="10.00">comm</text>
</g>
<!-- Node6 -->
<g id="node6" class="node">
<title>Node6</title>
<g id="a_node6"><a xlink:title="STL class.">
<polygon fill="none" stroke="#bfbfbf" points="198,-168.5 198,-198.5 302,-198.5 302,-168.5 198,-168.5"/>
<text text-anchor="start" x="206" y="-186.5" font-family="Helvetica,sans-Serif" font-size="10.00">std::basic_string&lt;</text>
<text text-anchor="middle" x="250" y="-175.5" font-family="Helvetica,sans-Serif" font-size="10.00"> char &gt;</text>
</a>
</g>
</g>
<!-- Node6&#45;&gt;Node5 -->
<g id="edge5" class="edge">
<title>Node6&#45;&gt;Node5</title>
<path fill="none" stroke="midnightblue" d="M250,-158.35C250,-148.51 250,-137.78 250,-130.54"/>
<polygon fill="midnightblue" stroke="midnightblue" points="246.5,-158.47 250,-168.47 253.5,-158.47 246.5,-158.47"/>
</g>
<!-- Node7 -->
<g id="node7" class="node">
<title>Node7</title>
<g id="a_node7"><a xlink:title=" ">
<polygon fill="none" stroke="#bfbfbf" points="301,-111.5 301,-130.5 339,-130.5 339,-111.5 301,-111.5"/>
<text text-anchor="middle" x="320" y="-118.5" font-family="Helvetica,sans-Serif" font-size="10.00">long</text>
</a>
</g>
</g>
<!-- Node7&#45;&gt;Node1 -->
<g id="edge6" class="edge">
<title>Node7&#45;&gt;Node1</title>
<path fill="none" stroke="#9a32cd" stroke-dasharray="5,2" d="M311.89,-101.89C303.88,-85.9 290.18,-63 272,-49 261.84,-41.17 249.65,-35.14 237.49,-30.53"/>
<polygon fill="#9a32cd" stroke="#9a32cd" points="308.88,-103.71 316.33,-111.25 315.2,-100.71 308.88,-103.71"/>
<text text-anchor="middle" x="320.5" y="-85" font-family="Helvetica,sans-Serif" font-size="10.00"> vsize</text>
<text text-anchor="middle" x="320.5" y="-74" font-family="Helvetica,sans-Serif" font-size="10.00">majflt</text>
<text text-anchor="middle" x="320.5" y="-63" font-family="Helvetica,sans-Serif" font-size="10.00">rss</text>
<text text-anchor="middle" x="320.5" y="-52" font-family="Helvetica,sans-Serif" font-size="10.00">minflt</text>
</g>
</g>
</svg>
