<?xml version="1.0" encoding="UTF-8" standalone="no"?>
<!DOCTYPE svg PUBLIC "-//W3C//DTD SVG 1.1//EN"
 "http://www.w3.org/Graphics/SVG/1.1/DTD/svg11.dtd">
<!-- Generated by graphviz version 2.43.0 (0)
 -->
<!-- Title: leanux::util::ConfigFile::getValue Pages: 1 -->
<svg width="605pt" height="430pt"
 viewBox="0.00 0.00 605.00 430.46" xmlns="http://www.w3.org/2000/svg" xmlns:xlink="http://www.w3.org/1999/xlink">
<g id="graph0" class="graph" transform="scale(1 1) rotate(0) translate(4 426.46)">
<title>leanux::util::ConfigFile::getValue</title>
<!-- Node1 -->
<g id="node1" class="node">
<title>Node1</title>
<g id="a_node1"><a xlink:title="return the configuration parameter as a string.">
<polygon fill="#bfbfbf" stroke="black" points="472,-98.5 472,-128.5 597,-128.5 597,-98.5 472,-98.5"/>
<text text-anchor="start" x="480" y="-116.5" font-family="Helvetica,sans-Serif" font-size="10.00">leanux::util::ConfigFile</text>
<text text-anchor="middle" x="534.5" y="-105.5" font-family="Helvetica,sans-Serif" font-size="10.00">::getValue</text>
</a>
</g>
</g>
<!-- Node2 -->
<g id="node2" class="node">
<title>Node2</title>
<g id="a_node2"><a xlink:href="../../d4/d62/namespaceleanux_1_1tools_1_1lard.html#a98a04e0c068c5083ad571ebc9b79d693" target="_top" xlink:title=" ">
<polygon fill="none" stroke="black" points="321.5,-354.5 321.5,-384.5 425.5,-384.5 425.5,-354.5 321.5,-354.5"/>
<text text-anchor="start" x="329.5" y="-372.5" font-family="Helvetica,sans-Serif" font-size="10.00">leanux::tools::lard</text>
<text text-anchor="middle" x="373.5" y="-361.5" font-family="Helvetica,sans-Serif" font-size="10.00">::applyRetention</text>
</a>
</g>
</g>
<!-- Node1&#45;&gt;Node2 -->
<g id="edge1" class="edge">
<title>Node1&#45;&gt;Node2</title>
<path fill="none" stroke="midnightblue" d="M518.71,-137.31C486.46,-189.24 410.54,-311.48 383.92,-354.33"/>
<polygon fill="midnightblue" stroke="midnightblue" points="521.73,-139.09 524.03,-128.75 515.78,-135.4 521.73,-139.09"/>
</g>
<!-- Node6 -->
<g id="node4" class="node">
<title>Node6</title>
<g id="a_node4"><a xlink:href="../../de/d84/classleanux_1_1util_1_1ConfigFile.html#aae0c3891e3d5a8d391a7439602b92780" target="_top" xlink:title="return the configuration parameter as an int.">
<polygon fill="none" stroke="black" points="311,-215.5 311,-245.5 436,-245.5 436,-215.5 311,-215.5"/>
<text text-anchor="start" x="319" y="-233.5" font-family="Helvetica,sans-Serif" font-size="10.00">leanux::util::ConfigFile</text>
<text text-anchor="middle" x="373.5" y="-222.5" font-family="Helvetica,sans-Serif" font-size="10.00">::getIntValue</text>
</a>
</g>
</g>
<!-- Node1&#45;&gt;Node6 -->
<g id="edge3" class="edge">
<title>Node1&#45;&gt;Node6</title>
<path fill="none" stroke="midnightblue" d="M504.64,-134.74C473.01,-158.01 423.06,-194.77 395.13,-215.32"/>
<polygon fill="midnightblue" stroke="midnightblue" points="507.06,-137.3 513.04,-128.56 502.91,-131.66 507.06,-137.3"/>
</g>
<!-- Node19 -->
<g id="node11" class="node">
<title>Node19</title>
<g id="a_node11"><a xlink:href="../../de/d84/classleanux_1_1util_1_1ConfigFile.html#ac0a26e361b745b7e933134618c9fad97" target="_top" xlink:title="return the configuration parameter as a RGB struct.">
<polygon fill="none" stroke="black" points="311,-49.5 311,-79.5 436,-79.5 436,-49.5 311,-49.5"/>
<text text-anchor="start" x="319" y="-67.5" font-family="Helvetica,sans-Serif" font-size="10.00">leanux::util::ConfigFile</text>
<text text-anchor="middle" x="373.5" y="-56.5" font-family="Helvetica,sans-Serif" font-size="10.00">::getRGBValue</text>
</a>
</g>
</g>
<!-- Node1&#45;&gt;Node19 -->
<g id="edge13" class="edge">
<title>Node1&#45;&gt;Node19</title>
<path fill="none" stroke="midnightblue" d="M474.73,-95.39C457.82,-90.18 439.57,-84.55 423.34,-79.55"/>
<polygon fill="midnightblue" stroke="midnightblue" points="473.91,-98.8 484.5,-98.4 475.97,-92.11 473.91,-98.8"/>
</g>
<!-- Node22 -->
<g id="node13" class="node">
<title>Node22</title>
<g id="a_node13"><a xlink:href="../../de/d84/classleanux_1_1util_1_1ConfigFile.html#af62cc2be1bf08d122bd390f18a886fdc" target="_top" xlink:title="return the configuration parameter as an int.">
<polygon fill="none" stroke="black" points="311,-98.5 311,-128.5 436,-128.5 436,-98.5 311,-98.5"/>
<text text-anchor="start" x="319" y="-116.5" font-family="Helvetica,sans-Serif" font-size="10.00">leanux::util::ConfigFile</text>
<text text-anchor="middle" x="373.5" y="-105.5" font-family="Helvetica,sans-Serif" font-size="10.00">::getStringListValue</text>
</a>
</g>
</g>
<!-- Node1&#45;&gt;Node22 -->
<g id="edge15" class="edge">
<title>Node1&#45;&gt;Node22</title>
<path fill="none" stroke="midnightblue" d="M461.41,-113.5C453.01,-113.5 444.5,-113.5 436.26,-113.5"/>
<polygon fill="midnightblue" stroke="midnightblue" points="461.57,-117 471.57,-113.5 461.57,-110 461.57,-117"/>
</g>
<!-- Node23 -->
<g id="node14" class="node">
<title>Node23</title>
<g id="a_node14"><a xlink:href="../../d4/d62/namespaceleanux_1_1tools_1_1lard.html#a9492d51a0046e33c7a4dda4229537548" target="_top" xlink:title="set page_size and enable WAL mode.">
<polygon fill="none" stroke="black" points="321.5,-0.5 321.5,-30.5 425.5,-30.5 425.5,-0.5 321.5,-0.5"/>
<text text-anchor="start" x="329.5" y="-18.5" font-family="Helvetica,sans-Serif" font-size="10.00">leanux::tools::lard</text>
<text text-anchor="middle" x="373.5" y="-7.5" font-family="Helvetica,sans-Serif" font-size="10.00">::initDB</text>
</a>
</g>
</g>
<!-- Node1&#45;&gt;Node23 -->
<g id="edge17" class="edge">
<title>Node1&#45;&gt;Node23</title>
<path fill="none" stroke="midnightblue" d="M508.26,-91.75C489.28,-76.11 462.14,-55.27 436,-40.5 429.68,-36.93 422.74,-33.6 415.88,-30.61"/>
<polygon fill="midnightblue" stroke="midnightblue" points="506.21,-94.59 516.13,-98.31 510.69,-89.22 506.21,-94.59"/>
</g>
<!-- Node3 -->
<g id="node3" class="node">
<title>Node3</title>
<g id="a_node3"><a xlink:href="../../d4/d62/namespaceleanux_1_1tools_1_1lard.html#a6de74bbef1d571bf7eb000e62900a11d" target="_top" xlink:title=" ">
<polygon fill="none" stroke="red" points="0,-191.5 0,-221.5 104,-221.5 104,-191.5 0,-191.5"/>
<text text-anchor="start" x="8" y="-209.5" font-family="Helvetica,sans-Serif" font-size="10.00">leanux::tools::lard</text>
<text text-anchor="middle" x="52" y="-198.5" font-family="Helvetica,sans-Serif" font-size="10.00">::mainLoop</text>
</a>
</g>
</g>
<!-- Node2&#45;&gt;Node3 -->
<g id="edge2" class="edge">
<title>Node2&#45;&gt;Node3</title>
<path fill="none" stroke="midnightblue" d="M335.63,-389.14C286.81,-412.17 199.92,-442.54 140,-403.5 75.63,-361.56 58.54,-260.01 54.31,-221.58"/>
<polygon fill="midnightblue" stroke="midnightblue" points="337.4,-392.17 344.86,-384.65 334.34,-385.87 337.4,-392.17"/>
</g>
<!-- Node6&#45;&gt;Node3 -->
<g id="edge6" class="edge">
<title>Node6&#45;&gt;Node3</title>
<path fill="none" stroke="midnightblue" d="M360.34,-254.47C340.34,-292.78 300.22,-364.91 275,-378.5 222.18,-406.96 191.11,-409.93 140,-378.5 82.42,-343.1 61.54,-256.47 55.29,-221.5"/>
<polygon fill="midnightblue" stroke="midnightblue" points="363.48,-256 364.97,-245.51 357.27,-252.79 363.48,-256"/>
</g>
<!-- Node7 -->
<g id="node5" class="node">
<title>Node7</title>
<g id="a_node5"><a xlink:href="../../d8/d7f/classleanux_1_1tools_1_1lmon_1_1IOView.html#a9cfd6542a5437edf7c232fc7d05fbb72" target="_top" xlink:title="The minimum height (lines) required by the Footer.">
<polygon fill="none" stroke="red" points="143.5,-338.5 143.5,-368.5 271.5,-368.5 271.5,-338.5 143.5,-338.5"/>
<text text-anchor="start" x="151.5" y="-356.5" font-family="Helvetica,sans-Serif" font-size="10.00">leanux::tools::lmon</text>
<text text-anchor="middle" x="207.5" y="-345.5" font-family="Helvetica,sans-Serif" font-size="10.00">::IOView::getMinHeight</text>
</a>
</g>
</g>
<!-- Node6&#45;&gt;Node7 -->
<g id="edge4" class="edge">
<title>Node6&#45;&gt;Node7</title>
<path fill="none" stroke="midnightblue" d="M354.93,-253.57C336.98,-275.75 307.24,-308.85 275,-329.5 269.73,-332.88 263.92,-335.86 257.99,-338.47"/>
<polygon fill="midnightblue" stroke="midnightblue" points="357.74,-255.67 361.21,-245.66 352.25,-251.32 357.74,-255.67"/>
</g>
<!-- Node14 -->
<g id="node6" class="node">
<title>Node14</title>
<g id="a_node6"><a xlink:href="../../df/dcc/classleanux_1_1tools_1_1lmon_1_1NetView.html#ae72888be780638aca574db129155547e" target="_top" xlink:title="Get the minimal height for the NetView.">
<polygon fill="none" stroke="red" points="140,-289.5 140,-319.5 275,-319.5 275,-289.5 140,-289.5"/>
<text text-anchor="start" x="148" y="-307.5" font-family="Helvetica,sans-Serif" font-size="10.00">leanux::tools::lmon</text>
<text text-anchor="middle" x="207.5" y="-296.5" font-family="Helvetica,sans-Serif" font-size="10.00">::NetView::getMinHeight</text>
</a>
</g>
</g>
<!-- Node6&#45;&gt;Node14 -->
<g id="edge5" class="edge">
<title>Node6&#45;&gt;Node14</title>
<path fill="none" stroke="midnightblue" d="M336.16,-250.53C318.05,-260.16 295.65,-271.52 275,-280.5 267.91,-283.58 260.28,-286.6 252.81,-289.4"/>
<polygon fill="midnightblue" stroke="midnightblue" points="338.06,-253.49 345.21,-245.68 334.75,-247.32 338.06,-253.49"/>
</g>
<!-- Node13 -->
<g id="node7" class="node">
<title>Node13</title>
<g id="a_node7"><a xlink:href="../../d5/de6/classleanux_1_1tools_1_1lmon_1_1Screen.html#a5fceabd599c083204cf4fc2014694403" target="_top" xlink:title="Constructor.">
<polygon fill="none" stroke="black" points="152.5,-240.5 152.5,-270.5 262.5,-270.5 262.5,-240.5 152.5,-240.5"/>
<text text-anchor="start" x="160.5" y="-258.5" font-family="Helvetica,sans-Serif" font-size="10.00">leanux::tools::lmon</text>
<text text-anchor="middle" x="207.5" y="-247.5" font-family="Helvetica,sans-Serif" font-size="10.00">::Screen::Screen</text>
</a>
</g>
</g>
<!-- Node6&#45;&gt;Node13 -->
<g id="edge7" class="edge">
<title>Node6&#45;&gt;Node13</title>
<path fill="none" stroke="midnightblue" d="M300.78,-241.43C287.95,-243.39 274.79,-245.39 262.56,-247.26"/>
<polygon fill="midnightblue" stroke="midnightblue" points="301.61,-244.85 310.97,-239.88 300.55,-237.93 301.61,-244.85"/>
</g>
<!-- Node16 -->
<g id="node8" class="node">
<title>Node16</title>
<g id="a_node8"><a xlink:href="../../d4/d62/namespaceleanux_1_1tools_1_1lard.html#a45d90387f852d7a71981b5d4ff93d8da" target="_top" xlink:title=" ">
<polygon fill="none" stroke="black" points="155.5,-191.5 155.5,-221.5 259.5,-221.5 259.5,-191.5 155.5,-191.5"/>
<text text-anchor="start" x="163.5" y="-209.5" font-family="Helvetica,sans-Serif" font-size="10.00">leanux::tools::lard</text>
<text text-anchor="middle" x="207.5" y="-198.5" font-family="Helvetica,sans-Serif" font-size="10.00">::shrinkDB</text>
</a>
</g>
</g>
<!-- Node6&#45;&gt;Node16 -->
<g id="edge8" class="edge">
<title>Node6&#45;&gt;Node16</title>
<path fill="none" stroke="midnightblue" d="M300.94,-220.03C287.04,-217.99 272.74,-215.9 259.66,-213.99"/>
<polygon fill="midnightblue" stroke="midnightblue" points="300.56,-223.51 310.97,-221.5 301.58,-216.58 300.56,-223.51"/>
</g>
<!-- Node17 -->
<g id="node9" class="node">
<title>Node17</title>
<g id="a_node9"><a xlink:href="../../d4/d0e/classleanux_1_1tools_1_1lard_1_1ProcSnap.html#ab816bcbf8f8986599df48ee7131c10fb" target="_top" xlink:title=" ">
<polygon fill="none" stroke="black" points="146.5,-93.5 146.5,-123.5 268.5,-123.5 268.5,-93.5 146.5,-93.5"/>
<text text-anchor="start" x="154.5" y="-111.5" font-family="Helvetica,sans-Serif" font-size="10.00">leanux::tools::lard</text>
<text text-anchor="middle" x="207.5" y="-100.5" font-family="Helvetica,sans-Serif" font-size="10.00">::ProcSnap::storeSnap</text>
</a>
</g>
</g>
<!-- Node6&#45;&gt;Node17 -->
<g id="edge10" class="edge">
<title>Node6&#45;&gt;Node17</title>
<path fill="none" stroke="midnightblue" d="M354.47,-207.64C336.38,-186 306.7,-153.88 275,-133.5 269.19,-129.77 262.74,-126.47 256.21,-123.6"/>
<polygon fill="midnightblue" stroke="midnightblue" points="351.77,-209.86 360.82,-215.37 357.18,-205.42 351.77,-209.86"/>
</g>
<!-- Node18 -->
<g id="node10" class="node">
<title>Node18</title>
<g id="a_node10"><a xlink:href="../../d8/d7f/classleanux_1_1tools_1_1lmon_1_1IOView.html#ad5d8db29927cc18e861cfa5ba48ecd94" target="_top" xlink:title="refresh (redraw) the View.">
<polygon fill="none" stroke="black" points="152.5,-142.5 152.5,-172.5 262.5,-172.5 262.5,-142.5 152.5,-142.5"/>
<text text-anchor="start" x="160.5" y="-160.5" font-family="Helvetica,sans-Serif" font-size="10.00">leanux::tools::lmon</text>
<text text-anchor="middle" x="207.5" y="-149.5" font-family="Helvetica,sans-Serif" font-size="10.00">::IOView::xrefresh</text>
</a>
</g>
</g>
<!-- Node6&#45;&gt;Node18 -->
<g id="edge12" class="edge">
<title>Node6&#45;&gt;Node18</title>
<path fill="none" stroke="midnightblue" d="M334.85,-210.89C316.92,-201.83 295.05,-191.18 275,-182.5 267.19,-179.12 258.76,-175.74 250.61,-172.62"/>
<polygon fill="midnightblue" stroke="midnightblue" points="333.34,-214.05 343.84,-215.47 336.51,-207.81 333.34,-214.05"/>
</g>
<!-- Node16&#45;&gt;Node3 -->
<g id="edge9" class="edge">
<title>Node16&#45;&gt;Node3</title>
<path fill="none" stroke="midnightblue" d="M145.15,-206.5C131.56,-206.5 117.29,-206.5 104.15,-206.5"/>
<polygon fill="midnightblue" stroke="midnightblue" points="145.39,-210 155.39,-206.5 145.39,-203 145.39,-210"/>
</g>
<!-- Node17&#45;&gt;Node3 -->
<g id="edge11" class="edge">
<title>Node17&#45;&gt;Node3</title>
<path fill="none" stroke="midnightblue" d="M150.78,-127.81C147.06,-129.59 143.44,-131.49 140,-133.5 112.08,-149.81 84.23,-175.19 67.82,-191.31"/>
<polygon fill="midnightblue" stroke="midnightblue" points="152.44,-130.9 160.13,-123.61 149.57,-124.51 152.44,-130.9"/>
</g>
<!-- Node20 -->
<g id="node12" class="node">
<title>Node20</title>
<g id="a_node12"><a xlink:href="../../d9/d1b/classleanux_1_1tools_1_1lmon_1_1Palette.html#aff7f53f61a567297f5cfd9a4ee880e51" target="_top" xlink:title="setup the Palette.">
<polygon fill="none" stroke="red" points="152.5,-44.5 152.5,-74.5 262.5,-74.5 262.5,-44.5 152.5,-44.5"/>
<text text-anchor="start" x="160.5" y="-62.5" font-family="Helvetica,sans-Serif" font-size="10.00">leanux::tools::lmon</text>
<text text-anchor="middle" x="207.5" y="-51.5" font-family="Helvetica,sans-Serif" font-size="10.00">::Palette::setup</text>
</a>
</g>
</g>
<!-- Node19&#45;&gt;Node20 -->
<g id="edge14" class="edge">
<title>Node19&#45;&gt;Node20</title>
<path fill="none" stroke="midnightblue" d="M300.78,-62.31C287.95,-61.92 274.79,-61.52 262.56,-61.15"/>
<polygon fill="midnightblue" stroke="midnightblue" points="300.86,-65.82 310.97,-62.62 301.08,-58.82 300.86,-65.82"/>
</g>
<!-- Node22&#45;&gt;Node17 -->
<g id="edge16" class="edge">
<title>Node22&#45;&gt;Node17</title>
<path fill="none" stroke="midnightblue" d="M300.81,-111.31C290.11,-110.99 279.17,-110.65 268.75,-110.34"/>
<polygon fill="midnightblue" stroke="midnightblue" points="300.86,-114.82 310.97,-111.62 301.08,-107.82 300.86,-114.82"/>
</g>
<!-- Node23&#45;&gt;Node3 -->
<g id="edge18" class="edge">
<title>Node23&#45;&gt;Node3</title>
<path fill="none" stroke="midnightblue" d="M311.06,-5.4C260.82,-0.52 190.13,-1.72 140,-35.5 84.48,-72.91 62.51,-156.99 55.63,-191.39"/>
<polygon fill="midnightblue" stroke="midnightblue" points="310.82,-8.9 321.14,-6.49 311.57,-1.94 310.82,-8.9"/>
</g>
</g>
</svg>
