<?xml version="1.0" encoding="UTF-8" standalone="no"?>
<!DOCTYPE svg PUBLIC "-//W3C//DTD SVG 1.1//EN"
 "http://www.w3.org/Graphics/SVG/1.1/DTD/svg11.dtd">
<!-- Generated by graphviz version 2.43.0 (0)
 -->
<!-- Title: leanux::util::ConfigFile::getConfig Pages: 1 -->
<svg width="804pt" height="913pt"
 viewBox="0.00 0.00 804.00 913.00" xmlns="http://www.w3.org/2000/svg" xmlns:xlink="http://www.w3.org/1999/xlink">
<g id="graph0" class="graph" transform="scale(1 1) rotate(0) translate(4 909)">
<title>leanux::util::ConfigFile::getConfig</title>
<!-- Node1 -->
<g id="node1" class="node">
<title>Node1</title>
<g id="a_node1"><a xlink:title="Get the ConfigurationFile object for the appname, or construct one if it does not exist.">
<polygon fill="#bfbfbf" stroke="black" points="671,-445.5 671,-475.5 796,-475.5 796,-445.5 671,-445.5"/>
<text text-anchor="start" x="679" y="-463.5" font-family="Helvetica,sans-Serif" font-size="10.00">leanux::util::ConfigFile</text>
<text text-anchor="middle" x="733.5" y="-452.5" font-family="Helvetica,sans-Serif" font-size="10.00">::getConfig</text>
</a>
</g>
</g>
<!-- Node2 -->
<g id="node2" class="node">
<title>Node2</title>
<g id="a_node2"><a xlink:href="../../d4/d62/namespaceleanux_1_1tools_1_1lard.html#a98a04e0c068c5083ad571ebc9b79d693" target="_top" xlink:title=" ">
<polygon fill="none" stroke="black" points="515.5,-225.5 515.5,-255.5 619.5,-255.5 619.5,-225.5 515.5,-225.5"/>
<text text-anchor="start" x="523.5" y="-243.5" font-family="Helvetica,sans-Serif" font-size="10.00">leanux::tools::lard</text>
<text text-anchor="middle" x="567.5" y="-232.5" font-family="Helvetica,sans-Serif" font-size="10.00">::applyRetention</text>
</a>
</g>
</g>
<!-- Node1&#45;&gt;Node2 -->
<g id="edge1" class="edge">
<title>Node1&#45;&gt;Node2</title>
<path fill="none" stroke="midnightblue" d="M726.48,-435.8C715.29,-394.86 687.51,-312.81 635,-265.5 630.51,-261.45 625.3,-258.04 619.82,-255.17"/>
<polygon fill="midnightblue" stroke="midnightblue" points="723.11,-436.72 729.03,-445.5 729.88,-434.94 723.11,-436.72"/>
</g>
<!-- Node3 -->
<g id="node3" class="node">
<title>Node3</title>
<g id="a_node3"><a xlink:href="../../d4/d62/namespaceleanux_1_1tools_1_1lard.html#a6de74bbef1d571bf7eb000e62900a11d" target="_top" xlink:title=" ">
<polygon fill="none" stroke="black" points="334,-519.5 334,-549.5 438,-549.5 438,-519.5 334,-519.5"/>
<text text-anchor="start" x="342" y="-537.5" font-family="Helvetica,sans-Serif" font-size="10.00">leanux::tools::lard</text>
<text text-anchor="middle" x="386" y="-526.5" font-family="Helvetica,sans-Serif" font-size="10.00">::mainLoop</text>
</a>
</g>
</g>
<!-- Node1&#45;&gt;Node3 -->
<g id="edge21" class="edge">
<title>Node1&#45;&gt;Node3</title>
<path fill="none" stroke="midnightblue" d="M731.28,-485.58C727.24,-537.4 709.86,-655.65 635,-706.5 585.37,-740.22 552.8,-734.99 500,-706.5 436.48,-672.23 402.85,-584.95 391.48,-549.66"/>
<polygon fill="midnightblue" stroke="midnightblue" points="734.77,-485.79 731.95,-475.58 727.79,-485.32 734.77,-485.79"/>
</g>
<!-- Node4 -->
<g id="node4" class="node">
<title>Node4</title>
<g id="a_node4"><a xlink:href="../../d4/d62/namespaceleanux_1_1tools_1_1lard.html#aecb1bb340203cfe30357d494d4b2622e" target="_top" xlink:title="Entry point.">
<polygon fill="none" stroke="red" points="157,-742.5 157,-772.5 261,-772.5 261,-742.5 157,-742.5"/>
<text text-anchor="start" x="165" y="-760.5" font-family="Helvetica,sans-Serif" font-size="10.00">leanux::tools::lard</text>
<text text-anchor="middle" x="209" y="-749.5" font-family="Helvetica,sans-Serif" font-size="10.00">::main</text>
</a>
</g>
</g>
<!-- Node1&#45;&gt;Node4 -->
<g id="edge20" class="edge">
<title>Node1&#45;&gt;Node4</title>
<path fill="none" stroke="midnightblue" d="M731.98,-486.11C729.34,-541.42 714.54,-671.88 635,-731.5 577.33,-774.73 360.93,-767.19 261.07,-761.14"/>
<polygon fill="midnightblue" stroke="midnightblue" points="735.49,-485.92 732.38,-475.79 728.5,-485.65 735.49,-485.92"/>
</g>
<!-- Node6 -->
<g id="node5" class="node">
<title>Node6</title>
<g id="a_node5"><a xlink:href="../../d4/d62/namespaceleanux_1_1tools_1_1lard.html#aee987aaaf44a4832b535ecf78065d963" target="_top" xlink:title=" ">
<polygon fill="none" stroke="black" points="515.5,-666.5 515.5,-696.5 619.5,-696.5 619.5,-666.5 515.5,-666.5"/>
<text text-anchor="start" x="523.5" y="-684.5" font-family="Helvetica,sans-Serif" font-size="10.00">leanux::tools::lard</text>
<text text-anchor="middle" x="567.5" y="-673.5" font-family="Helvetica,sans-Serif" font-size="10.00">::ensureSinglePid</text>
</a>
</g>
</g>
<!-- Node1&#45;&gt;Node6 -->
<g id="edge4" class="edge">
<title>Node1&#45;&gt;Node6</title>
<path fill="none" stroke="midnightblue" d="M726.63,-485.53C715.65,-526.99 688.16,-610.04 635,-657.5 630.51,-661.51 625.31,-664.86 619.82,-667.66"/>
<polygon fill="midnightblue" stroke="midnightblue" points="730.05,-486.26 729.12,-475.7 723.27,-484.53 730.05,-486.26"/>
</g>
<!-- Node7 -->
<g id="node6" class="node">
<title>Node7</title>
<g id="a_node6"><a xlink:href="../../d8/d7f/classleanux_1_1tools_1_1lmon_1_1IOView.html#a9cfd6542a5437edf7c232fc7d05fbb72" target="_top" xlink:title="The minimum height (lines) required by the Footer.">
<polygon fill="none" stroke="black" points="322,-225.5 322,-255.5 450,-255.5 450,-225.5 322,-225.5"/>
<text text-anchor="start" x="330" y="-243.5" font-family="Helvetica,sans-Serif" font-size="10.00">leanux::tools::lmon</text>
<text text-anchor="middle" x="386" y="-232.5" font-family="Helvetica,sans-Serif" font-size="10.00">::IOView::getMinHeight</text>
</a>
</g>
</g>
<!-- Node1&#45;&gt;Node7 -->
<g id="edge6" class="edge">
<title>Node1&#45;&gt;Node7</title>
<path fill="none" stroke="midnightblue" d="M731.15,-434.92C726.87,-383.16 709.07,-266.67 635,-216.5 568.92,-171.75 469.27,-203.97 418.77,-225.46"/>
<polygon fill="midnightblue" stroke="midnightblue" points="727.68,-435.5 731.89,-445.22 734.66,-434.99 727.68,-435.5"/>
</g>
<!-- Node13 -->
<g id="node8" class="node">
<title>Node13</title>
<g id="a_node8"><a xlink:href="../../d5/de6/classleanux_1_1tools_1_1lmon_1_1Screen.html#a5fceabd599c083204cf4fc2014694403" target="_top" xlink:title="Constructor.">
<polygon fill="none" stroke="black" points="0,-830.5 0,-860.5 110,-860.5 110,-830.5 0,-830.5"/>
<text text-anchor="start" x="8" y="-848.5" font-family="Helvetica,sans-Serif" font-size="10.00">leanux::tools::lmon</text>
<text text-anchor="middle" x="55" y="-837.5" font-family="Helvetica,sans-Serif" font-size="10.00">::Screen::Screen</text>
</a>
</g>
</g>
<!-- Node1&#45;&gt;Node13 -->
<g id="edge22" class="edge">
<title>Node1&#45;&gt;Node13</title>
<path fill="none" stroke="midnightblue" d="M729.14,-486.01C718.94,-559.3 685.87,-767.98 635,-810.5 556.57,-876.05 238.45,-859.65 110.09,-850.05"/>
<polygon fill="midnightblue" stroke="midnightblue" points="732.64,-486.21 730.53,-475.83 725.71,-485.27 732.64,-486.21"/>
</g>
<!-- Node14 -->
<g id="node9" class="node">
<title>Node14</title>
<g id="a_node9"><a xlink:href="../../df/dcc/classleanux_1_1tools_1_1lmon_1_1NetView.html#ae72888be780638aca574db129155547e" target="_top" xlink:title="Get the minimal height for the NetView.">
<polygon fill="none" stroke="black" points="500,-137.5 500,-167.5 635,-167.5 635,-137.5 500,-137.5"/>
<text text-anchor="start" x="508" y="-155.5" font-family="Helvetica,sans-Serif" font-size="10.00">leanux::tools::lmon</text>
<text text-anchor="middle" x="567.5" y="-144.5" font-family="Helvetica,sans-Serif" font-size="10.00">::NetView::getMinHeight</text>
</a>
</g>
</g>
<!-- Node1&#45;&gt;Node14 -->
<g id="edge9" class="edge">
<title>Node1&#45;&gt;Node14</title>
<path fill="none" stroke="midnightblue" d="M730.24,-435.21C724.22,-381.93 703.26,-256.93 635,-182.5 629.44,-176.43 622.41,-171.51 615.02,-167.55"/>
<polygon fill="midnightblue" stroke="midnightblue" points="726.79,-435.86 731.31,-445.45 733.76,-435.14 726.79,-435.86"/>
</g>
<!-- Node16 -->
<g id="node11" class="node">
<title>Node16</title>
<g id="a_node11"><a xlink:href="../../d8/d7f/classleanux_1_1tools_1_1lmon_1_1IOView.html#a466bf2f2261b917b31ae2664ec8fbed0" target="_top" xlink:title="provide the optimal height for the Header.">
<polygon fill="none" stroke="black" points="311.5,-88.5 311.5,-118.5 460.5,-118.5 460.5,-88.5 311.5,-88.5"/>
<text text-anchor="start" x="319.5" y="-106.5" font-family="Helvetica,sans-Serif" font-size="10.00">leanux::tools::lmon</text>
<text text-anchor="middle" x="386" y="-95.5" font-family="Helvetica,sans-Serif" font-size="10.00">::IOView::getOptimalHeight</text>
</a>
</g>
</g>
<!-- Node1&#45;&gt;Node16 -->
<g id="edge13" class="edge">
<title>Node1&#45;&gt;Node16</title>
<path fill="none" stroke="midnightblue" d="M728.72,-434.83C717.74,-363.86 683.46,-167.6 635,-127.5 609.21,-106.16 523.98,-101.85 460.59,-101.78"/>
<polygon fill="midnightblue" stroke="midnightblue" points="725.32,-435.74 730.29,-445.1 732.24,-434.69 725.32,-435.74"/>
</g>
<!-- Node17 -->
<g id="node12" class="node">
<title>Node17</title>
<g id="a_node12"><a xlink:href="../../d4/d62/namespaceleanux_1_1tools_1_1lard.html#a9492d51a0046e33c7a4dda4229537548" target="_top" xlink:title="set page_size and enable WAL mode.">
<polygon fill="none" stroke="black" points="515.5,-617.5 515.5,-647.5 619.5,-647.5 619.5,-617.5 515.5,-617.5"/>
<text text-anchor="start" x="523.5" y="-635.5" font-family="Helvetica,sans-Serif" font-size="10.00">leanux::tools::lard</text>
<text text-anchor="middle" x="567.5" y="-624.5" font-family="Helvetica,sans-Serif" font-size="10.00">::initDB</text>
</a>
</g>
</g>
<!-- Node1&#45;&gt;Node17 -->
<g id="edge15" class="edge">
<title>Node1&#45;&gt;Node17</title>
<path fill="none" stroke="midnightblue" d="M722.3,-485.11C707.61,-517.72 677.49,-575.02 635,-608.5 630.37,-612.15 625.14,-615.27 619.7,-617.94"/>
<polygon fill="midnightblue" stroke="midnightblue" points="725.56,-486.4 726.36,-475.84 719.15,-483.59 725.56,-486.4"/>
</g>
<!-- Node18 -->
<g id="node13" class="node">
<title>Node18</title>
<g id="a_node13"><a xlink:href="../../d4/d62/namespaceleanux_1_1tools_1_1lard.html#af056336c72314eb796c2815eec0d218b" target="_top" xlink:title=" ">
<polygon fill="none" stroke="black" points="332.5,-786.5 332.5,-816.5 439.5,-816.5 439.5,-786.5 332.5,-786.5"/>
<text text-anchor="start" x="340.5" y="-804.5" font-family="Helvetica,sans-Serif" font-size="10.00">leanux::tools::lard</text>
<text text-anchor="middle" x="386" y="-793.5" font-family="Helvetica,sans-Serif" font-size="10.00">::interrupt_handler</text>
</a>
</g>
</g>
<!-- Node1&#45;&gt;Node18 -->
<g id="edge17" class="edge">
<title>Node1&#45;&gt;Node18</title>
<path fill="none" stroke="midnightblue" d="M733.34,-485.82C733.83,-547.04 725.71,-703.48 635,-777.5 580.29,-822.15 494.5,-819.61 439.53,-811.91"/>
<polygon fill="midnightblue" stroke="midnightblue" points="736.83,-485.48 733.16,-475.54 729.83,-485.6 736.83,-485.48"/>
</g>
<!-- Node10 -->
<g id="node14" class="node">
<title>Node10</title>
<g id="a_node14"><a xlink:href="../../da/dbe/namespaceleanux_1_1tools_1_1lmon.html#a7f59af183bc55b66e3dc0844b473daaf" target="_top" xlink:title=" ">
<polygon fill="none" stroke="red" points="512.5,-421.5 512.5,-451.5 622.5,-451.5 622.5,-421.5 512.5,-421.5"/>
<text text-anchor="start" x="520.5" y="-439.5" font-family="Helvetica,sans-Serif" font-size="10.00">leanux::tools::lmon</text>
<text text-anchor="middle" x="567.5" y="-428.5" font-family="Helvetica,sans-Serif" font-size="10.00">::main</text>
</a>
</g>
</g>
<!-- Node1&#45;&gt;Node10 -->
<g id="edge19" class="edge">
<title>Node1&#45;&gt;Node10</title>
<path fill="none" stroke="midnightblue" d="M660.78,-450C647.95,-448.13 634.79,-446.2 622.56,-444.41"/>
<polygon fill="midnightblue" stroke="midnightblue" points="660.56,-453.51 670.97,-451.5 661.58,-446.58 660.56,-453.51"/>
</g>
<!-- Node19 -->
<g id="node15" class="node">
<title>Node19</title>
<g id="a_node15"><a xlink:href="../../d9/d1b/classleanux_1_1tools_1_1lmon_1_1Palette.html#aff7f53f61a567297f5cfd9a4ee880e51" target="_top" xlink:title="setup the Palette.">
<polygon fill="none" stroke="black" points="512.5,-874.5 512.5,-904.5 622.5,-904.5 622.5,-874.5 512.5,-874.5"/>
<text text-anchor="start" x="520.5" y="-892.5" font-family="Helvetica,sans-Serif" font-size="10.00">leanux::tools::lmon</text>
<text text-anchor="middle" x="567.5" y="-881.5" font-family="Helvetica,sans-Serif" font-size="10.00">::Palette::setup</text>
</a>
</g>
</g>
<!-- Node1&#45;&gt;Node19 -->
<g id="edge23" class="edge">
<title>Node1&#45;&gt;Node19</title>
<path fill="none" stroke="midnightblue" d="M729.28,-485.57C718.8,-563.7 683.53,-801.09 635,-859.5 629.98,-865.54 623.49,-870.41 616.54,-874.33"/>
<polygon fill="midnightblue" stroke="midnightblue" points="732.75,-486.01 730.59,-475.63 725.81,-485.09 732.75,-486.01"/>
</g>
<!-- Node21 -->
<g id="node17" class="node">
<title>Node21</title>
<g id="a_node17"><a xlink:href="../../d4/d62/namespaceleanux_1_1tools_1_1lard.html#a45d90387f852d7a71981b5d4ff93d8da" target="_top" xlink:title=" ">
<polygon fill="none" stroke="black" points="515.5,-568.5 515.5,-598.5 619.5,-598.5 619.5,-568.5 515.5,-568.5"/>
<text text-anchor="start" x="523.5" y="-586.5" font-family="Helvetica,sans-Serif" font-size="10.00">leanux::tools::lard</text>
<text text-anchor="middle" x="567.5" y="-575.5" font-family="Helvetica,sans-Serif" font-size="10.00">::shrinkDB</text>
</a>
</g>
</g>
<!-- Node1&#45;&gt;Node21 -->
<g id="edge26" class="edge">
<title>Node1&#45;&gt;Node21</title>
<path fill="none" stroke="midnightblue" d="M714.93,-483.57C696.98,-505.75 667.24,-538.85 635,-559.5 629.73,-562.88 623.92,-565.86 617.99,-568.47"/>
<polygon fill="midnightblue" stroke="midnightblue" points="717.74,-485.67 721.21,-475.66 712.25,-481.32 717.74,-485.67"/>
</g>
<!-- Node22 -->
<g id="node18" class="node">
<title>Node22</title>
<g id="a_node18"><a xlink:href="../../d8/d77/classleanux_1_1tools_1_1lard_1_1IOSnap.html#acd9defb7ca62e96d5f76b04b3e365b41" target="_top" xlink:title=" ">
<polygon fill="none" stroke="black" points="511.5,-519.5 511.5,-549.5 623.5,-549.5 623.5,-519.5 511.5,-519.5"/>
<text text-anchor="start" x="519.5" y="-537.5" font-family="Helvetica,sans-Serif" font-size="10.00">leanux::tools::lard</text>
<text text-anchor="middle" x="567.5" y="-526.5" font-family="Helvetica,sans-Serif" font-size="10.00">::IOSnap::storeSnap</text>
</a>
</g>
</g>
<!-- Node1&#45;&gt;Node22 -->
<g id="edge28" class="edge">
<title>Node1&#45;&gt;Node22</title>
<path fill="none" stroke="midnightblue" d="M696.16,-480.53C678.05,-490.16 655.65,-501.52 635,-510.5 627.91,-513.58 620.28,-516.6 612.81,-519.4"/>
<polygon fill="midnightblue" stroke="midnightblue" points="698.06,-483.49 705.21,-475.68 694.75,-477.32 698.06,-483.49"/>
</g>
<!-- Node23 -->
<g id="node19" class="node">
<title>Node23</title>
<g id="a_node19"><a xlink:href="../../d4/d0e/classleanux_1_1tools_1_1lard_1_1ProcSnap.html#ab816bcbf8f8986599df48ee7131c10fb" target="_top" xlink:title=" ">
<polygon fill="none" stroke="black" points="506.5,-470.5 506.5,-500.5 628.5,-500.5 628.5,-470.5 506.5,-470.5"/>
<text text-anchor="start" x="514.5" y="-488.5" font-family="Helvetica,sans-Serif" font-size="10.00">leanux::tools::lard</text>
<text text-anchor="middle" x="567.5" y="-477.5" font-family="Helvetica,sans-Serif" font-size="10.00">::ProcSnap::storeSnap</text>
</a>
</g>
</g>
<!-- Node1&#45;&gt;Node23 -->
<g id="edge30" class="edge">
<title>Node1&#45;&gt;Node23</title>
<path fill="none" stroke="midnightblue" d="M660.81,-471.43C650.11,-473.06 639.17,-474.73 628.75,-476.32"/>
<polygon fill="midnightblue" stroke="midnightblue" points="661.61,-474.85 670.97,-469.88 660.55,-467.93 661.61,-474.85"/>
</g>
<!-- Node24 -->
<g id="node20" class="node">
<title>Node24</title>
<g id="a_node20"><a xlink:href="../../d0/db5/classleanux_1_1tools_1_1lard_1_1MountSnap.html#a7288efb64fc31818416b8c52c4ba3a0d" target="_top" xlink:title=" ">
<polygon fill="none" stroke="black" points="501.5,-372.5 501.5,-402.5 633.5,-402.5 633.5,-372.5 501.5,-372.5"/>
<text text-anchor="start" x="509.5" y="-390.5" font-family="Helvetica,sans-Serif" font-size="10.00">leanux::tools::lard</text>
<text text-anchor="middle" x="567.5" y="-379.5" font-family="Helvetica,sans-Serif" font-size="10.00">::MountSnap::storeSnap</text>
</a>
</g>
</g>
<!-- Node1&#45;&gt;Node24 -->
<g id="edge32" class="edge">
<title>Node1&#45;&gt;Node24</title>
<path fill="none" stroke="midnightblue" d="M694.85,-440.89C676.92,-431.83 655.05,-421.18 635,-412.5 627.19,-409.12 618.76,-405.74 610.61,-402.62"/>
<polygon fill="midnightblue" stroke="midnightblue" points="693.34,-444.05 703.84,-445.47 696.51,-437.81 693.34,-444.05"/>
</g>
<!-- Node25 -->
<g id="node21" class="node">
<title>Node25</title>
<g id="a_node21"><a xlink:href="../../d4/d62/namespaceleanux_1_1tools_1_1lard.html#a916cea2cf80aa0a17a8f96c8a7b19a8a" target="_top" xlink:title=" ">
<polygon fill="none" stroke="black" points="515.5,-323.5 515.5,-353.5 619.5,-353.5 619.5,-323.5 515.5,-323.5"/>
<text text-anchor="start" x="523.5" y="-341.5" font-family="Helvetica,sans-Serif" font-size="10.00">leanux::tools::lard</text>
<text text-anchor="middle" x="567.5" y="-330.5" font-family="Helvetica,sans-Serif" font-size="10.00">::updateSchema</text>
</a>
</g>
</g>
<!-- Node1&#45;&gt;Node25 -->
<g id="edge34" class="edge">
<title>Node1&#45;&gt;Node25</title>
<path fill="none" stroke="midnightblue" d="M714.47,-437.64C696.38,-416 666.7,-383.88 635,-363.5 629.19,-359.77 622.74,-356.47 616.21,-353.6"/>
<polygon fill="midnightblue" stroke="midnightblue" points="711.77,-439.86 720.82,-445.37 717.18,-435.42 711.77,-439.86"/>
</g>
<!-- Node26 -->
<g id="node22" class="node">
<title>Node26</title>
<g id="a_node22"><a xlink:href="../../d4/d62/namespaceleanux_1_1tools_1_1lard.html#a1836a03324cfc7e84a5563a59566d8aa" target="_top" xlink:title=" ">
<polygon fill="none" stroke="black" points="514.5,-274.5 514.5,-304.5 620.5,-304.5 620.5,-274.5 514.5,-274.5"/>
<text text-anchor="start" x="522.5" y="-292.5" font-family="Helvetica,sans-Serif" font-size="10.00">leanux::tools::lard</text>
<text text-anchor="middle" x="567.5" y="-281.5" font-family="Helvetica,sans-Serif" font-size="10.00">::wait_log_handler</text>
</a>
</g>
</g>
<!-- Node1&#45;&gt;Node26 -->
<g id="edge36" class="edge">
<title>Node1&#45;&gt;Node26</title>
<path fill="none" stroke="midnightblue" d="M722.15,-436.3C707.28,-404.23 676.98,-347.81 635,-314.5 630.17,-310.67 624.69,-307.38 619,-304.56"/>
<polygon fill="midnightblue" stroke="midnightblue" points="718.96,-437.75 726.26,-445.42 725.34,-434.87 718.96,-437.75"/>
</g>
<!-- Node27 -->
<g id="node23" class="node">
<title>Node27</title>
<g id="a_node23"><a xlink:href="../../d8/d7f/classleanux_1_1tools_1_1lmon_1_1IOView.html#ad5d8db29927cc18e861cfa5ba48ecd94" target="_top" xlink:title="refresh (redraw) the View.">
<polygon fill="none" stroke="black" points="512.5,-49.5 512.5,-79.5 622.5,-79.5 622.5,-49.5 512.5,-49.5"/>
<text text-anchor="start" x="520.5" y="-67.5" font-family="Helvetica,sans-Serif" font-size="10.00">leanux::tools::lmon</text>
<text text-anchor="middle" x="567.5" y="-56.5" font-family="Helvetica,sans-Serif" font-size="10.00">::IOView::xrefresh</text>
</a>
</g>
</g>
<!-- Node1&#45;&gt;Node27 -->
<g id="edge38" class="edge">
<title>Node1&#45;&gt;Node27</title>
<path fill="none" stroke="midnightblue" d="M732.82,-435.07C732.29,-370.37 722.28,-197.35 635,-94.5 629.84,-88.42 623.19,-83.51 616.1,-79.57"/>
<polygon fill="midnightblue" stroke="midnightblue" points="729.32,-435.18 732.83,-445.18 736.32,-435.18 729.32,-435.18"/>
</g>
<!-- Node28 -->
<g id="node24" class="node">
<title>Node28</title>
<g id="a_node24"><a xlink:href="../../d5/de6/classleanux_1_1tools_1_1lmon_1_1Screen.html#a404290f829ce6132e1bbb21dd942f598" target="_top" xlink:title="Destructor.">
<polygon fill="none" stroke="black" points="512.5,-0.5 512.5,-30.5 622.5,-30.5 622.5,-0.5 512.5,-0.5"/>
<text text-anchor="start" x="520.5" y="-18.5" font-family="Helvetica,sans-Serif" font-size="10.00">leanux::tools::lmon</text>
<text text-anchor="middle" x="567.5" y="-7.5" font-family="Helvetica,sans-Serif" font-size="10.00">::Screen::~Screen</text>
</a>
</g>
</g>
<!-- Node1&#45;&gt;Node28 -->
<g id="edge39" class="edge">
<title>Node1&#45;&gt;Node28</title>
<path fill="none" stroke="midnightblue" d="M729.78,-435C720.6,-353.24 688.28,-99.52 635,-39.5 631.5,-35.55 627.29,-32.25 622.72,-29.5"/>
<polygon fill="midnightblue" stroke="midnightblue" points="726.35,-435.8 730.93,-445.36 733.31,-435.03 726.35,-435.8"/>
</g>
<!-- Node2&#45;&gt;Node3 -->
<g id="edge2" class="edge">
<title>Node2&#45;&gt;Node3</title>
<path fill="none" stroke="midnightblue" d="M506.73,-259.95C504.34,-261.65 502.08,-263.5 500,-265.5 423,-339.62 396.16,-474.3 389.11,-519.36"/>
<polygon fill="midnightblue" stroke="midnightblue" points="508.57,-262.92 515.25,-254.7 504.9,-256.96 508.57,-262.92"/>
</g>
<!-- Node3&#45;&gt;Node4 -->
<g id="edge3" class="edge">
<title>Node3&#45;&gt;Node4</title>
<path fill="none" stroke="midnightblue" d="M366.79,-557.7C330.9,-603.44 251.89,-704.12 221.88,-742.36"/>
<polygon fill="midnightblue" stroke="midnightblue" points="369.55,-559.86 372.97,-549.83 364.04,-555.53 369.55,-559.86"/>
</g>
<!-- Node6&#45;&gt;Node3 -->
<g id="edge5" class="edge">
<title>Node6&#45;&gt;Node3</title>
<path fill="none" stroke="midnightblue" d="M507.5,-662.01C504.91,-660.6 502.4,-659.09 500,-657.5 454.61,-627.3 414.95,-575.12 397.08,-549.53"/>
<polygon fill="midnightblue" stroke="midnightblue" points="506.03,-665.19 516.55,-666.49 509.14,-658.92 506.03,-665.19"/>
</g>
<!-- Node8 -->
<g id="node7" class="node">
<title>Node8</title>
<g id="a_node7"><a xlink:href="../../d5/de6/classleanux_1_1tools_1_1lmon_1_1Screen.html#abcaa706fe703bbf453808220fcaf8263" target="_top" xlink:title="Recalculate the window sizes.">
<polygon fill="none" stroke="red" points="146,-181.5 146,-211.5 272,-211.5 272,-181.5 146,-181.5"/>
<text text-anchor="start" x="154" y="-199.5" font-family="Helvetica,sans-Serif" font-size="10.00">leanux::tools::lmon</text>
<text text-anchor="middle" x="209" y="-188.5" font-family="Helvetica,sans-Serif" font-size="10.00">::Screen::screenResize</text>
</a>
</g>
</g>
<!-- Node7&#45;&gt;Node8 -->
<g id="edge7" class="edge">
<title>Node7&#45;&gt;Node8</title>
<path fill="none" stroke="midnightblue" d="M315.46,-223.01C300.33,-219.21 284.47,-215.22 269.76,-211.53"/>
<polygon fill="midnightblue" stroke="midnightblue" points="314.71,-226.44 325.26,-225.48 316.42,-219.65 314.71,-226.44"/>
</g>
<!-- Node8&#45;&gt;Node13 -->
<g id="edge8" class="edge">
<title>Node8&#45;&gt;Node13</title>
<path fill="none" stroke="midnightblue" d="M202.15,-221.48C177.11,-328.39 79.33,-745.89 59.51,-830.5"/>
<polygon fill="midnightblue" stroke="midnightblue" points="205.59,-222.12 204.47,-211.59 198.78,-220.53 205.59,-222.12"/>
</g>
<!-- Node14&#45;&gt;Node8 -->
<g id="edge12" class="edge">
<title>Node14&#45;&gt;Node8</title>
<path fill="none" stroke="midnightblue" d="M502.11,-169.91C489.55,-172.83 476.42,-175.53 464,-177.5 399.03,-187.78 323.81,-192.53 272.18,-194.7"/>
<polygon fill="midnightblue" stroke="midnightblue" points="503.13,-173.27 512.05,-167.54 501.51,-166.46 503.13,-173.27"/>
</g>
<!-- Node15 -->
<g id="node10" class="node">
<title>Node15</title>
<g id="a_node10"><a xlink:href="../../df/dcc/classleanux_1_1tools_1_1lmon_1_1NetView.html#a90d83dccb33390f86d92374070075b29" target="_top" xlink:title="provide the optimal height for the NetView,">
<polygon fill="none" stroke="black" points="308,-137.5 308,-167.5 464,-167.5 464,-137.5 308,-137.5"/>
<text text-anchor="start" x="316" y="-155.5" font-family="Helvetica,sans-Serif" font-size="10.00">leanux::tools::lmon</text>
<text text-anchor="middle" x="386" y="-144.5" font-family="Helvetica,sans-Serif" font-size="10.00">::NetView::getOptimalHeight</text>
</a>
</g>
</g>
<!-- Node14&#45;&gt;Node15 -->
<g id="edge10" class="edge">
<title>Node14&#45;&gt;Node15</title>
<path fill="none" stroke="midnightblue" d="M489.67,-152.5C481.19,-152.5 472.56,-152.5 464.08,-152.5"/>
<polygon fill="midnightblue" stroke="midnightblue" points="489.92,-156 499.92,-152.5 489.92,-149 489.92,-156"/>
</g>
<!-- Node15&#45;&gt;Node8 -->
<g id="edge11" class="edge">
<title>Node15&#45;&gt;Node8</title>
<path fill="none" stroke="midnightblue" d="M315.46,-169.99C300.33,-173.79 284.47,-177.78 269.76,-181.47"/>
<polygon fill="midnightblue" stroke="midnightblue" points="316.42,-173.35 325.26,-167.52 314.71,-166.56 316.42,-173.35"/>
</g>
<!-- Node16&#45;&gt;Node8 -->
<g id="edge14" class="edge">
<title>Node16&#45;&gt;Node8</title>
<path fill="none" stroke="midnightblue" d="M319.89,-122.19C315.81,-123.85 311.82,-125.62 308,-127.5 277.76,-142.4 246.55,-166.07 227.71,-181.45"/>
<polygon fill="midnightblue" stroke="midnightblue" points="321.41,-125.35 329.5,-118.5 318.91,-118.81 321.41,-125.35"/>
</g>
<!-- Node17&#45;&gt;Node3 -->
<g id="edge16" class="edge">
<title>Node17&#45;&gt;Node3</title>
<path fill="none" stroke="midnightblue" d="M511.02,-613.6C507.25,-611.97 503.54,-610.27 500,-608.5 465.59,-591.32 428.89,-565.78 406.96,-549.65"/>
<polygon fill="midnightblue" stroke="midnightblue" points="509.9,-616.92 520.48,-617.48 512.56,-610.45 509.9,-616.92"/>
</g>
<!-- Node18&#45;&gt;Node4 -->
<g id="edge18" class="edge">
<title>Node18&#45;&gt;Node4</title>
<path fill="none" stroke="midnightblue" d="M322.78,-785.86C302.63,-780.79 280.53,-775.23 261.26,-770.39"/>
<polygon fill="midnightblue" stroke="midnightblue" points="321.94,-789.25 332.49,-788.3 323.65,-782.47 321.94,-789.25"/>
</g>
<!-- Node20 -->
<g id="node16" class="node">
<title>Node20</title>
<g id="a_node16"><a xlink:href="../../d5/de6/classleanux_1_1tools_1_1lmon_1_1Screen.html#a5384c2d32ae6862fa3d1fa0531915d72" target="_top" xlink:title="Initialize and start the ncurses Screen.">
<polygon fill="none" stroke="black" points="149.5,-874.5 149.5,-904.5 268.5,-904.5 268.5,-874.5 149.5,-874.5"/>
<text text-anchor="start" x="157.5" y="-892.5" font-family="Helvetica,sans-Serif" font-size="10.00">leanux::tools::lmon</text>
<text text-anchor="middle" x="209" y="-881.5" font-family="Helvetica,sans-Serif" font-size="10.00">::Screen::initTerminal</text>
</a>
</g>
</g>
<!-- Node19&#45;&gt;Node20 -->
<g id="edge24" class="edge">
<title>Node19&#45;&gt;Node20</title>
<path fill="none" stroke="midnightblue" d="M502.01,-889.5C435.51,-889.5 332.73,-889.5 268.51,-889.5"/>
<polygon fill="midnightblue" stroke="midnightblue" points="502.36,-893 512.36,-889.5 502.36,-886 502.36,-893"/>
</g>
<!-- Node20&#45;&gt;Node13 -->
<g id="edge25" class="edge">
<title>Node20&#45;&gt;Node13</title>
<path fill="none" stroke="midnightblue" d="M146.47,-871.69C133.68,-867.98 120.31,-864.12 107.91,-860.53"/>
<polygon fill="midnightblue" stroke="midnightblue" points="145.54,-875.06 156.12,-874.48 147.48,-868.34 145.54,-875.06"/>
</g>
<!-- Node21&#45;&gt;Node3 -->
<g id="edge27" class="edge">
<title>Node21&#45;&gt;Node3</title>
<path fill="none" stroke="midnightblue" d="M505.23,-566.77C483.38,-560.81 459.03,-554.16 438.13,-548.46"/>
<polygon fill="midnightblue" stroke="midnightblue" points="504.49,-570.2 515.06,-569.46 506.34,-563.45 504.49,-570.2"/>
</g>
<!-- Node22&#45;&gt;Node3 -->
<g id="edge29" class="edge">
<title>Node22&#45;&gt;Node3</title>
<path fill="none" stroke="midnightblue" d="M501.16,-534.5C480.41,-534.5 457.77,-534.5 438.16,-534.5"/>
<polygon fill="midnightblue" stroke="midnightblue" points="501.18,-538 511.18,-534.5 501.18,-531 501.18,-538"/>
</g>
<!-- Node23&#45;&gt;Node3 -->
<g id="edge31" class="edge">
<title>Node23&#45;&gt;Node3</title>
<path fill="none" stroke="midnightblue" d="M501.45,-503.26C480.61,-508.95 457.86,-515.16 438.16,-520.53"/>
<polygon fill="midnightblue" stroke="midnightblue" points="502.45,-506.61 511.18,-500.6 500.61,-499.86 502.45,-506.61"/>
</g>
<!-- Node24&#45;&gt;Node3 -->
<g id="edge33" class="edge">
<title>Node24&#45;&gt;Node3</title>
<path fill="none" stroke="midnightblue" d="M509.15,-407.02C505.98,-408.72 502.9,-410.55 500,-412.5 455.19,-442.61 415.55,-493.83 397.44,-519.25"/>
<polygon fill="midnightblue" stroke="midnightblue" points="510.86,-410.08 518.3,-402.54 507.78,-403.79 510.86,-410.08"/>
</g>
<!-- Node25&#45;&gt;Node3 -->
<g id="edge35" class="edge">
<title>Node25&#45;&gt;Node3</title>
<path fill="none" stroke="midnightblue" d="M507.17,-358.45C504.66,-360.02 502.26,-361.7 500,-363.5 444.64,-407.65 407.06,-486.49 393.08,-519.41"/>
<polygon fill="midnightblue" stroke="midnightblue" points="508.95,-361.46 515.99,-353.54 505.54,-355.34 508.95,-361.46"/>
</g>
<!-- Node26&#45;&gt;Node3 -->
<g id="edge37" class="edge">
<title>Node26&#45;&gt;Node3</title>
<path fill="none" stroke="midnightblue" d="M505.57,-310.08C503.62,-311.46 501.76,-312.93 500,-314.5 433.97,-373.35 401.04,-479.94 390.69,-519.34"/>
<polygon fill="midnightblue" stroke="midnightblue" points="507.86,-312.78 514.55,-304.57 504.2,-306.81 507.86,-312.78"/>
</g>
</g>
</svg>
