<?xml version="1.0" encoding="UTF-8" standalone="no"?>
<!DOCTYPE svg PUBLIC "-//W3C//DTD SVG 1.1//EN"
 "http://www.w3.org/Graphics/SVG/1.1/DTD/svg11.dtd">
<!-- Generated by graphviz version 2.43.0 (0)
 -->
<!-- Title: leanux::util::ConfigFile::read Pages: 1 -->
<svg width="455pt" height="88pt"
 viewBox="0.00 0.00 455.00 88.00" xmlns="http://www.w3.org/2000/svg" xmlns:xlink="http://www.w3.org/1999/xlink">
<g id="graph0" class="graph" transform="scale(1 1) rotate(0) translate(4 84)">
<title>leanux::util::ConfigFile::read</title>
<!-- Node1 -->
<g id="node1" class="node">
<title>Node1</title>
<g id="a_node1"><a xlink:title="read and interpret the configuration file.">
<polygon fill="#bfbfbf" stroke="black" points="322,-24.5 322,-54.5 447,-54.5 447,-24.5 322,-24.5"/>
<text text-anchor="start" x="330" y="-42.5" font-family="Helvetica,sans-Serif" font-size="10.00">leanux::util::ConfigFile</text>
<text text-anchor="middle" x="384.5" y="-31.5" font-family="Helvetica,sans-Serif" font-size="10.00">::read</text>
</a>
</g>
</g>
<!-- Node2 -->
<g id="node2" class="node">
<title>Node2</title>
<g id="a_node2"><a xlink:href="../../de/d84/classleanux_1_1util_1_1ConfigFile.html#a1f104838a15bec5db5c6e2afe287cabc" target="_top" xlink:title="Constructor, should not be called directly, use setConfig and getConfig to create the ConfigFile.">
<polygon fill="none" stroke="black" points="161,-49.5 161,-79.5 286,-79.5 286,-49.5 161,-49.5"/>
<text text-anchor="start" x="169" y="-67.5" font-family="Helvetica,sans-Serif" font-size="10.00">leanux::util::ConfigFile</text>
<text text-anchor="middle" x="223.5" y="-56.5" font-family="Helvetica,sans-Serif" font-size="10.00">::ConfigFile</text>
</a>
</g>
</g>
<!-- Node1&#45;&gt;Node2 -->
<g id="edge1" class="edge">
<title>Node1&#45;&gt;Node2</title>
<path fill="none" stroke="midnightblue" d="M311.68,-50.79C303.2,-52.13 294.59,-53.48 286.26,-54.79"/>
<polygon fill="midnightblue" stroke="midnightblue" points="312.24,-54.25 321.57,-49.24 311.15,-47.33 312.24,-54.25"/>
</g>
<!-- Node8 -->
<g id="node4" class="node">
<title>Node8</title>
<g id="a_node4"><a xlink:href="../../d5/de6/classleanux_1_1tools_1_1lmon_1_1Screen.html#a404290f829ce6132e1bbb21dd942f598" target="_top" xlink:title="Destructor.">
<polygon fill="none" stroke="black" points="168.5,-0.5 168.5,-30.5 278.5,-30.5 278.5,-0.5 168.5,-0.5"/>
<text text-anchor="start" x="176.5" y="-18.5" font-family="Helvetica,sans-Serif" font-size="10.00">leanux::tools::lmon</text>
<text text-anchor="middle" x="223.5" y="-7.5" font-family="Helvetica,sans-Serif" font-size="10.00">::Screen::~Screen</text>
</a>
</g>
</g>
<!-- Node1&#45;&gt;Node8 -->
<g id="edge3" class="edge">
<title>Node1&#45;&gt;Node8</title>
<path fill="none" stroke="midnightblue" d="M311.47,-28.63C300.39,-26.96 289.11,-25.25 278.51,-23.65"/>
<polygon fill="midnightblue" stroke="midnightblue" points="311.16,-32.12 321.57,-30.15 312.21,-25.2 311.16,-32.12"/>
</g>
<!-- Node3 -->
<g id="node3" class="node">
<title>Node3</title>
<g id="a_node3"><a xlink:href="../../de/d84/classleanux_1_1util_1_1ConfigFile.html#ad044e490e3603309c05ed01e06833b11" target="_top" xlink:title="set the application name and config file name.">
<polygon fill="none" stroke="red" points="0,-49.5 0,-79.5 125,-79.5 125,-49.5 0,-49.5"/>
<text text-anchor="start" x="8" y="-67.5" font-family="Helvetica,sans-Serif" font-size="10.00">leanux::util::ConfigFile</text>
<text text-anchor="middle" x="62.5" y="-56.5" font-family="Helvetica,sans-Serif" font-size="10.00">::setConfig</text>
</a>
</g>
</g>
<!-- Node2&#45;&gt;Node3 -->
<g id="edge2" class="edge">
<title>Node2&#45;&gt;Node3</title>
<path fill="none" stroke="midnightblue" d="M150.41,-64.5C142.01,-64.5 133.5,-64.5 125.26,-64.5"/>
<polygon fill="midnightblue" stroke="midnightblue" points="150.57,-68 160.57,-64.5 150.57,-61 150.57,-68"/>
</g>
</g>
</svg>
