<?xml version="1.0" encoding="UTF-8" standalone="no"?>
<!DOCTYPE svg PUBLIC "-//W3C//DTD SVG 1.1//EN"
 "http://www.w3.org/Graphics/SVG/1.1/DTD/svg11.dtd">
<!-- Generated by graphviz version 2.43.0 (0)
 -->
<!-- Title: leanux::util::ConfigFile::getIntValue Pages: 1 -->
<svg width="804pt" height="352pt"
 viewBox="0.00 0.00 804.00 352.00" xmlns="http://www.w3.org/2000/svg" xmlns:xlink="http://www.w3.org/1999/xlink">
<g id="graph0" class="graph" transform="scale(1 1) rotate(0) translate(4 348)">
<title>leanux::util::ConfigFile::getIntValue</title>
<!-- Node1 -->
<g id="node1" class="node">
<title>Node1</title>
<g id="a_node1"><a xlink:title="return the configuration parameter as an int.">
<polygon fill="#bfbfbf" stroke="black" points="671,-137.5 671,-167.5 796,-167.5 796,-137.5 671,-137.5"/>
<text text-anchor="start" x="679" y="-155.5" font-family="Helvetica,sans-Serif" font-size="10.00">leanux::util::ConfigFile</text>
<text text-anchor="middle" x="733.5" y="-144.5" font-family="Helvetica,sans-Serif" font-size="10.00">::getIntValue</text>
</a>
</g>
</g>
<!-- Node2 -->
<g id="node2" class="node">
<title>Node2</title>
<g id="a_node2"><a xlink:href="../../d8/d7f/classleanux_1_1tools_1_1lmon_1_1IOView.html#a9cfd6542a5437edf7c232fc7d05fbb72" target="_top" xlink:title="The minimum height (lines) required by the Footer.">
<polygon fill="none" stroke="black" points="322,-225.5 322,-255.5 450,-255.5 450,-225.5 322,-225.5"/>
<text text-anchor="start" x="330" y="-243.5" font-family="Helvetica,sans-Serif" font-size="10.00">leanux::tools::lmon</text>
<text text-anchor="middle" x="386" y="-232.5" font-family="Helvetica,sans-Serif" font-size="10.00">::IOView::getMinHeight</text>
</a>
</g>
</g>
<!-- Node1&#45;&gt;Node2 -->
<g id="edge1" class="edge">
<title>Node1&#45;&gt;Node2</title>
<path fill="none" stroke="midnightblue" d="M704.48,-173.47C685.78,-186.34 660.11,-201.94 635,-210.5 574.45,-231.14 501.35,-237.95 450.25,-240.02"/>
<polygon fill="midnightblue" stroke="midnightblue" points="706.65,-176.22 712.8,-167.6 702.61,-170.5 706.65,-176.22"/>
</g>
<!-- Node8 -->
<g id="node4" class="node">
<title>Node8</title>
<g id="a_node4"><a xlink:href="../../d5/de6/classleanux_1_1tools_1_1lmon_1_1Screen.html#a5fceabd599c083204cf4fc2014694403" target="_top" xlink:title="Constructor.">
<polygon fill="none" stroke="black" points="0,-214.5 0,-244.5 110,-244.5 110,-214.5 0,-214.5"/>
<text text-anchor="start" x="8" y="-232.5" font-family="Helvetica,sans-Serif" font-size="10.00">leanux::tools::lmon</text>
<text text-anchor="middle" x="55" y="-221.5" font-family="Helvetica,sans-Serif" font-size="10.00">::Screen::Screen</text>
</a>
</g>
</g>
<!-- Node1&#45;&gt;Node8 -->
<g id="edge10" class="edge">
<title>Node1&#45;&gt;Node8</title>
<path fill="none" stroke="midnightblue" d="M667.76,-169.87C656.88,-172.38 645.66,-174.71 635,-176.5 443.62,-208.63 213.15,-222.39 110.23,-227.25"/>
<polygon fill="midnightblue" stroke="midnightblue" points="668.7,-173.25 677.63,-167.54 667.09,-166.44 668.7,-173.25"/>
</g>
<!-- Node9 -->
<g id="node5" class="node">
<title>Node9</title>
<g id="a_node5"><a xlink:href="../../df/dcc/classleanux_1_1tools_1_1lmon_1_1NetView.html#ae72888be780638aca574db129155547e" target="_top" xlink:title="Get the minimal height for the NetView.">
<polygon fill="none" stroke="black" points="500,-269.5 500,-299.5 635,-299.5 635,-269.5 500,-269.5"/>
<text text-anchor="start" x="508" y="-287.5" font-family="Helvetica,sans-Serif" font-size="10.00">leanux::tools::lmon</text>
<text text-anchor="middle" x="567.5" y="-276.5" font-family="Helvetica,sans-Serif" font-size="10.00">::NetView::getMinHeight</text>
</a>
</g>
</g>
<!-- Node1&#45;&gt;Node9 -->
<g id="edge4" class="edge">
<title>Node1&#45;&gt;Node9</title>
<path fill="none" stroke="midnightblue" d="M713.78,-175.52C695.38,-197.1 665.66,-229.29 635,-251.5 625.61,-258.3 614.6,-264.4 604.27,-269.45"/>
<polygon fill="midnightblue" stroke="midnightblue" points="716.5,-177.72 720.26,-167.81 711.14,-173.21 716.5,-177.72"/>
</g>
<!-- Node11 -->
<g id="node7" class="node">
<title>Node11</title>
<g id="a_node7"><a xlink:href="../../d4/d62/namespaceleanux_1_1tools_1_1lard.html#a6de74bbef1d571bf7eb000e62900a11d" target="_top" xlink:title=" ">
<polygon fill="none" stroke="black" points="334,-93.5 334,-123.5 438,-123.5 438,-93.5 334,-93.5"/>
<text text-anchor="start" x="342" y="-111.5" font-family="Helvetica,sans-Serif" font-size="10.00">leanux::tools::lard</text>
<text text-anchor="middle" x="386" y="-100.5" font-family="Helvetica,sans-Serif" font-size="10.00">::mainLoop</text>
</a>
</g>
</g>
<!-- Node1&#45;&gt;Node11 -->
<g id="edge8" class="edge">
<title>Node1&#45;&gt;Node11</title>
<path fill="none" stroke="midnightblue" d="M670.94,-134.98C659.09,-132.11 646.72,-129.44 635,-127.5 567.47,-116.34 488.5,-111.72 438.13,-109.81"/>
<polygon fill="midnightblue" stroke="midnightblue" points="670.19,-138.41 680.74,-137.44 671.89,-131.62 670.19,-138.41"/>
</g>
<!-- Node14 -->
<g id="node9" class="node">
<title>Node14</title>
<g id="a_node9"><a xlink:href="../../d4/d62/namespaceleanux_1_1tools_1_1lard.html#a45d90387f852d7a71981b5d4ff93d8da" target="_top" xlink:title=" ">
<polygon fill="none" stroke="black" points="515.5,-49.5 515.5,-79.5 619.5,-79.5 619.5,-49.5 515.5,-49.5"/>
<text text-anchor="start" x="523.5" y="-67.5" font-family="Helvetica,sans-Serif" font-size="10.00">leanux::tools::lard</text>
<text text-anchor="middle" x="567.5" y="-56.5" font-family="Helvetica,sans-Serif" font-size="10.00">::shrinkDB</text>
</a>
</g>
</g>
<!-- Node1&#45;&gt;Node14 -->
<g id="edge11" class="edge">
<title>Node1&#45;&gt;Node14</title>
<path fill="none" stroke="midnightblue" d="M700.16,-132.01C681.42,-120.46 657.22,-106.07 635,-94.5 625.11,-89.35 614.17,-84.2 604.06,-79.65"/>
<polygon fill="midnightblue" stroke="midnightblue" points="698.54,-135.13 708.89,-137.43 702.24,-129.18 698.54,-135.13"/>
</g>
<!-- Node15 -->
<g id="node10" class="node">
<title>Node15</title>
<g id="a_node10"><a xlink:href="../../d4/d0e/classleanux_1_1tools_1_1lard_1_1ProcSnap.html#ab816bcbf8f8986599df48ee7131c10fb" target="_top" xlink:title=" ">
<polygon fill="none" stroke="black" points="506.5,-137.5 506.5,-167.5 628.5,-167.5 628.5,-137.5 506.5,-137.5"/>
<text text-anchor="start" x="514.5" y="-155.5" font-family="Helvetica,sans-Serif" font-size="10.00">leanux::tools::lard</text>
<text text-anchor="middle" x="567.5" y="-144.5" font-family="Helvetica,sans-Serif" font-size="10.00">::ProcSnap::storeSnap</text>
</a>
</g>
</g>
<!-- Node1&#45;&gt;Node15 -->
<g id="edge13" class="edge">
<title>Node1&#45;&gt;Node15</title>
<path fill="none" stroke="midnightblue" d="M660.81,-152.5C650.11,-152.5 639.17,-152.5 628.75,-152.5"/>
<polygon fill="midnightblue" stroke="midnightblue" points="660.97,-156 670.97,-152.5 660.97,-149 660.97,-156"/>
</g>
<!-- Node16 -->
<g id="node11" class="node">
<title>Node16</title>
<g id="a_node11"><a xlink:href="../../d8/d7f/classleanux_1_1tools_1_1lmon_1_1IOView.html#ad5d8db29927cc18e861cfa5ba48ecd94" target="_top" xlink:title="refresh (redraw) the View.">
<polygon fill="none" stroke="black" points="512.5,-0.5 512.5,-30.5 622.5,-30.5 622.5,-0.5 512.5,-0.5"/>
<text text-anchor="start" x="520.5" y="-18.5" font-family="Helvetica,sans-Serif" font-size="10.00">leanux::tools::lmon</text>
<text text-anchor="middle" x="567.5" y="-7.5" font-family="Helvetica,sans-Serif" font-size="10.00">::IOView::xrefresh</text>
</a>
</g>
</g>
<!-- Node1&#45;&gt;Node16 -->
<g id="edge15" class="edge">
<title>Node1&#45;&gt;Node16</title>
<path fill="none" stroke="midnightblue" d="M717.3,-128.48C700.13,-103.13 669.98,-63.57 635,-39.5 630.05,-36.09 624.55,-33.11 618.9,-30.51"/>
<polygon fill="midnightblue" stroke="midnightblue" points="714.58,-130.72 723.02,-137.13 720.42,-126.85 714.58,-130.72"/>
</g>
<!-- Node3 -->
<g id="node3" class="node">
<title>Node3</title>
<g id="a_node3"><a xlink:href="../../d5/de6/classleanux_1_1tools_1_1lmon_1_1Screen.html#abcaa706fe703bbf453808220fcaf8263" target="_top" xlink:title="Recalculate the window sizes.">
<polygon fill="none" stroke="red" points="146,-247.5 146,-277.5 272,-277.5 272,-247.5 146,-247.5"/>
<text text-anchor="start" x="154" y="-265.5" font-family="Helvetica,sans-Serif" font-size="10.00">leanux::tools::lmon</text>
<text text-anchor="middle" x="209" y="-254.5" font-family="Helvetica,sans-Serif" font-size="10.00">::Screen::screenResize</text>
</a>
</g>
</g>
<!-- Node2&#45;&gt;Node3 -->
<g id="edge2" class="edge">
<title>Node2&#45;&gt;Node3</title>
<path fill="none" stroke="midnightblue" d="M311.85,-249.7C298.67,-251.35 285.04,-253.07 272.21,-254.68"/>
<polygon fill="midnightblue" stroke="midnightblue" points="312.34,-253.16 321.82,-248.44 311.46,-246.22 312.34,-253.16"/>
</g>
<!-- Node3&#45;&gt;Node8 -->
<g id="edge3" class="edge">
<title>Node3&#45;&gt;Node8</title>
<path fill="none" stroke="midnightblue" d="M135.69,-246.8C127.09,-244.93 118.42,-243.05 110.14,-241.25"/>
<polygon fill="midnightblue" stroke="midnightblue" points="135.22,-250.28 145.74,-248.98 136.71,-243.44 135.22,-250.28"/>
</g>
<!-- Node9&#45;&gt;Node3 -->
<g id="edge7" class="edge">
<title>Node9&#45;&gt;Node3</title>
<path fill="none" stroke="midnightblue" d="M489.67,-279.76C424.63,-275.75 332.6,-270.07 272.13,-266.33"/>
<polygon fill="midnightblue" stroke="midnightblue" points="489.67,-283.27 499.86,-280.39 490.1,-276.28 489.67,-283.27"/>
</g>
<!-- Node10 -->
<g id="node6" class="node">
<title>Node10</title>
<g id="a_node6"><a xlink:href="../../df/dcc/classleanux_1_1tools_1_1lmon_1_1NetView.html#a90d83dccb33390f86d92374070075b29" target="_top" xlink:title="provide the optimal height for the NetView,">
<polygon fill="none" stroke="black" points="308,-313.5 308,-343.5 464,-343.5 464,-313.5 308,-313.5"/>
<text text-anchor="start" x="316" y="-331.5" font-family="Helvetica,sans-Serif" font-size="10.00">leanux::tools::lmon</text>
<text text-anchor="middle" x="386" y="-320.5" font-family="Helvetica,sans-Serif" font-size="10.00">::NetView::getOptimalHeight</text>
</a>
</g>
</g>
<!-- Node9&#45;&gt;Node10 -->
<g id="edge5" class="edge">
<title>Node9&#45;&gt;Node10</title>
<path fill="none" stroke="midnightblue" d="M495.17,-301.99C479.66,-305.79 463.38,-309.78 448.3,-313.47"/>
<polygon fill="midnightblue" stroke="midnightblue" points="496.35,-305.3 505.23,-299.52 494.68,-298.5 496.35,-305.3"/>
</g>
<!-- Node10&#45;&gt;Node3 -->
<g id="edge6" class="edge">
<title>Node10&#45;&gt;Node3</title>
<path fill="none" stroke="midnightblue" d="M335.2,-309.72C308.19,-299.53 275.27,-287.12 249.96,-277.57"/>
<polygon fill="midnightblue" stroke="midnightblue" points="334.26,-313.1 344.85,-313.36 336.73,-306.55 334.26,-313.1"/>
</g>
<!-- Node12 -->
<g id="node8" class="node">
<title>Node12</title>
<g id="a_node8"><a xlink:href="../../d4/d62/namespaceleanux_1_1tools_1_1lard.html#aecb1bb340203cfe30357d494d4b2622e" target="_top" xlink:title="Entry point.">
<polygon fill="none" stroke="red" points="157,-93.5 157,-123.5 261,-123.5 261,-93.5 157,-93.5"/>
<text text-anchor="start" x="165" y="-111.5" font-family="Helvetica,sans-Serif" font-size="10.00">leanux::tools::lard</text>
<text text-anchor="middle" x="209" y="-100.5" font-family="Helvetica,sans-Serif" font-size="10.00">::main</text>
</a>
</g>
</g>
<!-- Node11&#45;&gt;Node12 -->
<g id="edge9" class="edge">
<title>Node11&#45;&gt;Node12</title>
<path fill="none" stroke="midnightblue" d="M323.75,-108.5C303.3,-108.5 280.75,-108.5 261.15,-108.5"/>
<polygon fill="midnightblue" stroke="midnightblue" points="323.91,-112 333.91,-108.5 323.91,-105 323.91,-112"/>
</g>
<!-- Node14&#45;&gt;Node11 -->
<g id="edge12" class="edge">
<title>Node14&#45;&gt;Node11</title>
<path fill="none" stroke="midnightblue" d="M505.23,-79.52C483.38,-84.87 459.03,-90.84 438.13,-95.97"/>
<polygon fill="midnightblue" stroke="midnightblue" points="506.18,-82.89 515.06,-77.11 504.52,-76.09 506.18,-82.89"/>
</g>
<!-- Node15&#45;&gt;Node11 -->
<g id="edge14" class="edge">
<title>Node15&#45;&gt;Node11</title>
<path fill="none" stroke="midnightblue" d="M496.5,-135.34C477.04,-130.57 456.28,-125.48 438.12,-121.03"/>
<polygon fill="midnightblue" stroke="midnightblue" points="495.68,-138.74 506.23,-137.73 497.35,-131.95 495.68,-138.74"/>
</g>
</g>
</svg>
