<?xml version="1.0" encoding="UTF-8" standalone="no"?>
<!DOCTYPE svg PUBLIC "-//W3C//DTD SVG 1.1//EN"
 "http://www.w3.org/Graphics/SVG/1.1/DTD/svg11.dtd">
<!-- Generated by graphviz version 2.43.0 (0)
 -->
<!-- Title: tools/lard/lar_schema.cpp Pages: 1 -->
<svg width="949pt" height="252pt"
 viewBox="0.00 0.00 949.15 252.00" xmlns="http://www.w3.org/2000/svg" xmlns:xlink="http://www.w3.org/1999/xlink">
<g id="graph0" class="graph" transform="scale(1 1) rotate(0) translate(4 248)">
<title>tools/lard/lar_schema.cpp</title>
<!-- Node1 -->
<g id="node1" class="node">
<title>Node1</title>
<g id="a_node1"><a xlink:title=" ">
<polygon fill="#bfbfbf" stroke="black" points="430.15,-224.5 430.15,-243.5 572.15,-243.5 572.15,-224.5 430.15,-224.5"/>
<text text-anchor="middle" x="501.15" y="-231.5" font-family="Helvetica,sans-Serif" font-size="10.00">tools/lard/lar_schema.cpp</text>
</a>
</g>
</g>
<!-- Node2 -->
<g id="node2" class="node">
<title>Node2</title>
<g id="a_node2"><a xlink:href="../../dd/d35/lar__schema_8hpp.html" target="_top" xlink:title=" ">
<polygon fill="none" stroke="black" points="14.15,-168.5 14.15,-187.5 108.15,-187.5 108.15,-168.5 14.15,-168.5"/>
<text text-anchor="middle" x="61.15" y="-175.5" font-family="Helvetica,sans-Serif" font-size="10.00">lar_schema.hpp</text>
</a>
</g>
</g>
<!-- Node1&#45;&gt;Node2 -->
<g id="edge1" class="edge">
<title>Node1&#45;&gt;Node2</title>
<path fill="none" stroke="midnightblue" d="M429.82,-225.14C353.59,-216.6 229.21,-202.25 122.15,-188 120.9,-187.83 119.63,-187.66 118.35,-187.49"/>
<polygon fill="midnightblue" stroke="midnightblue" points="118.81,-184.02 108.42,-186.11 117.84,-190.95 118.81,-184.02"/>
</g>
<!-- Node3 -->
<g id="node3" class="node">
<title>Node3</title>
<g id="a_node3"><a xlink:href="../../d3/d27/persist_8hpp.html" target="_top" xlink:title=" ">
<polygon fill="none" stroke="red" points="25.65,-112.5 25.65,-131.5 96.65,-131.5 96.65,-112.5 25.65,-112.5"/>
<text text-anchor="middle" x="61.15" y="-119.5" font-family="Helvetica,sans-Serif" font-size="10.00">persist.hpp</text>
</a>
</g>
</g>
<!-- Node1&#45;&gt;Node3 -->
<g id="edge32" class="edge">
<title>Node1&#45;&gt;Node3</title>
<path fill="none" stroke="midnightblue" d="M429.92,-231.74C299.53,-228.69 33.21,-218.72 5.15,-188 -10.67,-170.68 14.17,-150.07 35.63,-136.77"/>
<polygon fill="midnightblue" stroke="midnightblue" points="37.65,-139.64 44.49,-131.55 34.1,-133.61 37.65,-139.64"/>
</g>
<!-- Node4 -->
<g id="node4" class="node">
<title>Node4</title>
<g id="a_node4"><a xlink:href="../../d3/d44/oops_8hpp.html" target="_top" xlink:title=" ">
<polygon fill="none" stroke="black" points="116.65,-56.5 116.65,-75.5 177.65,-75.5 177.65,-56.5 116.65,-56.5"/>
<text text-anchor="middle" x="147.15" y="-63.5" font-family="Helvetica,sans-Serif" font-size="10.00">oops.hpp</text>
</a>
</g>
</g>
<!-- Node1&#45;&gt;Node4 -->
<g id="edge31" class="edge">
<title>Node1&#45;&gt;Node4</title>
<path fill="none" stroke="midnightblue" d="M439.01,-224.48C346.65,-210.4 180.24,-179.06 145.15,-132 135.25,-118.73 137.35,-99.34 140.95,-85.19"/>
<polygon fill="midnightblue" stroke="midnightblue" points="144.31,-86.16 143.82,-75.58 137.6,-84.16 144.31,-86.16"/>
</g>
<!-- Node7 -->
<g id="node6" class="node">
<title>Node7</title>
<g id="a_node6"><a xlink:href="../../d1/d59/lar__snap_8hpp.html" target="_top" xlink:title=" ">
<polygon fill="none" stroke="black" points="341.65,-168.5 341.65,-187.5 420.65,-187.5 420.65,-168.5 341.65,-168.5"/>
<text text-anchor="middle" x="381.15" y="-175.5" font-family="Helvetica,sans-Serif" font-size="10.00">lar_snap.hpp</text>
</a>
</g>
</g>
<!-- Node1&#45;&gt;Node7 -->
<g id="edge6" class="edge">
<title>Node1&#45;&gt;Node7</title>
<path fill="none" stroke="midnightblue" d="M482.14,-224.44C462.56,-215.64 431.84,-201.81 409.42,-191.72"/>
<polygon fill="midnightblue" stroke="midnightblue" points="410.63,-188.43 400.07,-187.52 407.76,-194.81 410.63,-188.43"/>
</g>
<!-- Node22 -->
<g id="node15" class="node">
<title>Node22</title>
<g id="a_node15"><a xlink:title=" ">
<polygon fill="none" stroke="#bfbfbf" points="648.15,-56.5 648.15,-75.5 704.15,-75.5 704.15,-56.5 648.15,-56.5"/>
<text text-anchor="middle" x="676.15" y="-63.5" font-family="Helvetica,sans-Serif" font-size="10.00">unistd.h</text>
</a>
</g>
</g>
<!-- Node1&#45;&gt;Node22 -->
<g id="edge40" class="edge">
<title>Node1&#45;&gt;Node22</title>
<path fill="none" stroke="midnightblue" d="M555.71,-224.48C607.52,-213.18 682.63,-187.71 718.15,-132 729.16,-114.73 712.17,-94.98 696.62,-81.83"/>
<polygon fill="midnightblue" stroke="midnightblue" points="698.78,-79.08 688.77,-75.6 694.43,-84.56 698.78,-79.08"/>
</g>
<!-- Node23 -->
<g id="node16" class="node">
<title>Node23</title>
<g id="a_node16"><a xlink:title=" ">
<polygon fill="none" stroke="#bfbfbf" points="733.15,-56.5 733.15,-75.5 805.15,-75.5 805.15,-56.5 733.15,-56.5"/>
<text text-anchor="middle" x="769.15" y="-63.5" font-family="Helvetica,sans-Serif" font-size="10.00">sys/types.h</text>
</a>
</g>
</g>
<!-- Node1&#45;&gt;Node23 -->
<g id="edge38" class="edge">
<title>Node1&#45;&gt;Node23</title>
<path fill="none" stroke="midnightblue" d="M572.4,-226.04C608.29,-220.03 651.25,-208.83 685.15,-188 724.97,-163.53 750.74,-112.34 762.23,-85.04"/>
<polygon fill="midnightblue" stroke="midnightblue" points="765.56,-86.14 766.05,-75.56 759.07,-83.52 765.56,-86.14"/>
</g>
<!-- Node25 -->
<g id="node18" class="node">
<title>Node25</title>
<g id="a_node18"><a xlink:href="../../db/d57/configfile_8hpp.html" target="_top" xlink:title=" ">
<polygon fill="none" stroke="black" points="460.15,-112.5 460.15,-131.5 542.15,-131.5 542.15,-112.5 460.15,-112.5"/>
<text text-anchor="middle" x="501.15" y="-119.5" font-family="Helvetica,sans-Serif" font-size="10.00">configfile.hpp</text>
</a>
</g>
</g>
<!-- Node1&#45;&gt;Node25 -->
<g id="edge33" class="edge">
<title>Node1&#45;&gt;Node25</title>
<path fill="none" stroke="midnightblue" d="M501.15,-224.37C501.15,-206.62 501.15,-165.67 501.15,-141.6"/>
<polygon fill="midnightblue" stroke="midnightblue" points="504.65,-141.59 501.15,-131.59 497.65,-141.59 504.65,-141.59"/>
</g>
<!-- Node26 -->
<g id="node19" class="node">
<title>Node26</title>
<g id="a_node19"><a xlink:title=" ">
<polygon fill="none" stroke="#bfbfbf" points="803.15,-168.5 803.15,-187.5 867.15,-187.5 867.15,-168.5 803.15,-168.5"/>
<text text-anchor="middle" x="835.15" y="-175.5" font-family="Helvetica,sans-Serif" font-size="10.00">sys/stat.h</text>
</a>
</g>
</g>
<!-- Node1&#45;&gt;Node26 -->
<g id="edge39" class="edge">
<title>Node1&#45;&gt;Node26</title>
<path fill="none" stroke="midnightblue" d="M560,-224.48C618.29,-215.88 710.03,-201.92 789.15,-188 790.41,-187.78 791.69,-187.55 792.99,-187.32"/>
<polygon fill="midnightblue" stroke="midnightblue" points="793.82,-190.72 803.01,-185.45 792.54,-183.84 793.82,-190.72"/>
</g>
<!-- Node27 -->
<g id="node20" class="node">
<title>Node27</title>
<g id="a_node20"><a xlink:title=" ">
<polygon fill="none" stroke="#bfbfbf" points="885.15,-168.5 885.15,-187.5 941.15,-187.5 941.15,-168.5 885.15,-168.5"/>
<text text-anchor="middle" x="913.15" y="-175.5" font-family="Helvetica,sans-Serif" font-size="10.00">sstream</text>
</a>
</g>
</g>
<!-- Node1&#45;&gt;Node27 -->
<g id="edge41" class="edge">
<title>Node1&#45;&gt;Node27</title>
<path fill="none" stroke="midnightblue" d="M572.37,-227C645.87,-220.24 763.97,-207.76 874.92,-188.03"/>
<polygon fill="midnightblue" stroke="midnightblue" points="875.72,-191.45 884.94,-186.23 874.48,-184.56 875.72,-191.45"/>
</g>
<!-- Node2&#45;&gt;Node3 -->
<g id="edge2" class="edge">
<title>Node2&#45;&gt;Node3</title>
<path fill="none" stroke="midnightblue" d="M61.15,-168.08C61.15,-161.01 61.15,-150.86 61.15,-141.99"/>
<polygon fill="midnightblue" stroke="midnightblue" points="64.65,-141.75 61.15,-131.75 57.65,-141.75 64.65,-141.75"/>
</g>
<!-- Node3&#45;&gt;Node4 -->
<g id="edge3" class="edge">
<title>Node3&#45;&gt;Node4</title>
<path fill="none" stroke="midnightblue" d="M74.97,-112.32C88.38,-103.9 108.97,-90.97 124.74,-81.07"/>
<polygon fill="midnightblue" stroke="midnightblue" points="126.76,-83.94 133.37,-75.65 123.04,-78.01 126.76,-83.94"/>
</g>
<!-- Node5 -->
<g id="node5" class="node">
<title>Node5</title>
<g id="a_node5"><a xlink:title=" ">
<polygon fill="none" stroke="#bfbfbf" points="257.15,-0.5 257.15,-19.5 301.15,-19.5 301.15,-0.5 257.15,-0.5"/>
<text text-anchor="middle" x="279.15" y="-7.5" font-family="Helvetica,sans-Serif" font-size="10.00">string</text>
</a>
</g>
</g>
<!-- Node3&#45;&gt;Node5 -->
<g id="edge5" class="edge">
<title>Node3&#45;&gt;Node5</title>
<path fill="none" stroke="midnightblue" d="M64.98,-112.36C71.66,-98.32 86.79,-70.65 108.15,-56 150.43,-27.01 210.33,-16.69 246.86,-13.02"/>
<polygon fill="midnightblue" stroke="midnightblue" points="247.3,-16.5 256.95,-12.12 246.68,-9.52 247.3,-16.5"/>
</g>
<!-- Node4&#45;&gt;Node5 -->
<g id="edge4" class="edge">
<title>Node4&#45;&gt;Node5</title>
<path fill="none" stroke="midnightblue" d="M168.07,-56.44C189.89,-47.52 224.3,-33.44 249.04,-23.32"/>
<polygon fill="midnightblue" stroke="midnightblue" points="250.4,-26.54 258.33,-19.52 247.75,-20.06 250.4,-26.54"/>
</g>
<!-- Node7&#45;&gt;Node3 -->
<g id="edge30" class="edge">
<title>Node7&#45;&gt;Node3</title>
<path fill="none" stroke="midnightblue" d="M341.59,-170.32C282.03,-160.27 169.62,-141.31 106.72,-130.69"/>
<polygon fill="midnightblue" stroke="midnightblue" points="107.13,-127.21 96.69,-129 105.97,-134.11 107.13,-127.21"/>
</g>
<!-- Node8 -->
<g id="node7" class="node">
<title>Node8</title>
<g id="a_node7"><a xlink:title=" ">
<polygon fill="none" stroke="#bfbfbf" points="394.15,-112.5 394.15,-131.5 442.15,-131.5 442.15,-112.5 394.15,-112.5"/>
<text text-anchor="middle" x="418.15" y="-119.5" font-family="Helvetica,sans-Serif" font-size="10.00">time.h</text>
</a>
</g>
</g>
<!-- Node7&#45;&gt;Node8 -->
<g id="edge7" class="edge">
<title>Node7&#45;&gt;Node8</title>
<path fill="none" stroke="midnightblue" d="M387.26,-168.08C392.43,-160.53 400,-149.49 406.34,-140.23"/>
<polygon fill="midnightblue" stroke="midnightblue" points="409.39,-141.98 412.15,-131.75 403.61,-138.02 409.39,-141.98"/>
</g>
<!-- Node9 -->
<g id="node8" class="node">
<title>Node9</title>
<g id="a_node8"><a xlink:href="../../d9/db2/block_8hpp.html" target="_top" xlink:title=" ">
<polygon fill="none" stroke="red" points="312.15,-112.5 312.15,-131.5 376.15,-131.5 376.15,-112.5 312.15,-112.5"/>
<text text-anchor="middle" x="344.15" y="-119.5" font-family="Helvetica,sans-Serif" font-size="10.00">block.hpp</text>
</a>
</g>
</g>
<!-- Node7&#45;&gt;Node9 -->
<g id="edge8" class="edge">
<title>Node7&#45;&gt;Node9</title>
<path fill="none" stroke="midnightblue" d="M375.04,-168.08C369.87,-160.53 362.3,-149.49 355.96,-140.23"/>
<polygon fill="midnightblue" stroke="midnightblue" points="358.69,-138.02 350.15,-131.75 352.91,-141.98 358.69,-138.02"/>
</g>
<!-- Node18 -->
<g id="node12" class="node">
<title>Node18</title>
<g id="a_node12"><a xlink:href="../../df/dbe/cpu_8hpp.html" target="_top" xlink:title=" ">
<polygon fill="none" stroke="red" points="560.65,-112.5 560.65,-131.5 615.65,-131.5 615.65,-112.5 560.65,-112.5"/>
<text text-anchor="middle" x="588.15" y="-119.5" font-family="Helvetica,sans-Serif" font-size="10.00">cpu.hpp</text>
</a>
</g>
</g>
<!-- Node7&#45;&gt;Node18 -->
<g id="edge13" class="edge">
<title>Node7&#45;&gt;Node18</title>
<path fill="none" stroke="midnightblue" d="M413.95,-168.44C451.1,-158.75 511.53,-142.99 550.55,-132.81"/>
<polygon fill="midnightblue" stroke="midnightblue" points="551.68,-136.13 560.47,-130.22 549.91,-129.36 551.68,-136.13"/>
</g>
<!-- Node19 -->
<g id="node13" class="node">
<title>Node19</title>
<g id="a_node13"><a xlink:href="../../d4/d2d/net_8hpp.html" target="_top" xlink:title=" ">
<polygon fill="none" stroke="red" points="153.65,-112.5 153.65,-131.5 206.65,-131.5 206.65,-112.5 153.65,-112.5"/>
<text text-anchor="middle" x="180.15" y="-119.5" font-family="Helvetica,sans-Serif" font-size="10.00">net.hpp</text>
</a>
</g>
</g>
<!-- Node7&#45;&gt;Node19 -->
<g id="edge16" class="edge">
<title>Node7&#45;&gt;Node19</title>
<path fill="none" stroke="midnightblue" d="M349.3,-168.44C313.28,-158.77 254.72,-143.03 216.82,-132.85"/>
<polygon fill="midnightblue" stroke="midnightblue" points="217.28,-129.35 206.71,-130.14 215.46,-136.11 217.28,-129.35"/>
</g>
<!-- Node21 -->
<g id="node14" class="node">
<title>Node21</title>
<g id="a_node14"><a xlink:href="../../dd/db4/process_8hpp.html" target="_top" xlink:title=" ">
<polygon fill="none" stroke="red" points="633.65,-112.5 633.65,-131.5 708.65,-131.5 708.65,-112.5 633.65,-112.5"/>
<text text-anchor="middle" x="671.15" y="-119.5" font-family="Helvetica,sans-Serif" font-size="10.00">process.hpp</text>
</a>
</g>
</g>
<!-- Node7&#45;&gt;Node21 -->
<g id="edge21" class="edge">
<title>Node7&#45;&gt;Node21</title>
<path fill="none" stroke="midnightblue" d="M420.9,-169.81C467.23,-161.39 546.38,-146.92 623.6,-132.28"/>
<polygon fill="midnightblue" stroke="midnightblue" points="624.33,-135.7 633.5,-130.4 623.02,-128.83 624.33,-135.7"/>
</g>
<!-- Node24 -->
<g id="node17" class="node">
<title>Node24</title>
<g id="a_node17"><a xlink:href="../../db/da3/vmem_8hpp.html" target="_top" xlink:title=" ">
<polygon fill="none" stroke="black" points="224.65,-112.5 224.65,-131.5 293.65,-131.5 293.65,-112.5 224.65,-112.5"/>
<text text-anchor="middle" x="259.15" y="-119.5" font-family="Helvetica,sans-Serif" font-size="10.00">vmem.hpp</text>
</a>
</g>
</g>
<!-- Node7&#45;&gt;Node24 -->
<g id="edge27" class="edge">
<title>Node7&#45;&gt;Node24</title>
<path fill="none" stroke="midnightblue" d="M361.82,-168.44C341.83,-159.6 310.41,-145.69 287.59,-135.59"/>
<polygon fill="midnightblue" stroke="midnightblue" points="288.95,-132.36 278.39,-131.52 286.12,-138.76 288.95,-132.36"/>
</g>
<!-- Node9&#45;&gt;Node5 -->
<g id="edge9" class="edge">
<title>Node9&#45;&gt;Node5</title>
<path fill="none" stroke="midnightblue" d="M339.05,-112.37C328.37,-94.3 303.48,-52.18 289.38,-28.31"/>
<polygon fill="midnightblue" stroke="midnightblue" points="292.33,-26.42 284.23,-19.59 286.3,-29.98 292.33,-26.42"/>
</g>
<!-- Node11 -->
<g id="node9" class="node">
<title>Node11</title>
<g id="a_node9"><a xlink:title=" ">
<polygon fill="none" stroke="#bfbfbf" points="327.15,-56.5 327.15,-75.5 359.15,-75.5 359.15,-56.5 327.15,-56.5"/>
<text text-anchor="middle" x="343.15" y="-63.5" font-family="Helvetica,sans-Serif" font-size="10.00">list</text>
</a>
</g>
</g>
<!-- Node9&#45;&gt;Node11 -->
<g id="edge10" class="edge">
<title>Node9&#45;&gt;Node11</title>
<path fill="none" stroke="midnightblue" d="M343.98,-112.08C343.85,-105.01 343.67,-94.86 343.5,-85.99"/>
<polygon fill="midnightblue" stroke="midnightblue" points="347,-85.68 343.31,-75.75 340,-85.81 347,-85.68"/>
</g>
<!-- Node12 -->
<g id="node10" class="node">
<title>Node12</title>
<g id="a_node10"><a xlink:title=" ">
<polygon fill="none" stroke="#bfbfbf" points="493.15,-56.5 493.15,-75.5 531.15,-75.5 531.15,-56.5 493.15,-56.5"/>
<text text-anchor="middle" x="512.15" y="-63.5" font-family="Helvetica,sans-Serif" font-size="10.00">map</text>
</a>
</g>
</g>
<!-- Node9&#45;&gt;Node12 -->
<g id="edge11" class="edge">
<title>Node9&#45;&gt;Node12</title>
<path fill="none" stroke="midnightblue" d="M370.77,-112.44C401.49,-102.57 451.83,-86.39 483.42,-76.23"/>
<polygon fill="midnightblue" stroke="midnightblue" points="484.52,-79.56 492.97,-73.16 482.38,-72.89 484.52,-79.56"/>
</g>
<!-- Node14 -->
<g id="node11" class="node">
<title>Node14</title>
<g id="a_node11"><a xlink:title=" ">
<polygon fill="none" stroke="#bfbfbf" points="377.15,-56.5 377.15,-75.5 437.15,-75.5 437.15,-56.5 377.15,-56.5"/>
<text text-anchor="middle" x="407.15" y="-63.5" font-family="Helvetica,sans-Serif" font-size="10.00">iostream</text>
</a>
</g>
</g>
<!-- Node9&#45;&gt;Node14 -->
<g id="edge12" class="edge">
<title>Node9&#45;&gt;Node14</title>
<path fill="none" stroke="midnightblue" d="M354.27,-112.32C363.68,-104.26 377.89,-92.08 389.22,-82.37"/>
<polygon fill="midnightblue" stroke="midnightblue" points="391.53,-85 396.84,-75.83 386.97,-79.68 391.53,-85"/>
</g>
<!-- Node18&#45;&gt;Node5 -->
<g id="edge14" class="edge">
<title>Node18&#45;&gt;Node5</title>
<path fill="none" stroke="midnightblue" d="M584.33,-112.15C577.63,-97.8 562.36,-69.7 540.15,-56 502.31,-32.66 372.7,-18.9 311.56,-13.57"/>
<polygon fill="midnightblue" stroke="midnightblue" points="311.58,-10.06 301.32,-12.7 310.99,-17.03 311.58,-10.06"/>
</g>
<!-- Node18&#45;&gt;Node12 -->
<g id="edge15" class="edge">
<title>Node18&#45;&gt;Node12</title>
<path fill="none" stroke="midnightblue" d="M575.94,-112.32C564.37,-104.11 546.77,-91.6 532.99,-81.81"/>
<polygon fill="midnightblue" stroke="midnightblue" points="534.76,-78.77 524.58,-75.83 530.71,-84.48 534.76,-78.77"/>
</g>
<!-- Node19&#45;&gt;Node4 -->
<g id="edge17" class="edge">
<title>Node19&#45;&gt;Node4</title>
<path fill="none" stroke="midnightblue" d="M174.7,-112.08C170.14,-104.61 163.48,-93.72 157.86,-84.52"/>
<polygon fill="midnightblue" stroke="midnightblue" points="160.7,-82.46 152.5,-75.75 154.73,-86.11 160.7,-82.46"/>
</g>
<!-- Node19&#45;&gt;Node5 -->
<g id="edge18" class="edge">
<title>Node19&#45;&gt;Node5</title>
<path fill="none" stroke="midnightblue" d="M187.92,-112.37C204.47,-93.97 243.45,-50.67 264.7,-27.05"/>
<polygon fill="midnightblue" stroke="midnightblue" points="267.33,-29.37 271.42,-19.59 262.13,-24.68 267.33,-29.37"/>
</g>
<!-- Node19&#45;&gt;Node11 -->
<g id="edge19" class="edge">
<title>Node19&#45;&gt;Node11</title>
<path fill="none" stroke="midnightblue" d="M205.98,-112.44C236.46,-102.34 286.86,-85.65 317.34,-75.55"/>
<polygon fill="midnightblue" stroke="midnightblue" points="318.46,-78.87 326.85,-72.4 316.26,-72.22 318.46,-78.87"/>
</g>
<!-- Node19&#45;&gt;Node12 -->
<g id="edge20" class="edge">
<title>Node19&#45;&gt;Node12</title>
<path fill="none" stroke="midnightblue" d="M206.82,-114.03C209.96,-113.3 213.12,-112.61 216.15,-112 266.98,-101.81 418.29,-80.18 482.65,-71.12"/>
<polygon fill="midnightblue" stroke="midnightblue" points="483.49,-74.54 492.91,-69.68 482.52,-67.61 483.49,-74.54"/>
</g>
<!-- Node21&#45;&gt;Node5 -->
<g id="edge22" class="edge">
<title>Node21&#45;&gt;Node5</title>
<path fill="none" stroke="midnightblue" d="M660.34,-112.43C641.82,-98.22 602.31,-69.98 564.15,-56 476.59,-23.91 365.65,-14.7 311.65,-12.06"/>
<polygon fill="midnightblue" stroke="midnightblue" points="311.47,-8.54 301.32,-11.6 311.16,-15.54 311.47,-8.54"/>
</g>
<!-- Node21&#45;&gt;Node11 -->
<g id="edge24" class="edge">
<title>Node21&#45;&gt;Node11</title>
<path fill="none" stroke="midnightblue" d="M633.52,-113.47C630.69,-112.95 627.88,-112.46 625.15,-112 514.62,-93.46 481.95,-103.1 369.45,-75.87"/>
<polygon fill="midnightblue" stroke="midnightblue" points="369.95,-72.39 359.41,-73.4 368.28,-79.19 369.95,-72.39"/>
</g>
<!-- Node21&#45;&gt;Node12 -->
<g id="edge23" class="edge">
<title>Node21&#45;&gt;Node12</title>
<path fill="none" stroke="midnightblue" d="M645.96,-112.44C617.32,-102.72 570.67,-86.88 540.71,-76.7"/>
<polygon fill="midnightblue" stroke="midnightblue" points="541.83,-73.38 531.24,-73.48 539.58,-80.01 541.83,-73.38"/>
</g>
<!-- Node21&#45;&gt;Node22 -->
<g id="edge25" class="edge">
<title>Node21&#45;&gt;Node22</title>
<path fill="none" stroke="midnightblue" d="M671.98,-112.08C672.63,-105.01 673.57,-94.86 674.39,-85.99"/>
<polygon fill="midnightblue" stroke="midnightblue" points="677.9,-86.03 675.34,-75.75 670.93,-85.39 677.9,-86.03"/>
</g>
<!-- Node21&#45;&gt;Node23 -->
<g id="edge26" class="edge">
<title>Node21&#45;&gt;Node23</title>
<path fill="none" stroke="midnightblue" d="M686.89,-112.32C702.47,-103.74 726.53,-90.49 744.61,-80.52"/>
<polygon fill="midnightblue" stroke="midnightblue" points="746.37,-83.55 753.44,-75.65 743,-77.42 746.37,-83.55"/>
</g>
<!-- Node24&#45;&gt;Node5 -->
<g id="edge28" class="edge">
<title>Node24&#45;&gt;Node5</title>
<path fill="none" stroke="midnightblue" d="M260.72,-112.37C263.95,-94.62 271.39,-53.67 275.77,-29.6"/>
<polygon fill="midnightblue" stroke="midnightblue" points="279.24,-30.06 277.59,-19.59 272.35,-28.8 279.24,-30.06"/>
</g>
<!-- Node24&#45;&gt;Node11 -->
<g id="edge29" class="edge">
<title>Node24&#45;&gt;Node11</title>
<path fill="none" stroke="midnightblue" d="M272.65,-112.32C285.75,-103.9 305.86,-90.97 321.26,-81.07"/>
<polygon fill="midnightblue" stroke="midnightblue" points="323.17,-84.01 329.69,-75.65 319.38,-78.12 323.17,-84.01"/>
</g>
<!-- Node25&#45;&gt;Node5 -->
<g id="edge34" class="edge">
<title>Node25&#45;&gt;Node5</title>
<path fill="none" stroke="midnightblue" d="M496.27,-112.38C487.88,-98.37 469.36,-70.74 446.15,-56 404.34,-29.45 347.08,-18.43 311.64,-13.95"/>
<polygon fill="midnightblue" stroke="midnightblue" points="311.72,-10.44 301.38,-12.76 310.91,-17.39 311.72,-10.44"/>
</g>
<!-- Node25&#45;&gt;Node11 -->
<g id="edge37" class="edge">
<title>Node25&#45;&gt;Node11</title>
<path fill="none" stroke="midnightblue" d="M475.1,-112.35C450.14,-104.03 411.18,-90.94 368.91,-76.22"/>
<polygon fill="midnightblue" stroke="midnightblue" points="369.87,-72.85 359.27,-72.86 367.56,-79.46 369.87,-72.85"/>
</g>
<!-- Node25&#45;&gt;Node12 -->
<g id="edge36" class="edge">
<title>Node25&#45;&gt;Node12</title>
<path fill="none" stroke="midnightblue" d="M502.97,-112.08C504.42,-104.93 506.52,-94.64 508.34,-85.69"/>
<polygon fill="midnightblue" stroke="midnightblue" points="511.8,-86.25 510.37,-75.75 504.94,-84.85 511.8,-86.25"/>
</g>
<!-- Node25&#45;&gt;Node14 -->
<g id="edge35" class="edge">
<title>Node25&#45;&gt;Node14</title>
<path fill="none" stroke="midnightblue" d="M486.05,-112.32C471.25,-103.82 448.46,-90.73 431.17,-80.8"/>
<polygon fill="midnightblue" stroke="midnightblue" points="432.63,-77.6 422.21,-75.65 429.14,-83.67 432.63,-77.6"/>
</g>
</g>
</svg>
