<?xml version="1.0" encoding="UTF-8" standalone="no"?>
<!DOCTYPE svg PUBLIC "-//W3C//DTD SVG 1.1//EN"
 "http://www.w3.org/Graphics/SVG/1.1/DTD/svg11.dtd">
<!-- Generated by graphviz version 2.43.0 (0)
 -->
<!-- Title: leanux::tools::lard::IOSnap Pages: 1 -->
<svg width="279pt" height="195pt"
 viewBox="0.00 0.00 278.50 195.00" xmlns="http://www.w3.org/2000/svg" xmlns:xlink="http://www.w3.org/1999/xlink">
<g id="graph0" class="graph" transform="scale(1 1) rotate(0) translate(4 191)">
<title>leanux::tools::lard::IOSnap</title>
<!-- Node1 -->
<g id="node1" class="node">
<title>Node1</title>
<g id="a_node1"><a xlink:title=" ">
<polygon fill="#bfbfbf" stroke="black" points="16,-0.5 16,-30.5 120,-30.5 120,-0.5 16,-0.5"/>
<text text-anchor="start" x="24" y="-18.5" font-family="Helvetica,sans-Serif" font-size="10.00">leanux::tools::lard</text>
<text text-anchor="middle" x="68" y="-7.5" font-family="Helvetica,sans-Serif" font-size="10.00">::IOSnap</text>
</a>
</g>
</g>
<!-- Node2 -->
<g id="node2" class="node">
<title>Node2</title>
<g id="a_node2"><a xlink:href="../../db/dc1/classleanux_1_1tools_1_1lard_1_1Snapshot.html" target="_top" xlink:title=" ">
<polygon fill="none" stroke="black" points="0,-89.5 0,-119.5 104,-119.5 104,-89.5 0,-89.5"/>
<text text-anchor="start" x="8" y="-107.5" font-family="Helvetica,sans-Serif" font-size="10.00">leanux::tools::lard</text>
<text text-anchor="middle" x="52" y="-96.5" font-family="Helvetica,sans-Serif" font-size="10.00">::Snapshot</text>
</a>
</g>
</g>
<!-- Node2&#45;&gt;Node1 -->
<g id="edge1" class="edge">
<title>Node2&#45;&gt;Node1</title>
<path fill="none" stroke="midnightblue" d="M56.49,-79.09C59.37,-63.44 63,-43.68 65.41,-30.6"/>
<polygon fill="midnightblue" stroke="midnightblue" points="53.01,-78.67 54.64,-89.13 59.89,-79.93 53.01,-78.67"/>
</g>
<!-- Node3 -->
<g id="node3" class="node">
<title>Node3</title>
<g id="a_node3"><a xlink:title=" ">
<polygon fill="none" stroke="#bfbfbf" points="122.5,-89.5 122.5,-119.5 251.5,-119.5 251.5,-89.5 122.5,-89.5"/>
<text text-anchor="start" x="130.5" y="-107.5" font-family="Helvetica,sans-Serif" font-size="10.00">std::map&lt; MajorMinor,</text>
<text text-anchor="middle" x="187" y="-96.5" font-family="Helvetica,sans-Serif" font-size="10.00"> DeviceStats &gt;</text>
</a>
</g>
</g>
<!-- Node3&#45;&gt;Node1 -->
<g id="edge2" class="edge">
<title>Node3&#45;&gt;Node1</title>
<path fill="none" stroke="#9a32cd" stroke-dasharray="5,2" d="M159.31,-83.26C137.24,-67.12 106.91,-44.95 87.38,-30.67"/>
<polygon fill="#9a32cd" stroke="#9a32cd" points="157.48,-86.25 167.62,-89.33 161.61,-80.6 157.48,-86.25"/>
<text text-anchor="middle" x="159" y="-63" font-family="Helvetica,sans-Serif" font-size="10.00"> stat2_</text>
<text text-anchor="middle" x="159" y="-52" font-family="Helvetica,sans-Serif" font-size="10.00">stat1_</text>
</g>
<!-- Node4 -->
<g id="node4" class="node">
<title>Node4</title>
<g id="a_node4"><a xlink:title=" ">
<polygon fill="none" stroke="#bfbfbf" points="105,-167.5 105,-186.5 177,-186.5 177,-167.5 105,-167.5"/>
<text text-anchor="middle" x="141" y="-174.5" font-family="Helvetica,sans-Serif" font-size="10.00">MajorMinor</text>
</a>
</g>
</g>
<!-- Node4&#45;&gt;Node3 -->
<g id="edge3" class="edge">
<title>Node4&#45;&gt;Node3</title>
<path fill="none" stroke="#9a32cd" stroke-dasharray="5,2" d="M152.3,-158.68C160.15,-146.65 170.47,-130.83 177.82,-119.58"/>
<polygon fill="#9a32cd" stroke="#9a32cd" points="149.17,-157.07 146.64,-167.36 155.04,-160.89 149.17,-157.07"/>
<text text-anchor="middle" x="179" y="-141" font-family="Helvetica,sans-Serif" font-size="10.00"> keys</text>
</g>
<!-- Node5 -->
<g id="node5" class="node">
<title>Node5</title>
<g id="a_node5"><a xlink:title=" ">
<polygon fill="none" stroke="#bfbfbf" points="195.5,-167.5 195.5,-186.5 270.5,-186.5 270.5,-167.5 195.5,-167.5"/>
<text text-anchor="middle" x="233" y="-174.5" font-family="Helvetica,sans-Serif" font-size="10.00">DeviceStats</text>
</a>
</g>
</g>
<!-- Node5&#45;&gt;Node3 -->
<g id="edge4" class="edge">
<title>Node5&#45;&gt;Node3</title>
<path fill="none" stroke="#9a32cd" stroke-dasharray="5,2" d="M221.7,-158.68C213.85,-146.65 203.53,-130.83 196.18,-119.58"/>
<polygon fill="#9a32cd" stroke="#9a32cd" points="218.96,-160.89 227.36,-167.36 224.83,-157.07 218.96,-160.89"/>
<text text-anchor="middle" x="238.5" y="-141" font-family="Helvetica,sans-Serif" font-size="10.00"> elements</text>
</g>
</g>
</svg>
