<?xml version="1.0" encoding="UTF-8" standalone="no"?>
<!DOCTYPE svg PUBLIC "-//W3C//DTD SVG 1.1//EN"
 "http://www.w3.org/Graphics/SVG/1.1/DTD/svg11.dtd">
<!-- Generated by graphviz version 2.43.0 (0)
 -->
<!-- Title: leanux::util::RegExp::set Pages: 1 -->
<svg width="608pt" height="1153pt"
 viewBox="0.00 0.00 608.00 1153.16" xmlns="http://www.w3.org/2000/svg" xmlns:xlink="http://www.w3.org/1999/xlink">
<g id="graph0" class="graph" transform="scale(1 1) rotate(0) translate(4 1149.16)">
<title>leanux::util::RegExp::set</title>
<!-- Node1 -->
<g id="node1" class="node">
<title>Node1</title>
<g id="a_node1"><a xlink:title=" ">
<polygon fill="#bfbfbf" stroke="black" points="465,-569 465,-588 600,-588 600,-569 465,-569"/>
<text text-anchor="middle" x="532.5" y="-576" font-family="Helvetica,sans-Serif" font-size="10.00">leanux::util::RegExp::set</text>
</a>
</g>
</g>
<!-- Node2 -->
<g id="node2" class="node">
<title>Node2</title>
<g id="a_node2"><a xlink:href="../../dc/d23/classleanux_1_1sysdevice_1_1NetDevice.html#a6f8acaff80d57e2149172f7df09f2448" target="_top" xlink:title="Return true if the SysDevice recognizes itself in the trailing part of path.">
<polygon fill="none" stroke="black" points="303,-1078.5 303,-1108.5 413,-1108.5 413,-1078.5 303,-1078.5"/>
<text text-anchor="start" x="311" y="-1096.5" font-family="Helvetica,sans-Serif" font-size="10.00">leanux::sysdevice::</text>
<text text-anchor="middle" x="358" y="-1085.5" font-family="Helvetica,sans-Serif" font-size="10.00">NetDevice::accept</text>
</a>
</g>
</g>
<!-- Node1&#45;&gt;Node2 -->
<g id="edge1" class="edge">
<title>Node1&#45;&gt;Node2</title>
<path fill="none" stroke="midnightblue" d="M529.95,-598.28C523.09,-680.85 492.98,-997.01 429,-1069.5 424.58,-1074.51 419.07,-1078.47 413.09,-1081.61"/>
<polygon fill="midnightblue" stroke="midnightblue" points="533.44,-598.48 530.76,-588.23 526.46,-597.92 533.44,-598.48"/>
</g>
<!-- Node4 -->
<g id="node4" class="node">
<title>Node4</title>
<g id="a_node4"><a xlink:href="../../d9/d1f/namespaceleanux_1_1tools_1_1lsys.html#ad858cdc5736e1be415f25fdaec024b58" target="_top" xlink:title="list devices, filtered if opt_t is set.">
<polygon fill="none" stroke="red" points="0,-831.5 0,-861.5 105,-861.5 105,-831.5 0,-831.5"/>
<text text-anchor="start" x="8" y="-849.5" font-family="Helvetica,sans-Serif" font-size="10.00">leanux::tools::lsys</text>
<text text-anchor="middle" x="52.5" y="-838.5" font-family="Helvetica,sans-Serif" font-size="10.00">::listDevices</text>
</a>
</g>
</g>
<!-- Node1&#45;&gt;Node4 -->
<g id="edge48" class="edge">
<title>Node1&#45;&gt;Node4</title>
<path fill="none" stroke="midnightblue" d="M530.96,-598.3C528.08,-687.46 511.38,-1050.28 429,-1118.5 288.88,-1234.53 103.51,-933.71 61.99,-861.61"/>
<polygon fill="midnightblue" stroke="midnightblue" points="534.46,-598.3 531.26,-588.2 527.47,-598.09 534.46,-598.3"/>
</g>
<!-- Node17 -->
<g id="node5" class="node">
<title>Node17</title>
<g id="a_node5"><a xlink:href="../../de/d36/classleanux_1_1sysdevice_1_1VirtualNetDevice.html#af0ab8e6265ce972fa68137a3fb134635" target="_top" xlink:title="Return true if the SysDevice recognizes itself in the trailing part of path.">
<polygon fill="none" stroke="black" points="289,-1029.5 289,-1059.5 427,-1059.5 427,-1029.5 289,-1029.5"/>
<text text-anchor="start" x="297" y="-1047.5" font-family="Helvetica,sans-Serif" font-size="10.00">leanux::sysdevice::</text>
<text text-anchor="middle" x="358" y="-1036.5" font-family="Helvetica,sans-Serif" font-size="10.00">VirtualNetDevice::accept</text>
</a>
</g>
</g>
<!-- Node1&#45;&gt;Node17 -->
<g id="edge4" class="edge">
<title>Node1&#45;&gt;Node17</title>
<path fill="none" stroke="midnightblue" d="M529.46,-598.24C521.09,-675.48 487.11,-956.12 429,-1020.5 425.9,-1023.93 422.29,-1026.88 418.37,-1029.4"/>
<polygon fill="midnightblue" stroke="midnightblue" points="532.97,-598.32 530.54,-588.01 526.01,-597.58 532.97,-598.32"/>
</g>
<!-- Node18 -->
<g id="node6" class="node">
<title>Node18</title>
<g id="a_node6"><a xlink:href="../../d8/d96/classleanux_1_1sysdevice_1_1SASPort.html#ad3ebeca1e63edca2680486ec21c183d5" target="_top" xlink:title="Return true if the SysDevice recognizes itself in the trailing part of path.">
<polygon fill="none" stroke="black" points="303,-980.5 303,-1010.5 413,-1010.5 413,-980.5 303,-980.5"/>
<text text-anchor="start" x="311" y="-998.5" font-family="Helvetica,sans-Serif" font-size="10.00">leanux::sysdevice::</text>
<text text-anchor="middle" x="358" y="-987.5" font-family="Helvetica,sans-Serif" font-size="10.00">SASPort::accept</text>
</a>
</g>
</g>
<!-- Node1&#45;&gt;Node18 -->
<g id="edge6" class="edge">
<title>Node1&#45;&gt;Node18</title>
<path fill="none" stroke="midnightblue" d="M528.83,-598.33C518.79,-670.13 481.23,-915.19 429,-971.5 424.54,-976.3 419.09,-980.15 413.2,-983.22"/>
<polygon fill="midnightblue" stroke="midnightblue" points="532.31,-598.74 530.2,-588.35 525.37,-597.78 532.31,-598.74"/>
</g>
<!-- Node19 -->
<g id="node7" class="node">
<title>Node19</title>
<g id="a_node7"><a xlink:href="../../d3/d94/classleanux_1_1sysdevice_1_1SASEndDevice.html#a4097b4ecf054532b491099cdd177a187" target="_top" xlink:title="Return true if the SysDevice recognizes itself in the trailing part of path.">
<polygon fill="none" stroke="black" points="295,-931.5 295,-961.5 421,-961.5 421,-931.5 295,-931.5"/>
<text text-anchor="start" x="303" y="-949.5" font-family="Helvetica,sans-Serif" font-size="10.00">leanux::sysdevice::</text>
<text text-anchor="middle" x="358" y="-938.5" font-family="Helvetica,sans-Serif" font-size="10.00">SASEndDevice::accept</text>
</a>
</g>
</g>
<!-- Node1&#45;&gt;Node19 -->
<g id="edge8" class="edge">
<title>Node1&#45;&gt;Node19</title>
<path fill="none" stroke="midnightblue" d="M531.55,-598.3C530.59,-656.33 519.84,-827.89 429,-922.5 425.71,-925.93 421.91,-928.87 417.81,-931.39"/>
<polygon fill="midnightblue" stroke="midnightblue" points="535.05,-598.29 531.63,-588.26 528.05,-598.23 535.05,-598.29"/>
</g>
<!-- Node20 -->
<g id="node8" class="node">
<title>Node20</title>
<g id="a_node8"><a xlink:href="../../dd/df8/classleanux_1_1sysdevice_1_1SCSIDevice.html#a146bfc558d4721af8be91ba950f1a14c" target="_top" xlink:title="Return true if the SysDevice recognizes itself in the trailing part of path.">
<polygon fill="none" stroke="black" points="303,-882.5 303,-912.5 413,-912.5 413,-882.5 303,-882.5"/>
<text text-anchor="start" x="311" y="-900.5" font-family="Helvetica,sans-Serif" font-size="10.00">leanux::sysdevice::</text>
<text text-anchor="middle" x="358" y="-889.5" font-family="Helvetica,sans-Serif" font-size="10.00">SCSIDevice::accept</text>
</a>
</g>
</g>
<!-- Node1&#45;&gt;Node20 -->
<g id="edge10" class="edge">
<title>Node1&#45;&gt;Node20</title>
<path fill="none" stroke="midnightblue" d="M530.4,-598.21C526.43,-650.55 508.46,-794.37 429,-873.5 424.45,-878.03 419,-881.71 413.19,-884.69"/>
<polygon fill="midnightblue" stroke="midnightblue" points="533.89,-598.45 531.07,-588.23 526.91,-597.98 533.89,-598.45"/>
</g>
<!-- Node21 -->
<g id="node9" class="node">
<title>Node21</title>
<g id="a_node9"><a xlink:href="../../da/df5/classleanux_1_1sysdevice_1_1SCSIHost.html#a98ce6f0736e1ea04394fa1172eb7584e" target="_top" xlink:title="Return true if the SysDevice recognizes itself in the trailing part of path.">
<polygon fill="none" stroke="black" points="303,-833.5 303,-863.5 413,-863.5 413,-833.5 303,-833.5"/>
<text text-anchor="start" x="311" y="-851.5" font-family="Helvetica,sans-Serif" font-size="10.00">leanux::sysdevice::</text>
<text text-anchor="middle" x="358" y="-840.5" font-family="Helvetica,sans-Serif" font-size="10.00">SCSIHost::accept</text>
</a>
</g>
</g>
<!-- Node1&#45;&gt;Node21 -->
<g id="edge12" class="edge">
<title>Node1&#45;&gt;Node21</title>
<path fill="none" stroke="midnightblue" d="M528.83,-598.26C521.56,-644.49 497.15,-760.61 429,-824.5 424.41,-828.81 419.01,-832.34 413.28,-835.25"/>
<polygon fill="midnightblue" stroke="midnightblue" points="532.34,-598.49 530.33,-588.09 525.41,-597.47 532.34,-598.49"/>
</g>
<!-- Node22 -->
<g id="node10" class="node">
<title>Node22</title>
<g id="a_node10"><a xlink:href="../../d9/d3e/classleanux_1_1sysdevice_1_1SCSIRPort.html#ad54962de4b43e8f318ab3036847d7564" target="_top" xlink:title="Return true if the SysDevice recognizes itself in the trailing part of path.">
<polygon fill="none" stroke="black" points="303,-784.5 303,-814.5 413,-814.5 413,-784.5 303,-784.5"/>
<text text-anchor="start" x="311" y="-802.5" font-family="Helvetica,sans-Serif" font-size="10.00">leanux::sysdevice::</text>
<text text-anchor="middle" x="358" y="-791.5" font-family="Helvetica,sans-Serif" font-size="10.00">SCSIRPort::accept</text>
</a>
</g>
</g>
<!-- Node1&#45;&gt;Node22 -->
<g id="edge14" class="edge">
<title>Node1&#45;&gt;Node22</title>
<path fill="none" stroke="midnightblue" d="M526.62,-598C515.81,-637.27 486.16,-726.3 429,-775.5 424.33,-779.52 418.94,-782.88 413.28,-785.68"/>
<polygon fill="midnightblue" stroke="midnightblue" points="530.01,-598.88 529.18,-588.32 523.24,-597.1 530.01,-598.88"/>
</g>
<!-- Node23 -->
<g id="node11" class="node">
<title>Node23</title>
<g id="a_node11"><a xlink:href="../../d6/d90/classleanux_1_1sysdevice_1_1SCSIVPort.html#a280844e9b20e922666bea3bc75e6a5d7" target="_top" xlink:title="Return true if the SysDevice recognizes itself in the trailing part of path.">
<polygon fill="none" stroke="black" points="303,-735.5 303,-765.5 413,-765.5 413,-735.5 303,-735.5"/>
<text text-anchor="start" x="311" y="-753.5" font-family="Helvetica,sans-Serif" font-size="10.00">leanux::sysdevice::</text>
<text text-anchor="middle" x="358" y="-742.5" font-family="Helvetica,sans-Serif" font-size="10.00">SCSIVPort::accept</text>
</a>
</g>
</g>
<!-- Node1&#45;&gt;Node23 -->
<g id="edge16" class="edge">
<title>Node1&#45;&gt;Node23</title>
<path fill="none" stroke="midnightblue" d="M523.3,-597.34C508.77,-628.6 475.58,-691.26 429,-726.5 424.18,-730.14 418.78,-733.26 413.16,-735.91"/>
<polygon fill="midnightblue" stroke="midnightblue" points="526.58,-598.58 527.51,-588.02 520.2,-595.7 526.58,-598.58"/>
</g>
<!-- Node24 -->
<g id="node12" class="node">
<title>Node24</title>
<g id="a_node12"><a xlink:href="../../df/db8/classleanux_1_1sysdevice_1_1iSCSIDevice.html#a0393a17e7ce22f09de1140e10e357a6d" target="_top" xlink:title="Return true if the SysDevice recognizes itself in the trailing part of path.">
<polygon fill="none" stroke="black" points="301.5,-686.5 301.5,-716.5 414.5,-716.5 414.5,-686.5 301.5,-686.5"/>
<text text-anchor="start" x="309.5" y="-704.5" font-family="Helvetica,sans-Serif" font-size="10.00">leanux::sysdevice::</text>
<text text-anchor="middle" x="358" y="-693.5" font-family="Helvetica,sans-Serif" font-size="10.00">iSCSIDevice::accept</text>
</a>
</g>
</g>
<!-- Node1&#45;&gt;Node24 -->
<g id="edge18" class="edge">
<title>Node1&#45;&gt;Node24</title>
<path fill="none" stroke="midnightblue" d="M517.69,-595.91C499.49,-617.79 465.51,-655.16 429,-677.5 423.52,-680.85 417.51,-683.81 411.39,-686.4"/>
<polygon fill="midnightblue" stroke="midnightblue" points="520.46,-598.06 524.06,-588.09 515.03,-593.63 520.46,-598.06"/>
</g>
<!-- Node25 -->
<g id="node13" class="node">
<title>Node25</title>
<g id="a_node13"><a xlink:href="../../d8/d7a/classleanux_1_1sysdevice_1_1MMCDevice.html#ae6d395a399b58b35e2ea6e16b31c0a51" target="_top" xlink:title="Return true if the SysDevice recognizes itself in the trailing part of path.">
<polygon fill="none" stroke="black" points="301.5,-637.5 301.5,-667.5 414.5,-667.5 414.5,-637.5 301.5,-637.5"/>
<text text-anchor="start" x="309.5" y="-655.5" font-family="Helvetica,sans-Serif" font-size="10.00">leanux::sysdevice::</text>
<text text-anchor="middle" x="358" y="-644.5" font-family="Helvetica,sans-Serif" font-size="10.00">MMCDevice::accept</text>
</a>
</g>
</g>
<!-- Node1&#45;&gt;Node25 -->
<g id="edge20" class="edge">
<title>Node1&#45;&gt;Node25</title>
<path fill="none" stroke="midnightblue" d="M504.64,-592.73C484.2,-603.29 455.22,-617.66 429,-628.5 421.52,-631.59 413.48,-634.62 405.61,-637.42"/>
<polygon fill="midnightblue" stroke="midnightblue" points="506.41,-595.76 513.66,-588.04 503.18,-589.55 506.41,-595.76"/>
</g>
<!-- Node26 -->
<g id="node14" class="node">
<title>Node26</title>
<g id="a_node14"><a xlink:href="../../d2/d7d/classleanux_1_1sysdevice_1_1NVMeDevice.html#a1a9ba6f067e2d7d86085aaad0fe35e22" target="_top" xlink:title="Return true if the SysDevice recognizes itself in the trailing part of path.">
<polygon fill="none" stroke="black" points="299,-588.5 299,-618.5 417,-618.5 417,-588.5 299,-588.5"/>
<text text-anchor="start" x="307" y="-606.5" font-family="Helvetica,sans-Serif" font-size="10.00">leanux::sysdevice::</text>
<text text-anchor="middle" x="358" y="-595.5" font-family="Helvetica,sans-Serif" font-size="10.00">NVMeDevice::accept</text>
</a>
</g>
</g>
<!-- Node1&#45;&gt;Node26 -->
<g id="edge22" class="edge">
<title>Node1&#45;&gt;Node26</title>
<path fill="none" stroke="midnightblue" d="M455.56,-589.51C442.69,-591.37 429.51,-593.28 417.18,-595.07"/>
<polygon fill="midnightblue" stroke="midnightblue" points="456.4,-592.92 465.79,-588.02 455.39,-585.99 456.4,-592.92"/>
</g>
<!-- Node27 -->
<g id="node15" class="node">
<title>Node27</title>
<g id="a_node15"><a xlink:href="../../d2/d73/classleanux_1_1sysdevice_1_1NVMePartition.html#aa6173825b570085670cef1fa1d18502c" target="_top" xlink:title="Return true if the SysDevice recognizes itself in the trailing part of path.">
<polygon fill="none" stroke="black" points="295.5,-539.5 295.5,-569.5 420.5,-569.5 420.5,-539.5 295.5,-539.5"/>
<text text-anchor="start" x="303.5" y="-557.5" font-family="Helvetica,sans-Serif" font-size="10.00">leanux::sysdevice::</text>
<text text-anchor="middle" x="358" y="-546.5" font-family="Helvetica,sans-Serif" font-size="10.00">NVMePartition::accept</text>
</a>
</g>
</g>
<!-- Node1&#45;&gt;Node27 -->
<g id="edge24" class="edge">
<title>Node1&#45;&gt;Node27</title>
<path fill="none" stroke="midnightblue" d="M454.85,-567.84C443.43,-566.25 431.78,-564.63 420.71,-563.09"/>
<polygon fill="midnightblue" stroke="midnightblue" points="454.42,-571.31 464.81,-569.22 455.38,-564.38 454.42,-571.31"/>
</g>
<!-- Node28 -->
<g id="node16" class="node">
<title>Node28</title>
<g id="a_node16"><a xlink:href="../../df/ddb/classleanux_1_1sysdevice_1_1BCacheDevice.html#a5fa56e87b8a9d136a9c9e9025e8ba3a1" target="_top" xlink:title="Return true if the SysDevice recognizes itself in the trailing part of path.">
<polygon fill="none" stroke="black" points="295.5,-490.5 295.5,-520.5 420.5,-520.5 420.5,-490.5 295.5,-490.5"/>
<text text-anchor="start" x="303.5" y="-508.5" font-family="Helvetica,sans-Serif" font-size="10.00">leanux::sysdevice::</text>
<text text-anchor="middle" x="358" y="-497.5" font-family="Helvetica,sans-Serif" font-size="10.00">BCacheDevice::accept</text>
</a>
</g>
</g>
<!-- Node1&#45;&gt;Node28 -->
<g id="edge26" class="edge">
<title>Node1&#45;&gt;Node28</title>
<path fill="none" stroke="midnightblue" d="M503.42,-564.47C483,-554.48 454.57,-541.02 429,-530.5 420.77,-527.11 411.89,-523.73 403.31,-520.61"/>
<polygon fill="midnightblue" stroke="midnightblue" points="501.96,-567.65 512.47,-568.93 505.05,-561.37 501.96,-567.65"/>
</g>
<!-- Node29 -->
<g id="node17" class="node">
<title>Node29</title>
<g id="a_node17"><a xlink:href="../../da/d56/classleanux_1_1sysdevice_1_1VirtioBlockDevice.html#aa20fa4ec89192167f591103c70bd0e6b" target="_top" xlink:title="Return true if the SysDevice recognizes itself in the trailing part of path.">
<polygon fill="none" stroke="black" points="287,-441.5 287,-471.5 429,-471.5 429,-441.5 287,-441.5"/>
<text text-anchor="start" x="295" y="-459.5" font-family="Helvetica,sans-Serif" font-size="10.00">leanux::sysdevice::</text>
<text text-anchor="middle" x="358" y="-448.5" font-family="Helvetica,sans-Serif" font-size="10.00">VirtioBlockDevice::accept</text>
</a>
</g>
</g>
<!-- Node1&#45;&gt;Node29 -->
<g id="edge28" class="edge">
<title>Node1&#45;&gt;Node29</title>
<path fill="none" stroke="midnightblue" d="M517.28,-561.2C498.9,-539.81 464.95,-503.56 429,-481.5 422.84,-477.72 416.03,-474.4 409.14,-471.51"/>
<polygon fill="midnightblue" stroke="midnightblue" points="514.63,-563.47 523.75,-568.86 519.97,-558.96 514.63,-563.47"/>
</g>
<!-- Node30 -->
<g id="node18" class="node">
<title>Node30</title>
<g id="a_node18"><a xlink:href="../../d9/d1e/classleanux_1_1sysdevice_1_1VirtioNetDevice.html#a6f700f715762942c99d4d438db5a3cf0" target="_top" xlink:title="Return true if the SysDevice recognizes itself in the trailing part of path.">
<polygon fill="none" stroke="black" points="292,-392.5 292,-422.5 424,-422.5 424,-392.5 292,-392.5"/>
<text text-anchor="start" x="300" y="-410.5" font-family="Helvetica,sans-Serif" font-size="10.00">leanux::sysdevice::</text>
<text text-anchor="middle" x="358" y="-399.5" font-family="Helvetica,sans-Serif" font-size="10.00">VirtioNetDevice::accept</text>
</a>
</g>
</g>
<!-- Node1&#45;&gt;Node30 -->
<g id="edge30" class="edge">
<title>Node1&#45;&gt;Node30</title>
<path fill="none" stroke="midnightblue" d="M522.97,-559.54C508.16,-528.64 474.82,-467.4 429,-432.5 423.97,-428.67 418.3,-425.39 412.42,-422.59"/>
<polygon fill="midnightblue" stroke="midnightblue" points="519.88,-561.19 527.28,-568.77 526.22,-558.23 519.88,-561.19"/>
</g>
<!-- Node31 -->
<g id="node19" class="node">
<title>Node31</title>
<g id="a_node19"><a xlink:href="../../dc/dfa/classleanux_1_1sysdevice_1_1MapperDevice.html#aba75107b79e089eba112ab54683539ca" target="_top" xlink:title="Return true if the SysDevice recognizes itself in the trailing part of path.">
<polygon fill="none" stroke="black" points="295.5,-343.5 295.5,-373.5 420.5,-373.5 420.5,-343.5 295.5,-343.5"/>
<text text-anchor="start" x="303.5" y="-361.5" font-family="Helvetica,sans-Serif" font-size="10.00">leanux::sysdevice::</text>
<text text-anchor="middle" x="358" y="-350.5" font-family="Helvetica,sans-Serif" font-size="10.00">MapperDevice::accept</text>
</a>
</g>
</g>
<!-- Node1&#45;&gt;Node31 -->
<g id="edge32" class="edge">
<title>Node1&#45;&gt;Node31</title>
<path fill="none" stroke="midnightblue" d="M526.37,-558.75C515.24,-519.74 485.25,-432.34 429,-383.5 424.52,-379.61 419.39,-376.31 413.98,-373.51"/>
<polygon fill="midnightblue" stroke="midnightblue" points="523.1,-560.09 529.12,-568.81 529.86,-558.24 523.1,-560.09"/>
</g>
<!-- Node32 -->
<g id="node20" class="node">
<title>Node32</title>
<g id="a_node20"><a xlink:href="../../de/dd2/classleanux_1_1sysdevice_1_1LoopbackDevice.html#ae78263063c319cfbb3d863b0faa4bf30" target="_top" xlink:title="Return true if the SysDevice recognizes itself in the trailing part of path.">
<polygon fill="none" stroke="black" points="290.5,-294.5 290.5,-324.5 425.5,-324.5 425.5,-294.5 290.5,-294.5"/>
<text text-anchor="start" x="298.5" y="-312.5" font-family="Helvetica,sans-Serif" font-size="10.00">leanux::sysdevice::</text>
<text text-anchor="middle" x="358" y="-301.5" font-family="Helvetica,sans-Serif" font-size="10.00">LoopbackDevice::accept</text>
</a>
</g>
</g>
<!-- Node1&#45;&gt;Node32 -->
<g id="edge34" class="edge">
<title>Node1&#45;&gt;Node32</title>
<path fill="none" stroke="midnightblue" d="M528.67,-558.62C521.1,-512.65 496.2,-398.12 429,-334.5 424.88,-330.6 420.1,-327.3 415.02,-324.51"/>
<polygon fill="midnightblue" stroke="midnightblue" points="525.22,-559.17 530.2,-568.52 532.13,-558.1 525.22,-559.17"/>
</g>
<!-- Node33 -->
<g id="node21" class="node">
<title>Node33</title>
<g id="a_node21"><a xlink:href="../../dd/d47/classleanux_1_1sysdevice_1_1RamDiskDevice.html#a4094157da53181be672ce2f5768a585e" target="_top" xlink:title="Return true if the SysDevice recognizes itself in the trailing part of path.">
<polygon fill="none" stroke="black" points="291.5,-245.5 291.5,-275.5 424.5,-275.5 424.5,-245.5 291.5,-245.5"/>
<text text-anchor="start" x="299.5" y="-263.5" font-family="Helvetica,sans-Serif" font-size="10.00">leanux::sysdevice::</text>
<text text-anchor="middle" x="358" y="-252.5" font-family="Helvetica,sans-Serif" font-size="10.00">RamDiskDevice::accept</text>
</a>
</g>
</g>
<!-- Node1&#45;&gt;Node33 -->
<g id="edge36" class="edge">
<title>Node1&#45;&gt;Node33</title>
<path fill="none" stroke="midnightblue" d="M530.28,-558.64C526.01,-506.53 507.39,-364.4 429,-285.5 425.18,-281.66 420.73,-278.4 415.96,-275.64"/>
<polygon fill="midnightblue" stroke="midnightblue" points="526.8,-559.14 531.02,-568.86 533.78,-558.63 526.8,-559.14"/>
</g>
<!-- Node34 -->
<g id="node22" class="node">
<title>Node34</title>
<g id="a_node22"><a xlink:href="../../dd/d1b/classleanux_1_1sysdevice_1_1MDDevice.html#ad9d82f1b4c198f086fedfeeb144382ce" target="_top" xlink:title="Return true if the SysDevice recognizes itself in the trailing part of path.">
<polygon fill="none" stroke="black" points="303,-196.5 303,-226.5 413,-226.5 413,-196.5 303,-196.5"/>
<text text-anchor="start" x="311" y="-214.5" font-family="Helvetica,sans-Serif" font-size="10.00">leanux::sysdevice::</text>
<text text-anchor="middle" x="358" y="-203.5" font-family="Helvetica,sans-Serif" font-size="10.00">MDDevice::accept</text>
</a>
</g>
</g>
<!-- Node1&#45;&gt;Node34 -->
<g id="edge38" class="edge">
<title>Node1&#45;&gt;Node34</title>
<path fill="none" stroke="midnightblue" d="M531.44,-558.51C530.19,-500.61 518.64,-330.91 429,-236.5 424.47,-231.73 418.96,-227.86 413.05,-224.74"/>
<polygon fill="midnightblue" stroke="midnightblue" points="527.95,-558.87 531.58,-568.82 534.95,-558.78 527.95,-558.87"/>
</g>
<!-- Node35 -->
<g id="node23" class="node">
<title>Node35</title>
<g id="a_node23"><a xlink:href="../../d8/dcd/classleanux_1_1sysdevice_1_1PCIDevice.html#a19d49ff18a161af4d554a1c49e7eaa86" target="_top" xlink:title="Return true if the SysDevice recognizes itself in the trailing part of path.">
<polygon fill="none" stroke="black" points="303,-147.5 303,-177.5 413,-177.5 413,-147.5 303,-147.5"/>
<text text-anchor="start" x="311" y="-165.5" font-family="Helvetica,sans-Serif" font-size="10.00">leanux::sysdevice::</text>
<text text-anchor="middle" x="358" y="-154.5" font-family="Helvetica,sans-Serif" font-size="10.00">PCIDevice::accept</text>
</a>
</g>
</g>
<!-- Node1&#45;&gt;Node35 -->
<g id="edge40" class="edge">
<title>Node1&#45;&gt;Node35</title>
<path fill="none" stroke="midnightblue" d="M528.79,-558.79C518.62,-487.43 480.66,-243.84 429,-187.5 424.55,-182.65 419.1,-178.74 413.22,-175.59"/>
<polygon fill="midnightblue" stroke="midnightblue" points="525.33,-559.29 530.18,-568.71 532.26,-558.32 525.33,-559.29"/>
</g>
<!-- Node36 -->
<g id="node24" class="node">
<title>Node36</title>
<g id="a_node24"><a xlink:href="../../db/d5e/classleanux_1_1sysdevice_1_1USBDevice.html#a969ebfe688329807bb5ea791c0feb6f2" target="_top" xlink:title="http://www.makelinux.net/ldd3/chp&#45;13&#45;sect&#45;2">
<polygon fill="none" stroke="black" points="303,-98.5 303,-128.5 413,-128.5 413,-98.5 303,-98.5"/>
<text text-anchor="start" x="311" y="-116.5" font-family="Helvetica,sans-Serif" font-size="10.00">leanux::sysdevice::</text>
<text text-anchor="middle" x="358" y="-105.5" font-family="Helvetica,sans-Serif" font-size="10.00">USBDevice::accept</text>
</a>
</g>
</g>
<!-- Node1&#45;&gt;Node36 -->
<g id="edge42" class="edge">
<title>Node1&#45;&gt;Node36</title>
<path fill="none" stroke="midnightblue" d="M529.36,-558.37C520.76,-480.85 486.36,-202.81 429,-138.5 424.62,-133.59 419.21,-129.64 413.35,-126.47"/>
<polygon fill="midnightblue" stroke="midnightblue" points="525.92,-559.1 530.48,-568.67 532.88,-558.35 525.92,-559.1"/>
</g>
<!-- Node37 -->
<g id="node25" class="node">
<title>Node37</title>
<g id="a_node25"><a xlink:href="../../de/dce/classleanux_1_1sysdevice_1_1USBInterface.html#a74d0e0ee8e68c1838041ae1db5856ed7" target="_top" xlink:title="http://www.makelinux.net/ldd3/chp&#45;13&#45;sect&#45;2">
<polygon fill="none" stroke="black" points="298.5,-49.5 298.5,-79.5 417.5,-79.5 417.5,-49.5 298.5,-49.5"/>
<text text-anchor="start" x="306.5" y="-67.5" font-family="Helvetica,sans-Serif" font-size="10.00">leanux::sysdevice::</text>
<text text-anchor="middle" x="358" y="-56.5" font-family="Helvetica,sans-Serif" font-size="10.00">USBInterface::accept</text>
</a>
</g>
</g>
<!-- Node1&#45;&gt;Node37 -->
<g id="edge44" class="edge">
<title>Node1&#45;&gt;Node37</title>
<path fill="none" stroke="midnightblue" d="M529.91,-558.82C522.91,-476.67 492.3,-162.08 429,-89.5 425.61,-85.61 421.57,-82.32 417.16,-79.55"/>
<polygon fill="midnightblue" stroke="midnightblue" points="526.43,-559.14 530.74,-568.82 533.4,-558.56 526.43,-559.14"/>
</g>
<!-- Node38 -->
<g id="node26" class="node">
<title>Node38</title>
<g id="a_node26"><a xlink:href="../../dc/d51/classleanux_1_1sysdevice_1_1USBBus.html#a7f3ac72bdbf731fed580898a54132cf3" target="_top" xlink:title="Return true if the SysDevice recognizes itself in the trailing part of path.">
<polygon fill="none" stroke="black" points="303,-0.5 303,-30.5 413,-30.5 413,-0.5 303,-0.5"/>
<text text-anchor="start" x="311" y="-18.5" font-family="Helvetica,sans-Serif" font-size="10.00">leanux::sysdevice::</text>
<text text-anchor="middle" x="358" y="-7.5" font-family="Helvetica,sans-Serif" font-size="10.00">USBBus::accept</text>
</a>
</g>
</g>
<!-- Node1&#45;&gt;Node38 -->
<g id="edge46" class="edge">
<title>Node1&#45;&gt;Node38</title>
<path fill="none" stroke="midnightblue" d="M530.33,-558.49C524.82,-470.65 498.71,-119.92 429,-39.5 424.62,-34.45 419.14,-30.46 413.17,-27.32"/>
<polygon fill="midnightblue" stroke="midnightblue" points="526.85,-558.92 530.95,-568.69 533.84,-558.49 526.85,-558.92"/>
</g>
<!-- Node3 -->
<g id="node3" class="node">
<title>Node3</title>
<g id="a_node3"><a xlink:href="../../d3/d83/namespaceleanux_1_1sysdevice.html#aa76385cfb36c36d3f55f25dfacc1346b" target="_top" xlink:title="Return the leaf SysDevice detected in path.">
<polygon fill="none" stroke="red" points="141,-564.5 141,-594.5 251,-594.5 251,-564.5 141,-564.5"/>
<text text-anchor="start" x="149" y="-582.5" font-family="Helvetica,sans-Serif" font-size="10.00">leanux::sysdevice::</text>
<text text-anchor="middle" x="196" y="-571.5" font-family="Helvetica,sans-Serif" font-size="10.00">leafDetect</text>
</a>
</g>
</g>
<!-- Node2&#45;&gt;Node3 -->
<g id="edge2" class="edge">
<title>Node2&#45;&gt;Node3</title>
<path fill="none" stroke="midnightblue" d="M294.3,-1076.32C291.64,-1074.3 289.18,-1072.03 287,-1069.5 223.07,-995.28 201.81,-668.82 197.76,-594.56"/>
<polygon fill="midnightblue" stroke="midnightblue" points="292.48,-1079.31 302.8,-1081.71 296.23,-1073.4 292.48,-1079.31"/>
</g>
<!-- Node3&#45;&gt;Node4 -->
<g id="edge3" class="edge">
<title>Node3&#45;&gt;Node4</title>
<path fill="none" stroke="midnightblue" d="M182.3,-603.47C153.74,-657.35 85.15,-786.77 61.6,-831.21"/>
<polygon fill="midnightblue" stroke="midnightblue" points="185.4,-605.09 186.99,-594.62 179.21,-601.82 185.4,-605.09"/>
</g>
<!-- Node17&#45;&gt;Node3 -->
<g id="edge5" class="edge">
<title>Node17&#45;&gt;Node3</title>
<path fill="none" stroke="midnightblue" d="M289.38,-1023.01C288.56,-1022.21 287.76,-1021.37 287,-1020.5 229.1,-954.61 203.54,-665.14 198.12,-594.89"/>
<polygon fill="midnightblue" stroke="midnightblue" points="287.52,-1026 297.53,-1029.49 291.88,-1020.52 287.52,-1026"/>
</g>
<!-- Node18&#45;&gt;Node3 -->
<g id="edge7" class="edge">
<title>Node18&#45;&gt;Node3</title>
<path fill="none" stroke="midnightblue" d="M293.79,-977.72C291.34,-975.85 289.06,-973.78 287,-971.5 235.02,-913.77 205.41,-660.27 198.55,-594.92"/>
<polygon fill="midnightblue" stroke="midnightblue" points="292.34,-980.95 302.66,-983.34 296.09,-975.03 292.34,-980.95"/>
</g>
<!-- Node19&#45;&gt;Node3 -->
<g id="edge9" class="edge">
<title>Node19&#45;&gt;Node3</title>
<path fill="none" stroke="midnightblue" d="M289.77,-925.25C288.81,-924.37 287.89,-923.45 287,-922.5 240.81,-872.77 207.42,-654.24 199.05,-594.59"/>
<polygon fill="midnightblue" stroke="midnightblue" points="287.66,-928.04 297.74,-931.3 291.89,-922.46 287.66,-928.04"/>
</g>
<!-- Node20&#45;&gt;Node3 -->
<g id="edge11" class="edge">
<title>Node20&#45;&gt;Node3</title>
<path fill="none" stroke="midnightblue" d="M293.98,-879.53C291.48,-877.71 289.14,-875.71 287,-873.5 207.95,-791.78 198.14,-642.52 197.07,-594.68"/>
<polygon fill="midnightblue" stroke="midnightblue" points="292.63,-882.81 302.99,-885.04 296.28,-876.84 292.63,-882.81"/>
</g>
<!-- Node21&#45;&gt;Node3 -->
<g id="edge13" class="edge">
<title>Node21&#45;&gt;Node3</title>
<path fill="none" stroke="midnightblue" d="M293.98,-830.28C291.5,-828.53 289.15,-826.61 287,-824.5 219.31,-758.26 202.16,-636.88 198.14,-594.54"/>
<polygon fill="midnightblue" stroke="midnightblue" points="292.51,-833.48 302.89,-835.62 296.11,-827.47 292.51,-833.48"/>
</g>
<!-- Node22&#45;&gt;Node3 -->
<g id="edge15" class="edge">
<title>Node22&#45;&gt;Node3</title>
<path fill="none" stroke="midnightblue" d="M294.03,-780.97C291.55,-779.3 289.19,-777.48 287,-775.5 230.63,-724.51 207.07,-631.14 199.73,-594.67"/>
<polygon fill="midnightblue" stroke="midnightblue" points="292.46,-784.1 302.87,-786.08 295.97,-778.04 292.46,-784.1"/>
</g>
<!-- Node23&#45;&gt;Node3 -->
<g id="edge17" class="edge">
<title>Node23&#45;&gt;Node3</title>
<path fill="none" stroke="midnightblue" d="M294.16,-731.54C291.65,-729.98 289.26,-728.31 287,-726.5 241.71,-690.18 213.38,-624.49 202.31,-594.8"/>
<polygon fill="midnightblue" stroke="midnightblue" points="292.53,-734.64 302.99,-736.35 295.89,-728.49 292.53,-734.64"/>
</g>
<!-- Node24&#45;&gt;Node3 -->
<g id="edge19" class="edge">
<title>Node24&#45;&gt;Node3</title>
<path fill="none" stroke="midnightblue" d="M294.57,-681.97C291.95,-680.57 289.42,-679.08 287,-677.5 252.39,-654.87 222.18,-615.97 207.14,-594.62"/>
<polygon fill="midnightblue" stroke="midnightblue" points="293.16,-685.18 303.68,-686.4 296.21,-678.88 293.16,-685.18"/>
</g>
<!-- Node25&#45;&gt;Node3 -->
<g id="edge21" class="edge">
<title>Node25&#45;&gt;Node3</title>
<path fill="none" stroke="midnightblue" d="M299.87,-633.81C295.48,-632.1 291.15,-630.32 287,-628.5 264.36,-618.54 239.78,-604.95 222.03,-594.61"/>
<polygon fill="midnightblue" stroke="midnightblue" points="298.92,-637.19 309.52,-637.43 301.38,-630.64 298.92,-637.19"/>
</g>
<!-- Node26&#45;&gt;Node3 -->
<g id="edge23" class="edge">
<title>Node26&#45;&gt;Node3</title>
<path fill="none" stroke="midnightblue" d="M288.81,-593.27C276.24,-591.39 263.27,-589.44 251.18,-587.63"/>
<polygon fill="midnightblue" stroke="midnightblue" points="288.38,-596.75 298.78,-594.77 289.41,-589.82 288.38,-596.75"/>
</g>
<!-- Node27&#45;&gt;Node3 -->
<g id="edge25" class="edge">
<title>Node27&#45;&gt;Node3</title>
<path fill="none" stroke="midnightblue" d="M285.17,-565.72C273.74,-567.51 262.08,-569.33 251.14,-571.04"/>
<polygon fill="midnightblue" stroke="midnightblue" points="285.8,-569.17 295.14,-564.17 284.72,-562.25 285.8,-569.17"/>
</g>
<!-- Node28&#45;&gt;Node3 -->
<g id="edge27" class="edge">
<title>Node28&#45;&gt;Node3</title>
<path fill="none" stroke="midnightblue" d="M301.74,-524.32C296.71,-526.31 291.74,-528.38 287,-530.5 264.43,-540.6 239.83,-554.18 222.07,-564.48"/>
<polygon fill="midnightblue" stroke="midnightblue" points="303.32,-527.47 311.41,-520.62 300.82,-520.93 303.32,-527.47"/>
</g>
<!-- Node29&#45;&gt;Node3 -->
<g id="edge29" class="edge">
<title>Node29&#45;&gt;Node3</title>
<path fill="none" stroke="midnightblue" d="M296.26,-476.04C293.05,-477.73 289.94,-479.55 287,-481.5 252.54,-504.35 222.27,-543.16 207.18,-564.44"/>
<polygon fill="midnightblue" stroke="midnightblue" points="298.01,-479.08 305.51,-471.6 294.98,-472.77 298.01,-479.08"/>
</g>
<!-- Node30&#45;&gt;Node3 -->
<g id="edge31" class="edge">
<title>Node30&#45;&gt;Node3</title>
<path fill="none" stroke="midnightblue" d="M293.51,-427.8C291.24,-429.26 289.06,-430.83 287,-432.5 241.94,-469.1 213.49,-534.65 202.35,-564.25"/>
<polygon fill="midnightblue" stroke="midnightblue" points="295.65,-430.61 302.63,-422.63 292.2,-424.52 295.65,-430.61"/>
</g>
<!-- Node31&#45;&gt;Node3 -->
<g id="edge33" class="edge">
<title>Node31&#45;&gt;Node3</title>
<path fill="none" stroke="midnightblue" d="M292.39,-379.11C290.51,-380.48 288.7,-381.94 287,-383.5 230.95,-434.85 207.2,-528.01 199.77,-564.38"/>
<polygon fill="midnightblue" stroke="midnightblue" points="294.49,-381.92 301.11,-373.65 290.77,-375.99 294.49,-381.92"/>
</g>
<!-- Node32&#45;&gt;Node3 -->
<g id="edge35" class="edge">
<title>Node32&#45;&gt;Node3</title>
<path fill="none" stroke="midnightblue" d="M292.1,-330.03C290.31,-331.43 288.6,-332.91 287,-334.5 219.73,-401.16 202.31,-522.28 198.18,-564.5"/>
<polygon fill="midnightblue" stroke="midnightblue" points="294.04,-332.95 300.45,-324.51 290.18,-327.11 294.04,-332.95"/>
</g>
<!-- Node33&#45;&gt;Node3 -->
<g id="edge37" class="edge">
<title>Node33&#45;&gt;Node3</title>
<path fill="none" stroke="midnightblue" d="M291.36,-281.44C289.83,-282.71 288.37,-284.07 287,-285.5 208.47,-367.72 198.31,-516.65 197.12,-564.36"/>
<polygon fill="midnightblue" stroke="midnightblue" points="293.37,-284.3 299.54,-275.69 289.35,-278.57 293.37,-284.3"/>
</g>
<!-- Node34&#45;&gt;Node3 -->
<g id="edge39" class="edge">
<title>Node34&#45;&gt;Node3</title>
<path fill="none" stroke="midnightblue" d="M293.86,-230.28C291.39,-232.16 289.09,-234.23 287,-236.5 197.12,-334.5 194.84,-511.31 196.32,-564.17"/>
<polygon fill="midnightblue" stroke="midnightblue" points="296.24,-232.92 302.79,-224.59 292.47,-227.01 296.24,-232.92"/>
</g>
<!-- Node35&#45;&gt;Node3 -->
<g id="edge41" class="edge">
<title>Node35&#45;&gt;Node3</title>
<path fill="none" stroke="midnightblue" d="M294.42,-180.71C291.73,-182.74 289.23,-184.99 287,-187.5 235.39,-245.56 205.51,-498.81 198.57,-564.1"/>
<polygon fill="midnightblue" stroke="midnightblue" points="296.42,-183.58 302.98,-175.27 292.67,-177.67 296.42,-183.58"/>
</g>
<!-- Node36&#45;&gt;Node3 -->
<g id="edge43" class="edge">
<title>Node36&#45;&gt;Node3</title>
<path fill="none" stroke="midnightblue" d="M294.34,-131.64C291.67,-133.69 289.2,-135.97 287,-138.5 229.52,-204.76 203.64,-493.96 198.14,-564.12"/>
<polygon fill="midnightblue" stroke="midnightblue" points="296.34,-134.52 302.87,-126.17 292.56,-128.63 296.34,-134.52"/>
</g>
<!-- Node37&#45;&gt;Node3 -->
<g id="edge45" class="edge">
<title>Node37&#45;&gt;Node3</title>
<path fill="none" stroke="midnightblue" d="M290.23,-86.08C289.1,-87.16 288.02,-88.3 287,-89.5 223.54,-164.12 201.92,-490.27 197.78,-564.45"/>
<polygon fill="midnightblue" stroke="midnightblue" points="292.69,-88.59 298.41,-79.67 288.38,-83.08 292.69,-88.59"/>
</g>
<!-- Node38&#45;&gt;Node3 -->
<g id="edge47" class="edge">
<title>Node38&#45;&gt;Node3</title>
<path fill="none" stroke="midnightblue" d="M294.25,-32.64C291.6,-34.67 289.16,-36.95 287,-39.5 217.04,-122.08 200.33,-485.12 197.49,-564.24"/>
<polygon fill="midnightblue" stroke="midnightblue" points="296.18,-35.56 302.72,-27.22 292.41,-29.66 296.18,-35.56"/>
</g>
</g>
</svg>
