<?xml version="1.0" encoding="UTF-8" standalone="no"?>
<!DOCTYPE svg PUBLIC "-//W3C//DTD SVG 1.1//EN"
 "http://www.w3.org/Graphics/SVG/1.1/DTD/svg11.dtd">
<!-- Generated by graphviz version 2.43.0 (0)
 -->
<!-- Title: leanux::usb::getUSBHardwareId Pages: 1 -->
<svg width="366pt" height="78pt"
 viewBox="0.00 0.00 366.00 77.50" xmlns="http://www.w3.org/2000/svg" xmlns:xlink="http://www.w3.org/1999/xlink">
<g id="graph0" class="graph" transform="scale(1 1) rotate(0) translate(4 73.5)">
<title>leanux::usb::getUSBHardwareId</title>
<!-- Node1 -->
<g id="node1" class="node">
<title>Node1</title>
<g id="a_node1"><a xlink:title="Get the USBHardwareId from an USBDevicePath.">
<polygon fill="#bfbfbf" stroke="black" points="0,-28 0,-47 171,-47 171,-28 0,-28"/>
<text text-anchor="middle" x="85.5" y="-35" font-family="Helvetica,sans-Serif" font-size="10.00">leanux::usb::getUSBHardwareId</text>
</a>
</g>
</g>
<!-- Node2 -->
<g id="node2" class="node">
<title>Node2</title>
<g id="a_node2"><a xlink:href="../../d8/db1/namespaceleanux_1_1util.html#a6421ca2c46c56eebe1a486c6a498ce7d" target="_top" xlink:title="Test if a file exists and can be read.">
<polygon fill="none" stroke="black" points="207,-50 207,-69 358,-69 358,-50 207,-50"/>
<text text-anchor="middle" x="282.5" y="-57" font-family="Helvetica,sans-Serif" font-size="10.00">leanux::util::fileReadAccess</text>
</a>
</g>
</g>
<!-- Node1&#45;&gt;Node2 -->
<g id="edge1" class="edge">
<title>Node1&#45;&gt;Node2</title>
<path fill="none" stroke="midnightblue" d="M170.9,-47.02C179.48,-47.99 188.2,-48.97 196.78,-49.94"/>
<polygon fill="midnightblue" stroke="midnightblue" points="196.45,-53.43 206.78,-51.07 197.24,-46.47 196.45,-53.43"/>
</g>
<!-- Node3 -->
<g id="node3" class="node">
<title>Node3</title>
<g id="a_node3"><a xlink:href="../../d8/db1/namespaceleanux_1_1util.html#a7efa8c5cecc9bb8beada58ee60fa71c4" target="_top" xlink:title="read the first data in the file as a hexadecimal string representation of a signed long.">
<polygon fill="none" stroke="black" points="214,-0.5 214,-30.5 351,-30.5 351,-0.5 214,-0.5"/>
<text text-anchor="start" x="222" y="-18.5" font-family="Helvetica,sans-Serif" font-size="10.00">leanux::util::fileReadHex</text>
<text text-anchor="middle" x="282.5" y="-7.5" font-family="Helvetica,sans-Serif" font-size="10.00">String</text>
</a>
</g>
</g>
<!-- Node1&#45;&gt;Node3 -->
<g id="edge2" class="edge">
<title>Node1&#45;&gt;Node3</title>
<path fill="none" stroke="midnightblue" d="M170.9,-27.98C181.74,-26.76 192.8,-25.51 203.53,-24.3"/>
<polygon fill="midnightblue" stroke="midnightblue" points="204.16,-27.75 213.71,-23.15 203.38,-20.79 204.16,-27.75"/>
</g>
</g>
</svg>
