<?xml version="1.0" encoding="UTF-8" standalone="no"?>
<!DOCTYPE svg PUBLIC "-//W3C//DTD SVG 1.1//EN"
 "http://www.w3.org/Graphics/SVG/1.1/DTD/svg11.dtd">
<!-- Generated by graphviz version 2.43.0 (0)
 -->
<!-- Title: leanux::usb::getUSBInterfaceHardwareClass Pages: 1 -->
<svg width="471pt" height="88pt"
 viewBox="0.00 0.00 471.00 88.00" xmlns="http://www.w3.org/2000/svg" xmlns:xlink="http://www.w3.org/1999/xlink">
<g id="graph0" class="graph" transform="scale(1 1) rotate(0) translate(4 84)">
<title>leanux::usb::getUSBInterfaceHardwareClass</title>
<!-- Node1 -->
<g id="node1" class="node">
<title>Node1</title>
<g id="a_node1"><a xlink:title=" ">
<polygon fill="#bfbfbf" stroke="black" points="305,-24.5 305,-54.5 463,-54.5 463,-24.5 305,-24.5"/>
<text text-anchor="start" x="313" y="-42.5" font-family="Helvetica,sans-Serif" font-size="10.00">leanux::usb::getUSBInterface</text>
<text text-anchor="middle" x="384" y="-31.5" font-family="Helvetica,sans-Serif" font-size="10.00">HardwareClass</text>
</a>
</g>
</g>
<!-- Node2 -->
<g id="node2" class="node">
<title>Node2</title>
<g id="a_node2"><a xlink:href="../../de/dce/classleanux_1_1sysdevice_1_1USBInterface.html#ab302808224c276e9de918a911343d8ac" target="_top" xlink:title="Get the device class for this device.">
<polygon fill="none" stroke="black" points="141,-49.5 141,-79.5 269,-79.5 269,-49.5 141,-49.5"/>
<text text-anchor="start" x="149" y="-67.5" font-family="Helvetica,sans-Serif" font-size="10.00">leanux::sysdevice::</text>
<text text-anchor="middle" x="205" y="-56.5" font-family="Helvetica,sans-Serif" font-size="10.00">USBInterface::getClass</text>
</a>
</g>
</g>
<!-- Node1&#45;&gt;Node2 -->
<g id="edge1" class="edge">
<title>Node1&#45;&gt;Node2</title>
<path fill="none" stroke="midnightblue" d="M294.73,-51.97C286.09,-53.19 277.45,-54.41 269.13,-55.58"/>
<polygon fill="midnightblue" stroke="midnightblue" points="295.44,-55.4 304.85,-50.54 294.46,-48.47 295.44,-55.4"/>
</g>
<!-- Node3 -->
<g id="node3" class="node">
<title>Node3</title>
<g id="a_node3"><a xlink:href="../../d9/d1f/namespaceleanux_1_1tools_1_1lsys.html#a4a56050ff78d8c77b6a699ff6d5aea50" target="_top" xlink:title="get named field attributes for the SysDevice.">
<polygon fill="none" stroke="black" points="152.5,-0.5 152.5,-30.5 257.5,-30.5 257.5,-0.5 152.5,-0.5"/>
<text text-anchor="start" x="160.5" y="-18.5" font-family="Helvetica,sans-Serif" font-size="10.00">leanux::tools::lsys</text>
<text text-anchor="middle" x="205" y="-7.5" font-family="Helvetica,sans-Serif" font-size="10.00">::getLeafColStr</text>
</a>
</g>
</g>
<!-- Node1&#45;&gt;Node3 -->
<g id="edge2" class="edge">
<title>Node1&#45;&gt;Node3</title>
<path fill="none" stroke="midnightblue" d="M294.67,-27.52C281.95,-25.8 269.23,-24.07 257.55,-22.49"/>
<polygon fill="midnightblue" stroke="midnightblue" points="294.47,-31.03 304.85,-28.9 295.41,-24.09 294.47,-31.03"/>
</g>
<!-- Node4 -->
<g id="node4" class="node">
<title>Node4</title>
<g id="a_node4"><a xlink:href="../../d9/d1f/namespaceleanux_1_1tools_1_1lsys.html#ad858cdc5736e1be415f25fdaec024b58" target="_top" xlink:title="list devices, filtered if opt_t is set.">
<polygon fill="none" stroke="red" points="0,-0.5 0,-30.5 105,-30.5 105,-0.5 0,-0.5"/>
<text text-anchor="start" x="8" y="-18.5" font-family="Helvetica,sans-Serif" font-size="10.00">leanux::tools::lsys</text>
<text text-anchor="middle" x="52.5" y="-7.5" font-family="Helvetica,sans-Serif" font-size="10.00">::listDevices</text>
</a>
</g>
</g>
<!-- Node3&#45;&gt;Node4 -->
<g id="edge3" class="edge">
<title>Node3&#45;&gt;Node4</title>
<path fill="none" stroke="midnightblue" d="M142.04,-15.5C129.77,-15.5 117.02,-15.5 105.13,-15.5"/>
<polygon fill="midnightblue" stroke="midnightblue" points="142.21,-19 152.21,-15.5 142.21,-12 142.21,-19"/>
</g>
</g>
</svg>
