<?xml version="1.0" encoding="UTF-8" standalone="no"?>
<!DOCTYPE svg PUBLIC "-//W3C//DTD SVG 1.1//EN"
 "http://www.w3.org/Graphics/SVG/1.1/DTD/svg11.dtd">
<!-- Generated by graphviz version 2.43.0 (0)
 -->
<!-- Title: leanux::sysdevice::SASEndDevice::accept Pages: 1 -->
<svg width="460pt" height="127pt"
 viewBox="0.00 0.00 460.00 127.00" xmlns="http://www.w3.org/2000/svg" xmlns:xlink="http://www.w3.org/1999/xlink">
<g id="graph0" class="graph" transform="scale(1 1) rotate(0) translate(4 123)">
<title>leanux::sysdevice::SASEndDevice::accept</title>
<!-- Node1 -->
<g id="node1" class="node">
<title>Node1</title>
<g id="a_node1"><a xlink:title="Return true if the SysDevice recognizes itself in the trailing part of path.">
<polygon fill="#bfbfbf" stroke="black" points="0,-44.5 0,-74.5 126,-74.5 126,-44.5 0,-44.5"/>
<text text-anchor="start" x="8" y="-62.5" font-family="Helvetica,sans-Serif" font-size="10.00">leanux::sysdevice::</text>
<text text-anchor="middle" x="63" y="-51.5" font-family="Helvetica,sans-Serif" font-size="10.00">SASEndDevice::accept</text>
</a>
</g>
</g>
<!-- Node2 -->
<g id="node2" class="node">
<title>Node2</title>
<g id="a_node2"><a xlink:href="../../df/d3f/classleanux_1_1util_1_1RegExp.html#a8acc45eb950f504e1b224e10313364de" target="_top" xlink:title=" ">
<polygon fill="none" stroke="black" points="172.5,-88.5 172.5,-118.5 286.5,-118.5 286.5,-88.5 172.5,-88.5"/>
<text text-anchor="start" x="180.5" y="-106.5" font-family="Helvetica,sans-Serif" font-size="10.00">leanux::util::RegExp</text>
<text text-anchor="middle" x="229.5" y="-95.5" font-family="Helvetica,sans-Serif" font-size="10.00">::match</text>
</a>
</g>
</g>
<!-- Node1&#45;&gt;Node2 -->
<g id="edge1" class="edge">
<title>Node1&#45;&gt;Node2</title>
<path fill="none" stroke="midnightblue" d="M120.15,-74.52C133.71,-78.15 148.32,-82.05 162.29,-85.79"/>
<polygon fill="midnightblue" stroke="midnightblue" points="161.76,-89.27 172.32,-88.47 163.57,-82.51 161.76,-89.27"/>
</g>
<!-- Node3 -->
<g id="node3" class="node">
<title>Node3</title>
<g id="a_node3"><a xlink:href="../../df/d3f/classleanux_1_1util_1_1RegExp.html#ad478a08e79f94ea2c48de6298c6e1178" target="_top" xlink:title=" ">
<polygon fill="none" stroke="black" points="162,-50 162,-69 297,-69 297,-50 162,-50"/>
<text text-anchor="middle" x="229.5" y="-57" font-family="Helvetica,sans-Serif" font-size="10.00">leanux::util::RegExp::set</text>
</a>
</g>
</g>
<!-- Node1&#45;&gt;Node3 -->
<g id="edge2" class="edge">
<title>Node1&#45;&gt;Node3</title>
<path fill="none" stroke="midnightblue" d="M126.19,-59.5C134.56,-59.5 143.23,-59.5 151.81,-59.5"/>
<polygon fill="midnightblue" stroke="midnightblue" points="151.83,-63 161.83,-59.5 151.83,-56 151.83,-63"/>
</g>
<!-- Node4 -->
<g id="node4" class="node">
<title>Node4</title>
<g id="a_node4"><a xlink:href="../../d1/d02/classleanux_1_1sysdevice_1_1SysDevice.html#abc35fc5f51e73156ebd1a8b707c960b2" target="_top" xlink:title="Transform a SysDevicePath into a list of tokens in reverse order.">
<polygon fill="none" stroke="black" points="172,-0.5 172,-30.5 287,-30.5 287,-0.5 172,-0.5"/>
<text text-anchor="start" x="180" y="-18.5" font-family="Helvetica,sans-Serif" font-size="10.00">leanux::sysdevice::</text>
<text text-anchor="middle" x="229.5" y="-7.5" font-family="Helvetica,sans-Serif" font-size="10.00">SysDevice::tokenize</text>
</a>
</g>
</g>
<!-- Node1&#45;&gt;Node4 -->
<g id="edge3" class="edge">
<title>Node1&#45;&gt;Node4</title>
<path fill="none" stroke="midnightblue" d="M120.15,-44.48C133.71,-40.85 148.32,-36.95 162.29,-33.21"/>
<polygon fill="midnightblue" stroke="midnightblue" points="163.57,-36.49 172.32,-30.53 161.76,-29.73 163.57,-36.49"/>
</g>
<!-- Node5 -->
<g id="node5" class="node">
<title>Node5</title>
<g id="a_node5"><a xlink:href="../../d8/db1/namespaceleanux_1_1util.html#a3b691a56e21c20628e956b8ec995d53f" target="_top" xlink:title=" ">
<polygon fill="none" stroke="black" points="333,-6 333,-25 452,-25 452,-6 333,-6"/>
<text text-anchor="middle" x="392.5" y="-13" font-family="Helvetica,sans-Serif" font-size="10.00">leanux::util::tokenize</text>
</a>
</g>
</g>
<!-- Node4&#45;&gt;Node5 -->
<g id="edge4" class="edge">
<title>Node4&#45;&gt;Node5</title>
<path fill="none" stroke="midnightblue" d="M287.26,-15.5C298.68,-15.5 310.79,-15.5 322.56,-15.5"/>
<polygon fill="midnightblue" stroke="midnightblue" points="322.8,-19 332.8,-15.5 322.8,-12 322.8,-19"/>
</g>
</g>
</svg>
