<?xml version="1.0" encoding="UTF-8" standalone="no"?>
<!DOCTYPE svg PUBLIC "-//W3C//DTD SVG 1.1//EN"
 "http://www.w3.org/Graphics/SVG/1.1/DTD/svg11.dtd">
<!-- Generated by graphviz version 2.43.0 (0)
 -->
<!-- Title: leanux::tools::lard::VMSnap::storeSnap Pages: 1 -->
<svg width="500pt" height="214pt"
 viewBox="0.00 0.00 500.00 214.00" xmlns="http://www.w3.org/2000/svg" xmlns:xlink="http://www.w3.org/1999/xlink">
<g id="graph0" class="graph" transform="scale(1 1) rotate(0) translate(4 210)">
<title>leanux::tools::lard::VMSnap::storeSnap</title>
<!-- Node1 -->
<g id="node1" class="node">
<title>Node1</title>
<g id="a_node1"><a xlink:title=" ">
<polygon fill="#bfbfbf" stroke="black" points="0,-82.5 0,-112.5 117,-112.5 117,-82.5 0,-82.5"/>
<text text-anchor="start" x="8" y="-100.5" font-family="Helvetica,sans-Serif" font-size="10.00">leanux::tools::lard</text>
<text text-anchor="middle" x="58.5" y="-89.5" font-family="Helvetica,sans-Serif" font-size="10.00">::VMSnap::storeSnap</text>
</a>
</g>
</g>
<!-- Node2 -->
<g id="node2" class="node">
<title>Node2</title>
<g id="a_node2"><a xlink:href="../../d9/d78/classleanux_1_1persist_1_1DML.html#a8df01a6d880515c22106e424ed342c81" target="_top" xlink:title="Bind a double value to the bind at position.">
<polygon fill="none" stroke="black" points="173.5,-175.5 173.5,-205.5 289.5,-205.5 289.5,-175.5 173.5,-175.5"/>
<text text-anchor="start" x="181.5" y="-193.5" font-family="Helvetica,sans-Serif" font-size="10.00">leanux::persist::DML</text>
<text text-anchor="middle" x="231.5" y="-182.5" font-family="Helvetica,sans-Serif" font-size="10.00">::bind</text>
</a>
</g>
</g>
<!-- Node1&#45;&gt;Node2 -->
<g id="edge1" class="edge">
<title>Node1&#45;&gt;Node2</title>
<path fill="none" stroke="midnightblue" d="M76.26,-112.61C94.14,-128.04 123.83,-151.76 153,-166.5 156.57,-168.31 160.31,-170.01 164.13,-171.61"/>
<polygon fill="midnightblue" stroke="midnightblue" points="163.16,-174.98 173.75,-175.36 165.71,-168.46 163.16,-174.98"/>
</g>
<!-- Node3 -->
<g id="node3" class="node">
<title>Node3</title>
<g id="a_node3"><a xlink:href="../../d9/d78/classleanux_1_1persist_1_1DML.html#a66bfdf8da5f7d2c02bb5cb6f54515783" target="_top" xlink:title="Execute.">
<polygon fill="none" stroke="black" points="173.5,-126.5 173.5,-156.5 289.5,-156.5 289.5,-126.5 173.5,-126.5"/>
<text text-anchor="start" x="181.5" y="-144.5" font-family="Helvetica,sans-Serif" font-size="10.00">leanux::persist::DML</text>
<text text-anchor="middle" x="231.5" y="-133.5" font-family="Helvetica,sans-Serif" font-size="10.00">::execute</text>
</a>
</g>
</g>
<!-- Node1&#45;&gt;Node3 -->
<g id="edge2" class="edge">
<title>Node1&#45;&gt;Node3</title>
<path fill="none" stroke="midnightblue" d="M117.39,-112.4C132.18,-116.2 148.19,-120.32 163.4,-124.23"/>
<polygon fill="midnightblue" stroke="midnightblue" points="162.69,-127.67 173.25,-126.77 164.44,-120.89 162.69,-127.67"/>
</g>
<!-- Node4 -->
<g id="node4" class="node">
<title>Node4</title>
<g id="a_node4"><a xlink:href="../../dd/d42/namespaceleanux_1_1system.html#a52dc747f7af9f66fabb1ccfd72c7c450" target="_top" xlink:title="Get the system page size.">
<polygon fill="none" stroke="black" points="153,-88 153,-107 310,-107 310,-88 153,-88"/>
<text text-anchor="middle" x="231.5" y="-95" font-family="Helvetica,sans-Serif" font-size="10.00">leanux::system::getPageSize</text>
</a>
</g>
</g>
<!-- Node1&#45;&gt;Node4 -->
<g id="edge3" class="edge">
<title>Node1&#45;&gt;Node4</title>
<path fill="none" stroke="midnightblue" d="M117.39,-97.5C125.61,-97.5 134.21,-97.5 142.84,-97.5"/>
<polygon fill="midnightblue" stroke="midnightblue" points="142.96,-101 152.96,-97.5 142.96,-94 142.96,-101"/>
</g>
<!-- Node5 -->
<g id="node5" class="node">
<title>Node5</title>
<g id="a_node5"><a xlink:href="../../dc/d32/namespaceleanux_1_1vmem.html#aabc162dbfa4e98a5d1bf2571ba58de88" target="_top" xlink:title="Get a std::list of SwapInfo swap spaces.">
<polygon fill="none" stroke="black" points="154.5,-50 154.5,-69 308.5,-69 308.5,-50 154.5,-50"/>
<text text-anchor="middle" x="231.5" y="-57" font-family="Helvetica,sans-Serif" font-size="10.00">leanux::vmem::getSwapInfo</text>
</a>
</g>
</g>
<!-- Node1&#45;&gt;Node5 -->
<g id="edge4" class="edge">
<title>Node1&#45;&gt;Node5</title>
<path fill="none" stroke="midnightblue" d="M117.39,-84.63C136.86,-80.31 158.46,-75.51 177.53,-71.27"/>
<polygon fill="midnightblue" stroke="midnightblue" points="178.53,-74.63 187.54,-69.05 177.01,-67.8 178.53,-74.63"/>
</g>
<!-- Node6 -->
<g id="node6" class="node">
<title>Node6</title>
<g id="a_node6"><a xlink:href="../../db/dff/classleanux_1_1persist_1_1Statement.html#a1b809c1b1d0e9d24af65e439c3893d74" target="_top" xlink:title="Prepare a SQL statement.">
<polygon fill="none" stroke="black" points="158.5,-0.5 158.5,-30.5 304.5,-30.5 304.5,-0.5 158.5,-0.5"/>
<text text-anchor="start" x="166.5" y="-18.5" font-family="Helvetica,sans-Serif" font-size="10.00">leanux::persist::Statement</text>
<text text-anchor="middle" x="231.5" y="-7.5" font-family="Helvetica,sans-Serif" font-size="10.00">::prepare</text>
</a>
</g>
</g>
<!-- Node1&#45;&gt;Node6 -->
<g id="edge5" class="edge">
<title>Node1&#45;&gt;Node6</title>
<path fill="none" stroke="midnightblue" d="M80.98,-82.39C99.43,-69.91 127.08,-52.38 153,-40.5 157.98,-38.22 163.23,-36.05 168.55,-34.02"/>
<polygon fill="midnightblue" stroke="midnightblue" points="169.97,-37.23 178.16,-30.52 167.57,-30.66 169.97,-37.23"/>
</g>
<!-- Node7 -->
<g id="node7" class="node">
<title>Node7</title>
<g id="a_node7"><a xlink:href="../../db/dff/classleanux_1_1persist_1_1Statement.html#a5b31fb14297ad5c1c342cfc0d8f797de" target="_top" xlink:title="A statement handle can be explicitly closed without deleting the Statement object itself.">
<polygon fill="none" stroke="black" points="346,-0.5 346,-30.5 492,-30.5 492,-0.5 346,-0.5"/>
<text text-anchor="start" x="354" y="-18.5" font-family="Helvetica,sans-Serif" font-size="10.00">leanux::persist::Statement</text>
<text text-anchor="middle" x="419" y="-7.5" font-family="Helvetica,sans-Serif" font-size="10.00">::close</text>
</a>
</g>
</g>
<!-- Node6&#45;&gt;Node7 -->
<g id="edge6" class="edge">
<title>Node6&#45;&gt;Node7</title>
<path fill="none" stroke="midnightblue" d="M304.75,-15.5C314.9,-15.5 325.39,-15.5 335.71,-15.5"/>
<polygon fill="midnightblue" stroke="midnightblue" points="335.95,-19 345.95,-15.5 335.95,-12 335.95,-19"/>
</g>
</g>
</svg>
