<?xml version="1.0" encoding="UTF-8" standalone="no"?>
<!DOCTYPE svg PUBLIC "-//W3C//DTD SVG 1.1//EN"
 "http://www.w3.org/Graphics/SVG/1.1/DTD/svg11.dtd">
<!-- Generated by graphviz version 2.43.0 (0)
 -->
<!-- Title: tools/lmon/xdata.hpp Pages: 1 -->
<svg width="1042pt" height="196pt"
 viewBox="0.00 0.00 1041.94 196.00" xmlns="http://www.w3.org/2000/svg" xmlns:xlink="http://www.w3.org/1999/xlink">
<g id="graph0" class="graph" transform="scale(1 1) rotate(0) translate(4 192)">
<title>tools/lmon/xdata.hpp</title>
<!-- Node1 -->
<g id="node1" class="node">
<title>Node1</title>
<g id="a_node1"><a xlink:title=" ">
<polygon fill="#bfbfbf" stroke="black" points="584,-168.5 584,-187.5 704,-187.5 704,-168.5 584,-168.5"/>
<text text-anchor="middle" x="644" y="-175.5" font-family="Helvetica,sans-Serif" font-size="10.00">tools/lmon/xdata.hpp</text>
</a>
</g>
</g>
<!-- Node2 -->
<g id="node2" class="node">
<title>Node2</title>
<g id="a_node2"><a xlink:href="../../d9/db2/block_8hpp.html" target="_top" xlink:title=" ">
<polygon fill="none" stroke="black" points="296,-112.5 296,-131.5 360,-131.5 360,-112.5 296,-112.5"/>
<text text-anchor="middle" x="328" y="-119.5" font-family="Helvetica,sans-Serif" font-size="10.00">block.hpp</text>
</a>
</g>
</g>
<!-- Node1&#45;&gt;Node2 -->
<g id="edge1" class="edge">
<title>Node1&#45;&gt;Node2</title>
<path fill="none" stroke="midnightblue" d="M593.93,-168.44C532.04,-157.87 427.82,-140.06 369.94,-130.17"/>
<polygon fill="midnightblue" stroke="midnightblue" points="370.48,-126.71 360.03,-128.47 369.3,-133.61 370.48,-126.71"/>
</g>
<!-- Node12 -->
<g id="node12" class="node">
<title>Node12</title>
<g id="a_node12"><a xlink:href="../../df/dbe/cpu_8hpp.html" target="_top" xlink:title=" ">
<polygon fill="none" stroke="black" points="436.5,-112.5 436.5,-131.5 491.5,-131.5 491.5,-112.5 436.5,-112.5"/>
<text text-anchor="middle" x="464" y="-119.5" font-family="Helvetica,sans-Serif" font-size="10.00">cpu.hpp</text>
</a>
</g>
</g>
<!-- Node1&#45;&gt;Node12 -->
<g id="edge11" class="edge">
<title>Node1&#45;&gt;Node12</title>
<path fill="none" stroke="midnightblue" d="M615.48,-168.44C584.66,-159.2 535.43,-144.43 501.5,-134.25"/>
<polygon fill="midnightblue" stroke="midnightblue" points="502.09,-130.77 491.5,-131.25 500.08,-137.48 502.09,-130.77"/>
</g>
<!-- Node13 -->
<g id="node13" class="node">
<title>Node13</title>
<g id="a_node13"><a xlink:href="../../d4/d2d/net_8hpp.html" target="_top" xlink:title=" ">
<polygon fill="none" stroke="black" points="617.5,-112.5 617.5,-131.5 670.5,-131.5 670.5,-112.5 617.5,-112.5"/>
<text text-anchor="middle" x="644" y="-119.5" font-family="Helvetica,sans-Serif" font-size="10.00">net.hpp</text>
</a>
</g>
</g>
<!-- Node1&#45;&gt;Node13 -->
<g id="edge15" class="edge">
<title>Node1&#45;&gt;Node13</title>
<path fill="none" stroke="midnightblue" d="M644,-168.08C644,-161.01 644,-150.86 644,-141.99"/>
<polygon fill="midnightblue" stroke="midnightblue" points="647.5,-141.75 644,-131.75 640.5,-141.75 647.5,-141.75"/>
</g>
<!-- Node16 -->
<g id="node16" class="node">
<title>Node16</title>
<g id="a_node16"><a xlink:href="../../dd/db4/process_8hpp.html" target="_top" xlink:title=" ">
<polygon fill="none" stroke="black" points="688.5,-112.5 688.5,-131.5 763.5,-131.5 763.5,-112.5 688.5,-112.5"/>
<text text-anchor="middle" x="726" y="-119.5" font-family="Helvetica,sans-Serif" font-size="10.00">process.hpp</text>
</a>
</g>
</g>
<!-- Node1&#45;&gt;Node16 -->
<g id="edge24" class="edge">
<title>Node1&#45;&gt;Node16</title>
<path fill="none" stroke="midnightblue" d="M657.17,-168.32C669.85,-159.98 689.23,-147.21 704.21,-137.35"/>
<polygon fill="midnightblue" stroke="midnightblue" points="706.43,-140.08 712.86,-131.65 702.58,-134.23 706.43,-140.08"/>
</g>
<!-- Node19 -->
<g id="node19" class="node">
<title>Node19</title>
<g id="a_node19"><a xlink:href="../../db/da3/vmem_8hpp.html" target="_top" xlink:title=" ">
<polygon fill="none" stroke="black" points="781.5,-112.5 781.5,-131.5 850.5,-131.5 850.5,-112.5 781.5,-112.5"/>
<text text-anchor="middle" x="816" y="-119.5" font-family="Helvetica,sans-Serif" font-size="10.00">vmem.hpp</text>
</a>
</g>
</g>
<!-- Node1&#45;&gt;Node19 -->
<g id="edge32" class="edge">
<title>Node1&#45;&gt;Node19</title>
<path fill="none" stroke="midnightblue" d="M671.25,-168.44C700.44,-159.28 746.92,-144.69 779.31,-134.52"/>
<polygon fill="midnightblue" stroke="midnightblue" points="780.38,-137.85 788.87,-131.52 778.28,-131.17 780.38,-137.85"/>
</g>
<!-- Node3 -->
<g id="node3" class="node">
<title>Node3</title>
<g id="a_node3"><a xlink:title=" ">
<polygon fill="none" stroke="#bfbfbf" points="644,-0.5 644,-19.5 688,-19.5 688,-0.5 644,-0.5"/>
<text text-anchor="middle" x="666" y="-7.5" font-family="Helvetica,sans-Serif" font-size="10.00">string</text>
</a>
</g>
</g>
<!-- Node2&#45;&gt;Node3 -->
<g id="edge2" class="edge">
<title>Node2&#45;&gt;Node3</title>
<path fill="none" stroke="midnightblue" d="M295.86,-121.77C219.81,-122.62 39.39,-118.34 97,-56 133.56,-16.43 518.67,-11.62 633.72,-11.06"/>
<polygon fill="midnightblue" stroke="midnightblue" points="634,-14.56 643.99,-11.02 633.98,-7.56 634,-14.56"/>
</g>
<!-- Node4 -->
<g id="node4" class="node">
<title>Node4</title>
<g id="a_node4"><a xlink:title=" ">
<polygon fill="none" stroke="#bfbfbf" points="398.5,-56.5 398.5,-75.5 455.5,-75.5 455.5,-56.5 398.5,-56.5"/>
<text text-anchor="middle" x="427" y="-63.5" font-family="Helvetica,sans-Serif" font-size="10.00">ostream</text>
</a>
</g>
</g>
<!-- Node2&#45;&gt;Node4 -->
<g id="edge3" class="edge">
<title>Node2&#45;&gt;Node4</title>
<path fill="none" stroke="midnightblue" d="M343.91,-112.32C359.64,-103.74 383.94,-90.49 402.21,-80.52"/>
<polygon fill="midnightblue" stroke="midnightblue" points="404.03,-83.52 411.13,-75.65 400.68,-77.37 404.03,-83.52"/>
</g>
<!-- Node5 -->
<g id="node5" class="node">
<title>Node5</title>
<g id="a_node5"><a xlink:title=" ">
<polygon fill="none" stroke="#bfbfbf" points="800,-56.5 800,-75.5 832,-75.5 832,-56.5 800,-56.5"/>
<text text-anchor="middle" x="816" y="-63.5" font-family="Helvetica,sans-Serif" font-size="10.00">list</text>
</a>
</g>
</g>
<!-- Node2&#45;&gt;Node5 -->
<g id="edge4" class="edge">
<title>Node2&#45;&gt;Node5</title>
<path fill="none" stroke="midnightblue" d="M360.22,-117.96C431.13,-111.18 605.98,-94.01 752,-76 764.53,-74.45 778.42,-72.53 790.04,-70.85"/>
<polygon fill="midnightblue" stroke="midnightblue" points="790.58,-74.31 799.98,-69.41 789.58,-67.39 790.58,-74.31"/>
</g>
<!-- Node6 -->
<g id="node6" class="node">
<title>Node6</title>
<g id="a_node6"><a xlink:title=" ">
<polygon fill="none" stroke="#bfbfbf" points="474,-56.5 474,-75.5 512,-75.5 512,-56.5 474,-56.5"/>
<text text-anchor="middle" x="493" y="-63.5" font-family="Helvetica,sans-Serif" font-size="10.00">map</text>
</a>
</g>
</g>
<!-- Node2&#45;&gt;Node6 -->
<g id="edge5" class="edge">
<title>Node2&#45;&gt;Node6</title>
<path fill="none" stroke="midnightblue" d="M354.14,-112.44C384.03,-102.66 432.8,-86.7 463.87,-76.53"/>
<polygon fill="midnightblue" stroke="midnightblue" points="465.26,-79.76 473.68,-73.32 463.09,-73.11 465.26,-79.76"/>
</g>
<!-- Node7 -->
<g id="node7" class="node">
<title>Node7</title>
<g id="a_node7"><a xlink:title=" ">
<polygon fill="none" stroke="#bfbfbf" points="696.5,-56.5 696.5,-75.5 743.5,-75.5 743.5,-56.5 696.5,-56.5"/>
<text text-anchor="middle" x="720" y="-63.5" font-family="Helvetica,sans-Serif" font-size="10.00">vector</text>
</a>
</g>
</g>
<!-- Node2&#45;&gt;Node7 -->
<g id="edge6" class="edge">
<title>Node2&#45;&gt;Node7</title>
<path fill="none" stroke="midnightblue" d="M360.03,-117.57C432.57,-109.72 608.53,-90.15 686.42,-75.79"/>
<polygon fill="midnightblue" stroke="midnightblue" points="687.14,-79.22 696.3,-73.89 685.82,-72.35 687.14,-79.22"/>
</g>
<!-- Node8 -->
<g id="node8" class="node">
<title>Node8</title>
<g id="a_node8"><a xlink:title=" ">
<polygon fill="none" stroke="#bfbfbf" points="106,-56.5 106,-75.5 166,-75.5 166,-56.5 106,-56.5"/>
<text text-anchor="middle" x="136" y="-63.5" font-family="Helvetica,sans-Serif" font-size="10.00">iostream</text>
</a>
</g>
</g>
<!-- Node2&#45;&gt;Node8 -->
<g id="edge7" class="edge">
<title>Node2&#45;&gt;Node8</title>
<path fill="none" stroke="midnightblue" d="M297.58,-112.44C264.72,-103.2 212.22,-88.44 176.03,-78.26"/>
<polygon fill="midnightblue" stroke="midnightblue" points="176.85,-74.85 166.28,-75.52 174.96,-81.59 176.85,-74.85"/>
</g>
<!-- Node9 -->
<g id="node9" class="node">
<title>Node9</title>
<g id="a_node9"><a xlink:title=" ">
<polygon fill="none" stroke="#bfbfbf" points="184.5,-56.5 184.5,-75.5 237.5,-75.5 237.5,-56.5 184.5,-56.5"/>
<text text-anchor="middle" x="211" y="-63.5" font-family="Helvetica,sans-Serif" font-size="10.00">stdlib.h</text>
</a>
</g>
</g>
<!-- Node2&#45;&gt;Node9 -->
<g id="edge8" class="edge">
<title>Node2&#45;&gt;Node9</title>
<path fill="none" stroke="midnightblue" d="M309.46,-112.44C290.38,-103.64 260.43,-89.81 238.56,-79.72"/>
<polygon fill="midnightblue" stroke="midnightblue" points="240,-76.53 229.45,-75.52 237.07,-82.88 240,-76.53"/>
</g>
<!-- Node10 -->
<g id="node10" class="node">
<title>Node10</title>
<g id="a_node10"><a xlink:title=" ">
<polygon fill="none" stroke="#bfbfbf" points="256,-56.5 256,-75.5 342,-75.5 342,-56.5 256,-56.5"/>
<text text-anchor="middle" x="299" y="-63.5" font-family="Helvetica,sans-Serif" font-size="10.00">linux/kdev_t.h</text>
</a>
</g>
</g>
<!-- Node2&#45;&gt;Node10 -->
<g id="edge9" class="edge">
<title>Node2&#45;&gt;Node10</title>
<path fill="none" stroke="midnightblue" d="M323.21,-112.08C319.24,-104.69 313.47,-93.95 308.57,-84.81"/>
<polygon fill="midnightblue" stroke="midnightblue" points="311.51,-82.91 303.7,-75.75 305.35,-86.22 311.51,-82.91"/>
</g>
<!-- Node11 -->
<g id="node11" class="node">
<title>Node11</title>
<g id="a_node11"><a xlink:title=" ">
<polygon fill="none" stroke="#bfbfbf" points="0,-56.5 0,-75.5 50,-75.5 50,-56.5 0,-56.5"/>
<text text-anchor="middle" x="25" y="-63.5" font-family="Helvetica,sans-Serif" font-size="10.00">stdio.h</text>
</a>
</g>
</g>
<!-- Node2&#45;&gt;Node11 -->
<g id="edge10" class="edge">
<title>Node2&#45;&gt;Node11</title>
<path fill="none" stroke="midnightblue" d="M295.78,-116.13C245.94,-108.45 147.2,-92.68 64,-76 62.74,-75.75 61.45,-75.48 60.15,-75.21"/>
<polygon fill="midnightblue" stroke="midnightblue" points="60.65,-71.74 50.13,-73.02 59.15,-78.58 60.65,-71.74"/>
</g>
<!-- Node12&#45;&gt;Node3 -->
<g id="edge12" class="edge">
<title>Node12&#45;&gt;Node3</title>
<path fill="none" stroke="midnightblue" d="M440.36,-112.49C411.68,-100.91 369.46,-78.97 389,-56 420.1,-19.44 567.41,-12.5 633.63,-11.24"/>
<polygon fill="midnightblue" stroke="midnightblue" points="633.96,-14.74 643.9,-11.08 633.85,-7.74 633.96,-14.74"/>
</g>
<!-- Node12&#45;&gt;Node4 -->
<g id="edge13" class="edge">
<title>Node12&#45;&gt;Node4</title>
<path fill="none" stroke="midnightblue" d="M457.89,-112.08C452.72,-104.53 445.15,-93.49 438.81,-84.23"/>
<polygon fill="midnightblue" stroke="midnightblue" points="441.54,-82.02 433,-75.75 435.76,-85.98 441.54,-82.02"/>
</g>
<!-- Node12&#45;&gt;Node6 -->
<g id="edge14" class="edge">
<title>Node12&#45;&gt;Node6</title>
<path fill="none" stroke="midnightblue" d="M468.79,-112.08C472.76,-104.69 478.53,-93.95 483.43,-84.81"/>
<polygon fill="midnightblue" stroke="midnightblue" points="486.65,-86.22 488.3,-75.75 480.49,-82.91 486.65,-86.22"/>
</g>
<!-- Node13&#45;&gt;Node3 -->
<g id="edge18" class="edge">
<title>Node13&#45;&gt;Node3</title>
<path fill="none" stroke="midnightblue" d="M670.67,-113.58C699.5,-104.96 742.59,-90.11 752,-76 769.05,-50.43 728.83,-30.91 697.81,-20.21"/>
<polygon fill="midnightblue" stroke="midnightblue" points="698.73,-16.83 688.14,-17.05 696.56,-23.49 698.73,-16.83"/>
</g>
<!-- Node13&#45;&gt;Node4 -->
<g id="edge19" class="edge">
<title>Node13&#45;&gt;Node4</title>
<path fill="none" stroke="midnightblue" d="M617.39,-114.38C579.36,-104.91 509.23,-87.46 465.52,-76.59"/>
<polygon fill="midnightblue" stroke="midnightblue" points="466.1,-73.12 455.55,-74.1 464.41,-79.92 466.1,-73.12"/>
</g>
<!-- Node13&#45;&gt;Node5 -->
<g id="edge20" class="edge">
<title>Node13&#45;&gt;Node5</title>
<path fill="none" stroke="midnightblue" d="M670.88,-112.56C703.44,-102.34 757.94,-85.23 790.07,-75.14"/>
<polygon fill="midnightblue" stroke="midnightblue" points="791.17,-78.46 799.66,-72.13 789.07,-71.79 791.17,-78.46"/>
</g>
<!-- Node13&#45;&gt;Node6 -->
<g id="edge21" class="edge">
<title>Node13&#45;&gt;Node6</title>
<path fill="none" stroke="midnightblue" d="M620.07,-112.44C593.41,-102.91 550.31,-87.49 521.81,-77.3"/>
<polygon fill="midnightblue" stroke="midnightblue" points="522.63,-73.88 512.03,-73.81 520.27,-80.47 522.63,-73.88"/>
</g>
<!-- Node13&#45;&gt;Node7 -->
<g id="edge22" class="edge">
<title>Node13&#45;&gt;Node7</title>
<path fill="none" stroke="midnightblue" d="M656.21,-112.32C667.78,-104.11 685.38,-91.6 699.16,-81.81"/>
<polygon fill="midnightblue" stroke="midnightblue" points="701.44,-84.48 707.57,-75.83 697.39,-78.77 701.44,-84.48"/>
</g>
<!-- Node14 -->
<g id="node14" class="node">
<title>Node14</title>
<g id="a_node14"><a xlink:href="../../d3/d44/oops_8hpp.html" target="_top" xlink:title=" ">
<polygon fill="none" stroke="black" points="530.5,-56.5 530.5,-75.5 591.5,-75.5 591.5,-56.5 530.5,-56.5"/>
<text text-anchor="middle" x="561" y="-63.5" font-family="Helvetica,sans-Serif" font-size="10.00">oops.hpp</text>
</a>
</g>
</g>
<!-- Node13&#45;&gt;Node14 -->
<g id="edge16" class="edge">
<title>Node13&#45;&gt;Node14</title>
<path fill="none" stroke="midnightblue" d="M630.66,-112.32C617.84,-103.98 598.22,-91.21 583.06,-81.35"/>
<polygon fill="midnightblue" stroke="midnightblue" points="584.59,-78.17 574.3,-75.65 580.78,-84.04 584.59,-78.17"/>
</g>
<!-- Node15 -->
<g id="node15" class="node">
<title>Node15</title>
<g id="a_node15"><a xlink:title=" ">
<polygon fill="none" stroke="#bfbfbf" points="609.5,-56.5 609.5,-75.5 678.5,-75.5 678.5,-56.5 609.5,-56.5"/>
<text text-anchor="middle" x="644" y="-63.5" font-family="Helvetica,sans-Serif" font-size="10.00">arpa/inet.h</text>
</a>
</g>
</g>
<!-- Node13&#45;&gt;Node15 -->
<g id="edge23" class="edge">
<title>Node13&#45;&gt;Node15</title>
<path fill="none" stroke="midnightblue" d="M644,-112.08C644,-105.01 644,-94.86 644,-85.99"/>
<polygon fill="midnightblue" stroke="midnightblue" points="647.5,-85.75 644,-75.75 640.5,-85.75 647.5,-85.75"/>
</g>
<!-- Node14&#45;&gt;Node3 -->
<g id="edge17" class="edge">
<title>Node14&#45;&gt;Node3</title>
<path fill="none" stroke="midnightblue" d="M577.87,-56.32C594.71,-47.66 620.81,-34.24 640.24,-24.25"/>
<polygon fill="midnightblue" stroke="midnightblue" points="641.88,-27.34 649.17,-19.65 638.68,-21.12 641.88,-27.34"/>
</g>
<!-- Node16&#45;&gt;Node3 -->
<g id="edge25" class="edge">
<title>Node16&#45;&gt;Node3</title>
<path fill="none" stroke="midnightblue" d="M763.63,-113.51C766.46,-112.99 769.27,-112.48 772,-112 876.91,-93.64 1075.18,-136.11 1005,-56 984.92,-33.08 779.06,-17.98 698.28,-12.9"/>
<polygon fill="midnightblue" stroke="midnightblue" points="698.38,-9.4 688.18,-12.28 697.95,-16.39 698.38,-9.4"/>
</g>
<!-- Node16&#45;&gt;Node4 -->
<g id="edge26" class="edge">
<title>Node16&#45;&gt;Node4</title>
<path fill="none" stroke="midnightblue" d="M688.3,-113.7C685.16,-113.12 682.03,-112.54 679,-112 587.13,-95.48 561.19,-95.13 465.4,-75.96"/>
<polygon fill="midnightblue" stroke="midnightblue" points="466.08,-72.53 455.59,-73.98 464.7,-79.39 466.08,-72.53"/>
</g>
<!-- Node16&#45;&gt;Node5 -->
<g id="edge28" class="edge">
<title>Node16&#45;&gt;Node5</title>
<path fill="none" stroke="midnightblue" d="M740.46,-112.32C754.5,-103.9 776.05,-90.97 792.54,-81.07"/>
<polygon fill="midnightblue" stroke="midnightblue" points="794.8,-83.8 801.58,-75.65 791.2,-77.8 794.8,-83.8"/>
</g>
<!-- Node16&#45;&gt;Node6 -->
<g id="edge27" class="edge">
<title>Node16&#45;&gt;Node6</title>
<path fill="none" stroke="midnightblue" d="M688.33,-113.85C649.03,-106.14 585.46,-92.98 521.98,-76.07"/>
<polygon fill="midnightblue" stroke="midnightblue" points="522.77,-72.66 512.21,-73.44 520.95,-79.42 522.77,-72.66"/>
</g>
<!-- Node16&#45;&gt;Node7 -->
<g id="edge29" class="edge">
<title>Node16&#45;&gt;Node7</title>
<path fill="none" stroke="midnightblue" d="M725.01,-112.08C724.21,-104.93 723.07,-94.64 722.08,-85.69"/>
<polygon fill="midnightblue" stroke="midnightblue" points="725.56,-85.3 720.97,-75.75 718.6,-86.08 725.56,-85.3"/>
</g>
<!-- Node17 -->
<g id="node17" class="node">
<title>Node17</title>
<g id="a_node17"><a xlink:title=" ">
<polygon fill="none" stroke="#bfbfbf" points="850,-56.5 850,-75.5 906,-75.5 906,-56.5 850,-56.5"/>
<text text-anchor="middle" x="878" y="-63.5" font-family="Helvetica,sans-Serif" font-size="10.00">unistd.h</text>
</a>
</g>
</g>
<!-- Node16&#45;&gt;Node17 -->
<g id="edge30" class="edge">
<title>Node16&#45;&gt;Node17</title>
<path fill="none" stroke="midnightblue" d="M750.08,-112.44C775.54,-103.4 815.89,-89.06 844.46,-78.92"/>
<polygon fill="midnightblue" stroke="midnightblue" points="845.78,-82.16 854.03,-75.52 843.43,-75.57 845.78,-82.16"/>
</g>
<!-- Node18 -->
<g id="node18" class="node">
<title>Node18</title>
<g id="a_node18"><a xlink:title=" ">
<polygon fill="none" stroke="#bfbfbf" points="924,-56.5 924,-75.5 996,-75.5 996,-56.5 924,-56.5"/>
<text text-anchor="middle" x="960" y="-63.5" font-family="Helvetica,sans-Serif" font-size="10.00">sys/types.h</text>
</a>
</g>
</g>
<!-- Node16&#45;&gt;Node18 -->
<g id="edge31" class="edge">
<title>Node16&#45;&gt;Node18</title>
<path fill="none" stroke="midnightblue" d="M763.08,-112.44C803.97,-103.01 869.8,-87.82 913.96,-77.62"/>
<polygon fill="midnightblue" stroke="midnightblue" points="914.91,-81 923.86,-75.34 913.33,-74.18 914.91,-81"/>
</g>
<!-- Node19&#45;&gt;Node3 -->
<g id="edge33" class="edge">
<title>Node19&#45;&gt;Node3</title>
<path fill="none" stroke="midnightblue" d="M850.55,-121.16C921.65,-120.36 1073.62,-112.25 1024,-56 1002.59,-31.73 782.38,-17.32 698.35,-12.66"/>
<polygon fill="midnightblue" stroke="midnightblue" points="698.28,-9.16 688.11,-12.11 697.9,-16.15 698.28,-9.16"/>
</g>
<!-- Node19&#45;&gt;Node5 -->
<g id="edge34" class="edge">
<title>Node19&#45;&gt;Node5</title>
<path fill="none" stroke="midnightblue" d="M816,-112.08C816,-105.01 816,-94.86 816,-85.99"/>
<polygon fill="midnightblue" stroke="midnightblue" points="819.5,-85.75 816,-75.75 812.5,-85.75 819.5,-85.75"/>
</g>
</g>
</svg>
