<?xml version="1.0" encoding="UTF-8" standalone="no"?>
<!DOCTYPE svg PUBLIC "-//W3C//DTD SVG 1.1//EN"
 "http://www.w3.org/Graphics/SVG/1.1/DTD/svg11.dtd">
<!-- Generated by graphviz version 2.43.0 (0)
 -->
<!-- Title: leanux::tools::lard::SchedSnap::stopSnap Pages: 1 -->
<svg width="314pt" height="66pt"
 viewBox="0.00 0.00 314.00 66.00" xmlns="http://www.w3.org/2000/svg" xmlns:xlink="http://www.w3.org/1999/xlink">
<g id="graph0" class="graph" transform="scale(1 1) rotate(0) translate(4 62)">
<title>leanux::tools::lard::SchedSnap::stopSnap</title>
<!-- Node1 -->
<g id="node1" class="node">
<title>Node1</title>
<g id="a_node1"><a xlink:title=" ">
<polygon fill="#bfbfbf" stroke="black" points="0,-14 0,-44 127,-44 127,-14 0,-14"/>
<text text-anchor="start" x="8" y="-32" font-family="Helvetica,sans-Serif" font-size="10.00">leanux::tools::lard</text>
<text text-anchor="middle" x="63.5" y="-21" font-family="Helvetica,sans-Serif" font-size="10.00">::SchedSnap::stopSnap</text>
</a>
</g>
</g>
<!-- Node2 -->
<g id="node2" class="node">
<title>Node2</title>
<g id="a_node2"><a xlink:href="../../da/da3/namespaceleanux_1_1cpu.html#a9f50740a011befb245de0dbfbbf6e4ca" target="_top" xlink:title="Get the system load averages.">
<polygon fill="none" stroke="black" points="166.5,-38.5 166.5,-57.5 302.5,-57.5 302.5,-38.5 166.5,-38.5"/>
<text text-anchor="middle" x="234.5" y="-45.5" font-family="Helvetica,sans-Serif" font-size="10.00">leanux::cpu::getLoadAvg</text>
</a>
</g>
</g>
<!-- Node1&#45;&gt;Node2 -->
<g id="edge1" class="edge">
<title>Node1&#45;&gt;Node2</title>
<path fill="none" stroke="midnightblue" d="M127.43,-36.07C136.83,-37.13 146.62,-38.23 156.27,-39.32"/>
<polygon fill="midnightblue" stroke="midnightblue" points="155.94,-42.8 166.27,-40.44 156.72,-35.85 155.94,-42.8"/>
</g>
<!-- Node3 -->
<g id="node3" class="node">
<title>Node3</title>
<g id="a_node3"><a xlink:href="../../da/da3/namespaceleanux_1_1cpu.html#ac5901cd50a8f7e4263b2ecb9875a818d" target="_top" xlink:title="Get the number of running and blocked processes.">
<polygon fill="none" stroke="black" points="163,-0.5 163,-19.5 306,-19.5 306,-0.5 163,-0.5"/>
<text text-anchor="middle" x="234.5" y="-7.5" font-family="Helvetica,sans-Serif" font-size="10.00">leanux::cpu::getSchedInfo</text>
</a>
</g>
</g>
<!-- Node1&#45;&gt;Node3 -->
<g id="edge2" class="edge">
<title>Node1&#45;&gt;Node3</title>
<path fill="none" stroke="midnightblue" d="M127.43,-21.93C135.73,-20.99 144.32,-20.03 152.86,-19.07"/>
<polygon fill="midnightblue" stroke="midnightblue" points="153.3,-22.54 162.84,-17.94 152.51,-15.58 153.3,-22.54"/>
</g>
</g>
</svg>
