<?xml version="1.0" encoding="UTF-8" standalone="no"?>
<!DOCTYPE svg PUBLIC "-//W3C//DTD SVG 1.1//EN"
 "http://www.w3.org/Graphics/SVG/1.1/DTD/svg11.dtd">
<!-- Generated by graphviz version 2.43.0 (0)
 -->
<!-- Title: leanux::tools::lmon::XProcView Pages: 1 -->
<svg width="545pt" height="279pt"
 viewBox="0.00 0.00 545.00 279.00" xmlns="http://www.w3.org/2000/svg" xmlns:xlink="http://www.w3.org/1999/xlink">
<g id="graph0" class="graph" transform="scale(1 1) rotate(0) translate(4 275)">
<title>leanux::tools::lmon::XProcView</title>
<!-- Node1 -->
<g id="node1" class="node">
<title>Node1</title>
<g id="a_node1"><a xlink:title=" ">
<polygon fill="#bfbfbf" stroke="black" points="427,-95 427,-125 537,-125 537,-95 427,-95"/>
<text text-anchor="start" x="435" y="-113" font-family="Helvetica,sans-Serif" font-size="10.00">leanux::tools::lmon</text>
<text text-anchor="middle" x="482" y="-102" font-family="Helvetica,sans-Serif" font-size="10.00">::XProcView</text>
</a>
</g>
</g>
<!-- Node2 -->
<g id="node2" class="node">
<title>Node2</title>
<g id="a_node2"><a xlink:title=" ">
<polygon fill="none" stroke="#bfbfbf" points="183,-164.5 183,-183.5 319,-183.5 319,-164.5 183,-164.5"/>
<text text-anchor="middle" x="251" y="-171.5" font-family="Helvetica,sans-Serif" font-size="10.00">std::map&lt; pid_t, uid_t &gt;</text>
</a>
</g>
</g>
<!-- Node2&#45;&gt;Node1 -->
<g id="edge1" class="edge">
<title>Node2&#45;&gt;Node1</title>
<path fill="none" stroke="#9a32cd" stroke-dasharray="5,2" d="M309.34,-162.33C339.28,-155.77 376.38,-146.92 409,-137 420.37,-133.54 432.53,-129.23 443.57,-125.07"/>
<polygon fill="#9a32cd" stroke="#9a32cd" points="308.51,-158.92 299.48,-164.46 309.99,-165.77 308.51,-158.92"/>
<text text-anchor="middle" x="373" y="-158" font-family="Helvetica,sans-Serif" font-size="10.00"> piduids</text>
</g>
<!-- Node3 -->
<g id="node3" class="node">
<title>Node3</title>
<g id="a_node3"><a xlink:title=" ">
<polygon fill="none" stroke="#bfbfbf" points="28.5,-200.5 28.5,-219.5 69.5,-219.5 69.5,-200.5 28.5,-200.5"/>
<text text-anchor="middle" x="49" y="-207.5" font-family="Helvetica,sans-Serif" font-size="10.00">pid_t</text>
</a>
</g>
</g>
<!-- Node3&#45;&gt;Node2 -->
<g id="edge2" class="edge">
<title>Node3&#45;&gt;Node2</title>
<path fill="none" stroke="#9a32cd" stroke-dasharray="5,2" d="M79.66,-204.66C110.55,-199.1 159.59,-190.27 197.13,-183.52"/>
<polygon fill="#9a32cd" stroke="#9a32cd" points="78.76,-201.27 69.54,-206.48 80,-208.16 78.76,-201.27"/>
<text text-anchor="middle" x="140.5" y="-200" font-family="Helvetica,sans-Serif" font-size="10.00"> keys</text>
</g>
<!-- Node7 -->
<g id="node7" class="node">
<title>Node7</title>
<g id="a_node7"><a xlink:title=" ">
<polygon fill="none" stroke="#bfbfbf" points="193,-212 193,-242 309,-242 309,-212 193,-212"/>
<text text-anchor="start" x="201" y="-230" font-family="Helvetica,sans-Serif" font-size="10.00">std::map&lt; pid_t, std</text>
<text text-anchor="middle" x="251" y="-219" font-family="Helvetica,sans-Serif" font-size="10.00">::string &gt;</text>
</a>
</g>
</g>
<!-- Node3&#45;&gt;Node7 -->
<g id="edge7" class="edge">
<title>Node3&#45;&gt;Node7</title>
<path fill="none" stroke="#9a32cd" stroke-dasharray="5,2" d="M79.69,-212.52C109.42,-215.05 155.94,-219.01 192.86,-222.14"/>
<polygon fill="#9a32cd" stroke="#9a32cd" points="79.8,-209.02 69.54,-211.66 79.21,-216 79.8,-209.02"/>
<text text-anchor="middle" x="140.5" y="-222" font-family="Helvetica,sans-Serif" font-size="10.00"> keys</text>
</g>
<!-- Node4 -->
<g id="node4" class="node">
<title>Node4</title>
<g id="a_node4"><a xlink:title=" ">
<polygon fill="none" stroke="#bfbfbf" points="28.5,-149.5 28.5,-168.5 69.5,-168.5 69.5,-149.5 28.5,-149.5"/>
<text text-anchor="middle" x="49" y="-156.5" font-family="Helvetica,sans-Serif" font-size="10.00">uid_t</text>
</a>
</g>
</g>
<!-- Node4&#45;&gt;Node2 -->
<g id="edge3" class="edge">
<title>Node4&#45;&gt;Node2</title>
<path fill="none" stroke="#9a32cd" stroke-dasharray="5,2" d="M79.83,-158C103.08,-157.52 136.15,-157.51 165,-160 176.47,-160.99 188.73,-162.65 200.27,-164.49"/>
<polygon fill="#9a32cd" stroke="#9a32cd" points="79.49,-154.51 69.58,-158.25 79.66,-161.5 79.49,-154.51"/>
<text text-anchor="middle" x="140.5" y="-163" font-family="Helvetica,sans-Serif" font-size="10.00"> elements</text>
</g>
<!-- Node5 -->
<g id="node5" class="node">
<title>Node5</title>
<g id="a_node5"><a xlink:title=" ">
<polygon fill="none" stroke="#bfbfbf" points="183.5,-115 183.5,-145 318.5,-145 318.5,-115 183.5,-115"/>
<text text-anchor="start" x="191.5" y="-133" font-family="Helvetica,sans-Serif" font-size="10.00">std::vector&lt; ProcPidStat</text>
<text text-anchor="middle" x="251" y="-122" font-family="Helvetica,sans-Serif" font-size="10.00">Delta &gt;</text>
</a>
</g>
</g>
<!-- Node5&#45;&gt;Node1 -->
<g id="edge4" class="edge">
<title>Node5&#45;&gt;Node1</title>
<path fill="none" stroke="#9a32cd" stroke-dasharray="5,2" d="M328.79,-123.29C360.87,-120.49 397.4,-117.3 426.63,-114.75"/>
<polygon fill="#9a32cd" stroke="#9a32cd" points="328.2,-119.83 318.54,-124.19 328.81,-126.8 328.2,-119.83"/>
<text text-anchor="middle" x="373" y="-125" font-family="Helvetica,sans-Serif" font-size="10.00"> delta</text>
</g>
<!-- Node6 -->
<g id="node6" class="node">
<title>Node6</title>
<g id="a_node6"><a xlink:title=" ">
<polygon fill="none" stroke="#bfbfbf" points="0,-111.5 0,-130.5 98,-130.5 98,-111.5 0,-111.5"/>
<text text-anchor="middle" x="49" y="-118.5" font-family="Helvetica,sans-Serif" font-size="10.00">ProcPidStatDelta</text>
</a>
</g>
</g>
<!-- Node6&#45;&gt;Node5 -->
<g id="edge5" class="edge">
<title>Node6&#45;&gt;Node5</title>
<path fill="none" stroke="#9a32cd" stroke-dasharray="5,2" d="M108.28,-123.49C126.45,-124.28 146.56,-125.17 165,-126 170.9,-126.27 177.04,-126.55 183.18,-126.83"/>
<polygon fill="#9a32cd" stroke="#9a32cd" points="108.26,-119.99 98.12,-123.05 107.96,-126.98 108.26,-119.99"/>
<text text-anchor="middle" x="140.5" y="-129" font-family="Helvetica,sans-Serif" font-size="10.00"> elements</text>
</g>
<!-- Node7&#45;&gt;Node1 -->
<g id="edge6" class="edge">
<title>Node7&#45;&gt;Node1</title>
<path fill="none" stroke="#9a32cd" stroke-dasharray="5,2" d="M317.48,-208.84C346.55,-199.39 380.54,-186.35 409,-170 430.73,-157.52 452.37,-138.34 466.17,-125.04"/>
<polygon fill="#9a32cd" stroke="#9a32cd" points="316.3,-205.55 307.83,-211.91 318.42,-212.22 316.3,-205.55"/>
<text text-anchor="middle" x="373" y="-204" font-family="Helvetica,sans-Serif" font-size="10.00"> pidargs</text>
</g>
<!-- Node8 -->
<g id="node8" class="node">
<title>Node8</title>
<g id="a_node8"><a xlink:title="STL class.">
<polygon fill="none" stroke="#bfbfbf" points="16.5,-251.5 16.5,-270.5 81.5,-270.5 81.5,-251.5 16.5,-251.5"/>
<text text-anchor="middle" x="49" y="-258.5" font-family="Helvetica,sans-Serif" font-size="10.00">std::string</text>
</a>
</g>
</g>
<!-- Node8&#45;&gt;Node7 -->
<g id="edge8" class="edge">
<title>Node8&#45;&gt;Node7</title>
<path fill="none" stroke="#9a32cd" stroke-dasharray="5,2" d="M91.59,-253.93C120.86,-248.95 160.41,-242.23 192.67,-236.75"/>
<polygon fill="#9a32cd" stroke="#9a32cd" points="90.96,-250.49 81.69,-255.61 92.14,-257.39 90.96,-250.49"/>
<text text-anchor="middle" x="140.5" y="-252" font-family="Helvetica,sans-Serif" font-size="10.00"> elements</text>
</g>
<!-- Node10 -->
<g id="node9" class="node">
<title>Node10</title>
<g id="a_node9"><a xlink:title=" ">
<polygon fill="none" stroke="#bfbfbf" points="232,-76.5 232,-95.5 270,-95.5 270,-76.5 232,-76.5"/>
<text text-anchor="middle" x="251" y="-83.5" font-family="Helvetica,sans-Serif" font-size="10.00">bool</text>
</a>
</g>
</g>
<!-- Node10&#45;&gt;Node1 -->
<g id="edge9" class="edge">
<title>Node10&#45;&gt;Node1</title>
<path fill="none" stroke="#9a32cd" stroke-dasharray="5,2" d="M280.6,-88.84C312.08,-91.98 364.16,-97.22 409,-102 414.75,-102.61 420.76,-103.26 426.75,-103.92"/>
<polygon fill="#9a32cd" stroke="#9a32cd" points="280.67,-85.33 270.38,-87.82 279.98,-92.29 280.67,-85.33"/>
<text text-anchor="middle" x="373" y="-105" font-family="Helvetica,sans-Serif" font-size="10.00"> disabled</text>
</g>
<!-- Node11 -->
<g id="node10" class="node">
<title>Node11</title>
<g id="a_node10"><a xlink:title=" ">
<polygon fill="none" stroke="#bfbfbf" points="208.5,-38.5 208.5,-57.5 293.5,-57.5 293.5,-38.5 208.5,-38.5"/>
<text text-anchor="middle" x="251" y="-45.5" font-family="Helvetica,sans-Serif" font-size="10.00">struct timeval</text>
</a>
</g>
</g>
<!-- Node11&#45;&gt;Node1 -->
<g id="edge10" class="edge">
<title>Node11&#45;&gt;Node1</title>
<path fill="none" stroke="#9a32cd" stroke-dasharray="5,2" d="M303.85,-49.94C335,-52.32 375.05,-57.55 409,-69 427.13,-75.11 445.85,-85.94 459.66,-94.94"/>
<polygon fill="#9a32cd" stroke="#9a32cd" points="303.86,-46.43 293.64,-49.23 303.38,-53.41 303.86,-46.43"/>
<text text-anchor="middle" x="373" y="-83" font-family="Helvetica,sans-Serif" font-size="10.00"> t1</text>
<text text-anchor="middle" x="373" y="-72" font-family="Helvetica,sans-Serif" font-size="10.00">t2</text>
</g>
<!-- Node12 -->
<g id="node11" class="node">
<title>Node12</title>
<g id="a_node11"><a xlink:title=" ">
<polygon fill="none" stroke="#bfbfbf" points="232,-0.5 232,-19.5 270,-19.5 270,-0.5 232,-0.5"/>
<text text-anchor="middle" x="251" y="-7.5" font-family="Helvetica,sans-Serif" font-size="10.00">long</text>
</a>
</g>
</g>
<!-- Node12&#45;&gt;Node1 -->
<g id="edge11" class="edge">
<title>Node12&#45;&gt;Node1</title>
<path fill="none" stroke="#9a32cd" stroke-dasharray="5,2" d="M280.26,-10.29C312.99,-11.71 367.71,-17.47 409,-39 434.84,-52.47 457.44,-78.33 470.14,-94.84"/>
<polygon fill="#9a32cd" stroke="#9a32cd" points="280.16,-6.79 270.05,-9.96 279.93,-13.79 280.16,-6.79"/>
<text text-anchor="middle" x="373" y="-42" font-family="Helvetica,sans-Serif" font-size="10.00"> sample_count</text>
</g>
</g>
</svg>
