<?xml version="1.0" encoding="UTF-8" standalone="no"?>
<!DOCTYPE svg PUBLIC "-//W3C//DTD SVG 1.1//EN"
 "http://www.w3.org/Graphics/SVG/1.1/DTD/svg11.dtd">
<!-- Generated by graphviz version 2.43.0 (0)
 -->
<!-- Title: leanux::net::NetStat Pages: 1 -->
<svg width="203pt" height="273pt"
 viewBox="0.00 0.00 203.00 273.00" xmlns="http://www.w3.org/2000/svg" xmlns:xlink="http://www.w3.org/1999/xlink">
<g id="graph0" class="graph" transform="scale(1 1) rotate(0) translate(4 269)">
<title>leanux::net::NetStat</title>
<!-- Node1 -->
<g id="node1" class="node">
<title>Node1</title>
<g id="a_node1"><a xlink:title="Network device statistics as in /proc/net/dev.">
<polygon fill="#bfbfbf" stroke="black" points="30,-0.5 30,-19.5 144,-19.5 144,-0.5 30,-0.5"/>
<text text-anchor="middle" x="87" y="-7.5" font-family="Helvetica,sans-Serif" font-size="10.00">leanux::net::NetStat</text>
</a>
</g>
</g>
<!-- Node2 -->
<g id="node2" class="node">
<title>Node2</title>
<g id="a_node2"><a xlink:title="STL class.">
<polygon fill="none" stroke="#bfbfbf" points="19.5,-177.5 19.5,-196.5 84.5,-196.5 84.5,-177.5 19.5,-177.5"/>
<text text-anchor="middle" x="52" y="-184.5" font-family="Helvetica,sans-Serif" font-size="10.00">std::string</text>
</a>
</g>
</g>
<!-- Node2&#45;&gt;Node1 -->
<g id="edge1" class="edge">
<title>Node2&#45;&gt;Node1</title>
<path fill="none" stroke="#9a32cd" stroke-dasharray="5,2" d="M49.95,-167.27C47.55,-138.32 45.95,-81.51 64,-38 66.93,-30.95 72.41,-24.39 77.29,-19.51"/>
<polygon fill="#9a32cd" stroke="#9a32cd" points="46.47,-167.61 50.9,-177.23 53.44,-166.94 46.47,-167.61"/>
<text text-anchor="middle" x="82" y="-96" font-family="Helvetica,sans-Serif" font-size="10.00"> device</text>
</g>
<!-- Node3 -->
<g id="node3" class="node">
<title>Node3</title>
<g id="a_node3"><a xlink:title="STL class.">
<polygon fill="none" stroke="#bfbfbf" points="0,-234.5 0,-264.5 104,-264.5 104,-234.5 0,-234.5"/>
<text text-anchor="start" x="8" y="-252.5" font-family="Helvetica,sans-Serif" font-size="10.00">std::basic_string&lt;</text>
<text text-anchor="middle" x="52" y="-241.5" font-family="Helvetica,sans-Serif" font-size="10.00"> char &gt;</text>
</a>
</g>
</g>
<!-- Node3&#45;&gt;Node2 -->
<g id="edge2" class="edge">
<title>Node3&#45;&gt;Node2</title>
<path fill="none" stroke="midnightblue" d="M52,-224.35C52,-214.51 52,-203.78 52,-196.54"/>
<polygon fill="midnightblue" stroke="midnightblue" points="48.5,-224.47 52,-234.47 55.5,-224.47 48.5,-224.47"/>
</g>
<!-- Node4 -->
<g id="node4" class="node">
<title>Node4</title>
<g id="a_node4"><a xlink:title=" ">
<polygon fill="none" stroke="#bfbfbf" points="103,-177.5 103,-196.5 141,-196.5 141,-177.5 103,-177.5"/>
<text text-anchor="middle" x="122" y="-184.5" font-family="Helvetica,sans-Serif" font-size="10.00">long</text>
</a>
</g>
</g>
<!-- Node4&#45;&gt;Node1 -->
<g id="edge3" class="edge">
<title>Node4&#45;&gt;Node1</title>
<path fill="none" stroke="#9a32cd" stroke-dasharray="5,2" d="M121.03,-167.35C119.14,-138.89 113.88,-83.18 100,-38 98.04,-31.63 94.79,-24.88 92.03,-19.73"/>
<polygon fill="#9a32cd" stroke="#9a32cd" points="117.54,-167.68 121.63,-177.46 124.53,-167.27 117.54,-167.68"/>
<text text-anchor="middle" x="157.5" y="-151" font-family="Helvetica,sans-Serif" font-size="10.00"> rx_dropped</text>
<text text-anchor="middle" x="157.5" y="-140" font-family="Helvetica,sans-Serif" font-size="10.00">tx_carrier</text>
<text text-anchor="middle" x="157.5" y="-129" font-family="Helvetica,sans-Serif" font-size="10.00">tx_collisions</text>
<text text-anchor="middle" x="157.5" y="-118" font-family="Helvetica,sans-Serif" font-size="10.00">tx_dropped</text>
<text text-anchor="middle" x="157.5" y="-107" font-family="Helvetica,sans-Serif" font-size="10.00">rx_fifo</text>
<text text-anchor="middle" x="157.5" y="-96" font-family="Helvetica,sans-Serif" font-size="10.00">tx_compressed</text>
<text text-anchor="middle" x="157.5" y="-85" font-family="Helvetica,sans-Serif" font-size="10.00">tx_fifo</text>
<text text-anchor="middle" x="157.5" y="-74" font-family="Helvetica,sans-Serif" font-size="10.00">rx_frame</text>
<text text-anchor="middle" x="157.5" y="-63" font-family="Helvetica,sans-Serif" font-size="10.00">tx_bytes</text>
<text text-anchor="middle" x="157.5" y="-52" font-family="Helvetica,sans-Serif" font-size="10.00">rx_compressed</text>
<text text-anchor="middle" x="157.5" y="-41" font-family="Helvetica,sans-Serif" font-size="10.00">...</text>
</g>
</g>
</svg>
