<?xml version="1.0" encoding="UTF-8" standalone="no"?>
<!DOCTYPE svg PUBLIC "-//W3C//DTD SVG 1.1//EN"
 "http://www.w3.org/Graphics/SVG/1.1/DTD/svg11.dtd">
<!-- Generated by graphviz version 2.43.0 (0)
 -->
<!-- Title: leanux::tools::lmon::Footer::Message Pages: 1 -->
<svg width="306pt" height="185pt"
 viewBox="0.00 0.00 306.00 185.00" xmlns="http://www.w3.org/2000/svg" xmlns:xlink="http://www.w3.org/1999/xlink">
<g id="graph0" class="graph" transform="scale(1 1) rotate(0) translate(4 181)">
<title>leanux::tools::lmon::Footer::Message</title>
<!-- Node1 -->
<g id="node1" class="node">
<title>Node1</title>
<g id="a_node1"><a xlink:title="The Footer can rotate&#45;display messages, if they exist.">
<polygon fill="#bfbfbf" stroke="black" points="75,-0.5 75,-30.5 185,-30.5 185,-0.5 75,-0.5"/>
<text text-anchor="start" x="83" y="-18.5" font-family="Helvetica,sans-Serif" font-size="10.00">leanux::tools::lmon</text>
<text text-anchor="middle" x="130" y="-7.5" font-family="Helvetica,sans-Serif" font-size="10.00">::Footer::Message</text>
</a>
</g>
</g>
<!-- Node2 -->
<g id="node2" class="node">
<title>Node2</title>
<g id="a_node2"><a xlink:title=" ">
<polygon fill="none" stroke="#bfbfbf" points="0,-89.5 0,-108.5 48,-108.5 48,-89.5 0,-89.5"/>
<text text-anchor="middle" x="24" y="-96.5" font-family="Helvetica,sans-Serif" font-size="10.00">time_t</text>
</a>
</g>
</g>
<!-- Node2&#45;&gt;Node1 -->
<g id="edge1" class="edge">
<title>Node2&#45;&gt;Node1</title>
<path fill="none" stroke="#9a32cd" stroke-dasharray="5,2" d="M26.95,-79.25C29.42,-69.14 33.91,-57.1 42,-49 50.97,-40.01 62.65,-33.48 74.55,-28.75"/>
<polygon fill="#9a32cd" stroke="#9a32cd" points="23.49,-78.71 24.99,-89.2 30.36,-80.07 23.49,-78.71"/>
<text text-anchor="middle" x="70" y="-57.5" font-family="Helvetica,sans-Serif" font-size="10.00"> first_seen_</text>
</g>
<!-- Node3 -->
<g id="node3" class="node">
<title>Node3</title>
<g id="a_node3"><a xlink:title=" ">
<polygon fill="none" stroke="#bfbfbf" points="86.5,-89.5 86.5,-108.5 115.5,-108.5 115.5,-89.5 86.5,-89.5"/>
<text text-anchor="middle" x="101" y="-96.5" font-family="Helvetica,sans-Serif" font-size="10.00">int</text>
</a>
</g>
</g>
<!-- Node3&#45;&gt;Node1 -->
<g id="edge2" class="edge">
<title>Node3&#45;&gt;Node1</title>
<path fill="none" stroke="#9a32cd" stroke-dasharray="5,2" d="M101.69,-79.22C102.53,-69.88 104.3,-58.57 108,-49 110.5,-42.52 114.5,-36.04 118.41,-30.59"/>
<polygon fill="#9a32cd" stroke="#9a32cd" points="98.19,-79.19 101.07,-89.38 105.18,-79.62 98.19,-79.19"/>
<text text-anchor="middle" x="122" y="-63" font-family="Helvetica,sans-Serif" font-size="10.00"> prio_</text>
<text text-anchor="middle" x="122" y="-52" font-family="Helvetica,sans-Serif" font-size="10.00">key_</text>
</g>
<!-- Node4 -->
<g id="node4" class="node">
<title>Node4</title>
<g id="a_node4"><a xlink:title="STL class.">
<polygon fill="none" stroke="#bfbfbf" points="133.5,-89.5 133.5,-108.5 198.5,-108.5 198.5,-89.5 133.5,-89.5"/>
<text text-anchor="middle" x="166" y="-96.5" font-family="Helvetica,sans-Serif" font-size="10.00">std::string</text>
</a>
</g>
</g>
<!-- Node4&#45;&gt;Node1 -->
<g id="edge3" class="edge">
<title>Node4&#45;&gt;Node1</title>
<path fill="none" stroke="#9a32cd" stroke-dasharray="5,2" d="M158.09,-80.09C151.52,-65.21 142.29,-44.31 136.23,-30.6"/>
<polygon fill="#9a32cd" stroke="#9a32cd" points="154.91,-81.54 162.15,-89.28 161.31,-78.72 154.91,-81.54"/>
<text text-anchor="middle" x="179.5" y="-57.5" font-family="Helvetica,sans-Serif" font-size="10.00"> message_</text>
</g>
<!-- Node5 -->
<g id="node5" class="node">
<title>Node5</title>
<g id="a_node5"><a xlink:title="STL class.">
<polygon fill="none" stroke="#bfbfbf" points="114,-146.5 114,-176.5 218,-176.5 218,-146.5 114,-146.5"/>
<text text-anchor="start" x="122" y="-164.5" font-family="Helvetica,sans-Serif" font-size="10.00">std::basic_string&lt;</text>
<text text-anchor="middle" x="166" y="-153.5" font-family="Helvetica,sans-Serif" font-size="10.00"> char &gt;</text>
</a>
</g>
</g>
<!-- Node5&#45;&gt;Node4 -->
<g id="edge4" class="edge">
<title>Node5&#45;&gt;Node4</title>
<path fill="none" stroke="midnightblue" d="M166,-136.35C166,-126.51 166,-115.78 166,-108.54"/>
<polygon fill="midnightblue" stroke="midnightblue" points="162.5,-136.47 166,-146.47 169.5,-136.47 162.5,-136.47"/>
</g>
<!-- Node6 -->
<g id="node6" class="node">
<title>Node6</title>
<g id="a_node6"><a xlink:title=" ">
<polygon fill="none" stroke="#bfbfbf" points="217,-89.5 217,-108.5 255,-108.5 255,-89.5 217,-89.5"/>
<text text-anchor="middle" x="236" y="-96.5" font-family="Helvetica,sans-Serif" font-size="10.00">long</text>
</a>
</g>
</g>
<!-- Node6&#45;&gt;Node1 -->
<g id="edge5" class="edge">
<title>Node6&#45;&gt;Node1</title>
<path fill="none" stroke="#9a32cd" stroke-dasharray="5,2" d="M229.83,-79.61C225.61,-69.45 219.12,-57.24 210,-49 201.43,-41.26 190.78,-35.24 180.07,-30.6"/>
<polygon fill="#9a32cd" stroke="#9a32cd" points="226.64,-81.07 233.41,-89.22 233.2,-78.63 226.64,-81.07"/>
<text text-anchor="middle" x="261.5" y="-63" font-family="Helvetica,sans-Serif" font-size="10.00"> repeat_</text>
<text text-anchor="middle" x="261.5" y="-52" font-family="Helvetica,sans-Serif" font-size="10.00">display_count_</text>
</g>
</g>
</svg>
