<?xml version="1.0" encoding="UTF-8" standalone="no"?>
<!DOCTYPE svg PUBLIC "-//W3C//DTD SVG 1.1//EN"
 "http://www.w3.org/Graphics/SVG/1.1/DTD/svg11.dtd">
<!-- Generated by graphviz version 2.43.0 (0)
 -->
<!-- Title: tools/labbix/labbix.cpp Pages: 1 -->
<svg width="1013pt" height="196pt"
 viewBox="0.00 0.00 1012.50 196.00" xmlns="http://www.w3.org/2000/svg" xmlns:xlink="http://www.w3.org/1999/xlink">
<g id="graph0" class="graph" transform="scale(1 1) rotate(0) translate(4 192)">
<title>tools/labbix/labbix.cpp</title>
<!-- Node1 -->
<g id="node1" class="node">
<title>Node1</title>
<g id="a_node1"><a xlink:title=" ">
<polygon fill="#bfbfbf" stroke="black" points="166.5,-168.5 166.5,-187.5 293.5,-187.5 293.5,-168.5 166.5,-168.5"/>
<text text-anchor="middle" x="230" y="-175.5" font-family="Helvetica,sans-Serif" font-size="10.00">tools/labbix/labbix.cpp</text>
</a>
</g>
</g>
<!-- Node2 -->
<g id="node2" class="node">
<title>Node2</title>
<g id="a_node2"><a xlink:title=" ">
<polygon fill="none" stroke="#bfbfbf" points="0,-112.5 0,-131.5 64,-131.5 64,-112.5 0,-112.5"/>
<text text-anchor="middle" x="32" y="-119.5" font-family="Helvetica,sans-Serif" font-size="10.00">algorithm</text>
</a>
</g>
</g>
<!-- Node1&#45;&gt;Node2 -->
<g id="edge1" class="edge">
<title>Node1&#45;&gt;Node2</title>
<path fill="none" stroke="midnightblue" d="M198.63,-168.44C164.74,-159.2 110.6,-144.44 73.28,-134.26"/>
<polygon fill="midnightblue" stroke="midnightblue" points="73.8,-130.77 63.23,-131.52 71.95,-137.52 73.8,-130.77"/>
</g>
<!-- Node3 -->
<g id="node3" class="node">
<title>Node3</title>
<g id="a_node3"><a xlink:title=" ">
<polygon fill="none" stroke="#bfbfbf" points="464,-0.5 464,-19.5 508,-19.5 508,-0.5 464,-0.5"/>
<text text-anchor="middle" x="486" y="-7.5" font-family="Helvetica,sans-Serif" font-size="10.00">string</text>
</a>
</g>
</g>
<!-- Node1&#45;&gt;Node3 -->
<g id="edge2" class="edge">
<title>Node1&#45;&gt;Node3</title>
<path fill="none" stroke="midnightblue" d="M168.4,-168.42C146.57,-162.08 124.18,-151.08 111,-132 98.2,-113.48 108.89,-70.27 125,-56 173.2,-13.3 373.65,-10.07 453.23,-10.53"/>
<polygon fill="midnightblue" stroke="midnightblue" points="453.6,-14.03 463.63,-10.61 453.66,-7.03 453.6,-14.03"/>
</g>
<!-- Node4 -->
<g id="node4" class="node">
<title>Node4</title>
<g id="a_node4"><a xlink:title=" ">
<polygon fill="none" stroke="#bfbfbf" points="120.5,-112.5 120.5,-131.5 173.5,-131.5 173.5,-112.5 120.5,-112.5"/>
<text text-anchor="middle" x="147" y="-119.5" font-family="Helvetica,sans-Serif" font-size="10.00">string.h</text>
</a>
</g>
</g>
<!-- Node1&#45;&gt;Node4 -->
<g id="edge3" class="edge">
<title>Node1&#45;&gt;Node4</title>
<path fill="none" stroke="midnightblue" d="M216.66,-168.32C203.84,-159.98 184.22,-147.21 169.06,-137.35"/>
<polygon fill="midnightblue" stroke="midnightblue" points="170.59,-134.17 160.3,-131.65 166.78,-140.04 170.59,-134.17"/>
</g>
<!-- Node5 -->
<g id="node5" class="node">
<title>Node5</title>
<g id="a_node5"><a xlink:title=" ">
<polygon fill="none" stroke="#bfbfbf" points="134,-56.5 134,-75.5 194,-75.5 194,-56.5 134,-56.5"/>
<text text-anchor="middle" x="164" y="-63.5" font-family="Helvetica,sans-Serif" font-size="10.00">iostream</text>
</a>
</g>
</g>
<!-- Node1&#45;&gt;Node5 -->
<g id="edge4" class="edge">
<title>Node1&#45;&gt;Node5</title>
<path fill="none" stroke="midnightblue" d="M224.82,-168.37C213.98,-150.3 188.71,-108.18 174.38,-84.31"/>
<polygon fill="midnightblue" stroke="midnightblue" points="177.3,-82.37 169.15,-75.59 171.3,-85.97 177.3,-82.37"/>
</g>
<!-- Node6 -->
<g id="node6" class="node">
<title>Node6</title>
<g id="a_node6"><a xlink:title=" ">
<polygon fill="none" stroke="#bfbfbf" points="230,-112.5 230,-131.5 286,-131.5 286,-112.5 230,-112.5"/>
<text text-anchor="middle" x="258" y="-119.5" font-family="Helvetica,sans-Serif" font-size="10.00">sstream</text>
</a>
</g>
</g>
<!-- Node1&#45;&gt;Node6 -->
<g id="edge5" class="edge">
<title>Node1&#45;&gt;Node6</title>
<path fill="none" stroke="midnightblue" d="M234.62,-168.08C238.46,-160.69 244.02,-149.95 248.76,-140.81"/>
<polygon fill="midnightblue" stroke="midnightblue" points="251.97,-142.24 253.46,-131.75 245.75,-139.02 251.97,-142.24"/>
</g>
<!-- Node7 -->
<g id="node7" class="node">
<title>Node7</title>
<g id="a_node7"><a xlink:title=" ">
<polygon fill="none" stroke="#bfbfbf" points="304,-112.5 304,-131.5 360,-131.5 360,-112.5 304,-112.5"/>
<text text-anchor="middle" x="332" y="-119.5" font-family="Helvetica,sans-Serif" font-size="10.00">iomanip</text>
</a>
</g>
</g>
<!-- Node1&#45;&gt;Node7 -->
<g id="edge6" class="edge">
<title>Node1&#45;&gt;Node7</title>
<path fill="none" stroke="midnightblue" d="M246.39,-168.32C262.67,-159.7 287.87,-146.36 306.72,-136.39"/>
<polygon fill="midnightblue" stroke="midnightblue" points="308.45,-139.43 315.65,-131.65 305.18,-133.24 308.45,-139.43"/>
</g>
<!-- Node8 -->
<g id="node8" class="node">
<title>Node8</title>
<g id="a_node8"><a xlink:href="../../d9/db2/block_8hpp.html" target="_top" xlink:title=" ">
<polygon fill="none" stroke="black" points="378,-112.5 378,-131.5 442,-131.5 442,-112.5 378,-112.5"/>
<text text-anchor="middle" x="410" y="-119.5" font-family="Helvetica,sans-Serif" font-size="10.00">block.hpp</text>
</a>
</g>
</g>
<!-- Node1&#45;&gt;Node8 -->
<g id="edge7" class="edge">
<title>Node1&#45;&gt;Node8</title>
<path fill="none" stroke="midnightblue" d="M258.52,-168.44C289.07,-159.28 337.71,-144.69 371.6,-134.52"/>
<polygon fill="midnightblue" stroke="midnightblue" points="373.04,-137.74 381.61,-131.52 371.03,-131.04 373.04,-137.74"/>
</g>
<!-- Node16 -->
<g id="node16" class="node">
<title>Node16</title>
<g id="a_node16"><a xlink:href="../../dd/d90/system_8hpp.html" target="_top" xlink:title=" ">
<polygon fill="none" stroke="black" points="770,-112.5 770,-131.5 844,-131.5 844,-112.5 770,-112.5"/>
<text text-anchor="middle" x="807" y="-119.5" font-family="Helvetica,sans-Serif" font-size="10.00">system.hpp</text>
</a>
</g>
</g>
<!-- Node1&#45;&gt;Node16 -->
<g id="edge17" class="edge">
<title>Node1&#45;&gt;Node16</title>
<path fill="none" stroke="midnightblue" d="M293.68,-171.04C410.42,-160.12 656.2,-137.11 759.59,-127.44"/>
<polygon fill="midnightblue" stroke="midnightblue" points="760.09,-130.91 769.72,-126.49 759.44,-123.94 760.09,-130.91"/>
</g>
<!-- Node8&#45;&gt;Node3 -->
<g id="edge8" class="edge">
<title>Node8&#45;&gt;Node3</title>
<path fill="none" stroke="midnightblue" d="M377.64,-113.45C329.77,-102.14 245.23,-81.51 241,-76 235.58,-68.95 235.31,-62.83 241,-56 267.7,-23.95 393.29,-14.65 453.57,-12.01"/>
<polygon fill="midnightblue" stroke="midnightblue" points="453.83,-15.5 463.68,-11.61 453.55,-8.51 453.83,-15.5"/>
</g>
<!-- Node8&#45;&gt;Node5 -->
<g id="edge13" class="edge">
<title>Node8&#45;&gt;Node5</title>
<path fill="none" stroke="midnightblue" d="M377.84,-113.94C333.22,-104.15 252.55,-86.44 204.07,-75.8"/>
<polygon fill="midnightblue" stroke="midnightblue" points="204.76,-72.36 194.24,-73.64 203.25,-79.2 204.76,-72.36"/>
</g>
<!-- Node9 -->
<g id="node9" class="node">
<title>Node9</title>
<g id="a_node9"><a xlink:title=" ">
<polygon fill="none" stroke="#bfbfbf" points="250.5,-56.5 250.5,-75.5 307.5,-75.5 307.5,-56.5 250.5,-56.5"/>
<text text-anchor="middle" x="279" y="-63.5" font-family="Helvetica,sans-Serif" font-size="10.00">ostream</text>
</a>
</g>
</g>
<!-- Node8&#45;&gt;Node9 -->
<g id="edge9" class="edge">
<title>Node8&#45;&gt;Node9</title>
<path fill="none" stroke="midnightblue" d="M389.24,-112.44C367.68,-103.56 333.74,-89.56 309.21,-79.45"/>
<polygon fill="midnightblue" stroke="midnightblue" points="310.24,-76.09 299.66,-75.52 307.57,-82.56 310.24,-76.09"/>
</g>
<!-- Node10 -->
<g id="node10" class="node">
<title>Node10</title>
<g id="a_node10"><a xlink:title=" ">
<polygon fill="none" stroke="#bfbfbf" points="326,-56.5 326,-75.5 358,-75.5 358,-56.5 326,-56.5"/>
<text text-anchor="middle" x="342" y="-63.5" font-family="Helvetica,sans-Serif" font-size="10.00">list</text>
</a>
</g>
</g>
<!-- Node8&#45;&gt;Node10 -->
<g id="edge10" class="edge">
<title>Node8&#45;&gt;Node10</title>
<path fill="none" stroke="midnightblue" d="M399.07,-112.32C388.83,-104.18 373.28,-91.84 361,-82.09"/>
<polygon fill="midnightblue" stroke="midnightblue" points="363.13,-79.31 353.12,-75.83 358.78,-84.79 363.13,-79.31"/>
</g>
<!-- Node11 -->
<g id="node11" class="node">
<title>Node11</title>
<g id="a_node11"><a xlink:title=" ">
<polygon fill="none" stroke="#bfbfbf" points="376,-56.5 376,-75.5 414,-75.5 414,-56.5 376,-56.5"/>
<text text-anchor="middle" x="395" y="-63.5" font-family="Helvetica,sans-Serif" font-size="10.00">map</text>
</a>
</g>
</g>
<!-- Node8&#45;&gt;Node11 -->
<g id="edge11" class="edge">
<title>Node8&#45;&gt;Node11</title>
<path fill="none" stroke="midnightblue" d="M407.52,-112.08C405.51,-104.85 402.61,-94.41 400.11,-85.4"/>
<polygon fill="midnightblue" stroke="midnightblue" points="403.48,-84.45 397.43,-75.75 396.74,-86.32 403.48,-84.45"/>
</g>
<!-- Node12 -->
<g id="node12" class="node">
<title>Node12</title>
<g id="a_node12"><a xlink:title=" ">
<polygon fill="none" stroke="#bfbfbf" points="432.5,-56.5 432.5,-75.5 479.5,-75.5 479.5,-56.5 432.5,-56.5"/>
<text text-anchor="middle" x="456" y="-63.5" font-family="Helvetica,sans-Serif" font-size="10.00">vector</text>
</a>
</g>
</g>
<!-- Node8&#45;&gt;Node12 -->
<g id="edge12" class="edge">
<title>Node8&#45;&gt;Node12</title>
<path fill="none" stroke="midnightblue" d="M417.6,-112.08C424.23,-104.3 434.02,-92.8 442.06,-83.37"/>
<polygon fill="midnightblue" stroke="midnightblue" points="444.73,-85.63 448.55,-75.75 439.4,-81.09 444.73,-85.63"/>
</g>
<!-- Node13 -->
<g id="node13" class="node">
<title>Node13</title>
<g id="a_node13"><a xlink:title=" ">
<polygon fill="none" stroke="#bfbfbf" points="497.5,-56.5 497.5,-75.5 550.5,-75.5 550.5,-56.5 497.5,-56.5"/>
<text text-anchor="middle" x="524" y="-63.5" font-family="Helvetica,sans-Serif" font-size="10.00">stdlib.h</text>
</a>
</g>
</g>
<!-- Node8&#45;&gt;Node13 -->
<g id="edge14" class="edge">
<title>Node8&#45;&gt;Node13</title>
<path fill="none" stroke="midnightblue" d="M428.06,-112.44C446.57,-103.68 475.58,-89.94 496.86,-79.86"/>
<polygon fill="midnightblue" stroke="midnightblue" points="498.48,-82.96 506.02,-75.52 495.49,-76.63 498.48,-82.96"/>
</g>
<!-- Node14 -->
<g id="node14" class="node">
<title>Node14</title>
<g id="a_node14"><a xlink:title=" ">
<polygon fill="none" stroke="#bfbfbf" points="569,-56.5 569,-75.5 655,-75.5 655,-56.5 569,-56.5"/>
<text text-anchor="middle" x="612" y="-63.5" font-family="Helvetica,sans-Serif" font-size="10.00">linux/kdev_t.h</text>
</a>
</g>
</g>
<!-- Node8&#45;&gt;Node14 -->
<g id="edge15" class="edge">
<title>Node8&#45;&gt;Node14</title>
<path fill="none" stroke="midnightblue" d="M442.01,-112.44C476.73,-103.16 532.29,-88.31 570.38,-78.13"/>
<polygon fill="midnightblue" stroke="midnightblue" points="571.39,-81.48 580.14,-75.52 569.58,-74.72 571.39,-81.48"/>
</g>
<!-- Node15 -->
<g id="node15" class="node">
<title>Node15</title>
<g id="a_node15"><a xlink:title=" ">
<polygon fill="none" stroke="#bfbfbf" points="673,-56.5 673,-75.5 723,-75.5 723,-56.5 673,-56.5"/>
<text text-anchor="middle" x="698" y="-63.5" font-family="Helvetica,sans-Serif" font-size="10.00">stdio.h</text>
</a>
</g>
</g>
<!-- Node8&#45;&gt;Node15 -->
<g id="edge16" class="edge">
<title>Node8&#45;&gt;Node15</title>
<path fill="none" stroke="midnightblue" d="M442.25,-116.17C488.85,-109 577.92,-94.58 662.99,-76.08"/>
<polygon fill="midnightblue" stroke="midnightblue" points="663.79,-79.48 672.81,-73.92 662.29,-72.65 663.79,-79.48"/>
</g>
<!-- Node16&#45;&gt;Node3 -->
<g id="edge18" class="edge">
<title>Node16&#45;&gt;Node3</title>
<path fill="none" stroke="midnightblue" d="M799.72,-112.19C787.39,-97.9 760.89,-69.87 732,-56 661.04,-21.94 567.22,-13.55 518.5,-11.56"/>
<polygon fill="midnightblue" stroke="midnightblue" points="518.36,-8.05 508.24,-11.21 518.12,-15.05 518.36,-8.05"/>
</g>
<!-- Node17 -->
<g id="node17" class="node">
<title>Node17</title>
<g id="a_node17"><a xlink:title=" ">
<polygon fill="none" stroke="#bfbfbf" points="779,-56.5 779,-75.5 835,-75.5 835,-56.5 779,-56.5"/>
<text text-anchor="middle" x="807" y="-63.5" font-family="Helvetica,sans-Serif" font-size="10.00">unistd.h</text>
</a>
</g>
</g>
<!-- Node16&#45;&gt;Node17 -->
<g id="edge19" class="edge">
<title>Node16&#45;&gt;Node17</title>
<path fill="none" stroke="midnightblue" d="M807,-112.08C807,-105.01 807,-94.86 807,-85.99"/>
<polygon fill="midnightblue" stroke="midnightblue" points="810.5,-85.75 807,-75.75 803.5,-85.75 810.5,-85.75"/>
</g>
<!-- Node18 -->
<g id="node18" class="node">
<title>Node18</title>
<g id="a_node18"><a xlink:title=" ">
<polygon fill="none" stroke="#bfbfbf" points="853,-56.5 853,-75.5 925,-75.5 925,-56.5 853,-56.5"/>
<text text-anchor="middle" x="889" y="-63.5" font-family="Helvetica,sans-Serif" font-size="10.00">sys/types.h</text>
</a>
</g>
</g>
<!-- Node16&#45;&gt;Node18 -->
<g id="edge20" class="edge">
<title>Node16&#45;&gt;Node18</title>
<path fill="none" stroke="midnightblue" d="M820.17,-112.32C832.85,-103.98 852.23,-91.21 867.21,-81.35"/>
<polygon fill="midnightblue" stroke="midnightblue" points="869.43,-84.08 875.86,-75.65 865.58,-78.23 869.43,-84.08"/>
</g>
<!-- Node19 -->
<g id="node19" class="node">
<title>Node19</title>
<g id="a_node19"><a xlink:href="../../d3/d44/oops_8hpp.html" target="_top" xlink:title=" ">
<polygon fill="none" stroke="black" points="943.5,-56.5 943.5,-75.5 1004.5,-75.5 1004.5,-56.5 943.5,-56.5"/>
<text text-anchor="middle" x="974" y="-63.5" font-family="Helvetica,sans-Serif" font-size="10.00">oops.hpp</text>
</a>
</g>
</g>
<!-- Node16&#45;&gt;Node19 -->
<g id="edge21" class="edge">
<title>Node16&#45;&gt;Node19</title>
<path fill="none" stroke="midnightblue" d="M833.46,-112.44C861.68,-103.32 906.54,-88.81 937.97,-78.65"/>
<polygon fill="midnightblue" stroke="midnightblue" points="939.22,-81.92 947.66,-75.52 937.07,-75.26 939.22,-81.92"/>
</g>
<!-- Node19&#45;&gt;Node3 -->
<g id="edge22" class="edge">
<title>Node19&#45;&gt;Node3</title>
<path fill="none" stroke="midnightblue" d="M943.5,-57.74C940.3,-57.1 937.09,-56.5 934,-56 779.19,-30.9 591.86,-17.5 518.08,-12.88"/>
<polygon fill="midnightblue" stroke="midnightblue" points="518.23,-9.39 508.03,-12.26 517.8,-16.37 518.23,-9.39"/>
</g>
</g>
</svg>
