<?xml version="1.0" encoding="UTF-8" standalone="no"?>
<!DOCTYPE svg PUBLIC "-//W3C//DTD SVG 1.1//EN"
 "http://www.w3.org/Graphics/SVG/1.1/DTD/svg11.dtd">
<!-- Generated by graphviz version 2.43.0 (0)
 -->
<!-- Title: leanux::sysdevice::SysDevice Pages: 1 -->
<svg width="207pt" height="185pt"
 viewBox="0.00 0.00 207.00 185.00" xmlns="http://www.w3.org/2000/svg" xmlns:xlink="http://www.w3.org/1999/xlink">
<g id="graph0" class="graph" transform="scale(1 1) rotate(0) translate(4 181)">
<title>leanux::sysdevice::SysDevice</title>
<!-- Node1 -->
<g id="node1" class="node">
<title>Node1</title>
<g id="a_node1"><a xlink:title="Generic SysDevice, utility class for device detection from a SysDevicePath.">
<polygon fill="#bfbfbf" stroke="black" points="41,-0.5 41,-30.5 151,-30.5 151,-0.5 41,-0.5"/>
<text text-anchor="start" x="49" y="-18.5" font-family="Helvetica,sans-Serif" font-size="10.00">leanux::sysdevice::</text>
<text text-anchor="middle" x="96" y="-7.5" font-family="Helvetica,sans-Serif" font-size="10.00">SysDevice</text>
</a>
</g>
</g>
<!-- Node2 -->
<g id="node2" class="node">
<title>Node2</title>
<g id="a_node2"><a xlink:title=" ">
<polygon fill="none" stroke="#bfbfbf" points="0,-89.5 0,-108.5 90,-108.5 90,-89.5 0,-89.5"/>
<text text-anchor="middle" x="45" y="-96.5" font-family="Helvetica,sans-Serif" font-size="10.00">SysDeviceType</text>
</a>
</g>
</g>
<!-- Node2&#45;&gt;Node1 -->
<g id="edge1" class="edge">
<title>Node2&#45;&gt;Node1</title>
<path fill="none" stroke="#9a32cd" stroke-dasharray="5,2" d="M41.39,-79.28C40.49,-69.66 40.95,-58.09 46,-49 50.23,-41.4 57.06,-35.29 64.34,-30.51"/>
<polygon fill="#9a32cd" stroke="#9a32cd" points="37.96,-80.02 42.88,-89.41 44.89,-79 37.96,-80.02"/>
<text text-anchor="middle" x="85.5" y="-57.5" font-family="Helvetica,sans-Serif" font-size="10.00"> sysdevicetype_</text>
</g>
<!-- Node3 -->
<g id="node3" class="node">
<title>Node3</title>
<g id="a_node3"><a xlink:title="STL class.">
<polygon fill="none" stroke="#bfbfbf" points="114.5,-89.5 114.5,-108.5 179.5,-108.5 179.5,-89.5 114.5,-89.5"/>
<text text-anchor="middle" x="147" y="-96.5" font-family="Helvetica,sans-Serif" font-size="10.00">std::string</text>
</a>
</g>
</g>
<!-- Node3&#45;&gt;Node1 -->
<g id="edge2" class="edge">
<title>Node3&#45;&gt;Node1</title>
<path fill="none" stroke="#9a32cd" stroke-dasharray="5,2" d="M140.32,-79.64C136.48,-70.13 131.19,-58.55 125,-49 120.8,-42.53 115.35,-36.05 110.3,-30.61"/>
<polygon fill="#9a32cd" stroke="#9a32cd" points="137.16,-81.18 144.01,-89.27 143.7,-78.68 137.16,-81.18"/>
<text text-anchor="middle" x="152.5" y="-63" font-family="Helvetica,sans-Serif" font-size="10.00"> path_</text>
<text text-anchor="middle" x="152.5" y="-52" font-family="Helvetica,sans-Serif" font-size="10.00">leaf_</text>
</g>
<!-- Node4 -->
<g id="node4" class="node">
<title>Node4</title>
<g id="a_node4"><a xlink:title="STL class.">
<polygon fill="none" stroke="#bfbfbf" points="95,-146.5 95,-176.5 199,-176.5 199,-146.5 95,-146.5"/>
<text text-anchor="start" x="103" y="-164.5" font-family="Helvetica,sans-Serif" font-size="10.00">std::basic_string&lt;</text>
<text text-anchor="middle" x="147" y="-153.5" font-family="Helvetica,sans-Serif" font-size="10.00"> char &gt;</text>
</a>
</g>
</g>
<!-- Node4&#45;&gt;Node3 -->
<g id="edge3" class="edge">
<title>Node4&#45;&gt;Node3</title>
<path fill="none" stroke="midnightblue" d="M147,-136.35C147,-126.51 147,-115.78 147,-108.54"/>
<polygon fill="midnightblue" stroke="midnightblue" points="143.5,-136.47 147,-146.47 150.5,-136.47 143.5,-136.47"/>
</g>
</g>
</svg>
