<?xml version="1.0" encoding="UTF-8" standalone="no"?>
<!DOCTYPE svg PUBLIC "-//W3C//DTD SVG 1.1//EN"
 "http://www.w3.org/Graphics/SVG/1.1/DTD/svg11.dtd">
<!-- Generated by graphviz version 2.43.0 (0)
 -->
<!-- Title: leanux::sysdevice::BlockDevice::getDriver Pages: 1 -->
<svg width="323pt" height="66pt"
 viewBox="0.00 0.00 323.00 66.00" xmlns="http://www.w3.org/2000/svg" xmlns:xlink="http://www.w3.org/1999/xlink">
<g id="graph0" class="graph" transform="scale(1 1) rotate(0) translate(4 62)">
<title>leanux::sysdevice::BlockDevice::getDriver</title>
<!-- Node1 -->
<g id="node1" class="node">
<title>Node1</title>
<g id="a_node1"><a xlink:title="Get the driver for this device.">
<polygon fill="#bfbfbf" stroke="black" points="0,-14 0,-44 129,-44 129,-14 0,-14"/>
<text text-anchor="start" x="8" y="-32" font-family="Helvetica,sans-Serif" font-size="10.00">leanux::sysdevice::</text>
<text text-anchor="middle" x="64.5" y="-21" font-family="Helvetica,sans-Serif" font-size="10.00">BlockDevice::getDriver</text>
</a>
</g>
</g>
<!-- Node2 -->
<g id="node2" class="node">
<title>Node2</title>
<g id="a_node2"><a xlink:href="../../d8/db1/namespaceleanux_1_1util.html#a6ac7287d49f3dd9b2c6c9673257e145b" target="_top" xlink:title="Test if the path is an existing directory.">
<polygon fill="none" stroke="black" points="165,-38.5 165,-57.5 315,-57.5 315,-38.5 165,-38.5"/>
<text text-anchor="middle" x="240" y="-45.5" font-family="Helvetica,sans-Serif" font-size="10.00">leanux::util::directoryExists</text>
</a>
</g>
</g>
<!-- Node1&#45;&gt;Node2 -->
<g id="edge1" class="edge">
<title>Node1&#45;&gt;Node2</title>
<path fill="none" stroke="midnightblue" d="M129.12,-35.97C137.46,-36.88 146.11,-37.83 154.73,-38.77"/>
<polygon fill="midnightblue" stroke="midnightblue" points="154.49,-42.27 164.81,-39.88 155.25,-35.31 154.49,-42.27"/>
</g>
<!-- Node3 -->
<g id="node3" class="node">
<title>Node3</title>
<g id="a_node3"><a xlink:href="../../d8/db1/namespaceleanux_1_1util.html#a9ae898fe02934e4905ef4665c2871158" target="_top" xlink:title="Convert a path on a filesystem to the realpath if the path is a link.">
<polygon fill="none" stroke="black" points="181.5,-0.5 181.5,-19.5 298.5,-19.5 298.5,-0.5 181.5,-0.5"/>
<text text-anchor="middle" x="240" y="-7.5" font-family="Helvetica,sans-Serif" font-size="10.00">leanux::util::realPath</text>
</a>
</g>
</g>
<!-- Node1&#45;&gt;Node3 -->
<g id="edge2" class="edge">
<title>Node1&#45;&gt;Node3</title>
<path fill="none" stroke="midnightblue" d="M129.12,-22.03C142.89,-20.52 157.51,-18.92 171.43,-17.4"/>
<polygon fill="midnightblue" stroke="midnightblue" points="171.86,-20.87 181.42,-16.31 171.1,-13.91 171.86,-20.87"/>
</g>
</g>
</svg>
