<?xml version="1.0" encoding="UTF-8" standalone="no"?>
<!DOCTYPE svg PUBLIC "-//W3C//DTD SVG 1.1//EN"
 "http://www.w3.org/Graphics/SVG/1.1/DTD/svg11.dtd">
<!-- Generated by graphviz version 2.43.0 (0)
 -->
<!-- Title: leanux::sysdevice::BlockDevice::getDescription Pages: 1 -->
<svg width="536pt" height="39pt"
 viewBox="0.00 0.00 536.00 39.00" xmlns="http://www.w3.org/2000/svg" xmlns:xlink="http://www.w3.org/1999/xlink">
<g id="graph0" class="graph" transform="scale(1 1) rotate(0) translate(4 35)">
<title>leanux::sysdevice::BlockDevice::getDescription</title>
<!-- Node1 -->
<g id="node1" class="node">
<title>Node1</title>
<g id="a_node1"><a xlink:title="Get a human readable description of this SysDevice.">
<polygon fill="#bfbfbf" stroke="black" points="373,-0.5 373,-30.5 528,-30.5 528,-0.5 373,-0.5"/>
<text text-anchor="start" x="381" y="-18.5" font-family="Helvetica,sans-Serif" font-size="10.00">leanux::sysdevice::</text>
<text text-anchor="middle" x="450.5" y="-7.5" font-family="Helvetica,sans-Serif" font-size="10.00">BlockDevice::getDescription</text>
</a>
</g>
</g>
<!-- Node2 -->
<g id="node2" class="node">
<title>Node2</title>
<g id="a_node2"><a xlink:href="../../dd/df8/classleanux_1_1sysdevice_1_1SCSIDevice.html#a7cc63ea1acf3422fb2f3d61a88e59bec" target="_top" xlink:title="Get a human readable description of this SysDevice.">
<polygon fill="none" stroke="black" points="188,-0.5 188,-30.5 337,-30.5 337,-0.5 188,-0.5"/>
<text text-anchor="start" x="196" y="-18.5" font-family="Helvetica,sans-Serif" font-size="10.00">leanux::sysdevice::</text>
<text text-anchor="middle" x="262.5" y="-7.5" font-family="Helvetica,sans-Serif" font-size="10.00">SCSIDevice::getDescription</text>
</a>
</g>
</g>
<!-- Node1&#45;&gt;Node2 -->
<g id="edge1" class="edge">
<title>Node1&#45;&gt;Node2</title>
<path fill="none" stroke="midnightblue" d="M362.74,-15.5C354.15,-15.5 345.49,-15.5 337.06,-15.5"/>
<polygon fill="midnightblue" stroke="midnightblue" points="362.77,-19 372.77,-15.5 362.77,-12 362.77,-19"/>
</g>
<!-- Node3 -->
<g id="node3" class="node">
<title>Node3</title>
<g id="a_node3"><a xlink:href="../../df/db8/classleanux_1_1sysdevice_1_1iSCSIDevice.html#a2f46ff48d80ee056fa13e72e9d791c82" target="_top" xlink:title="Get a human readable description of this SysDevice.">
<polygon fill="none" stroke="black" points="0,-0.5 0,-30.5 152,-30.5 152,-0.5 0,-0.5"/>
<text text-anchor="start" x="8" y="-18.5" font-family="Helvetica,sans-Serif" font-size="10.00">leanux::sysdevice::</text>
<text text-anchor="middle" x="76" y="-7.5" font-family="Helvetica,sans-Serif" font-size="10.00">iSCSIDevice::getDescription</text>
</a>
</g>
</g>
<!-- Node2&#45;&gt;Node3 -->
<g id="edge2" class="edge">
<title>Node2&#45;&gt;Node3</title>
<path fill="none" stroke="midnightblue" d="M177.52,-15.5C169.04,-15.5 160.48,-15.5 152.11,-15.5"/>
<polygon fill="midnightblue" stroke="midnightblue" points="177.79,-19 187.79,-15.5 177.79,-12 177.79,-19"/>
</g>
</g>
</svg>
