<?xml version="1.0" encoding="UTF-8" standalone="no"?>
<!DOCTYPE svg PUBLIC "-//W3C//DTD SVG 1.1//EN"
 "http://www.w3.org/Graphics/SVG/1.1/DTD/svg11.dtd">
<!-- Generated by graphviz version 2.43.0 (0)
 -->
<!-- Title: leanux::sysdevice::BlockDevice::getMajorMinor Pages: 1 -->
<svg width="350pt" height="66pt"
 viewBox="0.00 0.00 350.00 66.00" xmlns="http://www.w3.org/2000/svg" xmlns:xlink="http://www.w3.org/1999/xlink">
<g id="graph0" class="graph" transform="scale(1 1) rotate(0) translate(4 62)">
<title>leanux::sysdevice::BlockDevice::getMajorMinor</title>
<!-- Node1 -->
<g id="node1" class="node">
<title>Node1</title>
<g id="a_node1"><a xlink:title=" ">
<polygon fill="#bfbfbf" stroke="black" points="0,-14 0,-44 155,-44 155,-14 0,-14"/>
<text text-anchor="start" x="8" y="-32" font-family="Helvetica,sans-Serif" font-size="10.00">leanux::sysdevice::</text>
<text text-anchor="middle" x="77.5" y="-21" font-family="Helvetica,sans-Serif" font-size="10.00">BlockDevice::getMajorMinor</text>
</a>
</g>
</g>
<!-- Node2 -->
<g id="node2" class="node">
<title>Node2</title>
<g id="a_node2"><a xlink:href="../../d8/db1/namespaceleanux_1_1util.html#a6421ca2c46c56eebe1a486c6a498ce7d" target="_top" xlink:title="Test if a file exists and can be read.">
<polygon fill="none" stroke="black" points="191,-38.5 191,-57.5 342,-57.5 342,-38.5 191,-38.5"/>
<text text-anchor="middle" x="266.5" y="-45.5" font-family="Helvetica,sans-Serif" font-size="10.00">leanux::util::fileReadAccess</text>
</a>
</g>
</g>
<!-- Node1&#45;&gt;Node2 -->
<g id="edge1" class="edge">
<title>Node1&#45;&gt;Node2</title>
<path fill="none" stroke="midnightblue" d="M155.1,-36.78C163.58,-37.64 172.26,-38.53 180.83,-39.4"/>
<polygon fill="midnightblue" stroke="midnightblue" points="180.53,-42.88 190.83,-40.41 181.24,-35.92 180.53,-42.88"/>
</g>
<!-- Node3 -->
<g id="node3" class="node">
<title>Node3</title>
<g id="a_node3"><a xlink:href="../../d8/db1/namespaceleanux_1_1util.html#a57bfd49353610b3d0b6d121b264c676e" target="_top" xlink:title="read the file as a single string.">
<polygon fill="none" stroke="black" points="193.5,-0.5 193.5,-19.5 339.5,-19.5 339.5,-0.5 193.5,-0.5"/>
<text text-anchor="middle" x="266.5" y="-7.5" font-family="Helvetica,sans-Serif" font-size="10.00">leanux::util::fileReadString</text>
</a>
</g>
</g>
<!-- Node1&#45;&gt;Node3 -->
<g id="edge2" class="edge">
<title>Node1&#45;&gt;Node3</title>
<path fill="none" stroke="midnightblue" d="M155.1,-21.22C164.36,-20.28 173.85,-19.31 183.18,-18.36"/>
<polygon fill="midnightblue" stroke="midnightblue" points="183.64,-21.84 193.24,-17.34 182.93,-14.87 183.64,-21.84"/>
</g>
</g>
</svg>
