<?xml version="1.0" encoding="UTF-8" standalone="no"?>
<!DOCTYPE svg PUBLIC "-//W3C//DTD SVG 1.1//EN"
 "http://www.w3.org/Graphics/SVG/1.1/DTD/svg11.dtd">
<!-- Generated by graphviz version 2.43.0 (0)
 -->
<!-- Title: leanux::sysdevice::BlockDevice::getPropertyValueList Pages: 1 -->
<svg width="591pt" height="312pt"
 viewBox="0.00 0.00 591.00 312.00" xmlns="http://www.w3.org/2000/svg" xmlns:xlink="http://www.w3.org/1999/xlink">
<g id="graph0" class="graph" transform="scale(1 1) rotate(0) translate(4 308)">
<title>leanux::sysdevice::BlockDevice::getPropertyValueList</title>
<!-- Node1 -->
<g id="node1" class="node">
<title>Node1</title>
<g id="a_node1"><a xlink:title=" ">
<polygon fill="#bfbfbf" stroke="black" points="0,-175.5 0,-205.5 185,-205.5 185,-175.5 0,-175.5"/>
<text text-anchor="start" x="8" y="-193.5" font-family="Helvetica,sans-Serif" font-size="10.00">leanux::sysdevice::</text>
<text text-anchor="middle" x="92.5" y="-182.5" font-family="Helvetica,sans-Serif" font-size="10.00">BlockDevice::getPropertyValueList</text>
</a>
</g>
</g>
<!-- Node2 -->
<g id="node2" class="node">
<title>Node2</title>
<g id="a_node2"><a xlink:href="../../d8/db1/namespaceleanux_1_1util.html#a979843e3d99f053101f902ec38985833" target="_top" xlink:title="convert a byte value to pretty print string.">
<polygon fill="none" stroke="black" points="252,-274 252,-293 365,-293 365,-274 252,-274"/>
<text text-anchor="middle" x="308.5" y="-281" font-family="Helvetica,sans-Serif" font-size="10.00">leanux::util::ByteStr</text>
</a>
</g>
</g>
<!-- Node1&#45;&gt;Node2 -->
<g id="edge1" class="edge">
<title>Node1&#45;&gt;Node2</title>
<path fill="none" stroke="midnightblue" d="M115.01,-205.8C139.55,-222.55 181.41,-249.1 221,-264.5 227.7,-267.11 234.84,-269.39 242.03,-271.39"/>
<polygon fill="midnightblue" stroke="midnightblue" points="241.27,-274.81 251.83,-273.94 243.03,-268.04 241.27,-274.81"/>
</g>
<!-- Node3 -->
<g id="node3" class="node">
<title>Node3</title>
<g id="a_node3"><a xlink:href="../../d7/d28/classleanux_1_1block_1_1MajorMinor.html#a53428887ee9d78196b265e624087ce2b" target="_top" xlink:title="get a list of device aliases, returned as full paths.">
<polygon fill="none" stroke="black" points="237,-224.5 237,-254.5 380,-254.5 380,-224.5 237,-224.5"/>
<text text-anchor="start" x="245" y="-242.5" font-family="Helvetica,sans-Serif" font-size="10.00">leanux::block::MajorMinor</text>
<text text-anchor="middle" x="308.5" y="-231.5" font-family="Helvetica,sans-Serif" font-size="10.00">::getAliases</text>
</a>
</g>
</g>
<!-- Node1&#45;&gt;Node3 -->
<g id="edge2" class="edge">
<title>Node1&#45;&gt;Node3</title>
<path fill="none" stroke="midnightblue" d="M159.16,-205.53C182.17,-210.8 208.19,-216.76 231.94,-222.2"/>
<polygon fill="midnightblue" stroke="midnightblue" points="231.43,-225.67 241.96,-224.49 233,-218.85 231.43,-225.67"/>
</g>
<!-- Node10 -->
<g id="node6" class="node">
<title>Node10</title>
<g id="a_node6"><a xlink:href="../../d2/d31/classleanux_1_1sysdevice_1_1BlockDevice.html#aaed715a73aad1b5f05aaad7906c9ea57" target="_top" xlink:title=" ">
<polygon fill="none" stroke="black" points="231,-175.5 231,-205.5 386,-205.5 386,-175.5 231,-175.5"/>
<text text-anchor="start" x="239" y="-193.5" font-family="Helvetica,sans-Serif" font-size="10.00">leanux::sysdevice::</text>
<text text-anchor="middle" x="308.5" y="-182.5" font-family="Helvetica,sans-Serif" font-size="10.00">BlockDevice::getMajorMinor</text>
</a>
</g>
</g>
<!-- Node1&#45;&gt;Node10 -->
<g id="edge5" class="edge">
<title>Node1&#45;&gt;Node10</title>
<path fill="none" stroke="midnightblue" d="M185.19,-190.5C196.94,-190.5 208.95,-190.5 220.63,-190.5"/>
<polygon fill="midnightblue" stroke="midnightblue" points="220.79,-194 230.79,-190.5 220.79,-187 220.79,-194"/>
</g>
<!-- Node13 -->
<g id="node9" class="node">
<title>Node13</title>
<g id="a_node9"><a xlink:href="../../d1/d02/classleanux_1_1sysdevice_1_1SysDevice.html#a4f96d039ea916556ed18bc86fab4f5c3" target="_top" xlink:title=" ">
<polygon fill="none" stroke="black" points="249,-126.5 249,-156.5 368,-156.5 368,-126.5 249,-126.5"/>
<text text-anchor="start" x="257" y="-144.5" font-family="Helvetica,sans-Serif" font-size="10.00">leanux::sysdevice::</text>
<text text-anchor="middle" x="308.5" y="-133.5" font-family="Helvetica,sans-Serif" font-size="10.00">SysDevice::getModel</text>
</a>
</g>
</g>
<!-- Node1&#45;&gt;Node13 -->
<g id="edge8" class="edge">
<title>Node1&#45;&gt;Node13</title>
<path fill="none" stroke="midnightblue" d="M159.16,-175.47C184.43,-169.68 213.34,-163.06 238.89,-157.21"/>
<polygon fill="midnightblue" stroke="midnightblue" points="239.9,-160.57 248.86,-154.93 238.33,-153.75 239.9,-160.57"/>
</g>
<!-- Node14 -->
<g id="node10" class="node">
<title>Node14</title>
<g id="a_node10"><a xlink:href="../../d1/d02/classleanux_1_1sysdevice_1_1SysDevice.html#ae45d4c50b05a48b480911a1aaeaeacc1" target="_top" xlink:title=" ">
<polygon fill="none" stroke="black" points="221,-63.5 221,-93.5 396,-93.5 396,-63.5 221,-63.5"/>
<text text-anchor="start" x="229" y="-81.5" font-family="Helvetica,sans-Serif" font-size="10.00">leanux::sysdevice::</text>
<text text-anchor="middle" x="308.5" y="-70.5" font-family="Helvetica,sans-Serif" font-size="10.00">SysDevice::getPropertyValueList</text>
</a>
</g>
</g>
<!-- Node1&#45;&gt;Node14 -->
<g id="edge9" class="edge">
<title>Node1&#45;&gt;Node14</title>
<path fill="none" stroke="midnightblue" d="M118.51,-175.23C143.93,-159.93 184.65,-136.05 221,-117.5 234.22,-110.75 248.86,-103.92 262.27,-97.9"/>
<polygon fill="midnightblue" stroke="midnightblue" points="264.07,-100.94 271.78,-93.68 261.22,-94.54 264.07,-100.94"/>
</g>
<!-- Node4 -->
<g id="node4" class="node">
<title>Node4</title>
<g id="a_node4"><a xlink:href="../../d7/d28/classleanux_1_1block_1_1MajorMinor.html#a8fa26dbc85f683ed73fcec3a2db42821" target="_top" xlink:title="return the MajorMinor dev_t.">
<polygon fill="none" stroke="black" points="436,-273.5 436,-303.5 579,-303.5 579,-273.5 436,-273.5"/>
<text text-anchor="start" x="444" y="-291.5" font-family="Helvetica,sans-Serif" font-size="10.00">leanux::block::MajorMinor</text>
<text text-anchor="middle" x="507.5" y="-280.5" font-family="Helvetica,sans-Serif" font-size="10.00">::getDevT</text>
</a>
</g>
</g>
<!-- Node3&#45;&gt;Node4 -->
<g id="edge3" class="edge">
<title>Node3&#45;&gt;Node4</title>
<path fill="none" stroke="midnightblue" d="M369.95,-254.53C390.93,-259.76 414.65,-265.65 436.35,-271.05"/>
<polygon fill="midnightblue" stroke="midnightblue" points="435.62,-274.48 446.17,-273.49 437.31,-267.68 435.62,-274.48"/>
</g>
<!-- Node5 -->
<g id="node5" class="node">
<title>Node5</title>
<g id="a_node5"><a xlink:href="../../d7/d28/classleanux_1_1block_1_1MajorMinor.html#a7ef43192321c82d296575f35b69c52d4" target="_top" xlink:title="Get the udev path for the device.">
<polygon fill="none" stroke="red" points="436,-224.5 436,-254.5 579,-254.5 579,-224.5 436,-224.5"/>
<text text-anchor="start" x="444" y="-242.5" font-family="Helvetica,sans-Serif" font-size="10.00">leanux::block::MajorMinor</text>
<text text-anchor="middle" x="507.5" y="-231.5" font-family="Helvetica,sans-Serif" font-size="10.00">::getUDevPath</text>
</a>
</g>
</g>
<!-- Node3&#45;&gt;Node5 -->
<g id="edge4" class="edge">
<title>Node3&#45;&gt;Node5</title>
<path fill="none" stroke="midnightblue" d="M380.07,-239.5C394.78,-239.5 410.39,-239.5 425.45,-239.5"/>
<polygon fill="midnightblue" stroke="midnightblue" points="425.77,-243 435.77,-239.5 425.77,-236 425.77,-243"/>
</g>
<!-- Node11 -->
<g id="node7" class="node">
<title>Node11</title>
<g id="a_node7"><a xlink:href="../../d8/db1/namespaceleanux_1_1util.html#a6421ca2c46c56eebe1a486c6a498ce7d" target="_top" xlink:title="Test if a file exists and can be read.">
<polygon fill="none" stroke="black" points="432,-186 432,-205 583,-205 583,-186 432,-186"/>
<text text-anchor="middle" x="507.5" y="-193" font-family="Helvetica,sans-Serif" font-size="10.00">leanux::util::fileReadAccess</text>
</a>
</g>
</g>
<!-- Node10&#45;&gt;Node11 -->
<g id="edge6" class="edge">
<title>Node10&#45;&gt;Node11</title>
<path fill="none" stroke="midnightblue" d="M386.23,-192.45C397.84,-192.74 409.88,-193.05 421.66,-193.35"/>
<polygon fill="midnightblue" stroke="midnightblue" points="421.83,-196.85 431.92,-193.61 422.01,-189.85 421.83,-196.85"/>
</g>
<!-- Node12 -->
<g id="node8" class="node">
<title>Node12</title>
<g id="a_node8"><a xlink:href="../../d8/db1/namespaceleanux_1_1util.html#a57bfd49353610b3d0b6d121b264c676e" target="_top" xlink:title="read the file as a single string.">
<polygon fill="none" stroke="black" points="434.5,-148 434.5,-167 580.5,-167 580.5,-148 434.5,-148"/>
<text text-anchor="middle" x="507.5" y="-155" font-family="Helvetica,sans-Serif" font-size="10.00">leanux::util::fileReadString</text>
</a>
</g>
</g>
<!-- Node10&#45;&gt;Node12 -->
<g id="edge7" class="edge">
<title>Node10&#45;&gt;Node12</title>
<path fill="none" stroke="midnightblue" d="M386.23,-177.65C403.84,-174.7 422.43,-171.58 439.59,-168.71"/>
<polygon fill="midnightblue" stroke="midnightblue" points="440.22,-172.15 449.5,-167.05 439.06,-165.25 440.22,-172.15"/>
</g>
<!-- Node15 -->
<g id="node11" class="node">
<title>Node15</title>
<g id="a_node11"><a xlink:href="../../d1/d02/classleanux_1_1sysdevice_1_1SysDevice.html#af93bf56dfb812cdfa443dcfaffcbbb25" target="_top" xlink:title="Get the device class for this device.">
<polygon fill="none" stroke="black" points="449.5,-98.5 449.5,-128.5 565.5,-128.5 565.5,-98.5 449.5,-98.5"/>
<text text-anchor="start" x="457.5" y="-116.5" font-family="Helvetica,sans-Serif" font-size="10.00">leanux::sysdevice::</text>
<text text-anchor="middle" x="507.5" y="-105.5" font-family="Helvetica,sans-Serif" font-size="10.00">SysDevice::getClass</text>
</a>
</g>
</g>
<!-- Node14&#45;&gt;Node15 -->
<g id="edge10" class="edge">
<title>Node14&#45;&gt;Node15</title>
<path fill="none" stroke="midnightblue" d="M394.19,-93.55C409.36,-96.24 424.97,-99.01 439.55,-101.61"/>
<polygon fill="midnightblue" stroke="midnightblue" points="439,-105.06 449.46,-103.37 440.23,-98.17 439,-105.06"/>
</g>
<!-- Node16 -->
<g id="node12" class="node">
<title>Node16</title>
<g id="a_node12"><a xlink:href="../../d1/d02/classleanux_1_1sysdevice_1_1SysDevice.html#af7a1af7a4b7729e150cceed395e4425b" target="_top" xlink:title="Get the driver for this device.">
<polygon fill="none" stroke="red" points="448,-49.5 448,-79.5 567,-79.5 567,-49.5 448,-49.5"/>
<text text-anchor="start" x="456" y="-67.5" font-family="Helvetica,sans-Serif" font-size="10.00">leanux::sysdevice::</text>
<text text-anchor="middle" x="507.5" y="-56.5" font-family="Helvetica,sans-Serif" font-size="10.00">SysDevice::getDriver</text>
</a>
</g>
</g>
<!-- Node14&#45;&gt;Node16 -->
<g id="edge11" class="edge">
<title>Node14&#45;&gt;Node16</title>
<path fill="none" stroke="midnightblue" d="M396.19,-72.34C410.1,-71.35 424.32,-70.34 437.73,-69.39"/>
<polygon fill="midnightblue" stroke="midnightblue" points="438.08,-72.87 447.8,-68.67 437.58,-65.89 438.08,-72.87"/>
</g>
<!-- Node18 -->
<g id="node13" class="node">
<title>Node18</title>
<g id="a_node13"><a xlink:href="../../d1/d02/classleanux_1_1sysdevice_1_1SysDevice.html#a899968c4a70ecad67694f6850cf730fd" target="_top" xlink:title="Get a string representation for the SysDeviceType.">
<polygon fill="none" stroke="black" points="445,-0.5 445,-30.5 570,-30.5 570,-0.5 445,-0.5"/>
<text text-anchor="start" x="453" y="-18.5" font-family="Helvetica,sans-Serif" font-size="10.00">leanux::sysdevice::</text>
<text text-anchor="middle" x="507.5" y="-7.5" font-family="Helvetica,sans-Serif" font-size="10.00">SysDevice::getTypeStr</text>
</a>
</g>
</g>
<!-- Node14&#45;&gt;Node18 -->
<g id="edge12" class="edge">
<title>Node14&#45;&gt;Node18</title>
<path fill="none" stroke="midnightblue" d="M356.44,-63.49C384.45,-54.53 420.22,-43.09 449.81,-33.63"/>
<polygon fill="midnightblue" stroke="midnightblue" points="451.12,-36.88 459.58,-30.5 448.99,-30.22 451.12,-36.88"/>
</g>
</g>
</svg>
