<?xml version="1.0" encoding="UTF-8" standalone="no"?>
<!DOCTYPE svg PUBLIC "-//W3C//DTD SVG 1.1//EN"
 "http://www.w3.org/Graphics/SVG/1.1/DTD/svg11.dtd">
<!-- Generated by graphviz version 2.43.0 (0)
 -->
<!-- Title: leanux::sysdevice::BlockDevice::getDisplayName Pages: 1 -->
<svg width="730pt" height="203pt"
 viewBox="0.00 0.00 730.00 202.50" xmlns="http://www.w3.org/2000/svg" xmlns:xlink="http://www.w3.org/1999/xlink">
<g id="graph0" class="graph" transform="scale(1 1) rotate(0) translate(4 198.5)">
<title>leanux::sysdevice::BlockDevice::getDisplayName</title>
<!-- Node1 -->
<g id="node1" class="node">
<title>Node1</title>
<g id="a_node1"><a xlink:title=" ">
<polygon fill="#bfbfbf" stroke="black" points="0,-71.5 0,-101.5 165,-101.5 165,-71.5 0,-71.5"/>
<text text-anchor="start" x="8" y="-89.5" font-family="Helvetica,sans-Serif" font-size="10.00">leanux::sysdevice::</text>
<text text-anchor="middle" x="82.5" y="-78.5" font-family="Helvetica,sans-Serif" font-size="10.00">BlockDevice::getDisplayName</text>
</a>
</g>
</g>
<!-- Node2 -->
<g id="node2" class="node">
<title>Node2</title>
<g id="a_node2"><a xlink:href="../../d2/d31/classleanux_1_1sysdevice_1_1BlockDevice.html#aaed715a73aad1b5f05aaad7906c9ea57" target="_top" xlink:title=" ">
<polygon fill="none" stroke="black" points="201,-142.5 201,-172.5 356,-172.5 356,-142.5 201,-142.5"/>
<text text-anchor="start" x="209" y="-160.5" font-family="Helvetica,sans-Serif" font-size="10.00">leanux::sysdevice::</text>
<text text-anchor="middle" x="278.5" y="-149.5" font-family="Helvetica,sans-Serif" font-size="10.00">BlockDevice::getMajorMinor</text>
</a>
</g>
</g>
<!-- Node1&#45;&gt;Node2 -->
<g id="edge1" class="edge">
<title>Node1&#45;&gt;Node2</title>
<path fill="none" stroke="midnightblue" d="M118.97,-101.51C142.14,-111.11 173.16,-123.58 201,-133.5 206.46,-135.45 212.17,-137.39 217.9,-139.29"/>
<polygon fill="midnightblue" stroke="midnightblue" points="216.93,-142.66 227.52,-142.43 219.1,-136 216.93,-142.66"/>
</g>
<!-- Node5 -->
<g id="node5" class="node">
<title>Node5</title>
<g id="a_node5"><a xlink:href="../../d1/d02/classleanux_1_1sysdevice_1_1SysDevice.html#a4f96d039ea916556ed18bc86fab4f5c3" target="_top" xlink:title=" ">
<polygon fill="none" stroke="black" points="219,-5.5 219,-35.5 338,-35.5 338,-5.5 219,-5.5"/>
<text text-anchor="start" x="227" y="-23.5" font-family="Helvetica,sans-Serif" font-size="10.00">leanux::sysdevice::</text>
<text text-anchor="middle" x="278.5" y="-12.5" font-family="Helvetica,sans-Serif" font-size="10.00">SysDevice::getModel</text>
</a>
</g>
</g>
<!-- Node1&#45;&gt;Node5 -->
<g id="edge4" class="edge">
<title>Node1&#45;&gt;Node5</title>
<path fill="none" stroke="midnightblue" d="M128.01,-71.36C156.47,-61.67 193.57,-49.05 223.69,-38.81"/>
<polygon fill="midnightblue" stroke="midnightblue" points="224.86,-42.11 233.2,-35.57 222.61,-35.48 224.86,-42.11"/>
</g>
<!-- Node6 -->
<g id="node6" class="node">
<title>Node6</title>
<g id="a_node6"><a xlink:href="../../d7/d28/classleanux_1_1block_1_1MajorMinor.html#ac3ebc9c959e865aba4a933e92da45674" target="_top" xlink:title="Get the model for the device.">
<polygon fill="none" stroke="black" points="207,-93.5 207,-123.5 350,-123.5 350,-93.5 207,-93.5"/>
<text text-anchor="start" x="215" y="-111.5" font-family="Helvetica,sans-Serif" font-size="10.00">leanux::block::MajorMinor</text>
<text text-anchor="middle" x="278.5" y="-100.5" font-family="Helvetica,sans-Serif" font-size="10.00">::getModel</text>
</a>
</g>
</g>
<!-- Node1&#45;&gt;Node6 -->
<g id="edge5" class="edge">
<title>Node1&#45;&gt;Node6</title>
<path fill="none" stroke="midnightblue" d="M165.21,-95.77C175.73,-96.96 186.49,-98.18 196.98,-99.37"/>
<polygon fill="midnightblue" stroke="midnightblue" points="196.62,-102.85 206.95,-100.5 197.41,-95.89 196.62,-102.85"/>
</g>
<!-- Node12 -->
<g id="node9" class="node">
<title>Node12</title>
<g id="a_node9"><a xlink:href="../../d7/d28/classleanux_1_1block_1_1MajorMinor.html#a08c4dd48259318cfd77067e866e05e84" target="_top" xlink:title="get the device name for this MajorMinor.">
<polygon fill="none" stroke="black" points="396,-0.5 396,-30.5 539,-30.5 539,-0.5 396,-0.5"/>
<text text-anchor="start" x="404" y="-18.5" font-family="Helvetica,sans-Serif" font-size="10.00">leanux::block::MajorMinor</text>
<text text-anchor="middle" x="467.5" y="-7.5" font-family="Helvetica,sans-Serif" font-size="10.00">::getName</text>
</a>
</g>
</g>
<!-- Node1&#45;&gt;Node12 -->
<g id="edge11" class="edge">
<title>Node1&#45;&gt;Node12</title>
<path fill="none" stroke="midnightblue" d="M165.28,-76.15C219.61,-68.72 292.38,-57.71 356,-44.5 371.53,-41.27 388.14,-37.23 403.65,-33.2"/>
<polygon fill="midnightblue" stroke="midnightblue" points="404.87,-36.5 413.65,-30.56 403.09,-29.73 404.87,-36.5"/>
</g>
<!-- Node3 -->
<g id="node3" class="node">
<title>Node3</title>
<g id="a_node3"><a xlink:href="../../d8/db1/namespaceleanux_1_1util.html#a6421ca2c46c56eebe1a486c6a498ce7d" target="_top" xlink:title="Test if a file exists and can be read.">
<polygon fill="none" stroke="black" points="392,-137 392,-156 543,-156 543,-137 392,-137"/>
<text text-anchor="middle" x="467.5" y="-144" font-family="Helvetica,sans-Serif" font-size="10.00">leanux::util::fileReadAccess</text>
</a>
</g>
</g>
<!-- Node2&#45;&gt;Node3 -->
<g id="edge2" class="edge">
<title>Node2&#45;&gt;Node3</title>
<path fill="none" stroke="midnightblue" d="M356.1,-152.99C364.58,-152.5 373.26,-151.98 381.83,-151.48"/>
<polygon fill="midnightblue" stroke="midnightblue" points="382.05,-154.97 391.83,-150.89 381.64,-147.99 382.05,-154.97"/>
</g>
<!-- Node4 -->
<g id="node4" class="node">
<title>Node4</title>
<g id="a_node4"><a xlink:href="../../d8/db1/namespaceleanux_1_1util.html#a57bfd49353610b3d0b6d121b264c676e" target="_top" xlink:title="read the file as a single string.">
<polygon fill="none" stroke="black" points="394.5,-175 394.5,-194 540.5,-194 540.5,-175 394.5,-175"/>
<text text-anchor="middle" x="467.5" y="-182" font-family="Helvetica,sans-Serif" font-size="10.00">leanux::util::fileReadString</text>
</a>
</g>
</g>
<!-- Node2&#45;&gt;Node4 -->
<g id="edge3" class="edge">
<title>Node2&#45;&gt;Node4</title>
<path fill="none" stroke="midnightblue" d="M356.1,-168.56C367.37,-170.19 378.99,-171.86 390.26,-173.49"/>
<polygon fill="midnightblue" stroke="midnightblue" points="390.09,-177 400.49,-174.97 391.09,-170.08 390.09,-177"/>
</g>
<!-- Node6&#45;&gt;Node3 -->
<g id="edge6" class="edge">
<title>Node6&#45;&gt;Node3</title>
<path fill="none" stroke="midnightblue" d="M350.2,-122.87C369.84,-126.86 390.9,-131.14 409.64,-134.95"/>
<polygon fill="midnightblue" stroke="midnightblue" points="409,-138.39 419.49,-136.95 410.39,-131.53 409,-138.39"/>
</g>
<!-- Node6&#45;&gt;Node4 -->
<g id="edge7" class="edge">
<title>Node6&#45;&gt;Node4</title>
<path fill="none" stroke="midnightblue" d="M335,-123.61C342.27,-126.46 349.46,-129.74 356,-133.5 374.56,-144.16 373.09,-155.46 392,-165.5 396.45,-167.87 401.22,-169.95 406.1,-171.78"/>
<polygon fill="midnightblue" stroke="midnightblue" points="404.99,-175.1 415.59,-174.99 407.24,-168.47 404.99,-175.1"/>
</g>
<!-- Node7 -->
<g id="node7" class="node">
<title>Node7</title>
<g id="a_node7"><a xlink:href="../../d7/d28/classleanux_1_1block_1_1MajorMinor.html#adc3f437e329318ee21bddbbebaeb740e" target="_top" xlink:title="Get the DeviceName for the MajorMinor.">
<polygon fill="none" stroke="red" points="579,-49.5 579,-79.5 722,-79.5 722,-49.5 579,-49.5"/>
<text text-anchor="start" x="587" y="-67.5" font-family="Helvetica,sans-Serif" font-size="10.00">leanux::block::MajorMinor</text>
<text text-anchor="middle" x="650.5" y="-56.5" font-family="Helvetica,sans-Serif" font-size="10.00">::getNameByMajorMinor</text>
</a>
</g>
</g>
<!-- Node6&#45;&gt;Node7 -->
<g id="edge8" class="edge">
<title>Node6&#45;&gt;Node7</title>
<path fill="none" stroke="midnightblue" d="M350.02,-106.45C403.28,-104.17 478.05,-99.4 543,-89.5 556.02,-87.52 569.79,-84.77 582.96,-81.83"/>
<polygon fill="midnightblue" stroke="midnightblue" points="583.93,-85.2 592.9,-79.54 582.37,-78.37 583.93,-85.2"/>
</g>
<!-- Node11 -->
<g id="node8" class="node">
<title>Node11</title>
<g id="a_node8"><a xlink:href="../../d7/d28/classleanux_1_1block_1_1MajorMinor.html#a7ef43192321c82d296575f35b69c52d4" target="_top" xlink:title="Get the udev path for the device.">
<polygon fill="none" stroke="black" points="396,-49.5 396,-79.5 539,-79.5 539,-49.5 396,-49.5"/>
<text text-anchor="start" x="404" y="-67.5" font-family="Helvetica,sans-Serif" font-size="10.00">leanux::block::MajorMinor</text>
<text text-anchor="middle" x="467.5" y="-56.5" font-family="Helvetica,sans-Serif" font-size="10.00">::getUDevPath</text>
</a>
</g>
</g>
<!-- Node6&#45;&gt;Node11 -->
<g id="edge9" class="edge">
<title>Node6&#45;&gt;Node11</title>
<path fill="none" stroke="midnightblue" d="M343.33,-93.48C359.19,-89.75 376.32,-85.72 392.62,-81.88"/>
<polygon fill="midnightblue" stroke="midnightblue" points="393.71,-85.22 402.64,-79.53 392.1,-78.41 393.71,-85.22"/>
</g>
<!-- Node11&#45;&gt;Node7 -->
<g id="edge10" class="edge">
<title>Node11&#45;&gt;Node7</title>
<path fill="none" stroke="midnightblue" d="M539.26,-64.5C548.9,-64.5 558.85,-64.5 568.65,-64.5"/>
<polygon fill="midnightblue" stroke="midnightblue" points="568.79,-68 578.79,-64.5 568.79,-61 568.79,-68"/>
</g>
<!-- Node12&#45;&gt;Node7 -->
<g id="edge12" class="edge">
<title>Node12&#45;&gt;Node7</title>
<path fill="none" stroke="midnightblue" d="M524.28,-30.6C543.21,-35.73 564.52,-41.5 584.13,-46.8"/>
<polygon fill="midnightblue" stroke="midnightblue" points="583.33,-50.21 593.9,-49.45 585.16,-43.46 583.33,-50.21"/>
</g>
</g>
</svg>
