<?xml version="1.0" encoding="UTF-8" standalone="no"?>
<!DOCTYPE svg PUBLIC "-//W3C//DTD SVG 1.1//EN"
 "http://www.w3.org/Graphics/SVG/1.1/DTD/svg11.dtd">
<!-- Generated by graphviz version 2.43.0 (0)
 -->
<!-- Title: leanux::sysdevice::BlockDevice::getDescription Pages: 1 -->
<svg width="720pt" height="154pt"
 viewBox="0.00 0.00 720.00 153.50" xmlns="http://www.w3.org/2000/svg" xmlns:xlink="http://www.w3.org/1999/xlink">
<g id="graph0" class="graph" transform="scale(1 1) rotate(0) translate(4 149.5)">
<title>leanux::sysdevice::BlockDevice::getDescription</title>
<!-- Node1 -->
<g id="node1" class="node">
<title>Node1</title>
<g id="a_node1"><a xlink:title="Get a human readable description of this SysDevice.">
<polygon fill="#bfbfbf" stroke="black" points="0,-81.5 0,-111.5 155,-111.5 155,-81.5 0,-81.5"/>
<text text-anchor="start" x="8" y="-99.5" font-family="Helvetica,sans-Serif" font-size="10.00">leanux::sysdevice::</text>
<text text-anchor="middle" x="77.5" y="-88.5" font-family="Helvetica,sans-Serif" font-size="10.00">BlockDevice::getDescription</text>
</a>
</g>
</g>
<!-- Node2 -->
<g id="node2" class="node">
<title>Node2</title>
<g id="a_node2"><a xlink:href="../../d2/d31/classleanux_1_1sysdevice_1_1BlockDevice.html#aaed715a73aad1b5f05aaad7906c9ea57" target="_top" xlink:title=" ">
<polygon fill="none" stroke="black" points="191,-106.5 191,-136.5 346,-136.5 346,-106.5 191,-106.5"/>
<text text-anchor="start" x="199" y="-124.5" font-family="Helvetica,sans-Serif" font-size="10.00">leanux::sysdevice::</text>
<text text-anchor="middle" x="268.5" y="-113.5" font-family="Helvetica,sans-Serif" font-size="10.00">BlockDevice::getMajorMinor</text>
</a>
</g>
</g>
<!-- Node1&#45;&gt;Node2 -->
<g id="edge1" class="edge">
<title>Node1&#45;&gt;Node2</title>
<path fill="none" stroke="midnightblue" d="M155.1,-106.63C163.56,-107.75 172.22,-108.9 180.79,-110.03"/>
<polygon fill="midnightblue" stroke="midnightblue" points="180.42,-113.51 190.79,-111.35 181.34,-106.57 180.42,-113.51"/>
</g>
<!-- Node5 -->
<g id="node5" class="node">
<title>Node5</title>
<g id="a_node5"><a xlink:href="../../d7/d28/classleanux_1_1block_1_1MajorMinor.html#ac3ebc9c959e865aba4a933e92da45674" target="_top" xlink:title="Get the model for the device.">
<polygon fill="none" stroke="black" points="197,-57.5 197,-87.5 340,-87.5 340,-57.5 197,-57.5"/>
<text text-anchor="start" x="205" y="-75.5" font-family="Helvetica,sans-Serif" font-size="10.00">leanux::block::MajorMinor</text>
<text text-anchor="middle" x="268.5" y="-64.5" font-family="Helvetica,sans-Serif" font-size="10.00">::getModel</text>
</a>
</g>
</g>
<!-- Node1&#45;&gt;Node5 -->
<g id="edge4" class="edge">
<title>Node1&#45;&gt;Node5</title>
<path fill="none" stroke="midnightblue" d="M155.1,-86.77C165.57,-85.44 176.34,-84.08 186.88,-82.74"/>
<polygon fill="midnightblue" stroke="midnightblue" points="187.41,-86.2 196.89,-81.47 186.53,-79.25 187.41,-86.2"/>
</g>
<!-- Node3 -->
<g id="node3" class="node">
<title>Node3</title>
<g id="a_node3"><a xlink:href="../../d8/db1/namespaceleanux_1_1util.html#a6421ca2c46c56eebe1a486c6a498ce7d" target="_top" xlink:title="Test if a file exists and can be read.">
<polygon fill="none" stroke="black" points="382,-126 382,-145 533,-145 533,-126 382,-126"/>
<text text-anchor="middle" x="457.5" y="-133" font-family="Helvetica,sans-Serif" font-size="10.00">leanux::util::fileReadAccess</text>
</a>
</g>
</g>
<!-- Node2&#45;&gt;Node3 -->
<g id="edge2" class="edge">
<title>Node2&#45;&gt;Node3</title>
<path fill="none" stroke="midnightblue" d="M346.1,-127.23C354.58,-127.87 363.26,-128.52 371.83,-129.16"/>
<polygon fill="midnightblue" stroke="midnightblue" points="371.6,-132.65 381.83,-129.91 372.12,-125.67 371.6,-132.65"/>
</g>
<!-- Node4 -->
<g id="node4" class="node">
<title>Node4</title>
<g id="a_node4"><a xlink:href="../../d8/db1/namespaceleanux_1_1util.html#a57bfd49353610b3d0b6d121b264c676e" target="_top" xlink:title="read the file as a single string.">
<polygon fill="none" stroke="black" points="384.5,-88 384.5,-107 530.5,-107 530.5,-88 384.5,-88"/>
<text text-anchor="middle" x="457.5" y="-95" font-family="Helvetica,sans-Serif" font-size="10.00">leanux::util::fileReadString</text>
</a>
</g>
</g>
<!-- Node2&#45;&gt;Node4 -->
<g id="edge3" class="edge">
<title>Node2&#45;&gt;Node4</title>
<path fill="none" stroke="midnightblue" d="M346.1,-111.67C355.36,-110.48 364.85,-109.26 374.18,-108.06"/>
<polygon fill="midnightblue" stroke="midnightblue" points="374.76,-111.52 384.24,-106.77 373.87,-104.58 374.76,-111.52"/>
</g>
<!-- Node5&#45;&gt;Node3 -->
<g id="edge5" class="edge">
<title>Node5&#45;&gt;Node3</title>
<path fill="none" stroke="midnightblue" d="M319.74,-87.57C328.59,-90.6 337.64,-93.96 346,-97.5 362.66,-104.56 365.12,-110 382,-116.5 388.36,-118.95 395.15,-121.18 401.94,-123.18"/>
<polygon fill="midnightblue" stroke="midnightblue" points="401.27,-126.62 411.84,-125.94 403.15,-119.88 401.27,-126.62"/>
</g>
<!-- Node5&#45;&gt;Node4 -->
<g id="edge6" class="edge">
<title>Node5&#45;&gt;Node4</title>
<path fill="none" stroke="midnightblue" d="M340.2,-81.95C351.64,-83.48 363.56,-85.07 375.23,-86.63"/>
<polygon fill="midnightblue" stroke="midnightblue" points="375.02,-90.14 385.39,-87.99 375.94,-83.2 375.02,-90.14"/>
</g>
<!-- Node6 -->
<g id="node6" class="node">
<title>Node6</title>
<g id="a_node6"><a xlink:href="../../d7/d28/classleanux_1_1block_1_1MajorMinor.html#adc3f437e329318ee21bddbbebaeb740e" target="_top" xlink:title="Get the DeviceName for the MajorMinor.">
<polygon fill="none" stroke="red" points="569,-22.5 569,-52.5 712,-52.5 712,-22.5 569,-22.5"/>
<text text-anchor="start" x="577" y="-40.5" font-family="Helvetica,sans-Serif" font-size="10.00">leanux::block::MajorMinor</text>
<text text-anchor="middle" x="640.5" y="-29.5" font-family="Helvetica,sans-Serif" font-size="10.00">::getNameByMajorMinor</text>
</a>
</g>
</g>
<!-- Node5&#45;&gt;Node6 -->
<g id="edge7" class="edge">
<title>Node5&#45;&gt;Node6</title>
<path fill="none" stroke="midnightblue" d="M340.4,-65.79C402.75,-59.9 493.45,-51.32 558.61,-45.15"/>
<polygon fill="midnightblue" stroke="midnightblue" points="559.21,-48.61 568.84,-44.18 558.55,-41.64 559.21,-48.61"/>
</g>
<!-- Node10 -->
<g id="node7" class="node">
<title>Node10</title>
<g id="a_node7"><a xlink:href="../../d7/d28/classleanux_1_1block_1_1MajorMinor.html#a7ef43192321c82d296575f35b69c52d4" target="_top" xlink:title="Get the udev path for the device.">
<polygon fill="none" stroke="black" points="386,-0.5 386,-30.5 529,-30.5 529,-0.5 386,-0.5"/>
<text text-anchor="start" x="394" y="-18.5" font-family="Helvetica,sans-Serif" font-size="10.00">leanux::block::MajorMinor</text>
<text text-anchor="middle" x="457.5" y="-7.5" font-family="Helvetica,sans-Serif" font-size="10.00">::getUDevPath</text>
</a>
</g>
</g>
<!-- Node5&#45;&gt;Node10 -->
<g id="edge8" class="edge">
<title>Node5&#45;&gt;Node10</title>
<path fill="none" stroke="midnightblue" d="M319.12,-57.37C343.1,-50.07 372.05,-41.24 397.19,-33.58"/>
<polygon fill="midnightblue" stroke="midnightblue" points="398.43,-36.86 406.97,-30.6 396.39,-30.16 398.43,-36.86"/>
</g>
<!-- Node10&#45;&gt;Node6 -->
<g id="edge9" class="edge">
<title>Node10&#45;&gt;Node6</title>
<path fill="none" stroke="midnightblue" d="M529.26,-24.1C538.9,-25.27 548.85,-26.48 558.65,-27.67"/>
<polygon fill="midnightblue" stroke="midnightblue" points="558.44,-31.17 568.79,-28.91 559.29,-24.22 558.44,-31.17"/>
</g>
</g>
</svg>
