<?xml version="1.0" encoding="UTF-8" standalone="no"?>
<!DOCTYPE svg PUBLIC "-//W3C//DTD SVG 1.1//EN"
 "http://www.w3.org/Graphics/SVG/1.1/DTD/svg11.dtd">
<!-- Generated by graphviz version 2.43.0 (0)
 -->
<!-- Title: leanux::block::enumDevices Pages: 1 -->
<svg width="634pt" height="180pt"
 viewBox="0.00 0.00 634.00 180.00" xmlns="http://www.w3.org/2000/svg" xmlns:xlink="http://www.w3.org/1999/xlink">
<g id="graph0" class="graph" transform="scale(1 1) rotate(0) translate(4 176)">
<title>leanux::block::enumDevices</title>
<!-- Node1 -->
<g id="node1" class="node">
<title>Node1</title>
<g id="a_node1"><a xlink:title="get a list of all block devices">
<polygon fill="#bfbfbf" stroke="black" points="471,-72 471,-91 626,-91 626,-72 471,-72"/>
<text text-anchor="middle" x="548.5" y="-79" font-family="Helvetica,sans-Serif" font-size="10.00">leanux::block::enumDevices</text>
</a>
</g>
</g>
<!-- Node2 -->
<g id="node2" class="node">
<title>Node2</title>
<g id="a_node2"><a xlink:href="../../d5/d01/namespaceleanux_1_1block.html#a3f0d238d9d613580fd7c45d72331275f" target="_top" xlink:title="get a list of LVM physical volumes">
<polygon fill="none" stroke="black" points="280,-144 280,-163 435,-163 435,-144 280,-144"/>
<text text-anchor="middle" x="357.5" y="-151" font-family="Helvetica,sans-Serif" font-size="10.00">leanux::block::enumLVMPVS</text>
</a>
</g>
</g>
<!-- Node1&#45;&gt;Node2 -->
<g id="edge1" class="edge">
<title>Node1&#45;&gt;Node2</title>
<path fill="none" stroke="midnightblue" d="M518.15,-95.42C495.68,-105.81 463.75,-119.96 435,-130.5 421.59,-135.42 406.59,-140.1 393.44,-143.94"/>
<polygon fill="midnightblue" stroke="midnightblue" points="519.88,-98.48 527.47,-91.09 516.93,-92.14 519.88,-98.48"/>
</g>
<!-- Node7 -->
<g id="node5" class="node">
<title>Node7</title>
<g id="a_node5"><a xlink:href="../../d6/dd3/namespaceleanux_1_1tools_1_1lrep.html#aa664245209dbbb081139c961a4c6d878" target="_top" xlink:title="generate system details html.">
<polygon fill="none" stroke="black" points="299.5,-90.5 299.5,-120.5 415.5,-120.5 415.5,-90.5 299.5,-90.5"/>
<text text-anchor="start" x="307.5" y="-108.5" font-family="Helvetica,sans-Serif" font-size="10.00">leanux::tools::lrep</text>
<text text-anchor="middle" x="357.5" y="-97.5" font-family="Helvetica,sans-Serif" font-size="10.00">::htmlSystemDetails</text>
</a>
</g>
</g>
<!-- Node1&#45;&gt;Node7 -->
<g id="edge4" class="edge">
<title>Node1&#45;&gt;Node7</title>
<path fill="none" stroke="midnightblue" d="M462.22,-92.33C446.43,-94.33 430.29,-96.38 415.59,-98.25"/>
<polygon fill="midnightblue" stroke="midnightblue" points="463.05,-95.75 472.53,-91.02 462.17,-88.81 463.05,-95.75"/>
</g>
<!-- Node10 -->
<g id="node7" class="node">
<title>Node10</title>
<g id="a_node7"><a xlink:href="../../d5/d1b/namespaceleanux_1_1tools_1_1lblk.html#aa88fa87379ec2528ee3627e5bb9953d0" target="_top" xlink:title="Table listing all devices.">
<polygon fill="none" stroke="black" points="140,-43.5 140,-73.5 244,-73.5 244,-43.5 140,-43.5"/>
<text text-anchor="start" x="148" y="-61.5" font-family="Helvetica,sans-Serif" font-size="10.00">leanux::tools::lblk</text>
<text text-anchor="middle" x="192" y="-50.5" font-family="Helvetica,sans-Serif" font-size="10.00">::listAllDevices</text>
</a>
</g>
</g>
<!-- Node1&#45;&gt;Node10 -->
<g id="edge6" class="edge">
<title>Node1&#45;&gt;Node10</title>
<path fill="none" stroke="midnightblue" d="M460.32,-75.84C392.42,-71.44 300.51,-65.48 244.07,-61.81"/>
<polygon fill="midnightblue" stroke="midnightblue" points="460.37,-79.35 470.58,-76.51 460.83,-72.37 460.37,-79.35"/>
</g>
<!-- Node11 -->
<g id="node8" class="node">
<title>Node11</title>
<g id="a_node8"><a xlink:href="../../d5/d1b/namespaceleanux_1_1tools_1_1lblk.html#a434f492d6d8b6e1e69c1200e6d66180a" target="_top" xlink:title="Table listing all MetaDisks.">
<polygon fill="none" stroke="black" points="305.5,-0.5 305.5,-30.5 409.5,-30.5 409.5,-0.5 305.5,-0.5"/>
<text text-anchor="start" x="313.5" y="-18.5" font-family="Helvetica,sans-Serif" font-size="10.00">leanux::tools::lblk</text>
<text text-anchor="middle" x="357.5" y="-7.5" font-family="Helvetica,sans-Serif" font-size="10.00">::listAllMetaDisks</text>
</a>
</g>
</g>
<!-- Node1&#45;&gt;Node11 -->
<g id="edge8" class="edge">
<title>Node1&#45;&gt;Node11</title>
<path fill="none" stroke="midnightblue" d="M510.39,-68.54C479.2,-57.65 434.57,-42.07 401.76,-30.61"/>
<polygon fill="midnightblue" stroke="midnightblue" points="509.42,-71.91 520.02,-71.9 511.73,-65.3 509.42,-71.91"/>
</g>
<!-- Node3 -->
<g id="node3" class="node">
<title>Node3</title>
<g id="a_node3"><a xlink:href="../../d5/d1b/namespaceleanux_1_1tools_1_1lblk.html#a3ad2e43162ca1213c491e96d5d2a5a9c" target="_top" xlink:title="Table listing LVM devices.">
<polygon fill="none" stroke="black" points="140,-141.5 140,-171.5 244,-171.5 244,-141.5 140,-141.5"/>
<text text-anchor="start" x="148" y="-159.5" font-family="Helvetica,sans-Serif" font-size="10.00">leanux::tools::lblk</text>
<text text-anchor="middle" x="192" y="-148.5" font-family="Helvetica,sans-Serif" font-size="10.00">::listLVM</text>
</a>
</g>
</g>
<!-- Node2&#45;&gt;Node3 -->
<g id="edge2" class="edge">
<title>Node2&#45;&gt;Node3</title>
<path fill="none" stroke="midnightblue" d="M269.46,-155.1C260.89,-155.25 252.4,-155.41 244.37,-155.56"/>
<polygon fill="midnightblue" stroke="midnightblue" points="269.6,-158.6 279.54,-154.91 269.48,-151.6 269.6,-158.6"/>
</g>
<!-- Node4 -->
<g id="node4" class="node">
<title>Node4</title>
<g id="a_node4"><a xlink:href="../../d5/d1b/namespaceleanux_1_1tools_1_1lblk.html#aafee1346a1081bfa4f7470f921cd66b8" target="_top" xlink:title="Direct output run from options.">
<polygon fill="none" stroke="red" points="0,-43.5 0,-73.5 104,-73.5 104,-43.5 0,-43.5"/>
<text text-anchor="start" x="8" y="-61.5" font-family="Helvetica,sans-Serif" font-size="10.00">leanux::tools::lblk</text>
<text text-anchor="middle" x="52" y="-50.5" font-family="Helvetica,sans-Serif" font-size="10.00">::runOptions</text>
</a>
</g>
</g>
<!-- Node3&#45;&gt;Node4 -->
<g id="edge3" class="edge">
<title>Node3&#45;&gt;Node4</title>
<path fill="none" stroke="midnightblue" d="M146.72,-136.57C144.41,-135.25 142.16,-133.89 140,-132.5 112.83,-114.99 84.99,-89.78 68.35,-73.77"/>
<polygon fill="midnightblue" stroke="midnightblue" points="145.3,-139.78 155.77,-141.43 148.62,-133.61 145.3,-139.78"/>
</g>
<!-- Node8 -->
<g id="node6" class="node">
<title>Node8</title>
<g id="a_node6"><a xlink:href="../../d6/dd3/namespaceleanux_1_1tools_1_1lrep.html#aa0e1422d8d75831ea3801ffa728bf436" target="_top" xlink:title=" ">
<polygon fill="none" stroke="red" points="140,-92.5 140,-122.5 244,-122.5 244,-92.5 140,-92.5"/>
<text text-anchor="start" x="148" y="-110.5" font-family="Helvetica,sans-Serif" font-size="10.00">leanux::tools::lrep</text>
<text text-anchor="middle" x="192" y="-99.5" font-family="Helvetica,sans-Serif" font-size="10.00">::main</text>
</a>
</g>
</g>
<!-- Node7&#45;&gt;Node8 -->
<g id="edge5" class="edge">
<title>Node7&#45;&gt;Node8</title>
<path fill="none" stroke="midnightblue" d="M289.06,-106.32C274.05,-106.51 258.37,-106.7 244.15,-106.87"/>
<polygon fill="midnightblue" stroke="midnightblue" points="289.36,-109.82 299.32,-106.2 289.27,-102.82 289.36,-109.82"/>
</g>
<!-- Node10&#45;&gt;Node4 -->
<g id="edge7" class="edge">
<title>Node10&#45;&gt;Node4</title>
<path fill="none" stroke="midnightblue" d="M129.5,-58.5C121.13,-58.5 112.6,-58.5 104.43,-58.5"/>
<polygon fill="midnightblue" stroke="midnightblue" points="129.61,-62 139.61,-58.5 129.61,-55 129.61,-62"/>
</g>
<!-- Node11&#45;&gt;Node4 -->
<g id="edge9" class="edge">
<title>Node11&#45;&gt;Node4</title>
<path fill="none" stroke="midnightblue" d="M295.26,-17.91C251.68,-20.34 191.91,-25.14 140,-34.5 127.36,-36.78 113.89,-40.06 101.42,-43.47"/>
<polygon fill="midnightblue" stroke="midnightblue" points="295.61,-21.39 305.41,-17.37 295.24,-14.4 295.61,-21.39"/>
</g>
</g>
</svg>
