<?xml version="1.0" encoding="UTF-8" standalone="no"?>
<!DOCTYPE svg PUBLIC "-//W3C//DTD SVG 1.1//EN"
 "http://www.w3.org/Graphics/SVG/1.1/DTD/svg11.dtd">
<!-- Generated by graphviz version 2.43.0 (0)
 -->
<!-- Title: leanux::block::getFileMajorMinor Pages: 1 -->
<svg width="572pt" height="235pt"
 viewBox="0.00 0.00 572.00 235.00" xmlns="http://www.w3.org/2000/svg" xmlns:xlink="http://www.w3.org/1999/xlink">
<g id="graph0" class="graph" transform="scale(1 1) rotate(0) translate(4 231)">
<title>leanux::block::getFileMajorMinor</title>
<!-- Node1 -->
<g id="node1" class="node">
<title>Node1</title>
<g id="a_node1"><a xlink:title="get the MajorMinor for a device file or aliases to it, resolves the devicefile with realpath.">
<polygon fill="#bfbfbf" stroke="black" points="415,-49.5 415,-79.5 564,-79.5 564,-49.5 415,-49.5"/>
<text text-anchor="start" x="423" y="-67.5" font-family="Helvetica,sans-Serif" font-size="10.00">leanux::block::getFileMajor</text>
<text text-anchor="middle" x="489.5" y="-56.5" font-family="Helvetica,sans-Serif" font-size="10.00">Minor</text>
</a>
</g>
</g>
<!-- Node2 -->
<g id="node2" class="node">
<title>Node2</title>
<g id="a_node2"><a xlink:href="../../d5/d01/namespaceleanux_1_1block.html#afaee6721d578e4e9ccbebb7dea5919a6" target="_top" xlink:title="Get a map of MajorMinor to MountInfo from /proc/mounts.">
<polygon fill="none" stroke="black" points="227,-98 227,-117 379,-117 379,-98 227,-98"/>
<text text-anchor="middle" x="303" y="-105" font-family="Helvetica,sans-Serif" font-size="10.00">leanux::block::enumMounts</text>
</a>
</g>
</g>
<!-- Node1&#45;&gt;Node2 -->
<g id="edge1" class="edge">
<title>Node1&#45;&gt;Node2</title>
<path fill="none" stroke="midnightblue" d="M413.98,-81.87C390.38,-87.37 365.18,-93.24 344.86,-97.98"/>
<polygon fill="midnightblue" stroke="midnightblue" points="415.03,-85.22 423.97,-79.54 413.44,-78.4 415.03,-85.22"/>
</g>
<!-- Node16 -->
<g id="node5" class="node">
<title>Node16</title>
<g id="a_node5"><a xlink:href="../../da/d21/classleanux_1_1tools_1_1lmon_1_1RealtimeSampler.html#ae43e18aacfceb09eb9bd70db9c67fc98" target="_top" xlink:title=" ">
<polygon fill="none" stroke="red" points="0,-49.5 0,-79.5 191,-79.5 191,-49.5 0,-49.5"/>
<text text-anchor="start" x="8" y="-67.5" font-family="Helvetica,sans-Serif" font-size="10.00">leanux::tools::lmon</text>
<text text-anchor="middle" x="95.5" y="-56.5" font-family="Helvetica,sans-Serif" font-size="10.00">::RealtimeSampler::sampleXIOView</text>
</a>
</g>
</g>
<!-- Node1&#45;&gt;Node16 -->
<g id="edge7" class="edge">
<title>Node1&#45;&gt;Node16</title>
<path fill="none" stroke="midnightblue" d="M404.52,-64.5C341.84,-64.5 256.16,-64.5 191.07,-64.5"/>
<polygon fill="midnightblue" stroke="midnightblue" points="404.77,-68 414.77,-64.5 404.77,-61 404.77,-68"/>
</g>
<!-- Node23 -->
<g id="node7" class="node">
<title>Node23</title>
<g id="a_node7"><a xlink:href="../../d0/db5/classleanux_1_1tools_1_1lard_1_1MountSnap.html#a7288efb64fc31818416b8c52c4ba3a0d" target="_top" xlink:title=" ">
<polygon fill="none" stroke="red" points="29.5,-0.5 29.5,-30.5 161.5,-30.5 161.5,-0.5 29.5,-0.5"/>
<text text-anchor="start" x="37.5" y="-18.5" font-family="Helvetica,sans-Serif" font-size="10.00">leanux::tools::lard</text>
<text text-anchor="middle" x="95.5" y="-7.5" font-family="Helvetica,sans-Serif" font-size="10.00">::MountSnap::storeSnap</text>
</a>
</g>
</g>
<!-- Node1&#45;&gt;Node23 -->
<g id="edge8" class="edge">
<title>Node1&#45;&gt;Node23</title>
<path fill="none" stroke="midnightblue" d="M404.73,-54.03C332.08,-44.95 228.4,-31.99 161.77,-23.66"/>
<polygon fill="midnightblue" stroke="midnightblue" points="404.41,-57.52 414.77,-55.28 405.28,-50.57 404.41,-57.52"/>
</g>
<!-- Node3 -->
<g id="node3" class="node">
<title>Node3</title>
<g id="a_node3"><a xlink:href="../../d7/d28/classleanux_1_1block_1_1MajorMinor.html#a6360a7c70665f9615ddb4682f96866b1" target="_top" xlink:title="get MountInfo on devices with a mounted filesystem.">
<polygon fill="none" stroke="red" points="24,-196.5 24,-226.5 167,-226.5 167,-196.5 24,-196.5"/>
<text text-anchor="start" x="32" y="-214.5" font-family="Helvetica,sans-Serif" font-size="10.00">leanux::block::MajorMinor</text>
<text text-anchor="middle" x="95.5" y="-203.5" font-family="Helvetica,sans-Serif" font-size="10.00">::getMountInfo</text>
</a>
</g>
</g>
<!-- Node2&#45;&gt;Node3 -->
<g id="edge2" class="edge">
<title>Node2&#45;&gt;Node3</title>
<path fill="none" stroke="midnightblue" d="M283.78,-123.99C262.85,-142.1 226.76,-170.81 191,-187.5 183.48,-191.01 175.38,-194.05 167.2,-196.68"/>
<polygon fill="midnightblue" stroke="midnightblue" points="286.34,-126.4 291.53,-117.17 281.71,-121.15 286.34,-126.4"/>
</g>
<!-- Node9 -->
<g id="node4" class="node">
<title>Node9</title>
<g id="a_node4"><a xlink:href="../../d8/d7f/classleanux_1_1tools_1_1lmon_1_1IOView.html#a466bf2f2261b917b31ae2664ec8fbed0" target="_top" xlink:title="provide the optimal height for the Header.">
<polygon fill="none" stroke="red" points="21,-147.5 21,-177.5 170,-177.5 170,-147.5 21,-147.5"/>
<text text-anchor="start" x="29" y="-165.5" font-family="Helvetica,sans-Serif" font-size="10.00">leanux::tools::lmon</text>
<text text-anchor="middle" x="95.5" y="-154.5" font-family="Helvetica,sans-Serif" font-size="10.00">::IOView::getOptimalHeight</text>
</a>
</g>
</g>
<!-- Node2&#45;&gt;Node9 -->
<g id="edge3" class="edge">
<title>Node2&#45;&gt;Node9</title>
<path fill="none" stroke="midnightblue" d="M258.85,-119.81C238.33,-125.59 213.43,-132.52 191,-138.5 179.88,-141.46 168,-144.55 156.54,-147.48"/>
<polygon fill="midnightblue" stroke="midnightblue" points="259.87,-123.16 268.54,-117.07 257.97,-116.42 259.87,-123.16"/>
</g>
<!-- Node2&#45;&gt;Node16 -->
<g id="edge4" class="edge">
<title>Node2&#45;&gt;Node16</title>
<path fill="none" stroke="midnightblue" d="M246.37,-95.86C222.31,-90.82 193.84,-84.87 168.22,-79.51"/>
<polygon fill="midnightblue" stroke="midnightblue" points="245.89,-99.33 256.39,-97.96 247.32,-92.48 245.89,-99.33"/>
</g>
<!-- Node19 -->
<g id="node6" class="node">
<title>Node19</title>
<g id="a_node6"><a xlink:href="../../d0/db5/classleanux_1_1tools_1_1lard_1_1MountSnap.html#a03ffa5736036aaed951d16b51d181c29" target="_top" xlink:title=" ">
<polygon fill="none" stroke="red" points="31.5,-98.5 31.5,-128.5 159.5,-128.5 159.5,-98.5 31.5,-98.5"/>
<text text-anchor="start" x="39.5" y="-116.5" font-family="Helvetica,sans-Serif" font-size="10.00">leanux::tools::lard</text>
<text text-anchor="middle" x="95.5" y="-105.5" font-family="Helvetica,sans-Serif" font-size="10.00">::MountSnap::stopSnap</text>
</a>
</g>
</g>
<!-- Node2&#45;&gt;Node19 -->
<g id="edge5" class="edge">
<title>Node2&#45;&gt;Node19</title>
<path fill="none" stroke="midnightblue" d="M216.71,-109.99C197.56,-110.55 177.59,-111.13 159.54,-111.66"/>
<polygon fill="midnightblue" stroke="midnightblue" points="217.04,-113.48 226.94,-109.69 216.84,-106.49 217.04,-113.48"/>
</g>
<!-- Node2&#45;&gt;Node23 -->
<g id="edge6" class="edge">
<title>Node2&#45;&gt;Node23</title>
<path fill="none" stroke="midnightblue" d="M280.56,-92.02C258.9,-77 224,-54.49 191,-40.5 181.7,-36.56 171.62,-33.1 161.63,-30.11"/>
<polygon fill="midnightblue" stroke="midnightblue" points="278.8,-95.06 288.99,-97.95 282.83,-89.33 278.8,-95.06"/>
</g>
</g>
</svg>
