<?xml version="1.0" encoding="UTF-8" standalone="no"?>
<!DOCTYPE svg PUBLIC "-//W3C//DTD SVG 1.1//EN"
 "http://www.w3.org/Graphics/SVG/1.1/DTD/svg11.dtd">
<!-- Generated by graphviz version 2.43.0 (0)
 -->
<!-- Title: leanux::block::enumWholeDisks Pages: 1 -->
<svg width="674pt" height="692pt"
 viewBox="0.00 0.00 674.00 691.86" xmlns="http://www.w3.org/2000/svg" xmlns:xlink="http://www.w3.org/1999/xlink">
<g id="graph0" class="graph" transform="scale(1 1) rotate(0) translate(4 687.86)">
<title>leanux::block::enumWholeDisks</title>
<!-- Node1 -->
<g id="node1" class="node">
<title>Node1</title>
<g id="a_node1"><a xlink:title="get a list of whole disks (exclude partitions).">
<polygon fill="#bfbfbf" stroke="black" points="520,-186.5 520,-216.5 666,-216.5 666,-186.5 520,-186.5"/>
<text text-anchor="start" x="528" y="-204.5" font-family="Helvetica,sans-Serif" font-size="10.00">leanux::block::enumWhole</text>
<text text-anchor="middle" x="593" y="-193.5" font-family="Helvetica,sans-Serif" font-size="10.00">Disks</text>
</a>
</g>
</g>
<!-- Node2 -->
<g id="node2" class="node">
<title>Node2</title>
<g id="a_node2"><a xlink:href="../../d2/d89/namespaceleanux_1_1tools_1_1labbix.html#a7c4d8e1b83d12c98c203c40580d1d450" target="_top" xlink:title="generate the JSON zabbix expects.">
<polygon fill="none" stroke="black" points="352.5,-570.5 352.5,-600.5 468.5,-600.5 468.5,-570.5 352.5,-570.5"/>
<text text-anchor="start" x="360.5" y="-588.5" font-family="Helvetica,sans-Serif" font-size="10.00">leanux::tools::labbix</text>
<text text-anchor="middle" x="410.5" y="-577.5" font-family="Helvetica,sans-Serif" font-size="10.00">::discovery</text>
</a>
</g>
</g>
<!-- Node1&#45;&gt;Node2 -->
<g id="edge1" class="edge">
<title>Node1&#45;&gt;Node2</title>
<path fill="none" stroke="midnightblue" d="M583.52,-225.96C566.76,-273.39 527.25,-380.75 484,-466.5 464.5,-505.17 436.82,-547.94 421.94,-570.17"/>
<polygon fill="midnightblue" stroke="midnightblue" points="586.83,-227.11 586.84,-216.52 580.22,-224.8 586.83,-227.11"/>
</g>
<!-- Node5 -->
<g id="node4" class="node">
<title>Node5</title>
<g id="a_node4"><a xlink:href="../../d2/d89/namespaceleanux_1_1tools_1_1labbix.html#a6a00f41ee62469522591d31c13035a0c" target="_top" xlink:title=" ">
<polygon fill="none" stroke="black" points="352.5,-426.5 352.5,-456.5 468.5,-456.5 468.5,-426.5 352.5,-426.5"/>
<text text-anchor="start" x="360.5" y="-444.5" font-family="Helvetica,sans-Serif" font-size="10.00">leanux::tools::labbix</text>
<text text-anchor="middle" x="410.5" y="-433.5" font-family="Helvetica,sans-Serif" font-size="10.00">::findByZabbix</text>
</a>
</g>
</g>
<!-- Node1&#45;&gt;Node5 -->
<g id="edge3" class="edge">
<title>Node1&#45;&gt;Node5</title>
<path fill="none" stroke="midnightblue" d="M574.64,-224.58C537.94,-273.38 453.36,-385.84 422.79,-426.49"/>
<polygon fill="midnightblue" stroke="midnightblue" points="577.5,-226.61 580.71,-216.51 571.9,-222.4 577.5,-226.61"/>
</g>
<!-- Node14 -->
<g id="node13" class="node">
<title>Node14</title>
<g id="a_node13"><a xlink:href="../../db/dda/classleanux_1_1tools_1_1lmon_1_1Footer.html#a5fd79b07f7441318e0a842b4b3024ee9" target="_top" xlink:title="Construct a Footer.">
<polygon fill="none" stroke="black" points="171.5,-142.5 171.5,-172.5 281.5,-172.5 281.5,-142.5 171.5,-142.5"/>
<text text-anchor="start" x="179.5" y="-160.5" font-family="Helvetica,sans-Serif" font-size="10.00">leanux::tools::lmon</text>
<text text-anchor="middle" x="226.5" y="-149.5" font-family="Helvetica,sans-Serif" font-size="10.00">::Footer::Footer</text>
</a>
</g>
</g>
<!-- Node1&#45;&gt;Node14 -->
<g id="edge20" class="edge">
<title>Node1&#45;&gt;Node14</title>
<path fill="none" stroke="midnightblue" d="M521.57,-184.35C509.11,-181.75 496.22,-179.32 484,-177.5 414.64,-167.14 333.88,-161.97 281.79,-159.51"/>
<polygon fill="midnightblue" stroke="midnightblue" points="520.94,-187.8 531.45,-186.47 522.41,-180.95 520.94,-187.8"/>
</g>
<!-- Node15 -->
<g id="node14" class="node">
<title>Node15</title>
<g id="a_node14"><a xlink:href="../../d5/d01/namespaceleanux_1_1block.html#ad1f8b6bad222a975b5885a0fff510848" target="_top" xlink:title="total attached storage.">
<polygon fill="none" stroke="black" points="337,-186.5 337,-216.5 484,-216.5 484,-186.5 337,-186.5"/>
<text text-anchor="start" x="345" y="-204.5" font-family="Helvetica,sans-Serif" font-size="10.00">leanux::block::getAttached</text>
<text text-anchor="middle" x="410.5" y="-193.5" font-family="Helvetica,sans-Serif" font-size="10.00">StorageSize</text>
</a>
</g>
</g>
<!-- Node1&#45;&gt;Node15 -->
<g id="edge21" class="edge">
<title>Node1&#45;&gt;Node15</title>
<path fill="none" stroke="midnightblue" d="M509.86,-201.5C501.26,-201.5 492.57,-201.5 484.09,-201.5"/>
<polygon fill="midnightblue" stroke="midnightblue" points="509.88,-205 519.88,-201.5 509.88,-198 509.88,-205"/>
</g>
<!-- Node16 -->
<g id="node15" class="node">
<title>Node16</title>
<g id="a_node15"><a xlink:href="../../d6/dd3/namespaceleanux_1_1tools_1_1lrep.html#aa664245209dbbb081139c961a4c6d878" target="_top" xlink:title="generate system details html.">
<polygon fill="none" stroke="black" points="168.5,-191.5 168.5,-221.5 284.5,-221.5 284.5,-191.5 168.5,-191.5"/>
<text text-anchor="start" x="176.5" y="-209.5" font-family="Helvetica,sans-Serif" font-size="10.00">leanux::tools::lrep</text>
<text text-anchor="middle" x="226.5" y="-198.5" font-family="Helvetica,sans-Serif" font-size="10.00">::htmlSystemDetails</text>
</a>
</g>
</g>
<!-- Node1&#45;&gt;Node16 -->
<g id="edge29" class="edge">
<title>Node1&#45;&gt;Node16</title>
<path fill="none" stroke="midnightblue" d="M528.21,-218.79C513.78,-222 498.45,-224.85 484,-226.5 419.09,-233.91 402.07,-232.39 337,-226.5 319.87,-224.95 301.42,-222.06 284.63,-218.95"/>
<polygon fill="midnightblue" stroke="midnightblue" points="529.07,-222.18 538.03,-216.53 527.5,-215.36 529.07,-222.18"/>
</g>
<!-- Node19 -->
<g id="node17" class="node">
<title>Node19</title>
<g id="a_node17"><a xlink:href="../../d5/d01/namespaceleanux_1_1block.html#a7a67938374b78be3e0d9777ae699cdb0" target="_top" xlink:title="Get the number of attached whole disks.">
<polygon fill="none" stroke="black" points="337,-49.5 337,-79.5 484,-79.5 484,-49.5 337,-49.5"/>
<text text-anchor="start" x="345" y="-67.5" font-family="Helvetica,sans-Serif" font-size="10.00">leanux::block::getAttached</text>
<text text-anchor="middle" x="410.5" y="-56.5" font-family="Helvetica,sans-Serif" font-size="10.00">WholeDisks</text>
</a>
</g>
</g>
<!-- Node1&#45;&gt;Node19 -->
<g id="edge25" class="edge">
<title>Node1&#45;&gt;Node19</title>
<path fill="none" stroke="midnightblue" d="M574.86,-178.01C555.41,-152.87 521.48,-113.41 484,-89.5 478.05,-85.71 471.46,-82.41 464.74,-79.57"/>
<polygon fill="midnightblue" stroke="midnightblue" points="572.29,-180.4 581.12,-186.25 577.86,-176.17 572.29,-180.4"/>
</g>
<!-- Node27 -->
<g id="node19" class="node">
<title>Node27</title>
<g id="a_node19"><a xlink:href="../../d6/dd3/namespaceleanux_1_1tools_1_1lrep.html#ab9b4bc8a1806ab977597271e15f34c11" target="_top" xlink:title=" ">
<polygon fill="none" stroke="black" points="358.5,-98.5 358.5,-128.5 462.5,-128.5 462.5,-98.5 358.5,-98.5"/>
<text text-anchor="start" x="366.5" y="-116.5" font-family="Helvetica,sans-Serif" font-size="10.00">leanux::tools::lrep</text>
<text text-anchor="middle" x="410.5" y="-105.5" font-family="Helvetica,sans-Serif" font-size="10.00">::htmlDiskDetails</text>
</a>
</g>
</g>
<!-- Node1&#45;&gt;Node27 -->
<g id="edge27" class="edge">
<title>Node1&#45;&gt;Node27</title>
<path fill="none" stroke="midnightblue" d="M556.91,-181.5C536.01,-169.88 508.79,-155.25 484,-143.5 473.04,-138.31 460.94,-133.1 449.82,-128.51"/>
<polygon fill="midnightblue" stroke="midnightblue" points="555.31,-184.62 565.75,-186.44 558.73,-178.51 555.31,-184.62"/>
</g>
<!-- Node28 -->
<g id="node20" class="node">
<title>Node28</title>
<g id="a_node20"><a xlink:href="../../d5/d01/namespaceleanux_1_1block.html#a927d958ef9b9b66a13c32754e91d0c7d" target="_top" xlink:title="Initialize the block API.">
<polygon fill="none" stroke="black" points="358.5,-274 358.5,-293 462.5,-293 462.5,-274 358.5,-274"/>
<text text-anchor="middle" x="410.5" y="-281" font-family="Helvetica,sans-Serif" font-size="10.00">leanux::block::init</text>
</a>
</g>
</g>
<!-- Node1&#45;&gt;Node28 -->
<g id="edge30" class="edge">
<title>Node1&#45;&gt;Node28</title>
<path fill="none" stroke="midnightblue" d="M558.06,-221.69C537.15,-233.63 509.55,-248.51 484,-259.5 471.33,-264.95 456.99,-269.93 444.43,-273.93"/>
<polygon fill="midnightblue" stroke="midnightblue" points="559.96,-224.64 566.87,-216.61 556.46,-218.57 559.96,-224.64"/>
</g>
<!-- Node36 -->
<g id="node22" class="node">
<title>Node36</title>
<g id="a_node22"><a xlink:href="../../d5/d1b/namespaceleanux_1_1tools_1_1lblk.html#a73d92bf0717d3dece131f9cf718de164" target="_top" xlink:title="Table listing all disks.">
<polygon fill="none" stroke="black" points="358.5,-0.5 358.5,-30.5 462.5,-30.5 462.5,-0.5 358.5,-0.5"/>
<text text-anchor="start" x="366.5" y="-18.5" font-family="Helvetica,sans-Serif" font-size="10.00">leanux::tools::lblk</text>
<text text-anchor="middle" x="410.5" y="-7.5" font-family="Helvetica,sans-Serif" font-size="10.00">::listAllDisks</text>
</a>
</g>
</g>
<!-- Node1&#45;&gt;Node36 -->
<g id="edge34" class="edge">
<title>Node1&#45;&gt;Node36</title>
<path fill="none" stroke="midnightblue" d="M581.71,-176.48C565.86,-140.98 532.2,-76.24 484,-39.5 477.67,-34.68 470.33,-30.8 462.79,-27.68"/>
<polygon fill="midnightblue" stroke="midnightblue" points="578.68,-178.3 585.87,-186.08 585.1,-175.52 578.68,-178.3"/>
</g>
<!-- Node3 -->
<g id="node3" class="node">
<title>Node3</title>
<g id="a_node3"><a xlink:href="../../d2/d89/namespaceleanux_1_1tools_1_1labbix.html#a482626b839aaf80a44f973eed61b69a6" target="_top" xlink:title=" ">
<polygon fill="none" stroke="red" points="0,-450.5 0,-480.5 116,-480.5 116,-450.5 0,-450.5"/>
<text text-anchor="start" x="8" y="-468.5" font-family="Helvetica,sans-Serif" font-size="10.00">leanux::tools::labbix</text>
<text text-anchor="middle" x="58" y="-457.5" font-family="Helvetica,sans-Serif" font-size="10.00">::main</text>
</a>
</g>
</g>
<!-- Node2&#45;&gt;Node3 -->
<g id="edge2" class="edge">
<title>Node2&#45;&gt;Node3</title>
<path fill="none" stroke="midnightblue" d="M387.18,-607.75C366.73,-626.45 334.61,-651.79 301,-662.5 237.91,-682.61 207.94,-697.95 152,-662.5 86.35,-620.9 66.17,-519.14 60.77,-480.62"/>
<polygon fill="midnightblue" stroke="midnightblue" points="389.79,-610.1 394.69,-600.71 385,-605 389.79,-610.1"/>
</g>
<!-- Node6 -->
<g id="node5" class="node">
<title>Node6</title>
<g id="a_node5"><a xlink:href="../../d2/d89/namespaceleanux_1_1tools_1_1labbix.html#aea87f0c72ad32fa0b12a485e8f265e3a" target="_top" xlink:title=" ">
<polygon fill="none" stroke="black" points="168.5,-279.5 168.5,-309.5 284.5,-309.5 284.5,-279.5 168.5,-279.5"/>
<text text-anchor="start" x="176.5" y="-297.5" font-family="Helvetica,sans-Serif" font-size="10.00">leanux::tools::labbix</text>
<text text-anchor="middle" x="226.5" y="-286.5" font-family="Helvetica,sans-Serif" font-size="10.00">::getIOms</text>
</a>
</g>
</g>
<!-- Node5&#45;&gt;Node6 -->
<g id="edge4" class="edge">
<title>Node5&#45;&gt;Node6</title>
<path fill="none" stroke="midnightblue" d="M394.22,-417.94C375.38,-390.62 340.89,-345.97 301,-319.5 295.27,-315.7 288.91,-312.42 282.39,-309.61"/>
<polygon fill="midnightblue" stroke="midnightblue" points="391.5,-420.16 400,-426.49 397.3,-416.24 391.5,-420.16"/>
</g>
<!-- Node7 -->
<g id="node6" class="node">
<title>Node7</title>
<g id="a_node6"><a xlink:href="../../d2/d89/namespaceleanux_1_1tools_1_1labbix.html#aa6367c0ce0a9370f9b5b0b2d805f3768" target="_top" xlink:title=" ">
<polygon fill="none" stroke="black" points="168.5,-622.5 168.5,-652.5 284.5,-652.5 284.5,-622.5 168.5,-622.5"/>
<text text-anchor="start" x="176.5" y="-640.5" font-family="Helvetica,sans-Serif" font-size="10.00">leanux::tools::labbix</text>
<text text-anchor="middle" x="226.5" y="-629.5" font-family="Helvetica,sans-Serif" font-size="10.00">::getIOs</text>
</a>
</g>
</g>
<!-- Node5&#45;&gt;Node7 -->
<g id="edge6" class="edge">
<title>Node5&#45;&gt;Node7</title>
<path fill="none" stroke="midnightblue" d="M394.94,-465.53C366.94,-511.59 307.77,-608.22 301,-613.5 296.02,-617.38 290.4,-620.64 284.53,-623.38"/>
<polygon fill="midnightblue" stroke="midnightblue" points="398.05,-467.14 400.25,-456.78 392.07,-463.51 398.05,-467.14"/>
</g>
<!-- Node8 -->
<g id="node7" class="node">
<title>Node8</title>
<g id="a_node7"><a xlink:href="../../d2/d89/namespaceleanux_1_1tools_1_1labbix.html#a4ed156d3dd393c88023d89cb3de4f327" target="_top" xlink:title=" ">
<polygon fill="none" stroke="black" points="168.5,-573.5 168.5,-603.5 284.5,-603.5 284.5,-573.5 168.5,-573.5"/>
<text text-anchor="start" x="176.5" y="-591.5" font-family="Helvetica,sans-Serif" font-size="10.00">leanux::tools::labbix</text>
<text text-anchor="middle" x="226.5" y="-580.5" font-family="Helvetica,sans-Serif" font-size="10.00">::getReadms</text>
</a>
</g>
</g>
<!-- Node5&#45;&gt;Node8 -->
<g id="edge8" class="edge">
<title>Node5&#45;&gt;Node8</title>
<path fill="none" stroke="midnightblue" d="M394.32,-465.35C375.57,-492.97 341.18,-538.07 301,-564.5 295.84,-567.89 290.16,-570.84 284.32,-573.4"/>
<polygon fill="midnightblue" stroke="midnightblue" points="397.45,-466.96 400.07,-456.7 391.62,-463.09 397.45,-466.96"/>
</g>
<!-- Node9 -->
<g id="node8" class="node">
<title>Node9</title>
<g id="a_node8"><a xlink:href="../../d2/d89/namespaceleanux_1_1tools_1_1labbix.html#a5119e01f3f750e313aa39b2091560502" target="_top" xlink:title=" ">
<polygon fill="none" stroke="black" points="168.5,-524.5 168.5,-554.5 284.5,-554.5 284.5,-524.5 168.5,-524.5"/>
<text text-anchor="start" x="176.5" y="-542.5" font-family="Helvetica,sans-Serif" font-size="10.00">leanux::tools::labbix</text>
<text text-anchor="middle" x="226.5" y="-531.5" font-family="Helvetica,sans-Serif" font-size="10.00">::getReads</text>
</a>
</g>
</g>
<!-- Node5&#45;&gt;Node9 -->
<g id="edge10" class="edge">
<title>Node5&#45;&gt;Node9</title>
<path fill="none" stroke="midnightblue" d="M382.74,-462.94C361.54,-479.1 330.67,-500.91 301,-515.5 294.38,-518.76 287.2,-521.72 280.03,-524.37"/>
<polygon fill="midnightblue" stroke="midnightblue" points="385.15,-465.5 390.91,-456.61 380.86,-459.96 385.15,-465.5"/>
</g>
<!-- Node10 -->
<g id="node9" class="node">
<title>Node10</title>
<g id="a_node9"><a xlink:href="../../d2/d89/namespaceleanux_1_1tools_1_1labbix.html#a2a148cecfe8dcf3c00e0bb19f57044f3" target="_top" xlink:title=" ">
<polygon fill="none" stroke="black" points="168.5,-475.5 168.5,-505.5 284.5,-505.5 284.5,-475.5 168.5,-475.5"/>
<text text-anchor="start" x="176.5" y="-493.5" font-family="Helvetica,sans-Serif" font-size="10.00">leanux::tools::labbix</text>
<text text-anchor="middle" x="226.5" y="-482.5" font-family="Helvetica,sans-Serif" font-size="10.00">::getReadSectors</text>
</a>
</g>
</g>
<!-- Node5&#45;&gt;Node10 -->
<g id="edge12" class="edge">
<title>Node5&#45;&gt;Node10</title>
<path fill="none" stroke="midnightblue" d="M343.58,-459.25C323.85,-464.56 302.42,-470.33 283.41,-475.45"/>
<polygon fill="midnightblue" stroke="midnightblue" points="344.66,-462.58 353.41,-456.6 342.84,-455.82 344.66,-462.58"/>
</g>
<!-- Node11 -->
<g id="node10" class="node">
<title>Node11</title>
<g id="a_node10"><a xlink:href="../../d2/d89/namespaceleanux_1_1tools_1_1labbix.html#aac6bd9b75ac1a266cc601b0245013aa8" target="_top" xlink:title=" ">
<polygon fill="none" stroke="black" points="168.5,-426.5 168.5,-456.5 284.5,-456.5 284.5,-426.5 168.5,-426.5"/>
<text text-anchor="start" x="176.5" y="-444.5" font-family="Helvetica,sans-Serif" font-size="10.00">leanux::tools::labbix</text>
<text text-anchor="middle" x="226.5" y="-433.5" font-family="Helvetica,sans-Serif" font-size="10.00">::getWritems</text>
</a>
</g>
</g>
<!-- Node5&#45;&gt;Node11 -->
<g id="edge14" class="edge">
<title>Node5&#45;&gt;Node11</title>
<path fill="none" stroke="midnightblue" d="M342.37,-441.5C323.42,-441.5 303,-441.5 284.7,-441.5"/>
<polygon fill="midnightblue" stroke="midnightblue" points="342.41,-445 352.41,-441.5 342.41,-438 342.41,-445"/>
</g>
<!-- Node12 -->
<g id="node11" class="node">
<title>Node12</title>
<g id="a_node11"><a xlink:href="../../d2/d89/namespaceleanux_1_1tools_1_1labbix.html#ae7137e2b91a00754bf3f74b6cc7be8f0" target="_top" xlink:title=" ">
<polygon fill="none" stroke="black" points="168.5,-377.5 168.5,-407.5 284.5,-407.5 284.5,-377.5 168.5,-377.5"/>
<text text-anchor="start" x="176.5" y="-395.5" font-family="Helvetica,sans-Serif" font-size="10.00">leanux::tools::labbix</text>
<text text-anchor="middle" x="226.5" y="-384.5" font-family="Helvetica,sans-Serif" font-size="10.00">::getWrites</text>
</a>
</g>
</g>
<!-- Node5&#45;&gt;Node12 -->
<g id="edge16" class="edge">
<title>Node5&#45;&gt;Node12</title>
<path fill="none" stroke="midnightblue" d="M343.58,-423.75C323.85,-418.44 302.42,-412.67 283.41,-407.55"/>
<polygon fill="midnightblue" stroke="midnightblue" points="342.84,-427.18 353.41,-426.4 344.66,-420.42 342.84,-427.18"/>
</g>
<!-- Node13 -->
<g id="node12" class="node">
<title>Node13</title>
<g id="a_node12"><a xlink:href="../../d2/d89/namespaceleanux_1_1tools_1_1labbix.html#a89bf8cba18d6ec80534e7fbef8b19496" target="_top" xlink:title=" ">
<polygon fill="none" stroke="black" points="168.5,-328.5 168.5,-358.5 284.5,-358.5 284.5,-328.5 168.5,-328.5"/>
<text text-anchor="start" x="176.5" y="-346.5" font-family="Helvetica,sans-Serif" font-size="10.00">leanux::tools::labbix</text>
<text text-anchor="middle" x="226.5" y="-335.5" font-family="Helvetica,sans-Serif" font-size="10.00">::getWriteSectors</text>
</a>
</g>
</g>
<!-- Node5&#45;&gt;Node13 -->
<g id="edge18" class="edge">
<title>Node5&#45;&gt;Node13</title>
<path fill="none" stroke="midnightblue" d="M382.25,-420.19C361.02,-404.34 330.32,-383.03 301,-368.5 293.63,-364.85 285.6,-361.52 277.65,-358.56"/>
<polygon fill="midnightblue" stroke="midnightblue" points="380.37,-423.16 390.46,-426.4 384.6,-417.57 380.37,-423.16"/>
</g>
<!-- Node6&#45;&gt;Node3 -->
<g id="edge5" class="edge">
<title>Node6&#45;&gt;Node3</title>
<path fill="none" stroke="midnightblue" d="M159.65,-314.22C156.98,-315.85 154.41,-317.6 152,-319.5 106.15,-355.51 76.38,-420.79 64.65,-450.29"/>
<polygon fill="midnightblue" stroke="midnightblue" points="161.34,-317.29 168.48,-309.46 158.02,-311.12 161.34,-317.29"/>
</g>
<!-- Node7&#45;&gt;Node3 -->
<g id="edge7" class="edge">
<title>Node7&#45;&gt;Node3</title>
<path fill="none" stroke="midnightblue" d="M159.38,-618.56C156.81,-617 154.33,-615.32 152,-613.5 105.35,-577.09 75.81,-510.28 64.38,-480.5"/>
<polygon fill="midnightblue" stroke="midnightblue" points="157.99,-621.79 168.47,-623.39 161.28,-615.61 157.99,-621.79"/>
</g>
<!-- Node8&#45;&gt;Node3 -->
<g id="edge9" class="edge">
<title>Node8&#45;&gt;Node3</title>
<path fill="none" stroke="midnightblue" d="M160.06,-569.12C157.28,-567.68 154.58,-566.14 152,-564.5 116.37,-541.86 85.1,-502.48 69.51,-480.84"/>
<polygon fill="midnightblue" stroke="midnightblue" points="158.63,-572.31 169.17,-573.4 161.61,-565.98 158.63,-572.31"/>
</g>
<!-- Node9&#45;&gt;Node3 -->
<g id="edge11" class="edge">
<title>Node9&#45;&gt;Node3</title>
<path fill="none" stroke="midnightblue" d="M165.65,-520.95C160.99,-519.2 156.4,-517.38 152,-515.5 128.24,-505.33 102.44,-491.19 84.06,-480.55"/>
<polygon fill="midnightblue" stroke="midnightblue" points="164.65,-524.31 175.24,-524.41 167.02,-517.72 164.65,-524.31"/>
</g>
<!-- Node10&#45;&gt;Node3 -->
<g id="edge13" class="edge">
<title>Node10&#45;&gt;Node3</title>
<path fill="none" stroke="midnightblue" d="M158.18,-480.39C144.23,-478.3 129.66,-476.11 116.12,-474.08"/>
<polygon fill="midnightblue" stroke="midnightblue" points="157.79,-483.87 168.2,-481.9 158.83,-476.95 157.79,-483.87"/>
</g>
<!-- Node11&#45;&gt;Node3 -->
<g id="edge15" class="edge">
<title>Node11&#45;&gt;Node3</title>
<path fill="none" stroke="midnightblue" d="M158.18,-451.2C144.23,-453.21 129.66,-455.31 116.12,-457.27"/>
<polygon fill="midnightblue" stroke="midnightblue" points="158.8,-454.65 168.2,-449.76 157.8,-447.72 158.8,-454.65"/>
</g>
<!-- Node12&#45;&gt;Node3 -->
<g id="edge17" class="edge">
<title>Node12&#45;&gt;Node3</title>
<path fill="none" stroke="midnightblue" d="M167.91,-411.17C162.49,-413.2 157.12,-415.32 152,-417.5 129.09,-427.24 104.07,-440.3 85.76,-450.34"/>
<polygon fill="midnightblue" stroke="midnightblue" points="169.46,-414.33 177.66,-407.62 167.07,-407.75 169.46,-414.33"/>
</g>
<!-- Node13&#45;&gt;Node3 -->
<g id="edge19" class="edge">
<title>Node13&#45;&gt;Node3</title>
<path fill="none" stroke="midnightblue" d="M161.88,-362.91C158.46,-364.64 155.14,-366.5 152,-368.5 116.97,-390.81 85.69,-428.99 69.89,-450.19"/>
<polygon fill="midnightblue" stroke="midnightblue" points="163.51,-366.02 171.13,-358.65 160.58,-359.66 163.51,-366.02"/>
</g>
<!-- Node15&#45;&gt;Node14 -->
<g id="edge22" class="edge">
<title>Node15&#45;&gt;Node14</title>
<path fill="none" stroke="midnightblue" d="M337.49,-184.09C318.92,-179.6 299.24,-174.84 281.74,-170.61"/>
<polygon fill="midnightblue" stroke="midnightblue" points="336.83,-187.53 347.37,-186.48 338.48,-180.73 336.83,-187.53"/>
</g>
<!-- Node15&#45;&gt;Node16 -->
<g id="edge23" class="edge">
<title>Node15&#45;&gt;Node16</title>
<path fill="none" stroke="midnightblue" d="M326.55,-203.78C312.39,-204.17 297.98,-204.56 284.69,-204.93"/>
<polygon fill="midnightblue" stroke="midnightblue" points="326.88,-207.27 336.78,-203.5 326.69,-200.27 326.88,-207.27"/>
</g>
<!-- Node17 -->
<g id="node16" class="node">
<title>Node17</title>
<g id="a_node16"><a xlink:href="../../d6/dd3/namespaceleanux_1_1tools_1_1lrep.html#aa0e1422d8d75831ea3801ffa728bf436" target="_top" xlink:title=" ">
<polygon fill="none" stroke="red" points="6,-191.5 6,-221.5 110,-221.5 110,-191.5 6,-191.5"/>
<text text-anchor="start" x="14" y="-209.5" font-family="Helvetica,sans-Serif" font-size="10.00">leanux::tools::lrep</text>
<text text-anchor="middle" x="58" y="-198.5" font-family="Helvetica,sans-Serif" font-size="10.00">::main</text>
</a>
</g>
</g>
<!-- Node16&#45;&gt;Node17 -->
<g id="edge24" class="edge">
<title>Node16&#45;&gt;Node17</title>
<path fill="none" stroke="midnightblue" d="M157.89,-206.5C142,-206.5 125.31,-206.5 110.27,-206.5"/>
<polygon fill="midnightblue" stroke="midnightblue" points="158.2,-210 168.2,-206.5 158.2,-203 158.2,-210"/>
</g>
<!-- Node20 -->
<g id="node18" class="node">
<title>Node20</title>
<g id="a_node18"><a xlink:href="../../d8/d7f/classleanux_1_1tools_1_1lmon_1_1IOView.html#a466bf2f2261b917b31ae2664ec8fbed0" target="_top" xlink:title="provide the optimal height for the Header.">
<polygon fill="none" stroke="red" points="152,-49.5 152,-79.5 301,-79.5 301,-49.5 152,-49.5"/>
<text text-anchor="start" x="160" y="-67.5" font-family="Helvetica,sans-Serif" font-size="10.00">leanux::tools::lmon</text>
<text text-anchor="middle" x="226.5" y="-56.5" font-family="Helvetica,sans-Serif" font-size="10.00">::IOView::getOptimalHeight</text>
</a>
</g>
</g>
<!-- Node19&#45;&gt;Node20 -->
<g id="edge26" class="edge">
<title>Node19&#45;&gt;Node20</title>
<path fill="none" stroke="midnightblue" d="M326.57,-64.5C318.14,-64.5 309.61,-64.5 301.29,-64.5"/>
<polygon fill="midnightblue" stroke="midnightblue" points="326.78,-68 336.78,-64.5 326.78,-61 326.78,-68"/>
</g>
<!-- Node27&#45;&gt;Node17 -->
<g id="edge28" class="edge">
<title>Node27&#45;&gt;Node17</title>
<path fill="none" stroke="midnightblue" d="M348.18,-108.48C294.58,-106.34 215.59,-108.73 152,-133.5 119.68,-146.09 89.5,-173.87 72.72,-191.3"/>
<polygon fill="midnightblue" stroke="midnightblue" points="348.07,-111.98 358.22,-108.94 348.39,-104.98 348.07,-111.98"/>
</g>
<!-- Node29 -->
<g id="node21" class="node">
<title>Node29</title>
<g id="a_node21"><a xlink:href="../../d2/dd1/namespaceleanux.html#a757c5a3a5fb84a0ab93de54fd0c8db30" target="_top" xlink:title="Initialize leanux, run checks to verify leanux is compatible with the runtime environment.">
<polygon fill="none" stroke="red" points="191,-241 191,-260 262,-260 262,-241 191,-241"/>
<text text-anchor="middle" x="226.5" y="-248" font-family="Helvetica,sans-Serif" font-size="10.00">leanux::init</text>
</a>
</g>
</g>
<!-- Node28&#45;&gt;Node29 -->
<g id="edge31" class="edge">
<title>Node28&#45;&gt;Node29</title>
<path fill="none" stroke="midnightblue" d="M348.38,-272.42C319.68,-267.21 286.52,-261.2 262.2,-256.79"/>
<polygon fill="midnightblue" stroke="midnightblue" points="347.85,-275.88 358.32,-274.22 349.1,-268.99 347.85,-275.88"/>
</g>
<!-- Node29&#45;&gt;Node3 -->
<g id="edge32" class="edge">
<title>Node29&#45;&gt;Node3</title>
<path fill="none" stroke="midnightblue" d="M180.98,-256.13C170.62,-259.1 160.23,-263.63 152,-270.5 93.41,-319.42 69.2,-413.79 61.74,-450.43"/>
<polygon fill="midnightblue" stroke="midnightblue" points="181.94,-259.49 190.83,-253.72 180.28,-252.69 181.94,-259.49"/>
</g>
<!-- Node29&#45;&gt;Node17 -->
<g id="edge33" class="edge">
<title>Node29&#45;&gt;Node17</title>
<path fill="none" stroke="midnightblue" d="M180.97,-239.06C171.41,-236.59 161.36,-233.97 152,-231.5 138.42,-227.92 123.74,-224 110.14,-220.34"/>
<polygon fill="midnightblue" stroke="midnightblue" points="180.15,-242.47 190.71,-241.58 181.9,-235.69 180.15,-242.47"/>
</g>
<!-- Node37 -->
<g id="node23" class="node">
<title>Node37</title>
<g id="a_node23"><a xlink:href="../../d5/d1b/namespaceleanux_1_1tools_1_1lblk.html#aafee1346a1081bfa4f7470f921cd66b8" target="_top" xlink:title="Direct output run from options.">
<polygon fill="none" stroke="red" points="174.5,-0.5 174.5,-30.5 278.5,-30.5 278.5,-0.5 174.5,-0.5"/>
<text text-anchor="start" x="182.5" y="-18.5" font-family="Helvetica,sans-Serif" font-size="10.00">leanux::tools::lblk</text>
<text text-anchor="middle" x="226.5" y="-7.5" font-family="Helvetica,sans-Serif" font-size="10.00">::runOptions</text>
</a>
</g>
</g>
<!-- Node36&#45;&gt;Node37 -->
<g id="edge35" class="edge">
<title>Node36&#45;&gt;Node37</title>
<path fill="none" stroke="midnightblue" d="M348.15,-15.5C325.55,-15.5 300.21,-15.5 278.61,-15.5"/>
<polygon fill="midnightblue" stroke="midnightblue" points="348.32,-19 358.32,-15.5 348.32,-12 348.32,-19"/>
</g>
</g>
</svg>
