<?xml version="1.0" encoding="UTF-8" standalone="no"?>
<!DOCTYPE svg PUBLIC "-//W3C//DTD SVG 1.1//EN"
 "http://www.w3.org/Graphics/SVG/1.1/DTD/svg11.dtd">
<!-- Generated by graphviz version 2.43.0 (0)
 -->
<!-- Title: leanux::block::getStats Pages: 1 -->
<svg width="548pt" height="235pt"
 viewBox="0.00 0.00 548.00 235.00" xmlns="http://www.w3.org/2000/svg" xmlns:xlink="http://www.w3.org/1999/xlink">
<g id="graph0" class="graph" transform="scale(1 1) rotate(0) translate(4 231)">
<title>leanux::block::getStats</title>
<!-- Node1 -->
<g id="node1" class="node">
<title>Node1</title>
<g id="a_node1"><a xlink:title="get block device statistics into a DeviceStatsMap.">
<polygon fill="#bfbfbf" stroke="black" points="412,-104 412,-123 540,-123 540,-104 412,-104"/>
<text text-anchor="middle" x="476" y="-111" font-family="Helvetica,sans-Serif" font-size="10.00">leanux::block::getStats</text>
</a>
</g>
</g>
<!-- Node2 -->
<g id="node2" class="node">
<title>Node2</title>
<g id="a_node2"><a xlink:href="../../da/d21/classleanux_1_1tools_1_1lmon_1_1RealtimeSampler.html#ae43e18aacfceb09eb9bd70db9c67fc98" target="_top" xlink:title=" ">
<polygon fill="none" stroke="black" points="185,-196.5 185,-226.5 376,-226.5 376,-196.5 185,-196.5"/>
<text text-anchor="start" x="193" y="-214.5" font-family="Helvetica,sans-Serif" font-size="10.00">leanux::tools::lmon</text>
<text text-anchor="middle" x="280.5" y="-203.5" font-family="Helvetica,sans-Serif" font-size="10.00">::RealtimeSampler::sampleXIOView</text>
</a>
</g>
</g>
<!-- Node1&#45;&gt;Node2 -->
<g id="edge1" class="edge">
<title>Node1&#45;&gt;Node2</title>
<path fill="none" stroke="midnightblue" d="M457.46,-130.04C438.69,-146.86 407.38,-172.52 376,-187.5 368.82,-190.93 361.09,-193.9 353.26,-196.48"/>
<polygon fill="midnightblue" stroke="midnightblue" points="459.9,-132.55 464.92,-123.22 455.18,-127.38 459.9,-132.55"/>
</g>
<!-- Node8 -->
<g id="node4" class="node">
<title>Node8</title>
<g id="a_node4"><a xlink:href="../../d8/d77/classleanux_1_1tools_1_1lard_1_1IOSnap.html#aaa09ea465f8fc251716e47382551cf13" target="_top" xlink:title=" ">
<polygon fill="none" stroke="black" points="225.5,-147.5 225.5,-177.5 335.5,-177.5 335.5,-147.5 225.5,-147.5"/>
<text text-anchor="start" x="233.5" y="-165.5" font-family="Helvetica,sans-Serif" font-size="10.00">leanux::tools::lard</text>
<text text-anchor="middle" x="280.5" y="-154.5" font-family="Helvetica,sans-Serif" font-size="10.00">::IOSnap::startSnap</text>
</a>
</g>
</g>
<!-- Node1&#45;&gt;Node8 -->
<g id="edge3" class="edge">
<title>Node1&#45;&gt;Node8</title>
<path fill="none" stroke="midnightblue" d="M427.36,-125.56C399.59,-132.6 364.47,-141.49 335.65,-148.79"/>
<polygon fill="midnightblue" stroke="midnightblue" points="428.4,-128.91 437.23,-123.06 426.68,-122.13 428.4,-128.91"/>
</g>
<!-- Node12 -->
<g id="node6" class="node">
<title>Node12</title>
<g id="a_node6"><a xlink:href="../../d0/db5/classleanux_1_1tools_1_1lard_1_1MountSnap.html#a934aedfb855a789ff7039b23112c4ae1" target="_top" xlink:title=" ">
<polygon fill="none" stroke="black" points="215.5,-98.5 215.5,-128.5 345.5,-128.5 345.5,-98.5 215.5,-98.5"/>
<text text-anchor="start" x="223.5" y="-116.5" font-family="Helvetica,sans-Serif" font-size="10.00">leanux::tools::lard</text>
<text text-anchor="middle" x="280.5" y="-105.5" font-family="Helvetica,sans-Serif" font-size="10.00">::MountSnap::startSnap</text>
</a>
</g>
</g>
<!-- Node1&#45;&gt;Node12 -->
<g id="edge5" class="edge">
<title>Node1&#45;&gt;Node12</title>
<path fill="none" stroke="midnightblue" d="M401.82,-113.5C383.41,-113.5 363.78,-113.5 345.83,-113.5"/>
<polygon fill="midnightblue" stroke="midnightblue" points="401.91,-117 411.91,-113.5 401.91,-110 401.91,-117"/>
</g>
<!-- Node13 -->
<g id="node7" class="node">
<title>Node13</title>
<g id="a_node7"><a xlink:href="../../d8/d77/classleanux_1_1tools_1_1lard_1_1IOSnap.html#ab020781eb6e152bf9b884a4000d7e923" target="_top" xlink:title=" ">
<polygon fill="none" stroke="black" points="226.5,-49.5 226.5,-79.5 334.5,-79.5 334.5,-49.5 226.5,-49.5"/>
<text text-anchor="start" x="234.5" y="-67.5" font-family="Helvetica,sans-Serif" font-size="10.00">leanux::tools::lard</text>
<text text-anchor="middle" x="280.5" y="-56.5" font-family="Helvetica,sans-Serif" font-size="10.00">::IOSnap::stopSnap</text>
</a>
</g>
</g>
<!-- Node1&#45;&gt;Node13 -->
<g id="edge7" class="edge">
<title>Node1&#45;&gt;Node13</title>
<path fill="none" stroke="midnightblue" d="M427.24,-101.41C399.13,-94.29 363.53,-85.27 334.54,-77.93"/>
<polygon fill="midnightblue" stroke="midnightblue" points="426.68,-104.87 437.23,-103.94 428.4,-98.09 426.68,-104.87"/>
</g>
<!-- Node14 -->
<g id="node8" class="node">
<title>Node14</title>
<g id="a_node8"><a xlink:href="../../d0/db5/classleanux_1_1tools_1_1lard_1_1MountSnap.html#a03ffa5736036aaed951d16b51d181c29" target="_top" xlink:title=" ">
<polygon fill="none" stroke="black" points="216.5,-0.5 216.5,-30.5 344.5,-30.5 344.5,-0.5 216.5,-0.5"/>
<text text-anchor="start" x="224.5" y="-18.5" font-family="Helvetica,sans-Serif" font-size="10.00">leanux::tools::lard</text>
<text text-anchor="middle" x="280.5" y="-7.5" font-family="Helvetica,sans-Serif" font-size="10.00">::MountSnap::stopSnap</text>
</a>
</g>
</g>
<!-- Node1&#45;&gt;Node14 -->
<g id="edge9" class="edge">
<title>Node1&#45;&gt;Node14</title>
<path fill="none" stroke="midnightblue" d="M457.39,-97.26C438.56,-80.72 407.2,-55.46 376,-40.5 366.21,-35.81 355.4,-31.9 344.71,-28.67"/>
<polygon fill="midnightblue" stroke="midnightblue" points="455.09,-99.9 464.88,-103.96 459.76,-94.68 455.09,-99.9"/>
</g>
<!-- Node3 -->
<g id="node3" class="node">
<title>Node3</title>
<g id="a_node3"><a xlink:href="../../da/d21/classleanux_1_1tools_1_1lmon_1_1RealtimeSampler.html#a9522a4a46961eb4f75d3207da1efd07f" target="_top" xlink:title="Sample a snapshot.">
<polygon fill="none" stroke="red" points="0,-196.5 0,-226.5 149,-226.5 149,-196.5 0,-196.5"/>
<text text-anchor="start" x="8" y="-214.5" font-family="Helvetica,sans-Serif" font-size="10.00">leanux::tools::lmon</text>
<text text-anchor="middle" x="74.5" y="-203.5" font-family="Helvetica,sans-Serif" font-size="10.00">::RealtimeSampler::sample</text>
</a>
</g>
</g>
<!-- Node2&#45;&gt;Node3 -->
<g id="edge2" class="edge">
<title>Node2&#45;&gt;Node3</title>
<path fill="none" stroke="midnightblue" d="M174.83,-211.5C166.2,-211.5 157.59,-211.5 149.26,-211.5"/>
<polygon fill="midnightblue" stroke="midnightblue" points="174.96,-215 184.96,-211.5 174.96,-208 174.96,-215"/>
</g>
<!-- Node9 -->
<g id="node5" class="node">
<title>Node9</title>
<g id="a_node5"><a xlink:href="../../d4/d62/namespaceleanux_1_1tools_1_1lard.html#a6de74bbef1d571bf7eb000e62900a11d" target="_top" xlink:title=" ">
<polygon fill="none" stroke="red" points="22.5,-74.5 22.5,-104.5 126.5,-104.5 126.5,-74.5 22.5,-74.5"/>
<text text-anchor="start" x="30.5" y="-92.5" font-family="Helvetica,sans-Serif" font-size="10.00">leanux::tools::lard</text>
<text text-anchor="middle" x="74.5" y="-81.5" font-family="Helvetica,sans-Serif" font-size="10.00">::mainLoop</text>
</a>
</g>
</g>
<!-- Node8&#45;&gt;Node9 -->
<g id="edge4" class="edge">
<title>Node8&#45;&gt;Node9</title>
<path fill="none" stroke="midnightblue" d="M215.33,-147.79C205.09,-144.99 194.69,-141.87 185,-138.5 157.46,-128.92 127.29,-115.16 105.61,-104.66"/>
<polygon fill="midnightblue" stroke="midnightblue" points="214.49,-151.19 225.05,-150.37 216.29,-144.43 214.49,-151.19"/>
</g>
<!-- Node12&#45;&gt;Node9 -->
<g id="edge6" class="edge">
<title>Node12&#45;&gt;Node9</title>
<path fill="none" stroke="midnightblue" d="M205,-104.74C178.92,-101.67 150.25,-98.29 126.52,-95.5"/>
<polygon fill="midnightblue" stroke="midnightblue" points="204.89,-108.25 215.23,-105.94 205.71,-101.29 204.89,-108.25"/>
</g>
<!-- Node13&#45;&gt;Node9 -->
<g id="edge8" class="edge">
<title>Node13&#45;&gt;Node9</title>
<path fill="none" stroke="midnightblue" d="M216.44,-72.23C187.57,-75.77 153.79,-79.91 126.54,-83.24"/>
<polygon fill="midnightblue" stroke="midnightblue" points="216.93,-75.69 226.43,-71 216.08,-68.75 216.93,-75.69"/>
</g>
<!-- Node14&#45;&gt;Node9 -->
<g id="edge10" class="edge">
<title>Node14&#45;&gt;Node9</title>
<path fill="none" stroke="midnightblue" d="M206.98,-33.4C199.5,-35.62 192.06,-38 185,-40.5 157.51,-50.22 127.34,-63.96 105.64,-74.42"/>
<polygon fill="midnightblue" stroke="midnightblue" points="208.16,-36.7 216.79,-30.56 206.22,-29.97 208.16,-36.7"/>
</g>
</g>
</svg>
