<?xml version="1.0" encoding="UTF-8" standalone="no"?>
<!DOCTYPE svg PUBLIC "-//W3C//DTD SVG 1.1//EN"
 "http://www.w3.org/Graphics/SVG/1.1/DTD/svg11.dtd">
<!-- Generated by graphviz version 2.43.0 (0)
 -->
<!-- Title: leanux::block::deltaDeviceStats Pages: 1 -->
<svg width="566pt" height="137pt"
 viewBox="0.00 0.00 566.00 137.00" xmlns="http://www.w3.org/2000/svg" xmlns:xlink="http://www.w3.org/1999/xlink">
<g id="graph0" class="graph" transform="scale(1 1) rotate(0) translate(4 133)">
<title>leanux::block::deltaDeviceStats</title>
<!-- Node1 -->
<g id="node1" class="node">
<title>Node1</title>
<g id="a_node1"><a xlink:title="create a delta of two DeviceStatsMaps.">
<polygon fill="#bfbfbf" stroke="black" points="412,-49.5 412,-79.5 558,-79.5 558,-49.5 412,-49.5"/>
<text text-anchor="start" x="420" y="-67.5" font-family="Helvetica,sans-Serif" font-size="10.00">leanux::block::deltaDevice</text>
<text text-anchor="middle" x="485" y="-56.5" font-family="Helvetica,sans-Serif" font-size="10.00">Stats</text>
</a>
</g>
</g>
<!-- Node2 -->
<g id="node2" class="node">
<title>Node2</title>
<g id="a_node2"><a xlink:href="../../da/d21/classleanux_1_1tools_1_1lmon_1_1RealtimeSampler.html#ae43e18aacfceb09eb9bd70db9c67fc98" target="_top" xlink:title=" ">
<polygon fill="none" stroke="black" points="185,-98.5 185,-128.5 376,-128.5 376,-98.5 185,-98.5"/>
<text text-anchor="start" x="193" y="-116.5" font-family="Helvetica,sans-Serif" font-size="10.00">leanux::tools::lmon</text>
<text text-anchor="middle" x="280.5" y="-105.5" font-family="Helvetica,sans-Serif" font-size="10.00">::RealtimeSampler::sampleXIOView</text>
</a>
</g>
</g>
<!-- Node1&#45;&gt;Node2 -->
<g id="edge1" class="edge">
<title>Node1&#45;&gt;Node2</title>
<path fill="none" stroke="midnightblue" d="M412.08,-81.9C389.67,-87.32 365.18,-93.25 343.52,-98.49"/>
<polygon fill="midnightblue" stroke="midnightblue" points="412.97,-85.29 421.87,-79.53 411.32,-78.48 412.97,-85.29"/>
</g>
<!-- Node8 -->
<g id="node4" class="node">
<title>Node8</title>
<g id="a_node4"><a xlink:href="../../d8/d77/classleanux_1_1tools_1_1lard_1_1IOSnap.html#acd9defb7ca62e96d5f76b04b3e365b41" target="_top" xlink:title=" ">
<polygon fill="none" stroke="black" points="224.5,-49.5 224.5,-79.5 336.5,-79.5 336.5,-49.5 224.5,-49.5"/>
<text text-anchor="start" x="232.5" y="-67.5" font-family="Helvetica,sans-Serif" font-size="10.00">leanux::tools::lard</text>
<text text-anchor="middle" x="280.5" y="-56.5" font-family="Helvetica,sans-Serif" font-size="10.00">::IOSnap::storeSnap</text>
</a>
</g>
</g>
<!-- Node1&#45;&gt;Node8 -->
<g id="edge3" class="edge">
<title>Node1&#45;&gt;Node8</title>
<path fill="none" stroke="midnightblue" d="M401.47,-64.5C379.6,-64.5 356.53,-64.5 336.53,-64.5"/>
<polygon fill="midnightblue" stroke="midnightblue" points="401.75,-68 411.75,-64.5 401.75,-61 401.75,-68"/>
</g>
<!-- Node12 -->
<g id="node6" class="node">
<title>Node12</title>
<g id="a_node6"><a xlink:href="../../d0/db5/classleanux_1_1tools_1_1lard_1_1MountSnap.html#a7288efb64fc31818416b8c52c4ba3a0d" target="_top" xlink:title=" ">
<polygon fill="none" stroke="black" points="214.5,-0.5 214.5,-30.5 346.5,-30.5 346.5,-0.5 214.5,-0.5"/>
<text text-anchor="start" x="222.5" y="-18.5" font-family="Helvetica,sans-Serif" font-size="10.00">leanux::tools::lard</text>
<text text-anchor="middle" x="280.5" y="-7.5" font-family="Helvetica,sans-Serif" font-size="10.00">::MountSnap::storeSnap</text>
</a>
</g>
</g>
<!-- Node1&#45;&gt;Node12 -->
<g id="edge5" class="edge">
<title>Node1&#45;&gt;Node12</title>
<path fill="none" stroke="midnightblue" d="M412.08,-47.1C389.67,-41.68 365.18,-35.75 343.52,-30.51"/>
<polygon fill="midnightblue" stroke="midnightblue" points="411.32,-50.52 421.87,-49.47 412.97,-43.71 411.32,-50.52"/>
</g>
<!-- Node3 -->
<g id="node3" class="node">
<title>Node3</title>
<g id="a_node3"><a xlink:href="../../da/d21/classleanux_1_1tools_1_1lmon_1_1RealtimeSampler.html#a9522a4a46961eb4f75d3207da1efd07f" target="_top" xlink:title="Sample a snapshot.">
<polygon fill="none" stroke="red" points="0,-98.5 0,-128.5 149,-128.5 149,-98.5 0,-98.5"/>
<text text-anchor="start" x="8" y="-116.5" font-family="Helvetica,sans-Serif" font-size="10.00">leanux::tools::lmon</text>
<text text-anchor="middle" x="74.5" y="-105.5" font-family="Helvetica,sans-Serif" font-size="10.00">::RealtimeSampler::sample</text>
</a>
</g>
</g>
<!-- Node2&#45;&gt;Node3 -->
<g id="edge2" class="edge">
<title>Node2&#45;&gt;Node3</title>
<path fill="none" stroke="midnightblue" d="M174.83,-113.5C166.2,-113.5 157.59,-113.5 149.26,-113.5"/>
<polygon fill="midnightblue" stroke="midnightblue" points="174.96,-117 184.96,-113.5 174.96,-110 174.96,-117"/>
</g>
<!-- Node9 -->
<g id="node5" class="node">
<title>Node9</title>
<g id="a_node5"><a xlink:href="../../d4/d62/namespaceleanux_1_1tools_1_1lard.html#a6de74bbef1d571bf7eb000e62900a11d" target="_top" xlink:title=" ">
<polygon fill="none" stroke="red" points="22.5,-25.5 22.5,-55.5 126.5,-55.5 126.5,-25.5 22.5,-25.5"/>
<text text-anchor="start" x="30.5" y="-43.5" font-family="Helvetica,sans-Serif" font-size="10.00">leanux::tools::lard</text>
<text text-anchor="middle" x="74.5" y="-32.5" font-family="Helvetica,sans-Serif" font-size="10.00">::mainLoop</text>
</a>
</g>
</g>
<!-- Node8&#45;&gt;Node9 -->
<g id="edge4" class="edge">
<title>Node8&#45;&gt;Node9</title>
<path fill="none" stroke="midnightblue" d="M214.07,-56.8C185.73,-53.47 153.05,-49.62 126.55,-46.51"/>
<polygon fill="midnightblue" stroke="midnightblue" points="213.95,-60.31 224.29,-58.01 214.77,-53.36 213.95,-60.31"/>
</g>
<!-- Node12&#45;&gt;Node9 -->
<g id="edge6" class="edge">
<title>Node12&#45;&gt;Node9</title>
<path fill="none" stroke="midnightblue" d="M204.27,-24.72C178.47,-27.88 150.22,-31.34 126.77,-34.22"/>
<polygon fill="midnightblue" stroke="midnightblue" points="204.89,-28.17 214.39,-23.48 204.04,-21.22 204.89,-28.17"/>
</g>
</g>
</svg>
