<?xml version="1.0" encoding="UTF-8" standalone="no"?>
<!DOCTYPE svg PUBLIC "-//W3C//DTD SVG 1.1//EN"
 "http://www.w3.org/Graphics/SVG/1.1/DTD/svg11.dtd">
<!-- Generated by graphviz version 2.43.0 (0)
 -->
<!-- Title: leanux::block::init Pages: 1 -->
<svg width="503pt" height="247pt"
 viewBox="0.00 0.00 503.00 246.50" xmlns="http://www.w3.org/2000/svg" xmlns:xlink="http://www.w3.org/1999/xlink">
<g id="graph0" class="graph" transform="scale(1 1) rotate(0) translate(4 242.5)">
<title>leanux::block::init</title>
<!-- Node1 -->
<g id="node1" class="node">
<title>Node1</title>
<g id="a_node1"><a xlink:title="Initialize the block API.">
<polygon fill="#bfbfbf" stroke="black" points="0,-126 0,-145 104,-145 104,-126 0,-126"/>
<text text-anchor="middle" x="52" y="-133" font-family="Helvetica,sans-Serif" font-size="10.00">leanux::block::init</text>
</a>
</g>
</g>
<!-- Node2 -->
<g id="node2" class="node">
<title>Node2</title>
<g id="a_node2"><a xlink:href="../../d8/db1/namespaceleanux_1_1util.html#a6ac7287d49f3dd9b2c6c9673257e145b" target="_top" xlink:title="Test if the path is an existing directory.">
<polygon fill="none" stroke="black" points="149,-219 149,-238 299,-238 299,-219 149,-219"/>
<text text-anchor="middle" x="224" y="-226" font-family="Helvetica,sans-Serif" font-size="10.00">leanux::util::directoryExists</text>
</a>
</g>
</g>
<!-- Node1&#45;&gt;Node2 -->
<g id="edge1" class="edge">
<title>Node1&#45;&gt;Node2</title>
<path fill="none" stroke="midnightblue" d="M61.33,-145.11C75.71,-161.05 106.86,-192.87 140,-209.5 144.67,-211.84 149.63,-213.9 154.72,-215.71"/>
<polygon fill="midnightblue" stroke="midnightblue" points="154.01,-219.16 164.6,-218.88 156.15,-212.49 154.01,-219.16"/>
</g>
<!-- Node3 -->
<g id="node3" class="node">
<title>Node3</title>
<g id="a_node3"><a xlink:href="../../d5/d01/namespaceleanux_1_1block.html#ac08a21002b48cb1bbfaf8d77b4aac5f6" target="_top" xlink:title="get a list of whole disks (exclude partitions).">
<polygon fill="none" stroke="black" points="151,-169.5 151,-199.5 297,-199.5 297,-169.5 151,-169.5"/>
<text text-anchor="start" x="159" y="-187.5" font-family="Helvetica,sans-Serif" font-size="10.00">leanux::block::enumWhole</text>
<text text-anchor="middle" x="224" y="-176.5" font-family="Helvetica,sans-Serif" font-size="10.00">Disks</text>
</a>
</g>
</g>
<!-- Node1&#45;&gt;Node3 -->
<g id="edge2" class="edge">
<title>Node1&#45;&gt;Node3</title>
<path fill="none" stroke="midnightblue" d="M86.18,-145.06C107.42,-151.19 135.64,-159.32 160.94,-166.61"/>
<polygon fill="midnightblue" stroke="midnightblue" points="160.25,-170.06 170.83,-169.46 162.19,-163.33 160.25,-170.06"/>
</g>
<!-- Node4 -->
<g id="node4" class="node">
<title>Node4</title>
<g id="a_node4"><a xlink:href="../../d7/d28/classleanux_1_1block_1_1MajorMinor.html#a7e5217cefada330c0b412a4cc0e8ba8a" target="_top" xlink:title="Get the major.">
<polygon fill="none" stroke="black" points="152.5,-120.5 152.5,-150.5 295.5,-150.5 295.5,-120.5 152.5,-120.5"/>
<text text-anchor="start" x="160.5" y="-138.5" font-family="Helvetica,sans-Serif" font-size="10.00">leanux::block::MajorMinor</text>
<text text-anchor="middle" x="224" y="-127.5" font-family="Helvetica,sans-Serif" font-size="10.00">::getMajor</text>
</a>
</g>
</g>
<!-- Node1&#45;&gt;Node4 -->
<g id="edge3" class="edge">
<title>Node1&#45;&gt;Node4</title>
<path fill="none" stroke="midnightblue" d="M104.01,-135.5C115.97,-135.5 129,-135.5 141.92,-135.5"/>
<polygon fill="midnightblue" stroke="midnightblue" points="142.23,-139 152.23,-135.5 142.23,-132 142.23,-139"/>
</g>
<!-- Node5 -->
<g id="node5" class="node">
<title>Node5</title>
<g id="a_node5"><a xlink:href="../../d7/d28/classleanux_1_1block_1_1MajorMinor.html#a26905a16bdd3e525abb2ada713f80704" target="_top" xlink:title="Test MajorMinor validity.">
<polygon fill="none" stroke="black" points="152.5,-71.5 152.5,-101.5 295.5,-101.5 295.5,-71.5 152.5,-71.5"/>
<text text-anchor="start" x="160.5" y="-89.5" font-family="Helvetica,sans-Serif" font-size="10.00">leanux::block::MajorMinor</text>
<text text-anchor="middle" x="224" y="-78.5" font-family="Helvetica,sans-Serif" font-size="10.00">::isValid</text>
</a>
</g>
</g>
<!-- Node1&#45;&gt;Node5 -->
<g id="edge4" class="edge">
<title>Node1&#45;&gt;Node5</title>
<path fill="none" stroke="midnightblue" d="M86.18,-125.94C107.42,-119.81 135.64,-111.68 160.94,-104.39"/>
<polygon fill="midnightblue" stroke="midnightblue" points="162.19,-107.67 170.83,-101.54 160.25,-100.94 162.19,-107.67"/>
</g>
<!-- Node6 -->
<g id="node6" class="node">
<title>Node6</title>
<g id="a_node6"><a xlink:href="../../d5/d01/namespaceleanux_1_1block.html#a9fd7f9ca7fa9102da23e1299fe841f48" target="_top" xlink:title="Detect the udevMode from the given MajorMinor and udev_path.">
<polygon fill="none" stroke="black" points="140,-22.5 140,-52.5 308,-52.5 308,-22.5 140,-22.5"/>
<text text-anchor="start" x="148" y="-40.5" font-family="Helvetica,sans-Serif" font-size="10.00">leanux::block::modeFromMajor</text>
<text text-anchor="middle" x="224" y="-29.5" font-family="Helvetica,sans-Serif" font-size="10.00">Minor</text>
</a>
</g>
</g>
<!-- Node1&#45;&gt;Node6 -->
<g id="edge5" class="edge">
<title>Node1&#45;&gt;Node6</title>
<path fill="none" stroke="midnightblue" d="M62.2,-125.52C77.1,-109.91 108.08,-79.74 140,-62.5 144.17,-60.25 148.56,-58.17 153.07,-56.26"/>
<polygon fill="midnightblue" stroke="midnightblue" points="154.41,-59.5 162.44,-52.58 151.85,-52.98 154.41,-59.5"/>
</g>
<!-- Node7 -->
<g id="node7" class="node">
<title>Node7</title>
<g id="a_node7"><a xlink:href="../../d8/db1/namespaceleanux_1_1util.html#a6421ca2c46c56eebe1a486c6a498ce7d" target="_top" xlink:title="Test if a file exists and can be read.">
<polygon fill="none" stroke="black" points="344,-50 344,-69 495,-69 495,-50 344,-50"/>
<text text-anchor="middle" x="419.5" y="-57" font-family="Helvetica,sans-Serif" font-size="10.00">leanux::util::fileReadAccess</text>
</a>
</g>
</g>
<!-- Node6&#45;&gt;Node7 -->
<g id="edge6" class="edge">
<title>Node6&#45;&gt;Node7</title>
<path fill="none" stroke="midnightblue" d="M308.18,-46.96C316.72,-47.93 325.41,-48.92 333.96,-49.89"/>
<polygon fill="midnightblue" stroke="midnightblue" points="333.6,-53.37 343.93,-51.02 334.39,-46.41 333.6,-53.37"/>
</g>
<!-- Node8 -->
<g id="node8" class="node">
<title>Node8</title>
<g id="a_node8"><a xlink:href="../../d7/d28/classleanux_1_1block_1_1MajorMinor.html#adc3f437e329318ee21bddbbebaeb740e" target="_top" xlink:title="Get the DeviceName for the MajorMinor.">
<polygon fill="none" stroke="red" points="348,-0.5 348,-30.5 491,-30.5 491,-0.5 348,-0.5"/>
<text text-anchor="start" x="356" y="-18.5" font-family="Helvetica,sans-Serif" font-size="10.00">leanux::block::MajorMinor</text>
<text text-anchor="middle" x="419.5" y="-7.5" font-family="Helvetica,sans-Serif" font-size="10.00">::getNameByMajorMinor</text>
</a>
</g>
</g>
<!-- Node6&#45;&gt;Node8 -->
<g id="edge7" class="edge">
<title>Node6&#45;&gt;Node8</title>
<path fill="none" stroke="midnightblue" d="M308.18,-28.04C317.99,-26.93 327.99,-25.79 337.76,-24.68"/>
<polygon fill="midnightblue" stroke="midnightblue" points="338.31,-28.14 347.85,-23.53 337.51,-21.19 338.31,-28.14"/>
</g>
</g>
</svg>
