<?xml version="1.0" encoding="UTF-8" standalone="no"?>
<!DOCTYPE svg PUBLIC "-//W3C//DTD SVG 1.1//EN"
 "http://www.w3.org/Graphics/SVG/1.1/DTD/svg11.dtd">
<!-- Generated by graphviz version 2.43.0 (0)
 -->
<!-- Title: leanux::block::modeFromMajorMinor Pages: 1 -->
<svg width="542pt" height="78pt"
 viewBox="0.00 0.00 542.00 77.50" xmlns="http://www.w3.org/2000/svg" xmlns:xlink="http://www.w3.org/1999/xlink">
<g id="graph0" class="graph" transform="scale(1 1) rotate(0) translate(4 73.5)">
<title>leanux::block::modeFromMajorMinor</title>
<!-- Node1 -->
<g id="node1" class="node">
<title>Node1</title>
<g id="a_node1"><a xlink:title="Detect the udevMode from the given MajorMinor and udev_path.">
<polygon fill="#bfbfbf" stroke="black" points="0,-22.5 0,-52.5 168,-52.5 168,-22.5 0,-22.5"/>
<text text-anchor="start" x="8" y="-40.5" font-family="Helvetica,sans-Serif" font-size="10.00">leanux::block::modeFromMajor</text>
<text text-anchor="middle" x="84" y="-29.5" font-family="Helvetica,sans-Serif" font-size="10.00">Minor</text>
</a>
</g>
</g>
<!-- Node2 -->
<g id="node2" class="node">
<title>Node2</title>
<g id="a_node2"><a xlink:href="../../d8/db1/namespaceleanux_1_1util.html#a6421ca2c46c56eebe1a486c6a498ce7d" target="_top" xlink:title="Test if a file exists and can be read.">
<polygon fill="none" stroke="black" points="204,-50 204,-69 355,-69 355,-50 204,-50"/>
<text text-anchor="middle" x="279.5" y="-57" font-family="Helvetica,sans-Serif" font-size="10.00">leanux::util::fileReadAccess</text>
</a>
</g>
</g>
<!-- Node1&#45;&gt;Node2 -->
<g id="edge1" class="edge">
<title>Node1&#45;&gt;Node2</title>
<path fill="none" stroke="midnightblue" d="M168.18,-46.96C176.72,-47.93 185.41,-48.92 193.96,-49.89"/>
<polygon fill="midnightblue" stroke="midnightblue" points="193.6,-53.37 203.93,-51.02 194.39,-46.41 193.6,-53.37"/>
</g>
<!-- Node3 -->
<g id="node3" class="node">
<title>Node3</title>
<g id="a_node3"><a xlink:href="../../d7/d28/classleanux_1_1block_1_1MajorMinor.html#adc3f437e329318ee21bddbbebaeb740e" target="_top" xlink:title="Get the DeviceName for the MajorMinor.">
<polygon fill="none" stroke="black" points="208,-0.5 208,-30.5 351,-30.5 351,-0.5 208,-0.5"/>
<text text-anchor="start" x="216" y="-18.5" font-family="Helvetica,sans-Serif" font-size="10.00">leanux::block::MajorMinor</text>
<text text-anchor="middle" x="279.5" y="-7.5" font-family="Helvetica,sans-Serif" font-size="10.00">::getNameByMajorMinor</text>
</a>
</g>
</g>
<!-- Node1&#45;&gt;Node3 -->
<g id="edge2" class="edge">
<title>Node1&#45;&gt;Node3</title>
<path fill="none" stroke="midnightblue" d="M168.18,-28.04C177.99,-26.93 187.99,-25.79 197.76,-24.68"/>
<polygon fill="midnightblue" stroke="midnightblue" points="198.31,-28.14 207.85,-23.53 197.51,-21.19 198.31,-28.14"/>
</g>
<!-- Node4 -->
<g id="node4" class="node">
<title>Node4</title>
<g id="a_node4"><a xlink:href="../../d7/d28/classleanux_1_1block_1_1MajorMinor.html#a4d83c063088eb618533f31e2cc78b2f3" target="_top" xlink:title="(re)build the cached mapping between device names and MajorMinor numbers.">
<polygon fill="none" stroke="red" points="391,-0.5 391,-30.5 534,-30.5 534,-0.5 391,-0.5"/>
<text text-anchor="start" x="399" y="-18.5" font-family="Helvetica,sans-Serif" font-size="10.00">leanux::block::MajorMinor</text>
<text text-anchor="middle" x="462.5" y="-7.5" font-family="Helvetica,sans-Serif" font-size="10.00">::buildCache</text>
</a>
</g>
</g>
<!-- Node3&#45;&gt;Node4 -->
<g id="edge3" class="edge">
<title>Node3&#45;&gt;Node4</title>
<path fill="none" stroke="midnightblue" d="M351.26,-15.5C360.9,-15.5 370.85,-15.5 380.65,-15.5"/>
<polygon fill="midnightblue" stroke="midnightblue" points="380.79,-19 390.79,-15.5 380.79,-12 380.79,-19"/>
</g>
</g>
</svg>
