<?xml version="1.0" encoding="UTF-8" standalone="no"?>
<!DOCTYPE svg PUBLIC "-//W3C//DTD SVG 1.1//EN"
 "http://www.w3.org/Graphics/SVG/1.1/DTD/svg11.dtd">
<!-- Generated by graphviz version 2.43.0 (0)
 -->
<!-- Title: lib/vmem.cpp Pages: 1 -->
<svg width="1360pt" height="196pt"
 viewBox="0.00 0.00 1359.50 196.00" xmlns="http://www.w3.org/2000/svg" xmlns:xlink="http://www.w3.org/1999/xlink">
<g id="graph0" class="graph" transform="scale(1 1) rotate(0) translate(4 192)">
<title>lib/vmem.cpp</title>
<!-- Node1 -->
<g id="node1" class="node">
<title>Node1</title>
<g id="a_node1"><a xlink:title=" ">
<polygon fill="#bfbfbf" stroke="black" points="690,-168.5 690,-187.5 773,-187.5 773,-168.5 690,-168.5"/>
<text text-anchor="middle" x="731.5" y="-175.5" font-family="Helvetica,sans-Serif" font-size="10.00">lib/vmem.cpp</text>
</a>
</g>
</g>
<!-- Node2 -->
<g id="node2" class="node">
<title>Node2</title>
<g id="a_node2"><a xlink:href="../../dd/d90/system_8hpp.html" target="_top" xlink:title=" ">
<polygon fill="none" stroke="black" points="116.5,-112.5 116.5,-131.5 190.5,-131.5 190.5,-112.5 116.5,-112.5"/>
<text text-anchor="middle" x="153.5" y="-119.5" font-family="Helvetica,sans-Serif" font-size="10.00">system.hpp</text>
</a>
</g>
</g>
<!-- Node1&#45;&gt;Node2 -->
<g id="edge1" class="edge">
<title>Node1&#45;&gt;Node2</title>
<path fill="none" stroke="midnightblue" d="M689.93,-173.12C585.24,-163.34 311.21,-137.73 200.7,-127.41"/>
<polygon fill="midnightblue" stroke="midnightblue" points="200.81,-123.91 190.53,-126.46 200.16,-130.87 200.81,-123.91"/>
</g>
<!-- Node3 -->
<g id="node3" class="node">
<title>Node3</title>
<g id="a_node3"><a xlink:title=" ">
<polygon fill="none" stroke="#bfbfbf" points="276.5,-0.5 276.5,-19.5 320.5,-19.5 320.5,-0.5 276.5,-0.5"/>
<text text-anchor="middle" x="298.5" y="-7.5" font-family="Helvetica,sans-Serif" font-size="10.00">string</text>
</a>
</g>
</g>
<!-- Node1&#45;&gt;Node3 -->
<g id="edge20" class="edge">
<title>Node1&#45;&gt;Node3</title>
<path fill="none" stroke="midnightblue" d="M773.43,-172.89C896.02,-160.09 1241.49,-118.07 1182.5,-56 1152.62,-24.56 487.54,-13.57 331.19,-11.42"/>
<polygon fill="midnightblue" stroke="midnightblue" points="330.88,-7.91 320.83,-11.28 330.78,-14.91 330.88,-7.91"/>
</g>
<!-- Node7 -->
<g id="node7" class="node">
<title>Node7</title>
<g id="a_node7"><a xlink:href="../../d0/d3f/util_8hpp.html" target="_top" xlink:title=" ">
<polygon fill="none" stroke="black" points="749,-112.5 749,-131.5 802,-131.5 802,-112.5 749,-112.5"/>
<text text-anchor="middle" x="775.5" y="-119.5" font-family="Helvetica,sans-Serif" font-size="10.00">util.hpp</text>
</a>
</g>
</g>
<!-- Node1&#45;&gt;Node7 -->
<g id="edge7" class="edge">
<title>Node1&#45;&gt;Node7</title>
<path fill="none" stroke="midnightblue" d="M738.77,-168.08C745.04,-160.38 754.29,-149.03 761.93,-139.65"/>
<polygon fill="midnightblue" stroke="midnightblue" points="764.77,-141.71 768.37,-131.75 759.34,-137.29 764.77,-141.71"/>
</g>
<!-- Node9 -->
<g id="node9" class="node">
<title>Node9</title>
<g id="a_node9"><a xlink:title=" ">
<polygon fill="none" stroke="#bfbfbf" points="605,-56.5 605,-75.5 660,-75.5 660,-56.5 605,-56.5"/>
<text text-anchor="middle" x="632.5" y="-63.5" font-family="Helvetica,sans-Serif" font-size="10.00">fstream</text>
</a>
</g>
</g>
<!-- Node1&#45;&gt;Node9 -->
<g id="edge29" class="edge">
<title>Node1&#45;&gt;Node9</title>
<path fill="none" stroke="midnightblue" d="M723.73,-168.37C707.18,-149.97 668.2,-106.67 646.95,-83.05"/>
<polygon fill="midnightblue" stroke="midnightblue" points="649.52,-80.68 640.23,-75.59 644.32,-85.37 649.52,-80.68"/>
</g>
<!-- Node16 -->
<g id="node16" class="node">
<title>Node16</title>
<g id="a_node16"><a xlink:href="../../db/da3/vmem_8hpp.html" target="_top" xlink:title=" ">
<polygon fill="none" stroke="black" points="301,-112.5 301,-131.5 370,-131.5 370,-112.5 301,-112.5"/>
<text text-anchor="middle" x="335.5" y="-119.5" font-family="Helvetica,sans-Serif" font-size="10.00">vmem.hpp</text>
</a>
</g>
</g>
<!-- Node1&#45;&gt;Node16 -->
<g id="edge17" class="edge">
<title>Node1&#45;&gt;Node16</title>
<path fill="none" stroke="midnightblue" d="M689.88,-172.39C624.48,-164.98 493.76,-149.45 383.5,-132 382.41,-131.83 381.31,-131.65 380.2,-131.47"/>
<polygon fill="midnightblue" stroke="midnightblue" points="380.52,-127.97 370.07,-129.72 379.33,-134.87 380.52,-127.97"/>
</g>
<!-- Node17 -->
<g id="node17" class="node">
<title>Node17</title>
<g id="a_node17"><a xlink:href="../../dd/db4/process_8hpp.html" target="_top" xlink:title=" ">
<polygon fill="none" stroke="black" points="393,-112.5 393,-131.5 468,-131.5 468,-112.5 393,-112.5"/>
<text text-anchor="middle" x="430.5" y="-119.5" font-family="Helvetica,sans-Serif" font-size="10.00">process.hpp</text>
</a>
</g>
</g>
<!-- Node1&#45;&gt;Node17 -->
<g id="edge21" class="edge">
<title>Node1&#45;&gt;Node17</title>
<path fill="none" stroke="midnightblue" d="M689.96,-169.55C634.58,-159.61 536.78,-142.07 478.37,-131.59"/>
<polygon fill="midnightblue" stroke="midnightblue" points="478.75,-128.1 468.29,-129.78 477.52,-134.99 478.75,-128.1"/>
</g>
<!-- Node21 -->
<g id="node21" class="node">
<title>Node21</title>
<g id="a_node21"><a xlink:title=" ">
<polygon fill="none" stroke="#bfbfbf" points="1229.5,-112.5 1229.5,-131.5 1273.5,-131.5 1273.5,-112.5 1229.5,-112.5"/>
<text text-anchor="middle" x="1251.5" y="-119.5" font-family="Helvetica,sans-Serif" font-size="10.00">limits</text>
</a>
</g>
</g>
<!-- Node1&#45;&gt;Node21 -->
<g id="edge30" class="edge">
<title>Node1&#45;&gt;Node21</title>
<path fill="none" stroke="midnightblue" d="M773.21,-175.26C857.37,-171.29 1053.28,-159.65 1215.5,-132 1216.75,-131.79 1218.02,-131.55 1219.3,-131.3"/>
<polygon fill="midnightblue" stroke="midnightblue" points="1220.12,-134.71 1229.14,-129.15 1218.63,-127.87 1220.12,-134.71"/>
</g>
<!-- Node22 -->
<g id="node22" class="node">
<title>Node22</title>
<g id="a_node22"><a xlink:title=" ">
<polygon fill="none" stroke="#bfbfbf" points="1291.5,-112.5 1291.5,-131.5 1351.5,-131.5 1351.5,-112.5 1291.5,-112.5"/>
<text text-anchor="middle" x="1321.5" y="-119.5" font-family="Helvetica,sans-Serif" font-size="10.00">iostream</text>
</a>
</g>
</g>
<!-- Node1&#45;&gt;Node22 -->
<g id="edge31" class="edge">
<title>Node1&#45;&gt;Node22</title>
<path fill="none" stroke="midnightblue" d="M773.21,-175.66C863.93,-172.31 1086.01,-161.7 1281.19,-131.98"/>
<polygon fill="midnightblue" stroke="midnightblue" points="1282,-135.4 1291.35,-130.41 1280.93,-128.48 1282,-135.4"/>
</g>
<!-- Node2&#45;&gt;Node3 -->
<g id="edge2" class="edge">
<title>Node2&#45;&gt;Node3</title>
<path fill="none" stroke="midnightblue" d="M139.9,-112.34C121.65,-99.64 93.18,-75.38 108.5,-56 127.8,-31.6 217.08,-19.06 266.08,-13.91"/>
<polygon fill="midnightblue" stroke="midnightblue" points="266.58,-17.38 276.18,-12.9 265.88,-10.41 266.58,-17.38"/>
</g>
<!-- Node4 -->
<g id="node4" class="node">
<title>Node4</title>
<g id="a_node4"><a xlink:title=" ">
<polygon fill="none" stroke="#bfbfbf" points="245.5,-56.5 245.5,-75.5 301.5,-75.5 301.5,-56.5 245.5,-56.5"/>
<text text-anchor="middle" x="273.5" y="-63.5" font-family="Helvetica,sans-Serif" font-size="10.00">unistd.h</text>
</a>
</g>
</g>
<!-- Node2&#45;&gt;Node4 -->
<g id="edge3" class="edge">
<title>Node2&#45;&gt;Node4</title>
<path fill="none" stroke="midnightblue" d="M172.51,-112.44C192.09,-103.64 222.81,-89.81 245.23,-79.72"/>
<polygon fill="midnightblue" stroke="midnightblue" points="246.89,-82.81 254.57,-75.52 244.02,-76.43 246.89,-82.81"/>
</g>
<!-- Node5 -->
<g id="node5" class="node">
<title>Node5</title>
<g id="a_node5"><a xlink:title=" ">
<polygon fill="none" stroke="#bfbfbf" points="117.5,-56.5 117.5,-75.5 189.5,-75.5 189.5,-56.5 117.5,-56.5"/>
<text text-anchor="middle" x="153.5" y="-63.5" font-family="Helvetica,sans-Serif" font-size="10.00">sys/types.h</text>
</a>
</g>
</g>
<!-- Node2&#45;&gt;Node5 -->
<g id="edge4" class="edge">
<title>Node2&#45;&gt;Node5</title>
<path fill="none" stroke="midnightblue" d="M153.5,-112.08C153.5,-105.01 153.5,-94.86 153.5,-85.99"/>
<polygon fill="midnightblue" stroke="midnightblue" points="157,-85.75 153.5,-75.75 150,-85.75 157,-85.75"/>
</g>
<!-- Node6 -->
<g id="node6" class="node">
<title>Node6</title>
<g id="a_node6"><a xlink:href="../../d3/d44/oops_8hpp.html" target="_top" xlink:title=" ">
<polygon fill="none" stroke="black" points="0,-56.5 0,-75.5 61,-75.5 61,-56.5 0,-56.5"/>
<text text-anchor="middle" x="30.5" y="-63.5" font-family="Helvetica,sans-Serif" font-size="10.00">oops.hpp</text>
</a>
</g>
</g>
<!-- Node2&#45;&gt;Node6 -->
<g id="edge5" class="edge">
<title>Node2&#45;&gt;Node6</title>
<path fill="none" stroke="midnightblue" d="M134.01,-112.44C113.86,-103.6 82.18,-89.69 59.17,-79.59"/>
<polygon fill="midnightblue" stroke="midnightblue" points="60.46,-76.33 49.9,-75.52 57.65,-82.74 60.46,-76.33"/>
</g>
<!-- Node6&#45;&gt;Node3 -->
<g id="edge6" class="edge">
<title>Node6&#45;&gt;Node3</title>
<path fill="none" stroke="midnightblue" d="M61.24,-58.81C112.31,-48.52 214.14,-28 266.21,-17.51"/>
<polygon fill="midnightblue" stroke="midnightblue" points="267.12,-20.89 276.23,-15.49 265.74,-14.03 267.12,-20.89"/>
</g>
<!-- Node7&#45;&gt;Node3 -->
<g id="edge8" class="edge">
<title>Node7&#45;&gt;Node3</title>
<path fill="none" stroke="midnightblue" d="M762.97,-112.37C739.43,-96.32 689.17,-62.86 669.5,-56 549.66,-14.23 396.35,-10.02 330.69,-10.36"/>
<polygon fill="midnightblue" stroke="midnightblue" points="330.53,-6.86 320.56,-10.45 330.59,-13.86 330.53,-6.86"/>
</g>
<!-- Node8 -->
<g id="node8" class="node">
<title>Node8</title>
<g id="a_node8"><a xlink:title=" ">
<polygon fill="none" stroke="#bfbfbf" points="716.5,-56.5 716.5,-75.5 772.5,-75.5 772.5,-56.5 716.5,-56.5"/>
<text text-anchor="middle" x="744.5" y="-63.5" font-family="Helvetica,sans-Serif" font-size="10.00">sstream</text>
</a>
</g>
</g>
<!-- Node7&#45;&gt;Node8 -->
<g id="edge9" class="edge">
<title>Node7&#45;&gt;Node8</title>
<path fill="none" stroke="midnightblue" d="M770.38,-112.08C766.09,-104.61 759.84,-93.72 754.56,-84.52"/>
<polygon fill="midnightblue" stroke="midnightblue" points="757.54,-82.68 749.52,-75.75 751.47,-86.17 757.54,-82.68"/>
</g>
<!-- Node7&#45;&gt;Node9 -->
<g id="edge10" class="edge">
<title>Node7&#45;&gt;Node9</title>
<path fill="none" stroke="midnightblue" d="M752.84,-112.44C729.1,-103.48 691.59,-89.31 664.76,-79.18"/>
<polygon fill="midnightblue" stroke="midnightblue" points="665.64,-75.77 655.05,-75.52 663.17,-82.32 665.64,-75.77"/>
</g>
<!-- Node10 -->
<g id="node10" class="node">
<title>Node10</title>
<g id="a_node10"><a xlink:title=" ">
<polygon fill="none" stroke="#bfbfbf" points="790.5,-56.5 790.5,-75.5 822.5,-75.5 822.5,-56.5 790.5,-56.5"/>
<text text-anchor="middle" x="806.5" y="-63.5" font-family="Helvetica,sans-Serif" font-size="10.00">set</text>
</a>
</g>
</g>
<!-- Node7&#45;&gt;Node10 -->
<g id="edge11" class="edge">
<title>Node7&#45;&gt;Node10</title>
<path fill="none" stroke="midnightblue" d="M780.62,-112.08C784.91,-104.61 791.16,-93.72 796.44,-84.52"/>
<polygon fill="midnightblue" stroke="midnightblue" points="799.53,-86.17 801.48,-75.75 793.46,-82.68 799.53,-86.17"/>
</g>
<!-- Node11 -->
<g id="node11" class="node">
<title>Node11</title>
<g id="a_node11"><a xlink:title=" ">
<polygon fill="none" stroke="#bfbfbf" points="319.5,-56.5 319.5,-75.5 351.5,-75.5 351.5,-56.5 319.5,-56.5"/>
<text text-anchor="middle" x="335.5" y="-63.5" font-family="Helvetica,sans-Serif" font-size="10.00">list</text>
</a>
</g>
</g>
<!-- Node7&#45;&gt;Node11 -->
<g id="edge12" class="edge">
<title>Node7&#45;&gt;Node11</title>
<path fill="none" stroke="midnightblue" d="M748.96,-118.05C687.36,-111.14 529.87,-93.22 398.5,-76 386.38,-74.41 372.97,-72.51 361.65,-70.87"/>
<polygon fill="midnightblue" stroke="midnightblue" points="361.94,-67.38 351.54,-69.4 360.93,-74.31 361.94,-67.38"/>
</g>
<!-- Node12 -->
<g id="node12" class="node">
<title>Node12</title>
<g id="a_node12"><a xlink:title=" ">
<polygon fill="none" stroke="#bfbfbf" points="840.5,-56.5 840.5,-75.5 908.5,-75.5 908.5,-56.5 840.5,-56.5"/>
<text text-anchor="middle" x="874.5" y="-63.5" font-family="Helvetica,sans-Serif" font-size="10.00">sys/time.h</text>
</a>
</g>
</g>
<!-- Node7&#45;&gt;Node12 -->
<g id="edge13" class="edge">
<title>Node7&#45;&gt;Node12</title>
<path fill="none" stroke="midnightblue" d="M791.41,-112.32C807.14,-103.74 831.44,-90.49 849.71,-80.52"/>
<polygon fill="midnightblue" stroke="midnightblue" points="851.53,-83.52 858.63,-75.65 848.18,-77.37 851.53,-83.52"/>
</g>
<!-- Node13 -->
<g id="node13" class="node">
<title>Node13</title>
<g id="a_node13"><a xlink:title=" ">
<polygon fill="none" stroke="#bfbfbf" points="927,-56.5 927,-75.5 980,-75.5 980,-56.5 927,-56.5"/>
<text text-anchor="middle" x="953.5" y="-63.5" font-family="Helvetica,sans-Serif" font-size="10.00">regex.h</text>
</a>
</g>
</g>
<!-- Node7&#45;&gt;Node13 -->
<g id="edge14" class="edge">
<title>Node7&#45;&gt;Node13</title>
<path fill="none" stroke="midnightblue" d="M802.15,-112.92C832.78,-103.62 883.21,-88.32 917.36,-77.96"/>
<polygon fill="midnightblue" stroke="midnightblue" points="918.41,-81.3 926.96,-75.05 916.38,-74.61 918.41,-81.3"/>
</g>
<!-- Node14 -->
<g id="node14" class="node">
<title>Node14</title>
<g id="a_node14"><a xlink:title=" ">
<polygon fill="none" stroke="#bfbfbf" points="998,-56.5 998,-75.5 1051,-75.5 1051,-56.5 998,-56.5"/>
<text text-anchor="middle" x="1024.5" y="-63.5" font-family="Helvetica,sans-Serif" font-size="10.00">string.h</text>
</a>
</g>
</g>
<!-- Node7&#45;&gt;Node14 -->
<g id="edge15" class="edge">
<title>Node7&#45;&gt;Node14</title>
<path fill="none" stroke="midnightblue" d="M802.27,-115.77C841.05,-108.1 915.33,-93.1 987.6,-76.37"/>
<polygon fill="midnightblue" stroke="midnightblue" points="988.83,-79.68 997.78,-74 987.24,-72.86 988.83,-79.68"/>
</g>
<!-- Node15 -->
<g id="node15" class="node">
<title>Node15</title>
<g id="a_node15"><a xlink:title=" ">
<polygon fill="none" stroke="#bfbfbf" points="1069.5,-56.5 1069.5,-75.5 1173.5,-75.5 1173.5,-56.5 1069.5,-56.5"/>
<text text-anchor="middle" x="1121.5" y="-63.5" font-family="Helvetica,sans-Serif" font-size="10.00">leanux&#45;config.hpp</text>
</a>
</g>
</g>
<!-- Node7&#45;&gt;Node15 -->
<g id="edge16" class="edge">
<title>Node7&#45;&gt;Node15</title>
<path fill="none" stroke="midnightblue" d="M802.08,-116.85C856.75,-108.32 983.08,-88.6 1059.47,-76.68"/>
<polygon fill="midnightblue" stroke="midnightblue" points="1060.1,-80.12 1069.44,-75.12 1059.02,-73.21 1060.1,-80.12"/>
</g>
<!-- Node16&#45;&gt;Node3 -->
<g id="edge18" class="edge">
<title>Node16&#45;&gt;Node3</title>
<path fill="none" stroke="midnightblue" d="M300.78,-115.09C278.27,-109.27 250.61,-97.91 236.5,-76 223.57,-55.92 248.29,-36.61 270.25,-24.33"/>
<polygon fill="midnightblue" stroke="midnightblue" points="272.16,-27.28 279.37,-19.51 268.89,-21.08 272.16,-27.28"/>
</g>
<!-- Node16&#45;&gt;Node11 -->
<g id="edge19" class="edge">
<title>Node16&#45;&gt;Node11</title>
<path fill="none" stroke="midnightblue" d="M335.5,-112.08C335.5,-105.01 335.5,-94.86 335.5,-85.99"/>
<polygon fill="midnightblue" stroke="midnightblue" points="339,-85.75 335.5,-75.75 332,-85.75 339,-85.75"/>
</g>
<!-- Node17&#45;&gt;Node3 -->
<g id="edge22" class="edge">
<title>Node17&#45;&gt;Node3</title>
<path fill="none" stroke="midnightblue" d="M421.75,-112.23C408.8,-99.39 383.56,-74.96 360.5,-56 347.27,-45.12 331.67,-33.81 319.42,-25.24"/>
<polygon fill="midnightblue" stroke="midnightblue" points="321.4,-22.35 311.18,-19.54 317.41,-28.11 321.4,-22.35"/>
</g>
<!-- Node17&#45;&gt;Node4 -->
<g id="edge27" class="edge">
<title>Node17&#45;&gt;Node4</title>
<path fill="none" stroke="midnightblue" d="M405.62,-112.44C379.21,-103.36 337.28,-88.94 307.76,-78.78"/>
<polygon fill="midnightblue" stroke="midnightblue" points="308.86,-75.46 298.26,-75.52 306.58,-82.08 308.86,-75.46"/>
</g>
<!-- Node17&#45;&gt;Node5 -->
<g id="edge28" class="edge">
<title>Node17&#45;&gt;Node5</title>
<path fill="none" stroke="midnightblue" d="M392.85,-113.66C342.69,-103.88 253.96,-86.58 199.77,-76.02"/>
<polygon fill="midnightblue" stroke="midnightblue" points="200.23,-72.54 189.74,-74.07 198.89,-79.41 200.23,-72.54"/>
</g>
<!-- Node17&#45;&gt;Node11 -->
<g id="edge25" class="edge">
<title>Node17&#45;&gt;Node11</title>
<path fill="none" stroke="midnightblue" d="M415.24,-112.32C400.28,-103.82 377.25,-90.73 359.77,-80.8"/>
<polygon fill="midnightblue" stroke="midnightblue" points="361.15,-77.55 350.73,-75.65 357.69,-83.64 361.15,-77.55"/>
</g>
<!-- Node18 -->
<g id="node18" class="node">
<title>Node18</title>
<g id="a_node18"><a xlink:title=" ">
<polygon fill="none" stroke="#bfbfbf" points="408,-56.5 408,-75.5 465,-75.5 465,-56.5 408,-56.5"/>
<text text-anchor="middle" x="436.5" y="-63.5" font-family="Helvetica,sans-Serif" font-size="10.00">ostream</text>
</a>
</g>
</g>
<!-- Node17&#45;&gt;Node18 -->
<g id="edge23" class="edge">
<title>Node17&#45;&gt;Node18</title>
<path fill="none" stroke="midnightblue" d="M431.49,-112.08C432.29,-104.93 433.43,-94.64 434.42,-85.69"/>
<polygon fill="midnightblue" stroke="midnightblue" points="437.9,-86.08 435.53,-75.75 430.94,-85.3 437.9,-86.08"/>
</g>
<!-- Node19 -->
<g id="node19" class="node">
<title>Node19</title>
<g id="a_node19"><a xlink:title=" ">
<polygon fill="none" stroke="#bfbfbf" points="483.5,-56.5 483.5,-75.5 521.5,-75.5 521.5,-56.5 483.5,-56.5"/>
<text text-anchor="middle" x="502.5" y="-63.5" font-family="Helvetica,sans-Serif" font-size="10.00">map</text>
</a>
</g>
</g>
<!-- Node17&#45;&gt;Node19 -->
<g id="edge24" class="edge">
<title>Node17&#45;&gt;Node19</title>
<path fill="none" stroke="midnightblue" d="M442.07,-112.32C452.92,-104.18 469.38,-91.84 482.38,-82.09"/>
<polygon fill="midnightblue" stroke="midnightblue" points="484.82,-84.63 490.72,-75.83 480.62,-79.03 484.82,-84.63"/>
</g>
<!-- Node20 -->
<g id="node20" class="node">
<title>Node20</title>
<g id="a_node20"><a xlink:title=" ">
<polygon fill="none" stroke="#bfbfbf" points="540,-56.5 540,-75.5 587,-75.5 587,-56.5 540,-56.5"/>
<text text-anchor="middle" x="563.5" y="-63.5" font-family="Helvetica,sans-Serif" font-size="10.00">vector</text>
</a>
</g>
</g>
<!-- Node17&#45;&gt;Node20 -->
<g id="edge26" class="edge">
<title>Node17&#45;&gt;Node20</title>
<path fill="none" stroke="midnightblue" d="M451.57,-112.44C473.56,-103.52 508.23,-89.44 533.16,-79.32"/>
<polygon fill="midnightblue" stroke="midnightblue" points="534.58,-82.52 542.52,-75.52 531.94,-76.04 534.58,-82.52"/>
</g>
</g>
</svg>
