<?xml version="1.0" encoding="UTF-8" standalone="no"?>
<!DOCTYPE svg PUBLIC "-//W3C//DTD SVG 1.1//EN"
 "http://www.w3.org/Graphics/SVG/1.1/DTD/svg11.dtd">
<!-- Generated by graphviz version 2.43.0 (0)
 -->
<!-- Title: lib/device.hpp Pages: 1 -->
<svg width="621pt" height="140pt"
 viewBox="0.00 0.00 621.00 140.00" xmlns="http://www.w3.org/2000/svg" xmlns:xlink="http://www.w3.org/1999/xlink">
<g id="graph0" class="graph" transform="scale(1 1) rotate(0) translate(4 136)">
<title>lib/device.hpp</title>
<!-- Node1 -->
<g id="node1" class="node">
<title>Node1</title>
<g id="a_node1"><a xlink:title=" ">
<polygon fill="#bfbfbf" stroke="black" points="67.5,-112.5 67.5,-131.5 152.5,-131.5 152.5,-112.5 67.5,-112.5"/>
<text text-anchor="middle" x="110" y="-119.5" font-family="Helvetica,sans-Serif" font-size="10.00">lib/device.hpp</text>
</a>
</g>
</g>
<!-- Node2 -->
<g id="node2" class="node">
<title>Node2</title>
<g id="a_node2"><a xlink:title=" ">
<polygon fill="none" stroke="#bfbfbf" points="0,-0.5 0,-19.5 32,-19.5 32,-0.5 0,-0.5"/>
<text text-anchor="middle" x="16" y="-7.5" font-family="Helvetica,sans-Serif" font-size="10.00">list</text>
</a>
</g>
</g>
<!-- Node1&#45;&gt;Node2 -->
<g id="edge1" class="edge">
<title>Node1&#45;&gt;Node2</title>
<path fill="none" stroke="midnightblue" d="M102.62,-112.37C86.97,-94.05 50.22,-51.05 29.98,-27.36"/>
<polygon fill="midnightblue" stroke="midnightblue" points="32.5,-24.92 23.34,-19.59 27.18,-29.47 32.5,-24.92"/>
</g>
<!-- Node3 -->
<g id="node3" class="node">
<title>Node3</title>
<g id="a_node3"><a xlink:title=" ">
<polygon fill="none" stroke="#bfbfbf" points="50,-0.5 50,-19.5 94,-19.5 94,-0.5 50,-0.5"/>
<text text-anchor="middle" x="72" y="-7.5" font-family="Helvetica,sans-Serif" font-size="10.00">string</text>
</a>
</g>
</g>
<!-- Node1&#45;&gt;Node3 -->
<g id="edge2" class="edge">
<title>Node1&#45;&gt;Node3</title>
<path fill="none" stroke="midnightblue" d="M107.02,-112.37C100.86,-94.54 86.61,-53.3 78.31,-29.27"/>
<polygon fill="midnightblue" stroke="midnightblue" points="81.54,-27.9 74.97,-19.59 74.93,-30.19 81.54,-27.9"/>
</g>
<!-- Node4 -->
<g id="node4" class="node">
<title>Node4</title>
<g id="a_node4"><a xlink:title=" ">
<polygon fill="none" stroke="#bfbfbf" points="112.5,-0.5 112.5,-19.5 159.5,-19.5 159.5,-0.5 112.5,-0.5"/>
<text text-anchor="middle" x="136" y="-7.5" font-family="Helvetica,sans-Serif" font-size="10.00">vector</text>
</a>
</g>
</g>
<!-- Node1&#45;&gt;Node4 -->
<g id="edge3" class="edge">
<title>Node1&#45;&gt;Node4</title>
<path fill="none" stroke="midnightblue" d="M112.04,-112.37C116.24,-94.62 125.92,-53.67 131.6,-29.6"/>
<polygon fill="midnightblue" stroke="midnightblue" points="135.08,-30.13 133.97,-19.59 128.26,-28.52 135.08,-30.13"/>
</g>
<!-- Node5 -->
<g id="node5" class="node">
<title>Node5</title>
<g id="a_node5"><a xlink:href="../../d9/db2/block_8hpp.html" target="_top" xlink:title=" ">
<polygon fill="none" stroke="black" points="216,-56.5 216,-75.5 280,-75.5 280,-56.5 216,-56.5"/>
<text text-anchor="middle" x="248" y="-63.5" font-family="Helvetica,sans-Serif" font-size="10.00">block.hpp</text>
</a>
</g>
</g>
<!-- Node1&#45;&gt;Node5 -->
<g id="edge4" class="edge">
<title>Node1&#45;&gt;Node5</title>
<path fill="none" stroke="midnightblue" d="M131.87,-112.44C154.78,-103.48 190.98,-89.31 216.87,-79.18"/>
<polygon fill="midnightblue" stroke="midnightblue" points="218.2,-82.42 226.24,-75.52 215.65,-75.9 218.2,-82.42"/>
</g>
<!-- Node5&#45;&gt;Node2 -->
<g id="edge7" class="edge">
<title>Node5&#45;&gt;Node2</title>
<path fill="none" stroke="midnightblue" d="M215.76,-59.35C176.68,-52.21 108.73,-38.85 41.89,-19.95"/>
<polygon fill="midnightblue" stroke="midnightblue" points="42.61,-16.52 32.04,-17.12 40.68,-23.25 42.61,-16.52"/>
</g>
<!-- Node5&#45;&gt;Node3 -->
<g id="edge5" class="edge">
<title>Node5&#45;&gt;Node3</title>
<path fill="none" stroke="midnightblue" d="M220.11,-56.44C188.49,-46.74 137.03,-30.95 103.85,-20.77"/>
<polygon fill="midnightblue" stroke="midnightblue" points="104.77,-17.39 94.18,-17.81 102.72,-24.09 104.77,-17.39"/>
</g>
<!-- Node5&#45;&gt;Node4 -->
<g id="edge9" class="edge">
<title>Node5&#45;&gt;Node4</title>
<path fill="none" stroke="midnightblue" d="M230.01,-56.32C211.96,-47.62 183.95,-34.12 163.2,-24.11"/>
<polygon fill="midnightblue" stroke="midnightblue" points="164.48,-20.84 153.95,-19.65 161.44,-27.15 164.48,-20.84"/>
</g>
<!-- Node6 -->
<g id="node6" class="node">
<title>Node6</title>
<g id="a_node6"><a xlink:title=" ">
<polygon fill="none" stroke="#bfbfbf" points="421.5,-0.5 421.5,-19.5 478.5,-19.5 478.5,-0.5 421.5,-0.5"/>
<text text-anchor="middle" x="450" y="-7.5" font-family="Helvetica,sans-Serif" font-size="10.00">ostream</text>
</a>
</g>
</g>
<!-- Node5&#45;&gt;Node6 -->
<g id="edge6" class="edge">
<title>Node5&#45;&gt;Node6</title>
<path fill="none" stroke="midnightblue" d="M280.01,-56.44C315.75,-46.89 373.57,-31.43 411.69,-21.24"/>
<polygon fill="midnightblue" stroke="midnightblue" points="412.65,-24.61 421.41,-18.64 410.84,-17.84 412.65,-24.61"/>
</g>
<!-- Node7 -->
<g id="node7" class="node">
<title>Node7</title>
<g id="a_node7"><a xlink:title=" ">
<polygon fill="none" stroke="#bfbfbf" points="497,-0.5 497,-19.5 535,-19.5 535,-0.5 497,-0.5"/>
<text text-anchor="middle" x="516" y="-7.5" font-family="Helvetica,sans-Serif" font-size="10.00">map</text>
</a>
</g>
</g>
<!-- Node5&#45;&gt;Node7 -->
<g id="edge8" class="edge">
<title>Node5&#45;&gt;Node7</title>
<path fill="none" stroke="midnightblue" d="M280.11,-60.29C324.51,-53.5 407.29,-39.82 486.65,-20.08"/>
<polygon fill="midnightblue" stroke="midnightblue" points="487.97,-23.36 496.81,-17.52 486.26,-16.57 487.97,-23.36"/>
</g>
<!-- Node8 -->
<g id="node8" class="node">
<title>Node8</title>
<g id="a_node8"><a xlink:title=" ">
<polygon fill="none" stroke="#bfbfbf" points="553,-0.5 553,-19.5 613,-19.5 613,-0.5 553,-0.5"/>
<text text-anchor="middle" x="583" y="-7.5" font-family="Helvetica,sans-Serif" font-size="10.00">iostream</text>
</a>
</g>
</g>
<!-- Node5&#45;&gt;Node8 -->
<g id="edge10" class="edge">
<title>Node5&#45;&gt;Node8</title>
<path fill="none" stroke="midnightblue" d="M280.11,-60.93C332.84,-54.08 441.24,-39.24 542.7,-20.13"/>
<polygon fill="midnightblue" stroke="midnightblue" points="543.64,-23.51 552.81,-18.2 542.34,-16.64 543.64,-23.51"/>
</g>
<!-- Node9 -->
<g id="node9" class="node">
<title>Node9</title>
<g id="a_node9"><a xlink:title=" ">
<polygon fill="none" stroke="#bfbfbf" points="177.5,-0.5 177.5,-19.5 230.5,-19.5 230.5,-0.5 177.5,-0.5"/>
<text text-anchor="middle" x="204" y="-7.5" font-family="Helvetica,sans-Serif" font-size="10.00">stdlib.h</text>
</a>
</g>
</g>
<!-- Node5&#45;&gt;Node9 -->
<g id="edge11" class="edge">
<title>Node5&#45;&gt;Node9</title>
<path fill="none" stroke="midnightblue" d="M240.73,-56.08C234.46,-48.38 225.21,-37.03 217.57,-27.65"/>
<polygon fill="midnightblue" stroke="midnightblue" points="220.16,-25.29 211.13,-19.75 214.73,-29.71 220.16,-25.29"/>
</g>
<!-- Node10 -->
<g id="node10" class="node">
<title>Node10</title>
<g id="a_node10"><a xlink:title=" ">
<polygon fill="none" stroke="#bfbfbf" points="249,-0.5 249,-19.5 335,-19.5 335,-0.5 249,-0.5"/>
<text text-anchor="middle" x="292" y="-7.5" font-family="Helvetica,sans-Serif" font-size="10.00">linux/kdev_t.h</text>
</a>
</g>
</g>
<!-- Node5&#45;&gt;Node10 -->
<g id="edge12" class="edge">
<title>Node5&#45;&gt;Node10</title>
<path fill="none" stroke="midnightblue" d="M255.27,-56.08C261.54,-48.38 270.79,-37.03 278.43,-27.65"/>
<polygon fill="midnightblue" stroke="midnightblue" points="281.27,-29.71 284.87,-19.75 275.84,-25.29 281.27,-29.71"/>
</g>
<!-- Node11 -->
<g id="node11" class="node">
<title>Node11</title>
<g id="a_node11"><a xlink:title=" ">
<polygon fill="none" stroke="#bfbfbf" points="353,-0.5 353,-19.5 403,-19.5 403,-0.5 353,-0.5"/>
<text text-anchor="middle" x="378" y="-7.5" font-family="Helvetica,sans-Serif" font-size="10.00">stdio.h</text>
</a>
</g>
</g>
<!-- Node5&#45;&gt;Node11 -->
<g id="edge13" class="edge">
<title>Node5&#45;&gt;Node11</title>
<path fill="none" stroke="midnightblue" d="M268.6,-56.44C289.99,-47.56 323.68,-33.56 348.02,-23.45"/>
<polygon fill="midnightblue" stroke="midnightblue" points="349.61,-26.58 357.5,-19.52 346.92,-20.12 349.61,-26.58"/>
</g>
</g>
</svg>
