<?xml version="1.0" encoding="UTF-8" standalone="no"?>
<!DOCTYPE svg PUBLIC "-//W3C//DTD SVG 1.1//EN"
 "http://www.w3.org/Graphics/SVG/1.1/DTD/svg11.dtd">
<!-- Generated by graphviz version 2.43.0 (0)
 -->
<!-- Title: main Pages: 1 -->
<svg width="511pt" height="204pt"
 viewBox="0.00 0.00 511.00 203.50" xmlns="http://www.w3.org/2000/svg" xmlns:xlink="http://www.w3.org/1999/xlink">
<g id="graph0" class="graph" transform="scale(1 1) rotate(0) translate(4 199.5)">
<title>main</title>
<!-- Node1 -->
<g id="node1" class="node">
<title>Node1</title>
<g id="a_node1"><a xlink:title=" ">
<polygon fill="#bfbfbf" stroke="black" points="0,-88 0,-107 41,-107 41,-88 0,-88"/>
<text text-anchor="middle" x="20.5" y="-95" font-family="Helvetica,sans-Serif" font-size="10.00">main</text>
</a>
</g>
</g>
<!-- Node2 -->
<g id="node2" class="node">
<title>Node2</title>
<g id="a_node2"><a xlink:href="../../d5/d1b/namespaceleanux_1_1tools_1_1lblk.html#a7e4a52393fd43c98af0e5e16603b54df" target="_top" xlink:title="Entry point.">
<polygon fill="none" stroke="black" points="77,-82.5 77,-112.5 181,-112.5 181,-82.5 77,-82.5"/>
<text text-anchor="start" x="85" y="-100.5" font-family="Helvetica,sans-Serif" font-size="10.00">leanux::tools::lblk</text>
<text text-anchor="middle" x="129" y="-89.5" font-family="Helvetica,sans-Serif" font-size="10.00">::main</text>
</a>
</g>
</g>
<!-- Node1&#45;&gt;Node2 -->
<g id="edge1" class="edge">
<title>Node1&#45;&gt;Node2</title>
<path fill="none" stroke="midnightblue" d="M41.03,-97.5C48.44,-97.5 57.33,-97.5 66.55,-97.5"/>
<polygon fill="midnightblue" stroke="midnightblue" points="66.64,-101 76.64,-97.5 66.64,-94 66.64,-101"/>
</g>
<!-- Node3 -->
<g id="node3" class="node">
<title>Node3</title>
<g id="a_node3"><a xlink:href="../../d8/d4a/classleanux_1_1Oops.html#a144d78069f0bb6388bbd1db6385418d2" target="_top" xlink:title="Get the Oops message.">
<polygon fill="none" stroke="black" points="217,-176 217,-195 363,-195 363,-176 217,-176"/>
<text text-anchor="middle" x="290" y="-183" font-family="Helvetica,sans-Serif" font-size="10.00">leanux::Oops::getMessage</text>
</a>
</g>
</g>
<!-- Node2&#45;&gt;Node3 -->
<g id="edge2" class="edge">
<title>Node2&#45;&gt;Node3</title>
<path fill="none" stroke="midnightblue" d="M144.98,-112.63C161.32,-128.3 188.9,-152.43 217,-166.5 221.65,-168.83 226.61,-170.89 231.68,-172.72"/>
<polygon fill="midnightblue" stroke="midnightblue" points="230.9,-176.15 241.5,-175.95 233.09,-169.5 230.9,-176.15"/>
</g>
<!-- Node4 -->
<g id="node4" class="node">
<title>Node4</title>
<g id="a_node4"><a xlink:href="../../d5/d1b/namespaceleanux_1_1tools_1_1lblk.html#a4d6a8f2c069d021c4731a845a1a07819" target="_top" xlink:title="Transform command line arguments into options.">
<polygon fill="none" stroke="black" points="238,-126.5 238,-156.5 342,-156.5 342,-126.5 238,-126.5"/>
<text text-anchor="start" x="246" y="-144.5" font-family="Helvetica,sans-Serif" font-size="10.00">leanux::tools::lblk</text>
<text text-anchor="middle" x="290" y="-133.5" font-family="Helvetica,sans-Serif" font-size="10.00">::getOptions</text>
</a>
</g>
</g>
<!-- Node2&#45;&gt;Node4 -->
<g id="edge3" class="edge">
<title>Node2&#45;&gt;Node4</title>
<path fill="none" stroke="midnightblue" d="M181.18,-111.66C196.08,-115.79 212.5,-120.33 227.93,-124.6"/>
<polygon fill="midnightblue" stroke="midnightblue" points="227.34,-128.07 237.91,-127.36 229.21,-121.32 227.34,-128.07"/>
</g>
<!-- Node5 -->
<g id="node5" class="node">
<title>Node5</title>
<g id="a_node5"><a xlink:href="../../d2/dd1/namespaceleanux.html#a757c5a3a5fb84a0ab93de54fd0c8db30" target="_top" xlink:title="Initialize leanux, run checks to verify leanux is compatible with the runtime environment.">
<polygon fill="none" stroke="red" points="254.5,-88 254.5,-107 325.5,-107 325.5,-88 254.5,-88"/>
<text text-anchor="middle" x="290" y="-95" font-family="Helvetica,sans-Serif" font-size="10.00">leanux::init</text>
</a>
</g>
</g>
<!-- Node2&#45;&gt;Node5 -->
<g id="edge4" class="edge">
<title>Node2&#45;&gt;Node5</title>
<path fill="none" stroke="midnightblue" d="M181.18,-97.5C201.5,-97.5 224.65,-97.5 244.28,-97.5"/>
<polygon fill="midnightblue" stroke="midnightblue" points="244.49,-101 254.49,-97.5 244.49,-94 244.49,-101"/>
</g>
<!-- Node21 -->
<g id="node6" class="node">
<title>Node21</title>
<g id="a_node6"><a xlink:href="../../d5/d1b/namespaceleanux_1_1tools_1_1lblk.html#ade354d9bff962865bdf923e00d2cca9e" target="_top" xlink:title="Print command help.">
<polygon fill="none" stroke="black" points="399,-22.5 399,-52.5 503,-52.5 503,-22.5 399,-22.5"/>
<text text-anchor="start" x="407" y="-40.5" font-family="Helvetica,sans-Serif" font-size="10.00">leanux::tools::lblk</text>
<text text-anchor="middle" x="451" y="-29.5" font-family="Helvetica,sans-Serif" font-size="10.00">::printHelp</text>
</a>
</g>
</g>
<!-- Node2&#45;&gt;Node21 -->
<g id="edge5" class="edge">
<title>Node2&#45;&gt;Node21</title>
<path fill="none" stroke="midnightblue" d="M181.45,-85.9C193.12,-83.37 205.47,-80.77 217,-78.5 275.19,-67.03 341.87,-55.46 388.95,-47.54"/>
<polygon fill="midnightblue" stroke="midnightblue" points="389.7,-50.97 398.98,-45.86 388.54,-44.06 389.7,-50.97"/>
</g>
<!-- Node22 -->
<g id="node7" class="node">
<title>Node22</title>
<g id="a_node7"><a xlink:href="../../d5/d1b/namespaceleanux_1_1tools_1_1lblk.html#aafee1346a1081bfa4f7470f921cd66b8" target="_top" xlink:title="Direct output run from options.">
<polygon fill="none" stroke="red" points="238,-0.5 238,-30.5 342,-30.5 342,-0.5 238,-0.5"/>
<text text-anchor="start" x="246" y="-18.5" font-family="Helvetica,sans-Serif" font-size="10.00">leanux::tools::lblk</text>
<text text-anchor="middle" x="290" y="-7.5" font-family="Helvetica,sans-Serif" font-size="10.00">::runOptions</text>
</a>
</g>
</g>
<!-- Node2&#45;&gt;Node22 -->
<g id="edge6" class="edge">
<title>Node2&#45;&gt;Node22</title>
<path fill="none" stroke="midnightblue" d="M153.12,-82.44C170.36,-71.51 194.69,-56.74 217,-45.5 224.56,-41.69 232.73,-37.95 240.75,-34.48"/>
<polygon fill="midnightblue" stroke="midnightblue" points="242.21,-37.66 250.05,-30.53 239.48,-31.21 242.21,-37.66"/>
</g>
<!-- Node22&#45;&gt;Node21 -->
<g id="edge7" class="edge">
<title>Node22&#45;&gt;Node21</title>
<path fill="none" stroke="midnightblue" d="M342.18,-22.58C357.08,-24.64 373.5,-26.91 388.93,-29.05"/>
<polygon fill="midnightblue" stroke="midnightblue" points="388.53,-32.53 398.91,-30.43 389.49,-25.59 388.53,-32.53"/>
</g>
</g>
</svg>
