<?xml version="1.0" encoding="UTF-8" standalone="no"?>
<!DOCTYPE svg PUBLIC "-//W3C//DTD SVG 1.1//EN"
 "http://www.w3.org/Graphics/SVG/1.1/DTD/svg11.dtd">
<!-- Generated by graphviz version 2.43.0 (0)
 -->
<!-- Title: leanux::net::TCPKey Pages: 1 -->
<svg width="154pt" height="174pt"
 viewBox="0.00 0.00 153.50 174.00" xmlns="http://www.w3.org/2000/svg" xmlns:xlink="http://www.w3.org/1999/xlink">
<g id="graph0" class="graph" transform="scale(1 1) rotate(0) translate(4 170)">
<title>leanux::net::TCPKey</title>
<!-- Node1 -->
<g id="node1" class="node">
<title>Node1</title>
<g id="a_node1"><a xlink:title="Utility structure to key TCP connections.">
<polygon fill="#bfbfbf" stroke="black" points="0,-0.5 0,-19.5 113,-19.5 113,-0.5 0,-0.5"/>
<text text-anchor="middle" x="56.5" y="-7.5" font-family="Helvetica,sans-Serif" font-size="10.00">leanux::net::TCPKey</text>
</a>
</g>
</g>
<!-- Node2 -->
<g id="node2" class="node">
<title>Node2</title>
<g id="a_node2"><a xlink:title=" ">
<polygon fill="none" stroke="#bfbfbf" points="14,-78.5 14,-97.5 43,-97.5 43,-78.5 14,-78.5"/>
<text text-anchor="middle" x="28.5" y="-85.5" font-family="Helvetica,sans-Serif" font-size="10.00">int</text>
</a>
</g>
</g>
<!-- Node2&#45;&gt;Node1 -->
<g id="edge1" class="edge">
<title>Node2&#45;&gt;Node1</title>
<path fill="none" stroke="#9a32cd" stroke-dasharray="5,2" d="M30.04,-68.18C31.28,-58.83 33.5,-47.53 37.5,-38 40.25,-31.45 44.79,-24.91 48.75,-19.91"/>
<polygon fill="#9a32cd" stroke="#9a32cd" points="26.53,-68.05 28.97,-78.36 33.49,-68.78 26.53,-68.05"/>
<text text-anchor="middle" x="50" y="-52" font-family="Helvetica,sans-Serif" font-size="10.00"> uid_</text>
<text text-anchor="middle" x="50" y="-41" font-family="Helvetica,sans-Serif" font-size="10.00">port_</text>
</g>
<!-- Node3 -->
<g id="node3" class="node">
<title>Node3</title>
<g id="a_node3"><a xlink:title="STL class.">
<polygon fill="none" stroke="#bfbfbf" points="61,-78.5 61,-97.5 126,-97.5 126,-78.5 61,-78.5"/>
<text text-anchor="middle" x="93.5" y="-85.5" font-family="Helvetica,sans-Serif" font-size="10.00">std::string</text>
</a>
</g>
</g>
<!-- Node3&#45;&gt;Node1 -->
<g id="edge2" class="edge">
<title>Node3&#45;&gt;Node1</title>
<path fill="none" stroke="#9a32cd" stroke-dasharray="5,2" d="M84.8,-69.12C77.21,-53.53 66.52,-31.59 60.69,-19.62"/>
<polygon fill="#9a32cd" stroke="#9a32cd" points="81.73,-70.82 89.26,-78.28 88.03,-67.76 81.73,-70.82"/>
<text text-anchor="middle" x="87.5" y="-46.5" font-family="Helvetica,sans-Serif" font-size="10.00"> ip_</text>
</g>
<!-- Node4 -->
<g id="node4" class="node">
<title>Node4</title>
<g id="a_node4"><a xlink:title="STL class.">
<polygon fill="none" stroke="#bfbfbf" points="41.5,-135.5 41.5,-165.5 145.5,-165.5 145.5,-135.5 41.5,-135.5"/>
<text text-anchor="start" x="49.5" y="-153.5" font-family="Helvetica,sans-Serif" font-size="10.00">std::basic_string&lt;</text>
<text text-anchor="middle" x="93.5" y="-142.5" font-family="Helvetica,sans-Serif" font-size="10.00"> char &gt;</text>
</a>
</g>
</g>
<!-- Node4&#45;&gt;Node3 -->
<g id="edge3" class="edge">
<title>Node4&#45;&gt;Node3</title>
<path fill="none" stroke="midnightblue" d="M93.5,-125.35C93.5,-115.51 93.5,-104.78 93.5,-97.54"/>
<polygon fill="midnightblue" stroke="midnightblue" points="90,-125.47 93.5,-135.47 97,-125.47 90,-125.47"/>
</g>
</g>
</svg>
