<?xml version="1.0" encoding="UTF-8" standalone="no"?>
<!DOCTYPE svg PUBLIC "-//W3C//DTD SVG 1.1//EN"
 "http://www.w3.org/Graphics/SVG/1.1/DTD/svg11.dtd">
<!-- Generated by graphviz version 2.43.0 (0)
 -->
<!-- Title: leanux::sysdevice::NVMeDevice::getPropertyValueList Pages: 1 -->
<svg width="593pt" height="312pt"
 viewBox="0.00 0.00 593.00 312.00" xmlns="http://www.w3.org/2000/svg" xmlns:xlink="http://www.w3.org/1999/xlink">
<g id="graph0" class="graph" transform="scale(1 1) rotate(0) translate(4 308)">
<title>leanux::sysdevice::NVMeDevice::getPropertyValueList</title>
<!-- Node1 -->
<g id="node1" class="node">
<title>Node1</title>
<g id="a_node1"><a xlink:title=" ">
<polygon fill="#bfbfbf" stroke="black" points="0,-175.5 0,-205.5 187,-205.5 187,-175.5 0,-175.5"/>
<text text-anchor="start" x="8" y="-193.5" font-family="Helvetica,sans-Serif" font-size="10.00">leanux::sysdevice::</text>
<text text-anchor="middle" x="93.5" y="-182.5" font-family="Helvetica,sans-Serif" font-size="10.00">NVMeDevice::getPropertyValueList</text>
</a>
</g>
</g>
<!-- Node2 -->
<g id="node2" class="node">
<title>Node2</title>
<g id="a_node2"><a xlink:href="../../d8/db1/namespaceleanux_1_1util.html#a979843e3d99f053101f902ec38985833" target="_top" xlink:title="convert a byte value to pretty print string.">
<polygon fill="none" stroke="black" points="254,-274 254,-293 367,-293 367,-274 254,-274"/>
<text text-anchor="middle" x="310.5" y="-281" font-family="Helvetica,sans-Serif" font-size="10.00">leanux::util::ByteStr</text>
</a>
</g>
</g>
<!-- Node1&#45;&gt;Node2 -->
<g id="edge1" class="edge">
<title>Node1&#45;&gt;Node2</title>
<path fill="none" stroke="midnightblue" d="M116.2,-205.79C140.95,-222.54 183.15,-249.07 223,-264.5 229.7,-267.09 236.84,-269.38 244.04,-271.37"/>
<polygon fill="midnightblue" stroke="midnightblue" points="243.28,-274.79 253.84,-273.92 245.04,-268.02 243.28,-274.79"/>
</g>
<!-- Node3 -->
<g id="node3" class="node">
<title>Node3</title>
<g id="a_node3"><a xlink:href="../../d7/d28/classleanux_1_1block_1_1MajorMinor.html#a53428887ee9d78196b265e624087ce2b" target="_top" xlink:title="get a list of device aliases, returned as full paths.">
<polygon fill="none" stroke="black" points="239,-224.5 239,-254.5 382,-254.5 382,-224.5 239,-224.5"/>
<text text-anchor="start" x="247" y="-242.5" font-family="Helvetica,sans-Serif" font-size="10.00">leanux::block::MajorMinor</text>
<text text-anchor="middle" x="310.5" y="-231.5" font-family="Helvetica,sans-Serif" font-size="10.00">::getAliases</text>
</a>
</g>
</g>
<!-- Node1&#45;&gt;Node3 -->
<g id="edge2" class="edge">
<title>Node1&#45;&gt;Node3</title>
<path fill="none" stroke="midnightblue" d="M160.47,-205.53C183.69,-210.83 209.96,-216.81 233.9,-222.27"/>
<polygon fill="midnightblue" stroke="midnightblue" points="233.13,-225.68 243.66,-224.49 234.68,-218.86 233.13,-225.68"/>
</g>
<!-- Node10 -->
<g id="node6" class="node">
<title>Node10</title>
<g id="a_node6"><a xlink:href="../../d2/d31/classleanux_1_1sysdevice_1_1BlockDevice.html#aaed715a73aad1b5f05aaad7906c9ea57" target="_top" xlink:title=" ">
<polygon fill="none" stroke="black" points="233,-175.5 233,-205.5 388,-205.5 388,-175.5 233,-175.5"/>
<text text-anchor="start" x="241" y="-193.5" font-family="Helvetica,sans-Serif" font-size="10.00">leanux::sysdevice::</text>
<text text-anchor="middle" x="310.5" y="-182.5" font-family="Helvetica,sans-Serif" font-size="10.00">BlockDevice::getMajorMinor</text>
</a>
</g>
</g>
<!-- Node1&#45;&gt;Node10 -->
<g id="edge5" class="edge">
<title>Node1&#45;&gt;Node10</title>
<path fill="none" stroke="midnightblue" d="M187.24,-190.5C199.02,-190.5 211.04,-190.5 222.72,-190.5"/>
<polygon fill="midnightblue" stroke="midnightblue" points="222.88,-194 232.88,-190.5 222.88,-187 222.88,-194"/>
</g>
<!-- Node13 -->
<g id="node9" class="node">
<title>Node13</title>
<g id="a_node9"><a xlink:href="../../d1/d02/classleanux_1_1sysdevice_1_1SysDevice.html#a4f96d039ea916556ed18bc86fab4f5c3" target="_top" xlink:title=" ">
<polygon fill="none" stroke="black" points="251,-126.5 251,-156.5 370,-156.5 370,-126.5 251,-126.5"/>
<text text-anchor="start" x="259" y="-144.5" font-family="Helvetica,sans-Serif" font-size="10.00">leanux::sysdevice::</text>
<text text-anchor="middle" x="310.5" y="-133.5" font-family="Helvetica,sans-Serif" font-size="10.00">SysDevice::getModel</text>
</a>
</g>
</g>
<!-- Node1&#45;&gt;Node13 -->
<g id="edge8" class="edge">
<title>Node1&#45;&gt;Node13</title>
<path fill="none" stroke="midnightblue" d="M160.47,-175.47C185.97,-169.65 215.15,-163 240.9,-157.14"/>
<polygon fill="midnightblue" stroke="midnightblue" points="241.98,-160.48 250.95,-154.84 240.42,-153.65 241.98,-160.48"/>
</g>
<!-- Node14 -->
<g id="node10" class="node">
<title>Node14</title>
<g id="a_node10"><a xlink:href="../../d1/d02/classleanux_1_1sysdevice_1_1SysDevice.html#ae45d4c50b05a48b480911a1aaeaeacc1" target="_top" xlink:title=" ">
<polygon fill="none" stroke="black" points="223,-63.5 223,-93.5 398,-93.5 398,-63.5 223,-63.5"/>
<text text-anchor="start" x="231" y="-81.5" font-family="Helvetica,sans-Serif" font-size="10.00">leanux::sysdevice::</text>
<text text-anchor="middle" x="310.5" y="-70.5" font-family="Helvetica,sans-Serif" font-size="10.00">SysDevice::getPropertyValueList</text>
</a>
</g>
</g>
<!-- Node1&#45;&gt;Node14 -->
<g id="edge9" class="edge">
<title>Node1&#45;&gt;Node14</title>
<path fill="none" stroke="midnightblue" d="M119.72,-175.25C145.36,-159.96 186.4,-136.1 223,-117.5 236.48,-110.65 251.42,-103.7 265.04,-97.59"/>
<polygon fill="midnightblue" stroke="midnightblue" points="266.5,-100.78 274.22,-93.52 263.66,-94.38 266.5,-100.78"/>
</g>
<!-- Node4 -->
<g id="node4" class="node">
<title>Node4</title>
<g id="a_node4"><a xlink:href="../../d7/d28/classleanux_1_1block_1_1MajorMinor.html#a8fa26dbc85f683ed73fcec3a2db42821" target="_top" xlink:title="return the MajorMinor dev_t.">
<polygon fill="none" stroke="black" points="438,-273.5 438,-303.5 581,-303.5 581,-273.5 438,-273.5"/>
<text text-anchor="start" x="446" y="-291.5" font-family="Helvetica,sans-Serif" font-size="10.00">leanux::block::MajorMinor</text>
<text text-anchor="middle" x="509.5" y="-280.5" font-family="Helvetica,sans-Serif" font-size="10.00">::getDevT</text>
</a>
</g>
</g>
<!-- Node3&#45;&gt;Node4 -->
<g id="edge3" class="edge">
<title>Node3&#45;&gt;Node4</title>
<path fill="none" stroke="midnightblue" d="M371.95,-254.53C392.93,-259.76 416.65,-265.65 438.35,-271.05"/>
<polygon fill="midnightblue" stroke="midnightblue" points="437.62,-274.48 448.17,-273.49 439.31,-267.68 437.62,-274.48"/>
</g>
<!-- Node5 -->
<g id="node5" class="node">
<title>Node5</title>
<g id="a_node5"><a xlink:href="../../d7/d28/classleanux_1_1block_1_1MajorMinor.html#a7ef43192321c82d296575f35b69c52d4" target="_top" xlink:title="Get the udev path for the device.">
<polygon fill="none" stroke="red" points="438,-224.5 438,-254.5 581,-254.5 581,-224.5 438,-224.5"/>
<text text-anchor="start" x="446" y="-242.5" font-family="Helvetica,sans-Serif" font-size="10.00">leanux::block::MajorMinor</text>
<text text-anchor="middle" x="509.5" y="-231.5" font-family="Helvetica,sans-Serif" font-size="10.00">::getUDevPath</text>
</a>
</g>
</g>
<!-- Node3&#45;&gt;Node5 -->
<g id="edge4" class="edge">
<title>Node3&#45;&gt;Node5</title>
<path fill="none" stroke="midnightblue" d="M382.07,-239.5C396.78,-239.5 412.39,-239.5 427.45,-239.5"/>
<polygon fill="midnightblue" stroke="midnightblue" points="427.77,-243 437.77,-239.5 427.77,-236 427.77,-243"/>
</g>
<!-- Node11 -->
<g id="node7" class="node">
<title>Node11</title>
<g id="a_node7"><a xlink:href="../../d8/db1/namespaceleanux_1_1util.html#a6421ca2c46c56eebe1a486c6a498ce7d" target="_top" xlink:title="Test if a file exists and can be read.">
<polygon fill="none" stroke="black" points="434,-186 434,-205 585,-205 585,-186 434,-186"/>
<text text-anchor="middle" x="509.5" y="-193" font-family="Helvetica,sans-Serif" font-size="10.00">leanux::util::fileReadAccess</text>
</a>
</g>
</g>
<!-- Node10&#45;&gt;Node11 -->
<g id="edge6" class="edge">
<title>Node10&#45;&gt;Node11</title>
<path fill="none" stroke="midnightblue" d="M388.23,-192.45C399.84,-192.74 411.88,-193.05 423.66,-193.35"/>
<polygon fill="midnightblue" stroke="midnightblue" points="423.83,-196.85 433.92,-193.61 424.01,-189.85 423.83,-196.85"/>
</g>
<!-- Node12 -->
<g id="node8" class="node">
<title>Node12</title>
<g id="a_node8"><a xlink:href="../../d8/db1/namespaceleanux_1_1util.html#a57bfd49353610b3d0b6d121b264c676e" target="_top" xlink:title="read the file as a single string.">
<polygon fill="none" stroke="black" points="436.5,-148 436.5,-167 582.5,-167 582.5,-148 436.5,-148"/>
<text text-anchor="middle" x="509.5" y="-155" font-family="Helvetica,sans-Serif" font-size="10.00">leanux::util::fileReadString</text>
</a>
</g>
</g>
<!-- Node10&#45;&gt;Node12 -->
<g id="edge7" class="edge">
<title>Node10&#45;&gt;Node12</title>
<path fill="none" stroke="midnightblue" d="M388.23,-177.65C405.84,-174.7 424.43,-171.58 441.59,-168.71"/>
<polygon fill="midnightblue" stroke="midnightblue" points="442.22,-172.15 451.5,-167.05 441.06,-165.25 442.22,-172.15"/>
</g>
<!-- Node15 -->
<g id="node11" class="node">
<title>Node15</title>
<g id="a_node11"><a xlink:href="../../d1/d02/classleanux_1_1sysdevice_1_1SysDevice.html#af93bf56dfb812cdfa443dcfaffcbbb25" target="_top" xlink:title="Get the device class for this device.">
<polygon fill="none" stroke="black" points="451.5,-98.5 451.5,-128.5 567.5,-128.5 567.5,-98.5 451.5,-98.5"/>
<text text-anchor="start" x="459.5" y="-116.5" font-family="Helvetica,sans-Serif" font-size="10.00">leanux::sysdevice::</text>
<text text-anchor="middle" x="509.5" y="-105.5" font-family="Helvetica,sans-Serif" font-size="10.00">SysDevice::getClass</text>
</a>
</g>
</g>
<!-- Node14&#45;&gt;Node15 -->
<g id="edge10" class="edge">
<title>Node14&#45;&gt;Node15</title>
<path fill="none" stroke="midnightblue" d="M396.19,-93.55C411.36,-96.24 426.97,-99.01 441.55,-101.61"/>
<polygon fill="midnightblue" stroke="midnightblue" points="441,-105.06 451.46,-103.37 442.23,-98.17 441,-105.06"/>
</g>
<!-- Node16 -->
<g id="node12" class="node">
<title>Node16</title>
<g id="a_node12"><a xlink:href="../../d1/d02/classleanux_1_1sysdevice_1_1SysDevice.html#af7a1af7a4b7729e150cceed395e4425b" target="_top" xlink:title="Get the driver for this device.">
<polygon fill="none" stroke="red" points="450,-49.5 450,-79.5 569,-79.5 569,-49.5 450,-49.5"/>
<text text-anchor="start" x="458" y="-67.5" font-family="Helvetica,sans-Serif" font-size="10.00">leanux::sysdevice::</text>
<text text-anchor="middle" x="509.5" y="-56.5" font-family="Helvetica,sans-Serif" font-size="10.00">SysDevice::getDriver</text>
</a>
</g>
</g>
<!-- Node14&#45;&gt;Node16 -->
<g id="edge11" class="edge">
<title>Node14&#45;&gt;Node16</title>
<path fill="none" stroke="midnightblue" d="M398.19,-72.34C412.1,-71.35 426.32,-70.34 439.73,-69.39"/>
<polygon fill="midnightblue" stroke="midnightblue" points="440.08,-72.87 449.8,-68.67 439.58,-65.89 440.08,-72.87"/>
</g>
<!-- Node18 -->
<g id="node13" class="node">
<title>Node18</title>
<g id="a_node13"><a xlink:href="../../d1/d02/classleanux_1_1sysdevice_1_1SysDevice.html#a899968c4a70ecad67694f6850cf730fd" target="_top" xlink:title="Get a string representation for the SysDeviceType.">
<polygon fill="none" stroke="black" points="447,-0.5 447,-30.5 572,-30.5 572,-0.5 447,-0.5"/>
<text text-anchor="start" x="455" y="-18.5" font-family="Helvetica,sans-Serif" font-size="10.00">leanux::sysdevice::</text>
<text text-anchor="middle" x="509.5" y="-7.5" font-family="Helvetica,sans-Serif" font-size="10.00">SysDevice::getTypeStr</text>
</a>
</g>
</g>
<!-- Node14&#45;&gt;Node18 -->
<g id="edge12" class="edge">
<title>Node14&#45;&gt;Node18</title>
<path fill="none" stroke="midnightblue" d="M358.44,-63.49C386.45,-54.53 422.22,-43.09 451.81,-33.63"/>
<polygon fill="midnightblue" stroke="midnightblue" points="453.12,-36.88 461.58,-30.5 450.99,-30.22 453.12,-36.88"/>
</g>
</g>
</svg>
