<?xml version="1.0" encoding="UTF-8" standalone="no"?>
<!DOCTYPE svg PUBLIC "-//W3C//DTD SVG 1.1//EN"
 "http://www.w3.org/Graphics/SVG/1.1/DTD/svg11.dtd">
<!-- Generated by graphviz version 2.43.0 (0)
 -->
<!-- Title: leanux::cpu::CPUInfo Pages: 1 -->
<svg width="161pt" height="174pt"
 viewBox="0.00 0.00 161.00 174.00" xmlns="http://www.w3.org/2000/svg" xmlns:xlink="http://www.w3.org/1999/xlink">
<g id="graph0" class="graph" transform="scale(1 1) rotate(0) translate(4 170)">
<title>leanux::cpu::CPUInfo</title>
<!-- Node1 -->
<g id="node1" class="node">
<title>Node1</title>
<g id="a_node1"><a xlink:title="CPU information.">
<polygon fill="#bfbfbf" stroke="black" points="3,-0.5 3,-19.5 121,-19.5 121,-0.5 3,-0.5"/>
<text text-anchor="middle" x="62" y="-7.5" font-family="Helvetica,sans-Serif" font-size="10.00">leanux::cpu::CPUInfo</text>
</a>
</g>
</g>
<!-- Node2 -->
<g id="node2" class="node">
<title>Node2</title>
<g id="a_node2"><a xlink:title=" ">
<polygon fill="none" stroke="#bfbfbf" points="0,-78.5 0,-97.5 50,-97.5 50,-78.5 0,-78.5"/>
<text text-anchor="middle" x="25" y="-85.5" font-family="Helvetica,sans-Serif" font-size="10.00">double</text>
</a>
</g>
</g>
<!-- Node2&#45;&gt;Node1 -->
<g id="edge1" class="edge">
<title>Node2&#45;&gt;Node1</title>
<path fill="none" stroke="#9a32cd" stroke-dasharray="5,2" d="M21.65,-68.42C20.81,-58.83 21.26,-47.25 26,-38 29.99,-30.21 37.38,-24.07 44.43,-19.63"/>
<polygon fill="#9a32cd" stroke="#9a32cd" points="18.2,-69.05 23.03,-78.48 25.13,-68.1 18.2,-69.05"/>
<text text-anchor="middle" x="52" y="-52" font-family="Helvetica,sans-Serif" font-size="10.00"> bogomips</text>
<text text-anchor="middle" x="52" y="-41" font-family="Helvetica,sans-Serif" font-size="10.00">cpu_mhz</text>
</g>
<!-- Node3 -->
<g id="node3" class="node">
<title>Node3</title>
<g id="a_node3"><a xlink:title="STL class.">
<polygon fill="none" stroke="#bfbfbf" points="68.5,-78.5 68.5,-97.5 133.5,-97.5 133.5,-78.5 68.5,-78.5"/>
<text text-anchor="middle" x="101" y="-85.5" font-family="Helvetica,sans-Serif" font-size="10.00">std::string</text>
</a>
</g>
</g>
<!-- Node3&#45;&gt;Node1 -->
<g id="edge2" class="edge">
<title>Node3&#45;&gt;Node1</title>
<path fill="none" stroke="#9a32cd" stroke-dasharray="5,2" d="M92.96,-68.79C88.71,-59.47 83.3,-48.02 78,-38 74.74,-31.84 70.74,-25.09 67.55,-19.88"/>
<polygon fill="#9a32cd" stroke="#9a32cd" points="89.89,-70.51 97.18,-78.2 96.28,-67.64 89.89,-70.51"/>
<text text-anchor="middle" x="106" y="-46.5" font-family="Helvetica,sans-Serif" font-size="10.00"> model</text>
</g>
<!-- Node4 -->
<g id="node4" class="node">
<title>Node4</title>
<g id="a_node4"><a xlink:title="STL class.">
<polygon fill="none" stroke="#bfbfbf" points="49,-135.5 49,-165.5 153,-165.5 153,-135.5 49,-135.5"/>
<text text-anchor="start" x="57" y="-153.5" font-family="Helvetica,sans-Serif" font-size="10.00">std::basic_string&lt;</text>
<text text-anchor="middle" x="101" y="-142.5" font-family="Helvetica,sans-Serif" font-size="10.00"> char &gt;</text>
</a>
</g>
</g>
<!-- Node4&#45;&gt;Node3 -->
<g id="edge3" class="edge">
<title>Node4&#45;&gt;Node3</title>
<path fill="none" stroke="midnightblue" d="M101,-125.35C101,-115.51 101,-104.78 101,-97.54"/>
<polygon fill="midnightblue" stroke="midnightblue" points="97.5,-125.47 101,-135.47 104.5,-125.47 97.5,-125.47"/>
</g>
</g>
</svg>
