<?xml version="1.0" encoding="UTF-8" standalone="no"?>
<!DOCTYPE svg PUBLIC "-//W3C//DTD SVG 1.1//EN"
 "http://www.w3.org/Graphics/SVG/1.1/DTD/svg11.dtd">
<!-- Generated by graphviz version 2.43.0 (0)
 -->
<!-- Title: leanux::tools::lard::CPUSnap::startSnap Pages: 1 -->
<svg width="488pt" height="39pt"
 viewBox="0.00 0.00 488.00 39.00" xmlns="http://www.w3.org/2000/svg" xmlns:xlink="http://www.w3.org/1999/xlink">
<g id="graph0" class="graph" transform="scale(1 1) rotate(0) translate(4 35)">
<title>leanux::tools::lard::CPUSnap::startSnap</title>
<!-- Node1 -->
<g id="node1" class="node">
<title>Node1</title>
<g id="a_node1"><a xlink:title=" ">
<polygon fill="#bfbfbf" stroke="black" points="0,-0.5 0,-30.5 119,-30.5 119,-0.5 0,-0.5"/>
<text text-anchor="start" x="8" y="-18.5" font-family="Helvetica,sans-Serif" font-size="10.00">leanux::tools::lard</text>
<text text-anchor="middle" x="59.5" y="-7.5" font-family="Helvetica,sans-Serif" font-size="10.00">::CPUSnap::startSnap</text>
</a>
</g>
</g>
<!-- Node2 -->
<g id="node2" class="node">
<title>Node2</title>
<g id="a_node2"><a xlink:href="../../da/da3/namespaceleanux_1_1cpu.html#a59cf2af9830e859ca848f87c9d605d6f" target="_top" xlink:title="Get CPU usage statistics from /proc/stat.">
<polygon fill="none" stroke="black" points="155,-6 155,-25 295,-25 295,-6 155,-6"/>
<text text-anchor="middle" x="225" y="-13" font-family="Helvetica,sans-Serif" font-size="10.00">leanux::cpu::getCPUStats</text>
</a>
</g>
</g>
<!-- Node1&#45;&gt;Node2 -->
<g id="edge1" class="edge">
<title>Node1&#45;&gt;Node2</title>
<path fill="none" stroke="midnightblue" d="M119.07,-15.5C127.43,-15.5 136.15,-15.5 144.82,-15.5"/>
<polygon fill="midnightblue" stroke="midnightblue" points="144.97,-19 154.97,-15.5 144.97,-12 144.97,-19"/>
</g>
<!-- Node3 -->
<g id="node3" class="node">
<title>Node3</title>
<g id="a_node3"><a xlink:href="../../dd/d42/namespaceleanux_1_1system.html#abb67aa26c6ef63b4ad7b4194f1a8d774" target="_top" xlink:title="Get the number of clock ticks per second.">
<polygon fill="none" stroke="black" points="331,-6 331,-25 480,-25 480,-6 331,-6"/>
<text text-anchor="middle" x="405.5" y="-13" font-family="Helvetica,sans-Serif" font-size="10.00">leanux::system::getUserHz</text>
</a>
</g>
</g>
<!-- Node2&#45;&gt;Node3 -->
<g id="edge2" class="edge">
<title>Node2&#45;&gt;Node3</title>
<path fill="none" stroke="midnightblue" d="M295.01,-15.5C303.47,-15.5 312.19,-15.5 320.84,-15.5"/>
<polygon fill="midnightblue" stroke="midnightblue" points="320.94,-19 330.94,-15.5 320.94,-12 320.94,-19"/>
</g>
</g>
</svg>
