<?xml version="1.0" encoding="UTF-8" standalone="no"?>
<!DOCTYPE svg PUBLIC "-//W3C//DTD SVG 1.1//EN"
 "http://www.w3.org/Graphics/SVG/1.1/DTD/svg11.dtd">
<!-- Generated by graphviz version 2.43.0 (0)
 -->
<!-- Title: leanux::tools::lard::CPUSnap::stopSnap Pages: 1 -->
<svg width="487pt" height="39pt"
 viewBox="0.00 0.00 487.00 39.00" xmlns="http://www.w3.org/2000/svg" xmlns:xlink="http://www.w3.org/1999/xlink">
<g id="graph0" class="graph" transform="scale(1 1) rotate(0) translate(4 35)">
<title>leanux::tools::lard::CPUSnap::stopSnap</title>
<!-- Node1 -->
<g id="node1" class="node">
<title>Node1</title>
<g id="a_node1"><a xlink:title=" ">
<polygon fill="#bfbfbf" stroke="black" points="0,-0.5 0,-30.5 118,-30.5 118,-0.5 0,-0.5"/>
<text text-anchor="start" x="8" y="-18.5" font-family="Helvetica,sans-Serif" font-size="10.00">leanux::tools::lard</text>
<text text-anchor="middle" x="59" y="-7.5" font-family="Helvetica,sans-Serif" font-size="10.00">::CPUSnap::stopSnap</text>
</a>
</g>
</g>
<!-- Node2 -->
<g id="node2" class="node">
<title>Node2</title>
<g id="a_node2"><a xlink:href="../../da/da3/namespaceleanux_1_1cpu.html#a59cf2af9830e859ca848f87c9d605d6f" target="_top" xlink:title="Get CPU usage statistics from /proc/stat.">
<polygon fill="none" stroke="black" points="154,-6 154,-25 294,-25 294,-6 154,-6"/>
<text text-anchor="middle" x="224" y="-13" font-family="Helvetica,sans-Serif" font-size="10.00">leanux::cpu::getCPUStats</text>
</a>
</g>
</g>
<!-- Node1&#45;&gt;Node2 -->
<g id="edge1" class="edge">
<title>Node1&#45;&gt;Node2</title>
<path fill="none" stroke="midnightblue" d="M118.39,-15.5C126.66,-15.5 135.28,-15.5 143.86,-15.5"/>
<polygon fill="midnightblue" stroke="midnightblue" points="143.9,-19 153.9,-15.5 143.9,-12 143.9,-19"/>
</g>
<!-- Node3 -->
<g id="node3" class="node">
<title>Node3</title>
<g id="a_node3"><a xlink:href="../../dd/d42/namespaceleanux_1_1system.html#abb67aa26c6ef63b4ad7b4194f1a8d774" target="_top" xlink:title="Get the number of clock ticks per second.">
<polygon fill="none" stroke="black" points="330,-6 330,-25 479,-25 479,-6 330,-6"/>
<text text-anchor="middle" x="404.5" y="-13" font-family="Helvetica,sans-Serif" font-size="10.00">leanux::system::getUserHz</text>
</a>
</g>
</g>
<!-- Node2&#45;&gt;Node3 -->
<g id="edge2" class="edge">
<title>Node2&#45;&gt;Node3</title>
<path fill="none" stroke="midnightblue" d="M294.01,-15.5C302.47,-15.5 311.19,-15.5 319.84,-15.5"/>
<polygon fill="midnightblue" stroke="midnightblue" points="319.94,-19 329.94,-15.5 319.94,-12 319.94,-19"/>
</g>
</g>
</svg>
