<?xml version="1.0" encoding="UTF-8" standalone="no"?>
<!DOCTYPE svg PUBLIC "-//W3C//DTD SVG 1.1//EN"
 "http://www.w3.org/Graphics/SVG/1.1/DTD/svg11.dtd">
<!-- Generated by graphviz version 2.43.0 (0)
 -->
<!-- Title: leanux::tools::lblk::Options Pages: 1 -->
<svg width="156pt" height="240pt"
 viewBox="0.00 0.00 156.00 240.00" xmlns="http://www.w3.org/2000/svg" xmlns:xlink="http://www.w3.org/1999/xlink">
<g id="graph0" class="graph" transform="scale(1 1) rotate(0) translate(4 236)">
<title>leanux::tools::lblk::Options</title>
<!-- Node1 -->
<g id="node1" class="node">
<title>Node1</title>
<g id="a_node1"><a xlink:title="Decoded options as specified on command line.">
<polygon fill="#bfbfbf" stroke="black" points="35,-0.5 35,-30.5 139,-30.5 139,-0.5 35,-0.5"/>
<text text-anchor="start" x="43" y="-18.5" font-family="Helvetica,sans-Serif" font-size="10.00">leanux::tools::lblk</text>
<text text-anchor="middle" x="87" y="-7.5" font-family="Helvetica,sans-Serif" font-size="10.00">::Options</text>
</a>
</g>
</g>
<!-- Node2 -->
<g id="node2" class="node">
<title>Node2</title>
<g id="a_node2"><a xlink:title="STL class.">
<polygon fill="none" stroke="#bfbfbf" points="19.5,-144.5 19.5,-163.5 84.5,-163.5 84.5,-144.5 19.5,-144.5"/>
<text text-anchor="middle" x="52" y="-151.5" font-family="Helvetica,sans-Serif" font-size="10.00">std::string</text>
</a>
</g>
</g>
<!-- Node2&#45;&gt;Node1 -->
<g id="edge1" class="edge">
<title>Node2&#45;&gt;Node1</title>
<path fill="none" stroke="#9a32cd" stroke-dasharray="5,2" d="M52.43,-134.12C53.43,-112.84 56.68,-77.51 67,-49 69.3,-42.65 72.94,-36.2 76.49,-30.74"/>
<polygon fill="#9a32cd" stroke="#9a32cd" points="48.92,-134.24 52.07,-144.36 55.92,-134.49 48.92,-134.24"/>
<text text-anchor="middle" x="83.5" y="-90.5" font-family="Helvetica,sans-Serif" font-size="10.00"> opt_w</text>
<text text-anchor="middle" x="83.5" y="-79.5" font-family="Helvetica,sans-Serif" font-size="10.00">device</text>
</g>
<!-- Node3 -->
<g id="node3" class="node">
<title>Node3</title>
<g id="a_node3"><a xlink:title="STL class.">
<polygon fill="none" stroke="#bfbfbf" points="0,-201.5 0,-231.5 104,-231.5 104,-201.5 0,-201.5"/>
<text text-anchor="start" x="8" y="-219.5" font-family="Helvetica,sans-Serif" font-size="10.00">std::basic_string&lt;</text>
<text text-anchor="middle" x="52" y="-208.5" font-family="Helvetica,sans-Serif" font-size="10.00"> char &gt;</text>
</a>
</g>
</g>
<!-- Node3&#45;&gt;Node2 -->
<g id="edge2" class="edge">
<title>Node3&#45;&gt;Node2</title>
<path fill="none" stroke="midnightblue" d="M52,-191.35C52,-181.51 52,-170.78 52,-163.54"/>
<polygon fill="midnightblue" stroke="midnightblue" points="48.5,-191.47 52,-201.47 55.5,-191.47 48.5,-191.47"/>
</g>
<!-- Node4 -->
<g id="node4" class="node">
<title>Node4</title>
<g id="a_node4"><a xlink:title=" ">
<polygon fill="none" stroke="#bfbfbf" points="103,-144.5 103,-163.5 141,-163.5 141,-144.5 103,-144.5"/>
<text text-anchor="middle" x="122" y="-151.5" font-family="Helvetica,sans-Serif" font-size="10.00">bool</text>
</a>
</g>
</g>
<!-- Node4&#45;&gt;Node1 -->
<g id="edge3" class="edge">
<title>Node4&#45;&gt;Node1</title>
<path fill="none" stroke="#9a32cd" stroke-dasharray="5,2" d="M119.01,-134.11C115.45,-113.08 108.86,-78.21 100,-49 98.13,-42.84 95.58,-36.2 93.23,-30.55"/>
<polygon fill="#9a32cd" stroke="#9a32cd" points="115.6,-134.94 120.67,-144.24 122.51,-133.81 115.6,-134.94"/>
<text text-anchor="middle" x="132.5" y="-118" font-family="Helvetica,sans-Serif" font-size="10.00"> opt_t</text>
<text text-anchor="middle" x="132.5" y="-107" font-family="Helvetica,sans-Serif" font-size="10.00">opt_d</text>
<text text-anchor="middle" x="132.5" y="-96" font-family="Helvetica,sans-Serif" font-size="10.00">opt_v</text>
<text text-anchor="middle" x="132.5" y="-85" font-family="Helvetica,sans-Serif" font-size="10.00">opt_f</text>
<text text-anchor="middle" x="132.5" y="-74" font-family="Helvetica,sans-Serif" font-size="10.00">opt_h</text>
<text text-anchor="middle" x="132.5" y="-63" font-family="Helvetica,sans-Serif" font-size="10.00">opt_l</text>
<text text-anchor="middle" x="132.5" y="-52" font-family="Helvetica,sans-Serif" font-size="10.00">opt_m</text>
</g>
</g>
</svg>
