<?xml version="1.0" encoding="UTF-8" standalone="no"?>
<!DOCTYPE svg PUBLIC "-//W3C//DTD SVG 1.1//EN"
 "http://www.w3.org/Graphics/SVG/1.1/DTD/svg11.dtd">
<!-- Generated by graphviz version 2.43.0 (0)
 -->
<!-- Title: leanux::process::ProcPidStat Pages: 1 -->
<svg width="460pt" height="273pt"
 viewBox="0.00 0.00 460.00 273.00" xmlns="http://www.w3.org/2000/svg" xmlns:xlink="http://www.w3.org/1999/xlink">
<g id="graph0" class="graph" transform="scale(1 1) rotate(0) translate(4 269)">
<title>leanux::process::ProcPidStat</title>
<!-- Node1 -->
<g id="node1" class="node">
<title>Node1</title>
<g id="a_node1"><a xlink:title="Process details and statistics as in /proc/[pid]/stat.">
<polygon fill="#bfbfbf" stroke="black" points="133.5,-0.5 133.5,-19.5 288.5,-19.5 288.5,-0.5 133.5,-0.5"/>
<text text-anchor="middle" x="211" y="-7.5" font-family="Helvetica,sans-Serif" font-size="10.00">leanux::process::ProcPidStat</text>
</a>
</g>
</g>
<!-- Node2 -->
<g id="node2" class="node">
<title>Node2</title>
<g id="a_node2"><a xlink:title=" ">
<polygon fill="none" stroke="#bfbfbf" points="0,-177.5 0,-196.5 50,-196.5 50,-177.5 0,-177.5"/>
<text text-anchor="middle" x="25" y="-184.5" font-family="Helvetica,sans-Serif" font-size="10.00">double</text>
</a>
</g>
</g>
<!-- Node2&#45;&gt;Node1 -->
<g id="edge1" class="edge">
<title>Node2&#45;&gt;Node1</title>
<path fill="none" stroke="#9a32cd" stroke-dasharray="5,2" d="M18.62,-167.41C9.28,-136.43 -3.78,-74.06 28,-38 41.96,-22.16 89.86,-15.47 133.16,-12.71"/>
<polygon fill="#9a32cd" stroke="#9a32cd" points="15.4,-168.86 21.8,-177.3 22.07,-166.71 15.4,-168.86"/>
<text text-anchor="middle" x="66.5" y="-123.5" font-family="Helvetica,sans-Serif" font-size="10.00"> stime</text>
<text text-anchor="start" x="28" y="-112.5" font-family="Helvetica,sans-Serif" font-size="10.00">delayacct_blkio</text>
<text text-anchor="middle" x="66.5" y="-101.5" font-family="Helvetica,sans-Serif" font-size="10.00">_ticks</text>
<text text-anchor="middle" x="66.5" y="-90.5" font-family="Helvetica,sans-Serif" font-size="10.00">utime</text>
<text text-anchor="middle" x="66.5" y="-79.5" font-family="Helvetica,sans-Serif" font-size="10.00">cstime</text>
<text text-anchor="middle" x="66.5" y="-68.5" font-family="Helvetica,sans-Serif" font-size="10.00">cutime</text>
</g>
<!-- Node3 -->
<g id="node3" class="node">
<title>Node3</title>
<g id="a_node3"><a xlink:title=" ">
<polygon fill="none" stroke="#bfbfbf" points="105,-177.5 105,-196.5 143,-196.5 143,-177.5 105,-177.5"/>
<text text-anchor="middle" x="124" y="-184.5" font-family="Helvetica,sans-Serif" font-size="10.00">char</text>
</a>
</g>
</g>
<!-- Node3&#45;&gt;Node1 -->
<g id="edge2" class="edge">
<title>Node3&#45;&gt;Node1</title>
<path fill="none" stroke="#9a32cd" stroke-dasharray="5,2" d="M118.33,-167.51C110.26,-137.17 99.36,-76.33 128,-38 134.35,-29.5 143.43,-23.63 153.28,-19.59"/>
<polygon fill="#9a32cd" stroke="#9a32cd" points="114.99,-168.56 121.1,-177.22 121.72,-166.64 114.99,-168.56"/>
<text text-anchor="middle" x="142" y="-96" font-family="Helvetica,sans-Serif" font-size="10.00"> state</text>
</g>
<!-- Node4 -->
<g id="node4" class="node">
<title>Node4</title>
<g id="a_node4"><a xlink:title=" ">
<polygon fill="none" stroke="#bfbfbf" points="161.5,-177.5 161.5,-196.5 190.5,-196.5 190.5,-177.5 161.5,-177.5"/>
<text text-anchor="middle" x="176" y="-184.5" font-family="Helvetica,sans-Serif" font-size="10.00">int</text>
</a>
</g>
</g>
<!-- Node4&#45;&gt;Node1 -->
<g id="edge3" class="edge">
<title>Node4&#45;&gt;Node1</title>
<path fill="none" stroke="#9a32cd" stroke-dasharray="5,2" d="M170.33,-167.64C162.4,-138.37 151.26,-80.12 173,-38 177.08,-30.09 184.67,-23.99 192,-19.61"/>
<polygon fill="#9a32cd" stroke="#9a32cd" points="167,-168.72 173.14,-177.35 173.72,-166.77 167,-168.72"/>
<text text-anchor="middle" x="197" y="-101.5" font-family="Helvetica,sans-Serif" font-size="10.00"> tty_nr</text>
<text text-anchor="middle" x="197" y="-90.5" font-family="Helvetica,sans-Serif" font-size="10.00">processor</text>
</g>
<!-- Node5 -->
<g id="node5" class="node">
<title>Node5</title>
<g id="a_node5"><a xlink:title=" ">
<polygon fill="none" stroke="#bfbfbf" points="223.5,-177.5 223.5,-196.5 264.5,-196.5 264.5,-177.5 223.5,-177.5"/>
<text text-anchor="middle" x="244" y="-184.5" font-family="Helvetica,sans-Serif" font-size="10.00">pid_t</text>
</a>
</g>
</g>
<!-- Node5&#45;&gt;Node1 -->
<g id="edge4" class="edge">
<title>Node5&#45;&gt;Node1</title>
<path fill="none" stroke="#9a32cd" stroke-dasharray="5,2" d="M243.68,-167.3C242.73,-138.78 239.06,-82.98 225,-38 222.98,-31.55 219.48,-24.8 216.49,-19.66"/>
<polygon fill="#9a32cd" stroke="#9a32cd" points="240.19,-167.53 243.94,-177.43 247.18,-167.35 240.19,-167.53"/>
<text text-anchor="middle" x="261.5" y="-118" font-family="Helvetica,sans-Serif" font-size="10.00"> tpgid</text>
<text text-anchor="middle" x="261.5" y="-107" font-family="Helvetica,sans-Serif" font-size="10.00">pid</text>
<text text-anchor="middle" x="261.5" y="-96" font-family="Helvetica,sans-Serif" font-size="10.00">pgrp</text>
<text text-anchor="middle" x="261.5" y="-85" font-family="Helvetica,sans-Serif" font-size="10.00">session</text>
<text text-anchor="middle" x="261.5" y="-74" font-family="Helvetica,sans-Serif" font-size="10.00">ppid</text>
</g>
<!-- Node6 -->
<g id="node6" class="node">
<title>Node6</title>
<g id="a_node6"><a xlink:title="STL class.">
<polygon fill="none" stroke="#bfbfbf" points="282.5,-177.5 282.5,-196.5 347.5,-196.5 347.5,-177.5 282.5,-177.5"/>
<text text-anchor="middle" x="315" y="-184.5" font-family="Helvetica,sans-Serif" font-size="10.00">std::string</text>
</a>
</g>
</g>
<!-- Node6&#45;&gt;Node1 -->
<g id="edge5" class="edge">
<title>Node6&#45;&gt;Node1</title>
<path fill="none" stroke="#9a32cd" stroke-dasharray="5,2" d="M316.46,-167.25C317.81,-136.49 315.92,-75.02 284,-38 276.59,-29.4 266.18,-23.54 255.54,-19.54"/>
<polygon fill="#9a32cd" stroke="#9a32cd" points="312.96,-167.23 315.84,-177.43 319.94,-167.66 312.96,-167.23"/>
<text text-anchor="middle" x="333.5" y="-101.5" font-family="Helvetica,sans-Serif" font-size="10.00"> wchan</text>
<text text-anchor="middle" x="333.5" y="-90.5" font-family="Helvetica,sans-Serif" font-size="10.00">comm</text>
</g>
<!-- Node7 -->
<g id="node7" class="node">
<title>Node7</title>
<g id="a_node7"><a xlink:title="STL class.">
<polygon fill="none" stroke="#bfbfbf" points="263,-234.5 263,-264.5 367,-264.5 367,-234.5 263,-234.5"/>
<text text-anchor="start" x="271" y="-252.5" font-family="Helvetica,sans-Serif" font-size="10.00">std::basic_string&lt;</text>
<text text-anchor="middle" x="315" y="-241.5" font-family="Helvetica,sans-Serif" font-size="10.00"> char &gt;</text>
</a>
</g>
</g>
<!-- Node7&#45;&gt;Node6 -->
<g id="edge6" class="edge">
<title>Node7&#45;&gt;Node6</title>
<path fill="none" stroke="midnightblue" d="M315,-224.35C315,-214.51 315,-203.78 315,-196.54"/>
<polygon fill="midnightblue" stroke="midnightblue" points="311.5,-224.47 315,-234.47 318.5,-224.47 311.5,-224.47"/>
</g>
<!-- Node8 -->
<g id="node8" class="node">
<title>Node8</title>
<g id="a_node8"><a xlink:title=" ">
<polygon fill="none" stroke="#bfbfbf" points="366,-177.5 366,-196.5 404,-196.5 404,-177.5 366,-177.5"/>
<text text-anchor="middle" x="385" y="-184.5" font-family="Helvetica,sans-Serif" font-size="10.00">long</text>
</a>
</g>
</g>
<!-- Node8&#45;&gt;Node1 -->
<g id="edge7" class="edge">
<title>Node8&#45;&gt;Node1</title>
<path fill="none" stroke="#9a32cd" stroke-dasharray="5,2" d="M387.21,-167.5C389.83,-136.14 390.09,-72.58 355,-38 345.08,-28.23 317.3,-21.87 288.76,-17.8"/>
<polygon fill="#9a32cd" stroke="#9a32cd" points="383.72,-167.19 386.2,-177.49 390.69,-167.89 383.72,-167.19"/>
<text text-anchor="middle" x="420" y="-151" font-family="Helvetica,sans-Serif" font-size="10.00"> vsize</text>
<text text-anchor="middle" x="420" y="-140" font-family="Helvetica,sans-Serif" font-size="10.00">num_threads</text>
<text text-anchor="middle" x="420" y="-129" font-family="Helvetica,sans-Serif" font-size="10.00">majflt</text>
<text text-anchor="middle" x="420" y="-118" font-family="Helvetica,sans-Serif" font-size="10.00">priority</text>
<text text-anchor="middle" x="420" y="-107" font-family="Helvetica,sans-Serif" font-size="10.00">cmajflt</text>
<text text-anchor="middle" x="420" y="-96" font-family="Helvetica,sans-Serif" font-size="10.00">rss</text>
<text text-anchor="middle" x="420" y="-85" font-family="Helvetica,sans-Serif" font-size="10.00">minflt</text>
<text text-anchor="middle" x="420" y="-74" font-family="Helvetica,sans-Serif" font-size="10.00">nice</text>
<text text-anchor="middle" x="420" y="-63" font-family="Helvetica,sans-Serif" font-size="10.00">cminflt</text>
<text text-anchor="middle" x="420" y="-52" font-family="Helvetica,sans-Serif" font-size="10.00">rsslim</text>
<text text-anchor="middle" x="420" y="-41" font-family="Helvetica,sans-Serif" font-size="10.00">...</text>
</g>
</g>
</svg>
