<?xml version="1.0" encoding="UTF-8" standalone="no"?>
<!DOCTYPE svg PUBLIC "-//W3C//DTD SVG 1.1//EN"
 "http://www.w3.org/Graphics/SVG/1.1/DTD/svg11.dtd">
<!-- Generated by graphviz version 2.43.0 (0)
 -->
<!-- Title: leanux::vmem::SwapInfo Pages: 1 -->
<svg width="186pt" height="174pt"
 viewBox="0.00 0.00 185.50 174.00" xmlns="http://www.w3.org/2000/svg" xmlns:xlink="http://www.w3.org/1999/xlink">
<g id="graph0" class="graph" transform="scale(1 1) rotate(0) translate(4 170)">
<title>leanux::vmem::SwapInfo</title>
<!-- Node1 -->
<g id="node1" class="node">
<title>Node1</title>
<g id="a_node1"><a xlink:title="Information on a swap container.">
<polygon fill="#bfbfbf" stroke="black" points="8.5,-0.5 8.5,-19.5 146.5,-19.5 146.5,-0.5 8.5,-0.5"/>
<text text-anchor="middle" x="77.5" y="-7.5" font-family="Helvetica,sans-Serif" font-size="10.00">leanux::vmem::SwapInfo</text>
</a>
</g>
</g>
<!-- Node2 -->
<g id="node2" class="node">
<title>Node2</title>
<g id="a_node2"><a xlink:title=" ">
<polygon fill="none" stroke="#bfbfbf" points="0,-78.5 0,-97.5 29,-97.5 29,-78.5 0,-78.5"/>
<text text-anchor="middle" x="14.5" y="-85.5" font-family="Helvetica,sans-Serif" font-size="10.00">int</text>
</a>
</g>
</g>
<!-- Node2&#45;&gt;Node1 -->
<g id="edge1" class="edge">
<title>Node2&#45;&gt;Node1</title>
<path fill="none" stroke="#9a32cd" stroke-dasharray="5,2" d="M19.06,-68.51C22.18,-58.65 27.12,-46.78 34.5,-38 40.96,-30.31 50.2,-24.11 58.45,-19.6"/>
<polygon fill="#9a32cd" stroke="#9a32cd" points="15.68,-67.6 16.35,-78.17 22.42,-69.49 15.68,-67.6"/>
<text text-anchor="middle" x="54" y="-46.5" font-family="Helvetica,sans-Serif" font-size="10.00"> priority</text>
</g>
<!-- Node3 -->
<g id="node3" class="node">
<title>Node3</title>
<g id="a_node3"><a xlink:title="STL class.">
<polygon fill="none" stroke="#bfbfbf" points="47,-78.5 47,-97.5 112,-97.5 112,-78.5 47,-78.5"/>
<text text-anchor="middle" x="79.5" y="-85.5" font-family="Helvetica,sans-Serif" font-size="10.00">std::string</text>
</a>
</g>
</g>
<!-- Node3&#45;&gt;Node1 -->
<g id="edge2" class="edge">
<title>Node3&#45;&gt;Node1</title>
<path fill="none" stroke="#9a32cd" stroke-dasharray="5,2" d="M78.77,-68.37C78.67,-65.57 78.58,-62.71 78.5,-60 78.09,-45.88 77.79,-29.47 77.63,-19.68"/>
<polygon fill="#9a32cd" stroke="#9a32cd" points="75.28,-68.63 79.15,-78.49 82.27,-68.36 75.28,-68.63"/>
<text text-anchor="middle" x="107.5" y="-52" font-family="Helvetica,sans-Serif" font-size="10.00"> devicetype</text>
<text text-anchor="middle" x="107.5" y="-41" font-family="Helvetica,sans-Serif" font-size="10.00">devicefile</text>
</g>
<!-- Node4 -->
<g id="node4" class="node">
<title>Node4</title>
<g id="a_node4"><a xlink:title="STL class.">
<polygon fill="none" stroke="#bfbfbf" points="27.5,-135.5 27.5,-165.5 131.5,-165.5 131.5,-135.5 27.5,-135.5"/>
<text text-anchor="start" x="35.5" y="-153.5" font-family="Helvetica,sans-Serif" font-size="10.00">std::basic_string&lt;</text>
<text text-anchor="middle" x="79.5" y="-142.5" font-family="Helvetica,sans-Serif" font-size="10.00"> char &gt;</text>
</a>
</g>
</g>
<!-- Node4&#45;&gt;Node3 -->
<g id="edge3" class="edge">
<title>Node4&#45;&gt;Node3</title>
<path fill="none" stroke="midnightblue" d="M79.5,-125.35C79.5,-115.51 79.5,-104.78 79.5,-97.54"/>
<polygon fill="midnightblue" stroke="midnightblue" points="76,-125.47 79.5,-135.47 83,-125.47 76,-125.47"/>
</g>
<!-- Node5 -->
<g id="node5" class="node">
<title>Node5</title>
<g id="a_node5"><a xlink:title=" ">
<polygon fill="none" stroke="#bfbfbf" points="139.5,-78.5 139.5,-97.5 177.5,-97.5 177.5,-78.5 139.5,-78.5"/>
<text text-anchor="middle" x="158.5" y="-85.5" font-family="Helvetica,sans-Serif" font-size="10.00">long</text>
</a>
</g>
</g>
<!-- Node5&#45;&gt;Node1 -->
<g id="edge4" class="edge">
<title>Node5&#45;&gt;Node1</title>
<path fill="none" stroke="#9a32cd" stroke-dasharray="5,2" d="M153.67,-68.45C150.26,-58.4 144.8,-46.36 136.5,-38 128.33,-29.77 117.18,-23.79 106.77,-19.58"/>
<polygon fill="#9a32cd" stroke="#9a32cd" points="150.4,-69.72 156.6,-78.31 157.11,-67.73 150.4,-69.72"/>
<text text-anchor="middle" x="161.5" y="-52" font-family="Helvetica,sans-Serif" font-size="10.00"> size</text>
<text text-anchor="middle" x="161.5" y="-41" font-family="Helvetica,sans-Serif" font-size="10.00">used</text>
</g>
</g>
</svg>
