<?xml version="1.0" encoding="UTF-8" standalone="no"?>
<!DOCTYPE svg PUBLIC "-//W3C//DTD SVG 1.1//EN"
 "http://www.w3.org/Graphics/SVG/1.1/DTD/svg11.dtd">
<!-- Generated by graphviz version 2.43.0 (0)
 -->
<!-- Title: tools/lard/lar_snap.hpp Pages: 1 -->
<svg width="1197pt" height="196pt"
 viewBox="0.00 0.00 1196.50 196.00" xmlns="http://www.w3.org/2000/svg" xmlns:xlink="http://www.w3.org/1999/xlink">
<g id="graph0" class="graph" transform="scale(1 1) rotate(0) translate(4 192)">
<title>tools/lard/lar_snap.hpp</title>
<!-- Node1 -->
<g id="node1" class="node">
<title>Node1</title>
<g id="a_node1"><a xlink:title=" ">
<polygon fill="#bfbfbf" stroke="black" points="539,-168.5 539,-187.5 667,-187.5 667,-168.5 539,-168.5"/>
<text text-anchor="middle" x="603" y="-175.5" font-family="Helvetica,sans-Serif" font-size="10.00">tools/lard/lar_snap.hpp</text>
</a>
</g>
</g>
<!-- Node2 -->
<g id="node2" class="node">
<title>Node2</title>
<g id="a_node2"><a xlink:title=" ">
<polygon fill="none" stroke="#bfbfbf" points="317,-112.5 317,-131.5 365,-131.5 365,-112.5 317,-112.5"/>
<text text-anchor="middle" x="341" y="-119.5" font-family="Helvetica,sans-Serif" font-size="10.00">time.h</text>
</a>
</g>
</g>
<!-- Node1&#45;&gt;Node2 -->
<g id="edge1" class="edge">
<title>Node1&#45;&gt;Node2</title>
<path fill="none" stroke="midnightblue" d="M554.09,-168.45C509.75,-160.45 442.42,-147.73 375.04,-132.11"/>
<polygon fill="midnightblue" stroke="midnightblue" points="375.63,-128.66 365.1,-129.79 374.04,-135.47 375.63,-128.66"/>
</g>
<!-- Node3 -->
<g id="node3" class="node">
<title>Node3</title>
<g id="a_node3"><a xlink:href="../../d9/db2/block_8hpp.html" target="_top" xlink:title=" ">
<polygon fill="none" stroke="black" points="383,-112.5 383,-131.5 447,-131.5 447,-112.5 383,-112.5"/>
<text text-anchor="middle" x="415" y="-119.5" font-family="Helvetica,sans-Serif" font-size="10.00">block.hpp</text>
</a>
</g>
</g>
<!-- Node1&#45;&gt;Node3 -->
<g id="edge2" class="edge">
<title>Node1&#45;&gt;Node3</title>
<path fill="none" stroke="midnightblue" d="M573.21,-168.44C541.17,-159.24 490.07,-144.56 454.65,-134.39"/>
<polygon fill="midnightblue" stroke="midnightblue" points="455.23,-130.91 444.65,-131.52 453.29,-137.64 455.23,-130.91"/>
</g>
<!-- Node13 -->
<g id="node13" class="node">
<title>Node13</title>
<g id="a_node13"><a xlink:href="../../df/dbe/cpu_8hpp.html" target="_top" xlink:title=" ">
<polygon fill="none" stroke="black" points="465.5,-112.5 465.5,-131.5 520.5,-131.5 520.5,-112.5 465.5,-112.5"/>
<text text-anchor="middle" x="493" y="-119.5" font-family="Helvetica,sans-Serif" font-size="10.00">cpu.hpp</text>
</a>
</g>
</g>
<!-- Node1&#45;&gt;Node13 -->
<g id="edge12" class="edge">
<title>Node1&#45;&gt;Node13</title>
<path fill="none" stroke="midnightblue" d="M585.33,-168.32C567.61,-159.62 540.1,-146.12 519.71,-136.11"/>
<polygon fill="midnightblue" stroke="midnightblue" points="521.15,-132.92 510.63,-131.65 518.06,-139.2 521.15,-132.92"/>
</g>
<!-- Node14 -->
<g id="node14" class="node">
<title>Node14</title>
<g id="a_node14"><a xlink:href="../../d4/d2d/net_8hpp.html" target="_top" xlink:title=" ">
<polygon fill="none" stroke="black" points="576.5,-112.5 576.5,-131.5 629.5,-131.5 629.5,-112.5 576.5,-112.5"/>
<text text-anchor="middle" x="603" y="-119.5" font-family="Helvetica,sans-Serif" font-size="10.00">net.hpp</text>
</a>
</g>
</g>
<!-- Node1&#45;&gt;Node14 -->
<g id="edge16" class="edge">
<title>Node1&#45;&gt;Node14</title>
<path fill="none" stroke="midnightblue" d="M603,-168.08C603,-161.01 603,-150.86 603,-141.99"/>
<polygon fill="midnightblue" stroke="midnightblue" points="606.5,-141.75 603,-131.75 599.5,-141.75 606.5,-141.75"/>
</g>
<!-- Node17 -->
<g id="node17" class="node">
<title>Node17</title>
<g id="a_node17"><a xlink:href="../../dd/db4/process_8hpp.html" target="_top" xlink:title=" ">
<polygon fill="none" stroke="black" points="647.5,-112.5 647.5,-131.5 722.5,-131.5 722.5,-112.5 647.5,-112.5"/>
<text text-anchor="middle" x="685" y="-119.5" font-family="Helvetica,sans-Serif" font-size="10.00">process.hpp</text>
</a>
</g>
</g>
<!-- Node1&#45;&gt;Node17 -->
<g id="edge25" class="edge">
<title>Node1&#45;&gt;Node17</title>
<path fill="none" stroke="midnightblue" d="M616.17,-168.32C628.85,-159.98 648.23,-147.21 663.21,-137.35"/>
<polygon fill="midnightblue" stroke="midnightblue" points="665.43,-140.08 671.86,-131.65 661.58,-134.23 665.43,-140.08"/>
</g>
<!-- Node20 -->
<g id="node20" class="node">
<title>Node20</title>
<g id="a_node20"><a xlink:href="../../db/da3/vmem_8hpp.html" target="_top" xlink:title=" ">
<polygon fill="none" stroke="black" points="740.5,-112.5 740.5,-131.5 809.5,-131.5 809.5,-112.5 740.5,-112.5"/>
<text text-anchor="middle" x="775" y="-119.5" font-family="Helvetica,sans-Serif" font-size="10.00">vmem.hpp</text>
</a>
</g>
</g>
<!-- Node1&#45;&gt;Node20 -->
<g id="edge33" class="edge">
<title>Node1&#45;&gt;Node20</title>
<path fill="none" stroke="midnightblue" d="M630.25,-168.44C659.44,-159.28 705.92,-144.69 738.31,-134.52"/>
<polygon fill="midnightblue" stroke="midnightblue" points="739.38,-137.85 747.87,-131.52 737.28,-131.17 739.38,-137.85"/>
</g>
<!-- Node21 -->
<g id="node21" class="node">
<title>Node21</title>
<g id="a_node21"><a xlink:href="../../d3/d27/persist_8hpp.html" target="_top" xlink:title=" ">
<polygon fill="none" stroke="black" points="1016.5,-112.5 1016.5,-131.5 1087.5,-131.5 1087.5,-112.5 1016.5,-112.5"/>
<text text-anchor="middle" x="1052" y="-119.5" font-family="Helvetica,sans-Serif" font-size="10.00">persist.hpp</text>
</a>
</g>
</g>
<!-- Node1&#45;&gt;Node21 -->
<g id="edge36" class="edge">
<title>Node1&#45;&gt;Node21</title>
<path fill="none" stroke="midnightblue" d="M667.33,-169.26C759.23,-158.21 925.84,-138.17 1006.21,-128.51"/>
<polygon fill="midnightblue" stroke="midnightblue" points="1006.99,-131.94 1016.5,-127.27 1006.15,-124.99 1006.99,-131.94"/>
</g>
<!-- Node4 -->
<g id="node4" class="node">
<title>Node4</title>
<g id="a_node4"><a xlink:title=" ">
<polygon fill="none" stroke="#bfbfbf" points="923,-0.5 923,-19.5 967,-19.5 967,-0.5 923,-0.5"/>
<text text-anchor="middle" x="945" y="-7.5" font-family="Helvetica,sans-Serif" font-size="10.00">string</text>
</a>
</g>
</g>
<!-- Node3&#45;&gt;Node4 -->
<g id="edge3" class="edge">
<title>Node3&#45;&gt;Node4</title>
<path fill="none" stroke="midnightblue" d="M382.78,-113.89C379.81,-113.25 376.85,-112.61 374,-112 294.97,-95.1 145.61,-114.85 201,-56 225.74,-29.71 772.83,-15.06 912.68,-11.73"/>
<polygon fill="midnightblue" stroke="midnightblue" points="912.85,-15.23 922.76,-11.5 912.69,-8.23 912.85,-15.23"/>
</g>
<!-- Node5 -->
<g id="node5" class="node">
<title>Node5</title>
<g id="a_node5"><a xlink:title=" ">
<polygon fill="none" stroke="#bfbfbf" points="398.5,-56.5 398.5,-75.5 455.5,-75.5 455.5,-56.5 398.5,-56.5"/>
<text text-anchor="middle" x="427" y="-63.5" font-family="Helvetica,sans-Serif" font-size="10.00">ostream</text>
</a>
</g>
</g>
<!-- Node3&#45;&gt;Node5 -->
<g id="edge4" class="edge">
<title>Node3&#45;&gt;Node5</title>
<path fill="none" stroke="midnightblue" d="M416.98,-112.08C418.57,-104.93 420.86,-94.64 422.85,-85.69"/>
<polygon fill="midnightblue" stroke="midnightblue" points="426.3,-86.27 425.06,-75.75 419.47,-84.75 426.3,-86.27"/>
</g>
<!-- Node6 -->
<g id="node6" class="node">
<title>Node6</title>
<g id="a_node6"><a xlink:title=" ">
<polygon fill="none" stroke="#bfbfbf" points="721,-56.5 721,-75.5 753,-75.5 753,-56.5 721,-56.5"/>
<text text-anchor="middle" x="737" y="-63.5" font-family="Helvetica,sans-Serif" font-size="10.00">list</text>
</a>
</g>
</g>
<!-- Node3&#45;&gt;Node6 -->
<g id="edge5" class="edge">
<title>Node3&#45;&gt;Node6</title>
<path fill="none" stroke="midnightblue" d="M447.19,-113.75C450.17,-113.14 453.14,-112.54 456,-112 549.38,-94.29 661.11,-77.78 710.87,-70.67"/>
<polygon fill="midnightblue" stroke="midnightblue" points="711.38,-74.14 720.79,-69.26 710.39,-67.21 711.38,-74.14"/>
</g>
<!-- Node7 -->
<g id="node7" class="node">
<title>Node7</title>
<g id="a_node7"><a xlink:title=" ">
<polygon fill="none" stroke="#bfbfbf" points="474,-56.5 474,-75.5 512,-75.5 512,-56.5 474,-56.5"/>
<text text-anchor="middle" x="493" y="-63.5" font-family="Helvetica,sans-Serif" font-size="10.00">map</text>
</a>
</g>
</g>
<!-- Node3&#45;&gt;Node7 -->
<g id="edge6" class="edge">
<title>Node3&#45;&gt;Node7</title>
<path fill="none" stroke="midnightblue" d="M427.53,-112.32C439.59,-103.98 458.03,-91.21 472.27,-81.35"/>
<polygon fill="midnightblue" stroke="midnightblue" points="474.27,-84.22 480.5,-75.65 470.28,-78.47 474.27,-84.22"/>
</g>
<!-- Node8 -->
<g id="node8" class="node">
<title>Node8</title>
<g id="a_node8"><a xlink:title=" ">
<polygon fill="none" stroke="#bfbfbf" points="617.5,-56.5 617.5,-75.5 664.5,-75.5 664.5,-56.5 617.5,-56.5"/>
<text text-anchor="middle" x="641" y="-63.5" font-family="Helvetica,sans-Serif" font-size="10.00">vector</text>
</a>
</g>
</g>
<!-- Node3&#45;&gt;Node8 -->
<g id="edge7" class="edge">
<title>Node3&#45;&gt;Node8</title>
<path fill="none" stroke="midnightblue" d="M447.19,-113.88C483.63,-105.73 544.99,-91.76 607.24,-76.12"/>
<polygon fill="midnightblue" stroke="midnightblue" points="608.4,-79.44 617.23,-73.59 606.68,-72.65 608.4,-79.44"/>
</g>
<!-- Node9 -->
<g id="node9" class="node">
<title>Node9</title>
<g id="a_node9"><a xlink:title=" ">
<polygon fill="none" stroke="#bfbfbf" points="210,-56.5 210,-75.5 270,-75.5 270,-56.5 210,-56.5"/>
<text text-anchor="middle" x="240" y="-63.5" font-family="Helvetica,sans-Serif" font-size="10.00">iostream</text>
</a>
</g>
</g>
<!-- Node3&#45;&gt;Node9 -->
<g id="edge8" class="edge">
<title>Node3&#45;&gt;Node9</title>
<path fill="none" stroke="midnightblue" d="M387.27,-112.44C357.57,-103.28 310.28,-88.69 277.33,-78.52"/>
<polygon fill="midnightblue" stroke="midnightblue" points="278.19,-75.12 267.6,-75.52 276.12,-81.81 278.19,-75.12"/>
</g>
<!-- Node10 -->
<g id="node10" class="node">
<title>Node10</title>
<g id="a_node10"><a xlink:title=" ">
<polygon fill="none" stroke="#bfbfbf" points="288.5,-56.5 288.5,-75.5 341.5,-75.5 341.5,-56.5 288.5,-56.5"/>
<text text-anchor="middle" x="315" y="-63.5" font-family="Helvetica,sans-Serif" font-size="10.00">stdlib.h</text>
</a>
</g>
</g>
<!-- Node3&#45;&gt;Node10 -->
<g id="edge9" class="edge">
<title>Node3&#45;&gt;Node10</title>
<path fill="none" stroke="midnightblue" d="M398.93,-112.32C383.04,-103.74 358.49,-90.49 340.04,-80.52"/>
<polygon fill="midnightblue" stroke="midnightblue" points="341.49,-77.33 331.03,-75.65 338.16,-83.49 341.49,-77.33"/>
</g>
<!-- Node11 -->
<g id="node11" class="node">
<title>Node11</title>
<g id="a_node11"><a xlink:title=" ">
<polygon fill="none" stroke="#bfbfbf" points="0,-56.5 0,-75.5 86,-75.5 86,-56.5 0,-56.5"/>
<text text-anchor="middle" x="43" y="-63.5" font-family="Helvetica,sans-Serif" font-size="10.00">linux/kdev_t.h</text>
</a>
</g>
</g>
<!-- Node3&#45;&gt;Node11 -->
<g id="edge10" class="edge">
<title>Node3&#45;&gt;Node11</title>
<path fill="none" stroke="midnightblue" d="M382.82,-113.66C379.85,-113.06 376.87,-112.5 374,-112 253.95,-91.12 220.32,-94.47 96.01,-76.09"/>
<polygon fill="midnightblue" stroke="midnightblue" points="96.51,-72.63 86.11,-74.61 95.48,-79.55 96.51,-72.63"/>
</g>
<!-- Node12 -->
<g id="node12" class="node">
<title>Node12</title>
<g id="a_node12"><a xlink:title=" ">
<polygon fill="none" stroke="#bfbfbf" points="104,-56.5 104,-75.5 154,-75.5 154,-56.5 104,-56.5"/>
<text text-anchor="middle" x="129" y="-63.5" font-family="Helvetica,sans-Serif" font-size="10.00">stdio.h</text>
</a>
</g>
</g>
<!-- Node3&#45;&gt;Node12 -->
<g id="edge11" class="edge">
<title>Node3&#45;&gt;Node12</title>
<path fill="none" stroke="midnightblue" d="M382.8,-113.79C379.83,-113.17 376.86,-112.56 374,-112 282.81,-94.03 259.09,-94.46 168,-76 166.74,-75.74 165.45,-75.48 164.15,-75.2"/>
<polygon fill="midnightblue" stroke="midnightblue" points="164.65,-71.73 154.13,-73.01 163.15,-78.57 164.65,-71.73"/>
</g>
<!-- Node13&#45;&gt;Node4 -->
<g id="edge13" class="edge">
<title>Node13&#45;&gt;Node4</title>
<path fill="none" stroke="midnightblue" d="M465.28,-112.8C437.56,-103.98 397.8,-89.4 389,-76 384.12,-68.57 382.97,-62.53 389,-56 424.62,-17.38 799.35,-11.9 912.7,-11.13"/>
<polygon fill="midnightblue" stroke="midnightblue" points="912.85,-14.63 922.83,-11.06 912.81,-7.63 912.85,-14.63"/>
</g>
<!-- Node13&#45;&gt;Node5 -->
<g id="edge14" class="edge">
<title>Node13&#45;&gt;Node5</title>
<path fill="none" stroke="midnightblue" d="M482.4,-112.32C472.54,-104.26 457.65,-92.08 445.78,-82.37"/>
<polygon fill="midnightblue" stroke="midnightblue" points="447.75,-79.46 437.8,-75.83 443.32,-84.88 447.75,-79.46"/>
</g>
<!-- Node13&#45;&gt;Node7 -->
<g id="edge15" class="edge">
<title>Node13&#45;&gt;Node7</title>
<path fill="none" stroke="midnightblue" d="M493,-112.08C493,-105.01 493,-94.86 493,-85.99"/>
<polygon fill="midnightblue" stroke="midnightblue" points="496.5,-85.75 493,-75.75 489.5,-85.75 496.5,-85.75"/>
</g>
<!-- Node14&#45;&gt;Node4 -->
<g id="edge19" class="edge">
<title>Node14&#45;&gt;Node4</title>
<path fill="none" stroke="midnightblue" d="M616.33,-112.26C640.81,-96.33 692.24,-63.54 712,-56 780.6,-29.84 866.61,-18.3 912.54,-13.69"/>
<polygon fill="midnightblue" stroke="midnightblue" points="913.16,-17.15 922.78,-12.72 912.5,-10.18 913.16,-17.15"/>
</g>
<!-- Node14&#45;&gt;Node5 -->
<g id="edge20" class="edge">
<title>Node14&#45;&gt;Node5</title>
<path fill="none" stroke="midnightblue" d="M576.27,-112.8C546.55,-103.68 498.33,-88.88 464.76,-78.59"/>
<polygon fill="midnightblue" stroke="midnightblue" points="465.44,-75.13 454.86,-75.55 463.39,-81.83 465.44,-75.13"/>
</g>
<!-- Node14&#45;&gt;Node6 -->
<g id="edge21" class="edge">
<title>Node14&#45;&gt;Node6</title>
<path fill="none" stroke="midnightblue" d="M624.23,-112.44C647.95,-102.89 686.31,-87.43 711.6,-77.24"/>
<polygon fill="midnightblue" stroke="midnightblue" points="712.95,-80.47 720.91,-73.48 710.33,-73.97 712.95,-80.47"/>
</g>
<!-- Node14&#45;&gt;Node7 -->
<g id="edge22" class="edge">
<title>Node14&#45;&gt;Node7</title>
<path fill="none" stroke="midnightblue" d="M585.33,-112.32C567.61,-103.62 540.1,-90.12 519.71,-80.11"/>
<polygon fill="midnightblue" stroke="midnightblue" points="521.15,-76.92 510.63,-75.65 518.06,-83.2 521.15,-76.92"/>
</g>
<!-- Node14&#45;&gt;Node8 -->
<g id="edge23" class="edge">
<title>Node14&#45;&gt;Node8</title>
<path fill="none" stroke="midnightblue" d="M609.27,-112.08C614.64,-104.46 622.52,-93.26 629.08,-83.94"/>
<polygon fill="midnightblue" stroke="midnightblue" points="631.95,-85.94 634.84,-75.75 626.22,-81.91 631.95,-85.94"/>
</g>
<!-- Node15 -->
<g id="node15" class="node">
<title>Node15</title>
<g id="a_node15"><a xlink:href="../../d3/d44/oops_8hpp.html" target="_top" xlink:title=" ">
<polygon fill="none" stroke="black" points="973.5,-56.5 973.5,-75.5 1034.5,-75.5 1034.5,-56.5 973.5,-56.5"/>
<text text-anchor="middle" x="1004" y="-63.5" font-family="Helvetica,sans-Serif" font-size="10.00">oops.hpp</text>
</a>
</g>
</g>
<!-- Node14&#45;&gt;Node15 -->
<g id="edge17" class="edge">
<title>Node14&#45;&gt;Node15</title>
<path fill="none" stroke="midnightblue" d="M629.67,-113.76C632.47,-113.12 635.29,-112.51 638,-112 669.43,-106.05 874.82,-81.97 963.42,-71.69"/>
<polygon fill="midnightblue" stroke="midnightblue" points="963.85,-75.16 973.38,-70.53 963.04,-68.21 963.85,-75.16"/>
</g>
<!-- Node16 -->
<g id="node16" class="node">
<title>Node16</title>
<g id="a_node16"><a xlink:title=" ">
<polygon fill="none" stroke="#bfbfbf" points="530.5,-56.5 530.5,-75.5 599.5,-75.5 599.5,-56.5 530.5,-56.5"/>
<text text-anchor="middle" x="565" y="-63.5" font-family="Helvetica,sans-Serif" font-size="10.00">arpa/inet.h</text>
</a>
</g>
</g>
<!-- Node14&#45;&gt;Node16 -->
<g id="edge24" class="edge">
<title>Node14&#45;&gt;Node16</title>
<path fill="none" stroke="midnightblue" d="M596.73,-112.08C591.36,-104.46 583.48,-93.26 576.92,-83.94"/>
<polygon fill="midnightblue" stroke="midnightblue" points="579.78,-81.91 571.16,-75.75 574.05,-85.94 579.78,-81.91"/>
</g>
<!-- Node15&#45;&gt;Node4 -->
<g id="edge18" class="edge">
<title>Node15&#45;&gt;Node4</title>
<path fill="none" stroke="midnightblue" d="M994.52,-56.32C985.8,-48.34 972.66,-36.31 962.1,-26.65"/>
<polygon fill="midnightblue" stroke="midnightblue" points="964.39,-24 954.65,-19.83 959.67,-29.17 964.39,-24"/>
</g>
<!-- Node17&#45;&gt;Node4 -->
<g id="edge26" class="edge">
<title>Node17&#45;&gt;Node4</title>
<path fill="none" stroke="midnightblue" d="M722.65,-113.6C725.47,-113.06 728.28,-112.52 731,-112 817.58,-95.54 860.59,-135.07 926,-76 938.93,-64.32 943.26,-44.38 944.61,-29.65"/>
<polygon fill="midnightblue" stroke="midnightblue" points="948.11,-29.81 945.16,-19.63 941.12,-29.43 948.11,-29.81"/>
</g>
<!-- Node17&#45;&gt;Node5 -->
<g id="edge27" class="edge">
<title>Node17&#45;&gt;Node5</title>
<path fill="none" stroke="midnightblue" d="M647.16,-113.63C605.24,-105.38 535.4,-91.4 465.48,-76.05"/>
<polygon fill="midnightblue" stroke="midnightblue" points="466.13,-72.61 455.61,-73.88 464.62,-79.45 466.13,-72.61"/>
</g>
<!-- Node17&#45;&gt;Node6 -->
<g id="edge29" class="edge">
<title>Node17&#45;&gt;Node6</title>
<path fill="none" stroke="midnightblue" d="M693.59,-112.08C701.16,-104.22 712.38,-92.57 721.51,-83.08"/>
<polygon fill="midnightblue" stroke="midnightblue" points="724.16,-85.38 728.57,-75.75 719.12,-80.53 724.16,-85.38"/>
</g>
<!-- Node17&#45;&gt;Node7 -->
<g id="edge28" class="edge">
<title>Node17&#45;&gt;Node7</title>
<path fill="none" stroke="midnightblue" d="M652.21,-112.45C621.03,-104.22 572.59,-91.18 522.04,-76.22"/>
<polygon fill="midnightblue" stroke="midnightblue" points="522.83,-72.8 512.25,-73.31 520.83,-79.51 522.83,-72.8"/>
</g>
<!-- Node17&#45;&gt;Node8 -->
<g id="edge30" class="edge">
<title>Node17&#45;&gt;Node8</title>
<path fill="none" stroke="midnightblue" d="M677.73,-112.08C671.46,-104.38 662.21,-93.03 654.57,-83.65"/>
<polygon fill="midnightblue" stroke="midnightblue" points="657.16,-81.29 648.13,-75.75 651.73,-85.71 657.16,-81.29"/>
</g>
<!-- Node18 -->
<g id="node18" class="node">
<title>Node18</title>
<g id="a_node18"><a xlink:title=" ">
<polygon fill="none" stroke="#bfbfbf" points="771,-56.5 771,-75.5 827,-75.5 827,-56.5 771,-56.5"/>
<text text-anchor="middle" x="799" y="-63.5" font-family="Helvetica,sans-Serif" font-size="10.00">unistd.h</text>
</a>
</g>
</g>
<!-- Node17&#45;&gt;Node18 -->
<g id="edge31" class="edge">
<title>Node17&#45;&gt;Node18</title>
<path fill="none" stroke="midnightblue" d="M703.06,-112.44C721.57,-103.68 750.58,-89.94 771.86,-79.86"/>
<polygon fill="midnightblue" stroke="midnightblue" points="773.48,-82.96 781.02,-75.52 770.49,-76.63 773.48,-82.96"/>
</g>
<!-- Node19 -->
<g id="node19" class="node">
<title>Node19</title>
<g id="a_node19"><a xlink:title=" ">
<polygon fill="none" stroke="#bfbfbf" points="845,-56.5 845,-75.5 917,-75.5 917,-56.5 845,-56.5"/>
<text text-anchor="middle" x="881" y="-63.5" font-family="Helvetica,sans-Serif" font-size="10.00">sys/types.h</text>
</a>
</g>
</g>
<!-- Node17&#45;&gt;Node19 -->
<g id="edge32" class="edge">
<title>Node17&#45;&gt;Node19</title>
<path fill="none" stroke="midnightblue" d="M716.06,-112.44C749.6,-103.2 803.2,-88.44 840.14,-78.26"/>
<polygon fill="midnightblue" stroke="midnightblue" points="841.38,-81.55 850.09,-75.52 839.52,-74.8 841.38,-81.55"/>
</g>
<!-- Node20&#45;&gt;Node4 -->
<g id="edge34" class="edge">
<title>Node20&#45;&gt;Node4</title>
<path fill="none" stroke="midnightblue" d="M809.6,-120.5C875.13,-118.74 1013.48,-110.89 1043,-76 1065.72,-49.15 1013.46,-29 976.86,-18.69"/>
<polygon fill="midnightblue" stroke="midnightblue" points="977.6,-15.26 967.03,-16.05 975.78,-22.02 977.6,-15.26"/>
</g>
<!-- Node20&#45;&gt;Node6 -->
<g id="edge35" class="edge">
<title>Node20&#45;&gt;Node6</title>
<path fill="none" stroke="midnightblue" d="M768.73,-112.08C763.36,-104.46 755.48,-93.26 748.92,-83.94"/>
<polygon fill="midnightblue" stroke="midnightblue" points="751.78,-81.91 743.16,-75.75 746.05,-85.94 751.78,-81.91"/>
</g>
<!-- Node21&#45;&gt;Node4 -->
<g id="edge38" class="edge">
<title>Node21&#45;&gt;Node4</title>
<path fill="none" stroke="midnightblue" d="M1060.27,-112.33C1071.77,-99.2 1089.81,-73.89 1077,-56 1054.4,-24.42 1008.32,-14.75 977.04,-11.93"/>
<polygon fill="midnightblue" stroke="midnightblue" points="977.28,-8.44 967.05,-11.21 976.78,-15.42 977.28,-8.44"/>
</g>
<!-- Node21&#45;&gt;Node15 -->
<g id="edge37" class="edge">
<title>Node21&#45;&gt;Node15</title>
<path fill="none" stroke="midnightblue" d="M1044.07,-112.08C1037.15,-104.3 1026.93,-92.8 1018.55,-83.37"/>
<polygon fill="midnightblue" stroke="midnightblue" points="1021.04,-80.9 1011.78,-75.75 1015.81,-85.55 1021.04,-80.9"/>
</g>
<!-- Node22 -->
<g id="node22" class="node">
<title>Node22</title>
<g id="a_node22"><a xlink:title=" ">
<polygon fill="none" stroke="#bfbfbf" points="1129.5,-56.5 1129.5,-75.5 1188.5,-75.5 1188.5,-56.5 1129.5,-56.5"/>
<text text-anchor="middle" x="1159" y="-63.5" font-family="Helvetica,sans-Serif" font-size="10.00">sqlite3.h</text>
</a>
</g>
</g>
<!-- Node21&#45;&gt;Node22 -->
<g id="edge39" class="edge">
<title>Node21&#45;&gt;Node22</title>
<path fill="none" stroke="midnightblue" d="M1069.19,-112.32C1086.35,-103.66 1112.95,-90.24 1132.75,-80.25"/>
<polygon fill="midnightblue" stroke="midnightblue" points="1134.5,-83.28 1141.85,-75.65 1131.35,-77.04 1134.5,-83.28"/>
</g>
</g>
</svg>
