<?xml version="1.0" encoding="UTF-8" standalone="no"?>
<!DOCTYPE svg PUBLIC "-//W3C//DTD SVG 1.1//EN"
 "http://www.w3.org/Graphics/SVG/1.1/DTD/svg11.dtd">
<!-- Generated by graphviz version 2.43.0 (0)
 -->
<!-- Title: lib/block.cpp Pages: 1 -->
<svg width="1269pt" height="196pt"
 viewBox="0.00 0.00 1269.00 196.00" xmlns="http://www.w3.org/2000/svg" xmlns:xlink="http://www.w3.org/1999/xlink">
<g id="graph0" class="graph" transform="scale(1 1) rotate(0) translate(4 192)">
<title>lib/block.cpp</title>
<!-- Node1 -->
<g id="node1" class="node">
<title>Node1</title>
<g id="a_node1"><a xlink:title=" ">
<polygon fill="#bfbfbf" stroke="black" points="625,-168.5 625,-187.5 703,-187.5 703,-168.5 625,-168.5"/>
<text text-anchor="middle" x="664" y="-175.5" font-family="Helvetica,sans-Serif" font-size="10.00">lib/block.cpp</text>
</a>
</g>
</g>
<!-- Node2 -->
<g id="node2" class="node">
<title>Node2</title>
<g id="a_node2"><a xlink:href="../../d9/db2/block_8hpp.html" target="_top" xlink:title=" ">
<polygon fill="none" stroke="black" points="212,-56.5 212,-75.5 276,-75.5 276,-56.5 212,-56.5"/>
<text text-anchor="middle" x="244" y="-63.5" font-family="Helvetica,sans-Serif" font-size="10.00">block.hpp</text>
</a>
</g>
</g>
<!-- Node1&#45;&gt;Node2 -->
<g id="edge1" class="edge">
<title>Node1&#45;&gt;Node2</title>
<path fill="none" stroke="midnightblue" d="M624.72,-175.8C542.15,-172.69 353.62,-162.38 298,-132 278.14,-121.15 262.61,-99.79 253.4,-84.51"/>
<polygon fill="midnightblue" stroke="midnightblue" points="256.27,-82.48 248.28,-75.52 250.19,-85.94 256.27,-82.48"/>
</g>
<!-- Node8 -->
<g id="node8" class="node">
<title>Node8</title>
<g id="a_node8"><a xlink:title=" ">
<polygon fill="none" stroke="#bfbfbf" points="0,-0.5 0,-19.5 60,-19.5 60,-0.5 0,-0.5"/>
<text text-anchor="middle" x="30" y="-7.5" font-family="Helvetica,sans-Serif" font-size="10.00">iostream</text>
</a>
</g>
</g>
<!-- Node1&#45;&gt;Node8 -->
<g id="edge36" class="edge">
<title>Node1&#45;&gt;Node8</title>
<path fill="none" stroke="midnightblue" d="M624.9,-175.22C531.83,-170.64 299.46,-156.98 226,-132 154.06,-107.54 80.93,-52.73 48.01,-26.1"/>
<polygon fill="midnightblue" stroke="midnightblue" points="50.13,-23.31 40.18,-19.67 45.69,-28.72 50.13,-23.31"/>
</g>
<!-- Node9 -->
<g id="node9" class="node">
<title>Node9</title>
<g id="a_node9"><a xlink:title=" ">
<polygon fill="none" stroke="#bfbfbf" points="78.5,-0.5 78.5,-19.5 131.5,-19.5 131.5,-0.5 78.5,-0.5"/>
<text text-anchor="middle" x="105" y="-7.5" font-family="Helvetica,sans-Serif" font-size="10.00">stdlib.h</text>
</a>
</g>
</g>
<!-- Node1&#45;&gt;Node9 -->
<g id="edge33" class="edge">
<title>Node1&#45;&gt;Node9</title>
<path fill="none" stroke="midnightblue" d="M624.89,-175.09C538.53,-170.45 334.11,-157.1 270,-132 207.68,-107.6 147.72,-53.58 120.4,-26.75"/>
<polygon fill="midnightblue" stroke="midnightblue" points="122.85,-24.24 113.3,-19.66 117.9,-29.2 122.85,-24.24"/>
</g>
<!-- Node12 -->
<g id="node12" class="node">
<title>Node12</title>
<g id="a_node12"><a xlink:href="../../d3/d44/oops_8hpp.html" target="_top" xlink:title=" ">
<polygon fill="none" stroke="black" points="1033.5,-56.5 1033.5,-75.5 1094.5,-75.5 1094.5,-56.5 1033.5,-56.5"/>
<text text-anchor="middle" x="1064" y="-63.5" font-family="Helvetica,sans-Serif" font-size="10.00">oops.hpp</text>
</a>
</g>
</g>
<!-- Node1&#45;&gt;Node12 -->
<g id="edge11" class="edge">
<title>Node1&#45;&gt;Node12</title>
<path fill="none" stroke="midnightblue" d="M666.4,-168.05C670.79,-153.56 681.61,-125.25 702,-112 760.13,-74.22 938.7,-86.99 1023.33,-75.93"/>
<polygon fill="midnightblue" stroke="midnightblue" points="1024.04,-79.36 1033.41,-74.41 1023,-72.44 1024.04,-79.36"/>
</g>
<!-- Node13 -->
<g id="node13" class="node">
<title>Node13</title>
<g id="a_node13"><a xlink:href="../../d0/d3f/util_8hpp.html" target="_top" xlink:title=" ">
<polygon fill="none" stroke="black" points="563.5,-112.5 563.5,-131.5 616.5,-131.5 616.5,-112.5 563.5,-112.5"/>
<text text-anchor="middle" x="590" y="-119.5" font-family="Helvetica,sans-Serif" font-size="10.00">util.hpp</text>
</a>
</g>
</g>
<!-- Node1&#45;&gt;Node13 -->
<g id="edge13" class="edge">
<title>Node1&#45;&gt;Node13</title>
<path fill="none" stroke="midnightblue" d="M652.11,-168.32C640.85,-160.11 623.71,-147.6 610.29,-137.81"/>
<polygon fill="midnightblue" stroke="midnightblue" points="612.25,-134.9 602.11,-131.83 608.12,-140.56 612.25,-134.9"/>
</g>
<!-- Node14 -->
<g id="node14" class="node">
<title>Node14</title>
<g id="a_node14"><a xlink:title=" ">
<polygon fill="none" stroke="#bfbfbf" points="408,-56.5 408,-75.5 464,-75.5 464,-56.5 408,-56.5"/>
<text text-anchor="middle" x="436" y="-63.5" font-family="Helvetica,sans-Serif" font-size="10.00">sstream</text>
</a>
</g>
</g>
<!-- Node1&#45;&gt;Node14 -->
<g id="edge39" class="edge">
<title>Node1&#45;&gt;Node14</title>
<path fill="none" stroke="midnightblue" d="M631.84,-168.49C604.73,-160.73 565.31,-148.03 533,-132 504.16,-117.69 473.76,-96.11 454.85,-81.8"/>
<polygon fill="midnightblue" stroke="midnightblue" points="456.84,-78.91 446.77,-75.6 452.57,-84.46 456.84,-78.91"/>
</g>
<!-- Node15 -->
<g id="node15" class="node">
<title>Node15</title>
<g id="a_node15"><a xlink:title=" ">
<polygon fill="none" stroke="#bfbfbf" points="482.5,-56.5 482.5,-75.5 537.5,-75.5 537.5,-56.5 482.5,-56.5"/>
<text text-anchor="middle" x="510" y="-63.5" font-family="Helvetica,sans-Serif" font-size="10.00">fstream</text>
</a>
</g>
</g>
<!-- Node1&#45;&gt;Node15 -->
<g id="edge37" class="edge">
<title>Node1&#45;&gt;Node15</title>
<path fill="none" stroke="midnightblue" d="M629.89,-168.43C606.95,-161.42 577,-149.73 555,-132 539.02,-119.12 526.36,-99.12 518.59,-84.7"/>
<polygon fill="midnightblue" stroke="midnightblue" points="521.69,-83.07 514.01,-75.77 515.46,-86.27 521.69,-83.07"/>
</g>
<!-- Node19 -->
<g id="node19" class="node">
<title>Node19</title>
<g id="a_node19"><a xlink:title=" ">
<polygon fill="none" stroke="#bfbfbf" points="962.5,-56.5 962.5,-75.5 1015.5,-75.5 1015.5,-56.5 962.5,-56.5"/>
<text text-anchor="middle" x="989" y="-63.5" font-family="Helvetica,sans-Serif" font-size="10.00">string.h</text>
</a>
</g>
</g>
<!-- Node1&#45;&gt;Node19 -->
<g id="edge28" class="edge">
<title>Node1&#45;&gt;Node19</title>
<path fill="none" stroke="midnightblue" d="M661.57,-168.06C658.38,-154.1 654.72,-127.16 669,-112 709.46,-69.07 873.64,-84.6 932,-76 938.5,-75.04 945.42,-73.98 952.11,-72.94"/>
<polygon fill="midnightblue" stroke="midnightblue" points="953.01,-76.34 962.34,-71.33 951.92,-69.43 953.01,-76.34"/>
</g>
<!-- Node21 -->
<g id="node21" class="node">
<title>Node21</title>
<g id="a_node21"><a xlink:href="../../d5/d08/device_8hpp.html" target="_top" xlink:title=" ">
<polygon fill="none" stroke="black" points="307,-112.5 307,-131.5 377,-131.5 377,-112.5 307,-112.5"/>
<text text-anchor="middle" x="342" y="-119.5" font-family="Helvetica,sans-Serif" font-size="10.00">device.hpp</text>
</a>
</g>
</g>
<!-- Node1&#45;&gt;Node21 -->
<g id="edge23" class="edge">
<title>Node1&#45;&gt;Node21</title>
<path fill="none" stroke="midnightblue" d="M624.84,-170.43C564.98,-160.39 451.02,-141.28 387.56,-130.64"/>
<polygon fill="midnightblue" stroke="midnightblue" points="387.88,-127.15 377.44,-128.94 386.73,-134.05 387.88,-127.15"/>
</g>
<!-- Node22 -->
<g id="node22" class="node">
<title>Node22</title>
<g id="a_node22"><a xlink:title=" ">
<polygon fill="none" stroke="#bfbfbf" points="711,-112.5 711,-131.5 809,-131.5 809,-112.5 711,-112.5"/>
<text text-anchor="middle" x="760" y="-119.5" font-family="Helvetica,sans-Serif" font-size="10.00">sys/sysmacros.h</text>
</a>
</g>
</g>
<!-- Node1&#45;&gt;Node22 -->
<g id="edge29" class="edge">
<title>Node1&#45;&gt;Node22</title>
<path fill="none" stroke="midnightblue" d="M679.42,-168.32C694.54,-159.82 717.82,-146.73 735.47,-136.8"/>
<polygon fill="midnightblue" stroke="midnightblue" points="737.61,-139.61 744.61,-131.65 734.18,-133.51 737.61,-139.61"/>
</g>
<!-- Node23 -->
<g id="node23" class="node">
<title>Node23</title>
<g id="a_node23"><a xlink:title=" ">
<polygon fill="none" stroke="#bfbfbf" points="827,-112.5 827,-131.5 891,-131.5 891,-112.5 827,-112.5"/>
<text text-anchor="middle" x="859" y="-119.5" font-family="Helvetica,sans-Serif" font-size="10.00">sys/stat.h</text>
</a>
</g>
</g>
<!-- Node1&#45;&gt;Node23 -->
<g id="edge30" class="edge">
<title>Node1&#45;&gt;Node23</title>
<path fill="none" stroke="midnightblue" d="M694.9,-168.44C728.27,-159.2 781.59,-144.44 818.35,-134.26"/>
<polygon fill="midnightblue" stroke="midnightblue" points="819.54,-137.56 828.25,-131.52 817.67,-130.81 819.54,-137.56"/>
</g>
<!-- Node24 -->
<g id="node24" class="node">
<title>Node24</title>
<g id="a_node24"><a xlink:title=" ">
<polygon fill="none" stroke="#bfbfbf" points="909.5,-112.5 909.5,-131.5 982.5,-131.5 982.5,-112.5 909.5,-112.5"/>
<text text-anchor="middle" x="946" y="-119.5" font-family="Helvetica,sans-Serif" font-size="10.00">sys/statfs.h</text>
</a>
</g>
</g>
<!-- Node1&#45;&gt;Node24 -->
<g id="edge31" class="edge">
<title>Node1&#45;&gt;Node24</title>
<path fill="none" stroke="midnightblue" d="M703.26,-169.57C748.09,-161.08 823.92,-146.67 899.21,-132.15"/>
<polygon fill="midnightblue" stroke="midnightblue" points="900.19,-135.52 909.34,-130.19 898.86,-128.65 900.19,-135.52"/>
</g>
<!-- Node25 -->
<g id="node25" class="node">
<title>Node25</title>
<g id="a_node25"><a xlink:title=" ">
<polygon fill="none" stroke="#bfbfbf" points="1001,-112.5 1001,-131.5 1057,-131.5 1057,-112.5 1001,-112.5"/>
<text text-anchor="middle" x="1029" y="-119.5" font-family="Helvetica,sans-Serif" font-size="10.00">unistd.h</text>
</a>
</g>
</g>
<!-- Node1&#45;&gt;Node25 -->
<g id="edge32" class="edge">
<title>Node1&#45;&gt;Node25</title>
<path fill="none" stroke="midnightblue" d="M703.09,-172.95C762.97,-166.45 881.19,-152.51 990.88,-132.05"/>
<polygon fill="midnightblue" stroke="midnightblue" points="991.61,-135.47 1000.78,-130.18 990.31,-128.59 991.61,-135.47"/>
</g>
<!-- Node26 -->
<g id="node26" class="node">
<title>Node26</title>
<g id="a_node26"><a xlink:title=" ">
<polygon fill="none" stroke="#bfbfbf" points="1075,-112.5 1075,-131.5 1129,-131.5 1129,-112.5 1075,-112.5"/>
<text text-anchor="middle" x="1102" y="-119.5" font-family="Helvetica,sans-Serif" font-size="10.00">dirent.h</text>
</a>
</g>
</g>
<!-- Node1&#45;&gt;Node26 -->
<g id="edge34" class="edge">
<title>Node1&#45;&gt;Node26</title>
<path fill="none" stroke="midnightblue" d="M703.06,-174.37C773.5,-169.25 926.59,-156.4 1065.02,-131.95"/>
<polygon fill="midnightblue" stroke="midnightblue" points="1065.73,-135.38 1074.96,-130.17 1064.5,-128.49 1065.73,-135.38"/>
</g>
<!-- Node27 -->
<g id="node27" class="node">
<title>Node27</title>
<g id="a_node27"><a xlink:title=" ">
<polygon fill="none" stroke="#bfbfbf" points="1147.5,-112.5 1147.5,-131.5 1198.5,-131.5 1198.5,-112.5 1147.5,-112.5"/>
<text text-anchor="middle" x="1173" y="-119.5" font-family="Helvetica,sans-Serif" font-size="10.00">errno.h</text>
</a>
</g>
</g>
<!-- Node1&#45;&gt;Node27 -->
<g id="edge35" class="edge">
<title>Node1&#45;&gt;Node27</title>
<path fill="none" stroke="midnightblue" d="M703.3,-175.36C783.25,-171.57 970.69,-160.4 1137.54,-131.79"/>
<polygon fill="midnightblue" stroke="midnightblue" points="1138.23,-135.22 1147.49,-130.05 1137.03,-128.32 1138.23,-135.22"/>
</g>
<!-- Node28 -->
<g id="node28" class="node">
<title>Node28</title>
<g id="a_node28"><a xlink:title=" ">
<polygon fill="none" stroke="#bfbfbf" points="1217,-112.5 1217,-131.5 1261,-131.5 1261,-112.5 1217,-112.5"/>
<text text-anchor="middle" x="1239" y="-119.5" font-family="Helvetica,sans-Serif" font-size="10.00">limits</text>
</a>
</g>
</g>
<!-- Node1&#45;&gt;Node28 -->
<g id="edge38" class="edge">
<title>Node1&#45;&gt;Node28</title>
<path fill="none" stroke="midnightblue" d="M703.27,-176.44C791.75,-174.59 1013.4,-166.77 1206.72,-131.87"/>
<polygon fill="midnightblue" stroke="midnightblue" points="1207.57,-135.28 1216.78,-130.03 1206.31,-128.39 1207.57,-135.28"/>
</g>
<!-- Node3 -->
<g id="node3" class="node">
<title>Node3</title>
<g id="a_node3"><a xlink:title=" ">
<polygon fill="none" stroke="#bfbfbf" points="740,-0.5 740,-19.5 784,-19.5 784,-0.5 740,-0.5"/>
<text text-anchor="middle" x="762" y="-7.5" font-family="Helvetica,sans-Serif" font-size="10.00">string</text>
</a>
</g>
</g>
<!-- Node2&#45;&gt;Node3 -->
<g id="edge2" class="edge">
<title>Node2&#45;&gt;Node3</title>
<path fill="none" stroke="midnightblue" d="M276.01,-61.66C368.73,-52 636.79,-24.05 729.78,-14.36"/>
<polygon fill="midnightblue" stroke="midnightblue" points="730.39,-17.81 739.98,-13.3 729.67,-10.85 730.39,-17.81"/>
</g>
<!-- Node4 -->
<g id="node4" class="node">
<title>Node4</title>
<g id="a_node4"><a xlink:title=" ">
<polygon fill="none" stroke="#bfbfbf" points="149.5,-0.5 149.5,-19.5 206.5,-19.5 206.5,-0.5 149.5,-0.5"/>
<text text-anchor="middle" x="178" y="-7.5" font-family="Helvetica,sans-Serif" font-size="10.00">ostream</text>
</a>
</g>
</g>
<!-- Node2&#45;&gt;Node4 -->
<g id="edge3" class="edge">
<title>Node2&#45;&gt;Node4</title>
<path fill="none" stroke="midnightblue" d="M233.4,-56.32C223.54,-48.26 208.65,-36.08 196.78,-26.37"/>
<polygon fill="midnightblue" stroke="midnightblue" points="198.75,-23.46 188.8,-19.83 194.32,-28.88 198.75,-23.46"/>
</g>
<!-- Node5 -->
<g id="node5" class="node">
<title>Node5</title>
<g id="a_node5"><a xlink:title=" ">
<polygon fill="none" stroke="#bfbfbf" points="519,-0.5 519,-19.5 551,-19.5 551,-0.5 519,-0.5"/>
<text text-anchor="middle" x="535" y="-7.5" font-family="Helvetica,sans-Serif" font-size="10.00">list</text>
</a>
</g>
</g>
<!-- Node2&#45;&gt;Node5 -->
<g id="edge4" class="edge">
<title>Node2&#45;&gt;Node5</title>
<path fill="none" stroke="midnightblue" d="M276.33,-61.42C325.02,-55.61 420.1,-42.7 509.27,-19.78"/>
<polygon fill="midnightblue" stroke="midnightblue" points="510.21,-23.16 518.99,-17.24 508.43,-16.38 510.21,-23.16"/>
</g>
<!-- Node6 -->
<g id="node6" class="node">
<title>Node6</title>
<g id="a_node6"><a xlink:title=" ">
<polygon fill="none" stroke="#bfbfbf" points="225,-0.5 225,-19.5 263,-19.5 263,-0.5 225,-0.5"/>
<text text-anchor="middle" x="244" y="-7.5" font-family="Helvetica,sans-Serif" font-size="10.00">map</text>
</a>
</g>
</g>
<!-- Node2&#45;&gt;Node6 -->
<g id="edge5" class="edge">
<title>Node2&#45;&gt;Node6</title>
<path fill="none" stroke="midnightblue" d="M244,-56.08C244,-49.01 244,-38.86 244,-29.99"/>
<polygon fill="midnightblue" stroke="midnightblue" points="247.5,-29.75 244,-19.75 240.5,-29.75 247.5,-29.75"/>
</g>
<!-- Node7 -->
<g id="node7" class="node">
<title>Node7</title>
<g id="a_node7"><a xlink:title=" ">
<polygon fill="none" stroke="#bfbfbf" points="453.5,-0.5 453.5,-19.5 500.5,-19.5 500.5,-0.5 453.5,-0.5"/>
<text text-anchor="middle" x="477" y="-7.5" font-family="Helvetica,sans-Serif" font-size="10.00">vector</text>
</a>
</g>
</g>
<!-- Node2&#45;&gt;Node7 -->
<g id="edge6" class="edge">
<title>Node2&#45;&gt;Node7</title>
<path fill="none" stroke="midnightblue" d="M276.32,-58.2C314.01,-50.16 378.43,-36.11 443.26,-20.1"/>
<polygon fill="midnightblue" stroke="midnightblue" points="444.38,-23.42 453.24,-17.62 442.69,-16.63 444.38,-23.42"/>
</g>
<!-- Node2&#45;&gt;Node8 -->
<g id="edge7" class="edge">
<title>Node2&#45;&gt;Node8</title>
<path fill="none" stroke="midnightblue" d="M211.96,-56.92C174.13,-47.37 111.16,-31.48 70.11,-21.12"/>
<polygon fill="midnightblue" stroke="midnightblue" points="70.73,-17.67 60.18,-18.62 69.02,-24.46 70.73,-17.67"/>
</g>
<!-- Node2&#45;&gt;Node9 -->
<g id="edge8" class="edge">
<title>Node2&#45;&gt;Node9</title>
<path fill="none" stroke="midnightblue" d="M221.98,-56.44C198.9,-47.48 162.44,-33.31 136.36,-23.18"/>
<polygon fill="midnightblue" stroke="midnightblue" points="137.51,-19.88 126.92,-19.52 134.98,-26.4 137.51,-19.88"/>
</g>
<!-- Node10 -->
<g id="node10" class="node">
<title>Node10</title>
<g id="a_node10"><a xlink:title=" ">
<polygon fill="none" stroke="#bfbfbf" points="281,-0.5 281,-19.5 367,-19.5 367,-0.5 281,-0.5"/>
<text text-anchor="middle" x="324" y="-7.5" font-family="Helvetica,sans-Serif" font-size="10.00">linux/kdev_t.h</text>
</a>
</g>
</g>
<!-- Node2&#45;&gt;Node10 -->
<g id="edge9" class="edge">
<title>Node2&#45;&gt;Node10</title>
<path fill="none" stroke="midnightblue" d="M256.85,-56.32C269.22,-47.98 288.13,-35.21 302.74,-25.35"/>
<polygon fill="midnightblue" stroke="midnightblue" points="304.85,-28.15 311.18,-19.65 300.93,-22.35 304.85,-28.15"/>
</g>
<!-- Node11 -->
<g id="node11" class="node">
<title>Node11</title>
<g id="a_node11"><a xlink:title=" ">
<polygon fill="none" stroke="#bfbfbf" points="385,-0.5 385,-19.5 435,-19.5 435,-0.5 385,-0.5"/>
<text text-anchor="middle" x="410" y="-7.5" font-family="Helvetica,sans-Serif" font-size="10.00">stdio.h</text>
</a>
</g>
</g>
<!-- Node2&#45;&gt;Node11 -->
<g id="edge10" class="edge">
<title>Node2&#45;&gt;Node11</title>
<path fill="none" stroke="midnightblue" d="M270.3,-56.44C298.68,-47.21 344,-32.47 375.28,-22.29"/>
<polygon fill="midnightblue" stroke="midnightblue" points="376.48,-25.58 384.91,-19.16 374.31,-18.93 376.48,-25.58"/>
</g>
<!-- Node12&#45;&gt;Node3 -->
<g id="edge12" class="edge">
<title>Node12&#45;&gt;Node3</title>
<path fill="none" stroke="midnightblue" d="M1033.38,-57.76C1030.55,-57.14 1027.73,-56.55 1025,-56 942.28,-39.39 844.14,-23.64 794.39,-15.93"/>
<polygon fill="midnightblue" stroke="midnightblue" points="794.66,-12.43 784.25,-14.37 793.6,-19.35 794.66,-12.43"/>
</g>
<!-- Node13&#45;&gt;Node3 -->
<g id="edge14" class="edge">
<title>Node13&#45;&gt;Node3</title>
<path fill="none" stroke="midnightblue" d="M616.84,-114.75C621.54,-113.75 626.4,-112.79 631,-112 693.69,-101.17 872.94,-123.73 915,-76 951.3,-34.81 849.16,-18.94 794.29,-13.51"/>
<polygon fill="midnightblue" stroke="midnightblue" points="794.6,-10.02 784.32,-12.59 793.95,-16.99 794.6,-10.02"/>
</g>
<!-- Node13&#45;&gt;Node5 -->
<g id="edge18" class="edge">
<title>Node13&#45;&gt;Node5</title>
<path fill="none" stroke="midnightblue" d="M616.74,-114.27C647.39,-105.96 694.73,-91.05 705,-76 710.01,-68.66 710.42,-63.04 705,-56 687.53,-33.31 604.37,-19.71 561.18,-14.06"/>
<polygon fill="midnightblue" stroke="midnightblue" points="561.48,-10.57 551.13,-12.8 560.61,-17.52 561.48,-10.57"/>
</g>
<!-- Node13&#45;&gt;Node14 -->
<g id="edge15" class="edge">
<title>Node13&#45;&gt;Node14</title>
<path fill="none" stroke="midnightblue" d="M565.6,-112.44C539.8,-103.4 498.92,-89.06 469.98,-78.92"/>
<polygon fill="midnightblue" stroke="midnightblue" points="470.88,-75.52 460.29,-75.52 468.57,-82.13 470.88,-75.52"/>
</g>
<!-- Node13&#45;&gt;Node15 -->
<g id="edge16" class="edge">
<title>Node13&#45;&gt;Node15</title>
<path fill="none" stroke="midnightblue" d="M577.15,-112.32C564.78,-103.98 545.87,-91.21 531.26,-81.35"/>
<polygon fill="midnightblue" stroke="midnightblue" points="533.07,-78.35 522.82,-75.65 529.15,-84.15 533.07,-78.35"/>
</g>
<!-- Node16 -->
<g id="node16" class="node">
<title>Node16</title>
<g id="a_node16"><a xlink:title=" ">
<polygon fill="none" stroke="#bfbfbf" points="874,-56.5 874,-75.5 906,-75.5 906,-56.5 874,-56.5"/>
<text text-anchor="middle" x="890" y="-63.5" font-family="Helvetica,sans-Serif" font-size="10.00">set</text>
</a>
</g>
</g>
<!-- Node13&#45;&gt;Node16 -->
<g id="edge17" class="edge">
<title>Node13&#45;&gt;Node16</title>
<path fill="none" stroke="midnightblue" d="M616.86,-114.85C621.56,-113.85 626.42,-112.86 631,-112 731.31,-93.29 761.22,-101.41 863.9,-75.86"/>
<polygon fill="midnightblue" stroke="midnightblue" points="864.9,-79.22 873.73,-73.37 863.18,-72.43 864.9,-79.22"/>
</g>
<!-- Node17 -->
<g id="node17" class="node">
<title>Node17</title>
<g id="a_node17"><a xlink:title=" ">
<polygon fill="none" stroke="#bfbfbf" points="556,-56.5 556,-75.5 624,-75.5 624,-56.5 556,-56.5"/>
<text text-anchor="middle" x="590" y="-63.5" font-family="Helvetica,sans-Serif" font-size="10.00">sys/time.h</text>
</a>
</g>
</g>
<!-- Node13&#45;&gt;Node17 -->
<g id="edge19" class="edge">
<title>Node13&#45;&gt;Node17</title>
<path fill="none" stroke="midnightblue" d="M590,-112.08C590,-105.01 590,-94.86 590,-85.99"/>
<polygon fill="midnightblue" stroke="midnightblue" points="593.5,-85.75 590,-75.75 586.5,-85.75 593.5,-85.75"/>
</g>
<!-- Node18 -->
<g id="node18" class="node">
<title>Node18</title>
<g id="a_node18"><a xlink:title=" ">
<polygon fill="none" stroke="#bfbfbf" points="642.5,-56.5 642.5,-75.5 695.5,-75.5 695.5,-56.5 642.5,-56.5"/>
<text text-anchor="middle" x="669" y="-63.5" font-family="Helvetica,sans-Serif" font-size="10.00">regex.h</text>
</a>
</g>
</g>
<!-- Node13&#45;&gt;Node18 -->
<g id="edge20" class="edge">
<title>Node13&#45;&gt;Node18</title>
<path fill="none" stroke="midnightblue" d="M602.69,-112.32C614.9,-103.98 633.58,-91.21 648,-81.35"/>
<polygon fill="midnightblue" stroke="midnightblue" points="650.06,-84.19 656.34,-75.65 646.11,-78.41 650.06,-84.19"/>
</g>
<!-- Node13&#45;&gt;Node19 -->
<g id="edge21" class="edge">
<title>Node13&#45;&gt;Node19</title>
<path fill="none" stroke="midnightblue" d="M616.83,-114.7C621.54,-113.71 626.4,-112.76 631,-112 770.88,-88.77 808.12,-99.23 948,-76 949.29,-75.79 950.61,-75.56 951.93,-75.32"/>
<polygon fill="midnightblue" stroke="midnightblue" points="953.03,-78.67 962.17,-73.3 951.68,-71.8 953.03,-78.67"/>
</g>
<!-- Node20 -->
<g id="node20" class="node">
<title>Node20</title>
<g id="a_node20"><a xlink:title=" ">
<polygon fill="none" stroke="#bfbfbf" points="752,-56.5 752,-75.5 856,-75.5 856,-56.5 752,-56.5"/>
<text text-anchor="middle" x="804" y="-63.5" font-family="Helvetica,sans-Serif" font-size="10.00">leanux&#45;config.hpp</text>
</a>
</g>
</g>
<!-- Node13&#45;&gt;Node20 -->
<g id="edge22" class="edge">
<title>Node13&#45;&gt;Node20</title>
<path fill="none" stroke="midnightblue" d="M616.67,-114.27C652.66,-105.19 717.24,-88.89 760.36,-78.01"/>
<polygon fill="midnightblue" stroke="midnightblue" points="761.45,-81.35 770.29,-75.51 759.74,-74.56 761.45,-81.35"/>
</g>
<!-- Node21&#45;&gt;Node2 -->
<g id="edge27" class="edge">
<title>Node21&#45;&gt;Node2</title>
<path fill="none" stroke="midnightblue" d="M326.25,-112.32C310.68,-103.74 286.62,-90.49 268.54,-80.52"/>
<polygon fill="midnightblue" stroke="midnightblue" points="270.15,-77.42 259.71,-75.65 266.78,-83.55 270.15,-77.42"/>
</g>
<!-- Node21&#45;&gt;Node3 -->
<g id="edge25" class="edge">
<title>Node21&#45;&gt;Node3</title>
<path fill="none" stroke="midnightblue" d="M346.65,-112.47C355.01,-98.07 374.06,-69.21 399,-56 456.08,-25.77 651.67,-15.17 729.59,-12.09"/>
<polygon fill="midnightblue" stroke="midnightblue" points="729.91,-15.58 739.77,-11.7 729.65,-8.58 729.91,-15.58"/>
</g>
<!-- Node21&#45;&gt;Node5 -->
<g id="edge24" class="edge">
<title>Node21&#45;&gt;Node5</title>
<path fill="none" stroke="midnightblue" d="M342.67,-112.43C344.22,-98.48 349.34,-70.94 366,-56 412.81,-14.02 443.87,-36.8 509.07,-19.85"/>
<polygon fill="midnightblue" stroke="midnightblue" points="510.28,-23.15 518.94,-17.05 508.37,-16.41 510.28,-23.15"/>
</g>
<!-- Node21&#45;&gt;Node7 -->
<g id="edge26" class="edge">
<title>Node21&#45;&gt;Node7</title>
<path fill="none" stroke="midnightblue" d="M336.03,-112.07C327.83,-98.6 315.47,-72.87 328,-56 329.78,-53.6 400.19,-33.05 443.57,-20.56"/>
<polygon fill="midnightblue" stroke="midnightblue" points="444.79,-23.85 453.43,-17.73 442.85,-17.13 444.79,-23.85"/>
</g>
</g>
</svg>
