<?xml version="1.0" encoding="UTF-8" standalone="no"?>
<!DOCTYPE svg PUBLIC "-//W3C//DTD SVG 1.1//EN"
 "http://www.w3.org/Graphics/SVG/1.1/DTD/svg11.dtd">
<!-- Generated by graphviz version 2.43.0 (0)
 -->
<!-- Title: lib/configfile.cpp Pages: 1 -->
<svg width="785pt" height="140pt"
 viewBox="0.00 0.00 785.00 140.00" xmlns="http://www.w3.org/2000/svg" xmlns:xlink="http://www.w3.org/1999/xlink">
<g id="graph0" class="graph" transform="scale(1 1) rotate(0) translate(4 136)">
<title>lib/configfile.cpp</title>
<!-- Node1 -->
<g id="node1" class="node">
<title>Node1</title>
<g id="a_node1"><a xlink:title=" ">
<polygon fill="#bfbfbf" stroke="black" points="238,-112.5 238,-131.5 334,-131.5 334,-112.5 238,-112.5"/>
<text text-anchor="middle" x="286" y="-119.5" font-family="Helvetica,sans-Serif" font-size="10.00">lib/configfile.cpp</text>
</a>
</g>
</g>
<!-- Node2 -->
<g id="node2" class="node">
<title>Node2</title>
<g id="a_node2"><a xlink:href="../../db/d57/configfile_8hpp.html" target="_top" xlink:title=" ">
<polygon fill="none" stroke="black" points="96,-56.5 96,-75.5 178,-75.5 178,-56.5 96,-56.5"/>
<text text-anchor="middle" x="137" y="-63.5" font-family="Helvetica,sans-Serif" font-size="10.00">configfile.hpp</text>
</a>
</g>
</g>
<!-- Node1&#45;&gt;Node2 -->
<g id="edge1" class="edge">
<title>Node1&#45;&gt;Node2</title>
<path fill="none" stroke="midnightblue" d="M262.39,-112.44C237.54,-103.44 198.23,-89.19 170.25,-79.05"/>
<polygon fill="midnightblue" stroke="midnightblue" points="171.09,-75.63 160.5,-75.52 168.71,-82.21 171.09,-75.63"/>
</g>
<!-- Node7 -->
<g id="node7" class="node">
<title>Node7</title>
<g id="a_node7"><a xlink:href="../../d3/d44/oops_8hpp.html" target="_top" xlink:title=" ">
<polygon fill="none" stroke="black" points="196.5,-56.5 196.5,-75.5 257.5,-75.5 257.5,-56.5 196.5,-56.5"/>
<text text-anchor="middle" x="227" y="-63.5" font-family="Helvetica,sans-Serif" font-size="10.00">oops.hpp</text>
</a>
</g>
</g>
<!-- Node1&#45;&gt;Node7 -->
<g id="edge6" class="edge">
<title>Node1&#45;&gt;Node7</title>
<path fill="none" stroke="midnightblue" d="M276.52,-112.32C267.8,-104.34 254.66,-92.31 244.1,-82.65"/>
<polygon fill="midnightblue" stroke="midnightblue" points="246.39,-80 236.65,-75.83 241.67,-85.17 246.39,-80"/>
</g>
<!-- Node8 -->
<g id="node8" class="node">
<title>Node8</title>
<g id="a_node8"><a xlink:href="../../d0/d3f/util_8hpp.html" target="_top" xlink:title=" ">
<polygon fill="none" stroke="black" points="327.5,-56.5 327.5,-75.5 380.5,-75.5 380.5,-56.5 327.5,-56.5"/>
<text text-anchor="middle" x="354" y="-63.5" font-family="Helvetica,sans-Serif" font-size="10.00">util.hpp</text>
</a>
</g>
</g>
<!-- Node1&#45;&gt;Node8 -->
<g id="edge8" class="edge">
<title>Node1&#45;&gt;Node8</title>
<path fill="none" stroke="midnightblue" d="M296.93,-112.32C307.17,-104.18 322.72,-91.84 335,-82.09"/>
<polygon fill="midnightblue" stroke="midnightblue" points="337.22,-84.79 342.88,-75.83 332.87,-79.31 337.22,-84.79"/>
</g>
<!-- Node10 -->
<g id="node10" class="node">
<title>Node10</title>
<g id="a_node10"><a xlink:title=" ">
<polygon fill="none" stroke="#bfbfbf" points="246.5,-0.5 246.5,-19.5 301.5,-19.5 301.5,-0.5 246.5,-0.5"/>
<text text-anchor="middle" x="274" y="-7.5" font-family="Helvetica,sans-Serif" font-size="10.00">fstream</text>
</a>
</g>
</g>
<!-- Node1&#45;&gt;Node10 -->
<g id="edge18" class="edge">
<title>Node1&#45;&gt;Node10</title>
<path fill="none" stroke="midnightblue" d="M285.06,-112.37C283.12,-94.62 278.65,-53.67 276.03,-29.6"/>
<polygon fill="midnightblue" stroke="midnightblue" points="279.5,-29.15 274.94,-19.59 272.54,-29.91 279.5,-29.15"/>
</g>
<!-- Node16 -->
<g id="node16" class="node">
<title>Node16</title>
<g id="a_node16"><a xlink:title=" ">
<polygon fill="none" stroke="#bfbfbf" points="398.5,-56.5 398.5,-75.5 451.5,-75.5 451.5,-56.5 398.5,-56.5"/>
<text text-anchor="middle" x="425" y="-63.5" font-family="Helvetica,sans-Serif" font-size="10.00">stdlib.h</text>
</a>
</g>
</g>
<!-- Node1&#45;&gt;Node16 -->
<g id="edge19" class="edge">
<title>Node1&#45;&gt;Node16</title>
<path fill="none" stroke="midnightblue" d="M308.02,-112.44C331.1,-103.48 367.56,-89.31 393.64,-79.18"/>
<polygon fill="midnightblue" stroke="midnightblue" points="395.02,-82.4 403.08,-75.52 392.49,-75.88 395.02,-82.4"/>
</g>
<!-- Node3 -->
<g id="node3" class="node">
<title>Node3</title>
<g id="a_node3"><a xlink:title=" ">
<polygon fill="none" stroke="#bfbfbf" points="134,-0.5 134,-19.5 178,-19.5 178,-0.5 134,-0.5"/>
<text text-anchor="middle" x="156" y="-7.5" font-family="Helvetica,sans-Serif" font-size="10.00">string</text>
</a>
</g>
</g>
<!-- Node2&#45;&gt;Node3 -->
<g id="edge2" class="edge">
<title>Node2&#45;&gt;Node3</title>
<path fill="none" stroke="midnightblue" d="M140.14,-56.08C142.68,-48.85 146.36,-38.41 149.53,-29.4"/>
<polygon fill="midnightblue" stroke="midnightblue" points="152.9,-30.35 152.92,-19.75 146.3,-28.02 152.9,-30.35"/>
</g>
<!-- Node4 -->
<g id="node4" class="node">
<title>Node4</title>
<g id="a_node4"><a xlink:title=" ">
<polygon fill="none" stroke="#bfbfbf" points="56,-0.5 56,-19.5 116,-19.5 116,-0.5 56,-0.5"/>
<text text-anchor="middle" x="86" y="-7.5" font-family="Helvetica,sans-Serif" font-size="10.00">iostream</text>
</a>
</g>
</g>
<!-- Node2&#45;&gt;Node4 -->
<g id="edge3" class="edge">
<title>Node2&#45;&gt;Node4</title>
<path fill="none" stroke="midnightblue" d="M128.58,-56.08C121.15,-48.22 110.15,-36.57 101.19,-27.08"/>
<polygon fill="midnightblue" stroke="midnightblue" points="103.68,-24.62 94.26,-19.75 98.59,-29.42 103.68,-24.62"/>
</g>
<!-- Node5 -->
<g id="node5" class="node">
<title>Node5</title>
<g id="a_node5"><a xlink:title=" ">
<polygon fill="none" stroke="#bfbfbf" points="0,-0.5 0,-19.5 38,-19.5 38,-0.5 0,-0.5"/>
<text text-anchor="middle" x="19" y="-7.5" font-family="Helvetica,sans-Serif" font-size="10.00">map</text>
</a>
</g>
</g>
<!-- Node2&#45;&gt;Node5 -->
<g id="edge4" class="edge">
<title>Node2&#45;&gt;Node5</title>
<path fill="none" stroke="midnightblue" d="M118.3,-56.44C99.06,-47.64 68.85,-33.81 46.8,-23.72"/>
<polygon fill="midnightblue" stroke="midnightblue" points="48.16,-20.5 37.61,-19.52 45.25,-26.86 48.16,-20.5"/>
</g>
<!-- Node6 -->
<g id="node6" class="node">
<title>Node6</title>
<g id="a_node6"><a xlink:title=" ">
<polygon fill="none" stroke="#bfbfbf" points="196,-0.5 196,-19.5 228,-19.5 228,-0.5 196,-0.5"/>
<text text-anchor="middle" x="212" y="-7.5" font-family="Helvetica,sans-Serif" font-size="10.00">list</text>
</a>
</g>
</g>
<!-- Node2&#45;&gt;Node6 -->
<g id="edge5" class="edge">
<title>Node2&#45;&gt;Node6</title>
<path fill="none" stroke="midnightblue" d="M149.05,-56.32C160.46,-48.11 177.83,-35.6 191.43,-25.81"/>
<polygon fill="midnightblue" stroke="midnightblue" points="193.66,-28.52 199.73,-19.83 189.57,-22.84 193.66,-28.52"/>
</g>
<!-- Node7&#45;&gt;Node3 -->
<g id="edge7" class="edge">
<title>Node7&#45;&gt;Node3</title>
<path fill="none" stroke="midnightblue" d="M215.59,-56.32C204.89,-48.18 188.66,-35.84 175.84,-26.09"/>
<polygon fill="midnightblue" stroke="midnightblue" points="177.69,-23.1 167.61,-19.83 173.46,-28.67 177.69,-23.1"/>
</g>
<!-- Node8&#45;&gt;Node3 -->
<g id="edge9" class="edge">
<title>Node8&#45;&gt;Node3</title>
<path fill="none" stroke="midnightblue" d="M327.35,-57.99C296.22,-49.76 242.93,-35.56 187.92,-20.22"/>
<polygon fill="midnightblue" stroke="midnightblue" points="188.57,-16.77 178,-17.44 186.69,-23.51 188.57,-16.77"/>
</g>
<!-- Node8&#45;&gt;Node6 -->
<g id="edge13" class="edge">
<title>Node8&#45;&gt;Node6</title>
<path fill="none" stroke="midnightblue" d="M331.5,-56.44C305.98,-46.74 264.45,-30.95 237.68,-20.77"/>
<polygon fill="midnightblue" stroke="midnightblue" points="238.8,-17.45 228.21,-17.16 236.31,-23.99 238.8,-17.45"/>
</g>
<!-- Node9 -->
<g id="node9" class="node">
<title>Node9</title>
<g id="a_node9"><a xlink:title=" ">
<polygon fill="none" stroke="#bfbfbf" points="671,-0.5 671,-19.5 727,-19.5 727,-0.5 671,-0.5"/>
<text text-anchor="middle" x="699" y="-7.5" font-family="Helvetica,sans-Serif" font-size="10.00">sstream</text>
</a>
</g>
</g>
<!-- Node8&#45;&gt;Node9 -->
<g id="edge10" class="edge">
<title>Node8&#45;&gt;Node9</title>
<path fill="none" stroke="midnightblue" d="M380.66,-57.98C383.8,-57.26 386.96,-56.58 390,-56 506.63,-33.78 540.37,-41.98 660.81,-20.04"/>
<polygon fill="midnightblue" stroke="midnightblue" points="661.59,-23.46 670.79,-18.19 660.32,-16.57 661.59,-23.46"/>
</g>
<!-- Node8&#45;&gt;Node10 -->
<g id="edge11" class="edge">
<title>Node8&#45;&gt;Node10</title>
<path fill="none" stroke="midnightblue" d="M341.15,-56.32C328.78,-47.98 309.87,-35.21 295.26,-25.35"/>
<polygon fill="midnightblue" stroke="midnightblue" points="297.07,-22.35 286.82,-19.65 293.15,-28.15 297.07,-22.35"/>
</g>
<!-- Node11 -->
<g id="node11" class="node">
<title>Node11</title>
<g id="a_node11"><a xlink:title=" ">
<polygon fill="none" stroke="#bfbfbf" points="745,-0.5 745,-19.5 777,-19.5 777,-0.5 745,-0.5"/>
<text text-anchor="middle" x="761" y="-7.5" font-family="Helvetica,sans-Serif" font-size="10.00">set</text>
</a>
</g>
</g>
<!-- Node8&#45;&gt;Node11 -->
<g id="edge12" class="edge">
<title>Node8&#45;&gt;Node11</title>
<path fill="none" stroke="midnightblue" d="M380.65,-57.89C383.79,-57.19 386.95,-56.54 390,-56 538.99,-29.76 583.38,-53.37 734.64,-19.78"/>
<polygon fill="midnightblue" stroke="midnightblue" points="735.79,-23.11 744.76,-17.48 734.24,-16.28 735.79,-23.11"/>
</g>
<!-- Node12 -->
<g id="node12" class="node">
<title>Node12</title>
<g id="a_node12"><a xlink:title=" ">
<polygon fill="none" stroke="#bfbfbf" points="320,-0.5 320,-19.5 388,-19.5 388,-0.5 320,-0.5"/>
<text text-anchor="middle" x="354" y="-7.5" font-family="Helvetica,sans-Serif" font-size="10.00">sys/time.h</text>
</a>
</g>
</g>
<!-- Node8&#45;&gt;Node12 -->
<g id="edge14" class="edge">
<title>Node8&#45;&gt;Node12</title>
<path fill="none" stroke="midnightblue" d="M354,-56.08C354,-49.01 354,-38.86 354,-29.99"/>
<polygon fill="midnightblue" stroke="midnightblue" points="357.5,-29.75 354,-19.75 350.5,-29.75 357.5,-29.75"/>
</g>
<!-- Node13 -->
<g id="node13" class="node">
<title>Node13</title>
<g id="a_node13"><a xlink:title=" ">
<polygon fill="none" stroke="#bfbfbf" points="406.5,-0.5 406.5,-19.5 459.5,-19.5 459.5,-0.5 406.5,-0.5"/>
<text text-anchor="middle" x="433" y="-7.5" font-family="Helvetica,sans-Serif" font-size="10.00">regex.h</text>
</a>
</g>
</g>
<!-- Node8&#45;&gt;Node13 -->
<g id="edge15" class="edge">
<title>Node8&#45;&gt;Node13</title>
<path fill="none" stroke="midnightblue" d="M366.69,-56.32C378.9,-47.98 397.58,-35.21 412,-25.35"/>
<polygon fill="midnightblue" stroke="midnightblue" points="414.06,-28.19 420.34,-19.65 410.11,-22.41 414.06,-28.19"/>
</g>
<!-- Node14 -->
<g id="node14" class="node">
<title>Node14</title>
<g id="a_node14"><a xlink:title=" ">
<polygon fill="none" stroke="#bfbfbf" points="477.5,-0.5 477.5,-19.5 530.5,-19.5 530.5,-0.5 477.5,-0.5"/>
<text text-anchor="middle" x="504" y="-7.5" font-family="Helvetica,sans-Serif" font-size="10.00">string.h</text>
</a>
</g>
</g>
<!-- Node8&#45;&gt;Node14 -->
<g id="edge16" class="edge">
<title>Node8&#45;&gt;Node14</title>
<path fill="none" stroke="midnightblue" d="M377.77,-56.44C402.89,-47.4 442.71,-33.06 470.9,-22.92"/>
<polygon fill="midnightblue" stroke="midnightblue" points="472.12,-26.2 480.34,-19.52 469.75,-19.61 472.12,-26.2"/>
</g>
<!-- Node15 -->
<g id="node15" class="node">
<title>Node15</title>
<g id="a_node15"><a xlink:title=" ">
<polygon fill="none" stroke="#bfbfbf" points="549,-0.5 549,-19.5 653,-19.5 653,-0.5 549,-0.5"/>
<text text-anchor="middle" x="601" y="-7.5" font-family="Helvetica,sans-Serif" font-size="10.00">leanux&#45;config.hpp</text>
</a>
</g>
</g>
<!-- Node8&#45;&gt;Node15 -->
<g id="edge17" class="edge">
<title>Node8&#45;&gt;Node15</title>
<path fill="none" stroke="midnightblue" d="M380.71,-58.21C383.84,-57.45 386.99,-56.7 390,-56 444.05,-43.48 506.19,-30.39 548.97,-21.57"/>
<polygon fill="midnightblue" stroke="midnightblue" points="549.78,-24.98 558.87,-19.53 548.37,-18.12 549.78,-24.98"/>
</g>
</g>
</svg>
