<?xml version="1.0" encoding="UTF-8" standalone="no"?>
<!DOCTYPE svg PUBLIC "-//W3C//DTD SVG 1.1//EN"
 "http://www.w3.org/Graphics/SVG/1.1/DTD/svg11.dtd">
<!-- Generated by graphviz version 2.43.0 (0)
 -->
<!-- Title: leanux::tools::lrep::Options Pages: 1 -->
<svg width="291pt" height="196pt"
 viewBox="0.00 0.00 290.50 196.00" xmlns="http://www.w3.org/2000/svg" xmlns:xlink="http://www.w3.org/1999/xlink">
<g id="graph0" class="graph" transform="scale(1 1) rotate(0) translate(4 192)">
<title>leanux::tools::lrep::Options</title>
<!-- Node1 -->
<g id="node1" class="node">
<title>Node1</title>
<g id="a_node1"><a xlink:title="Command line options type.">
<polygon fill="#bfbfbf" stroke="black" points="67,-0.5 67,-30.5 171,-30.5 171,-0.5 67,-0.5"/>
<text text-anchor="start" x="75" y="-18.5" font-family="Helvetica,sans-Serif" font-size="10.00">leanux::tools::lrep</text>
<text text-anchor="middle" x="119" y="-7.5" font-family="Helvetica,sans-Serif" font-size="10.00">::Options</text>
</a>
</g>
</g>
<!-- Node2 -->
<g id="node2" class="node">
<title>Node2</title>
<g id="a_node2"><a xlink:title=" ">
<polygon fill="none" stroke="#bfbfbf" points="0,-100.5 0,-119.5 48,-119.5 48,-100.5 0,-100.5"/>
<text text-anchor="middle" x="24" y="-107.5" font-family="Helvetica,sans-Serif" font-size="10.00">time_t</text>
</a>
</g>
</g>
<!-- Node2&#45;&gt;Node1 -->
<g id="edge1" class="edge">
<title>Node2&#45;&gt;Node1</title>
<path fill="none" stroke="#9a32cd" stroke-dasharray="5,2" d="M27.34,-89.99C30.47,-77.05 36.34,-60.3 47,-49 54.34,-41.22 63.89,-35.16 73.63,-30.5"/>
<polygon fill="#9a32cd" stroke="#9a32cd" points="23.84,-89.63 25.23,-100.14 30.69,-91.06 23.84,-89.63"/>
<text text-anchor="middle" x="62.5" y="-68.5" font-family="Helvetica,sans-Serif" font-size="10.00"> begin</text>
<text text-anchor="middle" x="62.5" y="-57.5" font-family="Helvetica,sans-Serif" font-size="10.00">end</text>
</g>
<!-- Node3 -->
<g id="node3" class="node">
<title>Node3</title>
<g id="a_node3"><a xlink:title=" ">
<polygon fill="none" stroke="#bfbfbf" points="66,-100.5 66,-119.5 104,-119.5 104,-100.5 66,-100.5"/>
<text text-anchor="middle" x="85" y="-107.5" font-family="Helvetica,sans-Serif" font-size="10.00">bool</text>
</a>
</g>
</g>
<!-- Node3&#45;&gt;Node1 -->
<g id="edge2" class="edge">
<title>Node3&#45;&gt;Node1</title>
<path fill="none" stroke="#9a32cd" stroke-dasharray="5,2" d="M82.67,-90.48C81.9,-78.22 82.39,-62.06 88,-49 90.96,-42.12 96.05,-35.83 101.27,-30.66"/>
<polygon fill="#9a32cd" stroke="#9a32cd" points="79.19,-90.81 83.62,-100.43 86.16,-90.15 79.19,-90.81"/>
<text text-anchor="middle" x="109.5" y="-74" font-family="Helvetica,sans-Serif" font-size="10.00"> help</text>
<text text-anchor="middle" x="109.5" y="-63" font-family="Helvetica,sans-Serif" font-size="10.00">noresolv</text>
<text text-anchor="middle" x="109.5" y="-52" font-family="Helvetica,sans-Serif" font-size="10.00">version</text>
</g>
<!-- Node4 -->
<g id="node4" class="node">
<title>Node4</title>
<g id="a_node4"><a xlink:title="STL class.">
<polygon fill="none" stroke="#bfbfbf" points="122.5,-100.5 122.5,-119.5 187.5,-119.5 187.5,-100.5 122.5,-100.5"/>
<text text-anchor="middle" x="155" y="-107.5" font-family="Helvetica,sans-Serif" font-size="10.00">std::string</text>
</a>
</g>
</g>
<!-- Node4&#45;&gt;Node1 -->
<g id="edge3" class="edge">
<title>Node4&#45;&gt;Node1</title>
<path fill="none" stroke="#9a32cd" stroke-dasharray="5,2" d="M147.91,-90.79C141.05,-73.17 130.8,-46.82 124.53,-30.7"/>
<polygon fill="#9a32cd" stroke="#9a32cd" points="144.79,-92.41 151.68,-100.46 151.31,-89.88 144.79,-92.41"/>
<text text-anchor="middle" x="163" y="-68.5" font-family="Helvetica,sans-Serif" font-size="10.00"> lardfile</text>
<text text-anchor="middle" x="163" y="-57.5" font-family="Helvetica,sans-Serif" font-size="10.00">htmlfile</text>
</g>
<!-- Node5 -->
<g id="node5" class="node">
<title>Node5</title>
<g id="a_node5"><a xlink:title="STL class.">
<polygon fill="none" stroke="#bfbfbf" points="103,-157.5 103,-187.5 207,-187.5 207,-157.5 103,-157.5"/>
<text text-anchor="start" x="111" y="-175.5" font-family="Helvetica,sans-Serif" font-size="10.00">std::basic_string&lt;</text>
<text text-anchor="middle" x="155" y="-164.5" font-family="Helvetica,sans-Serif" font-size="10.00"> char &gt;</text>
</a>
</g>
</g>
<!-- Node5&#45;&gt;Node4 -->
<g id="edge4" class="edge">
<title>Node5&#45;&gt;Node4</title>
<path fill="none" stroke="midnightblue" d="M155,-147.35C155,-137.51 155,-126.78 155,-119.54"/>
<polygon fill="midnightblue" stroke="midnightblue" points="151.5,-147.47 155,-157.47 158.5,-147.47 151.5,-147.47"/>
</g>
<!-- Node6 -->
<g id="node6" class="node">
<title>Node6</title>
<g id="a_node6"><a xlink:title=" ">
<polygon fill="none" stroke="#bfbfbf" points="205.5,-100.5 205.5,-119.5 282.5,-119.5 282.5,-100.5 205.5,-100.5"/>
<text text-anchor="middle" x="244" y="-107.5" font-family="Helvetica,sans-Serif" font-size="10.00">unsigned int</text>
</a>
</g>
</g>
<!-- Node6&#45;&gt;Node1 -->
<g id="edge5" class="edge">
<title>Node6&#45;&gt;Node1</title>
<path fill="none" stroke="#9a32cd" stroke-dasharray="5,2" d="M230.62,-92.23C219.64,-79.24 203.16,-61.43 186,-49 176.16,-41.87 164.51,-35.59 153.71,-30.51"/>
<polygon fill="#9a32cd" stroke="#9a32cd" points="228.23,-94.82 237.28,-100.32 233.63,-90.38 228.23,-94.82"/>
<text text-anchor="middle" x="231.5" y="-63" font-family="Helvetica,sans-Serif" font-size="10.00"> trail</text>
</g>
</g>
</svg>
