<?xml version="1.0" encoding="UTF-8" standalone="no"?>
<!DOCTYPE svg PUBLIC "-//W3C//DTD SVG 1.1//EN"
 "http://www.w3.org/Graphics/SVG/1.1/DTD/svg11.dtd">
<!-- Generated by graphviz version 2.43.0 (0)
 -->
<!-- Title: leanux::sysdevice::USBInterface::getClass Pages: 1 -->
<svg width="521pt" height="110pt"
 viewBox="0.00 0.00 521.00 110.00" xmlns="http://www.w3.org/2000/svg" xmlns:xlink="http://www.w3.org/1999/xlink">
<g id="graph0" class="graph" transform="scale(1 1) rotate(0) translate(4 106)">
<title>leanux::sysdevice::USBInterface::getClass</title>
<!-- Node1 -->
<g id="node1" class="node">
<title>Node1</title>
<g id="a_node1"><a xlink:title="Get the device class for this device.">
<polygon fill="#bfbfbf" stroke="black" points="0,-46.5 0,-76.5 128,-76.5 128,-46.5 0,-46.5"/>
<text text-anchor="start" x="8" y="-64.5" font-family="Helvetica,sans-Serif" font-size="10.00">leanux::sysdevice::</text>
<text text-anchor="middle" x="64" y="-53.5" font-family="Helvetica,sans-Serif" font-size="10.00">USBInterface::getClass</text>
</a>
</g>
</g>
<!-- Node2 -->
<g id="node2" class="node">
<title>Node2</title>
<g id="a_node2"><a xlink:href="../../d5/d9c/namespaceleanux_1_1usb.html#ae829acc56dd4d026e028bf61bf2e4b3a" target="_top" xlink:title=" ">
<polygon fill="none" stroke="black" points="164,-71.5 164,-101.5 326,-101.5 326,-71.5 164,-71.5"/>
<text text-anchor="start" x="172" y="-89.5" font-family="Helvetica,sans-Serif" font-size="10.00">leanux::usb::getUSBHardware</text>
<text text-anchor="middle" x="245" y="-78.5" font-family="Helvetica,sans-Serif" font-size="10.00">ClassStr</text>
</a>
</g>
</g>
<!-- Node1&#45;&gt;Node2 -->
<g id="edge1" class="edge">
<title>Node1&#45;&gt;Node2</title>
<path fill="none" stroke="midnightblue" d="M128.11,-70.31C136.43,-71.48 145.08,-72.68 153.75,-73.89"/>
<polygon fill="midnightblue" stroke="midnightblue" points="153.51,-77.4 163.9,-75.31 154.48,-70.46 153.51,-77.4"/>
</g>
<!-- Node3 -->
<g id="node3" class="node">
<title>Node3</title>
<g id="a_node3"><a xlink:href="../../d5/d9c/namespaceleanux_1_1usb.html#ab6d5edb6d930414aa0d31dab795a0b00" target="_top" xlink:title=" ">
<polygon fill="none" stroke="black" points="166,-22.5 166,-52.5 324,-52.5 324,-22.5 166,-22.5"/>
<text text-anchor="start" x="174" y="-40.5" font-family="Helvetica,sans-Serif" font-size="10.00">leanux::usb::getUSBInterface</text>
<text text-anchor="middle" x="245" y="-29.5" font-family="Helvetica,sans-Serif" font-size="10.00">HardwareClass</text>
</a>
</g>
</g>
<!-- Node1&#45;&gt;Node3 -->
<g id="edge2" class="edge">
<title>Node1&#45;&gt;Node3</title>
<path fill="none" stroke="midnightblue" d="M128.11,-53.04C137.05,-51.84 146.38,-50.59 155.7,-49.34"/>
<polygon fill="midnightblue" stroke="midnightblue" points="156.33,-52.79 165.78,-47.99 155.4,-45.85 156.33,-52.79"/>
</g>
<!-- Node4 -->
<g id="node4" class="node">
<title>Node4</title>
<g id="a_node4"><a xlink:href="../../d8/db1/namespaceleanux_1_1util.html#a6421ca2c46c56eebe1a486c6a498ce7d" target="_top" xlink:title="Test if a file exists and can be read.">
<polygon fill="none" stroke="black" points="362,-50 362,-69 513,-69 513,-50 362,-50"/>
<text text-anchor="middle" x="437.5" y="-57" font-family="Helvetica,sans-Serif" font-size="10.00">leanux::util::fileReadAccess</text>
</a>
</g>
</g>
<!-- Node3&#45;&gt;Node4 -->
<g id="edge3" class="edge">
<title>Node3&#45;&gt;Node4</title>
<path fill="none" stroke="midnightblue" d="M324.03,-46.51C333.24,-47.57 342.67,-48.66 351.96,-49.74"/>
<polygon fill="midnightblue" stroke="midnightblue" points="351.63,-53.22 361.97,-50.89 352.43,-46.27 351.63,-53.22"/>
</g>
<!-- Node5 -->
<g id="node5" class="node">
<title>Node5</title>
<g id="a_node5"><a xlink:href="../../d8/db1/namespaceleanux_1_1util.html#a7efa8c5cecc9bb8beada58ee60fa71c4" target="_top" xlink:title="read the first data in the file as a hexadecimal string representation of a signed long.">
<polygon fill="none" stroke="black" points="369,-0.5 369,-30.5 506,-30.5 506,-0.5 369,-0.5"/>
<text text-anchor="start" x="377" y="-18.5" font-family="Helvetica,sans-Serif" font-size="10.00">leanux::util::fileReadHex</text>
<text text-anchor="middle" x="437.5" y="-7.5" font-family="Helvetica,sans-Serif" font-size="10.00">String</text>
</a>
</g>
</g>
<!-- Node3&#45;&gt;Node5 -->
<g id="edge4" class="edge">
<title>Node3&#45;&gt;Node5</title>
<path fill="none" stroke="midnightblue" d="M324.03,-28.49C335.56,-27.16 347.43,-25.79 358.94,-24.46"/>
<polygon fill="midnightblue" stroke="midnightblue" points="359.42,-27.93 368.95,-23.3 358.61,-20.97 359.42,-27.93"/>
</g>
</g>
</svg>
