<?xml version="1.0" encoding="UTF-8" standalone="no"?>
<!DOCTYPE svg PUBLIC "-//W3C//DTD SVG 1.1//EN"
 "http://www.w3.org/Graphics/SVG/1.1/DTD/svg11.dtd">
<!-- Generated by graphviz version 2.43.0 (0)
 -->
<!-- Title: lib/net.hpp Pages: 1 -->
<svg width="1071pt" height="196pt"
 viewBox="0.00 0.00 1071.00 196.00" xmlns="http://www.w3.org/2000/svg" xmlns:xlink="http://www.w3.org/1999/xlink">
<g id="graph0" class="graph" transform="scale(1 1) rotate(0) translate(4 192)">
<title>lib/net.hpp</title>
<!-- Node1 -->
<g id="node1" class="node">
<title>Node1</title>
<g id="a_node1"><a xlink:title=" ">
<polygon fill="#bfbfbf" stroke="black" points="453.5,-168.5 453.5,-187.5 521.5,-187.5 521.5,-168.5 453.5,-168.5"/>
<text text-anchor="middle" x="487.5" y="-175.5" font-family="Helvetica,sans-Serif" font-size="10.00">lib/net.hpp</text>
</a>
</g>
</g>
<!-- Node2 -->
<g id="node2" class="node">
<title>Node2</title>
<g id="a_node2"><a xlink:href="../../d3/dd4/device_8cpp.html" target="_top" xlink:title=" ">
<polygon fill="none" stroke="black" points="5.5,-112.5 5.5,-131.5 89.5,-131.5 89.5,-112.5 5.5,-112.5"/>
<text text-anchor="middle" x="47.5" y="-119.5" font-family="Helvetica,sans-Serif" font-size="10.00">lib/device.cpp</text>
</a>
</g>
</g>
<!-- Node1&#45;&gt;Node2 -->
<g id="edge1" class="edge">
<title>Node1&#45;&gt;Node2</title>
<path fill="none" stroke="midnightblue" d="M443.22,-172.74C370.91,-165.6 223.05,-150.18 98.5,-132 95.65,-131.58 92.72,-131.13 89.77,-130.66"/>
<polygon fill="midnightblue" stroke="midnightblue" points="443.03,-176.24 453.33,-173.74 443.72,-169.28 443.03,-176.24"/>
</g>
<!-- Node3 -->
<g id="node3" class="node">
<title>Node3</title>
<g id="a_node3"><a xlink:href="../../dd/d84/net_8cpp.html" target="_top" xlink:title=" ">
<polygon fill="none" stroke="black" points="107.5,-112.5 107.5,-131.5 175.5,-131.5 175.5,-112.5 107.5,-112.5"/>
<text text-anchor="middle" x="141.5" y="-119.5" font-family="Helvetica,sans-Serif" font-size="10.00">lib/net.cpp</text>
</a>
</g>
</g>
<!-- Node1&#45;&gt;Node3 -->
<g id="edge2" class="edge">
<title>Node1&#45;&gt;Node3</title>
<path fill="none" stroke="midnightblue" d="M443.2,-171.25C384.06,-163.39 276.11,-148.38 184.5,-132 181.65,-131.49 178.69,-130.93 175.73,-130.35"/>
<polygon fill="midnightblue" stroke="midnightblue" points="442.94,-174.75 453.31,-172.59 443.86,-167.81 442.94,-174.75"/>
</g>
<!-- Node4 -->
<g id="node4" class="node">
<title>Node4</title>
<g id="a_node4"><a xlink:href="../../d6/df8/system_8cpp.html" target="_top" xlink:title=" ">
<polygon fill="none" stroke="black" points="193.5,-112.5 193.5,-131.5 281.5,-131.5 281.5,-112.5 193.5,-112.5"/>
<text text-anchor="middle" x="237.5" y="-119.5" font-family="Helvetica,sans-Serif" font-size="10.00">lib/system.cpp</text>
</a>
</g>
</g>
<!-- Node1&#45;&gt;Node4 -->
<g id="edge3" class="edge">
<title>Node1&#45;&gt;Node4</title>
<path fill="none" stroke="midnightblue" d="M443.35,-167.46C396.26,-157.29 322.35,-141.33 277.09,-131.55"/>
<polygon fill="midnightblue" stroke="midnightblue" points="442.75,-170.91 453.26,-169.6 444.23,-164.07 442.75,-170.91"/>
</g>
<!-- Node5 -->
<g id="node5" class="node">
<title>Node5</title>
<g id="a_node5"><a xlink:href="../../df/d77/xdata_8hpp.html" target="_top" xlink:title=" ">
<polygon fill="none" stroke="black" points="299.5,-112.5 299.5,-131.5 419.5,-131.5 419.5,-112.5 299.5,-112.5"/>
<text text-anchor="middle" x="359.5" y="-119.5" font-family="Helvetica,sans-Serif" font-size="10.00">tools/lmon/xdata.hpp</text>
</a>
</g>
</g>
<!-- Node1&#45;&gt;Node5 -->
<g id="edge4" class="edge">
<title>Node1&#45;&gt;Node5</title>
<path fill="none" stroke="midnightblue" d="M457.88,-164.5C433.88,-154.38 400.72,-140.39 379.69,-131.52"/>
<polygon fill="midnightblue" stroke="midnightblue" points="456.64,-167.78 467.22,-168.44 459.36,-161.33 456.64,-167.78"/>
</g>
<!-- Node10 -->
<g id="node8" class="node">
<title>Node10</title>
<g id="a_node8"><a xlink:href="../../d4/d35/lmon__curses_8hpp.html" target="_top" xlink:title=" ">
<polygon fill="none" stroke="red" points="251.5,-0.5 251.5,-19.5 405.5,-19.5 405.5,-0.5 251.5,-0.5"/>
<text text-anchor="middle" x="328.5" y="-7.5" font-family="Helvetica,sans-Serif" font-size="10.00">tools/lmon/lmon_curses.hpp</text>
</a>
</g>
</g>
<!-- Node1&#45;&gt;Node10 -->
<g id="edge9" class="edge">
<title>Node1&#45;&gt;Node10</title>
<path fill="none" stroke="midnightblue" d="M479.08,-158.93C463.77,-126.15 432.53,-59.91 428.5,-56 409.91,-37.98 382.85,-26.4 361.57,-19.51"/>
<polygon fill="midnightblue" stroke="midnightblue" points="476.04,-160.69 483.44,-168.27 482.39,-157.73 476.04,-160.69"/>
</g>
<!-- Node15 -->
<g id="node10" class="node">
<title>Node15</title>
<g id="a_node10"><a xlink:href="../../dd/d15/lrep_8cpp.html" target="_top" xlink:title=" ">
<polygon fill="none" stroke="black" points="475.5,-112.5 475.5,-131.5 579.5,-131.5 579.5,-112.5 475.5,-112.5"/>
<text text-anchor="middle" x="527.5" y="-119.5" font-family="Helvetica,sans-Serif" font-size="10.00">tools/lrep/lrep.cpp</text>
</a>
</g>
</g>
<!-- Node1&#45;&gt;Node15 -->
<g id="edge10" class="edge">
<title>Node1&#45;&gt;Node15</title>
<path fill="none" stroke="midnightblue" d="M500.2,-159.86C507.13,-150.5 515.41,-139.33 521.02,-131.75"/>
<polygon fill="midnightblue" stroke="midnightblue" points="497.25,-157.96 494.11,-168.08 502.87,-162.13 497.25,-157.96"/>
</g>
<!-- Node16 -->
<g id="node11" class="node">
<title>Node16</title>
<g id="a_node11"><a xlink:href="../../de/d17/lsys_8cpp.html" target="_top" xlink:title=" ">
<polygon fill="none" stroke="black" points="597.5,-112.5 597.5,-131.5 703.5,-131.5 703.5,-112.5 597.5,-112.5"/>
<text text-anchor="middle" x="650.5" y="-119.5" font-family="Helvetica,sans-Serif" font-size="10.00">tools/lsys/lsys.cpp</text>
</a>
</g>
</g>
<!-- Node1&#45;&gt;Node16 -->
<g id="edge11" class="edge">
<title>Node1&#45;&gt;Node16</title>
<path fill="none" stroke="midnightblue" d="M523.2,-165.17C553.9,-155 597.42,-140.59 624.79,-131.52"/>
<polygon fill="midnightblue" stroke="midnightblue" points="521.72,-161.98 513.33,-168.44 523.92,-168.62 521.72,-161.98"/>
</g>
<!-- Node17 -->
<g id="node12" class="node">
<title>Node17</title>
<g id="a_node12"><a xlink:href="../../da/de9/lar_8cpp.html" target="_top" xlink:title=" ">
<polygon fill="none" stroke="black" points="659.5,-56.5 659.5,-75.5 757.5,-75.5 757.5,-56.5 659.5,-56.5"/>
<text text-anchor="middle" x="708.5" y="-63.5" font-family="Helvetica,sans-Serif" font-size="10.00">tools/lard/lar.cpp</text>
</a>
</g>
</g>
<!-- Node1&#45;&gt;Node17 -->
<g id="edge12" class="edge">
<title>Node1&#45;&gt;Node17</title>
<path fill="none" stroke="midnightblue" d="M531.82,-174.6C590.75,-170.38 690.1,-159.32 712.5,-132 725.69,-115.91 717.85,-89.37 712.4,-75.71"/>
<polygon fill="midnightblue" stroke="midnightblue" points="531.41,-171.12 521.67,-175.29 531.88,-178.11 531.41,-171.12"/>
</g>
<!-- Node18 -->
<g id="node13" class="node">
<title>Node18</title>
<g id="a_node13"><a xlink:href="../../d1/d59/lar__snap_8hpp.html" target="_top" xlink:title=" ">
<polygon fill="none" stroke="black" points="759.5,-112.5 759.5,-131.5 887.5,-131.5 887.5,-112.5 759.5,-112.5"/>
<text text-anchor="middle" x="823.5" y="-119.5" font-family="Helvetica,sans-Serif" font-size="10.00">tools/lard/lar_snap.hpp</text>
</a>
</g>
</g>
<!-- Node1&#45;&gt;Node18 -->
<g id="edge13" class="edge">
<title>Node1&#45;&gt;Node18</title>
<path fill="none" stroke="midnightblue" d="M531.72,-169.89C593.23,-160.01 704.45,-142.13 770.38,-131.54"/>
<polygon fill="midnightblue" stroke="midnightblue" points="530.88,-166.48 521.57,-171.53 532,-173.39 530.88,-166.48"/>
</g>
<!-- Node21 -->
<g id="node16" class="node">
<title>Node21</title>
<g id="a_node16"><a xlink:href="../../d9/d3a/lblk_8cpp.html" target="_top" xlink:title=" ">
<polygon fill="none" stroke="black" points="906,-112.5 906,-131.5 1009,-131.5 1009,-112.5 906,-112.5"/>
<text text-anchor="middle" x="957.5" y="-119.5" font-family="Helvetica,sans-Serif" font-size="10.00">tools/lblk/lblk.cpp</text>
</a>
</g>
</g>
<!-- Node1&#45;&gt;Node21 -->
<g id="edge17" class="edge">
<title>Node1&#45;&gt;Node21</title>
<path fill="none" stroke="midnightblue" d="M531.8,-172.67C606.92,-165.2 764.04,-149.05 896.5,-132 899.58,-131.6 902.74,-131.18 905.93,-130.74"/>
<polygon fill="midnightblue" stroke="midnightblue" points="531.36,-169.19 521.75,-173.66 532.05,-176.16 531.36,-169.19"/>
</g>
<!-- Node6 -->
<g id="node6" class="node">
<title>Node6</title>
<g id="a_node6"><a xlink:href="../../d4/de1/history_8hpp.html" target="_top" xlink:title=" ">
<polygon fill="none" stroke="red" points="0,-56.5 0,-75.5 125,-75.5 125,-56.5 0,-56.5"/>
<text text-anchor="middle" x="62.5" y="-63.5" font-family="Helvetica,sans-Serif" font-size="10.00">tools/lmon/history.hpp</text>
</a>
</g>
</g>
<!-- Node5&#45;&gt;Node6 -->
<g id="edge5" class="edge">
<title>Node5&#45;&gt;Node6</title>
<path fill="none" stroke="midnightblue" d="M302.3,-110.6C246.17,-100.4 161.6,-85.02 109.34,-75.52"/>
<polygon fill="midnightblue" stroke="midnightblue" points="301.97,-114.1 312.44,-112.44 303.23,-107.21 301.97,-114.1"/>
</g>
<!-- Node9 -->
<g id="node7" class="node">
<title>Node9</title>
<g id="a_node7"><a xlink:href="../../dd/d86/realtime_8hpp.html" target="_top" xlink:title=" ">
<polygon fill="none" stroke="red" points="143.5,-56.5 143.5,-75.5 277.5,-75.5 277.5,-56.5 143.5,-56.5"/>
<text text-anchor="middle" x="210.5" y="-63.5" font-family="Helvetica,sans-Serif" font-size="10.00">tools/lmon/realtime.hpp</text>
</a>
</g>
</g>
<!-- Node5&#45;&gt;Node9 -->
<g id="edge6" class="edge">
<title>Node5&#45;&gt;Node9</title>
<path fill="none" stroke="midnightblue" d="M326.13,-108.91C298.12,-98.75 258.8,-84.51 234,-75.52"/>
<polygon fill="midnightblue" stroke="midnightblue" points="325.3,-112.33 335.89,-112.44 327.68,-105.75 325.3,-112.33"/>
</g>
<!-- Node13 -->
<g id="node9" class="node">
<title>Node13</title>
<g id="a_node9"><a xlink:href="../../d5/da4/trigger_8hpp.html" target="_top" xlink:title=" ">
<polygon fill="none" stroke="red" points="295.5,-56.5 295.5,-75.5 419.5,-75.5 419.5,-56.5 295.5,-56.5"/>
<text text-anchor="middle" x="357.5" y="-63.5" font-family="Helvetica,sans-Serif" font-size="10.00">tools/lmon/trigger.hpp</text>
</a>
</g>
</g>
<!-- Node5&#45;&gt;Node13 -->
<g id="edge8" class="edge">
<title>Node5&#45;&gt;Node13</title>
<path fill="none" stroke="midnightblue" d="M358.79,-101.8C358.46,-92.91 358.08,-82.78 357.82,-75.75"/>
<polygon fill="midnightblue" stroke="midnightblue" points="355.3,-102.22 359.17,-112.08 362.3,-101.96 355.3,-102.22"/>
</g>
<!-- Node9&#45;&gt;Node10 -->
<g id="edge7" class="edge">
<title>Node9&#45;&gt;Node10</title>
<path fill="none" stroke="midnightblue" d="M238.4,-52.23C260.47,-42.13 290.68,-28.31 309.89,-19.52"/>
<polygon fill="midnightblue" stroke="midnightblue" points="236.83,-49.1 229.2,-56.44 239.75,-55.46 236.83,-49.1"/>
</g>
<!-- Node18&#45;&gt;Node17 -->
<g id="edge14" class="edge">
<title>Node18&#45;&gt;Node17</title>
<path fill="none" stroke="midnightblue" d="M796.02,-108.1C774.53,-98.01 745.28,-84.27 726.64,-75.52"/>
<polygon fill="midnightblue" stroke="midnightblue" points="794.74,-111.36 805.28,-112.44 797.71,-105.02 794.74,-111.36"/>
</g>
<!-- Node19 -->
<g id="node14" class="node">
<title>Node19</title>
<g id="a_node14"><a xlink:href="../../da/da6/lar__schema_8cpp.html" target="_top" xlink:title=" ">
<polygon fill="none" stroke="black" points="775.5,-56.5 775.5,-75.5 917.5,-75.5 917.5,-56.5 775.5,-56.5"/>
<text text-anchor="middle" x="846.5" y="-63.5" font-family="Helvetica,sans-Serif" font-size="10.00">tools/lard/lar_schema.cpp</text>
</a>
</g>
</g>
<!-- Node18&#45;&gt;Node19 -->
<g id="edge15" class="edge">
<title>Node18&#45;&gt;Node19</title>
<path fill="none" stroke="midnightblue" d="M831.3,-102.69C835.18,-93.59 839.68,-83.01 842.77,-75.75"/>
<polygon fill="midnightblue" stroke="midnightblue" points="828,-101.51 827.3,-112.08 834.44,-104.25 828,-101.51"/>
</g>
<!-- Node20 -->
<g id="node15" class="node">
<title>Node20</title>
<g id="a_node15"><a xlink:href="../../d4/dc8/lar__snap_8cpp.html" target="_top" xlink:title=" ">
<polygon fill="none" stroke="black" points="936,-56.5 936,-75.5 1063,-75.5 1063,-56.5 936,-56.5"/>
<text text-anchor="middle" x="999.5" y="-63.5" font-family="Helvetica,sans-Serif" font-size="10.00">tools/lard/lar_snap.cpp</text>
</a>
</g>
</g>
<!-- Node18&#45;&gt;Node20 -->
<g id="edge16" class="edge">
<title>Node18&#45;&gt;Node20</title>
<path fill="none" stroke="midnightblue" d="M861.19,-109.44C894.37,-99.26 941.93,-84.66 971.74,-75.52"/>
<polygon fill="midnightblue" stroke="midnightblue" points="859.92,-106.16 851.39,-112.44 861.97,-112.86 859.92,-106.16"/>
</g>
</g>
</svg>
