<?xml version="1.0" encoding="UTF-8" standalone="no"?>
<!DOCTYPE svg PUBLIC "-//W3C//DTD SVG 1.1//EN"
 "http://www.w3.org/Graphics/SVG/1.1/DTD/svg11.dtd">
<!-- Generated by graphviz version 2.43.0 (0)
 -->
<!-- Title: lib/util.cpp Pages: 1 -->
<svg width="1319pt" height="140pt"
 viewBox="0.00 0.00 1319.00 140.00" xmlns="http://www.w3.org/2000/svg" xmlns:xlink="http://www.w3.org/1999/xlink">
<g id="graph0" class="graph" transform="scale(1 1) rotate(0) translate(4 136)">
<title>lib/util.cpp</title>
<!-- Node1 -->
<g id="node1" class="node">
<title>Node1</title>
<g id="a_node1"><a xlink:title=" ">
<polygon fill="#bfbfbf" stroke="black" points="718,-112.5 718,-131.5 786,-131.5 786,-112.5 718,-112.5"/>
<text text-anchor="middle" x="752" y="-119.5" font-family="Helvetica,sans-Serif" font-size="10.00">lib/util.cpp</text>
</a>
</g>
</g>
<!-- Node2 -->
<g id="node2" class="node">
<title>Node2</title>
<g id="a_node2"><a xlink:href="../../d0/d3f/util_8hpp.html" target="_top" xlink:title=" ">
<polygon fill="none" stroke="black" points="331.5,-56.5 331.5,-75.5 384.5,-75.5 384.5,-56.5 331.5,-56.5"/>
<text text-anchor="middle" x="358" y="-63.5" font-family="Helvetica,sans-Serif" font-size="10.00">util.hpp</text>
</a>
</g>
</g>
<!-- Node1&#45;&gt;Node2 -->
<g id="edge1" class="edge">
<title>Node1&#45;&gt;Node2</title>
<path fill="none" stroke="midnightblue" d="M717.98,-118.09C655.8,-112.49 519.5,-98.84 394.76,-75.93"/>
<polygon fill="midnightblue" stroke="midnightblue" points="395.13,-72.43 384.66,-74.04 393.85,-79.31 395.13,-72.43"/>
</g>
<!-- Node4 -->
<g id="node4" class="node">
<title>Node4</title>
<g id="a_node4"><a xlink:title=" ">
<polygon fill="none" stroke="#bfbfbf" points="0,-0.5 0,-19.5 56,-19.5 56,-0.5 0,-0.5"/>
<text text-anchor="middle" x="28" y="-7.5" font-family="Helvetica,sans-Serif" font-size="10.00">sstream</text>
</a>
</g>
</g>
<!-- Node1&#45;&gt;Node4 -->
<g id="edge26" class="edge">
<title>Node1&#45;&gt;Node4</title>
<path fill="none" stroke="midnightblue" d="M717.81,-120.46C635.03,-118.63 417.57,-110.63 240,-76 174.55,-63.24 100.61,-37.99 59.64,-22.99"/>
<polygon fill="midnightblue" stroke="midnightblue" points="60.79,-19.69 50.2,-19.5 58.36,-26.25 60.79,-19.69"/>
</g>
<!-- Node5 -->
<g id="node5" class="node">
<title>Node5</title>
<g id="a_node5"><a xlink:title=" ">
<polygon fill="none" stroke="#bfbfbf" points="74.5,-0.5 74.5,-19.5 129.5,-19.5 129.5,-0.5 74.5,-0.5"/>
<text text-anchor="middle" x="102" y="-7.5" font-family="Helvetica,sans-Serif" font-size="10.00">fstream</text>
</a>
</g>
</g>
<!-- Node1&#45;&gt;Node5 -->
<g id="edge24" class="edge">
<title>Node1&#45;&gt;Node5</title>
<path fill="none" stroke="midnightblue" d="M717.76,-119.52C644.65,-115.9 468.09,-104.7 323,-76 255.26,-62.6 178.37,-37.71 135.48,-22.92"/>
<polygon fill="midnightblue" stroke="midnightblue" points="136.44,-19.55 125.84,-19.57 134.14,-26.16 136.44,-19.55"/>
</g>
<!-- Node10 -->
<g id="node10" class="node">
<title>Node10</title>
<g id="a_node10"><a xlink:title=" ">
<polygon fill="none" stroke="#bfbfbf" points="590.5,-0.5 590.5,-19.5 643.5,-19.5 643.5,-0.5 590.5,-0.5"/>
<text text-anchor="middle" x="617" y="-7.5" font-family="Helvetica,sans-Serif" font-size="10.00">string.h</text>
</a>
</g>
</g>
<!-- Node1&#45;&gt;Node10 -->
<g id="edge16" class="edge">
<title>Node1&#45;&gt;Node10</title>
<path fill="none" stroke="midnightblue" d="M717.83,-119.79C657.71,-116.88 536.9,-107.19 511,-76 505.32,-69.16 506.09,-63.41 511,-56 519.16,-43.68 553.25,-30.58 580.59,-21.71"/>
<polygon fill="midnightblue" stroke="midnightblue" points="581.82,-24.99 590.3,-18.64 579.71,-18.32 581.82,-24.99"/>
</g>
<!-- Node12 -->
<g id="node12" class="node">
<title>Node12</title>
<g id="a_node12"><a xlink:href="../../d3/d44/oops_8hpp.html" target="_top" xlink:title=" ">
<polygon fill="none" stroke="black" points="402.5,-56.5 402.5,-75.5 463.5,-75.5 463.5,-56.5 402.5,-56.5"/>
<text text-anchor="middle" x="433" y="-63.5" font-family="Helvetica,sans-Serif" font-size="10.00">oops.hpp</text>
</a>
</g>
</g>
<!-- Node1&#45;&gt;Node12 -->
<g id="edge11" class="edge">
<title>Node1&#45;&gt;Node12</title>
<path fill="none" stroke="midnightblue" d="M717.76,-115.77C665.83,-107.74 564.08,-91.67 478,-76 476.72,-75.77 475.42,-75.53 474.11,-75.28"/>
<polygon fill="midnightblue" stroke="midnightblue" points="474.44,-71.78 463.96,-73.34 473.12,-78.66 474.44,-71.78"/>
</g>
<!-- Node13 -->
<g id="node13" class="node">
<title>Node13</title>
<g id="a_node13"><a xlink:title=" ">
<polygon fill="none" stroke="#bfbfbf" points="520,-56.5 520,-75.5 592,-75.5 592,-56.5 520,-56.5"/>
<text text-anchor="middle" x="556" y="-63.5" font-family="Helvetica,sans-Serif" font-size="10.00">sys/types.h</text>
</a>
</g>
</g>
<!-- Node1&#45;&gt;Node13 -->
<g id="edge13" class="edge">
<title>Node1&#45;&gt;Node13</title>
<path fill="none" stroke="midnightblue" d="M720.94,-112.44C687.4,-103.2 633.8,-88.44 596.86,-78.26"/>
<polygon fill="midnightblue" stroke="midnightblue" points="597.48,-74.8 586.91,-75.52 595.62,-81.55 597.48,-74.8"/>
</g>
<!-- Node14 -->
<g id="node14" class="node">
<title>Node14</title>
<g id="a_node14"><a xlink:title=" ">
<polygon fill="none" stroke="#bfbfbf" points="610,-56.5 610,-75.5 674,-75.5 674,-56.5 610,-56.5"/>
<text text-anchor="middle" x="642" y="-63.5" font-family="Helvetica,sans-Serif" font-size="10.00">sys/stat.h</text>
</a>
</g>
</g>
<!-- Node1&#45;&gt;Node14 -->
<g id="edge14" class="edge">
<title>Node1&#45;&gt;Node14</title>
<path fill="none" stroke="midnightblue" d="M734.33,-112.32C716.61,-103.62 689.1,-90.12 668.71,-80.11"/>
<polygon fill="midnightblue" stroke="midnightblue" points="670.15,-76.92 659.63,-75.65 667.06,-83.2 670.15,-76.92"/>
</g>
<!-- Node15 -->
<g id="node15" class="node">
<title>Node15</title>
<g id="a_node15"><a xlink:title=" ">
<polygon fill="none" stroke="#bfbfbf" points="692.5,-56.5 692.5,-75.5 743.5,-75.5 743.5,-56.5 692.5,-56.5"/>
<text text-anchor="middle" x="718" y="-63.5" font-family="Helvetica,sans-Serif" font-size="10.00">math.h</text>
</a>
</g>
</g>
<!-- Node1&#45;&gt;Node15 -->
<g id="edge15" class="edge">
<title>Node1&#45;&gt;Node15</title>
<path fill="none" stroke="midnightblue" d="M746.39,-112.08C741.63,-104.53 734.68,-93.49 728.85,-84.23"/>
<polygon fill="midnightblue" stroke="midnightblue" points="731.8,-82.35 723.51,-75.75 725.88,-86.08 731.8,-82.35"/>
</g>
<!-- Node16 -->
<g id="node16" class="node">
<title>Node16</title>
<g id="a_node16"><a xlink:title=" ">
<polygon fill="none" stroke="#bfbfbf" points="762,-56.5 762,-75.5 810,-75.5 810,-56.5 762,-56.5"/>
<text text-anchor="middle" x="786" y="-63.5" font-family="Helvetica,sans-Serif" font-size="10.00">time.h</text>
</a>
</g>
</g>
<!-- Node1&#45;&gt;Node16 -->
<g id="edge17" class="edge">
<title>Node1&#45;&gt;Node16</title>
<path fill="none" stroke="midnightblue" d="M757.61,-112.08C762.37,-104.53 769.32,-93.49 775.15,-84.23"/>
<polygon fill="midnightblue" stroke="midnightblue" points="778.12,-86.08 780.49,-75.75 772.2,-82.35 778.12,-86.08"/>
</g>
<!-- Node17 -->
<g id="node17" class="node">
<title>Node17</title>
<g id="a_node17"><a xlink:title=" ">
<polygon fill="none" stroke="#bfbfbf" points="828,-56.5 828,-75.5 884,-75.5 884,-56.5 828,-56.5"/>
<text text-anchor="middle" x="856" y="-63.5" font-family="Helvetica,sans-Serif" font-size="10.00">unistd.h</text>
</a>
</g>
</g>
<!-- Node1&#45;&gt;Node17 -->
<g id="edge18" class="edge">
<title>Node1&#45;&gt;Node17</title>
<path fill="none" stroke="midnightblue" d="M768.71,-112.32C785.31,-103.7 811,-90.36 830.22,-80.39"/>
<polygon fill="midnightblue" stroke="midnightblue" points="832.07,-83.37 839.33,-75.65 828.84,-77.16 832.07,-83.37"/>
</g>
<!-- Node18 -->
<g id="node18" class="node">
<title>Node18</title>
<g id="a_node18"><a xlink:title=" ">
<polygon fill="none" stroke="#bfbfbf" points="902.5,-56.5 902.5,-75.5 955.5,-75.5 955.5,-56.5 902.5,-56.5"/>
<text text-anchor="middle" x="929" y="-63.5" font-family="Helvetica,sans-Serif" font-size="10.00">stdlib.h</text>
</a>
</g>
</g>
<!-- Node1&#45;&gt;Node18 -->
<g id="edge19" class="edge">
<title>Node1&#45;&gt;Node18</title>
<path fill="none" stroke="midnightblue" d="M780.05,-112.44C810.44,-103.17 859.04,-88.34 892.41,-78.16"/>
<polygon fill="midnightblue" stroke="midnightblue" points="893.7,-81.43 902.24,-75.16 891.66,-74.73 893.7,-81.43"/>
</g>
<!-- Node19 -->
<g id="node19" class="node">
<title>Node19</title>
<g id="a_node19"><a xlink:title=" ">
<polygon fill="none" stroke="#bfbfbf" points="974,-56.5 974,-75.5 1020,-75.5 1020,-56.5 974,-56.5"/>
<text text-anchor="middle" x="997" y="-63.5" font-family="Helvetica,sans-Serif" font-size="10.00">pwd.h</text>
</a>
</g>
</g>
<!-- Node1&#45;&gt;Node19 -->
<g id="edge20" class="edge">
<title>Node1&#45;&gt;Node19</title>
<path fill="none" stroke="midnightblue" d="M786.1,-114.52C826.31,-106.71 895.38,-92.82 963.88,-76.15"/>
<polygon fill="midnightblue" stroke="midnightblue" points="965.1,-79.45 973.98,-73.67 963.43,-72.66 965.1,-79.45"/>
</g>
<!-- Node20 -->
<g id="node20" class="node">
<title>Node20</title>
<g id="a_node20"><a xlink:title=" ">
<polygon fill="none" stroke="#bfbfbf" points="1038,-56.5 1038,-75.5 1092,-75.5 1092,-56.5 1038,-56.5"/>
<text text-anchor="middle" x="1065" y="-63.5" font-family="Helvetica,sans-Serif" font-size="10.00">dirent.h</text>
</a>
</g>
</g>
<!-- Node1&#45;&gt;Node20 -->
<g id="edge21" class="edge">
<title>Node1&#45;&gt;Node20</title>
<path fill="none" stroke="midnightblue" d="M786.28,-116.38C836.99,-109.33 935.14,-94.91 1028.08,-76.05"/>
<polygon fill="midnightblue" stroke="midnightblue" points="1028.84,-79.46 1037.93,-74.03 1027.43,-72.61 1028.84,-79.46"/>
</g>
<!-- Node21 -->
<g id="node21" class="node">
<title>Node21</title>
<g id="a_node21"><a xlink:title=" ">
<polygon fill="none" stroke="#bfbfbf" points="1110.5,-56.5 1110.5,-75.5 1161.5,-75.5 1161.5,-56.5 1110.5,-56.5"/>
<text text-anchor="middle" x="1136" y="-63.5" font-family="Helvetica,sans-Serif" font-size="10.00">errno.h</text>
</a>
</g>
</g>
<!-- Node1&#45;&gt;Node21 -->
<g id="edge22" class="edge">
<title>Node1&#45;&gt;Node21</title>
<path fill="none" stroke="midnightblue" d="M786.4,-117.99C847.54,-112.32 979.25,-98.74 1100.29,-75.9"/>
<polygon fill="midnightblue" stroke="midnightblue" points="1101.3,-79.27 1110.47,-73.95 1099.99,-72.4 1101.3,-79.27"/>
</g>
<!-- Node22 -->
<g id="node22" class="node">
<title>Node22</title>
<g id="a_node22"><a xlink:title=" ">
<polygon fill="none" stroke="#bfbfbf" points="1179.5,-56.5 1179.5,-75.5 1232.5,-75.5 1232.5,-56.5 1179.5,-56.5"/>
<text text-anchor="middle" x="1206" y="-63.5" font-family="Helvetica,sans-Serif" font-size="10.00">limits.h</text>
</a>
</g>
</g>
<!-- Node1&#45;&gt;Node22 -->
<g id="edge23" class="edge">
<title>Node1&#45;&gt;Node22</title>
<path fill="none" stroke="midnightblue" d="M786.18,-119.01C856.33,-114.57 1021.71,-102.25 1169.2,-76.1"/>
<polygon fill="midnightblue" stroke="midnightblue" points="1170.11,-79.5 1179.33,-74.28 1168.87,-72.61 1170.11,-79.5"/>
</g>
<!-- Node23 -->
<g id="node23" class="node">
<title>Node23</title>
<g id="a_node23"><a xlink:title=" ">
<polygon fill="none" stroke="#bfbfbf" points="1251,-56.5 1251,-75.5 1311,-75.5 1311,-56.5 1251,-56.5"/>
<text text-anchor="middle" x="1281" y="-63.5" font-family="Helvetica,sans-Serif" font-size="10.00">iostream</text>
</a>
</g>
</g>
<!-- Node1&#45;&gt;Node23 -->
<g id="edge25" class="edge">
<title>Node1&#45;&gt;Node23</title>
<path fill="none" stroke="midnightblue" d="M786.06,-119.46C864.57,-115.57 1064.44,-103.74 1240.87,-75.97"/>
<polygon fill="midnightblue" stroke="midnightblue" points="1241.52,-79.41 1250.85,-74.38 1240.42,-72.5 1241.52,-79.41"/>
</g>
<!-- Node3 -->
<g id="node3" class="node">
<title>Node3</title>
<g id="a_node3"><a xlink:title=" ">
<polygon fill="none" stroke="#bfbfbf" points="528,-0.5 528,-19.5 572,-19.5 572,-0.5 528,-0.5"/>
<text text-anchor="middle" x="550" y="-7.5" font-family="Helvetica,sans-Serif" font-size="10.00">string</text>
</a>
</g>
</g>
<!-- Node2&#45;&gt;Node3 -->
<g id="edge2" class="edge">
<title>Node2&#45;&gt;Node3</title>
<path fill="none" stroke="midnightblue" d="M384.52,-57.68C414.58,-49.35 465.3,-35.26 518.11,-20.23"/>
<polygon fill="midnightblue" stroke="midnightblue" points="519.33,-23.52 527.99,-17.42 517.42,-16.79 519.33,-23.52"/>
</g>
<!-- Node2&#45;&gt;Node4 -->
<g id="edge3" class="edge">
<title>Node2&#45;&gt;Node4</title>
<path fill="none" stroke="midnightblue" d="M331.2,-61.67C281.11,-55.28 169.69,-40.27 66.21,-20.1"/>
<polygon fill="midnightblue" stroke="midnightblue" points="66.71,-16.63 56.23,-18.13 65.36,-23.5 66.71,-16.63"/>
</g>
<!-- Node2&#45;&gt;Node5 -->
<g id="edge4" class="edge">
<title>Node2&#45;&gt;Node5</title>
<path fill="none" stroke="midnightblue" d="M331.3,-59.84C291.76,-52.12 215.08,-36.89 139.96,-20.15"/>
<polygon fill="midnightblue" stroke="midnightblue" points="140.38,-16.66 129.86,-17.89 138.85,-23.49 140.38,-16.66"/>
</g>
<!-- Node6 -->
<g id="node6" class="node">
<title>Node6</title>
<g id="a_node6"><a xlink:title=" ">
<polygon fill="none" stroke="#bfbfbf" points="428,-0.5 428,-19.5 460,-19.5 460,-0.5 428,-0.5"/>
<text text-anchor="middle" x="444" y="-7.5" font-family="Helvetica,sans-Serif" font-size="10.00">set</text>
</a>
</g>
</g>
<!-- Node2&#45;&gt;Node6 -->
<g id="edge5" class="edge">
<title>Node2&#45;&gt;Node6</title>
<path fill="none" stroke="midnightblue" d="M371.82,-56.32C385.23,-47.9 405.82,-34.97 421.59,-25.07"/>
<polygon fill="midnightblue" stroke="midnightblue" points="423.61,-27.94 430.22,-19.65 419.89,-22.01 423.61,-27.94"/>
</g>
<!-- Node7 -->
<g id="node7" class="node">
<title>Node7</title>
<g id="a_node7"><a xlink:title=" ">
<polygon fill="none" stroke="#bfbfbf" points="478,-0.5 478,-19.5 510,-19.5 510,-0.5 478,-0.5"/>
<text text-anchor="middle" x="494" y="-7.5" font-family="Helvetica,sans-Serif" font-size="10.00">list</text>
</a>
</g>
</g>
<!-- Node2&#45;&gt;Node7 -->
<g id="edge6" class="edge">
<title>Node2&#45;&gt;Node7</title>
<path fill="none" stroke="midnightblue" d="M379.55,-56.44C403.62,-46.89 442.56,-31.43 468.22,-21.24"/>
<polygon fill="midnightblue" stroke="midnightblue" points="469.67,-24.43 477.67,-17.48 467.09,-17.92 469.67,-24.43"/>
</g>
<!-- Node8 -->
<g id="node8" class="node">
<title>Node8</title>
<g id="a_node8"><a xlink:title=" ">
<polygon fill="none" stroke="#bfbfbf" points="148,-0.5 148,-19.5 216,-19.5 216,-0.5 148,-0.5"/>
<text text-anchor="middle" x="182" y="-7.5" font-family="Helvetica,sans-Serif" font-size="10.00">sys/time.h</text>
</a>
</g>
</g>
<!-- Node2&#45;&gt;Node8 -->
<g id="edge7" class="edge">
<title>Node2&#45;&gt;Node8</title>
<path fill="none" stroke="midnightblue" d="M331.27,-56.8C301.55,-47.68 253.33,-32.88 219.76,-22.59"/>
<polygon fill="midnightblue" stroke="midnightblue" points="220.44,-19.13 209.86,-19.55 218.39,-25.83 220.44,-19.13"/>
</g>
<!-- Node9 -->
<g id="node9" class="node">
<title>Node9</title>
<g id="a_node9"><a xlink:title=" ">
<polygon fill="none" stroke="#bfbfbf" points="234.5,-0.5 234.5,-19.5 287.5,-19.5 287.5,-0.5 234.5,-0.5"/>
<text text-anchor="middle" x="261" y="-7.5" font-family="Helvetica,sans-Serif" font-size="10.00">regex.h</text>
</a>
</g>
</g>
<!-- Node2&#45;&gt;Node9 -->
<g id="edge8" class="edge">
<title>Node2&#45;&gt;Node9</title>
<path fill="none" stroke="midnightblue" d="M342.42,-56.32C327,-47.74 303.19,-34.49 285.29,-24.52"/>
<polygon fill="midnightblue" stroke="midnightblue" points="286.99,-21.46 276.55,-19.65 283.58,-27.58 286.99,-21.46"/>
</g>
<!-- Node2&#45;&gt;Node10 -->
<g id="edge9" class="edge">
<title>Node2&#45;&gt;Node10</title>
<path fill="none" stroke="midnightblue" d="M384.7,-58.15C387.83,-57.4 390.98,-56.67 394,-56 473.57,-38.41 496.66,-38.26 580.35,-20.04"/>
<polygon fill="midnightblue" stroke="midnightblue" points="581.29,-23.41 590.3,-17.85 579.78,-16.58 581.29,-23.41"/>
</g>
<!-- Node11 -->
<g id="node11" class="node">
<title>Node11</title>
<g id="a_node11"><a xlink:title=" ">
<polygon fill="none" stroke="#bfbfbf" points="306,-0.5 306,-19.5 410,-19.5 410,-0.5 306,-0.5"/>
<text text-anchor="middle" x="358" y="-7.5" font-family="Helvetica,sans-Serif" font-size="10.00">leanux&#45;config.hpp</text>
</a>
</g>
</g>
<!-- Node2&#45;&gt;Node11 -->
<g id="edge10" class="edge">
<title>Node2&#45;&gt;Node11</title>
<path fill="none" stroke="midnightblue" d="M358,-56.08C358,-49.01 358,-38.86 358,-29.99"/>
<polygon fill="midnightblue" stroke="midnightblue" points="361.5,-29.75 358,-19.75 354.5,-29.75 361.5,-29.75"/>
</g>
<!-- Node12&#45;&gt;Node3 -->
<g id="edge12" class="edge">
<title>Node12&#45;&gt;Node3</title>
<path fill="none" stroke="midnightblue" d="M451.54,-56.44C470.62,-47.64 500.57,-33.81 522.44,-23.72"/>
<polygon fill="midnightblue" stroke="midnightblue" points="523.93,-26.88 531.55,-19.52 521,-20.53 523.93,-26.88"/>
</g>
</g>
</svg>
