<?xml version="1.0" encoding="UTF-8" standalone="no"?>
<!DOCTYPE svg PUBLIC "-//W3C//DTD SVG 1.1//EN"
 "http://www.w3.org/Graphics/SVG/1.1/DTD/svg11.dtd">
<!-- Generated by graphviz version 2.43.0 (0)
 -->
<!-- Title: leanux::tools::lmon::IOView::getMinHeight Pages: 1 -->
<svg width="458pt" height="88pt"
 viewBox="0.00 0.00 458.00 88.00" xmlns="http://www.w3.org/2000/svg" xmlns:xlink="http://www.w3.org/1999/xlink">
<g id="graph0" class="graph" transform="scale(1 1) rotate(0) translate(4 84)">
<title>leanux::tools::lmon::IOView::getMinHeight</title>
<!-- Node1 -->
<g id="node1" class="node">
<title>Node1</title>
<g id="a_node1"><a xlink:title="The minimum height (lines) required by the Footer.">
<polygon fill="#bfbfbf" stroke="black" points="0,-24.5 0,-54.5 128,-54.5 128,-24.5 0,-24.5"/>
<text text-anchor="start" x="8" y="-42.5" font-family="Helvetica,sans-Serif" font-size="10.00">leanux::tools::lmon</text>
<text text-anchor="middle" x="64" y="-31.5" font-family="Helvetica,sans-Serif" font-size="10.00">::IOView::getMinHeight</text>
</a>
</g>
</g>
<!-- Node2 -->
<g id="node2" class="node">
<title>Node2</title>
<g id="a_node2"><a xlink:href="../../de/d84/classleanux_1_1util_1_1ConfigFile.html#a8cef175948cd9727c732de3a605c99ba" target="_top" xlink:title="Get the ConfigurationFile object for the appname, or construct one if it does not exist.">
<polygon fill="none" stroke="black" points="164,-49.5 164,-79.5 289,-79.5 289,-49.5 164,-49.5"/>
<text text-anchor="start" x="172" y="-67.5" font-family="Helvetica,sans-Serif" font-size="10.00">leanux::util::ConfigFile</text>
<text text-anchor="middle" x="226.5" y="-56.5" font-family="Helvetica,sans-Serif" font-size="10.00">::getConfig</text>
</a>
</g>
</g>
<!-- Node1&#45;&gt;Node2 -->
<g id="edge1" class="edge">
<title>Node1&#45;&gt;Node2</title>
<path fill="none" stroke="midnightblue" d="M128.43,-49.38C136.81,-50.69 145.44,-52.03 153.94,-53.35"/>
<polygon fill="midnightblue" stroke="midnightblue" points="153.42,-56.81 163.84,-54.9 154.5,-49.9 153.42,-56.81"/>
</g>
<!-- Node3 -->
<g id="node3" class="node">
<title>Node3</title>
<g id="a_node3"><a xlink:href="../../de/d84/classleanux_1_1util_1_1ConfigFile.html#aae0c3891e3d5a8d391a7439602b92780" target="_top" xlink:title="return the configuration parameter as an int.">
<polygon fill="none" stroke="black" points="164,-0.5 164,-30.5 289,-30.5 289,-0.5 164,-0.5"/>
<text text-anchor="start" x="172" y="-18.5" font-family="Helvetica,sans-Serif" font-size="10.00">leanux::util::ConfigFile</text>
<text text-anchor="middle" x="226.5" y="-7.5" font-family="Helvetica,sans-Serif" font-size="10.00">::getIntValue</text>
</a>
</g>
</g>
<!-- Node1&#45;&gt;Node3 -->
<g id="edge2" class="edge">
<title>Node1&#45;&gt;Node3</title>
<path fill="none" stroke="midnightblue" d="M128.43,-30.01C136.81,-28.76 145.44,-27.47 153.94,-26.2"/>
<polygon fill="midnightblue" stroke="midnightblue" points="154.47,-29.66 163.84,-24.72 153.43,-22.74 154.47,-29.66"/>
</g>
<!-- Node4 -->
<g id="node4" class="node">
<title>Node4</title>
<g id="a_node4"><a xlink:href="../../de/d84/classleanux_1_1util_1_1ConfigFile.html#aece3326e1c10df9dcfb48f4c12967336" target="_top" xlink:title="return the configuration parameter as a string.">
<polygon fill="none" stroke="black" points="325,-0.5 325,-30.5 450,-30.5 450,-0.5 325,-0.5"/>
<text text-anchor="start" x="333" y="-18.5" font-family="Helvetica,sans-Serif" font-size="10.00">leanux::util::ConfigFile</text>
<text text-anchor="middle" x="387.5" y="-7.5" font-family="Helvetica,sans-Serif" font-size="10.00">::getValue</text>
</a>
</g>
</g>
<!-- Node3&#45;&gt;Node4 -->
<g id="edge3" class="edge">
<title>Node3&#45;&gt;Node4</title>
<path fill="none" stroke="midnightblue" d="M289.43,-15.5C297.67,-15.5 306.18,-15.5 314.58,-15.5"/>
<polygon fill="midnightblue" stroke="midnightblue" points="314.74,-19 324.74,-15.5 314.74,-12 314.74,-19"/>
</g>
</g>
</svg>
