<?xml version="1.0" encoding="UTF-8" standalone="no"?>
<!DOCTYPE svg PUBLIC "-//W3C//DTD SVG 1.1//EN"
 "http://www.w3.org/Graphics/SVG/1.1/DTD/svg11.dtd">
<!-- Generated by graphviz version 2.43.0 (0)
 -->
<!-- Title: lib/device.cpp Pages: 1 -->
<svg width="1539pt" height="196pt"
 viewBox="0.00 0.00 1538.50 196.00" xmlns="http://www.w3.org/2000/svg" xmlns:xlink="http://www.w3.org/1999/xlink">
<g id="graph0" class="graph" transform="scale(1 1) rotate(0) translate(4 192)">
<title>lib/device.cpp</title>
<!-- Node1 -->
<g id="node1" class="node">
<title>Node1</title>
<g id="a_node1"><a xlink:title=" ">
<polygon fill="#bfbfbf" stroke="black" points="949,-168.5 949,-187.5 1033,-187.5 1033,-168.5 949,-168.5"/>
<text text-anchor="middle" x="991" y="-175.5" font-family="Helvetica,sans-Serif" font-size="10.00">lib/device.cpp</text>
</a>
</g>
</g>
<!-- Node2 -->
<g id="node2" class="node">
<title>Node2</title>
<g id="a_node2"><a xlink:href="../../d5/d08/device_8hpp.html" target="_top" xlink:title=" ">
<polygon fill="none" stroke="black" points="143,-112.5 143,-131.5 213,-131.5 213,-112.5 143,-112.5"/>
<text text-anchor="middle" x="178" y="-119.5" font-family="Helvetica,sans-Serif" font-size="10.00">device.hpp</text>
</a>
</g>
</g>
<!-- Node1&#45;&gt;Node2 -->
<g id="edge1" class="edge">
<title>Node1&#45;&gt;Node2</title>
<path fill="none" stroke="midnightblue" d="M948.72,-174.19C809.6,-164.95 366.83,-135.54 223.35,-126.01"/>
<polygon fill="midnightblue" stroke="midnightblue" points="223.36,-122.51 213.15,-125.33 222.89,-129.49 223.36,-122.51"/>
</g>
<!-- Node6 -->
<g id="node6" class="node">
<title>Node6</title>
<g id="a_node6"><a xlink:href="../../d9/db2/block_8hpp.html" target="_top" xlink:title=" ">
<polygon fill="none" stroke="red" points="83,-56.5 83,-75.5 147,-75.5 147,-56.5 83,-56.5"/>
<text text-anchor="middle" x="115" y="-63.5" font-family="Helvetica,sans-Serif" font-size="10.00">block.hpp</text>
</a>
</g>
</g>
<!-- Node1&#45;&gt;Node6 -->
<g id="edge12" class="edge">
<title>Node1&#45;&gt;Node6</title>
<path fill="none" stroke="midnightblue" d="M948.85,-176.13C780.81,-172.5 166.26,-157.53 134,-132 120.34,-121.19 116.12,-101.11 115,-86.11"/>
<polygon fill="midnightblue" stroke="midnightblue" points="118.49,-85.75 114.64,-75.88 111.49,-86 118.49,-85.75"/>
</g>
<!-- Node9 -->
<g id="node9" class="node">
<title>Node9</title>
<g id="a_node9"><a xlink:title=" ">
<polygon fill="none" stroke="#bfbfbf" points="0,-0.5 0,-19.5 60,-19.5 60,-0.5 0,-0.5"/>
<text text-anchor="middle" x="30" y="-7.5" font-family="Helvetica,sans-Serif" font-size="10.00">iostream</text>
</a>
</g>
</g>
<!-- Node1&#45;&gt;Node9 -->
<g id="edge46" class="edge">
<title>Node1&#45;&gt;Node9</title>
<path fill="none" stroke="midnightblue" d="M948.98,-176.75C784.73,-175.52 191.36,-168.56 116,-132 73.23,-111.25 47.45,-57.59 36.38,-29.22"/>
<polygon fill="midnightblue" stroke="midnightblue" points="39.61,-27.86 32.85,-19.7 33.04,-30.29 39.61,-27.86"/>
</g>
<!-- Node13 -->
<g id="node10" class="node">
<title>Node13</title>
<g id="a_node10"><a xlink:href="../../d0/d3f/util_8hpp.html" target="_top" xlink:title=" ">
<polygon fill="none" stroke="black" points="523.5,-112.5 523.5,-131.5 576.5,-131.5 576.5,-112.5 523.5,-112.5"/>
<text text-anchor="middle" x="550" y="-119.5" font-family="Helvetica,sans-Serif" font-size="10.00">util.hpp</text>
</a>
</g>
</g>
<!-- Node1&#45;&gt;Node13 -->
<g id="edge13" class="edge">
<title>Node1&#45;&gt;Node13</title>
<path fill="none" stroke="midnightblue" d="M948.72,-171.82C862.58,-161.27 668.06,-137.46 586.78,-127.5"/>
<polygon fill="midnightblue" stroke="midnightblue" points="586.89,-123.99 576.54,-126.25 586.04,-130.94 586.89,-123.99"/>
</g>
<!-- Node14 -->
<g id="node11" class="node">
<title>Node14</title>
<g id="a_node11"><a xlink:title=" ">
<polygon fill="none" stroke="#bfbfbf" points="241,-56.5 241,-75.5 297,-75.5 297,-56.5 241,-56.5"/>
<text text-anchor="middle" x="269" y="-63.5" font-family="Helvetica,sans-Serif" font-size="10.00">sstream</text>
</a>
</g>
</g>
<!-- Node1&#45;&gt;Node14 -->
<g id="edge45" class="edge">
<title>Node1&#45;&gt;Node14</title>
<path fill="none" stroke="midnightblue" d="M948.98,-175.34C865.64,-171.55 673.74,-160.28 515,-132 439.28,-118.51 352.76,-93.3 305.16,-78.56"/>
<polygon fill="midnightblue" stroke="midnightblue" points="306.2,-75.21 295.61,-75.58 304.12,-81.9 306.2,-75.21"/>
</g>
<!-- Node19 -->
<g id="node16" class="node">
<title>Node19</title>
<g id="a_node16"><a xlink:title=" ">
<polygon fill="none" stroke="#bfbfbf" points="795.5,-56.5 795.5,-75.5 848.5,-75.5 848.5,-56.5 795.5,-56.5"/>
<text text-anchor="middle" x="822" y="-63.5" font-family="Helvetica,sans-Serif" font-size="10.00">string.h</text>
</a>
</g>
</g>
<!-- Node1&#45;&gt;Node19 -->
<g id="edge48" class="edge">
<title>Node1&#45;&gt;Node19</title>
<path fill="none" stroke="midnightblue" d="M977.74,-168.37C948.74,-149.49 879.44,-104.38 843.87,-81.24"/>
<polygon fill="midnightblue" stroke="midnightblue" points="845.49,-78.11 835.2,-75.59 841.67,-83.98 845.49,-78.11"/>
</g>
<!-- Node21 -->
<g id="node18" class="node">
<title>Node21</title>
<g id="a_node18"><a xlink:href="../../d3/d44/oops_8hpp.html" target="_top" xlink:title=" ">
<polygon fill="none" stroke="black" points="1144.5,-56.5 1144.5,-75.5 1205.5,-75.5 1205.5,-56.5 1144.5,-56.5"/>
<text text-anchor="middle" x="1175" y="-63.5" font-family="Helvetica,sans-Serif" font-size="10.00">oops.hpp</text>
</a>
</g>
</g>
<!-- Node1&#45;&gt;Node21 -->
<g id="edge23" class="edge">
<title>Node1&#45;&gt;Node21</title>
<path fill="none" stroke="midnightblue" d="M1005.44,-168.37C1037.15,-149.41 1113.11,-104 1151.68,-80.94"/>
<polygon fill="midnightblue" stroke="midnightblue" points="1153.84,-83.73 1160.63,-75.59 1150.25,-77.72 1153.84,-83.73"/>
</g>
<!-- Node22 -->
<g id="node19" class="node">
<title>Node22</title>
<g id="a_node19"><a xlink:href="../../d4/d2d/net_8hpp.html" target="_top" xlink:title=" ">
<polygon fill="none" stroke="black" points="964.5,-112.5 964.5,-131.5 1017.5,-131.5 1017.5,-112.5 964.5,-112.5"/>
<text text-anchor="middle" x="991" y="-119.5" font-family="Helvetica,sans-Serif" font-size="10.00">net.hpp</text>
</a>
</g>
</g>
<!-- Node1&#45;&gt;Node22 -->
<g id="edge25" class="edge">
<title>Node1&#45;&gt;Node22</title>
<path fill="none" stroke="midnightblue" d="M991,-168.08C991,-161.01 991,-150.86 991,-141.99"/>
<polygon fill="midnightblue" stroke="midnightblue" points="994.5,-141.75 991,-131.75 987.5,-141.75 994.5,-141.75"/>
</g>
<!-- Node24 -->
<g id="node21" class="node">
<title>Node24</title>
<g id="a_node21"><a xlink:href="../../d9/dd5/pci_8hpp.html" target="_top" xlink:title=" ">
<polygon fill="none" stroke="black" points="1337,-112.5 1337,-131.5 1389,-131.5 1389,-112.5 1337,-112.5"/>
<text text-anchor="middle" x="1363" y="-119.5" font-family="Helvetica,sans-Serif" font-size="10.00">pci.hpp</text>
</a>
</g>
</g>
<!-- Node1&#45;&gt;Node24 -->
<g id="edge33" class="edge">
<title>Node1&#45;&gt;Node24</title>
<path fill="none" stroke="midnightblue" d="M1033.19,-172.02C1095.61,-164.47 1216.14,-149.18 1318,-132 1320.87,-131.52 1323.84,-130.99 1326.82,-130.43"/>
<polygon fill="midnightblue" stroke="midnightblue" points="1327.71,-133.83 1336.87,-128.5 1326.39,-126.95 1327.71,-133.83"/>
</g>
<!-- Node25 -->
<g id="node22" class="node">
<title>Node25</title>
<g id="a_node22"><a xlink:title=" ">
<polygon fill="none" stroke="#bfbfbf" points="1338,-56.5 1338,-75.5 1394,-75.5 1394,-56.5 1338,-56.5"/>
<text text-anchor="middle" x="1366" y="-63.5" font-family="Helvetica,sans-Serif" font-size="10.00">iomanip</text>
</a>
</g>
</g>
<!-- Node1&#45;&gt;Node25 -->
<g id="edge47" class="edge">
<title>Node1&#45;&gt;Node25</title>
<path fill="none" stroke="midnightblue" d="M1033.36,-176.21C1090.14,-173.84 1193.13,-164.9 1274,-132 1303.11,-120.16 1331.93,-97.57 1349.35,-82.39"/>
<polygon fill="midnightblue" stroke="midnightblue" points="1351.81,-84.89 1356.93,-75.62 1347.14,-79.67 1351.81,-84.89"/>
</g>
<!-- Node26 -->
<g id="node23" class="node">
<title>Node26</title>
<g id="a_node23"><a xlink:href="../../de/dad/usb_8hpp.html" target="_top" xlink:title=" ">
<polygon fill="none" stroke="black" points="1209.5,-112.5 1209.5,-131.5 1264.5,-131.5 1264.5,-112.5 1209.5,-112.5"/>
<text text-anchor="middle" x="1237" y="-119.5" font-family="Helvetica,sans-Serif" font-size="10.00">usb.hpp</text>
</a>
</g>
</g>
<!-- Node1&#45;&gt;Node26 -->
<g id="edge39" class="edge">
<title>Node1&#45;&gt;Node26</title>
<path fill="none" stroke="midnightblue" d="M1029.98,-168.44C1076.46,-158.24 1153.59,-141.31 1199.43,-131.25"/>
<polygon fill="midnightblue" stroke="midnightblue" points="1200.26,-134.65 1209.27,-129.09 1198.75,-127.81 1200.26,-134.65"/>
</g>
<!-- Node27 -->
<g id="node24" class="node">
<title>Node27</title>
<g id="a_node24"><a xlink:title=" ">
<polygon fill="none" stroke="#bfbfbf" points="1407,-112.5 1407,-131.5 1461,-131.5 1461,-112.5 1407,-112.5"/>
<text text-anchor="middle" x="1434" y="-119.5" font-family="Helvetica,sans-Serif" font-size="10.00">dirent.h</text>
</a>
</g>
</g>
<!-- Node1&#45;&gt;Node27 -->
<g id="edge49" class="edge">
<title>Node1&#45;&gt;Node27</title>
<path fill="none" stroke="midnightblue" d="M1033.16,-174.22C1105.62,-169.04 1258.54,-156.31 1397.01,-131.95"/>
<polygon fill="midnightblue" stroke="midnightblue" points="1397.73,-135.38 1406.96,-130.18 1396.5,-128.49 1397.73,-135.38"/>
</g>
<!-- Node28 -->
<g id="node25" class="node">
<title>Node28</title>
<g id="a_node25"><a xlink:title=" ">
<polygon fill="none" stroke="#bfbfbf" points="1479.5,-112.5 1479.5,-131.5 1530.5,-131.5 1530.5,-112.5 1479.5,-112.5"/>
<text text-anchor="middle" x="1505" y="-119.5" font-family="Helvetica,sans-Serif" font-size="10.00">errno.h</text>
</a>
</g>
</g>
<!-- Node1&#45;&gt;Node28 -->
<g id="edge50" class="edge">
<title>Node1&#45;&gt;Node28</title>
<path fill="none" stroke="midnightblue" d="M1033.26,-175.27C1115.46,-171.43 1302.66,-160.32 1469.54,-131.78"/>
<polygon fill="midnightblue" stroke="midnightblue" points="1470.23,-135.22 1479.49,-130.06 1469.04,-128.32 1470.23,-135.22"/>
</g>
<!-- Node3 -->
<g id="node3" class="node">
<title>Node3</title>
<g id="a_node3"><a xlink:title=" ">
<polygon fill="none" stroke="#bfbfbf" points="975,-0.5 975,-19.5 1007,-19.5 1007,-0.5 975,-0.5"/>
<text text-anchor="middle" x="991" y="-7.5" font-family="Helvetica,sans-Serif" font-size="10.00">list</text>
</a>
</g>
</g>
<!-- Node2&#45;&gt;Node3 -->
<g id="edge2" class="edge">
<title>Node2&#45;&gt;Node3</title>
<path fill="none" stroke="midnightblue" d="M182.18,-112.29C189.77,-97.6 207.33,-68.33 232,-56 375.31,15.59 789.67,-49.43 964.86,-19.47"/>
<polygon fill="midnightblue" stroke="midnightblue" points="965.6,-22.89 974.79,-17.62 964.32,-16.01 965.6,-22.89"/>
</g>
<!-- Node4 -->
<g id="node4" class="node">
<title>Node4</title>
<g id="a_node4"><a xlink:title=" ">
<polygon fill="none" stroke="#bfbfbf" points="913,-0.5 913,-19.5 957,-19.5 957,-0.5 913,-0.5"/>
<text text-anchor="middle" x="935" y="-7.5" font-family="Helvetica,sans-Serif" font-size="10.00">string</text>
</a>
</g>
</g>
<!-- Node2&#45;&gt;Node4 -->
<g id="edge3" class="edge">
<title>Node2&#45;&gt;Node4</title>
<path fill="none" stroke="midnightblue" d="M177.94,-112.11C178.38,-97.71 181.57,-69.52 199,-56 227.16,-34.16 763.39,-16.26 902.34,-11.98"/>
<polygon fill="midnightblue" stroke="midnightblue" points="902.85,-15.46 912.74,-11.66 902.64,-8.47 902.85,-15.46"/>
</g>
<!-- Node5 -->
<g id="node5" class="node">
<title>Node5</title>
<g id="a_node5"><a xlink:title=" ">
<polygon fill="none" stroke="#bfbfbf" points="91.5,-0.5 91.5,-19.5 138.5,-19.5 138.5,-0.5 91.5,-0.5"/>
<text text-anchor="middle" x="115" y="-7.5" font-family="Helvetica,sans-Serif" font-size="10.00">vector</text>
</a>
</g>
</g>
<!-- Node2&#45;&gt;Node5 -->
<g id="edge4" class="edge">
<title>Node2&#45;&gt;Node5</title>
<path fill="none" stroke="midnightblue" d="M142.86,-115.89C119.02,-110.4 89.18,-99.1 74,-76 62.94,-59.16 79.2,-39.56 94.39,-26.33"/>
<polygon fill="midnightblue" stroke="midnightblue" points="97,-28.72 102.54,-19.69 92.58,-23.29 97,-28.72"/>
</g>
<!-- Node2&#45;&gt;Node6 -->
<g id="edge5" class="edge">
<title>Node2&#45;&gt;Node6</title>
<path fill="none" stroke="midnightblue" d="M167.88,-112.32C158.47,-104.26 144.26,-92.08 132.93,-82.37"/>
<polygon fill="midnightblue" stroke="midnightblue" points="135.18,-79.68 125.31,-75.83 130.62,-85 135.18,-79.68"/>
</g>
<!-- Node6&#45;&gt;Node3 -->
<g id="edge8" class="edge">
<title>Node6&#45;&gt;Node3</title>
<path fill="none" stroke="midnightblue" d="M147.27,-61.09C162.87,-59.31 181.89,-57.32 199,-56 535.93,-30.07 629.46,-85.44 964.8,-19.61"/>
<polygon fill="midnightblue" stroke="midnightblue" points="965.67,-23 974.79,-17.62 964.3,-16.14 965.67,-23"/>
</g>
<!-- Node6&#45;&gt;Node4 -->
<g id="edge6" class="edge">
<title>Node6&#45;&gt;Node4</title>
<path fill="none" stroke="midnightblue" d="M147.08,-58.15C151.73,-57.32 156.48,-56.57 161,-56 446.97,-19.88 796.11,-12.7 902.63,-11.32"/>
<polygon fill="midnightblue" stroke="midnightblue" points="902.78,-14.82 912.73,-11.2 902.69,-7.82 902.78,-14.82"/>
</g>
<!-- Node6&#45;&gt;Node5 -->
<g id="edge10" class="edge">
<title>Node6&#45;&gt;Node5</title>
<path fill="none" stroke="midnightblue" d="M115,-56.08C115,-49.01 115,-38.86 115,-29.99"/>
<polygon fill="midnightblue" stroke="midnightblue" points="118.5,-29.75 115,-19.75 111.5,-29.75 118.5,-29.75"/>
</g>
<!-- Node7 -->
<g id="node7" class="node">
<title>Node7</title>
<g id="a_node7"><a xlink:title=" ">
<polygon fill="none" stroke="#bfbfbf" points="1153.5,-0.5 1153.5,-19.5 1210.5,-19.5 1210.5,-0.5 1153.5,-0.5"/>
<text text-anchor="middle" x="1182" y="-7.5" font-family="Helvetica,sans-Serif" font-size="10.00">ostream</text>
</a>
</g>
</g>
<!-- Node6&#45;&gt;Node7 -->
<g id="edge7" class="edge">
<title>Node6&#45;&gt;Node7</title>
<path fill="none" stroke="midnightblue" d="M147.26,-62.25C170.75,-60.31 203.33,-57.76 232,-56 580.16,-34.62 667.62,-37.44 1016,-20 1059.44,-17.83 1109.26,-15.09 1142.89,-13.21"/>
<polygon fill="midnightblue" stroke="midnightblue" points="1143.43,-16.69 1153.21,-12.63 1143.03,-9.7 1143.43,-16.69"/>
</g>
<!-- Node8 -->
<g id="node8" class="node">
<title>Node8</title>
<g id="a_node8"><a xlink:title=" ">
<polygon fill="none" stroke="#bfbfbf" points="507,-0.5 507,-19.5 545,-19.5 545,-0.5 507,-0.5"/>
<text text-anchor="middle" x="526" y="-7.5" font-family="Helvetica,sans-Serif" font-size="10.00">map</text>
</a>
</g>
</g>
<!-- Node6&#45;&gt;Node8 -->
<g id="edge9" class="edge">
<title>Node6&#45;&gt;Node8</title>
<path fill="none" stroke="midnightblue" d="M147.12,-58.42C151.77,-57.55 156.5,-56.72 161,-56 285.32,-36.2 434.65,-20.21 496.72,-13.9"/>
<polygon fill="midnightblue" stroke="midnightblue" points="497.34,-17.36 506.93,-12.87 496.63,-10.39 497.34,-17.36"/>
</g>
<!-- Node6&#45;&gt;Node9 -->
<g id="edge11" class="edge">
<title>Node6&#45;&gt;Node9</title>
<path fill="none" stroke="midnightblue" d="M101.34,-56.32C88.08,-47.9 67.73,-34.97 52.15,-25.07"/>
<polygon fill="midnightblue" stroke="midnightblue" points="53.94,-22.06 43.62,-19.65 50.19,-27.97 53.94,-22.06"/>
</g>
<!-- Node13&#45;&gt;Node3 -->
<g id="edge18" class="edge">
<title>Node13&#45;&gt;Node3</title>
<path fill="none" stroke="midnightblue" d="M576.54,-117.14C615.11,-111.04 688.53,-97.62 748,-76 766.31,-69.34 768.61,-62.43 787,-56 860.61,-30.28 885.86,-40.88 965.04,-19.88"/>
<polygon fill="midnightblue" stroke="midnightblue" points="966.26,-23.18 974.97,-17.16 964.4,-16.43 966.26,-23.18"/>
</g>
<!-- Node13&#45;&gt;Node4 -->
<g id="edge14" class="edge">
<title>Node13&#45;&gt;Node4</title>
<path fill="none" stroke="midnightblue" d="M523.13,-120.98C456.52,-120.09 292.85,-112.28 345,-56 383.09,-14.9 784.83,-11.17 902.68,-10.97"/>
<polygon fill="midnightblue" stroke="midnightblue" points="902.87,-14.47 912.87,-10.96 902.86,-7.47 902.87,-14.47"/>
</g>
<!-- Node13&#45;&gt;Node14 -->
<g id="edge15" class="edge">
<title>Node13&#45;&gt;Node14</title>
<path fill="none" stroke="midnightblue" d="M523.43,-116.22C479.27,-108.23 387.99,-91.49 311,-76 309.77,-75.75 308.51,-75.5 307.25,-75.24"/>
<polygon fill="midnightblue" stroke="midnightblue" points="307.95,-71.81 297.45,-73.2 306.52,-78.66 307.95,-71.81"/>
</g>
<!-- Node15 -->
<g id="node12" class="node">
<title>Node15</title>
<g id="a_node12"><a xlink:title=" ">
<polygon fill="none" stroke="#bfbfbf" points="353.5,-56.5 353.5,-75.5 408.5,-75.5 408.5,-56.5 353.5,-56.5"/>
<text text-anchor="middle" x="381" y="-63.5" font-family="Helvetica,sans-Serif" font-size="10.00">fstream</text>
</a>
</g>
</g>
<!-- Node13&#45;&gt;Node15 -->
<g id="edge16" class="edge">
<title>Node13&#45;&gt;Node15</title>
<path fill="none" stroke="midnightblue" d="M523.22,-112.44C494.67,-103.32 449.27,-88.81 417.46,-78.65"/>
<polygon fill="midnightblue" stroke="midnightblue" points="418.24,-75.23 407.65,-75.52 416.11,-81.89 418.24,-75.23"/>
</g>
<!-- Node16 -->
<g id="node13" class="node">
<title>Node16</title>
<g id="a_node13"><a xlink:title=" ">
<polygon fill="none" stroke="#bfbfbf" points="427,-56.5 427,-75.5 459,-75.5 459,-56.5 427,-56.5"/>
<text text-anchor="middle" x="443" y="-63.5" font-family="Helvetica,sans-Serif" font-size="10.00">set</text>
</a>
</g>
</g>
<!-- Node13&#45;&gt;Node16 -->
<g id="edge17" class="edge">
<title>Node13&#45;&gt;Node16</title>
<path fill="none" stroke="midnightblue" d="M532.81,-112.32C515.34,-103.51 488.11,-89.76 468.2,-79.72"/>
<polygon fill="midnightblue" stroke="midnightblue" points="469.6,-76.51 459.1,-75.12 466.45,-82.75 469.6,-76.51"/>
</g>
<!-- Node17 -->
<g id="node14" class="node">
<title>Node17</title>
<g id="a_node14"><a xlink:title=" ">
<polygon fill="none" stroke="#bfbfbf" points="477,-56.5 477,-75.5 545,-75.5 545,-56.5 477,-56.5"/>
<text text-anchor="middle" x="511" y="-63.5" font-family="Helvetica,sans-Serif" font-size="10.00">sys/time.h</text>
</a>
</g>
</g>
<!-- Node13&#45;&gt;Node17 -->
<g id="edge19" class="edge">
<title>Node13&#45;&gt;Node17</title>
<path fill="none" stroke="midnightblue" d="M543.56,-112.08C538.05,-104.46 529.97,-93.26 523.24,-83.94"/>
<polygon fill="midnightblue" stroke="midnightblue" points="526.01,-81.81 517.32,-75.75 520.34,-85.91 526.01,-81.81"/>
</g>
<!-- Node18 -->
<g id="node15" class="node">
<title>Node18</title>
<g id="a_node15"><a xlink:title=" ">
<polygon fill="none" stroke="#bfbfbf" points="563.5,-56.5 563.5,-75.5 616.5,-75.5 616.5,-56.5 563.5,-56.5"/>
<text text-anchor="middle" x="590" y="-63.5" font-family="Helvetica,sans-Serif" font-size="10.00">regex.h</text>
</a>
</g>
</g>
<!-- Node13&#45;&gt;Node18 -->
<g id="edge20" class="edge">
<title>Node13&#45;&gt;Node18</title>
<path fill="none" stroke="midnightblue" d="M556.61,-112.08C562.26,-104.46 570.54,-93.26 577.45,-83.94"/>
<polygon fill="midnightblue" stroke="midnightblue" points="580.38,-85.87 583.52,-75.75 574.75,-81.7 580.38,-85.87"/>
</g>
<!-- Node13&#45;&gt;Node19 -->
<g id="edge21" class="edge">
<title>Node13&#45;&gt;Node19</title>
<path fill="none" stroke="midnightblue" d="M576.72,-116.01C619.78,-107.91 707.18,-91.29 781,-76 782.28,-75.73 783.59,-75.46 784.91,-75.18"/>
<polygon fill="midnightblue" stroke="midnightblue" points="786.07,-78.51 795.11,-73 784.6,-71.67 786.07,-78.51"/>
</g>
<!-- Node20 -->
<g id="node17" class="node">
<title>Node20</title>
<g id="a_node17"><a xlink:title=" ">
<polygon fill="none" stroke="#bfbfbf" points="635,-56.5 635,-75.5 739,-75.5 739,-56.5 635,-56.5"/>
<text text-anchor="middle" x="687" y="-63.5" font-family="Helvetica,sans-Serif" font-size="10.00">leanux&#45;config.hpp</text>
</a>
</g>
</g>
<!-- Node13&#45;&gt;Node20 -->
<g id="edge22" class="edge">
<title>Node13&#45;&gt;Node20</title>
<path fill="none" stroke="midnightblue" d="M571.71,-112.44C594.35,-103.52 630.07,-89.44 655.75,-79.32"/>
<polygon fill="midnightblue" stroke="midnightblue" points="657.37,-82.44 665.39,-75.52 654.81,-75.93 657.37,-82.44"/>
</g>
<!-- Node21&#45;&gt;Node4 -->
<g id="edge24" class="edge">
<title>Node21&#45;&gt;Node4</title>
<path fill="none" stroke="midnightblue" d="M1144.36,-57.87C1141.53,-57.23 1138.71,-56.6 1136,-56 1063.69,-40 1042.62,-38.85 967.27,-20.18"/>
<polygon fill="midnightblue" stroke="midnightblue" points="967.85,-16.72 957.3,-17.69 966.15,-23.51 967.85,-16.72"/>
</g>
<!-- Node22&#45;&gt;Node3 -->
<g id="edge29" class="edge">
<title>Node22&#45;&gt;Node3</title>
<path fill="none" stroke="midnightblue" d="M991,-112.37C991,-94.62 991,-53.67 991,-29.6"/>
<polygon fill="midnightblue" stroke="midnightblue" points="994.5,-29.59 991,-19.59 987.5,-29.59 994.5,-29.59"/>
</g>
<!-- Node22&#45;&gt;Node4 -->
<g id="edge27" class="edge">
<title>Node22&#45;&gt;Node4</title>
<path fill="none" stroke="midnightblue" d="M986.61,-112.37C977.45,-94.38 956.15,-52.55 943.97,-28.63"/>
<polygon fill="midnightblue" stroke="midnightblue" points="947.03,-26.92 939.37,-19.59 940.79,-30.09 947.03,-26.92"/>
</g>
<!-- Node22&#45;&gt;Node5 -->
<g id="edge31" class="edge">
<title>Node22&#45;&gt;Node5</title>
<path fill="none" stroke="midnightblue" d="M969.96,-112.42C949.48,-103.85 917.63,-89.99 891,-76 875.82,-68.02 874.37,-61.11 858,-56 789.84,-34.72 285.57,-16.64 149.02,-12.1"/>
<polygon fill="midnightblue" stroke="midnightblue" points="148.86,-8.59 138.75,-11.76 148.63,-15.59 148.86,-8.59"/>
</g>
<!-- Node22&#45;&gt;Node7 -->
<g id="edge28" class="edge">
<title>Node22&#45;&gt;Node7</title>
<path fill="none" stroke="midnightblue" d="M996.67,-112.11C1005.98,-98.21 1025.79,-71.35 1049,-56 1077.88,-36.9 1115.66,-25.14 1143.58,-18.46"/>
<polygon fill="midnightblue" stroke="midnightblue" points="1144.41,-21.86 1153.38,-16.22 1142.85,-15.03 1144.41,-21.86"/>
</g>
<!-- Node22&#45;&gt;Node8 -->
<g id="edge30" class="edge">
<title>Node22&#45;&gt;Node8</title>
<path fill="none" stroke="midnightblue" d="M981.32,-112.5C964.36,-98.14 927.57,-69.33 891,-56 772.2,-12.7 618.77,-9.46 555.39,-10.22"/>
<polygon fill="midnightblue" stroke="midnightblue" points="555.26,-6.72 545.31,-10.38 555.37,-13.72 555.26,-6.72"/>
</g>
<!-- Node22&#45;&gt;Node21 -->
<g id="edge26" class="edge">
<title>Node22&#45;&gt;Node21</title>
<path fill="none" stroke="midnightblue" d="M1017.76,-113.15C1048.78,-104.04 1100.2,-88.95 1135.75,-78.52"/>
<polygon fill="midnightblue" stroke="midnightblue" points="1137.17,-81.75 1145.78,-75.58 1135.2,-75.03 1137.17,-81.75"/>
</g>
<!-- Node23 -->
<g id="node20" class="node">
<title>Node23</title>
<g id="a_node20"><a xlink:title=" ">
<polygon fill="none" stroke="#bfbfbf" points="1057.5,-56.5 1057.5,-75.5 1126.5,-75.5 1126.5,-56.5 1057.5,-56.5"/>
<text text-anchor="middle" x="1092" y="-63.5" font-family="Helvetica,sans-Serif" font-size="10.00">arpa/inet.h</text>
</a>
</g>
</g>
<!-- Node22&#45;&gt;Node23 -->
<g id="edge32" class="edge">
<title>Node22&#45;&gt;Node23</title>
<path fill="none" stroke="midnightblue" d="M1007.23,-112.32C1023.35,-103.7 1048.3,-90.36 1066.96,-80.39"/>
<polygon fill="midnightblue" stroke="midnightblue" points="1068.64,-83.46 1075.81,-75.65 1065.34,-77.28 1068.64,-83.46"/>
</g>
<!-- Node24&#45;&gt;Node3 -->
<g id="edge35" class="edge">
<title>Node24&#45;&gt;Node3</title>
<path fill="none" stroke="midnightblue" d="M1385.8,-112.42C1414.01,-100.57 1456.03,-78.16 1436,-56 1421.83,-40.33 1110.14,-18.78 1017.04,-12.67"/>
<polygon fill="midnightblue" stroke="midnightblue" points="1017.24,-9.18 1007.04,-12.02 1016.79,-16.16 1017.24,-9.18"/>
</g>
<!-- Node24&#45;&gt;Node4 -->
<g id="edge34" class="edge">
<title>Node24&#45;&gt;Node4</title>
<path fill="none" stroke="midnightblue" d="M1375.19,-112.29C1392.23,-99.11 1419.34,-73.74 1403,-56 1371.61,-21.91 1047.92,-28.1 967.6,-19.48"/>
<polygon fill="midnightblue" stroke="midnightblue" points="967.61,-15.95 957.22,-18.03 966.64,-22.88 967.61,-15.95"/>
</g>
<!-- Node24&#45;&gt;Node7 -->
<g id="edge36" class="edge">
<title>Node24&#45;&gt;Node7</title>
<path fill="none" stroke="midnightblue" d="M1389.08,-114.07C1418.69,-105.6 1464.15,-90.62 1474,-76 1478.97,-68.63 1479.79,-62.75 1474,-56 1441.85,-18.52 1292.9,-11.96 1221.02,-11.02"/>
<polygon fill="midnightblue" stroke="midnightblue" points="1221.03,-7.52 1210.99,-10.91 1220.96,-14.51 1221.03,-7.52"/>
</g>
<!-- Node24&#45;&gt;Node21 -->
<g id="edge38" class="edge">
<title>Node24&#45;&gt;Node21</title>
<path fill="none" stroke="midnightblue" d="M1336.86,-113.49C1305.13,-104.38 1251.33,-88.92 1214.53,-78.35"/>
<polygon fill="midnightblue" stroke="midnightblue" points="1215.21,-74.91 1204.63,-75.51 1213.28,-81.64 1215.21,-74.91"/>
</g>
<!-- Node24&#45;&gt;Node25 -->
<g id="edge37" class="edge">
<title>Node24&#45;&gt;Node25</title>
<path fill="none" stroke="midnightblue" d="M1363.5,-112.08C1363.89,-105.01 1364.45,-94.86 1364.95,-85.99"/>
<polygon fill="midnightblue" stroke="midnightblue" points="1368.45,-85.93 1365.51,-75.75 1361.46,-85.54 1368.45,-85.93"/>
</g>
<!-- Node26&#45;&gt;Node3 -->
<g id="edge41" class="edge">
<title>Node26&#45;&gt;Node3</title>
<path fill="none" stroke="midnightblue" d="M1242.34,-112.29C1249.94,-98.65 1261.55,-72.12 1248,-56 1218.72,-21.15 1077,-13.28 1017.44,-11.51"/>
<polygon fill="midnightblue" stroke="midnightblue" points="1017.41,-8.01 1007.33,-11.25 1017.23,-15.01 1017.41,-8.01"/>
</g>
<!-- Node26&#45;&gt;Node4 -->
<g id="edge40" class="edge">
<title>Node26&#45;&gt;Node4</title>
<path fill="none" stroke="midnightblue" d="M1236.79,-112.26C1235.93,-98.06 1232.03,-70.17 1215,-56 1174.12,-21.99 1035.17,-30.8 967.15,-19.73"/>
<polygon fill="midnightblue" stroke="midnightblue" points="967.73,-16.28 957.26,-17.86 966.43,-23.16 967.73,-16.28"/>
</g>
<!-- Node26&#45;&gt;Node7 -->
<g id="edge42" class="edge">
<title>Node26&#45;&gt;Node7</title>
<path fill="none" stroke="midnightblue" d="M1251.72,-112.43C1270.73,-100.24 1299.81,-77.02 1286,-56 1271.6,-34.09 1244.01,-22.79 1220.86,-17"/>
<polygon fill="midnightblue" stroke="midnightblue" points="1221.46,-13.55 1210.93,-14.77 1219.93,-20.38 1221.46,-13.55"/>
</g>
<!-- Node26&#45;&gt;Node21 -->
<g id="edge44" class="edge">
<title>Node26&#45;&gt;Node21</title>
<path fill="none" stroke="midnightblue" d="M1227.04,-112.32C1217.87,-104.34 1204.06,-92.31 1192.97,-82.65"/>
<polygon fill="midnightblue" stroke="midnightblue" points="1194.98,-79.76 1185.14,-75.83 1190.38,-85.04 1194.98,-79.76"/>
</g>
<!-- Node26&#45;&gt;Node25 -->
<g id="edge43" class="edge">
<title>Node26&#45;&gt;Node25</title>
<path fill="none" stroke="midnightblue" d="M1257.44,-112.44C1278.67,-103.56 1312.1,-89.56 1336.25,-79.45"/>
<polygon fill="midnightblue" stroke="midnightblue" points="1337.78,-82.61 1345.66,-75.52 1335.08,-76.15 1337.78,-82.61"/>
</g>
</g>
</svg>
