<?xml version="1.0" encoding="UTF-8" standalone="no"?>
<!DOCTYPE svg PUBLIC "-//W3C//DTD SVG 1.1//EN"
 "http://www.w3.org/Graphics/SVG/1.1/DTD/svg11.dtd">
<!-- Generated by graphviz version 2.43.0 (0)
 -->
<!-- Title: leanux::sysdevice::LoopbackDevice::accept Pages: 1 -->
<svg width="469pt" height="127pt"
 viewBox="0.00 0.00 469.00 127.00" xmlns="http://www.w3.org/2000/svg" xmlns:xlink="http://www.w3.org/1999/xlink">
<g id="graph0" class="graph" transform="scale(1 1) rotate(0) translate(4 123)">
<title>leanux::sysdevice::LoopbackDevice::accept</title>
<!-- Node1 -->
<g id="node1" class="node">
<title>Node1</title>
<g id="a_node1"><a xlink:title="Return true if the SysDevice recognizes itself in the trailing part of path.">
<polygon fill="#bfbfbf" stroke="black" points="0,-44.5 0,-74.5 135,-74.5 135,-44.5 0,-44.5"/>
<text text-anchor="start" x="8" y="-62.5" font-family="Helvetica,sans-Serif" font-size="10.00">leanux::sysdevice::</text>
<text text-anchor="middle" x="67.5" y="-51.5" font-family="Helvetica,sans-Serif" font-size="10.00">LoopbackDevice::accept</text>
</a>
</g>
</g>
<!-- Node2 -->
<g id="node2" class="node">
<title>Node2</title>
<g id="a_node2"><a xlink:href="../../df/d3f/classleanux_1_1util_1_1RegExp.html#a8acc45eb950f504e1b224e10313364de" target="_top" xlink:title=" ">
<polygon fill="none" stroke="black" points="181.5,-88.5 181.5,-118.5 295.5,-118.5 295.5,-88.5 181.5,-88.5"/>
<text text-anchor="start" x="189.5" y="-106.5" font-family="Helvetica,sans-Serif" font-size="10.00">leanux::util::RegExp</text>
<text text-anchor="middle" x="238.5" y="-95.5" font-family="Helvetica,sans-Serif" font-size="10.00">::match</text>
</a>
</g>
</g>
<!-- Node1&#45;&gt;Node2 -->
<g id="edge1" class="edge">
<title>Node1&#45;&gt;Node2</title>
<path fill="none" stroke="midnightblue" d="M126.19,-74.52C140.78,-78.32 156.56,-82.43 171.52,-86.32"/>
<polygon fill="midnightblue" stroke="midnightblue" points="170.66,-89.71 181.22,-88.85 172.42,-82.94 170.66,-89.71"/>
</g>
<!-- Node3 -->
<g id="node3" class="node">
<title>Node3</title>
<g id="a_node3"><a xlink:href="../../df/d3f/classleanux_1_1util_1_1RegExp.html#ad478a08e79f94ea2c48de6298c6e1178" target="_top" xlink:title=" ">
<polygon fill="none" stroke="black" points="171,-50 171,-69 306,-69 306,-50 171,-50"/>
<text text-anchor="middle" x="238.5" y="-57" font-family="Helvetica,sans-Serif" font-size="10.00">leanux::util::RegExp::set</text>
</a>
</g>
</g>
<!-- Node1&#45;&gt;Node3 -->
<g id="edge2" class="edge">
<title>Node1&#45;&gt;Node3</title>
<path fill="none" stroke="midnightblue" d="M135.29,-59.5C143.62,-59.5 152.19,-59.5 160.66,-59.5"/>
<polygon fill="midnightblue" stroke="midnightblue" points="160.92,-63 170.92,-59.5 160.92,-56 160.92,-63"/>
</g>
<!-- Node4 -->
<g id="node4" class="node">
<title>Node4</title>
<g id="a_node4"><a xlink:href="../../d1/d02/classleanux_1_1sysdevice_1_1SysDevice.html#abc35fc5f51e73156ebd1a8b707c960b2" target="_top" xlink:title="Transform a SysDevicePath into a list of tokens in reverse order.">
<polygon fill="none" stroke="black" points="181,-0.5 181,-30.5 296,-30.5 296,-0.5 181,-0.5"/>
<text text-anchor="start" x="189" y="-18.5" font-family="Helvetica,sans-Serif" font-size="10.00">leanux::sysdevice::</text>
<text text-anchor="middle" x="238.5" y="-7.5" font-family="Helvetica,sans-Serif" font-size="10.00">SysDevice::tokenize</text>
</a>
</g>
</g>
<!-- Node1&#45;&gt;Node4 -->
<g id="edge3" class="edge">
<title>Node1&#45;&gt;Node4</title>
<path fill="none" stroke="midnightblue" d="M126.19,-44.48C140.56,-40.74 156.09,-36.7 170.85,-32.85"/>
<polygon fill="midnightblue" stroke="midnightblue" points="172.14,-36.13 180.93,-30.23 170.37,-29.36 172.14,-36.13"/>
</g>
<!-- Node5 -->
<g id="node5" class="node">
<title>Node5</title>
<g id="a_node5"><a xlink:href="../../d8/db1/namespaceleanux_1_1util.html#a3b691a56e21c20628e956b8ec995d53f" target="_top" xlink:title=" ">
<polygon fill="none" stroke="black" points="342,-6 342,-25 461,-25 461,-6 342,-6"/>
<text text-anchor="middle" x="401.5" y="-13" font-family="Helvetica,sans-Serif" font-size="10.00">leanux::util::tokenize</text>
</a>
</g>
</g>
<!-- Node4&#45;&gt;Node5 -->
<g id="edge4" class="edge">
<title>Node4&#45;&gt;Node5</title>
<path fill="none" stroke="midnightblue" d="M296.26,-15.5C307.68,-15.5 319.79,-15.5 331.56,-15.5"/>
<polygon fill="midnightblue" stroke="midnightblue" points="331.8,-19 341.8,-15.5 331.8,-12 331.8,-19"/>
</g>
</g>
</svg>
