<?xml version="1.0" encoding="UTF-8" standalone="no"?>
<!DOCTYPE svg PUBLIC "-//W3C//DTD SVG 1.1//EN"
 "http://www.w3.org/Graphics/SVG/1.1/DTD/svg11.dtd">
<!-- Generated by graphviz version 2.43.0 (0)
 -->
<!-- Title: leanux::sysdevice::SysDevice::validatePath Pages: 1 -->
<svg width="434pt" height="88pt"
 viewBox="0.00 0.00 434.00 88.00" xmlns="http://www.w3.org/2000/svg" xmlns:xlink="http://www.w3.org/1999/xlink">
<g id="graph0" class="graph" transform="scale(1 1) rotate(0) translate(4 84)">
<title>leanux::sysdevice::SysDevice::validatePath</title>
<!-- Node1 -->
<g id="node1" class="node">
<title>Node1</title>
<g id="a_node1"><a xlink:title="Test SysDevicePath validity; path must exist (be readable) and located under /sys/devices.">
<polygon fill="#bfbfbf" stroke="black" points="292,-22.5 292,-52.5 426,-52.5 426,-22.5 292,-22.5"/>
<text text-anchor="start" x="300" y="-40.5" font-family="Helvetica,sans-Serif" font-size="10.00">leanux::sysdevice::</text>
<text text-anchor="middle" x="359" y="-29.5" font-family="Helvetica,sans-Serif" font-size="10.00">SysDevice::validatePath</text>
</a>
</g>
</g>
<!-- Node2 -->
<g id="node2" class="node">
<title>Node2</title>
<g id="a_node2"><a xlink:href="../../d3/d83/namespaceleanux_1_1sysdevice.html#aa76385cfb36c36d3f55f25dfacc1346b" target="_top" xlink:title="Return the leaf SysDevice detected in path.">
<polygon fill="none" stroke="black" points="146,-44.5 146,-74.5 256,-74.5 256,-44.5 146,-44.5"/>
<text text-anchor="start" x="154" y="-62.5" font-family="Helvetica,sans-Serif" font-size="10.00">leanux::sysdevice::</text>
<text text-anchor="middle" x="201" y="-51.5" font-family="Helvetica,sans-Serif" font-size="10.00">leafDetect</text>
</a>
</g>
</g>
<!-- Node1&#45;&gt;Node2 -->
<g id="edge1" class="edge">
<title>Node1&#45;&gt;Node2</title>
<path fill="none" stroke="midnightblue" d="M281.83,-48.24C273.27,-49.45 264.68,-50.66 256.47,-51.82"/>
<polygon fill="midnightblue" stroke="midnightblue" points="282.43,-51.69 291.84,-46.83 281.45,-44.76 282.43,-51.69"/>
</g>
<!-- Node7 -->
<g id="node4" class="node">
<title>Node7</title>
<g id="a_node4"><a xlink:href="../../d3/d83/namespaceleanux_1_1sysdevice.html#aa57ce9a4a0b2dd6fcdb6102854cc8292" target="_top" xlink:title="populates devices with the devices detected in path.">
<polygon fill="none" stroke="red" points="0,-0.5 0,-30.5 110,-30.5 110,-0.5 0,-0.5"/>
<text text-anchor="start" x="8" y="-18.5" font-family="Helvetica,sans-Serif" font-size="10.00">leanux::sysdevice::</text>
<text text-anchor="middle" x="55" y="-7.5" font-family="Helvetica,sans-Serif" font-size="10.00">treeDetect</text>
</a>
</g>
</g>
<!-- Node1&#45;&gt;Node7 -->
<g id="edge4" class="edge">
<title>Node1&#45;&gt;Node7</title>
<path fill="none" stroke="midnightblue" d="M281.59,-31.93C228.06,-28.03 157.82,-22.92 110.03,-19.44"/>
<polygon fill="midnightblue" stroke="midnightblue" points="281.5,-35.44 291.72,-32.67 282.01,-28.45 281.5,-35.44"/>
</g>
<!-- Node3 -->
<g id="node3" class="node">
<title>Node3</title>
<g id="a_node3"><a xlink:href="../../d9/d1f/namespaceleanux_1_1tools_1_1lsys.html#ad858cdc5736e1be415f25fdaec024b58" target="_top" xlink:title="list devices, filtered if opt_t is set.">
<polygon fill="none" stroke="red" points="2.5,-49.5 2.5,-79.5 107.5,-79.5 107.5,-49.5 2.5,-49.5"/>
<text text-anchor="start" x="10.5" y="-67.5" font-family="Helvetica,sans-Serif" font-size="10.00">leanux::tools::lsys</text>
<text text-anchor="middle" x="55" y="-56.5" font-family="Helvetica,sans-Serif" font-size="10.00">::listDevices</text>
</a>
</g>
</g>
<!-- Node2&#45;&gt;Node3 -->
<g id="edge2" class="edge">
<title>Node2&#45;&gt;Node3</title>
<path fill="none" stroke="midnightblue" d="M135.92,-61.73C126.56,-62.05 117.02,-62.38 107.95,-62.7"/>
<polygon fill="midnightblue" stroke="midnightblue" points="136.1,-65.22 145.97,-61.38 135.85,-58.23 136.1,-65.22"/>
</g>
<!-- Node2&#45;&gt;Node7 -->
<g id="edge3" class="edge">
<title>Node2&#45;&gt;Node7</title>
<path fill="none" stroke="midnightblue" d="M141.05,-41.49C129.21,-37.87 116.89,-34.11 105.42,-30.6"/>
<polygon fill="midnightblue" stroke="midnightblue" points="140.26,-44.91 150.85,-44.48 142.31,-38.21 140.26,-44.91"/>
</g>
</g>
</svg>
