<?xml version="1.0" encoding="UTF-8" standalone="no"?>
<!DOCTYPE svg PUBLIC "-//W3C//DTD SVG 1.1//EN"
 "http://www.w3.org/Graphics/SVG/1.1/DTD/svg11.dtd">
<!-- Generated by graphviz version 2.43.0 (0)
 -->
<!-- Title: leanux::sysdevice::SysDevice::getTypeStr Pages: 1 -->
<svg width="574pt" height="870pt"
 viewBox="0.00 0.00 574.00 870.00" xmlns="http://www.w3.org/2000/svg" xmlns:xlink="http://www.w3.org/1999/xlink">
<g id="graph0" class="graph" transform="scale(1 1) rotate(0) translate(4 866)">
<title>leanux::sysdevice::SysDevice::getTypeStr</title>
<!-- Node1 -->
<g id="node1" class="node">
<title>Node1</title>
<g id="a_node1"><a xlink:title="Get a string representation for the SysDeviceType.">
<polygon fill="#bfbfbf" stroke="black" points="441,-98.5 441,-128.5 566,-128.5 566,-98.5 441,-98.5"/>
<text text-anchor="start" x="449" y="-116.5" font-family="Helvetica,sans-Serif" font-size="10.00">leanux::sysdevice::</text>
<text text-anchor="middle" x="503.5" y="-105.5" font-family="Helvetica,sans-Serif" font-size="10.00">SysDevice::getTypeStr</text>
</a>
</g>
</g>
<!-- Node2 -->
<g id="node2" class="node">
<title>Node2</title>
<g id="a_node2"><a xlink:href="../../d5/d1b/namespaceleanux_1_1tools_1_1lblk.html#ade16c362a9900ba9267433bf57da42ce" target="_top" xlink:title="Write disk details.">
<polygon fill="none" stroke="black" points="265.5,-644.5 265.5,-674.5 369.5,-674.5 369.5,-644.5 265.5,-644.5"/>
<text text-anchor="start" x="273.5" y="-662.5" font-family="Helvetica,sans-Serif" font-size="10.00">leanux::tools::lblk</text>
<text text-anchor="middle" x="317.5" y="-651.5" font-family="Helvetica,sans-Serif" font-size="10.00">::detailDisk</text>
</a>
</g>
</g>
<!-- Node1&#45;&gt;Node2 -->
<g id="edge1" class="edge">
<title>Node1&#45;&gt;Node2</title>
<path fill="none" stroke="midnightblue" d="M496.23,-138.55C481.93,-194.77 445.05,-335.05 405,-449.5 378.96,-523.94 340.81,-610.24 325.37,-644.44"/>
<polygon fill="midnightblue" stroke="midnightblue" points="499.64,-139.31 498.7,-128.75 492.86,-137.59 499.64,-139.31"/>
</g>
<!-- Node6 -->
<g id="node4" class="node">
<title>Node6</title>
<g id="a_node4"><a xlink:href="../../d1/d02/classleanux_1_1sysdevice_1_1SysDevice.html#ae45d4c50b05a48b480911a1aaeaeacc1" target="_top" xlink:title=" ">
<polygon fill="none" stroke="black" points="230,-409.5 230,-439.5 405,-439.5 405,-409.5 230,-409.5"/>
<text text-anchor="start" x="238" y="-427.5" font-family="Helvetica,sans-Serif" font-size="10.00">leanux::sysdevice::</text>
<text text-anchor="middle" x="317.5" y="-416.5" font-family="Helvetica,sans-Serif" font-size="10.00">SysDevice::getPropertyValueList</text>
</a>
</g>
</g>
<!-- Node1&#45;&gt;Node6 -->
<g id="edge3" class="edge">
<title>Node1&#45;&gt;Node6</title>
<path fill="none" stroke="midnightblue" d="M488.35,-137.42C452.19,-198.53 357.19,-359.1 327.5,-409.29"/>
<polygon fill="midnightblue" stroke="midnightblue" points="491.55,-138.89 493.63,-128.5 485.52,-135.32 491.55,-138.89"/>
</g>
<!-- Node21 -->
<g id="node19" class="node">
<title>Node21</title>
<g id="a_node19"><a xlink:href="../../d6/dd3/namespaceleanux_1_1tools_1_1lrep.html#ab9b4bc8a1806ab977597271e15f34c11" target="_top" xlink:title=" ">
<polygon fill="none" stroke="black" points="265.5,-98.5 265.5,-128.5 369.5,-128.5 369.5,-98.5 265.5,-98.5"/>
<text text-anchor="start" x="273.5" y="-116.5" font-family="Helvetica,sans-Serif" font-size="10.00">leanux::tools::lrep</text>
<text text-anchor="middle" x="317.5" y="-105.5" font-family="Helvetica,sans-Serif" font-size="10.00">::htmlDiskDetails</text>
</a>
</g>
</g>
<!-- Node1&#45;&gt;Node21 -->
<g id="edge18" class="edge">
<title>Node1&#45;&gt;Node21</title>
<path fill="none" stroke="midnightblue" d="M430.76,-113.5C410.32,-113.5 388.48,-113.5 369.54,-113.5"/>
<polygon fill="midnightblue" stroke="midnightblue" points="430.97,-117 440.97,-113.5 430.97,-110 430.97,-117"/>
</g>
<!-- Node24 -->
<g id="node21" class="node">
<title>Node24</title>
<g id="a_node21"><a xlink:href="../../d9/d1f/namespaceleanux_1_1tools_1_1lsys.html#ad858cdc5736e1be415f25fdaec024b58" target="_top" xlink:title="list devices, filtered if opt_t is set.">
<polygon fill="none" stroke="black" points="265,-49.5 265,-79.5 370,-79.5 370,-49.5 265,-49.5"/>
<text text-anchor="start" x="273" y="-67.5" font-family="Helvetica,sans-Serif" font-size="10.00">leanux::tools::lsys</text>
<text text-anchor="middle" x="317.5" y="-56.5" font-family="Helvetica,sans-Serif" font-size="10.00">::listDevices</text>
</a>
</g>
</g>
<!-- Node1&#45;&gt;Node24 -->
<g id="edge20" class="edge">
<title>Node1&#45;&gt;Node24</title>
<path fill="none" stroke="midnightblue" d="M436.22,-95.85C414.48,-90.06 390.65,-83.71 370.15,-78.25"/>
<polygon fill="midnightblue" stroke="midnightblue" points="435.48,-99.27 446.04,-98.47 437.28,-92.51 435.48,-99.27"/>
</g>
<!-- Node28 -->
<g id="node23" class="node">
<title>Node28</title>
<g id="a_node23"><a xlink:href="../../d9/d1f/namespaceleanux_1_1tools_1_1lsys.html#a33d815e2817f56776217177ef1016d8c" target="_top" xlink:title=" ">
<polygon fill="none" stroke="black" points="265,-0.5 265,-30.5 370,-30.5 370,-0.5 265,-0.5"/>
<text text-anchor="start" x="273" y="-18.5" font-family="Helvetica,sans-Serif" font-size="10.00">leanux::tools::lsys</text>
<text text-anchor="middle" x="317.5" y="-7.5" font-family="Helvetica,sans-Serif" font-size="10.00">::sysfsTree</text>
</a>
</g>
</g>
<!-- Node1&#45;&gt;Node28 -->
<g id="edge22" class="edge">
<title>Node1&#45;&gt;Node28</title>
<path fill="none" stroke="midnightblue" d="M479.07,-91.63C460.32,-75.18 432.66,-53.2 405,-39.5 394.11,-34.1 381.82,-29.77 370,-26.35"/>
<polygon fill="midnightblue" stroke="midnightblue" points="476.75,-94.25 486.54,-98.3 481.42,-89.03 476.75,-94.25"/>
</g>
<!-- Node3 -->
<g id="node3" class="node">
<title>Node3</title>
<g id="a_node3"><a xlink:href="../../d5/d1b/namespaceleanux_1_1tools_1_1lblk.html#aafee1346a1081bfa4f7470f921cd66b8" target="_top" xlink:title="Direct output run from options.">
<polygon fill="none" stroke="red" points="45,-831.5 45,-861.5 149,-861.5 149,-831.5 45,-831.5"/>
<text text-anchor="start" x="53" y="-849.5" font-family="Helvetica,sans-Serif" font-size="10.00">leanux::tools::lblk</text>
<text text-anchor="middle" x="97" y="-838.5" font-family="Helvetica,sans-Serif" font-size="10.00">::runOptions</text>
</a>
</g>
</g>
<!-- Node2&#45;&gt;Node3 -->
<g id="edge2" class="edge">
<title>Node2&#45;&gt;Node3</title>
<path fill="none" stroke="midnightblue" d="M304.86,-684.16C286.52,-720.28 247.39,-787.09 194,-822.5 180.69,-831.33 164.38,-836.91 149,-840.44"/>
<polygon fill="midnightblue" stroke="midnightblue" points="308.18,-685.36 309.48,-674.84 301.9,-682.25 308.18,-685.36"/>
</g>
<!-- Node7 -->
<g id="node5" class="node">
<title>Node7</title>
<g id="a_node5"><a xlink:href="../../d2/d31/classleanux_1_1sysdevice_1_1BlockDevice.html#a591c377c1807e5c333738d24ec3e88ef" target="_top" xlink:title=" ">
<polygon fill="none" stroke="black" points="4.5,-782.5 4.5,-812.5 189.5,-812.5 189.5,-782.5 4.5,-782.5"/>
<text text-anchor="start" x="12.5" y="-800.5" font-family="Helvetica,sans-Serif" font-size="10.00">leanux::sysdevice::</text>
<text text-anchor="middle" x="97" y="-789.5" font-family="Helvetica,sans-Serif" font-size="10.00">BlockDevice::getPropertyValueList</text>
</a>
</g>
</g>
<!-- Node6&#45;&gt;Node7 -->
<g id="edge4" class="edge">
<title>Node6&#45;&gt;Node7</title>
<path fill="none" stroke="midnightblue" d="M305.19,-449.05C287.54,-487.99 253.07,-566.57 230,-635.5 210.02,-695.2 238.57,-728.03 194,-772.5 190.22,-776.27 185.95,-779.5 181.36,-782.25"/>
<polygon fill="midnightblue" stroke="midnightblue" points="308.54,-450.14 309.5,-439.59 302.17,-447.24 308.54,-450.14"/>
</g>
<!-- Node8 -->
<g id="node6" class="node">
<title>Node8</title>
<g id="a_node6"><a xlink:href="../../d6/d19/classleanux_1_1sysdevice_1_1BlockPartition.html#ab0933694a58d1f25eb9158f219cf13bb" target="_top" xlink:title=" ">
<polygon fill="none" stroke="black" points="23.5,-722 23.5,-763 170.5,-763 170.5,-722 23.5,-722"/>
<text text-anchor="start" x="31.5" y="-751" font-family="Helvetica,sans-Serif" font-size="10.00">leanux::sysdevice::</text>
<text text-anchor="start" x="31.5" y="-740" font-family="Helvetica,sans-Serif" font-size="10.00">BlockPartition::getProperty</text>
<text text-anchor="middle" x="97" y="-729" font-family="Helvetica,sans-Serif" font-size="10.00">ValueList</text>
</a>
</g>
</g>
<!-- Node6&#45;&gt;Node8 -->
<g id="edge5" class="edge">
<title>Node6&#45;&gt;Node8</title>
<path fill="none" stroke="midnightblue" d="M306.27,-449.32C277.77,-518.33 199.27,-707.73 194,-712.5 187.27,-718.59 179.31,-723.45 170.9,-727.32"/>
<polygon fill="midnightblue" stroke="midnightblue" points="309.66,-450.27 310.24,-439.69 303.19,-447.6 309.66,-450.27"/>
</g>
<!-- Node9 -->
<g id="node7" class="node">
<title>Node9</title>
<g id="a_node7"><a xlink:href="../../dc/d23/classleanux_1_1sysdevice_1_1NetDevice.html#a1debae3dd366106e7b0f90018c503b9e" target="_top" xlink:title=" ">
<polygon fill="none" stroke="black" points="9.5,-672.5 9.5,-702.5 184.5,-702.5 184.5,-672.5 9.5,-672.5"/>
<text text-anchor="start" x="17.5" y="-690.5" font-family="Helvetica,sans-Serif" font-size="10.00">leanux::sysdevice::</text>
<text text-anchor="middle" x="97" y="-679.5" font-family="Helvetica,sans-Serif" font-size="10.00">NetDevice::getPropertyValueList</text>
</a>
</g>
</g>
<!-- Node6&#45;&gt;Node9 -->
<g id="edge6" class="edge">
<title>Node6&#45;&gt;Node9</title>
<path fill="none" stroke="midnightblue" d="M311.02,-449.33C298.91,-498.21 265.1,-607.05 194,-663.5 189.69,-666.92 184.97,-669.86 179.99,-672.38"/>
<polygon fill="midnightblue" stroke="midnightblue" points="314.43,-450.12 313.35,-439.58 307.62,-448.5 314.43,-450.12"/>
</g>
<!-- Node10 -->
<g id="node8" class="node">
<title>Node10</title>
<g id="a_node8"><a xlink:href="../../d2/d7d/classleanux_1_1sysdevice_1_1NVMeDevice.html#ad7e8752666421aa75de8fd7de9a50269" target="_top" xlink:title=" ">
<polygon fill="none" stroke="black" points="3.5,-623.5 3.5,-653.5 190.5,-653.5 190.5,-623.5 3.5,-623.5"/>
<text text-anchor="start" x="11.5" y="-641.5" font-family="Helvetica,sans-Serif" font-size="10.00">leanux::sysdevice::</text>
<text text-anchor="middle" x="97" y="-630.5" font-family="Helvetica,sans-Serif" font-size="10.00">NVMeDevice::getPropertyValueList</text>
</a>
</g>
</g>
<!-- Node6&#45;&gt;Node10 -->
<g id="edge7" class="edge">
<title>Node6&#45;&gt;Node10</title>
<path fill="none" stroke="midnightblue" d="M307.44,-449.17C291.19,-489.86 253.19,-570.78 194,-613.5 188.69,-617.33 182.85,-620.57 176.74,-623.32"/>
<polygon fill="midnightblue" stroke="midnightblue" points="310.74,-450.33 311.1,-439.74 304.22,-447.8 310.74,-450.33"/>
</g>
<!-- Node11 -->
<g id="node9" class="node">
<title>Node11</title>
<g id="a_node9"><a xlink:href="../../d2/d73/classleanux_1_1sysdevice_1_1NVMePartition.html#acc2f959ca131c3f4fea3cdf2dcaa3ee7" target="_top" xlink:title=" ">
<polygon fill="none" stroke="black" points="22.5,-563 22.5,-604 171.5,-604 171.5,-563 22.5,-563"/>
<text text-anchor="start" x="30.5" y="-592" font-family="Helvetica,sans-Serif" font-size="10.00">leanux::sysdevice::</text>
<text text-anchor="start" x="30.5" y="-581" font-family="Helvetica,sans-Serif" font-size="10.00">NVMePartition::getProperty</text>
<text text-anchor="middle" x="97" y="-570" font-family="Helvetica,sans-Serif" font-size="10.00">ValueList</text>
</a>
</g>
</g>
<!-- Node6&#45;&gt;Node11 -->
<g id="edge8" class="edge">
<title>Node6&#45;&gt;Node11</title>
<path fill="none" stroke="midnightblue" d="M300.22,-447.89C278.98,-476.73 239.14,-525.38 194,-553.5 187.03,-557.84 179.39,-561.6 171.55,-564.84"/>
<polygon fill="midnightblue" stroke="midnightblue" points="303.18,-449.77 306.2,-439.62 297.51,-445.67 303.18,-449.77"/>
</g>
<!-- Node12 -->
<g id="node10" class="node">
<title>Node12</title>
<g id="a_node10"><a xlink:href="../../d1/d9d/classleanux_1_1sysdevice_1_1ATAPort.html#a726d252b0be10fe77bfd10bf12421ed3" target="_top" xlink:title=" ">
<polygon fill="none" stroke="black" points="16.5,-513.5 16.5,-543.5 177.5,-543.5 177.5,-513.5 16.5,-513.5"/>
<text text-anchor="start" x="24.5" y="-531.5" font-family="Helvetica,sans-Serif" font-size="10.00">leanux::sysdevice::</text>
<text text-anchor="middle" x="97" y="-520.5" font-family="Helvetica,sans-Serif" font-size="10.00">ATAPort::getPropertyValueList</text>
</a>
</g>
</g>
<!-- Node6&#45;&gt;Node12 -->
<g id="edge9" class="edge">
<title>Node6&#45;&gt;Node12</title>
<path fill="none" stroke="midnightblue" d="M289.51,-445.94C265.65,-463.94 229.24,-489.11 194,-504.5 186.21,-507.9 177.84,-510.89 169.41,-513.49"/>
<polygon fill="midnightblue" stroke="midnightblue" points="291.9,-448.52 297.71,-439.67 287.64,-442.97 291.9,-448.52"/>
</g>
<!-- Node13 -->
<g id="node11" class="node">
<title>Node13</title>
<g id="a_node11"><a xlink:href="../../dc/dfa/classleanux_1_1sysdevice_1_1MapperDevice.html#ac1c473120b391ef8c039deba490885c2" target="_top" xlink:title=" ">
<polygon fill="none" stroke="black" points="0,-464.5 0,-494.5 194,-494.5 194,-464.5 0,-464.5"/>
<text text-anchor="start" x="8" y="-482.5" font-family="Helvetica,sans-Serif" font-size="10.00">leanux::sysdevice::</text>
<text text-anchor="middle" x="97" y="-471.5" font-family="Helvetica,sans-Serif" font-size="10.00">MapperDevice::getPropertyValueList</text>
</a>
</g>
</g>
<!-- Node6&#45;&gt;Node13 -->
<g id="edge10" class="edge">
<title>Node6&#45;&gt;Node13</title>
<path fill="none" stroke="midnightblue" d="M246.83,-442.04C218.13,-449.26 185.2,-457.55 157.63,-464.49"/>
<polygon fill="midnightblue" stroke="midnightblue" points="247.95,-445.36 256.79,-439.53 246.24,-438.58 247.95,-445.36"/>
</g>
<!-- Node14 -->
<g id="node12" class="node">
<title>Node14</title>
<g id="a_node12"><a xlink:href="../../de/dd2/classleanux_1_1sysdevice_1_1LoopbackDevice.html#a78a94f35dbb27bf85ffea19b19ab6e9e" target="_top" xlink:title=" ">
<polygon fill="none" stroke="black" points="17,-404 17,-445 177,-445 177,-404 17,-404"/>
<text text-anchor="start" x="25" y="-433" font-family="Helvetica,sans-Serif" font-size="10.00">leanux::sysdevice::</text>
<text text-anchor="start" x="25" y="-422" font-family="Helvetica,sans-Serif" font-size="10.00">LoopbackDevice::getProperty</text>
<text text-anchor="middle" x="97" y="-411" font-family="Helvetica,sans-Serif" font-size="10.00">ValueList</text>
</a>
</g>
</g>
<!-- Node6&#45;&gt;Node14 -->
<g id="edge11" class="edge">
<title>Node6&#45;&gt;Node14</title>
<path fill="none" stroke="midnightblue" d="M219.56,-424.5C205.37,-424.5 190.89,-424.5 177.12,-424.5"/>
<polygon fill="midnightblue" stroke="midnightblue" points="219.83,-428 229.83,-424.5 219.83,-421 219.83,-428"/>
</g>
<!-- Node15 -->
<g id="node13" class="node">
<title>Node15</title>
<g id="a_node13"><a xlink:href="../../dd/d47/classleanux_1_1sysdevice_1_1RamDiskDevice.html#a096f69feac55c9c0c004fa8003f3f5a0" target="_top" xlink:title=" ">
<polygon fill="none" stroke="black" points="18,-344 18,-385 176,-385 176,-344 18,-344"/>
<text text-anchor="start" x="26" y="-373" font-family="Helvetica,sans-Serif" font-size="10.00">leanux::sysdevice::</text>
<text text-anchor="start" x="26" y="-362" font-family="Helvetica,sans-Serif" font-size="10.00">RamDiskDevice::getProperty</text>
<text text-anchor="middle" x="97" y="-351" font-family="Helvetica,sans-Serif" font-size="10.00">ValueList</text>
</a>
</g>
</g>
<!-- Node6&#45;&gt;Node15 -->
<g id="edge12" class="edge">
<title>Node6&#45;&gt;Node15</title>
<path fill="none" stroke="midnightblue" d="M251.95,-406.77C227.07,-399.94 198.46,-392.08 172.7,-385.01"/>
<polygon fill="midnightblue" stroke="midnightblue" points="251.08,-410.16 261.65,-409.44 252.93,-403.41 251.08,-410.16"/>
</g>
<!-- Node16 -->
<g id="node14" class="node">
<title>Node16</title>
<g id="a_node14"><a xlink:href="../../dd/d1b/classleanux_1_1sysdevice_1_1MDDevice.html#a25f52dff392b1266aeb201b46a41fa0d" target="_top" xlink:title=" ">
<polygon fill="none" stroke="black" points="10,-294.5 10,-324.5 184,-324.5 184,-294.5 10,-294.5"/>
<text text-anchor="start" x="18" y="-312.5" font-family="Helvetica,sans-Serif" font-size="10.00">leanux::sysdevice::</text>
<text text-anchor="middle" x="97" y="-301.5" font-family="Helvetica,sans-Serif" font-size="10.00">MDDevice::getPropertyValueList</text>
</a>
</g>
</g>
<!-- Node6&#45;&gt;Node16 -->
<g id="edge13" class="edge">
<title>Node6&#45;&gt;Node16</title>
<path fill="none" stroke="midnightblue" d="M292.69,-402.69C269.22,-382.29 231.52,-352.35 194,-334.5 185.99,-330.69 177.32,-327.4 168.58,-324.58"/>
<polygon fill="midnightblue" stroke="midnightblue" points="290.56,-405.48 300.38,-409.47 295.19,-400.23 290.56,-405.48"/>
</g>
<!-- Node17 -->
<g id="node15" class="node">
<title>Node17</title>
<g id="a_node15"><a xlink:href="../../d8/dcd/classleanux_1_1sysdevice_1_1PCIDevice.html#a226c6285004593dad421a814e57fb505" target="_top" xlink:title=" ">
<polygon fill="none" stroke="black" points="10.5,-245.5 10.5,-275.5 183.5,-275.5 183.5,-245.5 10.5,-245.5"/>
<text text-anchor="start" x="18.5" y="-263.5" font-family="Helvetica,sans-Serif" font-size="10.00">leanux::sysdevice::</text>
<text text-anchor="middle" x="97" y="-252.5" font-family="Helvetica,sans-Serif" font-size="10.00">PCIDevice::getPropertyValueList</text>
</a>
</g>
</g>
<!-- Node6&#45;&gt;Node17 -->
<g id="edge14" class="edge">
<title>Node6&#45;&gt;Node17</title>
<path fill="none" stroke="midnightblue" d="M302.1,-400.77C281.88,-369.53 242.12,-315.11 194,-285.5 187.69,-281.62 180.8,-278.34 173.69,-275.56"/>
<polygon fill="midnightblue" stroke="midnightblue" points="299.19,-402.73 307.5,-409.3 305.1,-398.98 299.19,-402.73"/>
</g>
<!-- Node18 -->
<g id="node16" class="node">
<title>Node18</title>
<g id="a_node16"><a xlink:href="../../d9/d99/classleanux_1_1sysdevice_1_1PCIBus.html#aa16e0e79f92e04a8e3cfebae0b133e23" target="_top" xlink:title=" ">
<polygon fill="none" stroke="black" points="18,-196.5 18,-226.5 176,-226.5 176,-196.5 18,-196.5"/>
<text text-anchor="start" x="26" y="-214.5" font-family="Helvetica,sans-Serif" font-size="10.00">leanux::sysdevice::</text>
<text text-anchor="middle" x="97" y="-203.5" font-family="Helvetica,sans-Serif" font-size="10.00">PCIBus::getPropertyValueList</text>
</a>
</g>
</g>
<!-- Node6&#45;&gt;Node18 -->
<g id="edge15" class="edge">
<title>Node6&#45;&gt;Node18</title>
<path fill="none" stroke="midnightblue" d="M307.4,-399.96C291.1,-359.48 253.02,-278.99 194,-236.5 188.55,-232.58 182.53,-229.27 176.25,-226.48"/>
<polygon fill="midnightblue" stroke="midnightblue" points="304.17,-401.3 311.07,-409.34 310.69,-398.75 304.17,-401.3"/>
</g>
<!-- Node19 -->
<g id="node17" class="node">
<title>Node19</title>
<g id="a_node17"><a xlink:href="../../db/d5e/classleanux_1_1sysdevice_1_1USBDevice.html#aa7074d6382d3ef77a36a7454dbf99f1e" target="_top" xlink:title=" ">
<polygon fill="none" stroke="black" points="8,-147.5 8,-177.5 186,-177.5 186,-147.5 8,-147.5"/>
<text text-anchor="start" x="16" y="-165.5" font-family="Helvetica,sans-Serif" font-size="10.00">leanux::sysdevice::</text>
<text text-anchor="middle" x="97" y="-154.5" font-family="Helvetica,sans-Serif" font-size="10.00">USBDevice::getPropertyValueList</text>
</a>
</g>
</g>
<!-- Node6&#45;&gt;Node19 -->
<g id="edge16" class="edge">
<title>Node6&#45;&gt;Node19</title>
<path fill="none" stroke="midnightblue" d="M310.75,-399.28C298.29,-350.6 264.13,-243.55 194,-187.5 189.16,-183.63 183.78,-180.35 178.11,-177.58"/>
<polygon fill="midnightblue" stroke="midnightblue" points="307.42,-400.4 313.2,-409.28 314.21,-398.73 307.42,-400.4"/>
</g>
<!-- Node20 -->
<g id="node18" class="node">
<title>Node20</title>
<g id="a_node18"><a xlink:href="../../dc/d51/classleanux_1_1sysdevice_1_1USBBus.html#aa244ae7511e6792b74236c20634b895f" target="_top" xlink:title=" ">
<polygon fill="none" stroke="black" points="16,-98.5 16,-128.5 178,-128.5 178,-98.5 16,-98.5"/>
<text text-anchor="start" x="24" y="-116.5" font-family="Helvetica,sans-Serif" font-size="10.00">leanux::sysdevice::</text>
<text text-anchor="middle" x="97" y="-105.5" font-family="Helvetica,sans-Serif" font-size="10.00">USBBus::getPropertyValueList</text>
</a>
</g>
</g>
<!-- Node6&#45;&gt;Node20 -->
<g id="edge17" class="edge">
<title>Node6&#45;&gt;Node20</title>
<path fill="none" stroke="midnightblue" d="M313.2,-399.28C304.51,-343.46 275.77,-208.84 194,-138.5 189.3,-134.46 184.02,-131.06 178.43,-128.2"/>
<polygon fill="midnightblue" stroke="midnightblue" points="309.76,-399.97 314.67,-409.35 316.68,-398.95 309.76,-399.97"/>
</g>
<!-- Node22 -->
<g id="node20" class="node">
<title>Node22</title>
<g id="a_node20"><a xlink:href="../../d6/dd3/namespaceleanux_1_1tools_1_1lrep.html#aa0e1422d8d75831ea3801ffa728bf436" target="_top" xlink:title=" ">
<polygon fill="none" stroke="red" points="45,-49.5 45,-79.5 149,-79.5 149,-49.5 45,-49.5"/>
<text text-anchor="start" x="53" y="-67.5" font-family="Helvetica,sans-Serif" font-size="10.00">leanux::tools::lrep</text>
<text text-anchor="middle" x="97" y="-56.5" font-family="Helvetica,sans-Serif" font-size="10.00">::main</text>
</a>
</g>
</g>
<!-- Node21&#45;&gt;Node22 -->
<g id="edge19" class="edge">
<title>Node21&#45;&gt;Node22</title>
<path fill="none" stroke="midnightblue" d="M255.17,-99.75C221.79,-92.26 180.96,-83.1 149.29,-76"/>
<polygon fill="midnightblue" stroke="midnightblue" points="254.75,-103.24 265.27,-102.01 256.28,-96.41 254.75,-103.24"/>
</g>
<!-- Node25 -->
<g id="node22" class="node">
<title>Node25</title>
<g id="a_node22"><a xlink:href="../../d9/d1f/namespaceleanux_1_1tools_1_1lsys.html#a33a75c6955dcd3ac89c9a6f86a0a1337" target="_top" xlink:title="Run based on options.">
<polygon fill="none" stroke="red" points="44.5,-0.5 44.5,-30.5 149.5,-30.5 149.5,-0.5 44.5,-0.5"/>
<text text-anchor="start" x="52.5" y="-18.5" font-family="Helvetica,sans-Serif" font-size="10.00">leanux::tools::lsys</text>
<text text-anchor="middle" x="97" y="-7.5" font-family="Helvetica,sans-Serif" font-size="10.00">::runOptions</text>
</a>
</g>
</g>
<!-- Node24&#45;&gt;Node25 -->
<g id="edge21" class="edge">
<title>Node24&#45;&gt;Node25</title>
<path fill="none" stroke="midnightblue" d="M254.93,-50.69C221.68,-43.24 181.1,-34.14 149.54,-27.06"/>
<polygon fill="midnightblue" stroke="midnightblue" points="254.47,-54.18 265,-52.95 256,-47.35 254.47,-54.18"/>
</g>
<!-- Node28&#45;&gt;Node25 -->
<g id="edge23" class="edge">
<title>Node28&#45;&gt;Node25</title>
<path fill="none" stroke="midnightblue" d="M254.93,-15.5C221.68,-15.5 181.1,-15.5 149.54,-15.5"/>
<polygon fill="midnightblue" stroke="midnightblue" points="255,-19 265,-15.5 255,-12 255,-19"/>
</g>
</g>
</svg>
