<?xml version="1.0" encoding="UTF-8" standalone="no"?>
<!DOCTYPE svg PUBLIC "-//W3C//DTD SVG 1.1//EN"
 "http://www.w3.org/Graphics/SVG/1.1/DTD/svg11.dtd">
<!-- Generated by graphviz version 2.43.0 (0)
 -->
<!-- Title: leanux::sysdevice::SysDevice::getPath Pages: 1 -->
<svg width="400pt" height="61pt"
 viewBox="0.00 0.00 400.00 61.00" xmlns="http://www.w3.org/2000/svg" xmlns:xlink="http://www.w3.org/1999/xlink">
<g id="graph0" class="graph" transform="scale(1 1) rotate(0) translate(4 57)">
<title>leanux::sysdevice::SysDevice::getPath</title>
<!-- Node1 -->
<g id="node1" class="node">
<title>Node1</title>
<g id="a_node1"><a xlink:title="Get the path for the SysDevice.">
<polygon fill="#bfbfbf" stroke="black" points="282,-0.5 282,-30.5 392,-30.5 392,-0.5 282,-0.5"/>
<text text-anchor="start" x="290" y="-18.5" font-family="Helvetica,sans-Serif" font-size="10.00">leanux::sysdevice::</text>
<text text-anchor="middle" x="337" y="-7.5" font-family="Helvetica,sans-Serif" font-size="10.00">SysDevice::getPath</text>
</a>
</g>
</g>
<!-- Node2 -->
<g id="node2" class="node">
<title>Node2</title>
<g id="a_node2"><a xlink:href="../../d9/d1f/namespaceleanux_1_1tools_1_1lsys.html#a4a56050ff78d8c77b6a699ff6d5aea50" target="_top" xlink:title="get named field attributes for the SysDevice.">
<polygon fill="none" stroke="black" points="141,-22.5 141,-52.5 246,-52.5 246,-22.5 141,-22.5"/>
<text text-anchor="start" x="149" y="-40.5" font-family="Helvetica,sans-Serif" font-size="10.00">leanux::tools::lsys</text>
<text text-anchor="middle" x="193.5" y="-29.5" font-family="Helvetica,sans-Serif" font-size="10.00">::getLeafColStr</text>
</a>
</g>
</g>
<!-- Node1&#45;&gt;Node2 -->
<g id="edge1" class="edge">
<title>Node1&#45;&gt;Node2</title>
<path fill="none" stroke="midnightblue" d="M271.71,-25.5C263.13,-26.83 254.42,-28.18 246.1,-29.48"/>
<polygon fill="midnightblue" stroke="midnightblue" points="272.35,-28.94 281.7,-23.94 271.28,-22.02 272.35,-28.94"/>
</g>
<!-- Node3 -->
<g id="node3" class="node">
<title>Node3</title>
<g id="a_node3"><a xlink:href="../../d9/d1f/namespaceleanux_1_1tools_1_1lsys.html#ad858cdc5736e1be415f25fdaec024b58" target="_top" xlink:title="list devices, filtered if opt_t is set.">
<polygon fill="none" stroke="red" points="0,-0.5 0,-30.5 105,-30.5 105,-0.5 0,-0.5"/>
<text text-anchor="start" x="8" y="-18.5" font-family="Helvetica,sans-Serif" font-size="10.00">leanux::tools::lsys</text>
<text text-anchor="middle" x="52.5" y="-7.5" font-family="Helvetica,sans-Serif" font-size="10.00">::listDevices</text>
</a>
</g>
</g>
<!-- Node1&#45;&gt;Node3 -->
<g id="edge3" class="edge">
<title>Node1&#45;&gt;Node3</title>
<path fill="none" stroke="midnightblue" d="M271.69,-13.9C263.06,-13.73 254.31,-13.59 246,-13.5 199.34,-12.98 187.66,-12.97 141,-13.5 129.45,-13.63 117.05,-13.86 105.32,-14.12"/>
<polygon fill="midnightblue" stroke="midnightblue" points="271.68,-17.4 281.75,-14.1 271.82,-10.4 271.68,-17.4"/>
</g>
<!-- Node2&#45;&gt;Node3 -->
<g id="edge2" class="edge">
<title>Node2&#45;&gt;Node3</title>
<path fill="none" stroke="midnightblue" d="M130.84,-27.74C122.31,-26.39 113.62,-25.02 105.3,-23.7"/>
<polygon fill="midnightblue" stroke="midnightblue" points="130.32,-31.2 140.74,-29.31 131.41,-24.29 130.32,-31.2"/>
</g>
</g>
</svg>
