<?xml version="1.0" encoding="UTF-8" standalone="no"?>
<!DOCTYPE svg PUBLIC "-//W3C//DTD SVG 1.1//EN"
 "http://www.w3.org/Graphics/SVG/1.1/DTD/svg11.dtd">
<!-- Generated by graphviz version 2.43.0 (0)
 -->
<!-- Title: leanux::sysdevice::SysDevice::getModel Pages: 1 -->
<svg width="350pt" height="137pt"
 viewBox="0.00 0.00 350.00 137.00" xmlns="http://www.w3.org/2000/svg" xmlns:xlink="http://www.w3.org/1999/xlink">
<g id="graph0" class="graph" transform="scale(1 1) rotate(0) translate(4 133)">
<title>leanux::sysdevice::SysDevice::getModel</title>
<!-- Node1 -->
<g id="node1" class="node">
<title>Node1</title>
<g id="a_node1"><a xlink:title=" ">
<polygon fill="#bfbfbf" stroke="black" points="223,-49.5 223,-79.5 342,-79.5 342,-49.5 223,-49.5"/>
<text text-anchor="start" x="231" y="-67.5" font-family="Helvetica,sans-Serif" font-size="10.00">leanux::sysdevice::</text>
<text text-anchor="middle" x="282.5" y="-56.5" font-family="Helvetica,sans-Serif" font-size="10.00">SysDevice::getModel</text>
</a>
</g>
</g>
<!-- Node2 -->
<g id="node2" class="node">
<title>Node2</title>
<g id="a_node2"><a xlink:href="../../d2/d31/classleanux_1_1sysdevice_1_1BlockDevice.html#a575120cf630a3eb5e31b493a9260786f" target="_top" xlink:title=" ">
<polygon fill="none" stroke="black" points="11,-98.5 11,-128.5 176,-128.5 176,-98.5 11,-98.5"/>
<text text-anchor="start" x="19" y="-116.5" font-family="Helvetica,sans-Serif" font-size="10.00">leanux::sysdevice::</text>
<text text-anchor="middle" x="93.5" y="-105.5" font-family="Helvetica,sans-Serif" font-size="10.00">BlockDevice::getDisplayName</text>
</a>
</g>
</g>
<!-- Node1&#45;&gt;Node2 -->
<g id="edge1" class="edge">
<title>Node1&#45;&gt;Node2</title>
<path fill="none" stroke="midnightblue" d="M215.06,-82.12C205.64,-84.6 196.08,-87.12 187,-89.5 175.93,-92.4 164.1,-95.48 152.74,-98.44"/>
<polygon fill="midnightblue" stroke="midnightblue" points="216.02,-85.49 224.79,-79.55 214.23,-78.72 216.02,-85.49"/>
</g>
<!-- Node3 -->
<g id="node3" class="node">
<title>Node3</title>
<g id="a_node3"><a xlink:href="../../d2/d31/classleanux_1_1sysdevice_1_1BlockDevice.html#a591c377c1807e5c333738d24ec3e88ef" target="_top" xlink:title=" ">
<polygon fill="none" stroke="black" points="1,-49.5 1,-79.5 186,-79.5 186,-49.5 1,-49.5"/>
<text text-anchor="start" x="9" y="-67.5" font-family="Helvetica,sans-Serif" font-size="10.00">leanux::sysdevice::</text>
<text text-anchor="middle" x="93.5" y="-56.5" font-family="Helvetica,sans-Serif" font-size="10.00">BlockDevice::getPropertyValueList</text>
</a>
</g>
</g>
<!-- Node1&#45;&gt;Node3 -->
<g id="edge2" class="edge">
<title>Node1&#45;&gt;Node3</title>
<path fill="none" stroke="midnightblue" d="M212.81,-64.5C204.13,-64.5 195.14,-64.5 186.17,-64.5"/>
<polygon fill="midnightblue" stroke="midnightblue" points="212.85,-68 222.85,-64.5 212.85,-61 212.85,-68"/>
</g>
<!-- Node4 -->
<g id="node4" class="node">
<title>Node4</title>
<g id="a_node4"><a xlink:href="../../d2/d7d/classleanux_1_1sysdevice_1_1NVMeDevice.html#ad7e8752666421aa75de8fd7de9a50269" target="_top" xlink:title=" ">
<polygon fill="none" stroke="black" points="0,-0.5 0,-30.5 187,-30.5 187,-0.5 0,-0.5"/>
<text text-anchor="start" x="8" y="-18.5" font-family="Helvetica,sans-Serif" font-size="10.00">leanux::sysdevice::</text>
<text text-anchor="middle" x="93.5" y="-7.5" font-family="Helvetica,sans-Serif" font-size="10.00">NVMeDevice::getPropertyValueList</text>
</a>
</g>
</g>
<!-- Node1&#45;&gt;Node4 -->
<g id="edge3" class="edge">
<title>Node1&#45;&gt;Node4</title>
<path fill="none" stroke="midnightblue" d="M214.25,-46.88C193.79,-41.52 171.5,-35.68 151.77,-30.51"/>
<polygon fill="midnightblue" stroke="midnightblue" points="213.56,-50.32 224.12,-49.47 215.34,-43.54 213.56,-50.32"/>
</g>
</g>
</svg>
