<?xml version="1.0" encoding="UTF-8" standalone="no"?>
<!DOCTYPE svg PUBLIC "-//W3C//DTD SVG 1.1//EN"
 "http://www.w3.org/Graphics/SVG/1.1/DTD/svg11.dtd">
<!-- Generated by graphviz version 2.43.0 (0)
 -->
<!-- Title: leanux::sysdevice::SysDevice::getDisplayName Pages: 1 -->
<svg width="357pt" height="186pt"
 viewBox="0.00 0.00 357.00 186.00" xmlns="http://www.w3.org/2000/svg" xmlns:xlink="http://www.w3.org/1999/xlink">
<g id="graph0" class="graph" transform="scale(1 1) rotate(0) translate(4 182)">
<title>leanux::sysdevice::SysDevice::getDisplayName</title>
<!-- Node1 -->
<g id="node1" class="node">
<title>Node1</title>
<g id="a_node1"><a xlink:title=" ">
<polygon fill="#bfbfbf" stroke="black" points="194,-73.5 194,-103.5 349,-103.5 349,-73.5 194,-73.5"/>
<text text-anchor="start" x="202" y="-91.5" font-family="Helvetica,sans-Serif" font-size="10.00">leanux::sysdevice::</text>
<text text-anchor="middle" x="271.5" y="-80.5" font-family="Helvetica,sans-Serif" font-size="10.00">SysDevice::getDisplayName</text>
</a>
</g>
</g>
<!-- Node2 -->
<g id="node2" class="node">
<title>Node2</title>
<g id="a_node2"><a xlink:href="../../d8/dcd/classleanux_1_1sysdevice_1_1PCIDevice.html#a1c5f78d7c4338387d91faddca98f5028" target="_top" xlink:title=" ">
<polygon fill="none" stroke="black" points="2,-147.5 2,-177.5 156,-177.5 156,-147.5 2,-147.5"/>
<text text-anchor="start" x="10" y="-165.5" font-family="Helvetica,sans-Serif" font-size="10.00">leanux::sysdevice::</text>
<text text-anchor="middle" x="79" y="-154.5" font-family="Helvetica,sans-Serif" font-size="10.00">PCIDevice::getDisplayName</text>
</a>
</g>
</g>
<!-- Node1&#45;&gt;Node2 -->
<g id="edge1" class="edge">
<title>Node1&#45;&gt;Node2</title>
<path fill="none" stroke="midnightblue" d="M230.06,-107.88C208.85,-117.68 182.3,-129.4 158,-138.5 149.64,-141.63 140.67,-144.67 131.9,-147.48"/>
<polygon fill="midnightblue" stroke="midnightblue" points="231.81,-110.93 239.4,-103.53 228.86,-104.58 231.81,-110.93"/>
</g>
<!-- Node3 -->
<g id="node3" class="node">
<title>Node3</title>
<g id="a_node3"><a xlink:href="../../d9/d99/classleanux_1_1sysdevice_1_1PCIBus.html#a9873b111948df2dbc4e24097555718f3" target="_top" xlink:title=" ">
<polygon fill="none" stroke="black" points="10,-98.5 10,-128.5 148,-128.5 148,-98.5 10,-98.5"/>
<text text-anchor="start" x="18" y="-116.5" font-family="Helvetica,sans-Serif" font-size="10.00">leanux::sysdevice::</text>
<text text-anchor="middle" x="79" y="-105.5" font-family="Helvetica,sans-Serif" font-size="10.00">PCIBus::getDisplayName</text>
</a>
</g>
</g>
<!-- Node1&#45;&gt;Node3 -->
<g id="edge2" class="edge">
<title>Node1&#45;&gt;Node3</title>
<path fill="none" stroke="midnightblue" d="M183.86,-99.87C171.9,-101.44 159.77,-103.03 148.21,-104.55"/>
<polygon fill="midnightblue" stroke="midnightblue" points="184.38,-103.33 193.84,-98.56 183.47,-96.39 184.38,-103.33"/>
</g>
<!-- Node4 -->
<g id="node4" class="node">
<title>Node4</title>
<g id="a_node4"><a xlink:href="../../db/d5e/classleanux_1_1sysdevice_1_1USBDevice.html#ae149cb6875a14576a714b0428690835f" target="_top" xlink:title=" ">
<polygon fill="none" stroke="black" points="0,-49.5 0,-79.5 158,-79.5 158,-49.5 0,-49.5"/>
<text text-anchor="start" x="8" y="-67.5" font-family="Helvetica,sans-Serif" font-size="10.00">leanux::sysdevice::</text>
<text text-anchor="middle" x="79" y="-56.5" font-family="Helvetica,sans-Serif" font-size="10.00">USBDevice::getDisplayName</text>
</a>
</g>
</g>
<!-- Node1&#45;&gt;Node4 -->
<g id="edge3" class="edge">
<title>Node1&#45;&gt;Node4</title>
<path fill="none" stroke="midnightblue" d="M183.82,-77.58C175.23,-76.5 166.55,-75.4 158.06,-74.33"/>
<polygon fill="midnightblue" stroke="midnightblue" points="183.48,-81.06 193.84,-78.84 184.36,-74.12 183.48,-81.06"/>
</g>
<!-- Node5 -->
<g id="node5" class="node">
<title>Node5</title>
<g id="a_node5"><a xlink:href="../../dc/d51/classleanux_1_1sysdevice_1_1USBBus.html#a35036f66ae9bf3fdb008825432cd601b" target="_top" xlink:title=" ">
<polygon fill="none" stroke="black" points="7.5,-0.5 7.5,-30.5 150.5,-30.5 150.5,-0.5 7.5,-0.5"/>
<text text-anchor="start" x="15.5" y="-18.5" font-family="Helvetica,sans-Serif" font-size="10.00">leanux::sysdevice::</text>
<text text-anchor="middle" x="79" y="-7.5" font-family="Helvetica,sans-Serif" font-size="10.00">USBBus::getDisplayName</text>
</a>
</g>
</g>
<!-- Node1&#45;&gt;Node5 -->
<g id="edge4" class="edge">
<title>Node1&#45;&gt;Node5</title>
<path fill="none" stroke="midnightblue" d="M228.11,-69.31C207.19,-60.12 181.47,-49.25 158,-40.5 148.81,-37.07 138.9,-33.68 129.34,-30.55"/>
<polygon fill="midnightblue" stroke="midnightblue" points="226.79,-72.55 237.35,-73.39 229.62,-66.15 226.79,-72.55"/>
</g>
</g>
</svg>
