<?xml version="1.0" encoding="UTF-8" standalone="no"?>
<!DOCTYPE svg PUBLIC "-//W3C//DTD SVG 1.1//EN"
 "http://www.w3.org/Graphics/SVG/1.1/DTD/svg11.dtd">
<!-- Generated by graphviz version 2.43.0 (0)
 -->
<!-- Title: leanux::sysdevice::SysDevice::getPropertyValueList Pages: 1 -->
<svg width="413pt" height="723pt"
 viewBox="0.00 0.00 413.00 723.00" xmlns="http://www.w3.org/2000/svg" xmlns:xlink="http://www.w3.org/1999/xlink">
<g id="graph0" class="graph" transform="scale(1 1) rotate(0) translate(4 719)">
<title>leanux::sysdevice::SysDevice::getPropertyValueList</title>
<!-- Node1 -->
<g id="node1" class="node">
<title>Node1</title>
<g id="a_node1"><a xlink:title=" ">
<polygon fill="#bfbfbf" stroke="black" points="230,-338.5 230,-368.5 405,-368.5 405,-338.5 230,-338.5"/>
<text text-anchor="start" x="238" y="-356.5" font-family="Helvetica,sans-Serif" font-size="10.00">leanux::sysdevice::</text>
<text text-anchor="middle" x="317.5" y="-345.5" font-family="Helvetica,sans-Serif" font-size="10.00">SysDevice::getPropertyValueList</text>
</a>
</g>
</g>
<!-- Node2 -->
<g id="node2" class="node">
<title>Node2</title>
<g id="a_node2"><a xlink:href="../../d2/d31/classleanux_1_1sysdevice_1_1BlockDevice.html#a591c377c1807e5c333738d24ec3e88ef" target="_top" xlink:title=" ">
<polygon fill="none" stroke="black" points="4.5,-684.5 4.5,-714.5 189.5,-714.5 189.5,-684.5 4.5,-684.5"/>
<text text-anchor="start" x="12.5" y="-702.5" font-family="Helvetica,sans-Serif" font-size="10.00">leanux::sysdevice::</text>
<text text-anchor="middle" x="97" y="-691.5" font-family="Helvetica,sans-Serif" font-size="10.00">BlockDevice::getPropertyValueList</text>
</a>
</g>
</g>
<!-- Node1&#45;&gt;Node2 -->
<g id="edge1" class="edge">
<title>Node1&#45;&gt;Node2</title>
<path fill="none" stroke="midnightblue" d="M314.51,-378.8C308.34,-439.39 284.14,-593.76 194,-674.5 189.77,-678.29 185.03,-681.52 179.99,-684.27"/>
<polygon fill="midnightblue" stroke="midnightblue" points="318.01,-378.9 315.46,-368.62 311.04,-378.25 318.01,-378.9"/>
</g>
<!-- Node3 -->
<g id="node3" class="node">
<title>Node3</title>
<g id="a_node3"><a xlink:href="../../d6/d19/classleanux_1_1sysdevice_1_1BlockPartition.html#ab0933694a58d1f25eb9158f219cf13bb" target="_top" xlink:title=" ">
<polygon fill="none" stroke="black" points="23.5,-624 23.5,-665 170.5,-665 170.5,-624 23.5,-624"/>
<text text-anchor="start" x="31.5" y="-653" font-family="Helvetica,sans-Serif" font-size="10.00">leanux::sysdevice::</text>
<text text-anchor="start" x="31.5" y="-642" font-family="Helvetica,sans-Serif" font-size="10.00">BlockPartition::getProperty</text>
<text text-anchor="middle" x="97" y="-631" font-family="Helvetica,sans-Serif" font-size="10.00">ValueList</text>
</a>
</g>
</g>
<!-- Node1&#45;&gt;Node3 -->
<g id="edge2" class="edge">
<title>Node1&#45;&gt;Node3</title>
<path fill="none" stroke="midnightblue" d="M311.74,-378.75C300.63,-430.64 268.12,-549.83 194,-614.5 187.16,-620.47 179.13,-625.25 170.69,-629.08"/>
<polygon fill="midnightblue" stroke="midnightblue" points="315.21,-379.24 313.79,-368.74 308.35,-377.83 315.21,-379.24"/>
</g>
<!-- Node4 -->
<g id="node4" class="node">
<title>Node4</title>
<g id="a_node4"><a xlink:href="../../dc/d23/classleanux_1_1sysdevice_1_1NetDevice.html#a1debae3dd366106e7b0f90018c503b9e" target="_top" xlink:title=" ">
<polygon fill="none" stroke="black" points="9.5,-574.5 9.5,-604.5 184.5,-604.5 184.5,-574.5 9.5,-574.5"/>
<text text-anchor="start" x="17.5" y="-592.5" font-family="Helvetica,sans-Serif" font-size="10.00">leanux::sysdevice::</text>
<text text-anchor="middle" x="97" y="-581.5" font-family="Helvetica,sans-Serif" font-size="10.00">NetDevice::getPropertyValueList</text>
</a>
</g>
</g>
<!-- Node1&#45;&gt;Node4 -->
<g id="edge3" class="edge">
<title>Node1&#45;&gt;Node4</title>
<path fill="none" stroke="midnightblue" d="M309.29,-378.31C295,-422.96 258.74,-516.7 194,-565.5 189.47,-568.91 184.52,-571.84 179.32,-574.36"/>
<polygon fill="midnightblue" stroke="midnightblue" points="312.69,-379.16 312.31,-368.57 306.01,-377.09 312.69,-379.16"/>
</g>
<!-- Node5 -->
<g id="node5" class="node">
<title>Node5</title>
<g id="a_node5"><a xlink:href="../../d2/d7d/classleanux_1_1sysdevice_1_1NVMeDevice.html#ad7e8752666421aa75de8fd7de9a50269" target="_top" xlink:title=" ">
<polygon fill="none" stroke="black" points="3.5,-525.5 3.5,-555.5 190.5,-555.5 190.5,-525.5 3.5,-525.5"/>
<text text-anchor="start" x="11.5" y="-543.5" font-family="Helvetica,sans-Serif" font-size="10.00">leanux::sysdevice::</text>
<text text-anchor="middle" x="97" y="-532.5" font-family="Helvetica,sans-Serif" font-size="10.00">NVMeDevice::getPropertyValueList</text>
</a>
</g>
</g>
<!-- Node1&#45;&gt;Node5 -->
<g id="edge4" class="edge">
<title>Node1&#45;&gt;Node5</title>
<path fill="none" stroke="midnightblue" d="M304.78,-377.95C286.32,-413.75 247.06,-480.05 194,-515.5 188.27,-519.33 181.99,-522.57 175.47,-525.31"/>
<polygon fill="midnightblue" stroke="midnightblue" points="308.06,-379.21 309.42,-368.71 301.8,-376.07 308.06,-379.21"/>
</g>
<!-- Node6 -->
<g id="node6" class="node">
<title>Node6</title>
<g id="a_node6"><a xlink:href="../../d2/d73/classleanux_1_1sysdevice_1_1NVMePartition.html#acc2f959ca131c3f4fea3cdf2dcaa3ee7" target="_top" xlink:title=" ">
<polygon fill="none" stroke="black" points="22.5,-465 22.5,-506 171.5,-506 171.5,-465 22.5,-465"/>
<text text-anchor="start" x="30.5" y="-494" font-family="Helvetica,sans-Serif" font-size="10.00">leanux::sysdevice::</text>
<text text-anchor="start" x="30.5" y="-483" font-family="Helvetica,sans-Serif" font-size="10.00">NVMePartition::getProperty</text>
<text text-anchor="middle" x="97" y="-472" font-family="Helvetica,sans-Serif" font-size="10.00">ValueList</text>
</a>
</g>
</g>
<!-- Node1&#45;&gt;Node6 -->
<g id="edge5" class="edge">
<title>Node1&#45;&gt;Node6</title>
<path fill="none" stroke="midnightblue" d="M294.89,-376.11C271.84,-399.03 233.31,-434.1 194,-455.5 186.95,-459.34 179.33,-462.77 171.57,-465.81"/>
<polygon fill="midnightblue" stroke="midnightblue" points="297.54,-378.4 302.09,-368.83 292.56,-373.48 297.54,-378.4"/>
</g>
<!-- Node7 -->
<g id="node7" class="node">
<title>Node7</title>
<g id="a_node7"><a xlink:href="../../d1/d9d/classleanux_1_1sysdevice_1_1ATAPort.html#a726d252b0be10fe77bfd10bf12421ed3" target="_top" xlink:title=" ">
<polygon fill="none" stroke="black" points="16.5,-415.5 16.5,-445.5 177.5,-445.5 177.5,-415.5 16.5,-415.5"/>
<text text-anchor="start" x="24.5" y="-433.5" font-family="Helvetica,sans-Serif" font-size="10.00">leanux::sysdevice::</text>
<text text-anchor="middle" x="97" y="-422.5" font-family="Helvetica,sans-Serif" font-size="10.00">ATAPort::getPropertyValueList</text>
</a>
</g>
</g>
<!-- Node1&#45;&gt;Node7 -->
<g id="edge6" class="edge">
<title>Node1&#45;&gt;Node7</title>
<path fill="none" stroke="midnightblue" d="M276.25,-372.89C252.66,-383.76 222.07,-396.99 194,-406.5 184.48,-409.72 174.3,-412.73 164.26,-415.45"/>
<polygon fill="midnightblue" stroke="midnightblue" points="277.99,-375.94 285.58,-368.55 275.04,-369.6 277.99,-375.94"/>
</g>
<!-- Node8 -->
<g id="node8" class="node">
<title>Node8</title>
<g id="a_node8"><a xlink:href="../../dc/dfa/classleanux_1_1sysdevice_1_1MapperDevice.html#ac1c473120b391ef8c039deba490885c2" target="_top" xlink:title=" ">
<polygon fill="none" stroke="black" points="0,-366.5 0,-396.5 194,-396.5 194,-366.5 0,-366.5"/>
<text text-anchor="start" x="8" y="-384.5" font-family="Helvetica,sans-Serif" font-size="10.00">leanux::sysdevice::</text>
<text text-anchor="middle" x="97" y="-373.5" font-family="Helvetica,sans-Serif" font-size="10.00">MapperDevice::getPropertyValueList</text>
</a>
</g>
</g>
<!-- Node1&#45;&gt;Node8 -->
<g id="edge7" class="edge">
<title>Node1&#45;&gt;Node8</title>
<path fill="none" stroke="midnightblue" d="M219.9,-365.88C211.4,-366.97 202.79,-368.07 194.29,-369.16"/>
<polygon fill="midnightblue" stroke="midnightblue" points="220.36,-369.35 229.83,-364.61 219.47,-362.41 220.36,-369.35"/>
</g>
<!-- Node9 -->
<g id="node9" class="node">
<title>Node9</title>
<g id="a_node9"><a xlink:href="../../de/dd2/classleanux_1_1sysdevice_1_1LoopbackDevice.html#a78a94f35dbb27bf85ffea19b19ab6e9e" target="_top" xlink:title=" ">
<polygon fill="none" stroke="black" points="17,-306 17,-347 177,-347 177,-306 17,-306"/>
<text text-anchor="start" x="25" y="-335" font-family="Helvetica,sans-Serif" font-size="10.00">leanux::sysdevice::</text>
<text text-anchor="start" x="25" y="-324" font-family="Helvetica,sans-Serif" font-size="10.00">LoopbackDevice::getProperty</text>
<text text-anchor="middle" x="97" y="-313" font-family="Helvetica,sans-Serif" font-size="10.00">ValueList</text>
</a>
</g>
</g>
<!-- Node1&#45;&gt;Node9 -->
<g id="edge8" class="edge">
<title>Node1&#45;&gt;Node9</title>
<path fill="none" stroke="midnightblue" d="M219.56,-341.52C205.37,-339.77 190.89,-337.98 177.12,-336.28"/>
<polygon fill="midnightblue" stroke="midnightblue" points="219.48,-345.04 229.83,-342.79 220.33,-338.09 219.48,-345.04"/>
</g>
<!-- Node10 -->
<g id="node10" class="node">
<title>Node10</title>
<g id="a_node10"><a xlink:href="../../dd/d47/classleanux_1_1sysdevice_1_1RamDiskDevice.html#a096f69feac55c9c0c004fa8003f3f5a0" target="_top" xlink:title=" ">
<polygon fill="none" stroke="black" points="18,-246 18,-287 176,-287 176,-246 18,-246"/>
<text text-anchor="start" x="26" y="-275" font-family="Helvetica,sans-Serif" font-size="10.00">leanux::sysdevice::</text>
<text text-anchor="start" x="26" y="-264" font-family="Helvetica,sans-Serif" font-size="10.00">RamDiskDevice::getProperty</text>
<text text-anchor="middle" x="97" y="-253" font-family="Helvetica,sans-Serif" font-size="10.00">ValueList</text>
</a>
</g>
</g>
<!-- Node1&#45;&gt;Node10 -->
<g id="edge9" class="edge">
<title>Node1&#45;&gt;Node10</title>
<path fill="none" stroke="midnightblue" d="M277.71,-333.84C253.9,-322.18 222.58,-307.56 194,-296.5 185.53,-293.22 176.54,-290.04 167.59,-287.05"/>
<polygon fill="midnightblue" stroke="midnightblue" points="276.26,-337.03 286.78,-338.31 279.36,-330.75 276.26,-337.03"/>
</g>
<!-- Node11 -->
<g id="node11" class="node">
<title>Node11</title>
<g id="a_node11"><a xlink:href="../../dd/d1b/classleanux_1_1sysdevice_1_1MDDevice.html#a25f52dff392b1266aeb201b46a41fa0d" target="_top" xlink:title=" ">
<polygon fill="none" stroke="black" points="10,-196.5 10,-226.5 184,-226.5 184,-196.5 10,-196.5"/>
<text text-anchor="start" x="18" y="-214.5" font-family="Helvetica,sans-Serif" font-size="10.00">leanux::sysdevice::</text>
<text text-anchor="middle" x="97" y="-203.5" font-family="Helvetica,sans-Serif" font-size="10.00">MDDevice::getPropertyValueList</text>
</a>
</g>
</g>
<!-- Node1&#45;&gt;Node11 -->
<g id="edge10" class="edge">
<title>Node1&#45;&gt;Node11</title>
<path fill="none" stroke="midnightblue" d="M298.61,-330.41C276.77,-303.81 237.34,-260.66 194,-236.5 187.08,-232.64 179.55,-229.36 171.85,-226.58"/>
<polygon fill="midnightblue" stroke="midnightblue" points="296.07,-332.83 305.07,-338.42 301.52,-328.44 296.07,-332.83"/>
</g>
<!-- Node12 -->
<g id="node12" class="node">
<title>Node12</title>
<g id="a_node12"><a xlink:href="../../d8/dcd/classleanux_1_1sysdevice_1_1PCIDevice.html#a226c6285004593dad421a814e57fb505" target="_top" xlink:title=" ">
<polygon fill="none" stroke="black" points="10.5,-147.5 10.5,-177.5 183.5,-177.5 183.5,-147.5 10.5,-147.5"/>
<text text-anchor="start" x="18.5" y="-165.5" font-family="Helvetica,sans-Serif" font-size="10.00">leanux::sysdevice::</text>
<text text-anchor="middle" x="97" y="-154.5" font-family="Helvetica,sans-Serif" font-size="10.00">PCIDevice::getPropertyValueList</text>
</a>
</g>
</g>
<!-- Node1&#45;&gt;Node12 -->
<g id="edge11" class="edge">
<title>Node1&#45;&gt;Node12</title>
<path fill="none" stroke="midnightblue" d="M305.21,-329C287.08,-292.45 247.96,-224.01 194,-187.5 188.29,-183.64 182.03,-180.37 175.52,-177.61"/>
<polygon fill="midnightblue" stroke="midnightblue" points="302.26,-330.94 309.76,-338.42 308.56,-327.89 302.26,-330.94"/>
</g>
<!-- Node13 -->
<g id="node13" class="node">
<title>Node13</title>
<g id="a_node13"><a xlink:href="../../d9/d99/classleanux_1_1sysdevice_1_1PCIBus.html#aa16e0e79f92e04a8e3cfebae0b133e23" target="_top" xlink:title=" ">
<polygon fill="none" stroke="black" points="18,-98.5 18,-128.5 176,-128.5 176,-98.5 18,-98.5"/>
<text text-anchor="start" x="26" y="-116.5" font-family="Helvetica,sans-Serif" font-size="10.00">leanux::sysdevice::</text>
<text text-anchor="middle" x="97" y="-105.5" font-family="Helvetica,sans-Serif" font-size="10.00">PCIBus::getPropertyValueList</text>
</a>
</g>
</g>
<!-- Node1&#45;&gt;Node13 -->
<g id="edge12" class="edge">
<title>Node1&#45;&gt;Node13</title>
<path fill="none" stroke="midnightblue" d="M309.44,-328.69C295.31,-283.64 259.17,-188.44 194,-138.5 188.53,-134.31 182.43,-130.82 176.02,-127.91"/>
<polygon fill="midnightblue" stroke="midnightblue" points="306.09,-329.71 312.35,-338.26 312.79,-327.67 306.09,-329.71"/>
</g>
<!-- Node14 -->
<g id="node14" class="node">
<title>Node14</title>
<g id="a_node14"><a xlink:href="../../db/d5e/classleanux_1_1sysdevice_1_1USBDevice.html#aa7074d6382d3ef77a36a7454dbf99f1e" target="_top" xlink:title=" ">
<polygon fill="none" stroke="black" points="8,-49.5 8,-79.5 186,-79.5 186,-49.5 8,-49.5"/>
<text text-anchor="start" x="16" y="-67.5" font-family="Helvetica,sans-Serif" font-size="10.00">leanux::sysdevice::</text>
<text text-anchor="middle" x="97" y="-56.5" font-family="Helvetica,sans-Serif" font-size="10.00">USBDevice::getPropertyValueList</text>
</a>
</g>
</g>
<!-- Node1&#45;&gt;Node14 -->
<g id="edge13" class="edge">
<title>Node1&#45;&gt;Node14</title>
<path fill="none" stroke="midnightblue" d="M312.22,-328.38C301.89,-275.73 270.57,-153.41 194,-89.5 189.37,-85.64 184.22,-82.36 178.76,-79.59"/>
<polygon fill="midnightblue" stroke="midnightblue" points="308.78,-329.04 314.06,-338.23 315.66,-327.76 308.78,-329.04"/>
</g>
<!-- Node15 -->
<g id="node15" class="node">
<title>Node15</title>
<g id="a_node15"><a xlink:href="../../dc/d51/classleanux_1_1sysdevice_1_1USBBus.html#aa244ae7511e6792b74236c20634b895f" target="_top" xlink:title=" ">
<polygon fill="none" stroke="black" points="16,-0.5 16,-30.5 178,-30.5 178,-0.5 16,-0.5"/>
<text text-anchor="start" x="24" y="-18.5" font-family="Helvetica,sans-Serif" font-size="10.00">leanux::sysdevice::</text>
<text text-anchor="middle" x="97" y="-7.5" font-family="Helvetica,sans-Serif" font-size="10.00">USBBus::getPropertyValueList</text>
</a>
</g>
</g>
<!-- Node1&#45;&gt;Node15 -->
<g id="edge14" class="edge">
<title>Node1&#45;&gt;Node15</title>
<path fill="none" stroke="midnightblue" d="M314.25,-328.4C307.55,-269 282.31,-118.93 194,-40.5 189.24,-36.27 183.84,-32.74 178.1,-29.79"/>
<polygon fill="midnightblue" stroke="midnightblue" points="310.78,-328.82 315.3,-338.4 317.74,-328.09 310.78,-328.82"/>
</g>
</g>
</svg>
