<?xml version="1.0" encoding="UTF-8" standalone="no"?>
<!DOCTYPE svg PUBLIC "-//W3C//DTD SVG 1.1//EN"
 "http://www.w3.org/Graphics/SVG/1.1/DTD/svg11.dtd">
<!-- Generated by graphviz version 2.43.0 (0)
 -->
<!-- Title: leanux::sysdevice::SysDevice::getPropertyValueList Pages: 1 -->
<svg width="530pt" height="137pt"
 viewBox="0.00 0.00 530.00 137.00" xmlns="http://www.w3.org/2000/svg" xmlns:xlink="http://www.w3.org/1999/xlink">
<g id="graph0" class="graph" transform="scale(1 1) rotate(0) translate(4 133)">
<title>leanux::sysdevice::SysDevice::getPropertyValueList</title>
<!-- Node1 -->
<g id="node1" class="node">
<title>Node1</title>
<g id="a_node1"><a xlink:title=" ">
<polygon fill="#bfbfbf" stroke="black" points="0,-49.5 0,-79.5 175,-79.5 175,-49.5 0,-49.5"/>
<text text-anchor="start" x="8" y="-67.5" font-family="Helvetica,sans-Serif" font-size="10.00">leanux::sysdevice::</text>
<text text-anchor="middle" x="87.5" y="-56.5" font-family="Helvetica,sans-Serif" font-size="10.00">SysDevice::getPropertyValueList</text>
</a>
</g>
</g>
<!-- Node2 -->
<g id="node2" class="node">
<title>Node2</title>
<g id="a_node2"><a xlink:href="../../d1/d02/classleanux_1_1sysdevice_1_1SysDevice.html#af93bf56dfb812cdfa443dcfaffcbbb25" target="_top" xlink:title="Get the device class for this device.">
<polygon fill="none" stroke="black" points="215.5,-98.5 215.5,-128.5 331.5,-128.5 331.5,-98.5 215.5,-98.5"/>
<text text-anchor="start" x="223.5" y="-116.5" font-family="Helvetica,sans-Serif" font-size="10.00">leanux::sysdevice::</text>
<text text-anchor="middle" x="273.5" y="-105.5" font-family="Helvetica,sans-Serif" font-size="10.00">SysDevice::getClass</text>
</a>
</g>
</g>
<!-- Node1&#45;&gt;Node2 -->
<g id="edge1" class="edge">
<title>Node1&#45;&gt;Node2</title>
<path fill="none" stroke="midnightblue" d="M144.96,-79.53C164.38,-84.71 186.31,-90.55 206.43,-95.91"/>
<polygon fill="midnightblue" stroke="midnightblue" points="205.59,-99.3 216.15,-98.49 207.39,-92.54 205.59,-99.3"/>
</g>
<!-- Node3 -->
<g id="node3" class="node">
<title>Node3</title>
<g id="a_node3"><a xlink:href="../../d1/d02/classleanux_1_1sysdevice_1_1SysDevice.html#af7a1af7a4b7729e150cceed395e4425b" target="_top" xlink:title="Get the driver for this device.">
<polygon fill="none" stroke="black" points="214,-49.5 214,-79.5 333,-79.5 333,-49.5 214,-49.5"/>
<text text-anchor="start" x="222" y="-67.5" font-family="Helvetica,sans-Serif" font-size="10.00">leanux::sysdevice::</text>
<text text-anchor="middle" x="273.5" y="-56.5" font-family="Helvetica,sans-Serif" font-size="10.00">SysDevice::getDriver</text>
</a>
</g>
</g>
<!-- Node1&#45;&gt;Node3 -->
<g id="edge2" class="edge">
<title>Node1&#45;&gt;Node3</title>
<path fill="none" stroke="midnightblue" d="M175.11,-64.5C184.76,-64.5 194.49,-64.5 203.88,-64.5"/>
<polygon fill="midnightblue" stroke="midnightblue" points="203.9,-68 213.9,-64.5 203.9,-61 203.9,-68"/>
</g>
<!-- Node6 -->
<g id="node6" class="node">
<title>Node6</title>
<g id="a_node6"><a xlink:href="../../d1/d02/classleanux_1_1sysdevice_1_1SysDevice.html#a899968c4a70ecad67694f6850cf730fd" target="_top" xlink:title="Get a string representation for the SysDeviceType.">
<polygon fill="none" stroke="black" points="211,-0.5 211,-30.5 336,-30.5 336,-0.5 211,-0.5"/>
<text text-anchor="start" x="219" y="-18.5" font-family="Helvetica,sans-Serif" font-size="10.00">leanux::sysdevice::</text>
<text text-anchor="middle" x="273.5" y="-7.5" font-family="Helvetica,sans-Serif" font-size="10.00">SysDevice::getTypeStr</text>
</a>
</g>
</g>
<!-- Node1&#45;&gt;Node6 -->
<g id="edge5" class="edge">
<title>Node1&#45;&gt;Node6</title>
<path fill="none" stroke="midnightblue" d="M144.96,-49.47C164.38,-44.29 186.31,-38.45 206.43,-33.09"/>
<polygon fill="midnightblue" stroke="midnightblue" points="207.39,-36.46 216.15,-30.51 205.59,-29.7 207.39,-36.46"/>
</g>
<!-- Node4 -->
<g id="node4" class="node">
<title>Node4</title>
<g id="a_node4"><a xlink:href="../../d8/db1/namespaceleanux_1_1util.html#a6ac7287d49f3dd9b2c6c9673257e145b" target="_top" xlink:title="Test if the path is an existing directory.">
<polygon fill="none" stroke="black" points="372,-74 372,-93 522,-93 522,-74 372,-74"/>
<text text-anchor="middle" x="447" y="-81" font-family="Helvetica,sans-Serif" font-size="10.00">leanux::util::directoryExists</text>
</a>
</g>
</g>
<!-- Node3&#45;&gt;Node4 -->
<g id="edge3" class="edge">
<title>Node3&#45;&gt;Node4</title>
<path fill="none" stroke="midnightblue" d="M333.04,-70.99C342.33,-72.01 352.1,-73.1 361.84,-74.18"/>
<polygon fill="midnightblue" stroke="midnightblue" points="361.63,-77.67 371.95,-75.3 362.4,-70.72 361.63,-77.67"/>
</g>
<!-- Node5 -->
<g id="node5" class="node">
<title>Node5</title>
<g id="a_node5"><a xlink:href="../../d8/db1/namespaceleanux_1_1util.html#a9ae898fe02934e4905ef4665c2871158" target="_top" xlink:title="Convert a path on a filesystem to the realpath if the path is a link.">
<polygon fill="none" stroke="black" points="388.5,-36 388.5,-55 505.5,-55 505.5,-36 388.5,-36"/>
<text text-anchor="middle" x="447" y="-43" font-family="Helvetica,sans-Serif" font-size="10.00">leanux::util::realPath</text>
</a>
</g>
</g>
<!-- Node3&#45;&gt;Node5 -->
<g id="edge4" class="edge">
<title>Node3&#45;&gt;Node5</title>
<path fill="none" stroke="midnightblue" d="M333.04,-58.01C347.55,-56.41 363.21,-54.67 378.12,-53.02"/>
<polygon fill="midnightblue" stroke="midnightblue" points="378.75,-56.47 388.3,-51.89 377.98,-49.51 378.75,-56.47"/>
</g>
</g>
</svg>
