<?xml version="1.0" encoding="UTF-8" standalone="no"?>
<!DOCTYPE svg PUBLIC "-//W3C//DTD SVG 1.1//EN"
 "http://www.w3.org/Graphics/SVG/1.1/DTD/svg11.dtd">
<!-- Generated by graphviz version 2.43.0 (0)
 -->
<!-- Title: leanux::pci::getPCIHardwareClassString Pages: 1 -->
<svg width="581pt" height="382pt"
 viewBox="0.00 0.00 581.00 382.00" xmlns="http://www.w3.org/2000/svg" xmlns:xlink="http://www.w3.org/1999/xlink">
<g id="graph0" class="graph" transform="scale(1 1) rotate(0) translate(4 378)">
<title>leanux::pci::getPCIHardwareClassString</title>
<!-- Node1 -->
<g id="node1" class="node">
<title>Node1</title>
<g id="a_node1"><a xlink:title="Transform a PCI class code to class name.">
<polygon fill="#bfbfbf" stroke="black" points="418,-171.5 418,-201.5 573,-201.5 573,-171.5 418,-171.5"/>
<text text-anchor="start" x="426" y="-189.5" font-family="Helvetica,sans-Serif" font-size="10.00">leanux::pci::getPCIHardware</text>
<text text-anchor="middle" x="495.5" y="-178.5" font-family="Helvetica,sans-Serif" font-size="10.00">ClassString</text>
</a>
</g>
</g>
<!-- Node2 -->
<g id="node2" class="node">
<title>Node2</title>
<g id="a_node2"><a xlink:href="../../de/d5d/namespaceleanux_1_1pci.html#ac5de5302fd54c5e26d2f3745877a750c" target="_top" xlink:title="Get PCI device info based on (vendor,device) function retrieves data from /usr/share/misc/pci....">
<polygon fill="none" stroke="black" points="209,-177 209,-196 382,-196 382,-177 209,-177"/>
<text text-anchor="middle" x="295.5" y="-184" font-family="Helvetica,sans-Serif" font-size="10.00">leanux::pci::getPCIHardwareInfo</text>
</a>
</g>
</g>
<!-- Node1&#45;&gt;Node2 -->
<g id="edge1" class="edge">
<title>Node1&#45;&gt;Node2</title>
<path fill="none" stroke="midnightblue" d="M407.94,-186.5C399.35,-186.5 390.64,-186.5 382.06,-186.5"/>
<polygon fill="midnightblue" stroke="midnightblue" points="407.95,-190 417.95,-186.5 407.95,-183 407.95,-190"/>
</g>
<!-- Node3 -->
<g id="node3" class="node">
<title>Node3</title>
<g id="a_node3"><a xlink:href="../../d8/dcd/classleanux_1_1sysdevice_1_1PCIDevice.html#a2df5ef99735d1b71a81e8fdace7ec681" target="_top" xlink:title="Get the device class for this device.">
<polygon fill="none" stroke="black" points="29.5,-343.5 29.5,-373.5 143.5,-373.5 143.5,-343.5 29.5,-343.5"/>
<text text-anchor="start" x="37.5" y="-361.5" font-family="Helvetica,sans-Serif" font-size="10.00">leanux::sysdevice::</text>
<text text-anchor="middle" x="86.5" y="-350.5" font-family="Helvetica,sans-Serif" font-size="10.00">PCIDevice::getClass</text>
</a>
</g>
</g>
<!-- Node2&#45;&gt;Node3 -->
<g id="edge2" class="edge">
<title>Node2&#45;&gt;Node3</title>
<path fill="none" stroke="midnightblue" d="M284.32,-205.2C266.19,-236.74 225.24,-300.38 173,-334.5 164.22,-340.23 154.08,-344.61 143.91,-347.96"/>
<polygon fill="midnightblue" stroke="midnightblue" points="287.55,-206.6 289.39,-196.17 281.45,-203.18 287.55,-206.6"/>
</g>
<!-- Node4 -->
<g id="node4" class="node">
<title>Node4</title>
<g id="a_node4"><a xlink:href="../../d8/dcd/classleanux_1_1sysdevice_1_1PCIDevice.html#aae7c18dcb959c11184e4b25afa5afae1" target="_top" xlink:title="Get a human readable description of this SysDevice.">
<polygon fill="none" stroke="black" points="15,-294.5 15,-324.5 158,-324.5 158,-294.5 15,-294.5"/>
<text text-anchor="start" x="23" y="-312.5" font-family="Helvetica,sans-Serif" font-size="10.00">leanux::sysdevice::</text>
<text text-anchor="middle" x="86.5" y="-301.5" font-family="Helvetica,sans-Serif" font-size="10.00">PCIDevice::getDescription</text>
</a>
</g>
</g>
<!-- Node2&#45;&gt;Node4 -->
<g id="edge3" class="edge">
<title>Node2&#45;&gt;Node4</title>
<path fill="none" stroke="midnightblue" d="M278.24,-203.54C256.32,-225.55 215.16,-263.62 173,-285.5 166.43,-288.91 159.32,-291.88 152.1,-294.47"/>
<polygon fill="midnightblue" stroke="midnightblue" points="280.91,-205.81 285.41,-196.22 275.91,-200.91 280.91,-205.81"/>
</g>
<!-- Node5 -->
<g id="node5" class="node">
<title>Node5</title>
<g id="a_node5"><a xlink:href="../../d9/d99/classleanux_1_1sysdevice_1_1PCIBus.html#a5767e123c5ff43d23820b4977712bda8" target="_top" xlink:title="Get a human readable description of this SysDevice.">
<polygon fill="none" stroke="black" points="22.5,-245.5 22.5,-275.5 150.5,-275.5 150.5,-245.5 22.5,-245.5"/>
<text text-anchor="start" x="30.5" y="-263.5" font-family="Helvetica,sans-Serif" font-size="10.00">leanux::sysdevice::</text>
<text text-anchor="middle" x="86.5" y="-252.5" font-family="Helvetica,sans-Serif" font-size="10.00">PCIBus::getDescription</text>
</a>
</g>
</g>
<!-- Node2&#45;&gt;Node5 -->
<g id="edge4" class="edge">
<title>Node2&#45;&gt;Node5</title>
<path fill="none" stroke="midnightblue" d="M263.87,-200.27C239.53,-210.93 204.46,-225.65 173,-236.5 163.96,-239.62 154.29,-242.63 144.82,-245.41"/>
<polygon fill="midnightblue" stroke="midnightblue" points="265.54,-203.36 273.28,-196.12 262.72,-196.95 265.54,-203.36"/>
</g>
<!-- Node6 -->
<g id="node6" class="node">
<title>Node6</title>
<g id="a_node6"><a xlink:href="../../d8/dcd/classleanux_1_1sysdevice_1_1PCIDevice.html#a1c5f78d7c4338387d91faddca98f5028" target="_top" xlink:title=" ">
<polygon fill="none" stroke="black" points="9.5,-196.5 9.5,-226.5 163.5,-226.5 163.5,-196.5 9.5,-196.5"/>
<text text-anchor="start" x="17.5" y="-214.5" font-family="Helvetica,sans-Serif" font-size="10.00">leanux::sysdevice::</text>
<text text-anchor="middle" x="86.5" y="-203.5" font-family="Helvetica,sans-Serif" font-size="10.00">PCIDevice::getDisplayName</text>
</a>
</g>
</g>
<!-- Node2&#45;&gt;Node6 -->
<g id="edge5" class="edge">
<title>Node2&#45;&gt;Node6</title>
<path fill="none" stroke="midnightblue" d="M205.58,-197.24C191.65,-198.92 177.35,-200.65 163.74,-202.29"/>
<polygon fill="midnightblue" stroke="midnightblue" points="206.14,-200.7 215.65,-196.02 205.3,-193.75 206.14,-200.7"/>
</g>
<!-- Node7 -->
<g id="node7" class="node">
<title>Node7</title>
<g id="a_node7"><a xlink:href="../../d9/d99/classleanux_1_1sysdevice_1_1PCIBus.html#a9873b111948df2dbc4e24097555718f3" target="_top" xlink:title=" ">
<polygon fill="none" stroke="black" points="17.5,-147.5 17.5,-177.5 155.5,-177.5 155.5,-147.5 17.5,-147.5"/>
<text text-anchor="start" x="25.5" y="-165.5" font-family="Helvetica,sans-Serif" font-size="10.00">leanux::sysdevice::</text>
<text text-anchor="middle" x="86.5" y="-154.5" font-family="Helvetica,sans-Serif" font-size="10.00">PCIBus::getDisplayName</text>
</a>
</g>
</g>
<!-- Node2&#45;&gt;Node7 -->
<g id="edge6" class="edge">
<title>Node2&#45;&gt;Node7</title>
<path fill="none" stroke="midnightblue" d="M202.15,-175.79C186.46,-173.97 170.43,-172.12 155.52,-170.39"/>
<polygon fill="midnightblue" stroke="midnightblue" points="202.05,-179.31 212.39,-176.98 202.86,-172.35 202.05,-179.31"/>
</g>
<!-- Node8 -->
<g id="node8" class="node">
<title>Node8</title>
<g id="a_node8"><a xlink:href="../../d9/d1f/namespaceleanux_1_1tools_1_1lsys.html#a4a56050ff78d8c77b6a699ff6d5aea50" target="_top" xlink:title="get named field attributes for the SysDevice.">
<polygon fill="none" stroke="red" points="34,-98.5 34,-128.5 139,-128.5 139,-98.5 34,-98.5"/>
<text text-anchor="start" x="42" y="-116.5" font-family="Helvetica,sans-Serif" font-size="10.00">leanux::tools::lsys</text>
<text text-anchor="middle" x="86.5" y="-105.5" font-family="Helvetica,sans-Serif" font-size="10.00">::getLeafColStr</text>
</a>
</g>
</g>
<!-- Node2&#45;&gt;Node8 -->
<g id="edge7" class="edge">
<title>Node2&#45;&gt;Node8</title>
<path fill="none" stroke="midnightblue" d="M262.45,-172.9C238.12,-162.82 203.74,-149.04 173,-138.5 162.17,-134.79 150.46,-131.13 139.28,-127.81"/>
<polygon fill="midnightblue" stroke="midnightblue" points="261.31,-176.22 271.89,-176.85 264.01,-169.76 261.31,-176.22"/>
</g>
<!-- Node13 -->
<g id="node9" class="node">
<title>Node13</title>
<g id="a_node9"><a xlink:href="../../d8/dcd/classleanux_1_1sysdevice_1_1PCIDevice.html#a226c6285004593dad421a814e57fb505" target="_top" xlink:title=" ">
<polygon fill="none" stroke="black" points="0,-49.5 0,-79.5 173,-79.5 173,-49.5 0,-49.5"/>
<text text-anchor="start" x="8" y="-67.5" font-family="Helvetica,sans-Serif" font-size="10.00">leanux::sysdevice::</text>
<text text-anchor="middle" x="86.5" y="-56.5" font-family="Helvetica,sans-Serif" font-size="10.00">PCIDevice::getPropertyValueList</text>
</a>
</g>
</g>
<!-- Node2&#45;&gt;Node13 -->
<g id="edge8" class="edge">
<title>Node2&#45;&gt;Node13</title>
<path fill="none" stroke="midnightblue" d="M277.79,-169.56C255.67,-148.04 214.6,-111.11 173,-89.5 165.73,-85.72 157.8,-82.44 149.8,-79.6"/>
<polygon fill="midnightblue" stroke="midnightblue" points="275.48,-172.19 285.05,-176.74 280.4,-167.22 275.48,-172.19"/>
</g>
<!-- Node14 -->
<g id="node10" class="node">
<title>Node14</title>
<g id="a_node10"><a xlink:href="../../d9/d99/classleanux_1_1sysdevice_1_1PCIBus.html#aa16e0e79f92e04a8e3cfebae0b133e23" target="_top" xlink:title=" ">
<polygon fill="none" stroke="black" points="7.5,-0.5 7.5,-30.5 165.5,-30.5 165.5,-0.5 7.5,-0.5"/>
<text text-anchor="start" x="15.5" y="-18.5" font-family="Helvetica,sans-Serif" font-size="10.00">leanux::sysdevice::</text>
<text text-anchor="middle" x="86.5" y="-7.5" font-family="Helvetica,sans-Serif" font-size="10.00">PCIBus::getPropertyValueList</text>
</a>
</g>
</g>
<!-- Node2&#45;&gt;Node14 -->
<g id="edge9" class="edge">
<title>Node2&#45;&gt;Node14</title>
<path fill="none" stroke="midnightblue" d="M284.22,-168.11C265.93,-137.1 224.75,-74.45 173,-40.5 167.18,-36.68 160.77,-33.43 154.14,-30.67"/>
<polygon fill="midnightblue" stroke="midnightblue" points="281.31,-170.08 289.34,-176.99 287.38,-166.58 281.31,-170.08"/>
</g>
</g>
</svg>
