<?xml version="1.0" encoding="UTF-8" standalone="no"?>
<!DOCTYPE svg PUBLIC "-//W3C//DTD SVG 1.1//EN"
 "http://www.w3.org/Graphics/SVG/1.1/DTD/svg11.dtd">
<!-- Generated by graphviz version 2.43.0 (0)
 -->
<!-- Title: leanux::pci::getPCIHardwareInfo Pages: 1 -->
<svg width="531pt" height="382pt"
 viewBox="0.00 0.00 531.00 382.00" xmlns="http://www.w3.org/2000/svg" xmlns:xlink="http://www.w3.org/1999/xlink">
<g id="graph0" class="graph" transform="scale(1 1) rotate(0) translate(4 378)">
<title>leanux::pci::getPCIHardwareInfo</title>
<!-- Node1 -->
<g id="node1" class="node">
<title>Node1</title>
<g id="a_node1"><a xlink:title="Get PCI device info based on (vendor,device) function retrieves data from /usr/share/misc/pci....">
<polygon fill="#bfbfbf" stroke="black" points="350,-177 350,-196 523,-196 523,-177 350,-177"/>
<text text-anchor="middle" x="436.5" y="-184" font-family="Helvetica,sans-Serif" font-size="10.00">leanux::pci::getPCIHardwareInfo</text>
</a>
</g>
</g>
<!-- Node2 -->
<g id="node2" class="node">
<title>Node2</title>
<g id="a_node2"><a xlink:href="../../d8/dcd/classleanux_1_1sysdevice_1_1PCIDevice.html#a2df5ef99735d1b71a81e8fdace7ec681" target="_top" xlink:title="Get the device class for this device.">
<polygon fill="none" stroke="black" points="170.5,-343.5 170.5,-373.5 284.5,-373.5 284.5,-343.5 170.5,-343.5"/>
<text text-anchor="start" x="178.5" y="-361.5" font-family="Helvetica,sans-Serif" font-size="10.00">leanux::sysdevice::</text>
<text text-anchor="middle" x="227.5" y="-350.5" font-family="Helvetica,sans-Serif" font-size="10.00">PCIDevice::getClass</text>
</a>
</g>
</g>
<!-- Node1&#45;&gt;Node2 -->
<g id="edge1" class="edge">
<title>Node1&#45;&gt;Node2</title>
<path fill="none" stroke="midnightblue" d="M425.32,-205.2C407.19,-236.74 366.24,-300.38 314,-334.5 305.22,-340.23 295.08,-344.61 284.91,-347.96"/>
<polygon fill="midnightblue" stroke="midnightblue" points="428.55,-206.6 430.39,-196.17 422.45,-203.18 428.55,-206.6"/>
</g>
<!-- Node3 -->
<g id="node3" class="node">
<title>Node3</title>
<g id="a_node3"><a xlink:href="../../d8/dcd/classleanux_1_1sysdevice_1_1PCIDevice.html#aae7c18dcb959c11184e4b25afa5afae1" target="_top" xlink:title="Get a human readable description of this SysDevice.">
<polygon fill="none" stroke="black" points="156,-294.5 156,-324.5 299,-324.5 299,-294.5 156,-294.5"/>
<text text-anchor="start" x="164" y="-312.5" font-family="Helvetica,sans-Serif" font-size="10.00">leanux::sysdevice::</text>
<text text-anchor="middle" x="227.5" y="-301.5" font-family="Helvetica,sans-Serif" font-size="10.00">PCIDevice::getDescription</text>
</a>
</g>
</g>
<!-- Node1&#45;&gt;Node3 -->
<g id="edge2" class="edge">
<title>Node1&#45;&gt;Node3</title>
<path fill="none" stroke="midnightblue" d="M419.24,-203.54C397.32,-225.55 356.16,-263.62 314,-285.5 307.43,-288.91 300.32,-291.88 293.1,-294.47"/>
<polygon fill="midnightblue" stroke="midnightblue" points="421.91,-205.81 426.41,-196.22 416.91,-200.91 421.91,-205.81"/>
</g>
<!-- Node4 -->
<g id="node4" class="node">
<title>Node4</title>
<g id="a_node4"><a xlink:href="../../d9/d99/classleanux_1_1sysdevice_1_1PCIBus.html#a5767e123c5ff43d23820b4977712bda8" target="_top" xlink:title="Get a human readable description of this SysDevice.">
<polygon fill="none" stroke="black" points="163.5,-245.5 163.5,-275.5 291.5,-275.5 291.5,-245.5 163.5,-245.5"/>
<text text-anchor="start" x="171.5" y="-263.5" font-family="Helvetica,sans-Serif" font-size="10.00">leanux::sysdevice::</text>
<text text-anchor="middle" x="227.5" y="-252.5" font-family="Helvetica,sans-Serif" font-size="10.00">PCIBus::getDescription</text>
</a>
</g>
</g>
<!-- Node1&#45;&gt;Node4 -->
<g id="edge3" class="edge">
<title>Node1&#45;&gt;Node4</title>
<path fill="none" stroke="midnightblue" d="M404.87,-200.27C380.53,-210.93 345.46,-225.65 314,-236.5 304.96,-239.62 295.29,-242.63 285.82,-245.41"/>
<polygon fill="midnightblue" stroke="midnightblue" points="406.54,-203.36 414.28,-196.12 403.72,-196.95 406.54,-203.36"/>
</g>
<!-- Node5 -->
<g id="node5" class="node">
<title>Node5</title>
<g id="a_node5"><a xlink:href="../../d8/dcd/classleanux_1_1sysdevice_1_1PCIDevice.html#a1c5f78d7c4338387d91faddca98f5028" target="_top" xlink:title=" ">
<polygon fill="none" stroke="black" points="150.5,-196.5 150.5,-226.5 304.5,-226.5 304.5,-196.5 150.5,-196.5"/>
<text text-anchor="start" x="158.5" y="-214.5" font-family="Helvetica,sans-Serif" font-size="10.00">leanux::sysdevice::</text>
<text text-anchor="middle" x="227.5" y="-203.5" font-family="Helvetica,sans-Serif" font-size="10.00">PCIDevice::getDisplayName</text>
</a>
</g>
</g>
<!-- Node1&#45;&gt;Node5 -->
<g id="edge4" class="edge">
<title>Node1&#45;&gt;Node5</title>
<path fill="none" stroke="midnightblue" d="M346.58,-197.24C332.65,-198.92 318.35,-200.65 304.74,-202.29"/>
<polygon fill="midnightblue" stroke="midnightblue" points="347.14,-200.7 356.65,-196.02 346.3,-193.75 347.14,-200.7"/>
</g>
<!-- Node6 -->
<g id="node6" class="node">
<title>Node6</title>
<g id="a_node6"><a xlink:href="../../d9/d99/classleanux_1_1sysdevice_1_1PCIBus.html#a9873b111948df2dbc4e24097555718f3" target="_top" xlink:title=" ">
<polygon fill="none" stroke="black" points="158.5,-147.5 158.5,-177.5 296.5,-177.5 296.5,-147.5 158.5,-147.5"/>
<text text-anchor="start" x="166.5" y="-165.5" font-family="Helvetica,sans-Serif" font-size="10.00">leanux::sysdevice::</text>
<text text-anchor="middle" x="227.5" y="-154.5" font-family="Helvetica,sans-Serif" font-size="10.00">PCIBus::getDisplayName</text>
</a>
</g>
</g>
<!-- Node1&#45;&gt;Node6 -->
<g id="edge5" class="edge">
<title>Node1&#45;&gt;Node6</title>
<path fill="none" stroke="midnightblue" d="M343.15,-175.79C327.46,-173.97 311.43,-172.12 296.52,-170.39"/>
<polygon fill="midnightblue" stroke="midnightblue" points="343.05,-179.31 353.39,-176.98 343.86,-172.35 343.05,-179.31"/>
</g>
<!-- Node7 -->
<g id="node7" class="node">
<title>Node7</title>
<g id="a_node7"><a xlink:href="../../d9/d1f/namespaceleanux_1_1tools_1_1lsys.html#a4a56050ff78d8c77b6a699ff6d5aea50" target="_top" xlink:title="get named field attributes for the SysDevice.">
<polygon fill="none" stroke="black" points="175,-98.5 175,-128.5 280,-128.5 280,-98.5 175,-98.5"/>
<text text-anchor="start" x="183" y="-116.5" font-family="Helvetica,sans-Serif" font-size="10.00">leanux::tools::lsys</text>
<text text-anchor="middle" x="227.5" y="-105.5" font-family="Helvetica,sans-Serif" font-size="10.00">::getLeafColStr</text>
</a>
</g>
</g>
<!-- Node1&#45;&gt;Node7 -->
<g id="edge6" class="edge">
<title>Node1&#45;&gt;Node7</title>
<path fill="none" stroke="midnightblue" d="M403.45,-172.9C379.12,-162.82 344.74,-149.04 314,-138.5 303.17,-134.79 291.46,-131.13 280.28,-127.81"/>
<polygon fill="midnightblue" stroke="midnightblue" points="402.31,-176.22 412.89,-176.85 405.01,-169.76 402.31,-176.22"/>
</g>
<!-- Node12 -->
<g id="node9" class="node">
<title>Node12</title>
<g id="a_node9"><a xlink:href="../../d8/dcd/classleanux_1_1sysdevice_1_1PCIDevice.html#a226c6285004593dad421a814e57fb505" target="_top" xlink:title=" ">
<polygon fill="none" stroke="black" points="141,-49.5 141,-79.5 314,-79.5 314,-49.5 141,-49.5"/>
<text text-anchor="start" x="149" y="-67.5" font-family="Helvetica,sans-Serif" font-size="10.00">leanux::sysdevice::</text>
<text text-anchor="middle" x="227.5" y="-56.5" font-family="Helvetica,sans-Serif" font-size="10.00">PCIDevice::getPropertyValueList</text>
</a>
</g>
</g>
<!-- Node1&#45;&gt;Node12 -->
<g id="edge8" class="edge">
<title>Node1&#45;&gt;Node12</title>
<path fill="none" stroke="midnightblue" d="M418.79,-169.56C396.67,-148.04 355.6,-111.11 314,-89.5 306.73,-85.72 298.8,-82.44 290.8,-79.6"/>
<polygon fill="midnightblue" stroke="midnightblue" points="416.48,-172.19 426.05,-176.74 421.4,-167.22 416.48,-172.19"/>
</g>
<!-- Node13 -->
<g id="node10" class="node">
<title>Node13</title>
<g id="a_node10"><a xlink:href="../../d9/d99/classleanux_1_1sysdevice_1_1PCIBus.html#aa16e0e79f92e04a8e3cfebae0b133e23" target="_top" xlink:title=" ">
<polygon fill="none" stroke="black" points="148.5,-0.5 148.5,-30.5 306.5,-30.5 306.5,-0.5 148.5,-0.5"/>
<text text-anchor="start" x="156.5" y="-18.5" font-family="Helvetica,sans-Serif" font-size="10.00">leanux::sysdevice::</text>
<text text-anchor="middle" x="227.5" y="-7.5" font-family="Helvetica,sans-Serif" font-size="10.00">PCIBus::getPropertyValueList</text>
</a>
</g>
</g>
<!-- Node1&#45;&gt;Node13 -->
<g id="edge9" class="edge">
<title>Node1&#45;&gt;Node13</title>
<path fill="none" stroke="midnightblue" d="M425.22,-168.11C406.93,-137.1 365.75,-74.45 314,-40.5 308.18,-36.68 301.77,-33.43 295.14,-30.67"/>
<polygon fill="midnightblue" stroke="midnightblue" points="422.31,-170.08 430.34,-176.99 428.38,-166.58 422.31,-170.08"/>
</g>
<!-- Node8 -->
<g id="node8" class="node">
<title>Node8</title>
<g id="a_node8"><a xlink:href="../../d9/d1f/namespaceleanux_1_1tools_1_1lsys.html#ad858cdc5736e1be415f25fdaec024b58" target="_top" xlink:title="list devices, filtered if opt_t is set.">
<polygon fill="none" stroke="red" points="0,-98.5 0,-128.5 105,-128.5 105,-98.5 0,-98.5"/>
<text text-anchor="start" x="8" y="-116.5" font-family="Helvetica,sans-Serif" font-size="10.00">leanux::tools::lsys</text>
<text text-anchor="middle" x="52.5" y="-105.5" font-family="Helvetica,sans-Serif" font-size="10.00">::listDevices</text>
</a>
</g>
</g>
<!-- Node7&#45;&gt;Node8 -->
<g id="edge7" class="edge">
<title>Node7&#45;&gt;Node8</title>
<path fill="none" stroke="midnightblue" d="M164.59,-113.5C145.09,-113.5 123.77,-113.5 105.07,-113.5"/>
<polygon fill="midnightblue" stroke="midnightblue" points="164.59,-117 174.59,-113.5 164.59,-110 164.59,-117"/>
</g>
</g>
</svg>
