<?xml version="1.0" encoding="UTF-8" standalone="no"?>
<!DOCTYPE svg PUBLIC "-//W3C//DTD SVG 1.1//EN"
 "http://www.w3.org/Graphics/SVG/1.1/DTD/svg11.dtd">
<!-- Generated by graphviz version 2.43.0 (0)
 -->
<!-- Title: leanux::pci::getPCIHardwareInfo Pages: 1 -->
<svg width="372pt" height="88pt"
 viewBox="0.00 0.00 372.00 88.00" xmlns="http://www.w3.org/2000/svg" xmlns:xlink="http://www.w3.org/1999/xlink">
<g id="graph0" class="graph" transform="scale(1 1) rotate(0) translate(4 84)">
<title>leanux::pci::getPCIHardwareInfo</title>
<!-- Node1 -->
<g id="node1" class="node">
<title>Node1</title>
<g id="a_node1"><a xlink:title="Get PCI device info based on (vendor,device) function retrieves data from /usr/share/misc/pci....">
<polygon fill="#bfbfbf" stroke="black" points="0,-30 0,-49 173,-49 173,-30 0,-30"/>
<text text-anchor="middle" x="86.5" y="-37" font-family="Helvetica,sans-Serif" font-size="10.00">leanux::pci::getPCIHardwareInfo</text>
</a>
</g>
</g>
<!-- Node2 -->
<g id="node2" class="node">
<title>Node2</title>
<g id="a_node2"><a xlink:href="../../de/d5d/namespaceleanux_1_1pci.html#a757a53b4facb1212c1bf2aa90bea46a3" target="_top" xlink:title="Transform a PCI class code to class name.">
<polygon fill="none" stroke="black" points="209,-49.5 209,-79.5 364,-79.5 364,-49.5 209,-49.5"/>
<text text-anchor="start" x="217" y="-67.5" font-family="Helvetica,sans-Serif" font-size="10.00">leanux::pci::getPCIHardware</text>
<text text-anchor="middle" x="286.5" y="-56.5" font-family="Helvetica,sans-Serif" font-size="10.00">ClassString</text>
</a>
</g>
</g>
<!-- Node1&#45;&gt;Node2 -->
<g id="edge1" class="edge">
<title>Node1&#45;&gt;Node2</title>
<path fill="none" stroke="midnightblue" d="M162.92,-49.02C174.7,-50.51 186.96,-52.06 198.97,-53.57"/>
<polygon fill="midnightblue" stroke="midnightblue" points="198.62,-57.06 208.98,-54.84 199.49,-50.11 198.62,-57.06"/>
</g>
<!-- Node3 -->
<g id="node3" class="node">
<title>Node3</title>
<g id="a_node3"><a xlink:href="../../de/d5d/namespaceleanux_1_1pci.html#a1697f5b7863d9051b766e856eca0e6cc" target="_top" xlink:title="Get the PCI subclass name for a PCI class code http://wiki.osdev.org/PCI#Class_Codes.">
<polygon fill="none" stroke="black" points="210.5,-0.5 210.5,-30.5 362.5,-30.5 362.5,-0.5 210.5,-0.5"/>
<text text-anchor="start" x="218.5" y="-18.5" font-family="Helvetica,sans-Serif" font-size="10.00">leanux::pci::getPCISubClass</text>
<text text-anchor="middle" x="286.5" y="-7.5" font-family="Helvetica,sans-Serif" font-size="10.00">String</text>
</a>
</g>
</g>
<!-- Node1&#45;&gt;Node3 -->
<g id="edge2" class="edge">
<title>Node1&#45;&gt;Node3</title>
<path fill="none" stroke="midnightblue" d="M166.04,-29.98C177.31,-28.61 188.96,-27.2 200.35,-25.82"/>
<polygon fill="midnightblue" stroke="midnightblue" points="200.78,-29.3 210.28,-24.62 199.93,-22.35 200.78,-29.3"/>
</g>
</g>
</svg>
