<?xml version="1.0" encoding="UTF-8" standalone="no"?>
<!DOCTYPE svg PUBLIC "-//W3C//DTD SVG 1.1//EN"
 "http://www.w3.org/Graphics/SVG/1.1/DTD/svg11.dtd">
<!-- Generated by graphviz version 2.43.0 (0)
 -->
<!-- Title: leanux::pci::getPCIDeviceIRQ Pages: 1 -->
<svg width="516pt" height="137pt"
 viewBox="0.00 0.00 516.00 137.00" xmlns="http://www.w3.org/2000/svg" xmlns:xlink="http://www.w3.org/1999/xlink">
<g id="graph0" class="graph" transform="scale(1 1) rotate(0) translate(4 133)">
<title>leanux::pci::getPCIDeviceIRQ</title>
<!-- Node1 -->
<g id="node1" class="node">
<title>Node1</title>
<g id="a_node1"><a xlink:title="Get the IRQ assigned to a PCI device.">
<polygon fill="#bfbfbf" stroke="black" points="350,-55 350,-74 508,-74 508,-55 350,-55"/>
<text text-anchor="middle" x="429" y="-62" font-family="Helvetica,sans-Serif" font-size="10.00">leanux::pci::getPCIDeviceIRQ</text>
</a>
</g>
</g>
<!-- Node2 -->
<g id="node2" class="node">
<title>Node2</title>
<g id="a_node2"><a xlink:href="../../d9/d1f/namespaceleanux_1_1tools_1_1lsys.html#a4a56050ff78d8c77b6a699ff6d5aea50" target="_top" xlink:title="get named field attributes for the SysDevice.">
<polygon fill="none" stroke="black" points="175,-98.5 175,-128.5 280,-128.5 280,-98.5 175,-98.5"/>
<text text-anchor="start" x="183" y="-116.5" font-family="Helvetica,sans-Serif" font-size="10.00">leanux::tools::lsys</text>
<text text-anchor="middle" x="227.5" y="-105.5" font-family="Helvetica,sans-Serif" font-size="10.00">::getLeafColStr</text>
</a>
</g>
</g>
<!-- Node1&#45;&gt;Node2 -->
<g id="edge1" class="edge">
<title>Node1&#45;&gt;Node2</title>
<path fill="none" stroke="midnightblue" d="M379.22,-76.48C349.2,-83.86 310.74,-93.3 280.19,-100.81"/>
<polygon fill="midnightblue" stroke="midnightblue" points="380.18,-79.85 389.06,-74.06 378.51,-73.05 380.18,-79.85"/>
</g>
<!-- Node7 -->
<g id="node4" class="node">
<title>Node7</title>
<g id="a_node4"><a xlink:href="../../d8/dcd/classleanux_1_1sysdevice_1_1PCIDevice.html#a226c6285004593dad421a814e57fb505" target="_top" xlink:title=" ">
<polygon fill="none" stroke="black" points="141,-49.5 141,-79.5 314,-79.5 314,-49.5 141,-49.5"/>
<text text-anchor="start" x="149" y="-67.5" font-family="Helvetica,sans-Serif" font-size="10.00">leanux::sysdevice::</text>
<text text-anchor="middle" x="227.5" y="-56.5" font-family="Helvetica,sans-Serif" font-size="10.00">PCIDevice::getPropertyValueList</text>
</a>
</g>
</g>
<!-- Node1&#45;&gt;Node7 -->
<g id="edge3" class="edge">
<title>Node1&#45;&gt;Node7</title>
<path fill="none" stroke="midnightblue" d="M339.51,-64.5C331.08,-64.5 322.53,-64.5 314.13,-64.5"/>
<polygon fill="midnightblue" stroke="midnightblue" points="339.72,-68 349.72,-64.5 339.72,-61 339.72,-68"/>
</g>
<!-- Node8 -->
<g id="node5" class="node">
<title>Node8</title>
<g id="a_node5"><a xlink:href="../../d9/d99/classleanux_1_1sysdevice_1_1PCIBus.html#aa16e0e79f92e04a8e3cfebae0b133e23" target="_top" xlink:title=" ">
<polygon fill="none" stroke="black" points="148.5,-0.5 148.5,-30.5 306.5,-30.5 306.5,-0.5 148.5,-0.5"/>
<text text-anchor="start" x="156.5" y="-18.5" font-family="Helvetica,sans-Serif" font-size="10.00">leanux::sysdevice::</text>
<text text-anchor="middle" x="227.5" y="-7.5" font-family="Helvetica,sans-Serif" font-size="10.00">PCIBus::getPropertyValueList</text>
</a>
</g>
</g>
<!-- Node1&#45;&gt;Node8 -->
<g id="edge4" class="edge">
<title>Node1&#45;&gt;Node8</title>
<path fill="none" stroke="midnightblue" d="M379.09,-52.49C352.13,-45.86 318.41,-37.58 289.72,-30.54"/>
<polygon fill="midnightblue" stroke="midnightblue" points="378.51,-55.95 389.06,-54.94 380.18,-49.15 378.51,-55.95"/>
</g>
<!-- Node3 -->
<g id="node3" class="node">
<title>Node3</title>
<g id="a_node3"><a xlink:href="../../d9/d1f/namespaceleanux_1_1tools_1_1lsys.html#ad858cdc5736e1be415f25fdaec024b58" target="_top" xlink:title="list devices, filtered if opt_t is set.">
<polygon fill="none" stroke="red" points="0,-98.5 0,-128.5 105,-128.5 105,-98.5 0,-98.5"/>
<text text-anchor="start" x="8" y="-116.5" font-family="Helvetica,sans-Serif" font-size="10.00">leanux::tools::lsys</text>
<text text-anchor="middle" x="52.5" y="-105.5" font-family="Helvetica,sans-Serif" font-size="10.00">::listDevices</text>
</a>
</g>
</g>
<!-- Node2&#45;&gt;Node3 -->
<g id="edge2" class="edge">
<title>Node2&#45;&gt;Node3</title>
<path fill="none" stroke="midnightblue" d="M164.59,-113.5C145.09,-113.5 123.77,-113.5 105.07,-113.5"/>
<polygon fill="midnightblue" stroke="midnightblue" points="164.59,-117 174.59,-113.5 164.59,-110 164.59,-117"/>
</g>
</g>
</svg>
