<?xml version="1.0" encoding="UTF-8" standalone="no"?>
<!DOCTYPE svg PUBLIC "-//W3C//DTD SVG 1.1//EN"
 "http://www.w3.org/Graphics/SVG/1.1/DTD/svg11.dtd">
<!-- Generated by graphviz version 2.43.0 (0)
 -->
<!-- Title: leanux::pci::enumPCIATAPorts Pages: 1 -->
<svg width="543pt" height="83pt"
 viewBox="0.00 0.00 543.00 83.00" xmlns="http://www.w3.org/2000/svg" xmlns:xlink="http://www.w3.org/1999/xlink">
<g id="graph0" class="graph" transform="scale(1 1) rotate(0) translate(4 79)">
<title>leanux::pci::enumPCIATAPorts</title>
<!-- Node1 -->
<g id="node1" class="node">
<title>Node1</title>
<g id="a_node1"><a xlink:title="Enumerate ata ports for a given PCI device.">
<polygon fill="#bfbfbf" stroke="black" points="0,-28 0,-47 162,-47 162,-28 0,-28"/>
<text text-anchor="middle" x="81" y="-35" font-family="Helvetica,sans-Serif" font-size="10.00">leanux::pci::enumPCIATAPorts</text>
</a>
</g>
</g>
<!-- Node2 -->
<g id="node2" class="node">
<title>Node2</title>
<g id="a_node2"><a xlink:href="../../de/d5d/namespaceleanux_1_1pci.html#aab3769d433d88dded538fd64400409ff" target="_top" xlink:title="Transform a PCI class code to a PCIHardwareClass.">
<polygon fill="none" stroke="black" points="202.5,-44.5 202.5,-74.5 357.5,-74.5 357.5,-44.5 202.5,-44.5"/>
<text text-anchor="start" x="210.5" y="-62.5" font-family="Helvetica,sans-Serif" font-size="10.00">leanux::pci::getPCIHardware</text>
<text text-anchor="middle" x="280" y="-51.5" font-family="Helvetica,sans-Serif" font-size="10.00">Class</text>
</a>
</g>
</g>
<!-- Node1&#45;&gt;Node2 -->
<g id="edge1" class="edge">
<title>Node1&#45;&gt;Node2</title>
<path fill="none" stroke="midnightblue" d="M162.13,-46.45C172.11,-47.56 182.36,-48.71 192.44,-49.83"/>
<polygon fill="midnightblue" stroke="midnightblue" points="192.12,-53.32 202.45,-50.95 192.9,-46.36 192.12,-53.32"/>
</g>
<!-- Node3 -->
<g id="node3" class="node">
<title>Node3</title>
<g id="a_node3"><a xlink:href="../../de/d5d/namespaceleanux_1_1pci.html#a48810ffbe83e8a8e357edfa1181c33a5" target="_top" xlink:title="get PCIHardwareId for a PCI device path relative to /sys/devives/">
<polygon fill="none" stroke="black" points="198,-6 198,-25 362,-25 362,-6 198,-6"/>
<text text-anchor="middle" x="280" y="-13" font-family="Helvetica,sans-Serif" font-size="10.00">leanux::pci::getPCIHardwareId</text>
</a>
</g>
</g>
<!-- Node1&#45;&gt;Node3 -->
<g id="edge2" class="edge">
<title>Node1&#45;&gt;Node3</title>
<path fill="none" stroke="midnightblue" d="M162.13,-28.55C170.63,-27.6 179.31,-26.63 187.93,-25.67"/>
<polygon fill="midnightblue" stroke="midnightblue" points="188.43,-29.14 197.98,-24.55 187.66,-22.18 188.43,-29.14"/>
</g>
<!-- Node4 -->
<g id="node4" class="node">
<title>Node4</title>
<g id="a_node4"><a xlink:href="../../d8/db1/namespaceleanux_1_1util.html#a7efa8c5cecc9bb8beada58ee60fa71c4" target="_top" xlink:title="read the first data in the file as a hexadecimal string representation of a signed long.">
<polygon fill="none" stroke="black" points="398,-0.5 398,-30.5 535,-30.5 535,-0.5 398,-0.5"/>
<text text-anchor="start" x="406" y="-18.5" font-family="Helvetica,sans-Serif" font-size="10.00">leanux::util::fileReadHex</text>
<text text-anchor="middle" x="466.5" y="-7.5" font-family="Helvetica,sans-Serif" font-size="10.00">String</text>
</a>
</g>
</g>
<!-- Node3&#45;&gt;Node4 -->
<g id="edge3" class="edge">
<title>Node3&#45;&gt;Node4</title>
<path fill="none" stroke="midnightblue" d="M362.19,-15.5C370.65,-15.5 379.23,-15.5 387.64,-15.5"/>
<polygon fill="midnightblue" stroke="midnightblue" points="387.81,-19 397.81,-15.5 387.81,-12 387.81,-19"/>
</g>
</g>
</svg>
