<?xml version="1.0" encoding="UTF-8" standalone="no"?>
<!DOCTYPE svg PUBLIC "-//W3C//DTD SVG 1.1//EN"
 "http://www.w3.org/Graphics/SVG/1.1/DTD/svg11.dtd">
<!-- Generated by graphviz version 2.43.0 (0)
 -->
<!-- Title: leanux::pci::enumPCIDevicePaths Pages: 1 -->
<svg width="340pt" height="127pt"
 viewBox="0.00 0.00 340.00 126.50" xmlns="http://www.w3.org/2000/svg" xmlns:xlink="http://www.w3.org/1999/xlink">
<g id="graph0" class="graph" transform="scale(1 1) rotate(0) translate(4 122.5)">
<title>leanux::pci::enumPCIDevicePaths</title>
<!-- Node1 -->
<g id="node1" class="node">
<title>Node1</title>
<g id="a_node1"><a xlink:title="get PCI device paths relative to /sys/devices/">
<polygon fill="#bfbfbf" stroke="black" points="179,-39 179,-69 332,-69 332,-39 179,-39"/>
<text text-anchor="start" x="187" y="-57" font-family="Helvetica,sans-Serif" font-size="10.00">leanux::pci::enumPCIDevice</text>
<text text-anchor="middle" x="255.5" y="-46" font-family="Helvetica,sans-Serif" font-size="10.00">Paths</text>
</a>
</g>
</g>
<!-- Node2 -->
<g id="node2" class="node">
<title>Node2</title>
<g id="a_node2"><a xlink:href="../../de/d5d/namespaceleanux_1_1pci.html#a40970cc37923958a06a10118e3dac9f9" target="_top" xlink:title="return a device path relative to /sys/devices to the PCI device providing the ATA port.">
<polygon fill="none" stroke="black" points="0,-88 0,-118 143,-118 143,-88 0,-88"/>
<text text-anchor="start" x="8" y="-106" font-family="Helvetica,sans-Serif" font-size="10.00">leanux::pci::findPCIDevice</text>
<text text-anchor="middle" x="71.5" y="-95" font-family="Helvetica,sans-Serif" font-size="10.00">ByATAPort</text>
</a>
</g>
</g>
<!-- Node1&#45;&gt;Node2 -->
<g id="edge1" class="edge">
<title>Node1&#45;&gt;Node2</title>
<path fill="none" stroke="midnightblue" d="M188.58,-71.75C168.85,-77.06 147.42,-82.83 128.41,-87.95"/>
<polygon fill="midnightblue" stroke="midnightblue" points="189.66,-75.08 198.41,-69.1 187.84,-68.32 189.66,-75.08"/>
</g>
<!-- Node3 -->
<g id="node3" class="node">
<title>Node3</title>
<g id="a_node3"><a xlink:href="../../de/d5d/namespaceleanux_1_1pci.html#ac20fe85adfa5c85d69820d5a083bdf5f" target="_top" xlink:title="return a device path relative to /sys/devices to the PCI device assigned the irq">
<polygon fill="none" stroke="black" points="0,-39 0,-69 143,-69 143,-39 0,-39"/>
<text text-anchor="start" x="8" y="-57" font-family="Helvetica,sans-Serif" font-size="10.00">leanux::pci::findPCIDevice</text>
<text text-anchor="middle" x="71.5" y="-46" font-family="Helvetica,sans-Serif" font-size="10.00">ByIRQ</text>
</a>
</g>
</g>
<!-- Node1&#45;&gt;Node3 -->
<g id="edge2" class="edge">
<title>Node1&#45;&gt;Node3</title>
<path fill="none" stroke="midnightblue" d="M168.86,-54C160.27,-54 151.61,-54 143.2,-54"/>
<polygon fill="midnightblue" stroke="midnightblue" points="168.9,-57.5 178.9,-54 168.9,-50.5 168.9,-57.5"/>
</g>
<!-- Node4 -->
<g id="node4" class="node">
<title>Node4</title>
<g id="a_node4"><a xlink:href="../../de/d5d/namespaceleanux_1_1pci.html#ad4d22d6399146c941bc1c82bb94fa1b6" target="_top" xlink:title=" ">
<polygon fill="none" stroke="black" points="4.5,-0.5 4.5,-19.5 138.5,-19.5 138.5,-0.5 4.5,-0.5"/>
<text text-anchor="middle" x="71.5" y="-7.5" font-family="Helvetica,sans-Serif" font-size="10.00">leanux::pci::isPCIDevice</text>
</a>
</g>
</g>
<!-- Node1&#45;&gt;Node4 -->
<g id="edge3" class="edge">
<title>Node1&#45;&gt;Node4</title>
<path fill="none" stroke="midnightblue" d="M182.54,-36.6C158.45,-30.78 132.5,-24.5 111.85,-19.51"/>
<polygon fill="midnightblue" stroke="midnightblue" points="181.83,-40.03 192.37,-38.98 183.48,-33.23 181.83,-40.03"/>
</g>
</g>
</svg>
