<?xml version="1.0" encoding="UTF-8" standalone="no"?>
<!DOCTYPE svg PUBLIC "-//W3C//DTD SVG 1.1//EN"
 "http://www.w3.org/Graphics/SVG/1.1/DTD/svg11.dtd">
<!-- Generated by graphviz version 2.43.0 (0)
 -->
<!-- Title: leanux::pci::findPCIDeviceByATAPort Pages: 1 -->
<svg width="549pt" height="151pt"
 viewBox="0.00 0.00 549.00 151.00" xmlns="http://www.w3.org/2000/svg" xmlns:xlink="http://www.w3.org/1999/xlink">
<g id="graph0" class="graph" transform="scale(1 1) rotate(0) translate(4 147)">
<title>leanux::pci::findPCIDeviceByATAPort</title>
<!-- Node1 -->
<g id="node1" class="node">
<title>Node1</title>
<g id="a_node1"><a xlink:title="return a device path relative to /sys/devices to the PCI device providing the ATA port.">
<polygon fill="#bfbfbf" stroke="black" points="0,-63.5 0,-93.5 143,-93.5 143,-63.5 0,-63.5"/>
<text text-anchor="start" x="8" y="-81.5" font-family="Helvetica,sans-Serif" font-size="10.00">leanux::pci::findPCIDevice</text>
<text text-anchor="middle" x="71.5" y="-70.5" font-family="Helvetica,sans-Serif" font-size="10.00">ByATAPort</text>
</a>
</g>
</g>
<!-- Node2 -->
<g id="node2" class="node">
<title>Node2</title>
<g id="a_node2"><a xlink:href="../../de/d5d/namespaceleanux_1_1pci.html#a1967209f3c225d3aec49ccd48f504777" target="_top" xlink:title="Enumerate ata ports for a given PCI device.">
<polygon fill="none" stroke="black" points="179,-88 179,-107 341,-107 341,-88 179,-88"/>
<text text-anchor="middle" x="260" y="-95" font-family="Helvetica,sans-Serif" font-size="10.00">leanux::pci::enumPCIATAPorts</text>
</a>
</g>
</g>
<!-- Node1&#45;&gt;Node2 -->
<g id="edge1" class="edge">
<title>Node1&#45;&gt;Node2</title>
<path fill="none" stroke="midnightblue" d="M143.01,-85.68C151.39,-86.54 160.02,-87.42 168.63,-88.29"/>
<polygon fill="midnightblue" stroke="midnightblue" points="168.4,-91.79 178.7,-89.32 169.11,-84.82 168.4,-91.79"/>
</g>
<!-- Node3 -->
<g id="node3" class="node">
<title>Node3</title>
<g id="a_node3"><a xlink:href="../../de/d5d/namespaceleanux_1_1pci.html#aab3769d433d88dded538fd64400409ff" target="_top" xlink:title="Transform a PCI class code to a PCIHardwareClass.">
<polygon fill="none" stroke="black" points="381.5,-112.5 381.5,-142.5 536.5,-142.5 536.5,-112.5 381.5,-112.5"/>
<text text-anchor="start" x="389.5" y="-130.5" font-family="Helvetica,sans-Serif" font-size="10.00">leanux::pci::getPCIHardware</text>
<text text-anchor="middle" x="459" y="-119.5" font-family="Helvetica,sans-Serif" font-size="10.00">Class</text>
</a>
</g>
</g>
<!-- Node1&#45;&gt;Node3 -->
<g id="edge6" class="edge">
<title>Node1&#45;&gt;Node3</title>
<path fill="none" stroke="midnightblue" d="M106.29,-93.53C126.87,-101.93 153.94,-111.65 179,-116.5 242.51,-128.78 315.62,-131.25 371.06,-130.8"/>
<polygon fill="midnightblue" stroke="midnightblue" points="371.24,-134.3 381.2,-130.68 371.16,-127.3 371.24,-134.3"/>
</g>
<!-- Node4 -->
<g id="node4" class="node">
<title>Node4</title>
<g id="a_node4"><a xlink:href="../../de/d5d/namespaceleanux_1_1pci.html#a48810ffbe83e8a8e357edfa1181c33a5" target="_top" xlink:title="get PCIHardwareId for a PCI device path relative to /sys/devives/">
<polygon fill="none" stroke="red" points="377,-58 377,-77 541,-77 541,-58 377,-58"/>
<text text-anchor="middle" x="459" y="-65" font-family="Helvetica,sans-Serif" font-size="10.00">leanux::pci::getPCIHardwareId</text>
</a>
</g>
</g>
<!-- Node1&#45;&gt;Node4 -->
<g id="edge7" class="edge">
<title>Node1&#45;&gt;Node4</title>
<path fill="none" stroke="midnightblue" d="M143.21,-76.48C205.96,-74.69 298.02,-72.06 366.39,-70.11"/>
<polygon fill="midnightblue" stroke="midnightblue" points="366.83,-73.6 376.73,-69.82 366.63,-66.61 366.83,-73.6"/>
</g>
<!-- Node6 -->
<g id="node5" class="node">
<title>Node6</title>
<g id="a_node5"><a xlink:href="../../de/d5d/namespaceleanux_1_1pci.html#a95ca6d83378b56a88dfc2a37e2b2fc8c" target="_top" xlink:title="get PCI device paths relative to /sys/devices/">
<polygon fill="none" stroke="black" points="183.5,-0.5 183.5,-30.5 336.5,-30.5 336.5,-0.5 183.5,-0.5"/>
<text text-anchor="start" x="191.5" y="-18.5" font-family="Helvetica,sans-Serif" font-size="10.00">leanux::pci::enumPCIDevice</text>
<text text-anchor="middle" x="260" y="-7.5" font-family="Helvetica,sans-Serif" font-size="10.00">Paths</text>
</a>
</g>
</g>
<!-- Node1&#45;&gt;Node6 -->
<g id="edge4" class="edge">
<title>Node1&#45;&gt;Node6</title>
<path fill="none" stroke="midnightblue" d="M117.17,-63.41C143.49,-54.52 176.97,-43.21 204.79,-33.81"/>
<polygon fill="midnightblue" stroke="midnightblue" points="206.02,-37.09 214.37,-30.58 203.78,-30.46 206.02,-37.09"/>
</g>
<!-- Node2&#45;&gt;Node3 -->
<g id="edge2" class="edge">
<title>Node2&#45;&gt;Node3</title>
<path fill="none" stroke="midnightblue" d="M323.6,-107.03C338.81,-109.35 355.34,-111.87 371.44,-114.32"/>
<polygon fill="midnightblue" stroke="midnightblue" points="370.98,-117.79 381.39,-115.83 372.03,-110.87 370.98,-117.79"/>
</g>
<!-- Node2&#45;&gt;Node4 -->
<g id="edge3" class="edge">
<title>Node2&#45;&gt;Node4</title>
<path fill="none" stroke="midnightblue" d="M323.6,-87.97C343.26,-84.97 365.14,-81.64 385.43,-78.55"/>
<polygon fill="midnightblue" stroke="midnightblue" points="386.2,-81.97 395.56,-77.01 385.15,-75.05 386.2,-81.97"/>
</g>
<!-- Node7 -->
<g id="node6" class="node">
<title>Node7</title>
<g id="a_node6"><a xlink:href="../../d8/db1/namespaceleanux_1_1util.html#a9ae898fe02934e4905ef4665c2871158" target="_top" xlink:title="Convert a path on a filesystem to the realpath if the path is a link.">
<polygon fill="none" stroke="black" points="400.5,-6 400.5,-25 517.5,-25 517.5,-6 400.5,-6"/>
<text text-anchor="middle" x="459" y="-13" font-family="Helvetica,sans-Serif" font-size="10.00">leanux::util::realPath</text>
</a>
</g>
</g>
<!-- Node6&#45;&gt;Node7 -->
<g id="edge5" class="edge">
<title>Node6&#45;&gt;Node7</title>
<path fill="none" stroke="midnightblue" d="M336.6,-15.5C354.29,-15.5 373.02,-15.5 390.34,-15.5"/>
<polygon fill="midnightblue" stroke="midnightblue" points="390.35,-19 400.35,-15.5 390.35,-12 390.35,-19"/>
</g>
</g>
</svg>
