<?xml version="1.0" encoding="UTF-8" standalone="no"?>
<!DOCTYPE svg PUBLIC "-//W3C//DTD SVG 1.1//EN"
 "http://www.w3.org/Graphics/SVG/1.1/DTD/svg11.dtd">
<!-- Generated by graphviz version 2.43.0 (0)
 -->
<!-- Title: leanux::pci::findPCIDeviceByIRQ Pages: 1 -->
<svg width="493pt" height="116pt"
 viewBox="0.00 0.00 493.00 115.50" xmlns="http://www.w3.org/2000/svg" xmlns:xlink="http://www.w3.org/1999/xlink">
<g id="graph0" class="graph" transform="scale(1 1) rotate(0) translate(4 111.5)">
<title>leanux::pci::findPCIDeviceByIRQ</title>
<!-- Node1 -->
<g id="node1" class="node">
<title>Node1</title>
<g id="a_node1"><a xlink:title="return a device path relative to /sys/devices to the PCI device assigned the irq">
<polygon fill="#bfbfbf" stroke="black" points="0,-33 0,-63 143,-63 143,-33 0,-33"/>
<text text-anchor="start" x="8" y="-51" font-family="Helvetica,sans-Serif" font-size="10.00">leanux::pci::findPCIDevice</text>
<text text-anchor="middle" x="71.5" y="-40" font-family="Helvetica,sans-Serif" font-size="10.00">ByIRQ</text>
</a>
</g>
</g>
<!-- Node2 -->
<g id="node2" class="node">
<title>Node2</title>
<g id="a_node2"><a xlink:href="../../de/d5d/namespaceleanux_1_1pci.html#a95ca6d83378b56a88dfc2a37e2b2fc8c" target="_top" xlink:title="get PCI device paths relative to /sys/devices/">
<polygon fill="none" stroke="black" points="179,-77 179,-107 332,-107 332,-77 179,-77"/>
<text text-anchor="start" x="187" y="-95" font-family="Helvetica,sans-Serif" font-size="10.00">leanux::pci::enumPCIDevice</text>
<text text-anchor="middle" x="255.5" y="-84" font-family="Helvetica,sans-Serif" font-size="10.00">Paths</text>
</a>
</g>
</g>
<!-- Node1&#45;&gt;Node2 -->
<g id="edge1" class="edge">
<title>Node1&#45;&gt;Node2</title>
<path fill="none" stroke="midnightblue" d="M134.63,-63.02C150.06,-66.75 166.73,-70.78 182.59,-74.62"/>
<polygon fill="midnightblue" stroke="midnightblue" points="181.8,-78.03 192.35,-76.97 183.45,-71.22 181.8,-78.03"/>
</g>
<!-- Node4 -->
<g id="node4" class="node">
<title>Node4</title>
<g id="a_node4"><a xlink:href="../../d8/db1/namespaceleanux_1_1util.html#a6421ca2c46c56eebe1a486c6a498ce7d" target="_top" xlink:title="Test if a file exists and can be read.">
<polygon fill="none" stroke="black" points="180,-38.5 180,-57.5 331,-57.5 331,-38.5 180,-38.5"/>
<text text-anchor="middle" x="255.5" y="-45.5" font-family="Helvetica,sans-Serif" font-size="10.00">leanux::util::fileReadAccess</text>
</a>
</g>
</g>
<!-- Node1&#45;&gt;Node4 -->
<g id="edge3" class="edge">
<title>Node1&#45;&gt;Node4</title>
<path fill="none" stroke="midnightblue" d="M143.13,-48C151.74,-48 160.62,-48 169.42,-48"/>
<polygon fill="midnightblue" stroke="midnightblue" points="169.7,-51.5 179.7,-48 169.7,-44.5 169.7,-51.5"/>
</g>
<!-- Node5 -->
<g id="node5" class="node">
<title>Node5</title>
<g id="a_node5"><a xlink:href="../../d8/db1/namespaceleanux_1_1util.html#aff0a888cebf58e4cf942fc3dc681aac8" target="_top" xlink:title="read the first data in the file as a string representation of a signed int.">
<polygon fill="none" stroke="black" points="190.5,-0.5 190.5,-19.5 320.5,-19.5 320.5,-0.5 190.5,-0.5"/>
<text text-anchor="middle" x="255.5" y="-7.5" font-family="Helvetica,sans-Serif" font-size="10.00">leanux::util::fileReadInt</text>
</a>
</g>
</g>
<!-- Node1&#45;&gt;Node5 -->
<g id="edge4" class="edge">
<title>Node1&#45;&gt;Node5</title>
<path fill="none" stroke="midnightblue" d="M143.13,-33.25C161.59,-29.4 181.22,-25.3 198.79,-21.63"/>
<polygon fill="midnightblue" stroke="midnightblue" points="199.79,-25 208.86,-19.53 198.36,-18.15 199.79,-25"/>
</g>
<!-- Node3 -->
<g id="node3" class="node">
<title>Node3</title>
<g id="a_node3"><a xlink:href="../../d8/db1/namespaceleanux_1_1util.html#a9ae898fe02934e4905ef4665c2871158" target="_top" xlink:title="Convert a path on a filesystem to the realpath if the path is a link.">
<polygon fill="none" stroke="black" points="368,-82.5 368,-101.5 485,-101.5 485,-82.5 368,-82.5"/>
<text text-anchor="middle" x="426.5" y="-89.5" font-family="Helvetica,sans-Serif" font-size="10.00">leanux::util::realPath</text>
</a>
</g>
</g>
<!-- Node2&#45;&gt;Node3 -->
<g id="edge2" class="edge">
<title>Node2&#45;&gt;Node3</title>
<path fill="none" stroke="midnightblue" d="M332.1,-92C340.66,-92 349.35,-92 357.8,-92"/>
<polygon fill="midnightblue" stroke="midnightblue" points="357.96,-95.5 367.96,-92 357.96,-88.5 357.96,-95.5"/>
</g>
</g>
</svg>
