<?xml version="1.0" encoding="UTF-8" standalone="no"?>
<!DOCTYPE svg PUBLIC "-//W3C//DTD SVG 1.1//EN"
 "http://www.w3.org/Graphics/SVG/1.1/DTD/svg11.dtd">
<!-- Generated by graphviz version 2.43.0 (0)
 -->
<!-- Title: leanux::pci::getPCIHardwareClass Pages: 1 -->
<svg width="540pt" height="53pt"
 viewBox="0.00 0.00 540.00 52.50" xmlns="http://www.w3.org/2000/svg" xmlns:xlink="http://www.w3.org/1999/xlink">
<g id="graph0" class="graph" transform="scale(1 1) rotate(0) translate(4 48.5)">
<title>leanux::pci::getPCIHardwareClass</title>
<!-- Node1 -->
<g id="node1" class="node">
<title>Node1</title>
<g id="a_node1"><a xlink:title="Transform a PCI class code to a PCIHardwareClass.">
<polygon fill="#bfbfbf" stroke="black" points="377,-0.5 377,-30.5 532,-30.5 532,-0.5 377,-0.5"/>
<text text-anchor="start" x="385" y="-18.5" font-family="Helvetica,sans-Serif" font-size="10.00">leanux::pci::getPCIHardware</text>
<text text-anchor="middle" x="454.5" y="-7.5" font-family="Helvetica,sans-Serif" font-size="10.00">Class</text>
</a>
</g>
</g>
<!-- Node2 -->
<g id="node2" class="node">
<title>Node2</title>
<g id="a_node2"><a xlink:href="../../de/d5d/namespaceleanux_1_1pci.html#a1967209f3c225d3aec49ccd48f504777" target="_top" xlink:title="Enumerate ata ports for a given PCI device.">
<polygon fill="none" stroke="black" points="179,-25 179,-44 341,-44 341,-25 179,-25"/>
<text text-anchor="middle" x="260" y="-32" font-family="Helvetica,sans-Serif" font-size="10.00">leanux::pci::enumPCIATAPorts</text>
</a>
</g>
</g>
<!-- Node1&#45;&gt;Node2 -->
<g id="edge1" class="edge">
<title>Node1&#45;&gt;Node2</title>
<path fill="none" stroke="midnightblue" d="M366.88,-24.05C358.31,-24.89 349.65,-25.75 341.16,-26.59"/>
<polygon fill="midnightblue" stroke="midnightblue" points="367.26,-27.53 376.87,-23.06 366.57,-20.56 367.26,-27.53"/>
</g>
<!-- Node3 -->
<g id="node3" class="node">
<title>Node3</title>
<g id="a_node3"><a xlink:href="../../de/d5d/namespaceleanux_1_1pci.html#a40970cc37923958a06a10118e3dac9f9" target="_top" xlink:title="return a device path relative to /sys/devices to the PCI device providing the ATA port.">
<polygon fill="none" stroke="black" points="0,-0.5 0,-30.5 143,-30.5 143,-0.5 0,-0.5"/>
<text text-anchor="start" x="8" y="-18.5" font-family="Helvetica,sans-Serif" font-size="10.00">leanux::pci::findPCIDevice</text>
<text text-anchor="middle" x="71.5" y="-7.5" font-family="Helvetica,sans-Serif" font-size="10.00">ByATAPort</text>
</a>
</g>
</g>
<!-- Node1&#45;&gt;Node3 -->
<g id="edge3" class="edge">
<title>Node1&#45;&gt;Node3</title>
<path fill="none" stroke="midnightblue" d="M366.65,-15.5C299.03,-15.5 206.37,-15.5 143.23,-15.5"/>
<polygon fill="midnightblue" stroke="midnightblue" points="366.86,-19 376.86,-15.5 366.86,-12 366.86,-19"/>
</g>
<!-- Node2&#45;&gt;Node3 -->
<g id="edge2" class="edge">
<title>Node2&#45;&gt;Node3</title>
<path fill="none" stroke="midnightblue" d="M168.78,-25.31C160.19,-24.43 151.57,-23.56 143.21,-22.7"/>
<polygon fill="midnightblue" stroke="midnightblue" points="168.52,-28.8 178.82,-26.33 169.23,-21.84 168.52,-28.8"/>
</g>
</g>
</svg>
