<?xml version="1.0" encoding="UTF-8" standalone="no"?>
<!DOCTYPE svg PUBLIC "-//W3C//DTD SVG 1.1//EN"
 "http://www.w3.org/Graphics/SVG/1.1/DTD/svg11.dtd">
<!-- Generated by graphviz version 2.43.0 (0)
 -->
<!-- Title: leanux::pci::init Pages: 1 -->
<svg width="359pt" height="284pt"
 viewBox="0.00 0.00 359.00 284.00" xmlns="http://www.w3.org/2000/svg" xmlns:xlink="http://www.w3.org/1999/xlink">
<g id="graph0" class="graph" transform="scale(1 1) rotate(0) translate(4 280)">
<title>leanux::pci::init</title>
<!-- Node1 -->
<g id="node1" class="node">
<title>Node1</title>
<g id="a_node1"><a xlink:title="Initialize pci namespace.">
<polygon fill="#bfbfbf" stroke="black" points="259,-128 259,-147 351,-147 351,-128 259,-128"/>
<text text-anchor="middle" x="305" y="-135" font-family="Helvetica,sans-Serif" font-size="10.00">leanux::pci::init</text>
</a>
</g>
</g>
<!-- Node2 -->
<g id="node2" class="node">
<title>Node2</title>
<g id="a_node2"><a xlink:href="../../d2/dd1/namespaceleanux.html#a757c5a3a5fb84a0ab93de54fd0c8db30" target="_top" xlink:title="Initialize leanux, run checks to verify leanux is compatible with the runtime environment.">
<polygon fill="none" stroke="black" points="152,-128 152,-147 223,-147 223,-128 152,-128"/>
<text text-anchor="middle" x="187.5" y="-135" font-family="Helvetica,sans-Serif" font-size="10.00">leanux::init</text>
</a>
</g>
</g>
<!-- Node1&#45;&gt;Node2 -->
<g id="edge1" class="edge">
<title>Node1&#45;&gt;Node2</title>
<path fill="none" stroke="midnightblue" d="M248.64,-137.5C240.02,-137.5 231.32,-137.5 223.33,-137.5"/>
<polygon fill="midnightblue" stroke="midnightblue" points="248.68,-141 258.68,-137.5 248.68,-134 248.68,-141"/>
</g>
<!-- Node3 -->
<g id="node3" class="node">
<title>Node3</title>
<g id="a_node3"><a xlink:href="../../da/dbe/namespaceleanux_1_1tools_1_1lmon.html#a7f59af183bc55b66e3dc0844b473daaf" target="_top" xlink:title=" ">
<polygon fill="none" stroke="red" points="3,-245.5 3,-275.5 113,-275.5 113,-245.5 3,-245.5"/>
<text text-anchor="start" x="11" y="-263.5" font-family="Helvetica,sans-Serif" font-size="10.00">leanux::tools::lmon</text>
<text text-anchor="middle" x="58" y="-252.5" font-family="Helvetica,sans-Serif" font-size="10.00">::main</text>
</a>
</g>
</g>
<!-- Node2&#45;&gt;Node3 -->
<g id="edge2" class="edge">
<title>Node2&#45;&gt;Node3</title>
<path fill="none" stroke="midnightblue" d="M177.45,-155.93C165.89,-177.79 143.99,-214.08 116,-236.5 111.81,-239.86 107.08,-242.82 102.19,-245.41"/>
<polygon fill="midnightblue" stroke="midnightblue" points="180.58,-157.5 182.02,-147.01 174.35,-154.31 180.58,-157.5"/>
</g>
<!-- Node5 -->
<g id="node4" class="node">
<title>Node5</title>
<g id="a_node4"><a xlink:href="../../d2/d89/namespaceleanux_1_1tools_1_1labbix.html#a482626b839aaf80a44f973eed61b69a6" target="_top" xlink:title=" ">
<polygon fill="none" stroke="red" points="0,-196.5 0,-226.5 116,-226.5 116,-196.5 0,-196.5"/>
<text text-anchor="start" x="8" y="-214.5" font-family="Helvetica,sans-Serif" font-size="10.00">leanux::tools::labbix</text>
<text text-anchor="middle" x="58" y="-203.5" font-family="Helvetica,sans-Serif" font-size="10.00">::main</text>
</a>
</g>
</g>
<!-- Node2&#45;&gt;Node5 -->
<g id="edge3" class="edge">
<title>Node2&#45;&gt;Node5</title>
<path fill="none" stroke="midnightblue" d="M166.36,-153.58C152.66,-164.05 133.86,-177.57 116,-187.5 110.28,-190.68 104.04,-193.71 97.87,-196.48"/>
<polygon fill="midnightblue" stroke="midnightblue" points="168.81,-156.11 174.56,-147.2 164.51,-150.58 168.81,-156.11"/>
</g>
<!-- Node7 -->
<g id="node5" class="node">
<title>Node7</title>
<g id="a_node5"><a xlink:href="../../d4/d62/namespaceleanux_1_1tools_1_1lard.html#aecb1bb340203cfe30357d494d4b2622e" target="_top" xlink:title="Entry point.">
<polygon fill="none" stroke="red" points="6,-147.5 6,-177.5 110,-177.5 110,-147.5 6,-147.5"/>
<text text-anchor="start" x="14" y="-165.5" font-family="Helvetica,sans-Serif" font-size="10.00">leanux::tools::lard</text>
<text text-anchor="middle" x="58" y="-154.5" font-family="Helvetica,sans-Serif" font-size="10.00">::main</text>
</a>
</g>
</g>
<!-- Node2&#45;&gt;Node7 -->
<g id="edge4" class="edge">
<title>Node2&#45;&gt;Node7</title>
<path fill="none" stroke="midnightblue" d="M142.04,-146.22C131.79,-148.23 120.81,-150.38 110.3,-152.44"/>
<polygon fill="midnightblue" stroke="midnightblue" points="142.86,-149.62 152,-144.27 141.51,-142.75 142.86,-149.62"/>
</g>
<!-- Node9 -->
<g id="node6" class="node">
<title>Node9</title>
<g id="a_node6"><a xlink:href="../../d9/d1f/namespaceleanux_1_1tools_1_1lsys.html#aa2b4de7a80d63592f6207ce5951cf966" target="_top" xlink:title="Entry point.">
<polygon fill="none" stroke="red" points="5.5,-98.5 5.5,-128.5 110.5,-128.5 110.5,-98.5 5.5,-98.5"/>
<text text-anchor="start" x="13.5" y="-116.5" font-family="Helvetica,sans-Serif" font-size="10.00">leanux::tools::lsys</text>
<text text-anchor="middle" x="58" y="-105.5" font-family="Helvetica,sans-Serif" font-size="10.00">::main</text>
</a>
</g>
</g>
<!-- Node2&#45;&gt;Node9 -->
<g id="edge5" class="edge">
<title>Node2&#45;&gt;Node9</title>
<path fill="none" stroke="midnightblue" d="M142.16,-129.15C132.03,-127.25 121.19,-125.21 110.78,-123.25"/>
<polygon fill="midnightblue" stroke="midnightblue" points="141.52,-132.59 152,-131.01 142.82,-125.72 141.52,-132.59"/>
</g>
<!-- Node11 -->
<g id="node7" class="node">
<title>Node11</title>
<g id="a_node7"><a xlink:href="../../d5/d1b/namespaceleanux_1_1tools_1_1lblk.html#a7e4a52393fd43c98af0e5e16603b54df" target="_top" xlink:title="Entry point.">
<polygon fill="none" stroke="red" points="6,-49.5 6,-79.5 110,-79.5 110,-49.5 6,-49.5"/>
<text text-anchor="start" x="14" y="-67.5" font-family="Helvetica,sans-Serif" font-size="10.00">leanux::tools::lblk</text>
<text text-anchor="middle" x="58" y="-56.5" font-family="Helvetica,sans-Serif" font-size="10.00">::main</text>
</a>
</g>
</g>
<!-- Node2&#45;&gt;Node11 -->
<g id="edge6" class="edge">
<title>Node2&#45;&gt;Node11</title>
<path fill="none" stroke="midnightblue" d="M165.72,-121.85C152.01,-111.91 133.43,-99.15 116,-89.5 109.67,-85.99 102.74,-82.61 95.97,-79.53"/>
<polygon fill="midnightblue" stroke="midnightblue" points="163.83,-124.81 173.96,-127.91 167.98,-119.17 163.83,-124.81"/>
</g>
<!-- Node13 -->
<g id="node8" class="node">
<title>Node13</title>
<g id="a_node8"><a xlink:href="../../d6/dd3/namespaceleanux_1_1tools_1_1lrep.html#aa0e1422d8d75831ea3801ffa728bf436" target="_top" xlink:title=" ">
<polygon fill="none" stroke="red" points="6,-0.5 6,-30.5 110,-30.5 110,-0.5 6,-0.5"/>
<text text-anchor="start" x="14" y="-18.5" font-family="Helvetica,sans-Serif" font-size="10.00">leanux::tools::lrep</text>
<text text-anchor="middle" x="58" y="-7.5" font-family="Helvetica,sans-Serif" font-size="10.00">::main</text>
</a>
</g>
</g>
<!-- Node2&#45;&gt;Node13 -->
<g id="edge7" class="edge">
<title>Node2&#45;&gt;Node13</title>
<path fill="none" stroke="midnightblue" d="M176.96,-118.9C165.18,-97.49 143.3,-62.48 116,-40.5 111.37,-36.77 106.1,-33.49 100.68,-30.64"/>
<polygon fill="midnightblue" stroke="midnightblue" points="173.99,-120.76 181.79,-127.94 180.17,-117.47 173.99,-120.76"/>
</g>
</g>
</svg>
