<?xml version="1.0" encoding="UTF-8" standalone="no"?>
<!DOCTYPE svg PUBLIC "-//W3C//DTD SVG 1.1//EN"
 "http://www.w3.org/Graphics/SVG/1.1/DTD/svg11.dtd">
<!-- Generated by graphviz version 2.43.0 (0)
 -->
<!-- Title: tools Pages: 1 -->
<svg width="526pt" height="132pt"
 viewBox="0.00 0.00 526.00 132.00" xmlns="http://www.w3.org/2000/svg" xmlns:xlink="http://www.w3.org/1999/xlink">
<g id="graph0" class="graph" transform="scale(1 1) rotate(0) translate(4 128)">
<title>tools</title>
<g id="clust1" class="cluster">
<title>clusterdir_4eeb864c4eec08c7d6b9d3b0352cfdde</title>
<g id="a_clust1"><a xlink:href="dir_4eeb864c4eec08c7d6b9d3b0352cfdde.html" target="_top">
<polygon fill="#eeeeff" stroke="black" points="8,-64 8,-116 510,-116 510,-64 8,-64"/>
</a>
</g>
</g>
<!-- dir_4eeb864c4eec08c7d6b9d3b0352cfdde -->
<g id="node1" class="node">
<title>dir_4eeb864c4eec08c7d6b9d3b0352cfdde</title>
<text text-anchor="middle" x="475" y="-87.5" font-family="Helvetica,sans-Serif" font-size="10.00">tools</text>
</g>
<!-- dir_0f26b4c059d78a3a583bdb2542dfd279 -->
<g id="node2" class="node">
<title>dir_0f26b4c059d78a3a583bdb2542dfd279</title>
<g id="a_node2"><a xlink:href="dir_0f26b4c059d78a3a583bdb2542dfd279.html" target="_top" xlink:title="labbix">
<polygon fill="white" stroke="black" points="430,-108 376,-108 376,-72 430,-72 430,-108"/>
<text text-anchor="middle" x="403" y="-87.5" font-family="Helvetica,sans-Serif" font-size="10.00">labbix</text>
</a>
</g>
</g>
<!-- dir_97aefd0d527b934f1d99a682da8fe6a9 -->
<g id="node8" class="node">
<title>dir_97aefd0d527b934f1d99a682da8fe6a9</title>
<g id="a_node8"><a xlink:href="dir_97aefd0d527b934f1d99a682da8fe6a9.html" target="_top" xlink:title="lib">
<polygon fill="none" stroke="black" points="250,-36 196,-36 196,0 250,0 250,-36"/>
<text text-anchor="middle" x="223" y="-15.5" font-family="Helvetica,sans-Serif" font-size="10.00">lib</text>
</a>
</g>
</g>
<!-- dir_0f26b4c059d78a3a583bdb2542dfd279&#45;&gt;dir_97aefd0d527b934f1d99a682da8fe6a9 -->
<g id="edge2" class="edge">
<title>dir_0f26b4c059d78a3a583bdb2542dfd279&#45;&gt;dir_97aefd0d527b934f1d99a682da8fe6a9</title>
<path fill="none" stroke="black" d="M380.4,-71.77C376.09,-68.94 371.51,-66.21 367,-64 332.38,-47.06 289.98,-34.73 260.18,-27.3"/>
<polygon fill="black" stroke="black" points="260.75,-23.84 250.2,-24.88 259.1,-30.64 260.75,-23.84"/>
<g id="a_edge2&#45;headlabel"><a xlink:href="dir_000002_000000.html" target="_top" xlink:title="2">
<text text-anchor="middle" x="264.91" y="-19.43" font-family="Helvetica,sans-Serif" font-size="10.00">2</text>
</a>
</g>
</g>
<!-- dir_52808ae987711afc12bd407eda038bc0 -->
<g id="node3" class="node">
<title>dir_52808ae987711afc12bd407eda038bc0</title>
<g id="a_node3"><a xlink:href="dir_52808ae987711afc12bd407eda038bc0.html" target="_top" xlink:title="lard">
<polygon fill="white" stroke="black" points="358,-108 304,-108 304,-72 358,-72 358,-108"/>
<text text-anchor="middle" x="331" y="-87.5" font-family="Helvetica,sans-Serif" font-size="10.00">lard</text>
</a>
</g>
</g>
<!-- dir_52808ae987711afc12bd407eda038bc0&#45;&gt;dir_97aefd0d527b934f1d99a682da8fe6a9 -->
<g id="edge3" class="edge">
<title>dir_52808ae987711afc12bd407eda038bc0&#45;&gt;dir_97aefd0d527b934f1d99a682da8fe6a9</title>
<path fill="none" stroke="black" d="M306.71,-71.89C302.81,-69.22 298.81,-66.51 295,-64 283.33,-56.31 270.43,-48.14 258.8,-40.9"/>
<polygon fill="black" stroke="black" points="260.55,-37.87 250.21,-35.57 256.86,-43.82 260.55,-37.87"/>
<g id="a_edge3&#45;headlabel"><a xlink:href="dir_000003_000000.html" target="_top" xlink:title="21">
<text text-anchor="middle" x="265.1" y="-34.85" font-family="Helvetica,sans-Serif" font-size="10.00">21</text>
</a>
</g>
</g>
<!-- dir_f9e0d83c2ca8502da5cef1749aea53f5 -->
<g id="node4" class="node">
<title>dir_f9e0d83c2ca8502da5cef1749aea53f5</title>
<g id="a_node4"><a xlink:href="dir_f9e0d83c2ca8502da5cef1749aea53f5.html" target="_top" xlink:title="lblk">
<polygon fill="white" stroke="black" points="286,-108 232,-108 232,-72 286,-72 286,-108"/>
<text text-anchor="middle" x="259" y="-87.5" font-family="Helvetica,sans-Serif" font-size="10.00">lblk</text>
</a>
</g>
</g>
<!-- dir_f9e0d83c2ca8502da5cef1749aea53f5&#45;&gt;dir_97aefd0d527b934f1d99a682da8fe6a9 -->
<g id="edge5" class="edge">
<title>dir_f9e0d83c2ca8502da5cef1749aea53f5&#45;&gt;dir_97aefd0d527b934f1d99a682da8fe6a9</title>
<path fill="none" stroke="black" d="M250.1,-71.7C246,-63.73 241.05,-54.1 236.51,-45.26"/>
<polygon fill="black" stroke="black" points="239.48,-43.4 231.8,-36.1 233.26,-46.6 239.48,-43.4"/>
<g id="a_edge5&#45;headlabel"><a xlink:href="dir_000004_000000.html" target="_top" xlink:title="10">
<text text-anchor="middle" x="243.65" y="-42.79" font-family="Helvetica,sans-Serif" font-size="10.00">10</text>
</a>
</g>
</g>
<!-- dir_fd73d19120b0c9fcf60d938825bba908 -->
<g id="node5" class="node">
<title>dir_fd73d19120b0c9fcf60d938825bba908</title>
<g id="a_node5"><a xlink:href="dir_fd73d19120b0c9fcf60d938825bba908.html" target="_top" xlink:title="lmon">
<polygon fill="white" stroke="black" points="214,-108 160,-108 160,-72 214,-72 214,-108"/>
<text text-anchor="middle" x="187" y="-87.5" font-family="Helvetica,sans-Serif" font-size="10.00">lmon</text>
</a>
</g>
</g>
<!-- dir_fd73d19120b0c9fcf60d938825bba908&#45;&gt;dir_97aefd0d527b934f1d99a682da8fe6a9 -->
<g id="edge1" class="edge">
<title>dir_fd73d19120b0c9fcf60d938825bba908&#45;&gt;dir_97aefd0d527b934f1d99a682da8fe6a9</title>
<path fill="none" stroke="black" d="M195.9,-71.7C200,-63.73 204.95,-54.1 209.49,-45.26"/>
<polygon fill="black" stroke="black" points="212.74,-46.6 214.2,-36.1 206.52,-43.4 212.74,-46.6"/>
<g id="a_edge1&#45;headlabel"><a xlink:href="dir_000005_000000.html" target="_top" xlink:title="25">
<text text-anchor="middle" x="213.62" y="-48.59" font-family="Helvetica,sans-Serif" font-size="10.00">25</text>
</a>
</g>
</g>
<!-- dir_b96566f931e51e81257bef2ecb4d2da2 -->
<g id="node6" class="node">
<title>dir_b96566f931e51e81257bef2ecb4d2da2</title>
<g id="a_node6"><a xlink:href="dir_b96566f931e51e81257bef2ecb4d2da2.html" target="_top" xlink:title="lrep">
<polygon fill="white" stroke="black" points="142,-108 88,-108 88,-72 142,-72 142,-108"/>
<text text-anchor="middle" x="115" y="-87.5" font-family="Helvetica,sans-Serif" font-size="10.00">lrep</text>
</a>
</g>
</g>
<!-- dir_b96566f931e51e81257bef2ecb4d2da2&#45;&gt;dir_97aefd0d527b934f1d99a682da8fe6a9 -->
<g id="edge6" class="edge">
<title>dir_b96566f931e51e81257bef2ecb4d2da2&#45;&gt;dir_97aefd0d527b934f1d99a682da8fe6a9</title>
<path fill="none" stroke="black" d="M139.29,-71.89C143.19,-69.22 147.19,-66.51 151,-64 162.67,-56.31 175.57,-48.14 187.2,-40.9"/>
<polygon fill="black" stroke="black" points="189.14,-43.82 195.79,-35.57 185.45,-37.87 189.14,-43.82"/>
<g id="a_edge6&#45;headlabel"><a xlink:href="dir_000006_000000.html" target="_top" xlink:title="8">
<text text-anchor="middle" x="187.58" y="-45.63" font-family="Helvetica,sans-Serif" font-size="10.00">8</text>
</a>
</g>
</g>
<!-- dir_3af39958040f5c5e90ca436de2a5d06f -->
<g id="node7" class="node">
<title>dir_3af39958040f5c5e90ca436de2a5d06f</title>
<g id="a_node7"><a xlink:href="dir_3af39958040f5c5e90ca436de2a5d06f.html" target="_top" xlink:title="lsys">
<polygon fill="white" stroke="black" points="70,-108 16,-108 16,-72 70,-72 70,-108"/>
<text text-anchor="middle" x="43" y="-87.5" font-family="Helvetica,sans-Serif" font-size="10.00">lsys</text>
</a>
</g>
</g>
<!-- dir_3af39958040f5c5e90ca436de2a5d06f&#45;&gt;dir_97aefd0d527b934f1d99a682da8fe6a9 -->
<g id="edge4" class="edge">
<title>dir_3af39958040f5c5e90ca436de2a5d06f&#45;&gt;dir_97aefd0d527b934f1d99a682da8fe6a9</title>
<path fill="none" stroke="black" d="M65.6,-71.77C69.91,-68.94 74.49,-66.21 79,-64 113.62,-47.06 156.02,-34.73 185.82,-27.3"/>
<polygon fill="black" stroke="black" points="186.9,-30.64 195.8,-24.88 185.25,-23.84 186.9,-30.64"/>
<g id="a_edge4&#45;headlabel"><a xlink:href="dir_000007_000000.html" target="_top" xlink:title="8">
<text text-anchor="middle" x="184.08" y="-31.75" font-family="Helvetica,sans-Serif" font-size="10.00">8</text>
</a>
</g>
</g>
</g>
</svg>
