<?xml version="1.0" encoding="UTF-8" standalone="no"?>
<!DOCTYPE svg PUBLIC "-//W3C//DTD SVG 1.1//EN"
 "http://www.w3.org/Graphics/SVG/1.1/DTD/svg11.dtd">
<!-- Generated by graphviz version 2.43.0 (0)
 -->
<!-- Title: leanux::tools::lard::ensureSinglePid Pages: 1 -->
<svg width="661pt" height="548pt"
 viewBox="0.00 0.00 661.00 548.00" xmlns="http://www.w3.org/2000/svg" xmlns:xlink="http://www.w3.org/1999/xlink">
<g id="graph0" class="graph" transform="scale(1 1) rotate(0) translate(4 544)">
<title>leanux::tools::lard::ensureSinglePid</title>
<!-- Node1 -->
<g id="node1" class="node">
<title>Node1</title>
<g id="a_node1"><a xlink:title=" ">
<polygon fill="#bfbfbf" stroke="black" points="0,-259.5 0,-289.5 104,-289.5 104,-259.5 0,-259.5"/>
<text text-anchor="start" x="8" y="-277.5" font-family="Helvetica,sans-Serif" font-size="10.00">leanux::tools::lard</text>
<text text-anchor="middle" x="52" y="-266.5" font-family="Helvetica,sans-Serif" font-size="10.00">::ensureSinglePid</text>
</a>
</g>
</g>
<!-- Node2 -->
<g id="node2" class="node">
<title>Node2</title>
<g id="a_node2"><a xlink:href="../../d9/d78/classleanux_1_1persist_1_1DML.html#a8df01a6d880515c22106e424ed342c81" target="_top" xlink:title="Bind a double value to the bind at position.">
<polygon fill="none" stroke="black" points="155,-509.5 155,-539.5 271,-539.5 271,-509.5 155,-509.5"/>
<text text-anchor="start" x="163" y="-527.5" font-family="Helvetica,sans-Serif" font-size="10.00">leanux::persist::DML</text>
<text text-anchor="middle" x="213" y="-516.5" font-family="Helvetica,sans-Serif" font-size="10.00">::bind</text>
</a>
</g>
</g>
<!-- Node1&#45;&gt;Node2 -->
<g id="edge1" class="edge">
<title>Node1&#45;&gt;Node2</title>
<path fill="none" stroke="midnightblue" d="M54.92,-289.77C60.61,-328.98 80.86,-434.28 140,-494.5 143.64,-498.21 147.81,-501.48 152.27,-504.36"/>
<polygon fill="midnightblue" stroke="midnightblue" points="150.71,-507.5 161.13,-509.44 154.19,-501.43 150.71,-507.5"/>
</g>
<!-- Node3 -->
<g id="node3" class="node">
<title>Node3</title>
<g id="a_node3"><a xlink:href="../../db/dff/classleanux_1_1persist_1_1Statement.html#a5b31fb14297ad5c1c342cfc0d8f797de" target="_top" xlink:title="A statement handle can be explicitly closed without deleting the Statement object itself.">
<polygon fill="none" stroke="black" points="507,-418.5 507,-448.5 653,-448.5 653,-418.5 507,-418.5"/>
<text text-anchor="start" x="515" y="-436.5" font-family="Helvetica,sans-Serif" font-size="10.00">leanux::persist::Statement</text>
<text text-anchor="middle" x="580" y="-425.5" font-family="Helvetica,sans-Serif" font-size="10.00">::close</text>
</a>
</g>
</g>
<!-- Node1&#45;&gt;Node3 -->
<g id="edge2" class="edge">
<title>Node1&#45;&gt;Node3</title>
<path fill="none" stroke="midnightblue" d="M54.69,-289.65C59.73,-326.8 78.41,-422.23 140,-461.5 202.02,-501.05 398.04,-470.8 471,-461.5 487.71,-459.37 505.53,-455.46 521.77,-451.22"/>
<polygon fill="midnightblue" stroke="midnightblue" points="522.92,-454.53 531.66,-448.55 521.09,-447.77 522.92,-454.53"/>
</g>
<!-- Node4 -->
<g id="node4" class="node">
<title>Node4</title>
<g id="a_node4"><a xlink:href="../../d4/d62/namespaceleanux_1_1tools_1_1lard.html#adcd2bb743c2378bf3f23e994bdafe4ce" target="_top" xlink:title=" ">
<polygon fill="none" stroke="black" points="158,-421.5 158,-451.5 268,-451.5 268,-421.5 158,-421.5"/>
<text text-anchor="start" x="166" y="-439.5" font-family="Helvetica,sans-Serif" font-size="10.00">leanux::tools::lard</text>
<text text-anchor="middle" x="213" y="-428.5" font-family="Helvetica,sans-Serif" font-size="10.00">::createTableStatus</text>
</a>
</g>
</g>
<!-- Node1&#45;&gt;Node4 -->
<g id="edge3" class="edge">
<title>Node1&#45;&gt;Node4</title>
<path fill="none" stroke="midnightblue" d="M59.36,-289.67C71.36,-316.64 99.83,-373.25 140,-406.5 144.61,-410.32 149.78,-413.71 155.17,-416.71"/>
<polygon fill="midnightblue" stroke="midnightblue" points="153.89,-419.99 164.39,-421.4 157.06,-413.75 153.89,-419.99"/>
</g>
<!-- Node6 -->
<g id="node6" class="node">
<title>Node6</title>
<g id="a_node6"><a xlink:href="../../db/dff/classleanux_1_1persist_1_1Statement.html#a1b809c1b1d0e9d24af65e439c3893d74" target="_top" xlink:title="Prepare a SQL statement.">
<polygon fill="none" stroke="black" points="323.5,-372.5 323.5,-402.5 469.5,-402.5 469.5,-372.5 323.5,-372.5"/>
<text text-anchor="start" x="331.5" y="-390.5" font-family="Helvetica,sans-Serif" font-size="10.00">leanux::persist::Statement</text>
<text text-anchor="middle" x="396.5" y="-379.5" font-family="Helvetica,sans-Serif" font-size="10.00">::prepare</text>
</a>
</g>
</g>
<!-- Node1&#45;&gt;Node6 -->
<g id="edge14" class="edge">
<title>Node1&#45;&gt;Node6</title>
<path fill="none" stroke="midnightblue" d="M61,-289.6C74.06,-312.47 102.34,-355.2 140,-373.5 193.47,-399.48 260.86,-402.12 313.01,-398.73"/>
<polygon fill="midnightblue" stroke="midnightblue" points="313.51,-402.2 323.22,-397.98 312.99,-395.22 313.51,-402.2"/>
</g>
<!-- Node7 -->
<g id="node7" class="node">
<title>Node7</title>
<g id="a_node7"><a xlink:href="../../d9/d78/classleanux_1_1persist_1_1DML.html#a66bfdf8da5f7d2c02bb5cb6f54515783" target="_top" xlink:title="Execute.">
<polygon fill="none" stroke="black" points="155,-333.5 155,-363.5 271,-363.5 271,-333.5 155,-333.5"/>
<text text-anchor="start" x="163" y="-351.5" font-family="Helvetica,sans-Serif" font-size="10.00">leanux::persist::DML</text>
<text text-anchor="middle" x="213" y="-340.5" font-family="Helvetica,sans-Serif" font-size="10.00">::execute</text>
</a>
</g>
</g>
<!-- Node1&#45;&gt;Node7 -->
<g id="edge7" class="edge">
<title>Node1&#45;&gt;Node7</title>
<path fill="none" stroke="midnightblue" d="M76.33,-289.62C93.47,-300.3 117.59,-314.45 140,-324.5 144.1,-326.34 148.39,-328.11 152.74,-329.81"/>
<polygon fill="midnightblue" stroke="midnightblue" points="151.72,-333.17 162.31,-333.39 154.17,-326.61 151.72,-333.17"/>
</g>
<!-- Node8 -->
<g id="node8" class="node">
<title>Node8</title>
<g id="a_node8"><a xlink:href="../../de/d84/classleanux_1_1util_1_1ConfigFile.html#a8cef175948cd9727c732de3a605c99ba" target="_top" xlink:title="Get the ConfigurationFile object for the appname, or construct one if it does not exist.">
<polygon fill="none" stroke="black" points="150.5,-284.5 150.5,-314.5 275.5,-314.5 275.5,-284.5 150.5,-284.5"/>
<text text-anchor="start" x="158.5" y="-302.5" font-family="Helvetica,sans-Serif" font-size="10.00">leanux::util::ConfigFile</text>
<text text-anchor="middle" x="213" y="-291.5" font-family="Helvetica,sans-Serif" font-size="10.00">::getConfig</text>
</a>
</g>
</g>
<!-- Node1&#45;&gt;Node8 -->
<g id="edge8" class="edge">
<title>Node1&#45;&gt;Node8</title>
<path fill="none" stroke="midnightblue" d="M104.18,-282.55C115.67,-284.35 128.07,-286.3 140.23,-288.21"/>
<polygon fill="midnightblue" stroke="midnightblue" points="139.93,-291.71 150.35,-289.81 141.02,-284.8 139.93,-291.71"/>
</g>
<!-- Node9 -->
<g id="node9" class="node">
<title>Node9</title>
<g id="a_node9"><a xlink:href="../../d4/d2c/classleanux_1_1persist_1_1Query.html#a86b5deec83f9cdf0c72f6caf503984d9" target="_top" xlink:title="Get int value from select list.">
<polygon fill="none" stroke="black" points="151,-235.5 151,-265.5 275,-265.5 275,-235.5 151,-235.5"/>
<text text-anchor="start" x="159" y="-253.5" font-family="Helvetica,sans-Serif" font-size="10.00">leanux::persist::Query</text>
<text text-anchor="middle" x="213" y="-242.5" font-family="Helvetica,sans-Serif" font-size="10.00">::getInt</text>
</a>
</g>
</g>
<!-- Node1&#45;&gt;Node9 -->
<g id="edge9" class="edge">
<title>Node1&#45;&gt;Node9</title>
<path fill="none" stroke="midnightblue" d="M104.18,-266.77C115.82,-265.02 128.38,-263.12 140.68,-261.27"/>
<polygon fill="midnightblue" stroke="midnightblue" points="141.55,-264.67 150.92,-259.72 140.51,-257.75 141.55,-264.67"/>
</g>
<!-- Node10 -->
<g id="node10" class="node">
<title>Node10</title>
<g id="a_node10"><a xlink:href="../../d8/d4a/classleanux_1_1Oops.html#a144d78069f0bb6388bbd1db6385418d2" target="_top" xlink:title="Get the Oops message.">
<polygon fill="none" stroke="black" points="140,-197 140,-216 286,-216 286,-197 140,-197"/>
<text text-anchor="middle" x="213" y="-204" font-family="Helvetica,sans-Serif" font-size="10.00">leanux::Oops::getMessage</text>
</a>
</g>
</g>
<!-- Node1&#45;&gt;Node10 -->
<g id="edge10" class="edge">
<title>Node1&#45;&gt;Node10</title>
<path fill="none" stroke="midnightblue" d="M76.63,-259.49C93.72,-249.13 117.64,-235.63 140,-226.5 146.77,-223.74 154.05,-221.22 161.29,-218.98"/>
<polygon fill="midnightblue" stroke="midnightblue" points="162.48,-222.27 171.08,-216.09 160.5,-215.56 162.48,-222.27"/>
</g>
<!-- Node11 -->
<g id="node11" class="node">
<title>Node11</title>
<g id="a_node11"><a xlink:href="../../d9/d34/namespaceleanux_1_1process.html#a6533e64a7e3e102f65df053802c83919" target="_top" xlink:title="Get the ProcPidStat for the pid.">
<polygon fill="none" stroke="black" points="145,-147.5 145,-177.5 281,-177.5 281,-147.5 145,-147.5"/>
<text text-anchor="start" x="153" y="-165.5" font-family="Helvetica,sans-Serif" font-size="10.00">leanux::process::getProc</text>
<text text-anchor="middle" x="213" y="-154.5" font-family="Helvetica,sans-Serif" font-size="10.00">PidStat</text>
</a>
</g>
</g>
<!-- Node1&#45;&gt;Node11 -->
<g id="edge11" class="edge">
<title>Node1&#45;&gt;Node11</title>
<path fill="none" stroke="midnightblue" d="M64.63,-259.18C79.96,-239.96 108.69,-207.12 140,-187.5 143.31,-185.43 146.82,-183.5 150.43,-181.71"/>
<polygon fill="midnightblue" stroke="midnightblue" points="151.92,-184.87 159.57,-177.55 149.02,-178.5 151.92,-184.87"/>
</g>
<!-- Node15 -->
<g id="node14" class="node">
<title>Node15</title>
<g id="a_node14"><a xlink:href="../../db/dff/classleanux_1_1persist_1_1Statement.html#a4696481e678f7c7337c07c480ee985ec" target="_top" xlink:title="Reset a SQL statement for rexecute or even re&#45;prepare.">
<polygon fill="none" stroke="black" points="140,-98.5 140,-128.5 286,-128.5 286,-98.5 140,-98.5"/>
<text text-anchor="start" x="148" y="-116.5" font-family="Helvetica,sans-Serif" font-size="10.00">leanux::persist::Statement</text>
<text text-anchor="middle" x="213" y="-105.5" font-family="Helvetica,sans-Serif" font-size="10.00">::reset</text>
</a>
</g>
</g>
<!-- Node1&#45;&gt;Node15 -->
<g id="edge15" class="edge">
<title>Node1&#45;&gt;Node15</title>
<path fill="none" stroke="midnightblue" d="M58.6,-259.34C69.75,-231.22 97.38,-170.81 140,-137.5 141.77,-136.12 143.63,-134.81 145.55,-133.58"/>
<polygon fill="midnightblue" stroke="midnightblue" points="147.33,-136.59 154.32,-128.63 143.89,-130.49 147.33,-136.59"/>
</g>
<!-- Node16 -->
<g id="node15" class="node">
<title>Node16</title>
<g id="a_node15"><a xlink:href="../../d4/d2c/classleanux_1_1persist_1_1Query.html#a294e11c33a22761503c49418f5ca9815" target="_top" xlink:title="Step the result list, end of list returns false.">
<polygon fill="none" stroke="black" points="151,-49.5 151,-79.5 275,-79.5 275,-49.5 151,-49.5"/>
<text text-anchor="start" x="159" y="-67.5" font-family="Helvetica,sans-Serif" font-size="10.00">leanux::persist::Query</text>
<text text-anchor="middle" x="213" y="-56.5" font-family="Helvetica,sans-Serif" font-size="10.00">::step</text>
</a>
</g>
</g>
<!-- Node1&#45;&gt;Node16 -->
<g id="edge16" class="edge">
<title>Node1&#45;&gt;Node16</title>
<path fill="none" stroke="midnightblue" d="M55.86,-259.29C63.26,-224.07 86.35,-136.27 140,-88.5 141.32,-87.33 142.7,-86.21 144.13,-85.14"/>
<polygon fill="midnightblue" stroke="midnightblue" points="146.22,-87.96 152.78,-79.63 142.46,-82.05 146.22,-87.96"/>
</g>
<!-- Node17 -->
<g id="node16" class="node">
<title>Node17</title>
<g id="a_node16"><a xlink:href="../../d4/d62/namespaceleanux_1_1tools_1_1lard.html#a0a3951f50023eb0f3b4f6722a5943436" target="_top" xlink:title=" ">
<polygon fill="none" stroke="black" points="161,-0.5 161,-30.5 265,-30.5 265,-0.5 161,-0.5"/>
<text text-anchor="start" x="169" y="-18.5" font-family="Helvetica,sans-Serif" font-size="10.00">leanux::tools::lard</text>
<text text-anchor="middle" x="213" y="-7.5" font-family="Helvetica,sans-Serif" font-size="10.00">::sysLog</text>
</a>
</g>
</g>
<!-- Node1&#45;&gt;Node17 -->
<g id="edge17" class="edge">
<title>Node1&#45;&gt;Node17</title>
<path fill="none" stroke="midnightblue" d="M54.17,-259.45C58.18,-218.23 74.97,-102.43 140,-39.5 143.49,-36.13 147.46,-33.23 151.7,-30.74"/>
<polygon fill="midnightblue" stroke="midnightblue" points="153.39,-33.8 160.74,-26.17 150.23,-27.56 153.39,-33.8"/>
</g>
<!-- Node5 -->
<g id="node5" class="node">
<title>Node5</title>
<g id="a_node5"><a xlink:href="../../dc/d43/classleanux_1_1persist_1_1DDL.html#ab2cd56bd7eff3f55c82a5386749a06fa" target="_top" xlink:title="execute, throws Oops on error.">
<polygon fill="none" stroke="black" points="339,-421.5 339,-451.5 454,-451.5 454,-421.5 339,-421.5"/>
<text text-anchor="start" x="347" y="-439.5" font-family="Helvetica,sans-Serif" font-size="10.00">leanux::persist::DDL</text>
<text text-anchor="middle" x="396.5" y="-428.5" font-family="Helvetica,sans-Serif" font-size="10.00">::execute</text>
</a>
</g>
</g>
<!-- Node4&#45;&gt;Node5 -->
<g id="edge4" class="edge">
<title>Node4&#45;&gt;Node5</title>
<path fill="none" stroke="midnightblue" d="M268.46,-436.5C287.4,-436.5 308.86,-436.5 328.68,-436.5"/>
<polygon fill="midnightblue" stroke="midnightblue" points="328.88,-440 338.88,-436.5 328.88,-433 328.88,-440"/>
</g>
<!-- Node4&#45;&gt;Node6 -->
<g id="edge5" class="edge">
<title>Node4&#45;&gt;Node6</title>
<path fill="none" stroke="midnightblue" d="M268.46,-421.8C287.84,-416.57 309.87,-410.62 330.07,-405.16"/>
<polygon fill="midnightblue" stroke="midnightblue" points="331.08,-408.52 339.83,-402.53 329.26,-401.76 331.08,-408.52"/>
</g>
<!-- Node6&#45;&gt;Node3 -->
<g id="edge6" class="edge">
<title>Node6&#45;&gt;Node3</title>
<path fill="none" stroke="midnightblue" d="M456.93,-402.56C473.78,-406.83 492.28,-411.52 509.66,-415.93"/>
<polygon fill="midnightblue" stroke="midnightblue" points="509.19,-419.42 519.75,-418.48 510.91,-412.63 509.19,-419.42"/>
</g>
<!-- Node12 -->
<g id="node12" class="node">
<title>Node12</title>
<g id="a_node12"><a xlink:href="../../dd/d42/namespaceleanux_1_1system.html#abb67aa26c6ef63b4ad7b4194f1a8d774" target="_top" xlink:title="Get the number of clock ticks per second.">
<polygon fill="none" stroke="black" points="322,-172 322,-191 471,-191 471,-172 322,-172"/>
<text text-anchor="middle" x="396.5" y="-179" font-family="Helvetica,sans-Serif" font-size="10.00">leanux::system::getUserHz</text>
</a>
</g>
</g>
<!-- Node11&#45;&gt;Node12 -->
<g id="edge12" class="edge">
<title>Node11&#45;&gt;Node12</title>
<path fill="none" stroke="midnightblue" d="M281.07,-169.52C291.07,-170.57 301.47,-171.66 311.76,-172.73"/>
<polygon fill="midnightblue" stroke="midnightblue" points="311.68,-176.24 321.99,-173.8 312.41,-169.28 311.68,-176.24"/>
</g>
<!-- Node13 -->
<g id="node13" class="node">
<title>Node13</title>
<g id="a_node13"><a xlink:href="../../d9/d34/namespaceleanux_1_1process.html#ae296bd326d85ba028518123373e431ce" target="_top" xlink:title="get the current kernel channel waited on by the process.">
<polygon fill="none" stroke="red" points="322,-134 322,-153 471,-153 471,-134 322,-134"/>
<text text-anchor="middle" x="396.5" y="-141" font-family="Helvetica,sans-Serif" font-size="10.00">leanux::process::getWChan</text>
</a>
</g>
</g>
<!-- Node11&#45;&gt;Node13 -->
<g id="edge13" class="edge">
<title>Node11&#45;&gt;Node13</title>
<path fill="none" stroke="midnightblue" d="M281.07,-155.48C291.07,-154.43 301.47,-153.34 311.76,-152.27"/>
<polygon fill="midnightblue" stroke="midnightblue" points="312.41,-155.72 321.99,-151.2 311.68,-148.76 312.41,-155.72"/>
</g>
</g>
</svg>
