<?xml version="1.0" encoding="UTF-8" standalone="no"?>
<!DOCTYPE svg PUBLIC "-//W3C//DTD SVG 1.1//EN"
 "http://www.w3.org/Graphics/SVG/1.1/DTD/svg11.dtd">
<!-- Generated by graphviz version 2.43.0 (0)
 -->
<!-- Title: leanux::tools::lard::deleteSnapshots Pages: 1 -->
<svg width="476pt" height="225pt"
 viewBox="0.00 0.00 476.00 225.00" xmlns="http://www.w3.org/2000/svg" xmlns:xlink="http://www.w3.org/1999/xlink">
<g id="graph0" class="graph" transform="scale(1 1) rotate(0) translate(4 221)">
<title>leanux::tools::lard::deleteSnapshots</title>
<!-- Node1 -->
<g id="node1" class="node">
<title>Node1</title>
<g id="a_node1"><a xlink:title=" ">
<polygon fill="#bfbfbf" stroke="black" points="0,-98.5 0,-128.5 104,-128.5 104,-98.5 0,-98.5"/>
<text text-anchor="start" x="8" y="-116.5" font-family="Helvetica,sans-Serif" font-size="10.00">leanux::tools::lard</text>
<text text-anchor="middle" x="52" y="-105.5" font-family="Helvetica,sans-Serif" font-size="10.00">::deleteSnapshots</text>
</a>
</g>
</g>
<!-- Node2 -->
<g id="node2" class="node">
<title>Node2</title>
<g id="a_node2"><a xlink:href="../../d9/d78/classleanux_1_1persist_1_1DML.html#a8df01a6d880515c22106e424ed342c81" target="_top" xlink:title="Bind a double value to the bind at position.">
<polygon fill="none" stroke="black" points="155,-186.5 155,-216.5 271,-216.5 271,-186.5 155,-186.5"/>
<text text-anchor="start" x="163" y="-204.5" font-family="Helvetica,sans-Serif" font-size="10.00">leanux::persist::DML</text>
<text text-anchor="middle" x="213" y="-193.5" font-family="Helvetica,sans-Serif" font-size="10.00">::bind</text>
</a>
</g>
</g>
<!-- Node1&#45;&gt;Node2 -->
<g id="edge1" class="edge">
<title>Node1&#45;&gt;Node2</title>
<path fill="none" stroke="midnightblue" d="M73.39,-128.74C90.59,-141.18 116.15,-158.74 140,-171.5 147.21,-175.36 155.04,-179.07 162.77,-182.49"/>
<polygon fill="midnightblue" stroke="midnightblue" points="161.56,-185.77 172.13,-186.5 164.31,-179.34 161.56,-185.77"/>
</g>
<!-- Node3 -->
<g id="node3" class="node">
<title>Node3</title>
<g id="a_node3"><a xlink:href="../../db/dff/classleanux_1_1persist_1_1Statement.html#a5b31fb14297ad5c1c342cfc0d8f797de" target="_top" xlink:title="A statement handle can be explicitly closed without deleting the Statement object itself.">
<polygon fill="none" stroke="black" points="322,-95.5 322,-125.5 468,-125.5 468,-95.5 322,-95.5"/>
<text text-anchor="start" x="330" y="-113.5" font-family="Helvetica,sans-Serif" font-size="10.00">leanux::persist::Statement</text>
<text text-anchor="middle" x="395" y="-102.5" font-family="Helvetica,sans-Serif" font-size="10.00">::close</text>
</a>
</g>
</g>
<!-- Node1&#45;&gt;Node3 -->
<g id="edge2" class="edge">
<title>Node1&#45;&gt;Node3</title>
<path fill="none" stroke="midnightblue" d="M96.3,-128.52C110.09,-132.61 125.53,-136.46 140,-138.5 204.25,-147.55 221.63,-146.71 286,-138.5 302.71,-136.37 320.53,-132.46 336.77,-128.22"/>
<polygon fill="midnightblue" stroke="midnightblue" points="337.92,-131.53 346.66,-125.55 336.09,-124.77 337.92,-131.53"/>
</g>
<!-- Node4 -->
<g id="node4" class="node">
<title>Node4</title>
<g id="a_node4"><a xlink:href="../../d9/d78/classleanux_1_1persist_1_1DML.html#a66bfdf8da5f7d2c02bb5cb6f54515783" target="_top" xlink:title="Execute.">
<polygon fill="none" stroke="black" points="155,-98.5 155,-128.5 271,-128.5 271,-98.5 155,-98.5"/>
<text text-anchor="start" x="163" y="-116.5" font-family="Helvetica,sans-Serif" font-size="10.00">leanux::persist::DML</text>
<text text-anchor="middle" x="213" y="-105.5" font-family="Helvetica,sans-Serif" font-size="10.00">::execute</text>
</a>
</g>
</g>
<!-- Node1&#45;&gt;Node4 -->
<g id="edge3" class="edge">
<title>Node1&#45;&gt;Node4</title>
<path fill="none" stroke="midnightblue" d="M104.18,-113.5C117.06,-113.5 131.08,-113.5 144.61,-113.5"/>
<polygon fill="midnightblue" stroke="midnightblue" points="144.85,-117 154.85,-113.5 144.85,-110 144.85,-117"/>
</g>
<!-- Node5 -->
<g id="node5" class="node">
<title>Node5</title>
<g id="a_node5"><a xlink:href="../../db/dff/classleanux_1_1persist_1_1Statement.html#a1b809c1b1d0e9d24af65e439c3893d74" target="_top" xlink:title="Prepare a SQL statement.">
<polygon fill="none" stroke="black" points="140,-49.5 140,-79.5 286,-79.5 286,-49.5 140,-49.5"/>
<text text-anchor="start" x="148" y="-67.5" font-family="Helvetica,sans-Serif" font-size="10.00">leanux::persist::Statement</text>
<text text-anchor="middle" x="213" y="-56.5" font-family="Helvetica,sans-Serif" font-size="10.00">::prepare</text>
</a>
</g>
</g>
<!-- Node1&#45;&gt;Node5 -->
<g id="edge4" class="edge">
<title>Node1&#45;&gt;Node5</title>
<path fill="none" stroke="midnightblue" d="M102,-98.4C118.25,-93.39 136.5,-87.77 153.39,-82.56"/>
<polygon fill="midnightblue" stroke="midnightblue" points="154.63,-85.84 163.16,-79.55 152.57,-79.15 154.63,-85.84"/>
</g>
<!-- Node6 -->
<g id="node6" class="node">
<title>Node6</title>
<g id="a_node6"><a xlink:href="../../db/dff/classleanux_1_1persist_1_1Statement.html#a4696481e678f7c7337c07c480ee985ec" target="_top" xlink:title="Reset a SQL statement for rexecute or even re&#45;prepare.">
<polygon fill="none" stroke="black" points="140,-0.5 140,-30.5 286,-30.5 286,-0.5 140,-0.5"/>
<text text-anchor="start" x="148" y="-18.5" font-family="Helvetica,sans-Serif" font-size="10.00">leanux::persist::Statement</text>
<text text-anchor="middle" x="213" y="-7.5" font-family="Helvetica,sans-Serif" font-size="10.00">::reset</text>
</a>
</g>
</g>
<!-- Node1&#45;&gt;Node6 -->
<g id="edge6" class="edge">
<title>Node1&#45;&gt;Node6</title>
<path fill="none" stroke="midnightblue" d="M67.44,-98.47C83.74,-82.24 111.71,-56.56 140,-40.5 143.69,-38.41 147.58,-36.44 151.58,-34.62"/>
<polygon fill="midnightblue" stroke="midnightblue" points="153.19,-37.73 161.01,-30.59 150.44,-31.29 153.19,-37.73"/>
</g>
<!-- Node5&#45;&gt;Node3 -->
<g id="edge5" class="edge">
<title>Node5&#45;&gt;Node3</title>
<path fill="none" stroke="midnightblue" d="M272.94,-79.56C289.65,-83.83 307.99,-88.52 325.23,-92.93"/>
<polygon fill="midnightblue" stroke="midnightblue" points="324.68,-96.4 335.24,-95.48 326.41,-89.62 324.68,-96.4"/>
</g>
</g>
</svg>
