<?xml version="1.0" encoding="UTF-8" standalone="no"?>
<!DOCTYPE svg PUBLIC "-//W3C//DTD SVG 1.1//EN"
 "http://www.w3.org/Graphics/SVG/1.1/DTD/svg11.dtd">
<!-- Generated by graphviz version 2.43.0 (0)
 -->
<!-- Title: leanux::tools::lard::shrinkDB Pages: 1 -->
<svg width="653pt" height="586pt"
 viewBox="0.00 0.00 653.00 586.29" xmlns="http://www.w3.org/2000/svg" xmlns:xlink="http://www.w3.org/1999/xlink">
<g id="graph0" class="graph" transform="scale(1 1) rotate(0) translate(4 582.29)">
<title>leanux::tools::lard::shrinkDB</title>
<!-- Node1 -->
<g id="node1" class="node">
<title>Node1</title>
<g id="a_node1"><a xlink:title=" ">
<polygon fill="#bfbfbf" stroke="black" points="0,-240.5 0,-270.5 104,-270.5 104,-240.5 0,-240.5"/>
<text text-anchor="start" x="8" y="-258.5" font-family="Helvetica,sans-Serif" font-size="10.00">leanux::tools::lard</text>
<text text-anchor="middle" x="52" y="-247.5" font-family="Helvetica,sans-Serif" font-size="10.00">::shrinkDB</text>
</a>
</g>
</g>
<!-- Node2 -->
<g id="node2" class="node">
<title>Node2</title>
<g id="a_node2"><a xlink:href="../../d8/daf/classleanux_1_1persist_1_1Database.html#a4ff46a478b219a811b9fa6bede2642f4" target="_top" xlink:title="Begin a transaction.">
<polygon fill="none" stroke="black" points="140,-450.5 140,-480.5 281,-480.5 281,-450.5 140,-450.5"/>
<text text-anchor="start" x="148" y="-468.5" font-family="Helvetica,sans-Serif" font-size="10.00">leanux::persist::Database</text>
<text text-anchor="middle" x="210.5" y="-457.5" font-family="Helvetica,sans-Serif" font-size="10.00">::begin</text>
</a>
</g>
</g>
<!-- Node1&#45;&gt;Node2 -->
<g id="edge1" class="edge">
<title>Node1&#45;&gt;Node2</title>
<path fill="none" stroke="midnightblue" d="M56.47,-270.68C64.97,-304.63 89.88,-387.47 140,-435.5 143.82,-439.16 148.15,-442.41 152.74,-445.28"/>
<polygon fill="midnightblue" stroke="midnightblue" points="151.39,-448.54 161.83,-450.37 154.81,-442.43 151.39,-448.54"/>
</g>
<!-- Node3 -->
<g id="node3" class="node">
<title>Node3</title>
<g id="a_node3"><a xlink:href="../../db/dff/classleanux_1_1persist_1_1Statement.html#a5b31fb14297ad5c1c342cfc0d8f797de" target="_top" xlink:title="A statement handle can be explicitly closed without deleting the Statement object itself.">
<polygon fill="none" stroke="black" points="499,-428.5 499,-458.5 645,-458.5 645,-428.5 499,-428.5"/>
<text text-anchor="start" x="507" y="-446.5" font-family="Helvetica,sans-Serif" font-size="10.00">leanux::persist::Statement</text>
<text text-anchor="middle" x="572" y="-435.5" font-family="Helvetica,sans-Serif" font-size="10.00">::close</text>
</a>
</g>
</g>
<!-- Node1&#45;&gt;Node3 -->
<g id="edge6" class="edge">
<title>Node1&#45;&gt;Node3</title>
<path fill="none" stroke="midnightblue" d="M104.41,-257.33C151.4,-257.57 222.28,-254.35 281,-236.5 298.51,-231.18 299.28,-221.09 317,-216.5 379.81,-200.22 408.14,-181.85 463,-216.5 534.7,-261.79 559.77,-369.1 567.7,-418.19"/>
<polygon fill="midnightblue" stroke="midnightblue" points="564.27,-418.91 569.21,-428.28 571.19,-417.87 564.27,-418.91"/>
</g>
<!-- Node5 -->
<g id="node5" class="node">
<title>Node5</title>
<g id="a_node5"><a xlink:href="../../db/dff/classleanux_1_1persist_1_1Statement.html#a1b809c1b1d0e9d24af65e439c3893d74" target="_top" xlink:title="Prepare a SQL statement.">
<polygon fill="none" stroke="black" points="317,-450.5 317,-480.5 463,-480.5 463,-450.5 317,-450.5"/>
<text text-anchor="start" x="325" y="-468.5" font-family="Helvetica,sans-Serif" font-size="10.00">leanux::persist::Statement</text>
<text text-anchor="middle" x="390" y="-457.5" font-family="Helvetica,sans-Serif" font-size="10.00">::prepare</text>
</a>
</g>
</g>
<!-- Node1&#45;&gt;Node5 -->
<g id="edge21" class="edge">
<title>Node1&#45;&gt;Node5</title>
<path fill="none" stroke="midnightblue" d="M57.58,-270.66C67.45,-300.7 93.69,-367.87 140,-402.5 147.19,-407.88 244.02,-431.46 314.77,-448.18"/>
<polygon fill="midnightblue" stroke="midnightblue" points="314.03,-451.61 324.57,-450.5 315.64,-444.79 314.03,-451.61"/>
</g>
<!-- Node6 -->
<g id="node6" class="node">
<title>Node6</title>
<g id="a_node6"><a xlink:href="../../d8/daf/classleanux_1_1persist_1_1Database.html#a3066d61c7bc4107a97f01b851d8c2228" target="_top" xlink:title="Commit a transaction.">
<polygon fill="none" stroke="black" points="140,-499.5 140,-529.5 281,-529.5 281,-499.5 140,-499.5"/>
<text text-anchor="start" x="148" y="-517.5" font-family="Helvetica,sans-Serif" font-size="10.00">leanux::persist::Database</text>
<text text-anchor="middle" x="210.5" y="-506.5" font-family="Helvetica,sans-Serif" font-size="10.00">::commit</text>
</a>
</g>
</g>
<!-- Node1&#45;&gt;Node6 -->
<g id="edge7" class="edge">
<title>Node1&#45;&gt;Node6</title>
<path fill="none" stroke="midnightblue" d="M54.21,-270.51C58.31,-311.63 75.31,-427.22 140,-490.5 141.08,-491.56 142.22,-492.57 143.39,-493.54"/>
<polygon fill="midnightblue" stroke="midnightblue" points="141.47,-496.47 151.68,-499.31 145.47,-490.73 141.47,-496.47"/>
</g>
<!-- Node7 -->
<g id="node7" class="node">
<title>Node7</title>
<g id="a_node7"><a xlink:href="../../d4/d62/namespaceleanux_1_1tools_1_1lard.html#a9249744b0576a17dd109b8fad44863d3" target="_top" xlink:title=" ">
<polygon fill="none" stroke="black" points="158.5,-303.5 158.5,-333.5 262.5,-333.5 262.5,-303.5 158.5,-303.5"/>
<text text-anchor="start" x="166.5" y="-321.5" font-family="Helvetica,sans-Serif" font-size="10.00">leanux::tools::lard</text>
<text text-anchor="middle" x="210.5" y="-310.5" font-family="Helvetica,sans-Serif" font-size="10.00">::deleteSnapshots</text>
</a>
</g>
</g>
<!-- Node1&#45;&gt;Node7 -->
<g id="edge11" class="edge">
<title>Node1&#45;&gt;Node7</title>
<path fill="none" stroke="midnightblue" d="M90.49,-270.59C112.09,-279.29 139.44,-290.3 162.47,-299.57"/>
<polygon fill="midnightblue" stroke="midnightblue" points="161.47,-302.94 172.05,-303.42 164.08,-296.44 161.47,-302.94"/>
</g>
<!-- Node11 -->
<g id="node11" class="node">
<title>Node11</title>
<g id="a_node11"><a xlink:href="../../de/d84/classleanux_1_1util_1_1ConfigFile.html#a8cef175948cd9727c732de3a605c99ba" target="_top" xlink:title="Get the ConfigurationFile object for the appname, or construct one if it does not exist.">
<polygon fill="none" stroke="black" points="148,-196.5 148,-226.5 273,-226.5 273,-196.5 148,-196.5"/>
<text text-anchor="start" x="156" y="-214.5" font-family="Helvetica,sans-Serif" font-size="10.00">leanux::util::ConfigFile</text>
<text text-anchor="middle" x="210.5" y="-203.5" font-family="Helvetica,sans-Serif" font-size="10.00">::getConfig</text>
</a>
</g>
</g>
<!-- Node1&#45;&gt;Node11 -->
<g id="edge17" class="edge">
<title>Node1&#45;&gt;Node11</title>
<path fill="none" stroke="midnightblue" d="M104.24,-241.09C117.59,-237.34 132.12,-233.25 146.01,-229.35"/>
<polygon fill="midnightblue" stroke="midnightblue" points="147.31,-232.62 155.99,-226.54 145.42,-225.88 147.31,-232.62"/>
</g>
<!-- Node12 -->
<g id="node12" class="node">
<title>Node12</title>
<g id="a_node12"><a xlink:href="../../de/d84/classleanux_1_1util_1_1ConfigFile.html#aae0c3891e3d5a8d391a7439602b92780" target="_top" xlink:title="return the configuration parameter as an int.">
<polygon fill="none" stroke="black" points="148,-147.5 148,-177.5 273,-177.5 273,-147.5 148,-147.5"/>
<text text-anchor="start" x="156" y="-165.5" font-family="Helvetica,sans-Serif" font-size="10.00">leanux::util::ConfigFile</text>
<text text-anchor="middle" x="210.5" y="-154.5" font-family="Helvetica,sans-Serif" font-size="10.00">::getIntValue</text>
</a>
</g>
</g>
<!-- Node1&#45;&gt;Node12 -->
<g id="edge18" class="edge">
<title>Node1&#45;&gt;Node12</title>
<path fill="none" stroke="midnightblue" d="M69.2,-240.24C85.88,-225.18 113.15,-202.32 140,-187.5 143.73,-185.44 147.65,-183.5 151.67,-181.67"/>
<polygon fill="midnightblue" stroke="midnightblue" points="153.32,-184.78 161.14,-177.63 150.57,-178.34 153.32,-184.78"/>
</g>
<!-- Node14 -->
<g id="node14" class="node">
<title>Node14</title>
<g id="a_node14"><a xlink:href="../../d4/d2c/classleanux_1_1persist_1_1Query.html#ada37977ad924b728401fa1fb7506cd2e" target="_top" xlink:title="Get long value from select list.">
<polygon fill="none" stroke="black" points="148.5,-98.5 148.5,-128.5 272.5,-128.5 272.5,-98.5 148.5,-98.5"/>
<text text-anchor="start" x="156.5" y="-116.5" font-family="Helvetica,sans-Serif" font-size="10.00">leanux::persist::Query</text>
<text text-anchor="middle" x="210.5" y="-105.5" font-family="Helvetica,sans-Serif" font-size="10.00">::getLong</text>
</a>
</g>
</g>
<!-- Node1&#45;&gt;Node14 -->
<g id="edge20" class="edge">
<title>Node1&#45;&gt;Node14</title>
<path fill="none" stroke="midnightblue" d="M60.4,-240.15C73.21,-215.13 101.86,-165.54 140,-137.5 141.88,-136.12 143.85,-134.81 145.88,-133.57"/>
<polygon fill="midnightblue" stroke="midnightblue" points="147.97,-136.42 155.12,-128.6 144.65,-130.26 147.97,-136.42"/>
</g>
<!-- Node15 -->
<g id="node15" class="node">
<title>Node15</title>
<g id="a_node15"><a xlink:href="../../d4/d2c/classleanux_1_1persist_1_1Query.html#a294e11c33a22761503c49418f5ca9815" target="_top" xlink:title="Step the result list, end of list returns false.">
<polygon fill="none" stroke="black" points="148.5,-49.5 148.5,-79.5 272.5,-79.5 272.5,-49.5 148.5,-49.5"/>
<text text-anchor="start" x="156.5" y="-67.5" font-family="Helvetica,sans-Serif" font-size="10.00">leanux::persist::Query</text>
<text text-anchor="middle" x="210.5" y="-56.5" font-family="Helvetica,sans-Serif" font-size="10.00">::step</text>
</a>
</g>
</g>
<!-- Node1&#45;&gt;Node15 -->
<g id="edge22" class="edge">
<title>Node1&#45;&gt;Node15</title>
<path fill="none" stroke="midnightblue" d="M56.82,-240.18C65.74,-207.55 90.98,-130.77 140,-88.5 141.36,-87.33 142.79,-86.21 144.26,-85.14"/>
<polygon fill="midnightblue" stroke="midnightblue" points="146.51,-87.86 153.16,-79.62 142.82,-81.92 146.51,-87.86"/>
</g>
<!-- Node16 -->
<g id="node16" class="node">
<title>Node16</title>
<g id="a_node16"><a xlink:href="../../d4/d62/namespaceleanux_1_1tools_1_1lard.html#a0a3951f50023eb0f3b4f6722a5943436" target="_top" xlink:title=" ">
<polygon fill="none" stroke="black" points="158.5,-0.5 158.5,-30.5 262.5,-30.5 262.5,-0.5 158.5,-0.5"/>
<text text-anchor="start" x="166.5" y="-18.5" font-family="Helvetica,sans-Serif" font-size="10.00">leanux::tools::lard</text>
<text text-anchor="middle" x="210.5" y="-7.5" font-family="Helvetica,sans-Serif" font-size="10.00">::sysLog</text>
</a>
</g>
</g>
<!-- Node1&#45;&gt;Node16 -->
<g id="edge23" class="edge">
<title>Node1&#45;&gt;Node16</title>
<path fill="none" stroke="midnightblue" d="M54.79,-240.28C60.19,-201.27 79.79,-96.75 140,-39.5 142.88,-36.76 146.1,-34.33 149.51,-32.17"/>
<polygon fill="midnightblue" stroke="midnightblue" points="151.24,-35.22 158.36,-27.37 147.9,-29.07 151.24,-35.22"/>
</g>
<!-- Node17 -->
<g id="node17" class="node">
<title>Node17</title>
<g id="a_node17"><a xlink:href="../../d4/d62/namespaceleanux_1_1tools_1_1lard.html#af293f8b5b80c0189b1dc1904fe94d9bf" target="_top" xlink:title=" ">
<polygon fill="none" stroke="black" points="158.5,-362.5 158.5,-392.5 262.5,-392.5 262.5,-362.5 158.5,-362.5"/>
<text text-anchor="start" x="166.5" y="-380.5" font-family="Helvetica,sans-Serif" font-size="10.00">leanux::tools::lard</text>
<text text-anchor="middle" x="210.5" y="-369.5" font-family="Helvetica,sans-Serif" font-size="10.00">::vacuumAnalyze</text>
</a>
</g>
</g>
<!-- Node1&#45;&gt;Node17 -->
<g id="edge24" class="edge">
<title>Node1&#45;&gt;Node17</title>
<path fill="none" stroke="midnightblue" d="M65.26,-270.74C81.03,-289.63 109.99,-321.94 140,-343.5 147.29,-348.74 155.51,-353.56 163.68,-357.82"/>
<polygon fill="midnightblue" stroke="midnightblue" points="162.32,-361.06 172.83,-362.4 165.45,-354.8 162.32,-361.06"/>
</g>
<!-- Node2&#45;&gt;Node3 -->
<g id="edge2" class="edge">
<title>Node2&#45;&gt;Node3</title>
<path fill="none" stroke="midnightblue" d="M264.1,-480.56C270.08,-483.37 275.86,-486.66 281,-490.5 302.66,-506.67 292.89,-527.3 317,-539.5 374.89,-568.81 402.35,-562.56 463,-539.5 501.01,-525.05 534.18,-490.41 553.41,-466.94"/>
<polygon fill="midnightblue" stroke="midnightblue" points="556.35,-468.86 559.84,-458.86 550.88,-464.5 556.35,-468.86"/>
</g>
<!-- Node4 -->
<g id="node4" class="node">
<title>Node4</title>
<g id="a_node4"><a xlink:href="../../dc/d43/classleanux_1_1persist_1_1DDL.html#ab2cd56bd7eff3f55c82a5386749a06fa" target="_top" xlink:title="execute, throws Oops on error.">
<polygon fill="none" stroke="black" points="332.5,-499.5 332.5,-529.5 447.5,-529.5 447.5,-499.5 332.5,-499.5"/>
<text text-anchor="start" x="340.5" y="-517.5" font-family="Helvetica,sans-Serif" font-size="10.00">leanux::persist::DDL</text>
<text text-anchor="middle" x="390" y="-506.5" font-family="Helvetica,sans-Serif" font-size="10.00">::execute</text>
</a>
</g>
</g>
<!-- Node2&#45;&gt;Node4 -->
<g id="edge3" class="edge">
<title>Node2&#45;&gt;Node4</title>
<path fill="none" stroke="midnightblue" d="M266.2,-480.6C284.68,-485.7 305.48,-491.44 324.63,-496.73"/>
<polygon fill="midnightblue" stroke="midnightblue" points="323.91,-500.16 334.48,-499.45 325.77,-493.41 323.91,-500.16"/>
</g>
<!-- Node2&#45;&gt;Node5 -->
<g id="edge4" class="edge">
<title>Node2&#45;&gt;Node5</title>
<path fill="none" stroke="midnightblue" d="M281.14,-465.5C289.59,-465.5 298.28,-465.5 306.88,-465.5"/>
<polygon fill="midnightblue" stroke="midnightblue" points="306.93,-469 316.93,-465.5 306.93,-462 306.93,-469"/>
</g>
<!-- Node5&#45;&gt;Node3 -->
<g id="edge5" class="edge">
<title>Node5&#45;&gt;Node3</title>
<path fill="none" stroke="midnightblue" d="M463.18,-456.68C471.61,-455.65 480.27,-454.59 488.82,-453.54"/>
<polygon fill="midnightblue" stroke="midnightblue" points="489.31,-457.01 498.81,-452.32 488.46,-450.06 489.31,-457.01"/>
</g>
<!-- Node6&#45;&gt;Node3 -->
<g id="edge8" class="edge">
<title>Node6&#45;&gt;Node3</title>
<path fill="none" stroke="midnightblue" d="M236.45,-529.55C257.18,-541.13 287.89,-556.19 317,-562.5 380.42,-576.25 403.67,-588.78 463,-562.5 506.74,-543.13 540.33,-496.33 557.75,-467.53"/>
<polygon fill="midnightblue" stroke="midnightblue" points="560.79,-469.27 562.83,-458.87 554.75,-465.73 560.79,-469.27"/>
</g>
<!-- Node6&#45;&gt;Node4 -->
<g id="edge9" class="edge">
<title>Node6&#45;&gt;Node4</title>
<path fill="none" stroke="midnightblue" d="M281.14,-514.5C294.69,-514.5 308.86,-514.5 322.3,-514.5"/>
<polygon fill="midnightblue" stroke="midnightblue" points="322.42,-518 332.42,-514.5 322.42,-511 322.42,-518"/>
</g>
<!-- Node6&#45;&gt;Node5 -->
<g id="edge10" class="edge">
<title>Node6&#45;&gt;Node5</title>
<path fill="none" stroke="midnightblue" d="M266.2,-499.4C284.68,-494.3 305.48,-488.56 324.63,-483.27"/>
<polygon fill="midnightblue" stroke="midnightblue" points="325.77,-486.59 334.48,-480.55 323.91,-479.84 325.77,-486.59"/>
</g>
<!-- Node7&#45;&gt;Node3 -->
<g id="edge13" class="edge">
<title>Node7&#45;&gt;Node3</title>
<path fill="none" stroke="midnightblue" d="M262.88,-317.52C315.35,-318.35 398.09,-324.79 463,-353.5 498.23,-369.09 531.07,-399.66 551.08,-420.82"/>
<polygon fill="midnightblue" stroke="midnightblue" points="548.74,-423.45 558.1,-428.42 553.88,-418.7 548.74,-423.45"/>
</g>
<!-- Node7&#45;&gt;Node5 -->
<g id="edge15" class="edge">
<title>Node7&#45;&gt;Node5</title>
<path fill="none" stroke="midnightblue" d="M249.56,-333.66C260.37,-338.99 271.71,-345.65 281,-353.5 301.64,-370.95 298.72,-382.6 317,-402.5 330.71,-417.43 347.71,-432.45 361.75,-444.07"/>
<polygon fill="midnightblue" stroke="midnightblue" points="359.67,-446.88 369.63,-450.49 364.09,-441.46 359.67,-446.88"/>
</g>
<!-- Node8 -->
<g id="node8" class="node">
<title>Node8</title>
<g id="a_node8"><a xlink:href="../../d9/d78/classleanux_1_1persist_1_1DML.html#a8df01a6d880515c22106e424ed342c81" target="_top" xlink:title="Bind a double value to the bind at position.">
<polygon fill="none" stroke="black" points="332,-274.5 332,-304.5 448,-304.5 448,-274.5 332,-274.5"/>
<text text-anchor="start" x="340" y="-292.5" font-family="Helvetica,sans-Serif" font-size="10.00">leanux::persist::DML</text>
<text text-anchor="middle" x="390" y="-281.5" font-family="Helvetica,sans-Serif" font-size="10.00">::bind</text>
</a>
</g>
</g>
<!-- Node7&#45;&gt;Node8 -->
<g id="edge12" class="edge">
<title>Node7&#45;&gt;Node8</title>
<path fill="none" stroke="midnightblue" d="M262.84,-310.11C281.24,-307.11 302.26,-303.67 321.8,-300.48"/>
<polygon fill="midnightblue" stroke="midnightblue" points="322.55,-303.9 331.86,-298.84 321.43,-296.99 322.55,-303.9"/>
</g>
<!-- Node9 -->
<g id="node9" class="node">
<title>Node9</title>
<g id="a_node9"><a xlink:href="../../d9/d78/classleanux_1_1persist_1_1DML.html#a66bfdf8da5f7d2c02bb5cb6f54515783" target="_top" xlink:title="Execute.">
<polygon fill="none" stroke="black" points="332,-225.5 332,-255.5 448,-255.5 448,-225.5 332,-225.5"/>
<text text-anchor="start" x="340" y="-243.5" font-family="Helvetica,sans-Serif" font-size="10.00">leanux::persist::DML</text>
<text text-anchor="middle" x="390" y="-232.5" font-family="Helvetica,sans-Serif" font-size="10.00">::execute</text>
</a>
</g>
</g>
<!-- Node7&#45;&gt;Node9 -->
<g id="edge14" class="edge">
<title>Node7&#45;&gt;Node9</title>
<path fill="none" stroke="midnightblue" d="M239.24,-303.31C260.25,-292.11 290,-276.91 317,-265.5 322.1,-263.34 327.46,-261.22 332.86,-259.18"/>
<polygon fill="midnightblue" stroke="midnightblue" points="334.39,-262.35 342.57,-255.62 331.97,-255.78 334.39,-262.35"/>
</g>
<!-- Node10 -->
<g id="node10" class="node">
<title>Node10</title>
<g id="a_node10"><a xlink:href="../../db/dff/classleanux_1_1persist_1_1Statement.html#a4696481e678f7c7337c07c480ee985ec" target="_top" xlink:title="Reset a SQL statement for rexecute or even re&#45;prepare.">
<polygon fill="none" stroke="black" points="317,-362.5 317,-392.5 463,-392.5 463,-362.5 317,-362.5"/>
<text text-anchor="start" x="325" y="-380.5" font-family="Helvetica,sans-Serif" font-size="10.00">leanux::persist::Statement</text>
<text text-anchor="middle" x="390" y="-369.5" font-family="Helvetica,sans-Serif" font-size="10.00">::reset</text>
</a>
</g>
</g>
<!-- Node7&#45;&gt;Node10 -->
<g id="edge16" class="edge">
<title>Node7&#45;&gt;Node10</title>
<path fill="none" stroke="midnightblue" d="M256.75,-333.54C280.33,-341.38 309.34,-351.02 334.18,-359.28"/>
<polygon fill="midnightblue" stroke="midnightblue" points="333.24,-362.65 343.83,-362.49 335.45,-356.01 333.24,-362.65"/>
</g>
<!-- Node13 -->
<g id="node13" class="node">
<title>Node13</title>
<g id="a_node13"><a xlink:href="../../de/d84/classleanux_1_1util_1_1ConfigFile.html#aece3326e1c10df9dcfb48f4c12967336" target="_top" xlink:title="return the configuration parameter as a string.">
<polygon fill="none" stroke="black" points="327.5,-137.5 327.5,-167.5 452.5,-167.5 452.5,-137.5 327.5,-137.5"/>
<text text-anchor="start" x="335.5" y="-155.5" font-family="Helvetica,sans-Serif" font-size="10.00">leanux::util::ConfigFile</text>
<text text-anchor="middle" x="390" y="-144.5" font-family="Helvetica,sans-Serif" font-size="10.00">::getValue</text>
</a>
</g>
</g>
<!-- Node12&#45;&gt;Node13 -->
<g id="edge19" class="edge">
<title>Node12&#45;&gt;Node13</title>
<path fill="none" stroke="midnightblue" d="M273.08,-159.03C287.32,-158.23 302.59,-157.37 317.22,-156.54"/>
<polygon fill="midnightblue" stroke="midnightblue" points="317.44,-160.04 327.23,-155.98 317.04,-153.05 317.44,-160.04"/>
</g>
<!-- Node17&#45;&gt;Node3 -->
<g id="edge25" class="edge">
<title>Node17&#45;&gt;Node3</title>
<path fill="none" stroke="midnightblue" d="M262.58,-390.39C279.81,-394.53 299.18,-398.96 317,-402.5 374.07,-413.85 438.84,-424.27 488.68,-431.76"/>
<polygon fill="midnightblue" stroke="midnightblue" points="488.36,-435.25 498.76,-433.27 489.39,-428.33 488.36,-435.25"/>
</g>
<!-- Node17&#45;&gt;Node4 -->
<g id="edge26" class="edge">
<title>Node17&#45;&gt;Node4</title>
<path fill="none" stroke="midnightblue" d="M229.82,-392.66C244.39,-405.1 264.92,-423.53 281,-441.5 299.02,-461.64 295.16,-474.59 317,-490.5 319.05,-491.99 321.2,-493.4 323.42,-494.72"/>
<polygon fill="midnightblue" stroke="midnightblue" points="321.81,-497.83 332.29,-499.41 325.08,-491.64 321.81,-497.83"/>
</g>
<!-- Node17&#45;&gt;Node5 -->
<g id="edge27" class="edge">
<title>Node17&#45;&gt;Node5</title>
<path fill="none" stroke="midnightblue" d="M251.32,-392.63C261.26,-396.96 271.73,-402.01 281,-407.5 298.45,-417.82 299.49,-425.29 317,-435.5 323.51,-439.3 330.6,-442.86 337.7,-446.12"/>
<polygon fill="midnightblue" stroke="midnightblue" points="336.78,-449.54 347.35,-450.36 339.6,-443.13 336.78,-449.54"/>
</g>
<!-- Node17&#45;&gt;Node10 -->
<g id="edge28" class="edge">
<title>Node17&#45;&gt;Node10</title>
<path fill="none" stroke="midnightblue" d="M262.84,-377.5C276.57,-377.5 291.75,-377.5 306.7,-377.5"/>
<polygon fill="midnightblue" stroke="midnightblue" points="306.98,-381 316.98,-377.5 306.98,-374 306.98,-381"/>
</g>
</g>
</svg>
