<?xml version="1.0" encoding="UTF-8" standalone="no"?>
<!DOCTYPE svg PUBLIC "-//W3C//DTD SVG 1.1//EN"
 "http://www.w3.org/Graphics/SVG/1.1/DTD/svg11.dtd">
<!-- Generated by graphviz version 2.43.0 (0)
 -->
<!-- Title: leanux::tools::lard::vacuumAnalyze Pages: 1 -->
<svg width="476pt" height="155pt"
 viewBox="0.00 0.00 476.00 155.31" xmlns="http://www.w3.org/2000/svg" xmlns:xlink="http://www.w3.org/1999/xlink">
<g id="graph0" class="graph" transform="scale(1 1) rotate(0) translate(4 151.31)">
<title>leanux::tools::lard::vacuumAnalyze</title>
<!-- Node1 -->
<g id="node1" class="node">
<title>Node1</title>
<g id="a_node1"><a xlink:title=" ">
<polygon fill="#bfbfbf" stroke="black" points="0,-73.5 0,-103.5 104,-103.5 104,-73.5 0,-73.5"/>
<text text-anchor="start" x="8" y="-91.5" font-family="Helvetica,sans-Serif" font-size="10.00">leanux::tools::lard</text>
<text text-anchor="middle" x="52" y="-80.5" font-family="Helvetica,sans-Serif" font-size="10.00">::vacuumAnalyze</text>
</a>
</g>
</g>
<!-- Node2 -->
<g id="node2" class="node">
<title>Node2</title>
<g id="a_node2"><a xlink:href="../../db/dff/classleanux_1_1persist_1_1Statement.html#a5b31fb14297ad5c1c342cfc0d8f797de" target="_top" xlink:title="A statement handle can be explicitly closed without deleting the Statement object itself.">
<polygon fill="none" stroke="black" points="322,-95.5 322,-125.5 468,-125.5 468,-95.5 322,-95.5"/>
<text text-anchor="start" x="330" y="-113.5" font-family="Helvetica,sans-Serif" font-size="10.00">leanux::persist::Statement</text>
<text text-anchor="middle" x="395" y="-102.5" font-family="Helvetica,sans-Serif" font-size="10.00">::close</text>
</a>
</g>
</g>
<!-- Node1&#45;&gt;Node2 -->
<g id="edge1" class="edge">
<title>Node1&#45;&gt;Node2</title>
<path fill="none" stroke="midnightblue" d="M72.41,-103.65C89.22,-115.75 114.75,-131.76 140,-138.5 206.64,-156.29 286.03,-142.14 338.09,-128.29"/>
<polygon fill="midnightblue" stroke="midnightblue" points="339.09,-131.64 347.81,-125.62 337.24,-124.89 339.09,-131.64"/>
</g>
<!-- Node3 -->
<g id="node3" class="node">
<title>Node3</title>
<g id="a_node3"><a xlink:href="../../dc/d43/classleanux_1_1persist_1_1DDL.html#ab2cd56bd7eff3f55c82a5386749a06fa" target="_top" xlink:title="execute, throws Oops on error.">
<polygon fill="none" stroke="black" points="155.5,-98.5 155.5,-128.5 270.5,-128.5 270.5,-98.5 155.5,-98.5"/>
<text text-anchor="start" x="163.5" y="-116.5" font-family="Helvetica,sans-Serif" font-size="10.00">leanux::persist::DDL</text>
<text text-anchor="middle" x="213" y="-105.5" font-family="Helvetica,sans-Serif" font-size="10.00">::execute</text>
</a>
</g>
</g>
<!-- Node1&#45;&gt;Node3 -->
<g id="edge2" class="edge">
<title>Node1&#45;&gt;Node3</title>
<path fill="none" stroke="midnightblue" d="M104.18,-96.55C117.33,-98.62 131.67,-100.87 145.47,-103.04"/>
<polygon fill="midnightblue" stroke="midnightblue" points="144.98,-106.51 155.4,-104.6 146.07,-99.59 144.98,-106.51"/>
</g>
<!-- Node4 -->
<g id="node4" class="node">
<title>Node4</title>
<g id="a_node4"><a xlink:href="../../db/dff/classleanux_1_1persist_1_1Statement.html#a1b809c1b1d0e9d24af65e439c3893d74" target="_top" xlink:title="Prepare a SQL statement.">
<polygon fill="none" stroke="black" points="140,-49.5 140,-79.5 286,-79.5 286,-49.5 140,-49.5"/>
<text text-anchor="start" x="148" y="-67.5" font-family="Helvetica,sans-Serif" font-size="10.00">leanux::persist::Statement</text>
<text text-anchor="middle" x="213" y="-56.5" font-family="Helvetica,sans-Serif" font-size="10.00">::prepare</text>
</a>
</g>
</g>
<!-- Node1&#45;&gt;Node4 -->
<g id="edge3" class="edge">
<title>Node1&#45;&gt;Node4</title>
<path fill="none" stroke="midnightblue" d="M104.18,-80.77C112.34,-79.54 120.95,-78.24 129.61,-76.94"/>
<polygon fill="midnightblue" stroke="midnightblue" points="130.41,-80.36 139.77,-75.4 129.36,-73.43 130.41,-80.36"/>
</g>
<!-- Node5 -->
<g id="node5" class="node">
<title>Node5</title>
<g id="a_node5"><a xlink:href="../../db/dff/classleanux_1_1persist_1_1Statement.html#a4696481e678f7c7337c07c480ee985ec" target="_top" xlink:title="Reset a SQL statement for rexecute or even re&#45;prepare.">
<polygon fill="none" stroke="black" points="140,-0.5 140,-30.5 286,-30.5 286,-0.5 140,-0.5"/>
<text text-anchor="start" x="148" y="-18.5" font-family="Helvetica,sans-Serif" font-size="10.00">leanux::persist::Statement</text>
<text text-anchor="middle" x="213" y="-7.5" font-family="Helvetica,sans-Serif" font-size="10.00">::reset</text>
</a>
</g>
</g>
<!-- Node1&#45;&gt;Node5 -->
<g id="edge5" class="edge">
<title>Node1&#45;&gt;Node5</title>
<path fill="none" stroke="midnightblue" d="M77.55,-73.48C94.67,-63.38 118.26,-50.19 140,-40.5 144.91,-38.31 150.08,-36.19 155.29,-34.17"/>
<polygon fill="midnightblue" stroke="midnightblue" points="156.56,-37.43 164.69,-30.64 154.1,-30.88 156.56,-37.43"/>
</g>
<!-- Node4&#45;&gt;Node2 -->
<g id="edge4" class="edge">
<title>Node4&#45;&gt;Node2</title>
<path fill="none" stroke="midnightblue" d="M272.94,-79.56C289.65,-83.83 307.99,-88.52 325.23,-92.93"/>
<polygon fill="midnightblue" stroke="midnightblue" points="324.68,-96.4 335.24,-95.48 326.41,-89.62 324.68,-96.4"/>
</g>
</g>
</svg>
