<?xml version="1.0" encoding="UTF-8" standalone="no"?>
<!DOCTYPE svg PUBLIC "-//W3C//DTD SVG 1.1//EN"
 "http://www.w3.org/Graphics/SVG/1.1/DTD/svg11.dtd">
<!-- Generated by graphviz version 2.43.0 (0)
 -->
<!-- Title: leanux::tools::lard::createTableStatus Pages: 1 -->
<svg width="398pt" height="88pt"
 viewBox="0.00 0.00 398.00 88.00" xmlns="http://www.w3.org/2000/svg" xmlns:xlink="http://www.w3.org/1999/xlink">
<g id="graph0" class="graph" transform="scale(1 1) rotate(0) translate(4 84)">
<title>leanux::tools::lard::createTableStatus</title>
<!-- Node1 -->
<g id="node1" class="node">
<title>Node1</title>
<g id="a_node1"><a xlink:title=" ">
<polygon fill="#bfbfbf" stroke="black" points="280,-24.5 280,-54.5 390,-54.5 390,-24.5 280,-24.5"/>
<text text-anchor="start" x="288" y="-42.5" font-family="Helvetica,sans-Serif" font-size="10.00">leanux::tools::lard</text>
<text text-anchor="middle" x="335" y="-31.5" font-family="Helvetica,sans-Serif" font-size="10.00">::createTableStatus</text>
</a>
</g>
</g>
<!-- Node2 -->
<g id="node2" class="node">
<title>Node2</title>
<g id="a_node2"><a xlink:href="../../d4/d62/namespaceleanux_1_1tools_1_1lard.html#a4f52f68eb8bc686294b04d3138d48740" target="_top" xlink:title=" ">
<polygon fill="none" stroke="black" points="140,-49.5 140,-79.5 244,-79.5 244,-49.5 140,-49.5"/>
<text text-anchor="start" x="148" y="-67.5" font-family="Helvetica,sans-Serif" font-size="10.00">leanux::tools::lard</text>
<text text-anchor="middle" x="192" y="-56.5" font-family="Helvetica,sans-Serif" font-size="10.00">::createSchema</text>
</a>
</g>
</g>
<!-- Node1&#45;&gt;Node2 -->
<g id="edge1" class="edge">
<title>Node1&#45;&gt;Node2</title>
<path fill="none" stroke="midnightblue" d="M269.94,-50.86C261.39,-52.37 252.71,-53.91 244.42,-55.38"/>
<polygon fill="midnightblue" stroke="midnightblue" points="270.65,-54.29 279.89,-49.09 269.43,-47.39 270.65,-54.29"/>
</g>
<!-- Node6 -->
<g id="node4" class="node">
<title>Node6</title>
<g id="a_node4"><a xlink:href="../../d4/d62/namespaceleanux_1_1tools_1_1lard.html#aee987aaaf44a4832b535ecf78065d963" target="_top" xlink:title=" ">
<polygon fill="none" stroke="black" points="140,-0.5 140,-30.5 244,-30.5 244,-0.5 140,-0.5"/>
<text text-anchor="start" x="148" y="-18.5" font-family="Helvetica,sans-Serif" font-size="10.00">leanux::tools::lard</text>
<text text-anchor="middle" x="192" y="-7.5" font-family="Helvetica,sans-Serif" font-size="10.00">::ensureSinglePid</text>
</a>
</g>
</g>
<!-- Node1&#45;&gt;Node6 -->
<g id="edge3" class="edge">
<title>Node1&#45;&gt;Node6</title>
<path fill="none" stroke="midnightblue" d="M269.94,-28.6C261.39,-27.14 252.71,-25.66 244.42,-24.25"/>
<polygon fill="midnightblue" stroke="midnightblue" points="269.44,-32.06 279.89,-30.29 270.62,-25.16 269.44,-32.06"/>
</g>
<!-- Node3 -->
<g id="node3" class="node">
<title>Node3</title>
<g id="a_node3"><a xlink:href="../../d4/d62/namespaceleanux_1_1tools_1_1lard.html#a6de74bbef1d571bf7eb000e62900a11d" target="_top" xlink:title=" ">
<polygon fill="none" stroke="red" points="0,-24.5 0,-54.5 104,-54.5 104,-24.5 0,-24.5"/>
<text text-anchor="start" x="8" y="-42.5" font-family="Helvetica,sans-Serif" font-size="10.00">leanux::tools::lard</text>
<text text-anchor="middle" x="52" y="-31.5" font-family="Helvetica,sans-Serif" font-size="10.00">::mainLoop</text>
</a>
</g>
</g>
<!-- Node2&#45;&gt;Node3 -->
<g id="edge2" class="edge">
<title>Node2&#45;&gt;Node3</title>
<path fill="none" stroke="midnightblue" d="M129.5,-53.36C121.13,-51.84 112.6,-50.3 104.43,-48.82"/>
<polygon fill="midnightblue" stroke="midnightblue" points="129.15,-56.85 139.61,-55.19 130.4,-49.96 129.15,-56.85"/>
</g>
<!-- Node6&#45;&gt;Node3 -->
<g id="edge4" class="edge">
<title>Node6&#45;&gt;Node3</title>
<path fill="none" stroke="midnightblue" d="M129.5,-26.19C121.13,-27.65 112.6,-29.13 104.43,-30.56"/>
<polygon fill="midnightblue" stroke="midnightblue" points="130.36,-29.6 139.61,-24.44 129.16,-22.7 130.36,-29.6"/>
</g>
</g>
</svg>
