<?xml version="1.0" encoding="UTF-8" standalone="no"?>
<!DOCTYPE svg PUBLIC "-//W3C//DTD SVG 1.1//EN"
 "http://www.w3.org/Graphics/SVG/1.1/DTD/svg11.dtd">
<!-- Generated by graphviz version 2.43.0 (0)
 -->
<!-- Title: leanux::tools::lard::sysLog Pages: 1 -->
<svg width="537pt" height="313pt"
 viewBox="0.00 0.00 537.00 313.00" xmlns="http://www.w3.org/2000/svg" xmlns:xlink="http://www.w3.org/1999/xlink">
<g id="graph0" class="graph" transform="scale(1 1) rotate(0) translate(4 309)">
<title>leanux::tools::lard::sysLog</title>
<!-- Node1 -->
<g id="node1" class="node">
<title>Node1</title>
<g id="a_node1"><a xlink:title=" ">
<polygon fill="#bfbfbf" stroke="black" points="425,-137.5 425,-167.5 529,-167.5 529,-137.5 425,-137.5"/>
<text text-anchor="start" x="433" y="-155.5" font-family="Helvetica,sans-Serif" font-size="10.00">leanux::tools::lard</text>
<text text-anchor="middle" x="477" y="-144.5" font-family="Helvetica,sans-Serif" font-size="10.00">::sysLog</text>
</a>
</g>
</g>
<!-- Node2 -->
<g id="node2" class="node">
<title>Node2</title>
<g id="a_node2"><a xlink:href="../../d4/d62/namespaceleanux_1_1tools_1_1lard.html#aee987aaaf44a4832b535ecf78065d963" target="_top" xlink:title=" ">
<polygon fill="none" stroke="black" points="284,-274.5 284,-304.5 388,-304.5 388,-274.5 284,-274.5"/>
<text text-anchor="start" x="292" y="-292.5" font-family="Helvetica,sans-Serif" font-size="10.00">leanux::tools::lard</text>
<text text-anchor="middle" x="336" y="-281.5" font-family="Helvetica,sans-Serif" font-size="10.00">::ensureSinglePid</text>
</a>
</g>
</g>
<!-- Node1&#45;&gt;Node2 -->
<g id="edge1" class="edge">
<title>Node1&#45;&gt;Node2</title>
<path fill="none" stroke="midnightblue" d="M460.45,-176.35C444.49,-199.56 417.96,-234.82 389,-259.5 382.49,-265.04 374.82,-270.11 367.4,-274.44"/>
<polygon fill="midnightblue" stroke="midnightblue" points="463.52,-178.05 466.22,-167.8 457.72,-174.13 463.52,-178.05"/>
</g>
<!-- Node3 -->
<g id="node3" class="node">
<title>Node3</title>
<g id="a_node3"><a xlink:href="../../d4/d62/namespaceleanux_1_1tools_1_1lard.html#a6de74bbef1d571bf7eb000e62900a11d" target="_top" xlink:title=" ">
<polygon fill="none" stroke="black" points="141.5,-161.5 141.5,-191.5 245.5,-191.5 245.5,-161.5 141.5,-161.5"/>
<text text-anchor="start" x="149.5" y="-179.5" font-family="Helvetica,sans-Serif" font-size="10.00">leanux::tools::lard</text>
<text text-anchor="middle" x="193.5" y="-168.5" font-family="Helvetica,sans-Serif" font-size="10.00">::mainLoop</text>
</a>
</g>
</g>
<!-- Node1&#45;&gt;Node3 -->
<g id="edge7" class="edge">
<title>Node1&#45;&gt;Node3</title>
<path fill="none" stroke="midnightblue" d="M457.41,-175.39C441.41,-193.13 416.6,-216.35 389,-226.5 344.78,-242.76 328.56,-238.48 283,-226.5 257.4,-219.77 231.42,-203.76 214.29,-191.66"/>
<polygon fill="midnightblue" stroke="midnightblue" points="460.19,-177.53 464.12,-167.69 454.91,-172.93 460.19,-177.53"/>
</g>
<!-- Node4 -->
<g id="node4" class="node">
<title>Node4</title>
<g id="a_node4"><a xlink:href="../../d4/d62/namespaceleanux_1_1tools_1_1lard.html#aecb1bb340203cfe30357d494d4b2622e" target="_top" xlink:title="Entry point.">
<polygon fill="none" stroke="red" points="0,-44.5 0,-74.5 104,-74.5 104,-44.5 0,-44.5"/>
<text text-anchor="start" x="8" y="-62.5" font-family="Helvetica,sans-Serif" font-size="10.00">leanux::tools::lard</text>
<text text-anchor="middle" x="52" y="-51.5" font-family="Helvetica,sans-Serif" font-size="10.00">::main</text>
</a>
</g>
</g>
<!-- Node1&#45;&gt;Node4 -->
<g id="edge6" class="edge">
<title>Node1&#45;&gt;Node4</title>
<path fill="none" stroke="midnightblue" d="M456.97,-129.72C440.87,-112.25 416.14,-89.36 389,-78.5 294.07,-40.51 171.92,-45.58 104.12,-52.59"/>
<polygon fill="midnightblue" stroke="midnightblue" points="454.47,-132.17 463.74,-137.3 459.69,-127.51 454.47,-132.17"/>
</g>
<!-- Node6 -->
<g id="node5" class="node">
<title>Node6</title>
<g id="a_node5"><a xlink:href="../../d4/d62/namespaceleanux_1_1tools_1_1lard.html#af056336c72314eb796c2815eec0d218b" target="_top" xlink:title=" ">
<polygon fill="none" stroke="black" points="140,-0.5 140,-30.5 247,-30.5 247,-0.5 140,-0.5"/>
<text text-anchor="start" x="148" y="-18.5" font-family="Helvetica,sans-Serif" font-size="10.00">leanux::tools::lard</text>
<text text-anchor="middle" x="193.5" y="-7.5" font-family="Helvetica,sans-Serif" font-size="10.00">::interrupt_handler</text>
</a>
</g>
</g>
<!-- Node1&#45;&gt;Node6 -->
<g id="edge4" class="edge">
<title>Node1&#45;&gt;Node6</title>
<path fill="none" stroke="midnightblue" d="M463.58,-128.56C449.2,-103.47 423.07,-65.03 389,-45.5 345.72,-20.69 288.55,-14.42 247.4,-13.61"/>
<polygon fill="midnightblue" stroke="midnightblue" points="460.6,-130.4 468.5,-137.46 466.72,-127.01 460.6,-130.4"/>
</g>
<!-- Node7 -->
<g id="node6" class="node">
<title>Node7</title>
<g id="a_node6"><a xlink:href="../../d4/d62/namespaceleanux_1_1tools_1_1lard.html#a45d90387f852d7a71981b5d4ff93d8da" target="_top" xlink:title=" ">
<polygon fill="none" stroke="black" points="284,-186.5 284,-216.5 388,-216.5 388,-186.5 284,-186.5"/>
<text text-anchor="start" x="292" y="-204.5" font-family="Helvetica,sans-Serif" font-size="10.00">leanux::tools::lard</text>
<text text-anchor="middle" x="336" y="-193.5" font-family="Helvetica,sans-Serif" font-size="10.00">::shrinkDB</text>
</a>
</g>
</g>
<!-- Node1&#45;&gt;Node7 -->
<g id="edge8" class="edge">
<title>Node1&#45;&gt;Node7</title>
<path fill="none" stroke="midnightblue" d="M423.42,-171.04C409.06,-176.1 393.68,-181.52 379.94,-186.36"/>
<polygon fill="midnightblue" stroke="midnightblue" points="424.89,-174.23 433.16,-167.6 422.57,-167.63 424.89,-174.23"/>
</g>
<!-- Node8 -->
<g id="node7" class="node">
<title>Node8</title>
<g id="a_node7"><a xlink:href="../../d4/d62/namespaceleanux_1_1tools_1_1lard.html#a916cea2cf80aa0a17a8f96c8a7b19a8a" target="_top" xlink:title=" ">
<polygon fill="none" stroke="black" points="284,-137.5 284,-167.5 388,-167.5 388,-137.5 284,-137.5"/>
<text text-anchor="start" x="292" y="-155.5" font-family="Helvetica,sans-Serif" font-size="10.00">leanux::tools::lard</text>
<text text-anchor="middle" x="336" y="-144.5" font-family="Helvetica,sans-Serif" font-size="10.00">::updateSchema</text>
</a>
</g>
</g>
<!-- Node1&#45;&gt;Node8 -->
<g id="edge10" class="edge">
<title>Node1&#45;&gt;Node8</title>
<path fill="none" stroke="midnightblue" d="M414.44,-152.5C405.66,-152.5 396.71,-152.5 388.15,-152.5"/>
<polygon fill="midnightblue" stroke="midnightblue" points="414.64,-156 424.64,-152.5 414.64,-149 414.64,-156"/>
</g>
<!-- Node9 -->
<g id="node8" class="node">
<title>Node9</title>
<g id="a_node8"><a xlink:href="../../d4/d62/namespaceleanux_1_1tools_1_1lard.html#a1836a03324cfc7e84a5563a59566d8aa" target="_top" xlink:title=" ">
<polygon fill="none" stroke="black" points="283,-88.5 283,-118.5 389,-118.5 389,-88.5 283,-88.5"/>
<text text-anchor="start" x="291" y="-106.5" font-family="Helvetica,sans-Serif" font-size="10.00">leanux::tools::lard</text>
<text text-anchor="middle" x="336" y="-95.5" font-family="Helvetica,sans-Serif" font-size="10.00">::wait_log_handler</text>
</a>
</g>
</g>
<!-- Node1&#45;&gt;Node9 -->
<g id="edge12" class="edge">
<title>Node1&#45;&gt;Node9</title>
<path fill="none" stroke="midnightblue" d="M423.42,-133.96C409.06,-128.9 393.68,-123.48 379.94,-118.64"/>
<polygon fill="midnightblue" stroke="midnightblue" points="422.57,-137.37 433.16,-137.4 424.89,-130.77 422.57,-137.37"/>
</g>
<!-- Node2&#45;&gt;Node3 -->
<g id="edge2" class="edge">
<title>Node2&#45;&gt;Node3</title>
<path fill="none" stroke="midnightblue" d="M297.34,-269.16C292.4,-266.1 287.5,-262.84 283,-259.5 254.58,-238.41 225.35,-209.26 208.61,-191.71"/>
<polygon fill="midnightblue" stroke="midnightblue" points="295.81,-272.32 306.19,-274.45 299.4,-266.31 295.81,-272.32"/>
</g>
<!-- Node3&#45;&gt;Node4 -->
<g id="edge3" class="edge">
<title>Node3&#45;&gt;Node4</title>
<path fill="none" stroke="midnightblue" d="M166.84,-154.98C139.16,-131.76 95.77,-95.37 71.33,-74.87"/>
<polygon fill="midnightblue" stroke="midnightblue" points="164.64,-157.7 174.55,-161.44 169.14,-152.34 164.64,-157.7"/>
</g>
<!-- Node6&#45;&gt;Node4 -->
<g id="edge5" class="edge">
<title>Node6&#45;&gt;Node4</title>
<path fill="none" stroke="midnightblue" d="M135.05,-33.62C123.69,-37.2 111.88,-40.93 100.88,-44.4"/>
<polygon fill="midnightblue" stroke="midnightblue" points="136.4,-36.87 144.88,-30.52 134.29,-30.19 136.4,-36.87"/>
</g>
<!-- Node7&#45;&gt;Node3 -->
<g id="edge9" class="edge">
<title>Node7&#45;&gt;Node3</title>
<path fill="none" stroke="midnightblue" d="M273.85,-190.62C264.5,-188.96 254.93,-187.25 245.82,-185.63"/>
<polygon fill="midnightblue" stroke="midnightblue" points="273.42,-194.1 283.88,-192.4 274.65,-187.21 273.42,-194.1"/>
</g>
<!-- Node8&#45;&gt;Node3 -->
<g id="edge11" class="edge">
<title>Node8&#45;&gt;Node3</title>
<path fill="none" stroke="midnightblue" d="M273.85,-162.95C264.5,-164.54 254.93,-166.18 245.82,-167.73"/>
<polygon fill="midnightblue" stroke="midnightblue" points="274.61,-166.37 283.88,-161.23 273.43,-159.47 274.61,-166.37"/>
</g>
<!-- Node9&#45;&gt;Node3 -->
<g id="edge13" class="edge">
<title>Node9&#45;&gt;Node3</title>
<path fill="none" stroke="midnightblue" d="M293.86,-123.05C290.17,-124.87 286.51,-126.7 283,-128.5 262.15,-139.16 238.87,-151.81 221.43,-161.45"/>
<polygon fill="midnightblue" stroke="midnightblue" points="295.53,-126.13 302.98,-118.59 292.46,-119.84 295.53,-126.13"/>
</g>
</g>
</svg>
