<?xml version="1.0" encoding="UTF-8" standalone="no"?>
<!DOCTYPE svg PUBLIC "-//W3C//DTD SVG 1.1//EN"
 "http://www.w3.org/Graphics/SVG/1.1/DTD/svg11.dtd">
<!-- Generated by graphviz version 2.43.0 (0)
 -->
<!-- Title: leanux::tools::lard::updateSchema Pages: 1 -->
<svg width="653pt" height="256pt"
 viewBox="0.00 0.00 653.00 255.68" xmlns="http://www.w3.org/2000/svg" xmlns:xlink="http://www.w3.org/1999/xlink">
<g id="graph0" class="graph" transform="scale(1 1) rotate(0) translate(4 251.68)">
<title>leanux::tools::lard::updateSchema</title>
<!-- Node1 -->
<g id="node1" class="node">
<title>Node1</title>
<g id="a_node1"><a xlink:title=" ">
<polygon fill="#bfbfbf" stroke="black" points="0,-112.5 0,-142.5 104,-142.5 104,-112.5 0,-112.5"/>
<text text-anchor="start" x="8" y="-130.5" font-family="Helvetica,sans-Serif" font-size="10.00">leanux::tools::lard</text>
<text text-anchor="middle" x="52" y="-119.5" font-family="Helvetica,sans-Serif" font-size="10.00">::updateSchema</text>
</a>
</g>
</g>
<!-- Node2 -->
<g id="node2" class="node">
<title>Node2</title>
<g id="a_node2"><a xlink:href="../../de/d84/classleanux_1_1util_1_1ConfigFile.html#a8cef175948cd9727c732de3a605c99ba" target="_top" xlink:title="Get the ConfigurationFile object for the appname, or construct one if it does not exist.">
<polygon fill="none" stroke="black" points="148,-186.5 148,-216.5 273,-216.5 273,-186.5 148,-186.5"/>
<text text-anchor="start" x="156" y="-204.5" font-family="Helvetica,sans-Serif" font-size="10.00">leanux::util::ConfigFile</text>
<text text-anchor="middle" x="210.5" y="-193.5" font-family="Helvetica,sans-Serif" font-size="10.00">::getConfig</text>
</a>
</g>
</g>
<!-- Node1&#45;&gt;Node2 -->
<g id="edge1" class="edge">
<title>Node1&#45;&gt;Node2</title>
<path fill="none" stroke="midnightblue" d="M76.36,-142.55C93.52,-153.19 117.64,-167.33 140,-177.5 144.03,-179.33 148.24,-181.11 152.52,-182.81"/>
<polygon fill="midnightblue" stroke="midnightblue" points="151.33,-186.11 161.92,-186.42 153.84,-179.57 151.33,-186.11"/>
</g>
<!-- Node3 -->
<g id="node3" class="node">
<title>Node3</title>
<g id="a_node3"><a xlink:href="../../d8/daf/classleanux_1_1persist_1_1Database.html#aec62932794968b44881a68c7d32be763" target="_top" xlink:title="get the current user_version pragma">
<polygon fill="none" stroke="black" points="140,-137.5 140,-167.5 281,-167.5 281,-137.5 140,-137.5"/>
<text text-anchor="start" x="148" y="-155.5" font-family="Helvetica,sans-Serif" font-size="10.00">leanux::persist::Database</text>
<text text-anchor="middle" x="210.5" y="-144.5" font-family="Helvetica,sans-Serif" font-size="10.00">::getUserVersion</text>
</a>
</g>
</g>
<!-- Node1&#45;&gt;Node3 -->
<g id="edge2" class="edge">
<title>Node1&#45;&gt;Node3</title>
<path fill="none" stroke="midnightblue" d="M104.24,-135.69C112.53,-137.01 121.29,-138.41 130.06,-139.81"/>
<polygon fill="midnightblue" stroke="midnightblue" points="129.52,-143.27 139.95,-141.39 130.62,-136.36 129.52,-143.27"/>
</g>
<!-- Node8 -->
<g id="node8" class="node">
<title>Node8</title>
<g id="a_node8"><a xlink:href="../../d8/daf/classleanux_1_1persist_1_1Database.html#a24f88f33e32348bc419ec32f0880b114" target="_top" xlink:title="set the user_version pragma">
<polygon fill="none" stroke="black" points="140,-88.5 140,-118.5 281,-118.5 281,-88.5 140,-88.5"/>
<text text-anchor="start" x="148" y="-106.5" font-family="Helvetica,sans-Serif" font-size="10.00">leanux::persist::Database</text>
<text text-anchor="middle" x="210.5" y="-95.5" font-family="Helvetica,sans-Serif" font-size="10.00">::setUserVersion</text>
</a>
</g>
</g>
<!-- Node1&#45;&gt;Node8 -->
<g id="edge8" class="edge">
<title>Node1&#45;&gt;Node8</title>
<path fill="none" stroke="midnightblue" d="M104.24,-119.64C112.53,-118.37 121.29,-117.03 130.06,-115.68"/>
<polygon fill="midnightblue" stroke="midnightblue" points="130.59,-119.14 139.95,-114.17 129.53,-112.22 130.59,-119.14"/>
</g>
<!-- Node10 -->
<g id="node10" class="node">
<title>Node10</title>
<g id="a_node10"><a xlink:href="../../d4/d62/namespaceleanux_1_1tools_1_1lard.html#a0a3951f50023eb0f3b4f6722a5943436" target="_top" xlink:title=" ">
<polygon fill="none" stroke="black" points="158.5,-39.5 158.5,-69.5 262.5,-69.5 262.5,-39.5 158.5,-39.5"/>
<text text-anchor="start" x="166.5" y="-57.5" font-family="Helvetica,sans-Serif" font-size="10.00">leanux::tools::lard</text>
<text text-anchor="middle" x="210.5" y="-46.5" font-family="Helvetica,sans-Serif" font-size="10.00">::sysLog</text>
</a>
</g>
</g>
<!-- Node1&#45;&gt;Node10 -->
<g id="edge12" class="edge">
<title>Node1&#45;&gt;Node10</title>
<path fill="none" stroke="midnightblue" d="M77.96,-112.34C95.06,-102.3 118.47,-89.24 140,-79.5 144.7,-77.37 149.64,-75.3 154.62,-73.31"/>
<polygon fill="midnightblue" stroke="midnightblue" points="156.15,-76.48 164.22,-69.61 153.63,-69.94 156.15,-76.48"/>
</g>
<!-- Node4 -->
<g id="node4" class="node">
<title>Node4</title>
<g id="a_node4"><a xlink:href="../../db/dff/classleanux_1_1persist_1_1Statement.html#a5b31fb14297ad5c1c342cfc0d8f797de" target="_top" xlink:title="A statement handle can be explicitly closed without deleting the Statement object itself.">
<polygon fill="none" stroke="black" points="499,-88.5 499,-118.5 645,-118.5 645,-88.5 499,-88.5"/>
<text text-anchor="start" x="507" y="-106.5" font-family="Helvetica,sans-Serif" font-size="10.00">leanux::persist::Statement</text>
<text text-anchor="middle" x="572" y="-95.5" font-family="Helvetica,sans-Serif" font-size="10.00">::close</text>
</a>
</g>
</g>
<!-- Node3&#45;&gt;Node4 -->
<g id="edge3" class="edge">
<title>Node3&#45;&gt;Node4</title>
<path fill="none" stroke="midnightblue" d="M264.1,-167.56C270.08,-170.37 275.86,-173.66 281,-177.5 302.66,-193.67 292.89,-214.3 317,-226.5 374.89,-255.81 403.89,-253.26 463,-226.5 507.62,-206.3 541.11,-157.55 558.23,-127.85"/>
<polygon fill="midnightblue" stroke="midnightblue" points="561.39,-129.37 563.21,-118.93 555.28,-125.96 561.39,-129.37"/>
</g>
<!-- Node5 -->
<g id="node5" class="node">
<title>Node5</title>
<g id="a_node5"><a xlink:href="../../d4/d2c/classleanux_1_1persist_1_1Query.html#a86b5deec83f9cdf0c72f6caf503984d9" target="_top" xlink:title="Get int value from select list.">
<polygon fill="none" stroke="black" points="328,-186.5 328,-216.5 452,-216.5 452,-186.5 328,-186.5"/>
<text text-anchor="start" x="336" y="-204.5" font-family="Helvetica,sans-Serif" font-size="10.00">leanux::persist::Query</text>
<text text-anchor="middle" x="390" y="-193.5" font-family="Helvetica,sans-Serif" font-size="10.00">::getInt</text>
</a>
</g>
</g>
<!-- Node3&#45;&gt;Node5 -->
<g id="edge4" class="edge">
<title>Node3&#45;&gt;Node5</title>
<path fill="none" stroke="midnightblue" d="M266.2,-167.6C284.68,-172.7 305.48,-178.44 324.63,-183.73"/>
<polygon fill="midnightblue" stroke="midnightblue" points="323.91,-187.16 334.48,-186.45 325.77,-180.41 323.91,-187.16"/>
</g>
<!-- Node6 -->
<g id="node6" class="node">
<title>Node6</title>
<g id="a_node6"><a xlink:href="../../db/dff/classleanux_1_1persist_1_1Statement.html#a1b809c1b1d0e9d24af65e439c3893d74" target="_top" xlink:title="Prepare a SQL statement.">
<polygon fill="none" stroke="black" points="317,-88.5 317,-118.5 463,-118.5 463,-88.5 317,-88.5"/>
<text text-anchor="start" x="325" y="-106.5" font-family="Helvetica,sans-Serif" font-size="10.00">leanux::persist::Statement</text>
<text text-anchor="middle" x="390" y="-95.5" font-family="Helvetica,sans-Serif" font-size="10.00">::prepare</text>
</a>
</g>
</g>
<!-- Node3&#45;&gt;Node6 -->
<g id="edge5" class="edge">
<title>Node3&#45;&gt;Node6</title>
<path fill="none" stroke="midnightblue" d="M266.2,-137.4C284.68,-132.3 305.48,-126.56 324.63,-121.27"/>
<polygon fill="midnightblue" stroke="midnightblue" points="325.77,-124.59 334.48,-118.55 323.91,-117.84 325.77,-124.59"/>
</g>
<!-- Node7 -->
<g id="node7" class="node">
<title>Node7</title>
<g id="a_node7"><a xlink:href="../../d4/d2c/classleanux_1_1persist_1_1Query.html#a294e11c33a22761503c49418f5ca9815" target="_top" xlink:title="Step the result list, end of list returns false.">
<polygon fill="none" stroke="black" points="328,-137.5 328,-167.5 452,-167.5 452,-137.5 328,-137.5"/>
<text text-anchor="start" x="336" y="-155.5" font-family="Helvetica,sans-Serif" font-size="10.00">leanux::persist::Query</text>
<text text-anchor="middle" x="390" y="-144.5" font-family="Helvetica,sans-Serif" font-size="10.00">::step</text>
</a>
</g>
</g>
<!-- Node3&#45;&gt;Node7 -->
<g id="edge7" class="edge">
<title>Node3&#45;&gt;Node7</title>
<path fill="none" stroke="midnightblue" d="M281.14,-152.5C293.21,-152.5 305.77,-152.5 317.87,-152.5"/>
<polygon fill="midnightblue" stroke="midnightblue" points="317.91,-156 327.91,-152.5 317.91,-149 317.91,-156"/>
</g>
<!-- Node6&#45;&gt;Node4 -->
<g id="edge6" class="edge">
<title>Node6&#45;&gt;Node4</title>
<path fill="none" stroke="midnightblue" d="M463.18,-103.5C471.52,-103.5 480.08,-103.5 488.54,-103.5"/>
<polygon fill="midnightblue" stroke="midnightblue" points="488.81,-107 498.81,-103.5 488.81,-100 488.81,-107"/>
</g>
<!-- Node8&#45;&gt;Node4 -->
<g id="edge9" class="edge">
<title>Node8&#45;&gt;Node4</title>
<path fill="none" stroke="midnightblue" d="M266.95,-88.44C282.97,-84.76 300.57,-81.34 317,-79.5 381.48,-72.26 398.5,-72.42 463,-79.5 476.52,-80.98 490.82,-83.48 504.44,-86.32"/>
<polygon fill="midnightblue" stroke="midnightblue" points="503.7,-89.74 514.22,-88.44 505.19,-82.9 503.7,-89.74"/>
</g>
<!-- Node8&#45;&gt;Node6 -->
<g id="edge11" class="edge">
<title>Node8&#45;&gt;Node6</title>
<path fill="none" stroke="midnightblue" d="M281.14,-103.5C289.59,-103.5 298.28,-103.5 306.88,-103.5"/>
<polygon fill="midnightblue" stroke="midnightblue" points="306.93,-107 316.93,-103.5 306.93,-100 306.93,-107"/>
</g>
<!-- Node9 -->
<g id="node9" class="node">
<title>Node9</title>
<g id="a_node9"><a xlink:href="../../dc/d43/classleanux_1_1persist_1_1DDL.html#ab2cd56bd7eff3f55c82a5386749a06fa" target="_top" xlink:title="execute, throws Oops on error.">
<polygon fill="none" stroke="black" points="332.5,-0.5 332.5,-30.5 447.5,-30.5 447.5,-0.5 332.5,-0.5"/>
<text text-anchor="start" x="340.5" y="-18.5" font-family="Helvetica,sans-Serif" font-size="10.00">leanux::persist::DDL</text>
<text text-anchor="middle" x="390" y="-7.5" font-family="Helvetica,sans-Serif" font-size="10.00">::execute</text>
</a>
</g>
</g>
<!-- Node8&#45;&gt;Node9 -->
<g id="edge10" class="edge">
<title>Node8&#45;&gt;Node9</title>
<path fill="none" stroke="midnightblue" d="M263.11,-88.47C269.32,-85.85 275.43,-82.87 281,-79.5 299.82,-68.1 298.54,-57.48 317,-45.5 323.09,-41.55 329.79,-37.93 336.57,-34.69"/>
<polygon fill="midnightblue" stroke="midnightblue" points="338.16,-37.81 345.83,-30.5 335.27,-31.44 338.16,-37.81"/>
</g>
</g>
</svg>
