<?xml version="1.0" encoding="UTF-8" standalone="no"?>
<!DOCTYPE svg PUBLIC "-//W3C//DTD SVG 1.1//EN"
 "http://www.w3.org/Graphics/SVG/1.1/DTD/svg11.dtd">
<!-- Generated by graphviz version 2.43.0 (0)
 -->
<!-- Title: leanux::tools::lard::applyRetention Pages: 1 -->
<svg width="637pt" height="371pt"
 viewBox="0.00 0.00 637.00 371.16" xmlns="http://www.w3.org/2000/svg" xmlns:xlink="http://www.w3.org/1999/xlink">
<g id="graph0" class="graph" transform="scale(1 1) rotate(0) translate(4 367.16)">
<title>leanux::tools::lard::applyRetention</title>
<!-- Node1 -->
<g id="node1" class="node">
<title>Node1</title>
<g id="a_node1"><a xlink:title=" ">
<polygon fill="#bfbfbf" stroke="black" points="0,-169.5 0,-199.5 104,-199.5 104,-169.5 0,-169.5"/>
<text text-anchor="start" x="8" y="-187.5" font-family="Helvetica,sans-Serif" font-size="10.00">leanux::tools::lard</text>
<text text-anchor="middle" x="52" y="-176.5" font-family="Helvetica,sans-Serif" font-size="10.00">::applyRetention</text>
</a>
</g>
</g>
<!-- Node2 -->
<g id="node2" class="node">
<title>Node2</title>
<g id="a_node2"><a xlink:href="../../d9/d78/classleanux_1_1persist_1_1DML.html#a8df01a6d880515c22106e424ed342c81" target="_top" xlink:title="Bind a double value to the bind at position.">
<polygon fill="none" stroke="black" points="316,-312.5 316,-342.5 432,-342.5 432,-312.5 316,-312.5"/>
<text text-anchor="start" x="324" y="-330.5" font-family="Helvetica,sans-Serif" font-size="10.00">leanux::persist::DML</text>
<text text-anchor="middle" x="374" y="-319.5" font-family="Helvetica,sans-Serif" font-size="10.00">::bind</text>
</a>
</g>
</g>
<!-- Node1&#45;&gt;Node2 -->
<g id="edge1" class="edge">
<title>Node1&#45;&gt;Node2</title>
<path fill="none" stroke="midnightblue" d="M63.17,-199.53C77.73,-219.82 106.49,-255.62 140,-274.5 191.12,-303.3 256.88,-316.45 305.49,-322.46"/>
<polygon fill="midnightblue" stroke="midnightblue" points="305.26,-325.96 315.6,-323.64 306.07,-319 305.26,-325.96"/>
</g>
<!-- Node3 -->
<g id="node3" class="node">
<title>Node3</title>
<g id="a_node3"><a xlink:href="../../db/dff/classleanux_1_1persist_1_1Statement.html#a5b31fb14297ad5c1c342cfc0d8f797de" target="_top" xlink:title="A statement handle can be explicitly closed without deleting the Statement object itself.">
<polygon fill="none" stroke="black" points="483,-268.5 483,-298.5 629,-298.5 629,-268.5 483,-268.5"/>
<text text-anchor="start" x="491" y="-286.5" font-family="Helvetica,sans-Serif" font-size="10.00">leanux::persist::Statement</text>
<text text-anchor="middle" x="556" y="-275.5" font-family="Helvetica,sans-Serif" font-size="10.00">::close</text>
</a>
</g>
</g>
<!-- Node1&#45;&gt;Node3 -->
<g id="edge2" class="edge">
<title>Node1&#45;&gt;Node3</title>
<path fill="none" stroke="midnightblue" d="M59.4,-199.66C71.3,-225.95 99.34,-279.91 140,-308.5 200.68,-351.17 227.48,-342.63 301,-352.5 365.31,-361.13 384.72,-370.7 447,-352.5 478.54,-343.29 509.62,-321.75 530.29,-305.16"/>
<polygon fill="midnightblue" stroke="midnightblue" points="532.72,-307.7 538.21,-298.64 528.26,-302.3 532.72,-307.7"/>
</g>
<!-- Node4 -->
<g id="node4" class="node">
<title>Node4</title>
<g id="a_node4"><a xlink:href="../../d4/d62/namespaceleanux_1_1tools_1_1lard.html#a9249744b0576a17dd109b8fad44863d3" target="_top" xlink:title=" ">
<polygon fill="none" stroke="black" points="150.5,-235.5 150.5,-265.5 254.5,-265.5 254.5,-235.5 150.5,-235.5"/>
<text text-anchor="start" x="158.5" y="-253.5" font-family="Helvetica,sans-Serif" font-size="10.00">leanux::tools::lard</text>
<text text-anchor="middle" x="202.5" y="-242.5" font-family="Helvetica,sans-Serif" font-size="10.00">::deleteSnapshots</text>
</a>
</g>
</g>
<!-- Node1&#45;&gt;Node4 -->
<g id="edge3" class="edge">
<title>Node1&#45;&gt;Node4</title>
<path fill="none" stroke="midnightblue" d="M87.07,-199.64C108.2,-209.03 135.54,-221.18 158.2,-231.25"/>
<polygon fill="midnightblue" stroke="midnightblue" points="157.03,-234.57 167.59,-235.43 159.87,-228.17 157.03,-234.57"/>
</g>
<!-- Node6 -->
<g id="node6" class="node">
<title>Node6</title>
<g id="a_node6"><a xlink:href="../../db/dff/classleanux_1_1persist_1_1Statement.html#a1b809c1b1d0e9d24af65e439c3893d74" target="_top" xlink:title="Prepare a SQL statement.">
<polygon fill="none" stroke="black" points="301,-126.5 301,-156.5 447,-156.5 447,-126.5 301,-126.5"/>
<text text-anchor="start" x="309" y="-144.5" font-family="Helvetica,sans-Serif" font-size="10.00">leanux::persist::Statement</text>
<text text-anchor="middle" x="374" y="-133.5" font-family="Helvetica,sans-Serif" font-size="10.00">::prepare</text>
</a>
</g>
</g>
<!-- Node1&#45;&gt;Node6 -->
<g id="edge13" class="edge">
<title>Node1&#45;&gt;Node6</title>
<path fill="none" stroke="midnightblue" d="M104.09,-192.6C147.65,-197.72 211.52,-200.96 265,-186.5 282.88,-181.67 284.12,-173.14 301,-165.5 305.09,-163.65 309.38,-161.86 313.72,-160.16"/>
<polygon fill="midnightblue" stroke="midnightblue" points="315.16,-163.36 323.29,-156.57 312.7,-156.8 315.16,-163.36"/>
</g>
<!-- Node8 -->
<g id="node8" class="node">
<title>Node8</title>
<g id="a_node8"><a xlink:href="../../de/d84/classleanux_1_1util_1_1ConfigFile.html#a8cef175948cd9727c732de3a605c99ba" target="_top" xlink:title="Get the ConfigurationFile object for the appname, or construct one if it does not exist.">
<polygon fill="none" stroke="black" points="140,-147.5 140,-177.5 265,-177.5 265,-147.5 140,-147.5"/>
<text text-anchor="start" x="148" y="-165.5" font-family="Helvetica,sans-Serif" font-size="10.00">leanux::util::ConfigFile</text>
<text text-anchor="middle" x="202.5" y="-154.5" font-family="Helvetica,sans-Serif" font-size="10.00">::getConfig</text>
</a>
</g>
</g>
<!-- Node1&#45;&gt;Node8 -->
<g id="edge10" class="edge">
<title>Node1&#45;&gt;Node8</title>
<path fill="none" stroke="midnightblue" d="M104.11,-176.93C112.37,-175.7 121.05,-174.42 129.69,-173.14"/>
<polygon fill="midnightblue" stroke="midnightblue" points="130.41,-176.57 139.79,-171.64 129.39,-169.65 130.41,-176.57"/>
</g>
<!-- Node9 -->
<g id="node9" class="node">
<title>Node9</title>
<g id="a_node9"><a xlink:href="../../d4/d2c/classleanux_1_1persist_1_1Query.html#ada37977ad924b728401fa1fb7506cd2e" target="_top" xlink:title="Get long value from select list.">
<polygon fill="none" stroke="black" points="140.5,-98.5 140.5,-128.5 264.5,-128.5 264.5,-98.5 140.5,-98.5"/>
<text text-anchor="start" x="148.5" y="-116.5" font-family="Helvetica,sans-Serif" font-size="10.00">leanux::persist::Query</text>
<text text-anchor="middle" x="202.5" y="-105.5" font-family="Helvetica,sans-Serif" font-size="10.00">::getLong</text>
</a>
</g>
</g>
<!-- Node1&#45;&gt;Node9 -->
<g id="edge11" class="edge">
<title>Node1&#45;&gt;Node9</title>
<path fill="none" stroke="midnightblue" d="M78.84,-169.45C95.93,-159.78 118.97,-147.24 140,-137.5 143.64,-135.81 147.43,-134.14 151.27,-132.51"/>
<polygon fill="midnightblue" stroke="midnightblue" points="152.94,-135.61 160.84,-128.55 150.26,-129.14 152.94,-135.61"/>
</g>
<!-- Node10 -->
<g id="node10" class="node">
<title>Node10</title>
<g id="a_node10"><a xlink:href="../../de/d84/classleanux_1_1util_1_1ConfigFile.html#aece3326e1c10df9dcfb48f4c12967336" target="_top" xlink:title="return the configuration parameter as a string.">
<polygon fill="none" stroke="black" points="140,-49.5 140,-79.5 265,-79.5 265,-49.5 140,-49.5"/>
<text text-anchor="start" x="148" y="-67.5" font-family="Helvetica,sans-Serif" font-size="10.00">leanux::util::ConfigFile</text>
<text text-anchor="middle" x="202.5" y="-56.5" font-family="Helvetica,sans-Serif" font-size="10.00">::getValue</text>
</a>
</g>
</g>
<!-- Node1&#45;&gt;Node10 -->
<g id="edge12" class="edge">
<title>Node1&#45;&gt;Node10</title>
<path fill="none" stroke="midnightblue" d="M63.38,-169.17C78.18,-148.33 107.22,-111.09 140,-88.5 142.11,-87.05 144.31,-85.67 146.58,-84.36"/>
<polygon fill="midnightblue" stroke="midnightblue" points="148.37,-87.38 155.61,-79.64 145.13,-81.17 148.37,-87.38"/>
</g>
<!-- Node11 -->
<g id="node11" class="node">
<title>Node11</title>
<g id="a_node11"><a xlink:href="../../d4/d2c/classleanux_1_1persist_1_1Query.html#a294e11c33a22761503c49418f5ca9815" target="_top" xlink:title="Step the result list, end of list returns false.">
<polygon fill="none" stroke="black" points="140.5,-0.5 140.5,-30.5 264.5,-30.5 264.5,-0.5 140.5,-0.5"/>
<text text-anchor="start" x="148.5" y="-18.5" font-family="Helvetica,sans-Serif" font-size="10.00">leanux::persist::Query</text>
<text text-anchor="middle" x="202.5" y="-7.5" font-family="Helvetica,sans-Serif" font-size="10.00">::step</text>
</a>
</g>
</g>
<!-- Node1&#45;&gt;Node11 -->
<g id="edge14" class="edge">
<title>Node1&#45;&gt;Node11</title>
<path fill="none" stroke="midnightblue" d="M58.35,-169.12C69.24,-139.91 96.71,-76.05 140,-39.5 141.51,-38.22 143.1,-37.01 144.74,-35.86"/>
<polygon fill="midnightblue" stroke="midnightblue" points="146.66,-38.79 153.38,-30.59 143.02,-32.81 146.66,-38.79"/>
</g>
<!-- Node4&#45;&gt;Node2 -->
<g id="edge4" class="edge">
<title>Node4&#45;&gt;Node2</title>
<path fill="none" stroke="midnightblue" d="M233.6,-265.53C252.77,-274.98 278.2,-287.26 301,-297.5 309.17,-301.17 317.92,-304.94 326.41,-308.52"/>
<polygon fill="midnightblue" stroke="midnightblue" points="325.26,-311.84 335.84,-312.47 327.96,-305.38 325.26,-311.84"/>
</g>
<!-- Node4&#45;&gt;Node3 -->
<g id="edge5" class="edge">
<title>Node4&#45;&gt;Node3</title>
<path fill="none" stroke="midnightblue" d="M254.55,-257.83C269.5,-259.84 285.89,-261.9 301,-263.5 358.3,-269.57 423.06,-274.64 472.85,-278.16"/>
<polygon fill="midnightblue" stroke="midnightblue" points="472.7,-281.66 482.92,-278.86 473.19,-274.68 472.7,-281.66"/>
</g>
<!-- Node5 -->
<g id="node5" class="node">
<title>Node5</title>
<g id="a_node5"><a xlink:href="../../d9/d78/classleanux_1_1persist_1_1DML.html#a66bfdf8da5f7d2c02bb5cb6f54515783" target="_top" xlink:title="Execute.">
<polygon fill="none" stroke="black" points="316,-224.5 316,-254.5 432,-254.5 432,-224.5 316,-224.5"/>
<text text-anchor="start" x="324" y="-242.5" font-family="Helvetica,sans-Serif" font-size="10.00">leanux::persist::DML</text>
<text text-anchor="middle" x="374" y="-231.5" font-family="Helvetica,sans-Serif" font-size="10.00">::execute</text>
</a>
</g>
</g>
<!-- Node4&#45;&gt;Node5 -->
<g id="edge6" class="edge">
<title>Node4&#45;&gt;Node5</title>
<path fill="none" stroke="midnightblue" d="M254.82,-247.17C270.79,-246.13 288.66,-244.97 305.56,-243.88"/>
<polygon fill="midnightblue" stroke="midnightblue" points="306.19,-247.34 315.94,-243.2 305.73,-240.36 306.19,-247.34"/>
</g>
<!-- Node4&#45;&gt;Node6 -->
<g id="edge7" class="edge">
<title>Node4&#45;&gt;Node6</title>
<path fill="none" stroke="midnightblue" d="M242.56,-235.39C250.48,-231.27 258.41,-226.31 265,-220.5 286.92,-201.18 277.86,-183.33 301,-165.5 302.82,-164.1 304.73,-162.77 306.71,-161.52"/>
<polygon fill="midnightblue" stroke="midnightblue" points="308.69,-164.43 315.73,-156.51 305.29,-158.31 308.69,-164.43"/>
</g>
<!-- Node7 -->
<g id="node7" class="node">
<title>Node7</title>
<g id="a_node7"><a xlink:href="../../db/dff/classleanux_1_1persist_1_1Statement.html#a4696481e678f7c7337c07c480ee985ec" target="_top" xlink:title="Reset a SQL statement for rexecute or even re&#45;prepare.">
<polygon fill="none" stroke="black" points="301,-175.5 301,-205.5 447,-205.5 447,-175.5 301,-175.5"/>
<text text-anchor="start" x="309" y="-193.5" font-family="Helvetica,sans-Serif" font-size="10.00">leanux::persist::Statement</text>
<text text-anchor="middle" x="374" y="-182.5" font-family="Helvetica,sans-Serif" font-size="10.00">::reset</text>
</a>
</g>
</g>
<!-- Node4&#45;&gt;Node7 -->
<g id="edge9" class="edge">
<title>Node4&#45;&gt;Node7</title>
<path fill="none" stroke="midnightblue" d="M243.24,-235.5C260.89,-228.92 281.93,-221.2 301,-214.5 306.42,-212.6 312.07,-210.65 317.73,-208.72"/>
<polygon fill="midnightblue" stroke="midnightblue" points="318.87,-212.03 327.22,-205.52 316.62,-205.4 318.87,-212.03"/>
</g>
<!-- Node6&#45;&gt;Node3 -->
<g id="edge8" class="edge">
<title>Node6&#45;&gt;Node3</title>
<path fill="none" stroke="midnightblue" d="M430.22,-156.63C436.09,-159.19 441.81,-162.13 447,-165.5 485.93,-190.77 520.05,-233.33 539.06,-259.84"/>
<polygon fill="midnightblue" stroke="midnightblue" points="536.3,-261.99 544.91,-268.16 542.02,-257.97 536.3,-261.99"/>
</g>
</g>
</svg>
