<?xml version="1.0" encoding="UTF-8" standalone="no"?>
<!DOCTYPE svg PUBLIC "-//W3C//DTD SVG 1.1//EN"
 "http://www.w3.org/Graphics/SVG/1.1/DTD/svg11.dtd">
<!-- Generated by graphviz version 2.43.0 (0)
 -->
<!-- Title: leanux::tools::lmon::NetView::xrefresh Pages: 1 -->
<svg width="319pt" height="302pt"
 viewBox="0.00 0.00 319.00 301.50" xmlns="http://www.w3.org/2000/svg" xmlns:xlink="http://www.w3.org/1999/xlink">
<g id="graph0" class="graph" transform="scale(1 1) rotate(0) translate(4 297.5)">
<title>leanux::tools::lmon::NetView::xrefresh</title>
<!-- Node1 -->
<g id="node1" class="node">
<title>Node1</title>
<g id="a_node1"><a xlink:title="Refresh/redraw the ProcessView.">
<polygon fill="#bfbfbf" stroke="black" points="0,-142.5 0,-172.5 110,-172.5 110,-142.5 0,-142.5"/>
<text text-anchor="start" x="8" y="-160.5" font-family="Helvetica,sans-Serif" font-size="10.00">leanux::tools::lmon</text>
<text text-anchor="middle" x="55" y="-149.5" font-family="Helvetica,sans-Serif" font-size="10.00">::NetView::xrefresh</text>
</a>
</g>
</g>
<!-- Node2 -->
<g id="node2" class="node">
<title>Node2</title>
<g id="a_node2"><a xlink:href="../../d8/db1/namespaceleanux_1_1util.html#a979843e3d99f053101f902ec38985833" target="_top" xlink:title="convert a byte value to pretty print string.">
<polygon fill="none" stroke="black" points="172,-274 172,-293 285,-293 285,-274 172,-274"/>
<text text-anchor="middle" x="228.5" y="-281" font-family="Helvetica,sans-Serif" font-size="10.00">leanux::util::ByteStr</text>
</a>
</g>
</g>
<!-- Node1&#45;&gt;Node2 -->
<g id="edge1" class="edge">
<title>Node1&#45;&gt;Node2</title>
<path fill="none" stroke="midnightblue" d="M64.32,-172.59C78.09,-196.09 107.93,-241.14 146,-264.5 151,-267.57 156.45,-270.14 162.08,-272.29"/>
<polygon fill="midnightblue" stroke="midnightblue" points="161.09,-275.65 171.68,-275.55 163.33,-269.02 161.09,-275.65"/>
</g>
<!-- Node3 -->
<g id="node3" class="node">
<title>Node3</title>
<g id="a_node3"><a xlink:href="../../dd/d42/namespaceleanux_1_1system.html#a15a1517cb994968027d406402a588157" target="_top" xlink:title="Get username from a uid.">
<polygon fill="none" stroke="black" points="146,-236 146,-255 311,-255 311,-236 146,-236"/>
<text text-anchor="middle" x="228.5" y="-243" font-family="Helvetica,sans-Serif" font-size="10.00">leanux::system::getUserName</text>
</a>
</g>
</g>
<!-- Node1&#45;&gt;Node3 -->
<g id="edge2" class="edge">
<title>Node1&#45;&gt;Node3</title>
<path fill="none" stroke="midnightblue" d="M71.52,-172.77C88.43,-188.56 116.99,-212.79 146,-226.5 151.22,-228.97 156.78,-231.12 162.45,-233.01"/>
<polygon fill="midnightblue" stroke="midnightblue" points="161.47,-236.37 172.06,-235.94 163.51,-229.68 161.47,-236.37"/>
</g>
<!-- Node4 -->
<g id="node4" class="node">
<title>Node4</title>
<g id="a_node4"><a xlink:href="../../d1/de8/classleanux_1_1tools_1_1lmon_1_1View.html#ad4bf2613d86d8fd5d95fc2b09103a9dc" target="_top" xlink:title="Draw a horizontal line.">
<polygon fill="none" stroke="black" points="173.5,-186.5 173.5,-216.5 283.5,-216.5 283.5,-186.5 173.5,-186.5"/>
<text text-anchor="start" x="181.5" y="-204.5" font-family="Helvetica,sans-Serif" font-size="10.00">leanux::tools::lmon</text>
<text text-anchor="middle" x="228.5" y="-193.5" font-family="Helvetica,sans-Serif" font-size="10.00">::View::hLine</text>
</a>
</g>
</g>
<!-- Node1&#45;&gt;Node4 -->
<g id="edge3" class="edge">
<title>Node1&#45;&gt;Node4</title>
<path fill="none" stroke="midnightblue" d="M110.26,-171.42C127.08,-175.74 145.77,-180.53 163.2,-185"/>
<polygon fill="midnightblue" stroke="midnightblue" points="162.74,-188.5 173.3,-187.59 164.48,-181.72 162.74,-188.5"/>
</g>
<!-- Node5 -->
<g id="node5" class="node">
<title>Node5</title>
<g id="a_node5"><a xlink:href="../../d8/db1/namespaceleanux_1_1util.html#a0c9555d36d9264d1f0cd246c8ba6da28" target="_top" xlink:title="Convert a double (real number) to a pretty print string.">
<polygon fill="none" stroke="black" points="171.5,-148 171.5,-167 285.5,-167 285.5,-148 171.5,-148"/>
<text text-anchor="middle" x="228.5" y="-155" font-family="Helvetica,sans-Serif" font-size="10.00">leanux::util::NumStr</text>
</a>
</g>
</g>
<!-- Node1&#45;&gt;Node5 -->
<g id="edge4" class="edge">
<title>Node1&#45;&gt;Node5</title>
<path fill="none" stroke="midnightblue" d="M110.26,-157.5C126.35,-157.5 144.16,-157.5 160.94,-157.5"/>
<polygon fill="midnightblue" stroke="midnightblue" points="161.23,-161 171.23,-157.5 161.23,-154 161.23,-161"/>
</g>
<!-- Node6 -->
<g id="node6" class="node">
<title>Node6</title>
<g id="a_node6"><a xlink:href="../../d1/de8/classleanux_1_1tools_1_1lmon_1_1View.html#a2f37f251e8f17c1e11536b368fd66ec8" target="_top" xlink:title="Write text at x,y with display attrs.">
<polygon fill="none" stroke="black" points="173.5,-98.5 173.5,-128.5 283.5,-128.5 283.5,-98.5 173.5,-98.5"/>
<text text-anchor="start" x="181.5" y="-116.5" font-family="Helvetica,sans-Serif" font-size="10.00">leanux::tools::lmon</text>
<text text-anchor="middle" x="228.5" y="-105.5" font-family="Helvetica,sans-Serif" font-size="10.00">::View::textOut</text>
</a>
</g>
</g>
<!-- Node1&#45;&gt;Node6 -->
<g id="edge5" class="edge">
<title>Node1&#45;&gt;Node6</title>
<path fill="none" stroke="midnightblue" d="M110.26,-143.58C127.08,-139.26 145.77,-134.47 163.2,-130"/>
<polygon fill="midnightblue" stroke="midnightblue" points="164.48,-133.28 173.3,-127.41 162.74,-126.5 164.48,-133.28"/>
</g>
<!-- Node7 -->
<g id="node7" class="node">
<title>Node7</title>
<g id="a_node7"><a xlink:href="../../d1/de8/classleanux_1_1tools_1_1lmon_1_1View.html#ad1a03b681b72a1c8918838816c4080ca" target="_top" xlink:title="Draw text right&#45;adjusted and progress x with w+1.">
<polygon fill="none" stroke="black" points="160.5,-49.5 160.5,-79.5 296.5,-79.5 296.5,-49.5 160.5,-49.5"/>
<text text-anchor="start" x="168.5" y="-67.5" font-family="Helvetica,sans-Serif" font-size="10.00">leanux::tools::lmon</text>
<text text-anchor="middle" x="228.5" y="-56.5" font-family="Helvetica,sans-Serif" font-size="10.00">::View::textOutMoveXRA</text>
</a>
</g>
</g>
<!-- Node1&#45;&gt;Node7 -->
<g id="edge6" class="edge">
<title>Node1&#45;&gt;Node7</title>
<path fill="none" stroke="midnightblue" d="M72.38,-142.28C89.56,-127.04 117.92,-103.85 146,-89.5 150.5,-87.2 155.24,-85.07 160.09,-83.11"/>
<polygon fill="midnightblue" stroke="midnightblue" points="161.4,-86.35 169.51,-79.53 158.92,-79.81 161.4,-86.35"/>
</g>
<!-- Node8 -->
<g id="node8" class="node">
<title>Node8</title>
<g id="a_node8"><a xlink:href="../../d1/de8/classleanux_1_1tools_1_1lmon_1_1View.html#a625d1c34066c820a2d6711fb0563b426" target="_top" xlink:title="Draw a vertical line.">
<polygon fill="none" stroke="black" points="173.5,-0.5 173.5,-30.5 283.5,-30.5 283.5,-0.5 173.5,-0.5"/>
<text text-anchor="start" x="181.5" y="-18.5" font-family="Helvetica,sans-Serif" font-size="10.00">leanux::tools::lmon</text>
<text text-anchor="middle" x="228.5" y="-7.5" font-family="Helvetica,sans-Serif" font-size="10.00">::View::vLine</text>
</a>
</g>
</g>
<!-- Node1&#45;&gt;Node8 -->
<g id="edge7" class="edge">
<title>Node1&#45;&gt;Node8</title>
<path fill="none" stroke="midnightblue" d="M63.72,-142.13C77.07,-117.12 106.83,-67.66 146,-40.5 151.47,-36.7 157.54,-33.47 163.83,-30.72"/>
<polygon fill="midnightblue" stroke="midnightblue" points="165.14,-33.96 173.15,-27.02 162.56,-27.45 165.14,-33.96"/>
</g>
</g>
</svg>
