<?xml version="1.0" encoding="UTF-8" standalone="no"?>
<!DOCTYPE svg PUBLIC "-//W3C//DTD SVG 1.1//EN"
 "http://www.w3.org/Graphics/SVG/1.1/DTD/svg11.dtd">
<!-- Generated by graphviz version 2.43.0 (0)
 -->
<!-- Title: leanux::tools::lmon::NetView::getOptimalHeight Pages: 1 -->
<svg width="496pt" height="103pt"
 viewBox="0.00 0.00 496.00 102.50" xmlns="http://www.w3.org/2000/svg" xmlns:xlink="http://www.w3.org/1999/xlink">
<g id="graph0" class="graph" transform="scale(1 1) rotate(0) translate(4 98.5)">
<title>leanux::tools::lmon::NetView::getOptimalHeight</title>
<!-- Node1 -->
<g id="node1" class="node">
<title>Node1</title>
<g id="a_node1"><a xlink:title="provide the optimal height for the NetView,">
<polygon fill="#bfbfbf" stroke="black" points="0,-17 0,-47 156,-47 156,-17 0,-17"/>
<text text-anchor="start" x="8" y="-35" font-family="Helvetica,sans-Serif" font-size="10.00">leanux::tools::lmon</text>
<text text-anchor="middle" x="78" y="-24" font-family="Helvetica,sans-Serif" font-size="10.00">::NetView::getOptimalHeight</text>
</a>
</g>
</g>
<!-- Node2 -->
<g id="node2" class="node">
<title>Node2</title>
<g id="a_node2"><a xlink:href="../../df/dcc/classleanux_1_1tools_1_1lmon_1_1NetView.html#ae72888be780638aca574db129155547e" target="_top" xlink:title="Get the minimal height for the NetView.">
<polygon fill="none" stroke="black" points="192,-39 192,-69 327,-69 327,-39 192,-39"/>
<text text-anchor="start" x="200" y="-57" font-family="Helvetica,sans-Serif" font-size="10.00">leanux::tools::lmon</text>
<text text-anchor="middle" x="259.5" y="-46" font-family="Helvetica,sans-Serif" font-size="10.00">::NetView::getMinHeight</text>
</a>
</g>
</g>
<!-- Node1&#45;&gt;Node2 -->
<g id="edge1" class="edge">
<title>Node1&#45;&gt;Node2</title>
<path fill="none" stroke="midnightblue" d="M156.17,-41.46C164.61,-42.49 173.21,-43.55 181.65,-44.58"/>
<polygon fill="midnightblue" stroke="midnightblue" points="181.49,-48.09 191.84,-45.83 182.34,-41.14 181.49,-48.09"/>
</g>
<!-- Node6 -->
<g id="node5" class="node">
<title>Node6</title>
<g id="a_node5"><a xlink:href="../../d5/db8/namespaceleanux_1_1net.html#ac78d924eb899ccfa62581ec1d13dc75b" target="_top" xlink:title="Get network device statistics from /proc/net/dev.">
<polygon fill="none" stroke="black" points="194.5,-0.5 194.5,-19.5 324.5,-19.5 324.5,-0.5 194.5,-0.5"/>
<text text-anchor="middle" x="259.5" y="-7.5" font-family="Helvetica,sans-Serif" font-size="10.00">leanux::net::getNetStat</text>
</a>
</g>
</g>
<!-- Node1&#45;&gt;Node6 -->
<g id="edge4" class="edge">
<title>Node1&#45;&gt;Node6</title>
<path fill="none" stroke="midnightblue" d="M156.17,-22.54C165.52,-21.4 175.05,-20.23 184.36,-19.09"/>
<polygon fill="midnightblue" stroke="midnightblue" points="184.85,-22.55 194.35,-17.86 183.99,-15.61 184.85,-22.55"/>
</g>
<!-- Node3 -->
<g id="node3" class="node">
<title>Node3</title>
<g id="a_node3"><a xlink:href="../../de/d84/classleanux_1_1util_1_1ConfigFile.html#a8cef175948cd9727c732de3a605c99ba" target="_top" xlink:title="Get the ConfigurationFile object for the appname, or construct one if it does not exist.">
<polygon fill="none" stroke="black" points="363,-64 363,-94 488,-94 488,-64 363,-64"/>
<text text-anchor="start" x="371" y="-82" font-family="Helvetica,sans-Serif" font-size="10.00">leanux::util::ConfigFile</text>
<text text-anchor="middle" x="425.5" y="-71" font-family="Helvetica,sans-Serif" font-size="10.00">::getConfig</text>
</a>
</g>
</g>
<!-- Node2&#45;&gt;Node3 -->
<g id="edge2" class="edge">
<title>Node2&#45;&gt;Node3</title>
<path fill="none" stroke="midnightblue" d="M327.21,-64.17C335.68,-65.46 344.39,-66.79 352.94,-68.09"/>
<polygon fill="midnightblue" stroke="midnightblue" points="352.47,-71.56 362.88,-69.61 353.52,-64.64 352.47,-71.56"/>
</g>
<!-- Node4 -->
<g id="node4" class="node">
<title>Node4</title>
<g id="a_node4"><a xlink:href="../../de/d84/classleanux_1_1util_1_1ConfigFile.html#aae0c3891e3d5a8d391a7439602b92780" target="_top" xlink:title="return the configuration parameter as an int.">
<polygon fill="none" stroke="red" points="363,-15 363,-45 488,-45 488,-15 363,-15"/>
<text text-anchor="start" x="371" y="-33" font-family="Helvetica,sans-Serif" font-size="10.00">leanux::util::ConfigFile</text>
<text text-anchor="middle" x="425.5" y="-22" font-family="Helvetica,sans-Serif" font-size="10.00">::getIntValue</text>
</a>
</g>
</g>
<!-- Node2&#45;&gt;Node4 -->
<g id="edge3" class="edge">
<title>Node2&#45;&gt;Node4</title>
<path fill="none" stroke="midnightblue" d="M327.21,-44.24C335.68,-43 344.39,-41.72 352.94,-40.47"/>
<polygon fill="midnightblue" stroke="midnightblue" points="353.49,-43.93 362.88,-39.02 352.48,-37 353.49,-43.93"/>
</g>
</g>
</svg>
