<?xml version="1.0" encoding="UTF-8" standalone="no"?>
<!DOCTYPE svg PUBLIC "-//W3C//DTD SVG 1.1//EN"
 "http://www.w3.org/Graphics/SVG/1.1/DTD/svg11.dtd">
<!-- Generated by graphviz version 2.43.0 (0)
 -->
<!-- Title: leanux::tools::lmon::NetView::getMinHeight Pages: 1 -->
<svg width="497pt" height="61pt"
 viewBox="0.00 0.00 497.00 61.00" xmlns="http://www.w3.org/2000/svg" xmlns:xlink="http://www.w3.org/1999/xlink">
<g id="graph0" class="graph" transform="scale(1 1) rotate(0) translate(4 57)">
<title>leanux::tools::lmon::NetView::getMinHeight</title>
<!-- Node1 -->
<g id="node1" class="node">
<title>Node1</title>
<g id="a_node1"><a xlink:title="Get the minimal height for the NetView.">
<polygon fill="#bfbfbf" stroke="black" points="354,-0.5 354,-30.5 489,-30.5 489,-0.5 354,-0.5"/>
<text text-anchor="start" x="362" y="-18.5" font-family="Helvetica,sans-Serif" font-size="10.00">leanux::tools::lmon</text>
<text text-anchor="middle" x="421.5" y="-7.5" font-family="Helvetica,sans-Serif" font-size="10.00">::NetView::getMinHeight</text>
</a>
</g>
</g>
<!-- Node2 -->
<g id="node2" class="node">
<title>Node2</title>
<g id="a_node2"><a xlink:href="../../df/dcc/classleanux_1_1tools_1_1lmon_1_1NetView.html#a90d83dccb33390f86d92374070075b29" target="_top" xlink:title="provide the optimal height for the NetView,">
<polygon fill="none" stroke="black" points="162,-22.5 162,-52.5 318,-52.5 318,-22.5 162,-22.5"/>
<text text-anchor="start" x="170" y="-40.5" font-family="Helvetica,sans-Serif" font-size="10.00">leanux::tools::lmon</text>
<text text-anchor="middle" x="240" y="-29.5" font-family="Helvetica,sans-Serif" font-size="10.00">::NetView::getOptimalHeight</text>
</a>
</g>
</g>
<!-- Node1&#45;&gt;Node2 -->
<g id="edge1" class="edge">
<title>Node1&#45;&gt;Node2</title>
<path fill="none" stroke="midnightblue" d="M343.95,-24.88C335.38,-25.93 326.65,-27 318.08,-28.05"/>
<polygon fill="midnightblue" stroke="midnightblue" points="344.42,-28.35 353.92,-23.66 343.56,-21.4 344.42,-28.35"/>
</g>
<!-- Node3 -->
<g id="node3" class="node">
<title>Node3</title>
<g id="a_node3"><a xlink:href="../../d5/de6/classleanux_1_1tools_1_1lmon_1_1Screen.html#abcaa706fe703bbf453808220fcaf8263" target="_top" xlink:title="Recalculate the window sizes.">
<polygon fill="none" stroke="red" points="0,-0.5 0,-30.5 126,-30.5 126,-0.5 0,-0.5"/>
<text text-anchor="start" x="8" y="-18.5" font-family="Helvetica,sans-Serif" font-size="10.00">leanux::tools::lmon</text>
<text text-anchor="middle" x="63" y="-7.5" font-family="Helvetica,sans-Serif" font-size="10.00">::Screen::screenResize</text>
</a>
</g>
</g>
<!-- Node1&#45;&gt;Node3 -->
<g id="edge3" class="edge">
<title>Node1&#45;&gt;Node3</title>
<path fill="none" stroke="midnightblue" d="M343.67,-13.84C335.01,-13.7 326.31,-13.58 318,-13.5 248.67,-12.82 231.33,-12.79 162,-13.5 150.43,-13.62 138.09,-13.81 126.21,-14.04"/>
<polygon fill="midnightblue" stroke="midnightblue" points="343.73,-17.34 353.79,-14.01 343.85,-10.34 343.73,-17.34"/>
</g>
<!-- Node2&#45;&gt;Node3 -->
<g id="edge2" class="edge">
<title>Node2&#45;&gt;Node3</title>
<path fill="none" stroke="midnightblue" d="M151.81,-26.54C143.12,-25.45 134.43,-24.35 126.07,-23.3"/>
<polygon fill="midnightblue" stroke="midnightblue" points="151.63,-30.04 161.99,-27.82 152.5,-23.1 151.63,-30.04"/>
</g>
</g>
</svg>
