<?xml version="1.0" encoding="UTF-8" standalone="no"?>
<!DOCTYPE svg PUBLIC "-//W3C//DTD SVG 1.1//EN"
 "http://www.w3.org/Graphics/SVG/1.1/DTD/svg11.dtd">
<!-- Generated by graphviz version 2.43.0 (0)
 -->
<!-- Title: leanux::sysdevice::VirtioNetDevice::accept Pages: 1 -->
<svg width="466pt" height="127pt"
 viewBox="0.00 0.00 466.00 127.00" xmlns="http://www.w3.org/2000/svg" xmlns:xlink="http://www.w3.org/1999/xlink">
<g id="graph0" class="graph" transform="scale(1 1) rotate(0) translate(4 123)">
<title>leanux::sysdevice::VirtioNetDevice::accept</title>
<!-- Node1 -->
<g id="node1" class="node">
<title>Node1</title>
<g id="a_node1"><a xlink:title="Return true if the SysDevice recognizes itself in the trailing part of path.">
<polygon fill="#bfbfbf" stroke="black" points="0,-44.5 0,-74.5 132,-74.5 132,-44.5 0,-44.5"/>
<text text-anchor="start" x="8" y="-62.5" font-family="Helvetica,sans-Serif" font-size="10.00">leanux::sysdevice::</text>
<text text-anchor="middle" x="66" y="-51.5" font-family="Helvetica,sans-Serif" font-size="10.00">VirtioNetDevice::accept</text>
</a>
</g>
</g>
<!-- Node2 -->
<g id="node2" class="node">
<title>Node2</title>
<g id="a_node2"><a xlink:href="../../df/d3f/classleanux_1_1util_1_1RegExp.html#a8acc45eb950f504e1b224e10313364de" target="_top" xlink:title=" ">
<polygon fill="none" stroke="black" points="178.5,-88.5 178.5,-118.5 292.5,-118.5 292.5,-88.5 178.5,-88.5"/>
<text text-anchor="start" x="186.5" y="-106.5" font-family="Helvetica,sans-Serif" font-size="10.00">leanux::util::RegExp</text>
<text text-anchor="middle" x="235.5" y="-95.5" font-family="Helvetica,sans-Serif" font-size="10.00">::match</text>
</a>
</g>
</g>
<!-- Node1&#45;&gt;Node2 -->
<g id="edge1" class="edge">
<title>Node1&#45;&gt;Node2</title>
<path fill="none" stroke="midnightblue" d="M124.18,-74.52C138.42,-78.26 153.81,-82.3 168.45,-86.15"/>
<polygon fill="midnightblue" stroke="midnightblue" points="167.87,-89.62 178.43,-88.77 169.65,-82.85 167.87,-89.62"/>
</g>
<!-- Node3 -->
<g id="node3" class="node">
<title>Node3</title>
<g id="a_node3"><a xlink:href="../../df/d3f/classleanux_1_1util_1_1RegExp.html#ad478a08e79f94ea2c48de6298c6e1178" target="_top" xlink:title=" ">
<polygon fill="none" stroke="black" points="168,-50 168,-69 303,-69 303,-50 168,-50"/>
<text text-anchor="middle" x="235.5" y="-57" font-family="Helvetica,sans-Serif" font-size="10.00">leanux::util::RegExp::set</text>
</a>
</g>
</g>
<!-- Node1&#45;&gt;Node3 -->
<g id="edge2" class="edge">
<title>Node1&#45;&gt;Node3</title>
<path fill="none" stroke="midnightblue" d="M132.24,-59.5C140.53,-59.5 149.08,-59.5 157.54,-59.5"/>
<polygon fill="midnightblue" stroke="midnightblue" points="157.78,-63 167.78,-59.5 157.78,-56 157.78,-63"/>
</g>
<!-- Node4 -->
<g id="node4" class="node">
<title>Node4</title>
<g id="a_node4"><a xlink:href="../../d1/d02/classleanux_1_1sysdevice_1_1SysDevice.html#abc35fc5f51e73156ebd1a8b707c960b2" target="_top" xlink:title="Transform a SysDevicePath into a list of tokens in reverse order.">
<polygon fill="none" stroke="black" points="178,-0.5 178,-30.5 293,-30.5 293,-0.5 178,-0.5"/>
<text text-anchor="start" x="186" y="-18.5" font-family="Helvetica,sans-Serif" font-size="10.00">leanux::sysdevice::</text>
<text text-anchor="middle" x="235.5" y="-7.5" font-family="Helvetica,sans-Serif" font-size="10.00">SysDevice::tokenize</text>
</a>
</g>
</g>
<!-- Node1&#45;&gt;Node4 -->
<g id="edge3" class="edge">
<title>Node1&#45;&gt;Node4</title>
<path fill="none" stroke="midnightblue" d="M124.18,-44.48C138.27,-40.78 153.48,-36.78 167.97,-32.98"/>
<polygon fill="midnightblue" stroke="midnightblue" points="169.08,-36.3 177.87,-30.38 167.3,-29.53 169.08,-36.3"/>
</g>
<!-- Node5 -->
<g id="node5" class="node">
<title>Node5</title>
<g id="a_node5"><a xlink:href="../../d8/db1/namespaceleanux_1_1util.html#a3b691a56e21c20628e956b8ec995d53f" target="_top" xlink:title=" ">
<polygon fill="none" stroke="black" points="339,-6 339,-25 458,-25 458,-6 339,-6"/>
<text text-anchor="middle" x="398.5" y="-13" font-family="Helvetica,sans-Serif" font-size="10.00">leanux::util::tokenize</text>
</a>
</g>
</g>
<!-- Node4&#45;&gt;Node5 -->
<g id="edge4" class="edge">
<title>Node4&#45;&gt;Node5</title>
<path fill="none" stroke="midnightblue" d="M293.26,-15.5C304.68,-15.5 316.79,-15.5 328.56,-15.5"/>
<polygon fill="midnightblue" stroke="midnightblue" points="328.8,-19 338.8,-15.5 328.8,-12 328.8,-19"/>
</g>
</g>
</svg>
