<?xml version="1.0" encoding="UTF-8" standalone="no"?>
<!DOCTYPE svg PUBLIC "-//W3C//DTD SVG 1.1//EN"
 "http://www.w3.org/Graphics/SVG/1.1/DTD/svg11.dtd">
<!-- Generated by graphviz version 2.43.0 (0)
 -->
<!-- Title: tools/lmon/history.hpp Pages: 1 -->
<svg width="481pt" height="252pt"
 viewBox="0.00 0.00 480.50 252.00" xmlns="http://www.w3.org/2000/svg" xmlns:xlink="http://www.w3.org/1999/xlink">
<g id="graph0" class="graph" transform="scale(1 1) rotate(0) translate(4 248)">
<title>tools/lmon/history.hpp</title>
<!-- Node1 -->
<g id="node1" class="node">
<title>Node1</title>
<g id="a_node1"><a xlink:title=" ">
<polygon fill="#bfbfbf" stroke="black" points="125,-224.5 125,-243.5 250,-243.5 250,-224.5 125,-224.5"/>
<text text-anchor="middle" x="187.5" y="-231.5" font-family="Helvetica,sans-Serif" font-size="10.00">tools/lmon/history.hpp</text>
</a>
</g>
</g>
<!-- Node2 -->
<g id="node2" class="node">
<title>Node2</title>
<g id="a_node2"><a xlink:href="../../d3/d27/persist_8hpp.html" target="_top" xlink:title=" ">
<polygon fill="none" stroke="black" points="52,-112.5 52,-131.5 123,-131.5 123,-112.5 52,-112.5"/>
<text text-anchor="middle" x="87.5" y="-119.5" font-family="Helvetica,sans-Serif" font-size="10.00">persist.hpp</text>
</a>
</g>
</g>
<!-- Node1&#45;&gt;Node2 -->
<g id="edge1" class="edge">
<title>Node1&#45;&gt;Node2</title>
<path fill="none" stroke="midnightblue" d="M179.65,-224.37C162.93,-205.97 123.56,-162.67 102.09,-139.05"/>
<polygon fill="midnightblue" stroke="midnightblue" points="104.63,-136.64 95.31,-131.59 99.45,-141.35 104.63,-136.64"/>
</g>
<!-- Node6 -->
<g id="node6" class="node">
<title>Node6</title>
<g id="a_node6"><a xlink:href="../../df/d77/xdata_8hpp.html" target="_top" xlink:title=" ">
<polygon fill="none" stroke="black" points="223,-168.5 223,-187.5 288,-187.5 288,-168.5 223,-168.5"/>
<text text-anchor="middle" x="255.5" y="-175.5" font-family="Helvetica,sans-Serif" font-size="10.00">xdata.hpp</text>
</a>
</g>
</g>
<!-- Node1&#45;&gt;Node6 -->
<g id="edge6" class="edge">
<title>Node1&#45;&gt;Node6</title>
<path fill="none" stroke="midnightblue" d="M198.43,-224.32C208.67,-216.18 224.22,-203.84 236.5,-194.09"/>
<polygon fill="midnightblue" stroke="midnightblue" points="238.72,-196.79 244.38,-187.83 234.37,-191.31 238.72,-196.79"/>
</g>
<!-- Node3 -->
<g id="node3" class="node">
<title>Node3</title>
<g id="a_node3"><a xlink:href="../../d3/d44/oops_8hpp.html" target="_top" xlink:title=" ">
<polygon fill="none" stroke="black" points="116,-56.5 116,-75.5 177,-75.5 177,-56.5 116,-56.5"/>
<text text-anchor="middle" x="146.5" y="-63.5" font-family="Helvetica,sans-Serif" font-size="10.00">oops.hpp</text>
</a>
</g>
</g>
<!-- Node2&#45;&gt;Node3 -->
<g id="edge2" class="edge">
<title>Node2&#45;&gt;Node3</title>
<path fill="none" stroke="midnightblue" d="M96.98,-112.32C105.7,-104.34 118.84,-92.31 129.4,-82.65"/>
<polygon fill="midnightblue" stroke="midnightblue" points="131.83,-85.17 136.85,-75.83 127.11,-80 131.83,-85.17"/>
</g>
<!-- Node4 -->
<g id="node4" class="node">
<title>Node4</title>
<g id="a_node4"><a xlink:title=" ">
<polygon fill="none" stroke="#bfbfbf" points="239.5,-0.5 239.5,-19.5 283.5,-19.5 283.5,-0.5 239.5,-0.5"/>
<text text-anchor="middle" x="261.5" y="-7.5" font-family="Helvetica,sans-Serif" font-size="10.00">string</text>
</a>
</g>
</g>
<!-- Node2&#45;&gt;Node4 -->
<g id="edge4" class="edge">
<title>Node2&#45;&gt;Node4</title>
<path fill="none" stroke="midnightblue" d="M87.53,-112.09C88.07,-98.18 91.19,-71.28 106.5,-56 139.3,-23.26 194.41,-14.04 229.32,-11.62"/>
<polygon fill="midnightblue" stroke="midnightblue" points="229.66,-15.1 239.46,-11.06 229.28,-8.11 229.66,-15.1"/>
</g>
<!-- Node5 -->
<g id="node5" class="node">
<title>Node5</title>
<g id="a_node5"><a xlink:title=" ">
<polygon fill="none" stroke="#bfbfbf" points="0,-56.5 0,-75.5 59,-75.5 59,-56.5 0,-56.5"/>
<text text-anchor="middle" x="29.5" y="-63.5" font-family="Helvetica,sans-Serif" font-size="10.00">sqlite3.h</text>
</a>
</g>
</g>
<!-- Node2&#45;&gt;Node5 -->
<g id="edge5" class="edge">
<title>Node2&#45;&gt;Node5</title>
<path fill="none" stroke="midnightblue" d="M78.18,-112.32C69.61,-104.34 56.69,-92.31 46.31,-82.65"/>
<polygon fill="midnightblue" stroke="midnightblue" points="48.69,-80.09 38.99,-75.83 43.92,-85.21 48.69,-80.09"/>
</g>
<!-- Node3&#45;&gt;Node4 -->
<g id="edge3" class="edge">
<title>Node3&#45;&gt;Node4</title>
<path fill="none" stroke="midnightblue" d="M164.72,-56.44C183.4,-47.68 212.66,-33.94 234.12,-23.86"/>
<polygon fill="midnightblue" stroke="midnightblue" points="235.8,-26.93 243.36,-19.52 232.82,-20.6 235.8,-26.93"/>
</g>
<!-- Node7 -->
<g id="node7" class="node">
<title>Node7</title>
<g id="a_node7"><a xlink:href="../../d9/db2/block_8hpp.html" target="_top" xlink:title=" ">
<polygon fill="none" stroke="red" points="408.5,-56.5 408.5,-75.5 472.5,-75.5 472.5,-56.5 408.5,-56.5"/>
<text text-anchor="middle" x="440.5" y="-63.5" font-family="Helvetica,sans-Serif" font-size="10.00">block.hpp</text>
</a>
</g>
</g>
<!-- Node6&#45;&gt;Node7 -->
<g id="edge7" class="edge">
<title>Node6&#45;&gt;Node7</title>
<path fill="none" stroke="midnightblue" d="M288.16,-177.15C325.38,-175.53 385.68,-167.12 421.5,-132 433.69,-120.05 438.16,-100.75 439.75,-86.28"/>
<polygon fill="midnightblue" stroke="midnightblue" points="443.27,-86.17 440.5,-75.94 436.29,-85.66 443.27,-86.17"/>
</g>
<!-- Node16 -->
<g id="node8" class="node">
<title>Node16</title>
<g id="a_node8"><a xlink:href="../../df/dbe/cpu_8hpp.html" target="_top" xlink:title=" ">
<polygon fill="none" stroke="red" points="234,-56.5 234,-75.5 289,-75.5 289,-56.5 234,-56.5"/>
<text text-anchor="middle" x="261.5" y="-63.5" font-family="Helvetica,sans-Serif" font-size="10.00">cpu.hpp</text>
</a>
</g>
</g>
<!-- Node6&#45;&gt;Node16 -->
<g id="edge9" class="edge">
<title>Node6&#45;&gt;Node16</title>
<path fill="none" stroke="midnightblue" d="M251.2,-168.17C245.67,-155.67 237.23,-132.1 241.5,-112 243.5,-102.59 247.6,-92.76 251.57,-84.7"/>
<polygon fill="midnightblue" stroke="midnightblue" points="254.81,-86.07 256.37,-75.59 248.61,-82.81 254.81,-86.07"/>
</g>
<!-- Node17 -->
<g id="node9" class="node">
<title>Node17</title>
<g id="a_node9"><a xlink:href="../../d4/d2d/net_8hpp.html" target="_top" xlink:title=" ">
<polygon fill="none" stroke="red" points="141,-112.5 141,-131.5 194,-131.5 194,-112.5 141,-112.5"/>
<text text-anchor="middle" x="167.5" y="-119.5" font-family="Helvetica,sans-Serif" font-size="10.00">net.hpp</text>
</a>
</g>
</g>
<!-- Node6&#45;&gt;Node17 -->
<g id="edge11" class="edge">
<title>Node6&#45;&gt;Node17</title>
<path fill="none" stroke="midnightblue" d="M241.36,-168.32C227.63,-159.9 206.56,-146.97 190.44,-137.07"/>
<polygon fill="midnightblue" stroke="midnightblue" points="191.96,-133.9 181.6,-131.65 188.3,-139.87 191.96,-133.9"/>
</g>
<!-- Node19 -->
<g id="node10" class="node">
<title>Node19</title>
<g id="a_node10"><a xlink:href="../../dd/db4/process_8hpp.html" target="_top" xlink:title=" ">
<polygon fill="none" stroke="red" points="251,-112.5 251,-131.5 326,-131.5 326,-112.5 251,-112.5"/>
<text text-anchor="middle" x="288.5" y="-119.5" font-family="Helvetica,sans-Serif" font-size="10.00">process.hpp</text>
</a>
</g>
</g>
<!-- Node6&#45;&gt;Node19 -->
<g id="edge14" class="edge">
<title>Node6&#45;&gt;Node19</title>
<path fill="none" stroke="midnightblue" d="M260.95,-168.08C265.51,-160.61 272.17,-149.72 277.79,-140.52"/>
<polygon fill="midnightblue" stroke="midnightblue" points="280.92,-142.11 283.15,-131.75 274.95,-138.46 280.92,-142.11"/>
</g>
<!-- Node22 -->
<g id="node11" class="node">
<title>Node22</title>
<g id="a_node11"><a xlink:href="../../db/da3/vmem_8hpp.html" target="_top" xlink:title=" ">
<polygon fill="none" stroke="red" points="344,-112.5 344,-131.5 413,-131.5 413,-112.5 344,-112.5"/>
<text text-anchor="middle" x="378.5" y="-119.5" font-family="Helvetica,sans-Serif" font-size="10.00">vmem.hpp</text>
</a>
</g>
</g>
<!-- Node6&#45;&gt;Node22 -->
<g id="edge16" class="edge">
<title>Node6&#45;&gt;Node22</title>
<path fill="none" stroke="midnightblue" d="M274.99,-168.44C295.14,-159.6 326.82,-145.69 349.83,-135.59"/>
<polygon fill="midnightblue" stroke="midnightblue" points="351.35,-138.74 359.1,-131.52 348.54,-132.33 351.35,-138.74"/>
</g>
<!-- Node7&#45;&gt;Node4 -->
<g id="edge8" class="edge">
<title>Node7&#45;&gt;Node4</title>
<path fill="none" stroke="midnightblue" d="M412.14,-56.44C379.8,-46.69 327.06,-30.78 293.33,-20.6"/>
<polygon fill="midnightblue" stroke="midnightblue" points="294.11,-17.18 283.52,-17.64 292.09,-23.88 294.11,-17.18"/>
</g>
<!-- Node16&#45;&gt;Node4 -->
<g id="edge10" class="edge">
<title>Node16&#45;&gt;Node4</title>
<path fill="none" stroke="midnightblue" d="M261.5,-56.08C261.5,-49.01 261.5,-38.86 261.5,-29.99"/>
<polygon fill="midnightblue" stroke="midnightblue" points="265,-29.75 261.5,-19.75 258,-29.75 265,-29.75"/>
</g>
<!-- Node17&#45;&gt;Node3 -->
<g id="edge12" class="edge">
<title>Node17&#45;&gt;Node3</title>
<path fill="none" stroke="midnightblue" d="M164.03,-112.08C161.19,-104.77 157.07,-94.18 153.54,-85.1"/>
<polygon fill="midnightblue" stroke="midnightblue" points="156.79,-83.8 149.9,-75.75 150.27,-86.34 156.79,-83.8"/>
</g>
<!-- Node17&#45;&gt;Node4 -->
<g id="edge13" class="edge">
<title>Node17&#45;&gt;Node4</title>
<path fill="none" stroke="midnightblue" d="M174.88,-112.37C190.53,-94.05 227.28,-51.05 247.52,-27.36"/>
<polygon fill="midnightblue" stroke="midnightblue" points="250.32,-29.47 254.16,-19.59 245,-24.92 250.32,-29.47"/>
</g>
<!-- Node19&#45;&gt;Node4 -->
<g id="edge15" class="edge">
<title>Node19&#45;&gt;Node4</title>
<path fill="none" stroke="midnightblue" d="M292.2,-112.33C297.08,-99.62 304.29,-75.35 297.5,-56 293.71,-45.21 286.13,-35.08 278.9,-27.18"/>
<polygon fill="midnightblue" stroke="midnightblue" points="281.17,-24.49 271.66,-19.81 276.17,-29.4 281.17,-24.49"/>
</g>
<!-- Node22&#45;&gt;Node4 -->
<g id="edge17" class="edge">
<title>Node22&#45;&gt;Node4</title>
<path fill="none" stroke="midnightblue" d="M370.28,-112.39C358.12,-99.75 334.53,-75.57 313.5,-56 302.57,-45.83 289.92,-34.87 279.83,-26.31"/>
<polygon fill="midnightblue" stroke="midnightblue" points="281.96,-23.52 272.05,-19.75 277.44,-28.87 281.96,-23.52"/>
</g>
</g>
</svg>
