<?xml version="1.0" encoding="UTF-8" standalone="no"?>
<!DOCTYPE svg PUBLIC "-//W3C//DTD SVG 1.1//EN"
 "http://www.w3.org/Graphics/SVG/1.1/DTD/svg11.dtd">
<!-- Generated by graphviz version 2.43.0 (0)
 -->
<!-- Title: leanux::tools::lmon::XNetView Pages: 1 -->
<svg width="591pt" height="160pt"
 viewBox="0.00 0.00 591.00 159.50" xmlns="http://www.w3.org/2000/svg" xmlns:xlink="http://www.w3.org/1999/xlink">
<g id="graph0" class="graph" transform="scale(1 1) rotate(0) translate(4 155.5)">
<title>leanux::tools::lmon::XNetView</title>
<!-- Node1 -->
<g id="node1" class="node">
<title>Node1</title>
<g id="a_node1"><a xlink:title="Data record for NetView display.">
<polygon fill="#bfbfbf" stroke="black" points="473,-67.5 473,-97.5 583,-97.5 583,-67.5 473,-67.5"/>
<text text-anchor="start" x="481" y="-85.5" font-family="Helvetica,sans-Serif" font-size="10.00">leanux::tools::lmon</text>
<text text-anchor="middle" x="528" y="-74.5" font-family="Helvetica,sans-Serif" font-size="10.00">::XNetView</text>
</a>
</g>
</g>
<!-- Node2 -->
<g id="node2" class="node">
<title>Node2</title>
<g id="a_node2"><a xlink:title=" ">
<polygon fill="none" stroke="#bfbfbf" points="258.5,-132 258.5,-151 343.5,-151 343.5,-132 258.5,-132"/>
<text text-anchor="middle" x="301" y="-139" font-family="Helvetica,sans-Serif" font-size="10.00">unsigned long</text>
</a>
</g>
</g>
<!-- Node2&#45;&gt;Node1 -->
<g id="edge1" class="edge">
<title>Node2&#45;&gt;Node1</title>
<path fill="none" stroke="#9a32cd" stroke-dasharray="5,2" d="M353.85,-132.69C383.71,-127.12 421.78,-119.14 455,-109.5 466.54,-106.15 478.86,-101.82 489.99,-97.61"/>
<polygon fill="#9a32cd" stroke="#9a32cd" points="352.86,-129.32 343.66,-134.56 354.12,-136.2 352.86,-129.32"/>
<text text-anchor="middle" x="419" y="-129.5" font-family="Helvetica,sans-Serif" font-size="10.00"> sample_count</text>
</g>
<!-- Node3 -->
<g id="node3" class="node">
<title>Node3</title>
<g id="a_node3"><a xlink:title=" ">
<polygon fill="none" stroke="#bfbfbf" points="237,-94 237,-113 365,-113 365,-94 237,-94"/>
<text text-anchor="middle" x="301" y="-101" font-family="Helvetica,sans-Serif" font-size="10.00">std::vector&lt; NetStat &gt;</text>
</a>
</g>
</g>
<!-- Node3&#45;&gt;Node1 -->
<g id="edge2" class="edge">
<title>Node3&#45;&gt;Node1</title>
<path fill="none" stroke="#9a32cd" stroke-dasharray="5,2" d="M375.41,-96.65C407.19,-93.68 443.73,-90.27 472.96,-87.54"/>
<polygon fill="#9a32cd" stroke="#9a32cd" points="374.91,-93.18 365.27,-97.59 375.56,-100.15 374.91,-93.18"/>
<text text-anchor="middle" x="419" y="-97.5" font-family="Helvetica,sans-Serif" font-size="10.00"> delta</text>
</g>
<!-- Node4 -->
<g id="node4" class="node">
<title>Node4</title>
<g id="a_node4"><a xlink:title=" ">
<polygon fill="none" stroke="#bfbfbf" points="49.5,-94 49.5,-113 102.5,-113 102.5,-94 49.5,-94"/>
<text text-anchor="middle" x="76" y="-101" font-family="Helvetica,sans-Serif" font-size="10.00">NetStat</text>
</a>
</g>
</g>
<!-- Node4&#45;&gt;Node3 -->
<g id="edge3" class="edge">
<title>Node4&#45;&gt;Node3</title>
<path fill="none" stroke="#9a32cd" stroke-dasharray="5,2" d="M112.77,-103.5C146.12,-103.5 196.6,-103.5 236.75,-103.5"/>
<polygon fill="#9a32cd" stroke="#9a32cd" points="112.58,-100 102.58,-103.5 112.58,-107 112.58,-100"/>
<text text-anchor="middle" x="194.5" y="-106.5" font-family="Helvetica,sans-Serif" font-size="10.00"> elements</text>
</g>
<!-- Node5 -->
<g id="node5" class="node">
<title>Node5</title>
<g id="a_node5"><a xlink:title=" ">
<polygon fill="none" stroke="#bfbfbf" points="258.5,-51 258.5,-70 343.5,-70 343.5,-51 258.5,-51"/>
<text text-anchor="middle" x="301" y="-58" font-family="Helvetica,sans-Serif" font-size="10.00">struct timeval</text>
</a>
</g>
</g>
<!-- Node5&#45;&gt;Node1 -->
<g id="edge4" class="edge">
<title>Node5&#45;&gt;Node1</title>
<path fill="none" stroke="#9a32cd" stroke-dasharray="5,2" d="M353.94,-57.87C383.67,-57.2 421.6,-57.72 455,-62.5 462.96,-63.64 471.29,-65.4 479.34,-67.41"/>
<polygon fill="#9a32cd" stroke="#9a32cd" points="353.68,-54.38 343.78,-58.16 353.88,-61.38 353.68,-54.38"/>
<text text-anchor="middle" x="419" y="-76.5" font-family="Helvetica,sans-Serif" font-size="10.00"> t1</text>
<text text-anchor="middle" x="419" y="-65.5" font-family="Helvetica,sans-Serif" font-size="10.00">t2</text>
</g>
<!-- Node6 -->
<g id="node6" class="node">
<title>Node6</title>
<g id="a_node6"><a xlink:title=" ">
<polygon fill="none" stroke="#bfbfbf" points="239,-0.5 239,-30.5 363,-30.5 363,-0.5 239,-0.5"/>
<text text-anchor="start" x="247" y="-18.5" font-family="Helvetica,sans-Serif" font-size="10.00">std::list&lt; leanux::</text>
<text text-anchor="middle" x="301" y="-7.5" font-family="Helvetica,sans-Serif" font-size="10.00">net::TCPKeyCounter &gt;</text>
</a>
</g>
</g>
<!-- Node6&#45;&gt;Node1 -->
<g id="edge5" class="edge">
<title>Node6&#45;&gt;Node1</title>
<path fill="none" stroke="#9a32cd" stroke-dasharray="5,2" d="M373.46,-16.14C399.77,-18.25 429.37,-22.89 455,-32.5 475.95,-40.36 496.58,-55.68 510.35,-67.3"/>
<polygon fill="#9a32cd" stroke="#9a32cd" points="373.4,-12.62 363.18,-15.42 372.92,-19.61 373.4,-12.62"/>
<text text-anchor="middle" x="419" y="-46.5" font-family="Helvetica,sans-Serif" font-size="10.00"> tcpclient</text>
<text text-anchor="middle" x="419" y="-35.5" font-family="Helvetica,sans-Serif" font-size="10.00">tcpserver</text>
</g>
<!-- Node7 -->
<g id="node7" class="node">
<title>Node7</title>
<g id="a_node7"><a xlink:href="../../d0/df8/classleanux_1_1net_1_1TCPKeyCounter.html" target="_top" xlink:title="TCP TCPKeyCounter status.">
<polygon fill="none" stroke="red" points="0,-6 0,-25 152,-25 152,-6 0,-6"/>
<text text-anchor="middle" x="76" y="-13" font-family="Helvetica,sans-Serif" font-size="10.00">leanux::net::TCPKeyCounter</text>
</a>
</g>
</g>
<!-- Node7&#45;&gt;Node6 -->
<g id="edge6" class="edge">
<title>Node7&#45;&gt;Node6</title>
<path fill="none" stroke="#9a32cd" stroke-dasharray="5,2" d="M162.23,-15.5C187.74,-15.5 215.2,-15.5 238.83,-15.5"/>
<polygon fill="#9a32cd" stroke="#9a32cd" points="162.19,-12 152.19,-15.5 162.19,-19 162.19,-12"/>
<text text-anchor="middle" x="194.5" y="-18.5" font-family="Helvetica,sans-Serif" font-size="10.00"> elements</text>
</g>
</g>
</svg>
