<?xml version="1.0" encoding="UTF-8" standalone="no"?>
<!DOCTYPE svg PUBLIC "-//W3C//DTD SVG 1.1//EN"
 "http://www.w3.org/Graphics/SVG/1.1/DTD/svg11.dtd">
<!-- Generated by graphviz version 2.43.0 (0)
 -->
<!-- Title: lib/pci.hpp Pages: 1 -->
<svg width="732pt" height="84pt"
 viewBox="0.00 0.00 731.50 84.00" xmlns="http://www.w3.org/2000/svg" xmlns:xlink="http://www.w3.org/1999/xlink">
<g id="graph0" class="graph" transform="scale(1 1) rotate(0) translate(4 80)">
<title>lib/pci.hpp</title>
<!-- Node1 -->
<g id="node1" class="node">
<title>Node1</title>
<g id="a_node1"><a xlink:title=" ">
<polygon fill="#bfbfbf" stroke="black" points="293.5,-56.5 293.5,-75.5 360.5,-75.5 360.5,-56.5 293.5,-56.5"/>
<text text-anchor="middle" x="327" y="-63.5" font-family="Helvetica,sans-Serif" font-size="10.00">lib/pci.hpp</text>
</a>
</g>
</g>
<!-- Node2 -->
<g id="node2" class="node">
<title>Node2</title>
<g id="a_node2"><a xlink:href="../../d3/dd4/device_8cpp.html" target="_top" xlink:title=" ">
<polygon fill="none" stroke="black" points="0,-0.5 0,-19.5 84,-19.5 84,-0.5 0,-0.5"/>
<text text-anchor="middle" x="42" y="-7.5" font-family="Helvetica,sans-Serif" font-size="10.00">lib/device.cpp</text>
</a>
</g>
</g>
<!-- Node1&#45;&gt;Node2 -->
<g id="edge1" class="edge">
<title>Node1&#45;&gt;Node2</title>
<path fill="none" stroke="midnightblue" d="M283.5,-56.76C229.4,-46.51 137.66,-29.13 84.18,-18.99"/>
<polygon fill="midnightblue" stroke="midnightblue" points="282.99,-60.22 293.47,-58.65 284.3,-53.35 282.99,-60.22"/>
</g>
<!-- Node3 -->
<g id="node3" class="node">
<title>Node3</title>
<g id="a_node3"><a xlink:href="../../d5/d87/pci_8cpp.html" target="_top" xlink:title=" ">
<polygon fill="none" stroke="black" points="102,-0.5 102,-19.5 168,-19.5 168,-0.5 102,-0.5"/>
<text text-anchor="middle" x="135" y="-7.5" font-family="Helvetica,sans-Serif" font-size="10.00">lib/pci.cpp</text>
</a>
</g>
</g>
<!-- Node1&#45;&gt;Node3 -->
<g id="edge2" class="edge">
<title>Node1&#45;&gt;Node3</title>
<path fill="none" stroke="midnightblue" d="M286.82,-53.7C250.58,-43.51 198.09,-28.74 165.28,-19.52"/>
<polygon fill="midnightblue" stroke="midnightblue" points="286,-57.11 296.58,-56.44 287.9,-50.37 286,-57.11"/>
</g>
<!-- Node4 -->
<g id="node4" class="node">
<title>Node4</title>
<g id="a_node4"><a xlink:href="../../d6/df8/system_8cpp.html" target="_top" xlink:title=" ">
<polygon fill="none" stroke="black" points="186,-0.5 186,-19.5 274,-19.5 274,-0.5 186,-0.5"/>
<text text-anchor="middle" x="230" y="-7.5" font-family="Helvetica,sans-Serif" font-size="10.00">lib/system.cpp</text>
</a>
</g>
</g>
<!-- Node1&#45;&gt;Node4 -->
<g id="edge3" class="edge">
<title>Node1&#45;&gt;Node4</title>
<path fill="none" stroke="midnightblue" d="M302.66,-51.45C284.76,-41.48 260.95,-28.23 245.55,-19.65"/>
<polygon fill="midnightblue" stroke="midnightblue" points="300.98,-54.52 311.42,-56.32 304.38,-48.4 300.98,-54.52"/>
</g>
<!-- Node5 -->
<g id="node5" class="node">
<title>Node5</title>
<g id="a_node5"><a xlink:href="../../d3/d35/usb_8cpp.html" target="_top" xlink:title=" ">
<polygon fill="none" stroke="black" points="292.5,-0.5 292.5,-19.5 361.5,-19.5 361.5,-0.5 292.5,-0.5"/>
<text text-anchor="middle" x="327" y="-7.5" font-family="Helvetica,sans-Serif" font-size="10.00">lib/usb.cpp</text>
</a>
</g>
</g>
<!-- Node1&#45;&gt;Node5 -->
<g id="edge4" class="edge">
<title>Node1&#45;&gt;Node5</title>
<path fill="none" stroke="midnightblue" d="M327,-45.8C327,-36.91 327,-26.78 327,-19.75"/>
<polygon fill="midnightblue" stroke="midnightblue" points="323.5,-46.08 327,-56.08 330.5,-46.08 323.5,-46.08"/>
</g>
<!-- Node6 -->
<g id="node6" class="node">
<title>Node6</title>
<g id="a_node6"><a xlink:href="../../de/d17/lsys_8cpp.html" target="_top" xlink:title=" ">
<polygon fill="none" stroke="black" points="380,-0.5 380,-19.5 486,-19.5 486,-0.5 380,-0.5"/>
<text text-anchor="middle" x="433" y="-7.5" font-family="Helvetica,sans-Serif" font-size="10.00">tools/lsys/lsys.cpp</text>
</a>
</g>
</g>
<!-- Node1&#45;&gt;Node6 -->
<g id="edge5" class="edge">
<title>Node1&#45;&gt;Node6</title>
<path fill="none" stroke="midnightblue" d="M353.06,-51.73C372.68,-41.73 399.03,-28.31 416.01,-19.65"/>
<polygon fill="midnightblue" stroke="midnightblue" points="351.35,-48.67 344.03,-56.32 354.53,-54.9 351.35,-48.67"/>
</g>
<!-- Node7 -->
<g id="node7" class="node">
<title>Node7</title>
<g id="a_node7"><a xlink:href="../../da/de9/lar_8cpp.html" target="_top" xlink:title=" ">
<polygon fill="none" stroke="black" points="504,-0.5 504,-19.5 602,-19.5 602,-0.5 504,-0.5"/>
<text text-anchor="middle" x="553" y="-7.5" font-family="Helvetica,sans-Serif" font-size="10.00">tools/lard/lar.cpp</text>
</a>
</g>
</g>
<!-- Node1&#45;&gt;Node7 -->
<g id="edge6" class="edge">
<title>Node1&#45;&gt;Node7</title>
<path fill="none" stroke="midnightblue" d="M370.64,-54.57C413.25,-44.39 477.31,-29.09 517.06,-19.59"/>
<polygon fill="midnightblue" stroke="midnightblue" points="369.75,-51.19 360.83,-56.92 371.37,-58 369.75,-51.19"/>
</g>
<!-- Node8 -->
<g id="node8" class="node">
<title>Node8</title>
<g id="a_node8"><a xlink:href="../../d9/d3a/lblk_8cpp.html" target="_top" xlink:title=" ">
<polygon fill="none" stroke="black" points="620.5,-0.5 620.5,-19.5 723.5,-19.5 723.5,-0.5 620.5,-0.5"/>
<text text-anchor="middle" x="672" y="-7.5" font-family="Helvetica,sans-Serif" font-size="10.00">tools/lblk/lblk.cpp</text>
</a>
</g>
</g>
<!-- Node1&#45;&gt;Node8 -->
<g id="edge7" class="edge">
<title>Node1&#45;&gt;Node8</title>
<path fill="none" stroke="midnightblue" d="M370.82,-58.14C434.53,-48.17 552.48,-29.71 620.33,-19.09"/>
<polygon fill="midnightblue" stroke="midnightblue" points="370.05,-54.72 360.71,-59.72 371.13,-61.64 370.05,-54.72"/>
</g>
</g>
</svg>
