<?xml version="1.0" encoding="UTF-8" standalone="no"?>
<!DOCTYPE svg PUBLIC "-//W3C//DTD SVG 1.1//EN"
 "http://www.w3.org/Graphics/SVG/1.1/DTD/svg11.dtd">
<!-- Generated by graphviz version 2.43.0 (0)
 -->
<!-- Title: leanux::sysdevice::MapperDevice::getPropertyValueList Pages: 1 -->
<svg width="600pt" height="312pt"
 viewBox="0.00 0.00 600.00 312.00" xmlns="http://www.w3.org/2000/svg" xmlns:xlink="http://www.w3.org/1999/xlink">
<g id="graph0" class="graph" transform="scale(1 1) rotate(0) translate(4 308)">
<title>leanux::sysdevice::MapperDevice::getPropertyValueList</title>
<!-- Node1 -->
<g id="node1" class="node">
<title>Node1</title>
<g id="a_node1"><a xlink:title=" ">
<polygon fill="#bfbfbf" stroke="black" points="0,-199.5 0,-229.5 194,-229.5 194,-199.5 0,-199.5"/>
<text text-anchor="start" x="8" y="-217.5" font-family="Helvetica,sans-Serif" font-size="10.00">leanux::sysdevice::</text>
<text text-anchor="middle" x="97" y="-206.5" font-family="Helvetica,sans-Serif" font-size="10.00">MapperDevice::getPropertyValueList</text>
</a>
</g>
</g>
<!-- Node2 -->
<g id="node2" class="node">
<title>Node2</title>
<g id="a_node2"><a xlink:href="../../d8/db1/namespaceleanux_1_1util.html#a979843e3d99f053101f902ec38985833" target="_top" xlink:title="convert a byte value to pretty print string.">
<polygon fill="none" stroke="black" points="261,-274 261,-293 374,-293 374,-274 261,-274"/>
<text text-anchor="middle" x="317.5" y="-281" font-family="Helvetica,sans-Serif" font-size="10.00">leanux::util::ByteStr</text>
</a>
</g>
</g>
<!-- Node1&#45;&gt;Node2 -->
<g id="edge1" class="edge">
<title>Node1&#45;&gt;Node2</title>
<path fill="none" stroke="midnightblue" d="M133.37,-229.51C159.68,-240.28 196.65,-254.58 230,-264.5 238.77,-267.11 248.13,-269.53 257.34,-271.71"/>
<polygon fill="midnightblue" stroke="midnightblue" points="256.7,-275.16 267.23,-273.98 258.27,-268.33 256.7,-275.16"/>
</g>
<!-- Node3 -->
<g id="node3" class="node">
<title>Node3</title>
<g id="a_node3"><a xlink:href="../../d7/d28/classleanux_1_1block_1_1MajorMinor.html#a53428887ee9d78196b265e624087ce2b" target="_top" xlink:title="get a list of device aliases, returned as full paths.">
<polygon fill="none" stroke="black" points="246,-224.5 246,-254.5 389,-254.5 389,-224.5 246,-224.5"/>
<text text-anchor="start" x="254" y="-242.5" font-family="Helvetica,sans-Serif" font-size="10.00">leanux::block::MajorMinor</text>
<text text-anchor="middle" x="317.5" y="-231.5" font-family="Helvetica,sans-Serif" font-size="10.00">::getAliases</text>
</a>
</g>
</g>
<!-- Node1&#45;&gt;Node3 -->
<g id="edge2" class="edge">
<title>Node1&#45;&gt;Node3</title>
<path fill="none" stroke="midnightblue" d="M194.16,-225.5C208.02,-227.09 222.18,-228.71 235.71,-230.26"/>
<polygon fill="midnightblue" stroke="midnightblue" points="235.58,-233.76 245.91,-231.42 236.38,-226.81 235.58,-233.76"/>
</g>
<!-- Node10 -->
<g id="node6" class="node">
<title>Node10</title>
<g id="a_node6"><a xlink:href="../../d2/d31/classleanux_1_1sysdevice_1_1BlockDevice.html#aaed715a73aad1b5f05aaad7906c9ea57" target="_top" xlink:title=" ">
<polygon fill="none" stroke="black" points="240,-175.5 240,-205.5 395,-205.5 395,-175.5 240,-175.5"/>
<text text-anchor="start" x="248" y="-193.5" font-family="Helvetica,sans-Serif" font-size="10.00">leanux::sysdevice::</text>
<text text-anchor="middle" x="317.5" y="-182.5" font-family="Helvetica,sans-Serif" font-size="10.00">BlockDevice::getMajorMinor</text>
</a>
</g>
</g>
<!-- Node1&#45;&gt;Node10 -->
<g id="edge5" class="edge">
<title>Node1&#45;&gt;Node10</title>
<path fill="none" stroke="midnightblue" d="M194.16,-203.94C206.02,-202.63 218.1,-201.31 229.81,-200.02"/>
<polygon fill="midnightblue" stroke="midnightblue" points="230.44,-203.47 240,-198.9 229.67,-196.52 230.44,-203.47"/>
</g>
<!-- Node13 -->
<g id="node9" class="node">
<title>Node13</title>
<g id="a_node9"><a xlink:href="../../d1/d02/classleanux_1_1sysdevice_1_1SysDevice.html#ae45d4c50b05a48b480911a1aaeaeacc1" target="_top" xlink:title=" ">
<polygon fill="none" stroke="black" points="230,-74.5 230,-104.5 405,-104.5 405,-74.5 230,-74.5"/>
<text text-anchor="start" x="238" y="-92.5" font-family="Helvetica,sans-Serif" font-size="10.00">leanux::sysdevice::</text>
<text text-anchor="middle" x="317.5" y="-81.5" font-family="Helvetica,sans-Serif" font-size="10.00">SysDevice::getPropertyValueList</text>
</a>
</g>
</g>
<!-- Node1&#45;&gt;Node13 -->
<g id="edge8" class="edge">
<title>Node1&#45;&gt;Node13</title>
<path fill="none" stroke="midnightblue" d="M124.36,-199.42C163.56,-176.99 237.33,-134.79 281.17,-109.71"/>
<polygon fill="midnightblue" stroke="midnightblue" points="283.11,-112.64 290.05,-104.63 279.63,-106.56 283.11,-112.64"/>
</g>
<!-- Node4 -->
<g id="node4" class="node">
<title>Node4</title>
<g id="a_node4"><a xlink:href="../../d7/d28/classleanux_1_1block_1_1MajorMinor.html#a8fa26dbc85f683ed73fcec3a2db42821" target="_top" xlink:title="return the MajorMinor dev_t.">
<polygon fill="none" stroke="black" points="445,-273.5 445,-303.5 588,-303.5 588,-273.5 445,-273.5"/>
<text text-anchor="start" x="453" y="-291.5" font-family="Helvetica,sans-Serif" font-size="10.00">leanux::block::MajorMinor</text>
<text text-anchor="middle" x="516.5" y="-280.5" font-family="Helvetica,sans-Serif" font-size="10.00">::getDevT</text>
</a>
</g>
</g>
<!-- Node3&#45;&gt;Node4 -->
<g id="edge3" class="edge">
<title>Node3&#45;&gt;Node4</title>
<path fill="none" stroke="midnightblue" d="M378.95,-254.53C399.93,-259.76 423.65,-265.65 445.35,-271.05"/>
<polygon fill="midnightblue" stroke="midnightblue" points="444.62,-274.48 455.17,-273.49 446.31,-267.68 444.62,-274.48"/>
</g>
<!-- Node5 -->
<g id="node5" class="node">
<title>Node5</title>
<g id="a_node5"><a xlink:href="../../d7/d28/classleanux_1_1block_1_1MajorMinor.html#a7ef43192321c82d296575f35b69c52d4" target="_top" xlink:title="Get the udev path for the device.">
<polygon fill="none" stroke="red" points="445,-224.5 445,-254.5 588,-254.5 588,-224.5 445,-224.5"/>
<text text-anchor="start" x="453" y="-242.5" font-family="Helvetica,sans-Serif" font-size="10.00">leanux::block::MajorMinor</text>
<text text-anchor="middle" x="516.5" y="-231.5" font-family="Helvetica,sans-Serif" font-size="10.00">::getUDevPath</text>
</a>
</g>
</g>
<!-- Node3&#45;&gt;Node5 -->
<g id="edge4" class="edge">
<title>Node3&#45;&gt;Node5</title>
<path fill="none" stroke="midnightblue" d="M389.07,-239.5C403.78,-239.5 419.39,-239.5 434.45,-239.5"/>
<polygon fill="midnightblue" stroke="midnightblue" points="434.77,-243 444.77,-239.5 434.77,-236 434.77,-243"/>
</g>
<!-- Node11 -->
<g id="node7" class="node">
<title>Node11</title>
<g id="a_node7"><a xlink:href="../../d8/db1/namespaceleanux_1_1util.html#a6421ca2c46c56eebe1a486c6a498ce7d" target="_top" xlink:title="Test if a file exists and can be read.">
<polygon fill="none" stroke="black" points="441,-186 441,-205 592,-205 592,-186 441,-186"/>
<text text-anchor="middle" x="516.5" y="-193" font-family="Helvetica,sans-Serif" font-size="10.00">leanux::util::fileReadAccess</text>
</a>
</g>
</g>
<!-- Node10&#45;&gt;Node11 -->
<g id="edge6" class="edge">
<title>Node10&#45;&gt;Node11</title>
<path fill="none" stroke="midnightblue" d="M395.23,-192.45C406.84,-192.74 418.88,-193.05 430.66,-193.35"/>
<polygon fill="midnightblue" stroke="midnightblue" points="430.83,-196.85 440.92,-193.61 431.01,-189.85 430.83,-196.85"/>
</g>
<!-- Node12 -->
<g id="node8" class="node">
<title>Node12</title>
<g id="a_node8"><a xlink:href="../../d8/db1/namespaceleanux_1_1util.html#a57bfd49353610b3d0b6d121b264c676e" target="_top" xlink:title="read the file as a single string.">
<polygon fill="none" stroke="black" points="443.5,-148 443.5,-167 589.5,-167 589.5,-148 443.5,-148"/>
<text text-anchor="middle" x="516.5" y="-155" font-family="Helvetica,sans-Serif" font-size="10.00">leanux::util::fileReadString</text>
</a>
</g>
</g>
<!-- Node10&#45;&gt;Node12 -->
<g id="edge7" class="edge">
<title>Node10&#45;&gt;Node12</title>
<path fill="none" stroke="midnightblue" d="M395.23,-177.65C412.84,-174.7 431.43,-171.58 448.59,-168.71"/>
<polygon fill="midnightblue" stroke="midnightblue" points="449.22,-172.15 458.5,-167.05 448.06,-165.25 449.22,-172.15"/>
</g>
<!-- Node14 -->
<g id="node10" class="node">
<title>Node14</title>
<g id="a_node10"><a xlink:href="../../d1/d02/classleanux_1_1sysdevice_1_1SysDevice.html#af93bf56dfb812cdfa443dcfaffcbbb25" target="_top" xlink:title="Get the device class for this device.">
<polygon fill="none" stroke="black" points="458.5,-98.5 458.5,-128.5 574.5,-128.5 574.5,-98.5 458.5,-98.5"/>
<text text-anchor="start" x="466.5" y="-116.5" font-family="Helvetica,sans-Serif" font-size="10.00">leanux::sysdevice::</text>
<text text-anchor="middle" x="516.5" y="-105.5" font-family="Helvetica,sans-Serif" font-size="10.00">SysDevice::getClass</text>
</a>
</g>
</g>
<!-- Node13&#45;&gt;Node14 -->
<g id="edge9" class="edge">
<title>Node13&#45;&gt;Node14</title>
<path fill="none" stroke="midnightblue" d="M405.19,-100.06C419.51,-101.81 434.16,-103.59 447.91,-105.27"/>
<polygon fill="midnightblue" stroke="midnightblue" points="447.89,-108.79 458.24,-106.52 448.73,-101.84 447.89,-108.79"/>
</g>
<!-- Node15 -->
<g id="node11" class="node">
<title>Node15</title>
<g id="a_node11"><a xlink:href="../../d1/d02/classleanux_1_1sysdevice_1_1SysDevice.html#af7a1af7a4b7729e150cceed395e4425b" target="_top" xlink:title="Get the driver for this device.">
<polygon fill="none" stroke="red" points="457,-49.5 457,-79.5 576,-79.5 576,-49.5 457,-49.5"/>
<text text-anchor="start" x="465" y="-67.5" font-family="Helvetica,sans-Serif" font-size="10.00">leanux::sysdevice::</text>
<text text-anchor="middle" x="516.5" y="-56.5" font-family="Helvetica,sans-Serif" font-size="10.00">SysDevice::getDriver</text>
</a>
</g>
</g>
<!-- Node13&#45;&gt;Node15 -->
<g id="edge10" class="edge">
<title>Node13&#45;&gt;Node15</title>
<path fill="none" stroke="midnightblue" d="M405.19,-78.5C419.1,-76.73 433.32,-74.93 446.73,-73.23"/>
<polygon fill="midnightblue" stroke="midnightblue" points="447.32,-76.68 456.8,-71.95 446.44,-69.74 447.32,-76.68"/>
</g>
<!-- Node17 -->
<g id="node12" class="node">
<title>Node17</title>
<g id="a_node12"><a xlink:href="../../d1/d02/classleanux_1_1sysdevice_1_1SysDevice.html#a899968c4a70ecad67694f6850cf730fd" target="_top" xlink:title="Get a string representation for the SysDeviceType.">
<polygon fill="none" stroke="black" points="454,-0.5 454,-30.5 579,-30.5 579,-0.5 454,-0.5"/>
<text text-anchor="start" x="462" y="-18.5" font-family="Helvetica,sans-Serif" font-size="10.00">leanux::sysdevice::</text>
<text text-anchor="middle" x="516.5" y="-7.5" font-family="Helvetica,sans-Serif" font-size="10.00">SysDevice::getTypeStr</text>
</a>
</g>
</g>
<!-- Node13&#45;&gt;Node17 -->
<g id="edge11" class="edge">
<title>Node13&#45;&gt;Node17</title>
<path fill="none" stroke="midnightblue" d="M353.34,-74.46C377.71,-64.14 411.11,-50.4 441,-39.5 446.19,-37.61 451.6,-35.71 457.05,-33.86"/>
<polygon fill="midnightblue" stroke="midnightblue" points="458.45,-37.08 466.83,-30.59 456.23,-30.44 458.45,-37.08"/>
</g>
</g>
</svg>
