<?xml version="1.0" encoding="UTF-8" standalone="no"?>
<!DOCTYPE svg PUBLIC "-//W3C//DTD SVG 1.1//EN"
 "http://www.w3.org/Graphics/SVG/1.1/DTD/svg11.dtd">
<!-- Generated by graphviz version 2.43.0 (0)
 -->
<!-- Title: leanux::tools::lmon::ProcessView Pages: 1 -->
<svg width="633pt" height="349pt"
 viewBox="0.00 0.00 633.00 349.00" xmlns="http://www.w3.org/2000/svg" xmlns:xlink="http://www.w3.org/1999/xlink">
<g id="graph0" class="graph" transform="scale(1 1) rotate(0) translate(4 345)">
<title>leanux::tools::lmon::ProcessView</title>
<!-- Node1 -->
<g id="node1" class="node">
<title>Node1</title>
<g id="a_node1"><a xlink:title="View of top processes.">
<polygon fill="#bfbfbf" stroke="black" points="326,-0.5 326,-30.5 436,-30.5 436,-0.5 326,-0.5"/>
<text text-anchor="start" x="334" y="-18.5" font-family="Helvetica,sans-Serif" font-size="10.00">leanux::tools::lmon</text>
<text text-anchor="middle" x="381" y="-7.5" font-family="Helvetica,sans-Serif" font-size="10.00">::ProcessView</text>
</a>
</g>
</g>
<!-- Node2 -->
<g id="node2" class="node">
<title>Node2</title>
<g id="a_node2"><a xlink:href="../../d1/de8/classleanux_1_1tools_1_1lmon_1_1View.html" target="_top" xlink:title="A reactangular area on the ncurses Screen as a window of information.">
<polygon fill="none" stroke="black" points="92,-133.5 92,-163.5 202,-163.5 202,-133.5 92,-133.5"/>
<text text-anchor="start" x="100" y="-151.5" font-family="Helvetica,sans-Serif" font-size="10.00">leanux::tools::lmon</text>
<text text-anchor="middle" x="147" y="-140.5" font-family="Helvetica,sans-Serif" font-size="10.00">::View</text>
</a>
</g>
</g>
<!-- Node2&#45;&gt;Node1 -->
<g id="edge1" class="edge">
<title>Node2&#45;&gt;Node1</title>
<path fill="none" stroke="midnightblue" d="M181.01,-128.46C228.49,-101.88 313.55,-54.26 355.78,-30.62"/>
<polygon fill="midnightblue" stroke="midnightblue" points="179.06,-125.54 172.04,-133.48 182.48,-131.65 179.06,-125.54"/>
</g>
<!-- Node4 -->
<g id="node4" class="node">
<title>Node4</title>
<g id="a_node4"><a xlink:href="../../d5/de6/classleanux_1_1tools_1_1lmon_1_1Screen.html" target="_top" xlink:title="The curses screen.">
<polygon fill="none" stroke="red" points="28,-0.5 28,-30.5 138,-30.5 138,-0.5 28,-0.5"/>
<text text-anchor="start" x="36" y="-18.5" font-family="Helvetica,sans-Serif" font-size="10.00">leanux::tools::lmon</text>
<text text-anchor="middle" x="83" y="-7.5" font-family="Helvetica,sans-Serif" font-size="10.00">::Screen</text>
</a>
</g>
</g>
<!-- Node2&#45;&gt;Node4 -->
<g id="edge4" class="edge">
<title>Node2&#45;&gt;Node4</title>
<path fill="none" stroke="#9a32cd" stroke-dasharray="5,2" d="M146.14,-123.25C144.39,-102.16 139.32,-71.54 125,-49 120.45,-41.84 113.75,-35.63 107.03,-30.61"/>
<polygon fill="#9a32cd" stroke="#9a32cd" points="142.66,-123.56 146.79,-133.31 149.64,-123.11 142.66,-123.56"/>
<text text-anchor="middle" x="172" y="-107" font-family="Helvetica,sans-Serif" font-size="10.00"> vfooter_</text>
<text text-anchor="middle" x="172" y="-96" font-family="Helvetica,sans-Serif" font-size="10.00">vsys_</text>
<text text-anchor="middle" x="172" y="-85" font-family="Helvetica,sans-Serif" font-size="10.00">vio_</text>
<text text-anchor="middle" x="172" y="-74" font-family="Helvetica,sans-Serif" font-size="10.00">vprocess_</text>
<text text-anchor="middle" x="172" y="-63" font-family="Helvetica,sans-Serif" font-size="10.00">vnetwork_</text>
<text text-anchor="middle" x="172" y="-52" font-family="Helvetica,sans-Serif" font-size="10.00">vheader_</text>
</g>
<!-- Node3 -->
<g id="node3" class="node">
<title>Node3</title>
<g id="a_node3"><a xlink:title=" ">
<polygon fill="none" stroke="#bfbfbf" points="91.5,-321.5 91.5,-340.5 176.5,-340.5 176.5,-321.5 91.5,-321.5"/>
<text text-anchor="middle" x="134" y="-328.5" font-family="Helvetica,sans-Serif" font-size="10.00">unsigned long</text>
</a>
</g>
</g>
<!-- Node3&#45;&gt;Node2 -->
<g id="edge2" class="edge">
<title>Node3&#45;&gt;Node2</title>
<path fill="none" stroke="#9a32cd" stroke-dasharray="5,2" d="M132.06,-311.14C129.62,-282.83 126.66,-227.77 135,-182 136.12,-175.85 138.31,-169.33 140.52,-163.76"/>
<polygon fill="#9a32cd" stroke="#9a32cd" points="128.59,-311.6 133.01,-321.23 135.56,-310.94 128.59,-311.6"/>
<text text-anchor="middle" x="173.5" y="-240" font-family="Helvetica,sans-Serif" font-size="10.00"> sample_count_</text>
</g>
<!-- Node4&#45;&gt;Node2 -->
<g id="edge3" class="edge">
<title>Node4&#45;&gt;Node2</title>
<path fill="none" stroke="#9a32cd" stroke-dasharray="5,2" d="M76.7,-40.63C72.6,-61.84 70.26,-92.71 84,-115 88.78,-122.75 96.06,-128.74 103.99,-133.33"/>
<polygon fill="#9a32cd" stroke="#9a32cd" points="80.13,-41.32 78.86,-30.8 73.29,-39.82 80.13,-41.32"/>
<text text-anchor="middle" x="104.5" y="-79.5" font-family="Helvetica,sans-Serif" font-size="10.00"> screen_</text>
</g>
<!-- Node10 -->
<g id="node5" class="node">
<title>Node10</title>
<g id="a_node5"><a xlink:title=" ">
<polygon fill="none" stroke="#bfbfbf" points="0,-321.5 0,-340.5 70,-340.5 70,-321.5 0,-321.5"/>
<text text-anchor="middle" x="35" y="-328.5" font-family="Helvetica,sans-Serif" font-size="10.00">WINDOW *</text>
</a>
</g>
</g>
<!-- Node10&#45;&gt;Node2 -->
<g id="edge7" class="edge">
<title>Node10&#45;&gt;Node2</title>
<path fill="none" stroke="#9a32cd" stroke-dasharray="5,2" d="M40.49,-311.6C52.25,-272.23 78.91,-183.27 80,-182 86.55,-174.33 95.33,-168.32 104.37,-163.67"/>
<polygon fill="#9a32cd" stroke="#9a32cd" points="37.11,-310.69 37.6,-321.28 43.82,-312.7 37.11,-310.69"/>
<text text-anchor="middle" x="103" y="-240" font-family="Helvetica,sans-Serif" font-size="10.00"> window_</text>
</g>
<!-- Node10&#45;&gt;Node4 -->
<g id="edge5" class="edge">
<title>Node10&#45;&gt;Node4</title>
<path fill="none" stroke="#9a32cd" stroke-dasharray="5,2" d="M33.69,-310.99C31.68,-275.6 29.18,-197.41 41,-133 48.02,-94.72 66.11,-52.34 76.11,-30.78"/>
<polygon fill="#9a32cd" stroke="#9a32cd" points="30.22,-311.5 34.34,-321.26 37.21,-311.06 30.22,-311.5"/>
<text text-anchor="middle" x="62" y="-146" font-family="Helvetica,sans-Serif" font-size="10.00"> wmain_</text>
</g>
<!-- Node7 -->
<g id="node6" class="node">
<title>Node7</title>
<g id="a_node6"><a xlink:title=" ">
<polygon fill="none" stroke="#bfbfbf" points="270.5,-321.5 270.5,-340.5 299.5,-340.5 299.5,-321.5 270.5,-321.5"/>
<text text-anchor="middle" x="285" y="-328.5" font-family="Helvetica,sans-Serif" font-size="10.00">int</text>
</a>
</g>
</g>
<!-- Node7&#45;&gt;Node1 -->
<g id="edge9" class="edge">
<title>Node7&#45;&gt;Node1</title>
<path fill="none" stroke="#9a32cd" stroke-dasharray="5,2" d="M308.39,-317.88C314.02,-313.88 319.43,-308.91 323,-303 362.45,-237.75 329.87,-207.52 346,-133 354.13,-95.43 368.39,-52.4 375.96,-30.66"/>
<polygon fill="#9a32cd" stroke="#9a32cd" points="306.23,-315.1 299.6,-323.36 309.94,-321.04 306.23,-315.1"/>
<text text-anchor="middle" x="382.5" y="-146" font-family="Helvetica,sans-Serif" font-size="10.00"> width_wchan_</text>
</g>
<!-- Node7&#45;&gt;Node2 -->
<g id="edge6" class="edge">
<title>Node7&#45;&gt;Node2</title>
<path fill="none" stroke="#9a32cd" stroke-dasharray="5,2" d="M260.97,-322.2C251.51,-317.96 241.4,-311.74 235,-303 202.67,-258.82 245.02,-225.66 212,-182 206.14,-174.25 197.92,-168.22 189.3,-163.58"/>
<polygon fill="#9a32cd" stroke="#9a32cd" points="259.83,-325.51 270.42,-325.93 262.4,-319 259.83,-325.51"/>
<text text-anchor="middle" x="279" y="-295" font-family="Helvetica,sans-Serif" font-size="10.00"> attr_bold_text_</text>
<text text-anchor="middle" x="279" y="-284" font-family="Helvetica,sans-Serif" font-size="10.00">absy_</text>
<text text-anchor="middle" x="279" y="-273" font-family="Helvetica,sans-Serif" font-size="10.00">height_</text>
<text text-anchor="middle" x="279" y="-262" font-family="Helvetica,sans-Serif" font-size="10.00">absx_</text>
<text text-anchor="start" x="235" y="-251" font-family="Helvetica,sans-Serif" font-size="10.00">attr_plot_element</text>
<text text-anchor="middle" x="279" y="-240" font-family="Helvetica,sans-Serif" font-size="10.00">_</text>
<text text-anchor="middle" x="279" y="-229" font-family="Helvetica,sans-Serif" font-size="10.00">attr_line_</text>
<text text-anchor="middle" x="279" y="-218" font-family="Helvetica,sans-Serif" font-size="10.00">width_</text>
<text text-anchor="start" x="235" y="-207" font-family="Helvetica,sans-Serif" font-size="10.00">attr_normal</text>
<text text-anchor="middle" x="279" y="-196" font-family="Helvetica,sans-Serif" font-size="10.00">_text_</text>
<text text-anchor="middle" x="279" y="-185" font-family="Helvetica,sans-Serif" font-size="10.00">attr_alert_text_</text>
</g>
<!-- Node11 -->
<g id="node7" class="node">
<title>Node11</title>
<g id="a_node7"><a xlink:title=" ">
<polygon fill="none" stroke="#bfbfbf" points="428,-139 428,-158 478,-158 478,-139 428,-139"/>
<text text-anchor="middle" x="453" y="-146" font-family="Helvetica,sans-Serif" font-size="10.00">double</text>
</a>
</g>
</g>
<!-- Node11&#45;&gt;Node1 -->
<g id="edge8" class="edge">
<title>Node11&#45;&gt;Node1</title>
<path fill="none" stroke="#9a32cd" stroke-dasharray="5,2" d="M438.05,-131.23C433.86,-126.23 429.5,-120.57 426,-115 408.3,-86.82 393.56,-50.52 386.15,-30.8"/>
<polygon fill="#9a32cd" stroke="#9a32cd" points="435.54,-133.67 444.76,-138.89 440.8,-129.06 435.54,-133.67"/>
<text text-anchor="middle" x="473" y="-79.5" font-family="Helvetica,sans-Serif" font-size="10.00"> max_sample_time</text>
</g>
<!-- Node12 -->
<g id="node8" class="node">
<title>Node12</title>
<g id="a_node8"><a xlink:title=" ">
<polygon fill="none" stroke="#bfbfbf" points="523,-139 523,-158 561,-158 561,-139 523,-139"/>
<text text-anchor="middle" x="542" y="-146" font-family="Helvetica,sans-Serif" font-size="10.00">long</text>
</a>
</g>
</g>
<!-- Node12&#45;&gt;Node1 -->
<g id="edge10" class="edge">
<title>Node12&#45;&gt;Node1</title>
<path fill="none" stroke="#9a32cd" stroke-dasharray="5,2" d="M543.31,-128.91C543.79,-106.79 541,-70.21 520,-49 508.14,-37.02 469.65,-28.6 436.18,-23.33"/>
<polygon fill="#9a32cd" stroke="#9a32cd" points="539.81,-128.84 542.84,-139 546.8,-129.17 539.81,-128.84"/>
<text text-anchor="middle" x="584" y="-79.5" font-family="Helvetica,sans-Serif" font-size="10.00"> disabled_procs_</text>
</g>
</g>
</svg>
