<?xml version="1.0" encoding="UTF-8" standalone="no"?>
<!DOCTYPE svg PUBLIC "-//W3C//DTD SVG 1.1//EN"
 "http://www.w3.org/Graphics/SVG/1.1/DTD/svg11.dtd">
<!-- Generated by graphviz version 2.43.0 (0)
 -->
<!-- Title: leanux::init Pages: 1 -->
<svg width="308pt" height="284pt"
 viewBox="0.00 0.00 308.00 284.00" xmlns="http://www.w3.org/2000/svg" xmlns:xlink="http://www.w3.org/1999/xlink">
<g id="graph0" class="graph" transform="scale(1 1) rotate(0) translate(4 280)">
<title>leanux::init</title>
<!-- Node1 -->
<g id="node1" class="node">
<title>Node1</title>
<g id="a_node1"><a xlink:title="Initialize leanux, run checks to verify leanux is compatible with the runtime environment.">
<polygon fill="#bfbfbf" stroke="black" points="229,-128 229,-147 300,-147 300,-128 229,-128"/>
<text text-anchor="middle" x="264.5" y="-135" font-family="Helvetica,sans-Serif" font-size="10.00">leanux::init</text>
</a>
</g>
</g>
<!-- Node2 -->
<g id="node2" class="node">
<title>Node2</title>
<g id="a_node2"><a xlink:href="../../da/dbe/namespaceleanux_1_1tools_1_1lmon.html#a7f59af183bc55b66e3dc0844b473daaf" target="_top" xlink:title=" ">
<polygon fill="none" stroke="black" points="80,-245.5 80,-275.5 190,-275.5 190,-245.5 80,-245.5"/>
<text text-anchor="start" x="88" y="-263.5" font-family="Helvetica,sans-Serif" font-size="10.00">leanux::tools::lmon</text>
<text text-anchor="middle" x="135" y="-252.5" font-family="Helvetica,sans-Serif" font-size="10.00">::main</text>
</a>
</g>
</g>
<!-- Node1&#45;&gt;Node2 -->
<g id="edge1" class="edge">
<title>Node1&#45;&gt;Node2</title>
<path fill="none" stroke="midnightblue" d="M254.45,-155.93C242.89,-177.79 220.99,-214.08 193,-236.5 188.81,-239.86 184.08,-242.82 179.19,-245.41"/>
<polygon fill="midnightblue" stroke="midnightblue" points="257.58,-157.5 259.02,-147.01 251.35,-154.31 257.58,-157.5"/>
</g>
<!-- Node4 -->
<g id="node4" class="node">
<title>Node4</title>
<g id="a_node4"><a xlink:href="../../d2/d89/namespaceleanux_1_1tools_1_1labbix.html#a482626b839aaf80a44f973eed61b69a6" target="_top" xlink:title=" ">
<polygon fill="none" stroke="black" points="77,-196.5 77,-226.5 193,-226.5 193,-196.5 77,-196.5"/>
<text text-anchor="start" x="85" y="-214.5" font-family="Helvetica,sans-Serif" font-size="10.00">leanux::tools::labbix</text>
<text text-anchor="middle" x="135" y="-203.5" font-family="Helvetica,sans-Serif" font-size="10.00">::main</text>
</a>
</g>
</g>
<!-- Node1&#45;&gt;Node4 -->
<g id="edge3" class="edge">
<title>Node1&#45;&gt;Node4</title>
<path fill="none" stroke="midnightblue" d="M243.36,-153.58C229.66,-164.05 210.86,-177.57 193,-187.5 187.28,-190.68 181.04,-193.71 174.87,-196.48"/>
<polygon fill="midnightblue" stroke="midnightblue" points="245.81,-156.11 251.56,-147.2 241.51,-150.58 245.81,-156.11"/>
</g>
<!-- Node6 -->
<g id="node6" class="node">
<title>Node6</title>
<g id="a_node6"><a xlink:href="../../d4/d62/namespaceleanux_1_1tools_1_1lard.html#aecb1bb340203cfe30357d494d4b2622e" target="_top" xlink:title="Entry point.">
<polygon fill="none" stroke="black" points="83,-147.5 83,-177.5 187,-177.5 187,-147.5 83,-147.5"/>
<text text-anchor="start" x="91" y="-165.5" font-family="Helvetica,sans-Serif" font-size="10.00">leanux::tools::lard</text>
<text text-anchor="middle" x="135" y="-154.5" font-family="Helvetica,sans-Serif" font-size="10.00">::main</text>
</a>
</g>
</g>
<!-- Node1&#45;&gt;Node6 -->
<g id="edge5" class="edge">
<title>Node1&#45;&gt;Node6</title>
<path fill="none" stroke="midnightblue" d="M219.04,-146.22C208.79,-148.23 197.81,-150.38 187.3,-152.44"/>
<polygon fill="midnightblue" stroke="midnightblue" points="219.86,-149.62 229,-144.27 218.51,-142.75 219.86,-149.62"/>
</g>
<!-- Node8 -->
<g id="node8" class="node">
<title>Node8</title>
<g id="a_node8"><a xlink:href="../../d9/d1f/namespaceleanux_1_1tools_1_1lsys.html#aa2b4de7a80d63592f6207ce5951cf966" target="_top" xlink:title="Entry point.">
<polygon fill="none" stroke="black" points="82.5,-98.5 82.5,-128.5 187.5,-128.5 187.5,-98.5 82.5,-98.5"/>
<text text-anchor="start" x="90.5" y="-116.5" font-family="Helvetica,sans-Serif" font-size="10.00">leanux::tools::lsys</text>
<text text-anchor="middle" x="135" y="-105.5" font-family="Helvetica,sans-Serif" font-size="10.00">::main</text>
</a>
</g>
</g>
<!-- Node1&#45;&gt;Node8 -->
<g id="edge7" class="edge">
<title>Node1&#45;&gt;Node8</title>
<path fill="none" stroke="midnightblue" d="M219.16,-129.15C209.03,-127.25 198.19,-125.21 187.78,-123.25"/>
<polygon fill="midnightblue" stroke="midnightblue" points="218.52,-132.59 229,-131.01 219.82,-125.72 218.52,-132.59"/>
</g>
<!-- Node10 -->
<g id="node10" class="node">
<title>Node10</title>
<g id="a_node10"><a xlink:href="../../d5/d1b/namespaceleanux_1_1tools_1_1lblk.html#a7e4a52393fd43c98af0e5e16603b54df" target="_top" xlink:title="Entry point.">
<polygon fill="none" stroke="black" points="83,-49.5 83,-79.5 187,-79.5 187,-49.5 83,-49.5"/>
<text text-anchor="start" x="91" y="-67.5" font-family="Helvetica,sans-Serif" font-size="10.00">leanux::tools::lblk</text>
<text text-anchor="middle" x="135" y="-56.5" font-family="Helvetica,sans-Serif" font-size="10.00">::main</text>
</a>
</g>
</g>
<!-- Node1&#45;&gt;Node10 -->
<g id="edge9" class="edge">
<title>Node1&#45;&gt;Node10</title>
<path fill="none" stroke="midnightblue" d="M242.72,-121.85C229.01,-111.91 210.43,-99.15 193,-89.5 186.67,-85.99 179.74,-82.61 172.97,-79.53"/>
<polygon fill="midnightblue" stroke="midnightblue" points="240.83,-124.81 250.96,-127.91 244.98,-119.17 240.83,-124.81"/>
</g>
<!-- Node12 -->
<g id="node12" class="node">
<title>Node12</title>
<g id="a_node12"><a xlink:href="../../d6/dd3/namespaceleanux_1_1tools_1_1lrep.html#aa0e1422d8d75831ea3801ffa728bf436" target="_top" xlink:title=" ">
<polygon fill="none" stroke="black" points="83,-0.5 83,-30.5 187,-30.5 187,-0.5 83,-0.5"/>
<text text-anchor="start" x="91" y="-18.5" font-family="Helvetica,sans-Serif" font-size="10.00">leanux::tools::lrep</text>
<text text-anchor="middle" x="135" y="-7.5" font-family="Helvetica,sans-Serif" font-size="10.00">::main</text>
</a>
</g>
</g>
<!-- Node1&#45;&gt;Node12 -->
<g id="edge11" class="edge">
<title>Node1&#45;&gt;Node12</title>
<path fill="none" stroke="midnightblue" d="M253.96,-118.9C242.18,-97.49 220.3,-62.48 193,-40.5 188.37,-36.77 183.1,-33.49 177.68,-30.64"/>
<polygon fill="midnightblue" stroke="midnightblue" points="250.99,-120.76 258.79,-127.94 257.17,-117.47 250.99,-120.76"/>
</g>
<!-- Node3 -->
<g id="node3" class="node">
<title>Node3</title>
<g id="a_node3"><a xlink:href="../../df/dde/lmon_8cpp.html#a0ddf1224851353fc92bfbff6f499fa97" target="_top" xlink:title="lmon entry point.">
<polygon fill="none" stroke="black" points="0,-251 0,-270 41,-270 41,-251 0,-251"/>
<text text-anchor="middle" x="20.5" y="-258" font-family="Helvetica,sans-Serif" font-size="10.00">main</text>
</a>
</g>
</g>
<!-- Node2&#45;&gt;Node3 -->
<g id="edge2" class="edge">
<title>Node2&#45;&gt;Node3</title>
<path fill="none" stroke="midnightblue" d="M69.7,-260.5C59.32,-260.5 49.31,-260.5 41.13,-260.5"/>
<polygon fill="midnightblue" stroke="midnightblue" points="69.73,-264 79.73,-260.5 69.73,-257 69.73,-264"/>
</g>
<!-- Node5 -->
<g id="node5" class="node">
<title>Node5</title>
<g id="a_node5"><a xlink:href="../../da/d06/labbix_8cpp.html#a0ddf1224851353fc92bfbff6f499fa97" target="_top" xlink:title=" ">
<polygon fill="none" stroke="black" points="0,-202 0,-221 41,-221 41,-202 0,-202"/>
<text text-anchor="middle" x="20.5" y="-209" font-family="Helvetica,sans-Serif" font-size="10.00">main</text>
</a>
</g>
</g>
<!-- Node4&#45;&gt;Node5 -->
<g id="edge4" class="edge">
<title>Node4&#45;&gt;Node5</title>
<path fill="none" stroke="midnightblue" d="M66.62,-211.5C57.37,-211.5 48.55,-211.5 41.19,-211.5"/>
<polygon fill="midnightblue" stroke="midnightblue" points="66.76,-215 76.76,-211.5 66.76,-208 66.76,-215"/>
</g>
<!-- Node7 -->
<g id="node7" class="node">
<title>Node7</title>
<g id="a_node7"><a xlink:href="../../da/de9/lar_8cpp.html#a0ddf1224851353fc92bfbff6f499fa97" target="_top" xlink:title=" ">
<polygon fill="none" stroke="black" points="0,-153 0,-172 41,-172 41,-153 0,-153"/>
<text text-anchor="middle" x="20.5" y="-160" font-family="Helvetica,sans-Serif" font-size="10.00">main</text>
</a>
</g>
</g>
<!-- Node6&#45;&gt;Node7 -->
<g id="edge6" class="edge">
<title>Node6&#45;&gt;Node7</title>
<path fill="none" stroke="midnightblue" d="M72.66,-162.5C61.28,-162.5 50.18,-162.5 41.24,-162.5"/>
<polygon fill="midnightblue" stroke="midnightblue" points="72.69,-166 82.69,-162.5 72.69,-159 72.69,-166"/>
</g>
<!-- Node9 -->
<g id="node9" class="node">
<title>Node9</title>
<g id="a_node9"><a xlink:href="../../de/d17/lsys_8cpp.html#a0ddf1224851353fc92bfbff6f499fa97" target="_top" xlink:title=" ">
<polygon fill="none" stroke="black" points="0,-104 0,-123 41,-123 41,-104 0,-104"/>
<text text-anchor="middle" x="20.5" y="-111" font-family="Helvetica,sans-Serif" font-size="10.00">main</text>
</a>
</g>
</g>
<!-- Node8&#45;&gt;Node9 -->
<g id="edge8" class="edge">
<title>Node8&#45;&gt;Node9</title>
<path fill="none" stroke="midnightblue" d="M72.03,-113.5C60.81,-113.5 49.9,-113.5 41.11,-113.5"/>
<polygon fill="midnightblue" stroke="midnightblue" points="72.36,-117 82.36,-113.5 72.36,-110 72.36,-117"/>
</g>
<!-- Node11 -->
<g id="node11" class="node">
<title>Node11</title>
<g id="a_node11"><a xlink:href="../../d9/d3a/lblk_8cpp.html#a0ddf1224851353fc92bfbff6f499fa97" target="_top" xlink:title=" ">
<polygon fill="none" stroke="black" points="0,-55 0,-74 41,-74 41,-55 0,-55"/>
<text text-anchor="middle" x="20.5" y="-62" font-family="Helvetica,sans-Serif" font-size="10.00">main</text>
</a>
</g>
</g>
<!-- Node10&#45;&gt;Node11 -->
<g id="edge10" class="edge">
<title>Node10&#45;&gt;Node11</title>
<path fill="none" stroke="midnightblue" d="M72.66,-64.5C61.28,-64.5 50.18,-64.5 41.24,-64.5"/>
<polygon fill="midnightblue" stroke="midnightblue" points="72.69,-68 82.69,-64.5 72.69,-61 72.69,-68"/>
</g>
<!-- Node13 -->
<g id="node13" class="node">
<title>Node13</title>
<g id="a_node13"><a xlink:href="../../dd/d15/lrep_8cpp.html#a0ddf1224851353fc92bfbff6f499fa97" target="_top" xlink:title=" ">
<polygon fill="none" stroke="black" points="0,-6 0,-25 41,-25 41,-6 0,-6"/>
<text text-anchor="middle" x="20.5" y="-13" font-family="Helvetica,sans-Serif" font-size="10.00">main</text>
</a>
</g>
</g>
<!-- Node12&#45;&gt;Node13 -->
<g id="edge12" class="edge">
<title>Node12&#45;&gt;Node13</title>
<path fill="none" stroke="midnightblue" d="M72.66,-15.5C61.28,-15.5 50.18,-15.5 41.24,-15.5"/>
<polygon fill="midnightblue" stroke="midnightblue" points="72.69,-19 82.69,-15.5 72.69,-12 72.69,-19"/>
</g>
</g>
</svg>
