<?xml version="1.0" encoding="UTF-8" standalone="no"?>
<!DOCTYPE svg PUBLIC "-//W3C//DTD SVG 1.1//EN"
 "http://www.w3.org/Graphics/SVG/1.1/DTD/svg11.dtd">
<!-- Generated by graphviz version 2.43.0 (0)
 -->
<!-- Title: leanux::init Pages: 1 -->
<svg width="650pt" height="389pt"
 viewBox="0.00 0.00 650.00 388.50" xmlns="http://www.w3.org/2000/svg" xmlns:xlink="http://www.w3.org/1999/xlink">
<g id="graph0" class="graph" transform="scale(1 1) rotate(0) translate(4 384.5)">
<title>leanux::init</title>
<!-- Node1 -->
<g id="node1" class="node">
<title>Node1</title>
<g id="a_node1"><a xlink:title="Initialize leanux, run checks to verify leanux is compatible with the runtime environment.">
<polygon fill="#bfbfbf" stroke="black" points="0,-254 0,-273 71,-273 71,-254 0,-254"/>
<text text-anchor="middle" x="35.5" y="-261" font-family="Helvetica,sans-Serif" font-size="10.00">leanux::init</text>
</a>
</g>
</g>
<!-- Node2 -->
<g id="node2" class="node">
<title>Node2</title>
<g id="a_node2"><a xlink:href="../../d8/db1/namespaceleanux_1_1util.html#a6ac7287d49f3dd9b2c6c9673257e145b" target="_top" xlink:title="Test if the path is an existing directory.">
<polygon fill="none" stroke="black" points="296,-197 296,-216 446,-216 446,-197 296,-197"/>
<text text-anchor="middle" x="371" y="-204" font-family="Helvetica,sans-Serif" font-size="10.00">leanux::util::directoryExists</text>
</a>
</g>
</g>
<!-- Node1&#45;&gt;Node2 -->
<g id="edge1" class="edge">
<title>Node1&#45;&gt;Node2</title>
<path fill="none" stroke="midnightblue" d="M50.05,-253.93C63.72,-244.84 85.77,-231.68 107,-225.5 165.1,-208.59 233.32,-204.08 285.72,-203.67"/>
<polygon fill="midnightblue" stroke="midnightblue" points="285.99,-207.17 295.98,-203.64 285.97,-200.17 285.99,-207.17"/>
</g>
<!-- Node3 -->
<g id="node3" class="node">
<title>Node3</title>
<g id="a_node3"><a xlink:href="../../dd/d42/namespaceleanux_1_1system.html#a019837e625c4eedcc1e09de84a56d5b8" target="_top" xlink:title="Get the kernel version.">
<polygon fill="none" stroke="black" points="107,-311.5 107,-341.5 251,-341.5 251,-311.5 107,-311.5"/>
<text text-anchor="start" x="115" y="-329.5" font-family="Helvetica,sans-Serif" font-size="10.00">leanux::system::getKernel</text>
<text text-anchor="middle" x="179" y="-318.5" font-family="Helvetica,sans-Serif" font-size="10.00">Version</text>
</a>
</g>
</g>
<!-- Node1&#45;&gt;Node3 -->
<g id="edge2" class="edge">
<title>Node1&#45;&gt;Node3</title>
<path fill="none" stroke="midnightblue" d="M52.66,-273.15C66.72,-281.31 87.8,-293.01 107,-301.5 111.93,-303.68 117.11,-305.81 122.34,-307.84"/>
<polygon fill="midnightblue" stroke="midnightblue" points="121.17,-311.14 131.76,-311.39 123.64,-304.59 121.17,-311.14"/>
</g>
<!-- Node4 -->
<g id="node4" class="node">
<title>Node4</title>
<g id="a_node4"><a xlink:href="../../d5/db8/namespaceleanux_1_1net.html#a81d90730109735bfefa2835d31152cd1" target="_top" xlink:title="initialize net library">
<polygon fill="none" stroke="black" points="132.5,-361 132.5,-380 225.5,-380 225.5,-361 132.5,-361"/>
<text text-anchor="middle" x="179" y="-368" font-family="Helvetica,sans-Serif" font-size="10.00">leanux::net::init</text>
</a>
</g>
</g>
<!-- Node1&#45;&gt;Node4 -->
<g id="edge3" class="edge">
<title>Node1&#45;&gt;Node4</title>
<path fill="none" stroke="midnightblue" d="M41.46,-273.11C51.36,-291.32 75.36,-330.84 107,-351.5 111.86,-354.67 117.23,-357.32 122.79,-359.52"/>
<polygon fill="midnightblue" stroke="midnightblue" points="121.64,-362.83 132.24,-362.83 123.96,-356.23 121.64,-362.83"/>
</g>
<!-- Node6 -->
<g id="node6" class="node">
<title>Node6</title>
<g id="a_node6"><a xlink:href="../../de/d5d/namespaceleanux_1_1pci.html#ac2e2e3d7c732711d93a166699f2dcff3" target="_top" xlink:title="Initialize pci namespace.">
<polygon fill="none" stroke="black" points="133,-273 133,-292 225,-292 225,-273 133,-273"/>
<text text-anchor="middle" x="179" y="-280" font-family="Helvetica,sans-Serif" font-size="10.00">leanux::pci::init</text>
</a>
</g>
</g>
<!-- Node1&#45;&gt;Node6 -->
<g id="edge5" class="edge">
<title>Node1&#45;&gt;Node6</title>
<path fill="none" stroke="midnightblue" d="M71.11,-268.15C86.64,-270.23 105.34,-272.74 122.73,-275.08"/>
<polygon fill="midnightblue" stroke="midnightblue" points="122.4,-278.57 132.78,-276.43 123.33,-271.63 122.4,-278.57"/>
</g>
<!-- Node7 -->
<g id="node7" class="node">
<title>Node7</title>
<g id="a_node7"><a xlink:href="../../d5/d9c/namespaceleanux_1_1usb.html#abd98dfc77cb6924be71589e8e2e4dc50" target="_top" xlink:title="initialize usb namespace.">
<polygon fill="none" stroke="black" points="131.5,-235 131.5,-254 226.5,-254 226.5,-235 131.5,-235"/>
<text text-anchor="middle" x="179" y="-242" font-family="Helvetica,sans-Serif" font-size="10.00">leanux::usb::init</text>
</a>
</g>
</g>
<!-- Node1&#45;&gt;Node7 -->
<g id="edge7" class="edge">
<title>Node1&#45;&gt;Node7</title>
<path fill="none" stroke="midnightblue" d="M71.11,-258.85C86.16,-256.83 104.18,-254.41 121.1,-252.14"/>
<polygon fill="midnightblue" stroke="midnightblue" points="122.01,-255.55 131.45,-250.75 121.08,-248.61 122.01,-255.55"/>
</g>
<!-- Node8 -->
<g id="node8" class="node">
<title>Node8</title>
<g id="a_node8"><a xlink:href="../../d5/d01/namespaceleanux_1_1block.html#a927d958ef9b9b66a13c32754e91d0c7d" target="_top" xlink:title="Initialize the block API.">
<polygon fill="none" stroke="black" points="127,-129 127,-148 231,-148 231,-129 127,-129"/>
<text text-anchor="middle" x="179" y="-136" font-family="Helvetica,sans-Serif" font-size="10.00">leanux::block::init</text>
</a>
</g>
</g>
<!-- Node1&#45;&gt;Node8 -->
<g id="edge9" class="edge">
<title>Node1&#45;&gt;Node8</title>
<path fill="none" stroke="midnightblue" d="M45.23,-253.89C58.18,-239.84 83.48,-213.11 107,-192.5 122.72,-178.72 141.6,-164.46 155.94,-154.06"/>
<polygon fill="midnightblue" stroke="midnightblue" points="158.13,-156.79 164.21,-148.11 154.05,-151.11 158.13,-156.79"/>
</g>
<!-- Node5 -->
<g id="node5" class="node">
<title>Node5</title>
<g id="a_node5"><a xlink:href="../../d8/db1/namespaceleanux_1_1util.html#a6421ca2c46c56eebe1a486c6a498ce7d" target="_top" xlink:title="Test if a file exists and can be read.">
<polygon fill="none" stroke="black" points="491,-254 491,-273 642,-273 642,-254 491,-254"/>
<text text-anchor="middle" x="566.5" y="-261" font-family="Helvetica,sans-Serif" font-size="10.00">leanux::util::fileReadAccess</text>
</a>
</g>
</g>
<!-- Node4&#45;&gt;Node5 -->
<g id="edge4" class="edge">
<title>Node4&#45;&gt;Node5</title>
<path fill="none" stroke="midnightblue" d="M216.14,-360.91C227.32,-357.92 239.68,-354.6 251,-351.5 347.93,-324.97 461.4,-292.99 522.04,-275.83"/>
<polygon fill="midnightblue" stroke="midnightblue" points="523.35,-279.09 532.02,-273 521.45,-272.36 523.35,-279.09"/>
</g>
<!-- Node6&#45;&gt;Node5 -->
<g id="edge6" class="edge">
<title>Node6&#45;&gt;Node5</title>
<path fill="none" stroke="midnightblue" d="M225.36,-280.26C287.93,-277.18 401.9,-271.56 480.56,-267.69"/>
<polygon fill="midnightblue" stroke="midnightblue" points="481.12,-271.16 490.94,-267.17 480.78,-264.17 481.12,-271.16"/>
</g>
<!-- Node7&#45;&gt;Node5 -->
<g id="edge8" class="edge">
<title>Node7&#45;&gt;Node5</title>
<path fill="none" stroke="midnightblue" d="M226.5,-246.79C289.27,-249.89 402.22,-255.45 480.4,-259.31"/>
<polygon fill="midnightblue" stroke="midnightblue" points="480.55,-262.82 490.71,-259.81 480.9,-255.83 480.55,-262.82"/>
</g>
<!-- Node8&#45;&gt;Node2 -->
<g id="edge10" class="edge">
<title>Node8&#45;&gt;Node2</title>
<path fill="none" stroke="midnightblue" d="M198.09,-148.17C219,-159.02 254.69,-176.53 287,-187.5 294.66,-190.1 302.84,-192.46 310.97,-194.56"/>
<polygon fill="midnightblue" stroke="midnightblue" points="310.27,-197.99 320.82,-196.99 311.95,-191.19 310.27,-197.99"/>
</g>
<!-- Node9 -->
<g id="node9" class="node">
<title>Node9</title>
<g id="a_node9"><a xlink:href="../../d5/d01/namespaceleanux_1_1block.html#ac08a21002b48cb1bbfaf8d77b4aac5f6" target="_top" xlink:title="get a list of whole disks (exclude partitions).">
<polygon fill="none" stroke="black" points="298,-147.5 298,-177.5 444,-177.5 444,-147.5 298,-147.5"/>
<text text-anchor="start" x="306" y="-165.5" font-family="Helvetica,sans-Serif" font-size="10.00">leanux::block::enumWhole</text>
<text text-anchor="middle" x="371" y="-154.5" font-family="Helvetica,sans-Serif" font-size="10.00">Disks</text>
</a>
</g>
</g>
<!-- Node8&#45;&gt;Node9 -->
<g id="edge11" class="edge">
<title>Node8&#45;&gt;Node9</title>
<path fill="none" stroke="midnightblue" d="M231.17,-144.96C248.58,-147.16 268.5,-149.68 287.72,-152.11"/>
<polygon fill="midnightblue" stroke="midnightblue" points="287.33,-155.58 297.69,-153.37 288.2,-148.64 287.33,-155.58"/>
</g>
<!-- Node10 -->
<g id="node10" class="node">
<title>Node10</title>
<g id="a_node10"><a xlink:href="../../d7/d28/classleanux_1_1block_1_1MajorMinor.html#a7e5217cefada330c0b412a4cc0e8ba8a" target="_top" xlink:title="Get the major.">
<polygon fill="none" stroke="black" points="299.5,-98.5 299.5,-128.5 442.5,-128.5 442.5,-98.5 299.5,-98.5"/>
<text text-anchor="start" x="307.5" y="-116.5" font-family="Helvetica,sans-Serif" font-size="10.00">leanux::block::MajorMinor</text>
<text text-anchor="middle" x="371" y="-105.5" font-family="Helvetica,sans-Serif" font-size="10.00">::getMajor</text>
</a>
</g>
</g>
<!-- Node8&#45;&gt;Node10 -->
<g id="edge12" class="edge">
<title>Node8&#45;&gt;Node10</title>
<path fill="none" stroke="midnightblue" d="M231.17,-131.77C249.13,-129.4 269.76,-126.69 289.54,-124.09"/>
<polygon fill="midnightblue" stroke="midnightblue" points="290.01,-127.56 299.47,-122.78 289.1,-120.61 290.01,-127.56"/>
</g>
<!-- Node11 -->
<g id="node11" class="node">
<title>Node11</title>
<g id="a_node11"><a xlink:href="../../d7/d28/classleanux_1_1block_1_1MajorMinor.html#a26905a16bdd3e525abb2ada713f80704" target="_top" xlink:title="Test MajorMinor validity.">
<polygon fill="none" stroke="black" points="299.5,-49.5 299.5,-79.5 442.5,-79.5 442.5,-49.5 299.5,-49.5"/>
<text text-anchor="start" x="307.5" y="-67.5" font-family="Helvetica,sans-Serif" font-size="10.00">leanux::block::MajorMinor</text>
<text text-anchor="middle" x="371" y="-56.5" font-family="Helvetica,sans-Serif" font-size="10.00">::isValid</text>
</a>
</g>
</g>
<!-- Node8&#45;&gt;Node11 -->
<g id="edge13" class="edge">
<title>Node8&#45;&gt;Node11</title>
<path fill="none" stroke="midnightblue" d="M198.18,-128.94C219.18,-118.15 254.94,-100.54 287,-88.5 292.4,-86.47 298.05,-84.51 303.75,-82.65"/>
<polygon fill="midnightblue" stroke="midnightblue" points="304.88,-85.96 313.36,-79.6 302.77,-79.29 304.88,-85.96"/>
</g>
<!-- Node12 -->
<g id="node12" class="node">
<title>Node12</title>
<g id="a_node12"><a xlink:href="../../d5/d01/namespaceleanux_1_1block.html#a9fd7f9ca7fa9102da23e1299fe841f48" target="_top" xlink:title="Detect the udevMode from the given MajorMinor and udev_path.">
<polygon fill="none" stroke="red" points="287,-0.5 287,-30.5 455,-30.5 455,-0.5 287,-0.5"/>
<text text-anchor="start" x="295" y="-18.5" font-family="Helvetica,sans-Serif" font-size="10.00">leanux::block::modeFromMajor</text>
<text text-anchor="middle" x="371" y="-7.5" font-family="Helvetica,sans-Serif" font-size="10.00">Minor</text>
</a>
</g>
</g>
<!-- Node8&#45;&gt;Node12 -->
<g id="edge14" class="edge">
<title>Node8&#45;&gt;Node12</title>
<path fill="none" stroke="midnightblue" d="M187.76,-128.75C204.03,-108.96 243.81,-63.89 287,-39.5 290.19,-37.7 293.53,-36.02 296.96,-34.46"/>
<polygon fill="midnightblue" stroke="midnightblue" points="298.32,-37.68 306.21,-30.6 295.63,-31.22 298.32,-37.68"/>
</g>
<!-- Node12&#45;&gt;Node5 -->
<g id="edge15" class="edge">
<title>Node12&#45;&gt;Node5</title>
<path fill="none" stroke="midnightblue" d="M441.36,-30.53C446.24,-33.07 450.86,-36.03 455,-39.5 521.37,-95.07 551.42,-200.18 561.44,-243.78"/>
<polygon fill="midnightblue" stroke="midnightblue" points="558.05,-244.67 563.61,-253.69 564.89,-243.18 558.05,-244.67"/>
</g>
</g>
</svg>
