<?xml version="1.0" encoding="UTF-8" standalone="no"?>
<!DOCTYPE svg PUBLIC "-//W3C//DTD SVG 1.1//EN"
 "http://www.w3.org/Graphics/SVG/1.1/DTD/svg11.dtd">
<!-- Generated by graphviz version 2.43.0 (0)
 -->
<!-- Title: lib/usb.cpp Pages: 1 -->
<svg width="1580pt" height="196pt"
 viewBox="0.00 0.00 1579.58 196.00" xmlns="http://www.w3.org/2000/svg" xmlns:xlink="http://www.w3.org/1999/xlink">
<g id="graph0" class="graph" transform="scale(1 1) rotate(0) translate(4 192)">
<title>lib/usb.cpp</title>
<!-- Node1 -->
<g id="node1" class="node">
<title>Node1</title>
<g id="a_node1"><a xlink:title=" ">
<polygon fill="#bfbfbf" stroke="black" points="961.08,-168.5 961.08,-187.5 1030.08,-187.5 1030.08,-168.5 961.08,-168.5"/>
<text text-anchor="middle" x="995.58" y="-175.5" font-family="Helvetica,sans-Serif" font-size="10.00">lib/usb.cpp</text>
</a>
</g>
</g>
<!-- Node2 -->
<g id="node2" class="node">
<title>Node2</title>
<g id="a_node2"><a xlink:href="../../d3/d44/oops_8hpp.html" target="_top" xlink:title=" ">
<polygon fill="none" stroke="black" points="160.08,-56.5 160.08,-75.5 221.08,-75.5 221.08,-56.5 160.08,-56.5"/>
<text text-anchor="middle" x="190.58" y="-63.5" font-family="Helvetica,sans-Serif" font-size="10.00">oops.hpp</text>
</a>
</g>
</g>
<!-- Node1&#45;&gt;Node2 -->
<g id="edge1" class="edge">
<title>Node1&#45;&gt;Node2</title>
<path fill="none" stroke="midnightblue" d="M961.03,-176.85C820.04,-175.99 292.68,-170.21 229.58,-132 212.39,-121.59 201.83,-100.46 196.1,-85.11"/>
<polygon fill="midnightblue" stroke="midnightblue" points="199.41,-83.96 192.9,-75.61 192.78,-86.2 199.41,-83.96"/>
</g>
<!-- Node4 -->
<g id="node4" class="node">
<title>Node4</title>
<g id="a_node4"><a xlink:href="../../d9/dd5/pci_8hpp.html" target="_top" xlink:title=" ">
<polygon fill="none" stroke="black" points="70.58,-112.5 70.58,-131.5 122.58,-131.5 122.58,-112.5 70.58,-112.5"/>
<text text-anchor="middle" x="96.58" y="-119.5" font-family="Helvetica,sans-Serif" font-size="10.00">pci.hpp</text>
</a>
</g>
</g>
<!-- Node1&#45;&gt;Node4 -->
<g id="edge3" class="edge">
<title>Node1&#45;&gt;Node4</title>
<path fill="none" stroke="midnightblue" d="M960.81,-176.58C845.19,-174.89 463.14,-166.85 149.58,-132 144.07,-131.39 138.27,-130.58 132.6,-129.69"/>
<polygon fill="midnightblue" stroke="midnightblue" points="133.08,-126.22 122.65,-128.04 131.94,-133.13 133.08,-126.22"/>
</g>
<!-- Node7 -->
<g id="node7" class="node">
<title>Node7</title>
<g id="a_node7"><a xlink:title=" ">
<polygon fill="none" stroke="#bfbfbf" points="85.58,-56.5 85.58,-75.5 141.58,-75.5 141.58,-56.5 85.58,-56.5"/>
<text text-anchor="middle" x="113.58" y="-63.5" font-family="Helvetica,sans-Serif" font-size="10.00">iomanip</text>
</a>
</g>
</g>
<!-- Node1&#45;&gt;Node7 -->
<g id="edge39" class="edge">
<title>Node1&#45;&gt;Node7</title>
<path fill="none" stroke="midnightblue" d="M960.9,-176.12C818.06,-172.37 279.42,-156.69 207.58,-132 177.27,-121.58 147.78,-98.42 130.14,-82.76"/>
<polygon fill="midnightblue" stroke="midnightblue" points="132.23,-79.92 122.49,-75.76 127.51,-85.09 132.23,-79.92"/>
</g>
<!-- Node8 -->
<g id="node8" class="node">
<title>Node8</title>
<g id="a_node8"><a xlink:href="../../d0/d3f/util_8hpp.html" target="_top" xlink:title=" ">
<polygon fill="none" stroke="black" points="636.08,-112.5 636.08,-131.5 689.08,-131.5 689.08,-112.5 636.08,-112.5"/>
<text text-anchor="middle" x="662.58" y="-119.5" font-family="Helvetica,sans-Serif" font-size="10.00">util.hpp</text>
</a>
</g>
</g>
<!-- Node1&#45;&gt;Node8 -->
<g id="edge9" class="edge">
<title>Node1&#45;&gt;Node8</title>
<path fill="none" stroke="midnightblue" d="M960.89,-171.37C897.61,-161.11 764.03,-139.45 699.29,-128.95"/>
<polygon fill="midnightblue" stroke="midnightblue" points="699.58,-125.45 689.15,-127.31 698.46,-132.36 699.58,-125.45"/>
</g>
<!-- Node9 -->
<g id="node9" class="node">
<title>Node9</title>
<g id="a_node9"><a xlink:title=" ">
<polygon fill="none" stroke="#bfbfbf" points="353.58,-56.5 353.58,-75.5 409.58,-75.5 409.58,-56.5 353.58,-56.5"/>
<text text-anchor="middle" x="381.58" y="-63.5" font-family="Helvetica,sans-Serif" font-size="10.00">sstream</text>
</a>
</g>
</g>
<!-- Node1&#45;&gt;Node9 -->
<g id="edge38" class="edge">
<title>Node1&#45;&gt;Node9</title>
<path fill="none" stroke="midnightblue" d="M961.08,-176.26C887,-174.06 707.61,-165.41 561.58,-132 506.46,-119.39 445.07,-94.81 410.11,-79.76"/>
<polygon fill="midnightblue" stroke="midnightblue" points="411.13,-76.39 400.56,-75.6 408.33,-82.8 411.13,-76.39"/>
</g>
<!-- Node10 -->
<g id="node10" class="node">
<title>Node10</title>
<g id="a_node10"><a xlink:title=" ">
<polygon fill="none" stroke="#bfbfbf" points="428.08,-56.5 428.08,-75.5 483.08,-75.5 483.08,-56.5 428.08,-56.5"/>
<text text-anchor="middle" x="455.58" y="-63.5" font-family="Helvetica,sans-Serif" font-size="10.00">fstream</text>
</a>
</g>
</g>
<!-- Node1&#45;&gt;Node10 -->
<g id="edge37" class="edge">
<title>Node1&#45;&gt;Node10</title>
<path fill="none" stroke="midnightblue" d="M960.84,-175.52C894.96,-172.12 747.73,-161.59 627.58,-132 574.83,-119.01 516.19,-94.56 482.82,-79.63"/>
<polygon fill="midnightblue" stroke="midnightblue" points="484.25,-76.44 473.7,-75.51 481.37,-82.82 484.25,-76.44"/>
</g>
<!-- Node14 -->
<g id="node14" class="node">
<title>Node14</title>
<g id="a_node14"><a xlink:title=" ">
<polygon fill="none" stroke="#bfbfbf" points="908.08,-56.5 908.08,-75.5 961.08,-75.5 961.08,-56.5 908.08,-56.5"/>
<text text-anchor="middle" x="934.58" y="-63.5" font-family="Helvetica,sans-Serif" font-size="10.00">string.h</text>
</a>
</g>
</g>
<!-- Node1&#45;&gt;Node14 -->
<g id="edge40" class="edge">
<title>Node1&#45;&gt;Node14</title>
<path fill="none" stroke="midnightblue" d="M990.79,-168.37C980.82,-150.38 957.62,-108.55 944.36,-84.63"/>
<polygon fill="midnightblue" stroke="midnightblue" points="947.26,-82.64 939.35,-75.59 941.13,-86.03 947.26,-82.64"/>
</g>
<!-- Node16 -->
<g id="node16" class="node">
<title>Node16</title>
<g id="a_node16"><a xlink:href="../../de/dad/usb_8hpp.html" target="_top" xlink:title=" ">
<polygon fill="none" stroke="black" points="239.08,-112.5 239.08,-131.5 294.08,-131.5 294.08,-112.5 239.08,-112.5"/>
<text text-anchor="middle" x="266.58" y="-119.5" font-family="Helvetica,sans-Serif" font-size="10.00">usb.hpp</text>
</a>
</g>
</g>
<!-- Node1&#45;&gt;Node16 -->
<g id="edge19" class="edge">
<title>Node1&#45;&gt;Node16</title>
<path fill="none" stroke="midnightblue" d="M960.85,-174.46C867.69,-167.64 604.52,-148.35 385.58,-132 358.53,-129.98 328.01,-127.67 304.66,-125.9"/>
<polygon fill="midnightblue" stroke="midnightblue" points="304.71,-122.39 294.47,-125.12 304.18,-129.37 304.71,-122.39"/>
</g>
<!-- Node17 -->
<g id="node17" class="node">
<title>Node17</title>
<g id="a_node17"><a xlink:href="../../d5/d08/device_8hpp.html" target="_top" xlink:title=" ">
<polygon fill="none" stroke="black" points="992.58,-112.5 992.58,-131.5 1062.58,-131.5 1062.58,-112.5 992.58,-112.5"/>
<text text-anchor="middle" x="1027.58" y="-119.5" font-family="Helvetica,sans-Serif" font-size="10.00">device.hpp</text>
</a>
</g>
</g>
<!-- Node1&#45;&gt;Node17 -->
<g id="edge25" class="edge">
<title>Node1&#45;&gt;Node17</title>
<path fill="none" stroke="midnightblue" d="M1000.87,-168.08C1005.29,-160.61 1011.74,-149.72 1017.2,-140.52"/>
<polygon fill="midnightblue" stroke="midnightblue" points="1020.31,-142.14 1022.4,-131.75 1014.29,-138.57 1020.31,-142.14"/>
</g>
<!-- Node21 -->
<g id="node20" class="node">
<title>Node21</title>
<g id="a_node20"><a xlink:title=" ">
<polygon fill="none" stroke="#bfbfbf" points="1102.58,-0.5 1102.58,-19.5 1162.58,-19.5 1162.58,-0.5 1102.58,-0.5"/>
<text text-anchor="middle" x="1132.58" y="-7.5" font-family="Helvetica,sans-Serif" font-size="10.00">iostream</text>
</a>
</g>
</g>
<!-- Node1&#45;&gt;Node21 -->
<g id="edge41" class="edge">
<title>Node1&#45;&gt;Node21</title>
<path fill="none" stroke="midnightblue" d="M1021.65,-168.44C1057.2,-155.14 1119.25,-125.74 1143.58,-76 1150.79,-61.25 1146.47,-42.63 1141.27,-29.1"/>
<polygon fill="midnightblue" stroke="midnightblue" points="1144.48,-27.69 1137.31,-19.89 1138.05,-30.46 1144.48,-27.69"/>
</g>
<!-- Node22 -->
<g id="node21" class="node">
<title>Node22</title>
<g id="a_node21"><a xlink:title=" ">
<polygon fill="none" stroke="#bfbfbf" points="1181.08,-0.5 1181.08,-19.5 1234.08,-19.5 1234.08,-0.5 1181.08,-0.5"/>
<text text-anchor="middle" x="1207.58" y="-7.5" font-family="Helvetica,sans-Serif" font-size="10.00">stdlib.h</text>
</a>
</g>
</g>
<!-- Node1&#45;&gt;Node22 -->
<g id="edge45" class="edge">
<title>Node1&#45;&gt;Node22</title>
<path fill="none" stroke="midnightblue" d="M1030.26,-169.88C1056.2,-163.28 1091.55,-151.47 1117.58,-132 1155.52,-103.62 1184.8,-54.89 1198.7,-28.77"/>
<polygon fill="midnightblue" stroke="midnightblue" points="1201.92,-30.16 1203.41,-19.67 1195.7,-26.94 1201.92,-30.16"/>
</g>
<!-- Node24 -->
<g id="node22" class="node">
<title>Node24</title>
<g id="a_node22"><a xlink:title=" ">
<polygon fill="none" stroke="#bfbfbf" points="1252.58,-0.5 1252.58,-19.5 1302.58,-19.5 1302.58,-0.5 1252.58,-0.5"/>
<text text-anchor="middle" x="1277.58" y="-7.5" font-family="Helvetica,sans-Serif" font-size="10.00">stdio.h</text>
</a>
</g>
</g>
<!-- Node1&#45;&gt;Node24 -->
<g id="edge43" class="edge">
<title>Node1&#45;&gt;Node24</title>
<path fill="none" stroke="midnightblue" d="M1030.3,-170.68C1060.98,-164.1 1106.22,-151.92 1141.58,-132 1192.29,-103.43 1240.43,-53.34 1263.45,-27.48"/>
<polygon fill="midnightblue" stroke="midnightblue" points="1266.3,-29.54 1270.26,-19.71 1261.04,-24.92 1266.3,-29.54"/>
</g>
<!-- Node25 -->
<g id="node23" class="node">
<title>Node25</title>
<g id="a_node23"><a xlink:title=" ">
<polygon fill="none" stroke="#bfbfbf" points="1289.58,-112.5 1289.58,-131.5 1343.58,-131.5 1343.58,-112.5 1289.58,-112.5"/>
<text text-anchor="middle" x="1316.58" y="-119.5" font-family="Helvetica,sans-Serif" font-size="10.00">dirent.h</text>
</a>
</g>
</g>
<!-- Node1&#45;&gt;Node25 -->
<g id="edge42" class="edge">
<title>Node1&#45;&gt;Node25</title>
<path fill="none" stroke="midnightblue" d="M1030.18,-172.09C1083.17,-164.41 1187.55,-148.72 1275.58,-132 1276.83,-131.76 1278.1,-131.52 1279.38,-131.26"/>
<polygon fill="midnightblue" stroke="midnightblue" points="1280.19,-134.67 1289.28,-129.22 1278.78,-127.81 1280.19,-134.67"/>
</g>
<!-- Node26 -->
<g id="node24" class="node">
<title>Node26</title>
<g id="a_node24"><a xlink:title=" ">
<polygon fill="none" stroke="#bfbfbf" points="1362.08,-112.5 1362.08,-131.5 1415.08,-131.5 1415.08,-112.5 1362.08,-112.5"/>
<text text-anchor="middle" x="1388.58" y="-119.5" font-family="Helvetica,sans-Serif" font-size="10.00">limits.h</text>
</a>
</g>
</g>
<!-- Node1&#45;&gt;Node26 -->
<g id="edge44" class="edge">
<title>Node1&#45;&gt;Node26</title>
<path fill="none" stroke="midnightblue" d="M1030.26,-174.02C1092.61,-168.36 1227.92,-154.71 1351.88,-131.91"/>
<polygon fill="midnightblue" stroke="midnightblue" points="1352.73,-135.32 1361.92,-130.04 1351.45,-128.43 1352.73,-135.32"/>
</g>
<!-- Node27 -->
<g id="node25" class="node">
<title>Node27</title>
<g id="a_node25"><a xlink:title=" ">
<polygon fill="none" stroke="#bfbfbf" points="1433.58,-112.5 1433.58,-131.5 1497.58,-131.5 1497.58,-112.5 1433.58,-112.5"/>
<text text-anchor="middle" x="1465.58" y="-119.5" font-family="Helvetica,sans-Serif" font-size="10.00">algorithm</text>
</a>
</g>
</g>
<!-- Node1&#45;&gt;Node27 -->
<g id="edge46" class="edge">
<title>Node1&#45;&gt;Node27</title>
<path fill="none" stroke="midnightblue" d="M1030.23,-174.68C1101.83,-169.61 1271.45,-156.14 1423.43,-132.02"/>
<polygon fill="midnightblue" stroke="midnightblue" points="1424.1,-135.46 1433.42,-130.42 1422.99,-128.55 1424.1,-135.46"/>
</g>
<!-- Node28 -->
<g id="node26" class="node">
<title>Node28</title>
<g id="a_node26"><a xlink:title=" ">
<polygon fill="none" stroke="#bfbfbf" points="1515.58,-112.5 1515.58,-131.5 1571.58,-131.5 1571.58,-112.5 1515.58,-112.5"/>
<text text-anchor="middle" x="1543.58" y="-119.5" font-family="Helvetica,sans-Serif" font-size="10.00">libgen.h</text>
</a>
</g>
</g>
<!-- Node1&#45;&gt;Node28 -->
<g id="edge47" class="edge">
<title>Node1&#45;&gt;Node28</title>
<path fill="none" stroke="midnightblue" d="M1030.2,-175.75C1111.51,-172.44 1321.1,-161.67 1505.25,-131.98"/>
<polygon fill="midnightblue" stroke="midnightblue" points="1506.09,-135.39 1515.39,-130.32 1504.96,-128.48 1506.09,-135.39"/>
</g>
<!-- Node3 -->
<g id="node3" class="node">
<title>Node3</title>
<g id="a_node3"><a xlink:title=" ">
<polygon fill="none" stroke="#bfbfbf" points="393.58,-0.5 393.58,-19.5 437.58,-19.5 437.58,-0.5 393.58,-0.5"/>
<text text-anchor="middle" x="415.58" y="-7.5" font-family="Helvetica,sans-Serif" font-size="10.00">string</text>
</a>
</g>
</g>
<!-- Node2&#45;&gt;Node3 -->
<g id="edge2" class="edge">
<title>Node2&#45;&gt;Node3</title>
<path fill="none" stroke="midnightblue" d="M221.39,-57.6C263.87,-47.41 340.05,-29.13 383.29,-18.75"/>
<polygon fill="midnightblue" stroke="midnightblue" points="384.37,-22.09 393.27,-16.35 382.73,-15.28 384.37,-22.09"/>
</g>
<!-- Node4&#45;&gt;Node2 -->
<g id="edge8" class="edge">
<title>Node4&#45;&gt;Node2</title>
<path fill="none" stroke="midnightblue" d="M111.68,-112.32C126.48,-103.82 149.28,-90.73 166.56,-80.8"/>
<polygon fill="midnightblue" stroke="midnightblue" points="168.59,-83.67 175.52,-75.65 165.1,-77.6 168.59,-83.67"/>
</g>
<!-- Node4&#45;&gt;Node3 -->
<g id="edge4" class="edge">
<title>Node4&#45;&gt;Node3</title>
<path fill="none" stroke="midnightblue" d="M80.74,-112.4C59.46,-99.78 26.2,-75.61 43.58,-56 54.84,-43.3 295.12,-21.39 383.41,-13.73"/>
<polygon fill="midnightblue" stroke="midnightblue" points="383.73,-17.22 393.4,-12.87 383.13,-10.24 383.73,-17.22"/>
</g>
<!-- Node5 -->
<g id="node5" class="node">
<title>Node5</title>
<g id="a_node5"><a xlink:title=" ">
<polygon fill="none" stroke="#bfbfbf" points="863.58,-0.5 863.58,-19.5 895.58,-19.5 895.58,-0.5 863.58,-0.5"/>
<text text-anchor="middle" x="879.58" y="-7.5" font-family="Helvetica,sans-Serif" font-size="10.00">list</text>
</a>
</g>
</g>
<!-- Node4&#45;&gt;Node5 -->
<g id="edge5" class="edge">
<title>Node4&#45;&gt;Node5</title>
<path fill="none" stroke="midnightblue" d="M89.18,-112.21C78.52,-98.46 61.66,-71.79 76.58,-56 103.87,-27.14 717.36,-14.03 853.14,-11.47"/>
<polygon fill="midnightblue" stroke="midnightblue" points="853.5,-14.97 863.43,-11.28 853.37,-7.97 853.5,-14.97"/>
</g>
<!-- Node6 -->
<g id="node6" class="node">
<title>Node6</title>
<g id="a_node6"><a xlink:title=" ">
<polygon fill="none" stroke="#bfbfbf" points="221.08,-0.5 221.08,-19.5 278.08,-19.5 278.08,-0.5 221.08,-0.5"/>
<text text-anchor="middle" x="249.58" y="-7.5" font-family="Helvetica,sans-Serif" font-size="10.00">ostream</text>
</a>
</g>
</g>
<!-- Node4&#45;&gt;Node6 -->
<g id="edge6" class="edge">
<title>Node4&#45;&gt;Node6</title>
<path fill="none" stroke="midnightblue" d="M70.51,-114.06C36.4,-103.73 -16.59,-82.63 5.58,-56 31.24,-25.17 148.69,-15.38 210.8,-12.34"/>
<polygon fill="midnightblue" stroke="midnightblue" points="211.17,-15.82 221,-11.87 210.85,-8.83 211.17,-15.82"/>
</g>
<!-- Node4&#45;&gt;Node7 -->
<g id="edge7" class="edge">
<title>Node4&#45;&gt;Node7</title>
<path fill="none" stroke="midnightblue" d="M99.39,-112.08C101.67,-104.85 104.95,-94.41 107.79,-85.4"/>
<polygon fill="midnightblue" stroke="midnightblue" points="111.16,-86.34 110.83,-75.75 104.48,-84.24 111.16,-86.34"/>
</g>
<!-- Node8&#45;&gt;Node3 -->
<g id="edge10" class="edge">
<title>Node8&#45;&gt;Node3</title>
<path fill="none" stroke="midnightblue" d="M635.98,-113.52C608.92,-105.55 566.04,-91.9 530.58,-76 512.63,-67.95 467.07,-41.49 438.98,-24.91"/>
<polygon fill="midnightblue" stroke="midnightblue" points="440.58,-21.79 430.19,-19.71 437.02,-27.81 440.58,-21.79"/>
</g>
<!-- Node8&#45;&gt;Node5 -->
<g id="edge14" class="edge">
<title>Node8&#45;&gt;Node5</title>
<path fill="none" stroke="midnightblue" d="M689.27,-118.27C737.4,-112.84 836,-99.13 860.58,-76 873.15,-64.18 877.55,-44.55 879.02,-29.95"/>
<polygon fill="midnightblue" stroke="midnightblue" points="882.54,-29.76 879.67,-19.56 875.55,-29.32 882.54,-29.76"/>
</g>
<!-- Node8&#45;&gt;Node9 -->
<g id="edge11" class="edge">
<title>Node8&#45;&gt;Node9</title>
<path fill="none" stroke="midnightblue" d="M635.77,-116.56C592.45,-109.29 504.2,-94.01 419.83,-76.17"/>
<polygon fill="midnightblue" stroke="midnightblue" points="420.34,-72.7 409.83,-74.04 418.88,-79.55 420.34,-72.7"/>
</g>
<!-- Node8&#45;&gt;Node10 -->
<g id="edge12" class="edge">
<title>Node8&#45;&gt;Node10</title>
<path fill="none" stroke="midnightblue" d="M635.94,-114.05C599.53,-104.55 534.03,-87.46 492.78,-76.7"/>
<polygon fill="midnightblue" stroke="midnightblue" points="493.66,-73.32 483.11,-74.18 491.9,-80.09 493.66,-73.32"/>
</g>
<!-- Node11 -->
<g id="node11" class="node">
<title>Node11</title>
<g id="a_node11"><a xlink:title=" ">
<polygon fill="none" stroke="#bfbfbf" points="539.58,-56.5 539.58,-75.5 571.58,-75.5 571.58,-56.5 539.58,-56.5"/>
<text text-anchor="middle" x="555.58" y="-63.5" font-family="Helvetica,sans-Serif" font-size="10.00">set</text>
</a>
</g>
</g>
<!-- Node8&#45;&gt;Node11 -->
<g id="edge13" class="edge">
<title>Node8&#45;&gt;Node11</title>
<path fill="none" stroke="midnightblue" d="M645.39,-112.32C627.93,-103.51 600.69,-89.76 580.79,-79.72"/>
<polygon fill="midnightblue" stroke="midnightblue" points="582.18,-76.51 571.68,-75.12 579.03,-82.75 582.18,-76.51"/>
</g>
<!-- Node12 -->
<g id="node12" class="node">
<title>Node12</title>
<g id="a_node12"><a xlink:title=" ">
<polygon fill="none" stroke="#bfbfbf" points="589.58,-56.5 589.58,-75.5 657.58,-75.5 657.58,-56.5 589.58,-56.5"/>
<text text-anchor="middle" x="623.58" y="-63.5" font-family="Helvetica,sans-Serif" font-size="10.00">sys/time.h</text>
</a>
</g>
</g>
<!-- Node8&#45;&gt;Node12 -->
<g id="edge15" class="edge">
<title>Node8&#45;&gt;Node12</title>
<path fill="none" stroke="midnightblue" d="M656.14,-112.08C650.63,-104.46 642.55,-93.26 635.82,-83.94"/>
<polygon fill="midnightblue" stroke="midnightblue" points="638.59,-81.81 629.9,-75.75 632.92,-85.91 638.59,-81.81"/>
</g>
<!-- Node13 -->
<g id="node13" class="node">
<title>Node13</title>
<g id="a_node13"><a xlink:title=" ">
<polygon fill="none" stroke="#bfbfbf" points="676.08,-56.5 676.08,-75.5 729.08,-75.5 729.08,-56.5 676.08,-56.5"/>
<text text-anchor="middle" x="702.58" y="-63.5" font-family="Helvetica,sans-Serif" font-size="10.00">regex.h</text>
</a>
</g>
</g>
<!-- Node8&#45;&gt;Node13 -->
<g id="edge16" class="edge">
<title>Node8&#45;&gt;Node13</title>
<path fill="none" stroke="midnightblue" d="M669.19,-112.08C674.84,-104.46 683.13,-93.26 690.03,-83.94"/>
<polygon fill="midnightblue" stroke="midnightblue" points="692.96,-85.87 696.1,-75.75 687.33,-81.7 692.96,-85.87"/>
</g>
<!-- Node8&#45;&gt;Node14 -->
<g id="edge17" class="edge">
<title>Node8&#45;&gt;Node14</title>
<path fill="none" stroke="midnightblue" d="M689.3,-116.01C732.36,-107.91 819.77,-91.29 893.58,-76 894.87,-75.73 896.17,-75.46 897.49,-75.18"/>
<polygon fill="midnightblue" stroke="midnightblue" points="898.65,-78.51 907.69,-73 897.18,-71.67 898.65,-78.51"/>
</g>
<!-- Node15 -->
<g id="node15" class="node">
<title>Node15</title>
<g id="a_node15"><a xlink:title=" ">
<polygon fill="none" stroke="#bfbfbf" points="747.58,-56.5 747.58,-75.5 851.58,-75.5 851.58,-56.5 747.58,-56.5"/>
<text text-anchor="middle" x="799.58" y="-63.5" font-family="Helvetica,sans-Serif" font-size="10.00">leanux&#45;config.hpp</text>
</a>
</g>
</g>
<!-- Node8&#45;&gt;Node15 -->
<g id="edge18" class="edge">
<title>Node8&#45;&gt;Node15</title>
<path fill="none" stroke="midnightblue" d="M684.29,-112.44C706.94,-103.52 742.65,-89.44 768.33,-79.32"/>
<polygon fill="midnightblue" stroke="midnightblue" points="769.95,-82.44 777.97,-75.52 767.39,-75.93 769.95,-82.44"/>
</g>
<!-- Node16&#45;&gt;Node2 -->
<g id="edge24" class="edge">
<title>Node16&#45;&gt;Node2</title>
<path fill="none" stroke="midnightblue" d="M254.37,-112.32C242.81,-104.11 225.21,-91.6 211.42,-81.81"/>
<polygon fill="midnightblue" stroke="midnightblue" points="213.19,-78.77 203.01,-75.83 209.14,-84.48 213.19,-78.77"/>
</g>
<!-- Node16&#45;&gt;Node3 -->
<g id="edge20" class="edge">
<title>Node16&#45;&gt;Node3</title>
<path fill="none" stroke="midnightblue" d="M270.62,-112.27C277.35,-98.59 292.05,-72.01 311.58,-56 332.73,-38.66 361.57,-26.89 383.51,-19.74"/>
<polygon fill="midnightblue" stroke="midnightblue" points="384.85,-22.99 393.36,-16.69 382.78,-16.31 384.85,-22.99"/>
</g>
<!-- Node16&#45;&gt;Node5 -->
<g id="edge21" class="edge">
<title>Node16&#45;&gt;Node5</title>
<path fill="none" stroke="midnightblue" d="M275.57,-112.3C292.5,-96.12 328.84,-62.46 344.58,-56 438.42,-17.5 759.36,-11.94 853.46,-11.14"/>
<polygon fill="midnightblue" stroke="midnightblue" points="853.56,-14.63 863.54,-11.06 853.51,-7.63 853.56,-14.63"/>
</g>
<!-- Node16&#45;&gt;Node6 -->
<g id="edge22" class="edge">
<title>Node16&#45;&gt;Node6</title>
<path fill="none" stroke="midnightblue" d="M265.25,-112.37C262.5,-94.62 256.18,-53.67 252.46,-29.6"/>
<polygon fill="midnightblue" stroke="midnightblue" points="255.9,-28.94 250.91,-19.59 248.98,-30.01 255.9,-28.94"/>
</g>
<!-- Node16&#45;&gt;Node7 -->
<g id="edge23" class="edge">
<title>Node16&#45;&gt;Node7</title>
<path fill="none" stroke="midnightblue" d="M242.34,-112.44C216.71,-103.4 176.1,-89.06 147.34,-78.92"/>
<polygon fill="midnightblue" stroke="midnightblue" points="148.31,-75.54 137.71,-75.52 145.98,-82.15 148.31,-75.54"/>
</g>
<!-- Node17&#45;&gt;Node3 -->
<g id="edge27" class="edge">
<title>Node17&#45;&gt;Node3</title>
<path fill="none" stroke="midnightblue" d="M1022.99,-112.36C1014.71,-97.79 995.79,-68.68 970.58,-56 878.09,-9.5 551.91,-9.31 447.78,-10.49"/>
<polygon fill="midnightblue" stroke="midnightblue" points="447.54,-6.99 437.58,-10.62 447.63,-13.99 447.54,-6.99"/>
</g>
<!-- Node17&#45;&gt;Node5 -->
<g id="edge26" class="edge">
<title>Node17&#45;&gt;Node5</title>
<path fill="none" stroke="midnightblue" d="M1026.68,-112.17C1024.81,-98.36 1019.28,-71.61 1003.58,-56 977.06,-29.63 933.91,-18.59 906.14,-14.05"/>
<polygon fill="midnightblue" stroke="midnightblue" points="906.37,-10.55 895.97,-12.57 905.36,-17.48 906.37,-10.55"/>
</g>
<!-- Node18 -->
<g id="node18" class="node">
<title>Node18</title>
<g id="a_node18"><a xlink:title=" ">
<polygon fill="none" stroke="#bfbfbf" points="1037.08,-0.5 1037.08,-19.5 1084.08,-19.5 1084.08,-0.5 1037.08,-0.5"/>
<text text-anchor="middle" x="1060.58" y="-7.5" font-family="Helvetica,sans-Serif" font-size="10.00">vector</text>
</a>
</g>
</g>
<!-- Node17&#45;&gt;Node18 -->
<g id="edge28" class="edge">
<title>Node17&#45;&gt;Node18</title>
<path fill="none" stroke="midnightblue" d="M1062.98,-115.29C1085.93,-109.56 1114.16,-98.22 1128.58,-76 1142.16,-55.08 1115.34,-35.99 1091.48,-23.99"/>
<polygon fill="midnightblue" stroke="midnightblue" points="1092.78,-20.73 1082.24,-19.59 1089.77,-27.05 1092.78,-20.73"/>
</g>
<!-- Node19 -->
<g id="node19" class="node">
<title>Node19</title>
<g id="a_node19"><a xlink:href="../../d9/db2/block_8hpp.html" target="_top" xlink:title=" ">
<polygon fill="none" stroke="red" points="1055.58,-56.5 1055.58,-75.5 1119.58,-75.5 1119.58,-56.5 1055.58,-56.5"/>
<text text-anchor="middle" x="1087.58" y="-63.5" font-family="Helvetica,sans-Serif" font-size="10.00">block.hpp</text>
</a>
</g>
</g>
<!-- Node17&#45;&gt;Node19 -->
<g id="edge29" class="edge">
<title>Node17&#45;&gt;Node19</title>
<path fill="none" stroke="midnightblue" d="M1037.22,-112.32C1046.09,-104.34 1059.46,-92.31 1070.19,-82.65"/>
<polygon fill="midnightblue" stroke="midnightblue" points="1072.67,-85.13 1077.77,-75.83 1067.99,-79.92 1072.67,-85.13"/>
</g>
<!-- Node19&#45;&gt;Node3 -->
<g id="edge30" class="edge">
<title>Node19&#45;&gt;Node3</title>
<path fill="none" stroke="midnightblue" d="M1055.29,-61.31C1039.68,-59.58 1020.67,-57.57 1003.58,-56 791.94,-36.57 536.89,-19.06 448,-13.13"/>
<polygon fill="midnightblue" stroke="midnightblue" points="447.97,-9.62 437.76,-12.45 447.51,-16.61 447.97,-9.62"/>
</g>
<!-- Node19&#45;&gt;Node5 -->
<g id="edge32" class="edge">
<title>Node19&#45;&gt;Node5</title>
<path fill="none" stroke="midnightblue" d="M1055.54,-56.68C1014.29,-45.97 943.42,-27.57 905.43,-17.71"/>
<polygon fill="midnightblue" stroke="midnightblue" points="906.19,-14.29 895.64,-15.17 904.43,-21.07 906.19,-14.29"/>
</g>
<!-- Node19&#45;&gt;Node6 -->
<g id="edge31" class="edge">
<title>Node19&#45;&gt;Node6</title>
<path fill="none" stroke="midnightblue" d="M1055.31,-62.38C1031.82,-60.51 999.24,-57.98 970.58,-56 710.27,-37.99 644.98,-36.68 384.58,-20 352.19,-17.93 315.44,-15.47 288.47,-13.65"/>
<polygon fill="midnightblue" stroke="midnightblue" points="288.5,-10.14 278.28,-12.96 288.02,-17.12 288.5,-10.14"/>
</g>
<!-- Node19&#45;&gt;Node18 -->
<g id="edge33" class="edge">
<title>Node19&#45;&gt;Node18</title>
<path fill="none" stroke="midnightblue" d="M1083.12,-56.08C1079.43,-48.69 1074.06,-37.95 1069.49,-28.81"/>
<polygon fill="midnightblue" stroke="midnightblue" points="1072.56,-27.13 1064.96,-19.75 1066.3,-30.26 1072.56,-27.13"/>
</g>
<!-- Node19&#45;&gt;Node21 -->
<g id="edge34" class="edge">
<title>Node19&#45;&gt;Node21</title>
<path fill="none" stroke="midnightblue" d="M1095.01,-56.08C1101.43,-48.38 1110.89,-37.03 1118.7,-27.65"/>
<polygon fill="midnightblue" stroke="midnightblue" points="1121.58,-29.67 1125.29,-19.75 1116.2,-25.19 1121.58,-29.67"/>
</g>
<!-- Node19&#45;&gt;Node22 -->
<g id="edge35" class="edge">
<title>Node19&#45;&gt;Node22</title>
<path fill="none" stroke="midnightblue" d="M1106.6,-56.44C1126.17,-47.64 1156.89,-33.81 1179.31,-23.72"/>
<polygon fill="midnightblue" stroke="midnightblue" points="1180.97,-26.81 1188.66,-19.52 1178.1,-20.43 1180.97,-26.81"/>
</g>
<!-- Node19&#45;&gt;Node24 -->
<g id="edge36" class="edge">
<title>Node19&#45;&gt;Node24</title>
<path fill="none" stroke="midnightblue" d="M1117.69,-56.44C1151.59,-46.81 1206.62,-31.17 1242.46,-20.98"/>
<polygon fill="midnightblue" stroke="midnightblue" points="1243.81,-24.24 1252.47,-18.14 1241.89,-17.5 1243.81,-24.24"/>
</g>
</g>
</svg>
