<?xml version="1.0" encoding="UTF-8" standalone="no"?>
<!DOCTYPE svg PUBLIC "-//W3C//DTD SVG 1.1//EN"
 "http://www.w3.org/Graphics/SVG/1.1/DTD/svg11.dtd">
<!-- Generated by graphviz version 2.43.0 (0)
 -->
<!-- Title: leanux::system::getPageSize Pages: 1 -->
<svg width="651pt" height="239pt"
 viewBox="0.00 0.00 651.00 239.00" xmlns="http://www.w3.org/2000/svg" xmlns:xlink="http://www.w3.org/1999/xlink">
<g id="graph0" class="graph" transform="scale(1 1) rotate(0) translate(4 235)">
<title>leanux::system::getPageSize</title>
<!-- Node1 -->
<g id="node1" class="node">
<title>Node1</title>
<g id="a_node1"><a xlink:title="Get the system page size.">
<polygon fill="#bfbfbf" stroke="black" points="486,-110 486,-129 643,-129 643,-110 486,-110"/>
<text text-anchor="middle" x="564.5" y="-117" font-family="Helvetica,sans-Serif" font-size="10.00">leanux::system::getPageSize</text>
</a>
</g>
</g>
<!-- Node2 -->
<g id="node2" class="node">
<title>Node2</title>
<g id="a_node2"><a xlink:href="../../d6/dd3/namespaceleanux_1_1tools_1_1lrep.html#a9434a7f41a9aef0ce48a762267da8797" target="_top" xlink:title=" ">
<polygon fill="none" stroke="black" points="313,-199.5 313,-229.5 429,-229.5 429,-199.5 313,-199.5"/>
<text text-anchor="start" x="321" y="-217.5" font-family="Helvetica,sans-Serif" font-size="10.00">leanux::tools::lrep</text>
<text text-anchor="middle" x="371" y="-206.5" font-family="Helvetica,sans-Serif" font-size="10.00">::htmlCmdRSSDetail</text>
</a>
</g>
</g>
<!-- Node1&#45;&gt;Node2 -->
<g id="edge1" class="edge">
<title>Node1&#45;&gt;Node2</title>
<path fill="none" stroke="midnightblue" d="M539,-134.2C516.31,-147.54 481.42,-167.4 450,-182.5 437.6,-188.46 423.79,-194.36 411.28,-199.44"/>
<polygon fill="midnightblue" stroke="midnightblue" points="540.83,-137.18 547.65,-129.08 537.26,-131.16 540.83,-137.18"/>
</g>
<!-- Node6 -->
<g id="node5" class="node">
<title>Node6</title>
<g id="a_node5"><a xlink:href="../../d6/dd3/namespaceleanux_1_1tools_1_1lrep.html#aa664245209dbbb081139c961a4c6d878" target="_top" xlink:title="generate system details html.">
<polygon fill="none" stroke="black" points="140,-151.5 140,-181.5 256,-181.5 256,-151.5 140,-151.5"/>
<text text-anchor="start" x="148" y="-169.5" font-family="Helvetica,sans-Serif" font-size="10.00">leanux::tools::lrep</text>
<text text-anchor="middle" x="198" y="-158.5" font-family="Helvetica,sans-Serif" font-size="10.00">::htmlSystemDetails</text>
</a>
</g>
</g>
<!-- Node1&#45;&gt;Node6 -->
<g id="edge4" class="edge">
<title>Node1&#45;&gt;Node6</title>
<path fill="none" stroke="midnightblue" d="M523.69,-132.02C502.1,-138.3 474.83,-145.42 450,-149.5 384.06,-160.35 307.28,-164.3 256.18,-165.73"/>
<polygon fill="midnightblue" stroke="midnightblue" points="524.9,-135.31 533.49,-129.11 522.91,-128.6 524.9,-135.31"/>
</g>
<!-- Node7 -->
<g id="node6" class="node">
<title>Node7</title>
<g id="a_node6"><a xlink:href="../../da/d21/classleanux_1_1tools_1_1lmon_1_1RealtimeSampler.html#a792fec91ecc8ca43919fbab7e89cd840" target="_top" xlink:title="Constructor.">
<polygon fill="none" stroke="black" points="292,-99 292,-140 450,-140 450,-99 292,-99"/>
<text text-anchor="start" x="300" y="-128" font-family="Helvetica,sans-Serif" font-size="10.00">leanux::tools::lmon</text>
<text text-anchor="start" x="300" y="-117" font-family="Helvetica,sans-Serif" font-size="10.00">::RealtimeSampler::Realtime</text>
<text text-anchor="middle" x="371" y="-106" font-family="Helvetica,sans-Serif" font-size="10.00">Sampler</text>
</a>
</g>
</g>
<!-- Node1&#45;&gt;Node7 -->
<g id="edge6" class="edge">
<title>Node1&#45;&gt;Node7</title>
<path fill="none" stroke="midnightblue" d="M475.84,-119.5C467.23,-119.5 458.54,-119.5 450.04,-119.5"/>
<polygon fill="midnightblue" stroke="midnightblue" points="475.89,-123 485.89,-119.5 475.89,-116 475.89,-123"/>
</g>
<!-- Node8 -->
<g id="node7" class="node">
<title>Node8</title>
<g id="a_node7"><a xlink:href="../../d5/d46/classleanux_1_1tools_1_1lard_1_1VMSnap.html#ad7ebbd5cb631d19b7c1a08aeeb7e138b" target="_top" xlink:title=" ">
<polygon fill="none" stroke="black" points="312.5,-49.5 312.5,-79.5 429.5,-79.5 429.5,-49.5 312.5,-49.5"/>
<text text-anchor="start" x="320.5" y="-67.5" font-family="Helvetica,sans-Serif" font-size="10.00">leanux::tools::lard</text>
<text text-anchor="middle" x="371" y="-56.5" font-family="Helvetica,sans-Serif" font-size="10.00">::VMSnap::storeSnap</text>
</a>
</g>
</g>
<!-- Node1&#45;&gt;Node8 -->
<g id="edge7" class="edge">
<title>Node1&#45;&gt;Node8</title>
<path fill="none" stroke="midnightblue" d="M520.49,-107.15C492.07,-98.98 454.63,-88.23 424.45,-79.57"/>
<polygon fill="midnightblue" stroke="midnightblue" points="519.57,-110.52 530.14,-109.92 521.5,-103.8 519.57,-110.52"/>
</g>
<!-- Node12 -->
<g id="node9" class="node">
<title>Node12</title>
<g id="a_node9"><a xlink:href="../../d6/d0a/classleanux_1_1tools_1_1lmon_1_1ProcessView.html#af3566e8ec176744fcd254c558de68eed" target="_top" xlink:title="Refresh/redraw the ProcessView.">
<polygon fill="none" stroke="black" points="306,-0.5 306,-30.5 436,-30.5 436,-0.5 306,-0.5"/>
<text text-anchor="start" x="314" y="-18.5" font-family="Helvetica,sans-Serif" font-size="10.00">leanux::tools::lmon</text>
<text text-anchor="middle" x="371" y="-7.5" font-family="Helvetica,sans-Serif" font-size="10.00">::ProcessView::xrefresh</text>
</a>
</g>
</g>
<!-- Node1&#45;&gt;Node12 -->
<g id="edge9" class="edge">
<title>Node1&#45;&gt;Node12</title>
<path fill="none" stroke="midnightblue" d="M544.59,-103.32C522.97,-85.52 485.92,-57.13 450,-39.5 443.26,-36.19 435.97,-33.22 428.64,-30.6"/>
<polygon fill="midnightblue" stroke="midnightblue" points="542.42,-106.07 552.34,-109.79 546.91,-100.7 542.42,-106.07"/>
</g>
<!-- Node3 -->
<g id="node3" class="node">
<title>Node3</title>
<g id="a_node3"><a xlink:href="../../d6/dd3/namespaceleanux_1_1tools_1_1lrep.html#a62c03f9d98087191a6d6473c7384fa74" target="_top" xlink:title=" ">
<polygon fill="none" stroke="black" points="146,-200.5 146,-230.5 250,-230.5 250,-200.5 146,-200.5"/>
<text text-anchor="start" x="154" y="-218.5" font-family="Helvetica,sans-Serif" font-size="10.00">leanux::tools::lrep</text>
<text text-anchor="middle" x="198" y="-207.5" font-family="Helvetica,sans-Serif" font-size="10.00">::htmlCmdDetails</text>
</a>
</g>
</g>
<!-- Node2&#45;&gt;Node3 -->
<g id="edge2" class="edge">
<title>Node2&#45;&gt;Node3</title>
<path fill="none" stroke="midnightblue" d="M302.48,-214.89C285.09,-215 266.65,-215.1 250.23,-215.2"/>
<polygon fill="midnightblue" stroke="midnightblue" points="302.6,-218.39 312.58,-214.84 302.56,-211.39 302.6,-218.39"/>
</g>
<!-- Node4 -->
<g id="node4" class="node">
<title>Node4</title>
<g id="a_node4"><a xlink:href="../../d6/dd3/namespaceleanux_1_1tools_1_1lrep.html#aa0e1422d8d75831ea3801ffa728bf436" target="_top" xlink:title=" ">
<polygon fill="none" stroke="red" points="0,-175.5 0,-205.5 104,-205.5 104,-175.5 0,-175.5"/>
<text text-anchor="start" x="8" y="-193.5" font-family="Helvetica,sans-Serif" font-size="10.00">leanux::tools::lrep</text>
<text text-anchor="middle" x="52" y="-182.5" font-family="Helvetica,sans-Serif" font-size="10.00">::main</text>
</a>
</g>
</g>
<!-- Node3&#45;&gt;Node4 -->
<g id="edge3" class="edge">
<title>Node3&#45;&gt;Node4</title>
<path fill="none" stroke="midnightblue" d="M135.8,-204.87C125.21,-203.04 114.29,-201.14 104.01,-199.36"/>
<polygon fill="midnightblue" stroke="midnightblue" points="135.37,-208.35 145.83,-206.62 136.57,-201.46 135.37,-208.35"/>
</g>
<!-- Node6&#45;&gt;Node4 -->
<g id="edge5" class="edge">
<title>Node6&#45;&gt;Node4</title>
<path fill="none" stroke="midnightblue" d="M129.65,-177.73C121.05,-179.16 112.36,-180.61 104.07,-181.99"/>
<polygon fill="midnightblue" stroke="midnightblue" points="130.39,-181.15 139.67,-176.05 129.23,-174.25 130.39,-181.15"/>
</g>
<!-- Node9 -->
<g id="node8" class="node">
<title>Node9</title>
<g id="a_node8"><a xlink:href="../../d4/d62/namespaceleanux_1_1tools_1_1lard.html#a6de74bbef1d571bf7eb000e62900a11d" target="_top" xlink:title=" ">
<polygon fill="none" stroke="red" points="146,-49.5 146,-79.5 250,-79.5 250,-49.5 146,-49.5"/>
<text text-anchor="start" x="154" y="-67.5" font-family="Helvetica,sans-Serif" font-size="10.00">leanux::tools::lard</text>
<text text-anchor="middle" x="198" y="-56.5" font-family="Helvetica,sans-Serif" font-size="10.00">::mainLoop</text>
</a>
</g>
</g>
<!-- Node8&#45;&gt;Node9 -->
<g id="edge8" class="edge">
<title>Node8&#45;&gt;Node9</title>
<path fill="none" stroke="midnightblue" d="M302.07,-64.5C284.8,-64.5 266.53,-64.5 250.24,-64.5"/>
<polygon fill="midnightblue" stroke="midnightblue" points="302.11,-68 312.11,-64.5 302.11,-61 302.11,-68"/>
</g>
</g>
</svg>
