<?xml version="1.0" encoding="UTF-8" standalone="no"?>
<!DOCTYPE svg PUBLIC "-//W3C//DTD SVG 1.1//EN"
 "http://www.w3.org/Graphics/SVG/1.1/DTD/svg11.dtd">
<!-- Generated by graphviz version 2.43.0 (0)
 -->
<!-- Title: leanux::system::getBoardVersion Pages: 1 -->
<svg width="442pt" height="39pt"
 viewBox="0.00 0.00 442.00 39.00" xmlns="http://www.w3.org/2000/svg" xmlns:xlink="http://www.w3.org/1999/xlink">
<g id="graph0" class="graph" transform="scale(1 1) rotate(0) translate(4 35)">
<title>leanux::system::getBoardVersion</title>
<!-- Node1 -->
<g id="node1" class="node">
<title>Node1</title>
<g id="a_node1"><a xlink:title="Get the version of the system board.">
<polygon fill="#bfbfbf" stroke="black" points="292,-0.5 292,-30.5 434,-30.5 434,-0.5 292,-0.5"/>
<text text-anchor="start" x="300" y="-18.5" font-family="Helvetica,sans-Serif" font-size="10.00">leanux::system::getBoard</text>
<text text-anchor="middle" x="363" y="-7.5" font-family="Helvetica,sans-Serif" font-size="10.00">Version</text>
</a>
</g>
</g>
<!-- Node2 -->
<g id="node2" class="node">
<title>Node2</title>
<g id="a_node2"><a xlink:href="../../d6/dd3/namespaceleanux_1_1tools_1_1lrep.html#aa664245209dbbb081139c961a4c6d878" target="_top" xlink:title="generate system details html.">
<polygon fill="none" stroke="black" points="140,-0.5 140,-30.5 256,-30.5 256,-0.5 140,-0.5"/>
<text text-anchor="start" x="148" y="-18.5" font-family="Helvetica,sans-Serif" font-size="10.00">leanux::tools::lrep</text>
<text text-anchor="middle" x="198" y="-7.5" font-family="Helvetica,sans-Serif" font-size="10.00">::htmlSystemDetails</text>
</a>
</g>
</g>
<!-- Node1&#45;&gt;Node2 -->
<g id="edge1" class="edge">
<title>Node1&#45;&gt;Node2</title>
<path fill="none" stroke="midnightblue" d="M281.75,-15.5C273.06,-15.5 264.34,-15.5 256,-15.5"/>
<polygon fill="midnightblue" stroke="midnightblue" points="281.93,-19 291.93,-15.5 281.93,-12 281.93,-19"/>
</g>
<!-- Node3 -->
<g id="node3" class="node">
<title>Node3</title>
<g id="a_node3"><a xlink:href="../../d6/dd3/namespaceleanux_1_1tools_1_1lrep.html#aa0e1422d8d75831ea3801ffa728bf436" target="_top" xlink:title=" ">
<polygon fill="none" stroke="red" points="0,-0.5 0,-30.5 104,-30.5 104,-0.5 0,-0.5"/>
<text text-anchor="start" x="8" y="-18.5" font-family="Helvetica,sans-Serif" font-size="10.00">leanux::tools::lrep</text>
<text text-anchor="middle" x="52" y="-7.5" font-family="Helvetica,sans-Serif" font-size="10.00">::main</text>
</a>
</g>
</g>
<!-- Node2&#45;&gt;Node3 -->
<g id="edge2" class="edge">
<title>Node2&#45;&gt;Node3</title>
<path fill="none" stroke="midnightblue" d="M129.65,-15.5C121.05,-15.5 112.36,-15.5 104.07,-15.5"/>
<polygon fill="midnightblue" stroke="midnightblue" points="129.67,-19 139.67,-15.5 129.67,-12 129.67,-19"/>
</g>
</g>
</svg>
