<?xml version="1.0" encoding="UTF-8" standalone="no"?>
<!DOCTYPE svg PUBLIC "-//W3C//DTD SVG 1.1//EN"
 "http://www.w3.org/Graphics/SVG/1.1/DTD/svg11.dtd">
<!-- Generated by graphviz version 2.43.0 (0)
 -->
<!-- Title: leanux::system::getChassisType Pages: 1 -->
<svg width="520pt" height="88pt"
 viewBox="0.00 0.00 520.00 88.00" xmlns="http://www.w3.org/2000/svg" xmlns:xlink="http://www.w3.org/1999/xlink">
<g id="graph0" class="graph" transform="scale(1 1) rotate(0) translate(4 84)">
<title>leanux::system::getChassisType</title>
<!-- Node1 -->
<g id="node1" class="node">
<title>Node1</title>
<g id="a_node1"><a xlink:title="Get the system chassis type.">
<polygon fill="#bfbfbf" stroke="black" points="339,-30 339,-49 512,-49 512,-30 339,-30"/>
<text text-anchor="middle" x="425.5" y="-37" font-family="Helvetica,sans-Serif" font-size="10.00">leanux::system::getChassisType</text>
</a>
</g>
</g>
<!-- Node2 -->
<g id="node2" class="node">
<title>Node2</title>
<g id="a_node2"><a xlink:href="../../dd/d42/namespaceleanux_1_1system.html#a4353472fef02fbaaf6a6051f19323a1f" target="_top" xlink:title="Get the system chassis type as a std::string.">
<polygon fill="none" stroke="black" points="152,-24.5 152,-54.5 303,-54.5 303,-24.5 152,-24.5"/>
<text text-anchor="start" x="160" y="-42.5" font-family="Helvetica,sans-Serif" font-size="10.00">leanux::system::getChassis</text>
<text text-anchor="middle" x="227.5" y="-31.5" font-family="Helvetica,sans-Serif" font-size="10.00">TypeString</text>
</a>
</g>
</g>
<!-- Node1&#45;&gt;Node2 -->
<g id="edge1" class="edge">
<title>Node1&#45;&gt;Node2</title>
<path fill="none" stroke="midnightblue" d="M328.78,-39.5C320.21,-39.5 311.61,-39.5 303.25,-39.5"/>
<polygon fill="midnightblue" stroke="midnightblue" points="328.82,-43 338.82,-39.5 328.82,-36 328.82,-43"/>
</g>
<!-- Node3 -->
<g id="node3" class="node">
<title>Node3</title>
<g id="a_node3"><a xlink:href="../../db/dda/classleanux_1_1tools_1_1lmon_1_1Footer.html#a5fd79b07f7441318e0a842b4b3024ee9" target="_top" xlink:title="Construct a Footer.">
<polygon fill="none" stroke="black" points="3,-49.5 3,-79.5 113,-79.5 113,-49.5 3,-49.5"/>
<text text-anchor="start" x="11" y="-67.5" font-family="Helvetica,sans-Serif" font-size="10.00">leanux::tools::lmon</text>
<text text-anchor="middle" x="58" y="-56.5" font-family="Helvetica,sans-Serif" font-size="10.00">::Footer::Footer</text>
</a>
</g>
</g>
<!-- Node2&#45;&gt;Node3 -->
<g id="edge2" class="edge">
<title>Node2&#45;&gt;Node3</title>
<path fill="none" stroke="midnightblue" d="M141.56,-52.18C131.95,-53.61 122.35,-55.04 113.29,-56.4"/>
<polygon fill="midnightblue" stroke="midnightblue" points="142.19,-55.62 151.57,-50.68 141.16,-48.7 142.19,-55.62"/>
</g>
<!-- Node4 -->
<g id="node4" class="node">
<title>Node4</title>
<g id="a_node4"><a xlink:href="../../d6/dd3/namespaceleanux_1_1tools_1_1lrep.html#aa664245209dbbb081139c961a4c6d878" target="_top" xlink:title="generate system details html.">
<polygon fill="none" stroke="red" points="0,-0.5 0,-30.5 116,-30.5 116,-0.5 0,-0.5"/>
<text text-anchor="start" x="8" y="-18.5" font-family="Helvetica,sans-Serif" font-size="10.00">leanux::tools::lrep</text>
<text text-anchor="middle" x="58" y="-7.5" font-family="Helvetica,sans-Serif" font-size="10.00">::htmlSystemDetails</text>
</a>
</g>
</g>
<!-- Node2&#45;&gt;Node4 -->
<g id="edge3" class="edge">
<title>Node2&#45;&gt;Node4</title>
<path fill="none" stroke="midnightblue" d="M141.54,-27.33C132.98,-26.1 124.44,-24.88 116.28,-23.71"/>
<polygon fill="midnightblue" stroke="midnightblue" points="141.17,-30.81 151.57,-28.76 142.17,-23.88 141.17,-30.81"/>
</g>
</g>
</svg>
