<?xml version="1.0" encoding="UTF-8" standalone="no"?>
<!DOCTYPE svg PUBLIC "-//W3C//DTD SVG 1.1//EN"
 "http://www.w3.org/Graphics/SVG/1.1/DTD/svg11.dtd">
<!-- Generated by graphviz version 2.43.0 (0)
 -->
<!-- Title: leanux::system::getChassisTypeString Pages: 1 -->
<svg width="555pt" height="66pt"
 viewBox="0.00 0.00 555.00 66.00" xmlns="http://www.w3.org/2000/svg" xmlns:xlink="http://www.w3.org/1999/xlink">
<g id="graph0" class="graph" transform="scale(1 1) rotate(0) translate(4 62)">
<title>leanux::system::getChassisTypeString</title>
<!-- Node1 -->
<g id="node1" class="node">
<title>Node1</title>
<g id="a_node1"><a xlink:title="Get the system chassis type as a std::string.">
<polygon fill="#bfbfbf" stroke="black" points="0,-14 0,-44 151,-44 151,-14 0,-14"/>
<text text-anchor="start" x="8" y="-32" font-family="Helvetica,sans-Serif" font-size="10.00">leanux::system::getChassis</text>
<text text-anchor="middle" x="75.5" y="-21" font-family="Helvetica,sans-Serif" font-size="10.00">TypeString</text>
</a>
</g>
</g>
<!-- Node2 -->
<g id="node2" class="node">
<title>Node2</title>
<g id="a_node2"><a xlink:href="../../dd/d42/namespaceleanux_1_1system.html#a1ab19aa4db47eac1c96cd0f456475fbc" target="_top" xlink:title="Get the system chassis type.">
<polygon fill="none" stroke="black" points="187,-19.5 187,-38.5 360,-38.5 360,-19.5 187,-19.5"/>
<text text-anchor="middle" x="273.5" y="-26.5" font-family="Helvetica,sans-Serif" font-size="10.00">leanux::system::getChassisType</text>
</a>
</g>
</g>
<!-- Node1&#45;&gt;Node2 -->
<g id="edge1" class="edge">
<title>Node1&#45;&gt;Node2</title>
<path fill="none" stroke="midnightblue" d="M151.16,-29C159.56,-29 168.2,-29 176.81,-29"/>
<polygon fill="midnightblue" stroke="midnightblue" points="176.9,-32.5 186.9,-29 176.9,-25.5 176.9,-32.5"/>
</g>
<!-- Node3 -->
<g id="node3" class="node">
<title>Node3</title>
<g id="a_node3"><a xlink:href="../../d8/db1/namespaceleanux_1_1util.html#a6421ca2c46c56eebe1a486c6a498ce7d" target="_top" xlink:title="Test if a file exists and can be read.">
<polygon fill="none" stroke="black" points="396,-38.5 396,-57.5 547,-57.5 547,-38.5 396,-38.5"/>
<text text-anchor="middle" x="471.5" y="-45.5" font-family="Helvetica,sans-Serif" font-size="10.00">leanux::util::fileReadAccess</text>
</a>
</g>
</g>
<!-- Node2&#45;&gt;Node3 -->
<g id="edge2" class="edge">
<title>Node2&#45;&gt;Node3</title>
<path fill="none" stroke="midnightblue" d="M360.18,-37.31C368.61,-38.12 377.15,-38.95 385.56,-39.77"/>
<polygon fill="midnightblue" stroke="midnightblue" points="385.45,-43.27 395.75,-40.75 386.13,-36.3 385.45,-43.27"/>
</g>
<!-- Node4 -->
<g id="node4" class="node">
<title>Node4</title>
<g id="a_node4"><a xlink:href="../../d8/db1/namespaceleanux_1_1util.html#aff0a888cebf58e4cf942fc3dc681aac8" target="_top" xlink:title="read the first data in the file as a string representation of a signed int.">
<polygon fill="none" stroke="black" points="406.5,-0.5 406.5,-19.5 536.5,-19.5 536.5,-0.5 406.5,-0.5"/>
<text text-anchor="middle" x="471.5" y="-7.5" font-family="Helvetica,sans-Serif" font-size="10.00">leanux::util::fileReadInt</text>
</a>
</g>
</g>
<!-- Node2&#45;&gt;Node4 -->
<g id="edge3" class="edge">
<title>Node2&#45;&gt;Node4</title>
<path fill="none" stroke="midnightblue" d="M360.18,-20.69C372.13,-19.54 384.33,-18.35 396.05,-17.22"/>
<polygon fill="midnightblue" stroke="midnightblue" points="396.6,-20.68 406.21,-16.23 395.92,-13.71 396.6,-20.68"/>
</g>
</g>
</svg>
