<?xml version="1.0" encoding="UTF-8" standalone="no"?>
<!DOCTYPE svg PUBLIC "-//W3C//DTD SVG 1.1//EN"
 "http://www.w3.org/Graphics/SVG/1.1/DTD/svg11.dtd">
<!-- Generated by graphviz version 2.43.0 (0)
 -->
<!-- Title: leanux::system::getNodeName Pages: 1 -->
<svg width="468pt" height="110pt"
 viewBox="0.00 0.00 468.00 110.00" xmlns="http://www.w3.org/2000/svg" xmlns:xlink="http://www.w3.org/1999/xlink">
<g id="graph0" class="graph" transform="scale(1 1) rotate(0) translate(4 106)">
<title>leanux::system::getNodeName</title>
<!-- Node1 -->
<g id="node1" class="node">
<title>Node1</title>
<g id="a_node1"><a xlink:title="The node name of the system.">
<polygon fill="#bfbfbf" stroke="black" points="292,-28 292,-47 460,-47 460,-28 292,-28"/>
<text text-anchor="middle" x="376" y="-35" font-family="Helvetica,sans-Serif" font-size="10.00">leanux::system::getNodeName</text>
</a>
</g>
</g>
<!-- Node2 -->
<g id="node2" class="node">
<title>Node2</title>
<g id="a_node2"><a xlink:href="../../dc/d7e/classleanux_1_1tools_1_1lmon_1_1Header.html#a745b112cd9e8bab364075990c66f52fe" target="_top" xlink:title="Construct a Header.">
<polygon fill="none" stroke="black" points="143,-71.5 143,-101.5 253,-101.5 253,-71.5 143,-71.5"/>
<text text-anchor="start" x="151" y="-89.5" font-family="Helvetica,sans-Serif" font-size="10.00">leanux::tools::lmon</text>
<text text-anchor="middle" x="198" y="-78.5" font-family="Helvetica,sans-Serif" font-size="10.00">::Header::Header</text>
</a>
</g>
</g>
<!-- Node1&#45;&gt;Node2 -->
<g id="edge1" class="edge">
<title>Node1&#45;&gt;Node2</title>
<path fill="none" stroke="midnightblue" d="M330.9,-49.78C307.28,-56.35 277.99,-64.51 253.01,-71.46"/>
<polygon fill="midnightblue" stroke="midnightblue" points="331.95,-53.12 340.65,-47.06 330.08,-46.37 331.95,-53.12"/>
</g>
<!-- Node3 -->
<g id="node3" class="node">
<title>Node3</title>
<g id="a_node3"><a xlink:href="../../d6/dd3/namespaceleanux_1_1tools_1_1lrep.html#aa664245209dbbb081139c961a4c6d878" target="_top" xlink:title="generate system details html.">
<polygon fill="none" stroke="black" points="140,-22.5 140,-52.5 256,-52.5 256,-22.5 140,-22.5"/>
<text text-anchor="start" x="148" y="-40.5" font-family="Helvetica,sans-Serif" font-size="10.00">leanux::tools::lrep</text>
<text text-anchor="middle" x="198" y="-29.5" font-family="Helvetica,sans-Serif" font-size="10.00">::htmlSystemDetails</text>
</a>
</g>
</g>
<!-- Node1&#45;&gt;Node3 -->
<g id="edge2" class="edge">
<title>Node1&#45;&gt;Node3</title>
<path fill="none" stroke="midnightblue" d="M281.67,-37.5C272.98,-37.5 264.35,-37.5 256.13,-37.5"/>
<polygon fill="midnightblue" stroke="midnightblue" points="281.9,-41 291.9,-37.5 281.9,-34 281.9,-41"/>
</g>
<!-- Node4 -->
<g id="node4" class="node">
<title>Node4</title>
<g id="a_node4"><a xlink:href="../../d6/dd3/namespaceleanux_1_1tools_1_1lrep.html#aa0e1422d8d75831ea3801ffa728bf436" target="_top" xlink:title=" ">
<polygon fill="none" stroke="red" points="0,-0.5 0,-30.5 104,-30.5 104,-0.5 0,-0.5"/>
<text text-anchor="start" x="8" y="-18.5" font-family="Helvetica,sans-Serif" font-size="10.00">leanux::tools::lrep</text>
<text text-anchor="middle" x="52" y="-7.5" font-family="Helvetica,sans-Serif" font-size="10.00">::main</text>
</a>
</g>
</g>
<!-- Node1&#45;&gt;Node4 -->
<g id="edge4" class="edge">
<title>Node1&#45;&gt;Node4</title>
<path fill="none" stroke="midnightblue" d="M327.57,-25.68C305.9,-20.87 279.81,-15.88 256,-13.5 204.7,-8.38 191.55,-12.91 140,-13.5 128.37,-13.63 115.86,-13.87 104.06,-14.13"/>
<polygon fill="midnightblue" stroke="midnightblue" points="326.98,-29.14 337.51,-27.95 328.53,-22.31 326.98,-29.14"/>
</g>
<!-- Node3&#45;&gt;Node4 -->
<g id="edge3" class="edge">
<title>Node3&#45;&gt;Node4</title>
<path fill="none" stroke="midnightblue" d="M129.65,-27.21C121.05,-25.9 112.36,-24.57 104.07,-23.3"/>
<polygon fill="midnightblue" stroke="midnightblue" points="129.26,-30.69 139.67,-28.74 130.32,-23.77 129.26,-30.69"/>
</g>
</g>
</svg>
