<?xml version="1.0" encoding="UTF-8" standalone="no"?>
<!DOCTYPE svg PUBLIC "-//W3C//DTD SVG 1.1//EN"
 "http://www.w3.org/Graphics/SVG/1.1/DTD/svg11.dtd">
<!-- Generated by graphviz version 2.43.0 (0)
 -->
<!-- Title: leanux::system::getUserName Pages: 1 -->
<svg width="509pt" height="323pt"
 viewBox="0.00 0.00 509.00 323.00" xmlns="http://www.w3.org/2000/svg" xmlns:xlink="http://www.w3.org/1999/xlink">
<g id="graph0" class="graph" transform="scale(1 1) rotate(0) translate(4 319)">
<title>leanux::system::getUserName</title>
<!-- Node1 -->
<g id="node1" class="node">
<title>Node1</title>
<g id="a_node1"><a xlink:title="Get username from a uid.">
<polygon fill="#bfbfbf" stroke="black" points="336,-143 336,-162 501,-162 501,-143 336,-143"/>
<text text-anchor="middle" x="418.5" y="-150" font-family="Helvetica,sans-Serif" font-size="10.00">leanux::system::getUserName</text>
</a>
</g>
</g>
<!-- Node2 -->
<g id="node2" class="node">
<title>Node2</title>
<g id="a_node2"><a xlink:href="../../d6/dd3/namespaceleanux_1_1tools_1_1lrep.html#abb105274c50a277438a21f4c73e1d381" target="_top" xlink:title=" ">
<polygon fill="none" stroke="black" points="159.5,-284.5 159.5,-314.5 298.5,-314.5 298.5,-284.5 159.5,-284.5"/>
<text text-anchor="start" x="167.5" y="-302.5" font-family="Helvetica,sans-Serif" font-size="10.00">leanux::tools::lrep</text>
<text text-anchor="middle" x="229" y="-291.5" font-family="Helvetica,sans-Serif" font-size="10.00">::chartTCPClientTimeLine</text>
</a>
</g>
</g>
<!-- Node1&#45;&gt;Node2 -->
<g id="edge1" class="edge">
<title>Node1&#45;&gt;Node2</title>
<path fill="none" stroke="midnightblue" d="M404.65,-170.7C384.98,-197.3 344.95,-246.74 300,-275.5 294.7,-278.89 288.86,-281.87 282.89,-284.46"/>
<polygon fill="midnightblue" stroke="midnightblue" points="407.69,-172.47 410.73,-162.32 402.02,-168.36 407.69,-172.47"/>
</g>
<!-- Node6 -->
<g id="node4" class="node">
<title>Node6</title>
<g id="a_node4"><a xlink:href="../../d6/dd3/namespaceleanux_1_1tools_1_1lrep.html#afea1d8a7ccefd494266833dd4ecfa33d" target="_top" xlink:title=" ">
<polygon fill="none" stroke="black" points="158,-235.5 158,-265.5 300,-265.5 300,-235.5 158,-235.5"/>
<text text-anchor="start" x="166" y="-253.5" font-family="Helvetica,sans-Serif" font-size="10.00">leanux::tools::lrep</text>
<text text-anchor="middle" x="229" y="-242.5" font-family="Helvetica,sans-Serif" font-size="10.00">::chartTCPServerTimeLine</text>
</a>
</g>
</g>
<!-- Node1&#45;&gt;Node6 -->
<g id="edge3" class="edge">
<title>Node1&#45;&gt;Node6</title>
<path fill="none" stroke="midnightblue" d="M396.04,-168.16C373.13,-184.35 335.33,-209.6 300,-226.5 293.28,-229.72 286.01,-232.71 278.79,-235.41"/>
<polygon fill="midnightblue" stroke="midnightblue" points="398.24,-170.89 404.34,-162.23 394.17,-165.19 398.24,-170.89"/>
</g>
<!-- Node7 -->
<g id="node5" class="node">
<title>Node7</title>
<g id="a_node5"><a xlink:href="../../d6/dd3/namespaceleanux_1_1tools_1_1lrep.html#a7983053c5915fb29e807fe32e512dde8" target="_top" xlink:title=" ">
<polygon fill="none" stroke="black" points="174,-186.5 174,-216.5 284,-216.5 284,-186.5 174,-186.5"/>
<text text-anchor="start" x="182" y="-204.5" font-family="Helvetica,sans-Serif" font-size="10.00">leanux::tools::lrep</text>
<text text-anchor="middle" x="229" y="-193.5" font-family="Helvetica,sans-Serif" font-size="10.00">::chartUserAverage</text>
</a>
</g>
</g>
<!-- Node1&#45;&gt;Node7 -->
<g id="edge5" class="edge">
<title>Node1&#45;&gt;Node7</title>
<path fill="none" stroke="midnightblue" d="M371.18,-164.61C344.86,-171.48 311.79,-180.13 284.27,-187.32"/>
<polygon fill="midnightblue" stroke="midnightblue" points="372.11,-167.98 380.9,-162.06 370.34,-161.21 372.11,-167.98"/>
</g>
<!-- Node9 -->
<g id="node7" class="node">
<title>Node9</title>
<g id="a_node7"><a xlink:href="../../d6/dd3/namespaceleanux_1_1tools_1_1lrep.html#a8a9e58dc9034002621d2b57d4a51aad9" target="_top" xlink:title=" ">
<polygon fill="none" stroke="black" points="172.5,-137.5 172.5,-167.5 285.5,-167.5 285.5,-137.5 172.5,-137.5"/>
<text text-anchor="start" x="180.5" y="-155.5" font-family="Helvetica,sans-Serif" font-size="10.00">leanux::tools::lrep</text>
<text text-anchor="middle" x="229" y="-144.5" font-family="Helvetica,sans-Serif" font-size="10.00">::htmlCmdUidDetail</text>
</a>
</g>
</g>
<!-- Node1&#45;&gt;Node9 -->
<g id="edge7" class="edge">
<title>Node1&#45;&gt;Node9</title>
<path fill="none" stroke="midnightblue" d="M325.41,-152.5C311.79,-152.5 298.12,-152.5 285.55,-152.5"/>
<polygon fill="midnightblue" stroke="midnightblue" points="325.81,-156 335.81,-152.5 325.81,-149 325.81,-156"/>
</g>
<!-- Node11 -->
<g id="node9" class="node">
<title>Node11</title>
<g id="a_node9"><a xlink:href="../../d5/db8/namespaceleanux_1_1net.html#af20040d25d42409a31700017c6ff23e1" target="_top" xlink:title="Dump a TCP4Socket to stream.">
<polygon fill="none" stroke="black" points="161.5,-99 161.5,-118 296.5,-118 296.5,-99 161.5,-99"/>
<text text-anchor="middle" x="229" y="-106" font-family="Helvetica,sans-Serif" font-size="10.00">leanux::net::operator&lt;&lt;</text>
</a>
</g>
</g>
<!-- Node1&#45;&gt;Node11 -->
<g id="edge9" class="edge">
<title>Node1&#45;&gt;Node11</title>
<path fill="none" stroke="midnightblue" d="M366.89,-140.62C336.69,-133.54 298.84,-124.66 270.61,-118.03"/>
<polygon fill="midnightblue" stroke="midnightblue" points="366.28,-144.08 376.82,-142.95 367.88,-137.26 366.28,-144.08"/>
</g>
<!-- Node12 -->
<g id="node10" class="node">
<title>Node12</title>
<g id="a_node10"><a xlink:href="../../d6/d0a/classleanux_1_1tools_1_1lmon_1_1ProcessView.html#af3566e8ec176744fcd254c558de68eed" target="_top" xlink:title="Refresh/redraw the ProcessView.">
<polygon fill="none" stroke="black" points="164,-49.5 164,-79.5 294,-79.5 294,-49.5 164,-49.5"/>
<text text-anchor="start" x="172" y="-67.5" font-family="Helvetica,sans-Serif" font-size="10.00">leanux::tools::lmon</text>
<text text-anchor="middle" x="229" y="-56.5" font-family="Helvetica,sans-Serif" font-size="10.00">::ProcessView::xrefresh</text>
</a>
</g>
</g>
<!-- Node1&#45;&gt;Node12 -->
<g id="edge10" class="edge">
<title>Node1&#45;&gt;Node12</title>
<path fill="none" stroke="midnightblue" d="M392.63,-137.76C369.22,-124.22 332.91,-104.1 300,-89.5 292.1,-85.99 283.54,-82.61 275.2,-79.53"/>
<polygon fill="midnightblue" stroke="midnightblue" points="391.13,-140.94 401.54,-142.95 394.66,-134.89 391.13,-140.94"/>
</g>
<!-- Node13 -->
<g id="node11" class="node">
<title>Node13</title>
<g id="a_node11"><a xlink:href="../../df/dcc/classleanux_1_1tools_1_1lmon_1_1NetView.html#a0e5c6aa931081924ece2bd2407dfc000" target="_top" xlink:title="Refresh/redraw the ProcessView.">
<polygon fill="none" stroke="black" points="174,-0.5 174,-30.5 284,-30.5 284,-0.5 174,-0.5"/>
<text text-anchor="start" x="182" y="-18.5" font-family="Helvetica,sans-Serif" font-size="10.00">leanux::tools::lmon</text>
<text text-anchor="middle" x="229" y="-7.5" font-family="Helvetica,sans-Serif" font-size="10.00">::NetView::xrefresh</text>
</a>
</g>
</g>
<!-- Node1&#45;&gt;Node13 -->
<g id="edge11" class="edge">
<title>Node1&#45;&gt;Node13</title>
<path fill="none" stroke="midnightblue" d="M403.71,-135.11C383.42,-110.58 343.22,-65.88 300,-39.5 294.52,-36.15 288.51,-33.2 282.38,-30.61"/>
<polygon fill="midnightblue" stroke="midnightblue" points="401,-137.33 410.03,-142.88 406.43,-132.91 401,-137.33"/>
</g>
<!-- Node3 -->
<g id="node3" class="node">
<title>Node3</title>
<g id="a_node3"><a xlink:href="../../d6/dd3/namespaceleanux_1_1tools_1_1lrep.html#a6f351b4134bb9689630c092625774c9d" target="_top" xlink:title=" ">
<polygon fill="none" stroke="red" points="9,-259.5 9,-289.5 113,-289.5 113,-259.5 9,-259.5"/>
<text text-anchor="start" x="17" y="-277.5" font-family="Helvetica,sans-Serif" font-size="10.00">leanux::tools::lrep</text>
<text text-anchor="middle" x="61" y="-266.5" font-family="Helvetica,sans-Serif" font-size="10.00">::htmlTimeLines</text>
</a>
</g>
</g>
<!-- Node2&#45;&gt;Node3 -->
<g id="edge2" class="edge">
<title>Node2&#45;&gt;Node3</title>
<path fill="none" stroke="midnightblue" d="M148.86,-287.58C136.67,-285.75 124.38,-283.89 113.02,-282.18"/>
<polygon fill="midnightblue" stroke="midnightblue" points="148.63,-291.09 159.04,-289.11 149.68,-284.16 148.63,-291.09"/>
</g>
<!-- Node6&#45;&gt;Node3 -->
<g id="edge4" class="edge">
<title>Node6&#45;&gt;Node3</title>
<path fill="none" stroke="midnightblue" d="M147.45,-262.15C135.85,-263.82 124.19,-265.51 113.37,-267.07"/>
<polygon fill="midnightblue" stroke="midnightblue" points="148.2,-265.57 157.6,-260.68 147.2,-258.65 148.2,-265.57"/>
</g>
<!-- Node8 -->
<g id="node6" class="node">
<title>Node8</title>
<g id="a_node6"><a xlink:href="../../d6/dd3/namespaceleanux_1_1tools_1_1lrep.html#ae8f0cfa4040dda0d19fe047d8a186a59" target="_top" xlink:title=" ">
<polygon fill="none" stroke="red" points="0,-186.5 0,-216.5 122,-216.5 122,-186.5 0,-186.5"/>
<text text-anchor="start" x="8" y="-204.5" font-family="Helvetica,sans-Serif" font-size="10.00">leanux::tools::lrep</text>
<text text-anchor="middle" x="61" y="-193.5" font-family="Helvetica,sans-Serif" font-size="10.00">::htmlReportAverages</text>
</a>
</g>
</g>
<!-- Node7&#45;&gt;Node8 -->
<g id="edge6" class="edge">
<title>Node7&#45;&gt;Node8</title>
<path fill="none" stroke="midnightblue" d="M163.43,-201.5C149.87,-201.5 135.61,-201.5 122.22,-201.5"/>
<polygon fill="midnightblue" stroke="midnightblue" points="163.65,-205 173.65,-201.5 163.65,-198 163.65,-205"/>
</g>
<!-- Node10 -->
<g id="node8" class="node">
<title>Node10</title>
<g id="a_node8"><a xlink:href="../../d6/dd3/namespaceleanux_1_1tools_1_1lrep.html#a62c03f9d98087191a6d6473c7384fa74" target="_top" xlink:title=" ">
<polygon fill="none" stroke="red" points="9,-137.5 9,-167.5 113,-167.5 113,-137.5 9,-137.5"/>
<text text-anchor="start" x="17" y="-155.5" font-family="Helvetica,sans-Serif" font-size="10.00">leanux::tools::lrep</text>
<text text-anchor="middle" x="61" y="-144.5" font-family="Helvetica,sans-Serif" font-size="10.00">::htmlCmdDetails</text>
</a>
</g>
</g>
<!-- Node9&#45;&gt;Node10 -->
<g id="edge8" class="edge">
<title>Node9&#45;&gt;Node10</title>
<path fill="none" stroke="midnightblue" d="M162.24,-152.5C145.9,-152.5 128.63,-152.5 113.11,-152.5"/>
<polygon fill="midnightblue" stroke="midnightblue" points="162.26,-156 172.26,-152.5 162.26,-149 162.26,-156"/>
</g>
</g>
</svg>
