<?xml version="1.0" encoding="UTF-8" standalone="no"?>
<!DOCTYPE svg PUBLIC "-//W3C//DTD SVG 1.1//EN"
 "http://www.w3.org/Graphics/SVG/1.1/DTD/svg11.dtd">
<!-- Generated by graphviz version 2.43.0 (0)
 -->
<!-- Title: leanux::system::getOpenFiles Pages: 1 -->
<svg width="587pt" height="88pt"
 viewBox="0.00 0.00 587.00 88.00" xmlns="http://www.w3.org/2000/svg" xmlns:xlink="http://www.w3.org/1999/xlink">
<g id="graph0" class="graph" transform="scale(1 1) rotate(0) translate(4 84)">
<title>leanux::system::getOpenFiles</title>
<!-- Node1 -->
<g id="node1" class="node">
<title>Node1</title>
<g id="a_node1"><a xlink:title="get the current and maximum number of open files.">
<polygon fill="#bfbfbf" stroke="black" points="418,-30 418,-49 579,-49 579,-30 418,-30"/>
<text text-anchor="middle" x="498.5" y="-37" font-family="Helvetica,sans-Serif" font-size="10.00">leanux::system::getOpenFiles</text>
</a>
</g>
</g>
<!-- Node2 -->
<g id="node2" class="node">
<title>Node2</title>
<g id="a_node2"><a xlink:href="../../da/d21/classleanux_1_1tools_1_1lmon_1_1RealtimeSampler.html#a8de42eb5d528bfa157565a81a16ae5bd" target="_top" xlink:title=" ">
<polygon fill="none" stroke="black" points="185,-49.5 185,-79.5 382,-79.5 382,-49.5 185,-49.5"/>
<text text-anchor="start" x="193" y="-67.5" font-family="Helvetica,sans-Serif" font-size="10.00">leanux::tools::lmon</text>
<text text-anchor="middle" x="283.5" y="-56.5" font-family="Helvetica,sans-Serif" font-size="10.00">::RealtimeSampler::sampleXSysView</text>
</a>
</g>
</g>
<!-- Node1&#45;&gt;Node2 -->
<g id="edge1" class="edge">
<title>Node1&#45;&gt;Node2</title>
<path fill="none" stroke="midnightblue" d="M407.92,-50.01C399.36,-51.02 390.65,-52.04 382.02,-53.05"/>
<polygon fill="midnightblue" stroke="midnightblue" points="408.36,-53.49 417.88,-48.84 407.54,-46.53 408.36,-53.49"/>
</g>
<!-- Node8 -->
<g id="node4" class="node">
<title>Node8</title>
<g id="a_node4"><a xlink:href="../../d4/d46/classleanux_1_1tools_1_1lard_1_1ResSnap.html#a03496036d673feae3ae05cd1106c2858" target="_top" xlink:title=" ">
<polygon fill="none" stroke="black" points="224,-0.5 224,-30.5 343,-30.5 343,-0.5 224,-0.5"/>
<text text-anchor="start" x="232" y="-18.5" font-family="Helvetica,sans-Serif" font-size="10.00">leanux::tools::lard</text>
<text text-anchor="middle" x="283.5" y="-7.5" font-family="Helvetica,sans-Serif" font-size="10.00">::ResSnap::storeSnap</text>
</a>
</g>
</g>
<!-- Node1&#45;&gt;Node8 -->
<g id="edge3" class="edge">
<title>Node1&#45;&gt;Node8</title>
<path fill="none" stroke="midnightblue" d="M407.9,-29.4C385.99,-26.94 363.1,-24.36 343.07,-22.1"/>
<polygon fill="midnightblue" stroke="midnightblue" points="407.55,-32.89 417.88,-30.53 408.34,-25.93 407.55,-32.89"/>
</g>
<!-- Node3 -->
<g id="node3" class="node">
<title>Node3</title>
<g id="a_node3"><a xlink:href="../../da/d21/classleanux_1_1tools_1_1lmon_1_1RealtimeSampler.html#a9522a4a46961eb4f75d3207da1efd07f" target="_top" xlink:title="Sample a snapshot.">
<polygon fill="none" stroke="red" points="0,-49.5 0,-79.5 149,-79.5 149,-49.5 0,-49.5"/>
<text text-anchor="start" x="8" y="-67.5" font-family="Helvetica,sans-Serif" font-size="10.00">leanux::tools::lmon</text>
<text text-anchor="middle" x="74.5" y="-56.5" font-family="Helvetica,sans-Serif" font-size="10.00">::RealtimeSampler::sample</text>
</a>
</g>
</g>
<!-- Node2&#45;&gt;Node3 -->
<g id="edge2" class="edge">
<title>Node2&#45;&gt;Node3</title>
<path fill="none" stroke="midnightblue" d="M174.68,-64.5C166.1,-64.5 157.55,-64.5 149.29,-64.5"/>
<polygon fill="midnightblue" stroke="midnightblue" points="174.76,-68 184.76,-64.5 174.76,-61 174.76,-68"/>
</g>
<!-- Node9 -->
<g id="node5" class="node">
<title>Node9</title>
<g id="a_node5"><a xlink:href="../../d4/d62/namespaceleanux_1_1tools_1_1lard.html#a6de74bbef1d571bf7eb000e62900a11d" target="_top" xlink:title=" ">
<polygon fill="none" stroke="red" points="22.5,-0.5 22.5,-30.5 126.5,-30.5 126.5,-0.5 22.5,-0.5"/>
<text text-anchor="start" x="30.5" y="-18.5" font-family="Helvetica,sans-Serif" font-size="10.00">leanux::tools::lard</text>
<text text-anchor="middle" x="74.5" y="-7.5" font-family="Helvetica,sans-Serif" font-size="10.00">::mainLoop</text>
</a>
</g>
</g>
<!-- Node8&#45;&gt;Node9 -->
<g id="edge4" class="edge">
<title>Node8&#45;&gt;Node9</title>
<path fill="none" stroke="midnightblue" d="M213.48,-15.5C185.12,-15.5 152.86,-15.5 126.67,-15.5"/>
<polygon fill="midnightblue" stroke="midnightblue" points="213.74,-19 223.74,-15.5 213.74,-12 213.74,-19"/>
</g>
</g>
</svg>
