<?xml version="1.0" encoding="UTF-8" standalone="no"?>
<!DOCTYPE svg PUBLIC "-//W3C//DTD SVG 1.1//EN"
 "http://www.w3.org/Graphics/SVG/1.1/DTD/svg11.dtd">
<!-- Generated by graphviz version 2.43.0 (0)
 -->
<!-- Title: leanux::system::getDistribution Pages: 1 -->
<svg width="415pt" height="302pt"
 viewBox="0.00 0.00 415.00 301.50" xmlns="http://www.w3.org/2000/svg" xmlns:xlink="http://www.w3.org/1999/xlink">
<g id="graph0" class="graph" transform="scale(1 1) rotate(0) translate(4 297.5)">
<title>leanux::system::getDistribution</title>
<!-- Node1 -->
<g id="node1" class="node">
<title>Node1</title>
<g id="a_node1"><a xlink:title="Detect the GNU/Linux distribution.">
<polygon fill="#bfbfbf" stroke="black" points="0,-143 0,-162 170,-162 170,-143 0,-143"/>
<text text-anchor="middle" x="85" y="-150" font-family="Helvetica,sans-Serif" font-size="10.00">leanux::system::getDistribution</text>
</a>
</g>
</g>
<!-- Node2 -->
<g id="node2" class="node">
<title>Node2</title>
<g id="a_node2"><a xlink:href="../../d8/db1/namespaceleanux_1_1util.html#a6421ca2c46c56eebe1a486c6a498ce7d" target="_top" xlink:title="Test if a file exists and can be read.">
<polygon fill="none" stroke="black" points="231,-274 231,-293 382,-293 382,-274 231,-274"/>
<text text-anchor="middle" x="306.5" y="-281" font-family="Helvetica,sans-Serif" font-size="10.00">leanux::util::fileReadAccess</text>
</a>
</g>
</g>
<!-- Node1&#45;&gt;Node2 -->
<g id="edge1" class="edge">
<title>Node1&#45;&gt;Node2</title>
<path fill="none" stroke="midnightblue" d="M93.16,-162.2C110.08,-184.31 154.93,-238.57 206,-264.5 210.85,-266.96 215.98,-269.11 221.26,-270.98"/>
<polygon fill="midnightblue" stroke="midnightblue" points="220.28,-274.34 230.87,-274.05 222.41,-267.67 220.28,-274.34"/>
</g>
<!-- Node3 -->
<g id="node3" class="node">
<title>Node3</title>
<g id="a_node3"><a xlink:href="../../d8/db1/namespaceleanux_1_1util.html#a57bfd49353610b3d0b6d121b264c676e" target="_top" xlink:title="read the file as a single string.">
<polygon fill="none" stroke="black" points="233.5,-236 233.5,-255 379.5,-255 379.5,-236 233.5,-236"/>
<text text-anchor="middle" x="306.5" y="-243" font-family="Helvetica,sans-Serif" font-size="10.00">leanux::util::fileReadString</text>
</a>
</g>
</g>
<!-- Node1&#45;&gt;Node3 -->
<g id="edge2" class="edge">
<title>Node1&#45;&gt;Node3</title>
<path fill="none" stroke="midnightblue" d="M98.16,-162.12C118.97,-178.08 163.34,-209.92 206,-226.5 212.95,-229.2 220.33,-231.53 227.81,-233.53"/>
<polygon fill="midnightblue" stroke="midnightblue" points="227.11,-236.97 237.66,-235.99 228.8,-230.17 227.11,-236.97"/>
</g>
<!-- Node4 -->
<g id="node4" class="node">
<title>Node4</title>
<g id="a_node4"><a xlink:href="../../dd/d42/namespaceleanux_1_1system.html#aed132a8f45eaf49bface294263301b1b" target="_top" xlink:title="Read the DISTRIB_DESCRIPTION from /etc/lsb&#45;release.">
<polygon fill="none" stroke="black" points="218.5,-186.5 218.5,-216.5 394.5,-216.5 394.5,-186.5 218.5,-186.5"/>
<text text-anchor="start" x="226.5" y="-204.5" font-family="Helvetica,sans-Serif" font-size="10.00">leanux::system::readLSBRelease</text>
<text text-anchor="middle" x="306.5" y="-193.5" font-family="Helvetica,sans-Serif" font-size="10.00">DistribDescription</text>
</a>
</g>
</g>
<!-- Node1&#45;&gt;Node4 -->
<g id="edge3" class="edge">
<title>Node1&#45;&gt;Node4</title>
<path fill="none" stroke="midnightblue" d="M128.58,-162.01C156.84,-168.31 194.74,-176.77 228.22,-184.25"/>
<polygon fill="midnightblue" stroke="midnightblue" points="227.46,-187.67 237.99,-186.43 228.99,-180.83 227.46,-187.67"/>
</g>
<!-- Node5 -->
<g id="node5" class="node">
<title>Node5</title>
<g id="a_node5"><a xlink:href="../../dd/d42/namespaceleanux_1_1system.html#ad8234be7a364508d2c6a6f107a3631a1" target="_top" xlink:title="Read the DISTRIB_ID from /etc/lsb&#45;release.">
<polygon fill="none" stroke="black" points="218.5,-137.5 218.5,-167.5 394.5,-167.5 394.5,-137.5 218.5,-137.5"/>
<text text-anchor="start" x="226.5" y="-155.5" font-family="Helvetica,sans-Serif" font-size="10.00">leanux::system::readLSBRelease</text>
<text text-anchor="middle" x="306.5" y="-144.5" font-family="Helvetica,sans-Serif" font-size="10.00">DistribId</text>
</a>
</g>
</g>
<!-- Node1&#45;&gt;Node5 -->
<g id="edge4" class="edge">
<title>Node1&#45;&gt;Node5</title>
<path fill="none" stroke="midnightblue" d="M170.24,-152.5C182.64,-152.5 195.5,-152.5 208.14,-152.5"/>
<polygon fill="midnightblue" stroke="midnightblue" points="208.22,-156 218.22,-152.5 208.22,-149 208.22,-156"/>
</g>
<!-- Node6 -->
<g id="node6" class="node">
<title>Node6</title>
<g id="a_node6"><a xlink:href="../../dd/d42/namespaceleanux_1_1system.html#a09df94941748f400e8851f4580d55b4c" target="_top" xlink:title="Read the ID from /etc/os&#45;release.">
<polygon fill="none" stroke="black" points="220.5,-88.5 220.5,-118.5 392.5,-118.5 392.5,-88.5 220.5,-88.5"/>
<text text-anchor="start" x="228.5" y="-106.5" font-family="Helvetica,sans-Serif" font-size="10.00">leanux::system::readOSRelease</text>
<text text-anchor="middle" x="306.5" y="-95.5" font-family="Helvetica,sans-Serif" font-size="10.00">DistribId</text>
</a>
</g>
</g>
<!-- Node1&#45;&gt;Node6 -->
<g id="edge5" class="edge">
<title>Node1&#45;&gt;Node6</title>
<path fill="none" stroke="midnightblue" d="M128.58,-142.99C156.84,-136.69 194.74,-128.23 228.22,-120.75"/>
<polygon fill="midnightblue" stroke="midnightblue" points="228.99,-124.17 237.99,-118.57 227.46,-117.33 228.99,-124.17"/>
</g>
<!-- Node7 -->
<g id="node7" class="node">
<title>Node7</title>
<g id="a_node7"><a xlink:href="../../dd/d42/namespaceleanux_1_1system.html#ab4e7b5d36c918f7655be2fc23056c1c2" target="_top" xlink:title="Read the NAME from /etc/os&#45;release.">
<polygon fill="none" stroke="black" points="206,-50 206,-69 407,-69 407,-50 206,-50"/>
<text text-anchor="middle" x="306.5" y="-57" font-family="Helvetica,sans-Serif" font-size="10.00">leanux::system::readOSReleaseName</text>
</a>
</g>
</g>
<!-- Node1&#45;&gt;Node7 -->
<g id="edge6" class="edge">
<title>Node1&#45;&gt;Node7</title>
<path fill="none" stroke="midnightblue" d="M98.53,-142.81C119.55,-127.06 163.75,-96.01 206,-79.5 214.05,-76.36 222.67,-73.68 231.34,-71.41"/>
<polygon fill="midnightblue" stroke="midnightblue" points="232.24,-74.8 241.12,-69.02 230.58,-68 232.24,-74.8"/>
</g>
<!-- Node8 -->
<g id="node8" class="node">
<title>Node8</title>
<g id="a_node8"><a xlink:href="../../dd/d42/namespaceleanux_1_1system.html#a06b51abf1e4d492f1c75f47a1bbff1f3" target="_top" xlink:title="Read the VERSION from /etc/os&#45;release.">
<polygon fill="none" stroke="black" points="220.5,-0.5 220.5,-30.5 392.5,-30.5 392.5,-0.5 220.5,-0.5"/>
<text text-anchor="start" x="228.5" y="-18.5" font-family="Helvetica,sans-Serif" font-size="10.00">leanux::system::readOSRelease</text>
<text text-anchor="middle" x="306.5" y="-7.5" font-family="Helvetica,sans-Serif" font-size="10.00">Version</text>
</a>
</g>
</g>
<!-- Node1&#45;&gt;Node8 -->
<g id="edge7" class="edge">
<title>Node1&#45;&gt;Node8</title>
<path fill="none" stroke="midnightblue" d="M93.53,-142.68C110.86,-120.78 155.94,-67.75 206,-40.5 210.23,-38.2 214.67,-36.11 219.23,-34.2"/>
<polygon fill="midnightblue" stroke="midnightblue" points="220.67,-37.4 228.75,-30.55 218.16,-30.86 220.67,-37.4"/>
</g>
</g>
</svg>
