<?xml version="1.0" encoding="UTF-8" standalone="no"?>
<!DOCTYPE svg PUBLIC "-//W3C//DTD SVG 1.1//EN"
 "http://www.w3.org/Graphics/SVG/1.1/DTD/svg11.dtd">
<!-- Generated by graphviz version 2.43.0 (0)
 -->
<!-- Title: leanux::tools::lmon::XIOView Pages: 1 -->
<svg width="771pt" height="238pt"
 viewBox="0.00 0.00 771.00 238.00" xmlns="http://www.w3.org/2000/svg" xmlns:xlink="http://www.w3.org/1999/xlink">
<g id="graph0" class="graph" transform="scale(1 1) rotate(0) translate(4 234)">
<title>leanux::tools::lmon::XIOView</title>
<!-- Node1 -->
<g id="node1" class="node">
<title>Node1</title>
<g id="a_node1"><a xlink:title="Data record for IOView display.">
<polygon fill="#bfbfbf" stroke="black" points="653,-97 653,-127 763,-127 763,-97 653,-97"/>
<text text-anchor="start" x="661" y="-115" font-family="Helvetica,sans-Serif" font-size="10.00">leanux::tools::lmon</text>
<text text-anchor="middle" x="708" y="-104" font-family="Helvetica,sans-Serif" font-size="10.00">::XIOView</text>
</a>
</g>
</g>
<!-- Node2 -->
<g id="node2" class="node">
<title>Node2</title>
<g id="a_node2"><a xlink:title=" ">
<polygon fill="none" stroke="#bfbfbf" points="162.5,-199.5 162.5,-218.5 247.5,-218.5 247.5,-199.5 162.5,-199.5"/>
<text text-anchor="middle" x="205" y="-206.5" font-family="Helvetica,sans-Serif" font-size="10.00">unsigned long</text>
</a>
</g>
</g>
<!-- Node2&#45;&gt;Node1 -->
<g id="edge1" class="edge">
<title>Node2&#45;&gt;Node1</title>
<path fill="none" stroke="#9a32cd" stroke-dasharray="5,2" d="M257.66,-215.91C341.23,-224.74 509.36,-232.68 635,-175 659.15,-163.91 681.24,-142.08 694.41,-127.26"/>
<polygon fill="#9a32cd" stroke="#9a32cd" points="257.98,-212.42 247.66,-214.8 257.21,-219.38 257.98,-212.42"/>
<text text-anchor="middle" x="497" y="-222" font-family="Helvetica,sans-Serif" font-size="10.00"> sample_count</text>
</g>
<!-- Node3 -->
<g id="node3" class="node">
<title>Node3</title>
<g id="a_node3"><a xlink:title=" ">
<polygon fill="none" stroke="#bfbfbf" points="436,-146 436,-176 558,-176 558,-146 436,-146"/>
<text text-anchor="start" x="444" y="-164" font-family="Helvetica,sans-Serif" font-size="10.00">std::map&lt; std::string,</text>
<text text-anchor="middle" x="497" y="-153" font-family="Helvetica,sans-Serif" font-size="10.00"> unsigned long &gt;</text>
</a>
</g>
</g>
<!-- Node2&#45;&gt;Node3 -->
<g id="edge3" class="edge">
<title>Node2&#45;&gt;Node3</title>
<path fill="none" stroke="#9a32cd" stroke-dasharray="5,2" d="M257.69,-197.87C264.51,-196.51 271.41,-195.18 278,-194 331.12,-184.45 391.86,-175.41 435.71,-169.22"/>
<polygon fill="#9a32cd" stroke="#9a32cd" points="256.91,-194.46 247.8,-199.88 258.3,-201.32 256.91,-194.46"/>
<text text-anchor="middle" x="348" y="-197" font-family="Helvetica,sans-Serif" font-size="10.00"> elements</text>
</g>
<!-- Node3&#45;&gt;Node1 -->
<g id="edge2" class="edge">
<title>Node3&#45;&gt;Node1</title>
<path fill="none" stroke="#9a32cd" stroke-dasharray="5,2" d="M568.2,-150.93C589.79,-147.24 613.51,-142.57 635,-137 645.63,-134.24 656.94,-130.64 667.36,-127.04"/>
<polygon fill="#9a32cd" stroke="#9a32cd" points="567.42,-147.51 558.13,-152.61 568.57,-154.42 567.42,-147.51"/>
<text text-anchor="middle" x="605.5" y="-163" font-family="Helvetica,sans-Serif" font-size="10.00"> fsbytes1</text>
<text text-anchor="middle" x="605.5" y="-152" font-family="Helvetica,sans-Serif" font-size="10.00">fsbytes2</text>
</g>
<!-- Node4 -->
<g id="node4" class="node">
<title>Node4</title>
<g id="a_node4"><a xlink:title="STL class.">
<polygon fill="none" stroke="#bfbfbf" points="0,-90.5 0,-109.5 65,-109.5 65,-90.5 0,-90.5"/>
<text text-anchor="middle" x="32.5" y="-97.5" font-family="Helvetica,sans-Serif" font-size="10.00">std::string</text>
</a>
</g>
</g>
<!-- Node4&#45;&gt;Node3 -->
<g id="edge4" class="edge">
<title>Node4&#45;&gt;Node3</title>
<path fill="none" stroke="#9a32cd" stroke-dasharray="5,2" d="M71.7,-112.33C75.5,-113.33 79.31,-114.24 83,-115 207.02,-140.47 355.1,-152.64 435.96,-157.77"/>
<polygon fill="#9a32cd" stroke="#9a32cd" points="72.38,-108.89 61.8,-109.55 70.48,-115.62 72.38,-108.89"/>
<text text-anchor="middle" x="205" y="-145" font-family="Helvetica,sans-Serif" font-size="10.00"> keys</text>
</g>
<!-- Node6 -->
<g id="node5" class="node">
<title>Node6</title>
<g id="a_node5"><a xlink:title=" ">
<polygon fill="none" stroke="#bfbfbf" points="436,-97 436,-127 558,-127 558,-97 436,-97"/>
<text text-anchor="start" x="444" y="-115" font-family="Helvetica,sans-Serif" font-size="10.00">std::map&lt; std::string,</text>
<text text-anchor="middle" x="497" y="-104" font-family="Helvetica,sans-Serif" font-size="10.00"> XIORec &gt;</text>
</a>
</g>
</g>
<!-- Node4&#45;&gt;Node6 -->
<g id="edge8" class="edge">
<title>Node4&#45;&gt;Node6</title>
<path fill="none" stroke="#9a32cd" stroke-dasharray="5,2" d="M75.52,-101.09C157.8,-103.22 340.43,-107.96 435.63,-110.43"/>
<polygon fill="#9a32cd" stroke="#9a32cd" points="75.38,-97.59 65.29,-100.82 75.2,-104.58 75.38,-97.59"/>
<text text-anchor="middle" x="205" y="-108" font-family="Helvetica,sans-Serif" font-size="10.00"> keys</text>
</g>
<!-- Node7 -->
<g id="node6" class="node">
<title>Node7</title>
<g id="a_node6"><a xlink:href="../../da/dbe/namespaceleanux_1_1tools_1_1lmon.html#d5/db7/structleanux_1_1tools_1_1lmon_1_1XIORec" target="_top" xlink:title="I/O statistics in a form suitable for XIOView.">
<polygon fill="none" stroke="red" points="150,-46 150,-76 260,-76 260,-46 150,-46"/>
<text text-anchor="start" x="158" y="-64" font-family="Helvetica,sans-Serif" font-size="10.00">leanux::tools::lmon</text>
<text text-anchor="middle" x="205" y="-53" font-family="Helvetica,sans-Serif" font-size="10.00">::XIORec</text>
</a>
</g>
</g>
<!-- Node4&#45;&gt;Node7 -->
<g id="edge7" class="edge">
<title>Node4&#45;&gt;Node7</title>
<path fill="none" stroke="#9a32cd" stroke-dasharray="5,2" d="M74.98,-89.88C77.69,-89.24 80.39,-88.61 83,-88 104.8,-82.93 128.86,-77.52 149.74,-72.89"/>
<polygon fill="#9a32cd" stroke="#9a32cd" points="74.08,-86.5 65.17,-92.23 75.71,-93.31 74.08,-86.5"/>
<text text-anchor="middle" x="107.5" y="-91" font-family="Helvetica,sans-Serif" font-size="10.00"> device</text>
</g>
<!-- Node10 -->
<g id="node8" class="node">
<title>Node10</title>
<g id="a_node8"><a xlink:title=" ">
<polygon fill="none" stroke="#bfbfbf" points="278,-26.5 278,-45.5 418,-45.5 418,-26.5 278,-26.5"/>
<text text-anchor="middle" x="348" y="-33.5" font-family="Helvetica,sans-Serif" font-size="10.00">std::vector&lt; std::string &gt;</text>
</a>
</g>
</g>
<!-- Node4&#45;&gt;Node10 -->
<g id="edge11" class="edge">
<title>Node4&#45;&gt;Node10</title>
<path fill="none" stroke="#9a32cd" stroke-dasharray="5,2" d="M52.05,-83.65C60.97,-76.35 72.08,-68.05 83,-62 110.8,-46.6 118.74,-42.72 150,-37 191.88,-29.33 239.62,-28.88 277.62,-30.45"/>
<polygon fill="#9a32cd" stroke="#9a32cd" points="49.63,-81.11 44.24,-90.23 54.14,-86.46 49.63,-81.11"/>
<text text-anchor="middle" x="107.5" y="-65" font-family="Helvetica,sans-Serif" font-size="10.00"> elements</text>
</g>
<!-- Node6&#45;&gt;Node1 -->
<g id="edge5" class="edge">
<title>Node6&#45;&gt;Node1</title>
<path fill="none" stroke="#9a32cd" stroke-dasharray="5,2" d="M568.18,-112C595.84,-112 627.1,-112 652.95,-112"/>
<polygon fill="#9a32cd" stroke="#9a32cd" points="568.17,-108.5 558.17,-112 568.17,-115.5 568.17,-108.5"/>
<text text-anchor="middle" x="605.5" y="-126" font-family="Helvetica,sans-Serif" font-size="10.00"> mountstats</text>
<text text-anchor="middle" x="605.5" y="-115" font-family="Helvetica,sans-Serif" font-size="10.00">iostats</text>
</g>
<!-- Node7&#45;&gt;Node6 -->
<g id="edge6" class="edge">
<title>Node7&#45;&gt;Node6</title>
<path fill="none" stroke="#9a32cd" stroke-dasharray="5,2" d="M270.18,-66.28C312.48,-70.47 368.92,-77.41 418,-88 429.08,-90.39 440.85,-93.63 451.8,-96.96"/>
<polygon fill="#9a32cd" stroke="#9a32cd" points="270.31,-62.78 260.02,-65.3 269.63,-69.74 270.31,-62.78"/>
<text text-anchor="middle" x="348" y="-91" font-family="Helvetica,sans-Serif" font-size="10.00"> elements</text>
</g>
<!-- Node9 -->
<g id="node7" class="node">
<title>Node9</title>
<g id="a_node7"><a xlink:title=" ">
<polygon fill="none" stroke="#bfbfbf" points="454.5,-0.5 454.5,-19.5 539.5,-19.5 539.5,-0.5 454.5,-0.5"/>
<text text-anchor="middle" x="497" y="-7.5" font-family="Helvetica,sans-Serif" font-size="10.00">struct timeval</text>
</a>
</g>
</g>
<!-- Node9&#45;&gt;Node1 -->
<g id="edge9" class="edge">
<title>Node9&#45;&gt;Node1</title>
<path fill="none" stroke="#9a32cd" stroke-dasharray="5,2" d="M549.68,-4.12C576.58,-3.36 609.16,-6.22 635,-20 667.04,-37.08 689.47,-75.25 700.07,-96.67"/>
<polygon fill="#9a32cd" stroke="#9a32cd" points="549.5,-0.62 539.67,-4.57 549.82,-7.61 549.5,-0.62"/>
<text text-anchor="middle" x="605.5" y="-34" font-family="Helvetica,sans-Serif" font-size="10.00"> t1</text>
<text text-anchor="middle" x="605.5" y="-23" font-family="Helvetica,sans-Serif" font-size="10.00">t2</text>
</g>
<!-- Node10&#45;&gt;Node1 -->
<g id="edge10" class="edge">
<title>Node10&#45;&gt;Node1</title>
<path fill="none" stroke="#9a32cd" stroke-dasharray="5,2" d="M428.26,-44.4C467.55,-49.32 515.56,-56.46 558,-66 594.45,-74.19 634.9,-86.92 664.45,-96.91"/>
<polygon fill="#9a32cd" stroke="#9a32cd" points="428.56,-40.92 418.21,-43.17 427.71,-47.86 428.56,-40.92"/>
<text text-anchor="middle" x="497" y="-80" font-family="Helvetica,sans-Serif" font-size="10.00"> mountsorted</text>
<text text-anchor="middle" x="497" y="-69" font-family="Helvetica,sans-Serif" font-size="10.00">iosorted</text>
</g>
</g>
</svg>
