<?xml version="1.0" encoding="UTF-8" standalone="no"?>
<!DOCTYPE svg PUBLIC "-//W3C//DTD SVG 1.1//EN"
 "http://www.w3.org/Graphics/SVG/1.1/DTD/svg11.dtd">
<!-- Generated by graphviz version 2.43.0 (0)
 -->
<!-- Title: leanux::usb::USBHardwareInfo Pages: 1 -->
<svg width="173pt" height="174pt"
 viewBox="0.00 0.00 173.00 174.00" xmlns="http://www.w3.org/2000/svg" xmlns:xlink="http://www.w3.org/1999/xlink">
<g id="graph0" class="graph" transform="scale(1 1) rotate(0) translate(4 170)">
<title>leanux::usb::USBHardwareInfo</title>
<!-- Node1 -->
<g id="node1" class="node">
<title>Node1</title>
<g id="a_node1"><a xlink:title="human readable USBHardwareId translated through usb.ids.">
<polygon fill="#bfbfbf" stroke="black" points="0,-0.5 0,-19.5 165,-19.5 165,-0.5 0,-0.5"/>
<text text-anchor="middle" x="82.5" y="-7.5" font-family="Helvetica,sans-Serif" font-size="10.00">leanux::usb::USBHardwareInfo</text>
</a>
</g>
</g>
<!-- Node2 -->
<g id="node2" class="node">
<title>Node2</title>
<g id="a_node2"><a xlink:title="STL class.">
<polygon fill="none" stroke="#bfbfbf" points="50,-78.5 50,-97.5 115,-97.5 115,-78.5 50,-78.5"/>
<text text-anchor="middle" x="82.5" y="-85.5" font-family="Helvetica,sans-Serif" font-size="10.00">std::string</text>
</a>
</g>
</g>
<!-- Node2&#45;&gt;Node1 -->
<g id="edge1" class="edge">
<title>Node2&#45;&gt;Node1</title>
<path fill="none" stroke="#9a32cd" stroke-dasharray="5,2" d="M82.5,-68.22C82.5,-52.7 82.5,-31.36 82.5,-19.62"/>
<polygon fill="#9a32cd" stroke="#9a32cd" points="79,-68.28 82.5,-78.28 86,-68.28 79,-68.28"/>
<text text-anchor="middle" x="105.5" y="-52" font-family="Helvetica,sans-Serif" font-size="10.00"> idVendor</text>
<text text-anchor="middle" x="105.5" y="-41" font-family="Helvetica,sans-Serif" font-size="10.00">idProduct</text>
</g>
<!-- Node3 -->
<g id="node3" class="node">
<title>Node3</title>
<g id="a_node3"><a xlink:title="STL class.">
<polygon fill="none" stroke="#bfbfbf" points="30.5,-135.5 30.5,-165.5 134.5,-165.5 134.5,-135.5 30.5,-135.5"/>
<text text-anchor="start" x="38.5" y="-153.5" font-family="Helvetica,sans-Serif" font-size="10.00">std::basic_string&lt;</text>
<text text-anchor="middle" x="82.5" y="-142.5" font-family="Helvetica,sans-Serif" font-size="10.00"> char &gt;</text>
</a>
</g>
</g>
<!-- Node3&#45;&gt;Node2 -->
<g id="edge2" class="edge">
<title>Node3&#45;&gt;Node2</title>
<path fill="none" stroke="midnightblue" d="M82.5,-125.35C82.5,-115.51 82.5,-104.78 82.5,-97.54"/>
<polygon fill="midnightblue" stroke="midnightblue" points="79,-125.47 82.5,-135.47 86,-125.47 79,-125.47"/>
</g>
</g>
</svg>
