<?xml version="1.0" encoding="UTF-8" standalone="no"?>
<!DOCTYPE svg PUBLIC "-//W3C//DTD SVG 1.1//EN"
 "http://www.w3.org/Graphics/SVG/1.1/DTD/svg11.dtd">
<!-- Generated by graphviz version 2.43.0 (0)
 -->
<!-- Title: leanux::sysdevice::iSCSIDevice::getDescription Pages: 1 -->
<svg width="925pt" height="241pt"
 viewBox="0.00 0.00 925.00 241.00" xmlns="http://www.w3.org/2000/svg" xmlns:xlink="http://www.w3.org/1999/xlink">
<g id="graph0" class="graph" transform="scale(1 1) rotate(0) translate(4 237)">
<title>leanux::sysdevice::iSCSIDevice::getDescription</title>
<!-- Node1 -->
<g id="node1" class="node">
<title>Node1</title>
<g id="a_node1"><a xlink:title="Get a human readable description of this SysDevice.">
<polygon fill="#bfbfbf" stroke="black" points="0,-101.5 0,-131.5 152,-131.5 152,-101.5 0,-101.5"/>
<text text-anchor="start" x="8" y="-119.5" font-family="Helvetica,sans-Serif" font-size="10.00">leanux::sysdevice::</text>
<text text-anchor="middle" x="76" y="-108.5" font-family="Helvetica,sans-Serif" font-size="10.00">iSCSIDevice::getDescription</text>
</a>
</g>
</g>
<!-- Node2 -->
<g id="node2" class="node">
<title>Node2</title>
<g id="a_node2"><a xlink:href="../../dd/df8/classleanux_1_1sysdevice_1_1SCSIDevice.html#a7cc63ea1acf3422fb2f3d61a88e59bec" target="_top" xlink:title="Get a human readable description of this SysDevice.">
<polygon fill="none" stroke="black" points="188,-202.5 188,-232.5 337,-232.5 337,-202.5 188,-202.5"/>
<text text-anchor="start" x="196" y="-220.5" font-family="Helvetica,sans-Serif" font-size="10.00">leanux::sysdevice::</text>
<text text-anchor="middle" x="262.5" y="-209.5" font-family="Helvetica,sans-Serif" font-size="10.00">SCSIDevice::getDescription</text>
</a>
</g>
</g>
<!-- Node1&#45;&gt;Node2 -->
<g id="edge1" class="edge">
<title>Node1&#45;&gt;Node2</title>
<path fill="none" stroke="midnightblue" d="M98,-131.57C119.83,-146.84 155.3,-170.55 188,-187.5 195.48,-191.38 203.57,-195.11 211.56,-198.55"/>
<polygon fill="midnightblue" stroke="midnightblue" points="210.27,-201.81 220.85,-202.44 212.98,-195.35 210.27,-201.81"/>
</g>
<!-- Node4 -->
<g id="node4" class="node">
<title>Node4</title>
<g id="a_node4"><a xlink:href="../../d2/d31/classleanux_1_1sysdevice_1_1BlockDevice.html#aaed715a73aad1b5f05aaad7906c9ea57" target="_top" xlink:title=" ">
<polygon fill="none" stroke="black" points="569.5,-180.5 569.5,-210.5 724.5,-210.5 724.5,-180.5 569.5,-180.5"/>
<text text-anchor="start" x="577.5" y="-198.5" font-family="Helvetica,sans-Serif" font-size="10.00">leanux::sysdevice::</text>
<text text-anchor="middle" x="647" y="-187.5" font-family="Helvetica,sans-Serif" font-size="10.00">BlockDevice::getMajorMinor</text>
</a>
</g>
</g>
<!-- Node1&#45;&gt;Node4 -->
<g id="edge6" class="edge">
<title>Node1&#45;&gt;Node4</title>
<path fill="none" stroke="midnightblue" d="M141.66,-131.55C156.81,-134.77 172.93,-137.97 188,-140.5 316.47,-162.05 466.57,-178.42 558.96,-187.49"/>
<polygon fill="midnightblue" stroke="midnightblue" points="558.81,-190.99 569.11,-188.48 559.49,-184.03 558.81,-190.99"/>
</g>
<!-- Node13 -->
<g id="node7" class="node">
<title>Node13</title>
<g id="a_node7"><a xlink:href="../../df/db8/classleanux_1_1sysdevice_1_1iSCSIDevice.html#ac27f2f46cf0bc8ae4f42a2186b6a24fb" target="_top" xlink:title=" ">
<polygon fill="none" stroke="black" points="564,-82.5 564,-112.5 730,-112.5 730,-82.5 564,-82.5"/>
<text text-anchor="start" x="572" y="-100.5" font-family="Helvetica,sans-Serif" font-size="10.00">leanux::sysdevice::</text>
<text text-anchor="middle" x="647" y="-89.5" font-family="Helvetica,sans-Serif" font-size="10.00">iSCSIDevice::getTargetAddress</text>
</a>
</g>
</g>
<!-- Node1&#45;&gt;Node13 -->
<g id="edge7" class="edge">
<title>Node1&#45;&gt;Node13</title>
<path fill="none" stroke="midnightblue" d="M152.27,-113.99C255.66,-110.53 441.5,-104.33 553.32,-100.59"/>
<polygon fill="midnightblue" stroke="midnightblue" points="553.7,-104.08 563.57,-100.25 553.46,-97.09 553.7,-104.08"/>
</g>
<!-- Node15 -->
<g id="node9" class="node">
<title>Node15</title>
<g id="a_node9"><a xlink:href="../../df/db8/classleanux_1_1sysdevice_1_1iSCSIDevice.html#a4c1ab2cc14e938926e001bedf257113a" target="_top" xlink:title=" ">
<polygon fill="none" stroke="black" points="574.5,-131.5 574.5,-161.5 719.5,-161.5 719.5,-131.5 574.5,-131.5"/>
<text text-anchor="start" x="582.5" y="-149.5" font-family="Helvetica,sans-Serif" font-size="10.00">leanux::sysdevice::</text>
<text text-anchor="middle" x="647" y="-138.5" font-family="Helvetica,sans-Serif" font-size="10.00">iSCSIDevice::getTargetIQN</text>
</a>
</g>
</g>
<!-- Node1&#45;&gt;Node15 -->
<g id="edge11" class="edge">
<title>Node1&#45;&gt;Node15</title>
<path fill="none" stroke="midnightblue" d="M152.27,-120.47C259.03,-126.1 453.69,-136.36 564.01,-142.18"/>
<polygon fill="midnightblue" stroke="midnightblue" points="563.92,-145.68 574.09,-142.71 564.29,-138.69 563.92,-145.68"/>
</g>
<!-- Node16 -->
<g id="node10" class="node">
<title>Node16</title>
<g id="a_node10"><a xlink:href="../../df/db8/classleanux_1_1sysdevice_1_1iSCSIDevice.html#ac3de0ea047730902b7044e567aaa90cd" target="_top" xlink:title=" ">
<polygon fill="none" stroke="black" points="574,-33.5 574,-63.5 720,-63.5 720,-33.5 574,-33.5"/>
<text text-anchor="start" x="582" y="-51.5" font-family="Helvetica,sans-Serif" font-size="10.00">leanux::sysdevice::</text>
<text text-anchor="middle" x="647" y="-40.5" font-family="Helvetica,sans-Serif" font-size="10.00">iSCSIDevice::getTargetPort</text>
</a>
</g>
</g>
<!-- Node1&#45;&gt;Node16 -->
<g id="edge14" class="edge">
<title>Node1&#45;&gt;Node16</title>
<path fill="none" stroke="midnightblue" d="M152.27,-107.51C258.88,-94.76 453.16,-71.55 563.56,-58.35"/>
<polygon fill="midnightblue" stroke="midnightblue" points="564.13,-61.81 573.64,-57.15 563.3,-54.86 564.13,-61.81"/>
</g>
<!-- Node17 -->
<g id="node11" class="node">
<title>Node17</title>
<g id="a_node11"><a xlink:href="../../d7/d28/classleanux_1_1block_1_1MajorMinor.html#a26905a16bdd3e525abb2ada713f80704" target="_top" xlink:title="Test MajorMinor validity.">
<polygon fill="none" stroke="black" points="191,-0.5 191,-30.5 334,-30.5 334,-0.5 191,-0.5"/>
<text text-anchor="start" x="199" y="-18.5" font-family="Helvetica,sans-Serif" font-size="10.00">leanux::block::MajorMinor</text>
<text text-anchor="middle" x="262.5" y="-7.5" font-family="Helvetica,sans-Serif" font-size="10.00">::isValid</text>
</a>
</g>
</g>
<!-- Node1&#45;&gt;Node17 -->
<g id="edge18" class="edge">
<title>Node1&#45;&gt;Node17</title>
<path fill="none" stroke="midnightblue" d="M98,-101.43C119.83,-86.16 155.3,-62.45 188,-45.5 195.48,-41.62 203.57,-37.89 211.56,-34.45"/>
<polygon fill="midnightblue" stroke="midnightblue" points="212.98,-37.65 220.85,-30.56 210.27,-31.19 212.98,-37.65"/>
</g>
<!-- Node3 -->
<g id="node3" class="node">
<title>Node3</title>
<g id="a_node3"><a xlink:href="../../d2/d31/classleanux_1_1sysdevice_1_1BlockDevice.html#ac4b9e0008260b83d9c20f8cad7a43ac6" target="_top" xlink:title="Get a human readable description of this SysDevice.">
<polygon fill="none" stroke="red" points="373,-202.5 373,-232.5 528,-232.5 528,-202.5 373,-202.5"/>
<text text-anchor="start" x="381" y="-220.5" font-family="Helvetica,sans-Serif" font-size="10.00">leanux::sysdevice::</text>
<text text-anchor="middle" x="450.5" y="-209.5" font-family="Helvetica,sans-Serif" font-size="10.00">BlockDevice::getDescription</text>
</a>
</g>
</g>
<!-- Node2&#45;&gt;Node3 -->
<g id="edge2" class="edge">
<title>Node2&#45;&gt;Node3</title>
<path fill="none" stroke="midnightblue" d="M337.01,-217.5C345.48,-217.5 354.17,-217.5 362.79,-217.5"/>
<polygon fill="midnightblue" stroke="midnightblue" points="362.86,-221 372.86,-217.5 362.86,-214 362.86,-221"/>
</g>
<!-- Node3&#45;&gt;Node4 -->
<g id="edge3" class="edge">
<title>Node3&#45;&gt;Node4</title>
<path fill="none" stroke="midnightblue" d="M528.09,-208.84C538.4,-207.67 549.04,-206.47 559.51,-205.28"/>
<polygon fill="midnightblue" stroke="midnightblue" points="559.93,-208.76 569.48,-204.16 559.15,-201.8 559.93,-208.76"/>
</g>
<!-- Node5 -->
<g id="node5" class="node">
<title>Node5</title>
<g id="a_node5"><a xlink:href="../../d8/db1/namespaceleanux_1_1util.html#a6421ca2c46c56eebe1a486c6a498ce7d" target="_top" xlink:title="Test if a file exists and can be read.">
<polygon fill="none" stroke="black" points="766,-91 766,-110 917,-110 917,-91 766,-91"/>
<text text-anchor="middle" x="841.5" y="-98" font-family="Helvetica,sans-Serif" font-size="10.00">leanux::util::fileReadAccess</text>
</a>
</g>
</g>
<!-- Node4&#45;&gt;Node5 -->
<g id="edge4" class="edge">
<title>Node4&#45;&gt;Node5</title>
<path fill="none" stroke="midnightblue" d="M711.61,-180.45C718.09,-177.66 724.35,-174.37 730,-170.5 751.41,-155.81 744.71,-139.36 766,-124.5 772.13,-120.22 779.06,-116.68 786.17,-113.74"/>
<polygon fill="midnightblue" stroke="midnightblue" points="787.77,-116.88 795.92,-110.11 785.33,-110.32 787.77,-116.88"/>
</g>
<!-- Node6 -->
<g id="node6" class="node">
<title>Node6</title>
<g id="a_node6"><a xlink:href="../../d8/db1/namespaceleanux_1_1util.html#a57bfd49353610b3d0b6d121b264c676e" target="_top" xlink:title="read the file as a single string.">
<polygon fill="none" stroke="black" points="768.5,-134 768.5,-153 914.5,-153 914.5,-134 768.5,-134"/>
<text text-anchor="middle" x="841.5" y="-141" font-family="Helvetica,sans-Serif" font-size="10.00">leanux::util::fileReadString</text>
</a>
</g>
</g>
<!-- Node4&#45;&gt;Node6 -->
<g id="edge5" class="edge">
<title>Node4&#45;&gt;Node6</title>
<path fill="none" stroke="midnightblue" d="M703.68,-180.46C732.85,-172.58 768.11,-163.05 795.53,-155.65"/>
<polygon fill="midnightblue" stroke="midnightblue" points="796.51,-159.01 805.25,-153.02 794.69,-152.25 796.51,-159.01"/>
</g>
<!-- Node13&#45;&gt;Node5 -->
<g id="edge8" class="edge">
<title>Node13&#45;&gt;Node5</title>
<path fill="none" stroke="midnightblue" d="M730.2,-98.78C738.62,-98.91 747.2,-99.05 755.65,-99.18"/>
<polygon fill="midnightblue" stroke="midnightblue" points="755.84,-102.68 765.89,-99.34 755.95,-95.68 755.84,-102.68"/>
</g>
<!-- Node13&#45;&gt;Node6 -->
<g id="edge9" class="edge">
<title>Node13&#45;&gt;Node6</title>
<path fill="none" stroke="midnightblue" d="M711.03,-112.56C736.96,-118.76 766.54,-125.83 790.89,-131.64"/>
<polygon fill="midnightblue" stroke="midnightblue" points="790.09,-135.05 800.62,-133.97 791.71,-128.24 790.09,-135.05"/>
</g>
<!-- Node14 -->
<g id="node8" class="node">
<title>Node14</title>
<g id="a_node8"><a xlink:href="../../d8/db1/namespaceleanux_1_1util.html#adb3739607a9ec74d79fbebf4d45dd766" target="_top" xlink:title="Find subdirectories, first match is returned, if any.">
<polygon fill="none" stroke="black" points="786.5,-48 786.5,-67 896.5,-67 896.5,-48 786.5,-48"/>
<text text-anchor="middle" x="841.5" y="-55" font-family="Helvetica,sans-Serif" font-size="10.00">leanux::util::findDir</text>
</a>
</g>
</g>
<!-- Node13&#45;&gt;Node14 -->
<g id="edge10" class="edge">
<title>Node13&#45;&gt;Node14</title>
<path fill="none" stroke="midnightblue" d="M720.23,-82.49C741.58,-78.05 764.63,-73.27 784.77,-69.08"/>
<polygon fill="midnightblue" stroke="midnightblue" points="785.63,-72.48 794.71,-67.01 784.21,-65.62 785.63,-72.48"/>
</g>
<!-- Node15&#45;&gt;Node5 -->
<g id="edge12" class="edge">
<title>Node15&#45;&gt;Node5</title>
<path fill="none" stroke="midnightblue" d="M711.03,-131.44C736.96,-125.24 766.54,-118.17 790.89,-112.36"/>
<polygon fill="midnightblue" stroke="midnightblue" points="791.71,-115.76 800.62,-110.03 790.09,-108.95 791.71,-115.76"/>
</g>
<!-- Node15&#45;&gt;Node6 -->
<g id="edge13" class="edge">
<title>Node15&#45;&gt;Node6</title>
<path fill="none" stroke="midnightblue" d="M719.68,-145.38C732.25,-145.19 745.41,-144.98 758.24,-144.78"/>
<polygon fill="midnightblue" stroke="midnightblue" points="758.5,-148.28 768.44,-144.62 758.39,-141.28 758.5,-148.28"/>
</g>
<!-- Node16&#45;&gt;Node5 -->
<g id="edge15" class="edge">
<title>Node16&#45;&gt;Node5</title>
<path fill="none" stroke="midnightblue" d="M703.68,-63.54C732.85,-71.42 768.11,-80.95 795.53,-88.35"/>
<polygon fill="midnightblue" stroke="midnightblue" points="794.69,-91.75 805.25,-90.98 796.51,-84.99 794.69,-91.75"/>
</g>
<!-- Node16&#45;&gt;Node6 -->
<g id="edge16" class="edge">
<title>Node16&#45;&gt;Node6</title>
<path fill="none" stroke="midnightblue" d="M713.75,-63.57C719.47,-66.11 724.98,-69.06 730,-72.5 751.7,-87.38 744.5,-104.33 766,-119.5 772.11,-123.81 779.03,-127.37 786.13,-130.32"/>
<polygon fill="midnightblue" stroke="midnightblue" points="785.28,-133.73 795.87,-133.95 787.73,-127.18 785.28,-133.73"/>
</g>
<!-- Node16&#45;&gt;Node14 -->
<g id="edge17" class="edge">
<title>Node16&#45;&gt;Node14</title>
<path fill="none" stroke="midnightblue" d="M720.23,-51.88C738.6,-52.74 758.21,-53.65 776.16,-54.49"/>
<polygon fill="midnightblue" stroke="midnightblue" points="776.07,-57.99 786.22,-54.96 776.39,-51 776.07,-57.99"/>
</g>
</g>
</svg>
