<?xml version="1.0" encoding="UTF-8" standalone="no"?>
<!DOCTYPE svg PUBLIC "-//W3C//DTD SVG 1.1//EN"
 "http://www.w3.org/Graphics/SVG/1.1/DTD/svg11.dtd">
<!-- Generated by graphviz version 2.43.0 (0)
 -->
<!-- Title: leanux::net::TCP6SocketInfo Pages: 1 -->
<svg width="396pt" height="128pt"
 viewBox="0.00 0.00 395.50 128.00" xmlns="http://www.w3.org/2000/svg" xmlns:xlink="http://www.w3.org/1999/xlink">
<g id="graph0" class="graph" transform="scale(1 1) rotate(0) translate(4 124)">
<title>leanux::net::TCP6SocketInfo</title>
<!-- Node1 -->
<g id="node1" class="node">
<title>Node1</title>
<g id="a_node1"><a xlink:title="IPv4 socket.">
<polygon fill="#bfbfbf" stroke="black" points="101.5,-0.5 101.5,-19.5 253.5,-19.5 253.5,-0.5 101.5,-0.5"/>
<text text-anchor="middle" x="177.5" y="-7.5" font-family="Helvetica,sans-Serif" font-size="10.00">leanux::net::TCP6SocketInfo</text>
</a>
</g>
</g>
<!-- Node2 -->
<g id="node2" class="node">
<title>Node2</title>
<g id="a_node2"><a xlink:title=" ">
<polygon fill="none" stroke="#bfbfbf" points="0,-100.5 0,-119.5 41,-119.5 41,-100.5 0,-100.5"/>
<text text-anchor="middle" x="20.5" y="-107.5" font-family="Helvetica,sans-Serif" font-size="10.00">ino_t</text>
</a>
</g>
</g>
<!-- Node2&#45;&gt;Node1 -->
<g id="edge1" class="edge">
<title>Node2&#45;&gt;Node1</title>
<path fill="none" stroke="#9a32cd" stroke-dasharray="5,2" d="M24.5,-90.51C29.01,-74.22 37.96,-51.1 54.5,-38 67.86,-27.41 84.5,-20.76 101.18,-16.65"/>
<polygon fill="#9a32cd" stroke="#9a32cd" points="21.04,-89.95 22.06,-100.49 27.84,-91.61 21.04,-89.95"/>
<text text-anchor="middle" x="70" y="-57.5" font-family="Helvetica,sans-Serif" font-size="10.00"> inode</text>
</g>
<!-- Node3 -->
<g id="node3" class="node">
<title>Node3</title>
<g id="a_node3"><a xlink:title=" ">
<polygon fill="none" stroke="#bfbfbf" points="59,-100.5 59,-119.5 118,-119.5 118,-100.5 59,-100.5"/>
<text text-anchor="middle" x="88.5" y="-107.5" font-family="Helvetica,sans-Serif" font-size="10.00">in6_addr</text>
</a>
</g>
</g>
<!-- Node3&#45;&gt;Node1 -->
<g id="edge2" class="edge">
<title>Node3&#45;&gt;Node1</title>
<path fill="none" stroke="#9a32cd" stroke-dasharray="5,2" d="M88.96,-90.29C90.31,-74.54 94.6,-52.36 107.5,-38 115.16,-29.47 125.83,-23.62 136.53,-19.61"/>
<polygon fill="#9a32cd" stroke="#9a32cd" points="85.46,-90.24 88.42,-100.41 92.45,-90.61 85.46,-90.24"/>
<text text-anchor="middle" x="140.5" y="-57.5" font-family="Helvetica,sans-Serif" font-size="10.00"> remote_addr</text>
</g>
<!-- Node4 -->
<g id="node4" class="node">
<title>Node4</title>
<g id="a_node4"><a xlink:title=" ">
<polygon fill="none" stroke="#bfbfbf" points="163,-100.5 163,-119.5 192,-119.5 192,-100.5 163,-100.5"/>
<text text-anchor="middle" x="177.5" y="-107.5" font-family="Helvetica,sans-Serif" font-size="10.00">int</text>
</a>
</g>
</g>
<!-- Node4&#45;&gt;Node1 -->
<g id="edge3" class="edge">
<title>Node4&#45;&gt;Node1</title>
<path fill="none" stroke="#9a32cd" stroke-dasharray="5,2" d="M177.5,-90.22C177.5,-68.95 177.5,-35.22 177.5,-19.54"/>
<polygon fill="#9a32cd" stroke="#9a32cd" points="174,-90.3 177.5,-100.3 181,-90.3 174,-90.3"/>
<text text-anchor="middle" x="208" y="-74" font-family="Helvetica,sans-Serif" font-size="10.00"> tcp_state</text>
<text text-anchor="middle" x="208" y="-63" font-family="Helvetica,sans-Serif" font-size="10.00">remote_port</text>
<text text-anchor="middle" x="208" y="-52" font-family="Helvetica,sans-Serif" font-size="10.00">local_port</text>
<text text-anchor="middle" x="208" y="-41" font-family="Helvetica,sans-Serif" font-size="10.00">uid</text>
</g>
<!-- Node5 -->
<g id="node5" class="node">
<title>Node5</title>
<g id="a_node5"><a xlink:title=" ">
<polygon fill="none" stroke="#bfbfbf" points="217,-100.5 217,-119.5 306,-119.5 306,-100.5 217,-100.5"/>
<text text-anchor="middle" x="261.5" y="-107.5" font-family="Helvetica,sans-Serif" font-size="10.00">struct in6_addr</text>
</a>
</g>
</g>
<!-- Node5&#45;&gt;Node1 -->
<g id="edge4" class="edge">
<title>Node5&#45;&gt;Node1</title>
<path fill="none" stroke="#9a32cd" stroke-dasharray="5,2" d="M260.01,-90.38C257.84,-74.69 252.52,-52.54 239.5,-38 231.98,-29.6 221.38,-23.71 211.07,-19.62"/>
<polygon fill="#9a32cd" stroke="#9a32cd" points="256.54,-90.89 261.09,-100.46 263.5,-90.14 256.54,-90.89"/>
<text text-anchor="middle" x="284.5" y="-57.5" font-family="Helvetica,sans-Serif" font-size="10.00"> local_addr</text>
</g>
<!-- Node6 -->
<g id="node6" class="node">
<title>Node6</title>
<g id="a_node6"><a xlink:title=" ">
<polygon fill="none" stroke="#bfbfbf" points="324.5,-100.5 324.5,-119.5 362.5,-119.5 362.5,-100.5 324.5,-100.5"/>
<text text-anchor="middle" x="343.5" y="-107.5" font-family="Helvetica,sans-Serif" font-size="10.00">long</text>
</a>
</g>
</g>
<!-- Node6&#45;&gt;Node1 -->
<g id="edge5" class="edge">
<title>Node6&#45;&gt;Node1</title>
<path fill="none" stroke="#9a32cd" stroke-dasharray="5,2" d="M341.2,-90.5C338.16,-74.21 331.22,-51.09 315.5,-38 305.56,-29.72 280.19,-23.67 253.87,-19.42"/>
<polygon fill="#9a32cd" stroke="#9a32cd" points="337.75,-91.14 342.73,-100.49 344.67,-90.07 337.75,-91.14"/>
<text text-anchor="middle" x="363" y="-63" font-family="Helvetica,sans-Serif" font-size="10.00"> rx_queue</text>
<text text-anchor="middle" x="363" y="-52" font-family="Helvetica,sans-Serif" font-size="10.00">tx_queue</text>
</g>
</g>
</svg>
