<?xml version="1.0" encoding="UTF-8" standalone="no"?>
<!DOCTYPE svg PUBLIC "-//W3C//DTD SVG 1.1//EN"
 "http://www.w3.org/Graphics/SVG/1.1/DTD/svg11.dtd">
<!-- Generated by graphviz version 2.43.0 (0)
 -->
<!-- Title: leanux::sysdevice::MMCDevice::accept Pages: 1 -->
<svg width="447pt" height="127pt"
 viewBox="0.00 0.00 447.00 127.00" xmlns="http://www.w3.org/2000/svg" xmlns:xlink="http://www.w3.org/1999/xlink">
<g id="graph0" class="graph" transform="scale(1 1) rotate(0) translate(4 123)">
<title>leanux::sysdevice::MMCDevice::accept</title>
<!-- Node1 -->
<g id="node1" class="node">
<title>Node1</title>
<g id="a_node1"><a xlink:title="Return true if the SysDevice recognizes itself in the trailing part of path.">
<polygon fill="#bfbfbf" stroke="black" points="0,-44.5 0,-74.5 113,-74.5 113,-44.5 0,-44.5"/>
<text text-anchor="start" x="8" y="-62.5" font-family="Helvetica,sans-Serif" font-size="10.00">leanux::sysdevice::</text>
<text text-anchor="middle" x="56.5" y="-51.5" font-family="Helvetica,sans-Serif" font-size="10.00">MMCDevice::accept</text>
</a>
</g>
</g>
<!-- Node2 -->
<g id="node2" class="node">
<title>Node2</title>
<g id="a_node2"><a xlink:href="../../df/d3f/classleanux_1_1util_1_1RegExp.html#a8acc45eb950f504e1b224e10313364de" target="_top" xlink:title=" ">
<polygon fill="none" stroke="black" points="159.5,-88.5 159.5,-118.5 273.5,-118.5 273.5,-88.5 159.5,-88.5"/>
<text text-anchor="start" x="167.5" y="-106.5" font-family="Helvetica,sans-Serif" font-size="10.00">leanux::util::RegExp</text>
<text text-anchor="middle" x="216.5" y="-95.5" font-family="Helvetica,sans-Serif" font-size="10.00">::match</text>
</a>
</g>
</g>
<!-- Node1&#45;&gt;Node2 -->
<g id="edge1" class="edge">
<title>Node1&#45;&gt;Node2</title>
<path fill="none" stroke="midnightblue" d="M111.43,-74.52C124.45,-78.15 138.49,-82.05 151.9,-85.79"/>
<polygon fill="midnightblue" stroke="midnightblue" points="150.97,-89.16 161.54,-88.47 152.85,-82.42 150.97,-89.16"/>
</g>
<!-- Node3 -->
<g id="node3" class="node">
<title>Node3</title>
<g id="a_node3"><a xlink:href="../../df/d3f/classleanux_1_1util_1_1RegExp.html#ad478a08e79f94ea2c48de6298c6e1178" target="_top" xlink:title=" ">
<polygon fill="none" stroke="black" points="149,-50 149,-69 284,-69 284,-50 149,-50"/>
<text text-anchor="middle" x="216.5" y="-57" font-family="Helvetica,sans-Serif" font-size="10.00">leanux::util::RegExp::set</text>
</a>
</g>
</g>
<!-- Node1&#45;&gt;Node3 -->
<g id="edge2" class="edge">
<title>Node1&#45;&gt;Node3</title>
<path fill="none" stroke="midnightblue" d="M113.2,-59.5C121.51,-59.5 130.18,-59.5 138.83,-59.5"/>
<polygon fill="midnightblue" stroke="midnightblue" points="138.93,-63 148.93,-59.5 138.93,-56 138.93,-63"/>
</g>
<!-- Node4 -->
<g id="node4" class="node">
<title>Node4</title>
<g id="a_node4"><a xlink:href="../../d1/d02/classleanux_1_1sysdevice_1_1SysDevice.html#abc35fc5f51e73156ebd1a8b707c960b2" target="_top" xlink:title="Transform a SysDevicePath into a list of tokens in reverse order.">
<polygon fill="none" stroke="black" points="159,-0.5 159,-30.5 274,-30.5 274,-0.5 159,-0.5"/>
<text text-anchor="start" x="167" y="-18.5" font-family="Helvetica,sans-Serif" font-size="10.00">leanux::sysdevice::</text>
<text text-anchor="middle" x="216.5" y="-7.5" font-family="Helvetica,sans-Serif" font-size="10.00">SysDevice::tokenize</text>
</a>
</g>
</g>
<!-- Node1&#45;&gt;Node4 -->
<g id="edge3" class="edge">
<title>Node1&#45;&gt;Node4</title>
<path fill="none" stroke="midnightblue" d="M111.43,-44.48C124.45,-40.85 138.49,-36.95 151.9,-33.21"/>
<polygon fill="midnightblue" stroke="midnightblue" points="152.85,-36.58 161.54,-30.53 150.97,-29.84 152.85,-36.58"/>
</g>
<!-- Node5 -->
<g id="node5" class="node">
<title>Node5</title>
<g id="a_node5"><a xlink:href="../../d8/db1/namespaceleanux_1_1util.html#a3b691a56e21c20628e956b8ec995d53f" target="_top" xlink:title=" ">
<polygon fill="none" stroke="black" points="320,-6 320,-25 439,-25 439,-6 320,-6"/>
<text text-anchor="middle" x="379.5" y="-13" font-family="Helvetica,sans-Serif" font-size="10.00">leanux::util::tokenize</text>
</a>
</g>
</g>
<!-- Node4&#45;&gt;Node5 -->
<g id="edge4" class="edge">
<title>Node4&#45;&gt;Node5</title>
<path fill="none" stroke="midnightblue" d="M274.26,-15.5C285.68,-15.5 297.79,-15.5 309.56,-15.5"/>
<polygon fill="midnightblue" stroke="midnightblue" points="309.8,-19 319.8,-15.5 309.8,-12 309.8,-19"/>
</g>
</g>
</svg>
