<?xml version="1.0" encoding="UTF-8" standalone="no"?>
<!DOCTYPE svg PUBLIC "-//W3C//DTD SVG 1.1//EN"
 "http://www.w3.org/Graphics/SVG/1.1/DTD/svg11.dtd">
<!-- Generated by graphviz version 2.43.0 (0)
 -->
<!-- Title: leanux::tools::lmon::ProcessView::xrefresh Pages: 1 -->
<svg width="339pt" height="390pt"
 viewBox="0.00 0.00 339.00 389.50" xmlns="http://www.w3.org/2000/svg" xmlns:xlink="http://www.w3.org/1999/xlink">
<g id="graph0" class="graph" transform="scale(1 1) rotate(0) translate(4 385.5)">
<title>leanux::tools::lmon::ProcessView::xrefresh</title>
<!-- Node1 -->
<g id="node1" class="node">
<title>Node1</title>
<g id="a_node1"><a xlink:title="Refresh/redraw the ProcessView.">
<polygon fill="#bfbfbf" stroke="black" points="0,-181.5 0,-211.5 130,-211.5 130,-181.5 0,-181.5"/>
<text text-anchor="start" x="8" y="-199.5" font-family="Helvetica,sans-Serif" font-size="10.00">leanux::tools::lmon</text>
<text text-anchor="middle" x="65" y="-188.5" font-family="Helvetica,sans-Serif" font-size="10.00">::ProcessView::xrefresh</text>
</a>
</g>
</g>
<!-- Node2 -->
<g id="node2" class="node">
<title>Node2</title>
<g id="a_node2"><a xlink:href="../../d8/db1/namespaceleanux_1_1util.html#a979843e3d99f053101f902ec38985833" target="_top" xlink:title="convert a byte value to pretty print string.">
<polygon fill="none" stroke="black" points="192,-362 192,-381 305,-381 305,-362 192,-362"/>
<text text-anchor="middle" x="248.5" y="-369" font-family="Helvetica,sans-Serif" font-size="10.00">leanux::util::ByteStr</text>
</a>
</g>
</g>
<!-- Node1&#45;&gt;Node2 -->
<g id="edge1" class="edge">
<title>Node1&#45;&gt;Node2</title>
<path fill="none" stroke="midnightblue" d="M71.24,-211.71C82.92,-243.27 114.23,-315.94 166,-352.5 170.94,-355.99 176.43,-358.85 182.16,-361.19"/>
<polygon fill="midnightblue" stroke="midnightblue" points="181.38,-364.62 191.98,-364.65 183.71,-358.02 181.38,-364.62"/>
</g>
<!-- Node3 -->
<g id="node3" class="node">
<title>Node3</title>
<g id="a_node3"><a xlink:href="../../d9/d1b/classleanux_1_1tools_1_1lmon_1_1Palette.html#a60717c2d5607a21a597210033e17ddca" target="_top" xlink:title="get blocked process color.">
<polygon fill="none" stroke="black" points="167,-312.5 167,-342.5 330,-342.5 330,-312.5 167,-312.5"/>
<text text-anchor="start" x="175" y="-330.5" font-family="Helvetica,sans-Serif" font-size="10.00">leanux::tools::lmon</text>
<text text-anchor="middle" x="248.5" y="-319.5" font-family="Helvetica,sans-Serif" font-size="10.00">::Palette::getColorBlockedProc</text>
</a>
</g>
</g>
<!-- Node1&#45;&gt;Node3 -->
<g id="edge2" class="edge">
<title>Node1&#45;&gt;Node3</title>
<path fill="none" stroke="midnightblue" d="M76.1,-211.68C92.32,-234.89 126.4,-279.07 166,-303.5 168.76,-305.2 171.65,-306.79 174.62,-308.27"/>
<polygon fill="midnightblue" stroke="midnightblue" points="173.2,-311.47 183.76,-312.39 176.08,-305.09 173.2,-311.47"/>
</g>
<!-- Node4 -->
<g id="node4" class="node">
<title>Node4</title>
<g id="a_node4"><a xlink:href="../../d9/d1b/classleanux_1_1tools_1_1lmon_1_1Palette.html#afcf64f0a46c92aaf04abf7567afd7861" target="_top" xlink:title="get running process color.">
<polygon fill="none" stroke="black" points="166.5,-263.5 166.5,-293.5 330.5,-293.5 330.5,-263.5 166.5,-263.5"/>
<text text-anchor="start" x="174.5" y="-281.5" font-family="Helvetica,sans-Serif" font-size="10.00">leanux::tools::lmon</text>
<text text-anchor="middle" x="248.5" y="-270.5" font-family="Helvetica,sans-Serif" font-size="10.00">::Palette::getColorRunningProc</text>
</a>
</g>
</g>
<!-- Node1&#45;&gt;Node4 -->
<g id="edge3" class="edge">
<title>Node1&#45;&gt;Node4</title>
<path fill="none" stroke="midnightblue" d="M89.08,-211.61C108.88,-224.08 138.48,-241.61 166,-253.5 171.4,-255.83 177.08,-258.04 182.83,-260.11"/>
<polygon fill="midnightblue" stroke="midnightblue" points="181.94,-263.51 192.54,-263.46 184.23,-256.89 181.94,-263.51"/>
</g>
<!-- Node5 -->
<g id="node5" class="node">
<title>Node5</title>
<g id="a_node5"><a xlink:href="../../dd/d42/namespaceleanux_1_1system.html#a52dc747f7af9f66fabb1ccfd72c7c450" target="_top" xlink:title="Get the system page size.">
<polygon fill="none" stroke="black" points="170,-225 170,-244 327,-244 327,-225 170,-225"/>
<text text-anchor="middle" x="248.5" y="-232" font-family="Helvetica,sans-Serif" font-size="10.00">leanux::system::getPageSize</text>
</a>
</g>
</g>
<!-- Node1&#45;&gt;Node5 -->
<g id="edge4" class="edge">
<title>Node1&#45;&gt;Node5</title>
<path fill="none" stroke="midnightblue" d="M130.25,-209.95C150.39,-214.17 172.45,-218.79 191.94,-222.87"/>
<polygon fill="midnightblue" stroke="midnightblue" points="191.37,-226.32 201.88,-224.95 192.81,-219.47 191.37,-226.32"/>
</g>
<!-- Node6 -->
<g id="node6" class="node">
<title>Node6</title>
<g id="a_node6"><a xlink:href="../../dd/d42/namespaceleanux_1_1system.html#a15a1517cb994968027d406402a588157" target="_top" xlink:title="Get username from a uid.">
<polygon fill="none" stroke="black" points="166,-187 166,-206 331,-206 331,-187 166,-187"/>
<text text-anchor="middle" x="248.5" y="-194" font-family="Helvetica,sans-Serif" font-size="10.00">leanux::system::getUserName</text>
</a>
</g>
</g>
<!-- Node1&#45;&gt;Node6 -->
<g id="edge5" class="edge">
<title>Node1&#45;&gt;Node6</title>
<path fill="none" stroke="midnightblue" d="M130.25,-196.5C138.53,-196.5 147.13,-196.5 155.75,-196.5"/>
<polygon fill="midnightblue" stroke="midnightblue" points="155.85,-200 165.85,-196.5 155.85,-193 155.85,-200"/>
</g>
<!-- Node7 -->
<g id="node7" class="node">
<title>Node7</title>
<g id="a_node7"><a xlink:href="../../d1/de8/classleanux_1_1tools_1_1lmon_1_1View.html#ad4bf2613d86d8fd5d95fc2b09103a9dc" target="_top" xlink:title="Draw a horizontal line.">
<polygon fill="none" stroke="black" points="193.5,-137.5 193.5,-167.5 303.5,-167.5 303.5,-137.5 193.5,-137.5"/>
<text text-anchor="start" x="201.5" y="-155.5" font-family="Helvetica,sans-Serif" font-size="10.00">leanux::tools::lmon</text>
<text text-anchor="middle" x="248.5" y="-144.5" font-family="Helvetica,sans-Serif" font-size="10.00">::View::hLine</text>
</a>
</g>
</g>
<!-- Node1&#45;&gt;Node7 -->
<g id="edge6" class="edge">
<title>Node1&#45;&gt;Node7</title>
<path fill="none" stroke="midnightblue" d="M127.95,-181.48C145.89,-177.13 165.5,-172.38 183.56,-168"/>
<polygon fill="midnightblue" stroke="midnightblue" points="184.51,-171.37 193.41,-165.61 182.86,-164.57 184.51,-171.37"/>
</g>
<!-- Node8 -->
<g id="node8" class="node">
<title>Node8</title>
<g id="a_node8"><a xlink:href="../../d8/db1/namespaceleanux_1_1util.html#a0c9555d36d9264d1f0cd246c8ba6da28" target="_top" xlink:title="Convert a double (real number) to a pretty print string.">
<polygon fill="none" stroke="black" points="191.5,-99 191.5,-118 305.5,-118 305.5,-99 191.5,-99"/>
<text text-anchor="middle" x="248.5" y="-106" font-family="Helvetica,sans-Serif" font-size="10.00">leanux::util::NumStr</text>
</a>
</g>
</g>
<!-- Node1&#45;&gt;Node8 -->
<g id="edge7" class="edge">
<title>Node1&#45;&gt;Node8</title>
<path fill="none" stroke="midnightblue" d="M83.98,-181.32C103.14,-165.89 134.93,-142.33 166,-128.5 172.59,-125.57 179.68,-123.02 186.82,-120.82"/>
<polygon fill="midnightblue" stroke="midnightblue" points="187.91,-124.15 196.57,-118.03 185.99,-117.42 187.91,-124.15"/>
</g>
<!-- Node9 -->
<g id="node9" class="node">
<title>Node9</title>
<g id="a_node9"><a xlink:href="../../d1/de8/classleanux_1_1tools_1_1lmon_1_1View.html#a2f37f251e8f17c1e11536b368fd66ec8" target="_top" xlink:title="Write text at x,y with display attrs.">
<polygon fill="none" stroke="black" points="193.5,-49.5 193.5,-79.5 303.5,-79.5 303.5,-49.5 193.5,-49.5"/>
<text text-anchor="start" x="201.5" y="-67.5" font-family="Helvetica,sans-Serif" font-size="10.00">leanux::tools::lmon</text>
<text text-anchor="middle" x="248.5" y="-56.5" font-family="Helvetica,sans-Serif" font-size="10.00">::View::textOut</text>
</a>
</g>
</g>
<!-- Node1&#45;&gt;Node9 -->
<g id="edge8" class="edge">
<title>Node1&#45;&gt;Node9</title>
<path fill="none" stroke="midnightblue" d="M76.13,-181.37C92.39,-158.24 126.54,-114.15 166,-89.5 171.44,-86.1 177.37,-83.14 183.47,-80.56"/>
<polygon fill="midnightblue" stroke="midnightblue" points="185.08,-83.69 193.15,-76.82 182.56,-77.16 185.08,-83.69"/>
</g>
<!-- Node10 -->
<g id="node10" class="node">
<title>Node10</title>
<g id="a_node10"><a xlink:href="../../d1/de8/classleanux_1_1tools_1_1lmon_1_1View.html#ad1a03b681b72a1c8918838816c4080ca" target="_top" xlink:title="Draw text right&#45;adjusted and progress x with w+1.">
<polygon fill="none" stroke="black" points="180.5,-0.5 180.5,-30.5 316.5,-30.5 316.5,-0.5 180.5,-0.5"/>
<text text-anchor="start" x="188.5" y="-18.5" font-family="Helvetica,sans-Serif" font-size="10.00">leanux::tools::lmon</text>
<text text-anchor="middle" x="248.5" y="-7.5" font-family="Helvetica,sans-Serif" font-size="10.00">::View::textOutMoveXRA</text>
</a>
</g>
</g>
<!-- Node1&#45;&gt;Node10 -->
<g id="edge9" class="edge">
<title>Node1&#45;&gt;Node10</title>
<path fill="none" stroke="midnightblue" d="M71.63,-181.09C83.84,-149.81 115.77,-78.62 166,-40.5 168.46,-38.64 171.05,-36.91 173.75,-35.31"/>
<polygon fill="midnightblue" stroke="midnightblue" points="175.43,-38.38 182.65,-30.63 172.17,-32.19 175.43,-38.38"/>
</g>
</g>
</svg>
