<?xml version="1.0" encoding="UTF-8" standalone="no"?>
<!DOCTYPE svg PUBLIC "-//W3C//DTD SVG 1.1//EN"
 "http://www.w3.org/Graphics/SVG/1.1/DTD/svg11.dtd">
<!-- Generated by graphviz version 2.43.0 (0)
 -->
<!-- Title: leanux::sysdevice::RamDiskDevice::getPropertyValueList Pages: 1 -->
<svg width="564pt" height="312pt"
 viewBox="0.00 0.00 564.00 312.00" xmlns="http://www.w3.org/2000/svg" xmlns:xlink="http://www.w3.org/1999/xlink">
<g id="graph0" class="graph" transform="scale(1 1) rotate(0) translate(4 308)">
<title>leanux::sysdevice::RamDiskDevice::getPropertyValueList</title>
<!-- Node1 -->
<g id="node1" class="node">
<title>Node1</title>
<g id="a_node1"><a xlink:title=" ">
<polygon fill="#bfbfbf" stroke="black" points="0,-194 0,-235 158,-235 158,-194 0,-194"/>
<text text-anchor="start" x="8" y="-223" font-family="Helvetica,sans-Serif" font-size="10.00">leanux::sysdevice::</text>
<text text-anchor="start" x="8" y="-212" font-family="Helvetica,sans-Serif" font-size="10.00">RamDiskDevice::getProperty</text>
<text text-anchor="middle" x="79" y="-201" font-family="Helvetica,sans-Serif" font-size="10.00">ValueList</text>
</a>
</g>
</g>
<!-- Node2 -->
<g id="node2" class="node">
<title>Node2</title>
<g id="a_node2"><a xlink:href="../../d8/db1/namespaceleanux_1_1util.html#a979843e3d99f053101f902ec38985833" target="_top" xlink:title="convert a byte value to pretty print string.">
<polygon fill="none" stroke="black" points="225,-274 225,-293 338,-293 338,-274 225,-274"/>
<text text-anchor="middle" x="281.5" y="-281" font-family="Helvetica,sans-Serif" font-size="10.00">leanux::util::ByteStr</text>
</a>
</g>
</g>
<!-- Node1&#45;&gt;Node2 -->
<g id="edge1" class="edge">
<title>Node1&#45;&gt;Node2</title>
<path fill="none" stroke="midnightblue" d="M121.46,-235.04C142.75,-244.98 169.34,-256.47 194,-264.5 202.09,-267.13 210.73,-269.52 219.29,-271.64"/>
<polygon fill="midnightblue" stroke="midnightblue" points="218.74,-275.1 229.28,-274 220.36,-268.29 218.74,-275.1"/>
</g>
<!-- Node3 -->
<g id="node3" class="node">
<title>Node3</title>
<g id="a_node3"><a xlink:href="../../d7/d28/classleanux_1_1block_1_1MajorMinor.html#a53428887ee9d78196b265e624087ce2b" target="_top" xlink:title="get a list of device aliases, returned as full paths.">
<polygon fill="none" stroke="black" points="210,-224.5 210,-254.5 353,-254.5 353,-224.5 210,-224.5"/>
<text text-anchor="start" x="218" y="-242.5" font-family="Helvetica,sans-Serif" font-size="10.00">leanux::block::MajorMinor</text>
<text text-anchor="middle" x="281.5" y="-231.5" font-family="Helvetica,sans-Serif" font-size="10.00">::getAliases</text>
</a>
</g>
</g>
<!-- Node1&#45;&gt;Node3 -->
<g id="edge2" class="edge">
<title>Node1&#45;&gt;Node3</title>
<path fill="none" stroke="midnightblue" d="M158.09,-224.24C171.81,-225.95 186.1,-227.73 199.89,-229.45"/>
<polygon fill="midnightblue" stroke="midnightblue" points="199.46,-232.92 209.81,-230.69 200.32,-225.98 199.46,-232.92"/>
</g>
<!-- Node10 -->
<g id="node6" class="node">
<title>Node10</title>
<g id="a_node6"><a xlink:href="../../d2/d31/classleanux_1_1sysdevice_1_1BlockDevice.html#aaed715a73aad1b5f05aaad7906c9ea57" target="_top" xlink:title=" ">
<polygon fill="none" stroke="black" points="204,-175.5 204,-205.5 359,-205.5 359,-175.5 204,-175.5"/>
<text text-anchor="start" x="212" y="-193.5" font-family="Helvetica,sans-Serif" font-size="10.00">leanux::sysdevice::</text>
<text text-anchor="middle" x="281.5" y="-182.5" font-family="Helvetica,sans-Serif" font-size="10.00">BlockDevice::getMajorMinor</text>
</a>
</g>
</g>
<!-- Node1&#45;&gt;Node10 -->
<g id="edge5" class="edge">
<title>Node1&#45;&gt;Node10</title>
<path fill="none" stroke="midnightblue" d="M158.09,-205.15C169.86,-203.74 182.06,-202.28 193.99,-200.86"/>
<polygon fill="midnightblue" stroke="midnightblue" points="194.42,-204.33 203.94,-199.66 193.59,-197.38 194.42,-204.33"/>
</g>
<!-- Node13 -->
<g id="node9" class="node">
<title>Node13</title>
<g id="a_node9"><a xlink:href="../../d1/d02/classleanux_1_1sysdevice_1_1SysDevice.html#ae45d4c50b05a48b480911a1aaeaeacc1" target="_top" xlink:title=" ">
<polygon fill="none" stroke="black" points="194,-74.5 194,-104.5 369,-104.5 369,-74.5 194,-74.5"/>
<text text-anchor="start" x="202" y="-92.5" font-family="Helvetica,sans-Serif" font-size="10.00">leanux::sysdevice::</text>
<text text-anchor="middle" x="281.5" y="-81.5" font-family="Helvetica,sans-Serif" font-size="10.00">SysDevice::getPropertyValueList</text>
</a>
</g>
</g>
<!-- Node1&#45;&gt;Node13 -->
<g id="edge8" class="edge">
<title>Node1&#45;&gt;Node13</title>
<path fill="none" stroke="midnightblue" d="M113.11,-193.86C150.23,-170.72 210.07,-133.41 247.25,-110.23"/>
<polygon fill="midnightblue" stroke="midnightblue" points="249.55,-112.92 256.18,-104.66 245.85,-106.98 249.55,-112.92"/>
</g>
<!-- Node4 -->
<g id="node4" class="node">
<title>Node4</title>
<g id="a_node4"><a xlink:href="../../d7/d28/classleanux_1_1block_1_1MajorMinor.html#a8fa26dbc85f683ed73fcec3a2db42821" target="_top" xlink:title="return the MajorMinor dev_t.">
<polygon fill="none" stroke="black" points="409,-273.5 409,-303.5 552,-303.5 552,-273.5 409,-273.5"/>
<text text-anchor="start" x="417" y="-291.5" font-family="Helvetica,sans-Serif" font-size="10.00">leanux::block::MajorMinor</text>
<text text-anchor="middle" x="480.5" y="-280.5" font-family="Helvetica,sans-Serif" font-size="10.00">::getDevT</text>
</a>
</g>
</g>
<!-- Node3&#45;&gt;Node4 -->
<g id="edge3" class="edge">
<title>Node3&#45;&gt;Node4</title>
<path fill="none" stroke="midnightblue" d="M342.95,-254.53C363.93,-259.76 387.65,-265.65 409.35,-271.05"/>
<polygon fill="midnightblue" stroke="midnightblue" points="408.62,-274.48 419.17,-273.49 410.31,-267.68 408.62,-274.48"/>
</g>
<!-- Node5 -->
<g id="node5" class="node">
<title>Node5</title>
<g id="a_node5"><a xlink:href="../../d7/d28/classleanux_1_1block_1_1MajorMinor.html#a7ef43192321c82d296575f35b69c52d4" target="_top" xlink:title="Get the udev path for the device.">
<polygon fill="none" stroke="red" points="409,-224.5 409,-254.5 552,-254.5 552,-224.5 409,-224.5"/>
<text text-anchor="start" x="417" y="-242.5" font-family="Helvetica,sans-Serif" font-size="10.00">leanux::block::MajorMinor</text>
<text text-anchor="middle" x="480.5" y="-231.5" font-family="Helvetica,sans-Serif" font-size="10.00">::getUDevPath</text>
</a>
</g>
</g>
<!-- Node3&#45;&gt;Node5 -->
<g id="edge4" class="edge">
<title>Node3&#45;&gt;Node5</title>
<path fill="none" stroke="midnightblue" d="M353.07,-239.5C367.78,-239.5 383.39,-239.5 398.45,-239.5"/>
<polygon fill="midnightblue" stroke="midnightblue" points="398.77,-243 408.77,-239.5 398.77,-236 398.77,-243"/>
</g>
<!-- Node11 -->
<g id="node7" class="node">
<title>Node11</title>
<g id="a_node7"><a xlink:href="../../d8/db1/namespaceleanux_1_1util.html#a6421ca2c46c56eebe1a486c6a498ce7d" target="_top" xlink:title="Test if a file exists and can be read.">
<polygon fill="none" stroke="black" points="405,-186 405,-205 556,-205 556,-186 405,-186"/>
<text text-anchor="middle" x="480.5" y="-193" font-family="Helvetica,sans-Serif" font-size="10.00">leanux::util::fileReadAccess</text>
</a>
</g>
</g>
<!-- Node10&#45;&gt;Node11 -->
<g id="edge6" class="edge">
<title>Node10&#45;&gt;Node11</title>
<path fill="none" stroke="midnightblue" d="M359.23,-192.45C370.84,-192.74 382.88,-193.05 394.66,-193.35"/>
<polygon fill="midnightblue" stroke="midnightblue" points="394.83,-196.85 404.92,-193.61 395.01,-189.85 394.83,-196.85"/>
</g>
<!-- Node12 -->
<g id="node8" class="node">
<title>Node12</title>
<g id="a_node8"><a xlink:href="../../d8/db1/namespaceleanux_1_1util.html#a57bfd49353610b3d0b6d121b264c676e" target="_top" xlink:title="read the file as a single string.">
<polygon fill="none" stroke="black" points="407.5,-148 407.5,-167 553.5,-167 553.5,-148 407.5,-148"/>
<text text-anchor="middle" x="480.5" y="-155" font-family="Helvetica,sans-Serif" font-size="10.00">leanux::util::fileReadString</text>
</a>
</g>
</g>
<!-- Node10&#45;&gt;Node12 -->
<g id="edge7" class="edge">
<title>Node10&#45;&gt;Node12</title>
<path fill="none" stroke="midnightblue" d="M359.23,-177.65C376.84,-174.7 395.43,-171.58 412.59,-168.71"/>
<polygon fill="midnightblue" stroke="midnightblue" points="413.22,-172.15 422.5,-167.05 412.06,-165.25 413.22,-172.15"/>
</g>
<!-- Node14 -->
<g id="node10" class="node">
<title>Node14</title>
<g id="a_node10"><a xlink:href="../../d1/d02/classleanux_1_1sysdevice_1_1SysDevice.html#af93bf56dfb812cdfa443dcfaffcbbb25" target="_top" xlink:title="Get the device class for this device.">
<polygon fill="none" stroke="black" points="422.5,-98.5 422.5,-128.5 538.5,-128.5 538.5,-98.5 422.5,-98.5"/>
<text text-anchor="start" x="430.5" y="-116.5" font-family="Helvetica,sans-Serif" font-size="10.00">leanux::sysdevice::</text>
<text text-anchor="middle" x="480.5" y="-105.5" font-family="Helvetica,sans-Serif" font-size="10.00">SysDevice::getClass</text>
</a>
</g>
</g>
<!-- Node13&#45;&gt;Node14 -->
<g id="edge9" class="edge">
<title>Node13&#45;&gt;Node14</title>
<path fill="none" stroke="midnightblue" d="M369.19,-100.06C383.51,-101.81 398.16,-103.59 411.91,-105.27"/>
<polygon fill="midnightblue" stroke="midnightblue" points="411.89,-108.79 422.24,-106.52 412.73,-101.84 411.89,-108.79"/>
</g>
<!-- Node15 -->
<g id="node11" class="node">
<title>Node15</title>
<g id="a_node11"><a xlink:href="../../d1/d02/classleanux_1_1sysdevice_1_1SysDevice.html#af7a1af7a4b7729e150cceed395e4425b" target="_top" xlink:title="Get the driver for this device.">
<polygon fill="none" stroke="red" points="421,-49.5 421,-79.5 540,-79.5 540,-49.5 421,-49.5"/>
<text text-anchor="start" x="429" y="-67.5" font-family="Helvetica,sans-Serif" font-size="10.00">leanux::sysdevice::</text>
<text text-anchor="middle" x="480.5" y="-56.5" font-family="Helvetica,sans-Serif" font-size="10.00">SysDevice::getDriver</text>
</a>
</g>
</g>
<!-- Node13&#45;&gt;Node15 -->
<g id="edge10" class="edge">
<title>Node13&#45;&gt;Node15</title>
<path fill="none" stroke="midnightblue" d="M369.19,-78.5C383.1,-76.73 397.32,-74.93 410.73,-73.23"/>
<polygon fill="midnightblue" stroke="midnightblue" points="411.32,-76.68 420.8,-71.95 410.44,-69.74 411.32,-76.68"/>
</g>
<!-- Node17 -->
<g id="node12" class="node">
<title>Node17</title>
<g id="a_node12"><a xlink:href="../../d1/d02/classleanux_1_1sysdevice_1_1SysDevice.html#a899968c4a70ecad67694f6850cf730fd" target="_top" xlink:title="Get a string representation for the SysDeviceType.">
<polygon fill="none" stroke="black" points="418,-0.5 418,-30.5 543,-30.5 543,-0.5 418,-0.5"/>
<text text-anchor="start" x="426" y="-18.5" font-family="Helvetica,sans-Serif" font-size="10.00">leanux::sysdevice::</text>
<text text-anchor="middle" x="480.5" y="-7.5" font-family="Helvetica,sans-Serif" font-size="10.00">SysDevice::getTypeStr</text>
</a>
</g>
</g>
<!-- Node13&#45;&gt;Node17 -->
<g id="edge11" class="edge">
<title>Node13&#45;&gt;Node17</title>
<path fill="none" stroke="midnightblue" d="M317.34,-74.46C341.71,-64.14 375.11,-50.4 405,-39.5 410.19,-37.61 415.6,-35.71 421.05,-33.86"/>
<polygon fill="midnightblue" stroke="midnightblue" points="422.45,-37.08 430.83,-30.59 420.23,-30.44 422.45,-37.08"/>
</g>
</g>
</svg>
