<?xml version="1.0" encoding="UTF-8" standalone="no"?>
<!DOCTYPE svg PUBLIC "-//W3C//DTD SVG 1.1//EN"
 "http://www.w3.org/Graphics/SVG/1.1/DTD/svg11.dtd">
<!-- Generated by graphviz version 2.43.0 (0)
 -->
<!-- Title: leanux::util::Tracer Pages: 1 -->
<svg width="173pt" height="163pt"
 viewBox="0.00 0.00 173.00 163.00" xmlns="http://www.w3.org/2000/svg" xmlns:xlink="http://www.w3.org/1999/xlink">
<g id="graph0" class="graph" transform="scale(1 1) rotate(0) translate(4 159)">
<title>leanux::util::Tracer</title>
<!-- Node1 -->
<g id="node1" class="node">
<title>Node1</title>
<g id="a_node1"><a xlink:title="Simple singleton tracing class.">
<polygon fill="#bfbfbf" stroke="black" points="3,-0.5 3,-19.5 110,-19.5 110,-0.5 3,-0.5"/>
<text text-anchor="middle" x="56.5" y="-7.5" font-family="Helvetica,sans-Serif" font-size="10.00">leanux::util::Tracer</text>
</a>
</g>
</g>
<!-- Node1&#45;&gt;Node1 -->
<g id="edge1" class="edge">
<title>Node1&#45;&gt;Node1</title>
<path fill="none" stroke="#9a32cd" stroke-dasharray="5,2" d="M120.38,-14.46C125.1,-13.46 128,-11.97 128,-10 128,-6.84 120.58,-4.93 110.13,-4.27"/>
<polygon fill="#9a32cd" stroke="#9a32cd" points="119.62,-11.03 110.13,-15.73 120.49,-17.97 119.62,-11.03"/>
<text text-anchor="middle" x="146.5" y="-7.5" font-family="Helvetica,sans-Serif" font-size="10.00"> tracer_</text>
</g>
<!-- Node2 -->
<g id="node2" class="node">
<title>Node2</title>
<g id="a_node2"><a xlink:title="STL class.">
<polygon fill="none" stroke="#bfbfbf" points="15.5,-67.5 15.5,-86.5 97.5,-86.5 97.5,-67.5 15.5,-67.5"/>
<text text-anchor="middle" x="56.5" y="-74.5" font-family="Helvetica,sans-Serif" font-size="10.00">std::ofstream</text>
</a>
</g>
</g>
<!-- Node2&#45;&gt;Node1 -->
<g id="edge2" class="edge">
<title>Node2&#45;&gt;Node1</title>
<path fill="none" stroke="#9a32cd" stroke-dasharray="5,2" d="M56.5,-57.04C56.5,-44.67 56.5,-29.12 56.5,-19.63"/>
<polygon fill="#9a32cd" stroke="#9a32cd" points="53,-57.23 56.5,-67.23 60,-57.23 53,-57.23"/>
<text text-anchor="middle" x="66" y="-41" font-family="Helvetica,sans-Serif" font-size="10.00"> of_</text>
</g>
<!-- Node3 -->
<g id="node3" class="node">
<title>Node3</title>
<g id="a_node3"><a xlink:title="STL class.">
<polygon fill="none" stroke="#bfbfbf" points="0,-124.5 0,-154.5 113,-154.5 113,-124.5 0,-124.5"/>
<text text-anchor="start" x="8" y="-142.5" font-family="Helvetica,sans-Serif" font-size="10.00">std::basic_ofstream</text>
<text text-anchor="middle" x="56.5" y="-131.5" font-family="Helvetica,sans-Serif" font-size="10.00">&lt; char &gt;</text>
</a>
</g>
</g>
<!-- Node3&#45;&gt;Node2 -->
<g id="edge3" class="edge">
<title>Node3&#45;&gt;Node2</title>
<path fill="none" stroke="midnightblue" d="M56.5,-114.35C56.5,-104.51 56.5,-93.78 56.5,-86.54"/>
<polygon fill="midnightblue" stroke="midnightblue" points="53,-114.47 56.5,-124.47 60,-114.47 53,-114.47"/>
</g>
</g>
</svg>
