<?xml version="1.0" encoding="UTF-8" standalone="no"?>
<!DOCTYPE svg PUBLIC "-//W3C//DTD SVG 1.1//EN"
 "http://www.w3.org/Graphics/SVG/1.1/DTD/svg11.dtd">
<!-- Generated by graphviz version 2.43.0 (0)
 -->
<!-- Title: lib/device.hpp Pages: 1 -->
<svg width="932pt" height="84pt"
 viewBox="0.00 0.00 931.50 84.00" xmlns="http://www.w3.org/2000/svg" xmlns:xlink="http://www.w3.org/1999/xlink">
<g id="graph0" class="graph" transform="scale(1 1) rotate(0) translate(4 80)">
<title>lib/device.hpp</title>
<!-- Node1 -->
<g id="node1" class="node">
<title>Node1</title>
<g id="a_node1"><a xlink:title=" ">
<polygon fill="#bfbfbf" stroke="black" points="362.5,-56.5 362.5,-75.5 447.5,-75.5 447.5,-56.5 362.5,-56.5"/>
<text text-anchor="middle" x="405" y="-63.5" font-family="Helvetica,sans-Serif" font-size="10.00">lib/device.hpp</text>
</a>
</g>
</g>
<!-- Node2 -->
<g id="node2" class="node">
<title>Node2</title>
<g id="a_node2"><a xlink:href="../../d9/d4d/block_8cpp.html" target="_top" xlink:title=" ">
<polygon fill="none" stroke="black" points="0,-0.5 0,-19.5 78,-19.5 78,-0.5 0,-0.5"/>
<text text-anchor="middle" x="39" y="-7.5" font-family="Helvetica,sans-Serif" font-size="10.00">lib/block.cpp</text>
</a>
</g>
</g>
<!-- Node1&#45;&gt;Node2 -->
<g id="edge1" class="edge">
<title>Node1&#45;&gt;Node2</title>
<path fill="none" stroke="midnightblue" d="M352.36,-58.29C289.2,-50.06 180.16,-35.32 87,-20 84.07,-19.52 81.05,-19 78.01,-18.46"/>
<polygon fill="midnightblue" stroke="midnightblue" points="352.11,-61.78 362.47,-59.6 353.01,-54.84 352.11,-61.78"/>
</g>
<!-- Node3 -->
<g id="node3" class="node">
<title>Node3</title>
<g id="a_node3"><a xlink:href="../../d7/dfc/cpu_8cpp.html" target="_top" xlink:title=" ">
<polygon fill="none" stroke="black" points="96.5,-0.5 96.5,-19.5 165.5,-19.5 165.5,-0.5 96.5,-0.5"/>
<text text-anchor="middle" x="131" y="-7.5" font-family="Helvetica,sans-Serif" font-size="10.00">lib/cpu.cpp</text>
</a>
</g>
</g>
<!-- Node1&#45;&gt;Node3 -->
<g id="edge2" class="edge">
<title>Node1&#45;&gt;Node3</title>
<path fill="none" stroke="midnightblue" d="M352.29,-54.82C305.65,-45.78 235.77,-32.16 175,-20 171.94,-19.39 168.77,-18.75 165.58,-18.1"/>
<polygon fill="midnightblue" stroke="midnightblue" points="351.68,-58.27 362.16,-56.73 353.01,-51.39 351.68,-58.27"/>
</g>
<!-- Node4 -->
<g id="node4" class="node">
<title>Node4</title>
<g id="a_node4"><a xlink:href="../../d3/dd4/device_8cpp.html" target="_top" xlink:title=" ">
<polygon fill="none" stroke="black" points="184,-0.5 184,-19.5 268,-19.5 268,-0.5 184,-0.5"/>
<text text-anchor="middle" x="226" y="-7.5" font-family="Helvetica,sans-Serif" font-size="10.00">lib/device.cpp</text>
</a>
</g>
</g>
<!-- Node1&#45;&gt;Node4 -->
<g id="edge3" class="edge">
<title>Node1&#45;&gt;Node4</title>
<path fill="none" stroke="midnightblue" d="M366.67,-53.44C332.92,-43.26 284.55,-28.66 254.23,-19.52"/>
<polygon fill="midnightblue" stroke="midnightblue" points="366.05,-56.91 376.64,-56.44 368.07,-50.2 366.05,-56.91"/>
</g>
<!-- Node5 -->
<g id="node5" class="node">
<title>Node5</title>
<g id="a_node5"><a xlink:href="../../d5/d87/pci_8cpp.html" target="_top" xlink:title=" ">
<polygon fill="none" stroke="black" points="286,-0.5 286,-19.5 352,-19.5 352,-0.5 286,-0.5"/>
<text text-anchor="middle" x="319" y="-7.5" font-family="Helvetica,sans-Serif" font-size="10.00">lib/pci.cpp</text>
</a>
</g>
</g>
<!-- Node1&#45;&gt;Node5 -->
<g id="edge4" class="edge">
<title>Node1&#45;&gt;Node5</title>
<path fill="none" stroke="midnightblue" d="M382.55,-50.9C366.78,-41 346.19,-28.07 332.78,-19.65"/>
<polygon fill="midnightblue" stroke="midnightblue" points="380.85,-53.97 391.18,-56.32 384.57,-48.04 380.85,-53.97"/>
</g>
<!-- Node6 -->
<g id="node6" class="node">
<title>Node6</title>
<g id="a_node6"><a xlink:href="../../d3/d35/usb_8cpp.html" target="_top" xlink:title=" ">
<polygon fill="none" stroke="black" points="370.5,-0.5 370.5,-19.5 439.5,-19.5 439.5,-0.5 370.5,-0.5"/>
<text text-anchor="middle" x="405" y="-7.5" font-family="Helvetica,sans-Serif" font-size="10.00">lib/usb.cpp</text>
</a>
</g>
</g>
<!-- Node1&#45;&gt;Node6 -->
<g id="edge5" class="edge">
<title>Node1&#45;&gt;Node6</title>
<path fill="none" stroke="midnightblue" d="M405,-45.8C405,-36.91 405,-26.78 405,-19.75"/>
<polygon fill="midnightblue" stroke="midnightblue" points="401.5,-46.08 405,-56.08 408.5,-46.08 401.5,-46.08"/>
</g>
<!-- Node7 -->
<g id="node7" class="node">
<title>Node7</title>
<g id="a_node7"><a xlink:href="../../dd/d15/lrep_8cpp.html" target="_top" xlink:title=" ">
<polygon fill="none" stroke="black" points="458,-0.5 458,-19.5 562,-19.5 562,-0.5 458,-0.5"/>
<text text-anchor="middle" x="510" y="-7.5" font-family="Helvetica,sans-Serif" font-size="10.00">tools/lrep/lrep.cpp</text>
</a>
</g>
</g>
<!-- Node1&#45;&gt;Node7 -->
<g id="edge6" class="edge">
<title>Node1&#45;&gt;Node7</title>
<path fill="none" stroke="midnightblue" d="M430.81,-51.73C450.25,-41.73 476.35,-28.31 493.17,-19.65"/>
<polygon fill="midnightblue" stroke="midnightblue" points="429.16,-48.64 421.87,-56.32 432.36,-54.86 429.16,-48.64"/>
</g>
<!-- Node8 -->
<g id="node8" class="node">
<title>Node8</title>
<g id="a_node8"><a xlink:href="../../de/d17/lsys_8cpp.html" target="_top" xlink:title=" ">
<polygon fill="none" stroke="black" points="580,-0.5 580,-19.5 686,-19.5 686,-0.5 580,-0.5"/>
<text text-anchor="middle" x="633" y="-7.5" font-family="Helvetica,sans-Serif" font-size="10.00">tools/lsys/lsys.cpp</text>
</a>
</g>
</g>
<!-- Node1&#45;&gt;Node8 -->
<g id="edge7" class="edge">
<title>Node1&#45;&gt;Node8</title>
<path fill="none" stroke="midnightblue" d="M451.07,-54.09C494.15,-43.89 557.59,-28.86 597.04,-19.52"/>
<polygon fill="midnightblue" stroke="midnightblue" points="450.05,-50.73 441.13,-56.44 451.66,-57.54 450.05,-50.73"/>
</g>
<!-- Node9 -->
<g id="node9" class="node">
<title>Node9</title>
<g id="a_node9"><a xlink:href="../../da/de9/lar_8cpp.html" target="_top" xlink:title=" ">
<polygon fill="none" stroke="black" points="704,-0.5 704,-19.5 802,-19.5 802,-0.5 704,-0.5"/>
<text text-anchor="middle" x="753" y="-7.5" font-family="Helvetica,sans-Serif" font-size="10.00">tools/lard/lar.cpp</text>
</a>
</g>
</g>
<!-- Node1&#45;&gt;Node9 -->
<g id="edge8" class="edge">
<title>Node1&#45;&gt;Node9</title>
<path fill="none" stroke="midnightblue" d="M457.57,-56.84C524.34,-46.48 638.69,-28.74 703.81,-18.63"/>
<polygon fill="midnightblue" stroke="midnightblue" points="457.02,-53.39 447.67,-58.38 458.09,-60.3 457.02,-53.39"/>
</g>
<!-- Node10 -->
<g id="node10" class="node">
<title>Node10</title>
<g id="a_node10"><a xlink:href="../../d9/d3a/lblk_8cpp.html" target="_top" xlink:title=" ">
<polygon fill="none" stroke="black" points="820.5,-0.5 820.5,-19.5 923.5,-19.5 923.5,-0.5 820.5,-0.5"/>
<text text-anchor="middle" x="872" y="-7.5" font-family="Helvetica,sans-Serif" font-size="10.00">tools/lblk/lblk.cpp</text>
</a>
</g>
</g>
<!-- Node1&#45;&gt;Node10 -->
<g id="edge9" class="edge">
<title>Node1&#45;&gt;Node10</title>
<path fill="none" stroke="midnightblue" d="M457.73,-59.77C535.24,-51.94 684.45,-36.34 811,-20 814.08,-19.6 817.24,-19.18 820.43,-18.74"/>
<polygon fill="midnightblue" stroke="midnightblue" points="457.33,-56.29 447.73,-60.78 458.03,-63.26 457.33,-56.29"/>
</g>
</g>
</svg>
