<?xml version="1.0" encoding="UTF-8" standalone="no"?>
<!DOCTYPE svg PUBLIC "-//W3C//DTD SVG 1.1//EN"
 "http://www.w3.org/Graphics/SVG/1.1/DTD/svg11.dtd">
<!-- Generated by graphviz version 2.43.0 (0)
 -->
<!-- Title: leanux::tools::lmon::LardHistory Pages: 1 -->
<svg width="618pt" height="259pt"
 viewBox="0.00 0.00 618.00 259.17" xmlns="http://www.w3.org/2000/svg" xmlns:xlink="http://www.w3.org/1999/xlink">
<g id="graph0" class="graph" transform="scale(1 1) rotate(0) translate(4 255.17)">
<title>leanux::tools::lmon::LardHistory</title>
<!-- Node1 -->
<g id="node1" class="node">
<title>Node1</title>
<g id="a_node1"><a xlink:title=" ">
<polygon fill="#bfbfbf" stroke="black" points="500,-125.17 500,-155.17 610,-155.17 610,-125.17 500,-125.17"/>
<text text-anchor="start" x="508" y="-143.17" font-family="Helvetica,sans-Serif" font-size="10.00">leanux::tools::lmon</text>
<text text-anchor="middle" x="555" y="-132.17" font-family="Helvetica,sans-Serif" font-size="10.00">::LardHistory</text>
</a>
</g>
</g>
<!-- Node2 -->
<g id="node2" class="node">
<title>Node2</title>
<g id="a_node2"><a xlink:title=" ">
<polygon fill="none" stroke="#bfbfbf" points="258.5,-185.67 258.5,-204.67 306.5,-204.67 306.5,-185.67 258.5,-185.67"/>
<text text-anchor="middle" x="282.5" y="-192.67" font-family="Helvetica,sans-Serif" font-size="10.00">time_t</text>
</a>
</g>
</g>
<!-- Node2&#45;&gt;Node1 -->
<g id="edge1" class="edge">
<title>Node2&#45;&gt;Node1</title>
<path fill="none" stroke="#9a32cd" stroke-dasharray="5,2" d="M316.91,-192.36C356.69,-188.54 424.91,-180.49 482,-166.17 493.47,-163.29 505.67,-159.27 516.7,-155.25"/>
<polygon fill="#9a32cd" stroke="#9a32cd" points="316.35,-188.89 306.72,-193.3 317,-195.86 316.35,-188.89"/>
<text text-anchor="start" x="374" y="-243.17" font-family="Helvetica,sans-Serif" font-size="10.00"> snap_max_stop_time</text>
<text text-anchor="middle" x="428" y="-232.17" font-family="Helvetica,sans-Serif" font-size="10.00">_</text>
<text text-anchor="start" x="374" y="-221.17" font-family="Helvetica,sans-Serif" font-size="10.00">snap_min_start</text>
<text text-anchor="middle" x="428" y="-210.17" font-family="Helvetica,sans-Serif" font-size="10.00">_time_</text>
<text text-anchor="middle" x="428" y="-199.17" font-family="Helvetica,sans-Serif" font-size="10.00">zoom_</text>
<text text-anchor="middle" x="428" y="-188.17" font-family="Helvetica,sans-Serif" font-size="10.00">snap_avg_time_</text>
</g>
<!-- Node3 -->
<g id="node3" class="node">
<title>Node3</title>
<g id="a_node3"><a xlink:href="../../d8/daf/classleanux_1_1persist_1_1Database.html" target="_top" xlink:title="A STL friendly wrapper around a sqlite3 database.">
<polygon fill="none" stroke="black" points="212,-147.67 212,-166.67 353,-166.67 353,-147.67 212,-147.67"/>
<text text-anchor="middle" x="282.5" y="-154.67" font-family="Helvetica,sans-Serif" font-size="10.00">leanux::persist::Database</text>
</a>
</g>
</g>
<!-- Node3&#45;&gt;Node1 -->
<g id="edge2" class="edge">
<title>Node3&#45;&gt;Node1</title>
<path fill="none" stroke="#9a32cd" stroke-dasharray="5,2" d="M363.27,-152.15C407.29,-149.39 460.81,-146.02 499.94,-143.56"/>
<polygon fill="#9a32cd" stroke="#9a32cd" points="362.92,-148.67 353.16,-152.79 363.36,-155.65 362.92,-148.67"/>
<text text-anchor="middle" x="428" y="-154.17" font-family="Helvetica,sans-Serif" font-size="10.00"> db_</text>
</g>
<!-- Node4 -->
<g id="node4" class="node">
<title>Node4</title>
<g id="a_node4"><a xlink:title=" ">
<polygon fill="none" stroke="#bfbfbf" points="30.5,-147.67 30.5,-166.67 88.5,-166.67 88.5,-147.67 30.5,-147.67"/>
<text text-anchor="middle" x="59.5" y="-154.67" font-family="Helvetica,sans-Serif" font-size="10.00">sqlite3 *</text>
</a>
</g>
</g>
<!-- Node4&#45;&gt;Node3 -->
<g id="edge3" class="edge">
<title>Node4&#45;&gt;Node3</title>
<path fill="none" stroke="#9a32cd" stroke-dasharray="5,2" d="M99.34,-157.17C130.39,-157.17 174.71,-157.17 211.86,-157.17"/>
<polygon fill="#9a32cd" stroke="#9a32cd" points="98.94,-153.67 88.94,-157.17 98.94,-160.67 98.94,-153.67"/>
<text text-anchor="middle" x="164" y="-160.17" font-family="Helvetica,sans-Serif" font-size="10.00"> database_</text>
</g>
<!-- Node5 -->
<g id="node5" class="node">
<title>Node5</title>
<g id="a_node5"><a xlink:title=" ">
<polygon fill="none" stroke="#bfbfbf" points="209,-87.67 209,-128.67 356,-128.67 356,-87.67 209,-87.67"/>
<text text-anchor="start" x="217" y="-116.67" font-family="Helvetica,sans-Serif" font-size="10.00">std::map&lt; leanux::tools</text>
<text text-anchor="start" x="217" y="-105.67" font-family="Helvetica,sans-Serif" font-size="10.00">::lmon::SnapRange, leanux</text>
<text text-anchor="middle" x="282.5" y="-94.67" font-family="Helvetica,sans-Serif" font-size="10.00">::cpu::CPUStat &gt;</text>
</a>
</g>
</g>
<!-- Node5&#45;&gt;Node1 -->
<g id="edge4" class="edge">
<title>Node5&#45;&gt;Node1</title>
<path fill="none" stroke="#9a32cd" stroke-dasharray="5,2" d="M366.53,-116.09C402.13,-119.71 444.15,-124.27 482,-129.17 487.77,-129.91 493.79,-130.74 499.78,-131.61"/>
<polygon fill="#9a32cd" stroke="#9a32cd" points="366.49,-112.56 356.19,-115.04 365.79,-119.53 366.49,-112.56"/>
<text text-anchor="middle" x="428" y="-132.17" font-family="Helvetica,sans-Serif" font-size="10.00"> cpumap_</text>
</g>
<!-- Node6 -->
<g id="node6" class="node">
<title>Node6</title>
<g id="a_node6"><a xlink:href="../../da/dbe/namespaceleanux_1_1tools_1_1lmon.html#d4/de6/structleanux_1_1tools_1_1lmon_1_1SnapRange" target="_top" xlink:title=" ">
<polygon fill="none" stroke="red" points="4.5,-95.17 4.5,-125.17 114.5,-125.17 114.5,-95.17 4.5,-95.17"/>
<text text-anchor="start" x="12.5" y="-113.17" font-family="Helvetica,sans-Serif" font-size="10.00">leanux::tools::lmon</text>
<text text-anchor="middle" x="59.5" y="-102.17" font-family="Helvetica,sans-Serif" font-size="10.00">::SnapRange</text>
</a>
</g>
</g>
<!-- Node6&#45;&gt;Node5 -->
<g id="edge5" class="edge">
<title>Node6&#45;&gt;Node5</title>
<path fill="none" stroke="#9a32cd" stroke-dasharray="5,2" d="M124.8,-109.58C151.11,-109.35 181.68,-109.07 208.8,-108.82"/>
<polygon fill="#9a32cd" stroke="#9a32cd" points="124.53,-106.09 114.56,-109.68 124.59,-113.09 124.53,-106.09"/>
<text text-anchor="middle" x="164" y="-112.17" font-family="Helvetica,sans-Serif" font-size="10.00"> keys</text>
</g>
<!-- Node8 -->
<g id="node7" class="node">
<title>Node8</title>
<g id="a_node7"><a xlink:href="../../da/da3/namespaceleanux_1_1cpu.html#d0/d5a/structleanux_1_1cpu_1_1CPUStat" target="_top" xlink:title="CPU usage statistics from /proc/stat.">
<polygon fill="none" stroke="red" points="0,-56.67 0,-75.67 119,-75.67 119,-56.67 0,-56.67"/>
<text text-anchor="middle" x="59.5" y="-63.67" font-family="Helvetica,sans-Serif" font-size="10.00">leanux::cpu::CPUStat</text>
</a>
</g>
</g>
<!-- Node8&#45;&gt;Node5 -->
<g id="edge6" class="edge">
<title>Node8&#45;&gt;Node5</title>
<path fill="none" stroke="#9a32cd" stroke-dasharray="5,2" d="M120.81,-77.63C148.02,-82.8 180.39,-88.95 208.92,-94.37"/>
<polygon fill="#9a32cd" stroke="#9a32cd" points="121.13,-74.12 110.65,-75.7 119.82,-81 121.13,-74.12"/>
<text text-anchor="middle" x="164" y="-93.17" font-family="Helvetica,sans-Serif" font-size="10.00"> elements</text>
</g>
<!-- Node10 -->
<g id="node8" class="node">
<title>Node10</title>
<g id="a_node8"><a xlink:title=" ">
<polygon fill="none" stroke="#bfbfbf" points="263.5,-2.67 263.5,-21.67 301.5,-21.67 301.5,-2.67 263.5,-2.67"/>
<text text-anchor="middle" x="282.5" y="-9.67" font-family="Helvetica,sans-Serif" font-size="10.00">long</text>
</a>
</g>
</g>
<!-- Node10&#45;&gt;Node1 -->
<g id="edge7" class="edge">
<title>Node10&#45;&gt;Node1</title>
<path fill="none" stroke="#9a32cd" stroke-dasharray="5,2" d="M311.54,-6.28C352.24,0.68 428.65,7.66 482,-24.17 520.27,-46.99 541.16,-98.85 549.56,-124.79"/>
<polygon fill="#9a32cd" stroke="#9a32cd" points="310.73,-2.87 301.52,-8.12 311.99,-9.76 310.73,-2.87"/>
<text text-anchor="middle" x="428" y="-104.17" font-family="Helvetica,sans-Serif" font-size="10.00"> snap_min_</text>
<text text-anchor="middle" x="428" y="-93.17" font-family="Helvetica,sans-Serif" font-size="10.00">snap_end_time_</text>
<text text-anchor="middle" x="428" y="-82.17" font-family="Helvetica,sans-Serif" font-size="10.00">snap_end_</text>
<text text-anchor="middle" x="428" y="-71.17" font-family="Helvetica,sans-Serif" font-size="10.00">snap_max_</text>
<text text-anchor="middle" x="428" y="-60.17" font-family="Helvetica,sans-Serif" font-size="10.00">snap_range_</text>
<text text-anchor="start" x="388" y="-49.17" font-family="Helvetica,sans-Serif" font-size="10.00">snap_start_time</text>
<text text-anchor="middle" x="428" y="-38.17" font-family="Helvetica,sans-Serif" font-size="10.00">_</text>
<text text-anchor="middle" x="428" y="-27.17" font-family="Helvetica,sans-Serif" font-size="10.00">snap_start_</text>
</g>
</g>
</svg>
