<?xml version="1.0" encoding="UTF-8" standalone="no"?>
<!DOCTYPE svg PUBLIC "-//W3C//DTD SVG 1.1//EN"
 "http://www.w3.org/Graphics/SVG/1.1/DTD/svg11.dtd">
<!-- Generated by graphviz version 2.43.0 (0)
 -->
<!-- Title: leanux::sysdevice::MDDevice::getPropertyValueList Pages: 1 -->
<svg width="580pt" height="312pt"
 viewBox="0.00 0.00 580.00 312.00" xmlns="http://www.w3.org/2000/svg" xmlns:xlink="http://www.w3.org/1999/xlink">
<g id="graph0" class="graph" transform="scale(1 1) rotate(0) translate(4 308)">
<title>leanux::sysdevice::MDDevice::getPropertyValueList</title>
<!-- Node1 -->
<g id="node1" class="node">
<title>Node1</title>
<g id="a_node1"><a xlink:title=" ">
<polygon fill="#bfbfbf" stroke="black" points="0,-199.5 0,-229.5 174,-229.5 174,-199.5 0,-199.5"/>
<text text-anchor="start" x="8" y="-217.5" font-family="Helvetica,sans-Serif" font-size="10.00">leanux::sysdevice::</text>
<text text-anchor="middle" x="87" y="-206.5" font-family="Helvetica,sans-Serif" font-size="10.00">MDDevice::getPropertyValueList</text>
</a>
</g>
</g>
<!-- Node2 -->
<g id="node2" class="node">
<title>Node2</title>
<g id="a_node2"><a xlink:href="../../d8/db1/namespaceleanux_1_1util.html#a979843e3d99f053101f902ec38985833" target="_top" xlink:title="convert a byte value to pretty print string.">
<polygon fill="none" stroke="black" points="241,-274 241,-293 354,-293 354,-274 241,-274"/>
<text text-anchor="middle" x="297.5" y="-281" font-family="Helvetica,sans-Serif" font-size="10.00">leanux::util::ByteStr</text>
</a>
</g>
</g>
<!-- Node1&#45;&gt;Node2 -->
<g id="edge1" class="edge">
<title>Node1&#45;&gt;Node2</title>
<path fill="none" stroke="midnightblue" d="M120.32,-229.54C144.59,-240.39 178.86,-254.78 210,-264.5 218.32,-267.1 227.19,-269.47 235.97,-271.6"/>
<polygon fill="midnightblue" stroke="midnightblue" points="235.27,-275.03 245.8,-273.9 236.86,-268.22 235.27,-275.03"/>
</g>
<!-- Node3 -->
<g id="node3" class="node">
<title>Node3</title>
<g id="a_node3"><a xlink:href="../../d7/d28/classleanux_1_1block_1_1MajorMinor.html#a53428887ee9d78196b265e624087ce2b" target="_top" xlink:title="get a list of device aliases, returned as full paths.">
<polygon fill="none" stroke="black" points="226,-224.5 226,-254.5 369,-254.5 369,-224.5 226,-224.5"/>
<text text-anchor="start" x="234" y="-242.5" font-family="Helvetica,sans-Serif" font-size="10.00">leanux::block::MajorMinor</text>
<text text-anchor="middle" x="297.5" y="-231.5" font-family="Helvetica,sans-Serif" font-size="10.00">::getAliases</text>
</a>
</g>
</g>
<!-- Node1&#45;&gt;Node3 -->
<g id="edge2" class="edge">
<title>Node1&#45;&gt;Node3</title>
<path fill="none" stroke="midnightblue" d="M174.01,-224.81C187.77,-226.46 201.98,-228.17 215.62,-229.8"/>
<polygon fill="midnightblue" stroke="midnightblue" points="215.58,-233.32 225.93,-231.04 216.41,-226.37 215.58,-233.32"/>
</g>
<!-- Node10 -->
<g id="node6" class="node">
<title>Node10</title>
<g id="a_node6"><a xlink:href="../../d2/d31/classleanux_1_1sysdevice_1_1BlockDevice.html#aaed715a73aad1b5f05aaad7906c9ea57" target="_top" xlink:title=" ">
<polygon fill="none" stroke="black" points="220,-175.5 220,-205.5 375,-205.5 375,-175.5 220,-175.5"/>
<text text-anchor="start" x="228" y="-193.5" font-family="Helvetica,sans-Serif" font-size="10.00">leanux::sysdevice::</text>
<text text-anchor="middle" x="297.5" y="-182.5" font-family="Helvetica,sans-Serif" font-size="10.00">BlockDevice::getMajorMinor</text>
</a>
</g>
</g>
<!-- Node1&#45;&gt;Node10 -->
<g id="edge5" class="edge">
<title>Node1&#45;&gt;Node10</title>
<path fill="none" stroke="midnightblue" d="M174.01,-204.6C185.72,-203.25 197.75,-201.87 209.48,-200.52"/>
<polygon fill="midnightblue" stroke="midnightblue" points="210.16,-203.96 219.7,-199.34 209.36,-197.01 210.16,-203.96"/>
</g>
<!-- Node13 -->
<g id="node9" class="node">
<title>Node13</title>
<g id="a_node9"><a xlink:href="../../d1/d02/classleanux_1_1sysdevice_1_1SysDevice.html#ae45d4c50b05a48b480911a1aaeaeacc1" target="_top" xlink:title=" ">
<polygon fill="none" stroke="black" points="210,-74.5 210,-104.5 385,-104.5 385,-74.5 210,-74.5"/>
<text text-anchor="start" x="218" y="-92.5" font-family="Helvetica,sans-Serif" font-size="10.00">leanux::sysdevice::</text>
<text text-anchor="middle" x="297.5" y="-81.5" font-family="Helvetica,sans-Serif" font-size="10.00">SysDevice::getPropertyValueList</text>
</a>
</g>
</g>
<!-- Node1&#45;&gt;Node13 -->
<g id="edge8" class="edge">
<title>Node1&#45;&gt;Node13</title>
<path fill="none" stroke="midnightblue" d="M113.15,-199.42C150.49,-177.04 220.66,-134.97 262.53,-109.87"/>
<polygon fill="midnightblue" stroke="midnightblue" points="264.48,-112.78 271.26,-104.63 260.88,-106.77 264.48,-112.78"/>
</g>
<!-- Node4 -->
<g id="node4" class="node">
<title>Node4</title>
<g id="a_node4"><a xlink:href="../../d7/d28/classleanux_1_1block_1_1MajorMinor.html#a8fa26dbc85f683ed73fcec3a2db42821" target="_top" xlink:title="return the MajorMinor dev_t.">
<polygon fill="none" stroke="black" points="425,-273.5 425,-303.5 568,-303.5 568,-273.5 425,-273.5"/>
<text text-anchor="start" x="433" y="-291.5" font-family="Helvetica,sans-Serif" font-size="10.00">leanux::block::MajorMinor</text>
<text text-anchor="middle" x="496.5" y="-280.5" font-family="Helvetica,sans-Serif" font-size="10.00">::getDevT</text>
</a>
</g>
</g>
<!-- Node3&#45;&gt;Node4 -->
<g id="edge3" class="edge">
<title>Node3&#45;&gt;Node4</title>
<path fill="none" stroke="midnightblue" d="M358.95,-254.53C379.93,-259.76 403.65,-265.65 425.35,-271.05"/>
<polygon fill="midnightblue" stroke="midnightblue" points="424.62,-274.48 435.17,-273.49 426.31,-267.68 424.62,-274.48"/>
</g>
<!-- Node5 -->
<g id="node5" class="node">
<title>Node5</title>
<g id="a_node5"><a xlink:href="../../d7/d28/classleanux_1_1block_1_1MajorMinor.html#a7ef43192321c82d296575f35b69c52d4" target="_top" xlink:title="Get the udev path for the device.">
<polygon fill="none" stroke="red" points="425,-224.5 425,-254.5 568,-254.5 568,-224.5 425,-224.5"/>
<text text-anchor="start" x="433" y="-242.5" font-family="Helvetica,sans-Serif" font-size="10.00">leanux::block::MajorMinor</text>
<text text-anchor="middle" x="496.5" y="-231.5" font-family="Helvetica,sans-Serif" font-size="10.00">::getUDevPath</text>
</a>
</g>
</g>
<!-- Node3&#45;&gt;Node5 -->
<g id="edge4" class="edge">
<title>Node3&#45;&gt;Node5</title>
<path fill="none" stroke="midnightblue" d="M369.07,-239.5C383.78,-239.5 399.39,-239.5 414.45,-239.5"/>
<polygon fill="midnightblue" stroke="midnightblue" points="414.77,-243 424.77,-239.5 414.77,-236 414.77,-243"/>
</g>
<!-- Node11 -->
<g id="node7" class="node">
<title>Node11</title>
<g id="a_node7"><a xlink:href="../../d8/db1/namespaceleanux_1_1util.html#a6421ca2c46c56eebe1a486c6a498ce7d" target="_top" xlink:title="Test if a file exists and can be read.">
<polygon fill="none" stroke="black" points="421,-186 421,-205 572,-205 572,-186 421,-186"/>
<text text-anchor="middle" x="496.5" y="-193" font-family="Helvetica,sans-Serif" font-size="10.00">leanux::util::fileReadAccess</text>
</a>
</g>
</g>
<!-- Node10&#45;&gt;Node11 -->
<g id="edge6" class="edge">
<title>Node10&#45;&gt;Node11</title>
<path fill="none" stroke="midnightblue" d="M375.23,-192.45C386.84,-192.74 398.88,-193.05 410.66,-193.35"/>
<polygon fill="midnightblue" stroke="midnightblue" points="410.83,-196.85 420.92,-193.61 411.01,-189.85 410.83,-196.85"/>
</g>
<!-- Node12 -->
<g id="node8" class="node">
<title>Node12</title>
<g id="a_node8"><a xlink:href="../../d8/db1/namespaceleanux_1_1util.html#a57bfd49353610b3d0b6d121b264c676e" target="_top" xlink:title="read the file as a single string.">
<polygon fill="none" stroke="black" points="423.5,-148 423.5,-167 569.5,-167 569.5,-148 423.5,-148"/>
<text text-anchor="middle" x="496.5" y="-155" font-family="Helvetica,sans-Serif" font-size="10.00">leanux::util::fileReadString</text>
</a>
</g>
</g>
<!-- Node10&#45;&gt;Node12 -->
<g id="edge7" class="edge">
<title>Node10&#45;&gt;Node12</title>
<path fill="none" stroke="midnightblue" d="M375.23,-177.65C392.84,-174.7 411.43,-171.58 428.59,-168.71"/>
<polygon fill="midnightblue" stroke="midnightblue" points="429.22,-172.15 438.5,-167.05 428.06,-165.25 429.22,-172.15"/>
</g>
<!-- Node14 -->
<g id="node10" class="node">
<title>Node14</title>
<g id="a_node10"><a xlink:href="../../d1/d02/classleanux_1_1sysdevice_1_1SysDevice.html#af93bf56dfb812cdfa443dcfaffcbbb25" target="_top" xlink:title="Get the device class for this device.">
<polygon fill="none" stroke="black" points="438.5,-98.5 438.5,-128.5 554.5,-128.5 554.5,-98.5 438.5,-98.5"/>
<text text-anchor="start" x="446.5" y="-116.5" font-family="Helvetica,sans-Serif" font-size="10.00">leanux::sysdevice::</text>
<text text-anchor="middle" x="496.5" y="-105.5" font-family="Helvetica,sans-Serif" font-size="10.00">SysDevice::getClass</text>
</a>
</g>
</g>
<!-- Node13&#45;&gt;Node14 -->
<g id="edge9" class="edge">
<title>Node13&#45;&gt;Node14</title>
<path fill="none" stroke="midnightblue" d="M385.19,-100.06C399.51,-101.81 414.16,-103.59 427.91,-105.27"/>
<polygon fill="midnightblue" stroke="midnightblue" points="427.89,-108.79 438.24,-106.52 428.73,-101.84 427.89,-108.79"/>
</g>
<!-- Node15 -->
<g id="node11" class="node">
<title>Node15</title>
<g id="a_node11"><a xlink:href="../../d1/d02/classleanux_1_1sysdevice_1_1SysDevice.html#af7a1af7a4b7729e150cceed395e4425b" target="_top" xlink:title="Get the driver for this device.">
<polygon fill="none" stroke="red" points="437,-49.5 437,-79.5 556,-79.5 556,-49.5 437,-49.5"/>
<text text-anchor="start" x="445" y="-67.5" font-family="Helvetica,sans-Serif" font-size="10.00">leanux::sysdevice::</text>
<text text-anchor="middle" x="496.5" y="-56.5" font-family="Helvetica,sans-Serif" font-size="10.00">SysDevice::getDriver</text>
</a>
</g>
</g>
<!-- Node13&#45;&gt;Node15 -->
<g id="edge10" class="edge">
<title>Node13&#45;&gt;Node15</title>
<path fill="none" stroke="midnightblue" d="M385.19,-78.5C399.1,-76.73 413.32,-74.93 426.73,-73.23"/>
<polygon fill="midnightblue" stroke="midnightblue" points="427.32,-76.68 436.8,-71.95 426.44,-69.74 427.32,-76.68"/>
</g>
<!-- Node17 -->
<g id="node12" class="node">
<title>Node17</title>
<g id="a_node12"><a xlink:href="../../d1/d02/classleanux_1_1sysdevice_1_1SysDevice.html#a899968c4a70ecad67694f6850cf730fd" target="_top" xlink:title="Get a string representation for the SysDeviceType.">
<polygon fill="none" stroke="black" points="434,-0.5 434,-30.5 559,-30.5 559,-0.5 434,-0.5"/>
<text text-anchor="start" x="442" y="-18.5" font-family="Helvetica,sans-Serif" font-size="10.00">leanux::sysdevice::</text>
<text text-anchor="middle" x="496.5" y="-7.5" font-family="Helvetica,sans-Serif" font-size="10.00">SysDevice::getTypeStr</text>
</a>
</g>
</g>
<!-- Node13&#45;&gt;Node17 -->
<g id="edge11" class="edge">
<title>Node13&#45;&gt;Node17</title>
<path fill="none" stroke="midnightblue" d="M333.34,-74.46C357.71,-64.14 391.11,-50.4 421,-39.5 426.19,-37.61 431.6,-35.71 437.05,-33.86"/>
<polygon fill="midnightblue" stroke="midnightblue" points="438.45,-37.08 446.83,-30.59 436.23,-30.44 438.45,-37.08"/>
</g>
</g>
</svg>
