<?xml version="1.0" encoding="UTF-8" standalone="no"?>
<!DOCTYPE svg PUBLIC "-//W3C//DTD SVG 1.1//EN"
 "http://www.w3.org/Graphics/SVG/1.1/DTD/svg11.dtd">
<!-- Generated by graphviz version 2.43.0 (0)
 -->
<!-- Title: leanux::sysdevice::iSCSIDevice Pages: 1 -->
<svg width="202pt" height="185pt"
 viewBox="0.00 0.00 201.50 185.00" xmlns="http://www.w3.org/2000/svg" xmlns:xlink="http://www.w3.org/1999/xlink">
<g id="graph0" class="graph" transform="scale(1 1) rotate(0) translate(4 181)">
<title>leanux::sysdevice::iSCSIDevice</title>
<!-- Node1 -->
<g id="node1" class="node">
<title>Node1</title>
<g id="a_node1"><a xlink:title="Say yes to iSCSI devices.">
<polygon fill="#bfbfbf" stroke="black" points="60,-0.5 60,-30.5 170,-30.5 170,-0.5 60,-0.5"/>
<text text-anchor="start" x="68" y="-18.5" font-family="Helvetica,sans-Serif" font-size="10.00">leanux::sysdevice::</text>
<text text-anchor="middle" x="115" y="-7.5" font-family="Helvetica,sans-Serif" font-size="10.00">iSCSIDevice</text>
</a>
</g>
</g>
<!-- Node2 -->
<g id="node2" class="node">
<title>Node2</title>
<g id="a_node2"><a xlink:href="../../dd/df8/classleanux_1_1sysdevice_1_1SCSIDevice.html" target="_top" xlink:title="Say yes to SCSI devices.">
<polygon fill="none" stroke="black" points="15,-68.5 15,-98.5 125,-98.5 125,-68.5 15,-68.5"/>
<text text-anchor="start" x="23" y="-86.5" font-family="Helvetica,sans-Serif" font-size="10.00">leanux::sysdevice::</text>
<text text-anchor="middle" x="70" y="-75.5" font-family="Helvetica,sans-Serif" font-size="10.00">SCSIDevice</text>
</a>
</g>
</g>
<!-- Node2&#45;&gt;Node1 -->
<g id="edge1" class="edge">
<title>Node2&#45;&gt;Node1</title>
<path fill="none" stroke="midnightblue" d="M85.47,-59.81C92.03,-50.19 99.48,-39.26 105.25,-30.79"/>
<polygon fill="midnightblue" stroke="midnightblue" points="82.51,-57.94 79.76,-68.18 88.29,-61.89 82.51,-57.94"/>
</g>
<!-- Node3 -->
<g id="node3" class="node">
<title>Node3</title>
<g id="a_node3"><a xlink:href="../../d2/d31/classleanux_1_1sysdevice_1_1BlockDevice.html" target="_top" xlink:title="Generic block device.">
<polygon fill="none" stroke="red" points="0,-146.5 0,-176.5 110,-176.5 110,-146.5 0,-146.5"/>
<text text-anchor="start" x="8" y="-164.5" font-family="Helvetica,sans-Serif" font-size="10.00">leanux::sysdevice::</text>
<text text-anchor="middle" x="55" y="-153.5" font-family="Helvetica,sans-Serif" font-size="10.00">BlockDevice</text>
</a>
</g>
</g>
<!-- Node3&#45;&gt;Node2 -->
<g id="edge2" class="edge">
<title>Node3&#45;&gt;Node2</title>
<path fill="none" stroke="midnightblue" d="M59.82,-136.09C62.25,-123.76 65.12,-109.22 67.19,-98.73"/>
<polygon fill="midnightblue" stroke="midnightblue" points="56.32,-135.72 57.82,-146.2 63.19,-137.07 56.32,-135.72"/>
</g>
<!-- Node6 -->
<g id="node4" class="node">
<title>Node6</title>
<g id="a_node4"><a xlink:title="STL class.">
<polygon fill="none" stroke="#bfbfbf" points="128.5,-152 128.5,-171 193.5,-171 193.5,-152 128.5,-152"/>
<text text-anchor="middle" x="161" y="-159" font-family="Helvetica,sans-Serif" font-size="10.00">std::string</text>
</a>
</g>
</g>
<!-- Node6&#45;&gt;Node1 -->
<g id="edge4" class="edge">
<title>Node6&#45;&gt;Node1</title>
<path fill="none" stroke="#9a32cd" stroke-dasharray="5,2" d="M155.97,-141.87C150.81,-123.1 142.37,-93.38 134,-68 129.82,-55.33 124.53,-41.12 120.59,-30.84"/>
<polygon fill="#9a32cd" stroke="#9a32cd" points="152.66,-143.04 158.67,-151.77 159.42,-141.2 152.66,-143.04"/>
<text text-anchor="middle" x="166" y="-81" font-family="Helvetica,sans-Serif" font-size="10.00"> session_</text>
</g>
<!-- Node6&#45;&gt;Node2 -->
<g id="edge3" class="edge">
<title>Node6&#45;&gt;Node2</title>
<path fill="none" stroke="#9a32cd" stroke-dasharray="5,2" d="M130,-147.59C119.77,-142.42 108.78,-135.83 100,-128 90.69,-119.7 82.8,-107.94 77.46,-98.74"/>
<polygon fill="#9a32cd" stroke="#9a32cd" points="128.56,-150.78 139.1,-151.92 131.57,-144.46 128.56,-150.78"/>
<text text-anchor="middle" x="123.5" y="-120" font-family="Helvetica,sans-Serif" font-size="10.00"> address_</text>
</g>
</g>
</svg>
