<?xml version="1.0" encoding="UTF-8" standalone="no"?>
<!DOCTYPE svg PUBLIC "-//W3C//DTD SVG 1.1//EN"
 "http://www.w3.org/Graphics/SVG/1.1/DTD/svg11.dtd">
<!-- Generated by graphviz version 2.43.0 (0)
 -->
<!-- Title: leanux::tools::lard::MountSnap::storeSnap Pages: 1 -->
<svg width="515pt" height="547pt"
 viewBox="0.00 0.00 515.00 547.00" xmlns="http://www.w3.org/2000/svg" xmlns:xlink="http://www.w3.org/1999/xlink">
<g id="graph0" class="graph" transform="scale(1 1) rotate(0) translate(4 543)">
<title>leanux::tools::lard::MountSnap::storeSnap</title>
<!-- Node1 -->
<g id="node1" class="node">
<title>Node1</title>
<g id="a_node1"><a xlink:title=" ">
<polygon fill="#bfbfbf" stroke="black" points="0,-259.5 0,-289.5 132,-289.5 132,-259.5 0,-259.5"/>
<text text-anchor="start" x="8" y="-277.5" font-family="Helvetica,sans-Serif" font-size="10.00">leanux::tools::lard</text>
<text text-anchor="middle" x="66" y="-266.5" font-family="Helvetica,sans-Serif" font-size="10.00">::MountSnap::storeSnap</text>
</a>
</g>
</g>
<!-- Node2 -->
<g id="node2" class="node">
<title>Node2</title>
<g id="a_node2"><a xlink:href="../../d9/d78/classleanux_1_1persist_1_1DML.html#a8df01a6d880515c22106e424ed342c81" target="_top" xlink:title="Bind a double value to the bind at position.">
<polygon fill="none" stroke="black" points="187,-508.5 187,-538.5 303,-538.5 303,-508.5 187,-508.5"/>
<text text-anchor="start" x="195" y="-526.5" font-family="Helvetica,sans-Serif" font-size="10.00">leanux::persist::DML</text>
<text text-anchor="middle" x="245" y="-515.5" font-family="Helvetica,sans-Serif" font-size="10.00">::bind</text>
</a>
</g>
</g>
<!-- Node1&#45;&gt;Node2 -->
<g id="edge1" class="edge">
<title>Node1&#45;&gt;Node2</title>
<path fill="none" stroke="midnightblue" d="M69.41,-289.6C76.62,-329.83 101.8,-440.57 168,-499.5 171,-502.17 174.29,-504.54 177.77,-506.64"/>
<polygon fill="midnightblue" stroke="midnightblue" points="176.28,-509.81 186.76,-511.36 179.53,-503.61 176.28,-509.81"/>
</g>
<!-- Node3 -->
<g id="node3" class="node">
<title>Node3</title>
<g id="a_node3"><a xlink:href="../../d5/d01/namespaceleanux_1_1block.html#aa7dafdc339a1159d4364e877a7453c03" target="_top" xlink:title="create a delta of two DeviceStatsMaps.">
<polygon fill="none" stroke="black" points="172,-459.5 172,-489.5 318,-489.5 318,-459.5 172,-459.5"/>
<text text-anchor="start" x="180" y="-477.5" font-family="Helvetica,sans-Serif" font-size="10.00">leanux::block::deltaDevice</text>
<text text-anchor="middle" x="245" y="-466.5" font-family="Helvetica,sans-Serif" font-size="10.00">Stats</text>
</a>
</g>
</g>
<!-- Node1&#45;&gt;Node3 -->
<g id="edge2" class="edge">
<title>Node1&#45;&gt;Node3</title>
<path fill="none" stroke="midnightblue" d="M72.23,-289.94C84.13,-322.84 116.25,-400.43 168,-444.5 172.57,-448.39 177.7,-451.81 183.08,-454.81"/>
<polygon fill="midnightblue" stroke="midnightblue" points="181.83,-458.1 192.33,-459.48 184.98,-451.85 181.83,-458.1"/>
</g>
<!-- Node4 -->
<g id="node4" class="node">
<title>Node4</title>
<g id="a_node4"><a xlink:href="../../d5/d01/namespaceleanux_1_1block.html#afaee6721d578e4e9ccbebb7dea5919a6" target="_top" xlink:title="Get a map of MajorMinor to MountInfo from /proc/mounts.">
<polygon fill="none" stroke="black" points="169,-383 169,-402 321,-402 321,-383 169,-383"/>
<text text-anchor="middle" x="245" y="-390" font-family="Helvetica,sans-Serif" font-size="10.00">leanux::block::enumMounts</text>
</a>
</g>
</g>
<!-- Node1&#45;&gt;Node4 -->
<g id="edge3" class="edge">
<title>Node1&#45;&gt;Node4</title>
<path fill="none" stroke="midnightblue" d="M78.22,-289.79C95.17,-311.74 129.43,-351.92 168,-373.5 171.98,-375.73 176.22,-377.7 180.59,-379.44"/>
<polygon fill="midnightblue" stroke="midnightblue" points="179.69,-382.84 190.29,-382.9 182.05,-376.24 179.69,-382.84"/>
</g>
<!-- Node5 -->
<g id="node5" class="node">
<title>Node5</title>
<g id="a_node5"><a xlink:href="../../d5/d01/namespaceleanux_1_1block.html#a12e7b3a8ce8e601504f25c9c3e2fa7f0" target="_top" xlink:title="get the MajorMinor for a device file or aliases to it, resolves the devicefile with realpath.">
<polygon fill="none" stroke="red" points="358,-420.5 358,-450.5 507,-450.5 507,-420.5 358,-420.5"/>
<text text-anchor="start" x="366" y="-438.5" font-family="Helvetica,sans-Serif" font-size="10.00">leanux::block::getFileMajor</text>
<text text-anchor="middle" x="432.5" y="-427.5" font-family="Helvetica,sans-Serif" font-size="10.00">Minor</text>
</a>
</g>
</g>
<!-- Node1&#45;&gt;Node5 -->
<g id="edge9" class="edge">
<title>Node1&#45;&gt;Node5</title>
<path fill="none" stroke="midnightblue" d="M73.11,-289.76C85.81,-319.19 118.06,-383.36 168,-411.5 222.44,-442.18 293.43,-447.03 348,-444.84"/>
<polygon fill="midnightblue" stroke="midnightblue" points="348.18,-448.34 357.99,-444.35 347.84,-441.34 348.18,-448.34"/>
</g>
<!-- Node12 -->
<g id="node8" class="node">
<title>Node12</title>
<g id="a_node8"><a xlink:href="../../d9/d78/classleanux_1_1persist_1_1DML.html#a66bfdf8da5f7d2c02bb5cb6f54515783" target="_top" xlink:title="Execute.">
<polygon fill="none" stroke="black" points="187,-333.5 187,-363.5 303,-363.5 303,-333.5 187,-333.5"/>
<text text-anchor="start" x="195" y="-351.5" font-family="Helvetica,sans-Serif" font-size="10.00">leanux::persist::DML</text>
<text text-anchor="middle" x="245" y="-340.5" font-family="Helvetica,sans-Serif" font-size="10.00">::execute</text>
</a>
</g>
</g>
<!-- Node1&#45;&gt;Node12 -->
<g id="edge7" class="edge">
<title>Node1&#45;&gt;Node12</title>
<path fill="none" stroke="midnightblue" d="M94.77,-289.69C114.77,-300.27 142.59,-314.27 168,-324.5 172.77,-326.42 177.76,-328.29 182.8,-330.08"/>
<polygon fill="midnightblue" stroke="midnightblue" points="181.92,-333.48 192.52,-333.43 184.2,-326.86 181.92,-333.48"/>
</g>
<!-- Node13 -->
<g id="node9" class="node">
<title>Node13</title>
<g id="a_node9"><a xlink:href="../../de/d84/classleanux_1_1util_1_1ConfigFile.html#a8cef175948cd9727c732de3a605c99ba" target="_top" xlink:title="Get the ConfigurationFile object for the appname, or construct one if it does not exist.">
<polygon fill="none" stroke="black" points="182.5,-284.5 182.5,-314.5 307.5,-314.5 307.5,-284.5 182.5,-284.5"/>
<text text-anchor="start" x="190.5" y="-302.5" font-family="Helvetica,sans-Serif" font-size="10.00">leanux::util::ConfigFile</text>
<text text-anchor="middle" x="245" y="-291.5" font-family="Helvetica,sans-Serif" font-size="10.00">::getConfig</text>
</a>
</g>
</g>
<!-- Node1&#45;&gt;Node13 -->
<g id="edge8" class="edge">
<title>Node1&#45;&gt;Node13</title>
<path fill="none" stroke="midnightblue" d="M132.15,-283.7C145.19,-285.54 158.96,-287.49 172.21,-289.36"/>
<polygon fill="midnightblue" stroke="midnightblue" points="171.83,-292.84 182.22,-290.77 172.81,-285.91 171.83,-292.84"/>
</g>
<!-- Node14 -->
<g id="node10" class="node">
<title>Node14</title>
<g id="a_node10"><a xlink:href="../../d4/d2c/classleanux_1_1persist_1_1Query.html#ada37977ad924b728401fa1fb7506cd2e" target="_top" xlink:title="Get long value from select list.">
<polygon fill="none" stroke="black" points="183,-235.5 183,-265.5 307,-265.5 307,-235.5 183,-235.5"/>
<text text-anchor="start" x="191" y="-253.5" font-family="Helvetica,sans-Serif" font-size="10.00">leanux::persist::Query</text>
<text text-anchor="middle" x="245" y="-242.5" font-family="Helvetica,sans-Serif" font-size="10.00">::getLong</text>
</a>
</g>
</g>
<!-- Node1&#45;&gt;Node14 -->
<g id="edge10" class="edge">
<title>Node1&#45;&gt;Node14</title>
<path fill="none" stroke="midnightblue" d="M132.15,-265.67C145.35,-263.88 159.29,-261.99 172.69,-260.17"/>
<polygon fill="midnightblue" stroke="midnightblue" points="173.36,-263.61 182.8,-258.8 172.42,-256.67 173.36,-263.61"/>
</g>
<!-- Node15 -->
<g id="node11" class="node">
<title>Node15</title>
<g id="a_node11"><a xlink:href="../../dc/d32/namespaceleanux_1_1vmem.html#aabc162dbfa4e98a5d1bf2571ba58de88" target="_top" xlink:title="Get a std::list of SwapInfo swap spaces.">
<polygon fill="none" stroke="black" points="168,-197 168,-216 322,-216 322,-197 168,-197"/>
<text text-anchor="middle" x="245" y="-204" font-family="Helvetica,sans-Serif" font-size="10.00">leanux::vmem::getSwapInfo</text>
</a>
</g>
</g>
<!-- Node1&#45;&gt;Node15 -->
<g id="edge11" class="edge">
<title>Node1&#45;&gt;Node15</title>
<path fill="none" stroke="midnightblue" d="M94.2,-259.4C114.15,-248.79 142.17,-234.88 168,-225.5 174.86,-223.01 182.17,-220.73 189.46,-218.68"/>
<polygon fill="midnightblue" stroke="midnightblue" points="190.58,-222 199.33,-216.03 188.76,-215.24 190.58,-222"/>
</g>
<!-- Node16 -->
<g id="node12" class="node">
<title>Node16</title>
<g id="a_node12"><a xlink:href="../../d8/daf/classleanux_1_1persist_1_1Database.html#ad2d6eb77b4fe786579b5447fd1b692bf" target="_top" xlink:title="Get the rowid of the last inserted row.">
<polygon fill="none" stroke="black" points="174.5,-147.5 174.5,-177.5 315.5,-177.5 315.5,-147.5 174.5,-147.5"/>
<text text-anchor="start" x="182.5" y="-165.5" font-family="Helvetica,sans-Serif" font-size="10.00">leanux::persist::Database</text>
<text text-anchor="middle" x="245" y="-154.5" font-family="Helvetica,sans-Serif" font-size="10.00">::lastInsertRowid</text>
</a>
</g>
</g>
<!-- Node1&#45;&gt;Node16 -->
<g id="edge12" class="edge">
<title>Node1&#45;&gt;Node16</title>
<path fill="none" stroke="midnightblue" d="M80.97,-259.21C99.27,-240.01 133.14,-207.2 168,-187.5 171.84,-185.33 175.91,-183.31 180.07,-181.44"/>
<polygon fill="midnightblue" stroke="midnightblue" points="181.44,-184.66 189.32,-177.58 178.74,-178.2 181.44,-184.66"/>
</g>
<!-- Node17 -->
<g id="node13" class="node">
<title>Node17</title>
<g id="a_node13"><a xlink:href="../../db/dff/classleanux_1_1persist_1_1Statement.html#a1b809c1b1d0e9d24af65e439c3893d74" target="_top" xlink:title="Prepare a SQL statement.">
<polygon fill="none" stroke="black" points="172,-98.5 172,-128.5 318,-128.5 318,-98.5 172,-98.5"/>
<text text-anchor="start" x="180" y="-116.5" font-family="Helvetica,sans-Serif" font-size="10.00">leanux::persist::Statement</text>
<text text-anchor="middle" x="245" y="-105.5" font-family="Helvetica,sans-Serif" font-size="10.00">::prepare</text>
</a>
</g>
</g>
<!-- Node1&#45;&gt;Node17 -->
<g id="edge13" class="edge">
<title>Node1&#45;&gt;Node17</title>
<path fill="none" stroke="midnightblue" d="M74.13,-259.28C88.11,-231.06 121.85,-170.5 168,-137.5 170.12,-135.99 172.33,-134.57 174.62,-133.23"/>
<polygon fill="midnightblue" stroke="midnightblue" points="176.49,-136.21 183.76,-128.51 173.27,-129.99 176.49,-136.21"/>
</g>
<!-- Node19 -->
<g id="node15" class="node">
<title>Node19</title>
<g id="a_node15"><a xlink:href="../../db/dff/classleanux_1_1persist_1_1Statement.html#a4696481e678f7c7337c07c480ee985ec" target="_top" xlink:title="Reset a SQL statement for rexecute or even re&#45;prepare.">
<polygon fill="none" stroke="black" points="172,-49.5 172,-79.5 318,-79.5 318,-49.5 172,-49.5"/>
<text text-anchor="start" x="180" y="-67.5" font-family="Helvetica,sans-Serif" font-size="10.00">leanux::persist::Statement</text>
<text text-anchor="middle" x="245" y="-56.5" font-family="Helvetica,sans-Serif" font-size="10.00">::reset</text>
</a>
</g>
</g>
<!-- Node1&#45;&gt;Node19 -->
<g id="edge15" class="edge">
<title>Node1&#45;&gt;Node19</title>
<path fill="none" stroke="midnightblue" d="M70.94,-259.47C80.96,-224.23 110.74,-135.72 168,-88.5 169.56,-87.21 171.19,-85.99 172.88,-84.84"/>
<polygon fill="midnightblue" stroke="midnightblue" points="174.91,-87.71 181.73,-79.6 171.34,-81.68 174.91,-87.71"/>
</g>
<!-- Node20 -->
<g id="node16" class="node">
<title>Node20</title>
<g id="a_node16"><a xlink:href="../../d4/d2c/classleanux_1_1persist_1_1Query.html#a294e11c33a22761503c49418f5ca9815" target="_top" xlink:title="Step the result list, end of list returns false.">
<polygon fill="none" stroke="black" points="183,-0.5 183,-30.5 307,-30.5 307,-0.5 183,-0.5"/>
<text text-anchor="start" x="191" y="-18.5" font-family="Helvetica,sans-Serif" font-size="10.00">leanux::persist::Query</text>
<text text-anchor="middle" x="245" y="-7.5" font-family="Helvetica,sans-Serif" font-size="10.00">::step</text>
</a>
</g>
</g>
<!-- Node1&#45;&gt;Node20 -->
<g id="edge16" class="edge">
<title>Node1&#45;&gt;Node20</title>
<path fill="none" stroke="midnightblue" d="M69.1,-259.35C75.64,-217.87 99.5,-101.47 168,-39.5 169.93,-37.75 171.99,-36.13 174.14,-34.63"/>
<polygon fill="midnightblue" stroke="midnightblue" points="176.09,-37.54 182.88,-29.41 172.5,-31.54 176.09,-37.54"/>
</g>
<!-- Node4&#45;&gt;Node5 -->
<g id="edge4" class="edge">
<title>Node4&#45;&gt;Node5</title>
<path fill="none" stroke="midnightblue" d="M287.17,-402.04C307.62,-406.78 332.98,-412.66 356.71,-418.16"/>
<polygon fill="midnightblue" stroke="midnightblue" points="356.23,-421.65 366.76,-420.49 357.81,-414.83 356.23,-421.65"/>
</g>
<!-- Node7 -->
<g id="node6" class="node">
<title>Node7</title>
<g id="a_node6"><a xlink:href="../../d7/d28/classleanux_1_1block_1_1MajorMinor.html#a08c4dd48259318cfd77067e866e05e84" target="_top" xlink:title="get the device name for this MajorMinor.">
<polygon fill="none" stroke="red" points="361,-371.5 361,-401.5 504,-401.5 504,-371.5 361,-371.5"/>
<text text-anchor="start" x="369" y="-389.5" font-family="Helvetica,sans-Serif" font-size="10.00">leanux::block::MajorMinor</text>
<text text-anchor="middle" x="432.5" y="-378.5" font-family="Helvetica,sans-Serif" font-size="10.00">::getName</text>
</a>
</g>
</g>
<!-- Node4&#45;&gt;Node7 -->
<g id="edge5" class="edge">
<title>Node4&#45;&gt;Node7</title>
<path fill="none" stroke="midnightblue" d="M321.18,-390.07C330.87,-389.75 340.83,-389.43 350.6,-389.12"/>
<polygon fill="midnightblue" stroke="midnightblue" points="350.83,-392.61 360.71,-388.79 350.6,-385.61 350.83,-392.61"/>
</g>
<!-- Node11 -->
<g id="node7" class="node">
<title>Node11</title>
<g id="a_node7"><a xlink:href="../../d7/d28/classleanux_1_1block_1_1MajorMinor.html#a26905a16bdd3e525abb2ada713f80704" target="_top" xlink:title="Test MajorMinor validity.">
<polygon fill="none" stroke="black" points="361,-322.5 361,-352.5 504,-352.5 504,-322.5 361,-322.5"/>
<text text-anchor="start" x="369" y="-340.5" font-family="Helvetica,sans-Serif" font-size="10.00">leanux::block::MajorMinor</text>
<text text-anchor="middle" x="432.5" y="-329.5" font-family="Helvetica,sans-Serif" font-size="10.00">::isValid</text>
</a>
</g>
</g>
<!-- Node4&#45;&gt;Node11 -->
<g id="edge6" class="edge">
<title>Node4&#45;&gt;Node11</title>
<path fill="none" stroke="midnightblue" d="M286.38,-382.98C297.93,-380.11 310.5,-376.82 322,-373.5 340.57,-368.13 360.72,-361.69 378.61,-355.75"/>
<polygon fill="midnightblue" stroke="midnightblue" points="379.92,-359 388.3,-352.51 377.7,-352.36 379.92,-359"/>
</g>
<!-- Node18 -->
<g id="node14" class="node">
<title>Node18</title>
<g id="a_node14"><a xlink:href="../../db/dff/classleanux_1_1persist_1_1Statement.html#a5b31fb14297ad5c1c342cfc0d8f797de" target="_top" xlink:title="A statement handle can be explicitly closed without deleting the Statement object itself.">
<polygon fill="none" stroke="black" points="359.5,-98.5 359.5,-128.5 505.5,-128.5 505.5,-98.5 359.5,-98.5"/>
<text text-anchor="start" x="367.5" y="-116.5" font-family="Helvetica,sans-Serif" font-size="10.00">leanux::persist::Statement</text>
<text text-anchor="middle" x="432.5" y="-105.5" font-family="Helvetica,sans-Serif" font-size="10.00">::close</text>
</a>
</g>
</g>
<!-- Node17&#45;&gt;Node18 -->
<g id="edge14" class="edge">
<title>Node17&#45;&gt;Node18</title>
<path fill="none" stroke="midnightblue" d="M318.25,-113.5C328.4,-113.5 338.89,-113.5 349.21,-113.5"/>
<polygon fill="midnightblue" stroke="midnightblue" points="349.45,-117 359.45,-113.5 349.45,-110 349.45,-117"/>
</g>
</g>
</svg>
