<?xml version="1.0" encoding="UTF-8" standalone="no"?>
<!DOCTYPE svg PUBLIC "-//W3C//DTD SVG 1.1//EN"
 "http://www.w3.org/Graphics/SVG/1.1/DTD/svg11.dtd">
<!-- Generated by graphviz version 2.43.0 (0)
 -->
<!-- Title: leanux::tools::lard::NetSnap Pages: 1 -->
<svg width="262pt" height="195pt"
 viewBox="0.00 0.00 261.50 195.00" xmlns="http://www.w3.org/2000/svg" xmlns:xlink="http://www.w3.org/1999/xlink">
<g id="graph0" class="graph" transform="scale(1 1) rotate(0) translate(4 191)">
<title>leanux::tools::lard::NetSnap</title>
<!-- Node1 -->
<g id="node1" class="node">
<title>Node1</title>
<g id="a_node1"><a xlink:title=" ">
<polygon fill="#bfbfbf" stroke="black" points="41,-0.5 41,-30.5 145,-30.5 145,-0.5 41,-0.5"/>
<text text-anchor="start" x="49" y="-18.5" font-family="Helvetica,sans-Serif" font-size="10.00">leanux::tools::lard</text>
<text text-anchor="middle" x="93" y="-7.5" font-family="Helvetica,sans-Serif" font-size="10.00">::NetSnap</text>
</a>
</g>
</g>
<!-- Node2 -->
<g id="node2" class="node">
<title>Node2</title>
<g id="a_node2"><a xlink:href="../../db/dc1/classleanux_1_1tools_1_1lard_1_1Snapshot.html" target="_top" xlink:title=" ">
<polygon fill="none" stroke="black" points="0,-89.5 0,-119.5 104,-119.5 104,-89.5 0,-89.5"/>
<text text-anchor="start" x="8" y="-107.5" font-family="Helvetica,sans-Serif" font-size="10.00">leanux::tools::lard</text>
<text text-anchor="middle" x="52" y="-96.5" font-family="Helvetica,sans-Serif" font-size="10.00">::Snapshot</text>
</a>
</g>
</g>
<!-- Node2&#45;&gt;Node1 -->
<g id="edge1" class="edge">
<title>Node2&#45;&gt;Node1</title>
<path fill="none" stroke="midnightblue" d="M63.08,-79.99C70.52,-64.21 80.07,-43.94 86.36,-30.6"/>
<polygon fill="midnightblue" stroke="midnightblue" points="59.87,-78.6 58.77,-89.13 66.2,-81.58 59.87,-78.6"/>
</g>
<!-- Node3 -->
<g id="node3" class="node">
<title>Node3</title>
<g id="a_node3"><a xlink:title=" ">
<polygon fill="none" stroke="#bfbfbf" points="122,-89.5 122,-119.5 244,-119.5 244,-89.5 122,-89.5"/>
<text text-anchor="start" x="130" y="-107.5" font-family="Helvetica,sans-Serif" font-size="10.00">std::map&lt; std::string,</text>
<text text-anchor="middle" x="183" y="-96.5" font-family="Helvetica,sans-Serif" font-size="10.00"> NetStat &gt;</text>
</a>
</g>
</g>
<!-- Node3&#45;&gt;Node1 -->
<g id="edge2" class="edge">
<title>Node3&#45;&gt;Node1</title>
<path fill="none" stroke="#9a32cd" stroke-dasharray="5,2" d="M160.51,-81.76C143.94,-65.74 121.9,-44.44 107.59,-30.6"/>
<polygon fill="#9a32cd" stroke="#9a32cd" points="158.52,-84.7 168.14,-89.13 163.38,-79.67 158.52,-84.7"/>
<text text-anchor="middle" x="165" y="-63" font-family="Helvetica,sans-Serif" font-size="10.00"> stat2_</text>
<text text-anchor="middle" x="165" y="-52" font-family="Helvetica,sans-Serif" font-size="10.00">stat1_</text>
</g>
<!-- Node4 -->
<g id="node4" class="node">
<title>Node4</title>
<g id="a_node4"><a xlink:title=" ">
<polygon fill="none" stroke="#bfbfbf" points="117.5,-167.5 117.5,-186.5 170.5,-186.5 170.5,-167.5 117.5,-167.5"/>
<text text-anchor="middle" x="144" y="-174.5" font-family="Helvetica,sans-Serif" font-size="10.00">NetStat</text>
</a>
</g>
</g>
<!-- Node4&#45;&gt;Node3 -->
<g id="edge3" class="edge">
<title>Node4&#45;&gt;Node3</title>
<path fill="none" stroke="#9a32cd" stroke-dasharray="5,2" d="M142.75,-156.99C143.03,-150.68 144.15,-143.79 147,-138 150.5,-130.9 156.28,-124.63 162.2,-119.54"/>
<polygon fill="#9a32cd" stroke="#9a32cd" points="139.25,-157.44 142.93,-167.37 146.25,-157.32 139.25,-157.44"/>
<text text-anchor="middle" x="171.5" y="-141" font-family="Helvetica,sans-Serif" font-size="10.00"> elements</text>
</g>
<!-- Node5 -->
<g id="node5" class="node">
<title>Node5</title>
<g id="a_node5"><a xlink:title="STL class.">
<polygon fill="none" stroke="#bfbfbf" points="188.5,-167.5 188.5,-186.5 253.5,-186.5 253.5,-167.5 188.5,-167.5"/>
<text text-anchor="middle" x="221" y="-174.5" font-family="Helvetica,sans-Serif" font-size="10.00">std::string</text>
</a>
</g>
</g>
<!-- Node5&#45;&gt;Node3 -->
<g id="edge4" class="edge">
<title>Node5&#45;&gt;Node3</title>
<path fill="none" stroke="#9a32cd" stroke-dasharray="5,2" d="M211.47,-158.32C205.01,-146.34 196.59,-130.72 190.59,-119.58"/>
<polygon fill="#9a32cd" stroke="#9a32cd" points="208.51,-160.21 216.34,-167.36 214.68,-156.89 208.51,-160.21"/>
<text text-anchor="middle" x="218" y="-141" font-family="Helvetica,sans-Serif" font-size="10.00"> keys</text>
</g>
</g>
</svg>
