<?xml version="1.0" encoding="UTF-8" standalone="no"?>
<!DOCTYPE svg PUBLIC "-//W3C//DTD SVG 1.1//EN"
 "http://www.w3.org/Graphics/SVG/1.1/DTD/svg11.dtd">
<!-- Generated by graphviz version 2.43.0 (0)
 -->
<!-- Title: lib/system.hpp Pages: 1 -->
<svg width="246pt" height="140pt"
 viewBox="0.00 0.00 246.36 140.00" xmlns="http://www.w3.org/2000/svg" xmlns:xlink="http://www.w3.org/1999/xlink">
<g id="graph0" class="graph" transform="scale(1 1) rotate(0) translate(4 136)">
<title>lib/system.hpp</title>
<!-- Node1 -->
<g id="node1" class="node">
<title>Node1</title>
<g id="a_node1"><a xlink:title=" ">
<polygon fill="#bfbfbf" stroke="black" points="37.36,-112.5 37.36,-131.5 126.36,-131.5 126.36,-112.5 37.36,-112.5"/>
<text text-anchor="middle" x="81.86" y="-119.5" font-family="Helvetica,sans-Serif" font-size="10.00">lib/system.hpp</text>
</a>
</g>
</g>
<!-- Node2 -->
<g id="node2" class="node">
<title>Node2</title>
<g id="a_node2"><a xlink:title=" ">
<polygon fill="none" stroke="#bfbfbf" points="73.86,-0.5 73.86,-19.5 117.86,-19.5 117.86,-0.5 73.86,-0.5"/>
<text text-anchor="middle" x="95.86" y="-7.5" font-family="Helvetica,sans-Serif" font-size="10.00">string</text>
</a>
</g>
</g>
<!-- Node1&#45;&gt;Node2 -->
<g id="edge1" class="edge">
<title>Node1&#45;&gt;Node2</title>
<path fill="none" stroke="midnightblue" d="M55.74,-112.43C27.36,-101.62 -11.96,-81.35 3.86,-56 16.88,-35.13 42.7,-23.67 63.68,-17.55"/>
<polygon fill="midnightblue" stroke="midnightblue" points="64.74,-20.89 73.52,-14.96 62.95,-14.13 64.74,-20.89"/>
</g>
<!-- Node3 -->
<g id="node3" class="node">
<title>Node3</title>
<g id="a_node3"><a xlink:title=" ">
<polygon fill="none" stroke="#bfbfbf" points="12.86,-56.5 12.86,-75.5 68.86,-75.5 68.86,-56.5 12.86,-56.5"/>
<text text-anchor="middle" x="40.86" y="-63.5" font-family="Helvetica,sans-Serif" font-size="10.00">unistd.h</text>
</a>
</g>
</g>
<!-- Node1&#45;&gt;Node3 -->
<g id="edge2" class="edge">
<title>Node1&#45;&gt;Node3</title>
<path fill="none" stroke="midnightblue" d="M75.09,-112.08C69.3,-104.46 60.8,-93.26 53.72,-83.94"/>
<polygon fill="midnightblue" stroke="midnightblue" points="56.34,-81.6 47.5,-75.75 50.76,-85.83 56.34,-81.6"/>
</g>
<!-- Node4 -->
<g id="node4" class="node">
<title>Node4</title>
<g id="a_node4"><a xlink:title=" ">
<polygon fill="none" stroke="#bfbfbf" points="86.86,-56.5 86.86,-75.5 158.86,-75.5 158.86,-56.5 86.86,-56.5"/>
<text text-anchor="middle" x="122.86" y="-63.5" font-family="Helvetica,sans-Serif" font-size="10.00">sys/types.h</text>
</a>
</g>
</g>
<!-- Node1&#45;&gt;Node4 -->
<g id="edge3" class="edge">
<title>Node1&#45;&gt;Node4</title>
<path fill="none" stroke="midnightblue" d="M88.63,-112.08C94.42,-104.46 102.92,-93.26 110,-83.94"/>
<polygon fill="midnightblue" stroke="midnightblue" points="112.96,-85.83 116.22,-75.75 107.38,-81.6 112.96,-85.83"/>
</g>
<!-- Node5 -->
<g id="node5" class="node">
<title>Node5</title>
<g id="a_node5"><a xlink:href="../../d3/d44/oops_8hpp.html" target="_top" xlink:title=" ">
<polygon fill="none" stroke="black" points="177.36,-56.5 177.36,-75.5 238.36,-75.5 238.36,-56.5 177.36,-56.5"/>
<text text-anchor="middle" x="207.86" y="-63.5" font-family="Helvetica,sans-Serif" font-size="10.00">oops.hpp</text>
</a>
</g>
</g>
<!-- Node1&#45;&gt;Node5 -->
<g id="edge4" class="edge">
<title>Node1&#45;&gt;Node5</title>
<path fill="none" stroke="midnightblue" d="M101.82,-112.44C122.47,-103.6 154.92,-89.69 178.49,-79.59"/>
<polygon fill="midnightblue" stroke="midnightblue" points="180.18,-82.67 187.99,-75.52 177.42,-76.24 180.18,-82.67"/>
</g>
<!-- Node5&#45;&gt;Node2 -->
<g id="edge5" class="edge">
<title>Node5&#45;&gt;Node2</title>
<path fill="none" stroke="midnightblue" d="M189.86,-56.32C171.82,-47.62 143.81,-34.12 123.06,-24.11"/>
<polygon fill="midnightblue" stroke="midnightblue" points="124.34,-20.84 113.81,-19.65 121.3,-27.15 124.34,-20.84"/>
</g>
</g>
</svg>
