<?xml version="1.0" encoding="UTF-8" standalone="no"?>
<!DOCTYPE svg PUBLIC "-//W3C//DTD SVG 1.1//EN"
 "http://www.w3.org/Graphics/SVG/1.1/DTD/svg11.dtd">
<!-- Generated by graphviz version 2.43.0 (0)
 -->
<!-- Title: leanux::tools::lblk::listLVM Pages: 1 -->
<svg width="673pt" height="383pt"
 viewBox="0.00 0.00 673.00 382.66" xmlns="http://www.w3.org/2000/svg" xmlns:xlink="http://www.w3.org/1999/xlink">
<g id="graph0" class="graph" transform="scale(1 1) rotate(0) translate(4 378.66)">
<title>leanux::tools::lblk::listLVM</title>
<!-- Node1 -->
<g id="node1" class="node">
<title>Node1</title>
<g id="a_node1"><a xlink:title="Table listing LVM devices.">
<polygon fill="#bfbfbf" stroke="black" points="0,-210.66 0,-240.66 104,-240.66 104,-210.66 0,-210.66"/>
<text text-anchor="start" x="8" y="-228.66" font-family="Helvetica,sans-Serif" font-size="10.00">leanux::tools::lblk</text>
<text text-anchor="middle" x="52" y="-217.66" font-family="Helvetica,sans-Serif" font-size="10.00">::listLVM</text>
</a>
</g>
</g>
<!-- Node2 -->
<g id="node2" class="node">
<title>Node2</title>
<g id="a_node2"><a xlink:href="../../d5/d01/namespaceleanux_1_1block.html#a3f0d238d9d613580fd7c45d72331275f" target="_top" xlink:title="get a list of LVM physical volumes">
<polygon fill="none" stroke="black" points="140,-314.16 140,-333.16 295,-333.16 295,-314.16 140,-314.16"/>
<text text-anchor="middle" x="217.5" y="-321.16" font-family="Helvetica,sans-Serif" font-size="10.00">leanux::block::enumLVMPVS</text>
</a>
</g>
</g>
<!-- Node1&#45;&gt;Node2 -->
<g id="edge1" class="edge">
<title>Node1&#45;&gt;Node2</title>
<path fill="none" stroke="midnightblue" d="M78.19,-240.76C109.04,-259.25 160.96,-290.37 191.65,-308.77"/>
<polygon fill="midnightblue" stroke="midnightblue" points="190.07,-311.9 200.45,-314.04 193.67,-305.9 190.07,-311.9"/>
</g>
<!-- Node4 -->
<g id="node4" class="node">
<title>Node4</title>
<g id="a_node4"><a xlink:href="../../d5/d1b/namespaceleanux_1_1tools_1_1lblk.html#a0ce6fe01f37dc9d73d699030825432be" target="_top" xlink:title="Write the tree of holders above and including mm, append to tab, starting with level.">
<polygon fill="none" stroke="black" points="165.5,-210.66 165.5,-240.66 269.5,-240.66 269.5,-210.66 165.5,-210.66"/>
<text text-anchor="start" x="173.5" y="-228.66" font-family="Helvetica,sans-Serif" font-size="10.00">leanux::tools::lblk</text>
<text text-anchor="middle" x="217.5" y="-217.66" font-family="Helvetica,sans-Serif" font-size="10.00">::printHolderTree</text>
</a>
</g>
</g>
<!-- Node1&#45;&gt;Node4 -->
<g id="edge3" class="edge">
<title>Node1&#45;&gt;Node4</title>
<path fill="none" stroke="midnightblue" d="M104.28,-225.66C120.42,-225.66 138.39,-225.66 155.15,-225.66"/>
<polygon fill="midnightblue" stroke="midnightblue" points="155.4,-229.16 165.4,-225.66 155.4,-222.16 155.4,-229.16"/>
</g>
<!-- Node15 -->
<g id="node11" class="node">
<title>Node15</title>
<g id="a_node11"><a xlink:href="../../d5/d1b/namespaceleanux_1_1tools_1_1lblk.html#a514a93d2172ba20b92f77ba1062d822c" target="_top" xlink:title="Write the tree of slaves beneath and including mm, append to tab, starting with level.">
<polygon fill="none" stroke="black" points="165.5,-145.66 165.5,-175.66 269.5,-175.66 269.5,-145.66 165.5,-145.66"/>
<text text-anchor="start" x="173.5" y="-163.66" font-family="Helvetica,sans-Serif" font-size="10.00">leanux::tools::lblk</text>
<text text-anchor="middle" x="217.5" y="-152.66" font-family="Helvetica,sans-Serif" font-size="10.00">::printSlaveTree</text>
</a>
</g>
</g>
<!-- Node1&#45;&gt;Node15 -->
<g id="edge11" class="edge">
<title>Node1&#45;&gt;Node15</title>
<path fill="none" stroke="midnightblue" d="M90.92,-210.59C114.16,-201.35 144.1,-189.45 168.92,-179.58"/>
<polygon fill="midnightblue" stroke="midnightblue" points="170.5,-182.72 178.5,-175.77 167.92,-176.21 170.5,-182.72"/>
</g>
<!-- Node3 -->
<g id="node3" class="node">
<title>Node3</title>
<g id="a_node3"><a xlink:href="../../d5/d01/namespaceleanux_1_1block.html#a3864dabca95b6bfede27af2bbe4e2f60" target="_top" xlink:title="get a list of all block devices">
<polygon fill="none" stroke="black" points="331,-355.16 331,-374.16 486,-374.16 486,-355.16 331,-355.16"/>
<text text-anchor="middle" x="408.5" y="-362.16" font-family="Helvetica,sans-Serif" font-size="10.00">leanux::block::enumDevices</text>
</a>
</g>
</g>
<!-- Node2&#45;&gt;Node3 -->
<g id="edge2" class="edge">
<title>Node2&#45;&gt;Node3</title>
<path fill="none" stroke="midnightblue" d="M262.34,-333.17C289.55,-339.08 324.73,-346.71 353.63,-352.98"/>
<polygon fill="midnightblue" stroke="midnightblue" points="353.06,-356.43 363.58,-355.13 354.54,-349.59 353.06,-356.43"/>
</g>
<!-- Node5 -->
<g id="node5" class="node">
<title>Node5</title>
<g id="a_node5"><a xlink:href="../../d8/db1/namespaceleanux_1_1util.html#a979843e3d99f053101f902ec38985833" target="_top" xlink:title="convert a byte value to pretty print string.">
<polygon fill="none" stroke="black" points="352,-241.16 352,-260.16 465,-260.16 465,-241.16 352,-241.16"/>
<text text-anchor="middle" x="408.5" y="-248.16" font-family="Helvetica,sans-Serif" font-size="10.00">leanux::util::ByteStr</text>
</a>
</g>
</g>
<!-- Node4&#45;&gt;Node5 -->
<g id="edge4" class="edge">
<title>Node4&#45;&gt;Node5</title>
<path fill="none" stroke="midnightblue" d="M269.65,-232.43C291.84,-235.36 318.1,-238.84 341.72,-241.96"/>
<polygon fill="midnightblue" stroke="midnightblue" points="341.29,-245.44 351.66,-243.28 342.21,-238.5 341.29,-245.44"/>
</g>
<!-- Node6 -->
<g id="node6" class="node">
<title>Node6</title>
<g id="a_node6"><a xlink:href="../../d7/d28/classleanux_1_1block_1_1MajorMinor.html#a3f7315088bb27e09449e3c2542b65958" target="_top" xlink:title="Get the MajorMinor for the device name.">
<polygon fill="none" stroke="red" points="522,-27.66 522,-57.66 665,-57.66 665,-27.66 522,-27.66"/>
<text text-anchor="start" x="530" y="-45.66" font-family="Helvetica,sans-Serif" font-size="10.00">leanux::block::MajorMinor</text>
<text text-anchor="middle" x="593.5" y="-34.66" font-family="Helvetica,sans-Serif" font-size="10.00">::getMajorMinorByName</text>
</a>
</g>
</g>
<!-- Node4&#45;&gt;Node6 -->
<g id="edge5" class="edge">
<title>Node4&#45;&gt;Node6</title>
<path fill="none" stroke="midnightblue" d="M242.78,-240.76C293.98,-270.46 414.21,-328.71 486,-269.66 550.02,-217.01 474.95,-154.91 522,-86.66 528.59,-77.11 537.99,-69.21 547.8,-62.88"/>
<polygon fill="midnightblue" stroke="midnightblue" points="549.67,-65.84 556.46,-57.71 546.08,-59.83 549.67,-65.84"/>
</g>
<!-- Node10 -->
<g id="node7" class="node">
<title>Node10</title>
<g id="a_node7"><a xlink:href="../../d7/d28/classleanux_1_1block_1_1MajorMinor.html#a08c4dd48259318cfd77067e866e05e84" target="_top" xlink:title="get the device name for this MajorMinor.">
<polygon fill="none" stroke="black" points="337,-115.66 337,-145.66 480,-145.66 480,-115.66 337,-115.66"/>
<text text-anchor="start" x="345" y="-133.66" font-family="Helvetica,sans-Serif" font-size="10.00">leanux::block::MajorMinor</text>
<text text-anchor="middle" x="408.5" y="-122.66" font-family="Helvetica,sans-Serif" font-size="10.00">::getName</text>
</a>
</g>
</g>
<!-- Node4&#45;&gt;Node10 -->
<g id="edge6" class="edge">
<title>Node4&#45;&gt;Node10</title>
<path fill="none" stroke="midnightblue" d="M251.01,-210.59C264.94,-203.64 281.16,-194.89 295,-185.66 312.33,-174.11 312.78,-165.74 331,-155.66 334.89,-153.51 338.99,-151.51 343.19,-149.65"/>
<polygon fill="midnightblue" stroke="midnightblue" points="344.6,-152.86 352.51,-145.82 341.93,-146.39 344.6,-152.86"/>
</g>
<!-- Node11 -->
<g id="node8" class="node">
<title>Node11</title>
<g id="a_node8"><a xlink:href="../../d7/d28/classleanux_1_1block_1_1MajorMinor.html#adc3f437e329318ee21bddbbebaeb740e" target="_top" xlink:title="Get the DeviceName for the MajorMinor.">
<polygon fill="none" stroke="red" points="522,-95.66 522,-125.66 665,-125.66 665,-95.66 522,-95.66"/>
<text text-anchor="start" x="530" y="-113.66" font-family="Helvetica,sans-Serif" font-size="10.00">leanux::block::MajorMinor</text>
<text text-anchor="middle" x="593.5" y="-102.66" font-family="Helvetica,sans-Serif" font-size="10.00">::getNameByMajorMinor</text>
</a>
</g>
</g>
<!-- Node4&#45;&gt;Node11 -->
<g id="edge8" class="edge">
<title>Node4&#45;&gt;Node11</title>
<path fill="none" stroke="midnightblue" d="M233.97,-240.88C254.26,-259.65 291.88,-290.56 331,-302.66 396.81,-323.03 426.64,-337.62 486,-302.66 548.07,-266.11 576.54,-178.89 587.19,-135.73"/>
<polygon fill="midnightblue" stroke="midnightblue" points="590.65,-136.3 589.52,-125.77 583.83,-134.7 590.65,-136.3"/>
</g>
<!-- Node12 -->
<g id="node9" class="node">
<title>Node12</title>
<g id="a_node9"><a xlink:href="../../d8/db1/namespaceleanux_1_1util.html#a0c9555d36d9264d1f0cd246c8ba6da28" target="_top" xlink:title="Convert a double (real number) to a pretty print string.">
<polygon fill="none" stroke="black" points="351.5,-203.16 351.5,-222.16 465.5,-222.16 465.5,-203.16 351.5,-203.16"/>
<text text-anchor="middle" x="408.5" y="-210.16" font-family="Helvetica,sans-Serif" font-size="10.00">leanux::util::NumStr</text>
</a>
</g>
</g>
<!-- Node4&#45;&gt;Node12 -->
<g id="edge9" class="edge">
<title>Node4&#45;&gt;Node12</title>
<path fill="none" stroke="midnightblue" d="M269.65,-222.14C291.64,-220.63 317.64,-218.84 341.1,-217.23"/>
<polygon fill="midnightblue" stroke="midnightblue" points="341.59,-220.7 351.33,-216.53 341.11,-213.72 341.59,-220.7"/>
</g>
<!-- Node13 -->
<g id="node10" class="node">
<title>Node13</title>
<g id="a_node10"><a xlink:href="../../d8/db1/namespaceleanux_1_1util.html#a377ec19addd5d3ca3ecee9a2591f6458" target="_top" xlink:title="convert a time duration in seconds to a pretty print string.">
<polygon fill="none" stroke="red" points="342,-165.16 342,-184.16 475,-184.16 475,-165.16 342,-165.16"/>
<text text-anchor="middle" x="408.5" y="-172.16" font-family="Helvetica,sans-Serif" font-size="10.00">leanux::util::TimeStrSec</text>
</a>
</g>
</g>
<!-- Node4&#45;&gt;Node13 -->
<g id="edge10" class="edge">
<title>Node4&#45;&gt;Node13</title>
<path fill="none" stroke="midnightblue" d="M269.64,-210.72C288.85,-205.22 310.89,-199.02 331,-193.66 339.84,-191.31 349.27,-188.89 358.39,-186.6"/>
<polygon fill="midnightblue" stroke="midnightblue" points="359.27,-189.99 368.12,-184.17 357.57,-183.2 359.27,-189.99"/>
</g>
<!-- Node10&#45;&gt;Node11 -->
<g id="edge7" class="edge">
<title>Node10&#45;&gt;Node11</title>
<path fill="none" stroke="midnightblue" d="M480.25,-122.93C490.62,-121.8 501.36,-120.62 511.9,-119.47"/>
<polygon fill="midnightblue" stroke="midnightblue" points="512.38,-122.94 521.94,-118.37 511.61,-115.98 512.38,-122.94"/>
</g>
<!-- Node15&#45;&gt;Node5 -->
<g id="edge12" class="edge">
<title>Node15&#45;&gt;Node5</title>
<path fill="none" stroke="midnightblue" d="M250.23,-175.84C264.32,-183.04 280.88,-192.14 295,-201.66 312.27,-213.31 312.42,-222.25 331,-231.66 335.61,-234 340.53,-236.06 345.56,-237.88"/>
<polygon fill="midnightblue" stroke="midnightblue" points="344.73,-241.29 355.33,-241.07 346.91,-234.64 344.73,-241.29"/>
</g>
<!-- Node15&#45;&gt;Node6 -->
<g id="edge16" class="edge">
<title>Node15&#45;&gt;Node6</title>
<path fill="none" stroke="midnightblue" d="M224.96,-145.24C238.95,-114.16 275.31,-44.71 331,-17.66 400.13,15.91 491.56,-5.55 545.97,-24.14"/>
<polygon fill="midnightblue" stroke="midnightblue" points="545.09,-27.54 555.69,-27.56 547.42,-20.93 545.09,-27.54"/>
</g>
<!-- Node15&#45;&gt;Node10 -->
<g id="edge17" class="edge">
<title>Node15&#45;&gt;Node10</title>
<path fill="none" stroke="midnightblue" d="M269.65,-152.54C287.24,-149.75 307.4,-146.55 326.76,-143.48"/>
<polygon fill="midnightblue" stroke="midnightblue" points="327.47,-146.91 336.8,-141.88 326.38,-140 327.47,-146.91"/>
</g>
<!-- Node15&#45;&gt;Node11 -->
<g id="edge18" class="edge">
<title>Node15&#45;&gt;Node11</title>
<path fill="none" stroke="midnightblue" d="M241.93,-145.56C263.92,-132.34 298.26,-114.11 331,-106.66 390.46,-93.13 459.5,-94.9 511.7,-99.64"/>
<polygon fill="midnightblue" stroke="midnightblue" points="511.62,-103.14 521.91,-100.62 512.29,-96.18 511.62,-103.14"/>
</g>
<!-- Node15&#45;&gt;Node12 -->
<g id="edge19" class="edge">
<title>Node15&#45;&gt;Node12</title>
<path fill="none" stroke="midnightblue" d="M268.22,-175.73C287.74,-181.52 310.37,-188.08 331,-193.66 339.64,-196 348.85,-198.38 357.79,-200.64"/>
<polygon fill="midnightblue" stroke="midnightblue" points="357.16,-204.09 367.71,-203.12 358.86,-197.3 357.16,-204.09"/>
</g>
<!-- Node15&#45;&gt;Node13 -->
<g id="edge20" class="edge">
<title>Node15&#45;&gt;Node13</title>
<path fill="none" stroke="midnightblue" d="M269.65,-164.45C288.72,-165.86 310.8,-167.5 331.62,-169.04"/>
<polygon fill="midnightblue" stroke="midnightblue" points="331.49,-172.54 341.72,-169.79 332.01,-165.56 331.49,-172.54"/>
</g>
<!-- Node16 -->
<g id="node12" class="node">
<title>Node16</title>
<g id="a_node12"><a xlink:href="../../d7/d28/classleanux_1_1block_1_1MajorMinor.html#a5771b2baf04dd79e61c5bcd3f4ec532c" target="_top" xlink:title="Derive the MajorMinor of the whole disk holding a partition.">
<polygon fill="none" stroke="red" points="337,-27.66 337,-57.66 480,-57.66 480,-27.66 337,-27.66"/>
<text text-anchor="start" x="345" y="-45.66" font-family="Helvetica,sans-Serif" font-size="10.00">leanux::block::MajorMinor</text>
<text text-anchor="middle" x="408.5" y="-34.66" font-family="Helvetica,sans-Serif" font-size="10.00">::deriveWholeDisk</text>
</a>
</g>
</g>
<!-- Node15&#45;&gt;Node16 -->
<g id="edge13" class="edge">
<title>Node15&#45;&gt;Node16</title>
<path fill="none" stroke="midnightblue" d="M234.56,-145.62C255.47,-126.64 293.75,-93.93 331,-72.66 338.05,-68.64 345.74,-64.92 353.44,-61.58"/>
<polygon fill="midnightblue" stroke="midnightblue" points="354.91,-64.76 362.8,-57.68 352.22,-58.29 354.91,-64.76"/>
</g>
<!-- Node16&#45;&gt;Node6 -->
<g id="edge14" class="edge">
<title>Node16&#45;&gt;Node6</title>
<path fill="none" stroke="midnightblue" d="M480.25,-42.66C490.62,-42.66 501.36,-42.66 511.9,-42.66"/>
<polygon fill="midnightblue" stroke="midnightblue" points="511.94,-46.16 521.94,-42.66 511.94,-39.16 511.94,-46.16"/>
</g>
<!-- Node16&#45;&gt;Node11 -->
<g id="edge15" class="edge">
<title>Node16&#45;&gt;Node11</title>
<path fill="none" stroke="midnightblue" d="M450.11,-57.75C477.36,-67.88 513.43,-81.28 542.45,-92.07"/>
<polygon fill="midnightblue" stroke="midnightblue" points="541.41,-95.41 552,-95.61 543.85,-88.85 541.41,-95.41"/>
</g>
</g>
</svg>
