<?xml version="1.0" encoding="UTF-8" standalone="no"?>
<!DOCTYPE svg PUBLIC "-//W3C//DTD SVG 1.1//EN"
 "http://www.w3.org/Graphics/SVG/1.1/DTD/svg11.dtd">
<!-- Generated by graphviz version 2.43.0 (0)
 -->
<!-- Title: leanux::tools::lblk::printHelp Pages: 1 -->
<svg width="469pt" height="61pt"
 viewBox="0.00 0.00 469.00 61.00" xmlns="http://www.w3.org/2000/svg" xmlns:xlink="http://www.w3.org/1999/xlink">
<g id="graph0" class="graph" transform="scale(1 1) rotate(0) translate(4 57)">
<title>leanux::tools::lblk::printHelp</title>
<!-- Node1 -->
<g id="node1" class="node">
<title>Node1</title>
<g id="a_node1"><a xlink:title="Print command help.">
<polygon fill="#bfbfbf" stroke="black" points="357,-22.5 357,-52.5 461,-52.5 461,-22.5 357,-22.5"/>
<text text-anchor="start" x="365" y="-40.5" font-family="Helvetica,sans-Serif" font-size="10.00">leanux::tools::lblk</text>
<text text-anchor="middle" x="409" y="-29.5" font-family="Helvetica,sans-Serif" font-size="10.00">::printHelp</text>
</a>
</g>
</g>
<!-- Node2 -->
<g id="node2" class="node">
<title>Node2</title>
<g id="a_node2"><a xlink:href="../../d5/d1b/namespaceleanux_1_1tools_1_1lblk.html#a7e4a52393fd43c98af0e5e16603b54df" target="_top" xlink:title="Entry point.">
<polygon fill="none" stroke="black" points="77,-22.5 77,-52.5 181,-52.5 181,-22.5 77,-22.5"/>
<text text-anchor="start" x="85" y="-40.5" font-family="Helvetica,sans-Serif" font-size="10.00">leanux::tools::lblk</text>
<text text-anchor="middle" x="129" y="-29.5" font-family="Helvetica,sans-Serif" font-size="10.00">::main</text>
</a>
</g>
</g>
<!-- Node1&#45;&gt;Node2 -->
<g id="edge1" class="edge">
<title>Node1&#45;&gt;Node2</title>
<path fill="none" stroke="midnightblue" d="M346.85,-39.87C338.18,-40.13 329.36,-40.36 321,-40.5 274.78,-41.3 263.22,-41.3 217,-40.5 205.36,-40.3 192.86,-39.95 181.06,-39.55"/>
<polygon fill="midnightblue" stroke="midnightblue" points="347.06,-43.37 356.94,-39.55 346.84,-36.37 347.06,-43.37"/>
</g>
<!-- Node4 -->
<g id="node4" class="node">
<title>Node4</title>
<g id="a_node4"><a xlink:href="../../d5/d1b/namespaceleanux_1_1tools_1_1lblk.html#aafee1346a1081bfa4f7470f921cd66b8" target="_top" xlink:title="Direct output run from options.">
<polygon fill="none" stroke="black" points="217,-0.5 217,-30.5 321,-30.5 321,-0.5 217,-0.5"/>
<text text-anchor="start" x="225" y="-18.5" font-family="Helvetica,sans-Serif" font-size="10.00">leanux::tools::lblk</text>
<text text-anchor="middle" x="269" y="-7.5" font-family="Helvetica,sans-Serif" font-size="10.00">::runOptions</text>
</a>
</g>
</g>
<!-- Node1&#45;&gt;Node4 -->
<g id="edge3" class="edge">
<title>Node1&#45;&gt;Node4</title>
<path fill="none" stroke="midnightblue" d="M346.5,-27.7C338.13,-26.36 329.6,-25 321.43,-23.7"/>
<polygon fill="midnightblue" stroke="midnightblue" points="346.19,-31.19 356.61,-29.31 347.29,-24.28 346.19,-31.19"/>
</g>
<!-- Node3 -->
<g id="node3" class="node">
<title>Node3</title>
<g id="a_node3"><a xlink:href="../../d9/d3a/lblk_8cpp.html#a0ddf1224851353fc92bfbff6f499fa97" target="_top" xlink:title=" ">
<polygon fill="none" stroke="black" points="0,-28 0,-47 41,-47 41,-28 0,-28"/>
<text text-anchor="middle" x="20.5" y="-35" font-family="Helvetica,sans-Serif" font-size="10.00">main</text>
</a>
</g>
</g>
<!-- Node2&#45;&gt;Node3 -->
<g id="edge2" class="edge">
<title>Node2&#45;&gt;Node3</title>
<path fill="none" stroke="midnightblue" d="M66.83,-37.5C57.58,-37.5 48.66,-37.5 41.22,-37.5"/>
<polygon fill="midnightblue" stroke="midnightblue" points="66.93,-41 76.93,-37.5 66.93,-34 66.93,-41"/>
</g>
<!-- Node4&#45;&gt;Node2 -->
<g id="edge4" class="edge">
<title>Node4&#45;&gt;Node2</title>
<path fill="none" stroke="midnightblue" d="M206.5,-25.3C198.13,-26.64 189.6,-28 181.43,-29.3"/>
<polygon fill="midnightblue" stroke="midnightblue" points="207.29,-28.72 216.61,-23.69 206.19,-21.81 207.29,-28.72"/>
</g>
</g>
</svg>
