<?xml version="1.0" encoding="UTF-8" standalone="no"?>
<!DOCTYPE svg PUBLIC "-//W3C//DTD SVG 1.1//EN"
 "http://www.w3.org/Graphics/SVG/1.1/DTD/svg11.dtd">
<!-- Generated by graphviz version 2.43.0 (0)
 -->
<!-- Title: leanux::tools::lblk::detailMetaDisk Pages: 1 -->
<svg width="831pt" height="934pt"
 viewBox="0.00 0.00 831.00 934.00" xmlns="http://www.w3.org/2000/svg" xmlns:xlink="http://www.w3.org/1999/xlink">
<g id="graph0" class="graph" transform="scale(1 1) rotate(0) translate(4 930)">
<title>leanux::tools::lblk::detailMetaDisk</title>
<!-- Node1 -->
<g id="node1" class="node">
<title>Node1</title>
<g id="a_node1"><a xlink:title="Write MetaDisk details.">
<polygon fill="#bfbfbf" stroke="black" points="0,-509 0,-539 104,-539 104,-509 0,-509"/>
<text text-anchor="start" x="8" y="-527" font-family="Helvetica,sans-Serif" font-size="10.00">leanux::tools::lblk</text>
<text text-anchor="middle" x="52" y="-516" font-family="Helvetica,sans-Serif" font-size="10.00">::detailMetaDisk</text>
</a>
</g>
</g>
<!-- Node2 -->
<g id="node2" class="node">
<title>Node2</title>
<g id="a_node2"><a xlink:href="../../d8/db1/namespaceleanux_1_1util.html#a979843e3d99f053101f902ec38985833" target="_top" xlink:title="convert a byte value to pretty print string.">
<polygon fill="none" stroke="black" points="155,-906.5 155,-925.5 268,-925.5 268,-906.5 155,-906.5"/>
<text text-anchor="middle" x="211.5" y="-913.5" font-family="Helvetica,sans-Serif" font-size="10.00">leanux::util::ByteStr</text>
</a>
</g>
</g>
<!-- Node1&#45;&gt;Node2 -->
<g id="edge1" class="edge">
<title>Node1&#45;&gt;Node2</title>
<path fill="none" stroke="midnightblue" d="M54.51,-539.12C61.07,-602.1 89.17,-842.74 140,-896 141.84,-897.93 143.86,-899.68 146.01,-901.27"/>
<polygon fill="midnightblue" stroke="midnightblue" points="144.48,-904.44 154.86,-906.6 148.09,-898.44 144.48,-904.44"/>
</g>
<!-- Node3 -->
<g id="node3" class="node">
<title>Node3</title>
<g id="a_node3"><a xlink:href="../../d7/d28/classleanux_1_1block_1_1MajorMinor.html#a53428887ee9d78196b265e624087ce2b" target="_top" xlink:title="get a list of device aliases, returned as full paths.">
<polygon fill="none" stroke="black" points="140,-808 140,-838 283,-838 283,-808 140,-808"/>
<text text-anchor="start" x="148" y="-826" font-family="Helvetica,sans-Serif" font-size="10.00">leanux::block::MajorMinor</text>
<text text-anchor="middle" x="211.5" y="-815" font-family="Helvetica,sans-Serif" font-size="10.00">::getAliases</text>
</a>
</g>
</g>
<!-- Node1&#45;&gt;Node3 -->
<g id="edge2" class="edge">
<title>Node1&#45;&gt;Node3</title>
<path fill="none" stroke="midnightblue" d="M55.93,-539.27C64.03,-578.65 89.53,-685.8 140,-760 150.88,-776 166.69,-790.62 180.58,-801.74"/>
<polygon fill="midnightblue" stroke="midnightblue" points="178.43,-804.51 188.48,-807.87 182.72,-798.97 178.43,-804.51"/>
</g>
<!-- Node10 -->
<g id="node7" class="node">
<title>Node10</title>
<g id="a_node7"><a xlink:href="../../d7/d28/classleanux_1_1block_1_1MajorMinor.html#a0262599b45d4425a1841853e830a7c46" target="_top" xlink:title="Get a descriptive string for the device type of the MajorMinor.">
<polygon fill="none" stroke="black" points="140,-93 140,-123 283,-123 283,-93 140,-93"/>
<text text-anchor="start" x="148" y="-111" font-family="Helvetica,sans-Serif" font-size="10.00">leanux::block::MajorMinor</text>
<text text-anchor="middle" x="211.5" y="-100" font-family="Helvetica,sans-Serif" font-size="10.00">::getClassStr</text>
</a>
</g>
</g>
<!-- Node1&#45;&gt;Node10 -->
<g id="edge6" class="edge">
<title>Node1&#45;&gt;Node10</title>
<path fill="none" stroke="midnightblue" d="M54.57,-508.92C61.47,-444.95 91.06,-196.69 140,-138 142.96,-134.46 146.4,-131.32 150.16,-128.55"/>
<polygon fill="midnightblue" stroke="midnightblue" points="152.24,-131.38 158.79,-123.05 148.48,-125.47 152.24,-131.38"/>
</g>
<!-- Node23 -->
<g id="node11" class="node">
<title>Node23</title>
<g id="a_node11"><a xlink:href="../../d7/d28/classleanux_1_1block_1_1MajorMinor.html#a26a2363b1eea927b6ebb4aad44dea876" target="_top" xlink:title="Get a pretty&#45;print description for the device.">
<polygon fill="none" stroke="black" points="140,-509 140,-539 283,-539 283,-509 140,-509"/>
<text text-anchor="start" x="148" y="-527" font-family="Helvetica,sans-Serif" font-size="10.00">leanux::block::MajorMinor</text>
<text text-anchor="middle" x="211.5" y="-516" font-family="Helvetica,sans-Serif" font-size="10.00">::getDescription</text>
</a>
</g>
</g>
<!-- Node1&#45;&gt;Node23 -->
<g id="edge11" class="edge">
<title>Node1&#45;&gt;Node23</title>
<path fill="none" stroke="midnightblue" d="M104.14,-524C112.33,-524 120.99,-524 129.68,-524"/>
<polygon fill="midnightblue" stroke="midnightblue" points="129.87,-527.5 139.87,-524 129.87,-520.5 129.87,-527.5"/>
</g>
<!-- Node32 -->
<g id="node16" class="node">
<title>Node32</title>
<g id="a_node16"><a xlink:href="../../d7/d28/classleanux_1_1block_1_1MajorMinor.html#a9d52932765ff17fd522e88807308b63c" target="_top" xlink:title="Get the number of members in the MetaDisk or zero if not a MetaDisk.">
<polygon fill="none" stroke="black" points="319,-640 319,-670 462,-670 462,-640 319,-640"/>
<text text-anchor="start" x="327" y="-658" font-family="Helvetica,sans-Serif" font-size="10.00">leanux::block::MajorMinor</text>
<text text-anchor="middle" x="390.5" y="-647" font-family="Helvetica,sans-Serif" font-size="10.00">::getMDDevices</text>
</a>
</g>
</g>
<!-- Node1&#45;&gt;Node32 -->
<g id="edge34" class="edge">
<title>Node1&#45;&gt;Node32</title>
<path fill="none" stroke="midnightblue" d="M73.55,-539.22C90.64,-551.32 115.96,-567.98 140,-579 195.96,-604.64 262.84,-624.48 313.26,-637.45"/>
<polygon fill="midnightblue" stroke="midnightblue" points="312.57,-640.89 323.12,-639.95 314.29,-634.1 312.57,-640.89"/>
</g>
<!-- Node34 -->
<g id="node18" class="node">
<title>Node34</title>
<g id="a_node18"><a xlink:href="../../d7/d28/classleanux_1_1block_1_1MajorMinor.html#a2c3df5e91a598e9078ed6682f2485e85" target="_top" xlink:title="Get the device MetaDisk RAID level or empty if the device is not an MetaDisk.">
<polygon fill="none" stroke="black" points="319,-591 319,-621 462,-621 462,-591 319,-591"/>
<text text-anchor="start" x="327" y="-609" font-family="Helvetica,sans-Serif" font-size="10.00">leanux::block::MajorMinor</text>
<text text-anchor="middle" x="390.5" y="-598" font-family="Helvetica,sans-Serif" font-size="10.00">::getMDLevel</text>
</a>
</g>
</g>
<!-- Node1&#45;&gt;Node34 -->
<g id="edge35" class="edge">
<title>Node1&#45;&gt;Node34</title>
<path fill="none" stroke="midnightblue" d="M104.43,-538.56C116.1,-541.76 128.46,-545.07 140,-548 197.26,-562.55 262.28,-577.62 311.59,-588.75"/>
<polygon fill="midnightblue" stroke="midnightblue" points="311.02,-592.21 321.55,-590.99 312.56,-585.38 311.02,-592.21"/>
</g>
<!-- Node41 -->
<g id="node21" class="node">
<title>Node41</title>
<g id="a_node21"><a xlink:href="../../d7/d28/classleanux_1_1block_1_1MajorMinor.html#a69c4cb46b34cbaad06c823ecccb4aa95" target="_top" xlink:title="Get the MD array state, valid for MetaDisk block devices.">
<polygon fill="none" stroke="black" points="319,-356 319,-386 462,-386 462,-356 319,-356"/>
<text text-anchor="start" x="327" y="-374" font-family="Helvetica,sans-Serif" font-size="10.00">leanux::block::MajorMinor</text>
<text text-anchor="middle" x="390.5" y="-363" font-family="Helvetica,sans-Serif" font-size="10.00">::getMDArrayState</text>
</a>
</g>
</g>
<!-- Node1&#45;&gt;Node41 -->
<g id="edge28" class="edge">
<title>Node1&#45;&gt;Node41</title>
<path fill="none" stroke="midnightblue" d="M81.21,-508.89C129.21,-483.49 230.22,-431.47 319,-395 323.47,-393.16 328.14,-391.35 332.86,-389.59"/>
<polygon fill="midnightblue" stroke="midnightblue" points="334.35,-392.78 342.55,-386.08 331.96,-386.2 334.35,-392.78"/>
</g>
<!-- Node42 -->
<g id="node22" class="node">
<title>Node42</title>
<g id="a_node22"><a xlink:href="../../d7/d28/classleanux_1_1block_1_1MajorMinor.html#a227a0929842bd741dec9c9d37f4feea1" target="_top" xlink:title="Get the MD chunck size, valid for MetaDisk block devices.">
<polygon fill="none" stroke="black" points="319,-738 319,-768 462,-768 462,-738 319,-738"/>
<text text-anchor="start" x="327" y="-756" font-family="Helvetica,sans-Serif" font-size="10.00">leanux::block::MajorMinor</text>
<text text-anchor="middle" x="390.5" y="-745" font-family="Helvetica,sans-Serif" font-size="10.00">::getMDChunkSize</text>
</a>
</g>
</g>
<!-- Node1&#45;&gt;Node42 -->
<g id="edge31" class="edge">
<title>Node1&#45;&gt;Node42</title>
<path fill="none" stroke="midnightblue" d="M58.67,-539.15C69.93,-567.26 97.74,-627.77 140,-662 188.81,-701.53 256.32,-724.76 308.81,-737.84"/>
<polygon fill="midnightblue" stroke="midnightblue" points="308.22,-741.3 318.76,-740.24 309.86,-734.49 308.22,-741.3"/>
</g>
<!-- Node43 -->
<g id="node23" class="node">
<title>Node43</title>
<g id="a_node23"><a xlink:href="../../d7/d28/classleanux_1_1block_1_1MajorMinor.html#a24bd8b57018e643a1c8d319f8b919dc2" target="_top" xlink:title="Get the MD metadata version, valid for MetaDisk block devices.">
<polygon fill="none" stroke="black" points="319,-307 319,-337 462,-337 462,-307 319,-307"/>
<text text-anchor="start" x="327" y="-325" font-family="Helvetica,sans-Serif" font-size="10.00">leanux::block::MajorMinor</text>
<text text-anchor="middle" x="390.5" y="-314" font-family="Helvetica,sans-Serif" font-size="10.00">::getMDMetaDataVersion</text>
</a>
</g>
</g>
<!-- Node1&#45;&gt;Node43 -->
<g id="edge36" class="edge">
<title>Node1&#45;&gt;Node43</title>
<path fill="none" stroke="midnightblue" d="M60.42,-508.76C73.27,-483.93 101.95,-434.74 140,-407 190.11,-370.47 257.08,-348.8 309.02,-336.49"/>
<polygon fill="midnightblue" stroke="midnightblue" points="309.91,-339.87 318.87,-334.22 308.34,-333.05 309.91,-339.87"/>
</g>
<!-- Node44 -->
<g id="node24" class="node">
<title>Node44</title>
<g id="a_node24"><a xlink:href="../../d7/d28/classleanux_1_1block_1_1MajorMinor.html#ae38226ce52162353e6fd5d77fd610442" target="_top" xlink:title="Get the device MetaDisk name or empty if the device is not an MetaDisk.">
<polygon fill="none" stroke="black" points="140,-857 140,-887 283,-887 283,-857 140,-857"/>
<text text-anchor="start" x="148" y="-875" font-family="Helvetica,sans-Serif" font-size="10.00">leanux::block::MajorMinor</text>
<text text-anchor="middle" x="211.5" y="-864" font-family="Helvetica,sans-Serif" font-size="10.00">::getMDName</text>
</a>
</g>
</g>
<!-- Node1&#45;&gt;Node44 -->
<g id="edge39" class="edge">
<title>Node1&#45;&gt;Node44</title>
<path fill="none" stroke="midnightblue" d="M52.45,-539.15C51.47,-589.82 55.2,-755.35 140,-847 141.36,-848.47 142.8,-849.85 144.33,-851.14"/>
<polygon fill="midnightblue" stroke="midnightblue" points="142.33,-854.02 152.5,-856.99 146.4,-848.32 142.33,-854.02"/>
</g>
<!-- Node45 -->
<g id="node25" class="node">
<title>Node45</title>
<g id="a_node25"><a xlink:href="../../d7/d28/classleanux_1_1block_1_1MajorMinor.html#ad5d99ca38ec1da09595471284c8f0781" target="_top" xlink:title="Get the raid disks participating in the MD array specified my MajorMinor.">
<polygon fill="none" stroke="black" points="319,-181 319,-211 462,-211 462,-181 319,-181"/>
<text text-anchor="start" x="327" y="-199" font-family="Helvetica,sans-Serif" font-size="10.00">leanux::block::MajorMinor</text>
<text text-anchor="middle" x="390.5" y="-188" font-family="Helvetica,sans-Serif" font-size="10.00">::getMDRaidDisks</text>
</a>
</g>
</g>
<!-- Node1&#45;&gt;Node45 -->
<g id="edge41" class="edge">
<title>Node1&#45;&gt;Node45</title>
<path fill="none" stroke="midnightblue" d="M52.7,-508.74C52.66,-461.44 59.38,-316.12 140,-244 185.48,-203.32 254.66,-192.59 308.65,-191.32"/>
<polygon fill="midnightblue" stroke="midnightblue" points="308.93,-194.81 318.89,-191.18 308.84,-187.81 308.93,-194.81"/>
</g>
<!-- Node46 -->
<g id="node26" class="node">
<title>Node46</title>
<g id="a_node26"><a xlink:href="../../d7/d28/classleanux_1_1block_1_1MajorMinor.html#a4d370f09736fa49da191601f235ad3dc" target="_top" xlink:title="Get a string representing raid disk states as seen in /proc/mdstat.">
<polygon fill="none" stroke="black" points="140,-254 140,-284 283,-284 283,-254 140,-254"/>
<text text-anchor="start" x="148" y="-272" font-family="Helvetica,sans-Serif" font-size="10.00">leanux::block::MajorMinor</text>
<text text-anchor="middle" x="211.5" y="-261" font-family="Helvetica,sans-Serif" font-size="10.00">::getMDRaidDiskStates</text>
</a>
</g>
</g>
<!-- Node1&#45;&gt;Node46 -->
<g id="edge45" class="edge">
<title>Node1&#45;&gt;Node46</title>
<path fill="none" stroke="midnightblue" d="M58.51,-508.59C70.48,-476.23 100.96,-399.51 140,-343 153.11,-324.03 171.07,-305.25 185.58,-291.36"/>
<polygon fill="midnightblue" stroke="midnightblue" points="188.34,-293.57 193.24,-284.17 183.55,-288.47 188.34,-293.57"/>
</g>
<!-- Node38 -->
<g id="node27" class="node">
<title>Node38</title>
<g id="a_node27"><a xlink:href="../../d7/d28/classleanux_1_1block_1_1MajorMinor.html#a08c4dd48259318cfd77067e866e05e84" target="_top" xlink:title="get the device name for this MajorMinor.">
<polygon fill="none" stroke="black" points="499.5,-137 499.5,-167 642.5,-167 642.5,-137 499.5,-137"/>
<text text-anchor="start" x="507.5" y="-155" font-family="Helvetica,sans-Serif" font-size="10.00">leanux::block::MajorMinor</text>
<text text-anchor="middle" x="571" y="-144" font-family="Helvetica,sans-Serif" font-size="10.00">::getName</text>
</a>
</g>
</g>
<!-- Node1&#45;&gt;Node38 -->
<g id="edge49" class="edge">
<title>Node1&#45;&gt;Node38</title>
<path fill="none" stroke="midnightblue" d="M54.67,-509C61.57,-449.74 89.94,-233.11 140,-190 190.67,-146.37 379.6,-145.1 489.44,-148.34"/>
<polygon fill="midnightblue" stroke="midnightblue" points="489.39,-151.84 499.49,-148.65 489.61,-144.84 489.39,-151.84"/>
</g>
<!-- Node47 -->
<g id="node28" class="node">
<title>Node47</title>
<g id="a_node28"><a xlink:href="../../d7/d28/classleanux_1_1block_1_1MajorMinor.html#ac2eb74dd60914d3e34e73fd0c7125de8" target="_top" xlink:title="Return the size (capacity) of the device in bytes.">
<polygon fill="none" stroke="black" points="319,-689 319,-719 462,-719 462,-689 319,-689"/>
<text text-anchor="start" x="327" y="-707" font-family="Helvetica,sans-Serif" font-size="10.00">leanux::block::MajorMinor</text>
<text text-anchor="middle" x="390.5" y="-696" font-family="Helvetica,sans-Serif" font-size="10.00">::getSize</text>
</a>
</g>
</g>
<!-- Node1&#45;&gt;Node47 -->
<g id="edge51" class="edge">
<title>Node1&#45;&gt;Node47</title>
<path fill="none" stroke="midnightblue" d="M63.32,-539.19C78.06,-559.79 107.03,-596.5 140,-618 191.64,-651.69 257.94,-673.72 309.21,-687.05"/>
<polygon fill="midnightblue" stroke="midnightblue" points="308.37,-690.45 318.93,-689.52 310.1,-683.66 308.37,-690.45"/>
</g>
<!-- Node48 -->
<g id="node29" class="node">
<title>Node48</title>
<g id="a_node29"><a xlink:href="../../d7/d28/classleanux_1_1block_1_1MajorMinor.html#a742f510de3aea2ec0a1eb112e3ca3c1e" target="_top" xlink:title="return the full device path as it appears under /sys/devices/block">
<polygon fill="none" stroke="black" points="319,-44 319,-74 462,-74 462,-44 319,-44"/>
<text text-anchor="start" x="327" y="-62" font-family="Helvetica,sans-Serif" font-size="10.00">leanux::block::MajorMinor</text>
<text text-anchor="middle" x="390.5" y="-51" font-family="Helvetica,sans-Serif" font-size="10.00">::getSysPath</text>
</a>
</g>
</g>
<!-- Node1&#45;&gt;Node48 -->
<g id="edge54" class="edge">
<title>Node1&#45;&gt;Node48</title>
<path fill="none" stroke="midnightblue" d="M53.66,-508.76C57.04,-437.94 74.93,-141.94 140,-83 184.86,-42.37 254.63,-38.8 308.99,-44.02"/>
<polygon fill="midnightblue" stroke="midnightblue" points="308.64,-47.51 318.96,-45.09 309.39,-40.55 308.64,-47.51"/>
</g>
<!-- Node4 -->
<g id="node4" class="node">
<title>Node4</title>
<g id="a_node4"><a xlink:href="../../d7/d28/classleanux_1_1block_1_1MajorMinor.html#a8fa26dbc85f683ed73fcec3a2db42821" target="_top" xlink:title="return the MajorMinor dev_t.">
<polygon fill="none" stroke="black" points="319,-836 319,-866 462,-866 462,-836 319,-836"/>
<text text-anchor="start" x="327" y="-854" font-family="Helvetica,sans-Serif" font-size="10.00">leanux::block::MajorMinor</text>
<text text-anchor="middle" x="390.5" y="-843" font-family="Helvetica,sans-Serif" font-size="10.00">::getDevT</text>
</a>
</g>
</g>
<!-- Node3&#45;&gt;Node4 -->
<g id="edge3" class="edge">
<title>Node3&#45;&gt;Node4</title>
<path fill="none" stroke="midnightblue" d="M283.22,-834.19C291.66,-835.52 300.33,-836.89 308.9,-838.25"/>
<polygon fill="midnightblue" stroke="midnightblue" points="308.47,-841.73 318.89,-839.83 309.56,-834.81 308.47,-841.73"/>
</g>
<!-- Node5 -->
<g id="node5" class="node">
<title>Node5</title>
<g id="a_node5"><a xlink:href="../../d7/d28/classleanux_1_1block_1_1MajorMinor.html#a7ef43192321c82d296575f35b69c52d4" target="_top" xlink:title="Get the udev path for the device.">
<polygon fill="none" stroke="black" points="499.5,-833 499.5,-863 642.5,-863 642.5,-833 499.5,-833"/>
<text text-anchor="start" x="507.5" y="-851" font-family="Helvetica,sans-Serif" font-size="10.00">leanux::block::MajorMinor</text>
<text text-anchor="middle" x="571" y="-840" font-family="Helvetica,sans-Serif" font-size="10.00">::getUDevPath</text>
</a>
</g>
</g>
<!-- Node3&#45;&gt;Node5 -->
<g id="edge4" class="edge">
<title>Node3&#45;&gt;Node5</title>
<path fill="none" stroke="midnightblue" d="M263.43,-838.06C270.17,-840.7 276.85,-843.69 283,-847 300.84,-856.62 299.83,-868.42 319,-875 385.4,-897.78 466.97,-881.49 518.74,-866.09"/>
<polygon fill="midnightblue" stroke="midnightblue" points="519.83,-869.42 528.36,-863.14 517.77,-862.73 519.83,-869.42"/>
</g>
<!-- Node6 -->
<g id="node6" class="node">
<title>Node6</title>
<g id="a_node6"><a xlink:href="../../d7/d28/classleanux_1_1block_1_1MajorMinor.html#adc3f437e329318ee21bddbbebaeb740e" target="_top" xlink:title="Get the DeviceName for the MajorMinor.">
<polygon fill="none" stroke="red" points="680,-396 680,-426 823,-426 823,-396 680,-396"/>
<text text-anchor="start" x="688" y="-414" font-family="Helvetica,sans-Serif" font-size="10.00">leanux::block::MajorMinor</text>
<text text-anchor="middle" x="751.5" y="-403" font-family="Helvetica,sans-Serif" font-size="10.00">::getNameByMajorMinor</text>
</a>
</g>
</g>
<!-- Node5&#45;&gt;Node6 -->
<g id="edge5" class="edge">
<title>Node5&#45;&gt;Node6</title>
<path fill="none" stroke="midnightblue" d="M587.92,-832.95C604.15,-816.82 628.99,-789.75 644,-762 705.18,-648.89 736.11,-495.83 746.44,-436.22"/>
<polygon fill="midnightblue" stroke="midnightblue" points="749.92,-436.65 748.13,-426.21 743.02,-435.49 749.92,-436.65"/>
</g>
<!-- Node11 -->
<g id="node8" class="node">
<title>Node11</title>
<g id="a_node8"><a xlink:href="../../d7/d28/classleanux_1_1block_1_1MajorMinor.html#ad8b93c3f6fc290008c2025e5e3d42eb5" target="_top" xlink:title="Get the DeviceClass for a MajorMinor.">
<polygon fill="none" stroke="red" points="319,-93 319,-123 462,-123 462,-93 319,-93"/>
<text text-anchor="start" x="327" y="-111" font-family="Helvetica,sans-Serif" font-size="10.00">leanux::block::MajorMinor</text>
<text text-anchor="middle" x="390.5" y="-100" font-family="Helvetica,sans-Serif" font-size="10.00">::getClass</text>
</a>
</g>
</g>
<!-- Node10&#45;&gt;Node11 -->
<g id="edge7" class="edge">
<title>Node10&#45;&gt;Node11</title>
<path fill="none" stroke="midnightblue" d="M283.22,-108C291.57,-108 300.14,-108 308.62,-108"/>
<polygon fill="midnightblue" stroke="midnightblue" points="308.89,-111.5 318.89,-108 308.89,-104.5 308.89,-111.5"/>
</g>
<!-- Node20 -->
<g id="node9" class="node">
<title>Node20</title>
<g id="a_node9"><a xlink:href="../../d7/d28/classleanux_1_1block_1_1MajorMinor.html#ad5136fe7853cb6f2ca04eadb465976da" target="_top" xlink:title=" ">
<polygon fill="none" stroke="red" points="499.5,-88 499.5,-118 642.5,-118 642.5,-88 499.5,-88"/>
<text text-anchor="start" x="507.5" y="-106" font-family="Helvetica,sans-Serif" font-size="10.00">leanux::block::MajorMinor</text>
<text text-anchor="middle" x="571" y="-95" font-family="Helvetica,sans-Serif" font-size="10.00">::isPartition</text>
</a>
</g>
</g>
<!-- Node11&#45;&gt;Node20 -->
<g id="edge8" class="edge">
<title>Node11&#45;&gt;Node20</title>
<path fill="none" stroke="midnightblue" d="M462.05,-106.02C470.97,-105.77 480.15,-105.52 489.22,-105.26"/>
<polygon fill="midnightblue" stroke="midnightblue" points="489.48,-108.76 499.38,-104.98 489.29,-101.76 489.48,-108.76"/>
</g>
<!-- Node20&#45;&gt;Node6 -->
<g id="edge9" class="edge">
<title>Node20&#45;&gt;Node6</title>
<path fill="none" stroke="midnightblue" d="M631.87,-118.01C636.27,-120.55 640.39,-123.53 644,-127 719.38,-199.64 741.91,-330.73 748.22,-385.68"/>
<polygon fill="midnightblue" stroke="midnightblue" points="744.77,-386.34 749.3,-395.91 751.73,-385.6 744.77,-386.34"/>
</g>
<!-- Node8 -->
<g id="node10" class="node">
<title>Node8</title>
<g id="a_node10"><a xlink:href="../../d7/d28/classleanux_1_1block_1_1MajorMinor.html#a464bd4b85ec6d88f850ef7d76e950f44" target="_top" xlink:title="Default constructor.">
<polygon fill="none" stroke="black" points="680,-88 680,-118 823,-118 823,-88 680,-88"/>
<text text-anchor="start" x="688" y="-106" font-family="Helvetica,sans-Serif" font-size="10.00">leanux::block::MajorMinor</text>
<text text-anchor="middle" x="751.5" y="-95" font-family="Helvetica,sans-Serif" font-size="10.00">::MajorMinor</text>
</a>
</g>
</g>
<!-- Node20&#45;&gt;Node8 -->
<g id="edge10" class="edge">
<title>Node20&#45;&gt;Node8</title>
<path fill="none" stroke="midnightblue" d="M642.55,-103C651.47,-103 660.65,-103 669.72,-103"/>
<polygon fill="midnightblue" stroke="midnightblue" points="669.88,-106.5 679.88,-103 669.88,-99.5 669.88,-106.5"/>
</g>
<!-- Node23&#45;&gt;Node11 -->
<g id="edge12" class="edge">
<title>Node23&#45;&gt;Node11</title>
<path fill="none" stroke="midnightblue" d="M217.17,-508.88C228.54,-472.01 258.53,-374.53 283,-293 299.25,-238.85 288.77,-218.77 319,-171 329.27,-154.77 344.89,-140.21 358.81,-129.19"/>
<polygon fill="midnightblue" stroke="midnightblue" points="360.94,-131.97 366.76,-123.12 356.69,-126.41 360.94,-131.97"/>
</g>
<!-- Node24 -->
<g id="node12" class="node">
<title>Node24</title>
<g id="a_node12"><a xlink:href="../../d7/d28/classleanux_1_1block_1_1MajorMinor.html#ac55fb06648c92ded4eacf29800faef83" target="_top" xlink:title="return the device dm name (or an empty string if not a dm device)">
<polygon fill="none" stroke="black" points="319,-405 319,-435 462,-435 462,-405 319,-405"/>
<text text-anchor="start" x="327" y="-423" font-family="Helvetica,sans-Serif" font-size="10.00">leanux::block::MajorMinor</text>
<text text-anchor="middle" x="390.5" y="-412" font-family="Helvetica,sans-Serif" font-size="10.00">::getDMName</text>
</a>
</g>
</g>
<!-- Node23&#45;&gt;Node24 -->
<g id="edge13" class="edge">
<title>Node23&#45;&gt;Node24</title>
<path fill="none" stroke="midnightblue" d="M229.07,-508.89C249.1,-491.28 284.45,-462.26 319,-444 322.44,-442.18 326.04,-440.46 329.72,-438.84"/>
<polygon fill="midnightblue" stroke="midnightblue" points="331.09,-442.06 338.99,-435.01 328.41,-435.59 331.09,-442.06"/>
</g>
<!-- Node25 -->
<g id="node14" class="node">
<title>Node25</title>
<g id="a_node14"><a xlink:href="../../d7/d28/classleanux_1_1block_1_1MajorMinor.html#a723e203bbbb94b23e9d593b1cf744884" target="_top" xlink:title="Get the filesystem type of the block device.">
<polygon fill="none" stroke="black" points="319,-787 319,-817 462,-817 462,-787 319,-787"/>
<text text-anchor="start" x="327" y="-805" font-family="Helvetica,sans-Serif" font-size="10.00">leanux::block::MajorMinor</text>
<text text-anchor="middle" x="390.5" y="-794" font-family="Helvetica,sans-Serif" font-size="10.00">::getFSType</text>
</a>
</g>
</g>
<!-- Node23&#45;&gt;Node25 -->
<g id="edge16" class="edge">
<title>Node23&#45;&gt;Node25</title>
<path fill="none" stroke="midnightblue" d="M214.58,-539.23C221.3,-582.67 246.4,-708.47 319,-777 320.65,-778.56 322.4,-780.02 324.24,-781.39"/>
<polygon fill="midnightblue" stroke="midnightblue" points="322.43,-784.39 332.73,-786.84 326.21,-778.49 322.43,-784.39"/>
</g>
<!-- Node26 -->
<g id="node15" class="node">
<title>Node26</title>
<g id="a_node15"><a xlink:href="../../d7/d28/classleanux_1_1block_1_1MajorMinor.html#a6e82e367d0d6d6038391ac28c2e510c5" target="_top" xlink:title="return the VG name the PV belongs to, or empty if the device is not a LVM PV.">
<polygon fill="none" stroke="red" points="319,-503 319,-533 462,-533 462,-503 319,-503"/>
<text text-anchor="start" x="327" y="-521" font-family="Helvetica,sans-Serif" font-size="10.00">leanux::block::MajorMinor</text>
<text text-anchor="middle" x="390.5" y="-510" font-family="Helvetica,sans-Serif" font-size="10.00">::getLVMPV2VG</text>
</a>
</g>
</g>
<!-- Node23&#45;&gt;Node26 -->
<g id="edge18" class="edge">
<title>Node23&#45;&gt;Node26</title>
<path fill="none" stroke="midnightblue" d="M283.22,-521.6C291.66,-521.32 300.33,-521.02 308.9,-520.73"/>
<polygon fill="midnightblue" stroke="midnightblue" points="309.02,-524.23 318.89,-520.39 308.78,-517.23 309.02,-524.23"/>
</g>
<!-- Node23&#45;&gt;Node32 -->
<g id="edge19" class="edge">
<title>Node23&#45;&gt;Node32</title>
<path fill="none" stroke="midnightblue" d="M223.98,-539.11C241.94,-561.8 278.82,-604.7 319,-630 322.15,-631.98 325.48,-633.84 328.91,-635.57"/>
<polygon fill="midnightblue" stroke="midnightblue" points="327.63,-638.83 338.17,-639.85 330.56,-632.47 327.63,-638.83"/>
</g>
<!-- Node23&#45;&gt;Node34 -->
<g id="edge22" class="edge">
<title>Node23&#45;&gt;Node34</title>
<path fill="none" stroke="midnightblue" d="M242.6,-539.21C263.82,-549.81 292.98,-564.12 319,-576 327,-579.65 335.57,-583.42 343.88,-587"/>
<polygon fill="midnightblue" stroke="midnightblue" points="342.54,-590.23 353.11,-590.94 345.29,-583.79 342.54,-590.23"/>
</g>
<!-- Node35 -->
<g id="node19" class="node">
<title>Node35</title>
<g id="a_node19"><a xlink:href="../../d7/d28/classleanux_1_1block_1_1MajorMinor.html#a6360a7c70665f9615ddb4682f96866b1" target="_top" xlink:title="get MountInfo on devices with a mounted filesystem.">
<polygon fill="none" stroke="red" points="319,-454 319,-484 462,-484 462,-454 319,-454"/>
<text text-anchor="start" x="327" y="-472" font-family="Helvetica,sans-Serif" font-size="10.00">leanux::block::MajorMinor</text>
<text text-anchor="middle" x="390.5" y="-461" font-family="Helvetica,sans-Serif" font-size="10.00">::getMountInfo</text>
</a>
</g>
</g>
<!-- Node23&#45;&gt;Node35 -->
<g id="edge25" class="edge">
<title>Node23&#45;&gt;Node35</title>
<path fill="none" stroke="midnightblue" d="M260.87,-508.97C282.72,-502.18 308.71,-494.1 331.6,-486.99"/>
<polygon fill="midnightblue" stroke="midnightblue" points="332.68,-490.32 341.19,-484.01 330.6,-483.64 332.68,-490.32"/>
</g>
<!-- Node39 -->
<g id="node20" class="node">
<title>Node39</title>
<g id="a_node20"><a xlink:href="../../d7/d28/classleanux_1_1block_1_1MajorMinor.html#a322147b2e87ccbb0b5ffa42b18d03b4e" target="_top" xlink:title="get the host:channel:target:lun addess for the device.">
<polygon fill="none" stroke="red" points="499.5,-468 499.5,-498 642.5,-498 642.5,-468 499.5,-468"/>
<text text-anchor="start" x="507.5" y="-486" font-family="Helvetica,sans-Serif" font-size="10.00">leanux::block::MajorMinor</text>
<text text-anchor="middle" x="571" y="-475" font-family="Helvetica,sans-Serif" font-size="10.00">::getSCSIHCTL</text>
</a>
</g>
</g>
<!-- Node23&#45;&gt;Node39 -->
<g id="edge26" class="edge">
<title>Node23&#45;&gt;Node39</title>
<path fill="none" stroke="midnightblue" d="M273.2,-539.04C324.32,-549.2 398.99,-558.09 462,-542 490.98,-534.6 520.56,-517.65 541.42,-503.81"/>
<polygon fill="midnightblue" stroke="midnightblue" points="543.51,-506.62 549.8,-498.1 539.57,-500.84 543.51,-506.62"/>
</g>
<!-- Node24&#45;&gt;Node6 -->
<g id="edge15" class="edge">
<title>Node24&#45;&gt;Node6</title>
<path fill="none" stroke="midnightblue" d="M462.43,-418.22C522.05,-416.73 607.26,-414.59 669.54,-413.03"/>
<polygon fill="midnightblue" stroke="midnightblue" points="669.81,-416.52 679.72,-412.77 669.64,-409.53 669.81,-416.52"/>
</g>
<!-- Node13 -->
<g id="node13" class="node">
<title>Node13</title>
<g id="a_node13"><a xlink:href="../../d8/db1/namespaceleanux_1_1util.html#a57bfd49353610b3d0b6d121b264c676e" target="_top" xlink:title="read the file as a single string.">
<polygon fill="none" stroke="black" points="498,-344.5 498,-363.5 644,-363.5 644,-344.5 498,-344.5"/>
<text text-anchor="middle" x="571" y="-351.5" font-family="Helvetica,sans-Serif" font-size="10.00">leanux::util::fileReadString</text>
</a>
</g>
</g>
<!-- Node24&#45;&gt;Node13 -->
<g id="edge14" class="edge">
<title>Node24&#45;&gt;Node13</title>
<path fill="none" stroke="midnightblue" d="M434.43,-404.95C443.54,-401.7 453.1,-398.27 462,-395 486.7,-385.93 514.46,-375.39 535.65,-367.26"/>
<polygon fill="midnightblue" stroke="midnightblue" points="537.1,-370.45 545.18,-363.6 534.59,-363.92 537.1,-370.45"/>
</g>
<!-- Node25&#45;&gt;Node5 -->
<g id="edge17" class="edge">
<title>Node25&#45;&gt;Node5</title>
<path fill="none" stroke="midnightblue" d="M449.95,-817.06C466.52,-821.33 484.71,-826.02 501.81,-830.43"/>
<polygon fill="midnightblue" stroke="midnightblue" points="501.17,-833.88 511.73,-832.98 502.92,-827.1 501.17,-833.88"/>
</g>
<!-- Node32&#45;&gt;Node6 -->
<g id="edge21" class="edge">
<title>Node32&#45;&gt;Node6</title>
<path fill="none" stroke="midnightblue" d="M456.27,-639.96C510.58,-624.96 588,-597.74 644,-554 686.67,-520.67 720.75,-466.13 738.05,-434.92"/>
<polygon fill="midnightblue" stroke="midnightblue" points="741.18,-436.5 742.88,-426.04 735.03,-433.16 741.18,-436.5"/>
</g>
<!-- Node33 -->
<g id="node17" class="node">
<title>Node33</title>
<g id="a_node17"><a xlink:href="../../d8/db1/namespaceleanux_1_1util.html#a1e9a1206d94b2f96e8e0c6adc4e4cd12" target="_top" xlink:title="read the first data in the file as a string representation of a unsigned long.">
<polygon fill="none" stroke="black" points="506,-656.5 506,-675.5 636,-675.5 636,-656.5 506,-656.5"/>
<text text-anchor="middle" x="571" y="-663.5" font-family="Helvetica,sans-Serif" font-size="10.00">leanux::util::fileReadUL</text>
</a>
</g>
</g>
<!-- Node32&#45;&gt;Node33 -->
<g id="edge20" class="edge">
<title>Node32&#45;&gt;Node33</title>
<path fill="none" stroke="midnightblue" d="M462.05,-659.35C473.09,-660.03 484.53,-660.73 495.66,-661.42"/>
<polygon fill="midnightblue" stroke="midnightblue" points="495.57,-664.92 505.76,-662.04 496,-657.93 495.57,-664.92"/>
</g>
<!-- Node34&#45;&gt;Node6 -->
<g id="edge24" class="edge">
<title>Node34&#45;&gt;Node6</title>
<path fill="none" stroke="midnightblue" d="M445.85,-590.93C498.85,-574.84 580.52,-546.24 644,-507 677.38,-486.37 710.03,-454.74 730.2,-433.49"/>
<polygon fill="midnightblue" stroke="midnightblue" points="732.77,-435.86 737.04,-426.17 727.66,-431.08 732.77,-435.86"/>
</g>
<!-- Node34&#45;&gt;Node13 -->
<g id="edge23" class="edge">
<title>Node34&#45;&gt;Node13</title>
<path fill="none" stroke="midnightblue" d="M412.56,-590.85C427.89,-578.96 448.28,-561.25 462,-542 485.58,-508.93 478.34,-493.54 498,-458 515.68,-426.03 540.79,-391.69 556.21,-371.56"/>
<polygon fill="midnightblue" stroke="midnightblue" points="559.01,-373.66 562.36,-363.61 553.47,-369.38 559.01,-373.66"/>
</g>
<!-- Node39&#45;&gt;Node6 -->
<g id="edge27" class="edge">
<title>Node39&#45;&gt;Node6</title>
<path fill="none" stroke="midnightblue" d="M609.42,-467.91C636.79,-456.87 674.11,-441.81 703.5,-429.96"/>
<polygon fill="midnightblue" stroke="midnightblue" points="705.17,-433.06 713.13,-426.07 702.55,-426.57 705.17,-433.06"/>
</g>
<!-- Node41&#45;&gt;Node6 -->
<g id="edge30" class="edge">
<title>Node41&#45;&gt;Node6</title>
<path fill="none" stroke="midnightblue" d="M462.43,-378.9C522.05,-385.55 607.26,-395.04 669.54,-401.98"/>
<polygon fill="midnightblue" stroke="midnightblue" points="669.39,-405.48 679.72,-403.11 670.17,-398.53 669.39,-405.48"/>
</g>
<!-- Node41&#45;&gt;Node13 -->
<g id="edge29" class="edge">
<title>Node41&#45;&gt;Node13</title>
<path fill="none" stroke="midnightblue" d="M462.05,-364.28C470.52,-363.47 479.23,-362.64 487.86,-361.82"/>
<polygon fill="midnightblue" stroke="midnightblue" points="488.29,-365.3 497.92,-360.87 487.63,-358.33 488.29,-365.3"/>
</g>
<!-- Node42&#45;&gt;Node6 -->
<g id="edge33" class="edge">
<title>Node42&#45;&gt;Node6</title>
<path fill="none" stroke="midnightblue" d="M462.23,-761.46C517.69,-764.12 593.66,-758.44 644,-717 731.72,-644.79 747.32,-496.04 749.99,-436.48"/>
<polygon fill="midnightblue" stroke="midnightblue" points="753.5,-436.24 750.36,-426.12 746.51,-435.99 753.5,-436.24"/>
</g>
<!-- Node42&#45;&gt;Node33 -->
<g id="edge32" class="edge">
<title>Node42&#45;&gt;Node33</title>
<path fill="none" stroke="midnightblue" d="M437.87,-737.91C446.01,-734.87 454.33,-731.53 462,-728 492.29,-714.07 525.27,-694.43 546.71,-681.01"/>
<polygon fill="midnightblue" stroke="midnightblue" points="548.84,-683.8 555.43,-675.5 545.1,-677.89 548.84,-683.8"/>
</g>
<!-- Node43&#45;&gt;Node6 -->
<g id="edge38" class="edge">
<title>Node43&#45;&gt;Node6</title>
<path fill="none" stroke="midnightblue" d="M462.11,-315.22C513.9,-312.72 585.15,-314.47 644,-335 676.57,-346.36 707.97,-370.98 728.13,-389.14"/>
<polygon fill="midnightblue" stroke="midnightblue" points="725.82,-391.77 735.54,-395.98 730.57,-386.62 725.82,-391.77"/>
</g>
<!-- Node43&#45;&gt;Node13 -->
<g id="edge37" class="edge">
<title>Node43&#45;&gt;Node13</title>
<path fill="none" stroke="midnightblue" d="M462.05,-334.65C476.85,-337.3 492.38,-340.08 506.89,-342.69"/>
<polygon fill="midnightblue" stroke="midnightblue" points="506.3,-346.14 516.76,-344.46 507.53,-339.25 506.3,-346.14"/>
</g>
<!-- Node44&#45;&gt;Node5 -->
<g id="edge40" class="edge">
<title>Node44&#45;&gt;Node5</title>
<path fill="none" stroke="midnightblue" d="M254.71,-887.03C282.95,-897.02 315.56,-908.42 319,-909 381.67,-919.58 400.53,-925.16 462,-909 491.52,-901.24 521.46,-883.37 542.31,-868.97"/>
<polygon fill="midnightblue" stroke="midnightblue" points="544.52,-871.69 550.66,-863.05 540.47,-865.98 544.52,-871.69"/>
</g>
<!-- Node45&#45;&gt;Node6 -->
<g id="edge43" class="edge">
<title>Node45&#45;&gt;Node6</title>
<path fill="none" stroke="midnightblue" d="M462.04,-199.93C515.95,-205.93 589.95,-220.89 644,-258 691.59,-290.68 724.57,-352.11 740.19,-386.35"/>
<polygon fill="midnightblue" stroke="midnightblue" points="737.06,-387.92 744.31,-395.64 743.46,-385.08 737.06,-387.92"/>
</g>
<!-- Node45&#45;&gt;Node8 -->
<g id="edge44" class="edge">
<title>Node45&#45;&gt;Node8</title>
<path fill="none" stroke="midnightblue" d="M462.1,-200.02C513.88,-200.7 585.13,-196.82 644,-176 675.39,-164.9 706.21,-142.1 726.55,-124.92"/>
<polygon fill="midnightblue" stroke="midnightblue" points="729.06,-127.38 734.33,-118.19 724.48,-122.08 729.06,-127.38"/>
</g>
<!-- Node45&#45;&gt;Node13 -->
<g id="edge42" class="edge">
<title>Node45&#45;&gt;Node13</title>
<path fill="none" stroke="midnightblue" d="M408.62,-211.15C442.22,-240.9 516.58,-306.72 551.37,-337.51"/>
<polygon fill="midnightblue" stroke="midnightblue" points="549.13,-340.2 558.94,-344.21 553.77,-334.96 549.13,-340.2"/>
</g>
<!-- Node46&#45;&gt;Node6 -->
<g id="edge48" class="edge">
<title>Node46&#45;&gt;Node6</title>
<path fill="none" stroke="midnightblue" d="M283.33,-260.01C372.91,-252.05 529.3,-249.77 644,-311 680.07,-330.26 712.94,-364.91 732.34,-387.94"/>
<polygon fill="midnightblue" stroke="midnightblue" points="729.8,-390.36 738.86,-395.85 735.2,-385.9 729.8,-390.36"/>
</g>
<!-- Node46&#45;&gt;Node13 -->
<g id="edge46" class="edge">
<title>Node46&#45;&gt;Node13</title>
<path fill="none" stroke="midnightblue" d="M283.02,-269.94C333.79,-272.28 403.37,-278.95 462,-297 493.42,-306.67 526.4,-325.54 547.52,-338.91"/>
<polygon fill="midnightblue" stroke="midnightblue" points="545.78,-341.95 556.08,-344.44 549.58,-336.08 545.78,-341.95"/>
</g>
<!-- Node46&#45;&gt;Node45 -->
<g id="edge47" class="edge">
<title>Node46&#45;&gt;Node45</title>
<path fill="none" stroke="midnightblue" d="M249.17,-253.87C276.47,-242.62 313.91,-227.17 343.26,-215.07"/>
<polygon fill="midnightblue" stroke="midnightblue" points="344.96,-218.15 352.87,-211.11 342.29,-211.68 344.96,-218.15"/>
</g>
<!-- Node38&#45;&gt;Node6 -->
<g id="edge50" class="edge">
<title>Node38&#45;&gt;Node6</title>
<path fill="none" stroke="midnightblue" d="M590.97,-167.11C606.46,-180.06 628.27,-199.78 644,-220 686.7,-274.87 722.81,-348.98 739.91,-386.72"/>
<polygon fill="midnightblue" stroke="midnightblue" points="736.75,-388.23 744.02,-395.93 743.14,-385.37 736.75,-388.23"/>
</g>
<!-- Node47&#45;&gt;Node6 -->
<g id="edge53" class="edge">
<title>Node47&#45;&gt;Node6</title>
<path fill="none" stroke="midnightblue" d="M462.17,-717.59C517.04,-724.02 592.25,-723.34 644,-685 725.89,-624.33 744.83,-491.6 749.19,-436.14"/>
<polygon fill="midnightblue" stroke="midnightblue" points="752.69,-436.34 749.89,-426.12 745.71,-435.85 752.69,-436.34"/>
</g>
<!-- Node47&#45;&gt;Node33 -->
<g id="edge52" class="edge">
<title>Node47&#45;&gt;Node33</title>
<path fill="none" stroke="midnightblue" d="M462.05,-688.98C479.72,-685.22 498.42,-681.24 515.2,-677.67"/>
<polygon fill="midnightblue" stroke="midnightblue" points="516.32,-681.01 525.37,-675.5 514.86,-674.16 516.32,-681.01"/>
</g>
<!-- Node48&#45;&gt;Node20 -->
<g id="edge59" class="edge">
<title>Node48&#45;&gt;Node20</title>
<path fill="none" stroke="midnightblue" d="M452.43,-74.02C467.43,-77.72 483.61,-81.71 499.04,-85.51"/>
<polygon fill="midnightblue" stroke="midnightblue" points="498.49,-88.98 509.04,-87.97 500.17,-82.18 498.49,-88.98"/>
</g>
<!-- Node48&#45;&gt;Node38 -->
<g id="edge58" class="edge">
<title>Node48&#45;&gt;Node38</title>
<path fill="none" stroke="midnightblue" d="M446.12,-74.11C451.71,-76.66 457.11,-79.61 462,-83 482.76,-97.4 477.28,-112.53 498,-127 500.71,-128.89 503.58,-130.66 506.55,-132.3"/>
<polygon fill="midnightblue" stroke="midnightblue" points="505.19,-135.53 515.7,-136.85 508.31,-129.26 505.19,-135.53"/>
</g>
<!-- Node28 -->
<g id="node30" class="node">
<title>Node28</title>
<g id="a_node30"><a xlink:href="../../d7/d28/classleanux_1_1block_1_1MajorMinor.html#a5771b2baf04dd79e61c5bcd3f4ec532c" target="_top" xlink:title="Derive the MajorMinor of the whole disk holding a partition.">
<polygon fill="none" stroke="red" points="499.5,-39 499.5,-69 642.5,-69 642.5,-39 499.5,-39"/>
<text text-anchor="start" x="507.5" y="-57" font-family="Helvetica,sans-Serif" font-size="10.00">leanux::block::MajorMinor</text>
<text text-anchor="middle" x="571" y="-46" font-family="Helvetica,sans-Serif" font-size="10.00">::deriveWholeDisk</text>
</a>
</g>
</g>
<!-- Node48&#45;&gt;Node28 -->
<g id="edge55" class="edge">
<title>Node48&#45;&gt;Node28</title>
<path fill="none" stroke="midnightblue" d="M462.05,-57.02C470.97,-56.77 480.15,-56.52 489.22,-56.26"/>
<polygon fill="midnightblue" stroke="midnightblue" points="489.48,-59.76 499.38,-55.98 489.29,-52.76 489.48,-59.76"/>
</g>
<!-- Node9 -->
<g id="node31" class="node">
<title>Node9</title>
<g id="a_node31"><a xlink:href="../../d8/db1/namespaceleanux_1_1util.html#a9ae898fe02934e4905ef4665c2871158" target="_top" xlink:title="Convert a path on a filesystem to the realpath if the path is a link.">
<polygon fill="none" stroke="black" points="512.5,-0.5 512.5,-19.5 629.5,-19.5 629.5,-0.5 512.5,-0.5"/>
<text text-anchor="middle" x="571" y="-7.5" font-family="Helvetica,sans-Serif" font-size="10.00">leanux::util::realPath</text>
</a>
</g>
</g>
<!-- Node48&#45;&gt;Node9 -->
<g id="edge60" class="edge">
<title>Node48&#45;&gt;Node9</title>
<path fill="none" stroke="midnightblue" d="M444.27,-43.95C461.39,-39.12 480.49,-33.78 498,-29 506.25,-26.75 515.04,-24.4 523.54,-22.14"/>
<polygon fill="midnightblue" stroke="midnightblue" points="524.57,-25.49 533.34,-19.55 522.78,-18.72 524.57,-25.49"/>
</g>
<!-- Node28&#45;&gt;Node6 -->
<g id="edge56" class="edge">
<title>Node28&#45;&gt;Node6</title>
<path fill="none" stroke="midnightblue" d="M632.4,-69.03C636.63,-71.56 640.57,-74.53 644,-78 688.54,-123.09 731.28,-316.2 745.52,-385.84"/>
<polygon fill="midnightblue" stroke="midnightblue" points="742.15,-386.81 747.56,-395.91 749.01,-385.42 742.15,-386.81"/>
</g>
<!-- Node28&#45;&gt;Node8 -->
<g id="edge57" class="edge">
<title>Node28&#45;&gt;Node8</title>
<path fill="none" stroke="midnightblue" d="M627.01,-69.1C645.59,-74.2 666.51,-79.94 685.77,-85.23"/>
<polygon fill="midnightblue" stroke="midnightblue" points="685.1,-88.68 695.67,-87.95 686.95,-81.93 685.1,-88.68"/>
</g>
</g>
</svg>
