<?xml version="1.0" encoding="UTF-8" standalone="no"?>
<!DOCTYPE svg PUBLIC "-//W3C//DTD SVG 1.1//EN"
 "http://www.w3.org/Graphics/SVG/1.1/DTD/svg11.dtd">
<!-- Generated by graphviz version 2.43.0 (0)
 -->
<!-- Title: leanux::tools::lblk::detailLVM Pages: 1 -->
<svg width="1015pt" height="890pt"
 viewBox="0.00 0.00 1015.00 889.50" xmlns="http://www.w3.org/2000/svg" xmlns:xlink="http://www.w3.org/1999/xlink">
<g id="graph0" class="graph" transform="scale(1 1) rotate(0) translate(4 885.5)">
<title>leanux::tools::lblk::detailLVM</title>
<!-- Node1 -->
<g id="node1" class="node">
<title>Node1</title>
<g id="a_node1"><a xlink:title="Write LVM details.">
<polygon fill="#bfbfbf" stroke="black" points="0,-338.5 0,-368.5 104,-368.5 104,-338.5 0,-338.5"/>
<text text-anchor="start" x="8" y="-356.5" font-family="Helvetica,sans-Serif" font-size="10.00">leanux::tools::lblk</text>
<text text-anchor="middle" x="52" y="-345.5" font-family="Helvetica,sans-Serif" font-size="10.00">::detailLVM</text>
</a>
</g>
</g>
<!-- Node2 -->
<g id="node2" class="node">
<title>Node2</title>
<g id="a_node2"><a xlink:href="../../d8/db1/namespaceleanux_1_1util.html#a979843e3d99f053101f902ec38985833" target="_top" xlink:title="convert a byte value to pretty print string.">
<polygon fill="none" stroke="black" points="155,-862 155,-881 268,-881 268,-862 155,-862"/>
<text text-anchor="middle" x="211.5" y="-869" font-family="Helvetica,sans-Serif" font-size="10.00">leanux::util::ByteStr</text>
</a>
</g>
</g>
<!-- Node1&#45;&gt;Node2 -->
<g id="edge1" class="edge">
<title>Node1&#45;&gt;Node2</title>
<path fill="none" stroke="midnightblue" d="M53.55,-368.87C56.56,-444.65 73.44,-777.68 140,-851.5 141.83,-853.53 143.84,-855.35 146,-857"/>
<polygon fill="midnightblue" stroke="midnightblue" points="144.6,-860.24 154.95,-862.5 148.26,-854.28 144.6,-860.24"/>
</g>
<!-- Node3 -->
<g id="node3" class="node">
<title>Node3</title>
<g id="a_node3"><a xlink:href="../../d7/d28/classleanux_1_1block_1_1MajorMinor.html#a53428887ee9d78196b265e624087ce2b" target="_top" xlink:title="get a list of device aliases, returned as full paths.">
<polygon fill="none" stroke="black" points="140,-812.5 140,-842.5 283,-842.5 283,-812.5 140,-812.5"/>
<text text-anchor="start" x="148" y="-830.5" font-family="Helvetica,sans-Serif" font-size="10.00">leanux::block::MajorMinor</text>
<text text-anchor="middle" x="211.5" y="-819.5" font-family="Helvetica,sans-Serif" font-size="10.00">::getAliases</text>
</a>
</g>
</g>
<!-- Node1&#45;&gt;Node3 -->
<g id="edge2" class="edge">
<title>Node1&#45;&gt;Node3</title>
<path fill="none" stroke="midnightblue" d="M54.2,-368.71C59.93,-438.1 86.53,-724.36 140,-793.5 144.13,-798.84 149.32,-803.4 155,-807.26"/>
<polygon fill="midnightblue" stroke="midnightblue" points="153.22,-810.28 163.59,-812.44 156.84,-804.28 153.22,-810.28"/>
</g>
<!-- Node10 -->
<g id="node7" class="node">
<title>Node10</title>
<g id="a_node7"><a xlink:href="../../d7/d28/classleanux_1_1block_1_1MajorMinor.html#a0262599b45d4425a1841853e830a7c46" target="_top" xlink:title="Get a descriptive string for the device type of the MajorMinor.">
<polygon fill="none" stroke="black" points="140,-614.5 140,-644.5 283,-644.5 283,-614.5 140,-614.5"/>
<text text-anchor="start" x="148" y="-632.5" font-family="Helvetica,sans-Serif" font-size="10.00">leanux::block::MajorMinor</text>
<text text-anchor="middle" x="211.5" y="-621.5" font-family="Helvetica,sans-Serif" font-size="10.00">::getClassStr</text>
</a>
</g>
</g>
<!-- Node1&#45;&gt;Node10 -->
<g id="edge6" class="edge">
<title>Node1&#45;&gt;Node10</title>
<path fill="none" stroke="midnightblue" d="M55.07,-368.65C61.23,-408.65 82.7,-518.74 140,-587.5 147.12,-596.05 156.46,-603.29 166,-609.22"/>
<polygon fill="midnightblue" stroke="midnightblue" points="164.35,-612.32 174.76,-614.31 167.87,-606.26 164.35,-612.32"/>
</g>
<!-- Node14 -->
<g id="node11" class="node">
<title>Node14</title>
<g id="a_node11"><a xlink:href="../../d7/d28/classleanux_1_1block_1_1MajorMinor.html#aedaa770034a3bc139513e7a9aaa5c7f4" target="_top" xlink:title="Get the LV name the block device belongs to, or empty string if the device is not a LVM PV.">
<polygon fill="none" stroke="black" points="498,-704.5 498,-734.5 641,-734.5 641,-704.5 498,-704.5"/>
<text text-anchor="start" x="506" y="-722.5" font-family="Helvetica,sans-Serif" font-size="10.00">leanux::block::MajorMinor</text>
<text text-anchor="middle" x="569.5" y="-711.5" font-family="Helvetica,sans-Serif" font-size="10.00">::getLVName</text>
</a>
</g>
</g>
<!-- Node1&#45;&gt;Node14 -->
<g id="edge41" class="edge">
<title>Node1&#45;&gt;Node14</title>
<path fill="none" stroke="midnightblue" d="M52.86,-368.57C53.22,-416.78 60.88,-568.97 140,-653.5 228.06,-747.57 389.96,-745.34 487.57,-733.54"/>
<polygon fill="midnightblue" stroke="midnightblue" points="488.21,-736.99 497.68,-732.26 487.32,-730.05 488.21,-736.99"/>
</g>
<!-- Node23 -->
<g id="node13" class="node">
<title>Node23</title>
<g id="a_node13"><a xlink:href="../../d7/d28/classleanux_1_1block_1_1MajorMinor.html#a36d573036d3feb947a0e8212a5f6b750" target="_top" xlink:title="get the devicefile for this MajorMinor.">
<polygon fill="none" stroke="black" points="140,-28.5 140,-58.5 283,-58.5 283,-28.5 140,-28.5"/>
<text text-anchor="start" x="148" y="-46.5" font-family="Helvetica,sans-Serif" font-size="10.00">leanux::block::MajorMinor</text>
<text text-anchor="middle" x="211.5" y="-35.5" font-family="Helvetica,sans-Serif" font-size="10.00">::getDeviceFile</text>
</a>
</g>
</g>
<!-- Node1&#45;&gt;Node23 -->
<g id="edge15" class="edge">
<title>Node1&#45;&gt;Node23</title>
<path fill="none" stroke="midnightblue" d="M53.43,-338.3C55.52,-292.39 67.81,-153.38 140,-73.5 143.28,-69.87 147.08,-66.66 151.17,-63.83"/>
<polygon fill="midnightblue" stroke="midnightblue" points="153.18,-66.7 159.93,-58.53 149.56,-60.71 153.18,-66.7"/>
</g>
<!-- Node24 -->
<g id="node14" class="node">
<title>Node24</title>
<g id="a_node14"><a xlink:href="../../d7/d28/classleanux_1_1block_1_1MajorMinor.html#a52999f02212469e3e0e74760d7637470" target="_top" xlink:title="Retrieve a string identifying a disk on a best&#45;efffort basis.">
<polygon fill="none" stroke="black" points="140,-548.5 140,-578.5 283,-578.5 283,-548.5 140,-548.5"/>
<text text-anchor="start" x="148" y="-566.5" font-family="Helvetica,sans-Serif" font-size="10.00">leanux::block::MajorMinor</text>
<text text-anchor="middle" x="211.5" y="-555.5" font-family="Helvetica,sans-Serif" font-size="10.00">::getDiskId</text>
</a>
</g>
</g>
<!-- Node1&#45;&gt;Node24 -->
<g id="edge16" class="edge">
<title>Node1&#45;&gt;Node24</title>
<path fill="none" stroke="midnightblue" d="M64.33,-368.6C91.45,-404.76 160.27,-496.53 192.87,-539.99"/>
<polygon fill="midnightblue" stroke="midnightblue" points="190.26,-542.35 199.06,-548.25 195.86,-538.15 190.26,-542.35"/>
</g>
<!-- Node29 -->
<g id="node19" class="node">
<title>Node29</title>
<g id="a_node19"><a xlink:href="../../d7/d28/classleanux_1_1block_1_1MajorMinor.html#ac55fb06648c92ded4eacf29800faef83" target="_top" xlink:title="return the device dm name (or an empty string if not a dm device)">
<polygon fill="none" stroke="black" points="498,-469.5 498,-499.5 641,-499.5 641,-469.5 498,-469.5"/>
<text text-anchor="start" x="506" y="-487.5" font-family="Helvetica,sans-Serif" font-size="10.00">leanux::block::MajorMinor</text>
<text text-anchor="middle" x="569.5" y="-476.5" font-family="Helvetica,sans-Serif" font-size="10.00">::getDMName</text>
</a>
</g>
</g>
<!-- Node1&#45;&gt;Node29 -->
<g id="edge31" class="edge">
<title>Node1&#45;&gt;Node29</title>
<path fill="none" stroke="midnightblue" d="M82.58,-368.63C99.13,-376.61 120.34,-386.06 140,-392.5 258.42,-431.28 400.68,-458.09 487.83,-472.38"/>
<polygon fill="midnightblue" stroke="midnightblue" points="487.48,-475.87 497.91,-474.02 488.6,-468.96 487.48,-475.87"/>
</g>
<!-- Node30 -->
<g id="node20" class="node">
<title>Node30</title>
<g id="a_node20"><a xlink:href="../../d7/d28/classleanux_1_1block_1_1MajorMinor.html#aefbe4f5de2bcdf31cfb0ece97e8e12e7" target="_top" xlink:title="get the IO scheduler (elevator) configured for the device.">
<polygon fill="none" stroke="black" points="498,-420.5 498,-450.5 641,-450.5 641,-420.5 498,-420.5"/>
<text text-anchor="start" x="506" y="-438.5" font-family="Helvetica,sans-Serif" font-size="10.00">leanux::block::MajorMinor</text>
<text text-anchor="middle" x="569.5" y="-427.5" font-family="Helvetica,sans-Serif" font-size="10.00">::getIOScheduler</text>
</a>
</g>
</g>
<!-- Node1&#45;&gt;Node30 -->
<g id="edge34" class="edge">
<title>Node1&#45;&gt;Node30</title>
<path fill="none" stroke="midnightblue" d="M104.06,-361.74C115.86,-363.63 128.37,-365.64 140,-367.5 261.27,-386.88 401.88,-409.16 488.01,-422.78"/>
<polygon fill="midnightblue" stroke="midnightblue" points="487.55,-426.25 497.98,-424.36 488.65,-419.34 487.55,-426.25"/>
</g>
<!-- Node33 -->
<g id="node22" class="node">
<title>Node33</title>
<g id="a_node22"><a xlink:href="../../d7/d28/classleanux_1_1block_1_1MajorMinor.html#a7e67ba12dcc01b5690e58b252f3c7019" target="_top" xlink:title="get the maximum IO size the hardware device reports to support.">
<polygon fill="none" stroke="black" points="498,-0.5 498,-30.5 641,-30.5 641,-0.5 498,-0.5"/>
<text text-anchor="start" x="506" y="-18.5" font-family="Helvetica,sans-Serif" font-size="10.00">leanux::block::MajorMinor</text>
<text text-anchor="middle" x="569.5" y="-7.5" font-family="Helvetica,sans-Serif" font-size="10.00">::getMaxHWIOSize</text>
</a>
</g>
</g>
<!-- Node1&#45;&gt;Node33 -->
<g id="edge42" class="edge">
<title>Node1&#45;&gt;Node33</title>
<path fill="none" stroke="midnightblue" d="M53.33,-338.21C55.16,-294.06 66.81,-165.46 140,-101.5 146.57,-95.76 365.24,-53.81 487.59,-30.69"/>
<polygon fill="midnightblue" stroke="midnightblue" points="488.5,-34.08 497.67,-28.79 487.2,-27.2 488.5,-34.08"/>
</g>
<!-- Node35 -->
<g id="node24" class="node">
<title>Node35</title>
<g id="a_node24"><a xlink:href="../../d7/d28/classleanux_1_1block_1_1MajorMinor.html#a28ee6f7ffa63a9a24c296e96f9a50a8b" target="_top" xlink:title="get the maximum IO size configured to the device.">
<polygon fill="none" stroke="black" points="498,-196.5 498,-226.5 641,-226.5 641,-196.5 498,-196.5"/>
<text text-anchor="start" x="506" y="-214.5" font-family="Helvetica,sans-Serif" font-size="10.00">leanux::block::MajorMinor</text>
<text text-anchor="middle" x="569.5" y="-203.5" font-family="Helvetica,sans-Serif" font-size="10.00">::getMaxIOSize</text>
</a>
</g>
</g>
<!-- Node1&#45;&gt;Node35 -->
<g id="edge45" class="edge">
<title>Node1&#45;&gt;Node35</title>
<path fill="none" stroke="midnightblue" d="M69.27,-338.25C85.78,-323.65 112.74,-302.17 140,-290.5 254.67,-241.41 399.4,-222.78 487.89,-215.74"/>
<polygon fill="midnightblue" stroke="midnightblue" points="488.16,-219.23 497.86,-214.98 487.62,-212.25 488.16,-219.23"/>
</g>
<!-- Node36 -->
<g id="node25" class="node">
<title>Node36</title>
<g id="a_node25"><a xlink:href="../../d7/d28/classleanux_1_1block_1_1MajorMinor.html#aba4faaf6914fd4c4f02840b297e1de36" target="_top" xlink:title="get the minimum IO size the device supports.">
<polygon fill="none" stroke="black" points="498,-147.5 498,-177.5 641,-177.5 641,-147.5 498,-147.5"/>
<text text-anchor="start" x="506" y="-165.5" font-family="Helvetica,sans-Serif" font-size="10.00">leanux::block::MajorMinor</text>
<text text-anchor="middle" x="569.5" y="-154.5" font-family="Helvetica,sans-Serif" font-size="10.00">::getMinIOSize</text>
</a>
</g>
</g>
<!-- Node1&#45;&gt;Node36 -->
<g id="edge48" class="edge">
<title>Node1&#45;&gt;Node36</title>
<path fill="none" stroke="midnightblue" d="M60.47,-338.19C73.19,-313.88 101.46,-266.82 140,-243.5 169.34,-225.74 371.87,-192.54 487.68,-174.65"/>
<polygon fill="midnightblue" stroke="midnightblue" points="488.23,-178.11 497.58,-173.13 487.16,-171.19 488.23,-178.11"/>
</g>
<!-- Node37 -->
<g id="node26" class="node">
<title>Node37</title>
<g id="a_node26"><a xlink:href="../../d7/d28/classleanux_1_1block_1_1MajorMinor.html#a08c4dd48259318cfd77067e866e05e84" target="_top" xlink:title="get the device name for this MajorMinor.">
<polygon fill="none" stroke="black" points="681,-344.5 681,-374.5 824,-374.5 824,-344.5 681,-344.5"/>
<text text-anchor="start" x="689" y="-362.5" font-family="Helvetica,sans-Serif" font-size="10.00">leanux::block::MajorMinor</text>
<text text-anchor="middle" x="752.5" y="-351.5" font-family="Helvetica,sans-Serif" font-size="10.00">::getName</text>
</a>
</g>
</g>
<!-- Node1&#45;&gt;Node37 -->
<g id="edge51" class="edge">
<title>Node1&#45;&gt;Node37</title>
<path fill="none" stroke="midnightblue" d="M104.08,-353.94C224.24,-354.97 525.6,-357.56 670.81,-358.81"/>
<polygon fill="midnightblue" stroke="midnightblue" points="670.96,-362.31 680.99,-358.89 671.02,-355.31 670.96,-362.31"/>
</g>
<!-- Node38 -->
<g id="node27" class="node">
<title>Node38</title>
<g id="a_node27"><a xlink:href="../../d7/d28/classleanux_1_1block_1_1MajorMinor.html#a80d3a92692140016ab3973ace30d65c2" target="_top" xlink:title="get the read&#45;ahead size for the device">
<polygon fill="none" stroke="black" points="498,-245.5 498,-275.5 641,-275.5 641,-245.5 498,-245.5"/>
<text text-anchor="start" x="506" y="-263.5" font-family="Helvetica,sans-Serif" font-size="10.00">leanux::block::MajorMinor</text>
<text text-anchor="middle" x="569.5" y="-252.5" font-family="Helvetica,sans-Serif" font-size="10.00">::getReadAhead</text>
</a>
</g>
</g>
<!-- Node1&#45;&gt;Node38 -->
<g id="edge53" class="edge">
<title>Node1&#45;&gt;Node38</title>
<path fill="none" stroke="midnightblue" d="M90.19,-338.42C105.42,-332.72 123.35,-326.63 140,-322.5 259.31,-292.92 401.03,-275.84 487.86,-267.35"/>
<polygon fill="midnightblue" stroke="midnightblue" points="488.29,-270.82 497.91,-266.38 487.62,-263.86 488.29,-270.82"/>
</g>
<!-- Node39 -->
<g id="node28" class="node">
<title>Node39</title>
<g id="a_node28"><a xlink:href="../../d7/d28/classleanux_1_1block_1_1MajorMinor.html#a89962016f65109842c3941fa188eae95" target="_top" xlink:title="get the device sector size.">
<polygon fill="none" stroke="black" points="498,-98.5 498,-128.5 641,-128.5 641,-98.5 498,-98.5"/>
<text text-anchor="start" x="506" y="-116.5" font-family="Helvetica,sans-Serif" font-size="10.00">leanux::block::MajorMinor</text>
<text text-anchor="middle" x="569.5" y="-105.5" font-family="Helvetica,sans-Serif" font-size="10.00">::getSectorSize</text>
</a>
</g>
</g>
<!-- Node1&#45;&gt;Node39 -->
<g id="edge58" class="edge">
<title>Node1&#45;&gt;Node39</title>
<path fill="none" stroke="midnightblue" d="M57.45,-338.17C67.1,-307.82 92.96,-240.14 140,-206.5 258.9,-121.47 319.42,-171.73 462,-139.5 473.94,-136.8 486.6,-133.82 498.87,-130.86"/>
<polygon fill="midnightblue" stroke="midnightblue" points="499.7,-134.26 508.6,-128.51 498.06,-127.46 499.7,-134.26"/>
</g>
<!-- Node40 -->
<g id="node29" class="node">
<title>Node40</title>
<g id="a_node29"><a xlink:href="../../d7/d28/classleanux_1_1block_1_1MajorMinor.html#ac2eb74dd60914d3e34e73fd0c7125de8" target="_top" xlink:title="Return the size (capacity) of the device in bytes.">
<polygon fill="none" stroke="black" points="498,-49.5 498,-79.5 641,-79.5 641,-49.5 498,-49.5"/>
<text text-anchor="start" x="506" y="-67.5" font-family="Helvetica,sans-Serif" font-size="10.00">leanux::block::MajorMinor</text>
<text text-anchor="middle" x="569.5" y="-56.5" font-family="Helvetica,sans-Serif" font-size="10.00">::getSize</text>
</a>
</g>
</g>
<!-- Node1&#45;&gt;Node40 -->
<g id="edge62" class="edge">
<title>Node1&#45;&gt;Node40</title>
<path fill="none" stroke="midnightblue" d="M54.58,-338.27C59.44,-299.84 77.83,-198.6 140,-150.5 254.49,-61.92 321.7,-137.14 462,-101.5 478.49,-97.31 481.95,-94.13 498,-88.5 503.19,-86.68 508.59,-84.81 514,-82.94"/>
<polygon fill="midnightblue" stroke="midnightblue" points="515.38,-86.17 523.7,-79.61 513.11,-79.55 515.38,-86.17"/>
</g>
<!-- Node41 -->
<g id="node30" class="node">
<title>Node41</title>
<g id="a_node30"><a xlink:href="../../d7/d28/classleanux_1_1block_1_1MajorMinor.html#a742f510de3aea2ec0a1eb112e3ca3c1e" target="_top" xlink:title="return the full device path as it appears under /sys/devices/block">
<polygon fill="none" stroke="black" points="498,-294.5 498,-324.5 641,-324.5 641,-294.5 498,-294.5"/>
<text text-anchor="start" x="506" y="-312.5" font-family="Helvetica,sans-Serif" font-size="10.00">leanux::block::MajorMinor</text>
<text text-anchor="middle" x="569.5" y="-301.5" font-family="Helvetica,sans-Serif" font-size="10.00">::getSysPath</text>
</a>
</g>
</g>
<!-- Node1&#45;&gt;Node41 -->
<g id="edge65" class="edge">
<title>Node1&#45;&gt;Node41</title>
<path fill="none" stroke="midnightblue" d="M104.42,-344.44C116.09,-342.61 128.45,-340.83 140,-339.5 260.67,-325.6 401.25,-317.24 487.55,-313"/>
<polygon fill="midnightblue" stroke="midnightblue" points="487.99,-316.48 497.8,-312.5 487.65,-309.49 487.99,-316.48"/>
</g>
<!-- Node42 -->
<g id="node32" class="node">
<title>Node42</title>
<g id="a_node32"><a xlink:href="../../d7/d28/classleanux_1_1block_1_1MajorMinor.html#a0843f4cee97fda4733b1579fb7544727" target="_top" xlink:title="Get the VG name the block device belongs to, or empty string if the device is not a LVM PV.">
<polygon fill="none" stroke="black" points="319,-767.5 319,-797.5 462,-797.5 462,-767.5 319,-767.5"/>
<text text-anchor="start" x="327" y="-785.5" font-family="Helvetica,sans-Serif" font-size="10.00">leanux::block::MajorMinor</text>
<text text-anchor="middle" x="390.5" y="-774.5" font-family="Helvetica,sans-Serif" font-size="10.00">::getVGName</text>
</a>
</g>
</g>
<!-- Node1&#45;&gt;Node42 -->
<g id="edge70" class="edge">
<title>Node1&#45;&gt;Node42</title>
<path fill="none" stroke="midnightblue" d="M54.02,-368.58C58.8,-434.84 81.38,-699.2 140,-752.5 184.81,-793.24 254.37,-798.62 308.68,-795.01"/>
<polygon fill="midnightblue" stroke="midnightblue" points="309.28,-798.47 318.98,-794.21 308.74,-791.49 309.28,-798.47"/>
</g>
<!-- Node4 -->
<g id="node4" class="node">
<title>Node4</title>
<g id="a_node4"><a xlink:href="../../d7/d28/classleanux_1_1block_1_1MajorMinor.html#a8fa26dbc85f683ed73fcec3a2db42821" target="_top" xlink:title="return the MajorMinor dev_t.">
<polygon fill="none" stroke="black" points="319,-816.5 319,-846.5 462,-846.5 462,-816.5 319,-816.5"/>
<text text-anchor="start" x="327" y="-834.5" font-family="Helvetica,sans-Serif" font-size="10.00">leanux::block::MajorMinor</text>
<text text-anchor="middle" x="390.5" y="-823.5" font-family="Helvetica,sans-Serif" font-size="10.00">::getDevT</text>
</a>
</g>
</g>
<!-- Node3&#45;&gt;Node4 -->
<g id="edge3" class="edge">
<title>Node3&#45;&gt;Node4</title>
<path fill="none" stroke="midnightblue" d="M283.22,-829.1C291.57,-829.29 300.14,-829.48 308.62,-829.67"/>
<polygon fill="midnightblue" stroke="midnightblue" points="308.82,-833.18 318.89,-829.9 308.98,-826.18 308.82,-833.18"/>
</g>
<!-- Node5 -->
<g id="node5" class="node">
<title>Node5</title>
<g id="a_node5"><a xlink:href="../../d7/d28/classleanux_1_1block_1_1MajorMinor.html#a7ef43192321c82d296575f35b69c52d4" target="_top" xlink:title="Get the udev path for the device.">
<polygon fill="none" stroke="black" points="681,-747.5 681,-777.5 824,-777.5 824,-747.5 681,-747.5"/>
<text text-anchor="start" x="689" y="-765.5" font-family="Helvetica,sans-Serif" font-size="10.00">leanux::block::MajorMinor</text>
<text text-anchor="middle" x="752.5" y="-754.5" font-family="Helvetica,sans-Serif" font-size="10.00">::getUDevPath</text>
</a>
</g>
</g>
<!-- Node3&#45;&gt;Node5 -->
<g id="edge4" class="edge">
<title>Node3&#45;&gt;Node5</title>
<path fill="none" stroke="midnightblue" d="M259.17,-842.55C277.6,-847.75 299.09,-852.93 319,-855.5 382.03,-863.65 399.21,-865.34 462,-855.5 551.54,-841.47 651.2,-804.43 707.12,-781.55"/>
<polygon fill="midnightblue" stroke="midnightblue" points="708.8,-784.64 716.71,-777.59 706.13,-778.17 708.8,-784.64"/>
</g>
<!-- Node6 -->
<g id="node6" class="node">
<title>Node6</title>
<g id="a_node6"><a xlink:href="../../d7/d28/classleanux_1_1block_1_1MajorMinor.html#adc3f437e329318ee21bddbbebaeb740e" target="_top" xlink:title="Get the DeviceName for the MajorMinor.">
<polygon fill="none" stroke="red" points="864,-368.5 864,-398.5 1007,-398.5 1007,-368.5 864,-368.5"/>
<text text-anchor="start" x="872" y="-386.5" font-family="Helvetica,sans-Serif" font-size="10.00">leanux::block::MajorMinor</text>
<text text-anchor="middle" x="935.5" y="-375.5" font-family="Helvetica,sans-Serif" font-size="10.00">::getNameByMajorMinor</text>
</a>
</g>
</g>
<!-- Node5&#45;&gt;Node6 -->
<g id="edge5" class="edge">
<title>Node5&#45;&gt;Node6</title>
<path fill="none" stroke="midnightblue" d="M808.08,-747.32C815.49,-743.43 822.44,-738.56 828,-732.5 915.44,-637.14 931.15,-471.8 933.92,-408.84"/>
<polygon fill="midnightblue" stroke="midnightblue" points="937.43,-408.76 934.3,-398.64 930.43,-408.51 937.43,-408.76"/>
</g>
<!-- Node11 -->
<g id="node8" class="node">
<title>Node11</title>
<g id="a_node8"><a xlink:href="../../d7/d28/classleanux_1_1block_1_1MajorMinor.html#ad8b93c3f6fc290008c2025e5e3d42eb5" target="_top" xlink:title="Get the DeviceClass for a MajorMinor.">
<polygon fill="none" stroke="red" points="319,-630.5 319,-660.5 462,-660.5 462,-630.5 319,-630.5"/>
<text text-anchor="start" x="327" y="-648.5" font-family="Helvetica,sans-Serif" font-size="10.00">leanux::block::MajorMinor</text>
<text text-anchor="middle" x="390.5" y="-637.5" font-family="Helvetica,sans-Serif" font-size="10.00">::getClass</text>
</a>
</g>
</g>
<!-- Node10&#45;&gt;Node11 -->
<g id="edge7" class="edge">
<title>Node10&#45;&gt;Node11</title>
<path fill="none" stroke="midnightblue" d="M283.22,-635.89C291.66,-636.66 300.33,-637.44 308.9,-638.21"/>
<polygon fill="midnightblue" stroke="midnightblue" points="308.62,-641.7 318.89,-639.12 309.25,-634.73 308.62,-641.7"/>
</g>
<!-- Node12 -->
<g id="node9" class="node">
<title>Node12</title>
<g id="a_node9"><a xlink:href="../../d7/d28/classleanux_1_1block_1_1MajorMinor.html#a211f6f6595c83289600887d41d394742" target="_top" xlink:title="return the device dm uuid (or an empty string if not a dm device)">
<polygon fill="none" stroke="black" points="498,-606.5 498,-636.5 641,-636.5 641,-606.5 498,-606.5"/>
<text text-anchor="start" x="506" y="-624.5" font-family="Helvetica,sans-Serif" font-size="10.00">leanux::block::MajorMinor</text>
<text text-anchor="middle" x="569.5" y="-613.5" font-family="Helvetica,sans-Serif" font-size="10.00">::getDMUUID</text>
</a>
</g>
</g>
<!-- Node11&#45;&gt;Node12 -->
<g id="edge8" class="edge">
<title>Node11&#45;&gt;Node12</title>
<path fill="none" stroke="midnightblue" d="M462.22,-635.91C470.66,-634.77 479.33,-633.59 487.9,-632.43"/>
<polygon fill="midnightblue" stroke="midnightblue" points="488.46,-635.89 497.89,-631.07 487.51,-628.95 488.46,-635.89"/>
</g>
<!-- Node11&#45;&gt;Node14 -->
<g id="edge11" class="edge">
<title>Node11&#45;&gt;Node14</title>
<path fill="none" stroke="midnightblue" d="M441.52,-660.58C448.53,-663.25 455.54,-666.24 462,-669.5 479.39,-678.28 480.67,-685.61 498,-694.5 502.19,-696.65 506.6,-698.69 511.09,-700.61"/>
<polygon fill="midnightblue" stroke="midnightblue" points="509.79,-703.86 520.37,-704.37 512.42,-697.37 509.79,-703.86"/>
</g>
<!-- Node20 -->
<g id="node12" class="node">
<title>Node20</title>
<g id="a_node12"><a xlink:href="../../d7/d28/classleanux_1_1block_1_1MajorMinor.html#ad5136fe7853cb6f2ca04eadb465976da" target="_top" xlink:title=" ">
<polygon fill="none" stroke="red" points="681,-393.5 681,-423.5 824,-423.5 824,-393.5 681,-393.5"/>
<text text-anchor="start" x="689" y="-411.5" font-family="Helvetica,sans-Serif" font-size="10.00">leanux::block::MajorMinor</text>
<text text-anchor="middle" x="752.5" y="-400.5" font-family="Helvetica,sans-Serif" font-size="10.00">::isPartition</text>
</a>
</g>
</g>
<!-- Node11&#45;&gt;Node20 -->
<g id="edge13" class="edge">
<title>Node11&#45;&gt;Node20</title>
<path fill="none" stroke="midnightblue" d="M392.94,-630.43C398,-587.06 419.14,-461.78 498,-410.5 554.36,-373.85 633.71,-380.22 688.55,-391.33"/>
<polygon fill="midnightblue" stroke="midnightblue" points="687.98,-394.78 698.49,-393.45 689.44,-387.94 687.98,-394.78"/>
</g>
<!-- Node12&#45;&gt;Node6 -->
<g id="edge10" class="edge">
<title>Node12&#45;&gt;Node6</title>
<path fill="none" stroke="midnightblue" d="M617.17,-636.55C635.6,-641.75 657.09,-646.93 677,-649.5 743.56,-658.1 772.42,-687.12 828,-649.5 909.9,-594.07 928.82,-464.31 933.19,-409.1"/>
<polygon fill="midnightblue" stroke="midnightblue" points="936.71,-409.02 933.9,-398.8 929.72,-408.53 936.71,-409.02"/>
</g>
<!-- Node13 -->
<g id="node10" class="node">
<title>Node13</title>
<g id="a_node10"><a xlink:href="../../d8/db1/namespaceleanux_1_1util.html#a57bfd49353610b3d0b6d121b264c676e" target="_top" xlink:title="read the file as a single string.">
<polygon fill="none" stroke="black" points="679.5,-595 679.5,-614 825.5,-614 825.5,-595 679.5,-595"/>
<text text-anchor="middle" x="752.5" y="-602" font-family="Helvetica,sans-Serif" font-size="10.00">leanux::util::fileReadString</text>
</a>
</g>
</g>
<!-- Node12&#45;&gt;Node13 -->
<g id="edge9" class="edge">
<title>Node12&#45;&gt;Node13</title>
<path fill="none" stroke="midnightblue" d="M641.26,-614.85C650.43,-613.99 659.89,-613.1 669.23,-612.23"/>
<polygon fill="midnightblue" stroke="midnightblue" points="669.67,-615.7 679.3,-611.28 669.02,-608.73 669.67,-615.7"/>
</g>
<!-- Node14&#45;&gt;Node5 -->
<g id="edge12" class="edge">
<title>Node14&#45;&gt;Node5</title>
<path fill="none" stroke="midnightblue" d="M633.81,-734.54C648.13,-737.94 663.47,-741.59 678.17,-745.08"/>
<polygon fill="midnightblue" stroke="midnightblue" points="677.69,-748.56 688.23,-747.47 679.31,-741.75 677.69,-748.56"/>
</g>
<!-- Node20&#45;&gt;Node6 -->
<g id="edge14" class="edge">
<title>Node20&#45;&gt;Node6</title>
<path fill="none" stroke="midnightblue" d="M824.26,-398.73C833.9,-397.4 843.85,-396.02 853.65,-394.67"/>
<polygon fill="midnightblue" stroke="midnightblue" points="854.37,-398.1 863.79,-393.27 853.41,-391.17 854.37,-398.1"/>
</g>
<!-- Node24&#45;&gt;Node6 -->
<g id="edge21" class="edge">
<title>Node24&#45;&gt;Node6</title>
<path fill="none" stroke="midnightblue" d="M279.92,-548.5C292.85,-545.92 306.31,-543.46 319,-541.5 544.08,-506.81 622.3,-580.23 828,-482.5 864.96,-464.94 897.81,-429.93 916.94,-406.6"/>
<polygon fill="midnightblue" stroke="midnightblue" points="919.84,-408.59 923.35,-398.59 914.37,-404.21 919.84,-408.59"/>
</g>
<!-- Node24&#45;&gt;Node11 -->
<g id="edge17" class="edge">
<title>Node24&#45;&gt;Node11</title>
<path fill="none" stroke="midnightblue" d="M242.6,-578.71C263.82,-589.31 292.98,-603.62 319,-615.5 327,-619.15 335.57,-622.92 343.88,-626.5"/>
<polygon fill="midnightblue" stroke="midnightblue" points="342.54,-629.73 353.11,-630.44 345.29,-623.29 342.54,-629.73"/>
</g>
<!-- Node24&#45;&gt;Node12 -->
<g id="edge18" class="edge">
<title>Node24&#45;&gt;Node12</title>
<path fill="none" stroke="midnightblue" d="M283.27,-566.29C333.54,-569.24 402.43,-575.27 462,-587.5 480.85,-591.37 501.07,-597.34 518.78,-603.21"/>
<polygon fill="midnightblue" stroke="midnightblue" points="517.73,-606.55 528.33,-606.44 519.98,-599.92 517.73,-606.55"/>
</g>
<!-- Node25 -->
<g id="node15" class="node">
<title>Node25</title>
<g id="a_node15"><a xlink:href="../../d7/d28/classleanux_1_1block_1_1MajorMinor.html#ae38226ce52162353e6fd5d77fd610442" target="_top" xlink:title="Get the device MetaDisk name or empty if the device is not an MetaDisk.">
<polygon fill="none" stroke="black" points="319,-679.5 319,-709.5 462,-709.5 462,-679.5 319,-679.5"/>
<text text-anchor="start" x="327" y="-697.5" font-family="Helvetica,sans-Serif" font-size="10.00">leanux::block::MajorMinor</text>
<text text-anchor="middle" x="390.5" y="-686.5" font-family="Helvetica,sans-Serif" font-size="10.00">::getMDName</text>
</a>
</g>
</g>
<!-- Node24&#45;&gt;Node25 -->
<g id="edge19" class="edge">
<title>Node24&#45;&gt;Node25</title>
<path fill="none" stroke="midnightblue" d="M246.65,-578.57C259.13,-585.24 272.7,-593.98 283,-604.5 306.11,-628.09 293.8,-648.15 319,-669.5 320.99,-671.19 323.11,-672.77 325.32,-674.24"/>
<polygon fill="midnightblue" stroke="midnightblue" points="323.81,-677.41 334.21,-679.43 327.34,-671.37 323.81,-677.41"/>
</g>
<!-- Node26 -->
<g id="node16" class="node">
<title>Node26</title>
<g id="a_node16"><a xlink:href="../../d7/d28/classleanux_1_1block_1_1MajorMinor.html#ac25722522d86fe9a2ecbd2528a15561a" target="_top" xlink:title="Get the serial number for the device.">
<polygon fill="none" stroke="black" points="498,-655.5 498,-685.5 641,-685.5 641,-655.5 498,-655.5"/>
<text text-anchor="start" x="506" y="-673.5" font-family="Helvetica,sans-Serif" font-size="10.00">leanux::block::MajorMinor</text>
<text text-anchor="middle" x="569.5" y="-662.5" font-family="Helvetica,sans-Serif" font-size="10.00">::getSerial</text>
</a>
</g>
</g>
<!-- Node24&#45;&gt;Node26 -->
<g id="edge22" class="edge">
<title>Node24&#45;&gt;Node26</title>
<path fill="none" stroke="midnightblue" d="M278.94,-578.52C352.13,-595.09 459.86,-619.55 462,-620.5 479.82,-628.37 480.67,-636.61 498,-645.5 502.19,-647.65 506.6,-649.69 511.09,-651.61"/>
<polygon fill="midnightblue" stroke="midnightblue" points="509.79,-654.86 520.37,-655.37 512.42,-648.37 509.79,-654.86"/>
</g>
<!-- Node28 -->
<g id="node18" class="node">
<title>Node28</title>
<g id="a_node18"><a xlink:href="../../d7/d28/classleanux_1_1block_1_1MajorMinor.html#aab3feb649c83cb299c1a4175873b3f74" target="_top" xlink:title="Some block devices do not have a WWN, so there is no guarentee a WWN exists.">
<polygon fill="none" stroke="red" points="498,-557.5 498,-587.5 641,-587.5 641,-557.5 498,-557.5"/>
<text text-anchor="start" x="506" y="-575.5" font-family="Helvetica,sans-Serif" font-size="10.00">leanux::block::MajorMinor</text>
<text text-anchor="middle" x="569.5" y="-564.5" font-family="Helvetica,sans-Serif" font-size="10.00">::getWWN</text>
</a>
</g>
</g>
<!-- Node24&#45;&gt;Node28 -->
<g id="edge27" class="edge">
<title>Node24&#45;&gt;Node28</title>
<path fill="none" stroke="midnightblue" d="M283.12,-552.9C295.07,-551.49 307.37,-550.26 319,-549.5 382.42,-545.35 398.8,-542.75 462,-549.5 474.32,-550.81 487.3,-552.96 499.81,-555.43"/>
<polygon fill="midnightblue" stroke="midnightblue" points="499.21,-558.88 509.71,-557.47 500.62,-552.02 499.21,-558.88"/>
</g>
<!-- Node25&#45;&gt;Node5 -->
<g id="edge20" class="edge">
<title>Node25&#45;&gt;Node5</title>
<path fill="none" stroke="midnightblue" d="M417.23,-709.51C438.22,-720.97 469.03,-736.01 498,-743.5 554.46,-758.1 620.18,-762.69 670.56,-763.71"/>
<polygon fill="midnightblue" stroke="midnightblue" points="670.69,-767.22 680.74,-763.88 670.8,-760.22 670.69,-767.22"/>
</g>
<!-- Node26&#45;&gt;Node5 -->
<g id="edge26" class="edge">
<title>Node26&#45;&gt;Node5</title>
<path fill="none" stroke="midnightblue" d="M624.15,-685.65C630.03,-688.21 635.78,-691.15 641,-694.5 660.58,-707.06 657.77,-719.41 677,-732.5 682.73,-736.4 689.05,-739.92 695.5,-743.05"/>
<polygon fill="midnightblue" stroke="midnightblue" points="694.46,-746.42 705.01,-747.37 697.35,-740.05 694.46,-746.42"/>
</g>
<!-- Node26&#45;&gt;Node6 -->
<g id="edge25" class="edge">
<title>Node26&#45;&gt;Node6</title>
<path fill="none" stroke="midnightblue" d="M615.59,-685.61C670.93,-701.13 765.13,-717.39 828,-673.5 916.62,-611.63 931.72,-467.48 934.12,-408.91"/>
<polygon fill="midnightblue" stroke="midnightblue" points="937.63,-408.81 934.45,-398.7 930.63,-408.58 937.63,-408.81"/>
</g>
<!-- Node26&#45;&gt;Node13 -->
<g id="edge24" class="edge">
<title>Node26&#45;&gt;Node13</title>
<path fill="none" stroke="midnightblue" d="M613.41,-655.4C622.53,-652.16 632.09,-648.73 641,-645.5 666.35,-636.3 694.89,-625.71 716.62,-617.59"/>
<polygon fill="midnightblue" stroke="midnightblue" points="717.94,-620.83 726.08,-614.05 715.49,-614.28 717.94,-620.83"/>
</g>
<!-- Node27 -->
<g id="node17" class="node">
<title>Node27</title>
<g id="a_node17"><a xlink:href="../../d8/db1/namespaceleanux_1_1util.html#a6421ca2c46c56eebe1a486c6a498ce7d" target="_top" xlink:title="Test if a file exists and can be read.">
<polygon fill="none" stroke="black" points="677,-557 677,-576 828,-576 828,-557 677,-557"/>
<text text-anchor="middle" x="752.5" y="-564" font-family="Helvetica,sans-Serif" font-size="10.00">leanux::util::fileReadAccess</text>
</a>
</g>
</g>
<!-- Node26&#45;&gt;Node27 -->
<g id="edge23" class="edge">
<title>Node26&#45;&gt;Node27</title>
<path fill="none" stroke="midnightblue" d="M625.3,-655.45C630.91,-652.65 636.28,-649.36 641,-645.5 665.07,-625.81 652.06,-604.07 677,-585.5 679.62,-583.55 682.43,-581.79 685.35,-580.22"/>
<polygon fill="midnightblue" stroke="midnightblue" points="686.83,-583.39 694.43,-576.02 683.89,-577.04 686.83,-583.39"/>
</g>
<!-- Node28&#45;&gt;Node5 -->
<g id="edge30" class="edge">
<title>Node28&#45;&gt;Node5</title>
<path fill="none" stroke="midnightblue" d="M627.07,-587.62C632.04,-590.15 636.77,-593.09 641,-596.5 665.2,-616.04 660.05,-630.43 677,-656.5 695.86,-685.5 718.95,-717.92 734.38,-739.18"/>
<polygon fill="midnightblue" stroke="midnightblue" points="731.57,-741.27 740.29,-747.29 737.23,-737.15 731.57,-741.27"/>
</g>
<!-- Node28&#45;&gt;Node6 -->
<g id="edge29" class="edge">
<title>Node28&#45;&gt;Node6</title>
<path fill="none" stroke="midnightblue" d="M621.01,-587.51C627.87,-590.18 634.71,-593.18 641,-596.5 658.69,-605.84 658.03,-617.18 677,-623.5 740.67,-644.72 771.74,-660.09 828,-623.5 902.94,-574.76 925.56,-459.86 932.05,-408.76"/>
<polygon fill="midnightblue" stroke="midnightblue" points="935.55,-408.93 933.23,-398.59 928.6,-408.12 935.55,-408.93"/>
</g>
<!-- Node28&#45;&gt;Node13 -->
<g id="edge28" class="edge">
<title>Node28&#45;&gt;Node13</title>
<path fill="none" stroke="midnightblue" d="M641.26,-585.01C656.48,-587.7 672.49,-590.53 687.45,-593.18"/>
<polygon fill="midnightblue" stroke="midnightblue" points="687.15,-596.68 697.61,-594.97 688.37,-589.78 687.15,-596.68"/>
</g>
<!-- Node29&#45;&gt;Node6 -->
<g id="edge33" class="edge">
<title>Node29&#45;&gt;Node6</title>
<path fill="none" stroke="midnightblue" d="M641.1,-484.65C694.01,-482.72 767.42,-475.66 828,-453.5 858.32,-442.41 888.67,-421.23 909.17,-405.05"/>
<polygon fill="midnightblue" stroke="midnightblue" points="911.47,-407.7 917.06,-398.69 907.07,-402.25 911.47,-407.7"/>
</g>
<!-- Node29&#45;&gt;Node13 -->
<g id="edge32" class="edge">
<title>Node29&#45;&gt;Node13</title>
<path fill="none" stroke="midnightblue" d="M588.25,-499.64C602.73,-512.16 623.57,-530.57 641,-547.5 657.69,-563.71 656.94,-573.72 677,-585.5 680.69,-587.67 684.62,-589.59 688.68,-591.3"/>
<polygon fill="midnightblue" stroke="midnightblue" points="687.74,-594.68 698.33,-594.89 690.18,-588.12 687.74,-594.68"/>
</g>
<!-- Node30&#45;&gt;Node6 -->
<g id="edge39" class="edge">
<title>Node30&#45;&gt;Node6</title>
<path fill="none" stroke="midnightblue" d="M641.09,-442.52C693.36,-445.84 765.96,-446.47 828,-432.5 853.66,-426.72 880.54,-414.3 900.89,-403.4"/>
<polygon fill="midnightblue" stroke="midnightblue" points="902.66,-406.42 909.74,-398.53 899.29,-400.28 902.66,-406.42"/>
</g>
<!-- Node30&#45;&gt;Node13 -->
<g id="edge38" class="edge">
<title>Node30&#45;&gt;Node13</title>
<path fill="none" stroke="midnightblue" d="M629.77,-450.53C633.89,-453.07 637.7,-456.03 641,-459.5 681.14,-501.7 635.23,-544.91 677,-585.5 678.47,-586.93 680.04,-588.26 681.67,-589.49"/>
<polygon fill="midnightblue" stroke="midnightblue" points="680.08,-592.61 690.43,-594.88 683.75,-586.65 680.08,-592.61"/>
</g>
<!-- Node30&#45;&gt;Node20 -->
<g id="edge40" class="edge">
<title>Node30&#45;&gt;Node20</title>
<path fill="none" stroke="midnightblue" d="M641.26,-424.95C650.9,-423.51 660.85,-422.02 670.65,-420.56"/>
<polygon fill="midnightblue" stroke="midnightblue" points="671.42,-423.98 680.79,-419.05 670.39,-417.06 671.42,-423.98"/>
</g>
<!-- Node30&#45;&gt;Node27 -->
<g id="edge37" class="edge">
<title>Node30&#45;&gt;Node27</title>
<path fill="none" stroke="midnightblue" d="M623.27,-450.56C629.43,-453.16 635.48,-456.13 641,-459.5 681,-483.95 718.11,-525.19 737.48,-548.69"/>
<polygon fill="midnightblue" stroke="midnightblue" points="734.99,-551.18 744,-556.76 740.43,-546.78 734.99,-551.18"/>
</g>
<!-- Node31 -->
<g id="node21" class="node">
<title>Node31</title>
<g id="a_node21"><a xlink:href="../../d7/d28/classleanux_1_1block_1_1MajorMinor.html#a5771b2baf04dd79e61c5bcd3f4ec532c" target="_top" xlink:title="Derive the MajorMinor of the whole disk holding a partition.">
<polygon fill="none" stroke="red" points="681,-256.5 681,-286.5 824,-286.5 824,-256.5 681,-256.5"/>
<text text-anchor="start" x="689" y="-274.5" font-family="Helvetica,sans-Serif" font-size="10.00">leanux::block::MajorMinor</text>
<text text-anchor="middle" x="752.5" y="-263.5" font-family="Helvetica,sans-Serif" font-size="10.00">::deriveWholeDisk</text>
</a>
</g>
</g>
<!-- Node30&#45;&gt;Node31 -->
<g id="edge35" class="edge">
<title>Node30&#45;&gt;Node31</title>
<path fill="none" stroke="midnightblue" d="M580.65,-420.02C602.19,-387.58 652.51,-314 677,-296.5 679.66,-294.6 682.48,-292.83 685.41,-291.19"/>
<polygon fill="midnightblue" stroke="midnightblue" points="687.07,-294.27 694.43,-286.65 683.92,-288.02 687.07,-294.27"/>
</g>
<!-- Node31&#45;&gt;Node6 -->
<g id="edge36" class="edge">
<title>Node31&#45;&gt;Node6</title>
<path fill="none" stroke="midnightblue" d="M806.22,-286.52C813.72,-289.42 821.19,-292.74 828,-296.5 860.06,-314.2 891.94,-341.93 912.34,-361.31"/>
<polygon fill="midnightblue" stroke="midnightblue" points="909.95,-363.86 919.58,-368.29 914.81,-358.83 909.95,-363.86"/>
</g>
<!-- Node33&#45;&gt;Node6 -->
<g id="edge44" class="edge">
<title>Node33&#45;&gt;Node6</title>
<path fill="none" stroke="midnightblue" d="M641.24,-3.08C697.95,2.69 776.32,0.7 828,-41.5 927.04,-122.37 935.69,-293.94 935.26,-358.36"/>
<polygon fill="midnightblue" stroke="midnightblue" points="931.76,-358.37 935.11,-368.43 938.76,-358.48 931.76,-358.37"/>
</g>
<!-- Node34 -->
<g id="node23" class="node">
<title>Node34</title>
<g id="a_node23"><a xlink:href="../../d8/db1/namespaceleanux_1_1util.html#a1e9a1206d94b2f96e8e0c6adc4e4cd12" target="_top" xlink:title="read the first data in the file as a string representation of a unsigned long.">
<polygon fill="none" stroke="black" points="687.5,-104 687.5,-123 817.5,-123 817.5,-104 687.5,-104"/>
<text text-anchor="middle" x="752.5" y="-111" font-family="Helvetica,sans-Serif" font-size="10.00">leanux::util::fileReadUL</text>
</a>
</g>
</g>
<!-- Node33&#45;&gt;Node34 -->
<g id="edge43" class="edge">
<title>Node33&#45;&gt;Node34</title>
<path fill="none" stroke="midnightblue" d="M620.09,-30.54C627.23,-33.23 634.39,-36.23 641,-39.5 674.65,-56.14 710.13,-81.49 731.54,-97.78"/>
<polygon fill="midnightblue" stroke="midnightblue" points="729.49,-100.62 739.55,-103.95 733.77,-95.07 729.49,-100.62"/>
</g>
<!-- Node35&#45;&gt;Node6 -->
<g id="edge47" class="edge">
<title>Node35&#45;&gt;Node6</title>
<path fill="none" stroke="midnightblue" d="M641.06,-198.38C695.64,-191.94 771.23,-191.37 828,-223.5 880.96,-253.47 912.51,-321.93 926.28,-358.84"/>
<polygon fill="midnightblue" stroke="midnightblue" points="923.02,-360.12 929.69,-368.35 929.61,-357.76 923.02,-360.12"/>
</g>
<!-- Node35&#45;&gt;Node34 -->
<g id="edge46" class="edge">
<title>Node35&#45;&gt;Node34</title>
<path fill="none" stroke="midnightblue" d="M618.18,-196.38C625.94,-193.41 633.79,-190.09 641,-186.5 674.28,-169.92 709.61,-145.15 731.12,-129.16"/>
<polygon fill="midnightblue" stroke="midnightblue" points="733.29,-131.91 739.18,-123.1 729.08,-126.31 733.29,-131.91"/>
</g>
<!-- Node36&#45;&gt;Node6 -->
<g id="edge50" class="edge">
<title>Node36&#45;&gt;Node6</title>
<path fill="none" stroke="midnightblue" d="M641.16,-153.82C696.51,-150.7 773.08,-154.87 828,-191.5 887.64,-231.28 917.13,-316.23 928.58,-358.52"/>
<polygon fill="midnightblue" stroke="midnightblue" points="925.22,-359.49 931.11,-368.29 931.99,-357.74 925.22,-359.49"/>
</g>
<!-- Node36&#45;&gt;Node34 -->
<g id="edge49" class="edge">
<title>Node36&#45;&gt;Node34</title>
<path fill="none" stroke="midnightblue" d="M626.28,-147.4C652.12,-140.4 682.4,-132.21 706.72,-125.62"/>
<polygon fill="midnightblue" stroke="midnightblue" points="707.66,-128.99 716.4,-123 705.83,-122.24 707.66,-128.99"/>
</g>
<!-- Node37&#45;&gt;Node6 -->
<g id="edge52" class="edge">
<title>Node37&#45;&gt;Node6</title>
<path fill="none" stroke="midnightblue" d="M824.26,-368.88C833.9,-370.16 843.85,-371.48 853.65,-372.78"/>
<polygon fill="midnightblue" stroke="midnightblue" points="853.42,-376.28 863.79,-374.12 854.34,-369.34 853.42,-376.28"/>
</g>
<!-- Node38&#45;&gt;Node6 -->
<g id="edge56" class="edge">
<title>Node38&#45;&gt;Node6</title>
<path fill="none" stroke="midnightblue" d="M615.01,-245.5C668.51,-230.2 759.63,-213.05 828,-246.5 875.82,-269.9 908.37,-326.28 923.94,-358.95"/>
<polygon fill="midnightblue" stroke="midnightblue" points="920.87,-360.65 928.23,-368.27 927.23,-357.72 920.87,-360.65"/>
</g>
<!-- Node38&#45;&gt;Node20 -->
<g id="edge57" class="edge">
<title>Node38&#45;&gt;Node20</title>
<path fill="none" stroke="midnightblue" d="M629.17,-275.59C633.47,-278.12 637.49,-281.06 641,-284.5 674.45,-317.26 643.48,-350.81 677,-383.5 678.63,-385.09 680.36,-386.57 682.17,-387.96"/>
<polygon fill="midnightblue" stroke="midnightblue" points="680.31,-390.93 690.59,-393.48 684.15,-385.07 680.31,-390.93"/>
</g>
<!-- Node38&#45;&gt;Node31 -->
<g id="edge54" class="edge">
<title>Node38&#45;&gt;Node31</title>
<path fill="none" stroke="midnightblue" d="M641.26,-264.8C650.9,-265.39 660.85,-265.99 670.65,-266.59"/>
<polygon fill="midnightblue" stroke="midnightblue" points="670.6,-270.09 680.79,-267.2 671.02,-263.1 670.6,-270.09"/>
</g>
<!-- Node38&#45;&gt;Node34 -->
<g id="edge55" class="edge">
<title>Node38&#45;&gt;Node34</title>
<path fill="none" stroke="midnightblue" d="M622.38,-245.47C628.89,-242.62 635.27,-239.32 641,-235.5 683.97,-206.87 721.33,-157.87 739.6,-131.53"/>
<polygon fill="midnightblue" stroke="midnightblue" points="742.51,-133.46 745.24,-123.22 736.72,-129.53 742.51,-133.46"/>
</g>
<!-- Node39&#45;&gt;Node6 -->
<g id="edge61" class="edge">
<title>Node39&#45;&gt;Node6</title>
<path fill="none" stroke="midnightblue" d="M641.11,-98.55C706.8,-86.35 798.81,-74.15 828,-94.5 916.39,-156.13 931.62,-299.8 934.09,-358.17"/>
<polygon fill="midnightblue" stroke="midnightblue" points="930.6,-358.47 934.43,-368.35 937.6,-358.24 930.6,-358.47"/>
</g>
<!-- Node39&#45;&gt;Node31 -->
<g id="edge59" class="edge">
<title>Node39&#45;&gt;Node31</title>
<path fill="none" stroke="midnightblue" d="M625.11,-128.63C630.7,-131.18 636.11,-134.12 641,-137.5 683.75,-167.04 719.02,-217.54 737.51,-247.39"/>
<polygon fill="midnightblue" stroke="midnightblue" points="734.73,-249.56 742.91,-256.3 740.72,-245.94 734.73,-249.56"/>
</g>
<!-- Node39&#45;&gt;Node34 -->
<g id="edge60" class="edge">
<title>Node39&#45;&gt;Node34</title>
<path fill="none" stroke="midnightblue" d="M641.26,-113.5C652.99,-113.5 665.19,-113.5 677.01,-113.5"/>
<polygon fill="midnightblue" stroke="midnightblue" points="677.28,-117 687.28,-113.5 677.28,-110 677.28,-117"/>
</g>
<!-- Node40&#45;&gt;Node6 -->
<g id="edge64" class="edge">
<title>Node40&#45;&gt;Node6</title>
<path fill="none" stroke="midnightblue" d="M639.67,-49.49C696.01,-41.44 774.68,-40.18 828,-80.5 918.02,-148.57 932.27,-298.41 934.29,-358.17"/>
<polygon fill="midnightblue" stroke="midnightblue" points="930.79,-358.33 934.54,-368.24 937.79,-358.15 930.79,-358.33"/>
</g>
<!-- Node40&#45;&gt;Node34 -->
<g id="edge63" class="edge">
<title>Node40&#45;&gt;Node34</title>
<path fill="none" stroke="midnightblue" d="M626.28,-79.6C652.12,-86.6 682.4,-94.79 706.72,-101.38"/>
<polygon fill="midnightblue" stroke="midnightblue" points="705.83,-104.76 716.4,-104 707.66,-98.01 705.83,-104.76"/>
</g>
<!-- Node41&#45;&gt;Node20 -->
<g id="edge68" class="edge">
<title>Node41&#45;&gt;Node20</title>
<path fill="none" stroke="midnightblue" d="M588.72,-324.58C609.16,-340.9 643.8,-366.82 677,-383.5 681.34,-385.68 685.92,-387.74 690.58,-389.67"/>
<polygon fill="midnightblue" stroke="midnightblue" points="689.63,-393.06 700.22,-393.44 692.18,-386.54 689.63,-393.06"/>
</g>
<!-- Node41&#45;&gt;Node31 -->
<g id="edge66" class="edge">
<title>Node41&#45;&gt;Node31</title>
<path fill="none" stroke="midnightblue" d="M641.26,-294.64C651,-292.6 661.06,-290.49 670.96,-288.41"/>
<polygon fill="midnightblue" stroke="midnightblue" points="671.72,-291.82 680.79,-286.34 670.29,-284.97 671.72,-291.82"/>
</g>
<!-- Node41&#45;&gt;Node37 -->
<g id="edge67" class="edge">
<title>Node41&#45;&gt;Node37</title>
<path fill="none" stroke="midnightblue" d="M624.81,-324.5C644.4,-329.92 666.71,-336.08 687.09,-341.71"/>
<polygon fill="midnightblue" stroke="midnightblue" points="686.35,-345.13 696.92,-344.42 688.21,-338.39 686.35,-345.13"/>
</g>
<!-- Node9 -->
<g id="node31" class="node">
<title>Node9</title>
<g id="a_node31"><a xlink:href="../../d8/db1/namespaceleanux_1_1util.html#a9ae898fe02934e4905ef4665c2871158" target="_top" xlink:title="Convert a path on a filesystem to the realpath if the path is a link.">
<polygon fill="none" stroke="black" points="694,-306 694,-325 811,-325 811,-306 694,-306"/>
<text text-anchor="middle" x="752.5" y="-313" font-family="Helvetica,sans-Serif" font-size="10.00">leanux::util::realPath</text>
</a>
</g>
</g>
<!-- Node41&#45;&gt;Node9 -->
<g id="edge69" class="edge">
<title>Node41&#45;&gt;Node9</title>
<path fill="none" stroke="midnightblue" d="M641.26,-311.85C655.16,-312.31 669.72,-312.79 683.53,-313.25"/>
<polygon fill="midnightblue" stroke="midnightblue" points="683.82,-316.76 693.93,-313.59 684.05,-309.76 683.82,-316.76"/>
</g>
<!-- Node42&#45;&gt;Node5 -->
<g id="edge71" class="edge">
<title>Node42&#45;&gt;Node5</title>
<path fill="none" stroke="midnightblue" d="M462.05,-783.24C512.07,-783.24 580.74,-782.18 641,-777.5 650.7,-776.75 660.85,-775.71 670.9,-774.53"/>
<polygon fill="midnightblue" stroke="midnightblue" points="671.39,-778 680.89,-773.31 670.54,-771.05 671.39,-778"/>
</g>
</g>
</svg>
