<?xml version="1.0" encoding="UTF-8" standalone="no"?>
<!DOCTYPE svg PUBLIC "-//W3C//DTD SVG 1.1//EN"
 "http://www.w3.org/Graphics/SVG/1.1/DTD/svg11.dtd">
<!-- Generated by graphviz version 2.43.0 (0)
 -->
<!-- Title: leanux::tools::lblk::printSlaveTree Pages: 1 -->
<svg width="392pt" height="127pt"
 viewBox="0.00 0.00 392.00 127.00" xmlns="http://www.w3.org/2000/svg" xmlns:xlink="http://www.w3.org/1999/xlink">
<g id="graph0" class="graph" transform="scale(1 1) rotate(0) translate(4 123)">
<title>leanux::tools::lblk::printSlaveTree</title>
<!-- Node1 -->
<g id="node1" class="node">
<title>Node1</title>
<g id="a_node1"><a xlink:title="Write the tree of slaves beneath and including mm, append to tab, starting with level.">
<polygon fill="#bfbfbf" stroke="black" points="280,-44.5 280,-74.5 384,-74.5 384,-44.5 280,-44.5"/>
<text text-anchor="start" x="288" y="-62.5" font-family="Helvetica,sans-Serif" font-size="10.00">leanux::tools::lblk</text>
<text text-anchor="middle" x="332" y="-51.5" font-family="Helvetica,sans-Serif" font-size="10.00">::printSlaveTree</text>
</a>
</g>
</g>
<!-- Node2 -->
<g id="node2" class="node">
<title>Node2</title>
<g id="a_node2"><a xlink:href="../../d5/d1b/namespaceleanux_1_1tools_1_1lblk.html#ae7d5c6185a714de483a152b1846eadcb" target="_top" xlink:title="Table listing all storage needed for the filesystem containing file.">
<polygon fill="none" stroke="black" points="140,-88.5 140,-118.5 244,-118.5 244,-88.5 140,-88.5"/>
<text text-anchor="start" x="148" y="-106.5" font-family="Helvetica,sans-Serif" font-size="10.00">leanux::tools::lblk</text>
<text text-anchor="middle" x="192" y="-95.5" font-family="Helvetica,sans-Serif" font-size="10.00">::listFile</text>
</a>
</g>
</g>
<!-- Node1&#45;&gt;Node2 -->
<g id="edge1" class="edge">
<title>Node1&#45;&gt;Node2</title>
<path fill="none" stroke="midnightblue" d="M274.16,-77.62C262.93,-81.2 251.25,-84.93 240.36,-88.4"/>
<polygon fill="midnightblue" stroke="midnightblue" points="275.43,-80.89 283.89,-74.52 273.3,-74.22 275.43,-80.89"/>
</g>
<!-- Node3 -->
<g id="node3" class="node">
<title>Node3</title>
<g id="a_node3"><a xlink:href="../../d5/d1b/namespaceleanux_1_1tools_1_1lblk.html#aafee1346a1081bfa4f7470f921cd66b8" target="_top" xlink:title="Direct output run from options.">
<polygon fill="none" stroke="red" points="0,-44.5 0,-74.5 104,-74.5 104,-44.5 0,-44.5"/>
<text text-anchor="start" x="8" y="-62.5" font-family="Helvetica,sans-Serif" font-size="10.00">leanux::tools::lblk</text>
<text text-anchor="middle" x="52" y="-51.5" font-family="Helvetica,sans-Serif" font-size="10.00">::runOptions</text>
</a>
</g>
</g>
<!-- Node1&#45;&gt;Node3 -->
<g id="edge5" class="edge">
<title>Node1&#45;&gt;Node3</title>
<path fill="none" stroke="midnightblue" d="M269.39,-59.5C219.7,-59.5 150.64,-59.5 104.01,-59.5"/>
<polygon fill="midnightblue" stroke="midnightblue" points="269.69,-63 279.69,-59.5 269.69,-56 269.69,-63"/>
</g>
<!-- Node6 -->
<g id="node4" class="node">
<title>Node6</title>
<g id="a_node4"><a xlink:href="../../d5/d1b/namespaceleanux_1_1tools_1_1lblk.html#a3ad2e43162ca1213c491e96d5d2a5a9c" target="_top" xlink:title="Table listing LVM devices.">
<polygon fill="none" stroke="black" points="140,-0.5 140,-30.5 244,-30.5 244,-0.5 140,-0.5"/>
<text text-anchor="start" x="148" y="-18.5" font-family="Helvetica,sans-Serif" font-size="10.00">leanux::tools::lblk</text>
<text text-anchor="middle" x="192" y="-7.5" font-family="Helvetica,sans-Serif" font-size="10.00">::listLVM</text>
</a>
</g>
</g>
<!-- Node1&#45;&gt;Node6 -->
<g id="edge3" class="edge">
<title>Node1&#45;&gt;Node6</title>
<path fill="none" stroke="midnightblue" d="M274.16,-41.38C262.93,-37.8 251.25,-34.07 240.36,-30.6"/>
<polygon fill="midnightblue" stroke="midnightblue" points="273.3,-44.78 283.89,-44.48 275.43,-38.11 273.3,-44.78"/>
</g>
<!-- Node2&#45;&gt;Node3 -->
<g id="edge2" class="edge">
<title>Node2&#45;&gt;Node3</title>
<path fill="none" stroke="midnightblue" d="M134.16,-85.38C122.93,-81.8 111.25,-78.07 100.36,-74.6"/>
<polygon fill="midnightblue" stroke="midnightblue" points="133.3,-88.78 143.89,-88.48 135.43,-82.11 133.3,-88.78"/>
</g>
<!-- Node6&#45;&gt;Node3 -->
<g id="edge4" class="edge">
<title>Node6&#45;&gt;Node3</title>
<path fill="none" stroke="midnightblue" d="M134.16,-33.62C122.93,-37.2 111.25,-40.93 100.36,-44.4"/>
<polygon fill="midnightblue" stroke="midnightblue" points="135.43,-36.89 143.89,-30.52 133.3,-30.22 135.43,-36.89"/>
</g>
</g>
</svg>
