<?xml version="1.0" encoding="UTF-8" standalone="no"?>
<!DOCTYPE svg PUBLIC "-//W3C//DTD SVG 1.1//EN"
 "http://www.w3.org/Graphics/SVG/1.1/DTD/svg11.dtd">
<!-- Generated by graphviz version 2.43.0 (0)
 -->
<!-- Title: leanux::tools::lblk::parseDeviceArg Pages: 1 -->
<svg width="623pt" height="127pt"
 viewBox="0.00 0.00 623.00 127.00" xmlns="http://www.w3.org/2000/svg" xmlns:xlink="http://www.w3.org/1999/xlink">
<g id="graph0" class="graph" transform="scale(1 1) rotate(0) translate(4 123)">
<title>leanux::tools::lblk::parseDeviceArg</title>
<!-- Node1 -->
<g id="node1" class="node">
<title>Node1</title>
<g id="a_node1"><a xlink:title="do smart things with user input for device name so that we are not overly picky in user specified dev...">
<polygon fill="#bfbfbf" stroke="black" points="0,-44.5 0,-74.5 104,-74.5 104,-44.5 0,-44.5"/>
<text text-anchor="start" x="8" y="-62.5" font-family="Helvetica,sans-Serif" font-size="10.00">leanux::tools::lblk</text>
<text text-anchor="middle" x="52" y="-51.5" font-family="Helvetica,sans-Serif" font-size="10.00">::parseDeviceArg</text>
</a>
</g>
</g>
<!-- Node2 -->
<g id="node2" class="node">
<title>Node2</title>
<g id="a_node2"><a xlink:href="../../d7/d28/classleanux_1_1block_1_1MajorMinor.html#a3f7315088bb27e09449e3c2542b65958" target="_top" xlink:title="Get the MajorMinor for the device name.">
<polygon fill="none" stroke="black" points="140,-88.5 140,-118.5 283,-118.5 283,-88.5 140,-88.5"/>
<text text-anchor="start" x="148" y="-106.5" font-family="Helvetica,sans-Serif" font-size="10.00">leanux::block::MajorMinor</text>
<text text-anchor="middle" x="211.5" y="-95.5" font-family="Helvetica,sans-Serif" font-size="10.00">::getMajorMinorByName</text>
</a>
</g>
</g>
<!-- Node1&#45;&gt;Node2 -->
<g id="edge1" class="edge">
<title>Node1&#45;&gt;Node2</title>
<path fill="none" stroke="midnightblue" d="M104.14,-73.79C117.78,-77.6 132.7,-81.76 146.92,-85.74"/>
<polygon fill="midnightblue" stroke="midnightblue" points="146.07,-89.13 156.64,-88.45 147.95,-82.39 146.07,-89.13"/>
</g>
<!-- Node5 -->
<g id="node4" class="node">
<title>Node5</title>
<g id="a_node4"><a xlink:href="../../d8/db1/namespaceleanux_1_1util.html#a9ae898fe02934e4905ef4665c2871158" target="_top" xlink:title="Convert a path on a filesystem to the realpath if the path is a link.">
<polygon fill="none" stroke="black" points="498,-72 498,-91 615,-91 615,-72 498,-72"/>
<text text-anchor="middle" x="556.5" y="-79" font-family="Helvetica,sans-Serif" font-size="10.00">leanux::util::realPath</text>
</a>
</g>
</g>
<!-- Node1&#45;&gt;Node5 -->
<g id="edge5" class="edge">
<title>Node1&#45;&gt;Node5</title>
<path fill="none" stroke="midnightblue" d="M104.41,-61.75C195.59,-65.74 385.55,-74.06 487.44,-78.52"/>
<polygon fill="midnightblue" stroke="midnightblue" points="487.48,-82.03 497.62,-78.97 487.79,-75.03 487.48,-82.03"/>
</g>
<!-- Node6 -->
<g id="node5" class="node">
<title>Node6</title>
<g id="a_node5"><a xlink:href="../../d7/d28/classleanux_1_1block_1_1MajorMinor.html#a26905a16bdd3e525abb2ada713f80704" target="_top" xlink:title="Test MajorMinor validity.">
<polygon fill="none" stroke="black" points="140,-0.5 140,-30.5 283,-30.5 283,-0.5 140,-0.5"/>
<text text-anchor="start" x="148" y="-18.5" font-family="Helvetica,sans-Serif" font-size="10.00">leanux::block::MajorMinor</text>
<text text-anchor="middle" x="211.5" y="-7.5" font-family="Helvetica,sans-Serif" font-size="10.00">::isValid</text>
</a>
</g>
</g>
<!-- Node1&#45;&gt;Node6 -->
<g id="edge4" class="edge">
<title>Node1&#45;&gt;Node6</title>
<path fill="none" stroke="midnightblue" d="M104.14,-45.21C117.78,-41.4 132.7,-37.24 146.92,-33.26"/>
<polygon fill="midnightblue" stroke="midnightblue" points="147.95,-36.61 156.64,-30.55 146.07,-29.87 147.95,-36.61"/>
</g>
<!-- Node3 -->
<g id="node3" class="node">
<title>Node3</title>
<g id="a_node3"><a xlink:href="../../d7/d28/classleanux_1_1block_1_1MajorMinor.html#a4d83c063088eb618533f31e2cc78b2f3" target="_top" xlink:title="(re)build the cached mapping between device names and MajorMinor numbers.">
<polygon fill="none" stroke="red" points="319,-88.5 319,-118.5 462,-118.5 462,-88.5 319,-88.5"/>
<text text-anchor="start" x="327" y="-106.5" font-family="Helvetica,sans-Serif" font-size="10.00">leanux::block::MajorMinor</text>
<text text-anchor="middle" x="390.5" y="-95.5" font-family="Helvetica,sans-Serif" font-size="10.00">::buildCache</text>
</a>
</g>
</g>
<!-- Node2&#45;&gt;Node3 -->
<g id="edge2" class="edge">
<title>Node2&#45;&gt;Node3</title>
<path fill="none" stroke="midnightblue" d="M283.22,-103.5C291.57,-103.5 300.14,-103.5 308.62,-103.5"/>
<polygon fill="midnightblue" stroke="midnightblue" points="308.89,-107 318.89,-103.5 308.89,-100 308.89,-107"/>
</g>
<!-- Node3&#45;&gt;Node5 -->
<g id="edge3" class="edge">
<title>Node3&#45;&gt;Node5</title>
<path fill="none" stroke="midnightblue" d="M462,-94.04C470.61,-92.89 479.4,-91.71 487.96,-90.56"/>
<polygon fill="midnightblue" stroke="midnightblue" points="488.45,-94.03 497.9,-89.23 487.52,-87.09 488.45,-94.03"/>
</g>
</g>
</svg>
