<?xml version="1.0" encoding="UTF-8" standalone="no"?>
<!DOCTYPE svg PUBLIC "-//W3C//DTD SVG 1.1//EN"
 "http://www.w3.org/Graphics/SVG/1.1/DTD/svg11.dtd">
<!-- Generated by graphviz version 2.43.0 (0)
 -->
<!-- Title: leanux::tools::lblk::detailGenericBlockDevice Pages: 1 -->
<svg width="515pt" height="88pt"
 viewBox="0.00 0.00 515.00 88.00" xmlns="http://www.w3.org/2000/svg" xmlns:xlink="http://www.w3.org/1999/xlink">
<g id="graph0" class="graph" transform="scale(1 1) rotate(0) translate(4 84)">
<title>leanux::tools::lblk::detailGenericBlockDevice</title>
<!-- Node1 -->
<g id="node1" class="node">
<title>Node1</title>
<g id="a_node1"><a xlink:title="Write generic block device details.">
<polygon fill="#bfbfbf" stroke="black" points="0,-24.5 0,-54.5 149,-54.5 149,-24.5 0,-24.5"/>
<text text-anchor="start" x="8" y="-42.5" font-family="Helvetica,sans-Serif" font-size="10.00">leanux::tools::lblk</text>
<text text-anchor="middle" x="74.5" y="-31.5" font-family="Helvetica,sans-Serif" font-size="10.00">::detailGenericBlockDevice</text>
</a>
</g>
</g>
<!-- Node2 -->
<g id="node2" class="node">
<title>Node2</title>
<g id="a_node2"><a xlink:href="../../d7/d28/classleanux_1_1block_1_1MajorMinor.html#a0262599b45d4425a1841853e830a7c46" target="_top" xlink:title="Get a descriptive string for the device type of the MajorMinor.">
<polygon fill="none" stroke="black" points="185,-49.5 185,-79.5 328,-79.5 328,-49.5 185,-49.5"/>
<text text-anchor="start" x="193" y="-67.5" font-family="Helvetica,sans-Serif" font-size="10.00">leanux::block::MajorMinor</text>
<text text-anchor="middle" x="256.5" y="-56.5" font-family="Helvetica,sans-Serif" font-size="10.00">::getClassStr</text>
</a>
</g>
</g>
<!-- Node1&#45;&gt;Node2 -->
<g id="edge1" class="edge">
<title>Node1&#45;&gt;Node2</title>
<path fill="none" stroke="midnightblue" d="M149.23,-49.74C157.68,-50.91 166.32,-52.11 174.85,-53.3"/>
<polygon fill="midnightblue" stroke="midnightblue" points="174.4,-56.77 184.79,-54.68 175.36,-49.84 174.4,-56.77"/>
</g>
<!-- Node20 -->
<g id="node4" class="node">
<title>Node20</title>
<g id="a_node4"><a xlink:href="../../d7/d28/classleanux_1_1block_1_1MajorMinor.html#a08c4dd48259318cfd77067e866e05e84" target="_top" xlink:title="get the device name for this MajorMinor.">
<polygon fill="none" stroke="black" points="185,-0.5 185,-30.5 328,-30.5 328,-0.5 185,-0.5"/>
<text text-anchor="start" x="193" y="-18.5" font-family="Helvetica,sans-Serif" font-size="10.00">leanux::block::MajorMinor</text>
<text text-anchor="middle" x="256.5" y="-7.5" font-family="Helvetica,sans-Serif" font-size="10.00">::getName</text>
</a>
</g>
</g>
<!-- Node1&#45;&gt;Node20 -->
<g id="edge3" class="edge">
<title>Node1&#45;&gt;Node20</title>
<path fill="none" stroke="midnightblue" d="M149.23,-29.67C157.68,-28.54 166.32,-27.39 174.85,-26.25"/>
<polygon fill="midnightblue" stroke="midnightblue" points="175.34,-29.72 184.79,-24.93 174.41,-22.78 175.34,-29.72"/>
</g>
<!-- Node3 -->
<g id="node3" class="node">
<title>Node3</title>
<g id="a_node3"><a xlink:href="../../d7/d28/classleanux_1_1block_1_1MajorMinor.html#ad8b93c3f6fc290008c2025e5e3d42eb5" target="_top" xlink:title="Get the DeviceClass for a MajorMinor.">
<polygon fill="none" stroke="red" points="364,-49.5 364,-79.5 507,-79.5 507,-49.5 364,-49.5"/>
<text text-anchor="start" x="372" y="-67.5" font-family="Helvetica,sans-Serif" font-size="10.00">leanux::block::MajorMinor</text>
<text text-anchor="middle" x="435.5" y="-56.5" font-family="Helvetica,sans-Serif" font-size="10.00">::getClass</text>
</a>
</g>
</g>
<!-- Node2&#45;&gt;Node3 -->
<g id="edge2" class="edge">
<title>Node2&#45;&gt;Node3</title>
<path fill="none" stroke="midnightblue" d="M328.22,-64.5C336.57,-64.5 345.14,-64.5 353.62,-64.5"/>
<polygon fill="midnightblue" stroke="midnightblue" points="353.89,-68 363.89,-64.5 353.89,-61 353.89,-68"/>
</g>
<!-- Node6 -->
<g id="node5" class="node">
<title>Node6</title>
<g id="a_node5"><a xlink:href="../../d7/d28/classleanux_1_1block_1_1MajorMinor.html#adc3f437e329318ee21bddbbebaeb740e" target="_top" xlink:title="Get the DeviceName for the MajorMinor.">
<polygon fill="none" stroke="red" points="364,-0.5 364,-30.5 507,-30.5 507,-0.5 364,-0.5"/>
<text text-anchor="start" x="372" y="-18.5" font-family="Helvetica,sans-Serif" font-size="10.00">leanux::block::MajorMinor</text>
<text text-anchor="middle" x="435.5" y="-7.5" font-family="Helvetica,sans-Serif" font-size="10.00">::getNameByMajorMinor</text>
</a>
</g>
</g>
<!-- Node20&#45;&gt;Node6 -->
<g id="edge4" class="edge">
<title>Node20&#45;&gt;Node6</title>
<path fill="none" stroke="midnightblue" d="M328.22,-15.5C336.57,-15.5 345.14,-15.5 353.62,-15.5"/>
<polygon fill="midnightblue" stroke="midnightblue" points="353.89,-19 363.89,-15.5 353.89,-12 353.89,-19"/>
</g>
</g>
</svg>
