<?xml version="1.0" encoding="UTF-8" standalone="no"?>
<!DOCTYPE svg PUBLIC "-//W3C//DTD SVG 1.1//EN"
 "http://www.w3.org/Graphics/SVG/1.1/DTD/svg11.dtd">
<!-- Generated by graphviz version 2.43.0 (0)
 -->
<!-- Title: leanux::tools::lblk::listFile Pages: 1 -->
<svg width="828pt" height="291pt"
 viewBox="0.00 0.00 828.00 291.17" xmlns="http://www.w3.org/2000/svg" xmlns:xlink="http://www.w3.org/1999/xlink">
<g id="graph0" class="graph" transform="scale(1 1) rotate(0) translate(4 287.17)">
<title>leanux::tools::lblk::listFile</title>
<!-- Node1 -->
<g id="node1" class="node">
<title>Node1</title>
<g id="a_node1"><a xlink:title="Table listing all storage needed for the filesystem containing file.">
<polygon fill="#bfbfbf" stroke="black" points="0,-214 0,-244 104,-244 104,-214 0,-214"/>
<text text-anchor="start" x="8" y="-232" font-family="Helvetica,sans-Serif" font-size="10.00">leanux::tools::lblk</text>
<text text-anchor="middle" x="52" y="-221" font-family="Helvetica,sans-Serif" font-size="10.00">::listFile</text>
</a>
</g>
</g>
<!-- Node2 -->
<g id="node2" class="node">
<title>Node2</title>
<g id="a_node2"><a xlink:href="../../d7/d28/classleanux_1_1block_1_1MajorMinor.html#adc3f437e329318ee21bddbbebaeb740e" target="_top" xlink:title="Get the DeviceName for the MajorMinor.">
<polygon fill="none" stroke="black" points="498,-164 498,-194 641,-194 641,-164 498,-164"/>
<text text-anchor="start" x="506" y="-182" font-family="Helvetica,sans-Serif" font-size="10.00">leanux::block::MajorMinor</text>
<text text-anchor="middle" x="569.5" y="-171" font-family="Helvetica,sans-Serif" font-size="10.00">::getNameByMajorMinor</text>
</a>
</g>
</g>
<!-- Node1&#45;&gt;Node2 -->
<g id="edge1" class="edge">
<title>Node1&#45;&gt;Node2</title>
<path fill="none" stroke="midnightblue" d="M96.84,-244.03C173.33,-267.78 335.11,-307.02 462,-263 496.92,-250.89 529.05,-222.05 548.69,-201.55"/>
<polygon fill="midnightblue" stroke="midnightblue" points="551.33,-203.86 555.58,-194.16 546.2,-199.09 551.33,-203.86"/>
</g>
<!-- Node6 -->
<g id="node4" class="node">
<title>Node6</title>
<g id="a_node4"><a xlink:href="../../d7/d28/classleanux_1_1block_1_1MajorMinor.html#a26905a16bdd3e525abb2ada713f80704" target="_top" xlink:title="Test MajorMinor validity.">
<polygon fill="none" stroke="black" points="140,-214 140,-244 283,-244 283,-214 140,-214"/>
<text text-anchor="start" x="148" y="-232" font-family="Helvetica,sans-Serif" font-size="10.00">leanux::block::MajorMinor</text>
<text text-anchor="middle" x="211.5" y="-221" font-family="Helvetica,sans-Serif" font-size="10.00">::isValid</text>
</a>
</g>
</g>
<!-- Node1&#45;&gt;Node6 -->
<g id="edge3" class="edge">
<title>Node1&#45;&gt;Node6</title>
<path fill="none" stroke="midnightblue" d="M104.14,-229C112.33,-229 120.99,-229 129.68,-229"/>
<polygon fill="midnightblue" stroke="midnightblue" points="129.87,-232.5 139.87,-229 129.87,-225.5 129.87,-232.5"/>
</g>
<!-- Node7 -->
<g id="node5" class="node">
<title>Node7</title>
<g id="a_node5"><a xlink:href="../../d5/d1b/namespaceleanux_1_1tools_1_1lblk.html#a514a93d2172ba20b92f77ba1062d822c" target="_top" xlink:title="Write the tree of slaves beneath and including mm, append to tab, starting with level.">
<polygon fill="none" stroke="black" points="159.5,-140 159.5,-170 263.5,-170 263.5,-140 159.5,-140"/>
<text text-anchor="start" x="167.5" y="-158" font-family="Helvetica,sans-Serif" font-size="10.00">leanux::tools::lblk</text>
<text text-anchor="middle" x="211.5" y="-147" font-family="Helvetica,sans-Serif" font-size="10.00">::printSlaveTree</text>
</a>
</g>
</g>
<!-- Node1&#45;&gt;Node7 -->
<g id="edge4" class="edge">
<title>Node1&#45;&gt;Node7</title>
<path fill="none" stroke="midnightblue" d="M85.25,-213.85C109.54,-202.44 143.02,-186.71 169.25,-174.38"/>
<polygon fill="midnightblue" stroke="midnightblue" points="171,-177.43 178.56,-170.01 168.02,-171.09 171,-177.43"/>
</g>
<!-- Node3 -->
<g id="node3" class="node">
<title>Node3</title>
<g id="a_node3"><a xlink:href="../../d7/d28/classleanux_1_1block_1_1MajorMinor.html#a4d83c063088eb618533f31e2cc78b2f3" target="_top" xlink:title="(re)build the cached mapping between device names and MajorMinor numbers.">
<polygon fill="none" stroke="red" points="677,-139 677,-169 820,-169 820,-139 677,-139"/>
<text text-anchor="start" x="685" y="-157" font-family="Helvetica,sans-Serif" font-size="10.00">leanux::block::MajorMinor</text>
<text text-anchor="middle" x="748.5" y="-146" font-family="Helvetica,sans-Serif" font-size="10.00">::buildCache</text>
</a>
</g>
</g>
<!-- Node2&#45;&gt;Node3 -->
<g id="edge2" class="edge">
<title>Node2&#45;&gt;Node3</title>
<path fill="none" stroke="midnightblue" d="M641.22,-169.01C649.66,-167.82 658.33,-166.59 666.9,-165.38"/>
<polygon fill="midnightblue" stroke="midnightblue" points="667.48,-168.84 676.89,-163.97 666.5,-161.91 667.48,-168.84"/>
</g>
<!-- Node7&#45;&gt;Node2 -->
<g id="edge13" class="edge">
<title>Node7&#45;&gt;Node2</title>
<path fill="none" stroke="midnightblue" d="M236.15,-170.19C250.23,-179.62 268.18,-192.31 283,-205 300.43,-219.92 297.86,-233.07 319,-242 377.55,-266.72 400.7,-258.77 462,-242 491.55,-233.91 521.23,-215.28 541.73,-200.37"/>
<polygon fill="midnightblue" stroke="midnightblue" points="544,-203.03 549.92,-194.24 539.81,-197.43 544,-203.03"/>
</g>
<!-- Node8 -->
<g id="node6" class="node">
<title>Node8</title>
<g id="a_node6"><a xlink:href="../../d8/db1/namespaceleanux_1_1util.html#a979843e3d99f053101f902ec38985833" target="_top" xlink:title="convert a byte value to pretty print string.">
<polygon fill="none" stroke="black" points="334,-213.5 334,-232.5 447,-232.5 447,-213.5 334,-213.5"/>
<text text-anchor="middle" x="390.5" y="-220.5" font-family="Helvetica,sans-Serif" font-size="10.00">leanux::util::ByteStr</text>
</a>
</g>
</g>
<!-- Node7&#45;&gt;Node8 -->
<g id="edge5" class="edge">
<title>Node7&#45;&gt;Node8</title>
<path fill="none" stroke="midnightblue" d="M241.78,-170.09C262.87,-180.56 292.21,-194.3 319,-204 325.49,-206.35 332.4,-208.56 339.27,-210.58"/>
<polygon fill="midnightblue" stroke="midnightblue" points="338.67,-214.04 349.24,-213.4 340.57,-207.31 338.67,-214.04"/>
</g>
<!-- Node9 -->
<g id="node7" class="node">
<title>Node9</title>
<g id="a_node7"><a xlink:href="../../d7/d28/classleanux_1_1block_1_1MajorMinor.html#a5771b2baf04dd79e61c5bcd3f4ec532c" target="_top" xlink:title="Derive the MajorMinor of the whole disk holding a partition.">
<polygon fill="none" stroke="red" points="319,-115 319,-145 462,-145 462,-115 319,-115"/>
<text text-anchor="start" x="327" y="-133" font-family="Helvetica,sans-Serif" font-size="10.00">leanux::block::MajorMinor</text>
<text text-anchor="middle" x="390.5" y="-122" font-family="Helvetica,sans-Serif" font-size="10.00">::deriveWholeDisk</text>
</a>
</g>
</g>
<!-- Node7&#45;&gt;Node9 -->
<g id="edge6" class="edge">
<title>Node7&#45;&gt;Node9</title>
<path fill="none" stroke="midnightblue" d="M263.7,-147.77C277.85,-145.77 293.56,-143.55 308.95,-141.38"/>
<polygon fill="midnightblue" stroke="midnightblue" points="309.59,-144.82 319,-139.96 308.61,-137.89 309.59,-144.82"/>
</g>
<!-- Node10 -->
<g id="node8" class="node">
<title>Node10</title>
<g id="a_node8"><a xlink:href="../../d7/d28/classleanux_1_1block_1_1MajorMinor.html#a3f7315088bb27e09449e3c2542b65958" target="_top" xlink:title="Get the MajorMinor for the device name.">
<polygon fill="none" stroke="black" points="498,-115 498,-145 641,-145 641,-115 498,-115"/>
<text text-anchor="start" x="506" y="-133" font-family="Helvetica,sans-Serif" font-size="10.00">leanux::block::MajorMinor</text>
<text text-anchor="middle" x="569.5" y="-122" font-family="Helvetica,sans-Serif" font-size="10.00">::getMajorMinorByName</text>
</a>
</g>
</g>
<!-- Node7&#45;&gt;Node10 -->
<g id="edge10" class="edge">
<title>Node7&#45;&gt;Node10</title>
<path fill="none" stroke="midnightblue" d="M236.78,-139.81C257.67,-127.69 289.1,-111.67 319,-105 381.54,-91.05 454.64,-101.41 505.49,-112.73"/>
<polygon fill="midnightblue" stroke="midnightblue" points="504.82,-116.17 515.35,-115 506.39,-109.35 504.82,-116.17"/>
</g>
<!-- Node17 -->
<g id="node9" class="node">
<title>Node17</title>
<g id="a_node9"><a xlink:href="../../d7/d28/classleanux_1_1block_1_1MajorMinor.html#a08c4dd48259318cfd77067e866e05e84" target="_top" xlink:title="get the device name for this MajorMinor.">
<polygon fill="none" stroke="black" points="319,-164 319,-194 462,-194 462,-164 319,-164"/>
<text text-anchor="start" x="327" y="-182" font-family="Helvetica,sans-Serif" font-size="10.00">leanux::block::MajorMinor</text>
<text text-anchor="middle" x="390.5" y="-171" font-family="Helvetica,sans-Serif" font-size="10.00">::getName</text>
</a>
</g>
</g>
<!-- Node7&#45;&gt;Node17 -->
<g id="edge11" class="edge">
<title>Node7&#45;&gt;Node17</title>
<path fill="none" stroke="midnightblue" d="M263.7,-161.94C277.85,-163.86 293.56,-165.99 308.95,-168.08"/>
<polygon fill="midnightblue" stroke="midnightblue" points="308.62,-171.57 319,-169.44 309.56,-164.63 308.62,-171.57"/>
</g>
<!-- Node18 -->
<g id="node10" class="node">
<title>Node18</title>
<g id="a_node10"><a xlink:href="../../d8/db1/namespaceleanux_1_1util.html#a0c9555d36d9264d1f0cd246c8ba6da28" target="_top" xlink:title="Convert a double (real number) to a pretty print string.">
<polygon fill="none" stroke="black" points="333.5,-38.5 333.5,-57.5 447.5,-57.5 447.5,-38.5 333.5,-38.5"/>
<text text-anchor="middle" x="390.5" y="-45.5" font-family="Helvetica,sans-Serif" font-size="10.00">leanux::util::NumStr</text>
</a>
</g>
</g>
<!-- Node7&#45;&gt;Node18 -->
<g id="edge14" class="edge">
<title>Node7&#45;&gt;Node18</title>
<path fill="none" stroke="midnightblue" d="M228.26,-139.92C248.06,-121.68 283.73,-91.04 319,-72 326.85,-67.76 335.6,-64.06 344.18,-60.92"/>
<polygon fill="midnightblue" stroke="midnightblue" points="345.44,-64.19 353.74,-57.61 343.15,-57.57 345.44,-64.19"/>
</g>
<!-- Node19 -->
<g id="node11" class="node">
<title>Node19</title>
<g id="a_node11"><a xlink:href="../../d8/db1/namespaceleanux_1_1util.html#a377ec19addd5d3ca3ecee9a2591f6458" target="_top" xlink:title="convert a time duration in seconds to a pretty print string.">
<polygon fill="none" stroke="red" points="324,-0.5 324,-19.5 457,-19.5 457,-0.5 324,-0.5"/>
<text text-anchor="middle" x="390.5" y="-7.5" font-family="Helvetica,sans-Serif" font-size="10.00">leanux::util::TimeStrSec</text>
</a>
</g>
</g>
<!-- Node7&#45;&gt;Node19 -->
<g id="edge15" class="edge">
<title>Node7&#45;&gt;Node19</title>
<path fill="none" stroke="midnightblue" d="M221.18,-139.59C237.04,-112.88 273.31,-58.04 319,-29 322.33,-26.88 325.9,-25 329.6,-23.32"/>
<polygon fill="midnightblue" stroke="midnightblue" points="331,-26.53 338.98,-19.57 328.4,-20.03 331,-26.53"/>
</g>
<!-- Node9&#45;&gt;Node2 -->
<g id="edge9" class="edge">
<title>Node9&#45;&gt;Node2</title>
<path fill="none" stroke="midnightblue" d="M446.05,-145.1C464.47,-150.2 485.21,-155.94 504.31,-161.23"/>
<polygon fill="midnightblue" stroke="midnightblue" points="503.56,-164.65 514.13,-163.95 505.43,-157.91 503.56,-164.65"/>
</g>
<!-- Node9&#45;&gt;Node10 -->
<g id="edge7" class="edge">
<title>Node9&#45;&gt;Node10</title>
<path fill="none" stroke="midnightblue" d="M462.22,-130C470.57,-130 479.14,-130 487.62,-130"/>
<polygon fill="midnightblue" stroke="midnightblue" points="487.89,-133.5 497.89,-130 487.89,-126.5 487.89,-133.5"/>
</g>
<!-- Node10&#45;&gt;Node3 -->
<g id="edge8" class="edge">
<title>Node10&#45;&gt;Node3</title>
<path fill="none" stroke="midnightblue" d="M641.22,-139.59C649.66,-140.73 658.33,-141.91 666.9,-143.07"/>
<polygon fill="midnightblue" stroke="midnightblue" points="666.51,-146.55 676.89,-144.43 667.46,-139.61 666.51,-146.55"/>
</g>
<!-- Node17&#45;&gt;Node2 -->
<g id="edge12" class="edge">
<title>Node17&#45;&gt;Node2</title>
<path fill="none" stroke="midnightblue" d="M462.22,-179C470.57,-179 479.14,-179 487.62,-179"/>
<polygon fill="midnightblue" stroke="midnightblue" points="487.89,-182.5 497.89,-179 487.89,-175.5 487.89,-182.5"/>
</g>
</g>
</svg>
