<?xml version="1.0" encoding="UTF-8" standalone="no"?>
<!DOCTYPE svg PUBLIC "-//W3C//DTD SVG 1.1//EN"
 "http://www.w3.org/Graphics/SVG/1.1/DTD/svg11.dtd">
<!-- Generated by graphviz version 2.43.0 (0)
 -->
<!-- Title: leanux::tools::lblk::main Pages: 1 -->
<svg width="665pt" height="1344pt"
 viewBox="0.00 0.00 665.00 1344.43" xmlns="http://www.w3.org/2000/svg" xmlns:xlink="http://www.w3.org/1999/xlink">
<g id="graph0" class="graph" transform="scale(1 1) rotate(0) translate(4 1340.43)">
<title>leanux::tools::lblk::main</title>
<!-- Node1 -->
<g id="node1" class="node">
<title>Node1</title>
<g id="a_node1"><a xlink:title="Entry point.">
<polygon fill="#bfbfbf" stroke="black" points="0,-1172.5 0,-1202.5 104,-1202.5 104,-1172.5 0,-1172.5"/>
<text text-anchor="start" x="8" y="-1190.5" font-family="Helvetica,sans-Serif" font-size="10.00">leanux::tools::lblk</text>
<text text-anchor="middle" x="52" y="-1179.5" font-family="Helvetica,sans-Serif" font-size="10.00">::main</text>
</a>
</g>
</g>
<!-- Node2 -->
<g id="node2" class="node">
<title>Node2</title>
<g id="a_node2"><a xlink:href="../../d8/d4a/classleanux_1_1Oops.html#a144d78069f0bb6388bbd1db6385418d2" target="_top" xlink:title="Get the Oops message.">
<polygon fill="none" stroke="black" points="140,-1266 140,-1285 286,-1285 286,-1266 140,-1266"/>
<text text-anchor="middle" x="213" y="-1273" font-family="Helvetica,sans-Serif" font-size="10.00">leanux::Oops::getMessage</text>
</a>
</g>
</g>
<!-- Node1&#45;&gt;Node2 -->
<g id="edge1" class="edge">
<title>Node1&#45;&gt;Node2</title>
<path fill="none" stroke="midnightblue" d="M67.98,-1202.63C84.32,-1218.3 111.9,-1242.43 140,-1256.5 144.65,-1258.83 149.61,-1260.89 154.68,-1262.72"/>
<polygon fill="midnightblue" stroke="midnightblue" points="153.9,-1266.15 164.5,-1265.95 156.09,-1259.5 153.9,-1266.15"/>
</g>
<!-- Node3 -->
<g id="node3" class="node">
<title>Node3</title>
<g id="a_node3"><a xlink:href="../../d5/d1b/namespaceleanux_1_1tools_1_1lblk.html#a4d6a8f2c069d021c4731a845a1a07819" target="_top" xlink:title="Transform command line arguments into options.">
<polygon fill="none" stroke="black" points="161,-1216.5 161,-1246.5 265,-1246.5 265,-1216.5 161,-1216.5"/>
<text text-anchor="start" x="169" y="-1234.5" font-family="Helvetica,sans-Serif" font-size="10.00">leanux::tools::lblk</text>
<text text-anchor="middle" x="213" y="-1223.5" font-family="Helvetica,sans-Serif" font-size="10.00">::getOptions</text>
</a>
</g>
</g>
<!-- Node1&#45;&gt;Node3 -->
<g id="edge2" class="edge">
<title>Node1&#45;&gt;Node3</title>
<path fill="none" stroke="midnightblue" d="M104.18,-1201.66C119.08,-1205.79 135.5,-1210.33 150.93,-1214.6"/>
<polygon fill="midnightblue" stroke="midnightblue" points="150.34,-1218.07 160.91,-1217.36 152.21,-1211.32 150.34,-1218.07"/>
</g>
<!-- Node4 -->
<g id="node4" class="node">
<title>Node4</title>
<g id="a_node4"><a xlink:href="../../d2/dd1/namespaceleanux.html#a757c5a3a5fb84a0ab93de54fd0c8db30" target="_top" xlink:title="Initialize leanux, run checks to verify leanux is compatible with the runtime environment.">
<polygon fill="none" stroke="black" points="177.5,-1178 177.5,-1197 248.5,-1197 248.5,-1178 177.5,-1178"/>
<text text-anchor="middle" x="213" y="-1185" font-family="Helvetica,sans-Serif" font-size="10.00">leanux::init</text>
</a>
</g>
</g>
<!-- Node1&#45;&gt;Node4 -->
<g id="edge3" class="edge">
<title>Node1&#45;&gt;Node4</title>
<path fill="none" stroke="midnightblue" d="M104.18,-1187.5C124.5,-1187.5 147.65,-1187.5 167.28,-1187.5"/>
<polygon fill="midnightblue" stroke="midnightblue" points="167.49,-1191 177.49,-1187.5 167.49,-1184 167.49,-1191"/>
</g>
<!-- Node20 -->
<g id="node13" class="node">
<title>Node20</title>
<g id="a_node13"><a xlink:href="../../d5/d1b/namespaceleanux_1_1tools_1_1lblk.html#ade354d9bff962865bdf923e00d2cca9e" target="_top" xlink:title="Print command help.">
<polygon fill="none" stroke="black" points="344.5,-1071.5 344.5,-1101.5 448.5,-1101.5 448.5,-1071.5 344.5,-1071.5"/>
<text text-anchor="start" x="352.5" y="-1089.5" font-family="Helvetica,sans-Serif" font-size="10.00">leanux::tools::lblk</text>
<text text-anchor="middle" x="396.5" y="-1078.5" font-family="Helvetica,sans-Serif" font-size="10.00">::printHelp</text>
</a>
</g>
</g>
<!-- Node1&#45;&gt;Node20 -->
<g id="edge13" class="edge">
<title>Node1&#45;&gt;Node20</title>
<path fill="none" stroke="midnightblue" d="M103.91,-1172.49C165.5,-1154.32 269.09,-1123.78 334.79,-1104.4"/>
<polygon fill="midnightblue" stroke="midnightblue" points="335.99,-1107.7 344.59,-1101.51 334.01,-1100.98 335.99,-1107.7"/>
</g>
<!-- Node21 -->
<g id="node14" class="node">
<title>Node21</title>
<g id="a_node14"><a xlink:href="../../d5/d1b/namespaceleanux_1_1tools_1_1lblk.html#aafee1346a1081bfa4f7470f921cd66b8" target="_top" xlink:title="Direct output run from options.">
<polygon fill="none" stroke="black" points="161,-549.5 161,-579.5 265,-579.5 265,-549.5 161,-549.5"/>
<text text-anchor="start" x="169" y="-567.5" font-family="Helvetica,sans-Serif" font-size="10.00">leanux::tools::lblk</text>
<text text-anchor="middle" x="213" y="-556.5" font-family="Helvetica,sans-Serif" font-size="10.00">::runOptions</text>
</a>
</g>
</g>
<!-- Node1&#45;&gt;Node21 -->
<g id="edge14" class="edge">
<title>Node1&#45;&gt;Node21</title>
<path fill="none" stroke="midnightblue" d="M56.85,-1172.41C77.9,-1089.94 179.02,-693.7 205.59,-589.6"/>
<polygon fill="midnightblue" stroke="midnightblue" points="209.05,-590.23 208.13,-579.67 202.26,-588.49 209.05,-590.23"/>
</g>
<!-- Node5 -->
<g id="node5" class="node">
<title>Node5</title>
<g id="a_node5"><a xlink:href="../../d8/db1/namespaceleanux_1_1util.html#a6ac7287d49f3dd9b2c6c9673257e145b" target="_top" xlink:title="Test if the path is an existing directory.">
<polygon fill="none" stroke="black" points="507,-1222 507,-1241 657,-1241 657,-1222 507,-1222"/>
<text text-anchor="middle" x="582" y="-1229" font-family="Helvetica,sans-Serif" font-size="10.00">leanux::util::directoryExists</text>
</a>
</g>
</g>
<!-- Node4&#45;&gt;Node5 -->
<g id="edge4" class="edge">
<title>Node4&#45;&gt;Node5</title>
<path fill="none" stroke="midnightblue" d="M248.53,-1190.25C261.68,-1192.91 275.91,-1197.97 286,-1207.5 322.16,-1241.67 281.56,-1284.52 322,-1313.5 375.83,-1352.07 408.15,-1334.35 471,-1313.5 509.72,-1300.66 545.86,-1268.3 565.55,-1248.28"/>
<polygon fill="midnightblue" stroke="midnightblue" points="568.1,-1250.68 572.49,-1241.04 563.04,-1245.84 568.1,-1250.68"/>
</g>
<!-- Node6 -->
<g id="node6" class="node">
<title>Node6</title>
<g id="a_node6"><a xlink:href="../../dd/d42/namespaceleanux_1_1system.html#a019837e625c4eedcc1e09de84a56d5b8" target="_top" xlink:title="Get the kernel version.">
<polygon fill="none" stroke="black" points="324.5,-1273.5 324.5,-1303.5 468.5,-1303.5 468.5,-1273.5 324.5,-1273.5"/>
<text text-anchor="start" x="332.5" y="-1291.5" font-family="Helvetica,sans-Serif" font-size="10.00">leanux::system::getKernel</text>
<text text-anchor="middle" x="396.5" y="-1280.5" font-family="Helvetica,sans-Serif" font-size="10.00">Version</text>
</a>
</g>
</g>
<!-- Node4&#45;&gt;Node6 -->
<g id="edge5" class="edge">
<title>Node4&#45;&gt;Node6</title>
<path fill="none" stroke="midnightblue" d="M248.52,-1191.81C261.22,-1194.69 275.14,-1199.49 286,-1207.5 309.82,-1225.06 298.69,-1245.27 322,-1263.5 324.29,-1265.29 326.71,-1266.96 329.24,-1268.51"/>
<polygon fill="midnightblue" stroke="midnightblue" points="327.67,-1271.64 338.13,-1273.34 331.01,-1265.49 327.67,-1271.64"/>
</g>
<!-- Node7 -->
<g id="node7" class="node">
<title>Node7</title>
<g id="a_node7"><a xlink:href="../../d5/db8/namespaceleanux_1_1net.html#a81d90730109735bfefa2835d31152cd1" target="_top" xlink:title="initialize net library">
<polygon fill="none" stroke="red" points="350,-1235 350,-1254 443,-1254 443,-1235 350,-1235"/>
<text text-anchor="middle" x="396.5" y="-1242" font-family="Helvetica,sans-Serif" font-size="10.00">leanux::net::init</text>
</a>
</g>
</g>
<!-- Node4&#45;&gt;Node7 -->
<g id="edge6" class="edge">
<title>Node4&#45;&gt;Node7</title>
<path fill="none" stroke="midnightblue" d="M248.86,-1195.73C260.8,-1198.93 274.13,-1202.93 286,-1207.5 302.7,-1213.92 305.25,-1219.23 322,-1225.5 328.47,-1227.92 335.37,-1230.15 342.25,-1232.16"/>
<polygon fill="midnightblue" stroke="midnightblue" points="341.7,-1235.64 352.28,-1234.95 343.58,-1228.89 341.7,-1235.64"/>
</g>
<!-- Node9 -->
<g id="node8" class="node">
<title>Node9</title>
<g id="a_node8"><a xlink:href="../../de/d5d/namespaceleanux_1_1pci.html#ac2e2e3d7c732711d93a166699f2dcff3" target="_top" xlink:title="Initialize pci namespace.">
<polygon fill="none" stroke="red" points="350.5,-1197 350.5,-1216 442.5,-1216 442.5,-1197 350.5,-1197"/>
<text text-anchor="middle" x="396.5" y="-1204" font-family="Helvetica,sans-Serif" font-size="10.00">leanux::pci::init</text>
</a>
</g>
</g>
<!-- Node4&#45;&gt;Node9 -->
<g id="edge7" class="edge">
<title>Node4&#45;&gt;Node9</title>
<path fill="none" stroke="midnightblue" d="M248.57,-1191.12C274.42,-1193.82 310.3,-1197.58 340.14,-1200.7"/>
<polygon fill="midnightblue" stroke="midnightblue" points="340.1,-1204.22 350.41,-1201.78 340.83,-1197.26 340.1,-1204.22"/>
</g>
<!-- Node10 -->
<g id="node9" class="node">
<title>Node10</title>
<g id="a_node9"><a xlink:href="../../d5/d9c/namespaceleanux_1_1usb.html#abd98dfc77cb6924be71589e8e2e4dc50" target="_top" xlink:title="initialize usb namespace.">
<polygon fill="none" stroke="red" points="349,-1159 349,-1178 444,-1178 444,-1159 349,-1159"/>
<text text-anchor="middle" x="396.5" y="-1166" font-family="Helvetica,sans-Serif" font-size="10.00">leanux::usb::init</text>
</a>
</g>
</g>
<!-- Node4&#45;&gt;Node10 -->
<g id="edge8" class="edge">
<title>Node4&#45;&gt;Node10</title>
<path fill="none" stroke="midnightblue" d="M248.57,-1183.88C273.96,-1181.22 309.03,-1177.55 338.54,-1174.46"/>
<polygon fill="midnightblue" stroke="midnightblue" points="339.14,-1177.92 348.72,-1173.4 338.41,-1170.96 339.14,-1177.92"/>
</g>
<!-- Node11 -->
<g id="node10" class="node">
<title>Node11</title>
<g id="a_node10"><a xlink:href="../../d5/d01/namespaceleanux_1_1block.html#a927d958ef9b9b66a13c32754e91d0c7d" target="_top" xlink:title="Initialize the block API.">
<polygon fill="none" stroke="red" points="344.5,-1121 344.5,-1140 448.5,-1140 448.5,-1121 344.5,-1121"/>
<text text-anchor="middle" x="396.5" y="-1128" font-family="Helvetica,sans-Serif" font-size="10.00">leanux::block::init</text>
</a>
</g>
</g>
<!-- Node4&#45;&gt;Node11 -->
<g id="edge9" class="edge">
<title>Node4&#45;&gt;Node11</title>
<path fill="none" stroke="midnightblue" d="M239.11,-1177.98C260.87,-1169.89 293.29,-1158.24 322,-1149.5 329.8,-1147.12 338.12,-1144.79 346.25,-1142.61"/>
<polygon fill="midnightblue" stroke="midnightblue" points="347.26,-1145.97 356.04,-1140.04 345.48,-1139.2 347.26,-1145.97"/>
</g>
<!-- Node11&#45;&gt;Node5 -->
<g id="edge10" class="edge">
<title>Node11&#45;&gt;Node5</title>
<path fill="none" stroke="midnightblue" d="M445.51,-1140.04C454.21,-1142.57 463.04,-1145.68 471,-1149.5 506.87,-1166.69 542.75,-1196.34 563.36,-1214.89"/>
<polygon fill="midnightblue" stroke="midnightblue" points="561.24,-1217.69 570.97,-1221.86 565.96,-1212.52 561.24,-1217.69"/>
</g>
<!-- Node13 -->
<g id="node11" class="node">
<title>Node13</title>
<g id="a_node11"><a xlink:href="../../d7/d28/classleanux_1_1block_1_1MajorMinor.html#a7e5217cefada330c0b412a4cc0e8ba8a" target="_top" xlink:title="Get the major.">
<polygon fill="none" stroke="black" points="510.5,-666.5 510.5,-696.5 653.5,-696.5 653.5,-666.5 510.5,-666.5"/>
<text text-anchor="start" x="518.5" y="-684.5" font-family="Helvetica,sans-Serif" font-size="10.00">leanux::block::MajorMinor</text>
<text text-anchor="middle" x="582" y="-673.5" font-family="Helvetica,sans-Serif" font-size="10.00">::getMajor</text>
</a>
</g>
</g>
<!-- Node11&#45;&gt;Node13 -->
<g id="edge11" class="edge">
<title>Node11&#45;&gt;Node13</title>
<path fill="none" stroke="midnightblue" d="M448.77,-1125.83C457.25,-1122.84 465.17,-1118.31 471,-1111.5 524.14,-1049.41 469.41,-818.07 507,-745.5 515.95,-728.23 531.7,-713.6 546.38,-702.71"/>
<polygon fill="midnightblue" stroke="midnightblue" points="548.68,-705.36 554.83,-696.74 544.65,-699.65 548.68,-705.36"/>
</g>
<!-- Node14 -->
<g id="node12" class="node">
<title>Node14</title>
<g id="a_node12"><a xlink:href="../../d7/d28/classleanux_1_1block_1_1MajorMinor.html#a26905a16bdd3e525abb2ada713f80704" target="_top" xlink:title="Test MajorMinor validity.">
<polygon fill="none" stroke="black" points="510.5,-980.5 510.5,-1010.5 653.5,-1010.5 653.5,-980.5 510.5,-980.5"/>
<text text-anchor="start" x="518.5" y="-998.5" font-family="Helvetica,sans-Serif" font-size="10.00">leanux::block::MajorMinor</text>
<text text-anchor="middle" x="582" y="-987.5" font-family="Helvetica,sans-Serif" font-size="10.00">::isValid</text>
</a>
</g>
</g>
<!-- Node11&#45;&gt;Node14 -->
<g id="edge12" class="edge">
<title>Node11&#45;&gt;Node14</title>
<path fill="none" stroke="midnightblue" d="M448.8,-1121.2C456.53,-1118.69 464.19,-1115.51 471,-1111.5 510.96,-1087.96 545.62,-1045.72 564.88,-1019.23"/>
<polygon fill="midnightblue" stroke="midnightblue" points="567.86,-1021.08 570.8,-1010.9 562.15,-1017.02 567.86,-1021.08"/>
</g>
<!-- Node21&#45;&gt;Node13 -->
<g id="edge28" class="edge">
<title>Node21&#45;&gt;Node13</title>
<path fill="none" stroke="midnightblue" d="M225.24,-579.78C242.93,-602.47 279.65,-644.34 322,-662.5 378.25,-686.62 447.67,-690.5 500.48,-688.83"/>
<polygon fill="midnightblue" stroke="midnightblue" points="500.62,-692.32 510.48,-688.44 500.35,-685.33 500.62,-692.32"/>
</g>
<!-- Node21&#45;&gt;Node14 -->
<g id="edge35" class="edge">
<title>Node21&#45;&gt;Node14</title>
<path fill="none" stroke="midnightblue" d="M215.11,-579.57C220.83,-652.31 249.48,-966.07 322,-1023.5 385.71,-1073.96 487.61,-1039.78 542.68,-1014.92"/>
<polygon fill="midnightblue" stroke="midnightblue" points="544.48,-1017.95 552.08,-1010.57 541.53,-1011.6 544.48,-1017.95"/>
</g>
<!-- Node21&#45;&gt;Node20 -->
<g id="edge48" class="edge">
<title>Node21&#45;&gt;Node20</title>
<path fill="none" stroke="midnightblue" d="M215.43,-579.58C222.76,-653.9 258.22,-980.73 322,-1056.5 325.81,-1061.03 330.41,-1064.88 335.42,-1068.15"/>
<polygon fill="midnightblue" stroke="midnightblue" points="333.77,-1071.24 344.19,-1073.14 337.23,-1065.15 333.77,-1071.24"/>
</g>
<!-- Node22 -->
<g id="node15" class="node">
<title>Node22</title>
<g id="a_node15"><a xlink:href="../../d5/d1b/namespaceleanux_1_1tools_1_1lblk.html#ab1dd99f5a818f4a86f50527aa9835a0a" target="_top" xlink:title="Write device mapper details.">
<polygon fill="none" stroke="red" points="336,-622.5 336,-652.5 457,-652.5 457,-622.5 336,-622.5"/>
<text text-anchor="start" x="344" y="-640.5" font-family="Helvetica,sans-Serif" font-size="10.00">leanux::tools::lblk</text>
<text text-anchor="middle" x="396.5" y="-629.5" font-family="Helvetica,sans-Serif" font-size="10.00">::detailDeviceMapper</text>
</a>
</g>
</g>
<!-- Node21&#45;&gt;Node22 -->
<g id="edge15" class="edge">
<title>Node21&#45;&gt;Node22</title>
<path fill="none" stroke="midnightblue" d="M244.8,-579.57C266.2,-589.77 295.52,-603.2 322,-613.5 326.8,-615.37 331.82,-617.21 336.87,-619"/>
<polygon fill="midnightblue" stroke="midnightblue" points="336.01,-622.41 346.6,-622.37 338.3,-615.79 336.01,-622.41"/>
</g>
<!-- Node37 -->
<g id="node16" class="node">
<title>Node37</title>
<g id="a_node16"><a xlink:href="../../d5/d1b/namespaceleanux_1_1tools_1_1lblk.html#ade16c362a9900ba9267433bf57da42ce" target="_top" xlink:title="Write disk details.">
<polygon fill="none" stroke="red" points="344.5,-573.5 344.5,-603.5 448.5,-603.5 448.5,-573.5 344.5,-573.5"/>
<text text-anchor="start" x="352.5" y="-591.5" font-family="Helvetica,sans-Serif" font-size="10.00">leanux::tools::lblk</text>
<text text-anchor="middle" x="396.5" y="-580.5" font-family="Helvetica,sans-Serif" font-size="10.00">::detailDisk</text>
</a>
</g>
</g>
<!-- Node21&#45;&gt;Node37 -->
<g id="edge16" class="edge">
<title>Node21&#45;&gt;Node37</title>
<path fill="none" stroke="midnightblue" d="M265.04,-571.25C286.5,-574.09 311.65,-577.41 334.11,-580.38"/>
<polygon fill="midnightblue" stroke="midnightblue" points="333.84,-583.88 344.21,-581.72 334.76,-576.94 333.84,-583.88"/>
</g>
<!-- Node86 -->
<g id="node17" class="node">
<title>Node86</title>
<g id="a_node17"><a xlink:href="../../d5/d1b/namespaceleanux_1_1tools_1_1lblk.html#a166e28aa95689343dc660fb59f69b4a1" target="_top" xlink:title="Write generic block device details.">
<polygon fill="none" stroke="red" points="322,-524.5 322,-554.5 471,-554.5 471,-524.5 322,-524.5"/>
<text text-anchor="start" x="330" y="-542.5" font-family="Helvetica,sans-Serif" font-size="10.00">leanux::tools::lblk</text>
<text text-anchor="middle" x="396.5" y="-531.5" font-family="Helvetica,sans-Serif" font-size="10.00">::detailGenericBlockDevice</text>
</a>
</g>
</g>
<!-- Node21&#45;&gt;Node86 -->
<g id="edge17" class="edge">
<title>Node21&#45;&gt;Node86</title>
<path fill="none" stroke="midnightblue" d="M265.04,-557.47C279.49,-555.48 295.61,-553.26 311.46,-551.08"/>
<polygon fill="midnightblue" stroke="midnightblue" points="312.39,-554.48 321.82,-549.65 311.43,-547.55 312.39,-554.48"/>
</g>
<!-- Node87 -->
<g id="node18" class="node">
<title>Node87</title>
<g id="a_node18"><a xlink:href="../../d5/d1b/namespaceleanux_1_1tools_1_1lblk.html#ac57ae7d9a91a4259052d4ae1da5a36a2" target="_top" xlink:title="Write LVM details.">
<polygon fill="none" stroke="red" points="344.5,-475.5 344.5,-505.5 448.5,-505.5 448.5,-475.5 344.5,-475.5"/>
<text text-anchor="start" x="352.5" y="-493.5" font-family="Helvetica,sans-Serif" font-size="10.00">leanux::tools::lblk</text>
<text text-anchor="middle" x="396.5" y="-482.5" font-family="Helvetica,sans-Serif" font-size="10.00">::detailLVM</text>
</a>
</g>
</g>
<!-- Node21&#45;&gt;Node87 -->
<g id="edge18" class="edge">
<title>Node21&#45;&gt;Node87</title>
<path fill="none" stroke="midnightblue" d="M245.31,-549.31C266.69,-539.18 295.77,-525.88 322,-515.5 327.54,-513.31 333.36,-511.13 339.19,-509.02"/>
<polygon fill="midnightblue" stroke="midnightblue" points="340.72,-512.19 348.98,-505.55 338.39,-505.59 340.72,-512.19"/>
</g>
<!-- Node105 -->
<g id="node19" class="node">
<title>Node105</title>
<g id="a_node19"><a xlink:href="../../d5/d1b/namespaceleanux_1_1tools_1_1lblk.html#a3ed79ca6c9f478be774a6d9f4a4cb016" target="_top" xlink:title="Write MetaDisk details.">
<polygon fill="none" stroke="red" points="344.5,-426.5 344.5,-456.5 448.5,-456.5 448.5,-426.5 344.5,-426.5"/>
<text text-anchor="start" x="352.5" y="-444.5" font-family="Helvetica,sans-Serif" font-size="10.00">leanux::tools::lblk</text>
<text text-anchor="middle" x="396.5" y="-433.5" font-family="Helvetica,sans-Serif" font-size="10.00">::detailMetaDisk</text>
</a>
</g>
</g>
<!-- Node21&#45;&gt;Node105 -->
<g id="edge19" class="edge">
<title>Node21&#45;&gt;Node105</title>
<path fill="none" stroke="midnightblue" d="M226.84,-549.48C245.71,-528.25 282.95,-489.5 322,-466.5 326.14,-464.06 330.55,-461.82 335.07,-459.76"/>
<polygon fill="midnightblue" stroke="midnightblue" points="336.61,-462.91 344.47,-455.81 333.9,-456.46 336.61,-462.91"/>
</g>
<!-- Node24 -->
<g id="node20" class="node">
<title>Node24</title>
<g id="a_node20"><a xlink:href="../../d7/d28/classleanux_1_1block_1_1MajorMinor.html#ad8b93c3f6fc290008c2025e5e3d42eb5" target="_top" xlink:title="Get the DeviceClass for a MajorMinor.">
<polygon fill="none" stroke="red" points="325,-262.5 325,-292.5 468,-292.5 468,-262.5 325,-262.5"/>
<text text-anchor="start" x="333" y="-280.5" font-family="Helvetica,sans-Serif" font-size="10.00">leanux::block::MajorMinor</text>
<text text-anchor="middle" x="396.5" y="-269.5" font-family="Helvetica,sans-Serif" font-size="10.00">::getClass</text>
</a>
</g>
</g>
<!-- Node21&#45;&gt;Node24 -->
<g id="edge20" class="edge">
<title>Node21&#45;&gt;Node24</title>
<path fill="none" stroke="midnightblue" d="M216.26,-549.2C223.49,-505.53 249.94,-378.83 322,-307.5 325.76,-303.78 330.05,-300.5 334.61,-297.61"/>
<polygon fill="midnightblue" stroke="midnightblue" points="336.67,-300.47 343.69,-292.53 333.25,-294.36 336.67,-300.47"/>
</g>
<!-- Node29 -->
<g id="node21" class="node">
<title>Node29</title>
<g id="a_node21"><a xlink:href="../../d7/d28/classleanux_1_1block_1_1MajorMinor.html#a59e3fe2f1a574b79bad1fe48a2334c27" target="_top" xlink:title="determine if the MajorMinor represents a bcache disk.">
<polygon fill="none" stroke="red" points="510.5,-384.5 510.5,-414.5 653.5,-414.5 653.5,-384.5 510.5,-384.5"/>
<text text-anchor="start" x="518.5" y="-402.5" font-family="Helvetica,sans-Serif" font-size="10.00">leanux::block::MajorMinor</text>
<text text-anchor="middle" x="582" y="-391.5" font-family="Helvetica,sans-Serif" font-size="10.00">::isBCacheDisk</text>
</a>
</g>
</g>
<!-- Node21&#45;&gt;Node29 -->
<g id="edge29" class="edge">
<title>Node21&#45;&gt;Node29</title>
<path fill="none" stroke="midnightblue" d="M219.86,-549.47C232.85,-518.42 267.35,-447.59 322,-417.5 376.06,-387.73 446.39,-384.66 500.11,-388.24"/>
<polygon fill="midnightblue" stroke="midnightblue" points="500.05,-391.75 510.29,-389.01 500.58,-384.77 500.05,-391.75"/>
</g>
<!-- Node30 -->
<g id="node22" class="node">
<title>Node30</title>
<g id="a_node22"><a xlink:href="../../d7/d28/classleanux_1_1block_1_1MajorMinor.html#a546aa9297e382543cb031126190bc8c9" target="_top" xlink:title="determine if the major represents an IDE disk.">
<polygon fill="none" stroke="black" points="510.5,-335.5 510.5,-365.5 653.5,-365.5 653.5,-335.5 510.5,-335.5"/>
<text text-anchor="start" x="518.5" y="-353.5" font-family="Helvetica,sans-Serif" font-size="10.00">leanux::block::MajorMinor</text>
<text text-anchor="middle" x="582" y="-342.5" font-family="Helvetica,sans-Serif" font-size="10.00">::isIDEDisk</text>
</a>
</g>
</g>
<!-- Node21&#45;&gt;Node30 -->
<g id="edge30" class="edge">
<title>Node21&#45;&gt;Node30</title>
<path fill="none" stroke="midnightblue" d="M218.02,-549.31C228.4,-513.4 259.73,-423.22 322,-382.5 374.37,-348.26 445.61,-341.65 500.12,-342.82"/>
<polygon fill="midnightblue" stroke="midnightblue" points="500.34,-346.33 510.44,-343.14 500.55,-339.33 500.34,-346.33"/>
</g>
<!-- Node31 -->
<g id="node23" class="node">
<title>Node31</title>
<g id="a_node23"><a xlink:href="../../d7/d28/classleanux_1_1block_1_1MajorMinor.html#a852aa9e7ee1c107c95cd27ad47b5cf86" target="_top" xlink:title="determine if the MajorMinor represents an MMC disk.">
<polygon fill="none" stroke="red" points="510.5,-286.5 510.5,-316.5 653.5,-316.5 653.5,-286.5 510.5,-286.5"/>
<text text-anchor="start" x="518.5" y="-304.5" font-family="Helvetica,sans-Serif" font-size="10.00">leanux::block::MajorMinor</text>
<text text-anchor="middle" x="582" y="-293.5" font-family="Helvetica,sans-Serif" font-size="10.00">::isMMCDisk</text>
</a>
</g>
</g>
<!-- Node21&#45;&gt;Node31 -->
<g id="edge32" class="edge">
<title>Node21&#45;&gt;Node31</title>
<path fill="none" stroke="midnightblue" d="M216.28,-549.29C223.36,-507.77 249.1,-392.04 322,-338.5 349.67,-318.18 434.97,-308.96 500.19,-304.81"/>
<polygon fill="midnightblue" stroke="midnightblue" points="500.7,-308.28 510.47,-304.19 500.28,-301.3 500.7,-308.28"/>
</g>
<!-- Node32 -->
<g id="node24" class="node">
<title>Node32</title>
<g id="a_node24"><a xlink:href="../../d7/d28/classleanux_1_1block_1_1MajorMinor.html#ab248c720a63908f9e3ef78ed23536de8" target="_top" xlink:title="determine if the MajorMinor represents a NVMe disk.">
<polygon fill="none" stroke="red" points="510.5,-237.5 510.5,-267.5 653.5,-267.5 653.5,-237.5 510.5,-237.5"/>
<text text-anchor="start" x="518.5" y="-255.5" font-family="Helvetica,sans-Serif" font-size="10.00">leanux::block::MajorMinor</text>
<text text-anchor="middle" x="582" y="-244.5" font-family="Helvetica,sans-Serif" font-size="10.00">::isNVMeDisk</text>
</a>
</g>
</g>
<!-- Node21&#45;&gt;Node32 -->
<g id="edge33" class="edge">
<title>Node21&#45;&gt;Node32</title>
<path fill="none" stroke="midnightblue" d="M213.73,-549.35C213.72,-497.33 221.54,-325.25 322,-253.5 380.34,-211.83 466.46,-221.68 523.14,-235.03"/>
<polygon fill="midnightblue" stroke="midnightblue" points="522.47,-238.47 533.02,-237.46 524.15,-231.67 522.47,-238.47"/>
</g>
<!-- Node34 -->
<g id="node25" class="node">
<title>Node34</title>
<g id="a_node25"><a xlink:href="../../d7/d28/classleanux_1_1block_1_1MajorMinor.html#a6c5b98f8ffc7b8904754ecfe33407e8c" target="_top" xlink:title="determine if the major represents a SCSI disk.">
<polygon fill="none" stroke="black" points="510.5,-188.5 510.5,-218.5 653.5,-218.5 653.5,-188.5 510.5,-188.5"/>
<text text-anchor="start" x="518.5" y="-206.5" font-family="Helvetica,sans-Serif" font-size="10.00">leanux::block::MajorMinor</text>
<text text-anchor="middle" x="582" y="-195.5" font-family="Helvetica,sans-Serif" font-size="10.00">::isSCSIDisk</text>
</a>
</g>
</g>
<!-- Node21&#45;&gt;Node34 -->
<g id="edge34" class="edge">
<title>Node21&#45;&gt;Node34</title>
<path fill="none" stroke="midnightblue" d="M213.3,-549.15C211.72,-493.85 214.54,-303.69 322,-219.5 373.1,-179.46 448.74,-179.43 505.09,-187.05"/>
<polygon fill="midnightblue" stroke="midnightblue" points="504.63,-190.52 515.03,-188.5 505.64,-183.59 504.63,-190.52"/>
</g>
<!-- Node35 -->
<g id="node26" class="node">
<title>Node35</title>
<g id="a_node26"><a xlink:href="../../d7/d28/classleanux_1_1block_1_1MajorMinor.html#aaa91d26165ff4b7a32cfe052e72463cc" target="_top" xlink:title="determine if the MajorMinor represents a virtio disk.">
<polygon fill="none" stroke="red" points="510.5,-139.5 510.5,-169.5 653.5,-169.5 653.5,-139.5 510.5,-139.5"/>
<text text-anchor="start" x="518.5" y="-157.5" font-family="Helvetica,sans-Serif" font-size="10.00">leanux::block::MajorMinor</text>
<text text-anchor="middle" x="582" y="-146.5" font-family="Helvetica,sans-Serif" font-size="10.00">::isVirtIODisk</text>
</a>
</g>
</g>
<!-- Node21&#45;&gt;Node35 -->
<g id="edge36" class="edge">
<title>Node21&#45;&gt;Node35</title>
<path fill="none" stroke="midnightblue" d="M215.96,-549.43C224.74,-484.45 262.64,-229.17 322,-179.5 370.68,-138.77 443.94,-135.22 500.14,-140.3"/>
<polygon fill="midnightblue" stroke="midnightblue" points="500.12,-143.82 510.43,-141.35 500.83,-136.85 500.12,-143.82"/>
</g>
<!-- Node122 -->
<g id="node27" class="node">
<title>Node122</title>
<g id="a_node27"><a xlink:href="../../d7/d28/classleanux_1_1block_1_1MajorMinor.html#a3364e4fbb83833991d24002a41d96fd6" target="_top" xlink:title="determine if this MajorMinor represents a MetaDisk (software raid).">
<polygon fill="none" stroke="black" points="325,-98.5 325,-128.5 468,-128.5 468,-98.5 325,-98.5"/>
<text text-anchor="start" x="333" y="-116.5" font-family="Helvetica,sans-Serif" font-size="10.00">leanux::block::MajorMinor</text>
<text text-anchor="middle" x="396.5" y="-105.5" font-family="Helvetica,sans-Serif" font-size="10.00">::isMetaDisk</text>
</a>
</g>
</g>
<!-- Node21&#45;&gt;Node122 -->
<g id="edge31" class="edge">
<title>Node21&#45;&gt;Node122</title>
<path fill="none" stroke="midnightblue" d="M216.04,-549.4C225.43,-481.75 266.45,-207.19 322,-143.5 325.17,-139.86 328.85,-136.66 332.85,-133.84"/>
<polygon fill="midnightblue" stroke="midnightblue" points="334.73,-136.79 341.41,-128.57 331.06,-130.83 334.73,-136.79"/>
</g>
<!-- Node123 -->
<g id="node28" class="node">
<title>Node123</title>
<g id="a_node28"><a xlink:href="../../d5/d1b/namespaceleanux_1_1tools_1_1lblk.html#aa88fa87379ec2528ee3627e5bb9953d0" target="_top" xlink:title="Table listing all devices.">
<polygon fill="none" stroke="red" points="344.5,-49.5 344.5,-79.5 448.5,-79.5 448.5,-49.5 344.5,-49.5"/>
<text text-anchor="start" x="352.5" y="-67.5" font-family="Helvetica,sans-Serif" font-size="10.00">leanux::tools::lblk</text>
<text text-anchor="middle" x="396.5" y="-56.5" font-family="Helvetica,sans-Serif" font-size="10.00">::listAllDevices</text>
</a>
</g>
</g>
<!-- Node21&#45;&gt;Node123 -->
<g id="edge37" class="edge">
<title>Node21&#45;&gt;Node123</title>
<path fill="none" stroke="midnightblue" d="M215.44,-549.34C222.71,-476.06 257.49,-159.27 322,-88.5 325.79,-84.35 330.3,-80.91 335.2,-78.06"/>
<polygon fill="midnightblue" stroke="midnightblue" points="336.94,-81.11 344.38,-73.56 333.86,-74.83 336.94,-81.11"/>
</g>
<!-- Node125 -->
<g id="node29" class="node">
<title>Node125</title>
<g id="a_node29"><a xlink:href="../../d5/d1b/namespaceleanux_1_1tools_1_1lblk.html#a73d92bf0717d3dece131f9cf718de164" target="_top" xlink:title="Table listing all disks.">
<polygon fill="none" stroke="red" points="344.5,-0.5 344.5,-30.5 448.5,-30.5 448.5,-0.5 344.5,-0.5"/>
<text text-anchor="start" x="352.5" y="-18.5" font-family="Helvetica,sans-Serif" font-size="10.00">leanux::tools::lblk</text>
<text text-anchor="middle" x="396.5" y="-7.5" font-family="Helvetica,sans-Serif" font-size="10.00">::listAllDisks</text>
</a>
</g>
</g>
<!-- Node21&#45;&gt;Node125 -->
<g id="edge38" class="edge">
<title>Node21&#45;&gt;Node125</title>
<path fill="none" stroke="midnightblue" d="M215.1,-549.36C221.01,-471.69 251.49,-118.44 322,-39.5 325.74,-35.31 330.23,-31.84 335.12,-28.98"/>
<polygon fill="midnightblue" stroke="midnightblue" points="336.85,-32.03 344.26,-24.46 333.75,-25.76 336.85,-32.03"/>
</g>
<!-- Node126 -->
<g id="node30" class="node">
<title>Node126</title>
<g id="a_node30"><a xlink:href="../../d5/d1b/namespaceleanux_1_1tools_1_1lblk.html#a434f492d6d8b6e1e69c1200e6d66180a" target="_top" xlink:title="Table listing all MetaDisks.">
<polygon fill="none" stroke="red" points="344.5,-983.5 344.5,-1013.5 448.5,-1013.5 448.5,-983.5 344.5,-983.5"/>
<text text-anchor="start" x="352.5" y="-1001.5" font-family="Helvetica,sans-Serif" font-size="10.00">leanux::tools::lblk</text>
<text text-anchor="middle" x="396.5" y="-990.5" font-family="Helvetica,sans-Serif" font-size="10.00">::listAllMetaDisks</text>
</a>
</g>
</g>
<!-- Node21&#45;&gt;Node126 -->
<g id="edge39" class="edge">
<title>Node21&#45;&gt;Node126</title>
<path fill="none" stroke="midnightblue" d="M216.05,-579.75C225.35,-646.8 265.55,-914.67 322,-974.5 325.8,-978.53 330.28,-981.88 335.13,-984.67"/>
<polygon fill="midnightblue" stroke="midnightblue" points="333.67,-987.85 344.18,-989.11 336.75,-981.56 333.67,-987.85"/>
</g>
<!-- Node127 -->
<g id="node31" class="node">
<title>Node127</title>
<g id="a_node31"><a xlink:href="../../d5/d1b/namespaceleanux_1_1tools_1_1lblk.html#ae7d5c6185a714de483a152b1846eadcb" target="_top" xlink:title="Table listing all storage needed for the filesystem containing file.">
<polygon fill="none" stroke="red" points="344.5,-885.5 344.5,-915.5 448.5,-915.5 448.5,-885.5 344.5,-885.5"/>
<text text-anchor="start" x="352.5" y="-903.5" font-family="Helvetica,sans-Serif" font-size="10.00">leanux::tools::lblk</text>
<text text-anchor="middle" x="396.5" y="-892.5" font-family="Helvetica,sans-Serif" font-size="10.00">::listFile</text>
</a>
</g>
</g>
<!-- Node21&#45;&gt;Node127 -->
<g id="edge40" class="edge">
<title>Node21&#45;&gt;Node127</title>
<path fill="none" stroke="midnightblue" d="M215.08,-579.8C219.33,-628.76 239.03,-783.42 322,-870.5 325.86,-874.55 330.35,-878.08 335.17,-881.13"/>
<polygon fill="midnightblue" stroke="midnightblue" points="333.69,-884.32 344.13,-886.15 337.11,-878.21 333.69,-884.32"/>
</g>
<!-- Node128 -->
<g id="node32" class="node">
<title>Node128</title>
<g id="a_node32"><a xlink:href="../../d5/d1b/namespaceleanux_1_1tools_1_1lblk.html#a514a93d2172ba20b92f77ba1062d822c" target="_top" xlink:title="Write the tree of slaves beneath and including mm, append to tab, starting with level.">
<polygon fill="none" stroke="red" points="530,-841.5 530,-871.5 634,-871.5 634,-841.5 530,-841.5"/>
<text text-anchor="start" x="538" y="-859.5" font-family="Helvetica,sans-Serif" font-size="10.00">leanux::tools::lblk</text>
<text text-anchor="middle" x="582" y="-848.5" font-family="Helvetica,sans-Serif" font-size="10.00">::printSlaveTree</text>
</a>
</g>
</g>
<!-- Node21&#45;&gt;Node128 -->
<g id="edge50" class="edge">
<title>Node21&#45;&gt;Node128</title>
<path fill="none" stroke="midnightblue" d="M214.71,-579.58C217.84,-626.91 234.51,-773.22 322,-837.5 378.9,-879.3 463.1,-877.07 519.91,-869.04"/>
<polygon fill="midnightblue" stroke="midnightblue" points="520.47,-872.49 529.84,-867.54 519.43,-865.57 520.47,-872.49"/>
</g>
<!-- Node129 -->
<g id="node33" class="node">
<title>Node129</title>
<g id="a_node33"><a xlink:href="../../d5/d1b/namespaceleanux_1_1tools_1_1lblk.html#a3ad2e43162ca1213c491e96d5d2a5a9c" target="_top" xlink:title="Table listing LVM devices.">
<polygon fill="none" stroke="red" points="344.5,-797.5 344.5,-827.5 448.5,-827.5 448.5,-797.5 344.5,-797.5"/>
<text text-anchor="start" x="352.5" y="-815.5" font-family="Helvetica,sans-Serif" font-size="10.00">leanux::tools::lblk</text>
<text text-anchor="middle" x="396.5" y="-804.5" font-family="Helvetica,sans-Serif" font-size="10.00">::listLVM</text>
</a>
</g>
</g>
<!-- Node21&#45;&gt;Node129 -->
<g id="edge43" class="edge">
<title>Node21&#45;&gt;Node129</title>
<path fill="none" stroke="midnightblue" d="M216.96,-579.51C225.63,-619.52 254.73,-729.67 322,-788.5 325.94,-791.95 330.39,-794.9 335.09,-797.43"/>
<polygon fill="midnightblue" stroke="midnightblue" points="333.86,-800.72 344.4,-801.79 336.83,-794.38 333.86,-800.72"/>
</g>
<!-- Node131 -->
<g id="node34" class="node">
<title>Node131</title>
<g id="a_node34"><a xlink:href="../../d5/d1b/namespaceleanux_1_1tools_1_1lblk.html#a0ce6fe01f37dc9d73d699030825432be" target="_top" xlink:title="Write the tree of holders above and including mm, append to tab, starting with level.">
<polygon fill="none" stroke="red" points="530,-754.5 530,-784.5 634,-784.5 634,-754.5 530,-754.5"/>
<text text-anchor="start" x="538" y="-772.5" font-family="Helvetica,sans-Serif" font-size="10.00">leanux::tools::lblk</text>
<text text-anchor="middle" x="582" y="-761.5" font-family="Helvetica,sans-Serif" font-size="10.00">::printHolderTree</text>
</a>
</g>
</g>
<!-- Node21&#45;&gt;Node131 -->
<g id="edge49" class="edge">
<title>Node21&#45;&gt;Node131</title>
<path fill="none" stroke="midnightblue" d="M223,-579.61C239.38,-605.84 276.63,-659.84 322,-689.5 338.86,-700.52 449,-732.58 520.12,-752.61"/>
<polygon fill="midnightblue" stroke="midnightblue" points="519.31,-756.02 529.88,-755.35 521.2,-749.28 519.31,-756.02"/>
</g>
<!-- Node132 -->
<g id="node35" class="node">
<title>Node132</title>
<g id="a_node35"><a xlink:href="../../d5/d1b/namespaceleanux_1_1tools_1_1lblk.html#a2c15ffbda4dc6a336718fafe080e56fc" target="_top" xlink:title="do smart things with user input for device name so that we are not overly picky in user specified dev...">
<polygon fill="none" stroke="red" points="344.5,-934.5 344.5,-964.5 448.5,-964.5 448.5,-934.5 344.5,-934.5"/>
<text text-anchor="start" x="352.5" y="-952.5" font-family="Helvetica,sans-Serif" font-size="10.00">leanux::tools::lblk</text>
<text text-anchor="middle" x="396.5" y="-941.5" font-family="Helvetica,sans-Serif" font-size="10.00">::parseDeviceArg</text>
</a>
</g>
</g>
<!-- Node21&#45;&gt;Node132 -->
<g id="edge46" class="edge">
<title>Node21&#45;&gt;Node132</title>
<path fill="none" stroke="midnightblue" d="M213.85,-579.63C214.16,-634.28 222.65,-823.64 322,-925.5 325.87,-929.46 330.39,-932.77 335.27,-935.54"/>
<polygon fill="midnightblue" stroke="midnightblue" points="333.83,-938.73 344.36,-939.94 336.89,-932.43 333.83,-938.73"/>
</g>
<!-- Node133 -->
<g id="node36" class="node">
<title>Node133</title>
<g id="a_node36"><a xlink:href="../../d5/d1b/namespaceleanux_1_1tools_1_1lblk.html#a65a306382daf8b07647dba52c25543f2" target="_top" xlink:title=" ">
<polygon fill="none" stroke="black" points="344.5,-748.5 344.5,-778.5 448.5,-778.5 448.5,-748.5 344.5,-748.5"/>
<text text-anchor="start" x="352.5" y="-766.5" font-family="Helvetica,sans-Serif" font-size="10.00">leanux::tools::lblk</text>
<text text-anchor="middle" x="396.5" y="-755.5" font-family="Helvetica,sans-Serif" font-size="10.00">::printVersion</text>
</a>
</g>
</g>
<!-- Node21&#45;&gt;Node133 -->
<g id="edge51" class="edge">
<title>Node21&#45;&gt;Node133</title>
<path fill="none" stroke="midnightblue" d="M219.96,-579.8C233.4,-612.4 269.04,-689.36 322,-733.5 326.61,-737.34 331.78,-740.75 337.19,-743.75"/>
<polygon fill="midnightblue" stroke="midnightblue" points="335.95,-747.05 346.45,-748.43 339.1,-740.8 335.95,-747.05"/>
</g>
<!-- Node24&#45;&gt;Node13 -->
<g id="edge21" class="edge">
<title>Node24&#45;&gt;Node13</title>
<path fill="none" stroke="midnightblue" d="M406.11,-292.81C420.33,-318.32 449.29,-371.28 471,-417.5 511.71,-504.17 553.51,-610.08 571.65,-657.05"/>
<polygon fill="midnightblue" stroke="midnightblue" points="568.4,-658.34 575.26,-666.41 574.93,-655.82 568.4,-658.34"/>
</g>
<!-- Node24&#45;&gt;Node29 -->
<g id="edge22" class="edge">
<title>Node24&#45;&gt;Node29</title>
<path fill="none" stroke="midnightblue" d="M410.52,-292.59C429.65,-313.89 467.41,-352.74 507,-375.5 510.02,-377.24 513.18,-378.87 516.42,-380.39"/>
<polygon fill="midnightblue" stroke="midnightblue" points="515.17,-383.66 525.74,-384.43 517.95,-377.24 515.17,-383.66"/>
</g>
<!-- Node24&#45;&gt;Node30 -->
<g id="edge23" class="edge">
<title>Node24&#45;&gt;Node30</title>
<path fill="none" stroke="midnightblue" d="M428.75,-292.56C450.45,-302.75 480.17,-316.18 507,-326.5 512.04,-328.44 517.32,-330.36 522.62,-332.22"/>
<polygon fill="midnightblue" stroke="midnightblue" points="521.58,-335.56 532.18,-335.49 523.85,-328.94 521.58,-335.56"/>
</g>
<!-- Node24&#45;&gt;Node31 -->
<g id="edge24" class="edge">
<title>Node24&#45;&gt;Node31</title>
<path fill="none" stroke="midnightblue" d="M468.18,-286.74C478.67,-288.12 489.54,-289.54 500.2,-290.93"/>
<polygon fill="midnightblue" stroke="midnightblue" points="499.98,-294.43 510.35,-292.26 500.89,-287.49 499.98,-294.43"/>
</g>
<!-- Node24&#45;&gt;Node32 -->
<g id="edge25" class="edge">
<title>Node24&#45;&gt;Node32</title>
<path fill="none" stroke="midnightblue" d="M468.18,-267.87C478.67,-266.44 489.54,-264.96 500.2,-263.51"/>
<polygon fill="midnightblue" stroke="midnightblue" points="500.92,-266.94 510.35,-262.12 499.97,-260.01 500.92,-266.94"/>
</g>
<!-- Node24&#45;&gt;Node34 -->
<g id="edge26" class="edge">
<title>Node24&#45;&gt;Node34</title>
<path fill="none" stroke="midnightblue" d="M429.26,-262.32C450.94,-252.21 480.43,-238.91 507,-228.5 512.58,-226.31 518.44,-224.14 524.32,-222.03"/>
<polygon fill="midnightblue" stroke="midnightblue" points="525.9,-225.19 534.18,-218.57 523.58,-218.58 525.9,-225.19"/>
</g>
<!-- Node24&#45;&gt;Node35 -->
<g id="edge27" class="edge">
<title>Node24&#45;&gt;Node35</title>
<path fill="none" stroke="midnightblue" d="M410.48,-262.25C429.58,-240.72 467.29,-201.47 507,-178.5 510.01,-176.76 513.17,-175.12 516.41,-173.59"/>
<polygon fill="midnightblue" stroke="midnightblue" points="517.95,-176.74 525.72,-169.54 515.16,-170.32 517.95,-176.74"/>
</g>
<!-- Node127&#45;&gt;Node14 -->
<g id="edge41" class="edge">
<title>Node127&#45;&gt;Node14</title>
<path fill="none" stroke="midnightblue" d="M447.17,-915.58C455.27,-918.56 463.47,-921.89 471,-925.5 499.88,-939.35 530.44,-959.28 552,-974.33"/>
<polygon fill="midnightblue" stroke="midnightblue" points="550.19,-977.33 560.37,-980.25 554.23,-971.62 550.19,-977.33"/>
</g>
<!-- Node127&#45;&gt;Node128 -->
<g id="edge42" class="edge">
<title>Node127&#45;&gt;Node128</title>
<path fill="none" stroke="midnightblue" d="M448.61,-888.24C470.79,-882.93 496.94,-876.66 520.11,-871.1"/>
<polygon fill="midnightblue" stroke="midnightblue" points="520.93,-874.5 529.84,-868.77 519.3,-867.7 520.93,-874.5"/>
</g>
<!-- Node129&#45;&gt;Node128 -->
<g id="edge45" class="edge">
<title>Node129&#45;&gt;Node128</title>
<path fill="none" stroke="midnightblue" d="M448.61,-824.76C470.79,-830.07 496.94,-836.34 520.11,-841.9"/>
<polygon fill="midnightblue" stroke="midnightblue" points="519.3,-845.3 529.84,-844.23 520.93,-838.5 519.3,-845.3"/>
</g>
<!-- Node129&#45;&gt;Node131 -->
<g id="edge44" class="edge">
<title>Node129&#45;&gt;Node131</title>
<path fill="none" stroke="midnightblue" d="M448.61,-800.52C470.69,-795.35 496.71,-789.25 519.8,-783.84"/>
<polygon fill="midnightblue" stroke="midnightblue" points="520.9,-787.18 529.84,-781.49 519.31,-780.36 520.9,-787.18"/>
</g>
<!-- Node132&#45;&gt;Node14 -->
<g id="edge47" class="edge">
<title>Node132&#45;&gt;Node14</title>
<path fill="none" stroke="midnightblue" d="M448.61,-962.31C468.02,-967.18 490.47,-972.81 511.31,-978.03"/>
<polygon fill="midnightblue" stroke="midnightblue" points="510.52,-981.44 521.07,-980.48 512.22,-974.65 510.52,-981.44"/>
</g>
</g>
</svg>
