<?xml version="1.0" encoding="UTF-8" standalone="no"?>
<!DOCTYPE svg PUBLIC "-//W3C//DTD SVG 1.1//EN"
 "http://www.w3.org/Graphics/SVG/1.1/DTD/svg11.dtd">
<!-- Generated by graphviz version 2.43.0 (0)
 -->
<!-- Title: leanux::tools::lblk::printSlaveTree Pages: 1 -->
<svg width="649pt" height="584pt"
 viewBox="0.00 0.00 649.00 583.50" xmlns="http://www.w3.org/2000/svg" xmlns:xlink="http://www.w3.org/1999/xlink">
<g id="graph0" class="graph" transform="scale(1 1) rotate(0) translate(4 579.5)">
<title>leanux::tools::lblk::printSlaveTree</title>
<!-- Node1 -->
<g id="node1" class="node">
<title>Node1</title>
<g id="a_node1"><a xlink:title="Write the tree of slaves beneath and including mm, append to tab, starting with level.">
<polygon fill="#bfbfbf" stroke="black" points="0,-121 0,-151 104,-151 104,-121 0,-121"/>
<text text-anchor="start" x="8" y="-139" font-family="Helvetica,sans-Serif" font-size="10.00">leanux::tools::lblk</text>
<text text-anchor="middle" x="52" y="-128" font-family="Helvetica,sans-Serif" font-size="10.00">::printSlaveTree</text>
</a>
</g>
</g>
<!-- Node2 -->
<g id="node2" class="node">
<title>Node2</title>
<g id="a_node2"><a xlink:href="../../d8/db1/namespaceleanux_1_1util.html#a979843e3d99f053101f902ec38985833" target="_top" xlink:title="convert a byte value to pretty print string.">
<polygon fill="none" stroke="black" points="155,-397.5 155,-416.5 268,-416.5 268,-397.5 155,-397.5"/>
<text text-anchor="middle" x="211.5" y="-404.5" font-family="Helvetica,sans-Serif" font-size="10.00">leanux::util::ByteStr</text>
</a>
</g>
</g>
<!-- Node1&#45;&gt;Node2 -->
<g id="edge1" class="edge">
<title>Node1&#45;&gt;Node2</title>
<path fill="none" stroke="midnightblue" d="M53.89,-151.16C57.21,-193.83 72.46,-316.17 140,-383 144.02,-386.98 148.73,-390.3 153.77,-393.07"/>
<polygon fill="midnightblue" stroke="midnightblue" points="152.58,-396.38 163.12,-397.48 155.57,-390.05 152.58,-396.38"/>
</g>
<!-- Node3 -->
<g id="node3" class="node">
<title>Node3</title>
<g id="a_node3"><a xlink:href="../../d7/d28/classleanux_1_1block_1_1MajorMinor.html#a5771b2baf04dd79e61c5bcd3f4ec532c" target="_top" xlink:title="Derive the MajorMinor of the whole disk holding a partition.">
<polygon fill="none" stroke="black" points="140,-310 140,-340 283,-340 283,-310 140,-310"/>
<text text-anchor="start" x="148" y="-328" font-family="Helvetica,sans-Serif" font-size="10.00">leanux::block::MajorMinor</text>
<text text-anchor="middle" x="211.5" y="-317" font-family="Helvetica,sans-Serif" font-size="10.00">::deriveWholeDisk</text>
</a>
</g>
</g>
<!-- Node1&#45;&gt;Node3 -->
<g id="edge2" class="edge">
<title>Node1&#45;&gt;Node3</title>
<path fill="none" stroke="midnightblue" d="M65.62,-151.15C93.15,-184.19 158.74,-262.89 191.38,-302.05"/>
<polygon fill="midnightblue" stroke="midnightblue" points="188.73,-304.34 197.82,-309.78 194.1,-299.86 188.73,-304.34"/>
</g>
<!-- Node4 -->
<g id="node4" class="node">
<title>Node4</title>
<g id="a_node4"><a xlink:href="../../d7/d28/classleanux_1_1block_1_1MajorMinor.html#a3f7315088bb27e09449e3c2542b65958" target="_top" xlink:title="Get the MajorMinor for the device name.">
<polygon fill="none" stroke="red" points="319,-545 319,-575 462,-575 462,-545 319,-545"/>
<text text-anchor="start" x="327" y="-563" font-family="Helvetica,sans-Serif" font-size="10.00">leanux::block::MajorMinor</text>
<text text-anchor="middle" x="390.5" y="-552" font-family="Helvetica,sans-Serif" font-size="10.00">::getMajorMinorByName</text>
</a>
</g>
</g>
<!-- Node1&#45;&gt;Node4 -->
<g id="edge16" class="edge">
<title>Node1&#45;&gt;Node4</title>
<path fill="none" stroke="midnightblue" d="M54.57,-151.05C59.45,-190.1 78.01,-295.39 140,-350 189.34,-393.47 236.52,-341.48 283,-388 327.19,-432.23 279.75,-475.33 319,-524 323.97,-530.17 330.28,-535.38 337.08,-539.76"/>
<polygon fill="midnightblue" stroke="midnightblue" points="335.47,-542.88 345.87,-544.87 338.98,-536.82 335.47,-542.88"/>
</g>
<!-- Node8 -->
<g id="node5" class="node">
<title>Node8</title>
<g id="a_node5"><a xlink:href="../../d7/d28/classleanux_1_1block_1_1MajorMinor.html#adc3f437e329318ee21bddbbebaeb740e" target="_top" xlink:title="Get the DeviceName for the MajorMinor.">
<polygon fill="none" stroke="red" points="498,-310 498,-340 641,-340 641,-310 498,-310"/>
<text text-anchor="start" x="506" y="-328" font-family="Helvetica,sans-Serif" font-size="10.00">leanux::block::MajorMinor</text>
<text text-anchor="middle" x="569.5" y="-317" font-family="Helvetica,sans-Serif" font-size="10.00">::getNameByMajorMinor</text>
</a>
</g>
</g>
<!-- Node1&#45;&gt;Node8 -->
<g id="edge19" class="edge">
<title>Node1&#45;&gt;Node8</title>
<path fill="none" stroke="midnightblue" d="M104.36,-132.45C200.39,-126.74 402.78,-119.39 462,-154 517.62,-186.5 548.33,-260.75 561.19,-299.85"/>
<polygon fill="midnightblue" stroke="midnightblue" points="558.01,-301.4 564.35,-309.88 564.68,-299.29 558.01,-301.4"/>
</g>
<!-- Node15 -->
<g id="node13" class="node">
<title>Node15</title>
<g id="a_node13"><a xlink:href="../../d7/d28/classleanux_1_1block_1_1MajorMinor.html#a08c4dd48259318cfd77067e866e05e84" target="_top" xlink:title="get the device name for this MajorMinor.">
<polygon fill="none" stroke="black" points="140,-77 140,-107 283,-107 283,-77 140,-77"/>
<text text-anchor="start" x="148" y="-95" font-family="Helvetica,sans-Serif" font-size="10.00">leanux::block::MajorMinor</text>
<text text-anchor="middle" x="211.5" y="-84" font-family="Helvetica,sans-Serif" font-size="10.00">::getName</text>
</a>
</g>
</g>
<!-- Node1&#45;&gt;Node15 -->
<g id="edge17" class="edge">
<title>Node1&#45;&gt;Node15</title>
<path fill="none" stroke="midnightblue" d="M104.14,-121.71C117.78,-117.9 132.7,-113.74 146.92,-109.76"/>
<polygon fill="midnightblue" stroke="midnightblue" points="147.95,-113.11 156.64,-107.05 146.07,-106.37 147.95,-113.11"/>
</g>
<!-- Node16 -->
<g id="node14" class="node">
<title>Node16</title>
<g id="a_node14"><a xlink:href="../../d8/db1/namespaceleanux_1_1util.html#a0c9555d36d9264d1f0cd246c8ba6da28" target="_top" xlink:title="Convert a double (real number) to a pretty print string.">
<polygon fill="none" stroke="black" points="154.5,-38.5 154.5,-57.5 268.5,-57.5 268.5,-38.5 154.5,-38.5"/>
<text text-anchor="middle" x="211.5" y="-45.5" font-family="Helvetica,sans-Serif" font-size="10.00">leanux::util::NumStr</text>
</a>
</g>
</g>
<!-- Node1&#45;&gt;Node16 -->
<g id="edge20" class="edge">
<title>Node1&#45;&gt;Node16</title>
<path fill="none" stroke="midnightblue" d="M68.38,-120.92C84.83,-105.56 112.31,-82.06 140,-68 145.3,-65.31 151.02,-62.93 156.83,-60.84"/>
<polygon fill="midnightblue" stroke="midnightblue" points="158.23,-64.07 166.62,-57.6 156.03,-57.42 158.23,-64.07"/>
</g>
<!-- Node17 -->
<g id="node15" class="node">
<title>Node17</title>
<g id="a_node15"><a xlink:href="../../d8/db1/namespaceleanux_1_1util.html#a377ec19addd5d3ca3ecee9a2591f6458" target="_top" xlink:title="convert a time duration in seconds to a pretty print string.">
<polygon fill="none" stroke="black" points="145,-0.5 145,-19.5 278,-19.5 278,-0.5 145,-0.5"/>
<text text-anchor="middle" x="211.5" y="-7.5" font-family="Helvetica,sans-Serif" font-size="10.00">leanux::util::TimeStrSec</text>
</a>
</g>
</g>
<!-- Node1&#45;&gt;Node17 -->
<g id="edge21" class="edge">
<title>Node1&#45;&gt;Node17</title>
<path fill="none" stroke="midnightblue" d="M61.22,-120.68C74.58,-97.28 103.25,-52.85 140,-29 143.16,-26.95 146.54,-25.11 150.05,-23.48"/>
<polygon fill="midnightblue" stroke="midnightblue" points="151.62,-26.62 159.55,-19.59 148.97,-20.14 151.62,-26.62"/>
</g>
<!-- Node3&#45;&gt;Node4 -->
<g id="edge3" class="edge">
<title>Node3&#45;&gt;Node4</title>
<path fill="none" stroke="midnightblue" d="M264.66,-340.16C271.61,-344.06 278.03,-348.93 283,-355 333.28,-416.46 268.72,-468.54 319,-530 321.87,-533.51 325.23,-536.62 328.9,-539.37"/>
<polygon fill="midnightblue" stroke="midnightblue" points="327.04,-542.34 337.34,-544.84 330.85,-536.46 327.04,-542.34"/>
</g>
<!-- Node3&#45;&gt;Node8 -->
<g id="edge4" class="edge">
<title>Node3&#45;&gt;Node8</title>
<path fill="none" stroke="midnightblue" d="M264.07,-340.17C271.18,-344.07 277.81,-348.94 283,-355 325.36,-404.44 267.62,-457.02 319,-497 369.16,-536.03 406.48,-527.93 462,-497 518.9,-465.31 549.24,-389.29 561.65,-349.78"/>
<polygon fill="midnightblue" stroke="midnightblue" points="565.03,-350.71 564.56,-340.12 558.33,-348.69 565.03,-350.71"/>
</g>
<!-- Node9 -->
<g id="node6" class="node">
<title>Node9</title>
<g id="a_node6"><a xlink:href="../../d7/d28/classleanux_1_1block_1_1MajorMinor.html#a59e3fe2f1a574b79bad1fe48a2334c27" target="_top" xlink:title="determine if the MajorMinor represents a bcache disk.">
<polygon fill="none" stroke="black" points="319,-457 319,-487 462,-487 462,-457 319,-457"/>
<text text-anchor="start" x="327" y="-475" font-family="Helvetica,sans-Serif" font-size="10.00">leanux::block::MajorMinor</text>
<text text-anchor="middle" x="390.5" y="-464" font-family="Helvetica,sans-Serif" font-size="10.00">::isBCacheDisk</text>
</a>
</g>
</g>
<!-- Node3&#45;&gt;Node9 -->
<g id="edge5" class="edge">
<title>Node3&#45;&gt;Node9</title>
<path fill="none" stroke="midnightblue" d="M262.36,-340.17C269.94,-344.1 277.17,-348.98 283,-355 313.82,-386.85 287.02,-417.31 319,-448 320.11,-449.06 321.26,-450.08 322.46,-451.05"/>
<polygon fill="midnightblue" stroke="midnightblue" points="320.68,-454.07 330.91,-456.83 324.63,-448.29 320.68,-454.07"/>
</g>
<!-- Node10 -->
<g id="node7" class="node">
<title>Node10</title>
<g id="a_node7"><a xlink:href="../../d7/d28/classleanux_1_1block_1_1MajorMinor.html#a546aa9297e382543cb031126190bc8c9" target="_top" xlink:title="determine if the major represents an IDE disk.">
<polygon fill="none" stroke="black" points="319,-408 319,-438 462,-438 462,-408 319,-408"/>
<text text-anchor="start" x="327" y="-426" font-family="Helvetica,sans-Serif" font-size="10.00">leanux::block::MajorMinor</text>
<text text-anchor="middle" x="390.5" y="-415" font-family="Helvetica,sans-Serif" font-size="10.00">::isIDEDisk</text>
</a>
</g>
</g>
<!-- Node3&#45;&gt;Node10 -->
<g id="edge7" class="edge">
<title>Node3&#45;&gt;Node10</title>
<path fill="none" stroke="midnightblue" d="M257.16,-340.14C266.16,-344.23 275.23,-349.17 283,-355 303.21,-370.16 298.24,-384.6 319,-399 321.14,-400.48 323.38,-401.88 325.68,-403.2"/>
<polygon fill="midnightblue" stroke="midnightblue" points="324.38,-406.46 334.88,-407.89 327.56,-400.23 324.38,-406.46"/>
</g>
<!-- Node11 -->
<g id="node8" class="node">
<title>Node11</title>
<g id="a_node8"><a xlink:href="../../d7/d28/classleanux_1_1block_1_1MajorMinor.html#a852aa9e7ee1c107c95cd27ad47b5cf86" target="_top" xlink:title="determine if the MajorMinor represents an MMC disk.">
<polygon fill="none" stroke="black" points="319,-359 319,-389 462,-389 462,-359 319,-359"/>
<text text-anchor="start" x="327" y="-377" font-family="Helvetica,sans-Serif" font-size="10.00">leanux::block::MajorMinor</text>
<text text-anchor="middle" x="390.5" y="-366" font-family="Helvetica,sans-Serif" font-size="10.00">::isMMCDisk</text>
</a>
</g>
</g>
<!-- Node3&#45;&gt;Node11 -->
<g id="edge8" class="edge">
<title>Node3&#45;&gt;Node11</title>
<path fill="none" stroke="midnightblue" d="M267.05,-340.1C285.47,-345.2 306.21,-350.94 325.31,-356.23"/>
<polygon fill="midnightblue" stroke="midnightblue" points="324.56,-359.65 335.13,-358.95 326.43,-352.91 324.56,-359.65"/>
</g>
<!-- Node12 -->
<g id="node9" class="node">
<title>Node12</title>
<g id="a_node9"><a xlink:href="../../d7/d28/classleanux_1_1block_1_1MajorMinor.html#ab248c720a63908f9e3ef78ed23536de8" target="_top" xlink:title="determine if the MajorMinor represents a NVMe disk.">
<polygon fill="none" stroke="black" points="319,-310 319,-340 462,-340 462,-310 319,-310"/>
<text text-anchor="start" x="327" y="-328" font-family="Helvetica,sans-Serif" font-size="10.00">leanux::block::MajorMinor</text>
<text text-anchor="middle" x="390.5" y="-317" font-family="Helvetica,sans-Serif" font-size="10.00">::isNVMeDisk</text>
</a>
</g>
</g>
<!-- Node3&#45;&gt;Node12 -->
<g id="edge10" class="edge">
<title>Node3&#45;&gt;Node12</title>
<path fill="none" stroke="midnightblue" d="M283.22,-325C291.57,-325 300.14,-325 308.62,-325"/>
<polygon fill="midnightblue" stroke="midnightblue" points="308.89,-328.5 318.89,-325 308.89,-321.5 308.89,-328.5"/>
</g>
<!-- Node13 -->
<g id="node10" class="node">
<title>Node13</title>
<g id="a_node10"><a xlink:href="../../d7/d28/classleanux_1_1block_1_1MajorMinor.html#a6c5b98f8ffc7b8904754ecfe33407e8c" target="_top" xlink:title="determine if the major represents a SCSI disk.">
<polygon fill="none" stroke="black" points="319,-261 319,-291 462,-291 462,-261 319,-261"/>
<text text-anchor="start" x="327" y="-279" font-family="Helvetica,sans-Serif" font-size="10.00">leanux::block::MajorMinor</text>
<text text-anchor="middle" x="390.5" y="-268" font-family="Helvetica,sans-Serif" font-size="10.00">::isSCSIDisk</text>
</a>
</g>
</g>
<!-- Node3&#45;&gt;Node13 -->
<g id="edge12" class="edge">
<title>Node3&#45;&gt;Node13</title>
<path fill="none" stroke="midnightblue" d="M267.05,-309.9C285.47,-304.8 306.21,-299.06 325.31,-293.77"/>
<polygon fill="midnightblue" stroke="midnightblue" points="326.43,-297.09 335.13,-291.05 324.56,-290.35 326.43,-297.09"/>
</g>
<!-- Node14 -->
<g id="node11" class="node">
<title>Node14</title>
<g id="a_node11"><a xlink:href="../../d7/d28/classleanux_1_1block_1_1MajorMinor.html#aaa91d26165ff4b7a32cfe052e72463cc" target="_top" xlink:title="determine if the MajorMinor represents a virtio disk.">
<polygon fill="none" stroke="black" points="319,-212 319,-242 462,-242 462,-212 319,-212"/>
<text text-anchor="start" x="327" y="-230" font-family="Helvetica,sans-Serif" font-size="10.00">leanux::block::MajorMinor</text>
<text text-anchor="middle" x="390.5" y="-219" font-family="Helvetica,sans-Serif" font-size="10.00">::isVirtIODisk</text>
</a>
</g>
</g>
<!-- Node3&#45;&gt;Node14 -->
<g id="edge13" class="edge">
<title>Node3&#45;&gt;Node14</title>
<path fill="none" stroke="midnightblue" d="M231.18,-309.95C251.74,-293.95 286.24,-268.68 319,-252 323.26,-249.83 327.75,-247.77 332.32,-245.83"/>
<polygon fill="midnightblue" stroke="midnightblue" points="333.8,-249.01 341.76,-242.02 331.18,-242.52 333.8,-249.01"/>
</g>
<!-- Node6 -->
<g id="node12" class="node">
<title>Node6</title>
<g id="a_node12"><a xlink:href="../../d7/d28/classleanux_1_1block_1_1MajorMinor.html#a464bd4b85ec6d88f850ef7d76e950f44" target="_top" xlink:title="Default constructor.">
<polygon fill="none" stroke="black" points="319,-163 319,-193 462,-193 462,-163 319,-163"/>
<text text-anchor="start" x="327" y="-181" font-family="Helvetica,sans-Serif" font-size="10.00">leanux::block::MajorMinor</text>
<text text-anchor="middle" x="390.5" y="-170" font-family="Helvetica,sans-Serif" font-size="10.00">::MajorMinor</text>
</a>
</g>
</g>
<!-- Node3&#45;&gt;Node6 -->
<g id="edge15" class="edge">
<title>Node3&#45;&gt;Node6</title>
<path fill="none" stroke="midnightblue" d="M222.06,-309.63C238.73,-284.03 275.52,-232.55 319,-203 321.88,-201.04 324.93,-199.22 328.08,-197.53"/>
<polygon fill="midnightblue" stroke="midnightblue" points="329.73,-200.62 337.18,-193.09 326.66,-194.33 329.73,-200.62"/>
</g>
<!-- Node9&#45;&gt;Node8 -->
<g id="edge6" class="edge">
<title>Node9&#45;&gt;Node8</title>
<path fill="none" stroke="midnightblue" d="M445.66,-456.92C451.39,-454.35 456.96,-451.39 462,-448 501.57,-421.35 535.29,-376.32 553.65,-348.77"/>
<polygon fill="midnightblue" stroke="midnightblue" points="556.74,-350.43 559.27,-340.15 550.88,-346.61 556.74,-350.43"/>
</g>
<!-- Node11&#45;&gt;Node8 -->
<g id="edge9" class="edge">
<title>Node11&#45;&gt;Node8</title>
<path fill="none" stroke="midnightblue" d="M446.05,-358.9C464.47,-353.8 485.21,-348.06 504.31,-342.77"/>
<polygon fill="midnightblue" stroke="midnightblue" points="505.43,-346.09 514.13,-340.05 503.56,-339.35 505.43,-346.09"/>
</g>
<!-- Node12&#45;&gt;Node8 -->
<g id="edge11" class="edge">
<title>Node12&#45;&gt;Node8</title>
<path fill="none" stroke="midnightblue" d="M462.22,-325C470.57,-325 479.14,-325 487.62,-325"/>
<polygon fill="midnightblue" stroke="midnightblue" points="487.89,-328.5 497.89,-325 487.89,-321.5 487.89,-328.5"/>
</g>
<!-- Node14&#45;&gt;Node8 -->
<g id="edge14" class="edge">
<title>Node14&#45;&gt;Node8</title>
<path fill="none" stroke="midnightblue" d="M439.24,-242.02C446.99,-245 454.82,-248.35 462,-252 490.8,-266.66 520.93,-287.95 541.76,-303.76"/>
<polygon fill="midnightblue" stroke="midnightblue" points="539.75,-306.63 549.82,-309.95 544.02,-301.08 539.75,-306.63"/>
</g>
<!-- Node15&#45;&gt;Node8 -->
<g id="edge18" class="edge">
<title>Node15&#45;&gt;Node8</title>
<path fill="none" stroke="midnightblue" d="M283.16,-83.05C336.77,-79.99 409.9,-84.22 462,-120 524.92,-163.2 553.15,-255.46 563.49,-299.97"/>
<polygon fill="midnightblue" stroke="midnightblue" points="560.12,-300.94 565.69,-309.95 566.96,-299.43 560.12,-300.94"/>
</g>
<!-- Node18 -->
<g id="node16" class="node">
<title>Node18</title>
<g id="a_node16"><a xlink:href="../../d8/db1/namespaceleanux_1_1util.html#a5178387ce32054e1c460c69b44d8219b" target="_top" xlink:title="convert a time duration in microseconds to a pretty print string.">
<polygon fill="none" stroke="black" points="319,-0.5 319,-19.5 462,-19.5 462,-0.5 319,-0.5"/>
<text text-anchor="middle" x="390.5" y="-7.5" font-family="Helvetica,sans-Serif" font-size="10.00">leanux::util::TimeStrMicro</text>
</a>
</g>
</g>
<!-- Node17&#45;&gt;Node18 -->
<g id="edge22" class="edge">
<title>Node17&#45;&gt;Node18</title>
<path fill="none" stroke="midnightblue" d="M278.16,-10C288.12,-10 298.49,-10 308.73,-10"/>
<polygon fill="midnightblue" stroke="midnightblue" points="308.9,-13.5 318.9,-10 308.9,-6.5 308.9,-13.5"/>
</g>
</g>
</svg>
