<?xml version="1.0" encoding="UTF-8" standalone="no"?>
<!DOCTYPE svg PUBLIC "-//W3C//DTD SVG 1.1//EN"
 "http://www.w3.org/Graphics/SVG/1.1/DTD/svg11.dtd">
<!-- Generated by graphviz version 2.43.0 (0)
 -->
<!-- Title: leanux::tools::lblk::printHolderTree Pages: 1 -->
<svg width="649pt" height="230pt"
 viewBox="0.00 0.00 649.00 230.00" xmlns="http://www.w3.org/2000/svg" xmlns:xlink="http://www.w3.org/1999/xlink">
<g id="graph0" class="graph" transform="scale(1 1) rotate(0) translate(4 226)">
<title>leanux::tools::lblk::printHolderTree</title>
<!-- Node1 -->
<g id="node1" class="node">
<title>Node1</title>
<g id="a_node1"><a xlink:title="Write the tree of holders above and including mm, append to tab, starting with level.">
<polygon fill="#bfbfbf" stroke="black" points="0,-93 0,-123 104,-123 104,-93 0,-93"/>
<text text-anchor="start" x="8" y="-111" font-family="Helvetica,sans-Serif" font-size="10.00">leanux::tools::lblk</text>
<text text-anchor="middle" x="52" y="-100" font-family="Helvetica,sans-Serif" font-size="10.00">::printHolderTree</text>
</a>
</g>
</g>
<!-- Node2 -->
<g id="node2" class="node">
<title>Node2</title>
<g id="a_node2"><a xlink:href="../../d8/db1/namespaceleanux_1_1util.html#a979843e3d99f053101f902ec38985833" target="_top" xlink:title="convert a byte value to pretty print string.">
<polygon fill="none" stroke="black" points="155,-202.5 155,-221.5 268,-221.5 268,-202.5 155,-202.5"/>
<text text-anchor="middle" x="211.5" y="-209.5" font-family="Helvetica,sans-Serif" font-size="10.00">leanux::util::ByteStr</text>
</a>
</g>
</g>
<!-- Node1&#45;&gt;Node2 -->
<g id="edge1" class="edge">
<title>Node1&#45;&gt;Node2</title>
<path fill="none" stroke="midnightblue" d="M65.98,-123.3C81.82,-141.1 110.18,-170.3 140,-188 147.27,-192.32 155.43,-196 163.55,-199.08"/>
<polygon fill="midnightblue" stroke="midnightblue" points="162.4,-202.39 173,-202.43 164.74,-195.79 162.4,-202.39"/>
</g>
<!-- Node3 -->
<g id="node3" class="node">
<title>Node3</title>
<g id="a_node3"><a xlink:href="../../d7/d28/classleanux_1_1block_1_1MajorMinor.html#a3f7315088bb27e09449e3c2542b65958" target="_top" xlink:title="Get the MajorMinor for the device name.">
<polygon fill="none" stroke="black" points="319,-159 319,-189 462,-189 462,-159 319,-159"/>
<text text-anchor="start" x="327" y="-177" font-family="Helvetica,sans-Serif" font-size="10.00">leanux::block::MajorMinor</text>
<text text-anchor="middle" x="390.5" y="-166" font-family="Helvetica,sans-Serif" font-size="10.00">::getMajorMinorByName</text>
</a>
</g>
</g>
<!-- Node1&#45;&gt;Node3 -->
<g id="edge2" class="edge">
<title>Node1&#45;&gt;Node3</title>
<path fill="none" stroke="midnightblue" d="M74.77,-123.12C91.72,-134.03 116.28,-148.03 140,-155 194.88,-171.12 259.32,-175.68 308.96,-176.31"/>
<polygon fill="midnightblue" stroke="midnightblue" points="308.97,-179.81 319,-176.39 309.03,-172.81 308.97,-179.81"/>
</g>
<!-- Node7 -->
<g id="node5" class="node">
<title>Node7</title>
<g id="a_node5"><a xlink:href="../../d7/d28/classleanux_1_1block_1_1MajorMinor.html#a08c4dd48259318cfd77067e866e05e84" target="_top" xlink:title="get the device name for this MajorMinor.">
<polygon fill="none" stroke="black" points="140,-115 140,-145 283,-145 283,-115 140,-115"/>
<text text-anchor="start" x="148" y="-133" font-family="Helvetica,sans-Serif" font-size="10.00">leanux::block::MajorMinor</text>
<text text-anchor="middle" x="211.5" y="-122" font-family="Helvetica,sans-Serif" font-size="10.00">::getName</text>
</a>
</g>
</g>
<!-- Node1&#45;&gt;Node7 -->
<g id="edge4" class="edge">
<title>Node1&#45;&gt;Node7</title>
<path fill="none" stroke="midnightblue" d="M104.14,-115.14C112.42,-116.3 121.18,-117.52 129.96,-118.75"/>
<polygon fill="midnightblue" stroke="midnightblue" points="129.48,-122.22 139.87,-120.13 130.45,-115.28 129.48,-122.22"/>
</g>
<!-- Node8 -->
<g id="node6" class="node">
<title>Node8</title>
<g id="a_node6"><a xlink:href="../../d7/d28/classleanux_1_1block_1_1MajorMinor.html#adc3f437e329318ee21bddbbebaeb740e" target="_top" xlink:title="Get the DeviceName for the MajorMinor.">
<polygon fill="none" stroke="black" points="319,-110 319,-140 462,-140 462,-110 319,-110"/>
<text text-anchor="start" x="327" y="-128" font-family="Helvetica,sans-Serif" font-size="10.00">leanux::block::MajorMinor</text>
<text text-anchor="middle" x="390.5" y="-117" font-family="Helvetica,sans-Serif" font-size="10.00">::getNameByMajorMinor</text>
</a>
</g>
</g>
<!-- Node1&#45;&gt;Node8 -->
<g id="edge7" class="edge">
<title>Node1&#45;&gt;Node8</title>
<path fill="none" stroke="midnightblue" d="M104.06,-106.63C115.86,-106.37 128.37,-106.13 140,-106 203.55,-105.27 219.69,-100.4 283,-106 291.4,-106.74 300.14,-107.81 308.83,-109.07"/>
<polygon fill="midnightblue" stroke="midnightblue" points="308.57,-112.57 318.99,-110.62 309.63,-105.65 308.57,-112.57"/>
</g>
<!-- Node9 -->
<g id="node7" class="node">
<title>Node9</title>
<g id="a_node7"><a xlink:href="../../d8/db1/namespaceleanux_1_1util.html#a0c9555d36d9264d1f0cd246c8ba6da28" target="_top" xlink:title="Convert a double (real number) to a pretty print string.">
<polygon fill="none" stroke="black" points="154.5,-38.5 154.5,-57.5 268.5,-57.5 268.5,-38.5 154.5,-38.5"/>
<text text-anchor="middle" x="211.5" y="-45.5" font-family="Helvetica,sans-Serif" font-size="10.00">leanux::util::NumStr</text>
</a>
</g>
</g>
<!-- Node1&#45;&gt;Node9 -->
<g id="edge8" class="edge">
<title>Node1&#45;&gt;Node9</title>
<path fill="none" stroke="midnightblue" d="M87.93,-92.95C103.74,-86.29 122.71,-78.51 140,-72 150.18,-68.17 161.28,-64.26 171.6,-60.74"/>
<polygon fill="midnightblue" stroke="midnightblue" points="172.84,-64.02 181.19,-57.51 170.6,-57.39 172.84,-64.02"/>
</g>
<!-- Node10 -->
<g id="node8" class="node">
<title>Node10</title>
<g id="a_node8"><a xlink:href="../../d8/db1/namespaceleanux_1_1util.html#a377ec19addd5d3ca3ecee9a2591f6458" target="_top" xlink:title="convert a time duration in seconds to a pretty print string.">
<polygon fill="none" stroke="black" points="145,-0.5 145,-19.5 278,-19.5 278,-0.5 145,-0.5"/>
<text text-anchor="middle" x="211.5" y="-7.5" font-family="Helvetica,sans-Serif" font-size="10.00">leanux::util::TimeStrSec</text>
</a>
</g>
</g>
<!-- Node1&#45;&gt;Node10 -->
<g id="edge9" class="edge">
<title>Node1&#45;&gt;Node10</title>
<path fill="none" stroke="midnightblue" d="M65.55,-92.88C81.19,-75.01 109.57,-45.64 140,-29 144.16,-26.73 148.61,-24.71 153.18,-22.93"/>
<polygon fill="midnightblue" stroke="midnightblue" points="154.39,-26.21 162.66,-19.58 152.06,-19.61 154.39,-26.21"/>
</g>
<!-- Node4 -->
<g id="node4" class="node">
<title>Node4</title>
<g id="a_node4"><a xlink:href="../../d7/d28/classleanux_1_1block_1_1MajorMinor.html#a4d83c063088eb618533f31e2cc78b2f3" target="_top" xlink:title="(re)build the cached mapping between device names and MajorMinor numbers.">
<polygon fill="none" stroke="red" points="498,-134 498,-164 641,-164 641,-134 498,-134"/>
<text text-anchor="start" x="506" y="-152" font-family="Helvetica,sans-Serif" font-size="10.00">leanux::block::MajorMinor</text>
<text text-anchor="middle" x="569.5" y="-141" font-family="Helvetica,sans-Serif" font-size="10.00">::buildCache</text>
</a>
</g>
</g>
<!-- Node3&#45;&gt;Node4 -->
<g id="edge3" class="edge">
<title>Node3&#45;&gt;Node4</title>
<path fill="none" stroke="midnightblue" d="M462.22,-164.01C470.66,-162.82 479.33,-161.59 487.9,-160.38"/>
<polygon fill="midnightblue" stroke="midnightblue" points="488.48,-163.84 497.89,-158.97 487.5,-156.91 488.48,-163.84"/>
</g>
<!-- Node7&#45;&gt;Node8 -->
<g id="edge5" class="edge">
<title>Node7&#45;&gt;Node8</title>
<path fill="none" stroke="midnightblue" d="M283.22,-128C291.57,-127.77 300.14,-127.52 308.62,-127.28"/>
<polygon fill="midnightblue" stroke="midnightblue" points="309,-130.78 318.89,-126.99 308.8,-123.78 309,-130.78"/>
</g>
<!-- Node8&#45;&gt;Node4 -->
<g id="edge6" class="edge">
<title>Node8&#45;&gt;Node4</title>
<path fill="none" stroke="midnightblue" d="M462.22,-134.59C470.66,-135.73 479.33,-136.91 487.9,-138.07"/>
<polygon fill="midnightblue" stroke="midnightblue" points="487.51,-141.55 497.89,-139.43 488.46,-134.61 487.51,-141.55"/>
</g>
<!-- Node11 -->
<g id="node9" class="node">
<title>Node11</title>
<g id="a_node9"><a xlink:href="../../d8/db1/namespaceleanux_1_1util.html#a5178387ce32054e1c460c69b44d8219b" target="_top" xlink:title="convert a time duration in microseconds to a pretty print string.">
<polygon fill="none" stroke="black" points="319,-0.5 319,-19.5 462,-19.5 462,-0.5 319,-0.5"/>
<text text-anchor="middle" x="390.5" y="-7.5" font-family="Helvetica,sans-Serif" font-size="10.00">leanux::util::TimeStrMicro</text>
</a>
</g>
</g>
<!-- Node10&#45;&gt;Node11 -->
<g id="edge10" class="edge">
<title>Node10&#45;&gt;Node11</title>
<path fill="none" stroke="midnightblue" d="M278.16,-10C288.12,-10 298.49,-10 308.73,-10"/>
<polygon fill="midnightblue" stroke="midnightblue" points="308.9,-13.5 318.9,-10 308.9,-6.5 308.9,-13.5"/>
</g>
</g>
</svg>
