<?xml version="1.0" encoding="UTF-8" standalone="no"?>
<!DOCTYPE svg PUBLIC "-//W3C//DTD SVG 1.1//EN"
 "http://www.w3.org/Graphics/SVG/1.1/DTD/svg11.dtd">
<!-- Generated by graphviz version 2.43.0 (0)
 -->
<!-- Title: leanux::tools::lblk::listAllDisks Pages: 1 -->
<svg width="473pt" height="154pt"
 viewBox="0.00 0.00 473.00 154.00" xmlns="http://www.w3.org/2000/svg" xmlns:xlink="http://www.w3.org/1999/xlink">
<g id="graph0" class="graph" transform="scale(1 1) rotate(0) translate(4 150)">
<title>leanux::tools::lblk::listAllDisks</title>
<!-- Node1 -->
<g id="node1" class="node">
<title>Node1</title>
<g id="a_node1"><a xlink:title="Table listing all disks.">
<polygon fill="#bfbfbf" stroke="black" points="0,-55 0,-85 104,-85 104,-55 0,-55"/>
<text text-anchor="start" x="8" y="-73" font-family="Helvetica,sans-Serif" font-size="10.00">leanux::tools::lblk</text>
<text text-anchor="middle" x="52" y="-62" font-family="Helvetica,sans-Serif" font-size="10.00">::listAllDisks</text>
</a>
</g>
</g>
<!-- Node2 -->
<g id="node2" class="node">
<title>Node2</title>
<g id="a_node2"><a xlink:href="../../d8/db1/namespaceleanux_1_1util.html#a979843e3d99f053101f902ec38985833" target="_top" xlink:title="convert a byte value to pretty print string.">
<polygon fill="none" stroke="black" points="156.5,-126.5 156.5,-145.5 269.5,-145.5 269.5,-126.5 156.5,-126.5"/>
<text text-anchor="middle" x="213" y="-133.5" font-family="Helvetica,sans-Serif" font-size="10.00">leanux::util::ByteStr</text>
</a>
</g>
</g>
<!-- Node1&#45;&gt;Node2 -->
<g id="edge1" class="edge">
<title>Node1&#45;&gt;Node2</title>
<path fill="none" stroke="midnightblue" d="M77.37,-85.2C94.41,-95.31 117.97,-108.29 140,-117 146.22,-119.46 152.87,-121.7 159.51,-123.71"/>
<polygon fill="midnightblue" stroke="midnightblue" points="158.62,-127.1 169.2,-126.49 160.55,-120.37 158.62,-127.1"/>
</g>
<!-- Node3 -->
<g id="node3" class="node">
<title>Node3</title>
<g id="a_node3"><a xlink:href="../../d5/d01/namespaceleanux_1_1block.html#ac08a21002b48cb1bbfaf8d77b4aac5f6" target="_top" xlink:title="get a list of whole disks (exclude partitions).">
<polygon fill="none" stroke="black" points="140,-77 140,-107 286,-107 286,-77 140,-77"/>
<text text-anchor="start" x="148" y="-95" font-family="Helvetica,sans-Serif" font-size="10.00">leanux::block::enumWhole</text>
<text text-anchor="middle" x="213" y="-84" font-family="Helvetica,sans-Serif" font-size="10.00">Disks</text>
</a>
</g>
</g>
<!-- Node1&#45;&gt;Node3 -->
<g id="edge2" class="edge">
<title>Node1&#45;&gt;Node3</title>
<path fill="none" stroke="midnightblue" d="M104.18,-77.08C112.34,-78.21 120.95,-79.4 129.61,-80.6"/>
<polygon fill="midnightblue" stroke="midnightblue" points="129.39,-84.1 139.77,-82.01 130.35,-77.17 129.39,-84.1"/>
</g>
<!-- Node4 -->
<g id="node4" class="node">
<title>Node4</title>
<g id="a_node4"><a xlink:href="../../d8/db1/namespaceleanux_1_1util.html#a0c9555d36d9264d1f0cd246c8ba6da28" target="_top" xlink:title="Convert a double (real number) to a pretty print string.">
<polygon fill="none" stroke="black" points="156,-38.5 156,-57.5 270,-57.5 270,-38.5 156,-38.5"/>
<text text-anchor="middle" x="213" y="-45.5" font-family="Helvetica,sans-Serif" font-size="10.00">leanux::util::NumStr</text>
</a>
</g>
</g>
<!-- Node1&#45;&gt;Node4 -->
<g id="edge3" class="edge">
<title>Node1&#45;&gt;Node4</title>
<path fill="none" stroke="midnightblue" d="M104.18,-62.92C117.48,-61.08 131.99,-59.07 145.93,-57.14"/>
<polygon fill="midnightblue" stroke="midnightblue" points="146.53,-60.59 155.96,-55.75 145.57,-53.66 146.53,-60.59"/>
</g>
<!-- Node5 -->
<g id="node5" class="node">
<title>Node5</title>
<g id="a_node5"><a xlink:href="../../d8/db1/namespaceleanux_1_1util.html#a377ec19addd5d3ca3ecee9a2591f6458" target="_top" xlink:title="convert a time duration in seconds to a pretty print string.">
<polygon fill="none" stroke="black" points="146.5,-0.5 146.5,-19.5 279.5,-19.5 279.5,-0.5 146.5,-0.5"/>
<text text-anchor="middle" x="213" y="-7.5" font-family="Helvetica,sans-Serif" font-size="10.00">leanux::util::TimeStrSec</text>
</a>
</g>
</g>
<!-- Node1&#45;&gt;Node5 -->
<g id="edge4" class="edge">
<title>Node1&#45;&gt;Node5</title>
<path fill="none" stroke="midnightblue" d="M81.44,-54.98C98.17,-46.56 119.92,-36.31 140,-29 146.53,-26.62 153.49,-24.41 160.42,-22.39"/>
<polygon fill="midnightblue" stroke="midnightblue" points="161.79,-25.64 170.48,-19.58 159.91,-18.9 161.79,-25.64"/>
</g>
<!-- Node6 -->
<g id="node6" class="node">
<title>Node6</title>
<g id="a_node6"><a xlink:href="../../d8/db1/namespaceleanux_1_1util.html#a5178387ce32054e1c460c69b44d8219b" target="_top" xlink:title="convert a time duration in microseconds to a pretty print string.">
<polygon fill="none" stroke="black" points="322,-0.5 322,-19.5 465,-19.5 465,-0.5 322,-0.5"/>
<text text-anchor="middle" x="393.5" y="-7.5" font-family="Helvetica,sans-Serif" font-size="10.00">leanux::util::TimeStrMicro</text>
</a>
</g>
</g>
<!-- Node5&#45;&gt;Node6 -->
<g id="edge5" class="edge">
<title>Node5&#45;&gt;Node6</title>
<path fill="none" stroke="midnightblue" d="M279.71,-10C290.1,-10 300.96,-10 311.65,-10"/>
<polygon fill="midnightblue" stroke="midnightblue" points="311.83,-13.5 321.83,-10 311.83,-6.5 311.83,-13.5"/>
</g>
</g>
</svg>
