<?xml version="1.0" encoding="UTF-8" standalone="no"?>
<!DOCTYPE svg PUBLIC "-//W3C//DTD SVG 1.1//EN"
 "http://www.w3.org/Graphics/SVG/1.1/DTD/svg11.dtd">
<!-- Generated by graphviz version 2.43.0 (0)
 -->
<!-- Title: leanux::process::ProcPidIO Pages: 1 -->
<svg width="158pt" height="172pt"
 viewBox="0.00 0.00 158.00 172.00" xmlns="http://www.w3.org/2000/svg" xmlns:xlink="http://www.w3.org/1999/xlink">
<g id="graph0" class="graph" transform="scale(1 1) rotate(0) translate(4 168)">
<title>leanux::process::ProcPidIO</title>
<!-- Node1 -->
<g id="node1" class="node">
<title>Node1</title>
<g id="a_node1"><a xlink:title="Process IO details from /proc/pid/io.">
<polygon fill="#bfbfbf" stroke="black" points="0,-0.5 0,-19.5 146,-19.5 146,-0.5 0,-0.5"/>
<text text-anchor="middle" x="73" y="-7.5" font-family="Helvetica,sans-Serif" font-size="10.00">leanux::process::ProcPidIO</text>
</a>
</g>
</g>
<!-- Node2 -->
<g id="node2" class="node">
<title>Node2</title>
<g id="a_node2"><a xlink:title=" ">
<polygon fill="none" stroke="#bfbfbf" points="54,-144.5 54,-163.5 92,-163.5 92,-144.5 54,-144.5"/>
<text text-anchor="middle" x="73" y="-151.5" font-family="Helvetica,sans-Serif" font-size="10.00">long</text>
</a>
</g>
</g>
<!-- Node2&#45;&gt;Node1 -->
<g id="edge1" class="edge">
<title>Node2&#45;&gt;Node1</title>
<path fill="none" stroke="#9a32cd" stroke-dasharray="5,2" d="M73,-134.11C73,-102.93 73,-41.93 73,-19.52"/>
<polygon fill="#9a32cd" stroke="#9a32cd" points="69.5,-134.12 73,-144.12 76.5,-134.12 69.5,-134.12"/>
<text text-anchor="middle" x="111.5" y="-118" font-family="Helvetica,sans-Serif" font-size="10.00"> rchar</text>
<text text-anchor="middle" x="111.5" y="-107" font-family="Helvetica,sans-Serif" font-size="10.00">read_bytes</text>
<text text-anchor="middle" x="111.5" y="-96" font-family="Helvetica,sans-Serif" font-size="10.00">syscr</text>
<text text-anchor="middle" x="111.5" y="-85" font-family="Helvetica,sans-Serif" font-size="10.00">wchar</text>
<text text-anchor="start" x="73" y="-74" font-family="Helvetica,sans-Serif" font-size="10.00">cancelled_write</text>
<text text-anchor="middle" x="111.5" y="-63" font-family="Helvetica,sans-Serif" font-size="10.00">_bytes</text>
<text text-anchor="middle" x="111.5" y="-52" font-family="Helvetica,sans-Serif" font-size="10.00">syscw</text>
<text text-anchor="middle" x="111.5" y="-41" font-family="Helvetica,sans-Serif" font-size="10.00">write_bytes</text>
</g>
</g>
</svg>
