<?xml version="1.0" encoding="UTF-8" standalone="no"?>
<!DOCTYPE svg PUBLIC "-//W3C//DTD SVG 1.1//EN"
 "http://www.w3.org/Graphics/SVG/1.1/DTD/svg11.dtd">
<!-- Generated by graphviz version 2.43.0 (0)
 -->
<!-- Title: main Pages: 1 -->
<svg width="538pt" height="673pt"
 viewBox="0.00 0.00 538.00 673.00" xmlns="http://www.w3.org/2000/svg" xmlns:xlink="http://www.w3.org/1999/xlink">
<g id="graph0" class="graph" transform="scale(1 1) rotate(0) translate(4 669)">
<title>main</title>
<!-- Node1 -->
<g id="node1" class="node">
<title>Node1</title>
<g id="a_node1"><a xlink:title="lmon entry point.">
<polygon fill="#bfbfbf" stroke="black" points="0,-339 0,-358 41,-358 41,-339 0,-339"/>
<text text-anchor="middle" x="20.5" y="-346" font-family="Helvetica,sans-Serif" font-size="10.00">main</text>
</a>
</g>
</g>
<!-- Node2 -->
<g id="node2" class="node">
<title>Node2</title>
<g id="a_node2"><a xlink:href="../../da/dbe/namespaceleanux_1_1tools_1_1lmon.html#a7f59af183bc55b66e3dc0844b473daaf" target="_top" xlink:title=" ">
<polygon fill="none" stroke="black" points="77,-333.5 77,-363.5 187,-363.5 187,-333.5 77,-333.5"/>
<text text-anchor="start" x="85" y="-351.5" font-family="Helvetica,sans-Serif" font-size="10.00">leanux::tools::lmon</text>
<text text-anchor="middle" x="132" y="-340.5" font-family="Helvetica,sans-Serif" font-size="10.00">::main</text>
</a>
</g>
</g>
<!-- Node1&#45;&gt;Node2 -->
<g id="edge1" class="edge">
<title>Node1&#45;&gt;Node2</title>
<path fill="none" stroke="midnightblue" d="M41.08,-348.5C48.49,-348.5 57.38,-348.5 66.66,-348.5"/>
<polygon fill="midnightblue" stroke="midnightblue" points="66.83,-352 76.83,-348.5 66.83,-345 66.83,-352"/>
</g>
<!-- Node3 -->
<g id="node3" class="node">
<title>Node3</title>
<g id="a_node3"><a xlink:href="../../de/d84/classleanux_1_1util_1_1ConfigFile.html#a7be94593ad2b942e9a47163e09839d88" target="_top" xlink:title="declare the configuration paramater and set a hardcoded default.">
<polygon fill="none" stroke="black" points="241,-634.5 241,-664.5 366,-664.5 366,-634.5 241,-634.5"/>
<text text-anchor="start" x="249" y="-652.5" font-family="Helvetica,sans-Serif" font-size="10.00">leanux::util::ConfigFile</text>
<text text-anchor="middle" x="303.5" y="-641.5" font-family="Helvetica,sans-Serif" font-size="10.00">::declareParameter</text>
</a>
</g>
</g>
<!-- Node2&#45;&gt;Node3 -->
<g id="edge2" class="edge">
<title>Node2&#45;&gt;Node3</title>
<path fill="none" stroke="midnightblue" d="M133.34,-363.82C135.23,-410.05 147.23,-549.52 223,-624.5 225.73,-627.2 228.75,-629.61 231.97,-631.77"/>
<polygon fill="midnightblue" stroke="midnightblue" points="230.48,-634.95 240.9,-636.87 233.96,-628.87 230.48,-634.95"/>
</g>
<!-- Node4 -->
<g id="node4" class="node">
<title>Node4</title>
<g id="a_node4"><a xlink:href="../../d8/db1/namespaceleanux_1_1util.html#a6421ca2c46c56eebe1a486c6a498ce7d" target="_top" xlink:title="Test if a file exists and can be read.">
<polygon fill="none" stroke="black" points="228,-596 228,-615 379,-615 379,-596 228,-596"/>
<text text-anchor="middle" x="303.5" y="-603" font-family="Helvetica,sans-Serif" font-size="10.00">leanux::util::fileReadAccess</text>
</a>
</g>
</g>
<!-- Node2&#45;&gt;Node4 -->
<g id="edge3" class="edge">
<title>Node2&#45;&gt;Node4</title>
<path fill="none" stroke="midnightblue" d="M134.01,-363.75C137.65,-406.04 153.87,-525.63 223,-586.5 224.77,-588.06 226.65,-589.5 228.62,-590.83"/>
<polygon fill="midnightblue" stroke="midnightblue" points="227.27,-594.09 237.7,-595.94 230.71,-587.99 227.27,-594.09"/>
</g>
<!-- Node5 -->
<g id="node5" class="node">
<title>Node5</title>
<g id="a_node5"><a xlink:href="../../de/d84/classleanux_1_1util_1_1ConfigFile.html#a8cef175948cd9727c732de3a605c99ba" target="_top" xlink:title="Get the ConfigurationFile object for the appname, or construct one if it does not exist.">
<polygon fill="none" stroke="black" points="241,-546.5 241,-576.5 366,-576.5 366,-546.5 241,-546.5"/>
<text text-anchor="start" x="249" y="-564.5" font-family="Helvetica,sans-Serif" font-size="10.00">leanux::util::ConfigFile</text>
<text text-anchor="middle" x="303.5" y="-553.5" font-family="Helvetica,sans-Serif" font-size="10.00">::getConfig</text>
</a>
</g>
</g>
<!-- Node2&#45;&gt;Node5 -->
<g id="edge4" class="edge">
<title>Node2&#45;&gt;Node5</title>
<path fill="none" stroke="midnightblue" d="M135.95,-363.67C143.67,-399.24 167.78,-488.6 223,-536.5 225.71,-538.85 228.63,-540.97 231.71,-542.9"/>
<polygon fill="midnightblue" stroke="midnightblue" points="230.27,-546.1 240.73,-547.82 233.62,-539.96 230.27,-546.1"/>
</g>
<!-- Node6 -->
<g id="node6" class="node">
<title>Node6</title>
<g id="a_node6"><a xlink:href="../../d8/d4a/classleanux_1_1Oops.html#a144d78069f0bb6388bbd1db6385418d2" target="_top" xlink:title="Get the Oops message.">
<polygon fill="none" stroke="black" points="230.5,-508 230.5,-527 376.5,-527 376.5,-508 230.5,-508"/>
<text text-anchor="middle" x="303.5" y="-515" font-family="Helvetica,sans-Serif" font-size="10.00">leanux::Oops::getMessage</text>
</a>
</g>
</g>
<!-- Node2&#45;&gt;Node6 -->
<g id="edge5" class="edge">
<title>Node2&#45;&gt;Node6</title>
<path fill="none" stroke="midnightblue" d="M137.6,-363.56C147.74,-394.08 174.99,-463.31 223,-498.5 225.55,-500.37 228.26,-502.06 231.08,-503.58"/>
<polygon fill="midnightblue" stroke="midnightblue" points="229.86,-506.87 240.41,-507.91 232.81,-500.53 229.86,-506.87"/>
</g>
<!-- Node7 -->
<g id="node7" class="node">
<title>Node7</title>
<g id="a_node7"><a xlink:href="../../d8/db1/namespaceleanux_1_1util.html#a7929eea191b64631040f40891e20ab97" target="_top" xlink:title="Return the config dir for the current user.">
<polygon fill="none" stroke="black" points="223,-470 223,-489 384,-489 384,-470 223,-470"/>
<text text-anchor="middle" x="303.5" y="-477" font-family="Helvetica,sans-Serif" font-size="10.00">leanux::util::getUserConfigDir</text>
</a>
</g>
</g>
<!-- Node2&#45;&gt;Node7 -->
<g id="edge6" class="edge">
<title>Node2&#45;&gt;Node7</title>
<path fill="none" stroke="midnightblue" d="M140.93,-363.87C154.37,-388.32 184.01,-435.82 223,-460.5 226.34,-462.62 229.9,-464.5 233.59,-466.17"/>
<polygon fill="midnightblue" stroke="midnightblue" points="232.39,-469.46 242.97,-469.91 234.98,-462.95 232.39,-469.46"/>
</g>
<!-- Node8 -->
<g id="node8" class="node">
<title>Node8</title>
<g id="a_node8"><a xlink:href="../../d2/dd1/namespaceleanux.html#a757c5a3a5fb84a0ab93de54fd0c8db30" target="_top" xlink:title="Initialize leanux, run checks to verify leanux is compatible with the runtime environment.">
<polygon fill="none" stroke="red" points="268,-432 268,-451 339,-451 339,-432 268,-432"/>
<text text-anchor="middle" x="303.5" y="-439" font-family="Helvetica,sans-Serif" font-size="10.00">leanux::init</text>
</a>
</g>
</g>
<!-- Node2&#45;&gt;Node8 -->
<g id="edge7" class="edge">
<title>Node2&#45;&gt;Node8</title>
<path fill="none" stroke="midnightblue" d="M147.1,-363.66C163.67,-380.55 192.75,-407.46 223,-422.5 233.71,-427.83 245.99,-431.7 257.64,-434.51"/>
<polygon fill="midnightblue" stroke="midnightblue" points="257.15,-437.99 267.67,-436.71 258.65,-431.15 257.15,-437.99"/>
</g>
<!-- Node23 -->
<g id="node9" class="node">
<title>Node23</title>
<g id="a_node9"><a xlink:href="../../da/dbe/namespaceleanux_1_1tools_1_1lmon.html#af9a7d2a8502671d378b18bb241adbb29" target="_top" xlink:title=" ">
<polygon fill="none" stroke="black" points="248.5,-382.5 248.5,-412.5 358.5,-412.5 358.5,-382.5 248.5,-382.5"/>
<text text-anchor="start" x="256.5" y="-400.5" font-family="Helvetica,sans-Serif" font-size="10.00">leanux::tools::lmon</text>
<text text-anchor="middle" x="303.5" y="-389.5" font-family="Helvetica,sans-Serif" font-size="10.00">::printHelp</text>
</a>
</g>
</g>
<!-- Node2&#45;&gt;Node23 -->
<g id="edge8" class="edge">
<title>Node2&#45;&gt;Node23</title>
<path fill="none" stroke="midnightblue" d="M185.24,-363.6C202.8,-368.68 222.56,-374.39 240.78,-379.66"/>
<polygon fill="midnightblue" stroke="midnightblue" points="239.86,-383.03 250.43,-382.45 241.8,-376.31 239.86,-383.03"/>
</g>
<!-- Node24 -->
<g id="node10" class="node">
<title>Node24</title>
<g id="a_node10"><a xlink:href="../../d5/de6/classleanux_1_1tools_1_1lmon_1_1Screen.html#a010f9459d506af3a4251ea0a644282bd" target="_top" xlink:title="Run the Screen in history mode.">
<polygon fill="none" stroke="red" points="247,-333.5 247,-363.5 360,-363.5 360,-333.5 247,-333.5"/>
<text text-anchor="start" x="255" y="-351.5" font-family="Helvetica,sans-Serif" font-size="10.00">leanux::tools::lmon</text>
<text text-anchor="middle" x="303.5" y="-340.5" font-family="Helvetica,sans-Serif" font-size="10.00">::Screen::runHistory</text>
</a>
</g>
</g>
<!-- Node2&#45;&gt;Node24 -->
<g id="edge9" class="edge">
<title>Node2&#45;&gt;Node24</title>
<path fill="none" stroke="midnightblue" d="M187.1,-348.5C202.9,-348.5 220.35,-348.5 236.79,-348.5"/>
<polygon fill="midnightblue" stroke="midnightblue" points="236.88,-352 246.88,-348.5 236.88,-345 236.88,-352"/>
</g>
<!-- Node89 -->
<g id="node11" class="node">
<title>Node89</title>
<g id="a_node11"><a xlink:href="../../d5/de6/classleanux_1_1tools_1_1lmon_1_1Screen.html#aa3dfc925603031c15d1cd88405ca3c11" target="_top" xlink:title="Run the Screen in realtime mode.">
<polygon fill="none" stroke="red" points="242.5,-284.5 242.5,-314.5 364.5,-314.5 364.5,-284.5 242.5,-284.5"/>
<text text-anchor="start" x="250.5" y="-302.5" font-family="Helvetica,sans-Serif" font-size="10.00">leanux::tools::lmon</text>
<text text-anchor="middle" x="303.5" y="-291.5" font-family="Helvetica,sans-Serif" font-size="10.00">::Screen::runRealtime</text>
</a>
</g>
</g>
<!-- Node2&#45;&gt;Node89 -->
<g id="edge10" class="edge">
<title>Node2&#45;&gt;Node89</title>
<path fill="none" stroke="midnightblue" d="M185.24,-333.4C202.8,-328.32 222.56,-322.61 240.78,-317.34"/>
<polygon fill="midnightblue" stroke="midnightblue" points="241.8,-320.69 250.43,-314.55 239.86,-313.97 241.8,-320.69"/>
</g>
<!-- Node139 -->
<g id="node12" class="node">
<title>Node139</title>
<g id="a_node12"><a xlink:href="../../de/d84/classleanux_1_1util_1_1ConfigFile.html#ad044e490e3603309c05ed01e06833b11" target="_top" xlink:title="set the application name and config file name.">
<polygon fill="none" stroke="red" points="241,-235.5 241,-265.5 366,-265.5 366,-235.5 241,-235.5"/>
<text text-anchor="start" x="249" y="-253.5" font-family="Helvetica,sans-Serif" font-size="10.00">leanux::util::ConfigFile</text>
<text text-anchor="middle" x="303.5" y="-242.5" font-family="Helvetica,sans-Serif" font-size="10.00">::setConfig</text>
</a>
</g>
</g>
<!-- Node2&#45;&gt;Node139 -->
<g id="edge11" class="edge">
<title>Node2&#45;&gt;Node139</title>
<path fill="none" stroke="midnightblue" d="M147.95,-333.34C164.82,-317 193.76,-291.21 223,-275.5 227.16,-273.26 231.56,-271.19 236.05,-269.28"/>
<polygon fill="midnightblue" stroke="midnightblue" points="237.39,-272.51 245.4,-265.57 234.81,-266.01 237.39,-272.51"/>
</g>
<!-- Node142 -->
<g id="node13" class="node">
<title>Node142</title>
<g id="a_node13"><a xlink:href="../../d9/d11/classleanux_1_1util_1_1Tracer.html#aa0f9d4ea1057730f331288be97102add" target="_top" xlink:title="Initialize the singleton.">
<polygon fill="none" stroke="red" points="250,-186.5 250,-216.5 357,-216.5 357,-186.5 250,-186.5"/>
<text text-anchor="start" x="258" y="-204.5" font-family="Helvetica,sans-Serif" font-size="10.00">leanux::util::Tracer</text>
<text text-anchor="middle" x="303.5" y="-193.5" font-family="Helvetica,sans-Serif" font-size="10.00">::setTracer</text>
</a>
</g>
</g>
<!-- Node2&#45;&gt;Node142 -->
<g id="edge12" class="edge">
<title>Node2&#45;&gt;Node142</title>
<path fill="none" stroke="midnightblue" d="M140.15,-333.33C153.07,-307.57 182.73,-255.25 223,-226.5 228.26,-222.75 234.09,-219.55 240.15,-216.81"/>
<polygon fill="midnightblue" stroke="midnightblue" points="241.85,-219.9 249.8,-212.9 239.22,-213.41 241.85,-219.9"/>
</g>
<!-- Node144 -->
<g id="node14" class="node">
<title>Node144</title>
<g id="a_node14"><a xlink:href="../../da/dbe/namespaceleanux_1_1tools_1_1lmon.html#a0e5ec350e635a8a5cbda99cc700f83c7" target="_top" xlink:title="handle signals such a CTRL&#45;C.">
<polygon fill="none" stroke="black" points="248.5,-137.5 248.5,-167.5 358.5,-167.5 358.5,-137.5 248.5,-137.5"/>
<text text-anchor="start" x="256.5" y="-155.5" font-family="Helvetica,sans-Serif" font-size="10.00">leanux::tools::lmon</text>
<text text-anchor="middle" x="303.5" y="-144.5" font-family="Helvetica,sans-Serif" font-size="10.00">::sig_handler</text>
</a>
</g>
</g>
<!-- Node2&#45;&gt;Node144 -->
<g id="edge13" class="edge">
<title>Node2&#45;&gt;Node144</title>
<path fill="none" stroke="midnightblue" d="M136.71,-333.46C145.66,-300.28 171.62,-220.39 223,-177.5 227.81,-173.48 233.27,-170.11 239.02,-167.28"/>
<polygon fill="midnightblue" stroke="midnightblue" points="240.47,-170.46 248.24,-163.26 237.68,-164.05 240.47,-170.46"/>
</g>
<!-- Node145 -->
<g id="node15" class="node">
<title>Node145</title>
<g id="a_node15"><a xlink:href="../../d5/de6/classleanux_1_1tools_1_1lmon_1_1Screen.html#aaf8d592184fafa6a7f80b66fa7e4caff" target="_top" xlink:title="Stop the Screen.">
<polygon fill="none" stroke="black" points="420,-115.5 420,-145.5 530,-145.5 530,-115.5 420,-115.5"/>
<text text-anchor="start" x="428" y="-133.5" font-family="Helvetica,sans-Serif" font-size="10.00">leanux::tools::lmon</text>
<text text-anchor="middle" x="475" y="-122.5" font-family="Helvetica,sans-Serif" font-size="10.00">::Screen::Stop</text>
</a>
</g>
</g>
<!-- Node2&#45;&gt;Node145 -->
<g id="edge15" class="edge">
<title>Node2&#45;&gt;Node145</title>
<path fill="none" stroke="midnightblue" d="M133.79,-333.24C136.86,-291.68 151.74,-176.34 223,-128.5 280.22,-90.08 362.54,-99.9 417.11,-113.01"/>
<polygon fill="midnightblue" stroke="midnightblue" points="416.41,-116.44 426.96,-115.49 418.11,-109.66 416.41,-116.44"/>
</g>
<!-- Node146 -->
<g id="node16" class="node">
<title>Node146</title>
<g id="a_node16"><a xlink:href="../../da/dbe/namespaceleanux_1_1tools_1_1lmon.html#a74b9d0f91075fc4d3f46a9e0e3213248" target="_top" xlink:title=" ">
<polygon fill="none" stroke="red" points="248.5,-49.5 248.5,-79.5 358.5,-79.5 358.5,-49.5 248.5,-49.5"/>
<text text-anchor="start" x="256.5" y="-67.5" font-family="Helvetica,sans-Serif" font-size="10.00">leanux::tools::lmon</text>
<text text-anchor="middle" x="303.5" y="-56.5" font-family="Helvetica,sans-Serif" font-size="10.00">::verifyDatabase</text>
</a>
</g>
</g>
<!-- Node2&#45;&gt;Node146 -->
<g id="edge16" class="edge">
<title>Node2&#45;&gt;Node146</title>
<path fill="none" stroke="midnightblue" d="M134.04,-333.33C137.81,-290.04 154.4,-164.5 223,-94.5 227.72,-89.69 233.28,-85.63 239.24,-82.23"/>
<polygon fill="midnightblue" stroke="midnightblue" points="240.87,-85.33 248.21,-77.68 237.71,-79.08 240.87,-85.33"/>
</g>
<!-- Node147 -->
<g id="node17" class="node">
<title>Node147</title>
<g id="a_node17"><a xlink:href="../../de/d84/classleanux_1_1util_1_1ConfigFile.html#a51029ba31414b49297e706fe40832a6f" target="_top" xlink:title="write out the configuration file, including runtime modifications.">
<polygon fill="none" stroke="red" points="241,-0.5 241,-30.5 366,-30.5 366,-0.5 241,-0.5"/>
<text text-anchor="start" x="249" y="-18.5" font-family="Helvetica,sans-Serif" font-size="10.00">leanux::util::ConfigFile</text>
<text text-anchor="middle" x="303.5" y="-7.5" font-family="Helvetica,sans-Serif" font-size="10.00">::write</text>
</a>
</g>
</g>
<!-- Node2&#45;&gt;Node147 -->
<g id="edge17" class="edge">
<title>Node2&#45;&gt;Node147</title>
<path fill="none" stroke="midnightblue" d="M132.74,-333.23C132.73,-283.67 139.57,-125.65 223,-40.5 225.69,-37.75 228.68,-35.31 231.87,-33.13"/>
<polygon fill="midnightblue" stroke="midnightblue" points="233.86,-36.03 240.75,-27.97 230.34,-29.97 233.86,-36.03"/>
</g>
<!-- Node144&#45;&gt;Node145 -->
<g id="edge14" class="edge">
<title>Node144&#45;&gt;Node145</title>
<path fill="none" stroke="midnightblue" d="M358.6,-145.48C374.8,-143.37 392.74,-141.05 409.54,-138.87"/>
<polygon fill="midnightblue" stroke="midnightblue" points="410.37,-142.29 419.84,-137.53 409.47,-135.35 410.37,-142.29"/>
</g>
</g>
</svg>
