<?xml version="1.0" encoding="UTF-8" standalone="no"?>
<!DOCTYPE svg PUBLIC "-//W3C//DTD SVG 1.1//EN"
 "http://www.w3.org/Graphics/SVG/1.1/DTD/svg11.dtd">
<!-- Generated by graphviz version 2.43.0 (0)
 -->
<!-- Title: leanux::tools::lrep::load5HeatMap Pages: 1 -->
<svg width="476pt" height="284pt"
 viewBox="0.00 0.00 476.00 284.00" xmlns="http://www.w3.org/2000/svg" xmlns:xlink="http://www.w3.org/1999/xlink">
<g id="graph0" class="graph" transform="scale(1 1) rotate(0) translate(4 280)">
<title>leanux::tools::lrep::load5HeatMap</title>
<!-- Node1 -->
<g id="node1" class="node">
<title>Node1</title>
<g id="a_node1"><a xlink:title=" ">
<polygon fill="#bfbfbf" stroke="black" points="0,-122.5 0,-152.5 104,-152.5 104,-122.5 0,-122.5"/>
<text text-anchor="start" x="8" y="-140.5" font-family="Helvetica,sans-Serif" font-size="10.00">leanux::tools::lrep</text>
<text text-anchor="middle" x="52" y="-129.5" font-family="Helvetica,sans-Serif" font-size="10.00">::load5HeatMap</text>
</a>
</g>
</g>
<!-- Node2 -->
<g id="node2" class="node">
<title>Node2</title>
<g id="a_node2"><a xlink:href="../../d9/d78/classleanux_1_1persist_1_1DML.html#a8df01a6d880515c22106e424ed342c81" target="_top" xlink:title="Bind a double value to the bind at position.">
<polygon fill="none" stroke="black" points="155,-245.5 155,-275.5 271,-275.5 271,-245.5 155,-245.5"/>
<text text-anchor="start" x="163" y="-263.5" font-family="Helvetica,sans-Serif" font-size="10.00">leanux::persist::DML</text>
<text text-anchor="middle" x="213" y="-252.5" font-family="Helvetica,sans-Serif" font-size="10.00">::bind</text>
</a>
</g>
</g>
<!-- Node1&#45;&gt;Node2 -->
<g id="edge1" class="edge">
<title>Node1&#45;&gt;Node2</title>
<path fill="none" stroke="midnightblue" d="M62.61,-152.84C76.93,-174.48 105.87,-213.86 140,-236.5 142.42,-238.1 144.95,-239.61 147.57,-241.02"/>
<polygon fill="midnightblue" stroke="midnightblue" points="146.18,-244.24 156.71,-245.48 149.25,-237.95 146.18,-244.24"/>
</g>
<!-- Node3 -->
<g id="node3" class="node">
<title>Node3</title>
<g id="a_node3"><a xlink:href="../../d4/d2c/classleanux_1_1persist_1_1Query.html#ac71ce2dce629c76434dfb541bbe55658" target="_top" xlink:title="Get double value from select list.">
<polygon fill="none" stroke="black" points="151,-196.5 151,-226.5 275,-226.5 275,-196.5 151,-196.5"/>
<text text-anchor="start" x="159" y="-214.5" font-family="Helvetica,sans-Serif" font-size="10.00">leanux::persist::Query</text>
<text text-anchor="middle" x="213" y="-203.5" font-family="Helvetica,sans-Serif" font-size="10.00">::getDouble</text>
</a>
</g>
</g>
<!-- Node1&#45;&gt;Node3 -->
<g id="edge2" class="edge">
<title>Node1&#45;&gt;Node3</title>
<path fill="none" stroke="midnightblue" d="M76.33,-152.62C93.47,-163.3 117.59,-177.45 140,-187.5 144.1,-189.34 148.39,-191.11 152.74,-192.81"/>
<polygon fill="midnightblue" stroke="midnightblue" points="151.72,-196.17 162.31,-196.39 154.17,-189.61 151.72,-196.17"/>
</g>
<!-- Node4 -->
<g id="node4" class="node">
<title>Node4</title>
<g id="a_node4"><a xlink:href="../../d4/d2c/classleanux_1_1persist_1_1Query.html#a86b5deec83f9cdf0c72f6caf503984d9" target="_top" xlink:title="Get int value from select list.">
<polygon fill="none" stroke="black" points="151,-147.5 151,-177.5 275,-177.5 275,-147.5 151,-147.5"/>
<text text-anchor="start" x="159" y="-165.5" font-family="Helvetica,sans-Serif" font-size="10.00">leanux::persist::Query</text>
<text text-anchor="middle" x="213" y="-154.5" font-family="Helvetica,sans-Serif" font-size="10.00">::getInt</text>
</a>
</g>
</g>
<!-- Node1&#45;&gt;Node4 -->
<g id="edge3" class="edge">
<title>Node1&#45;&gt;Node4</title>
<path fill="none" stroke="midnightblue" d="M104.18,-145.55C115.82,-147.38 128.38,-149.35 140.68,-151.29"/>
<polygon fill="midnightblue" stroke="midnightblue" points="140.49,-154.8 150.92,-152.9 141.58,-147.88 140.49,-154.8"/>
</g>
<!-- Node5 -->
<g id="node5" class="node">
<title>Node5</title>
<g id="a_node5"><a xlink:href="../../d6/dd3/namespaceleanux_1_1tools_1_1lrep.html#a7f55650d424d783739d0d208601a007e" target="_top" xlink:title=" ">
<polygon fill="none" stroke="black" points="161,-98.5 161,-128.5 265,-128.5 265,-98.5 161,-98.5"/>
<text text-anchor="start" x="169" y="-116.5" font-family="Helvetica,sans-Serif" font-size="10.00">leanux::tools::lrep</text>
<text text-anchor="middle" x="213" y="-105.5" font-family="Helvetica,sans-Serif" font-size="10.00">::htmlHeatMap</text>
</a>
</g>
</g>
<!-- Node1&#45;&gt;Node5 -->
<g id="edge4" class="edge">
<title>Node1&#45;&gt;Node5</title>
<path fill="none" stroke="midnightblue" d="M104.18,-129.77C119.08,-127.53 135.5,-125.05 150.93,-122.72"/>
<polygon fill="midnightblue" stroke="midnightblue" points="151.55,-126.16 160.91,-121.21 150.5,-119.24 151.55,-126.16"/>
</g>
<!-- Node7 -->
<g id="node7" class="node">
<title>Node7</title>
<g id="a_node7"><a xlink:href="../../db/dff/classleanux_1_1persist_1_1Statement.html#a1b809c1b1d0e9d24af65e439c3893d74" target="_top" xlink:title="Prepare a SQL statement.">
<polygon fill="none" stroke="black" points="140,-49.5 140,-79.5 286,-79.5 286,-49.5 140,-49.5"/>
<text text-anchor="start" x="148" y="-67.5" font-family="Helvetica,sans-Serif" font-size="10.00">leanux::persist::Statement</text>
<text text-anchor="middle" x="213" y="-56.5" font-family="Helvetica,sans-Serif" font-size="10.00">::prepare</text>
</a>
</g>
</g>
<!-- Node1&#45;&gt;Node7 -->
<g id="edge6" class="edge">
<title>Node1&#45;&gt;Node7</title>
<path fill="none" stroke="midnightblue" d="M76.73,-122.49C93.87,-112.07 117.81,-98.34 140,-88.5 144.29,-86.6 148.78,-84.76 153.33,-83.01"/>
<polygon fill="midnightblue" stroke="midnightblue" points="154.56,-86.28 162.72,-79.53 152.13,-79.72 154.56,-86.28"/>
</g>
<!-- Node9 -->
<g id="node9" class="node">
<title>Node9</title>
<g id="a_node9"><a xlink:href="../../d4/d2c/classleanux_1_1persist_1_1Query.html#a294e11c33a22761503c49418f5ca9815" target="_top" xlink:title="Step the result list, end of list returns false.">
<polygon fill="none" stroke="black" points="151,-0.5 151,-30.5 275,-30.5 275,-0.5 151,-0.5"/>
<text text-anchor="start" x="159" y="-18.5" font-family="Helvetica,sans-Serif" font-size="10.00">leanux::persist::Query</text>
<text text-anchor="middle" x="213" y="-7.5" font-family="Helvetica,sans-Serif" font-size="10.00">::step</text>
</a>
</g>
</g>
<!-- Node1&#45;&gt;Node9 -->
<g id="edge8" class="edge">
<title>Node1&#45;&gt;Node9</title>
<path fill="none" stroke="midnightblue" d="M62.65,-122.32C77.02,-100.91 106.01,-61.93 140,-39.5 142.42,-37.9 144.96,-36.4 147.58,-34.99"/>
<polygon fill="midnightblue" stroke="midnightblue" points="149.26,-38.07 156.73,-30.55 146.2,-31.77 149.26,-38.07"/>
</g>
<!-- Node6 -->
<g id="node6" class="node">
<title>Node6</title>
<g id="a_node6"><a xlink:href="../../d8/db1/namespaceleanux_1_1util.html#a0c9555d36d9264d1f0cd246c8ba6da28" target="_top" xlink:title="Convert a double (real number) to a pretty print string.">
<polygon fill="none" stroke="black" points="338,-104 338,-123 452,-123 452,-104 338,-104"/>
<text text-anchor="middle" x="395" y="-111" font-family="Helvetica,sans-Serif" font-size="10.00">leanux::util::NumStr</text>
</a>
</g>
</g>
<!-- Node5&#45;&gt;Node6 -->
<g id="edge5" class="edge">
<title>Node5&#45;&gt;Node6</title>
<path fill="none" stroke="midnightblue" d="M265.1,-113.5C284.48,-113.5 306.85,-113.5 327.45,-113.5"/>
<polygon fill="midnightblue" stroke="midnightblue" points="327.72,-117 337.72,-113.5 327.72,-110 327.72,-117"/>
</g>
<!-- Node8 -->
<g id="node8" class="node">
<title>Node8</title>
<g id="a_node8"><a xlink:href="../../db/dff/classleanux_1_1persist_1_1Statement.html#a5b31fb14297ad5c1c342cfc0d8f797de" target="_top" xlink:title="A statement handle can be explicitly closed without deleting the Statement object itself.">
<polygon fill="none" stroke="black" points="322,-49.5 322,-79.5 468,-79.5 468,-49.5 322,-49.5"/>
<text text-anchor="start" x="330" y="-67.5" font-family="Helvetica,sans-Serif" font-size="10.00">leanux::persist::Statement</text>
<text text-anchor="middle" x="395" y="-56.5" font-family="Helvetica,sans-Serif" font-size="10.00">::close</text>
</a>
</g>
</g>
<!-- Node7&#45;&gt;Node8 -->
<g id="edge7" class="edge">
<title>Node7&#45;&gt;Node8</title>
<path fill="none" stroke="midnightblue" d="M286.18,-64.5C294.52,-64.5 303.08,-64.5 311.54,-64.5"/>
<polygon fill="midnightblue" stroke="midnightblue" points="311.81,-68 321.81,-64.5 311.81,-61 311.81,-68"/>
</g>
</g>
</svg>
