<?xml version="1.0" encoding="UTF-8" standalone="no"?>
<!DOCTYPE svg PUBLIC "-//W3C//DTD SVG 1.1//EN"
 "http://www.w3.org/Graphics/SVG/1.1/DTD/svg11.dtd">
<!-- Generated by graphviz version 2.43.0 (0)
 -->
<!-- Title: leanux::tools::lrep::jsIdFromString Pages: 1 -->
<svg width="405pt" height="88pt"
 viewBox="0.00 0.00 405.00 88.00" xmlns="http://www.w3.org/2000/svg" xmlns:xlink="http://www.w3.org/1999/xlink">
<g id="graph0" class="graph" transform="scale(1 1) rotate(0) translate(4 84)">
<title>leanux::tools::lrep::jsIdFromString</title>
<!-- Node1 -->
<g id="node1" class="node">
<title>Node1</title>
<g id="a_node1"><a xlink:title="deterministic transform of arbitray strings into valid javascript identifiers">
<polygon fill="#bfbfbf" stroke="black" points="293,-24.5 293,-54.5 397,-54.5 397,-24.5 293,-24.5"/>
<text text-anchor="start" x="301" y="-42.5" font-family="Helvetica,sans-Serif" font-size="10.00">leanux::tools::lrep</text>
<text text-anchor="middle" x="345" y="-31.5" font-family="Helvetica,sans-Serif" font-size="10.00">::jsIdFromString</text>
</a>
</g>
</g>
<!-- Node2 -->
<g id="node2" class="node">
<title>Node2</title>
<g id="a_node2"><a xlink:href="../../d6/dd3/namespaceleanux_1_1tools_1_1lrep.html#abb2c4d60c9284405a71347cb64780517" target="_top" xlink:title=" ">
<polygon fill="none" stroke="black" points="140,-49.5 140,-79.5 257,-79.5 257,-49.5 140,-49.5"/>
<text text-anchor="start" x="148" y="-67.5" font-family="Helvetica,sans-Serif" font-size="10.00">leanux::tools::lrep</text>
<text text-anchor="middle" x="198.5" y="-56.5" font-family="Helvetica,sans-Serif" font-size="10.00">::htmlCmdCPUDetail</text>
</a>
</g>
</g>
<!-- Node1&#45;&gt;Node2 -->
<g id="edge1" class="edge">
<title>Node1&#45;&gt;Node2</title>
<path fill="none" stroke="midnightblue" d="M282.77,-50.09C274.26,-51.57 265.53,-53.08 257.08,-54.54"/>
<polygon fill="midnightblue" stroke="midnightblue" points="283.39,-53.54 292.65,-48.38 282.2,-46.64 283.39,-53.54"/>
</g>
<!-- Node6 -->
<g id="node4" class="node">
<title>Node6</title>
<g id="a_node4"><a xlink:href="../../d6/dd3/namespaceleanux_1_1tools_1_1lrep.html#a9434a7f41a9aef0ce48a762267da8797" target="_top" xlink:title=" ">
<polygon fill="none" stroke="black" points="140.5,-0.5 140.5,-30.5 256.5,-30.5 256.5,-0.5 140.5,-0.5"/>
<text text-anchor="start" x="148.5" y="-18.5" font-family="Helvetica,sans-Serif" font-size="10.00">leanux::tools::lrep</text>
<text text-anchor="middle" x="198.5" y="-7.5" font-family="Helvetica,sans-Serif" font-size="10.00">::htmlCmdRSSDetail</text>
</a>
</g>
</g>
<!-- Node1&#45;&gt;Node6 -->
<g id="edge3" class="edge">
<title>Node1&#45;&gt;Node6</title>
<path fill="none" stroke="midnightblue" d="M282.63,-29.31C273.99,-27.87 265.14,-26.4 256.58,-24.98"/>
<polygon fill="midnightblue" stroke="midnightblue" points="282.21,-32.79 292.65,-30.97 283.36,-25.88 282.21,-32.79"/>
</g>
<!-- Node3 -->
<g id="node3" class="node">
<title>Node3</title>
<g id="a_node3"><a xlink:href="../../d6/dd3/namespaceleanux_1_1tools_1_1lrep.html#a62c03f9d98087191a6d6473c7384fa74" target="_top" xlink:title=" ">
<polygon fill="none" stroke="red" points="0,-24.5 0,-54.5 104,-54.5 104,-24.5 0,-24.5"/>
<text text-anchor="start" x="8" y="-42.5" font-family="Helvetica,sans-Serif" font-size="10.00">leanux::tools::lrep</text>
<text text-anchor="middle" x="52" y="-31.5" font-family="Helvetica,sans-Serif" font-size="10.00">::htmlCmdDetails</text>
</a>
</g>
</g>
<!-- Node2&#45;&gt;Node3 -->
<g id="edge2" class="edge">
<title>Node2&#45;&gt;Node3</title>
<path fill="none" stroke="midnightblue" d="M129.91,-52.81C121.28,-51.31 112.56,-49.8 104.25,-48.37"/>
<polygon fill="midnightblue" stroke="midnightblue" points="129.52,-56.29 139.97,-54.55 130.72,-49.39 129.52,-56.29"/>
</g>
<!-- Node6&#45;&gt;Node3 -->
<g id="edge4" class="edge">
<title>Node6&#45;&gt;Node3</title>
<path fill="none" stroke="midnightblue" d="M130.45,-26.64C121.58,-28.11 112.61,-29.6 104.07,-31.02"/>
<polygon fill="midnightblue" stroke="midnightblue" points="131.1,-30.08 140.39,-24.99 129.95,-23.17 131.1,-30.08"/>
</g>
</g>
</svg>
