<?xml version="1.0" encoding="UTF-8" standalone="no"?>
<!DOCTYPE svg PUBLIC "-//W3C//DTD SVG 1.1//EN"
 "http://www.w3.org/Graphics/SVG/1.1/DTD/svg11.dtd">
<!-- Generated by graphviz version 2.43.0 (0)
 -->
<!-- Title: leanux::tools::lrep::chartTCPClientAverage Pages: 1 -->
<svg width="518pt" height="372pt"
 viewBox="0.00 0.00 518.00 372.00" xmlns="http://www.w3.org/2000/svg" xmlns:xlink="http://www.w3.org/1999/xlink">
<g id="graph0" class="graph" transform="scale(1 1) rotate(0) translate(4 368)">
<title>leanux::tools::lrep::chartTCPClientAverage</title>
<!-- Node1 -->
<g id="node1" class="node">
<title>Node1</title>
<g id="a_node1"><a xlink:title=" ">
<polygon fill="#bfbfbf" stroke="black" points="0,-169.5 0,-199.5 134,-199.5 134,-169.5 0,-169.5"/>
<text text-anchor="start" x="8" y="-187.5" font-family="Helvetica,sans-Serif" font-size="10.00">leanux::tools::lrep</text>
<text text-anchor="middle" x="67" y="-176.5" font-family="Helvetica,sans-Serif" font-size="10.00">::chartTCPClientAverage</text>
</a>
</g>
</g>
<!-- Node2 -->
<g id="node2" class="node">
<title>Node2</title>
<g id="a_node2"><a xlink:href="../../d9/d78/classleanux_1_1persist_1_1DML.html#a8df01a6d880515c22106e424ed342c81" target="_top" xlink:title="Bind a double value to the bind at position.">
<polygon fill="none" stroke="black" points="191,-333.5 191,-363.5 307,-363.5 307,-333.5 191,-333.5"/>
<text text-anchor="start" x="199" y="-351.5" font-family="Helvetica,sans-Serif" font-size="10.00">leanux::persist::DML</text>
<text text-anchor="middle" x="249" y="-340.5" font-family="Helvetica,sans-Serif" font-size="10.00">::bind</text>
</a>
</g>
</g>
<!-- Node1&#45;&gt;Node2 -->
<g id="edge1" class="edge">
<title>Node1&#45;&gt;Node2</title>
<path fill="none" stroke="midnightblue" d="M74.91,-199.64C88.77,-228.33 122.76,-290.79 170,-324.5 173.67,-327.12 177.63,-329.45 181.75,-331.54"/>
<polygon fill="midnightblue" stroke="midnightblue" points="180.43,-334.79 190.98,-335.72 183.32,-328.41 180.43,-334.79"/>
</g>
<!-- Node3 -->
<g id="node3" class="node">
<title>Node3</title>
<g id="a_node3"><a xlink:href="../../d4/d2c/classleanux_1_1persist_1_1Query.html#ac71ce2dce629c76434dfb541bbe55658" target="_top" xlink:title="Get double value from select list.">
<polygon fill="none" stroke="black" points="187,-284.5 187,-314.5 311,-314.5 311,-284.5 187,-284.5"/>
<text text-anchor="start" x="195" y="-302.5" font-family="Helvetica,sans-Serif" font-size="10.00">leanux::persist::Query</text>
<text text-anchor="middle" x="249" y="-291.5" font-family="Helvetica,sans-Serif" font-size="10.00">::getDouble</text>
</a>
</g>
</g>
<!-- Node1&#45;&gt;Node3 -->
<g id="edge2" class="edge">
<title>Node1&#45;&gt;Node3</title>
<path fill="none" stroke="midnightblue" d="M81,-199.6C99.05,-219.67 133.62,-254.98 170,-275.5 173.21,-277.31 176.58,-279 180.03,-280.58"/>
<polygon fill="midnightblue" stroke="midnightblue" points="178.77,-283.84 189.34,-284.49 181.48,-277.39 178.77,-283.84"/>
</g>
<!-- Node4 -->
<g id="node4" class="node">
<title>Node4</title>
<g id="a_node4"><a xlink:href="../../d4/d2c/classleanux_1_1persist_1_1Query.html#a86b5deec83f9cdf0c72f6caf503984d9" target="_top" xlink:title="Get int value from select list.">
<polygon fill="none" stroke="black" points="187,-235.5 187,-265.5 311,-265.5 311,-235.5 187,-235.5"/>
<text text-anchor="start" x="195" y="-253.5" font-family="Helvetica,sans-Serif" font-size="10.00">leanux::persist::Query</text>
<text text-anchor="middle" x="249" y="-242.5" font-family="Helvetica,sans-Serif" font-size="10.00">::getInt</text>
</a>
</g>
</g>
<!-- Node1&#45;&gt;Node4 -->
<g id="edge3" class="edge">
<title>Node1&#45;&gt;Node4</title>
<path fill="none" stroke="midnightblue" d="M103.63,-199.56C123.11,-207.6 147.74,-217.47 170,-225.5 176.29,-227.77 182.9,-230.05 189.51,-232.26"/>
<polygon fill="midnightblue" stroke="midnightblue" points="188.54,-235.62 199.14,-235.43 190.74,-228.98 188.54,-235.62"/>
</g>
<!-- Node5 -->
<g id="node5" class="node">
<title>Node5</title>
<g id="a_node5"><a xlink:href="../../d5/db8/namespaceleanux_1_1net.html#af3904a30ad9b1588f1d534d2b1459f23" target="_top" xlink:title="Get the service name, eg &#39;ssh&#39; for port 22.">
<polygon fill="none" stroke="black" points="170,-197 170,-216 328,-216 328,-197 170,-197"/>
<text text-anchor="middle" x="249" y="-204" font-family="Helvetica,sans-Serif" font-size="10.00">leanux::net::getServiceName</text>
</a>
</g>
</g>
<!-- Node1&#45;&gt;Node5 -->
<g id="edge4" class="edge">
<title>Node1&#45;&gt;Node5</title>
<path fill="none" stroke="midnightblue" d="M134,-192.57C142.44,-193.6 151.18,-194.67 159.9,-195.73"/>
<polygon fill="midnightblue" stroke="midnightblue" points="159.75,-199.24 170.1,-196.98 160.6,-192.29 159.75,-199.24"/>
</g>
<!-- Node6 -->
<g id="node6" class="node">
<title>Node6</title>
<g id="a_node6"><a xlink:href="../../d4/d2c/classleanux_1_1persist_1_1Query.html#a1fb83650612ff31e31805b1496fdf0fb" target="_top" xlink:title="Get string value from select list.">
<polygon fill="none" stroke="black" points="187,-147.5 187,-177.5 311,-177.5 311,-147.5 187,-147.5"/>
<text text-anchor="start" x="195" y="-165.5" font-family="Helvetica,sans-Serif" font-size="10.00">leanux::persist::Query</text>
<text text-anchor="middle" x="249" y="-154.5" font-family="Helvetica,sans-Serif" font-size="10.00">::getText</text>
</a>
</g>
</g>
<!-- Node1&#45;&gt;Node6 -->
<g id="edge5" class="edge">
<title>Node1&#45;&gt;Node6</title>
<path fill="none" stroke="midnightblue" d="M134,-176.43C147.89,-174.74 162.6,-172.94 176.67,-171.22"/>
<polygon fill="midnightblue" stroke="midnightblue" points="177.28,-174.67 186.79,-169.98 176.43,-167.72 177.28,-174.67"/>
</g>
<!-- Node7 -->
<g id="node7" class="node">
<title>Node7</title>
<g id="a_node7"><a xlink:href="../../db/dff/classleanux_1_1persist_1_1Statement.html#a1b809c1b1d0e9d24af65e439c3893d74" target="_top" xlink:title="Prepare a SQL statement.">
<polygon fill="none" stroke="black" points="176,-98.5 176,-128.5 322,-128.5 322,-98.5 176,-98.5"/>
<text text-anchor="start" x="184" y="-116.5" font-family="Helvetica,sans-Serif" font-size="10.00">leanux::persist::Statement</text>
<text text-anchor="middle" x="249" y="-105.5" font-family="Helvetica,sans-Serif" font-size="10.00">::prepare</text>
</a>
</g>
</g>
<!-- Node1&#45;&gt;Node7 -->
<g id="edge6" class="edge">
<title>Node1&#45;&gt;Node7</title>
<path fill="none" stroke="midnightblue" d="M98.86,-169.48C118.89,-160 145.7,-147.84 170,-138.5 175.92,-136.22 182.15,-133.98 188.4,-131.83"/>
<polygon fill="midnightblue" stroke="midnightblue" points="189.83,-135.04 198.19,-128.53 187.6,-128.41 189.83,-135.04"/>
</g>
<!-- Node9 -->
<g id="node9" class="node">
<title>Node9</title>
<g id="a_node9"><a xlink:href="../../d6/dd3/namespaceleanux_1_1tools_1_1lrep.html#a48bbe696793b1557d9244bff602b9743" target="_top" xlink:title="get from cache or DNS request on cache miss">
<polygon fill="none" stroke="black" points="197,-49.5 197,-79.5 301,-79.5 301,-49.5 197,-49.5"/>
<text text-anchor="start" x="205" y="-67.5" font-family="Helvetica,sans-Serif" font-size="10.00">leanux::tools::lrep</text>
<text text-anchor="middle" x="249" y="-56.5" font-family="Helvetica,sans-Serif" font-size="10.00">::resolveCacheIP</text>
</a>
</g>
</g>
<!-- Node1&#45;&gt;Node9 -->
<g id="edge8" class="edge">
<title>Node1&#45;&gt;Node9</title>
<path fill="none" stroke="midnightblue" d="M80.22,-169.26C97.89,-148.17 132.58,-110.26 170,-88.5 175.38,-85.37 181.22,-82.6 187.19,-80.17"/>
<polygon fill="midnightblue" stroke="midnightblue" points="188.52,-83.42 196.65,-76.62 186.06,-76.86 188.52,-83.42"/>
</g>
<!-- Node12 -->
<g id="node11" class="node">
<title>Node12</title>
<g id="a_node11"><a xlink:href="../../d4/d2c/classleanux_1_1persist_1_1Query.html#a294e11c33a22761503c49418f5ca9815" target="_top" xlink:title="Step the result list, end of list returns false.">
<polygon fill="none" stroke="black" points="187,-0.5 187,-30.5 311,-30.5 311,-0.5 187,-0.5"/>
<text text-anchor="start" x="195" y="-18.5" font-family="Helvetica,sans-Serif" font-size="10.00">leanux::persist::Query</text>
<text text-anchor="middle" x="249" y="-7.5" font-family="Helvetica,sans-Serif" font-size="10.00">::step</text>
</a>
</g>
</g>
<!-- Node1&#45;&gt;Node12 -->
<g id="edge10" class="edge">
<title>Node1&#45;&gt;Node12</title>
<path fill="none" stroke="midnightblue" d="M74.55,-169.28C88.02,-139.77 121.69,-74.59 170,-39.5 172.5,-37.69 175.14,-36.01 177.87,-34.45"/>
<polygon fill="midnightblue" stroke="midnightblue" points="179.54,-37.53 186.9,-29.9 176.39,-31.28 179.54,-37.53"/>
</g>
<!-- Node8 -->
<g id="node8" class="node">
<title>Node8</title>
<g id="a_node8"><a xlink:href="../../db/dff/classleanux_1_1persist_1_1Statement.html#a5b31fb14297ad5c1c342cfc0d8f797de" target="_top" xlink:title="A statement handle can be explicitly closed without deleting the Statement object itself.">
<polygon fill="none" stroke="black" points="364,-98.5 364,-128.5 510,-128.5 510,-98.5 364,-98.5"/>
<text text-anchor="start" x="372" y="-116.5" font-family="Helvetica,sans-Serif" font-size="10.00">leanux::persist::Statement</text>
<text text-anchor="middle" x="437" y="-105.5" font-family="Helvetica,sans-Serif" font-size="10.00">::close</text>
</a>
</g>
</g>
<!-- Node7&#45;&gt;Node8 -->
<g id="edge7" class="edge">
<title>Node7&#45;&gt;Node8</title>
<path fill="none" stroke="midnightblue" d="M322.18,-113.5C332.55,-113.5 343.28,-113.5 353.83,-113.5"/>
<polygon fill="midnightblue" stroke="midnightblue" points="353.86,-117 363.86,-113.5 353.86,-110 353.86,-117"/>
</g>
<!-- Node10 -->
<g id="node10" class="node">
<title>Node10</title>
<g id="a_node10"><a xlink:href="../../d5/db8/namespaceleanux_1_1net.html#a63180a19841a83de5f17eca4c4e055dd" target="_top" xlink:title="Try to resolve an IPv4 or IPv6 address.">
<polygon fill="none" stroke="red" points="376,-55 376,-74 498,-74 498,-55 376,-55"/>
<text text-anchor="middle" x="437" y="-62" font-family="Helvetica,sans-Serif" font-size="10.00">leanux::net::resolveIP</text>
</a>
</g>
</g>
<!-- Node9&#45;&gt;Node10 -->
<g id="edge9" class="edge">
<title>Node9&#45;&gt;Node10</title>
<path fill="none" stroke="midnightblue" d="M301.32,-64.5C321.28,-64.5 344.46,-64.5 365.92,-64.5"/>
<polygon fill="midnightblue" stroke="midnightblue" points="365.96,-68 375.96,-64.5 365.96,-61 365.96,-68"/>
</g>
</g>
</svg>
