<?xml version="1.0" encoding="UTF-8" standalone="no"?>
<!DOCTYPE svg PUBLIC "-//W3C//DTD SVG 1.1//EN"
 "http://www.w3.org/Graphics/SVG/1.1/DTD/svg11.dtd">
<!-- Generated by graphviz version 2.43.0 (0)
 -->
<!-- Title: leanux::tools::lrep::chartTCPServerAverage Pages: 1 -->
<svg width="521pt" height="372pt"
 viewBox="0.00 0.00 521.00 372.00" xmlns="http://www.w3.org/2000/svg" xmlns:xlink="http://www.w3.org/1999/xlink">
<g id="graph0" class="graph" transform="scale(1 1) rotate(0) translate(4 368)">
<title>leanux::tools::lrep::chartTCPServerAverage</title>
<!-- Node1 -->
<g id="node1" class="node">
<title>Node1</title>
<g id="a_node1"><a xlink:title=" ">
<polygon fill="#bfbfbf" stroke="black" points="0,-169.5 0,-199.5 137,-199.5 137,-169.5 0,-169.5"/>
<text text-anchor="start" x="8" y="-187.5" font-family="Helvetica,sans-Serif" font-size="10.00">leanux::tools::lrep</text>
<text text-anchor="middle" x="68.5" y="-176.5" font-family="Helvetica,sans-Serif" font-size="10.00">::chartTCPServerAverage</text>
</a>
</g>
</g>
<!-- Node2 -->
<g id="node2" class="node">
<title>Node2</title>
<g id="a_node2"><a xlink:href="../../d9/d78/classleanux_1_1persist_1_1DML.html#a8df01a6d880515c22106e424ed342c81" target="_top" xlink:title="Bind a double value to the bind at position.">
<polygon fill="none" stroke="black" points="194,-333.5 194,-363.5 310,-363.5 310,-333.5 194,-333.5"/>
<text text-anchor="start" x="202" y="-351.5" font-family="Helvetica,sans-Serif" font-size="10.00">leanux::persist::DML</text>
<text text-anchor="middle" x="252" y="-340.5" font-family="Helvetica,sans-Serif" font-size="10.00">::bind</text>
</a>
</g>
</g>
<!-- Node1&#45;&gt;Node2 -->
<g id="edge1" class="edge">
<title>Node1&#45;&gt;Node2</title>
<path fill="none" stroke="midnightblue" d="M76.57,-199.64C90.74,-228.33 125.4,-290.78 173,-324.5 176.51,-326.99 180.29,-329.22 184.22,-331.23"/>
<polygon fill="midnightblue" stroke="midnightblue" points="183.06,-334.55 193.61,-335.51 185.96,-328.18 183.06,-334.55"/>
</g>
<!-- Node3 -->
<g id="node3" class="node">
<title>Node3</title>
<g id="a_node3"><a xlink:href="../../d4/d2c/classleanux_1_1persist_1_1Query.html#ac71ce2dce629c76434dfb541bbe55658" target="_top" xlink:title="Get double value from select list.">
<polygon fill="none" stroke="black" points="190,-284.5 190,-314.5 314,-314.5 314,-284.5 190,-284.5"/>
<text text-anchor="start" x="198" y="-302.5" font-family="Helvetica,sans-Serif" font-size="10.00">leanux::persist::Query</text>
<text text-anchor="middle" x="252" y="-291.5" font-family="Helvetica,sans-Serif" font-size="10.00">::getDouble</text>
</a>
</g>
</g>
<!-- Node1&#45;&gt;Node3 -->
<g id="edge2" class="edge">
<title>Node1&#45;&gt;Node3</title>
<path fill="none" stroke="midnightblue" d="M82.74,-199.58C101.11,-219.64 136.25,-254.95 173,-275.5 176.22,-277.3 179.59,-278.98 183.05,-280.55"/>
<polygon fill="midnightblue" stroke="midnightblue" points="181.79,-283.82 192.36,-284.45 184.49,-277.36 181.79,-283.82"/>
</g>
<!-- Node4 -->
<g id="node4" class="node">
<title>Node4</title>
<g id="a_node4"><a xlink:href="../../d4/d2c/classleanux_1_1persist_1_1Query.html#a86b5deec83f9cdf0c72f6caf503984d9" target="_top" xlink:title="Get int value from select list.">
<polygon fill="none" stroke="black" points="190,-235.5 190,-265.5 314,-265.5 314,-235.5 190,-235.5"/>
<text text-anchor="start" x="198" y="-253.5" font-family="Helvetica,sans-Serif" font-size="10.00">leanux::persist::Query</text>
<text text-anchor="middle" x="252" y="-242.5" font-family="Helvetica,sans-Serif" font-size="10.00">::getInt</text>
</a>
</g>
</g>
<!-- Node1&#45;&gt;Node4 -->
<g id="edge3" class="edge">
<title>Node1&#45;&gt;Node4</title>
<path fill="none" stroke="midnightblue" d="M105.68,-199.52C125.45,-207.55 150.44,-217.42 173,-225.5 179.3,-227.75 185.91,-230.02 192.52,-232.23"/>
<polygon fill="midnightblue" stroke="midnightblue" points="191.56,-235.59 202.15,-235.4 193.75,-228.95 191.56,-235.59"/>
</g>
<!-- Node5 -->
<g id="node5" class="node">
<title>Node5</title>
<g id="a_node5"><a xlink:href="../../d5/db8/namespaceleanux_1_1net.html#af3904a30ad9b1588f1d534d2b1459f23" target="_top" xlink:title="Get the service name, eg &#39;ssh&#39; for port 22.">
<polygon fill="none" stroke="black" points="173,-197 173,-216 331,-216 331,-197 173,-197"/>
<text text-anchor="middle" x="252" y="-204" font-family="Helvetica,sans-Serif" font-size="10.00">leanux::net::getServiceName</text>
</a>
</g>
</g>
<!-- Node1&#45;&gt;Node5 -->
<g id="edge4" class="edge">
<title>Node1&#45;&gt;Node5</title>
<path fill="none" stroke="midnightblue" d="M137.08,-192.69C145.49,-193.71 154.17,-194.76 162.83,-195.81"/>
<polygon fill="midnightblue" stroke="midnightblue" points="162.61,-199.31 172.96,-197.04 163.45,-192.36 162.61,-199.31"/>
</g>
<!-- Node6 -->
<g id="node6" class="node">
<title>Node6</title>
<g id="a_node6"><a xlink:href="../../d4/d2c/classleanux_1_1persist_1_1Query.html#a1fb83650612ff31e31805b1496fdf0fb" target="_top" xlink:title="Get string value from select list.">
<polygon fill="none" stroke="black" points="190,-147.5 190,-177.5 314,-177.5 314,-147.5 190,-147.5"/>
<text text-anchor="start" x="198" y="-165.5" font-family="Helvetica,sans-Serif" font-size="10.00">leanux::persist::Query</text>
<text text-anchor="middle" x="252" y="-154.5" font-family="Helvetica,sans-Serif" font-size="10.00">::getText</text>
</a>
</g>
</g>
<!-- Node1&#45;&gt;Node6 -->
<g id="edge5" class="edge">
<title>Node1&#45;&gt;Node6</title>
<path fill="none" stroke="midnightblue" d="M137.08,-176.31C151.03,-174.62 165.77,-172.83 179.84,-171.13"/>
<polygon fill="midnightblue" stroke="midnightblue" points="180.44,-174.58 189.95,-169.9 179.6,-167.63 180.44,-174.58"/>
</g>
<!-- Node7 -->
<g id="node7" class="node">
<title>Node7</title>
<g id="a_node7"><a xlink:href="../../db/dff/classleanux_1_1persist_1_1Statement.html#a1b809c1b1d0e9d24af65e439c3893d74" target="_top" xlink:title="Prepare a SQL statement.">
<polygon fill="none" stroke="black" points="179,-98.5 179,-128.5 325,-128.5 325,-98.5 179,-98.5"/>
<text text-anchor="start" x="187" y="-116.5" font-family="Helvetica,sans-Serif" font-size="10.00">leanux::persist::Statement</text>
<text text-anchor="middle" x="252" y="-105.5" font-family="Helvetica,sans-Serif" font-size="10.00">::prepare</text>
</a>
</g>
</g>
<!-- Node1&#45;&gt;Node7 -->
<g id="edge6" class="edge">
<title>Node1&#45;&gt;Node7</title>
<path fill="none" stroke="midnightblue" d="M101.3,-169.3C121.58,-159.87 148.56,-147.82 173,-138.5 178.93,-136.24 185.16,-134.01 191.41,-131.86"/>
<polygon fill="midnightblue" stroke="midnightblue" points="192.84,-135.08 201.21,-128.57 190.61,-128.44 192.84,-135.08"/>
</g>
<!-- Node9 -->
<g id="node9" class="node">
<title>Node9</title>
<g id="a_node9"><a xlink:href="../../d6/dd3/namespaceleanux_1_1tools_1_1lrep.html#a48bbe696793b1557d9244bff602b9743" target="_top" xlink:title="get from cache or DNS request on cache miss">
<polygon fill="none" stroke="black" points="200,-49.5 200,-79.5 304,-79.5 304,-49.5 200,-49.5"/>
<text text-anchor="start" x="208" y="-67.5" font-family="Helvetica,sans-Serif" font-size="10.00">leanux::tools::lrep</text>
<text text-anchor="middle" x="252" y="-56.5" font-family="Helvetica,sans-Serif" font-size="10.00">::resolveCacheIP</text>
</a>
</g>
</g>
<!-- Node1&#45;&gt;Node9 -->
<g id="edge8" class="edge">
<title>Node1&#45;&gt;Node9</title>
<path fill="none" stroke="midnightblue" d="M81.95,-169.26C99.93,-148.19 135.21,-110.3 173,-88.5 178.4,-85.39 184.24,-82.64 190.22,-80.21"/>
<polygon fill="midnightblue" stroke="midnightblue" points="191.54,-83.46 199.68,-76.67 189.09,-76.9 191.54,-83.46"/>
</g>
<!-- Node12 -->
<g id="node11" class="node">
<title>Node12</title>
<g id="a_node11"><a xlink:href="../../d4/d2c/classleanux_1_1persist_1_1Query.html#a294e11c33a22761503c49418f5ca9815" target="_top" xlink:title="Step the result list, end of list returns false.">
<polygon fill="none" stroke="black" points="190,-0.5 190,-30.5 314,-30.5 314,-0.5 190,-0.5"/>
<text text-anchor="start" x="198" y="-18.5" font-family="Helvetica,sans-Serif" font-size="10.00">leanux::persist::Query</text>
<text text-anchor="middle" x="252" y="-7.5" font-family="Helvetica,sans-Serif" font-size="10.00">::step</text>
</a>
</g>
</g>
<!-- Node1&#45;&gt;Node12 -->
<g id="edge10" class="edge">
<title>Node1&#45;&gt;Node12</title>
<path fill="none" stroke="midnightblue" d="M76.21,-169.28C89.99,-139.77 124.33,-74.59 173,-39.5 175.51,-37.69 178.15,-36.02 180.89,-34.47"/>
<polygon fill="midnightblue" stroke="midnightblue" points="182.56,-37.55 189.92,-29.94 179.42,-31.3 182.56,-37.55"/>
</g>
<!-- Node8 -->
<g id="node8" class="node">
<title>Node8</title>
<g id="a_node8"><a xlink:href="../../db/dff/classleanux_1_1persist_1_1Statement.html#a5b31fb14297ad5c1c342cfc0d8f797de" target="_top" xlink:title="A statement handle can be explicitly closed without deleting the Statement object itself.">
<polygon fill="none" stroke="black" points="367,-98.5 367,-128.5 513,-128.5 513,-98.5 367,-98.5"/>
<text text-anchor="start" x="375" y="-116.5" font-family="Helvetica,sans-Serif" font-size="10.00">leanux::persist::Statement</text>
<text text-anchor="middle" x="440" y="-105.5" font-family="Helvetica,sans-Serif" font-size="10.00">::close</text>
</a>
</g>
</g>
<!-- Node7&#45;&gt;Node8 -->
<g id="edge7" class="edge">
<title>Node7&#45;&gt;Node8</title>
<path fill="none" stroke="midnightblue" d="M325.18,-113.5C335.55,-113.5 346.28,-113.5 356.83,-113.5"/>
<polygon fill="midnightblue" stroke="midnightblue" points="356.86,-117 366.86,-113.5 356.86,-110 356.86,-117"/>
</g>
<!-- Node10 -->
<g id="node10" class="node">
<title>Node10</title>
<g id="a_node10"><a xlink:href="../../d5/db8/namespaceleanux_1_1net.html#a63180a19841a83de5f17eca4c4e055dd" target="_top" xlink:title="Try to resolve an IPv4 or IPv6 address.">
<polygon fill="none" stroke="red" points="379,-55 379,-74 501,-74 501,-55 379,-55"/>
<text text-anchor="middle" x="440" y="-62" font-family="Helvetica,sans-Serif" font-size="10.00">leanux::net::resolveIP</text>
</a>
</g>
</g>
<!-- Node9&#45;&gt;Node10 -->
<g id="edge9" class="edge">
<title>Node9&#45;&gt;Node10</title>
<path fill="none" stroke="midnightblue" d="M304.32,-64.5C324.28,-64.5 347.46,-64.5 368.92,-64.5"/>
<polygon fill="midnightblue" stroke="midnightblue" points="368.96,-68 378.96,-64.5 368.96,-61 368.96,-68"/>
</g>
</g>
</svg>
