<?xml version="1.0" encoding="UTF-8" standalone="no"?>
<!DOCTYPE svg PUBLIC "-//W3C//DTD SVG 1.1//EN"
 "http://www.w3.org/Graphics/SVG/1.1/DTD/svg11.dtd">
<!-- Generated by graphviz version 2.43.0 (0)
 -->
<!-- Title: leanux::tools::lrep::htmlCmdDetails Pages: 1 -->
<svg width="473pt" height="448pt"
 viewBox="0.00 0.00 473.00 448.00" xmlns="http://www.w3.org/2000/svg" xmlns:xlink="http://www.w3.org/1999/xlink">
<g id="graph0" class="graph" transform="scale(1 1) rotate(0) translate(4 444)">
<title>leanux::tools::lrep::htmlCmdDetails</title>
<!-- Node1 -->
<g id="node1" class="node">
<title>Node1</title>
<g id="a_node1"><a xlink:title=" ">
<polygon fill="#bfbfbf" stroke="black" points="0,-180 0,-210 104,-210 104,-180 0,-180"/>
<text text-anchor="start" x="8" y="-198" font-family="Helvetica,sans-Serif" font-size="10.00">leanux::tools::lrep</text>
<text text-anchor="middle" x="52" y="-187" font-family="Helvetica,sans-Serif" font-size="10.00">::htmlCmdDetails</text>
</a>
</g>
</g>
<!-- Node2 -->
<g id="node2" class="node">
<title>Node2</title>
<g id="a_node2"><a xlink:href="../../d9/d78/classleanux_1_1persist_1_1DML.html#a8df01a6d880515c22106e424ed342c81" target="_top" xlink:title="Bind a double value to the bind at position.">
<polygon fill="none" stroke="black" points="324.5,-273 324.5,-303 440.5,-303 440.5,-273 324.5,-273"/>
<text text-anchor="start" x="332.5" y="-291" font-family="Helvetica,sans-Serif" font-size="10.00">leanux::persist::DML</text>
<text text-anchor="middle" x="382.5" y="-280" font-family="Helvetica,sans-Serif" font-size="10.00">::bind</text>
</a>
</g>
</g>
<!-- Node1&#45;&gt;Node2 -->
<g id="edge1" class="edge">
<title>Node1&#45;&gt;Node2</title>
<path fill="none" stroke="midnightblue" d="M58.76,-210.14C69.82,-236.76 96.84,-291.2 140,-313 189.19,-337.85 209.19,-318.77 264,-313 280.4,-311.27 297.89,-308.23 314.22,-304.84"/>
<polygon fill="midnightblue" stroke="midnightblue" points="315.17,-308.22 324.21,-302.7 313.7,-301.37 315.17,-308.22"/>
</g>
<!-- Node3 -->
<g id="node3" class="node">
<title>Node3</title>
<g id="a_node3"><a xlink:href="../../d4/d2c/classleanux_1_1persist_1_1Query.html#a1fb83650612ff31e31805b1496fdf0fb" target="_top" xlink:title="Get string value from select list.">
<polygon fill="none" stroke="black" points="140,-48 140,-78 264,-78 264,-48 140,-48"/>
<text text-anchor="start" x="148" y="-66" font-family="Helvetica,sans-Serif" font-size="10.00">leanux::persist::Query</text>
<text text-anchor="middle" x="202" y="-55" font-family="Helvetica,sans-Serif" font-size="10.00">::getText</text>
</a>
</g>
</g>
<!-- Node1&#45;&gt;Node3 -->
<g id="edge2" class="edge">
<title>Node1&#45;&gt;Node3</title>
<path fill="none" stroke="midnightblue" d="M62.95,-179.81C77.68,-158.25 107.11,-118.57 140,-93 144.66,-89.38 149.82,-86.03 155.11,-82.98"/>
<polygon fill="midnightblue" stroke="midnightblue" points="156.94,-85.98 164.08,-78.15 153.62,-79.81 156.94,-85.98"/>
</g>
<!-- Node4 -->
<g id="node4" class="node">
<title>Node4</title>
<g id="a_node4"><a xlink:href="../../d6/dd3/namespaceleanux_1_1tools_1_1lrep.html#abb2c4d60c9284405a71347cb64780517" target="_top" xlink:title=" ">
<polygon fill="none" stroke="black" points="143.5,-224 143.5,-254 260.5,-254 260.5,-224 143.5,-224"/>
<text text-anchor="start" x="151.5" y="-242" font-family="Helvetica,sans-Serif" font-size="10.00">leanux::tools::lrep</text>
<text text-anchor="middle" x="202" y="-231" font-family="Helvetica,sans-Serif" font-size="10.00">::htmlCmdCPUDetail</text>
</a>
</g>
</g>
<!-- Node1&#45;&gt;Node4 -->
<g id="edge3" class="edge">
<title>Node1&#45;&gt;Node4</title>
<path fill="none" stroke="midnightblue" d="M103.52,-210.02C115.48,-213.57 128.35,-217.4 140.7,-221.07"/>
<polygon fill="midnightblue" stroke="midnightblue" points="139.87,-224.48 150.46,-223.97 141.87,-217.77 139.87,-224.48"/>
</g>
<!-- Node8 -->
<g id="node8" class="node">
<title>Node8</title>
<g id="a_node8"><a xlink:href="../../db/dff/classleanux_1_1persist_1_1Statement.html#a1b809c1b1d0e9d24af65e439c3893d74" target="_top" xlink:title="Prepare a SQL statement.">
<polygon fill="none" stroke="red" points="309.5,-175 309.5,-205 455.5,-205 455.5,-175 309.5,-175"/>
<text text-anchor="start" x="317.5" y="-193" font-family="Helvetica,sans-Serif" font-size="10.00">leanux::persist::Statement</text>
<text text-anchor="middle" x="382.5" y="-182" font-family="Helvetica,sans-Serif" font-size="10.00">::prepare</text>
</a>
</g>
</g>
<!-- Node1&#45;&gt;Node8 -->
<g id="edge26" class="edge">
<title>Node1&#45;&gt;Node8</title>
<path fill="none" stroke="midnightblue" d="M104.33,-194.22C156.46,-193.43 238.02,-192.18 299.19,-191.25"/>
<polygon fill="midnightblue" stroke="midnightblue" points="299.26,-194.75 309.21,-191.1 299.15,-187.75 299.26,-194.75"/>
</g>
<!-- Node10 -->
<g id="node9" class="node">
<title>Node10</title>
<g id="a_node9"><a xlink:href="../../d4/d2c/classleanux_1_1persist_1_1Query.html#a294e11c33a22761503c49418f5ca9815" target="_top" xlink:title="Step the result list, end of list returns false.">
<polygon fill="none" stroke="black" points="320.5,-126 320.5,-156 444.5,-156 444.5,-126 320.5,-126"/>
<text text-anchor="start" x="328.5" y="-144" font-family="Helvetica,sans-Serif" font-size="10.00">leanux::persist::Query</text>
<text text-anchor="middle" x="382.5" y="-133" font-family="Helvetica,sans-Serif" font-size="10.00">::step</text>
</a>
</g>
</g>
<!-- Node1&#45;&gt;Node10 -->
<g id="edge27" class="edge">
<title>Node1&#45;&gt;Node10</title>
<path fill="none" stroke="midnightblue" d="M66.26,-179.84C81.93,-163.19 109.73,-137.43 140,-127 197.02,-107.36 266.07,-114.16 315.7,-123.92"/>
<polygon fill="midnightblue" stroke="midnightblue" points="315.17,-127.38 325.67,-125.97 316.58,-120.52 315.17,-127.38"/>
</g>
<!-- Node11 -->
<g id="node10" class="node">
<title>Node11</title>
<g id="a_node10"><a xlink:href="../../d6/dd3/namespaceleanux_1_1tools_1_1lrep.html#a9434a7f41a9aef0ce48a762267da8797" target="_top" xlink:title=" ">
<polygon fill="none" stroke="black" points="144,-273 144,-303 260,-303 260,-273 144,-273"/>
<text text-anchor="start" x="152" y="-291" font-family="Helvetica,sans-Serif" font-size="10.00">leanux::tools::lrep</text>
<text text-anchor="middle" x="202" y="-280" font-family="Helvetica,sans-Serif" font-size="10.00">::htmlCmdRSSDetail</text>
</a>
</g>
</g>
<!-- Node1&#45;&gt;Node11 -->
<g id="edge10" class="edge">
<title>Node1&#45;&gt;Node11</title>
<path fill="none" stroke="midnightblue" d="M68.94,-210.05C85.63,-225.21 113.11,-248.51 140,-264 142.81,-265.62 145.75,-267.18 148.76,-268.66"/>
<polygon fill="midnightblue" stroke="midnightblue" points="147.37,-271.88 157.91,-272.91 150.32,-265.53 147.37,-271.88"/>
</g>
<!-- Node13 -->
<g id="node12" class="node">
<title>Node13</title>
<g id="a_node12"><a xlink:href="../../d6/dd3/namespaceleanux_1_1tools_1_1lrep.html#a8a9e58dc9034002621d2b57d4a51aad9" target="_top" xlink:title=" ">
<polygon fill="none" stroke="black" points="145.5,-136 145.5,-166 258.5,-166 258.5,-136 145.5,-136"/>
<text text-anchor="start" x="153.5" y="-154" font-family="Helvetica,sans-Serif" font-size="10.00">leanux::tools::lrep</text>
<text text-anchor="middle" x="202" y="-143" font-family="Helvetica,sans-Serif" font-size="10.00">::htmlCmdUidDetail</text>
</a>
</g>
</g>
<!-- Node1&#45;&gt;Node13 -->
<g id="edge18" class="edge">
<title>Node1&#45;&gt;Node13</title>
<path fill="none" stroke="midnightblue" d="M103.52,-179.98C115.48,-176.43 128.35,-172.6 140.7,-168.93"/>
<polygon fill="midnightblue" stroke="midnightblue" points="141.87,-172.23 150.46,-166.03 139.87,-165.52 141.87,-172.23"/>
</g>
<!-- Node4&#45;&gt;Node2 -->
<g id="edge4" class="edge">
<title>Node4&#45;&gt;Node2</title>
<path fill="none" stroke="midnightblue" d="M258.01,-254.1C276.59,-259.2 297.51,-264.94 316.77,-270.23"/>
<polygon fill="midnightblue" stroke="midnightblue" points="316.1,-273.68 326.67,-272.95 317.95,-266.93 316.1,-273.68"/>
</g>
<!-- Node5 -->
<g id="node5" class="node">
<title>Node5</title>
<g id="a_node5"><a xlink:href="../../d4/d2c/classleanux_1_1persist_1_1Query.html#ac71ce2dce629c76434dfb541bbe55658" target="_top" xlink:title="Get double value from select list.">
<polygon fill="none" stroke="black" points="320.5,-224 320.5,-254 444.5,-254 444.5,-224 320.5,-224"/>
<text text-anchor="start" x="328.5" y="-242" font-family="Helvetica,sans-Serif" font-size="10.00">leanux::persist::Query</text>
<text text-anchor="middle" x="382.5" y="-231" font-family="Helvetica,sans-Serif" font-size="10.00">::getDouble</text>
</a>
</g>
</g>
<!-- Node4&#45;&gt;Node5 -->
<g id="edge5" class="edge">
<title>Node4&#45;&gt;Node5</title>
<path fill="none" stroke="midnightblue" d="M260.95,-239C276.72,-239 293.97,-239 310.38,-239"/>
<polygon fill="midnightblue" stroke="midnightblue" points="310.46,-242.5 320.46,-239 310.46,-235.5 310.46,-242.5"/>
</g>
<!-- Node6 -->
<g id="node6" class="node">
<title>Node6</title>
<g id="a_node6"><a xlink:href="../../d6/dd3/namespaceleanux_1_1tools_1_1lrep.html#a85ac1fb32ad11b10d1ea134e230f6c47" target="_top" xlink:title=" ">
<polygon fill="none" stroke="black" points="330.5,-371 330.5,-401 434.5,-401 434.5,-371 330.5,-371"/>
<text text-anchor="start" x="338.5" y="-389" font-family="Helvetica,sans-Serif" font-size="10.00">leanux::tools::lrep</text>
<text text-anchor="middle" x="382.5" y="-378" font-family="Helvetica,sans-Serif" font-size="10.00">::htmlTimeLine</text>
</a>
</g>
</g>
<!-- Node4&#45;&gt;Node6 -->
<g id="edge6" class="edge">
<title>Node4&#45;&gt;Node6</title>
<path fill="none" stroke="midnightblue" d="M251.12,-254.04C255.85,-256.83 260.27,-260.13 264,-264 296.2,-297.41 266.13,-330.28 300,-362 305.97,-367.59 313.18,-371.89 320.81,-375.18"/>
<polygon fill="midnightblue" stroke="midnightblue" points="319.68,-378.5 330.27,-378.73 322.13,-371.94 319.68,-378.5"/>
</g>
<!-- Node7 -->
<g id="node7" class="node">
<title>Node7</title>
<g id="a_node7"><a xlink:href="../../d6/dd3/namespaceleanux_1_1tools_1_1lrep.html#a9ef7dd7e7c56989574a69148cbba20b1" target="_top" xlink:title="deterministic transform of arbitray strings into valid javascript identifiers">
<polygon fill="none" stroke="black" points="330.5,-322 330.5,-352 434.5,-352 434.5,-322 330.5,-322"/>
<text text-anchor="start" x="338.5" y="-340" font-family="Helvetica,sans-Serif" font-size="10.00">leanux::tools::lrep</text>
<text text-anchor="middle" x="382.5" y="-329" font-family="Helvetica,sans-Serif" font-size="10.00">::jsIdFromString</text>
</a>
</g>
</g>
<!-- Node4&#45;&gt;Node7 -->
<g id="edge7" class="edge">
<title>Node4&#45;&gt;Node7</title>
<path fill="none" stroke="midnightblue" d="M247.9,-254.03C253.6,-256.88 259.13,-260.2 264,-264 285.3,-280.63 277.88,-297.48 300,-313 306.37,-317.47 313.57,-321.11 320.99,-324.08"/>
<polygon fill="midnightblue" stroke="midnightblue" points="319.87,-327.4 330.47,-327.5 322.25,-320.82 319.87,-327.4"/>
</g>
<!-- Node4&#45;&gt;Node8 -->
<g id="edge8" class="edge">
<title>Node4&#45;&gt;Node8</title>
<path fill="none" stroke="midnightblue" d="M258.01,-223.9C276.59,-218.8 297.51,-213.06 316.77,-207.77"/>
<polygon fill="midnightblue" stroke="midnightblue" points="317.95,-211.07 326.67,-205.05 316.1,-204.32 317.95,-211.07"/>
</g>
<!-- Node4&#45;&gt;Node10 -->
<g id="edge9" class="edge">
<title>Node4&#45;&gt;Node10</title>
<path fill="none" stroke="midnightblue" d="M219.31,-223.87C237.68,-207.55 269.02,-181.79 300,-166 304.5,-163.71 309.25,-161.58 314.1,-159.62"/>
<polygon fill="midnightblue" stroke="midnightblue" points="315.41,-162.86 323.51,-156.04 312.92,-156.32 315.41,-162.86"/>
</g>
<!-- Node11&#45;&gt;Node2 -->
<g id="edge11" class="edge">
<title>Node11&#45;&gt;Node2</title>
<path fill="none" stroke="midnightblue" d="M260.46,-288C277.59,-288 296.51,-288 314.2,-288"/>
<polygon fill="midnightblue" stroke="midnightblue" points="314.45,-291.5 324.45,-288 314.45,-284.5 314.45,-291.5"/>
</g>
<!-- Node11&#45;&gt;Node5 -->
<g id="edge12" class="edge">
<title>Node11&#45;&gt;Node5</title>
<path fill="none" stroke="midnightblue" d="M258.01,-272.9C276.59,-267.8 297.51,-262.06 316.77,-256.77"/>
<polygon fill="midnightblue" stroke="midnightblue" points="317.95,-260.07 326.67,-254.05 316.1,-253.32 317.95,-260.07"/>
</g>
<!-- Node11&#45;&gt;Node6 -->
<g id="edge14" class="edge">
<title>Node11&#45;&gt;Node6</title>
<path fill="none" stroke="midnightblue" d="M218.91,-303.11C237.16,-319.71 268.64,-346.11 300,-362 306.51,-365.3 313.55,-368.22 320.68,-370.79"/>
<polygon fill="midnightblue" stroke="midnightblue" points="319.8,-374.19 330.4,-374.07 322.04,-367.55 319.8,-374.19"/>
</g>
<!-- Node11&#45;&gt;Node7 -->
<g id="edge15" class="edge">
<title>Node11&#45;&gt;Node7</title>
<path fill="none" stroke="midnightblue" d="M258.01,-303.1C277.82,-308.54 300.28,-314.7 320.56,-320.27"/>
<polygon fill="midnightblue" stroke="midnightblue" points="319.75,-323.68 330.32,-322.95 321.61,-316.93 319.75,-323.68"/>
</g>
<!-- Node11&#45;&gt;Node8 -->
<g id="edge16" class="edge">
<title>Node11&#45;&gt;Node8</title>
<path fill="none" stroke="midnightblue" d="M249.48,-272.97C254.62,-270.38 259.58,-267.4 264,-264 285.41,-247.52 277.97,-230.64 300,-215 302.72,-213.07 305.58,-211.29 308.55,-209.64"/>
<polygon fill="midnightblue" stroke="midnightblue" points="310.33,-212.67 317.74,-205.1 307.22,-206.4 310.33,-212.67"/>
</g>
<!-- Node11&#45;&gt;Node10 -->
<g id="edge17" class="edge">
<title>Node11&#45;&gt;Node10</title>
<path fill="none" stroke="midnightblue" d="M252.61,-272.89C256.77,-270.36 260.66,-267.42 264,-264 296.43,-230.82 266.31,-197.91 300,-166 303.35,-162.82 307.1,-160.05 311.1,-157.63"/>
<polygon fill="midnightblue" stroke="midnightblue" points="312.95,-160.61 320.19,-152.87 309.71,-154.41 312.95,-160.61"/>
</g>
<!-- Node12 -->
<g id="node11" class="node">
<title>Node12</title>
<g id="a_node11"><a xlink:href="../../dd/d42/namespaceleanux_1_1system.html#a52dc747f7af9f66fabb1ccfd72c7c450" target="_top" xlink:title="Get the system page size.">
<polygon fill="none" stroke="black" points="304,-420.5 304,-439.5 461,-439.5 461,-420.5 304,-420.5"/>
<text text-anchor="middle" x="382.5" y="-427.5" font-family="Helvetica,sans-Serif" font-size="10.00">leanux::system::getPageSize</text>
</a>
</g>
</g>
<!-- Node11&#45;&gt;Node12 -->
<g id="edge13" class="edge">
<title>Node11&#45;&gt;Node12</title>
<path fill="none" stroke="midnightblue" d="M210.54,-303.2C224.42,-329.53 256.62,-383.43 300,-411 303.35,-413.13 306.92,-415.02 310.62,-416.7"/>
<polygon fill="midnightblue" stroke="midnightblue" points="309.44,-420 320.02,-420.46 312.03,-413.5 309.44,-420"/>
</g>
<!-- Node13&#45;&gt;Node2 -->
<g id="edge19" class="edge">
<title>Node13&#45;&gt;Node2</title>
<path fill="none" stroke="midnightblue" d="M218.36,-166.01C231.06,-178.67 249.31,-197.47 264,-215 281.36,-235.71 277.88,-248.48 300,-264 304.6,-267.23 309.64,-270.03 314.89,-272.46"/>
<polygon fill="midnightblue" stroke="midnightblue" points="313.92,-275.84 324.5,-276.43 316.6,-269.38 313.92,-275.84"/>
</g>
<!-- Node13&#45;&gt;Node5 -->
<g id="edge20" class="edge">
<title>Node13&#45;&gt;Node5</title>
<path fill="none" stroke="midnightblue" d="M222.05,-166.05C240.92,-180.34 271.09,-201.57 300,-215 304.1,-216.9 308.38,-218.7 312.75,-220.38"/>
<polygon fill="midnightblue" stroke="midnightblue" points="311.81,-223.76 322.41,-223.87 314.2,-217.18 311.81,-223.76"/>
</g>
<!-- Node13&#45;&gt;Node8 -->
<g id="edge24" class="edge">
<title>Node13&#45;&gt;Node8</title>
<path fill="none" stroke="midnightblue" d="M258.5,-163.13C272.6,-166.21 288.03,-169.58 303.04,-172.86"/>
<polygon fill="midnightblue" stroke="midnightblue" points="302.31,-176.28 312.82,-174.99 303.8,-169.44 302.31,-176.28"/>
</g>
<!-- Node13&#45;&gt;Node10 -->
<g id="edge25" class="edge">
<title>Node13&#45;&gt;Node10</title>
<path fill="none" stroke="midnightblue" d="M258.5,-147.89C274.93,-146.97 293.14,-145.95 310.41,-144.98"/>
<polygon fill="midnightblue" stroke="midnightblue" points="310.66,-148.47 320.44,-144.42 310.26,-141.49 310.66,-148.47"/>
</g>
<!-- Node14 -->
<g id="node13" class="node">
<title>Node14</title>
<g id="a_node13"><a xlink:href="../../d4/d2c/classleanux_1_1persist_1_1Query.html#a86b5deec83f9cdf0c72f6caf503984d9" target="_top" xlink:title="Get int value from select list.">
<polygon fill="none" stroke="black" points="320.5,-77 320.5,-107 444.5,-107 444.5,-77 320.5,-77"/>
<text text-anchor="start" x="328.5" y="-95" font-family="Helvetica,sans-Serif" font-size="10.00">leanux::persist::Query</text>
<text text-anchor="middle" x="382.5" y="-84" font-family="Helvetica,sans-Serif" font-size="10.00">::getInt</text>
</a>
</g>
</g>
<!-- Node13&#45;&gt;Node14 -->
<g id="edge21" class="edge">
<title>Node13&#45;&gt;Node14</title>
<path fill="none" stroke="midnightblue" d="M244.89,-135.91C261.94,-129.88 281.86,-122.96 300,-117 306.96,-114.71 314.28,-112.38 321.55,-110.09"/>
<polygon fill="midnightblue" stroke="midnightblue" points="322.9,-113.34 331.4,-107.03 320.82,-106.66 322.9,-113.34"/>
</g>
<!-- Node15 -->
<g id="node14" class="node">
<title>Node15</title>
<g id="a_node14"><a xlink:href="../../dd/d42/namespaceleanux_1_1system.html#a15a1517cb994968027d406402a588157" target="_top" xlink:title="Get username from a uid.">
<polygon fill="none" stroke="black" points="300,-38.5 300,-57.5 465,-57.5 465,-38.5 300,-38.5"/>
<text text-anchor="middle" x="382.5" y="-45.5" font-family="Helvetica,sans-Serif" font-size="10.00">leanux::system::getUserName</text>
</a>
</g>
</g>
<!-- Node13&#45;&gt;Node15 -->
<g id="edge22" class="edge">
<title>Node13&#45;&gt;Node15</title>
<path fill="none" stroke="midnightblue" d="M216.52,-135.68C233.96,-116.89 266.08,-85.41 300,-68 305.53,-65.16 311.48,-62.71 317.55,-60.61"/>
<polygon fill="midnightblue" stroke="midnightblue" points="318.69,-63.92 327.16,-57.57 316.57,-57.25 318.69,-63.92"/>
</g>
<!-- Node16 -->
<g id="node15" class="node">
<title>Node16</title>
<g id="a_node15"><a xlink:href="../../d8/db1/namespaceleanux_1_1util.html#a0c9555d36d9264d1f0cd246c8ba6da28" target="_top" xlink:title="Convert a double (real number) to a pretty print string.">
<polygon fill="none" stroke="black" points="325.5,-0.5 325.5,-19.5 439.5,-19.5 439.5,-0.5 325.5,-0.5"/>
<text text-anchor="middle" x="382.5" y="-7.5" font-family="Helvetica,sans-Serif" font-size="10.00">leanux::util::NumStr</text>
</a>
</g>
</g>
<!-- Node13&#45;&gt;Node16 -->
<g id="edge23" class="edge">
<title>Node13&#45;&gt;Node16</title>
<path fill="none" stroke="midnightblue" d="M219.57,-135.84C232.47,-123.6 250.4,-105.58 264,-88 282.8,-63.71 275.11,-47 300,-29 304.83,-25.51 310.2,-22.65 315.82,-20.31"/>
<polygon fill="midnightblue" stroke="midnightblue" points="317.23,-23.52 325.45,-16.84 314.86,-16.93 317.23,-23.52"/>
</g>
</g>
</svg>
