<?xml version="1.0" encoding="UTF-8" standalone="no"?>
<!DOCTYPE svg PUBLIC "-//W3C//DTD SVG 1.1//EN"
 "http://www.w3.org/Graphics/SVG/1.1/DTD/svg11.dtd">
<!-- Generated by graphviz version 2.43.0 (0)
 -->
<!-- Title: leanux::tools::lrep::htmlTimeLine Pages: 1 -->
<svg width="545pt" height="132pt"
 viewBox="0.00 0.00 545.00 132.00" xmlns="http://www.w3.org/2000/svg" xmlns:xlink="http://www.w3.org/1999/xlink">
<g id="graph0" class="graph" transform="scale(1 1) rotate(0) translate(4 128)">
<title>leanux::tools::lrep::htmlTimeLine</title>
<!-- Node1 -->
<g id="node1" class="node">
<title>Node1</title>
<g id="a_node1"><a xlink:title=" ">
<polygon fill="#bfbfbf" stroke="black" points="433,-44.5 433,-74.5 537,-74.5 537,-44.5 433,-44.5"/>
<text text-anchor="start" x="441" y="-62.5" font-family="Helvetica,sans-Serif" font-size="10.00">leanux::tools::lrep</text>
<text text-anchor="middle" x="485" y="-51.5" font-family="Helvetica,sans-Serif" font-size="10.00">::htmlTimeLine</text>
</a>
</g>
</g>
<!-- Node2 -->
<g id="node2" class="node">
<title>Node2</title>
<g id="a_node2"><a xlink:href="../../d6/dd3/namespaceleanux_1_1tools_1_1lrep.html#abb2c4d60c9284405a71347cb64780517" target="_top" xlink:title=" ">
<polygon fill="none" stroke="black" points="280,-93.5 280,-123.5 397,-123.5 397,-93.5 280,-93.5"/>
<text text-anchor="start" x="288" y="-111.5" font-family="Helvetica,sans-Serif" font-size="10.00">leanux::tools::lrep</text>
<text text-anchor="middle" x="338.5" y="-100.5" font-family="Helvetica,sans-Serif" font-size="10.00">::htmlCmdCPUDetail</text>
</a>
</g>
</g>
<!-- Node1&#45;&gt;Node2 -->
<g id="edge1" class="edge">
<title>Node1&#45;&gt;Node2</title>
<path fill="none" stroke="midnightblue" d="M429.77,-77.89C414.72,-82.99 398.56,-88.47 384.14,-93.36"/>
<polygon fill="midnightblue" stroke="midnightblue" points="431.12,-81.13 439.47,-74.6 428.87,-74.5 431.12,-81.13"/>
</g>
<!-- Node6 -->
<g id="node5" class="node">
<title>Node6</title>
<g id="a_node5"><a xlink:href="../../d6/dd3/namespaceleanux_1_1tools_1_1lrep.html#a9434a7f41a9aef0ce48a762267da8797" target="_top" xlink:title=" ">
<polygon fill="none" stroke="black" points="280.5,-44.5 280.5,-74.5 396.5,-74.5 396.5,-44.5 280.5,-44.5"/>
<text text-anchor="start" x="288.5" y="-62.5" font-family="Helvetica,sans-Serif" font-size="10.00">leanux::tools::lrep</text>
<text text-anchor="middle" x="338.5" y="-51.5" font-family="Helvetica,sans-Serif" font-size="10.00">::htmlCmdRSSDetail</text>
</a>
</g>
</g>
<!-- Node1&#45;&gt;Node6 -->
<g id="edge4" class="edge">
<title>Node1&#45;&gt;Node6</title>
<path fill="none" stroke="midnightblue" d="M422.63,-59.5C413.99,-59.5 405.14,-59.5 396.58,-59.5"/>
<polygon fill="midnightblue" stroke="midnightblue" points="422.65,-63 432.65,-59.5 422.65,-56 422.65,-63"/>
</g>
<!-- Node7 -->
<g id="node6" class="node">
<title>Node7</title>
<g id="a_node6"><a xlink:href="../../d6/dd3/namespaceleanux_1_1tools_1_1lrep.html#a6f351b4134bb9689630c092625774c9d" target="_top" xlink:title=" ">
<polygon fill="none" stroke="black" points="140,-0.5 140,-30.5 244,-30.5 244,-0.5 140,-0.5"/>
<text text-anchor="start" x="148" y="-18.5" font-family="Helvetica,sans-Serif" font-size="10.00">leanux::tools::lrep</text>
<text text-anchor="middle" x="192" y="-7.5" font-family="Helvetica,sans-Serif" font-size="10.00">::htmlTimeLines</text>
</a>
</g>
</g>
<!-- Node1&#45;&gt;Node7 -->
<g id="edge6" class="edge">
<title>Node1&#45;&gt;Node7</title>
<path fill="none" stroke="midnightblue" d="M425.41,-41.87C415.97,-39.45 406.26,-37.22 397,-35.5 345.39,-25.92 285.53,-20.74 244.06,-18.07"/>
<polygon fill="midnightblue" stroke="midnightblue" points="424.55,-45.26 435.11,-44.43 426.34,-38.49 424.55,-45.26"/>
</g>
<!-- Node3 -->
<g id="node3" class="node">
<title>Node3</title>
<g id="a_node3"><a xlink:href="../../d6/dd3/namespaceleanux_1_1tools_1_1lrep.html#a62c03f9d98087191a6d6473c7384fa74" target="_top" xlink:title=" ">
<polygon fill="none" stroke="black" points="140,-49.5 140,-79.5 244,-79.5 244,-49.5 140,-49.5"/>
<text text-anchor="start" x="148" y="-67.5" font-family="Helvetica,sans-Serif" font-size="10.00">leanux::tools::lrep</text>
<text text-anchor="middle" x="192" y="-56.5" font-family="Helvetica,sans-Serif" font-size="10.00">::htmlCmdDetails</text>
</a>
</g>
</g>
<!-- Node2&#45;&gt;Node3 -->
<g id="edge2" class="edge">
<title>Node2&#45;&gt;Node3</title>
<path fill="none" stroke="midnightblue" d="M278.34,-90.49C266.47,-86.87 254.1,-83.11 242.59,-79.6"/>
<polygon fill="midnightblue" stroke="midnightblue" points="277.59,-93.92 288.18,-93.48 279.63,-87.22 277.59,-93.92"/>
</g>
<!-- Node4 -->
<g id="node4" class="node">
<title>Node4</title>
<g id="a_node4"><a xlink:href="../../d6/dd3/namespaceleanux_1_1tools_1_1lrep.html#aa0e1422d8d75831ea3801ffa728bf436" target="_top" xlink:title=" ">
<polygon fill="none" stroke="red" points="0,-24.5 0,-54.5 104,-54.5 104,-24.5 0,-24.5"/>
<text text-anchor="start" x="8" y="-42.5" font-family="Helvetica,sans-Serif" font-size="10.00">leanux::tools::lrep</text>
<text text-anchor="middle" x="52" y="-31.5" font-family="Helvetica,sans-Serif" font-size="10.00">::main</text>
</a>
</g>
</g>
<!-- Node3&#45;&gt;Node4 -->
<g id="edge3" class="edge">
<title>Node3&#45;&gt;Node4</title>
<path fill="none" stroke="midnightblue" d="M129.5,-53.36C121.13,-51.84 112.6,-50.3 104.43,-48.82"/>
<polygon fill="midnightblue" stroke="midnightblue" points="129.15,-56.85 139.61,-55.19 130.4,-49.96 129.15,-56.85"/>
</g>
<!-- Node6&#45;&gt;Node3 -->
<g id="edge5" class="edge">
<title>Node6&#45;&gt;Node3</title>
<path fill="none" stroke="midnightblue" d="M270.17,-61.83C261.39,-62.13 252.52,-62.44 244.07,-62.73"/>
<polygon fill="midnightblue" stroke="midnightblue" points="270.52,-65.32 280.39,-61.48 270.27,-58.32 270.52,-65.32"/>
</g>
<!-- Node7&#45;&gt;Node4 -->
<g id="edge7" class="edge">
<title>Node7&#45;&gt;Node4</title>
<path fill="none" stroke="midnightblue" d="M129.5,-26.19C121.13,-27.65 112.6,-29.13 104.43,-30.56"/>
<polygon fill="midnightblue" stroke="midnightblue" points="130.36,-29.6 139.61,-24.44 129.16,-22.7 130.36,-29.6"/>
</g>
</g>
</svg>
