<?xml version="1.0" encoding="UTF-8" standalone="no"?>
<!DOCTYPE svg PUBLIC "-//W3C//DTD SVG 1.1//EN"
 "http://www.w3.org/Graphics/SVG/1.1/DTD/svg11.dtd">
<!-- Generated by graphviz version 2.43.0 (0)
 -->
<!-- Title: leanux::tools::lrep::htmlHeatMap Pages: 1 -->
<svg width="392pt" height="186pt"
 viewBox="0.00 0.00 392.00 186.00" xmlns="http://www.w3.org/2000/svg" xmlns:xlink="http://www.w3.org/1999/xlink">
<g id="graph0" class="graph" transform="scale(1 1) rotate(0) translate(4 182)">
<title>leanux::tools::lrep::htmlHeatMap</title>
<!-- Node1 -->
<g id="node1" class="node">
<title>Node1</title>
<g id="a_node1"><a xlink:title=" ">
<polygon fill="#bfbfbf" stroke="black" points="280,-73.5 280,-103.5 384,-103.5 384,-73.5 280,-73.5"/>
<text text-anchor="start" x="288" y="-91.5" font-family="Helvetica,sans-Serif" font-size="10.00">leanux::tools::lrep</text>
<text text-anchor="middle" x="332" y="-80.5" font-family="Helvetica,sans-Serif" font-size="10.00">::htmlHeatMap</text>
</a>
</g>
</g>
<!-- Node2 -->
<g id="node2" class="node">
<title>Node2</title>
<g id="a_node2"><a xlink:href="../../d6/dd3/namespaceleanux_1_1tools_1_1lrep.html#a2098b7d6c8b5a08a4f392f8510df8e91" target="_top" xlink:title=" ">
<polygon fill="none" stroke="black" points="140,-147.5 140,-177.5 244,-177.5 244,-147.5 140,-147.5"/>
<text text-anchor="start" x="148" y="-165.5" font-family="Helvetica,sans-Serif" font-size="10.00">leanux::tools::lrep</text>
<text text-anchor="middle" x="192" y="-154.5" font-family="Helvetica,sans-Serif" font-size="10.00">::CPUHeatMap</text>
</a>
</g>
</g>
<!-- Node1&#45;&gt;Node2 -->
<g id="edge1" class="edge">
<title>Node1&#45;&gt;Node2</title>
<path fill="none" stroke="midnightblue" d="M296.86,-108.98C280.96,-118.3 261.69,-129.27 244,-138.5 238.27,-141.49 232.11,-144.53 226.12,-147.4"/>
<polygon fill="midnightblue" stroke="midnightblue" points="298.96,-111.81 305.8,-103.71 295.41,-105.78 298.96,-111.81"/>
</g>
<!-- Node6 -->
<g id="node4" class="node">
<title>Node6</title>
<g id="a_node4"><a xlink:href="../../d6/dd3/namespaceleanux_1_1tools_1_1lrep.html#abbb333976f55d722d27af8dad0ba6ff1" target="_top" xlink:title=" ">
<polygon fill="none" stroke="black" points="140,-98.5 140,-128.5 244,-128.5 244,-98.5 140,-98.5"/>
<text text-anchor="start" x="148" y="-116.5" font-family="Helvetica,sans-Serif" font-size="10.00">leanux::tools::lrep</text>
<text text-anchor="middle" x="192" y="-105.5" font-family="Helvetica,sans-Serif" font-size="10.00">::DiskHeatMap</text>
</a>
</g>
</g>
<!-- Node1&#45;&gt;Node6 -->
<g id="edge3" class="edge">
<title>Node1&#45;&gt;Node6</title>
<path fill="none" stroke="midnightblue" d="M269.5,-99.64C261.13,-101.16 252.6,-102.7 244.43,-104.18"/>
<polygon fill="midnightblue" stroke="midnightblue" points="270.4,-103.04 279.61,-97.81 269.15,-96.15 270.4,-103.04"/>
</g>
<!-- Node7 -->
<g id="node5" class="node">
<title>Node7</title>
<g id="a_node5"><a xlink:href="../../d6/dd3/namespaceleanux_1_1tools_1_1lrep.html#acfb722a2139dd3ac2c083f88cfb90831" target="_top" xlink:title=" ">
<polygon fill="none" stroke="black" points="140,-49.5 140,-79.5 244,-79.5 244,-49.5 140,-49.5"/>
<text text-anchor="start" x="148" y="-67.5" font-family="Helvetica,sans-Serif" font-size="10.00">leanux::tools::lrep</text>
<text text-anchor="middle" x="192" y="-56.5" font-family="Helvetica,sans-Serif" font-size="10.00">::load5HeatMap</text>
</a>
</g>
</g>
<!-- Node1&#45;&gt;Node7 -->
<g id="edge5" class="edge">
<title>Node1&#45;&gt;Node7</title>
<path fill="none" stroke="midnightblue" d="M269.5,-77.81C261.13,-76.35 252.6,-74.87 244.43,-73.44"/>
<polygon fill="midnightblue" stroke="midnightblue" points="269.16,-81.3 279.61,-79.56 270.36,-74.4 269.16,-81.3"/>
</g>
<!-- Node8 -->
<g id="node6" class="node">
<title>Node8</title>
<g id="a_node6"><a xlink:href="../../d6/dd3/namespaceleanux_1_1tools_1_1lrep.html#a75cd64e14d85060e8dc784918f43fbd7" target="_top" xlink:title=" ">
<polygon fill="none" stroke="black" points="140,-0.5 140,-30.5 244,-30.5 244,-0.5 140,-0.5"/>
<text text-anchor="start" x="148" y="-18.5" font-family="Helvetica,sans-Serif" font-size="10.00">leanux::tools::lrep</text>
<text text-anchor="middle" x="192" y="-7.5" font-family="Helvetica,sans-Serif" font-size="10.00">::NetPktHeatMap</text>
</a>
</g>
</g>
<!-- Node1&#45;&gt;Node8 -->
<g id="edge7" class="edge">
<title>Node1&#45;&gt;Node8</title>
<path fill="none" stroke="midnightblue" d="M295.66,-68.5C279.94,-59.73 261.14,-49.42 244,-40.5 237.7,-37.22 230.91,-33.81 224.41,-30.6"/>
<polygon fill="midnightblue" stroke="midnightblue" points="294.09,-71.63 304.53,-73.46 297.51,-65.52 294.09,-71.63"/>
</g>
<!-- Node3 -->
<g id="node3" class="node">
<title>Node3</title>
<g id="a_node3"><a xlink:href="../../d6/dd3/namespaceleanux_1_1tools_1_1lrep.html#a7a328698816eedc4a2a99dc61d79cfd5" target="_top" xlink:title=" ">
<polygon fill="none" stroke="red" points="0,-73.5 0,-103.5 104,-103.5 104,-73.5 0,-73.5"/>
<text text-anchor="start" x="8" y="-91.5" font-family="Helvetica,sans-Serif" font-size="10.00">leanux::tools::lrep</text>
<text text-anchor="middle" x="52" y="-80.5" font-family="Helvetica,sans-Serif" font-size="10.00">::htmlHeatMaps</text>
</a>
</g>
</g>
<!-- Node2&#45;&gt;Node3 -->
<g id="edge2" class="edge">
<title>Node2&#45;&gt;Node3</title>
<path fill="none" stroke="midnightblue" d="M148.84,-142.99C145.84,-141.5 142.86,-139.99 140,-138.5 118.84,-127.46 95.41,-113.92 78.2,-103.71"/>
<polygon fill="midnightblue" stroke="midnightblue" points="147.36,-146.17 157.88,-147.4 150.43,-139.87 147.36,-146.17"/>
</g>
<!-- Node6&#45;&gt;Node3 -->
<g id="edge4" class="edge">
<title>Node6&#45;&gt;Node3</title>
<path fill="none" stroke="midnightblue" d="M129.5,-102.36C121.13,-100.84 112.6,-99.3 104.43,-97.82"/>
<polygon fill="midnightblue" stroke="midnightblue" points="129.15,-105.85 139.61,-104.19 130.4,-98.96 129.15,-105.85"/>
</g>
<!-- Node7&#45;&gt;Node3 -->
<g id="edge6" class="edge">
<title>Node7&#45;&gt;Node3</title>
<path fill="none" stroke="midnightblue" d="M129.5,-75.19C121.13,-76.65 112.6,-78.13 104.43,-79.56"/>
<polygon fill="midnightblue" stroke="midnightblue" points="130.36,-78.6 139.61,-73.44 129.16,-71.7 130.36,-78.6"/>
</g>
<!-- Node8&#45;&gt;Node3 -->
<g id="edge8" class="edge">
<title>Node8&#45;&gt;Node3</title>
<path fill="none" stroke="midnightblue" d="M150.34,-35.21C146.83,-36.98 143.35,-38.76 140,-40.5 119.5,-51.17 96.62,-63.82 79.47,-73.46"/>
<polygon fill="midnightblue" stroke="midnightblue" points="152.2,-38.19 159.59,-30.6 149.08,-31.93 152.2,-38.19"/>
</g>
</g>
</svg>
