<?xml version="1.0" encoding="UTF-8" standalone="no"?>
<!DOCTYPE svg PUBLIC "-//W3C//DTD SVG 1.1//EN"
 "http://www.w3.org/Graphics/SVG/1.1/DTD/svg11.dtd">
<!-- Generated by graphviz version 2.43.0 (0)
 -->
<!-- Title: leanux::tools::lrep::resolveCacheIP Pages: 1 -->
<svg width="448pt" height="39pt"
 viewBox="0.00 0.00 448.00 39.00" xmlns="http://www.w3.org/2000/svg" xmlns:xlink="http://www.w3.org/1999/xlink">
<g id="graph0" class="graph" transform="scale(1 1) rotate(0) translate(4 35)">
<title>leanux::tools::lrep::resolveCacheIP</title>
<!-- Node1 -->
<g id="node1" class="node">
<title>Node1</title>
<g id="a_node1"><a xlink:title="get from cache or DNS request on cache miss">
<polygon fill="#bfbfbf" stroke="black" points="0,-0.5 0,-30.5 104,-30.5 104,-0.5 0,-0.5"/>
<text text-anchor="start" x="8" y="-18.5" font-family="Helvetica,sans-Serif" font-size="10.00">leanux::tools::lrep</text>
<text text-anchor="middle" x="52" y="-7.5" font-family="Helvetica,sans-Serif" font-size="10.00">::resolveCacheIP</text>
</a>
</g>
</g>
<!-- Node2 -->
<g id="node2" class="node">
<title>Node2</title>
<g id="a_node2"><a xlink:href="../../d5/db8/namespaceleanux_1_1net.html#a63180a19841a83de5f17eca4c4e055dd" target="_top" xlink:title="Try to resolve an IPv4 or IPv6 address.">
<polygon fill="none" stroke="black" points="140,-6 140,-25 262,-25 262,-6 140,-6"/>
<text text-anchor="middle" x="201" y="-13" font-family="Helvetica,sans-Serif" font-size="10.00">leanux::net::resolveIP</text>
</a>
</g>
</g>
<!-- Node1&#45;&gt;Node2 -->
<g id="edge1" class="edge">
<title>Node1&#45;&gt;Node2</title>
<path fill="none" stroke="midnightblue" d="M104,-15.5C112.35,-15.5 121.12,-15.5 129.83,-15.5"/>
<polygon fill="midnightblue" stroke="midnightblue" points="129.99,-19 139.99,-15.5 129.99,-12 129.99,-19"/>
</g>
<!-- Node3 -->
<g id="node3" class="node">
<title>Node3</title>
<g id="a_node3"><a xlink:href="../../d5/db8/namespaceleanux_1_1net.html#a4d819c0ea81827dfcdb02363905d94e9" target="_top" xlink:title="Determine the type of IP address.">
<polygon fill="none" stroke="black" points="298,-6 298,-25 440,-25 440,-6 298,-6"/>
<text text-anchor="middle" x="369" y="-13" font-family="Helvetica,sans-Serif" font-size="10.00">leanux::net::whatAF_INET</text>
</a>
</g>
</g>
<!-- Node2&#45;&gt;Node3 -->
<g id="edge2" class="edge">
<title>Node2&#45;&gt;Node3</title>
<path fill="none" stroke="midnightblue" d="M262.4,-15.5C270.57,-15.5 279.06,-15.5 287.51,-15.5"/>
<polygon fill="midnightblue" stroke="midnightblue" points="287.79,-19 297.79,-15.5 287.79,-12 287.79,-19"/>
</g>
</g>
</svg>
