<?xml version="1.0" encoding="UTF-8" standalone="no"?>
<!DOCTYPE svg PUBLIC "-//W3C//DTD SVG 1.1//EN"
 "http://www.w3.org/Graphics/SVG/1.1/DTD/svg11.dtd">
<!-- Generated by graphviz version 2.43.0 (0)
 -->
<!-- Title: leanux::tools::lrep::htmlDiskHolderTree Pages: 1 -->
<svg width="661pt" height="83pt"
 viewBox="0.00 0.00 661.00 83.00" xmlns="http://www.w3.org/2000/svg" xmlns:xlink="http://www.w3.org/1999/xlink">
<g id="graph0" class="graph" transform="scale(1 1) rotate(0) translate(4 79)">
<title>leanux::tools::lrep::htmlDiskHolderTree</title>
<!-- Node1 -->
<g id="node1" class="node">
<title>Node1</title>
<g id="a_node1"><a xlink:title=" ">
<polygon fill="#bfbfbf" stroke="black" points="0,-22.5 0,-52.5 119,-52.5 119,-22.5 0,-22.5"/>
<text text-anchor="start" x="8" y="-40.5" font-family="Helvetica,sans-Serif" font-size="10.00">leanux::tools::lrep</text>
<text text-anchor="middle" x="59.5" y="-29.5" font-family="Helvetica,sans-Serif" font-size="10.00">::htmlDiskHolderTree</text>
</a>
</g>
</g>
<!-- Node2 -->
<g id="node2" class="node">
<title>Node2</title>
<g id="a_node2"><a xlink:href="../../d7/d28/classleanux_1_1block_1_1MajorMinor.html#a08c4dd48259318cfd77067e866e05e84" target="_top" xlink:title="get the device name for this MajorMinor.">
<polygon fill="none" stroke="black" points="331,-44.5 331,-74.5 474,-74.5 474,-44.5 331,-44.5"/>
<text text-anchor="start" x="339" y="-62.5" font-family="Helvetica,sans-Serif" font-size="10.00">leanux::block::MajorMinor</text>
<text text-anchor="middle" x="402.5" y="-51.5" font-family="Helvetica,sans-Serif" font-size="10.00">::getName</text>
</a>
</g>
</g>
<!-- Node1&#45;&gt;Node2 -->
<g id="edge1" class="edge">
<title>Node1&#45;&gt;Node2</title>
<path fill="none" stroke="midnightblue" d="M119.12,-41.28C174.77,-44.87 258.88,-50.3 320.84,-54.3"/>
<polygon fill="midnightblue" stroke="midnightblue" points="320.77,-57.8 330.97,-54.95 321.22,-50.81 320.77,-57.8"/>
</g>
<!-- Node7 -->
<g id="node4" class="node">
<title>Node7</title>
<g id="a_node4"><a xlink:href="../../d6/dd3/namespaceleanux_1_1tools_1_1lrep.html#a8634850f0d03b1684c24dd922d0f5bb0" target="_top" xlink:title=" ">
<polygon fill="none" stroke="black" points="155,-0.5 155,-30.5 295,-30.5 295,-0.5 155,-0.5"/>
<text text-anchor="start" x="163" y="-18.5" font-family="Helvetica,sans-Serif" font-size="10.00">leanux::tools::lrep</text>
<text text-anchor="middle" x="225" y="-7.5" font-family="Helvetica,sans-Serif" font-size="10.00">::htmlDiskHolderTreeLine</text>
</a>
</g>
</g>
<!-- Node1&#45;&gt;Node7 -->
<g id="edge3" class="edge">
<title>Node1&#45;&gt;Node7</title>
<path fill="none" stroke="midnightblue" d="M119.07,-29.62C127.43,-28.49 136.15,-27.32 144.82,-26.15"/>
<polygon fill="midnightblue" stroke="midnightblue" points="145.53,-29.59 154.97,-24.79 144.59,-22.65 145.53,-29.59"/>
</g>
<!-- Node3 -->
<g id="node3" class="node">
<title>Node3</title>
<g id="a_node3"><a xlink:href="../../d7/d28/classleanux_1_1block_1_1MajorMinor.html#adc3f437e329318ee21bddbbebaeb740e" target="_top" xlink:title="Get the DeviceName for the MajorMinor.">
<polygon fill="none" stroke="red" points="510,-44.5 510,-74.5 653,-74.5 653,-44.5 510,-44.5"/>
<text text-anchor="start" x="518" y="-62.5" font-family="Helvetica,sans-Serif" font-size="10.00">leanux::block::MajorMinor</text>
<text text-anchor="middle" x="581.5" y="-51.5" font-family="Helvetica,sans-Serif" font-size="10.00">::getNameByMajorMinor</text>
</a>
</g>
</g>
<!-- Node2&#45;&gt;Node3 -->
<g id="edge2" class="edge">
<title>Node2&#45;&gt;Node3</title>
<path fill="none" stroke="midnightblue" d="M474.22,-59.5C482.57,-59.5 491.14,-59.5 499.62,-59.5"/>
<polygon fill="midnightblue" stroke="midnightblue" points="499.89,-63 509.89,-59.5 499.89,-56 499.89,-63"/>
</g>
<!-- Node7&#45;&gt;Node2 -->
<g id="edge5" class="edge">
<title>Node7&#45;&gt;Node2</title>
<path fill="none" stroke="midnightblue" d="M285.91,-30.52C300.65,-34.22 316.56,-38.21 331.73,-42.01"/>
<polygon fill="midnightblue" stroke="midnightblue" points="331.01,-45.44 341.57,-44.47 332.72,-38.65 331.01,-45.44"/>
</g>
<!-- Node8 -->
<g id="node5" class="node">
<title>Node8</title>
<g id="a_node5"><a xlink:href="../../d8/db1/namespaceleanux_1_1util.html#a979843e3d99f053101f902ec38985833" target="_top" xlink:title="convert a byte value to pretty print string.">
<polygon fill="none" stroke="black" points="346,-6 346,-25 459,-25 459,-6 346,-6"/>
<text text-anchor="middle" x="402.5" y="-13" font-family="Helvetica,sans-Serif" font-size="10.00">leanux::util::ByteStr</text>
</a>
</g>
</g>
<!-- Node7&#45;&gt;Node8 -->
<g id="edge4" class="edge">
<title>Node7&#45;&gt;Node8</title>
<path fill="none" stroke="midnightblue" d="M295.11,-15.5C308.56,-15.5 322.63,-15.5 335.96,-15.5"/>
<polygon fill="midnightblue" stroke="midnightblue" points="335.99,-19 345.99,-15.5 335.99,-12 335.99,-19"/>
</g>
</g>
</svg>
