<?xml version="1.0" encoding="UTF-8" standalone="no"?>
<!DOCTYPE svg PUBLIC "-//W3C//DTD SVG 1.1//EN"
 "http://www.w3.org/Graphics/SVG/1.1/DTD/svg11.dtd">
<!-- Generated by graphviz version 2.43.0 (0)
 -->
<!-- Title: leanux::tools::lrep::htmlHeatMaps Pages: 1 -->
<svg width="434pt" height="284pt"
 viewBox="0.00 0.00 434.00 284.00" xmlns="http://www.w3.org/2000/svg" xmlns:xlink="http://www.w3.org/1999/xlink">
<g id="graph0" class="graph" transform="scale(1 1) rotate(0) translate(4 280)">
<title>leanux::tools::lrep::htmlHeatMaps</title>
<!-- Node1 -->
<g id="node1" class="node">
<title>Node1</title>
<g id="a_node1"><a xlink:title=" ">
<polygon fill="#bfbfbf" stroke="black" points="0,-122.5 0,-152.5 104,-152.5 104,-122.5 0,-122.5"/>
<text text-anchor="start" x="8" y="-140.5" font-family="Helvetica,sans-Serif" font-size="10.00">leanux::tools::lrep</text>
<text text-anchor="middle" x="52" y="-129.5" font-family="Helvetica,sans-Serif" font-size="10.00">::htmlHeatMaps</text>
</a>
</g>
</g>
<!-- Node2 -->
<g id="node2" class="node">
<title>Node2</title>
<g id="a_node2"><a xlink:href="../../d6/dd3/namespaceleanux_1_1tools_1_1lrep.html#a2098b7d6c8b5a08a4f392f8510df8e91" target="_top" xlink:title=" ">
<polygon fill="none" stroke="black" points="140,-98.5 140,-128.5 244,-128.5 244,-98.5 140,-98.5"/>
<text text-anchor="start" x="148" y="-116.5" font-family="Helvetica,sans-Serif" font-size="10.00">leanux::tools::lrep</text>
<text text-anchor="middle" x="192" y="-105.5" font-family="Helvetica,sans-Serif" font-size="10.00">::CPUHeatMap</text>
</a>
</g>
</g>
<!-- Node1&#45;&gt;Node2 -->
<g id="edge1" class="edge">
<title>Node1&#45;&gt;Node2</title>
<path fill="none" stroke="midnightblue" d="M104.39,-128.56C112.56,-127.14 121.08,-125.66 129.46,-124.2"/>
<polygon fill="midnightblue" stroke="midnightblue" points="130.32,-127.61 139.57,-122.44 129.12,-120.71 130.32,-127.61"/>
</g>
<!-- Node11 -->
<g id="node9" class="node">
<title>Node11</title>
<g id="a_node9"><a xlink:href="../../d6/dd3/namespaceleanux_1_1tools_1_1lrep.html#abbb333976f55d722d27af8dad0ba6ff1" target="_top" xlink:title=" ">
<polygon fill="none" stroke="black" points="140,-49.5 140,-79.5 244,-79.5 244,-49.5 140,-49.5"/>
<text text-anchor="start" x="148" y="-67.5" font-family="Helvetica,sans-Serif" font-size="10.00">leanux::tools::lrep</text>
<text text-anchor="middle" x="192" y="-56.5" font-family="Helvetica,sans-Serif" font-size="10.00">::DiskHeatMap</text>
</a>
</g>
</g>
<!-- Node1&#45;&gt;Node11 -->
<g id="edge8" class="edge">
<title>Node1&#45;&gt;Node11</title>
<path fill="none" stroke="midnightblue" d="M79.47,-122.46C96.62,-112.82 119.5,-100.17 140,-89.5 143.35,-87.76 146.83,-85.98 150.34,-84.21"/>
<polygon fill="midnightblue" stroke="midnightblue" points="152.2,-87.19 159.59,-79.6 149.08,-80.93 152.2,-87.19"/>
</g>
<!-- Node12 -->
<g id="node10" class="node">
<title>Node12</title>
<g id="a_node10"><a xlink:href="../../d6/dd3/namespaceleanux_1_1tools_1_1lrep.html#acfb722a2139dd3ac2c083f88cfb90831" target="_top" xlink:title=" ">
<polygon fill="none" stroke="black" points="140,-196.5 140,-226.5 244,-226.5 244,-196.5 140,-196.5"/>
<text text-anchor="start" x="148" y="-214.5" font-family="Helvetica,sans-Serif" font-size="10.00">leanux::tools::lrep</text>
<text text-anchor="middle" x="192" y="-203.5" font-family="Helvetica,sans-Serif" font-size="10.00">::load5HeatMap</text>
</a>
</g>
</g>
<!-- Node1&#45;&gt;Node12 -->
<g id="edge15" class="edge">
<title>Node1&#45;&gt;Node12</title>
<path fill="none" stroke="midnightblue" d="M78.2,-152.71C95.41,-162.92 118.84,-176.46 140,-187.5 142.86,-188.99 145.84,-190.5 148.84,-191.99"/>
<polygon fill="midnightblue" stroke="midnightblue" points="147.36,-195.17 157.88,-196.4 150.43,-188.87 147.36,-195.17"/>
</g>
<!-- Node13 -->
<g id="node11" class="node">
<title>Node13</title>
<g id="a_node11"><a xlink:href="../../d6/dd3/namespaceleanux_1_1tools_1_1lrep.html#a75cd64e14d85060e8dc784918f43fbd7" target="_top" xlink:title=" ">
<polygon fill="none" stroke="black" points="140,-147.5 140,-177.5 244,-177.5 244,-147.5 140,-147.5"/>
<text text-anchor="start" x="148" y="-165.5" font-family="Helvetica,sans-Serif" font-size="10.00">leanux::tools::lrep</text>
<text text-anchor="middle" x="192" y="-154.5" font-family="Helvetica,sans-Serif" font-size="10.00">::NetPktHeatMap</text>
</a>
</g>
</g>
<!-- Node1&#45;&gt;Node13 -->
<g id="edge22" class="edge">
<title>Node1&#45;&gt;Node13</title>
<path fill="none" stroke="midnightblue" d="M104.39,-146.81C112.56,-148.29 121.08,-149.83 129.46,-151.35"/>
<polygon fill="midnightblue" stroke="midnightblue" points="129.11,-154.84 139.57,-153.18 130.36,-147.96 129.11,-154.84"/>
</g>
<!-- Node3 -->
<g id="node3" class="node">
<title>Node3</title>
<g id="a_node3"><a xlink:href="../../d9/d78/classleanux_1_1persist_1_1DML.html#a8df01a6d880515c22106e424ed342c81" target="_top" xlink:title="Bind a double value to the bind at position.">
<polygon fill="none" stroke="black" points="295,-245.5 295,-275.5 411,-275.5 411,-245.5 295,-245.5"/>
<text text-anchor="start" x="303" y="-263.5" font-family="Helvetica,sans-Serif" font-size="10.00">leanux::persist::DML</text>
<text text-anchor="middle" x="353" y="-252.5" font-family="Helvetica,sans-Serif" font-size="10.00">::bind</text>
</a>
</g>
</g>
<!-- Node2&#45;&gt;Node3 -->
<g id="edge2" class="edge">
<title>Node2&#45;&gt;Node3</title>
<path fill="none" stroke="midnightblue" d="M232,-128.57C236.42,-131.4 240.57,-134.69 244,-138.5 275.07,-172.97 246.7,-204.19 280,-236.5 281.9,-238.35 283.95,-240.05 286.11,-241.62"/>
<polygon fill="midnightblue" stroke="midnightblue" points="284.57,-244.79 294.92,-247.07 288.25,-238.83 284.57,-244.79"/>
</g>
<!-- Node4 -->
<g id="node4" class="node">
<title>Node4</title>
<g id="a_node4"><a xlink:href="../../d4/d2c/classleanux_1_1persist_1_1Query.html#ac71ce2dce629c76434dfb541bbe55658" target="_top" xlink:title="Get double value from select list.">
<polygon fill="none" stroke="black" points="291,-196.5 291,-226.5 415,-226.5 415,-196.5 291,-196.5"/>
<text text-anchor="start" x="299" y="-214.5" font-family="Helvetica,sans-Serif" font-size="10.00">leanux::persist::Query</text>
<text text-anchor="middle" x="353" y="-203.5" font-family="Helvetica,sans-Serif" font-size="10.00">::getDouble</text>
</a>
</g>
</g>
<!-- Node2&#45;&gt;Node4 -->
<g id="edge3" class="edge">
<title>Node2&#45;&gt;Node4</title>
<path fill="none" stroke="midnightblue" d="M229.46,-128.65C234.6,-131.54 239.61,-134.83 244,-138.5 264.73,-155.84 258.16,-171.59 280,-187.5 282.05,-188.99 284.2,-190.4 286.42,-191.72"/>
<polygon fill="midnightblue" stroke="midnightblue" points="284.81,-194.83 295.29,-196.41 288.08,-188.64 284.81,-194.83"/>
</g>
<!-- Node5 -->
<g id="node5" class="node">
<title>Node5</title>
<g id="a_node5"><a xlink:href="../../d4/d2c/classleanux_1_1persist_1_1Query.html#a86b5deec83f9cdf0c72f6caf503984d9" target="_top" xlink:title="Get int value from select list.">
<polygon fill="none" stroke="black" points="291,-147.5 291,-177.5 415,-177.5 415,-147.5 291,-147.5"/>
<text text-anchor="start" x="299" y="-165.5" font-family="Helvetica,sans-Serif" font-size="10.00">leanux::persist::Query</text>
<text text-anchor="middle" x="353" y="-154.5" font-family="Helvetica,sans-Serif" font-size="10.00">::getInt</text>
</a>
</g>
</g>
<!-- Node2&#45;&gt;Node5 -->
<g id="edge4" class="edge">
<title>Node2&#45;&gt;Node5</title>
<path fill="none" stroke="midnightblue" d="M242,-128.6C258.25,-133.61 276.5,-139.23 293.39,-144.44"/>
<polygon fill="midnightblue" stroke="midnightblue" points="292.57,-147.85 303.16,-147.45 294.63,-141.16 292.57,-147.85"/>
</g>
<!-- Node6 -->
<g id="node6" class="node">
<title>Node6</title>
<g id="a_node6"><a xlink:href="../../d6/dd3/namespaceleanux_1_1tools_1_1lrep.html#a7f55650d424d783739d0d208601a007e" target="_top" xlink:title=" ">
<polygon fill="none" stroke="red" points="301,-98.5 301,-128.5 405,-128.5 405,-98.5 301,-98.5"/>
<text text-anchor="start" x="309" y="-116.5" font-family="Helvetica,sans-Serif" font-size="10.00">leanux::tools::lrep</text>
<text text-anchor="middle" x="353" y="-105.5" font-family="Helvetica,sans-Serif" font-size="10.00">::htmlHeatMap</text>
</a>
</g>
</g>
<!-- Node2&#45;&gt;Node6 -->
<g id="edge5" class="edge">
<title>Node2&#45;&gt;Node6</title>
<path fill="none" stroke="midnightblue" d="M244.18,-113.5C258.94,-113.5 275.18,-113.5 290.49,-113.5"/>
<polygon fill="midnightblue" stroke="midnightblue" points="290.91,-117 300.91,-113.5 290.91,-110 290.91,-117"/>
</g>
<!-- Node8 -->
<g id="node7" class="node">
<title>Node8</title>
<g id="a_node7"><a xlink:href="../../db/dff/classleanux_1_1persist_1_1Statement.html#a1b809c1b1d0e9d24af65e439c3893d74" target="_top" xlink:title="Prepare a SQL statement.">
<polygon fill="none" stroke="red" points="280,-49.5 280,-79.5 426,-79.5 426,-49.5 280,-49.5"/>
<text text-anchor="start" x="288" y="-67.5" font-family="Helvetica,sans-Serif" font-size="10.00">leanux::persist::Statement</text>
<text text-anchor="middle" x="353" y="-56.5" font-family="Helvetica,sans-Serif" font-size="10.00">::prepare</text>
</a>
</g>
</g>
<!-- Node2&#45;&gt;Node8 -->
<g id="edge6" class="edge">
<title>Node2&#45;&gt;Node8</title>
<path fill="none" stroke="midnightblue" d="M242,-98.4C258.25,-93.39 276.5,-87.77 293.39,-82.56"/>
<polygon fill="midnightblue" stroke="midnightblue" points="294.63,-85.84 303.16,-79.55 292.57,-79.15 294.63,-85.84"/>
</g>
<!-- Node10 -->
<g id="node8" class="node">
<title>Node10</title>
<g id="a_node8"><a xlink:href="../../d4/d2c/classleanux_1_1persist_1_1Query.html#a294e11c33a22761503c49418f5ca9815" target="_top" xlink:title="Step the result list, end of list returns false.">
<polygon fill="none" stroke="black" points="291,-0.5 291,-30.5 415,-30.5 415,-0.5 291,-0.5"/>
<text text-anchor="start" x="299" y="-18.5" font-family="Helvetica,sans-Serif" font-size="10.00">leanux::persist::Query</text>
<text text-anchor="middle" x="353" y="-7.5" font-family="Helvetica,sans-Serif" font-size="10.00">::step</text>
</a>
</g>
</g>
<!-- Node2&#45;&gt;Node10 -->
<g id="edge7" class="edge">
<title>Node2&#45;&gt;Node10</title>
<path fill="none" stroke="midnightblue" d="M230.79,-98.38C235.46,-95.75 240,-92.8 244,-89.5 264.87,-72.33 258.26,-56.54 280,-40.5 282.53,-38.64 285.2,-36.9 287.98,-35.29"/>
<polygon fill="midnightblue" stroke="midnightblue" points="289.87,-38.26 297.14,-30.55 286.65,-32.04 289.87,-38.26"/>
</g>
<!-- Node11&#45;&gt;Node3 -->
<g id="edge9" class="edge">
<title>Node11&#45;&gt;Node3</title>
<path fill="none" stroke="midnightblue" d="M232.92,-79.55C237.08,-82.36 240.91,-85.66 244,-89.5 286.17,-141.9 234.42,-187.04 280,-236.5 281.84,-238.49 283.84,-240.32 285.98,-242"/>
<polygon fill="midnightblue" stroke="midnightblue" points="284.49,-245.21 294.78,-247.74 288.32,-239.34 284.49,-245.21"/>
</g>
<!-- Node11&#45;&gt;Node4 -->
<g id="edge10" class="edge">
<title>Node11&#45;&gt;Node4</title>
<path fill="none" stroke="midnightblue" d="M232,-79.57C236.42,-82.4 240.57,-85.69 244,-89.5 275.07,-123.97 246.7,-155.19 280,-187.5 281.09,-188.56 282.24,-189.57 283.42,-190.54"/>
<polygon fill="midnightblue" stroke="midnightblue" points="281.54,-193.5 291.76,-196.31 285.53,-187.75 281.54,-193.5"/>
</g>
<!-- Node11&#45;&gt;Node5 -->
<g id="edge11" class="edge">
<title>Node11&#45;&gt;Node5</title>
<path fill="none" stroke="midnightblue" d="M229.46,-79.65C234.6,-82.54 239.61,-85.83 244,-89.5 264.73,-106.84 258.16,-122.59 280,-138.5 282.05,-139.99 284.2,-141.4 286.42,-142.72"/>
<polygon fill="midnightblue" stroke="midnightblue" points="284.81,-145.83 295.29,-147.41 288.08,-139.64 284.81,-145.83"/>
</g>
<!-- Node11&#45;&gt;Node6 -->
<g id="edge12" class="edge">
<title>Node11&#45;&gt;Node6</title>
<path fill="none" stroke="midnightblue" d="M242,-79.6C258.25,-84.61 276.5,-90.23 293.39,-95.44"/>
<polygon fill="midnightblue" stroke="midnightblue" points="292.57,-98.85 303.16,-98.45 294.63,-92.16 292.57,-98.85"/>
</g>
<!-- Node11&#45;&gt;Node8 -->
<g id="edge13" class="edge">
<title>Node11&#45;&gt;Node8</title>
<path fill="none" stroke="midnightblue" d="M244.18,-64.5C252.34,-64.5 260.95,-64.5 269.61,-64.5"/>
<polygon fill="midnightblue" stroke="midnightblue" points="269.77,-68 279.77,-64.5 269.77,-61 269.77,-68"/>
</g>
<!-- Node11&#45;&gt;Node10 -->
<g id="edge14" class="edge">
<title>Node11&#45;&gt;Node10</title>
<path fill="none" stroke="midnightblue" d="M242,-49.4C258.25,-44.39 276.5,-38.77 293.39,-33.56"/>
<polygon fill="midnightblue" stroke="midnightblue" points="294.63,-36.84 303.16,-30.55 292.57,-30.15 294.63,-36.84"/>
</g>
<!-- Node12&#45;&gt;Node3 -->
<g id="edge16" class="edge">
<title>Node12&#45;&gt;Node3</title>
<path fill="none" stroke="midnightblue" d="M242,-226.6C258.25,-231.61 276.5,-237.23 293.39,-242.44"/>
<polygon fill="midnightblue" stroke="midnightblue" points="292.57,-245.85 303.16,-245.45 294.63,-239.16 292.57,-245.85"/>
</g>
<!-- Node12&#45;&gt;Node4 -->
<g id="edge17" class="edge">
<title>Node12&#45;&gt;Node4</title>
<path fill="none" stroke="midnightblue" d="M244.18,-211.5C255.82,-211.5 268.38,-211.5 280.68,-211.5"/>
<polygon fill="midnightblue" stroke="midnightblue" points="280.92,-215 290.92,-211.5 280.92,-208 280.92,-215"/>
</g>
<!-- Node12&#45;&gt;Node5 -->
<g id="edge18" class="edge">
<title>Node12&#45;&gt;Node5</title>
<path fill="none" stroke="midnightblue" d="M242,-196.4C258.25,-191.39 276.5,-185.77 293.39,-180.56"/>
<polygon fill="midnightblue" stroke="midnightblue" points="294.63,-183.84 303.16,-177.55 292.57,-177.15 294.63,-183.84"/>
</g>
<!-- Node12&#45;&gt;Node6 -->
<g id="edge19" class="edge">
<title>Node12&#45;&gt;Node6</title>
<path fill="none" stroke="midnightblue" d="M230.79,-196.38C235.46,-193.75 240,-190.8 244,-187.5 264.87,-170.33 258.26,-154.54 280,-138.5 283.63,-135.82 287.57,-133.41 291.68,-131.25"/>
<polygon fill="midnightblue" stroke="midnightblue" points="293.33,-134.34 300.87,-126.89 290.33,-128.01 293.33,-134.34"/>
</g>
<!-- Node12&#45;&gt;Node8 -->
<g id="edge20" class="edge">
<title>Node12&#45;&gt;Node8</title>
<path fill="none" stroke="midnightblue" d="M233.26,-196.41C237.21,-193.85 240.89,-190.89 244,-187.5 275.34,-153.28 246.9,-122.02 280,-89.5 281.61,-87.92 283.33,-86.44 285.13,-85.05"/>
<polygon fill="midnightblue" stroke="midnightblue" points="287.06,-87.96 293.49,-79.54 283.21,-82.12 287.06,-87.96"/>
</g>
<!-- Node12&#45;&gt;Node10 -->
<g id="edge21" class="edge">
<title>Node12&#45;&gt;Node10</title>
<path fill="none" stroke="midnightblue" d="M234.39,-196.24C237.98,-193.73 241.27,-190.83 244,-187.5 286.59,-135.43 234.73,-90.25 280,-40.5 281.19,-39.19 282.46,-37.95 283.79,-36.77"/>
<polygon fill="midnightblue" stroke="midnightblue" points="286.03,-39.47 291.99,-30.71 281.87,-33.83 286.03,-39.47"/>
</g>
<!-- Node13&#45;&gt;Node3 -->
<g id="edge23" class="edge">
<title>Node13&#45;&gt;Node3</title>
<path fill="none" stroke="midnightblue" d="M229.46,-177.65C234.6,-180.54 239.61,-183.83 244,-187.5 264.73,-204.84 258.16,-220.59 280,-236.5 282.05,-237.99 284.2,-239.4 286.42,-240.72"/>
<polygon fill="midnightblue" stroke="midnightblue" points="284.81,-243.83 295.29,-245.41 288.08,-237.64 284.81,-243.83"/>
</g>
<!-- Node13&#45;&gt;Node4 -->
<g id="edge24" class="edge">
<title>Node13&#45;&gt;Node4</title>
<path fill="none" stroke="midnightblue" d="M242,-177.6C258.25,-182.61 276.5,-188.23 293.39,-193.44"/>
<polygon fill="midnightblue" stroke="midnightblue" points="292.57,-196.85 303.16,-196.45 294.63,-190.16 292.57,-196.85"/>
</g>
<!-- Node13&#45;&gt;Node5 -->
<g id="edge25" class="edge">
<title>Node13&#45;&gt;Node5</title>
<path fill="none" stroke="midnightblue" d="M244.18,-162.5C255.82,-162.5 268.38,-162.5 280.68,-162.5"/>
<polygon fill="midnightblue" stroke="midnightblue" points="280.92,-166 290.92,-162.5 280.92,-159 280.92,-166"/>
</g>
<!-- Node13&#45;&gt;Node6 -->
<g id="edge26" class="edge">
<title>Node13&#45;&gt;Node6</title>
<path fill="none" stroke="midnightblue" d="M242,-147.4C258.25,-142.39 276.5,-136.77 293.39,-131.56"/>
<polygon fill="midnightblue" stroke="midnightblue" points="294.63,-134.84 303.16,-128.55 292.57,-128.15 294.63,-134.84"/>
</g>
<!-- Node13&#45;&gt;Node8 -->
<g id="edge27" class="edge">
<title>Node13&#45;&gt;Node8</title>
<path fill="none" stroke="midnightblue" d="M230.79,-147.38C235.46,-144.75 240,-141.8 244,-138.5 264.87,-121.33 258.26,-105.54 280,-89.5 282.53,-87.64 285.2,-85.9 287.98,-84.29"/>
<polygon fill="midnightblue" stroke="midnightblue" points="289.87,-87.26 297.14,-79.55 286.65,-81.04 289.87,-87.26"/>
</g>
<!-- Node13&#45;&gt;Node10 -->
<g id="edge28" class="edge">
<title>Node13&#45;&gt;Node10</title>
<path fill="none" stroke="midnightblue" d="M233.26,-147.41C237.21,-144.85 240.89,-141.89 244,-138.5 275.34,-104.28 246.9,-73.02 280,-40.5 281.61,-38.92 283.33,-37.44 285.13,-36.05"/>
<polygon fill="midnightblue" stroke="midnightblue" points="287.06,-38.96 293.49,-30.54 283.21,-33.12 287.06,-38.96"/>
</g>
</g>
</svg>
