<?xml version="1.0" encoding="UTF-8" standalone="no"?>
<!DOCTYPE svg PUBLIC "-//W3C//DTD SVG 1.1//EN"
 "http://www.w3.org/Graphics/SVG/1.1/DTD/svg11.dtd">
<!-- Generated by graphviz version 2.43.0 (0)
 -->
<!-- Title: leanux::tools::lrep::chartTCPClientTimeLine Pages: 1 -->
<svg width="530pt" height="411pt"
 viewBox="0.00 0.00 530.00 411.00" xmlns="http://www.w3.org/2000/svg" xmlns:xlink="http://www.w3.org/1999/xlink">
<g id="graph0" class="graph" transform="scale(1 1) rotate(0) translate(4 407)">
<title>leanux::tools::lrep::chartTCPClientTimeLine</title>
<!-- Node1 -->
<g id="node1" class="node">
<title>Node1</title>
<g id="a_node1"><a xlink:title=" ">
<polygon fill="#bfbfbf" stroke="black" points="0,-186.5 0,-216.5 139,-216.5 139,-186.5 0,-186.5"/>
<text text-anchor="start" x="8" y="-204.5" font-family="Helvetica,sans-Serif" font-size="10.00">leanux::tools::lrep</text>
<text text-anchor="middle" x="69.5" y="-193.5" font-family="Helvetica,sans-Serif" font-size="10.00">::chartTCPClientTimeLine</text>
</a>
</g>
</g>
<!-- Node2 -->
<g id="node2" class="node">
<title>Node2</title>
<g id="a_node2"><a xlink:href="../../d9/d78/classleanux_1_1persist_1_1DML.html#a8df01a6d880515c22106e424ed342c81" target="_top" xlink:title="Bind a double value to the bind at position.">
<polygon fill="none" stroke="black" points="199.5,-372.5 199.5,-402.5 315.5,-402.5 315.5,-372.5 199.5,-372.5"/>
<text text-anchor="start" x="207.5" y="-390.5" font-family="Helvetica,sans-Serif" font-size="10.00">leanux::persist::DML</text>
<text text-anchor="middle" x="257.5" y="-379.5" font-family="Helvetica,sans-Serif" font-size="10.00">::bind</text>
</a>
</g>
</g>
<!-- Node1&#45;&gt;Node2 -->
<g id="edge1" class="edge">
<title>Node1&#45;&gt;Node2</title>
<path fill="none" stroke="midnightblue" d="M75.99,-216.57C88.44,-248.61 121.93,-323.81 175,-363.5 179.5,-366.87 184.47,-369.77 189.67,-372.26"/>
<polygon fill="midnightblue" stroke="midnightblue" points="188.65,-375.63 199.22,-376.32 191.39,-369.18 188.65,-375.63"/>
</g>
<!-- Node3 -->
<g id="node3" class="node">
<title>Node3</title>
<g id="a_node3"><a xlink:href="../../d4/d2c/classleanux_1_1persist_1_1Query.html#ac71ce2dce629c76434dfb541bbe55658" target="_top" xlink:title="Get double value from select list.">
<polygon fill="none" stroke="black" points="195.5,-323.5 195.5,-353.5 319.5,-353.5 319.5,-323.5 195.5,-323.5"/>
<text text-anchor="start" x="203.5" y="-341.5" font-family="Helvetica,sans-Serif" font-size="10.00">leanux::persist::Query</text>
<text text-anchor="middle" x="257.5" y="-330.5" font-family="Helvetica,sans-Serif" font-size="10.00">::getDouble</text>
</a>
</g>
</g>
<!-- Node1&#45;&gt;Node3 -->
<g id="edge2" class="edge">
<title>Node1&#45;&gt;Node3</title>
<path fill="none" stroke="midnightblue" d="M80.46,-216.74C97.13,-241.03 133,-288.43 175,-314.5 178.43,-316.63 182.05,-318.57 185.79,-320.35"/>
<polygon fill="midnightblue" stroke="midnightblue" points="184.72,-323.7 195.29,-324.44 187.49,-317.27 184.72,-323.7"/>
</g>
<!-- Node4 -->
<g id="node4" class="node">
<title>Node4</title>
<g id="a_node4"><a xlink:href="../../d4/d2c/classleanux_1_1persist_1_1Query.html#a86b5deec83f9cdf0c72f6caf503984d9" target="_top" xlink:title="Get int value from select list.">
<polygon fill="none" stroke="black" points="195.5,-274.5 195.5,-304.5 319.5,-304.5 319.5,-274.5 195.5,-274.5"/>
<text text-anchor="start" x="203.5" y="-292.5" font-family="Helvetica,sans-Serif" font-size="10.00">leanux::persist::Query</text>
<text text-anchor="middle" x="257.5" y="-281.5" font-family="Helvetica,sans-Serif" font-size="10.00">::getInt</text>
</a>
</g>
</g>
<!-- Node1&#45;&gt;Node4 -->
<g id="edge3" class="edge">
<title>Node1&#45;&gt;Node4</title>
<path fill="none" stroke="midnightblue" d="M92.07,-216.66C112.62,-230.58 144.83,-251.02 175,-264.5 180.28,-266.86 185.85,-269.08 191.49,-271.15"/>
<polygon fill="midnightblue" stroke="midnightblue" points="190.43,-274.49 201.03,-274.49 192.75,-267.88 190.43,-274.49"/>
</g>
<!-- Node5 -->
<g id="node5" class="node">
<title>Node5</title>
<g id="a_node5"><a xlink:href="../../d5/db8/namespaceleanux_1_1net.html#af3904a30ad9b1588f1d534d2b1459f23" target="_top" xlink:title="Get the service name, eg &#39;ssh&#39; for port 22.">
<polygon fill="none" stroke="black" points="178.5,-236 178.5,-255 336.5,-255 336.5,-236 178.5,-236"/>
<text text-anchor="middle" x="257.5" y="-243" font-family="Helvetica,sans-Serif" font-size="10.00">leanux::net::getServiceName</text>
</a>
</g>
</g>
<!-- Node1&#45;&gt;Node5 -->
<g id="edge4" class="edge">
<title>Node1&#45;&gt;Node5</title>
<path fill="none" stroke="midnightblue" d="M133.2,-216.56C146.97,-219.85 161.47,-223.31 175,-226.5 184.86,-228.83 195.4,-231.3 205.51,-233.66"/>
<polygon fill="midnightblue" stroke="midnightblue" points="204.91,-237.12 215.45,-235.98 206.5,-230.3 204.91,-237.12"/>
</g>
<!-- Node6 -->
<g id="node6" class="node">
<title>Node6</title>
<g id="a_node6"><a xlink:href="../../d4/d2c/classleanux_1_1persist_1_1Query.html#a1fb83650612ff31e31805b1496fdf0fb" target="_top" xlink:title="Get string value from select list.">
<polygon fill="none" stroke="black" points="195.5,-186.5 195.5,-216.5 319.5,-216.5 319.5,-186.5 195.5,-186.5"/>
<text text-anchor="start" x="203.5" y="-204.5" font-family="Helvetica,sans-Serif" font-size="10.00">leanux::persist::Query</text>
<text text-anchor="middle" x="257.5" y="-193.5" font-family="Helvetica,sans-Serif" font-size="10.00">::getText</text>
</a>
</g>
</g>
<!-- Node1&#45;&gt;Node6 -->
<g id="edge5" class="edge">
<title>Node1&#45;&gt;Node6</title>
<path fill="none" stroke="midnightblue" d="M139.23,-201.5C154.2,-201.5 170.07,-201.5 185.13,-201.5"/>
<polygon fill="midnightblue" stroke="midnightblue" points="185.41,-205 195.41,-201.5 185.41,-198 185.41,-205"/>
</g>
<!-- Node7 -->
<g id="node7" class="node">
<title>Node7</title>
<g id="a_node7"><a xlink:href="../../dd/d42/namespaceleanux_1_1system.html#a15a1517cb994968027d406402a588157" target="_top" xlink:title="Get username from a uid.">
<polygon fill="none" stroke="black" points="175,-148 175,-167 340,-167 340,-148 175,-148"/>
<text text-anchor="middle" x="257.5" y="-155" font-family="Helvetica,sans-Serif" font-size="10.00">leanux::system::getUserName</text>
</a>
</g>
</g>
<!-- Node1&#45;&gt;Node7 -->
<g id="edge6" class="edge">
<title>Node1&#45;&gt;Node7</title>
<path fill="none" stroke="midnightblue" d="M133.99,-186.48C157.63,-180.89 184.1,-174.63 206.38,-169.36"/>
<polygon fill="midnightblue" stroke="midnightblue" points="207.36,-172.72 216.29,-167.01 205.75,-165.91 207.36,-172.72"/>
</g>
<!-- Node8 -->
<g id="node8" class="node">
<title>Node8</title>
<g id="a_node8"><a xlink:href="../../db/dff/classleanux_1_1persist_1_1Statement.html#a1b809c1b1d0e9d24af65e439c3893d74" target="_top" xlink:title="Prepare a SQL statement.">
<polygon fill="none" stroke="black" points="184.5,-98.5 184.5,-128.5 330.5,-128.5 330.5,-98.5 184.5,-98.5"/>
<text text-anchor="start" x="192.5" y="-116.5" font-family="Helvetica,sans-Serif" font-size="10.00">leanux::persist::Statement</text>
<text text-anchor="middle" x="257.5" y="-105.5" font-family="Helvetica,sans-Serif" font-size="10.00">::prepare</text>
</a>
</g>
</g>
<!-- Node1&#45;&gt;Node8 -->
<g id="edge7" class="edge">
<title>Node1&#45;&gt;Node8</title>
<path fill="none" stroke="midnightblue" d="M92.07,-186.34C112.62,-172.42 144.83,-151.98 175,-138.5 180.28,-136.14 185.85,-133.92 191.49,-131.85"/>
<polygon fill="midnightblue" stroke="midnightblue" points="192.75,-135.12 201.03,-128.51 190.43,-128.51 192.75,-135.12"/>
</g>
<!-- Node10 -->
<g id="node10" class="node">
<title>Node10</title>
<g id="a_node10"><a xlink:href="../../d6/dd3/namespaceleanux_1_1tools_1_1lrep.html#a48bbe696793b1557d9244bff602b9743" target="_top" xlink:title="get from cache or DNS request on cache miss">
<polygon fill="none" stroke="black" points="205.5,-49.5 205.5,-79.5 309.5,-79.5 309.5,-49.5 205.5,-49.5"/>
<text text-anchor="start" x="213.5" y="-67.5" font-family="Helvetica,sans-Serif" font-size="10.00">leanux::tools::lrep</text>
<text text-anchor="middle" x="257.5" y="-56.5" font-family="Helvetica,sans-Serif" font-size="10.00">::resolveCacheIP</text>
</a>
</g>
</g>
<!-- Node1&#45;&gt;Node10 -->
<g id="edge9" class="edge">
<title>Node1&#45;&gt;Node10</title>
<path fill="none" stroke="midnightblue" d="M80.46,-186.26C97.13,-161.97 133,-114.57 175,-88.5 181.29,-84.6 188.25,-81.3 195.37,-78.53"/>
<polygon fill="midnightblue" stroke="midnightblue" points="196.88,-81.7 205.13,-75.05 194.53,-75.11 196.88,-81.7"/>
</g>
<!-- Node13 -->
<g id="node12" class="node">
<title>Node13</title>
<g id="a_node12"><a xlink:href="../../d4/d2c/classleanux_1_1persist_1_1Query.html#a294e11c33a22761503c49418f5ca9815" target="_top" xlink:title="Step the result list, end of list returns false.">
<polygon fill="none" stroke="black" points="195.5,-0.5 195.5,-30.5 319.5,-30.5 319.5,-0.5 195.5,-0.5"/>
<text text-anchor="start" x="203.5" y="-18.5" font-family="Helvetica,sans-Serif" font-size="10.00">leanux::persist::Query</text>
<text text-anchor="middle" x="257.5" y="-7.5" font-family="Helvetica,sans-Serif" font-size="10.00">::step</text>
</a>
</g>
</g>
<!-- Node1&#45;&gt;Node13 -->
<g id="edge11" class="edge">
<title>Node1&#45;&gt;Node13</title>
<path fill="none" stroke="midnightblue" d="M75.99,-186.43C88.44,-154.39 121.93,-79.19 175,-39.5 178.46,-36.92 182.18,-34.61 186.08,-32.55"/>
<polygon fill="midnightblue" stroke="midnightblue" points="187.85,-35.59 195.42,-28.18 184.88,-29.25 187.85,-35.59"/>
</g>
<!-- Node9 -->
<g id="node9" class="node">
<title>Node9</title>
<g id="a_node9"><a xlink:href="../../db/dff/classleanux_1_1persist_1_1Statement.html#a5b31fb14297ad5c1c342cfc0d8f797de" target="_top" xlink:title="A statement handle can be explicitly closed without deleting the Statement object itself.">
<polygon fill="none" stroke="black" points="376,-98.5 376,-128.5 522,-128.5 522,-98.5 376,-98.5"/>
<text text-anchor="start" x="384" y="-116.5" font-family="Helvetica,sans-Serif" font-size="10.00">leanux::persist::Statement</text>
<text text-anchor="middle" x="449" y="-105.5" font-family="Helvetica,sans-Serif" font-size="10.00">::close</text>
</a>
</g>
</g>
<!-- Node8&#45;&gt;Node9 -->
<g id="edge8" class="edge">
<title>Node8&#45;&gt;Node9</title>
<path fill="none" stroke="midnightblue" d="M330.68,-113.5C342.09,-113.5 353.96,-113.5 365.58,-113.5"/>
<polygon fill="midnightblue" stroke="midnightblue" points="365.7,-117 375.7,-113.5 365.7,-110 365.7,-117"/>
</g>
<!-- Node11 -->
<g id="node11" class="node">
<title>Node11</title>
<g id="a_node11"><a xlink:href="../../d5/db8/namespaceleanux_1_1net.html#a63180a19841a83de5f17eca4c4e055dd" target="_top" xlink:title="Try to resolve an IPv4 or IPv6 address.">
<polygon fill="none" stroke="red" points="388,-55 388,-74 510,-74 510,-55 388,-55"/>
<text text-anchor="middle" x="449" y="-62" font-family="Helvetica,sans-Serif" font-size="10.00">leanux::net::resolveIP</text>
</a>
</g>
</g>
<!-- Node10&#45;&gt;Node11 -->
<g id="edge10" class="edge">
<title>Node10&#45;&gt;Node11</title>
<path fill="none" stroke="midnightblue" d="M309.78,-64.5C330.69,-64.5 355.21,-64.5 377.75,-64.5"/>
<polygon fill="midnightblue" stroke="midnightblue" points="377.94,-68 387.94,-64.5 377.94,-61 377.94,-68"/>
</g>
</g>
</svg>
