<?xml version="1.0" encoding="UTF-8" standalone="no"?>
<!DOCTYPE svg PUBLIC "-//W3C//DTD SVG 1.1//EN"
 "http://www.w3.org/Graphics/SVG/1.1/DTD/svg11.dtd">
<!-- Generated by graphviz version 2.43.0 (0)
 -->
<!-- Title: leanux::tools::lrep::htmlTimeLines Pages: 1 -->
<svg width="491pt" height="617pt"
 viewBox="0.00 0.00 491.00 616.50" xmlns="http://www.w3.org/2000/svg" xmlns:xlink="http://www.w3.org/1999/xlink">
<g id="graph0" class="graph" transform="scale(1 1) rotate(0) translate(4 612.5)">
<title>leanux::tools::lrep::htmlTimeLines</title>
<!-- Node1 -->
<g id="node1" class="node">
<title>Node1</title>
<g id="a_node1"><a xlink:title=" ">
<polygon fill="#bfbfbf" stroke="black" points="0,-284 0,-314 104,-314 104,-284 0,-284"/>
<text text-anchor="start" x="8" y="-302" font-family="Helvetica,sans-Serif" font-size="10.00">leanux::tools::lrep</text>
<text text-anchor="middle" x="52" y="-291" font-family="Helvetica,sans-Serif" font-size="10.00">::htmlTimeLines</text>
</a>
</g>
</g>
<!-- Node2 -->
<g id="node2" class="node">
<title>Node2</title>
<g id="a_node2"><a xlink:href="../../d6/dd3/namespaceleanux_1_1tools_1_1lrep.html#a75263236d13fdcc59c689a786fbbe206" target="_top" xlink:title=" ">
<polygon fill="none" stroke="black" points="154.5,-578 154.5,-608 267.5,-608 267.5,-578 154.5,-578"/>
<text text-anchor="start" x="162.5" y="-596" font-family="Helvetica,sans-Serif" font-size="10.00">leanux::tools::lrep</text>
<text text-anchor="middle" x="211" y="-585" font-family="Helvetica,sans-Serif" font-size="10.00">::chartCPUTimeLine</text>
</a>
</g>
</g>
<!-- Node1&#45;&gt;Node2 -->
<g id="edge1" class="edge">
<title>Node1&#45;&gt;Node2</title>
<path fill="none" stroke="midnightblue" d="M53.37,-314.22C55.31,-359.51 67.21,-494.84 140,-569 141.81,-570.85 143.77,-572.55 145.84,-574.12"/>
<polygon fill="midnightblue" stroke="midnightblue" points="144.02,-577.11 154.33,-579.56 147.8,-571.22 144.02,-577.11"/>
</g>
<!-- Node8 -->
<g id="node7" class="node">
<title>Node8</title>
<g id="a_node7"><a xlink:href="../../d6/dd3/namespaceleanux_1_1tools_1_1lrep.html#adb0859f7ac8b3974df8ab5ec28c4fdf0" target="_top" xlink:title=" ">
<polygon fill="none" stroke="black" points="154,-284 154,-314 268,-314 268,-284 154,-284"/>
<text text-anchor="start" x="162" y="-302" font-family="Helvetica,sans-Serif" font-size="10.00">leanux::tools::lrep</text>
<text text-anchor="middle" x="211" y="-291" font-family="Helvetica,sans-Serif" font-size="10.00">::chartDiskTimeLine</text>
</a>
</g>
</g>
<!-- Node1&#45;&gt;Node8 -->
<g id="edge6" class="edge">
<title>Node1&#45;&gt;Node8</title>
<path fill="none" stroke="midnightblue" d="M104.41,-299C116.9,-299 130.43,-299 143.51,-299"/>
<polygon fill="midnightblue" stroke="midnightblue" points="143.87,-302.5 153.87,-299 143.87,-295.5 143.87,-302.5"/>
</g>
<!-- Node10 -->
<g id="node9" class="node">
<title>Node10</title>
<g id="a_node9"><a xlink:href="../../d6/dd3/namespaceleanux_1_1tools_1_1lrep.html#a574dcb88be57722dab332520ff5b8549" target="_top" xlink:title=" ">
<polygon fill="none" stroke="black" points="149.5,-529 149.5,-559 272.5,-559 272.5,-529 149.5,-529"/>
<text text-anchor="start" x="157.5" y="-547" font-family="Helvetica,sans-Serif" font-size="10.00">leanux::tools::lrep</text>
<text text-anchor="middle" x="211" y="-536" font-family="Helvetica,sans-Serif" font-size="10.00">::chartKernelTimeLine</text>
</a>
</g>
</g>
<!-- Node1&#45;&gt;Node10 -->
<g id="edge12" class="edge">
<title>Node1&#45;&gt;Node10</title>
<path fill="none" stroke="midnightblue" d="M54.63,-314.28C59.68,-353.97 78.61,-461.3 140,-520 141.13,-521.08 142.31,-522.12 143.54,-523.1"/>
<polygon fill="midnightblue" stroke="midnightblue" points="141.94,-526.25 152.18,-528.97 145.87,-520.46 141.94,-526.25"/>
</g>
<!-- Node11 -->
<g id="node10" class="node">
<title>Node11</title>
<g id="a_node10"><a xlink:href="../../d6/dd3/namespaceleanux_1_1tools_1_1lrep.html#af02efdac93604c1f4aa0dae4fc79036b" target="_top" xlink:title=" ">
<polygon fill="none" stroke="black" points="149.5,-235 149.5,-265 272.5,-265 272.5,-235 149.5,-235"/>
<text text-anchor="start" x="157.5" y="-253" font-family="Helvetica,sans-Serif" font-size="10.00">leanux::tools::lrep</text>
<text text-anchor="middle" x="211" y="-242" font-family="Helvetica,sans-Serif" font-size="10.00">::chartMountTimeLine</text>
</a>
</g>
</g>
<!-- Node1&#45;&gt;Node11 -->
<g id="edge17" class="edge">
<title>Node1&#45;&gt;Node11</title>
<path fill="none" stroke="midnightblue" d="M101.39,-283.9C117.43,-278.89 135.45,-273.27 152.13,-268.06"/>
<polygon fill="midnightblue" stroke="midnightblue" points="153.27,-271.37 161.77,-265.05 151.18,-264.69 153.27,-271.37"/>
</g>
<!-- Node12 -->
<g id="node11" class="node">
<title>Node12</title>
<g id="a_node11"><a xlink:href="../../d6/dd3/namespaceleanux_1_1tools_1_1lrep.html#a852574edee0a6707c6636e20c1788879" target="_top" xlink:title=" ">
<polygon fill="none" stroke="black" points="148.5,-186 148.5,-216 273.5,-216 273.5,-186 148.5,-186"/>
<text text-anchor="start" x="156.5" y="-204" font-family="Helvetica,sans-Serif" font-size="10.00">leanux::tools::lrep</text>
<text text-anchor="middle" x="211" y="-193" font-family="Helvetica,sans-Serif" font-size="10.00">::chartNicBWTimeLine</text>
</a>
</g>
</g>
<!-- Node1&#45;&gt;Node12 -->
<g id="edge23" class="edge">
<title>Node1&#45;&gt;Node12</title>
<path fill="none" stroke="midnightblue" d="M67.39,-283.73C83.64,-267.25 111.57,-241.19 140,-225 142.99,-223.3 146.13,-221.69 149.34,-220.17"/>
<polygon fill="midnightblue" stroke="midnightblue" points="150.79,-223.35 158.55,-216.13 147.99,-216.94 150.79,-223.35"/>
</g>
<!-- Node13 -->
<g id="node12" class="node">
<title>Node13</title>
<g id="a_node12"><a xlink:href="../../d6/dd3/namespaceleanux_1_1tools_1_1lrep.html#a553791a4debbc1cfdda4a3ad85392269" target="_top" xlink:title=" ">
<polygon fill="none" stroke="black" points="140.5,-333 140.5,-363 281.5,-363 281.5,-333 140.5,-333"/>
<text text-anchor="start" x="148.5" y="-351" font-family="Helvetica,sans-Serif" font-size="10.00">leanux::tools::lrep</text>
<text text-anchor="middle" x="211" y="-340" font-family="Helvetica,sans-Serif" font-size="10.00">::chartNICPacketTimeLine</text>
</a>
</g>
</g>
<!-- Node1&#45;&gt;Node13 -->
<g id="edge29" class="edge">
<title>Node1&#45;&gt;Node13</title>
<path fill="none" stroke="midnightblue" d="M101.39,-314.1C117.43,-319.11 135.45,-324.73 152.13,-329.94"/>
<polygon fill="midnightblue" stroke="midnightblue" points="151.18,-333.31 161.77,-332.95 153.27,-326.63 151.18,-333.31"/>
</g>
<!-- Node14 -->
<g id="node13" class="node">
<title>Node14</title>
<g id="a_node13"><a xlink:href="../../d6/dd3/namespaceleanux_1_1tools_1_1lrep.html#a7988a0240d41f5fa5d9d46b7b404dd30" target="_top" xlink:title=" ">
<polygon fill="none" stroke="black" points="148.5,-480 148.5,-510 273.5,-510 273.5,-480 148.5,-480"/>
<text text-anchor="start" x="156.5" y="-498" font-family="Helvetica,sans-Serif" font-size="10.00">leanux::tools::lrep</text>
<text text-anchor="middle" x="211" y="-487" font-family="Helvetica,sans-Serif" font-size="10.00">::chartPagingTimeLine</text>
</a>
</g>
</g>
<!-- Node1&#45;&gt;Node14 -->
<g id="edge35" class="edge">
<title>Node1&#45;&gt;Node14</title>
<path fill="none" stroke="midnightblue" d="M56.49,-314.03C64.94,-347.19 89.65,-427.16 140,-471 141.49,-472.3 143.05,-473.52 144.68,-474.69"/>
<polygon fill="midnightblue" stroke="midnightblue" points="142.87,-477.69 153.22,-479.97 146.55,-471.73 142.87,-477.69"/>
</g>
<!-- Node15 -->
<g id="node14" class="node">
<title>Node15</title>
<g id="a_node14"><a xlink:href="../../d6/dd3/namespaceleanux_1_1tools_1_1lrep.html#a2ee44b4b822c35e073680a0ba009a331" target="_top" xlink:title=" ">
<polygon fill="none" stroke="black" points="150,-431 150,-461 272,-461 272,-431 150,-431"/>
<text text-anchor="start" x="158" y="-449" font-family="Helvetica,sans-Serif" font-size="10.00">leanux::tools::lrep</text>
<text text-anchor="middle" x="211" y="-438" font-family="Helvetica,sans-Serif" font-size="10.00">::chartSchedTimeLine</text>
</a>
</g>
</g>
<!-- Node1&#45;&gt;Node15 -->
<g id="edge40" class="edge">
<title>Node1&#45;&gt;Node15</title>
<path fill="none" stroke="midnightblue" d="M59.82,-314.19C72.17,-340.01 100.64,-392.53 140,-422 141.84,-423.38 143.76,-424.68 145.75,-425.91"/>
<polygon fill="midnightblue" stroke="midnightblue" points="144.35,-429.13 154.8,-430.85 147.7,-422.99 144.35,-429.13"/>
</g>
<!-- Node16 -->
<g id="node15" class="node">
<title>Node16</title>
<g id="a_node15"><a xlink:href="../../d6/dd3/namespaceleanux_1_1tools_1_1lrep.html#abb105274c50a277438a21f4c73e1d381" target="_top" xlink:title=" ">
<polygon fill="none" stroke="black" points="141.5,-88 141.5,-118 280.5,-118 280.5,-88 141.5,-88"/>
<text text-anchor="start" x="149.5" y="-106" font-family="Helvetica,sans-Serif" font-size="10.00">leanux::tools::lrep</text>
<text text-anchor="middle" x="211" y="-95" font-family="Helvetica,sans-Serif" font-size="10.00">::chartTCPClientTimeLine</text>
</a>
</g>
</g>
<!-- Node1&#45;&gt;Node16 -->
<g id="edge45" class="edge">
<title>Node1&#45;&gt;Node16</title>
<path fill="none" stroke="midnightblue" d="M56.49,-283.97C64.94,-250.81 89.65,-170.84 140,-127 141.49,-125.7 143.05,-124.48 144.68,-123.31"/>
<polygon fill="midnightblue" stroke="midnightblue" points="146.55,-126.27 153.22,-118.03 142.87,-120.31 146.55,-126.27"/>
</g>
<!-- Node23 -->
<g id="node20" class="node">
<title>Node23</title>
<g id="a_node20"><a xlink:href="../../d6/dd3/namespaceleanux_1_1tools_1_1lrep.html#afea1d8a7ccefd494266833dd4ecfa33d" target="_top" xlink:title=" ">
<polygon fill="none" stroke="black" points="140,-137 140,-167 282,-167 282,-137 140,-137"/>
<text text-anchor="start" x="148" y="-155" font-family="Helvetica,sans-Serif" font-size="10.00">leanux::tools::lrep</text>
<text text-anchor="middle" x="211" y="-144" font-family="Helvetica,sans-Serif" font-size="10.00">::chartTCPServerTimeLine</text>
</a>
</g>
</g>
<!-- Node1&#45;&gt;Node23 -->
<g id="edge55" class="edge">
<title>Node1&#45;&gt;Node23</title>
<path fill="none" stroke="midnightblue" d="M59.82,-283.81C72.17,-257.99 100.64,-205.47 140,-176 141.84,-174.62 143.76,-173.32 145.75,-172.09"/>
<polygon fill="midnightblue" stroke="midnightblue" points="147.7,-175.01 154.8,-167.15 144.35,-168.87 147.7,-175.01"/>
</g>
<!-- Node24 -->
<g id="node21" class="node">
<title>Node24</title>
<g id="a_node21"><a xlink:href="../../d6/dd3/namespaceleanux_1_1tools_1_1lrep.html#a5be7aab598d304230985d4715f9b3554" target="_top" xlink:title=" ">
<polygon fill="none" stroke="black" points="157,-382 157,-412 265,-412 265,-382 157,-382"/>
<text text-anchor="start" x="165" y="-400" font-family="Helvetica,sans-Serif" font-size="10.00">leanux::tools::lrep</text>
<text text-anchor="middle" x="211" y="-389" font-family="Helvetica,sans-Serif" font-size="10.00">::chartVMTimeLine</text>
</a>
</g>
</g>
<!-- Node1&#45;&gt;Node24 -->
<g id="edge63" class="edge">
<title>Node1&#45;&gt;Node24</title>
<path fill="none" stroke="midnightblue" d="M67.39,-314.27C83.64,-330.75 111.57,-356.81 140,-373 142.99,-374.7 146.13,-376.31 149.34,-377.83"/>
<polygon fill="midnightblue" stroke="midnightblue" points="147.99,-381.06 158.55,-381.87 150.79,-374.65 147.99,-381.06"/>
</g>
<!-- Node25 -->
<g id="node22" class="node">
<title>Node25</title>
<g id="a_node22"><a xlink:href="../../d6/dd3/namespaceleanux_1_1tools_1_1lrep.html#a85ac1fb32ad11b10d1ea134e230f6c47" target="_top" xlink:title=" ">
<polygon fill="none" stroke="black" points="159,-39 159,-69 263,-69 263,-39 159,-39"/>
<text text-anchor="start" x="167" y="-57" font-family="Helvetica,sans-Serif" font-size="10.00">leanux::tools::lrep</text>
<text text-anchor="middle" x="211" y="-46" font-family="Helvetica,sans-Serif" font-size="10.00">::htmlTimeLine</text>
</a>
</g>
</g>
<!-- Node1&#45;&gt;Node25 -->
<g id="edge68" class="edge">
<title>Node1&#45;&gt;Node25</title>
<path fill="none" stroke="midnightblue" d="M54.63,-283.72C59.68,-244.03 78.61,-136.7 140,-78 142.95,-75.18 146.24,-72.7 149.74,-70.5"/>
<polygon fill="midnightblue" stroke="midnightblue" points="151.67,-73.44 158.82,-65.62 148.35,-67.27 151.67,-73.44"/>
</g>
<!-- Node26 -->
<g id="node23" class="node">
<title>Node26</title>
<g id="a_node23"><a xlink:href="../../d8/db1/namespaceleanux_1_1util.html#a377ec19addd5d3ca3ecee9a2591f6458" target="_top" xlink:title="convert a time duration in seconds to a pretty print string.">
<polygon fill="none" stroke="black" points="144.5,-0.5 144.5,-19.5 277.5,-19.5 277.5,-0.5 144.5,-0.5"/>
<text text-anchor="middle" x="211" y="-7.5" font-family="Helvetica,sans-Serif" font-size="10.00">leanux::util::TimeStrSec</text>
</a>
</g>
</g>
<!-- Node1&#45;&gt;Node26 -->
<g id="edge69" class="edge">
<title>Node1&#45;&gt;Node26</title>
<path fill="none" stroke="midnightblue" d="M53.14,-283.88C54.42,-238.29 64.65,-100.91 140,-29 141.5,-27.57 143.1,-26.24 144.78,-25.01"/>
<polygon fill="midnightblue" stroke="midnightblue" points="146.96,-27.78 153.74,-19.64 143.36,-21.78 146.96,-27.78"/>
</g>
<!-- Node3 -->
<g id="node3" class="node">
<title>Node3</title>
<g id="a_node3"><a xlink:href="../../d9/d78/classleanux_1_1persist_1_1DML.html#a8df01a6d880515c22106e424ed342c81" target="_top" xlink:title="Bind a double value to the bind at position.">
<polygon fill="none" stroke="black" points="342.5,-431 342.5,-461 458.5,-461 458.5,-431 342.5,-431"/>
<text text-anchor="start" x="350.5" y="-449" font-family="Helvetica,sans-Serif" font-size="10.00">leanux::persist::DML</text>
<text text-anchor="middle" x="400.5" y="-438" font-family="Helvetica,sans-Serif" font-size="10.00">::bind</text>
</a>
</g>
</g>
<!-- Node2&#45;&gt;Node3 -->
<g id="edge2" class="edge">
<title>Node2&#45;&gt;Node3</title>
<path fill="none" stroke="midnightblue" d="M264.89,-577.96C270.86,-575.37 276.7,-572.39 282,-569 324.2,-542 362.07,-496.77 382.81,-469.33"/>
<polygon fill="midnightblue" stroke="midnightblue" points="385.78,-471.21 388.93,-461.09 380.16,-467.03 385.78,-471.21"/>
</g>
<!-- Node4 -->
<g id="node4" class="node">
<title>Node4</title>
<g id="a_node4"><a xlink:href="../../d4/d2c/classleanux_1_1persist_1_1Query.html#ac71ce2dce629c76434dfb541bbe55658" target="_top" xlink:title="Get double value from select list.">
<polygon fill="none" stroke="black" points="338.5,-382 338.5,-412 462.5,-412 462.5,-382 338.5,-382"/>
<text text-anchor="start" x="346.5" y="-400" font-family="Helvetica,sans-Serif" font-size="10.00">leanux::persist::Query</text>
<text text-anchor="middle" x="400.5" y="-389" font-family="Helvetica,sans-Serif" font-size="10.00">::getDouble</text>
</a>
</g>
</g>
<!-- Node2&#45;&gt;Node4 -->
<g id="edge3" class="edge">
<title>Node2&#45;&gt;Node4</title>
<path fill="none" stroke="midnightblue" d="M267.64,-580.04C272.99,-577.09 277.93,-573.46 282,-569 327.37,-519.34 271.82,-470.91 318,-422 321.38,-418.42 325.25,-415.35 329.44,-412.72"/>
<polygon fill="midnightblue" stroke="midnightblue" points="331.26,-415.71 338.41,-407.9 327.95,-409.55 331.26,-415.71"/>
</g>
<!-- Node5 -->
<g id="node5" class="node">
<title>Node5</title>
<g id="a_node5"><a xlink:href="../../db/dff/classleanux_1_1persist_1_1Statement.html#a1b809c1b1d0e9d24af65e439c3893d74" target="_top" xlink:title="Prepare a SQL statement.">
<polygon fill="none" stroke="red" points="327.5,-333 327.5,-363 473.5,-363 473.5,-333 327.5,-333"/>
<text text-anchor="start" x="335.5" y="-351" font-family="Helvetica,sans-Serif" font-size="10.00">leanux::persist::Statement</text>
<text text-anchor="middle" x="400.5" y="-340" font-family="Helvetica,sans-Serif" font-size="10.00">::prepare</text>
</a>
</g>
</g>
<!-- Node2&#45;&gt;Node5 -->
<g id="edge4" class="edge">
<title>Node2&#45;&gt;Node5</title>
<path fill="none" stroke="midnightblue" d="M267.57,-580.47C273,-577.44 277.98,-573.67 282,-569 339.8,-501.9 259.11,-439.15 318,-373 319.18,-371.67 320.44,-370.41 321.75,-369.22"/>
<polygon fill="midnightblue" stroke="midnightblue" points="324,-371.9 329.85,-363.08 319.77,-366.32 324,-371.9"/>
</g>
<!-- Node7 -->
<g id="node6" class="node">
<title>Node7</title>
<g id="a_node6"><a xlink:href="../../d4/d2c/classleanux_1_1persist_1_1Query.html#a294e11c33a22761503c49418f5ca9815" target="_top" xlink:title="Step the result list, end of list returns false.">
<polygon fill="none" stroke="black" points="338.5,-284 338.5,-314 462.5,-314 462.5,-284 338.5,-284"/>
<text text-anchor="start" x="346.5" y="-302" font-family="Helvetica,sans-Serif" font-size="10.00">leanux::persist::Query</text>
<text text-anchor="middle" x="400.5" y="-291" font-family="Helvetica,sans-Serif" font-size="10.00">::step</text>
</a>
</g>
</g>
<!-- Node2&#45;&gt;Node7 -->
<g id="edge5" class="edge">
<title>Node2&#45;&gt;Node7</title>
<path fill="none" stroke="midnightblue" d="M267.74,-580.61C273.14,-577.55 278.06,-573.74 282,-569 352.33,-484.34 246.3,-407.5 318,-324 321.26,-320.2 325.09,-316.97 329.27,-314.22"/>
<polygon fill="midnightblue" stroke="midnightblue" points="331.23,-317.14 338.28,-309.23 327.84,-311.01 331.23,-317.14"/>
</g>
<!-- Node8&#45;&gt;Node3 -->
<g id="edge7" class="edge">
<title>Node8&#45;&gt;Node3</title>
<path fill="none" stroke="midnightblue" d="M268.21,-313.82C273.25,-316.64 277.97,-320 282,-324 314.96,-356.66 284.13,-390.28 318,-422 322.41,-426.13 327.51,-429.56 332.94,-432.4"/>
<polygon fill="midnightblue" stroke="midnightblue" points="331.81,-435.72 342.36,-436.64 334.68,-429.34 331.81,-435.72"/>
</g>
<!-- Node8&#45;&gt;Node4 -->
<g id="edge8" class="edge">
<title>Node8&#45;&gt;Node4</title>
<path fill="none" stroke="midnightblue" d="M264.98,-314.03C271,-316.84 276.83,-320.15 282,-324 303.67,-340.14 295.88,-357.48 318,-373 321.46,-375.43 325.18,-377.62 329.03,-379.58"/>
<polygon fill="midnightblue" stroke="midnightblue" points="327.71,-382.83 338.26,-383.79 330.61,-376.46 327.71,-382.83"/>
</g>
<!-- Node8&#45;&gt;Node5 -->
<g id="edge10" class="edge">
<title>Node8&#45;&gt;Node5</title>
<path fill="none" stroke="midnightblue" d="M268,-313.64C288.12,-318.89 311.03,-324.88 332.03,-330.37"/>
<polygon fill="midnightblue" stroke="midnightblue" points="331.28,-333.79 341.84,-332.93 333.05,-327.02 331.28,-333.79"/>
</g>
<!-- Node8&#45;&gt;Node7 -->
<g id="edge11" class="edge">
<title>Node8&#45;&gt;Node7</title>
<path fill="none" stroke="midnightblue" d="M268,-299C286.84,-299 308.12,-299 327.98,-299"/>
<polygon fill="midnightblue" stroke="midnightblue" points="328.22,-302.5 338.22,-299 328.22,-295.5 328.22,-302.5"/>
</g>
<!-- Node9 -->
<g id="node8" class="node">
<title>Node9</title>
<g id="a_node8"><a xlink:href="../../d4/d2c/classleanux_1_1persist_1_1Query.html#a1fb83650612ff31e31805b1496fdf0fb" target="_top" xlink:title="Get string value from select list.">
<polygon fill="none" stroke="black" points="338.5,-235 338.5,-265 462.5,-265 462.5,-235 338.5,-235"/>
<text text-anchor="start" x="346.5" y="-253" font-family="Helvetica,sans-Serif" font-size="10.00">leanux::persist::Query</text>
<text text-anchor="middle" x="400.5" y="-242" font-family="Helvetica,sans-Serif" font-size="10.00">::getText</text>
</a>
</g>
</g>
<!-- Node8&#45;&gt;Node9 -->
<g id="edge9" class="edge">
<title>Node8&#45;&gt;Node9</title>
<path fill="none" stroke="midnightblue" d="M268,-284.36C288.12,-279.11 311.03,-273.12 332.03,-267.63"/>
<polygon fill="midnightblue" stroke="midnightblue" points="333.05,-270.98 341.84,-265.07 331.28,-264.21 333.05,-270.98"/>
</g>
<!-- Node10&#45;&gt;Node3 -->
<g id="edge13" class="edge">
<title>Node10&#45;&gt;Node3</title>
<path fill="none" stroke="midnightblue" d="M260.79,-528.91C268.01,-526.21 275.28,-523.22 282,-520 313.63,-504.87 347.24,-483.05 370.37,-467.03"/>
<polygon fill="midnightblue" stroke="midnightblue" points="372.52,-469.8 378.7,-461.19 368.5,-464.06 372.52,-469.8"/>
</g>
<!-- Node10&#45;&gt;Node4 -->
<g id="edge14" class="edge">
<title>Node10&#45;&gt;Node4</title>
<path fill="none" stroke="midnightblue" d="M270.24,-528.86C274.51,-526.34 278.51,-523.41 282,-520 315.17,-487.55 284.31,-453.91 318,-422 321.35,-418.82 325.1,-416.05 329.1,-413.63"/>
<polygon fill="midnightblue" stroke="midnightblue" points="330.95,-416.61 338.19,-408.87 327.71,-410.41 330.95,-416.61"/>
</g>
<!-- Node10&#45;&gt;Node5 -->
<g id="edge15" class="edge">
<title>Node10&#45;&gt;Node5</title>
<path fill="none" stroke="midnightblue" d="M271.32,-528.86C275.25,-526.34 278.88,-523.41 282,-520 327.37,-470.34 271.82,-421.91 318,-373 319.37,-371.55 320.83,-370.18 322.35,-368.89"/>
<polygon fill="midnightblue" stroke="midnightblue" points="324.38,-371.73 330.49,-363.07 320.31,-366.04 324.38,-371.73"/>
</g>
<!-- Node10&#45;&gt;Node7 -->
<g id="edge16" class="edge">
<title>Node10&#45;&gt;Node7</title>
<path fill="none" stroke="midnightblue" d="M271.87,-528.84C275.62,-526.33 279.07,-523.41 282,-520 339.8,-452.9 259.11,-390.15 318,-324 321.33,-320.26 325.2,-317.07 329.42,-314.35"/>
<polygon fill="midnightblue" stroke="midnightblue" points="331.38,-317.27 338.49,-309.41 328.03,-311.12 331.38,-317.27"/>
</g>
<!-- Node11&#45;&gt;Node3 -->
<g id="edge18" class="edge">
<title>Node11&#45;&gt;Node3</title>
<path fill="none" stroke="midnightblue" d="M270.02,-265.17C274.46,-267.92 278.54,-271.17 282,-275 327.06,-324.94 271.55,-373.35 318,-422 322.24,-426.44 327.26,-430.07 332.69,-433.04"/>
<polygon fill="midnightblue" stroke="midnightblue" points="331.61,-436.4 342.15,-437.44 334.56,-430.05 331.61,-436.4"/>
</g>
<!-- Node11&#45;&gt;Node4 -->
<g id="edge19" class="edge">
<title>Node11&#45;&gt;Node4</title>
<path fill="none" stroke="midnightblue" d="M268.55,-265.01C273.47,-267.79 278.06,-271.09 282,-275 314.96,-307.66 284.13,-341.28 318,-373 321.36,-376.15 325.11,-378.88 329.11,-381.26"/>
<polygon fill="midnightblue" stroke="midnightblue" points="327.71,-384.48 338.21,-385.92 330.9,-378.25 327.71,-384.48"/>
</g>
<!-- Node11&#45;&gt;Node5 -->
<g id="edge21" class="edge">
<title>Node11&#45;&gt;Node5</title>
<path fill="none" stroke="midnightblue" d="M264.98,-265.03C271,-267.84 276.83,-271.15 282,-275 303.67,-291.14 295.88,-308.48 318,-324 320.24,-325.57 322.59,-327.05 325.01,-328.42"/>
<polygon fill="midnightblue" stroke="midnightblue" points="323.57,-331.62 334.08,-333 326.73,-325.37 323.57,-331.62"/>
</g>
<!-- Node11&#45;&gt;Node7 -->
<g id="edge22" class="edge">
<title>Node11&#45;&gt;Node7</title>
<path fill="none" stroke="midnightblue" d="M269.53,-265.03C289.33,-270.21 311.67,-276.05 332.18,-281.41"/>
<polygon fill="midnightblue" stroke="midnightblue" points="331.52,-284.85 342.08,-283.99 333.29,-278.08 331.52,-284.85"/>
</g>
<!-- Node11&#45;&gt;Node9 -->
<g id="edge20" class="edge">
<title>Node11&#45;&gt;Node9</title>
<path fill="none" stroke="midnightblue" d="M272.62,-250C290.4,-250 310.01,-250 328.39,-250"/>
<polygon fill="midnightblue" stroke="midnightblue" points="328.45,-253.5 338.45,-250 328.45,-246.5 328.45,-253.5"/>
</g>
<!-- Node12&#45;&gt;Node3 -->
<g id="edge24" class="edge">
<title>Node12&#45;&gt;Node3</title>
<path fill="none" stroke="midnightblue" d="M271.87,-216.16C275.63,-218.67 279.07,-221.59 282,-225 340.06,-292.46 258.47,-355.83 318,-422 322.27,-426.75 327.43,-430.58 333.06,-433.66"/>
<polygon fill="midnightblue" stroke="midnightblue" points="331.67,-436.88 342.22,-437.92 334.63,-430.53 331.67,-436.88"/>
</g>
<!-- Node12&#45;&gt;Node4 -->
<g id="edge25" class="edge">
<title>Node12&#45;&gt;Node4</title>
<path fill="none" stroke="midnightblue" d="M271.33,-216.14C275.26,-218.65 278.88,-221.58 282,-225 327.62,-275.01 271.29,-324 318,-373 321.38,-376.55 325.26,-379.58 329.45,-382.17"/>
<polygon fill="midnightblue" stroke="midnightblue" points="327.95,-385.34 338.43,-386.89 331.21,-379.14 327.95,-385.34"/>
</g>
<!-- Node12&#45;&gt;Node5 -->
<g id="edge27" class="edge">
<title>Node12&#45;&gt;Node5</title>
<path fill="none" stroke="midnightblue" d="M270.25,-216.13C274.52,-218.65 278.52,-221.58 282,-225 315.41,-257.8 283.88,-291.94 318,-324 319.14,-325.07 320.33,-326.1 321.56,-327.08"/>
<polygon fill="midnightblue" stroke="midnightblue" points="319.93,-330.2 330.18,-332.9 323.85,-324.4 319.93,-330.2"/>
</g>
<!-- Node12&#45;&gt;Node7 -->
<g id="edge28" class="edge">
<title>Node12&#45;&gt;Node7</title>
<path fill="none" stroke="midnightblue" d="M266.78,-216.06C272.16,-218.62 277.34,-221.58 282,-225 303.78,-241 295.97,-258.36 318,-274 321.46,-276.46 325.17,-278.68 329.03,-280.69"/>
<polygon fill="midnightblue" stroke="midnightblue" points="327.71,-283.93 338.25,-284.99 330.67,-277.59 327.71,-283.93"/>
</g>
<!-- Node12&#45;&gt;Node9 -->
<g id="edge26" class="edge">
<title>Node12&#45;&gt;Node9</title>
<path fill="none" stroke="midnightblue" d="M269.53,-216.03C289.33,-221.21 311.67,-227.05 332.18,-232.41"/>
<polygon fill="midnightblue" stroke="midnightblue" points="331.52,-235.85 342.08,-234.99 333.29,-229.08 331.52,-235.85"/>
</g>
<!-- Node13&#45;&gt;Node3 -->
<g id="edge30" class="edge">
<title>Node13&#45;&gt;Node3</title>
<path fill="none" stroke="midnightblue" d="M264.98,-363.03C271,-365.84 276.83,-369.15 282,-373 303.67,-389.14 295.88,-406.48 318,-422 322.6,-425.23 327.64,-428.03 332.89,-430.46"/>
<polygon fill="midnightblue" stroke="midnightblue" points="331.92,-433.84 342.5,-434.43 334.6,-427.38 331.92,-433.84"/>
</g>
<!-- Node13&#45;&gt;Node4 -->
<g id="edge31" class="edge">
<title>Node13&#45;&gt;Node4</title>
<path fill="none" stroke="midnightblue" d="M269.53,-363.03C289.33,-368.21 311.67,-374.05 332.18,-379.41"/>
<polygon fill="midnightblue" stroke="midnightblue" points="331.52,-382.85 342.08,-381.99 333.29,-376.08 331.52,-382.85"/>
</g>
<!-- Node13&#45;&gt;Node5 -->
<g id="edge33" class="edge">
<title>Node13&#45;&gt;Node5</title>
<path fill="none" stroke="midnightblue" d="M281.55,-348C293.08,-348 305.13,-348 316.94,-348"/>
<polygon fill="midnightblue" stroke="midnightblue" points="317.24,-351.5 327.24,-348 317.24,-344.5 317.24,-351.5"/>
</g>
<!-- Node13&#45;&gt;Node7 -->
<g id="edge34" class="edge">
<title>Node13&#45;&gt;Node7</title>
<path fill="none" stroke="midnightblue" d="M269.53,-332.97C289.33,-327.79 311.67,-321.95 332.18,-316.59"/>
<polygon fill="midnightblue" stroke="midnightblue" points="333.29,-319.92 342.08,-314.01 331.52,-313.15 333.29,-319.92"/>
</g>
<!-- Node13&#45;&gt;Node9 -->
<g id="edge32" class="edge">
<title>Node13&#45;&gt;Node9</title>
<path fill="none" stroke="midnightblue" d="M266.78,-332.94C272.16,-330.38 277.34,-327.42 282,-324 303.78,-308 295.97,-290.64 318,-275 321.46,-272.54 325.17,-270.32 329.03,-268.31"/>
<polygon fill="midnightblue" stroke="midnightblue" points="330.67,-271.41 338.25,-264.01 327.71,-265.07 330.67,-271.41"/>
</g>
<!-- Node14&#45;&gt;Node3 -->
<g id="edge36" class="edge">
<title>Node14&#45;&gt;Node3</title>
<path fill="none" stroke="midnightblue" d="M269.53,-479.97C289.42,-474.77 311.88,-468.9 332.47,-463.52"/>
<polygon fill="midnightblue" stroke="midnightblue" points="333.61,-466.84 342.4,-460.92 331.84,-460.06 333.61,-466.84"/>
</g>
<!-- Node14&#45;&gt;Node4 -->
<g id="edge37" class="edge">
<title>Node14&#45;&gt;Node4</title>
<path fill="none" stroke="midnightblue" d="M266.78,-479.94C272.16,-477.38 277.34,-474.42 282,-471 303.78,-455 295.97,-437.64 318,-422 321.46,-419.54 325.17,-417.32 329.03,-415.31"/>
<polygon fill="midnightblue" stroke="midnightblue" points="330.67,-418.41 338.25,-411.01 327.71,-412.07 330.67,-418.41"/>
</g>
<!-- Node14&#45;&gt;Node5 -->
<g id="edge38" class="edge">
<title>Node14&#45;&gt;Node5</title>
<path fill="none" stroke="midnightblue" d="M270.24,-479.86C274.51,-477.34 278.51,-474.41 282,-471 315.17,-438.55 284.31,-404.91 318,-373 319.66,-371.43 321.41,-369.96 323.25,-368.58"/>
<polygon fill="midnightblue" stroke="midnightblue" points="325.23,-371.46 331.74,-363.1 321.44,-365.58 325.23,-371.46"/>
</g>
<!-- Node14&#45;&gt;Node7 -->
<g id="edge39" class="edge">
<title>Node14&#45;&gt;Node7</title>
<path fill="none" stroke="midnightblue" d="M271.32,-479.86C275.25,-477.34 278.88,-474.41 282,-471 327.37,-421.34 271.82,-372.91 318,-324 321.38,-320.42 325.25,-317.35 329.44,-314.72"/>
<polygon fill="midnightblue" stroke="midnightblue" points="331.26,-317.71 338.41,-309.9 327.95,-311.55 331.26,-317.71"/>
</g>
<!-- Node15&#45;&gt;Node3 -->
<g id="edge41" class="edge">
<title>Node15&#45;&gt;Node3</title>
<path fill="none" stroke="midnightblue" d="M272.1,-446C291.26,-446 312.57,-446 332.2,-446"/>
<polygon fill="midnightblue" stroke="midnightblue" points="332.29,-449.5 342.29,-446 332.29,-442.5 332.29,-449.5"/>
</g>
<!-- Node15&#45;&gt;Node4 -->
<g id="edge42" class="edge">
<title>Node15&#45;&gt;Node4</title>
<path fill="none" stroke="midnightblue" d="M269.53,-430.97C289.33,-425.79 311.67,-419.95 332.18,-414.59"/>
<polygon fill="midnightblue" stroke="midnightblue" points="333.29,-417.92 342.08,-412.01 331.52,-411.15 333.29,-417.92"/>
</g>
<!-- Node15&#45;&gt;Node5 -->
<g id="edge43" class="edge">
<title>Node15&#45;&gt;Node5</title>
<path fill="none" stroke="midnightblue" d="M266.78,-430.94C272.16,-428.38 277.34,-425.42 282,-422 303.78,-406 295.97,-388.64 318,-373 320.72,-371.07 323.58,-369.29 326.55,-367.64"/>
<polygon fill="midnightblue" stroke="midnightblue" points="328.33,-370.67 335.74,-363.1 325.22,-364.4 328.33,-370.67"/>
</g>
<!-- Node15&#45;&gt;Node7 -->
<g id="edge44" class="edge">
<title>Node15&#45;&gt;Node7</title>
<path fill="none" stroke="midnightblue" d="M270.24,-430.86C274.51,-428.34 278.51,-425.41 282,-422 315.17,-389.55 284.31,-355.91 318,-324 321.35,-320.82 325.1,-318.05 329.1,-315.63"/>
<polygon fill="midnightblue" stroke="midnightblue" points="330.95,-318.61 338.19,-310.87 327.71,-312.41 330.95,-318.61"/>
</g>
<!-- Node16&#45;&gt;Node3 -->
<g id="edge46" class="edge">
<title>Node16&#45;&gt;Node3</title>
<path fill="none" stroke="midnightblue" d="M272.42,-118.19C276,-120.69 279.25,-123.61 282,-127 365.15,-229.62 232.61,-321.23 318,-422 322.19,-426.95 327.35,-430.9 333.01,-434.06"/>
<polygon fill="midnightblue" stroke="midnightblue" points="331.73,-437.33 342.27,-438.4 334.7,-430.99 331.73,-437.33"/>
</g>
<!-- Node16&#45;&gt;Node4 -->
<g id="edge47" class="edge">
<title>Node16&#45;&gt;Node4</title>
<path fill="none" stroke="midnightblue" d="M272.01,-118.04C275.73,-120.58 279.13,-123.54 282,-127 352.58,-212.02 245.57,-289.55 318,-373 321.27,-376.77 325.1,-379.96 329.29,-382.66"/>
<polygon fill="midnightblue" stroke="midnightblue" points="327.85,-385.87 338.31,-387.55 331.19,-379.71 327.85,-385.87"/>
</g>
<!-- Node16&#45;&gt;Node5 -->
<g id="edge52" class="edge">
<title>Node16&#45;&gt;Node5</title>
<path fill="none" stroke="midnightblue" d="M271.87,-118.16C275.63,-120.67 279.07,-123.59 282,-127 340.06,-194.46 258.47,-257.83 318,-324 318.76,-324.85 319.56,-325.67 320.38,-326.46"/>
<polygon fill="midnightblue" stroke="midnightblue" points="318.38,-329.35 328.38,-332.85 322.75,-323.88 318.38,-329.35"/>
</g>
<!-- Node16&#45;&gt;Node7 -->
<g id="edge54" class="edge">
<title>Node16&#45;&gt;Node7</title>
<path fill="none" stroke="midnightblue" d="M271.32,-118.14C275.25,-120.66 278.88,-123.59 282,-127 327.37,-176.66 271.82,-225.09 318,-274 321.38,-277.58 325.25,-280.65 329.44,-283.28"/>
<polygon fill="midnightblue" stroke="midnightblue" points="327.95,-286.45 338.41,-288.1 331.26,-280.29 327.95,-286.45"/>
</g>
<!-- Node16&#45;&gt;Node9 -->
<g id="edge50" class="edge">
<title>Node16&#45;&gt;Node9</title>
<path fill="none" stroke="midnightblue" d="M269.67,-118.19C274.12,-120.69 278.31,-123.61 282,-127 311.29,-153.95 290.6,-180.13 318,-209 326.1,-217.53 336.35,-224.56 346.83,-230.25"/>
<polygon fill="midnightblue" stroke="midnightblue" points="345.55,-233.52 356.05,-234.9 348.7,-227.27 345.55,-233.52"/>
</g>
<!-- Node17 -->
<g id="node16" class="node">
<title>Node17</title>
<g id="a_node16"><a xlink:href="../../d4/d2c/classleanux_1_1persist_1_1Query.html#a86b5deec83f9cdf0c72f6caf503984d9" target="_top" xlink:title="Get int value from select list.">
<polygon fill="none" stroke="black" points="338.5,-170 338.5,-200 462.5,-200 462.5,-170 338.5,-170"/>
<text text-anchor="start" x="346.5" y="-188" font-family="Helvetica,sans-Serif" font-size="10.00">leanux::persist::Query</text>
<text text-anchor="middle" x="400.5" y="-177" font-family="Helvetica,sans-Serif" font-size="10.00">::getInt</text>
</a>
</g>
</g>
<!-- Node16&#45;&gt;Node17 -->
<g id="edge48" class="edge">
<title>Node16&#45;&gt;Node17</title>
<path fill="none" stroke="midnightblue" d="M263.94,-118.08C270.2,-120.69 276.37,-123.65 282,-127 300.66,-138.09 299.16,-149.22 318,-160 321.86,-162.21 325.94,-164.25 330.13,-166.12"/>
<polygon fill="midnightblue" stroke="midnightblue" points="328.87,-169.38 339.45,-169.96 331.54,-162.91 328.87,-169.38"/>
</g>
<!-- Node18 -->
<g id="node17" class="node">
<title>Node18</title>
<g id="a_node17"><a xlink:href="../../d5/db8/namespaceleanux_1_1net.html#af3904a30ad9b1588f1d534d2b1459f23" target="_top" xlink:title="Get the service name, eg &#39;ssh&#39; for port 22.">
<polygon fill="none" stroke="black" points="321.5,-131.5 321.5,-150.5 479.5,-150.5 479.5,-131.5 321.5,-131.5"/>
<text text-anchor="middle" x="400.5" y="-138.5" font-family="Helvetica,sans-Serif" font-size="10.00">leanux::net::getServiceName</text>
</a>
</g>
</g>
<!-- Node16&#45;&gt;Node18 -->
<g id="edge49" class="edge">
<title>Node16&#45;&gt;Node18</title>
<path fill="none" stroke="midnightblue" d="M280.75,-116.93C301.05,-121.05 323.02,-125.5 342.49,-129.45"/>
<polygon fill="midnightblue" stroke="midnightblue" points="341.92,-132.9 352.42,-131.46 343.31,-126.04 341.92,-132.9"/>
</g>
<!-- Node19 -->
<g id="node18" class="node">
<title>Node19</title>
<g id="a_node18"><a xlink:href="../../dd/d42/namespaceleanux_1_1system.html#a15a1517cb994968027d406402a588157" target="_top" xlink:title="Get username from a uid.">
<polygon fill="none" stroke="black" points="318,-93.5 318,-112.5 483,-112.5 483,-93.5 318,-93.5"/>
<text text-anchor="middle" x="400.5" y="-100.5" font-family="Helvetica,sans-Serif" font-size="10.00">leanux::system::getUserName</text>
</a>
</g>
</g>
<!-- Node16&#45;&gt;Node19 -->
<g id="edge51" class="edge">
<title>Node16&#45;&gt;Node19</title>
<path fill="none" stroke="midnightblue" d="M280.75,-103C289.49,-103 298.53,-103 307.55,-103"/>
<polygon fill="midnightblue" stroke="midnightblue" points="307.71,-106.5 317.71,-103 307.71,-99.5 307.71,-106.5"/>
</g>
<!-- Node20 -->
<g id="node19" class="node">
<title>Node20</title>
<g id="a_node19"><a xlink:href="../../d6/dd3/namespaceleanux_1_1tools_1_1lrep.html#a48bbe696793b1557d9244bff602b9743" target="_top" xlink:title="get from cache or DNS request on cache miss">
<polygon fill="none" stroke="red" points="348.5,-44 348.5,-74 452.5,-74 452.5,-44 348.5,-44"/>
<text text-anchor="start" x="356.5" y="-62" font-family="Helvetica,sans-Serif" font-size="10.00">leanux::tools::lrep</text>
<text text-anchor="middle" x="400.5" y="-51" font-family="Helvetica,sans-Serif" font-size="10.00">::resolveCacheIP</text>
</a>
</g>
</g>
<!-- Node16&#45;&gt;Node20 -->
<g id="edge53" class="edge">
<title>Node16&#45;&gt;Node20</title>
<path fill="none" stroke="midnightblue" d="M276,-87.98C296.24,-83.23 318.54,-78 338.56,-73.3"/>
<polygon fill="midnightblue" stroke="midnightblue" points="339.55,-76.66 348.49,-70.97 337.96,-69.85 339.55,-76.66"/>
</g>
<!-- Node23&#45;&gt;Node3 -->
<g id="edge56" class="edge">
<title>Node23&#45;&gt;Node3</title>
<path fill="none" stroke="midnightblue" d="M272.01,-167.04C275.73,-169.58 279.13,-172.54 282,-176 352.58,-261.02 245.57,-338.55 318,-422 322.25,-426.9 327.45,-430.82 333.14,-433.96"/>
<polygon fill="midnightblue" stroke="midnightblue" points="331.87,-437.23 342.42,-438.27 334.83,-430.89 331.87,-437.23"/>
</g>
<!-- Node23&#45;&gt;Node4 -->
<g id="edge57" class="edge">
<title>Node23&#45;&gt;Node4</title>
<path fill="none" stroke="midnightblue" d="M271.87,-167.16C275.63,-169.67 279.07,-172.59 282,-176 340.06,-243.46 258.47,-306.83 318,-373 321.28,-376.65 325.08,-379.75 329.22,-382.39"/>
<polygon fill="midnightblue" stroke="midnightblue" points="327.65,-385.52 338.11,-387.19 330.97,-379.36 327.65,-385.52"/>
</g>
<!-- Node23&#45;&gt;Node5 -->
<g id="edge61" class="edge">
<title>Node23&#45;&gt;Node5</title>
<path fill="none" stroke="midnightblue" d="M271.33,-167.14C275.26,-169.65 278.88,-172.58 282,-176 327.62,-226.01 271.29,-275 318,-324 318.92,-324.96 319.87,-325.88 320.85,-326.77"/>
<polygon fill="midnightblue" stroke="midnightblue" points="318.89,-329.67 328.98,-332.88 323.09,-324.07 318.89,-329.67"/>
</g>
<!-- Node23&#45;&gt;Node7 -->
<g id="edge62" class="edge">
<title>Node23&#45;&gt;Node7</title>
<path fill="none" stroke="midnightblue" d="M270.24,-167.14C274.51,-169.66 278.51,-172.59 282,-176 315.17,-208.45 284.31,-242.09 318,-274 321.35,-277.18 325.1,-279.95 329.1,-282.37"/>
<polygon fill="midnightblue" stroke="midnightblue" points="327.71,-285.59 338.19,-287.13 330.95,-279.39 327.71,-285.59"/>
</g>
<!-- Node23&#45;&gt;Node17 -->
<g id="edge58" class="edge">
<title>Node23&#45;&gt;Node17</title>
<path fill="none" stroke="midnightblue" d="M282.08,-164.33C297.27,-167.01 313.35,-169.84 328.57,-172.52"/>
<polygon fill="midnightblue" stroke="midnightblue" points="327.97,-175.97 338.43,-174.25 329.19,-169.07 327.97,-175.97"/>
</g>
<!-- Node23&#45;&gt;Node18 -->
<g id="edge59" class="edge">
<title>Node23&#45;&gt;Node18</title>
<path fill="none" stroke="midnightblue" d="M282.08,-147.89C291.58,-147.33 301.42,-146.75 311.19,-146.18"/>
<polygon fill="midnightblue" stroke="midnightblue" points="311.54,-149.67 321.31,-145.59 311.13,-142.68 311.54,-149.67"/>
</g>
<!-- Node23&#45;&gt;Node19 -->
<g id="edge60" class="edge">
<title>Node23&#45;&gt;Node19</title>
<path fill="none" stroke="midnightblue" d="M263.36,-136.94C280.67,-132.01 300.13,-126.61 318,-122 327.29,-119.6 337.22,-117.18 346.83,-114.9"/>
<polygon fill="midnightblue" stroke="midnightblue" points="347.75,-118.28 356.69,-112.58 346.15,-111.46 347.75,-118.28"/>
</g>
<!-- Node24&#45;&gt;Node3 -->
<g id="edge64" class="edge">
<title>Node24&#45;&gt;Node3</title>
<path fill="none" stroke="midnightblue" d="M265.23,-410.91C286.07,-416.36 310.22,-422.67 332.25,-428.43"/>
<polygon fill="midnightblue" stroke="midnightblue" points="331.64,-431.88 342.2,-431.03 333.41,-425.11 331.64,-431.88"/>
</g>
<!-- Node24&#45;&gt;Node4 -->
<g id="edge65" class="edge">
<title>Node24&#45;&gt;Node4</title>
<path fill="none" stroke="midnightblue" d="M265.23,-397C284.77,-397 307.21,-397 328.09,-397"/>
<polygon fill="midnightblue" stroke="midnightblue" points="328.19,-400.5 338.19,-397 328.19,-393.5 328.19,-400.5"/>
</g>
<!-- Node24&#45;&gt;Node5 -->
<g id="edge66" class="edge">
<title>Node24&#45;&gt;Node5</title>
<path fill="none" stroke="midnightblue" d="M265.23,-383.09C285.98,-377.67 310.01,-371.39 331.95,-365.65"/>
<polygon fill="midnightblue" stroke="midnightblue" points="333.08,-368.98 341.87,-363.06 331.31,-362.2 333.08,-368.98"/>
</g>
<!-- Node24&#45;&gt;Node7 -->
<g id="edge67" class="edge">
<title>Node24&#45;&gt;Node7</title>
<path fill="none" stroke="midnightblue" d="M265.34,-382.61C271.23,-379.91 276.93,-376.73 282,-373 303.78,-357 295.97,-339.64 318,-324 321.46,-321.54 325.17,-319.32 329.03,-317.31"/>
<polygon fill="midnightblue" stroke="midnightblue" points="330.67,-320.41 338.25,-313.01 327.71,-314.07 330.67,-320.41"/>
</g>
<!-- Node27 -->
<g id="node24" class="node">
<title>Node27</title>
<g id="a_node24"><a xlink:href="../../d8/db1/namespaceleanux_1_1util.html#a5178387ce32054e1c460c69b44d8219b" target="_top" xlink:title="convert a time duration in microseconds to a pretty print string.">
<polygon fill="none" stroke="black" points="329,-0.5 329,-19.5 472,-19.5 472,-0.5 329,-0.5"/>
<text text-anchor="middle" x="400.5" y="-7.5" font-family="Helvetica,sans-Serif" font-size="10.00">leanux::util::TimeStrMicro</text>
</a>
</g>
</g>
<!-- Node26&#45;&gt;Node27 -->
<g id="edge70" class="edge">
<title>Node26&#45;&gt;Node27</title>
<path fill="none" stroke="midnightblue" d="M277.58,-10C290.79,-10 304.83,-10 318.49,-10"/>
<polygon fill="midnightblue" stroke="midnightblue" points="318.85,-13.5 328.85,-10 318.85,-6.5 318.85,-13.5"/>
</g>
</g>
</svg>
