<?xml version="1.0" encoding="UTF-8" standalone="no"?>
<!DOCTYPE svg PUBLIC "-//W3C//DTD SVG 1.1//EN"
 "http://www.w3.org/Graphics/SVG/1.1/DTD/svg11.dtd">
<!-- Generated by graphviz version 2.43.0 (0)
 -->
<!-- Title: leanux::tools::lrep::chartTCPServerTimeLine Pages: 1 -->
<svg width="533pt" height="312pt"
 viewBox="0.00 0.00 533.00 312.00" xmlns="http://www.w3.org/2000/svg" xmlns:xlink="http://www.w3.org/1999/xlink">
<g id="graph0" class="graph" transform="scale(1 1) rotate(0) translate(4 308)">
<title>leanux::tools::lrep::chartTCPServerTimeLine</title>
<!-- Node1 -->
<g id="node1" class="node">
<title>Node1</title>
<g id="a_node1"><a xlink:title=" ">
<polygon fill="#bfbfbf" stroke="black" points="0,-131.5 0,-161.5 142,-161.5 142,-131.5 0,-131.5"/>
<text text-anchor="start" x="8" y="-149.5" font-family="Helvetica,sans-Serif" font-size="10.00">leanux::tools::lrep</text>
<text text-anchor="middle" x="71" y="-138.5" font-family="Helvetica,sans-Serif" font-size="10.00">::chartTCPServerTimeLine</text>
</a>
</g>
</g>
<!-- Node2 -->
<g id="node2" class="node">
<title>Node2</title>
<g id="a_node2"><a xlink:href="../../d9/d78/classleanux_1_1persist_1_1DML.html#a8df01a6d880515c22106e424ed342c81" target="_top" xlink:title="Bind a double value to the bind at position.">
<polygon fill="none" stroke="black" points="202.5,-273.5 202.5,-303.5 318.5,-303.5 318.5,-273.5 202.5,-273.5"/>
<text text-anchor="start" x="210.5" y="-291.5" font-family="Helvetica,sans-Serif" font-size="10.00">leanux::persist::DML</text>
<text text-anchor="middle" x="260.5" y="-280.5" font-family="Helvetica,sans-Serif" font-size="10.00">::bind</text>
</a>
</g>
</g>
<!-- Node1&#45;&gt;Node2 -->
<g id="edge1" class="edge">
<title>Node1&#45;&gt;Node2</title>
<path fill="none" stroke="midnightblue" d="M81.46,-161.61C97.96,-186.73 134.44,-237.03 178,-264.5 182.68,-267.45 187.74,-270.05 192.96,-272.34"/>
<polygon fill="midnightblue" stroke="midnightblue" points="191.91,-275.69 202.5,-276.14 194.5,-269.19 191.91,-275.69"/>
</g>
<!-- Node3 -->
<g id="node3" class="node">
<title>Node3</title>
<g id="a_node3"><a xlink:href="../../d4/d2c/classleanux_1_1persist_1_1Query.html#ac71ce2dce629c76434dfb541bbe55658" target="_top" xlink:title="Get double value from select list.">
<polygon fill="none" stroke="black" points="198.5,-224.5 198.5,-254.5 322.5,-254.5 322.5,-224.5 198.5,-224.5"/>
<text text-anchor="start" x="206.5" y="-242.5" font-family="Helvetica,sans-Serif" font-size="10.00">leanux::persist::Query</text>
<text text-anchor="middle" x="260.5" y="-231.5" font-family="Helvetica,sans-Serif" font-size="10.00">::getDouble</text>
</a>
</g>
</g>
<!-- Node1&#45;&gt;Node3 -->
<g id="edge2" class="edge">
<title>Node1&#45;&gt;Node3</title>
<path fill="none" stroke="midnightblue" d="M91.31,-161.56C111.83,-176.94 145.69,-200.62 178,-215.5 182.3,-217.48 186.79,-219.34 191.38,-221.08"/>
<polygon fill="midnightblue" stroke="midnightblue" points="190.27,-224.4 200.86,-224.48 192.63,-217.81 190.27,-224.4"/>
</g>
<!-- Node4 -->
<g id="node4" class="node">
<title>Node4</title>
<g id="a_node4"><a xlink:href="../../d4/d2c/classleanux_1_1persist_1_1Query.html#a86b5deec83f9cdf0c72f6caf503984d9" target="_top" xlink:title="Get int value from select list.">
<polygon fill="none" stroke="black" points="198.5,-175.5 198.5,-205.5 322.5,-205.5 322.5,-175.5 198.5,-175.5"/>
<text text-anchor="start" x="206.5" y="-193.5" font-family="Helvetica,sans-Serif" font-size="10.00">leanux::persist::Query</text>
<text text-anchor="middle" x="260.5" y="-182.5" font-family="Helvetica,sans-Serif" font-size="10.00">::getInt</text>
</a>
</g>
</g>
<!-- Node1&#45;&gt;Node4 -->
<g id="edge3" class="edge">
<title>Node1&#45;&gt;Node4</title>
<path fill="none" stroke="midnightblue" d="M136,-161.52C152.85,-165.47 171.13,-169.76 188.33,-173.8"/>
<polygon fill="midnightblue" stroke="midnightblue" points="187.78,-177.27 198.32,-176.14 189.38,-170.45 187.78,-177.27"/>
</g>
<!-- Node5 -->
<g id="node5" class="node">
<title>Node5</title>
<g id="a_node5"><a xlink:href="../../d5/db8/namespaceleanux_1_1net.html#af3904a30ad9b1588f1d534d2b1459f23" target="_top" xlink:title="Get the service name, eg &#39;ssh&#39; for port 22.">
<polygon fill="none" stroke="black" points="181.5,-137 181.5,-156 339.5,-156 339.5,-137 181.5,-137"/>
<text text-anchor="middle" x="260.5" y="-144" font-family="Helvetica,sans-Serif" font-size="10.00">leanux::net::getServiceName</text>
</a>
</g>
</g>
<!-- Node1&#45;&gt;Node5 -->
<g id="edge4" class="edge">
<title>Node1&#45;&gt;Node5</title>
<path fill="none" stroke="midnightblue" d="M142.08,-146.5C151.58,-146.5 161.42,-146.5 171.19,-146.5"/>
<polygon fill="midnightblue" stroke="midnightblue" points="171.31,-150 181.31,-146.5 171.31,-143 171.31,-150"/>
</g>
<!-- Node6 -->
<g id="node6" class="node">
<title>Node6</title>
<g id="a_node6"><a xlink:href="../../dd/d42/namespaceleanux_1_1system.html#a15a1517cb994968027d406402a588157" target="_top" xlink:title="Get username from a uid.">
<polygon fill="none" stroke="black" points="178,-99 178,-118 343,-118 343,-99 178,-99"/>
<text text-anchor="middle" x="260.5" y="-106" font-family="Helvetica,sans-Serif" font-size="10.00">leanux::system::getUserName</text>
</a>
</g>
</g>
<!-- Node1&#45;&gt;Node6 -->
<g id="edge5" class="edge">
<title>Node1&#45;&gt;Node6</title>
<path fill="none" stroke="midnightblue" d="M142.08,-132.3C162.01,-128.26 183.46,-123.91 202.51,-120.05"/>
<polygon fill="midnightblue" stroke="midnightblue" points="203.42,-123.44 212.53,-118.02 202.03,-116.58 203.42,-123.44"/>
</g>
<!-- Node7 -->
<g id="node7" class="node">
<title>Node7</title>
<g id="a_node7"><a xlink:href="../../db/dff/classleanux_1_1persist_1_1Statement.html#a1b809c1b1d0e9d24af65e439c3893d74" target="_top" xlink:title="Prepare a SQL statement.">
<polygon fill="none" stroke="black" points="187.5,-49.5 187.5,-79.5 333.5,-79.5 333.5,-49.5 187.5,-49.5"/>
<text text-anchor="start" x="195.5" y="-67.5" font-family="Helvetica,sans-Serif" font-size="10.00">leanux::persist::Statement</text>
<text text-anchor="middle" x="260.5" y="-56.5" font-family="Helvetica,sans-Serif" font-size="10.00">::prepare</text>
</a>
</g>
</g>
<!-- Node1&#45;&gt;Node7 -->
<g id="edge6" class="edge">
<title>Node1&#45;&gt;Node7</title>
<path fill="none" stroke="midnightblue" d="M96.59,-131.49C117.66,-119.07 149.08,-101.58 178,-89.5 183.51,-87.2 189.31,-85 195.17,-82.93"/>
<polygon fill="midnightblue" stroke="midnightblue" points="196.71,-86.11 205.05,-79.58 194.45,-79.48 196.71,-86.11"/>
</g>
<!-- Node9 -->
<g id="node9" class="node">
<title>Node9</title>
<g id="a_node9"><a xlink:href="../../d4/d2c/classleanux_1_1persist_1_1Query.html#a294e11c33a22761503c49418f5ca9815" target="_top" xlink:title="Step the result list, end of list returns false.">
<polygon fill="none" stroke="black" points="198.5,-0.5 198.5,-30.5 322.5,-30.5 322.5,-0.5 198.5,-0.5"/>
<text text-anchor="start" x="206.5" y="-18.5" font-family="Helvetica,sans-Serif" font-size="10.00">leanux::persist::Query</text>
<text text-anchor="middle" x="260.5" y="-7.5" font-family="Helvetica,sans-Serif" font-size="10.00">::step</text>
</a>
</g>
</g>
<!-- Node1&#45;&gt;Node9 -->
<g id="edge8" class="edge">
<title>Node1&#45;&gt;Node9</title>
<path fill="none" stroke="midnightblue" d="M83.28,-131.17C100.96,-108.19 137.41,-64.91 178,-40.5 181.57,-38.35 185.33,-36.38 189.21,-34.56"/>
<polygon fill="midnightblue" stroke="midnightblue" points="190.62,-37.76 198.43,-30.6 187.86,-31.33 190.62,-37.76"/>
</g>
<!-- Node8 -->
<g id="node8" class="node">
<title>Node8</title>
<g id="a_node8"><a xlink:href="../../db/dff/classleanux_1_1persist_1_1Statement.html#a5b31fb14297ad5c1c342cfc0d8f797de" target="_top" xlink:title="A statement handle can be explicitly closed without deleting the Statement object itself.">
<polygon fill="none" stroke="black" points="379,-49.5 379,-79.5 525,-79.5 525,-49.5 379,-49.5"/>
<text text-anchor="start" x="387" y="-67.5" font-family="Helvetica,sans-Serif" font-size="10.00">leanux::persist::Statement</text>
<text text-anchor="middle" x="452" y="-56.5" font-family="Helvetica,sans-Serif" font-size="10.00">::close</text>
</a>
</g>
</g>
<!-- Node7&#45;&gt;Node8 -->
<g id="edge7" class="edge">
<title>Node7&#45;&gt;Node8</title>
<path fill="none" stroke="midnightblue" d="M333.68,-64.5C345.09,-64.5 356.96,-64.5 368.58,-64.5"/>
<polygon fill="midnightblue" stroke="midnightblue" points="368.7,-68 378.7,-64.5 368.7,-61 368.7,-68"/>
</g>
</g>
</svg>
