<?xml version="1.0" encoding="UTF-8" standalone="no"?>
<!DOCTYPE svg PUBLIC "-//W3C//DTD SVG 1.1//EN"
 "http://www.w3.org/Graphics/SVG/1.1/DTD/svg11.dtd">
<!-- Generated by graphviz version 2.43.0 (0)
 -->
<!-- Title: leanux::tools::lrep::htmlCmdUidDetail Pages: 1 -->
<svg width="504pt" height="312pt"
 viewBox="0.00 0.00 504.00 312.00" xmlns="http://www.w3.org/2000/svg" xmlns:xlink="http://www.w3.org/1999/xlink">
<g id="graph0" class="graph" transform="scale(1 1) rotate(0) translate(4 308)">
<title>leanux::tools::lrep::htmlCmdUidDetail</title>
<!-- Node1 -->
<g id="node1" class="node">
<title>Node1</title>
<g id="a_node1"><a xlink:title=" ">
<polygon fill="#bfbfbf" stroke="black" points="0,-131.5 0,-161.5 113,-161.5 113,-131.5 0,-131.5"/>
<text text-anchor="start" x="8" y="-149.5" font-family="Helvetica,sans-Serif" font-size="10.00">leanux::tools::lrep</text>
<text text-anchor="middle" x="56.5" y="-138.5" font-family="Helvetica,sans-Serif" font-size="10.00">::htmlCmdUidDetail</text>
</a>
</g>
</g>
<!-- Node2 -->
<g id="node2" class="node">
<title>Node2</title>
<g id="a_node2"><a xlink:href="../../d9/d78/classleanux_1_1persist_1_1DML.html#a8df01a6d880515c22106e424ed342c81" target="_top" xlink:title="Bind a double value to the bind at position.">
<polygon fill="none" stroke="black" points="173.5,-273.5 173.5,-303.5 289.5,-303.5 289.5,-273.5 173.5,-273.5"/>
<text text-anchor="start" x="181.5" y="-291.5" font-family="Helvetica,sans-Serif" font-size="10.00">leanux::persist::DML</text>
<text text-anchor="middle" x="231.5" y="-280.5" font-family="Helvetica,sans-Serif" font-size="10.00">::bind</text>
</a>
</g>
</g>
<!-- Node1&#45;&gt;Node2 -->
<g id="edge1" class="edge">
<title>Node1&#45;&gt;Node2</title>
<path fill="none" stroke="midnightblue" d="M65.13,-161.64C78.59,-186.81 108.96,-237.18 149,-264.5 153.57,-267.62 158.55,-270.34 163.72,-272.71"/>
<polygon fill="midnightblue" stroke="midnightblue" points="162.61,-276.04 173.19,-276.61 165.28,-269.56 162.61,-276.04"/>
</g>
<!-- Node3 -->
<g id="node3" class="node">
<title>Node3</title>
<g id="a_node3"><a xlink:href="../../d4/d2c/classleanux_1_1persist_1_1Query.html#ac71ce2dce629c76434dfb541bbe55658" target="_top" xlink:title="Get double value from select list.">
<polygon fill="none" stroke="black" points="169.5,-224.5 169.5,-254.5 293.5,-254.5 293.5,-224.5 169.5,-224.5"/>
<text text-anchor="start" x="177.5" y="-242.5" font-family="Helvetica,sans-Serif" font-size="10.00">leanux::persist::Query</text>
<text text-anchor="middle" x="231.5" y="-231.5" font-family="Helvetica,sans-Serif" font-size="10.00">::getDouble</text>
</a>
</g>
</g>
<!-- Node1&#45;&gt;Node3 -->
<g id="edge2" class="edge">
<title>Node1&#45;&gt;Node3</title>
<path fill="none" stroke="midnightblue" d="M73.8,-161.72C91.22,-177.23 120.21,-201.01 149,-215.5 152.78,-217.4 156.74,-219.18 160.78,-220.84"/>
<polygon fill="midnightblue" stroke="midnightblue" points="159.75,-224.19 170.34,-224.48 162.25,-217.65 159.75,-224.19"/>
</g>
<!-- Node4 -->
<g id="node4" class="node">
<title>Node4</title>
<g id="a_node4"><a xlink:href="../../d4/d2c/classleanux_1_1persist_1_1Query.html#a86b5deec83f9cdf0c72f6caf503984d9" target="_top" xlink:title="Get int value from select list.">
<polygon fill="none" stroke="black" points="169.5,-175.5 169.5,-205.5 293.5,-205.5 293.5,-175.5 169.5,-175.5"/>
<text text-anchor="start" x="177.5" y="-193.5" font-family="Helvetica,sans-Serif" font-size="10.00">leanux::persist::Query</text>
<text text-anchor="middle" x="231.5" y="-182.5" font-family="Helvetica,sans-Serif" font-size="10.00">::getInt</text>
</a>
</g>
</g>
<!-- Node1&#45;&gt;Node4 -->
<g id="edge3" class="edge">
<title>Node1&#45;&gt;Node4</title>
<path fill="none" stroke="midnightblue" d="M113.19,-160.66C128.57,-164.58 145.44,-168.87 161.48,-172.95"/>
<polygon fill="midnightblue" stroke="midnightblue" points="160.78,-176.38 171.33,-175.45 162.51,-169.59 160.78,-176.38"/>
</g>
<!-- Node5 -->
<g id="node5" class="node">
<title>Node5</title>
<g id="a_node5"><a xlink:href="../../dd/d42/namespaceleanux_1_1system.html#a15a1517cb994968027d406402a588157" target="_top" xlink:title="Get username from a uid.">
<polygon fill="none" stroke="black" points="149,-137 149,-156 314,-156 314,-137 149,-137"/>
<text text-anchor="middle" x="231.5" y="-144" font-family="Helvetica,sans-Serif" font-size="10.00">leanux::system::getUserName</text>
</a>
</g>
</g>
<!-- Node1&#45;&gt;Node5 -->
<g id="edge4" class="edge">
<title>Node1&#45;&gt;Node5</title>
<path fill="none" stroke="midnightblue" d="M113.19,-146.5C121.36,-146.5 129.94,-146.5 138.6,-146.5"/>
<polygon fill="midnightblue" stroke="midnightblue" points="138.78,-150 148.78,-146.5 138.78,-143 138.78,-150"/>
</g>
<!-- Node6 -->
<g id="node6" class="node">
<title>Node6</title>
<g id="a_node6"><a xlink:href="../../d8/db1/namespaceleanux_1_1util.html#a0c9555d36d9264d1f0cd246c8ba6da28" target="_top" xlink:title="Convert a double (real number) to a pretty print string.">
<polygon fill="none" stroke="black" points="174.5,-99 174.5,-118 288.5,-118 288.5,-99 174.5,-99"/>
<text text-anchor="middle" x="231.5" y="-106" font-family="Helvetica,sans-Serif" font-size="10.00">leanux::util::NumStr</text>
</a>
</g>
</g>
<!-- Node1&#45;&gt;Node6 -->
<g id="edge5" class="edge">
<title>Node1&#45;&gt;Node6</title>
<path fill="none" stroke="midnightblue" d="M113.19,-134.27C133.64,-129.78 156.73,-124.7 176.98,-120.25"/>
<polygon fill="midnightblue" stroke="midnightblue" points="177.96,-123.62 186.98,-118.06 176.46,-116.79 177.96,-123.62"/>
</g>
<!-- Node7 -->
<g id="node7" class="node">
<title>Node7</title>
<g id="a_node7"><a xlink:href="../../db/dff/classleanux_1_1persist_1_1Statement.html#a1b809c1b1d0e9d24af65e439c3893d74" target="_top" xlink:title="Prepare a SQL statement.">
<polygon fill="none" stroke="black" points="158.5,-49.5 158.5,-79.5 304.5,-79.5 304.5,-49.5 158.5,-49.5"/>
<text text-anchor="start" x="166.5" y="-67.5" font-family="Helvetica,sans-Serif" font-size="10.00">leanux::persist::Statement</text>
<text text-anchor="middle" x="231.5" y="-56.5" font-family="Helvetica,sans-Serif" font-size="10.00">::prepare</text>
</a>
</g>
</g>
<!-- Node1&#45;&gt;Node7 -->
<g id="edge6" class="edge">
<title>Node1&#45;&gt;Node7</title>
<path fill="none" stroke="midnightblue" d="M78.43,-131.26C96.43,-118.71 123.45,-101.14 149,-89.5 154.05,-87.2 159.37,-85.04 164.77,-83.02"/>
<polygon fill="midnightblue" stroke="midnightblue" points="166.29,-86.2 174.54,-79.55 163.95,-79.6 166.29,-86.2"/>
</g>
<!-- Node9 -->
<g id="node9" class="node">
<title>Node9</title>
<g id="a_node9"><a xlink:href="../../d4/d2c/classleanux_1_1persist_1_1Query.html#a294e11c33a22761503c49418f5ca9815" target="_top" xlink:title="Step the result list, end of list returns false.">
<polygon fill="none" stroke="black" points="169.5,-0.5 169.5,-30.5 293.5,-30.5 293.5,-0.5 169.5,-0.5"/>
<text text-anchor="start" x="177.5" y="-18.5" font-family="Helvetica,sans-Serif" font-size="10.00">leanux::persist::Query</text>
<text text-anchor="middle" x="231.5" y="-7.5" font-family="Helvetica,sans-Serif" font-size="10.00">::step</text>
</a>
</g>
</g>
<!-- Node1&#45;&gt;Node9 -->
<g id="edge8" class="edge">
<title>Node1&#45;&gt;Node9</title>
<path fill="none" stroke="midnightblue" d="M66.49,-131.49C80.99,-108.53 111.74,-64.81 149,-40.5 152.49,-38.23 156.19,-36.15 160.02,-34.25"/>
<polygon fill="midnightblue" stroke="midnightblue" points="161.46,-37.44 169.15,-30.16 158.59,-31.06 161.46,-37.44"/>
</g>
<!-- Node8 -->
<g id="node8" class="node">
<title>Node8</title>
<g id="a_node8"><a xlink:href="../../db/dff/classleanux_1_1persist_1_1Statement.html#a5b31fb14297ad5c1c342cfc0d8f797de" target="_top" xlink:title="A statement handle can be explicitly closed without deleting the Statement object itself.">
<polygon fill="none" stroke="black" points="350,-49.5 350,-79.5 496,-79.5 496,-49.5 350,-49.5"/>
<text text-anchor="start" x="358" y="-67.5" font-family="Helvetica,sans-Serif" font-size="10.00">leanux::persist::Statement</text>
<text text-anchor="middle" x="423" y="-56.5" font-family="Helvetica,sans-Serif" font-size="10.00">::close</text>
</a>
</g>
</g>
<!-- Node7&#45;&gt;Node8 -->
<g id="edge7" class="edge">
<title>Node7&#45;&gt;Node8</title>
<path fill="none" stroke="midnightblue" d="M304.68,-64.5C316.09,-64.5 327.96,-64.5 339.58,-64.5"/>
<polygon fill="midnightblue" stroke="midnightblue" points="339.7,-68 349.7,-64.5 339.7,-61 339.7,-68"/>
</g>
</g>
</svg>
