<?xml version="1.0" encoding="UTF-8" standalone="no"?>
<!DOCTYPE svg PUBLIC "-//W3C//DTD SVG 1.1//EN"
 "http://www.w3.org/Graphics/SVG/1.1/DTD/svg11.dtd">
<!-- Generated by graphviz version 2.43.0 (0)
 -->
<!-- Title: leanux::tools::lrep::htmlSystemDetails Pages: 1 -->
<svg width="757pt" height="756pt"
 viewBox="0.00 0.00 757.00 755.50" xmlns="http://www.w3.org/2000/svg" xmlns:xlink="http://www.w3.org/1999/xlink">
<g id="graph0" class="graph" transform="scale(1 1) rotate(0) translate(4 751.5)">
<title>leanux::tools::lrep::htmlSystemDetails</title>
<!-- Node1 -->
<g id="node1" class="node">
<title>Node1</title>
<g id="a_node1"><a xlink:title="generate system details html.">
<polygon fill="#bfbfbf" stroke="black" points="0,-361.5 0,-391.5 116,-391.5 116,-361.5 0,-361.5"/>
<text text-anchor="start" x="8" y="-379.5" font-family="Helvetica,sans-Serif" font-size="10.00">leanux::tools::lrep</text>
<text text-anchor="middle" x="58" y="-368.5" font-family="Helvetica,sans-Serif" font-size="10.00">::htmlSystemDetails</text>
</a>
</g>
</g>
<!-- Node2 -->
<g id="node2" class="node">
<title>Node2</title>
<g id="a_node2"><a xlink:href="../../d8/db1/namespaceleanux_1_1util.html#a979843e3d99f053101f902ec38985833" target="_top" xlink:title="convert a byte value to pretty print string.">
<polygon fill="none" stroke="black" points="182,-728 182,-747 295,-747 295,-728 182,-728"/>
<text text-anchor="middle" x="238.5" y="-735" font-family="Helvetica,sans-Serif" font-size="10.00">leanux::util::ByteStr</text>
</a>
</g>
</g>
<!-- Node1&#45;&gt;Node2 -->
<g id="edge1" class="edge">
<title>Node1&#45;&gt;Node2</title>
<path fill="none" stroke="midnightblue" d="M61.04,-391.7C69.39,-451.79 102.92,-671.67 152,-718.5 157.72,-723.96 164.65,-727.99 172.06,-730.94"/>
<polygon fill="midnightblue" stroke="midnightblue" points="171.05,-734.29 181.65,-734.12 173.26,-727.65 171.05,-734.29"/>
</g>
<!-- Node3 -->
<g id="node3" class="node">
<title>Node3</title>
<g id="a_node3"><a xlink:href="../../d5/d01/namespaceleanux_1_1block.html#a3864dabca95b6bfede27af2bbe4e2f60" target="_top" xlink:title="get a list of all block devices">
<polygon fill="none" stroke="black" points="161,-690 161,-709 316,-709 316,-690 161,-690"/>
<text text-anchor="middle" x="238.5" y="-697" font-family="Helvetica,sans-Serif" font-size="10.00">leanux::block::enumDevices</text>
</a>
</g>
</g>
<!-- Node1&#45;&gt;Node3 -->
<g id="edge2" class="edge">
<title>Node1&#45;&gt;Node3</title>
<path fill="none" stroke="midnightblue" d="M58.96,-391.8C59.69,-440.67 68.79,-594.58 152,-675.5 156.01,-679.4 160.59,-682.67 165.51,-685.42"/>
<polygon fill="midnightblue" stroke="midnightblue" points="164.15,-688.65 174.68,-689.83 167.18,-682.34 164.15,-688.65"/>
</g>
<!-- Node4 -->
<g id="node4" class="node">
<title>Node4</title>
<g id="a_node4"><a xlink:href="../../d5/d01/namespaceleanux_1_1block.html#ac08a21002b48cb1bbfaf8d77b4aac5f6" target="_top" xlink:title="get a list of whole disks (exclude partitions).">
<polygon fill="none" stroke="black" points="388.5,-624.5 388.5,-654.5 534.5,-654.5 534.5,-624.5 388.5,-624.5"/>
<text text-anchor="start" x="396.5" y="-642.5" font-family="Helvetica,sans-Serif" font-size="10.00">leanux::block::enumWhole</text>
<text text-anchor="middle" x="461.5" y="-631.5" font-family="Helvetica,sans-Serif" font-size="10.00">Disks</text>
</a>
</g>
</g>
<!-- Node1&#45;&gt;Node4 -->
<g id="edge3" class="edge">
<title>Node1&#45;&gt;Node4</title>
<path fill="none" stroke="midnightblue" d="M58.8,-391.72C59.11,-438.77 67.22,-582.33 152,-642.5 227.2,-695.87 340.78,-676.1 407.11,-657.43"/>
<polygon fill="midnightblue" stroke="midnightblue" points="408.31,-660.72 416.94,-654.57 406.36,-654 408.31,-660.72"/>
</g>
<!-- Node5 -->
<g id="node5" class="node">
<title>Node5</title>
<g id="a_node5"><a xlink:href="../../dd/d42/namespaceleanux_1_1system.html#a75bb60404aa2da1f0593ffeca7a085d8" target="_top" xlink:title="Get the system architecture.">
<polygon fill="none" stroke="black" points="152,-564 152,-583 325,-583 325,-564 152,-564"/>
<text text-anchor="middle" x="238.5" y="-571" font-family="Helvetica,sans-Serif" font-size="10.00">leanux::system::getArchitecture</text>
</a>
</g>
</g>
<!-- Node1&#45;&gt;Node5 -->
<g id="edge4" class="edge">
<title>Node1&#45;&gt;Node5</title>
<path fill="none" stroke="midnightblue" d="M62.33,-391.71C70.77,-426.45 96.38,-511.86 152,-554.5 154.32,-556.28 156.77,-557.9 159.33,-559.37"/>
<polygon fill="midnightblue" stroke="midnightblue" points="157.83,-562.53 168.35,-563.83 160.94,-556.26 157.83,-562.53"/>
</g>
<!-- Node6 -->
<g id="node6" class="node">
<title>Node6</title>
<g id="a_node6"><a xlink:href="../../d5/d01/namespaceleanux_1_1block.html#ad1f8b6bad222a975b5885a0fff510848" target="_top" xlink:title="total attached storage.">
<polygon fill="none" stroke="black" points="165,-602.5 165,-632.5 312,-632.5 312,-602.5 165,-602.5"/>
<text text-anchor="start" x="173" y="-620.5" font-family="Helvetica,sans-Serif" font-size="10.00">leanux::block::getAttached</text>
<text text-anchor="middle" x="238.5" y="-609.5" font-family="Helvetica,sans-Serif" font-size="10.00">StorageSize</text>
</a>
</g>
</g>
<!-- Node1&#45;&gt;Node6 -->
<g id="edge5" class="edge">
<title>Node1&#45;&gt;Node6</title>
<path fill="none" stroke="midnightblue" d="M61.05,-391.62C67.18,-430.86 89.01,-536.77 152,-592.5 153.93,-594.2 155.96,-595.79 158.09,-597.27"/>
<polygon fill="midnightblue" stroke="midnightblue" points="156.3,-600.28 166.67,-602.46 159.92,-594.29 156.3,-600.28"/>
</g>
<!-- Node7 -->
<g id="node7" class="node">
<title>Node7</title>
<g id="a_node7"><a xlink:href="../../dd/d42/namespaceleanux_1_1system.html#a166614bb486e675664d9198252b369e8" target="_top" xlink:title="Get the name of the system board.">
<polygon fill="none" stroke="black" points="153,-526 153,-545 324,-545 324,-526 153,-526"/>
<text text-anchor="middle" x="238.5" y="-533" font-family="Helvetica,sans-Serif" font-size="10.00">leanux::system::getBoardName</text>
</a>
</g>
</g>
<!-- Node1&#45;&gt;Node7 -->
<g id="edge7" class="edge">
<title>Node1&#45;&gt;Node7</title>
<path fill="none" stroke="midnightblue" d="M64.51,-391.52C75.99,-420.58 105.33,-484.46 152,-516.5 154.91,-518.5 157.99,-520.29 161.2,-521.89"/>
<polygon fill="midnightblue" stroke="midnightblue" points="159.93,-525.16 170.49,-525.95 162.73,-518.74 159.93,-525.16"/>
</g>
<!-- Node9 -->
<g id="node9" class="node">
<title>Node9</title>
<g id="a_node9"><a xlink:href="../../dd/d42/namespaceleanux_1_1system.html#a932c997ac7eb8d186eb7b895be98f8b6" target="_top" xlink:title="Get the vendor of the system board.">
<polygon fill="none" stroke="black" points="167.5,-476.5 167.5,-506.5 309.5,-506.5 309.5,-476.5 167.5,-476.5"/>
<text text-anchor="start" x="175.5" y="-494.5" font-family="Helvetica,sans-Serif" font-size="10.00">leanux::system::getBoard</text>
<text text-anchor="middle" x="238.5" y="-483.5" font-family="Helvetica,sans-Serif" font-size="10.00">Vendor</text>
</a>
</g>
</g>
<!-- Node1&#45;&gt;Node9 -->
<g id="edge9" class="edge">
<title>Node1&#45;&gt;Node9</title>
<path fill="none" stroke="midnightblue" d="M70.49,-391.78C86.53,-412.05 117.58,-447.6 152,-467.5 155.03,-469.25 158.19,-470.88 161.44,-472.39"/>
<polygon fill="midnightblue" stroke="midnightblue" points="160.22,-475.68 170.79,-476.37 162.96,-469.24 160.22,-475.68"/>
</g>
<!-- Node10 -->
<g id="node10" class="node">
<title>Node10</title>
<g id="a_node10"><a xlink:href="../../dd/d42/namespaceleanux_1_1system.html#aae2a6813121fc783d79dad8e28b2d786" target="_top" xlink:title="Get the version of the system board.">
<polygon fill="none" stroke="black" points="167.5,-427.5 167.5,-457.5 309.5,-457.5 309.5,-427.5 167.5,-427.5"/>
<text text-anchor="start" x="175.5" y="-445.5" font-family="Helvetica,sans-Serif" font-size="10.00">leanux::system::getBoard</text>
<text text-anchor="middle" x="238.5" y="-434.5" font-family="Helvetica,sans-Serif" font-size="10.00">Version</text>
</a>
</g>
</g>
<!-- Node1&#45;&gt;Node10 -->
<g id="edge11" class="edge">
<title>Node1&#45;&gt;Node10</title>
<path fill="none" stroke="midnightblue" d="M90.43,-391.59C108.26,-399.83 131.11,-409.88 152,-417.5 158.44,-419.85 165.22,-422.14 172.02,-424.31"/>
<polygon fill="midnightblue" stroke="midnightblue" points="171.38,-427.78 181.96,-427.41 173.46,-421.09 171.38,-427.78"/>
</g>
<!-- Node11 -->
<g id="node11" class="node">
<title>Node11</title>
<g id="a_node11"><a xlink:href="../../dd/d42/namespaceleanux_1_1system.html#a4353472fef02fbaaf6a6051f19323a1f" target="_top" xlink:title="Get the system chassis type as a std::string.">
<polygon fill="none" stroke="black" points="163,-339.5 163,-369.5 314,-369.5 314,-339.5 163,-339.5"/>
<text text-anchor="start" x="171" y="-357.5" font-family="Helvetica,sans-Serif" font-size="10.00">leanux::system::getChassis</text>
<text text-anchor="middle" x="238.5" y="-346.5" font-family="Helvetica,sans-Serif" font-size="10.00">TypeString</text>
</a>
</g>
</g>
<!-- Node1&#45;&gt;Node11 -->
<g id="edge13" class="edge">
<title>Node1&#45;&gt;Node11</title>
<path fill="none" stroke="midnightblue" d="M116.46,-369.42C128.01,-368 140.37,-366.47 152.62,-364.96"/>
<polygon fill="midnightblue" stroke="midnightblue" points="153.37,-368.4 162.86,-363.7 152.51,-361.45 153.37,-368.4"/>
</g>
<!-- Node15 -->
<g id="node14" class="node">
<title>Node15</title>
<g id="a_node14"><a xlink:href="../../da/da3/namespaceleanux_1_1cpu.html#a704d21d69d40fe49b1cf8f2b77fd5664" target="_top" xlink:title="Get CPU info.">
<polygon fill="none" stroke="black" points="171.5,-301 171.5,-320 305.5,-320 305.5,-301 171.5,-301"/>
<text text-anchor="middle" x="238.5" y="-308" font-family="Helvetica,sans-Serif" font-size="10.00">leanux::cpu::getCPUInfo</text>
</a>
</g>
</g>
<!-- Node1&#45;&gt;Node15 -->
<g id="edge16" class="edge">
<title>Node1&#45;&gt;Node15</title>
<path fill="none" stroke="midnightblue" d="M85.55,-361.33C103.77,-351.42 128.77,-338.84 152,-330.5 160.34,-327.51 169.3,-324.84 178.17,-322.51"/>
<polygon fill="midnightblue" stroke="midnightblue" points="179.26,-325.85 188.11,-320.02 177.56,-319.06 179.26,-325.85"/>
</g>
<!-- Node16 -->
<g id="node15" class="node">
<title>Node16</title>
<g id="a_node15"><a xlink:href="../../da/da3/namespaceleanux_1_1cpu.html#a31a23bc3cbd9990806ad11b532e6cb93" target="_top" xlink:title="get the CPU topology.">
<polygon fill="none" stroke="black" points="159.5,-263 159.5,-282 317.5,-282 317.5,-263 159.5,-263"/>
<text text-anchor="middle" x="238.5" y="-270" font-family="Helvetica,sans-Serif" font-size="10.00">leanux::cpu::getCPUTopology</text>
</a>
</g>
</g>
<!-- Node1&#45;&gt;Node16 -->
<g id="edge17" class="edge">
<title>Node1&#45;&gt;Node16</title>
<path fill="none" stroke="midnightblue" d="M71.12,-361.33C87.4,-342.02 118.23,-309.06 152,-291.5 156.52,-289.15 161.32,-287.09 166.26,-285.28"/>
<polygon fill="midnightblue" stroke="midnightblue" points="167.47,-288.57 175.87,-282.11 165.27,-281.92 167.47,-288.57"/>
</g>
<!-- Node18 -->
<g id="node17" class="node">
<title>Node18</title>
<g id="a_node17"><a xlink:href="../../d5/db8/namespaceleanux_1_1net.html#a1263f722e81950eb9973fe13b3b924d4" target="_top" xlink:title="Get a list of IP4 adresses assigned to the device.">
<polygon fill="none" stroke="black" points="167.5,-213.5 167.5,-243.5 309.5,-243.5 309.5,-213.5 167.5,-213.5"/>
<text text-anchor="start" x="175.5" y="-231.5" font-family="Helvetica,sans-Serif" font-size="10.00">leanux::net::getDeviceIP4</text>
<text text-anchor="middle" x="238.5" y="-220.5" font-family="Helvetica,sans-Serif" font-size="10.00">Addresses</text>
</a>
</g>
</g>
<!-- Node1&#45;&gt;Node18 -->
<g id="edge19" class="edge">
<title>Node1&#45;&gt;Node18</title>
<path fill="none" stroke="midnightblue" d="M66.43,-361.12C79.84,-335.02 110.57,-282.08 152,-253.5 154.89,-251.51 157.94,-249.67 161.09,-247.98"/>
<polygon fill="midnightblue" stroke="midnightblue" points="162.74,-251.07 170.23,-243.59 159.7,-244.76 162.74,-251.07"/>
</g>
<!-- Node19 -->
<g id="node18" class="node">
<title>Node19</title>
<g id="a_node18"><a xlink:href="../../dd/d42/namespaceleanux_1_1system.html#a87f3cc1d1be026345c1be58546e5a74b" target="_top" xlink:title="Detect the GNU/Linux distribution.">
<polygon fill="none" stroke="black" points="153.5,-389 153.5,-408 323.5,-408 323.5,-389 153.5,-389"/>
<text text-anchor="middle" x="238.5" y="-396" font-family="Helvetica,sans-Serif" font-size="10.00">leanux::system::getDistribution</text>
</a>
</g>
</g>
<!-- Node1&#45;&gt;Node19 -->
<g id="edge20" class="edge">
<title>Node1&#45;&gt;Node19</title>
<path fill="none" stroke="midnightblue" d="M116.46,-383.58C127.26,-384.91 138.77,-386.33 150.24,-387.75"/>
<polygon fill="midnightblue" stroke="midnightblue" points="149.94,-391.23 160.29,-388.98 150.8,-384.29 149.94,-391.23"/>
</g>
<!-- Node25 -->
<g id="node24" class="node">
<title>Node25</title>
<g id="a_node24"><a xlink:href="../../dd/d42/namespaceleanux_1_1system.html#a019837e625c4eedcc1e09de84a56d5b8" target="_top" xlink:title="Get the kernel version.">
<polygon fill="none" stroke="black" points="166.5,-164.5 166.5,-194.5 310.5,-194.5 310.5,-164.5 166.5,-164.5"/>
<text text-anchor="start" x="174.5" y="-182.5" font-family="Helvetica,sans-Serif" font-size="10.00">leanux::system::getKernel</text>
<text text-anchor="middle" x="238.5" y="-171.5" font-family="Helvetica,sans-Serif" font-size="10.00">Version</text>
</a>
</g>
</g>
<!-- Node1&#45;&gt;Node25 -->
<g id="edge28" class="edge">
<title>Node1&#45;&gt;Node25</title>
<path fill="none" stroke="midnightblue" d="M62.89,-361.29C72.27,-327.75 99.33,-247.07 152,-204.5 154.26,-202.68 156.64,-200.99 159.12,-199.42"/>
<polygon fill="midnightblue" stroke="midnightblue" points="160.84,-202.47 167.88,-194.55 157.44,-196.35 160.84,-202.47"/>
</g>
<!-- Node26 -->
<g id="node25" class="node">
<title>Node26</title>
<g id="a_node25"><a xlink:href="../../dd/d42/namespaceleanux_1_1system.html#a0126c2155740efcd037edd847bdf172b" target="_top" xlink:title="The node name of the system.">
<polygon fill="none" stroke="black" points="154.5,-126 154.5,-145 322.5,-145 322.5,-126 154.5,-126"/>
<text text-anchor="middle" x="238.5" y="-133" font-family="Helvetica,sans-Serif" font-size="10.00">leanux::system::getNodeName</text>
</a>
</g>
</g>
<!-- Node1&#45;&gt;Node26 -->
<g id="edge29" class="edge">
<title>Node1&#45;&gt;Node26</title>
<path fill="none" stroke="midnightblue" d="M60.68,-361.42C65.99,-321.27 86.16,-211.09 152,-155.5 154.56,-153.34 157.32,-151.4 160.21,-149.66"/>
<polygon fill="midnightblue" stroke="midnightblue" points="161.95,-152.7 169.25,-145.03 158.76,-146.47 161.95,-152.7"/>
</g>
<!-- Node27 -->
<g id="node26" class="node">
<title>Node27</title>
<g id="a_node26"><a xlink:href="../../dd/d42/namespaceleanux_1_1system.html#a52dc747f7af9f66fabb1ccfd72c7c450" target="_top" xlink:title="Get the system page size.">
<polygon fill="none" stroke="black" points="160,-88 160,-107 317,-107 317,-88 160,-88"/>
<text text-anchor="middle" x="238.5" y="-95" font-family="Helvetica,sans-Serif" font-size="10.00">leanux::system::getPageSize</text>
</a>
</g>
</g>
<!-- Node1&#45;&gt;Node27 -->
<g id="edge30" class="edge">
<title>Node1&#45;&gt;Node27</title>
<path fill="none" stroke="midnightblue" d="M59.58,-361.43C62.16,-316.66 76.15,-183.42 152,-116.5 153.76,-114.95 155.62,-113.51 157.56,-112.19"/>
<polygon fill="midnightblue" stroke="midnightblue" points="159.58,-115.06 166.52,-107.05 156.1,-108.99 159.58,-115.06"/>
</g>
<!-- Node28 -->
<g id="node27" class="node">
<title>Node28</title>
<g id="a_node27"><a xlink:href="../../dc/d32/namespaceleanux_1_1vmem.html#afaf001154952f8397853ca745110020e" target="_top" xlink:title="get virtual memory statistics.">
<polygon fill="none" stroke="black" points="166.5,-50 166.5,-69 310.5,-69 310.5,-50 166.5,-50"/>
<text text-anchor="middle" x="238.5" y="-57" font-family="Helvetica,sans-Serif" font-size="10.00">leanux::vmem::getVMStat</text>
</a>
</g>
</g>
<!-- Node1&#45;&gt;Node28 -->
<g id="edge31" class="edge">
<title>Node1&#45;&gt;Node28</title>
<path fill="none" stroke="midnightblue" d="M58.79,-361.41C59,-312.5 66.62,-157 152,-78.5 153.73,-76.91 155.56,-75.44 157.47,-74.09"/>
<polygon fill="midnightblue" stroke="midnightblue" points="159.51,-76.95 166.35,-68.86 155.95,-70.92 159.51,-76.95"/>
</g>
<!-- Node29 -->
<g id="node28" class="node">
<title>Node29</title>
<g id="a_node28"><a xlink:href="../../d6/dd3/namespaceleanux_1_1tools_1_1lrep.html#a48bbe696793b1557d9244bff602b9743" target="_top" xlink:title="get from cache or DNS request on cache miss">
<polygon fill="none" stroke="black" points="186.5,-0.5 186.5,-30.5 290.5,-30.5 290.5,-0.5 186.5,-0.5"/>
<text text-anchor="start" x="194.5" y="-18.5" font-family="Helvetica,sans-Serif" font-size="10.00">leanux::tools::lrep</text>
<text text-anchor="middle" x="238.5" y="-7.5" font-family="Helvetica,sans-Serif" font-size="10.00">::resolveCacheIP</text>
</a>
</g>
</g>
<!-- Node1&#45;&gt;Node29 -->
<g id="edge32" class="edge">
<title>Node1&#45;&gt;Node29</title>
<path fill="none" stroke="midnightblue" d="M58.38,-361.27C57.11,-308.8 60.22,-133.61 152,-40.5 158.85,-33.55 167.51,-28.51 176.69,-24.86"/>
<polygon fill="midnightblue" stroke="midnightblue" points="178.05,-28.09 186.37,-21.53 175.78,-21.47 178.05,-28.09"/>
</g>
<!-- Node6&#45;&gt;Node4 -->
<g id="edge6" class="edge">
<title>Node6&#45;&gt;Node4</title>
<path fill="none" stroke="midnightblue" d="M312.17,-624.73C333.24,-626.83 356.4,-629.14 378.02,-631.29"/>
<polygon fill="midnightblue" stroke="midnightblue" points="377.87,-634.79 388.16,-632.3 378.56,-627.83 377.87,-634.79"/>
</g>
<!-- Node8 -->
<g id="node8" class="node">
<title>Node8</title>
<g id="a_node8"><a xlink:href="../../d8/db1/namespaceleanux_1_1util.html#a57bfd49353610b3d0b6d121b264c676e" target="_top" xlink:title="read the file as a single string.">
<polygon fill="none" stroke="black" points="388.5,-523 388.5,-542 534.5,-542 534.5,-523 388.5,-523"/>
<text text-anchor="middle" x="461.5" y="-530" font-family="Helvetica,sans-Serif" font-size="10.00">leanux::util::fileReadString</text>
</a>
</g>
</g>
<!-- Node7&#45;&gt;Node8 -->
<g id="edge8" class="edge">
<title>Node7&#45;&gt;Node8</title>
<path fill="none" stroke="midnightblue" d="M324.31,-534.35C342.02,-534.11 360.65,-533.86 378.26,-533.62"/>
<polygon fill="midnightblue" stroke="midnightblue" points="378.55,-537.11 388.5,-533.48 378.45,-530.11 378.55,-537.11"/>
</g>
<!-- Node9&#45;&gt;Node8 -->
<g id="edge10" class="edge">
<title>Node9&#45;&gt;Node8</title>
<path fill="none" stroke="midnightblue" d="M309.73,-504.53C338.43,-509.85 371.34,-515.96 399.07,-521.1"/>
<polygon fill="midnightblue" stroke="midnightblue" points="398.56,-524.57 409.03,-522.95 399.84,-517.69 398.56,-524.57"/>
</g>
<!-- Node10&#45;&gt;Node8 -->
<g id="edge12" class="edge">
<title>Node10&#45;&gt;Node8</title>
<path fill="none" stroke="midnightblue" d="M305.6,-457.65C312.4,-460.42 319,-463.68 325,-467.5 345.45,-480.53 340.24,-495.96 361,-508.5 368.71,-513.16 377.26,-516.91 386.03,-519.93"/>
<polygon fill="midnightblue" stroke="midnightblue" points="385,-523.28 395.59,-522.94 387.1,-516.6 385,-523.28"/>
</g>
<!-- Node12 -->
<g id="node12" class="node">
<title>Node12</title>
<g id="a_node12"><a xlink:href="../../dd/d42/namespaceleanux_1_1system.html#a1ab19aa4db47eac1c96cd0f456475fbc" target="_top" xlink:title="Get the system chassis type.">
<polygon fill="none" stroke="red" points="375,-211 375,-230 548,-230 548,-211 375,-211"/>
<text text-anchor="middle" x="461.5" y="-218" font-family="Helvetica,sans-Serif" font-size="10.00">leanux::system::getChassisType</text>
</a>
</g>
</g>
<!-- Node11&#45;&gt;Node12 -->
<g id="edge14" class="edge">
<title>Node11&#45;&gt;Node12</title>
<path fill="none" stroke="midnightblue" d="M310.84,-339.34C315.95,-336.59 320.76,-333.34 325,-329.5 356.64,-300.87 328.16,-267.74 361,-240.5 363.58,-238.36 366.32,-236.43 369.19,-234.69"/>
<polygon fill="midnightblue" stroke="midnightblue" points="370.9,-237.75 378.14,-230.01 367.65,-231.54 370.9,-237.75"/>
</g>
<!-- Node13 -->
<g id="node13" class="node">
<title>Node13</title>
<g id="a_node13"><a xlink:href="../../d8/db1/namespaceleanux_1_1util.html#a6421ca2c46c56eebe1a486c6a498ce7d" target="_top" xlink:title="Test if a file exists and can be read.">
<polygon fill="none" stroke="black" points="598,-348 598,-367 749,-367 749,-348 598,-348"/>
<text text-anchor="middle" x="673.5" y="-355" font-family="Helvetica,sans-Serif" font-size="10.00">leanux::util::fileReadAccess</text>
</a>
</g>
</g>
<!-- Node12&#45;&gt;Node13 -->
<g id="edge15" class="edge">
<title>Node12&#45;&gt;Node13</title>
<path fill="none" stroke="midnightblue" d="M536.61,-230.05C545.46,-232.73 554.14,-236.14 562,-240.5 605.96,-264.87 642.71,-312.77 660.67,-339.09"/>
<polygon fill="midnightblue" stroke="midnightblue" points="657.96,-341.34 666.41,-347.73 663.79,-337.47 657.96,-341.34"/>
</g>
<!-- Node17 -->
<g id="node16" class="node">
<title>Node17</title>
<g id="a_node16"><a xlink:href="../../d8/db1/namespaceleanux_1_1util.html#a1e9a1206d94b2f96e8e0c6adc4e4cd12" target="_top" xlink:title="read the first data in the file as a string representation of a unsigned long.">
<polygon fill="none" stroke="black" points="396.5,-173 396.5,-192 526.5,-192 526.5,-173 396.5,-173"/>
<text text-anchor="middle" x="461.5" y="-180" font-family="Helvetica,sans-Serif" font-size="10.00">leanux::util::fileReadUL</text>
</a>
</g>
</g>
<!-- Node16&#45;&gt;Node17 -->
<g id="edge18" class="edge">
<title>Node16&#45;&gt;Node17</title>
<path fill="none" stroke="midnightblue" d="M305.99,-263C312.72,-260.52 319.2,-257.4 325,-253.5 348.33,-237.82 337.44,-216.83 361,-201.5 368.74,-196.46 377.49,-192.69 386.51,-189.88"/>
<polygon fill="midnightblue" stroke="midnightblue" points="387.64,-193.2 396.37,-187.19 385.8,-186.45 387.64,-193.2"/>
</g>
<!-- Node19&#45;&gt;Node8 -->
<g id="edge22" class="edge">
<title>Node19&#45;&gt;Node8</title>
<path fill="none" stroke="midnightblue" d="M308.25,-408.12C314.32,-410.83 320.03,-414.23 325,-418.5 357.67,-446.58 328.43,-480.3 361,-508.5 366.28,-513.07 372.29,-516.8 378.67,-519.85"/>
<polygon fill="midnightblue" stroke="midnightblue" points="377.67,-523.22 388.25,-523.84 380.36,-516.76 377.67,-523.22"/>
</g>
<!-- Node19&#45;&gt;Node13 -->
<g id="edge21" class="edge">
<title>Node19&#45;&gt;Node13</title>
<path fill="none" stroke="midnightblue" d="M304.87,-408.09C312.03,-410.76 318.91,-414.17 325,-418.5 349.41,-435.88 334.76,-461.04 361,-475.5 439.24,-518.62 480.04,-511.04 562,-475.5 608.99,-455.13 645.14,-403.84 662.02,-376.06"/>
<polygon fill="midnightblue" stroke="midnightblue" points="665.12,-377.7 667.18,-367.31 659.09,-374.15 665.12,-377.7"/>
</g>
<!-- Node20 -->
<g id="node19" class="node">
<title>Node20</title>
<g id="a_node19"><a xlink:href="../../dd/d42/namespaceleanux_1_1system.html#aed132a8f45eaf49bface294263301b1b" target="_top" xlink:title="Read the DISTRIB_DESCRIPTION from /etc/lsb&#45;release.">
<polygon fill="none" stroke="black" points="373.5,-435.5 373.5,-465.5 549.5,-465.5 549.5,-435.5 373.5,-435.5"/>
<text text-anchor="start" x="381.5" y="-453.5" font-family="Helvetica,sans-Serif" font-size="10.00">leanux::system::readLSBRelease</text>
<text text-anchor="middle" x="461.5" y="-442.5" font-family="Helvetica,sans-Serif" font-size="10.00">DistribDescription</text>
</a>
</g>
</g>
<!-- Node19&#45;&gt;Node20 -->
<g id="edge23" class="edge">
<title>Node19&#45;&gt;Node20</title>
<path fill="none" stroke="midnightblue" d="M280.38,-408.05C294.52,-411.35 310.46,-415.08 325,-418.5 345.22,-423.25 367.14,-428.42 387.33,-433.19"/>
<polygon fill="midnightblue" stroke="midnightblue" points="386.55,-436.6 397.09,-435.49 388.16,-429.79 386.55,-436.6"/>
</g>
<!-- Node21 -->
<g id="node20" class="node">
<title>Node21</title>
<g id="a_node20"><a xlink:href="../../dd/d42/namespaceleanux_1_1system.html#ad8234be7a364508d2c6a6f107a3631a1" target="_top" xlink:title="Read the DISTRIB_ID from /etc/lsb&#45;release.">
<polygon fill="none" stroke="black" points="373.5,-386.5 373.5,-416.5 549.5,-416.5 549.5,-386.5 373.5,-386.5"/>
<text text-anchor="start" x="381.5" y="-404.5" font-family="Helvetica,sans-Serif" font-size="10.00">leanux::system::readLSBRelease</text>
<text text-anchor="middle" x="461.5" y="-393.5" font-family="Helvetica,sans-Serif" font-size="10.00">DistribId</text>
</a>
</g>
</g>
<!-- Node19&#45;&gt;Node21 -->
<g id="edge24" class="edge">
<title>Node19&#45;&gt;Node21</title>
<path fill="none" stroke="midnightblue" d="M323.68,-399.64C336.61,-399.82 350.05,-400 363.23,-400.18"/>
<polygon fill="midnightblue" stroke="midnightblue" points="363.2,-403.68 373.25,-400.32 363.3,-396.68 363.2,-403.68"/>
</g>
<!-- Node22 -->
<g id="node21" class="node">
<title>Node22</title>
<g id="a_node21"><a xlink:href="../../dd/d42/namespaceleanux_1_1system.html#a09df94941748f400e8851f4580d55b4c" target="_top" xlink:title="Read the ID from /etc/os&#45;release.">
<polygon fill="none" stroke="black" points="375.5,-337.5 375.5,-367.5 547.5,-367.5 547.5,-337.5 375.5,-337.5"/>
<text text-anchor="start" x="383.5" y="-355.5" font-family="Helvetica,sans-Serif" font-size="10.00">leanux::system::readOSRelease</text>
<text text-anchor="middle" x="461.5" y="-344.5" font-family="Helvetica,sans-Serif" font-size="10.00">DistribId</text>
</a>
</g>
</g>
<!-- Node19&#45;&gt;Node22 -->
<g id="edge25" class="edge">
<title>Node19&#45;&gt;Node22</title>
<path fill="none" stroke="midnightblue" d="M285.29,-388.97C312.1,-383.39 346.76,-376.17 378.16,-369.64"/>
<polygon fill="midnightblue" stroke="midnightblue" points="379.15,-373.01 388.23,-367.54 377.73,-366.15 379.15,-373.01"/>
</g>
<!-- Node23 -->
<g id="node22" class="node">
<title>Node23</title>
<g id="a_node22"><a xlink:href="../../dd/d42/namespaceleanux_1_1system.html#ab4e7b5d36c918f7655be2fc23056c1c2" target="_top" xlink:title="Read the NAME from /etc/os&#45;release.">
<polygon fill="none" stroke="black" points="361,-299 361,-318 562,-318 562,-299 361,-299"/>
<text text-anchor="middle" x="461.5" y="-306" font-family="Helvetica,sans-Serif" font-size="10.00">leanux::system::readOSReleaseName</text>
</a>
</g>
</g>
<!-- Node19&#45;&gt;Node23 -->
<g id="edge26" class="edge">
<title>Node19&#45;&gt;Node23</title>
<path fill="none" stroke="midnightblue" d="M305.96,-388.95C312.69,-386.47 319.18,-383.38 325,-379.5 348.09,-364.12 337.75,-343.64 361,-328.5 364.84,-326 368.93,-323.8 373.17,-321.87"/>
<polygon fill="midnightblue" stroke="midnightblue" points="374.71,-325.02 382.68,-318.04 372.1,-318.53 374.71,-325.02"/>
</g>
<!-- Node24 -->
<g id="node23" class="node">
<title>Node24</title>
<g id="a_node23"><a xlink:href="../../dd/d42/namespaceleanux_1_1system.html#a06b51abf1e4d492f1c75f47a1bbff1f3" target="_top" xlink:title="Read the VERSION from /etc/os&#45;release.">
<polygon fill="none" stroke="black" points="375.5,-249.5 375.5,-279.5 547.5,-279.5 547.5,-249.5 375.5,-249.5"/>
<text text-anchor="start" x="383.5" y="-267.5" font-family="Helvetica,sans-Serif" font-size="10.00">leanux::system::readOSRelease</text>
<text text-anchor="middle" x="461.5" y="-256.5" font-family="Helvetica,sans-Serif" font-size="10.00">Version</text>
</a>
</g>
</g>
<!-- Node19&#45;&gt;Node24 -->
<g id="edge27" class="edge">
<title>Node19&#45;&gt;Node24</title>
<path fill="none" stroke="midnightblue" d="M309.91,-388.97C315.36,-386.45 320.48,-383.34 325,-379.5 357.83,-351.6 328.56,-317.85 361,-289.5 362.8,-287.93 364.68,-286.45 366.63,-285.07"/>
<polygon fill="midnightblue" stroke="midnightblue" points="368.92,-287.77 375.61,-279.56 365.26,-281.81 368.92,-287.77"/>
</g>
<!-- Node30 -->
<g id="node29" class="node">
<title>Node30</title>
<g id="a_node29"><a xlink:href="../../d5/db8/namespaceleanux_1_1net.html#a63180a19841a83de5f17eca4c4e055dd" target="_top" xlink:title="Try to resolve an IPv4 or IPv6 address.">
<polygon fill="none" stroke="red" points="400.5,-6 400.5,-25 522.5,-25 522.5,-6 400.5,-6"/>
<text text-anchor="middle" x="461.5" y="-13" font-family="Helvetica,sans-Serif" font-size="10.00">leanux::net::resolveIP</text>
</a>
</g>
</g>
<!-- Node29&#45;&gt;Node30 -->
<g id="edge33" class="edge">
<title>Node29&#45;&gt;Node30</title>
<path fill="none" stroke="midnightblue" d="M290.76,-15.5C320.21,-15.5 357.64,-15.5 389.85,-15.5"/>
<polygon fill="midnightblue" stroke="midnightblue" points="390.11,-19 400.11,-15.5 390.11,-12 390.11,-19"/>
</g>
</g>
</svg>
