<?xml version="1.0" encoding="UTF-8" standalone="no"?>
<!DOCTYPE svg PUBLIC "-//W3C//DTD SVG 1.1//EN"
 "http://www.w3.org/Graphics/SVG/1.1/DTD/svg11.dtd">
<!-- Generated by graphviz version 2.43.0 (0)
 -->
<!-- Title: leanux::tools::lrep::htmlCmdRSSDetail Pages: 1 -->
<svg width="499pt" height="323pt"
 viewBox="0.00 0.00 499.00 323.00" xmlns="http://www.w3.org/2000/svg" xmlns:xlink="http://www.w3.org/1999/xlink">
<g id="graph0" class="graph" transform="scale(1 1) rotate(0) translate(4 319)">
<title>leanux::tools::lrep::htmlCmdRSSDetail</title>
<!-- Node1 -->
<g id="node1" class="node">
<title>Node1</title>
<g id="a_node1"><a xlink:title=" ">
<polygon fill="#bfbfbf" stroke="black" points="0,-147.5 0,-177.5 116,-177.5 116,-147.5 0,-147.5"/>
<text text-anchor="start" x="8" y="-165.5" font-family="Helvetica,sans-Serif" font-size="10.00">leanux::tools::lrep</text>
<text text-anchor="middle" x="58" y="-154.5" font-family="Helvetica,sans-Serif" font-size="10.00">::htmlCmdRSSDetail</text>
</a>
</g>
</g>
<!-- Node2 -->
<g id="node2" class="node">
<title>Node2</title>
<g id="a_node2"><a xlink:href="../../d9/d78/classleanux_1_1persist_1_1DML.html#a8df01a6d880515c22106e424ed342c81" target="_top" xlink:title="Bind a double value to the bind at position.">
<polygon fill="none" stroke="black" points="172.5,-284.5 172.5,-314.5 288.5,-314.5 288.5,-284.5 172.5,-284.5"/>
<text text-anchor="start" x="180.5" y="-302.5" font-family="Helvetica,sans-Serif" font-size="10.00">leanux::persist::DML</text>
<text text-anchor="middle" x="230.5" y="-291.5" font-family="Helvetica,sans-Serif" font-size="10.00">::bind</text>
</a>
</g>
</g>
<!-- Node1&#45;&gt;Node2 -->
<g id="edge1" class="edge">
<title>Node1&#45;&gt;Node2</title>
<path fill="none" stroke="midnightblue" d="M67.49,-177.71C81.79,-201.95 112.97,-249.3 152,-275.5 155.49,-277.84 159.21,-279.96 163.07,-281.88"/>
<polygon fill="midnightblue" stroke="midnightblue" points="161.72,-285.11 172.28,-286.01 164.59,-278.73 161.72,-285.11"/>
</g>
<!-- Node3 -->
<g id="node3" class="node">
<title>Node3</title>
<g id="a_node3"><a xlink:href="../../d4/d2c/classleanux_1_1persist_1_1Query.html#ac71ce2dce629c76434dfb541bbe55658" target="_top" xlink:title="Get double value from select list.">
<polygon fill="none" stroke="black" points="168.5,-235.5 168.5,-265.5 292.5,-265.5 292.5,-235.5 168.5,-235.5"/>
<text text-anchor="start" x="176.5" y="-253.5" font-family="Helvetica,sans-Serif" font-size="10.00">leanux::persist::Query</text>
<text text-anchor="middle" x="230.5" y="-242.5" font-family="Helvetica,sans-Serif" font-size="10.00">::getDouble</text>
</a>
</g>
</g>
<!-- Node1&#45;&gt;Node3 -->
<g id="edge2" class="edge">
<title>Node1&#45;&gt;Node3</title>
<path fill="none" stroke="midnightblue" d="M77.97,-177.72C96.1,-191.69 124.66,-212.17 152,-225.5 156.57,-227.73 161.38,-229.82 166.28,-231.78"/>
<polygon fill="midnightblue" stroke="midnightblue" points="165.18,-235.1 175.77,-235.37 167.66,-228.56 165.18,-235.1"/>
</g>
<!-- Node4 -->
<g id="node4" class="node">
<title>Node4</title>
<g id="a_node4"><a xlink:href="../../dd/d42/namespaceleanux_1_1system.html#a52dc747f7af9f66fabb1ccfd72c7c450" target="_top" xlink:title="Get the system page size.">
<polygon fill="none" stroke="black" points="152,-197 152,-216 309,-216 309,-197 152,-197"/>
<text text-anchor="middle" x="230.5" y="-204" font-family="Helvetica,sans-Serif" font-size="10.00">leanux::system::getPageSize</text>
</a>
</g>
</g>
<!-- Node1&#45;&gt;Node4 -->
<g id="edge3" class="edge">
<title>Node1&#45;&gt;Node4</title>
<path fill="none" stroke="midnightblue" d="M114.02,-177.51C126.5,-180.85 139.69,-184.34 152,-187.5 160.97,-189.8 170.53,-192.2 179.78,-194.48"/>
<polygon fill="midnightblue" stroke="midnightblue" points="179.09,-197.92 189.63,-196.91 180.76,-191.12 179.09,-197.92"/>
</g>
<!-- Node5 -->
<g id="node5" class="node">
<title>Node5</title>
<g id="a_node5"><a xlink:href="../../d6/dd3/namespaceleanux_1_1tools_1_1lrep.html#a85ac1fb32ad11b10d1ea134e230f6c47" target="_top" xlink:title=" ">
<polygon fill="none" stroke="black" points="178.5,-147.5 178.5,-177.5 282.5,-177.5 282.5,-147.5 178.5,-147.5"/>
<text text-anchor="start" x="186.5" y="-165.5" font-family="Helvetica,sans-Serif" font-size="10.00">leanux::tools::lrep</text>
<text text-anchor="middle" x="230.5" y="-154.5" font-family="Helvetica,sans-Serif" font-size="10.00">::htmlTimeLine</text>
</a>
</g>
</g>
<!-- Node1&#45;&gt;Node5 -->
<g id="edge4" class="edge">
<title>Node1&#45;&gt;Node5</title>
<path fill="none" stroke="midnightblue" d="M116.25,-162.5C132.91,-162.5 151.18,-162.5 168.09,-162.5"/>
<polygon fill="midnightblue" stroke="midnightblue" points="168.42,-166 178.42,-162.5 168.42,-159 168.42,-166"/>
</g>
<!-- Node6 -->
<g id="node6" class="node">
<title>Node6</title>
<g id="a_node6"><a xlink:href="../../d6/dd3/namespaceleanux_1_1tools_1_1lrep.html#a9ef7dd7e7c56989574a69148cbba20b1" target="_top" xlink:title="deterministic transform of arbitray strings into valid javascript identifiers">
<polygon fill="none" stroke="black" points="178.5,-98.5 178.5,-128.5 282.5,-128.5 282.5,-98.5 178.5,-98.5"/>
<text text-anchor="start" x="186.5" y="-116.5" font-family="Helvetica,sans-Serif" font-size="10.00">leanux::tools::lrep</text>
<text text-anchor="middle" x="230.5" y="-105.5" font-family="Helvetica,sans-Serif" font-size="10.00">::jsIdFromString</text>
</a>
</g>
</g>
<!-- Node1&#45;&gt;Node6 -->
<g id="edge5" class="edge">
<title>Node1&#45;&gt;Node6</title>
<path fill="none" stroke="midnightblue" d="M111.55,-147.4C129.54,-142.23 149.83,-136.4 168.45,-131.05"/>
<polygon fill="midnightblue" stroke="midnightblue" points="169.65,-134.34 178.3,-128.22 167.72,-127.61 169.65,-134.34"/>
</g>
<!-- Node7 -->
<g id="node7" class="node">
<title>Node7</title>
<g id="a_node7"><a xlink:href="../../db/dff/classleanux_1_1persist_1_1Statement.html#a1b809c1b1d0e9d24af65e439c3893d74" target="_top" xlink:title="Prepare a SQL statement.">
<polygon fill="none" stroke="black" points="157.5,-49.5 157.5,-79.5 303.5,-79.5 303.5,-49.5 157.5,-49.5"/>
<text text-anchor="start" x="165.5" y="-67.5" font-family="Helvetica,sans-Serif" font-size="10.00">leanux::persist::Statement</text>
<text text-anchor="middle" x="230.5" y="-56.5" font-family="Helvetica,sans-Serif" font-size="10.00">::prepare</text>
</a>
</g>
</g>
<!-- Node1&#45;&gt;Node7 -->
<g id="edge6" class="edge">
<title>Node1&#45;&gt;Node7</title>
<path fill="none" stroke="midnightblue" d="M74.56,-147.41C92.11,-131.13 122.1,-105.4 152,-89.5 156.15,-87.29 160.53,-85.24 165.01,-83.33"/>
<polygon fill="midnightblue" stroke="midnightblue" points="166.31,-86.58 174.3,-79.63 163.72,-80.08 166.31,-86.58"/>
</g>
<!-- Node9 -->
<g id="node9" class="node">
<title>Node9</title>
<g id="a_node9"><a xlink:href="../../d4/d2c/classleanux_1_1persist_1_1Query.html#a294e11c33a22761503c49418f5ca9815" target="_top" xlink:title="Step the result list, end of list returns false.">
<polygon fill="none" stroke="black" points="168.5,-0.5 168.5,-30.5 292.5,-30.5 292.5,-0.5 168.5,-0.5"/>
<text text-anchor="start" x="176.5" y="-18.5" font-family="Helvetica,sans-Serif" font-size="10.00">leanux::persist::Query</text>
<text text-anchor="middle" x="230.5" y="-7.5" font-family="Helvetica,sans-Serif" font-size="10.00">::step</text>
</a>
</g>
</g>
<!-- Node1&#45;&gt;Node9 -->
<g id="edge8" class="edge">
<title>Node1&#45;&gt;Node9</title>
<path fill="none" stroke="midnightblue" d="M66.55,-147.37C80.13,-121.66 111.13,-69.42 152,-40.5 154.71,-38.58 157.58,-36.8 160.55,-35.16"/>
<polygon fill="midnightblue" stroke="midnightblue" points="162.32,-38.19 169.72,-30.61 159.21,-31.92 162.32,-38.19"/>
</g>
<!-- Node8 -->
<g id="node8" class="node">
<title>Node8</title>
<g id="a_node8"><a xlink:href="../../db/dff/classleanux_1_1persist_1_1Statement.html#a5b31fb14297ad5c1c342cfc0d8f797de" target="_top" xlink:title="A statement handle can be explicitly closed without deleting the Statement object itself.">
<polygon fill="none" stroke="black" points="345,-49.5 345,-79.5 491,-79.5 491,-49.5 345,-49.5"/>
<text text-anchor="start" x="353" y="-67.5" font-family="Helvetica,sans-Serif" font-size="10.00">leanux::persist::Statement</text>
<text text-anchor="middle" x="418" y="-56.5" font-family="Helvetica,sans-Serif" font-size="10.00">::close</text>
</a>
</g>
</g>
<!-- Node7&#45;&gt;Node8 -->
<g id="edge7" class="edge">
<title>Node7&#45;&gt;Node8</title>
<path fill="none" stroke="midnightblue" d="M303.75,-64.5C313.9,-64.5 324.39,-64.5 334.71,-64.5"/>
<polygon fill="midnightblue" stroke="midnightblue" points="334.95,-68 344.95,-64.5 334.95,-61 334.95,-68"/>
</g>
</g>
</svg>
