<?xml version="1.0" encoding="UTF-8" standalone="no"?>
<!DOCTYPE svg PUBLIC "-//W3C//DTD SVG 1.1//EN"
 "http://www.w3.org/Graphics/SVG/1.1/DTD/svg11.dtd">
<!-- Generated by graphviz version 2.43.0 (0)
 -->
<!-- Title: leanux::util::stlhexnatstrlt Pages: 1 -->
<svg width="612pt" height="47pt"
 viewBox="0.00 0.00 612.00 47.00" xmlns="http://www.w3.org/2000/svg" xmlns:xlink="http://www.w3.org/1999/xlink">
<g id="graph0" class="graph" transform="scale(1 1) rotate(0) translate(4 43)">
<title>leanux::util::stlhexnatstrlt</title>
<!-- Node1 -->
<g id="node1" class="node">
<title>Node1</title>
<g id="a_node1"><a xlink:title="STL natural less&#45;than std::string compare, treating hex numbers as numbers.">
<polygon fill="#bfbfbf" stroke="black" points="0,-19.5 0,-38.5 143,-38.5 143,-19.5 0,-19.5"/>
<text text-anchor="middle" x="71.5" y="-26.5" font-family="Helvetica,sans-Serif" font-size="10.00">leanux::util::stlhexnatstrlt</text>
</a>
</g>
</g>
<!-- Node2 -->
<g id="node2" class="node">
<title>Node2</title>
<g id="a_node2"><a xlink:href="../../d8/db1/namespaceleanux_1_1util.html#a956457b75f9b34b1bf10a7724ceebe7f" target="_top" xlink:title="STL natural less&#45;than string compare.">
<polygon fill="none" stroke="black" points="179,-19.5 179,-38.5 310,-38.5 310,-19.5 179,-19.5"/>
<text text-anchor="middle" x="244.5" y="-26.5" font-family="Helvetica,sans-Serif" font-size="10.00">leanux::util::hexnatstrlt</text>
</a>
</g>
</g>
<!-- Node1&#45;&gt;Node2 -->
<g id="edge1" class="edge">
<title>Node1&#45;&gt;Node2</title>
<path fill="none" stroke="midnightblue" d="M143.04,-29C151.48,-29 160.11,-29 168.61,-29"/>
<polygon fill="midnightblue" stroke="midnightblue" points="168.88,-32.5 178.88,-29 168.88,-25.5 168.88,-32.5"/>
</g>
<!-- Node3 -->
<g id="node3" class="node">
<title>Node3</title>
<g id="a_node3"><a xlink:href="../../d8/db1/namespaceleanux_1_1util.html#a8bac734d7f890b4768c5258f1e710813" target="_top" xlink:title=" ">
<polygon fill="none" stroke="black" points="496,-19.5 496,-38.5 604,-38.5 604,-19.5 496,-19.5"/>
<text text-anchor="middle" x="550" y="-26.5" font-family="Helvetica,sans-Serif" font-size="10.00">leanux::util::t_digit</text>
</a>
</g>
</g>
<!-- Node2&#45;&gt;Node3 -->
<g id="edge2" class="edge">
<title>Node2&#45;&gt;Node3</title>
<path fill="none" stroke="midnightblue" d="M310.24,-29C362.03,-29 434.25,-29 485.67,-29"/>
<polygon fill="midnightblue" stroke="midnightblue" points="485.98,-32.5 495.98,-29 485.98,-25.5 485.98,-32.5"/>
</g>
<!-- Node4 -->
<g id="node4" class="node">
<title>Node4</title>
<g id="a_node4"><a xlink:href="../../d8/db1/namespaceleanux_1_1util.html#ade6c17216d675874fea37539966a7554" target="_top" xlink:title=" ">
<polygon fill="none" stroke="black" points="346,-0.5 346,-19.5 460,-19.5 460,-0.5 346,-0.5"/>
<text text-anchor="middle" x="403" y="-7.5" font-family="Helvetica,sans-Serif" font-size="10.00">leanux::util::t_xdigit</text>
</a>
</g>
</g>
<!-- Node2&#45;&gt;Node4 -->
<g id="edge3" class="edge">
<title>Node2&#45;&gt;Node4</title>
<path fill="none" stroke="midnightblue" d="M310.06,-21.16C318.44,-20.14 327.04,-19.1 335.45,-18.08"/>
<polygon fill="midnightblue" stroke="midnightblue" points="336.08,-21.53 345.59,-16.85 335.24,-14.58 336.08,-21.53"/>
</g>
<!-- Node4&#45;&gt;Node3 -->
<g id="edge4" class="edge">
<title>Node4&#45;&gt;Node3</title>
<path fill="none" stroke="midnightblue" d="M460.06,-17.35C468.54,-18.46 477.33,-19.61 485.95,-20.74"/>
<polygon fill="midnightblue" stroke="midnightblue" points="485.57,-24.22 495.94,-22.05 486.48,-17.28 485.57,-24.22"/>
</g>
</g>
</svg>
