<?xml version="1.0" encoding="UTF-8" standalone="no"?>
<!DOCTYPE svg PUBLIC "-//W3C//DTD SVG 1.1//EN"
 "http://www.w3.org/Graphics/SVG/1.1/DTD/svg11.dtd">
<!-- Generated by graphviz version 2.43.0 (0)
 -->
<!-- Title: leanux::util::NumStr Pages: 1 -->
<svg width="568pt" height="651pt"
 viewBox="0.00 0.00 568.00 651.00" xmlns="http://www.w3.org/2000/svg" xmlns:xlink="http://www.w3.org/1999/xlink">
<g id="graph0" class="graph" transform="scale(1 1) rotate(0) translate(4 647)">
<title>leanux::util::NumStr</title>
<!-- Node1 -->
<g id="node1" class="node">
<title>Node1</title>
<g id="a_node1"><a xlink:title="Convert a double (real number) to a pretty print string.">
<polygon fill="#bfbfbf" stroke="black" points="446,-241 446,-260 560,-260 560,-241 446,-241"/>
<text text-anchor="middle" x="503" y="-248" font-family="Helvetica,sans-Serif" font-size="10.00">leanux::util::NumStr</text>
</a>
</g>
</g>
<!-- Node2 -->
<g id="node2" class="node">
<title>Node2</title>
<g id="a_node2"><a xlink:href="../../d5/d1b/namespaceleanux_1_1tools_1_1lblk.html#ade16c362a9900ba9267433bf57da42ce" target="_top" xlink:title="Write disk details.">
<polygon fill="none" stroke="black" points="140,-103.5 140,-133.5 244,-133.5 244,-103.5 140,-103.5"/>
<text text-anchor="start" x="148" y="-121.5" font-family="Helvetica,sans-Serif" font-size="10.00">leanux::tools::lblk</text>
<text text-anchor="middle" x="192" y="-110.5" font-family="Helvetica,sans-Serif" font-size="10.00">::detailDisk</text>
</a>
</g>
</g>
<!-- Node1&#45;&gt;Node2 -->
<g id="edge1" class="edge">
<title>Node1&#45;&gt;Node2</title>
<path fill="none" stroke="midnightblue" d="M457.52,-238.14C395.06,-220.73 288.06,-190.61 280,-186.5 252.34,-172.38 224.85,-148.9 208.39,-133.56"/>
<polygon fill="midnightblue" stroke="midnightblue" points="456.94,-241.62 467.51,-240.93 458.81,-234.87 456.94,-241.62"/>
</g>
<!-- Node6 -->
<g id="node4" class="node">
<title>Node6</title>
<g id="a_node4"><a xlink:href="../../d6/dd3/namespaceleanux_1_1tools_1_1lrep.html#a8a9e58dc9034002621d2b57d4a51aad9" target="_top" xlink:title=" ">
<polygon fill="none" stroke="black" points="288.5,-590.5 288.5,-620.5 401.5,-620.5 401.5,-590.5 288.5,-590.5"/>
<text text-anchor="start" x="296.5" y="-608.5" font-family="Helvetica,sans-Serif" font-size="10.00">leanux::tools::lrep</text>
<text text-anchor="middle" x="345" y="-597.5" font-family="Helvetica,sans-Serif" font-size="10.00">::htmlCmdUidDetail</text>
</a>
</g>
</g>
<!-- Node1&#45;&gt;Node6 -->
<g id="edge3" class="edge">
<title>Node1&#45;&gt;Node6</title>
<path fill="none" stroke="midnightblue" d="M500.52,-270.21C495.76,-322.18 476.98,-465.38 410,-559.5 400.96,-572.21 387.27,-582.72 374.88,-590.47"/>
<polygon fill="midnightblue" stroke="midnightblue" points="504.02,-270.3 501.38,-260.05 497.05,-269.72 504.02,-270.3"/>
</g>
<!-- Node10 -->
<g id="node7" class="node">
<title>Node10</title>
<g id="a_node7"><a xlink:href="../../d6/dd3/namespaceleanux_1_1tools_1_1lrep.html#ab9b4bc8a1806ab977597271e15f34c11" target="_top" xlink:title=" ">
<polygon fill="none" stroke="black" points="293,-519.5 293,-549.5 397,-549.5 397,-519.5 293,-519.5"/>
<text text-anchor="start" x="301" y="-537.5" font-family="Helvetica,sans-Serif" font-size="10.00">leanux::tools::lrep</text>
<text text-anchor="middle" x="345" y="-526.5" font-family="Helvetica,sans-Serif" font-size="10.00">::htmlDiskDetails</text>
</a>
</g>
</g>
<!-- Node1&#45;&gt;Node10 -->
<g id="edge6" class="edge">
<title>Node1&#45;&gt;Node10</title>
<path fill="none" stroke="midnightblue" d="M496.34,-269.75C484.29,-308.9 453.62,-399.76 410,-466.5 396.78,-486.72 377.27,-506.44 363.27,-519.39"/>
<polygon fill="midnightblue" stroke="midnightblue" points="499.7,-270.72 499.24,-260.14 493,-268.7 499.7,-270.72"/>
</g>
<!-- Node11 -->
<g id="node8" class="node">
<title>Node11</title>
<g id="a_node8"><a xlink:href="../../d6/dd3/namespaceleanux_1_1tools_1_1lrep.html#a7f55650d424d783739d0d208601a007e" target="_top" xlink:title=" ">
<polygon fill="none" stroke="black" points="293,-426.5 293,-456.5 397,-456.5 397,-426.5 293,-426.5"/>
<text text-anchor="start" x="301" y="-444.5" font-family="Helvetica,sans-Serif" font-size="10.00">leanux::tools::lrep</text>
<text text-anchor="middle" x="345" y="-433.5" font-family="Helvetica,sans-Serif" font-size="10.00">::htmlHeatMap</text>
</a>
</g>
</g>
<!-- Node1&#45;&gt;Node11 -->
<g id="edge8" class="edge">
<title>Node1&#45;&gt;Node11</title>
<path fill="none" stroke="midnightblue" d="M487.53,-268.22C457.04,-305.54 386.69,-391.68 358.26,-426.5"/>
<polygon fill="midnightblue" stroke="midnightblue" points="490.43,-270.19 494.05,-260.23 485.01,-265.77 490.43,-270.19"/>
</g>
<!-- Node17 -->
<g id="node13" class="node">
<title>Node17</title>
<g id="a_node13"><a xlink:href="../../d5/d1b/namespaceleanux_1_1tools_1_1lblk.html#a73d92bf0717d3dece131f9cf718de164" target="_top" xlink:title="Table listing all disks.">
<polygon fill="none" stroke="black" points="140,-328.5 140,-358.5 244,-358.5 244,-328.5 140,-328.5"/>
<text text-anchor="start" x="148" y="-346.5" font-family="Helvetica,sans-Serif" font-size="10.00">leanux::tools::lblk</text>
<text text-anchor="middle" x="192" y="-335.5" font-family="Helvetica,sans-Serif" font-size="10.00">::listAllDisks</text>
</a>
</g>
</g>
<!-- Node1&#45;&gt;Node17 -->
<g id="edge13" class="edge">
<title>Node1&#45;&gt;Node17</title>
<path fill="none" stroke="midnightblue" d="M486.62,-267.5C469.72,-284.91 440.85,-311.13 410,-323.5 356.27,-345.04 289.26,-347.98 244.02,-346.85"/>
<polygon fill="midnightblue" stroke="midnightblue" points="489.19,-269.87 493.51,-260.2 484.1,-265.07 489.19,-269.87"/>
</g>
<!-- Node18 -->
<g id="node14" class="node">
<title>Node18</title>
<g id="a_node14"><a xlink:href="../../d5/d1b/namespaceleanux_1_1tools_1_1lblk.html#a0ce6fe01f37dc9d73d699030825432be" target="_top" xlink:title="Write the tree of holders above and including mm, append to tab, starting with level.">
<polygon fill="none" stroke="black" points="293,-284.5 293,-314.5 397,-314.5 397,-284.5 293,-284.5"/>
<text text-anchor="start" x="301" y="-302.5" font-family="Helvetica,sans-Serif" font-size="10.00">leanux::tools::lblk</text>
<text text-anchor="middle" x="345" y="-291.5" font-family="Helvetica,sans-Serif" font-size="10.00">::printHolderTree</text>
</a>
</g>
</g>
<!-- Node1&#45;&gt;Node18 -->
<g id="edge15" class="edge">
<title>Node1&#45;&gt;Node18</title>
<path fill="none" stroke="midnightblue" d="M461.79,-263.13C441.05,-269.64 415.62,-277.63 393.87,-284.46"/>
<polygon fill="midnightblue" stroke="midnightblue" points="463.06,-266.4 471.55,-260.06 460.96,-259.72 463.06,-266.4"/>
</g>
<!-- Node20 -->
<g id="node16" class="node">
<title>Node20</title>
<g id="a_node16"><a xlink:href="../../d5/d1b/namespaceleanux_1_1tools_1_1lblk.html#a514a93d2172ba20b92f77ba1062d822c" target="_top" xlink:title="Write the tree of slaves beneath and including mm, append to tab, starting with level.">
<polygon fill="none" stroke="black" points="293,-235.5 293,-265.5 397,-265.5 397,-235.5 293,-235.5"/>
<text text-anchor="start" x="301" y="-253.5" font-family="Helvetica,sans-Serif" font-size="10.00">leanux::tools::lblk</text>
<text text-anchor="middle" x="345" y="-242.5" font-family="Helvetica,sans-Serif" font-size="10.00">::printSlaveTree</text>
</a>
</g>
</g>
<!-- Node1&#45;&gt;Node20 -->
<g id="edge19" class="edge">
<title>Node1&#45;&gt;Node20</title>
<path fill="none" stroke="midnightblue" d="M435.48,-250.5C422.62,-250.5 409.33,-250.5 397.05,-250.5"/>
<polygon fill="midnightblue" stroke="midnightblue" points="435.68,-254 445.68,-250.5 435.68,-247 435.68,-254"/>
</g>
<!-- Node22 -->
<g id="node18" class="node">
<title>Node22</title>
<g id="a_node18"><a xlink:href="../../da/d9f/classleanux_1_1tools_1_1lmon_1_1SysView.html#ad72b5ee6be63091f3d320a23721d5cb4" target="_top" xlink:title="refresh (redraw) the View.">
<polygon fill="none" stroke="black" points="290,-147.5 290,-177.5 400,-177.5 400,-147.5 290,-147.5"/>
<text text-anchor="start" x="298" y="-165.5" font-family="Helvetica,sans-Serif" font-size="10.00">leanux::tools::lmon</text>
<text text-anchor="middle" x="345" y="-154.5" font-family="Helvetica,sans-Serif" font-size="10.00">::SysView::xrefresh</text>
</a>
</g>
</g>
<!-- Node1&#45;&gt;Node22 -->
<g id="edge24" class="edge">
<title>Node1&#45;&gt;Node22</title>
<path fill="none" stroke="midnightblue" d="M479.46,-235.19C461.12,-223 434.38,-205.83 410,-192.5 400.53,-187.32 390,-182.15 380.27,-177.61"/>
<polygon fill="midnightblue" stroke="midnightblue" points="477.73,-238.24 487.99,-240.9 481.63,-232.42 477.73,-238.24"/>
</g>
<!-- Node23 -->
<g id="node19" class="node">
<title>Node23</title>
<g id="a_node19"><a xlink:href="../../d8/d7f/classleanux_1_1tools_1_1lmon_1_1IOView.html#ad5d8db29927cc18e861cfa5ba48ecd94" target="_top" xlink:title="refresh (redraw) the View.">
<polygon fill="none" stroke="black" points="290,-98.5 290,-128.5 400,-128.5 400,-98.5 290,-98.5"/>
<text text-anchor="start" x="298" y="-116.5" font-family="Helvetica,sans-Serif" font-size="10.00">leanux::tools::lmon</text>
<text text-anchor="middle" x="345" y="-105.5" font-family="Helvetica,sans-Serif" font-size="10.00">::IOView::xrefresh</text>
</a>
</g>
</g>
<!-- Node1&#45;&gt;Node23 -->
<g id="edge25" class="edge">
<title>Node1&#45;&gt;Node23</title>
<path fill="none" stroke="midnightblue" d="M491.4,-232.14C476.27,-207.43 446.27,-163.57 410,-137.5 405.28,-134.11 400.02,-131.13 394.6,-128.54"/>
<polygon fill="midnightblue" stroke="midnightblue" points="488.49,-234.09 496.62,-240.88 494.5,-230.5 488.49,-234.09"/>
</g>
<!-- Node24 -->
<g id="node20" class="node">
<title>Node24</title>
<g id="a_node20"><a xlink:href="../../d6/d0a/classleanux_1_1tools_1_1lmon_1_1ProcessView.html#af3566e8ec176744fcd254c558de68eed" target="_top" xlink:title="Refresh/redraw the ProcessView.">
<polygon fill="none" stroke="black" points="280,-49.5 280,-79.5 410,-79.5 410,-49.5 280,-49.5"/>
<text text-anchor="start" x="288" y="-67.5" font-family="Helvetica,sans-Serif" font-size="10.00">leanux::tools::lmon</text>
<text text-anchor="middle" x="345" y="-56.5" font-family="Helvetica,sans-Serif" font-size="10.00">::ProcessView::xrefresh</text>
</a>
</g>
</g>
<!-- Node1&#45;&gt;Node24 -->
<g id="edge26" class="edge">
<title>Node1&#45;&gt;Node24</title>
<path fill="none" stroke="midnightblue" d="M496.04,-231.44C484.63,-197.93 456.62,-128.29 410,-88.5 406.03,-85.11 401.53,-82.18 396.81,-79.64"/>
<polygon fill="midnightblue" stroke="midnightblue" points="492.72,-232.55 499.16,-240.96 499.37,-230.37 492.72,-232.55"/>
</g>
<!-- Node25 -->
<g id="node21" class="node">
<title>Node25</title>
<g id="a_node21"><a xlink:href="../../df/dcc/classleanux_1_1tools_1_1lmon_1_1NetView.html#a0e5c6aa931081924ece2bd2407dfc000" target="_top" xlink:title="Refresh/redraw the ProcessView.">
<polygon fill="none" stroke="black" points="290,-0.5 290,-30.5 400,-30.5 400,-0.5 290,-0.5"/>
<text text-anchor="start" x="298" y="-18.5" font-family="Helvetica,sans-Serif" font-size="10.00">leanux::tools::lmon</text>
<text text-anchor="middle" x="345" y="-7.5" font-family="Helvetica,sans-Serif" font-size="10.00">::NetView::xrefresh</text>
</a>
</g>
</g>
<!-- Node1&#45;&gt;Node25 -->
<g id="edge27" class="edge">
<title>Node1&#45;&gt;Node25</title>
<path fill="none" stroke="midnightblue" d="M498.69,-230.64C490.79,-189.37 467.09,-93.68 410,-39.5 406.38,-36.07 402.23,-33.12 397.82,-30.58"/>
<polygon fill="midnightblue" stroke="midnightblue" points="495.25,-231.33 500.47,-240.55 502.14,-230.09 495.25,-231.33"/>
</g>
<!-- Node3 -->
<g id="node3" class="node">
<title>Node3</title>
<g id="a_node3"><a xlink:href="../../d5/d1b/namespaceleanux_1_1tools_1_1lblk.html#aafee1346a1081bfa4f7470f921cd66b8" target="_top" xlink:title="Direct output run from options.">
<polygon fill="none" stroke="red" points="0,-216.5 0,-246.5 104,-246.5 104,-216.5 0,-216.5"/>
<text text-anchor="start" x="8" y="-234.5" font-family="Helvetica,sans-Serif" font-size="10.00">leanux::tools::lblk</text>
<text text-anchor="middle" x="52" y="-223.5" font-family="Helvetica,sans-Serif" font-size="10.00">::runOptions</text>
</a>
</g>
</g>
<!-- Node2&#45;&gt;Node3 -->
<g id="edge2" class="edge">
<title>Node2&#45;&gt;Node3</title>
<path fill="none" stroke="midnightblue" d="M154.05,-138.86C149.21,-141.92 144.41,-145.17 140,-148.5 112.01,-169.63 83.29,-198.78 66.85,-216.31"/>
<polygon fill="midnightblue" stroke="midnightblue" points="156.01,-141.77 162.73,-133.57 152.36,-135.79 156.01,-141.77"/>
</g>
<!-- Node7 -->
<g id="node5" class="node">
<title>Node7</title>
<g id="a_node5"><a xlink:href="../../d6/dd3/namespaceleanux_1_1tools_1_1lrep.html#a62c03f9d98087191a6d6473c7384fa74" target="_top" xlink:title=" ">
<polygon fill="none" stroke="black" points="140,-612.5 140,-642.5 244,-642.5 244,-612.5 140,-612.5"/>
<text text-anchor="start" x="148" y="-630.5" font-family="Helvetica,sans-Serif" font-size="10.00">leanux::tools::lrep</text>
<text text-anchor="middle" x="192" y="-619.5" font-family="Helvetica,sans-Serif" font-size="10.00">::htmlCmdDetails</text>
</a>
</g>
</g>
<!-- Node6&#45;&gt;Node7 -->
<g id="edge4" class="edge">
<title>Node6&#45;&gt;Node7</title>
<path fill="none" stroke="midnightblue" d="M278.25,-615.08C266.8,-616.75 255.05,-618.46 244.07,-620.06"/>
<polygon fill="midnightblue" stroke="midnightblue" points="278.81,-618.53 288.2,-613.63 277.8,-611.61 278.81,-618.53"/>
</g>
<!-- Node8 -->
<g id="node6" class="node">
<title>Node8</title>
<g id="a_node6"><a xlink:href="../../d6/dd3/namespaceleanux_1_1tools_1_1lrep.html#aa0e1422d8d75831ea3801ffa728bf436" target="_top" xlink:title=" ">
<polygon fill="none" stroke="red" points="0,-590.5 0,-620.5 104,-620.5 104,-590.5 0,-590.5"/>
<text text-anchor="start" x="8" y="-608.5" font-family="Helvetica,sans-Serif" font-size="10.00">leanux::tools::lrep</text>
<text text-anchor="middle" x="52" y="-597.5" font-family="Helvetica,sans-Serif" font-size="10.00">::main</text>
</a>
</g>
</g>
<!-- Node7&#45;&gt;Node8 -->
<g id="edge5" class="edge">
<title>Node7&#45;&gt;Node8</title>
<path fill="none" stroke="midnightblue" d="M129.5,-617.7C121.13,-616.36 112.6,-615 104.43,-613.7"/>
<polygon fill="midnightblue" stroke="midnightblue" points="129.19,-621.19 139.61,-619.31 130.29,-614.28 129.19,-621.19"/>
</g>
<!-- Node10&#45;&gt;Node8 -->
<g id="edge7" class="edge">
<title>Node10&#45;&gt;Node8</title>
<path fill="none" stroke="midnightblue" d="M286.72,-552.54C272.8,-556.69 257.91,-560.93 244,-564.5 197.03,-576.57 142.93,-587.95 104.33,-595.64"/>
<polygon fill="midnightblue" stroke="midnightblue" points="288.09,-555.78 296.66,-549.55 286.07,-549.08 288.09,-555.78"/>
</g>
<!-- Node12 -->
<g id="node9" class="node">
<title>Node12</title>
<g id="a_node9"><a xlink:href="../../d6/dd3/namespaceleanux_1_1tools_1_1lrep.html#a2098b7d6c8b5a08a4f392f8510df8e91" target="_top" xlink:title=" ">
<polygon fill="none" stroke="red" points="140,-524.5 140,-554.5 244,-554.5 244,-524.5 140,-524.5"/>
<text text-anchor="start" x="148" y="-542.5" font-family="Helvetica,sans-Serif" font-size="10.00">leanux::tools::lrep</text>
<text text-anchor="middle" x="192" y="-531.5" font-family="Helvetica,sans-Serif" font-size="10.00">::CPUHeatMap</text>
</a>
</g>
</g>
<!-- Node11&#45;&gt;Node12 -->
<g id="edge9" class="edge">
<title>Node11&#45;&gt;Node12</title>
<path fill="none" stroke="midnightblue" d="M318.09,-462.89C298.46,-478.54 270.44,-499.7 244,-515.5 238.79,-518.61 233.11,-521.62 227.5,-524.4"/>
<polygon fill="midnightblue" stroke="midnightblue" points="320.37,-465.55 325.96,-456.55 315.98,-460.1 320.37,-465.55"/>
</g>
<!-- Node14 -->
<g id="node10" class="node">
<title>Node14</title>
<g id="a_node10"><a xlink:href="../../d6/dd3/namespaceleanux_1_1tools_1_1lrep.html#abbb333976f55d722d27af8dad0ba6ff1" target="_top" xlink:title=" ">
<polygon fill="none" stroke="red" points="140,-475.5 140,-505.5 244,-505.5 244,-475.5 140,-475.5"/>
<text text-anchor="start" x="148" y="-493.5" font-family="Helvetica,sans-Serif" font-size="10.00">leanux::tools::lrep</text>
<text text-anchor="middle" x="192" y="-482.5" font-family="Helvetica,sans-Serif" font-size="10.00">::DiskHeatMap</text>
</a>
</g>
</g>
<!-- Node11&#45;&gt;Node14 -->
<g id="edge10" class="edge">
<title>Node11&#45;&gt;Node14</title>
<path fill="none" stroke="midnightblue" d="M287.73,-459.76C271.81,-464.93 254.66,-470.49 239.38,-475.45"/>
<polygon fill="midnightblue" stroke="midnightblue" points="289.03,-463.02 297.46,-456.6 286.87,-456.36 289.03,-463.02"/>
</g>
<!-- Node15 -->
<g id="node11" class="node">
<title>Node15</title>
<g id="a_node11"><a xlink:href="../../d6/dd3/namespaceleanux_1_1tools_1_1lrep.html#acfb722a2139dd3ac2c083f88cfb90831" target="_top" xlink:title=" ">
<polygon fill="none" stroke="red" points="140,-426.5 140,-456.5 244,-456.5 244,-426.5 140,-426.5"/>
<text text-anchor="start" x="148" y="-444.5" font-family="Helvetica,sans-Serif" font-size="10.00">leanux::tools::lrep</text>
<text text-anchor="middle" x="192" y="-433.5" font-family="Helvetica,sans-Serif" font-size="10.00">::load5HeatMap</text>
</a>
</g>
</g>
<!-- Node11&#45;&gt;Node15 -->
<g id="edge11" class="edge">
<title>Node11&#45;&gt;Node15</title>
<path fill="none" stroke="midnightblue" d="M282.73,-441.5C269.9,-441.5 256.49,-441.5 244.07,-441.5"/>
<polygon fill="midnightblue" stroke="midnightblue" points="282.88,-445 292.88,-441.5 282.88,-438 282.88,-445"/>
</g>
<!-- Node16 -->
<g id="node12" class="node">
<title>Node16</title>
<g id="a_node12"><a xlink:href="../../d6/dd3/namespaceleanux_1_1tools_1_1lrep.html#a75cd64e14d85060e8dc784918f43fbd7" target="_top" xlink:title=" ">
<polygon fill="none" stroke="red" points="140,-377.5 140,-407.5 244,-407.5 244,-377.5 140,-377.5"/>
<text text-anchor="start" x="148" y="-395.5" font-family="Helvetica,sans-Serif" font-size="10.00">leanux::tools::lrep</text>
<text text-anchor="middle" x="192" y="-384.5" font-family="Helvetica,sans-Serif" font-size="10.00">::NetPktHeatMap</text>
</a>
</g>
</g>
<!-- Node11&#45;&gt;Node16 -->
<g id="edge12" class="edge">
<title>Node11&#45;&gt;Node16</title>
<path fill="none" stroke="midnightblue" d="M287.73,-423.24C271.81,-418.07 254.66,-412.51 239.38,-407.55"/>
<polygon fill="midnightblue" stroke="midnightblue" points="286.87,-426.64 297.46,-426.4 289.03,-419.98 286.87,-426.64"/>
</g>
<!-- Node17&#45;&gt;Node3 -->
<g id="edge14" class="edge">
<title>Node17&#45;&gt;Node3</title>
<path fill="none" stroke="midnightblue" d="M154.07,-323.12C149.23,-320.06 144.42,-316.81 140,-313.5 112.28,-292.7 83.7,-264.14 67.18,-246.8"/>
<polygon fill="midnightblue" stroke="midnightblue" points="152.39,-326.19 162.75,-328.4 156.02,-320.21 152.39,-326.19"/>
</g>
<!-- Node18&#45;&gt;Node3 -->
<g id="edge18" class="edge">
<title>Node18&#45;&gt;Node3</title>
<path fill="none" stroke="midnightblue" d="M282.83,-299.92C241.63,-298.66 186.53,-293.94 140,-279.5 116.11,-272.09 91.37,-257.67 74.41,-246.56"/>
<polygon fill="midnightblue" stroke="midnightblue" points="282.91,-303.42 292.99,-300.17 283.08,-296.42 282.91,-303.42"/>
</g>
<!-- Node19 -->
<g id="node15" class="node">
<title>Node19</title>
<g id="a_node15"><a xlink:href="../../d5/d1b/namespaceleanux_1_1tools_1_1lblk.html#a3ad2e43162ca1213c491e96d5d2a5a9c" target="_top" xlink:title="Table listing LVM devices.">
<polygon fill="none" stroke="black" points="140,-240.5 140,-270.5 244,-270.5 244,-240.5 140,-240.5"/>
<text text-anchor="start" x="148" y="-258.5" font-family="Helvetica,sans-Serif" font-size="10.00">leanux::tools::lblk</text>
<text text-anchor="middle" x="192" y="-247.5" font-family="Helvetica,sans-Serif" font-size="10.00">::listLVM</text>
</a>
</g>
</g>
<!-- Node18&#45;&gt;Node19 -->
<g id="edge16" class="edge">
<title>Node18&#45;&gt;Node19</title>
<path fill="none" stroke="midnightblue" d="M283.12,-281.76C270.16,-277.98 256.61,-274.04 244.07,-270.38"/>
<polygon fill="midnightblue" stroke="midnightblue" points="282.3,-285.17 292.88,-284.6 284.26,-278.45 282.3,-285.17"/>
</g>
<!-- Node19&#45;&gt;Node3 -->
<g id="edge17" class="edge">
<title>Node19&#45;&gt;Node3</title>
<path fill="none" stroke="midnightblue" d="M129.5,-244.81C121.13,-243.35 112.6,-241.87 104.43,-240.44"/>
<polygon fill="midnightblue" stroke="midnightblue" points="129.16,-248.3 139.61,-246.56 130.36,-241.4 129.16,-248.3"/>
</g>
<!-- Node20&#45;&gt;Node3 -->
<g id="edge23" class="edge">
<title>Node20&#45;&gt;Node3</title>
<path fill="none" stroke="midnightblue" d="M296.39,-230.74C290.67,-227.64 285.07,-224.21 280,-220.5 260.97,-206.57 265.61,-190.96 244,-181.5 201.66,-162.96 184.66,-169.58 140,-181.5 114.75,-188.24 89.22,-204.25 72.41,-216.35"/>
<polygon fill="midnightblue" stroke="midnightblue" points="294.91,-233.92 305.41,-235.36 298.1,-227.69 294.91,-233.92"/>
</g>
<!-- Node20&#45;&gt;Node19 -->
<g id="edge22" class="edge">
<title>Node20&#45;&gt;Node19</title>
<path fill="none" stroke="midnightblue" d="M282.73,-252.53C269.9,-252.95 256.49,-253.4 244.07,-253.81"/>
<polygon fill="midnightblue" stroke="midnightblue" points="283,-256.02 292.88,-252.19 282.77,-249.03 283,-256.02"/>
</g>
<!-- Node21 -->
<g id="node17" class="node">
<title>Node21</title>
<g id="a_node17"><a xlink:href="../../d5/d1b/namespaceleanux_1_1tools_1_1lblk.html#ae7d5c6185a714de483a152b1846eadcb" target="_top" xlink:title="Table listing all storage needed for the filesystem containing file.">
<polygon fill="none" stroke="black" points="140,-191.5 140,-221.5 244,-221.5 244,-191.5 140,-191.5"/>
<text text-anchor="start" x="148" y="-209.5" font-family="Helvetica,sans-Serif" font-size="10.00">leanux::tools::lblk</text>
<text text-anchor="middle" x="192" y="-198.5" font-family="Helvetica,sans-Serif" font-size="10.00">::listFile</text>
</a>
</g>
</g>
<!-- Node20&#45;&gt;Node21 -->
<g id="edge20" class="edge">
<title>Node20&#45;&gt;Node21</title>
<path fill="none" stroke="midnightblue" d="M283.12,-232.76C270.16,-228.98 256.61,-225.04 244.07,-221.38"/>
<polygon fill="midnightblue" stroke="midnightblue" points="282.3,-236.17 292.88,-235.6 284.26,-229.45 282.3,-236.17"/>
</g>
<!-- Node21&#45;&gt;Node3 -->
<g id="edge21" class="edge">
<title>Node21&#45;&gt;Node3</title>
<path fill="none" stroke="midnightblue" d="M129.5,-217.64C121.13,-219.16 112.6,-220.7 104.43,-222.18"/>
<polygon fill="midnightblue" stroke="midnightblue" points="130.4,-221.04 139.61,-215.81 129.15,-214.15 130.4,-221.04"/>
</g>
</g>
</svg>
