<?xml version="1.0" encoding="UTF-8" standalone="no"?>
<!DOCTYPE svg PUBLIC "-//W3C//DTD SVG 1.1//EN"
 "http://www.w3.org/Graphics/SVG/1.1/DTD/svg11.dtd">
<!-- Generated by graphviz version 2.43.0 (0)
 -->
<!-- Title: leanux::util::findDir Pages: 1 -->
<svg width="517pt" height="284pt"
 viewBox="0.00 0.00 517.00 284.00" xmlns="http://www.w3.org/2000/svg" xmlns:xlink="http://www.w3.org/1999/xlink">
<g id="graph0" class="graph" transform="scale(1 1) rotate(0) translate(4 280)">
<title>leanux::util::findDir</title>
<!-- Node1 -->
<g id="node1" class="node">
<title>Node1</title>
<g id="a_node1"><a xlink:title="Find subdirectories, first match is returned, if any.">
<polygon fill="#bfbfbf" stroke="black" points="399,-128 399,-147 509,-147 509,-128 399,-128"/>
<text text-anchor="middle" x="454" y="-135" font-family="Helvetica,sans-Serif" font-size="10.00">leanux::util::findDir</text>
</a>
</g>
</g>
<!-- Node2 -->
<g id="node2" class="node">
<title>Node2</title>
<g id="a_node2"><a xlink:href="../../d5/d01/namespaceleanux_1_1block.html#a2fd6c671acf6577de8e98ae661e6894d" target="_top" xlink:title="Get the ATA port link.">
<polygon fill="none" stroke="black" points="199.5,-199 199.5,-218 360.5,-218 360.5,-199 199.5,-199"/>
<text text-anchor="middle" x="280" y="-206" font-family="Helvetica,sans-Serif" font-size="10.00">leanux::block::getATAPortLink</text>
</a>
</g>
</g>
<!-- Node1&#45;&gt;Node2 -->
<g id="edge1" class="edge">
<title>Node1&#45;&gt;Node2</title>
<path fill="none" stroke="midnightblue" d="M430.09,-152.39C412.37,-163.37 386.9,-177.98 363,-187.5 351.53,-192.07 338.76,-195.9 326.78,-198.98"/>
<polygon fill="midnightblue" stroke="midnightblue" points="432.01,-155.32 438.61,-147.03 428.28,-149.4 432.01,-155.32"/>
</g>
<!-- Node10 -->
<g id="node6" class="node">
<title>Node10</title>
<g id="a_node6"><a xlink:href="../../d7/d28/classleanux_1_1block_1_1MajorMinor.html#a322147b2e87ccbb0b5ffa42b18d03b4e" target="_top" xlink:title="get the host:channel:target:lun addess for the device.">
<polygon fill="none" stroke="black" points="208.5,-49.5 208.5,-79.5 351.5,-79.5 351.5,-49.5 208.5,-49.5"/>
<text text-anchor="start" x="216.5" y="-67.5" font-family="Helvetica,sans-Serif" font-size="10.00">leanux::block::MajorMinor</text>
<text text-anchor="middle" x="280" y="-56.5" font-family="Helvetica,sans-Serif" font-size="10.00">::getSCSIHCTL</text>
</a>
</g>
</g>
<!-- Node1&#45;&gt;Node10 -->
<g id="edge5" class="edge">
<title>Node1&#45;&gt;Node10</title>
<path fill="none" stroke="midnightblue" d="M428.12,-122.54C410.4,-112.31 385.77,-98.94 363,-89.5 354.34,-85.91 344.97,-82.57 335.78,-79.58"/>
<polygon fill="midnightblue" stroke="midnightblue" points="426.8,-125.83 437.2,-127.86 430.34,-119.78 426.8,-125.83"/>
</g>
<!-- Node17 -->
<g id="node9" class="node">
<title>Node17</title>
<g id="a_node9"><a xlink:href="../../df/db8/classleanux_1_1sysdevice_1_1iSCSIDevice.html#ac27f2f46cf0bc8ae4f42a2186b6a24fb" target="_top" xlink:title=" ">
<polygon fill="none" stroke="black" points="197,-147.5 197,-177.5 363,-177.5 363,-147.5 197,-147.5"/>
<text text-anchor="start" x="205" y="-165.5" font-family="Helvetica,sans-Serif" font-size="10.00">leanux::sysdevice::</text>
<text text-anchor="middle" x="280" y="-154.5" font-family="Helvetica,sans-Serif" font-size="10.00">iSCSIDevice::getTargetAddress</text>
</a>
</g>
</g>
<!-- Node1&#45;&gt;Node17 -->
<g id="edge8" class="edge">
<title>Node1&#45;&gt;Node17</title>
<path fill="none" stroke="midnightblue" d="M388.57,-146.86C380.24,-148.08 371.61,-149.33 363.03,-150.58"/>
<polygon fill="midnightblue" stroke="midnightblue" points="389.19,-150.31 398.58,-145.41 388.18,-143.39 389.19,-150.31"/>
</g>
<!-- Node19 -->
<g id="node11" class="node">
<title>Node19</title>
<g id="a_node11"><a xlink:href="../../df/db8/classleanux_1_1sysdevice_1_1iSCSIDevice.html#ac3de0ea047730902b7044e567aaa90cd" target="_top" xlink:title=" ">
<polygon fill="none" stroke="black" points="207,-98.5 207,-128.5 353,-128.5 353,-98.5 207,-98.5"/>
<text text-anchor="start" x="215" y="-116.5" font-family="Helvetica,sans-Serif" font-size="10.00">leanux::sysdevice::</text>
<text text-anchor="middle" x="280" y="-105.5" font-family="Helvetica,sans-Serif" font-size="10.00">iSCSIDevice::getTargetPort</text>
</a>
</g>
</g>
<!-- Node1&#45;&gt;Node19 -->
<g id="edge11" class="edge">
<title>Node1&#45;&gt;Node19</title>
<path fill="none" stroke="midnightblue" d="M388.55,-128.51C376.96,-126.89 364.8,-125.19 353.01,-123.55"/>
<polygon fill="midnightblue" stroke="midnightblue" points="388.19,-131.99 398.58,-129.91 389.16,-125.06 388.19,-131.99"/>
</g>
<!-- Node3 -->
<g id="node3" class="node">
<title>Node3</title>
<g id="a_node3"><a xlink:href="../../d1/d9d/classleanux_1_1sysdevice_1_1ATAPort.html#aa4999781a141405074f4f7aecb1a5702" target="_top" xlink:title="Get a human readable description of this SysDevice.">
<polygon fill="none" stroke="black" points="15,-245.5 15,-275.5 146,-275.5 146,-245.5 15,-245.5"/>
<text text-anchor="start" x="23" y="-263.5" font-family="Helvetica,sans-Serif" font-size="10.00">leanux::sysdevice::</text>
<text text-anchor="middle" x="80.5" y="-252.5" font-family="Helvetica,sans-Serif" font-size="10.00">ATAPort::getDescription</text>
</a>
</g>
</g>
<!-- Node2&#45;&gt;Node3 -->
<g id="edge2" class="edge">
<title>Node2&#45;&gt;Node3</title>
<path fill="none" stroke="midnightblue" d="M232.82,-220.66C204.76,-228.05 168.7,-237.54 138.82,-245.41"/>
<polygon fill="midnightblue" stroke="midnightblue" points="234,-223.97 242.78,-218.04 232.21,-217.2 234,-223.97"/>
</g>
<!-- Node4 -->
<g id="node4" class="node">
<title>Node4</title>
<g id="a_node4"><a xlink:href="../../d9/d1f/namespaceleanux_1_1tools_1_1lsys.html#a4a56050ff78d8c77b6a699ff6d5aea50" target="_top" xlink:title="get named field attributes for the SysDevice.">
<polygon fill="none" stroke="red" points="28,-147.5 28,-177.5 133,-177.5 133,-147.5 28,-147.5"/>
<text text-anchor="start" x="36" y="-165.5" font-family="Helvetica,sans-Serif" font-size="10.00">leanux::tools::lsys</text>
<text text-anchor="middle" x="80.5" y="-154.5" font-family="Helvetica,sans-Serif" font-size="10.00">::getLeafColStr</text>
</a>
</g>
</g>
<!-- Node2&#45;&gt;Node4 -->
<g id="edge3" class="edge">
<title>Node2&#45;&gt;Node4</title>
<path fill="none" stroke="midnightblue" d="M228.11,-196.65C198.99,-189.87 162.56,-181.38 133.29,-174.56"/>
<polygon fill="midnightblue" stroke="midnightblue" points="227.54,-200.11 238.08,-198.97 229.13,-193.29 227.54,-200.11"/>
</g>
<!-- Node9 -->
<g id="node5" class="node">
<title>Node9</title>
<g id="a_node5"><a xlink:href="../../d1/d9d/classleanux_1_1sysdevice_1_1ATAPort.html#a726d252b0be10fe77bfd10bf12421ed3" target="_top" xlink:title=" ">
<polygon fill="none" stroke="black" points="0,-196.5 0,-226.5 161,-226.5 161,-196.5 0,-196.5"/>
<text text-anchor="start" x="8" y="-214.5" font-family="Helvetica,sans-Serif" font-size="10.00">leanux::sysdevice::</text>
<text text-anchor="middle" x="80.5" y="-203.5" font-family="Helvetica,sans-Serif" font-size="10.00">ATAPort::getPropertyValueList</text>
</a>
</g>
</g>
<!-- Node2&#45;&gt;Node9 -->
<g id="edge4" class="edge">
<title>Node2&#45;&gt;Node9</title>
<path fill="none" stroke="midnightblue" d="M189.18,-209.86C179.86,-210.01 170.44,-210.15 161.24,-210.29"/>
<polygon fill="midnightblue" stroke="midnightblue" points="189.29,-213.36 199.24,-209.71 189.19,-206.36 189.29,-213.36"/>
</g>
<!-- Node11 -->
<g id="node7" class="node">
<title>Node11</title>
<g id="a_node7"><a xlink:href="../../d7/d28/classleanux_1_1block_1_1MajorMinor.html#a45064f081756fce365d620aba5e73481" target="_top" xlink:title="get the SCSI disk caching mode (write back/write through).">
<polygon fill="none" stroke="black" points="9,-49.5 9,-79.5 152,-79.5 152,-49.5 9,-49.5"/>
<text text-anchor="start" x="17" y="-67.5" font-family="Helvetica,sans-Serif" font-size="10.00">leanux::block::MajorMinor</text>
<text text-anchor="middle" x="80.5" y="-56.5" font-family="Helvetica,sans-Serif" font-size="10.00">::getCacheMode</text>
</a>
</g>
</g>
<!-- Node10&#45;&gt;Node11 -->
<g id="edge6" class="edge">
<title>Node10&#45;&gt;Node11</title>
<path fill="none" stroke="midnightblue" d="M197.85,-64.5C182.67,-64.5 166.91,-64.5 152.08,-64.5"/>
<polygon fill="midnightblue" stroke="midnightblue" points="198.26,-68 208.26,-64.5 198.26,-61 198.26,-68"/>
</g>
<!-- Node12 -->
<g id="node8" class="node">
<title>Node12</title>
<g id="a_node8"><a xlink:href="../../d7/d28/classleanux_1_1block_1_1MajorMinor.html#a26a2363b1eea927b6ebb4aad44dea876" target="_top" xlink:title="Get a pretty&#45;print description for the device.">
<polygon fill="none" stroke="red" points="9,-0.5 9,-30.5 152,-30.5 152,-0.5 9,-0.5"/>
<text text-anchor="start" x="17" y="-18.5" font-family="Helvetica,sans-Serif" font-size="10.00">leanux::block::MajorMinor</text>
<text text-anchor="middle" x="80.5" y="-7.5" font-family="Helvetica,sans-Serif" font-size="10.00">::getDescription</text>
</a>
</g>
</g>
<!-- Node10&#45;&gt;Node12 -->
<g id="edge7" class="edge">
<title>Node10&#45;&gt;Node12</title>
<path fill="none" stroke="midnightblue" d="M208.56,-47.02C186.79,-41.62 163.02,-35.72 141.98,-30.51"/>
<polygon fill="midnightblue" stroke="midnightblue" points="207.85,-50.45 218.4,-49.47 209.54,-43.66 207.85,-50.45"/>
</g>
<!-- Node17&#45;&gt;Node4 -->
<g id="edge10" class="edge">
<title>Node17&#45;&gt;Node4</title>
<path fill="none" stroke="midnightblue" d="M186.76,-162.5C168.32,-162.5 149.57,-162.5 133.1,-162.5"/>
<polygon fill="midnightblue" stroke="midnightblue" points="186.96,-166 196.96,-162.5 186.96,-159 186.96,-166"/>
</g>
<!-- Node18 -->
<g id="node10" class="node">
<title>Node18</title>
<g id="a_node10"><a xlink:href="../../df/db8/classleanux_1_1sysdevice_1_1iSCSIDevice.html#a2f46ff48d80ee056fa13e72e9d791c82" target="_top" xlink:title="Get a human readable description of this SysDevice.">
<polygon fill="none" stroke="black" points="4.5,-98.5 4.5,-128.5 156.5,-128.5 156.5,-98.5 4.5,-98.5"/>
<text text-anchor="start" x="12.5" y="-116.5" font-family="Helvetica,sans-Serif" font-size="10.00">leanux::sysdevice::</text>
<text text-anchor="middle" x="80.5" y="-105.5" font-family="Helvetica,sans-Serif" font-size="10.00">iSCSIDevice::getDescription</text>
</a>
</g>
</g>
<!-- Node17&#45;&gt;Node18 -->
<g id="edge9" class="edge">
<title>Node17&#45;&gt;Node18</title>
<path fill="none" stroke="midnightblue" d="M208.56,-145.02C186.79,-139.62 163.02,-133.72 141.98,-128.51"/>
<polygon fill="midnightblue" stroke="midnightblue" points="207.85,-148.45 218.4,-147.47 209.54,-141.66 207.85,-148.45"/>
</g>
<!-- Node19&#45;&gt;Node4 -->
<g id="edge13" class="edge">
<title>Node19&#45;&gt;Node4</title>
<path fill="none" stroke="midnightblue" d="M208.66,-130.95C183.82,-137.12 156.35,-143.93 133.32,-149.64"/>
<polygon fill="midnightblue" stroke="midnightblue" points="209.54,-134.34 218.4,-128.53 207.85,-127.55 209.54,-134.34"/>
</g>
<!-- Node19&#45;&gt;Node18 -->
<g id="edge12" class="edge">
<title>Node19&#45;&gt;Node18</title>
<path fill="none" stroke="midnightblue" d="M196.81,-113.5C183.54,-113.5 169.86,-113.5 156.76,-113.5"/>
<polygon fill="midnightblue" stroke="midnightblue" points="196.86,-117 206.86,-113.5 196.86,-110 196.86,-117"/>
</g>
</g>
</svg>
