<?xml version="1.0" encoding="UTF-8" standalone="no"?>
<!DOCTYPE svg PUBLIC "-//W3C//DTD SVG 1.1//EN"
 "http://www.w3.org/Graphics/SVG/1.1/DTD/svg11.dtd">
<!-- Generated by graphviz version 2.43.0 (0)
 -->
<!-- Title: leanux::util::TimeStrMicro Pages: 1 -->
<svg width="609pt" height="519pt"
 viewBox="0.00 0.00 609.00 519.00" xmlns="http://www.w3.org/2000/svg" xmlns:xlink="http://www.w3.org/1999/xlink">
<g id="graph0" class="graph" transform="scale(1 1) rotate(0) translate(4 515)">
<title>leanux::util::TimeStrMicro</title>
<!-- Node1 -->
<g id="node1" class="node">
<title>Node1</title>
<g id="a_node1"><a xlink:title="convert a time duration in microseconds to a pretty print string.">
<polygon fill="#bfbfbf" stroke="black" points="458,-251 458,-270 601,-270 601,-251 458,-251"/>
<text text-anchor="middle" x="529.5" y="-258" font-family="Helvetica,sans-Serif" font-size="10.00">leanux::util::TimeStrMicro</text>
</a>
</g>
</g>
<!-- Node2 -->
<g id="node2" class="node">
<title>Node2</title>
<g id="a_node2"><a xlink:href="../../d8/db1/namespaceleanux_1_1util.html#a377ec19addd5d3ca3ecee9a2591f6458" target="_top" xlink:title="convert a time duration in seconds to a pretty print string.">
<polygon fill="none" stroke="black" points="289,-251 289,-270 422,-270 422,-251 289,-251"/>
<text text-anchor="middle" x="355.5" y="-258" font-family="Helvetica,sans-Serif" font-size="10.00">leanux::util::TimeStrSec</text>
</a>
</g>
</g>
<!-- Node1&#45;&gt;Node2 -->
<g id="edge1" class="edge">
<title>Node1&#45;&gt;Node2</title>
<path fill="none" stroke="midnightblue" d="M447.28,-260.5C438.82,-260.5 430.3,-260.5 422.05,-260.5"/>
<polygon fill="midnightblue" stroke="midnightblue" points="447.55,-264 457.55,-260.5 447.55,-257 447.55,-264"/>
</g>
<!-- Node3 -->
<g id="node3" class="node">
<title>Node3</title>
<g id="a_node3"><a xlink:href="../../d5/d1b/namespaceleanux_1_1tools_1_1lblk.html#ade16c362a9900ba9267433bf57da42ce" target="_top" xlink:title="Write disk details.">
<polygon fill="none" stroke="red" points="144.5,-480.5 144.5,-510.5 248.5,-510.5 248.5,-480.5 144.5,-480.5"/>
<text text-anchor="start" x="152.5" y="-498.5" font-family="Helvetica,sans-Serif" font-size="10.00">leanux::tools::lblk</text>
<text text-anchor="middle" x="196.5" y="-487.5" font-family="Helvetica,sans-Serif" font-size="10.00">::detailDisk</text>
</a>
</g>
</g>
<!-- Node2&#45;&gt;Node3 -->
<g id="edge2" class="edge">
<title>Node2&#45;&gt;Node3</title>
<path fill="none" stroke="midnightblue" d="M350.01,-280.15C339.71,-321.03 310.74,-416.04 253,-471.5 249.44,-474.92 245.32,-477.89 240.96,-480.46"/>
<polygon fill="midnightblue" stroke="midnightblue" points="353.43,-280.89 352.37,-270.34 346.62,-279.24 353.43,-280.89"/>
</g>
<!-- Node7 -->
<g id="node4" class="node">
<title>Node7</title>
<g id="a_node4"><a xlink:href="../../d9/d1f/namespaceleanux_1_1tools_1_1lsys.html#a4a56050ff78d8c77b6a699ff6d5aea50" target="_top" xlink:title="get named field attributes for the SysDevice.">
<polygon fill="none" stroke="red" points="144,-431.5 144,-461.5 249,-461.5 249,-431.5 144,-431.5"/>
<text text-anchor="start" x="152" y="-449.5" font-family="Helvetica,sans-Serif" font-size="10.00">leanux::tools::lsys</text>
<text text-anchor="middle" x="196.5" y="-438.5" font-family="Helvetica,sans-Serif" font-size="10.00">::getLeafColStr</text>
</a>
</g>
</g>
<!-- Node2&#45;&gt;Node7 -->
<g id="edge3" class="edge">
<title>Node2&#45;&gt;Node7</title>
<path fill="none" stroke="midnightblue" d="M346.97,-279.8C333.09,-313.11 300.48,-381.72 253,-422.5 249.1,-425.85 244.66,-428.8 240.02,-431.38"/>
<polygon fill="midnightblue" stroke="midnightblue" points="350.3,-280.89 350.81,-270.31 343.82,-278.26 350.3,-280.89"/>
</g>
<!-- Node12 -->
<g id="node5" class="node">
<title>Node12</title>
<g id="a_node5"><a xlink:href="../../d6/dd3/namespaceleanux_1_1tools_1_1lrep.html#a384d81710e5679d3434f91ced802aa5c" target="_top" xlink:title=" ">
<polygon fill="none" stroke="black" points="144.5,-382.5 144.5,-412.5 248.5,-412.5 248.5,-382.5 144.5,-382.5"/>
<text text-anchor="start" x="152.5" y="-400.5" font-family="Helvetica,sans-Serif" font-size="10.00">leanux::tools::lrep</text>
<text text-anchor="middle" x="196.5" y="-389.5" font-family="Helvetica,sans-Serif" font-size="10.00">::htmlSnapDetails</text>
</a>
</g>
</g>
<!-- Node2&#45;&gt;Node12 -->
<g id="edge4" class="edge">
<title>Node2&#45;&gt;Node12</title>
<path fill="none" stroke="midnightblue" d="M340.79,-278.1C322.51,-300.75 288.35,-340.42 253,-367.5 245.78,-373.03 237.41,-378.13 229.39,-382.49"/>
<polygon fill="midnightblue" stroke="midnightblue" points="343.71,-280.05 347.19,-270.04 338.23,-275.69 343.71,-280.05"/>
</g>
<!-- Node13 -->
<g id="node6" class="node">
<title>Node13</title>
<g id="a_node6"><a xlink:href="../../d6/dd3/namespaceleanux_1_1tools_1_1lrep.html#aa0e1422d8d75831ea3801ffa728bf436" target="_top" xlink:title=" ">
<polygon fill="none" stroke="red" points="0,-338.5 0,-368.5 104,-368.5 104,-338.5 0,-338.5"/>
<text text-anchor="start" x="8" y="-356.5" font-family="Helvetica,sans-Serif" font-size="10.00">leanux::tools::lrep</text>
<text text-anchor="middle" x="52" y="-345.5" font-family="Helvetica,sans-Serif" font-size="10.00">::main</text>
</a>
</g>
</g>
<!-- Node2&#45;&gt;Node13 -->
<g id="edge9" class="edge">
<title>Node2&#45;&gt;Node13</title>
<path fill="none" stroke="midnightblue" d="M337.77,-277.19C318.94,-294.81 286.57,-321.77 253,-334.5 204.89,-352.74 145.83,-356.27 104.4,-355.98"/>
<polygon fill="midnightblue" stroke="midnightblue" points="340.41,-279.5 345.2,-270.05 335.56,-274.45 340.41,-279.5"/>
</g>
<!-- Node15 -->
<g id="node7" class="node">
<title>Node15</title>
<g id="a_node7"><a xlink:href="../../d6/dd3/namespaceleanux_1_1tools_1_1lrep.html#a6f351b4134bb9689630c092625774c9d" target="_top" xlink:title=" ">
<polygon fill="none" stroke="black" points="144.5,-294.5 144.5,-324.5 248.5,-324.5 248.5,-294.5 144.5,-294.5"/>
<text text-anchor="start" x="152.5" y="-312.5" font-family="Helvetica,sans-Serif" font-size="10.00">leanux::tools::lrep</text>
<text text-anchor="middle" x="196.5" y="-301.5" font-family="Helvetica,sans-Serif" font-size="10.00">::htmlTimeLines</text>
</a>
</g>
</g>
<!-- Node2&#45;&gt;Node15 -->
<g id="edge6" class="edge">
<title>Node2&#45;&gt;Node15</title>
<path fill="none" stroke="midnightblue" d="M314.03,-273.13C293.16,-279.64 267.56,-287.63 245.68,-294.46"/>
<polygon fill="midnightblue" stroke="midnightblue" points="315.35,-276.38 323.86,-270.06 313.27,-269.7 315.35,-276.38"/>
</g>
<!-- Node16 -->
<g id="node8" class="node">
<title>Node16</title>
<g id="a_node8"><a xlink:href="../../d5/d1b/namespaceleanux_1_1tools_1_1lblk.html#a73d92bf0717d3dece131f9cf718de164" target="_top" xlink:title="Table listing all disks.">
<polygon fill="none" stroke="red" points="144.5,-245.5 144.5,-275.5 248.5,-275.5 248.5,-245.5 144.5,-245.5"/>
<text text-anchor="start" x="152.5" y="-263.5" font-family="Helvetica,sans-Serif" font-size="10.00">leanux::tools::lblk</text>
<text text-anchor="middle" x="196.5" y="-252.5" font-family="Helvetica,sans-Serif" font-size="10.00">::listAllDisks</text>
</a>
</g>
</g>
<!-- Node2&#45;&gt;Node16 -->
<g id="edge8" class="edge">
<title>Node2&#45;&gt;Node16</title>
<path fill="none" stroke="midnightblue" d="M278.67,-260.5C268.47,-260.5 258.21,-260.5 248.58,-260.5"/>
<polygon fill="midnightblue" stroke="midnightblue" points="278.83,-264 288.83,-260.5 278.83,-257 278.83,-264"/>
</g>
<!-- Node17 -->
<g id="node9" class="node">
<title>Node17</title>
<g id="a_node9"><a xlink:href="../../d5/d1b/namespaceleanux_1_1tools_1_1lblk.html#a0ce6fe01f37dc9d73d699030825432be" target="_top" xlink:title="Write the tree of holders above and including mm, append to tab, starting with level.">
<polygon fill="none" stroke="red" points="144.5,-196.5 144.5,-226.5 248.5,-226.5 248.5,-196.5 144.5,-196.5"/>
<text text-anchor="start" x="152.5" y="-214.5" font-family="Helvetica,sans-Serif" font-size="10.00">leanux::tools::lblk</text>
<text text-anchor="middle" x="196.5" y="-203.5" font-family="Helvetica,sans-Serif" font-size="10.00">::printHolderTree</text>
</a>
</g>
</g>
<!-- Node2&#45;&gt;Node17 -->
<g id="edge10" class="edge">
<title>Node2&#45;&gt;Node17</title>
<path fill="none" stroke="midnightblue" d="M314.03,-247.87C293.16,-241.36 267.56,-233.37 245.68,-226.54"/>
<polygon fill="midnightblue" stroke="midnightblue" points="313.27,-251.3 323.86,-250.94 315.35,-244.62 313.27,-251.3"/>
</g>
<!-- Node19 -->
<g id="node10" class="node">
<title>Node19</title>
<g id="a_node10"><a xlink:href="../../d5/d1b/namespaceleanux_1_1tools_1_1lblk.html#a514a93d2172ba20b92f77ba1062d822c" target="_top" xlink:title="Write the tree of slaves beneath and including mm, append to tab, starting with level.">
<polygon fill="none" stroke="red" points="144.5,-147.5 144.5,-177.5 248.5,-177.5 248.5,-147.5 144.5,-147.5"/>
<text text-anchor="start" x="152.5" y="-165.5" font-family="Helvetica,sans-Serif" font-size="10.00">leanux::tools::lblk</text>
<text text-anchor="middle" x="196.5" y="-154.5" font-family="Helvetica,sans-Serif" font-size="10.00">::printSlaveTree</text>
</a>
</g>
</g>
<!-- Node2&#45;&gt;Node19 -->
<g id="edge11" class="edge">
<title>Node2&#45;&gt;Node19</title>
<path fill="none" stroke="midnightblue" d="M334.85,-244.55C314.97,-228.86 282.97,-204.79 253,-187.5 246.96,-184.01 240.34,-180.66 233.85,-177.61"/>
<polygon fill="midnightblue" stroke="midnightblue" points="332.84,-247.42 342.84,-250.92 337.2,-241.95 332.84,-247.42"/>
</g>
<!-- Node21 -->
<g id="node11" class="node">
<title>Node21</title>
<g id="a_node11"><a xlink:href="../../d5/de6/classleanux_1_1tools_1_1lmon_1_1Screen.html#a010f9459d506af3a4251ea0a644282bd" target="_top" xlink:title="Run the Screen in history mode.">
<polygon fill="none" stroke="red" points="140,-98.5 140,-128.5 253,-128.5 253,-98.5 140,-98.5"/>
<text text-anchor="start" x="148" y="-116.5" font-family="Helvetica,sans-Serif" font-size="10.00">leanux::tools::lmon</text>
<text text-anchor="middle" x="196.5" y="-105.5" font-family="Helvetica,sans-Serif" font-size="10.00">::Screen::runHistory</text>
</a>
</g>
</g>
<!-- Node2&#45;&gt;Node21 -->
<g id="edge12" class="edge">
<title>Node2&#45;&gt;Node21</title>
<path fill="none" stroke="midnightblue" d="M343.14,-242.14C326.25,-216.11 292.26,-168.35 253,-138.5 248.12,-134.79 242.6,-131.48 236.99,-128.57"/>
<polygon fill="midnightblue" stroke="midnightblue" points="340.24,-244.11 348.56,-250.67 346.15,-240.35 340.24,-244.11"/>
</g>
<!-- Node24 -->
<g id="node12" class="node">
<title>Node24</title>
<g id="a_node12"><a xlink:href="../../da/d9f/classleanux_1_1tools_1_1lmon_1_1SysView.html#ad72b5ee6be63091f3d320a23721d5cb4" target="_top" xlink:title="refresh (redraw) the View.">
<polygon fill="none" stroke="black" points="141.5,-49.5 141.5,-79.5 251.5,-79.5 251.5,-49.5 141.5,-49.5"/>
<text text-anchor="start" x="149.5" y="-67.5" font-family="Helvetica,sans-Serif" font-size="10.00">leanux::tools::lmon</text>
<text text-anchor="middle" x="196.5" y="-56.5" font-family="Helvetica,sans-Serif" font-size="10.00">::SysView::xrefresh</text>
</a>
</g>
</g>
<!-- Node2&#45;&gt;Node24 -->
<g id="edge13" class="edge">
<title>Node2&#45;&gt;Node24</title>
<path fill="none" stroke="midnightblue" d="M347.56,-241.15C334.24,-206.47 302,-133.27 253,-89.5 248.74,-85.7 243.81,-82.39 238.68,-79.53"/>
<polygon fill="midnightblue" stroke="midnightblue" points="344.31,-242.45 351.08,-250.6 350.87,-240.01 344.31,-242.45"/>
</g>
<!-- Node25 -->
<g id="node13" class="node">
<title>Node25</title>
<g id="a_node13"><a xlink:href="../../d8/d7f/classleanux_1_1tools_1_1lmon_1_1IOView.html#ad5d8db29927cc18e861cfa5ba48ecd94" target="_top" xlink:title="refresh (redraw) the View.">
<polygon fill="none" stroke="black" points="141.5,-0.5 141.5,-30.5 251.5,-30.5 251.5,-0.5 141.5,-0.5"/>
<text text-anchor="start" x="149.5" y="-18.5" font-family="Helvetica,sans-Serif" font-size="10.00">leanux::tools::lmon</text>
<text text-anchor="middle" x="196.5" y="-7.5" font-family="Helvetica,sans-Serif" font-size="10.00">::IOView::xrefresh</text>
</a>
</g>
</g>
<!-- Node2&#45;&gt;Node25 -->
<g id="edge14" class="edge">
<title>Node2&#45;&gt;Node25</title>
<path fill="none" stroke="midnightblue" d="M350.38,-240.95C340.6,-198.95 312.24,-99.21 253,-40.5 249.17,-36.71 244.67,-33.43 239.91,-30.62"/>
<polygon fill="midnightblue" stroke="midnightblue" points="346.98,-241.75 352.57,-250.75 353.81,-240.23 346.98,-241.75"/>
</g>
<!-- Node12&#45;&gt;Node13 -->
<g id="edge5" class="edge">
<title>Node12&#45;&gt;Node13</title>
<path fill="none" stroke="midnightblue" d="M137.16,-379.49C125.45,-375.87 113.26,-372.11 101.91,-368.6"/>
<polygon fill="midnightblue" stroke="midnightblue" points="136.27,-382.87 146.86,-382.48 138.34,-376.19 136.27,-382.87"/>
</g>
<!-- Node15&#45;&gt;Node13 -->
<g id="edge7" class="edge">
<title>Node15&#45;&gt;Node13</title>
<path fill="none" stroke="midnightblue" d="M137.16,-327.51C125.45,-331.13 113.26,-334.89 101.91,-338.4"/>
<polygon fill="midnightblue" stroke="midnightblue" points="138.34,-330.81 146.86,-324.52 136.27,-324.13 138.34,-330.81"/>
</g>
</g>
</svg>
