<?xml version="1.0" encoding="UTF-8" standalone="no"?>
<!DOCTYPE svg PUBLIC "-//W3C//DTD SVG 1.1//EN"
 "http://www.w3.org/Graphics/SVG/1.1/DTD/svg11.dtd">
<!-- Generated by graphviz version 2.43.0 (0)
 -->
<!-- Title: leanux::util::fileReadHexString Pages: 1 -->
<svg width="745pt" height="1095pt"
 viewBox="0.00 0.00 745.00 1095.00" xmlns="http://www.w3.org/2000/svg" xmlns:xlink="http://www.w3.org/1999/xlink">
<g id="graph0" class="graph" transform="scale(1 1) rotate(0) translate(4 1091)">
<title>leanux::util::fileReadHexString</title>
<!-- Node1 -->
<g id="node1" class="node">
<title>Node1</title>
<g id="a_node1"><a xlink:title="read the first data in the file as a hexadecimal string representation of a signed long.">
<polygon fill="#bfbfbf" stroke="black" points="600,-511.5 600,-541.5 737,-541.5 737,-511.5 600,-511.5"/>
<text text-anchor="start" x="608" y="-529.5" font-family="Helvetica,sans-Serif" font-size="10.00">leanux::util::fileReadHex</text>
<text text-anchor="middle" x="668.5" y="-518.5" font-family="Helvetica,sans-Serif" font-size="10.00">String</text>
</a>
</g>
</g>
<!-- Node2 -->
<g id="node2" class="node">
<title>Node2</title>
<g id="a_node2"><a xlink:href="../../de/d5d/namespaceleanux_1_1pci.html#a48810ffbe83e8a8e357edfa1181c33a5" target="_top" xlink:title="get PCIHardwareId for a PCI device path relative to /sys/devives/">
<polygon fill="none" stroke="black" points="396.5,-827 396.5,-846 560.5,-846 560.5,-827 396.5,-827"/>
<text text-anchor="middle" x="478.5" y="-834" font-family="Helvetica,sans-Serif" font-size="10.00">leanux::pci::getPCIHardwareId</text>
</a>
</g>
</g>
<!-- Node1&#45;&gt;Node2 -->
<g id="edge1" class="edge">
<title>Node1&#45;&gt;Node2</title>
<path fill="none" stroke="midnightblue" d="M652.76,-550.81C614.14,-614.48 511.25,-784.14 485.44,-826.71"/>
<polygon fill="midnightblue" stroke="midnightblue" points="655.98,-552.24 658.18,-541.87 650,-548.61 655.98,-552.24"/>
</g>
<!-- Node17 -->
<g id="node13" class="node">
<title>Node17</title>
<g id="a_node13"><a xlink:href="../../d7/d28/classleanux_1_1block_1_1MajorMinor.html#aec5c9aa75e9cb579163989cece64adc7" target="_top" xlink:title="Get SCSI iodone_cnt (number of SCSI IO completions)">
<polygon fill="none" stroke="black" points="407,-609.5 407,-639.5 550,-639.5 550,-609.5 407,-609.5"/>
<text text-anchor="start" x="415" y="-627.5" font-family="Helvetica,sans-Serif" font-size="10.00">leanux::block::MajorMinor</text>
<text text-anchor="middle" x="478.5" y="-616.5" font-family="Helvetica,sans-Serif" font-size="10.00">::getSCSIIODone</text>
</a>
</g>
</g>
<!-- Node1&#45;&gt;Node17 -->
<g id="edge13" class="edge">
<title>Node1&#45;&gt;Node17</title>
<path fill="none" stroke="midnightblue" d="M642.65,-548.03C622.59,-564.44 593.04,-586.52 564,-600.5 556.99,-603.87 549.42,-606.86 541.79,-609.47"/>
<polygon fill="midnightblue" stroke="midnightblue" points="644.92,-550.7 650.37,-541.61 640.44,-545.31 644.92,-550.7"/>
</g>
<!-- Node43 -->
<g id="node16" class="node">
<title>Node43</title>
<g id="a_node16"><a xlink:href="../../d7/d28/classleanux_1_1block_1_1MajorMinor.html#ab3f52da181b760aa9d9240c08beb8ae8" target="_top" xlink:title="Get SCSI ioerr_cnt (number of SCSI IO errors)">
<polygon fill="none" stroke="black" points="407,-560.5 407,-590.5 550,-590.5 550,-560.5 407,-560.5"/>
<text text-anchor="start" x="415" y="-578.5" font-family="Helvetica,sans-Serif" font-size="10.00">leanux::block::MajorMinor</text>
<text text-anchor="middle" x="478.5" y="-567.5" font-family="Helvetica,sans-Serif" font-size="10.00">::getSCSIIOError</text>
</a>
</g>
</g>
<!-- Node1&#45;&gt;Node43 -->
<g id="edge17" class="edge">
<title>Node1&#45;&gt;Node43</title>
<path fill="none" stroke="midnightblue" d="M599.89,-544.12C579.32,-549.48 556.92,-555.32 537.07,-560.49"/>
<polygon fill="midnightblue" stroke="midnightblue" points="601.02,-547.44 609.82,-541.53 599.26,-540.67 601.02,-547.44"/>
</g>
<!-- Node44 -->
<g id="node17" class="node">
<title>Node44</title>
<g id="a_node17"><a xlink:href="../../d7/d28/classleanux_1_1block_1_1MajorMinor.html#a0c501b00fcddef5167f8f4e4f98e3bdb" target="_top" xlink:title="Get SCSI iorequest_cnt (number of SCSI IO requests)">
<polygon fill="none" stroke="black" points="407,-511.5 407,-541.5 550,-541.5 550,-511.5 407,-511.5"/>
<text text-anchor="start" x="415" y="-529.5" font-family="Helvetica,sans-Serif" font-size="10.00">leanux::block::MajorMinor</text>
<text text-anchor="middle" x="478.5" y="-518.5" font-family="Helvetica,sans-Serif" font-size="10.00">::getSCSIIORequest</text>
</a>
</g>
</g>
<!-- Node1&#45;&gt;Node44 -->
<g id="edge20" class="edge">
<title>Node1&#45;&gt;Node44</title>
<path fill="none" stroke="midnightblue" d="M589.57,-526.5C576.56,-526.5 563.13,-526.5 550.31,-526.5"/>
<polygon fill="midnightblue" stroke="midnightblue" points="589.89,-530 599.89,-526.5 589.89,-523 589.89,-530"/>
</g>
<!-- Node45 -->
<g id="node18" class="node">
<title>Node45</title>
<g id="a_node18"><a xlink:href="../../d5/d9c/namespaceleanux_1_1usb.html#ae3f7ed1c037eeb5c87ae8b7a21ee32f4" target="_top" xlink:title=" ">
<polygon fill="none" stroke="black" points="404,-462.5 404,-492.5 553,-492.5 553,-462.5 404,-462.5"/>
<text text-anchor="start" x="412" y="-480.5" font-family="Helvetica,sans-Serif" font-size="10.00">leanux::usb::getUSBDevice</text>
<text text-anchor="middle" x="478.5" y="-469.5" font-family="Helvetica,sans-Serif" font-size="10.00">HardwareClass</text>
</a>
</g>
</g>
<!-- Node1&#45;&gt;Node45 -->
<g id="edge23" class="edge">
<title>Node1&#45;&gt;Node45</title>
<path fill="none" stroke="midnightblue" d="M599.89,-508.88C579.32,-503.52 556.92,-497.68 537.07,-492.51"/>
<polygon fill="midnightblue" stroke="midnightblue" points="599.26,-512.33 609.82,-511.47 601.02,-505.56 599.26,-512.33"/>
</g>
<!-- Node48 -->
<g id="node21" class="node">
<title>Node48</title>
<g id="a_node21"><a xlink:href="../../d5/d9c/namespaceleanux_1_1usb.html#a40b22561354d4885b6abe9a59f952904" target="_top" xlink:title="Get the USBHardwareId from an USBDevicePath.">
<polygon fill="none" stroke="black" points="393,-307 393,-326 564,-326 564,-307 393,-307"/>
<text text-anchor="middle" x="478.5" y="-314" font-family="Helvetica,sans-Serif" font-size="10.00">leanux::usb::getUSBHardwareId</text>
</a>
</g>
</g>
<!-- Node1&#45;&gt;Node48 -->
<g id="edge27" class="edge">
<title>Node1&#45;&gt;Node48</title>
<path fill="none" stroke="midnightblue" d="M647.22,-503.85C606.59,-458.46 516.69,-358.05 488.28,-326.31"/>
<polygon fill="midnightblue" stroke="midnightblue" points="644.7,-506.28 653.98,-511.4 649.92,-501.61 644.7,-506.28"/>
</g>
<!-- Node55 -->
<g id="node28" class="node">
<title>Node55</title>
<g id="a_node28"><a xlink:href="../../d5/d9c/namespaceleanux_1_1usb.html#ab6d5edb6d930414aa0d31dab795a0b00" target="_top" xlink:title=" ">
<polygon fill="none" stroke="black" points="399.5,-44.5 399.5,-74.5 557.5,-74.5 557.5,-44.5 399.5,-44.5"/>
<text text-anchor="start" x="407.5" y="-62.5" font-family="Helvetica,sans-Serif" font-size="10.00">leanux::usb::getUSBInterface</text>
<text text-anchor="middle" x="478.5" y="-51.5" font-family="Helvetica,sans-Serif" font-size="10.00">HardwareClass</text>
</a>
</g>
</g>
<!-- Node1&#45;&gt;Node55 -->
<g id="edge37" class="edge">
<title>Node1&#45;&gt;Node55</title>
<path fill="none" stroke="midnightblue" d="M657.64,-502C623.78,-417.9 512.91,-142.5 485.61,-74.69"/>
<polygon fill="midnightblue" stroke="midnightblue" points="654.48,-503.52 661.46,-511.49 660.97,-500.91 654.48,-503.52"/>
</g>
<!-- Node3 -->
<g id="node3" class="node">
<title>Node3</title>
<g id="a_node3"><a xlink:href="../../de/d5d/namespaceleanux_1_1pci.html#a1967209f3c225d3aec49ccd48f504777" target="_top" xlink:title="Enumerate ata ports for a given PCI device.">
<polygon fill="none" stroke="black" points="187,-734 187,-753 349,-753 349,-734 187,-734"/>
<text text-anchor="middle" x="268" y="-741" font-family="Helvetica,sans-Serif" font-size="10.00">leanux::pci::enumPCIATAPorts</text>
</a>
</g>
</g>
<!-- Node2&#45;&gt;Node3 -->
<g id="edge2" class="edge">
<title>Node2&#45;&gt;Node3</title>
<path fill="none" stroke="midnightblue" d="M456.49,-820.88C433.28,-804.33 394.24,-778.55 357,-763.5 346.54,-759.27 335,-755.84 323.82,-753.09"/>
<polygon fill="midnightblue" stroke="midnightblue" points="454.71,-823.91 464.86,-826.93 458.81,-818.24 454.71,-823.91"/>
</g>
<!-- Node4 -->
<g id="node4" class="node">
<title>Node4</title>
<g id="a_node4"><a xlink:href="../../de/d5d/namespaceleanux_1_1pci.html#a40970cc37923958a06a10118e3dac9f9" target="_top" xlink:title="return a device path relative to /sys/devices to the PCI device providing the ATA port.">
<polygon fill="none" stroke="black" points="0,-821.5 0,-851.5 143,-851.5 143,-821.5 0,-821.5"/>
<text text-anchor="start" x="8" y="-839.5" font-family="Helvetica,sans-Serif" font-size="10.00">leanux::pci::findPCIDevice</text>
<text text-anchor="middle" x="71.5" y="-828.5" font-family="Helvetica,sans-Serif" font-size="10.00">ByATAPort</text>
</a>
</g>
</g>
<!-- Node2&#45;&gt;Node4 -->
<g id="edge4" class="edge">
<title>Node2&#45;&gt;Node4</title>
<path fill="none" stroke="midnightblue" d="M458.83,-852.59C436.41,-870.76 396.8,-899.25 357,-910.5 280.87,-932.01 254.49,-934.15 179,-910.5 142.26,-898.99 107.08,-869.84 87.78,-851.75"/>
<polygon fill="midnightblue" stroke="midnightblue" points="461.09,-855.27 466.55,-846.19 456.62,-849.88 461.09,-855.27"/>
</g>
<!-- Node5 -->
<g id="node5" class="node">
<title>Node5</title>
<g id="a_node5"><a xlink:href="../../d8/dcd/classleanux_1_1sysdevice_1_1PCIDevice.html#a2df5ef99735d1b71a81e8fdace7ec681" target="_top" xlink:title="Get the device class for this device.">
<polygon fill="none" stroke="black" points="211,-958.5 211,-988.5 325,-988.5 325,-958.5 211,-958.5"/>
<text text-anchor="start" x="219" y="-976.5" font-family="Helvetica,sans-Serif" font-size="10.00">leanux::sysdevice::</text>
<text text-anchor="middle" x="268" y="-965.5" font-family="Helvetica,sans-Serif" font-size="10.00">PCIDevice::getClass</text>
</a>
</g>
</g>
<!-- Node2&#45;&gt;Node5 -->
<g id="edge5" class="edge">
<title>Node2&#45;&gt;Node5</title>
<path fill="none" stroke="midnightblue" d="M462.14,-853.92C440.71,-877.28 399.63,-918.67 357,-943.5 346.96,-949.35 335.6,-954.28 324.47,-958.35"/>
<polygon fill="midnightblue" stroke="midnightblue" points="465.01,-855.96 469.12,-846.2 459.82,-851.27 465.01,-855.96"/>
</g>
<!-- Node6 -->
<g id="node6" class="node">
<title>Node6</title>
<g id="a_node6"><a xlink:href="../../d8/dcd/classleanux_1_1sysdevice_1_1PCIDevice.html#aae7c18dcb959c11184e4b25afa5afae1" target="_top" xlink:title="Get a human readable description of this SysDevice.">
<polygon fill="none" stroke="black" points="196.5,-870.5 196.5,-900.5 339.5,-900.5 339.5,-870.5 196.5,-870.5"/>
<text text-anchor="start" x="204.5" y="-888.5" font-family="Helvetica,sans-Serif" font-size="10.00">leanux::sysdevice::</text>
<text text-anchor="middle" x="268" y="-877.5" font-family="Helvetica,sans-Serif" font-size="10.00">PCIDevice::getDescription</text>
</a>
</g>
</g>
<!-- Node2&#45;&gt;Node6 -->
<g id="edge6" class="edge">
<title>Node2&#45;&gt;Node6</title>
<path fill="none" stroke="midnightblue" d="M426.75,-848.43C398.52,-855.06 363.1,-863.39 332.98,-870.46"/>
<polygon fill="midnightblue" stroke="midnightblue" points="427.87,-851.76 436.8,-846.06 426.27,-844.94 427.87,-851.76"/>
</g>
<!-- Node7 -->
<g id="node7" class="node">
<title>Node7</title>
<g id="a_node7"><a xlink:href="../../d9/d99/classleanux_1_1sysdevice_1_1PCIBus.html#a5767e123c5ff43d23820b4977712bda8" target="_top" xlink:title="Get a human readable description of this SysDevice.">
<polygon fill="none" stroke="black" points="204,-821.5 204,-851.5 332,-851.5 332,-821.5 204,-821.5"/>
<text text-anchor="start" x="212" y="-839.5" font-family="Helvetica,sans-Serif" font-size="10.00">leanux::sysdevice::</text>
<text text-anchor="middle" x="268" y="-828.5" font-family="Helvetica,sans-Serif" font-size="10.00">PCIBus::getDescription</text>
</a>
</g>
</g>
<!-- Node2&#45;&gt;Node7 -->
<g id="edge7" class="edge">
<title>Node2&#45;&gt;Node7</title>
<path fill="none" stroke="midnightblue" d="M386.24,-836.5C368.02,-836.5 349.26,-836.5 332.23,-836.5"/>
<polygon fill="midnightblue" stroke="midnightblue" points="386.29,-840 396.29,-836.5 386.29,-833 386.29,-840"/>
</g>
<!-- Node8 -->
<g id="node8" class="node">
<title>Node8</title>
<g id="a_node8"><a xlink:href="../../d8/dcd/classleanux_1_1sysdevice_1_1PCIDevice.html#a1c5f78d7c4338387d91faddca98f5028" target="_top" xlink:title=" ">
<polygon fill="none" stroke="black" points="191,-772.5 191,-802.5 345,-802.5 345,-772.5 191,-772.5"/>
<text text-anchor="start" x="199" y="-790.5" font-family="Helvetica,sans-Serif" font-size="10.00">leanux::sysdevice::</text>
<text text-anchor="middle" x="268" y="-779.5" font-family="Helvetica,sans-Serif" font-size="10.00">PCIDevice::getDisplayName</text>
</a>
</g>
</g>
<!-- Node2&#45;&gt;Node8 -->
<g id="edge8" class="edge">
<title>Node2&#45;&gt;Node8</title>
<path fill="none" stroke="midnightblue" d="M426.75,-824.57C398.52,-817.94 363.1,-809.61 332.98,-802.54"/>
<polygon fill="midnightblue" stroke="midnightblue" points="426.27,-828.06 436.8,-826.94 427.87,-821.24 426.27,-828.06"/>
</g>
<!-- Node9 -->
<g id="node9" class="node">
<title>Node9</title>
<g id="a_node9"><a xlink:href="../../d9/d99/classleanux_1_1sysdevice_1_1PCIBus.html#a9873b111948df2dbc4e24097555718f3" target="_top" xlink:title=" ">
<polygon fill="none" stroke="black" points="199,-684.5 199,-714.5 337,-714.5 337,-684.5 199,-684.5"/>
<text text-anchor="start" x="207" y="-702.5" font-family="Helvetica,sans-Serif" font-size="10.00">leanux::sysdevice::</text>
<text text-anchor="middle" x="268" y="-691.5" font-family="Helvetica,sans-Serif" font-size="10.00">PCIBus::getDisplayName</text>
</a>
</g>
</g>
<!-- Node2&#45;&gt;Node9 -->
<g id="edge9" class="edge">
<title>Node2&#45;&gt;Node9</title>
<path fill="none" stroke="midnightblue" d="M463.41,-818.97C442.67,-794.3 401.52,-749.57 357,-724.5 350.22,-720.68 342.81,-717.41 335.26,-714.61"/>
<polygon fill="midnightblue" stroke="midnightblue" points="460.8,-821.31 469.87,-826.79 466.2,-816.85 460.8,-821.31"/>
</g>
<!-- Node10 -->
<g id="node10" class="node">
<title>Node10</title>
<g id="a_node10"><a xlink:href="../../d9/d1f/namespaceleanux_1_1tools_1_1lsys.html#a4a56050ff78d8c77b6a699ff6d5aea50" target="_top" xlink:title="get named field attributes for the SysDevice.">
<polygon fill="none" stroke="red" points="19,-514.5 19,-544.5 124,-544.5 124,-514.5 19,-514.5"/>
<text text-anchor="start" x="27" y="-532.5" font-family="Helvetica,sans-Serif" font-size="10.00">leanux::tools::lsys</text>
<text text-anchor="middle" x="71.5" y="-521.5" font-family="Helvetica,sans-Serif" font-size="10.00">::getLeafColStr</text>
</a>
</g>
</g>
<!-- Node2&#45;&gt;Node10 -->
<g id="edge10" class="edge">
<title>Node2&#45;&gt;Node10</title>
<path fill="none" stroke="midnightblue" d="M468.81,-817.24C452.27,-782.94 412.87,-711.47 357,-675.5 288.9,-631.66 250.01,-675.45 179,-636.5 136.72,-613.31 100.2,-568.18 83,-544.63"/>
<polygon fill="midnightblue" stroke="midnightblue" points="465.79,-819.05 473.2,-826.62 472.12,-816.08 465.79,-819.05"/>
</g>
<!-- Node15 -->
<g id="node11" class="node">
<title>Node15</title>
<g id="a_node11"><a xlink:href="../../d8/dcd/classleanux_1_1sysdevice_1_1PCIDevice.html#a226c6285004593dad421a814e57fb505" target="_top" xlink:title=" ">
<polygon fill="none" stroke="black" points="181.5,-1056.5 181.5,-1086.5 354.5,-1086.5 354.5,-1056.5 181.5,-1056.5"/>
<text text-anchor="start" x="189.5" y="-1074.5" font-family="Helvetica,sans-Serif" font-size="10.00">leanux::sysdevice::</text>
<text text-anchor="middle" x="268" y="-1063.5" font-family="Helvetica,sans-Serif" font-size="10.00">PCIDevice::getPropertyValueList</text>
</a>
</g>
</g>
<!-- Node2&#45;&gt;Node15 -->
<g id="edge11" class="edge">
<title>Node2&#45;&gt;Node15</title>
<path fill="none" stroke="midnightblue" d="M471.97,-856.03C459.11,-897.82 423.13,-996.28 357,-1047.5 352.62,-1050.89 347.79,-1053.81 342.72,-1056.31"/>
<polygon fill="midnightblue" stroke="midnightblue" points="475.38,-856.84 474.87,-846.26 468.67,-854.85 475.38,-856.84"/>
</g>
<!-- Node16 -->
<g id="node12" class="node">
<title>Node16</title>
<g id="a_node12"><a xlink:href="../../d9/d99/classleanux_1_1sysdevice_1_1PCIBus.html#aa16e0e79f92e04a8e3cfebae0b133e23" target="_top" xlink:title=" ">
<polygon fill="none" stroke="black" points="189,-1007.5 189,-1037.5 347,-1037.5 347,-1007.5 189,-1007.5"/>
<text text-anchor="start" x="197" y="-1025.5" font-family="Helvetica,sans-Serif" font-size="10.00">leanux::sysdevice::</text>
<text text-anchor="middle" x="268" y="-1014.5" font-family="Helvetica,sans-Serif" font-size="10.00">PCIBus::getPropertyValueList</text>
</a>
</g>
</g>
<!-- Node2&#45;&gt;Node16 -->
<g id="edge12" class="edge">
<title>Node2&#45;&gt;Node16</title>
<path fill="none" stroke="midnightblue" d="M468.65,-855.6C451.87,-889.68 412.1,-960.9 357,-998.5 352.03,-1001.89 346.6,-1004.81 340.94,-1007.31"/>
<polygon fill="midnightblue" stroke="midnightblue" points="471.95,-856.82 473.12,-846.29 465.64,-853.8 471.95,-856.82"/>
</g>
<!-- Node3&#45;&gt;Node4 -->
<g id="edge3" class="edge">
<title>Node3&#45;&gt;Node4</title>
<path fill="none" stroke="midnightblue" d="M200.18,-755.86C192.91,-758.04 185.71,-760.57 179,-763.5 144.91,-778.41 110.25,-804.68 90.09,-821.3"/>
<polygon fill="midnightblue" stroke="midnightblue" points="201.42,-759.15 210.12,-753.11 199.55,-752.41 201.42,-759.15"/>
</g>
<!-- Node18 -->
<g id="node14" class="node">
<title>Node18</title>
<g id="a_node14"><a xlink:href="../../d7/d28/classleanux_1_1block_1_1MajorMinor.html#a314abee5e9b9cc4c609d54e61103863a" target="_top" xlink:title="get performance statistics for the block device specified by MajorMinor.">
<polygon fill="none" stroke="red" points="196.5,-596.5 196.5,-626.5 339.5,-626.5 339.5,-596.5 196.5,-596.5"/>
<text text-anchor="start" x="204.5" y="-614.5" font-family="Helvetica,sans-Serif" font-size="10.00">leanux::block::MajorMinor</text>
<text text-anchor="middle" x="268" y="-603.5" font-family="Helvetica,sans-Serif" font-size="10.00">::getStats</text>
</a>
</g>
</g>
<!-- Node17&#45;&gt;Node18 -->
<g id="edge14" class="edge">
<title>Node17&#45;&gt;Node18</title>
<path fill="none" stroke="midnightblue" d="M396.84,-619.47C377.93,-618.29 357.94,-617.05 339.52,-615.9"/>
<polygon fill="midnightblue" stroke="midnightblue" points="396.71,-622.97 406.91,-620.1 397.15,-615.98 396.71,-622.97"/>
</g>
<!-- Node29 -->
<g id="node15" class="node">
<title>Node29</title>
<g id="a_node15"><a xlink:href="../../d5/d01/namespaceleanux_1_1block.html#ae227ed1fa83d91988072e335ea0f81e9" target="_top" xlink:title="get block device statistics into a DeviceStatsMap.">
<polygon fill="none" stroke="red" points="204,-558 204,-577 332,-577 332,-558 204,-558"/>
<text text-anchor="middle" x="268" y="-565" font-family="Helvetica,sans-Serif" font-size="10.00">leanux::block::getStats</text>
</a>
</g>
</g>
<!-- Node17&#45;&gt;Node29 -->
<g id="edge16" class="edge">
<title>Node17&#45;&gt;Node29</title>
<path fill="none" stroke="midnightblue" d="M412.62,-606.57C405.97,-604.59 399.34,-602.54 393,-600.5 376.81,-595.28 373.33,-592.28 357,-587.5 343.77,-583.62 329.24,-580.05 315.86,-577.03"/>
<polygon fill="midnightblue" stroke="midnightblue" points="411.75,-609.96 422.33,-609.43 413.73,-603.25 411.75,-609.96"/>
</g>
<!-- Node18&#45;&gt;Node10 -->
<g id="edge15" class="edge">
<title>Node18&#45;&gt;Node10</title>
<path fill="none" stroke="midnightblue" d="M197.37,-593.23C191.1,-591.13 184.89,-588.88 179,-586.5 149.84,-574.71 118.28,-557.17 97.16,-544.66"/>
<polygon fill="midnightblue" stroke="midnightblue" points="196.65,-596.68 207.24,-596.4 198.79,-590.01 196.65,-596.68"/>
</g>
<!-- Node43&#45;&gt;Node18 -->
<g id="edge18" class="edge">
<title>Node43&#45;&gt;Node18</title>
<path fill="none" stroke="midnightblue" d="M396.84,-589.43C377.93,-592.69 357.94,-596.14 339.52,-599.32"/>
<polygon fill="midnightblue" stroke="midnightblue" points="397.65,-592.84 406.91,-587.69 396.46,-585.94 397.65,-592.84"/>
</g>
<!-- Node43&#45;&gt;Node29 -->
<g id="edge19" class="edge">
<title>Node43&#45;&gt;Node29</title>
<path fill="none" stroke="midnightblue" d="M396.84,-572.41C375.39,-571.58 352.53,-570.71 332.17,-569.92"/>
<polygon fill="midnightblue" stroke="midnightblue" points="396.78,-575.91 406.91,-572.79 397.05,-568.91 396.78,-575.91"/>
</g>
<!-- Node44&#45;&gt;Node18 -->
<g id="edge21" class="edge">
<title>Node44&#45;&gt;Node18</title>
<path fill="none" stroke="midnightblue" d="M405,-545.34C400.85,-547.22 396.82,-549.27 393,-551.5 373.74,-562.77 376.32,-575.33 357,-586.5 350.4,-590.31 343.18,-593.58 335.81,-596.36"/>
<polygon fill="midnightblue" stroke="midnightblue" points="406.34,-548.57 414.24,-541.51 403.66,-542.11 406.34,-548.57"/>
</g>
<!-- Node44&#45;&gt;Node29 -->
<g id="edge22" class="edge">
<title>Node44&#45;&gt;Node29</title>
<path fill="none" stroke="midnightblue" d="M396.78,-542.37C370.01,-547.64 341.06,-553.33 317.5,-557.96"/>
<polygon fill="midnightblue" stroke="midnightblue" points="397.77,-545.74 406.91,-540.38 396.42,-538.88 397.77,-545.74"/>
</g>
<!-- Node45&#45;&gt;Node10 -->
<g id="edge26" class="edge">
<title>Node45&#45;&gt;Node10</title>
<path fill="none" stroke="midnightblue" d="M416.86,-495.31C393.18,-502.01 368.89,-508.5 357,-510.5 276.46,-524.08 181.55,-528.05 124.26,-529.15"/>
<polygon fill="midnightblue" stroke="midnightblue" points="417.92,-498.65 426.58,-492.54 416,-491.91 417.92,-498.65"/>
</g>
<!-- Node46 -->
<g id="node19" class="node">
<title>Node46</title>
<g id="a_node19"><a xlink:href="../../db/d5e/classleanux_1_1sysdevice_1_1USBDevice.html#a2408540d2d0fd3f215a860324b604961" target="_top" xlink:title="Get the device class for this device.">
<polygon fill="none" stroke="black" points="208.5,-470.5 208.5,-500.5 327.5,-500.5 327.5,-470.5 208.5,-470.5"/>
<text text-anchor="start" x="216.5" y="-488.5" font-family="Helvetica,sans-Serif" font-size="10.00">leanux::sysdevice::</text>
<text text-anchor="middle" x="268" y="-477.5" font-family="Helvetica,sans-Serif" font-size="10.00">USBDevice::getClass</text>
</a>
</g>
</g>
<!-- Node45&#45;&gt;Node46 -->
<g id="edge24" class="edge">
<title>Node45&#45;&gt;Node46</title>
<path fill="none" stroke="midnightblue" d="M393.92,-480.71C371.77,-481.56 348.32,-482.46 327.79,-483.24"/>
<polygon fill="midnightblue" stroke="midnightblue" points="394.13,-484.2 403.99,-480.32 393.86,-477.21 394.13,-484.2"/>
</g>
<!-- Node47 -->
<g id="node20" class="node">
<title>Node47</title>
<g id="a_node20"><a xlink:href="../../dc/d51/classleanux_1_1sysdevice_1_1USBBus.html#a926a459be1a220ee0532040862efac46" target="_top" xlink:title="Get the device class for this device.">
<polygon fill="none" stroke="black" points="213,-421.5 213,-451.5 323,-451.5 323,-421.5 213,-421.5"/>
<text text-anchor="start" x="221" y="-439.5" font-family="Helvetica,sans-Serif" font-size="10.00">leanux::sysdevice::</text>
<text text-anchor="middle" x="268" y="-428.5" font-family="Helvetica,sans-Serif" font-size="10.00">USBBus::getClass</text>
</a>
</g>
</g>
<!-- Node45&#45;&gt;Node47 -->
<g id="edge25" class="edge">
<title>Node45&#45;&gt;Node47</title>
<path fill="none" stroke="midnightblue" d="M393.89,-461.06C370.07,-456.37 344.75,-451.39 323.18,-447.15"/>
<polygon fill="midnightblue" stroke="midnightblue" points="393.5,-464.55 403.99,-463.04 394.85,-457.68 393.5,-464.55"/>
</g>
<!-- Node48&#45;&gt;Node10 -->
<g id="edge34" class="edge">
<title>Node48&#45;&gt;Node10</title>
<path fill="none" stroke="midnightblue" d="M438.57,-304.01C377.99,-287.1 259.75,-264.38 179,-314.5 105.38,-360.19 81.09,-473.57 74.56,-514.48"/>
<polygon fill="midnightblue" stroke="midnightblue" points="437.91,-307.47 448.49,-306.88 439.85,-300.74 437.91,-307.47"/>
</g>
<!-- Node48&#45;&gt;Node46 -->
<g id="edge28" class="edge">
<title>Node48&#45;&gt;Node46</title>
<path fill="none" stroke="midnightblue" d="M467.11,-335.31C448.95,-366.42 408.41,-428.41 357,-461.5 348.21,-467.16 338.1,-471.49 327.94,-474.81"/>
<polygon fill="midnightblue" stroke="midnightblue" points="470.3,-336.79 472.21,-326.37 464.21,-333.33 470.3,-336.79"/>
</g>
<!-- Node48&#45;&gt;Node47 -->
<g id="edge29" class="edge">
<title>Node48&#45;&gt;Node47</title>
<path fill="none" stroke="midnightblue" d="M460.98,-333.38C439.1,-354.8 398.43,-391.48 357,-412.5 346.55,-417.8 334.79,-422.04 323.35,-425.4"/>
<polygon fill="midnightblue" stroke="midnightblue" points="463.54,-335.77 468.16,-326.24 458.6,-330.81 463.54,-335.77"/>
</g>
<!-- Node49 -->
<g id="node22" class="node">
<title>Node49</title>
<g id="a_node22"><a xlink:href="../../db/d5e/classleanux_1_1sysdevice_1_1USBDevice.html#a960bc4e4f0508829ee75816a9e054ace" target="_top" xlink:title="Get a human readable description of this SysDevice.">
<polygon fill="none" stroke="black" points="194,-235.5 194,-265.5 342,-265.5 342,-235.5 194,-235.5"/>
<text text-anchor="start" x="202" y="-253.5" font-family="Helvetica,sans-Serif" font-size="10.00">leanux::sysdevice::</text>
<text text-anchor="middle" x="268" y="-242.5" font-family="Helvetica,sans-Serif" font-size="10.00">USBDevice::getDescription</text>
</a>
</g>
</g>
<!-- Node48&#45;&gt;Node49 -->
<g id="edge30" class="edge">
<title>Node48&#45;&gt;Node49</title>
<path fill="none" stroke="midnightblue" d="M437.46,-303.82C403.01,-292.92 353.24,-277.16 316.72,-265.61"/>
<polygon fill="midnightblue" stroke="midnightblue" points="436.59,-307.22 447.18,-306.9 438.7,-300.55 436.59,-307.22"/>
</g>
<!-- Node50 -->
<g id="node23" class="node">
<title>Node50</title>
<g id="a_node23"><a xlink:href="../../dc/d51/classleanux_1_1sysdevice_1_1USBBus.html#aed156094cacba5726b198c9f6894d017" target="_top" xlink:title="Get a human readable description of this SysDevice.">
<polygon fill="none" stroke="black" points="202,-186.5 202,-216.5 334,-216.5 334,-186.5 202,-186.5"/>
<text text-anchor="start" x="210" y="-204.5" font-family="Helvetica,sans-Serif" font-size="10.00">leanux::sysdevice::</text>
<text text-anchor="middle" x="268" y="-193.5" font-family="Helvetica,sans-Serif" font-size="10.00">USBBus::getDescription</text>
</a>
</g>
</g>
<!-- Node48&#45;&gt;Node50 -->
<g id="edge31" class="edge">
<title>Node48&#45;&gt;Node50</title>
<path fill="none" stroke="midnightblue" d="M459.76,-299.92C437.41,-279.85 397.06,-246.3 357,-226.5 349.31,-222.7 340.95,-219.39 332.54,-216.53"/>
<polygon fill="midnightblue" stroke="midnightblue" points="457.66,-302.74 467.41,-306.89 462.38,-297.56 457.66,-302.74"/>
</g>
<!-- Node51 -->
<g id="node24" class="node">
<title>Node51</title>
<g id="a_node24"><a xlink:href="../../db/d5e/classleanux_1_1sysdevice_1_1USBDevice.html#ae149cb6875a14576a714b0428690835f" target="_top" xlink:title=" ">
<polygon fill="none" stroke="black" points="189,-137.5 189,-167.5 347,-167.5 347,-137.5 189,-137.5"/>
<text text-anchor="start" x="197" y="-155.5" font-family="Helvetica,sans-Serif" font-size="10.00">leanux::sysdevice::</text>
<text text-anchor="middle" x="268" y="-144.5" font-family="Helvetica,sans-Serif" font-size="10.00">USBDevice::getDisplayName</text>
</a>
</g>
</g>
<!-- Node48&#45;&gt;Node51 -->
<g id="edge32" class="edge">
<title>Node48&#45;&gt;Node51</title>
<path fill="none" stroke="midnightblue" d="M466.6,-298.1C447.97,-268.24 407.09,-209.37 357,-177.5 350.97,-173.66 344.34,-170.4 337.51,-167.63"/>
<polygon fill="midnightblue" stroke="midnightblue" points="463.66,-299.99 471.86,-306.71 469.63,-296.35 463.66,-299.99"/>
</g>
<!-- Node52 -->
<g id="node25" class="node">
<title>Node52</title>
<g id="a_node25"><a xlink:href="../../dc/d51/classleanux_1_1sysdevice_1_1USBBus.html#a35036f66ae9bf3fdb008825432cd601b" target="_top" xlink:title=" ">
<polygon fill="none" stroke="black" points="196.5,-88.5 196.5,-118.5 339.5,-118.5 339.5,-88.5 196.5,-88.5"/>
<text text-anchor="start" x="204.5" y="-106.5" font-family="Helvetica,sans-Serif" font-size="10.00">leanux::sysdevice::</text>
<text text-anchor="middle" x="268" y="-95.5" font-family="Helvetica,sans-Serif" font-size="10.00">USBBus::getDisplayName</text>
</a>
</g>
</g>
<!-- Node48&#45;&gt;Node52 -->
<g id="edge33" class="edge">
<title>Node48&#45;&gt;Node52</title>
<path fill="none" stroke="midnightblue" d="M470.71,-297.6C456.08,-259.6 417.88,-173.71 357,-128.5 351.77,-124.62 345.96,-121.34 339.89,-118.57"/>
<polygon fill="midnightblue" stroke="midnightblue" points="467.43,-298.83 474.21,-306.97 473.99,-296.38 467.43,-298.83"/>
</g>
<!-- Node53 -->
<g id="node26" class="node">
<title>Node53</title>
<g id="a_node26"><a xlink:href="../../db/d5e/classleanux_1_1sysdevice_1_1USBDevice.html#aa7074d6382d3ef77a36a7454dbf99f1e" target="_top" xlink:title=" ">
<polygon fill="none" stroke="black" points="179,-372.5 179,-402.5 357,-402.5 357,-372.5 179,-372.5"/>
<text text-anchor="start" x="187" y="-390.5" font-family="Helvetica,sans-Serif" font-size="10.00">leanux::sysdevice::</text>
<text text-anchor="middle" x="268" y="-379.5" font-family="Helvetica,sans-Serif" font-size="10.00">USBDevice::getPropertyValueList</text>
</a>
</g>
</g>
<!-- Node48&#45;&gt;Node53 -->
<g id="edge35" class="edge">
<title>Node48&#45;&gt;Node53</title>
<path fill="none" stroke="midnightblue" d="M445.75,-329.95C421.64,-339.89 387.55,-353.41 357,-363.5 347.53,-366.63 337.39,-369.67 327.48,-372.48"/>
<polygon fill="midnightblue" stroke="midnightblue" points="447.22,-333.13 455.11,-326.06 444.53,-326.66 447.22,-333.13"/>
</g>
<!-- Node54 -->
<g id="node27" class="node">
<title>Node54</title>
<g id="a_node27"><a xlink:href="../../dc/d51/classleanux_1_1sysdevice_1_1USBBus.html#aa244ae7511e6792b74236c20634b895f" target="_top" xlink:title=" ">
<polygon fill="none" stroke="black" points="187,-323.5 187,-353.5 349,-353.5 349,-323.5 187,-323.5"/>
<text text-anchor="start" x="195" y="-341.5" font-family="Helvetica,sans-Serif" font-size="10.00">leanux::sysdevice::</text>
<text text-anchor="middle" x="268" y="-330.5" font-family="Helvetica,sans-Serif" font-size="10.00">USBBus::getPropertyValueList</text>
</a>
</g>
</g>
<!-- Node48&#45;&gt;Node54 -->
<g id="edge36" class="edge">
<title>Node48&#45;&gt;Node54</title>
<path fill="none" stroke="midnightblue" d="M382.76,-326.5C371.56,-327.68 360.21,-328.88 349.24,-330.03"/>
<polygon fill="midnightblue" stroke="midnightblue" points="383.42,-329.95 393,-325.42 382.68,-322.99 383.42,-329.95"/>
</g>
<!-- Node55&#45;&gt;Node10 -->
<g id="edge39" class="edge">
<title>Node55&#45;&gt;Node10</title>
<path fill="none" stroke="midnightblue" d="M389.18,-54.24C312.72,-51.64 209.73,-53.48 179,-79.5 109.92,-138 79.91,-442.6 73.73,-514.35"/>
<polygon fill="midnightblue" stroke="midnightblue" points="389.18,-57.74 399.3,-54.61 389.44,-50.74 389.18,-57.74"/>
</g>
<!-- Node56 -->
<g id="node29" class="node">
<title>Node56</title>
<g id="a_node29"><a xlink:href="../../de/dce/classleanux_1_1sysdevice_1_1USBInterface.html#ab302808224c276e9de918a911343d8ac" target="_top" xlink:title="Get the device class for this device.">
<polygon fill="none" stroke="black" points="204,-0.5 204,-30.5 332,-30.5 332,-0.5 204,-0.5"/>
<text text-anchor="start" x="212" y="-18.5" font-family="Helvetica,sans-Serif" font-size="10.00">leanux::sysdevice::</text>
<text text-anchor="middle" x="268" y="-7.5" font-family="Helvetica,sans-Serif" font-size="10.00">USBInterface::getClass</text>
</a>
</g>
</g>
<!-- Node55&#45;&gt;Node56 -->
<g id="edge38" class="edge">
<title>Node55&#45;&gt;Node56</title>
<path fill="none" stroke="midnightblue" d="M396.33,-42.37C375.03,-37.87 352.37,-33.09 332.17,-28.83"/>
<polygon fill="midnightblue" stroke="midnightblue" points="395.82,-45.84 406.33,-44.48 397.27,-38.99 395.82,-45.84"/>
</g>
</g>
</svg>
