<?xml version="1.0" encoding="UTF-8" standalone="no"?>
<!DOCTYPE svg PUBLIC "-//W3C//DTD SVG 1.1//EN"
 "http://www.w3.org/Graphics/SVG/1.1/DTD/svg11.dtd">
<!-- Generated by graphviz version 2.43.0 (0)
 -->
<!-- Title: leanux::util::fileReadUL Pages: 1 -->
<svg width="738pt" height="711pt"
 viewBox="0.00 0.00 738.00 710.50" xmlns="http://www.w3.org/2000/svg" xmlns:xlink="http://www.w3.org/1999/xlink">
<g id="graph0" class="graph" transform="scale(1 1) rotate(0) translate(4 706.5)">
<title>leanux::util::fileReadUL</title>
<!-- Node1 -->
<g id="node1" class="node">
<title>Node1</title>
<g id="a_node1"><a xlink:title="read the first data in the file as a string representation of a unsigned long.">
<polygon fill="#bfbfbf" stroke="black" points="600,-388 600,-407 730,-407 730,-388 600,-388"/>
<text text-anchor="middle" x="665" y="-395" font-family="Helvetica,sans-Serif" font-size="10.00">leanux::util::fileReadUL</text>
</a>
</g>
</g>
<!-- Node2 -->
<g id="node2" class="node">
<title>Node2</title>
<g id="a_node2"><a xlink:href="../../da/da3/namespaceleanux_1_1cpu.html#a35d1bf5dbb139fcebedd891244d36039" target="_top" xlink:title="get the core id of the logical CPU from /sys/devices/system/cpu/cpuX/core_id.">
<polygon fill="none" stroke="black" points="395.5,-683 395.5,-702 541.5,-702 541.5,-683 395.5,-683"/>
<text text-anchor="middle" x="468.5" y="-690" font-family="Helvetica,sans-Serif" font-size="10.00">leanux::cpu::getCPUCoreId</text>
</a>
</g>
</g>
<!-- Node1&#45;&gt;Node2 -->
<g id="edge1" class="edge">
<title>Node1&#45;&gt;Node2</title>
<path fill="none" stroke="midnightblue" d="M663.15,-417.19C659.82,-468.13 643.54,-605.03 564,-673.5 557.53,-679.07 549.89,-683.17 541.8,-686.17"/>
<polygon fill="midnightblue" stroke="midnightblue" points="666.64,-417.35 663.7,-407.17 659.65,-416.97 666.64,-417.35"/>
</g>
<!-- Node7 -->
<g id="node4" class="node">
<title>Node7</title>
<g id="a_node4"><a xlink:href="../../da/da3/namespaceleanux_1_1cpu.html#aa3faebda296d39bfcaaccfe9a8398ec0" target="_top" xlink:title="get the physical id of the logical CPU from /sys/devices/system/cpu/cpuX/physical_package_id.">
<polygon fill="none" stroke="black" points="386.5,-645 386.5,-664 550.5,-664 550.5,-645 386.5,-645"/>
<text text-anchor="middle" x="468.5" y="-652" font-family="Helvetica,sans-Serif" font-size="10.00">leanux::cpu::getCPUPhysicalId</text>
</a>
</g>
</g>
<!-- Node1&#45;&gt;Node7 -->
<g id="edge3" class="edge">
<title>Node1&#45;&gt;Node7</title>
<path fill="none" stroke="midnightblue" d="M661.87,-417.22C655.8,-463.26 634.03,-578.2 564,-635.5 559.34,-639.31 554.12,-642.43 548.59,-644.97"/>
<polygon fill="midnightblue" stroke="midnightblue" points="665.37,-417.43 663.1,-407.08 658.42,-416.59 665.37,-417.43"/>
</g>
<!-- Node8 -->
<g id="node5" class="node">
<title>Node8</title>
<g id="a_node5"><a xlink:href="../../da/da3/namespaceleanux_1_1cpu.html#a31a23bc3cbd9990806ad11b532e6cb93" target="_top" xlink:title="get the CPU topology.">
<polygon fill="none" stroke="black" points="389.5,-607 389.5,-626 547.5,-626 547.5,-607 389.5,-607"/>
<text text-anchor="middle" x="468.5" y="-614" font-family="Helvetica,sans-Serif" font-size="10.00">leanux::cpu::getCPUTopology</text>
</a>
</g>
</g>
<!-- Node1&#45;&gt;Node8 -->
<g id="edge5" class="edge">
<title>Node1&#45;&gt;Node8</title>
<path fill="none" stroke="midnightblue" d="M660.13,-417.37C651.09,-458.1 624.61,-551.16 564,-597.5 559.08,-601.26 553.61,-604.33 547.85,-606.83"/>
<polygon fill="midnightblue" stroke="midnightblue" points="663.6,-417.85 662.23,-407.35 656.75,-416.42 663.6,-417.85"/>
</g>
<!-- Node18 -->
<g id="node8" class="node">
<title>Node18</title>
<g id="a_node8"><a xlink:href="../../dc/d32/namespaceleanux_1_1vmem.html#af9f25df334293035d83f5132519cfe80" target="_top" xlink:title="get /proc/sys/vm/dirty_background_bytes">
<polygon fill="none" stroke="black" points="373,-557.5 373,-587.5 564,-587.5 564,-557.5 373,-557.5"/>
<text text-anchor="start" x="381" y="-575.5" font-family="Helvetica,sans-Serif" font-size="10.00">leanux::vmem::getDirtyBackground</text>
<text text-anchor="middle" x="468.5" y="-564.5" font-family="Helvetica,sans-Serif" font-size="10.00">Bytes</text>
</a>
</g>
</g>
<!-- Node1&#45;&gt;Node18 -->
<g id="edge8" class="edge">
<title>Node1&#45;&gt;Node18</title>
<path fill="none" stroke="midnightblue" d="M656.74,-416.68C643.46,-449.05 612.15,-514.33 564,-548.5 559.17,-551.93 553.89,-554.87 548.38,-557.39"/>
<polygon fill="midnightblue" stroke="midnightblue" points="660.12,-417.64 660.54,-407.05 653.61,-415.06 660.12,-417.64"/>
</g>
<!-- Node19 -->
<g id="node9" class="node">
<title>Node19</title>
<g id="a_node9"><a xlink:href="../../dc/d32/namespaceleanux_1_1vmem.html#a041b75b12f04548981b9c60eee9cdb98" target="_top" xlink:title="get /proc/sys/vm/dirty_background_ratio">
<polygon fill="none" stroke="black" points="373,-508.5 373,-538.5 564,-538.5 564,-508.5 373,-508.5"/>
<text text-anchor="start" x="381" y="-526.5" font-family="Helvetica,sans-Serif" font-size="10.00">leanux::vmem::getDirtyBackground</text>
<text text-anchor="middle" x="468.5" y="-515.5" font-family="Helvetica,sans-Serif" font-size="10.00">Ratio</text>
</a>
</g>
</g>
<!-- Node1&#45;&gt;Node19 -->
<g id="edge9" class="edge">
<title>Node1&#45;&gt;Node19</title>
<path fill="none" stroke="midnightblue" d="M651.21,-415.36C633.97,-438.1 601.15,-477.01 564,-498.5 557.39,-502.32 550.18,-505.58 542.79,-508.34"/>
<polygon fill="midnightblue" stroke="midnightblue" points="654.08,-417.36 657.22,-407.24 648.46,-413.2 654.08,-417.36"/>
</g>
<!-- Node20 -->
<g id="node10" class="node">
<title>Node20</title>
<g id="a_node10"><a xlink:href="../../dc/d32/namespaceleanux_1_1vmem.html#a25711f0f454b456f442a451794298001" target="_top" xlink:title="get /proc/sys/vm/dirty_bytes">
<polygon fill="none" stroke="black" points="388,-470 388,-489 549,-489 549,-470 388,-470"/>
<text text-anchor="middle" x="468.5" y="-477" font-family="Helvetica,sans-Serif" font-size="10.00">leanux::vmem::getDirtyBytes</text>
</a>
</g>
</g>
<!-- Node1&#45;&gt;Node20 -->
<g id="edge10" class="edge">
<title>Node1&#45;&gt;Node20</title>
<path fill="none" stroke="midnightblue" d="M644.11,-413.12C624.73,-427.57 593.91,-448.54 564,-460.5 554.29,-464.38 543.69,-467.5 533.21,-470"/>
<polygon fill="midnightblue" stroke="midnightblue" points="646.32,-415.84 652.16,-407 642.08,-410.27 646.32,-415.84"/>
</g>
<!-- Node22 -->
<g id="node12" class="node">
<title>Node22</title>
<g id="a_node12"><a xlink:href="../../dc/d32/namespaceleanux_1_1vmem.html#a1b7142681779765cd488132dd2cdff37" target="_top" xlink:title="get /proc/sys/vm/dirty_ratio">
<polygon fill="none" stroke="black" points="389.5,-432 389.5,-451 547.5,-451 547.5,-432 389.5,-432"/>
<text text-anchor="middle" x="468.5" y="-439" font-family="Helvetica,sans-Serif" font-size="10.00">leanux::vmem::getDirtyRatio</text>
</a>
</g>
</g>
<!-- Node1&#45;&gt;Node22 -->
<g id="edge12" class="edge">
<title>Node1&#45;&gt;Node22</title>
<path fill="none" stroke="midnightblue" d="M617.41,-409.63C600.61,-413.87 581.49,-418.56 564,-422.5 549.47,-425.77 533.62,-429.07 519.13,-431.97"/>
<polygon fill="midnightblue" stroke="midnightblue" points="618.7,-412.91 627.53,-407.05 616.97,-406.13 618.7,-412.91"/>
</g>
<!-- Node23 -->
<g id="node13" class="node">
<title>Node23</title>
<g id="a_node13"><a xlink:href="../../d7/d28/classleanux_1_1block_1_1MajorMinor.html#a7e67ba12dcc01b5690e58b252f3c7019" target="_top" xlink:title="get the maximum IO size the hardware device reports to support.">
<polygon fill="none" stroke="black" points="397,-284.5 397,-314.5 540,-314.5 540,-284.5 397,-284.5"/>
<text text-anchor="start" x="405" y="-302.5" font-family="Helvetica,sans-Serif" font-size="10.00">leanux::block::MajorMinor</text>
<text text-anchor="middle" x="468.5" y="-291.5" font-family="Helvetica,sans-Serif" font-size="10.00">::getMaxHWIOSize</text>
</a>
</g>
</g>
<!-- Node1&#45;&gt;Node23 -->
<g id="edge14" class="edge">
<title>Node1&#45;&gt;Node23</title>
<path fill="none" stroke="midnightblue" d="M646.18,-381.27C627.14,-364.74 595.44,-339.48 564,-324.5 555.96,-320.67 547.24,-317.36 538.46,-314.51"/>
<polygon fill="midnightblue" stroke="midnightblue" points="643.95,-383.96 653.75,-387.97 648.58,-378.72 643.95,-383.96"/>
</g>
<!-- Node28 -->
<g id="node15" class="node">
<title>Node28</title>
<g id="a_node15"><a xlink:href="../../d7/d28/classleanux_1_1block_1_1MajorMinor.html#a28ee6f7ffa63a9a24c296e96f9a50a8b" target="_top" xlink:title="get the maximum IO size configured to the device.">
<polygon fill="none" stroke="black" points="397,-235.5 397,-265.5 540,-265.5 540,-235.5 397,-235.5"/>
<text text-anchor="start" x="405" y="-253.5" font-family="Helvetica,sans-Serif" font-size="10.00">leanux::block::MajorMinor</text>
<text text-anchor="middle" x="468.5" y="-242.5" font-family="Helvetica,sans-Serif" font-size="10.00">::getMaxIOSize</text>
</a>
</g>
</g>
<!-- Node1&#45;&gt;Node28 -->
<g id="edge16" class="edge">
<title>Node1&#45;&gt;Node28</title>
<path fill="none" stroke="midnightblue" d="M653.96,-379.03C638.35,-352.08 605.65,-302.28 564,-275.5 556.72,-270.82 548.59,-267.01 540.24,-263.91"/>
<polygon fill="midnightblue" stroke="midnightblue" points="650.97,-380.85 658.93,-387.84 657.07,-377.41 650.97,-380.85"/>
</g>
<!-- Node29 -->
<g id="node16" class="node">
<title>Node29</title>
<g id="a_node16"><a xlink:href="../../d7/d28/classleanux_1_1block_1_1MajorMinor.html#a227a0929842bd741dec9c9d37f4feea1" target="_top" xlink:title="Get the MD chunck size, valid for MetaDisk block devices.">
<polygon fill="none" stroke="black" points="167,-0.5 167,-30.5 310,-30.5 310,-0.5 167,-0.5"/>
<text text-anchor="start" x="175" y="-18.5" font-family="Helvetica,sans-Serif" font-size="10.00">leanux::block::MajorMinor</text>
<text text-anchor="middle" x="238.5" y="-7.5" font-family="Helvetica,sans-Serif" font-size="10.00">::getMDChunkSize</text>
</a>
</g>
</g>
<!-- Node1&#45;&gt;Node29 -->
<g id="edge18" class="edge">
<title>Node1&#45;&gt;Node29</title>
<path fill="none" stroke="midnightblue" d="M664.27,-377.82C663.91,-321.67 654.68,-159.56 564,-78.5 494.58,-16.45 382.8,-7.75 310.25,-9.69"/>
<polygon fill="midnightblue" stroke="midnightblue" points="660.77,-377.84 664.25,-387.85 667.77,-377.86 660.77,-377.84"/>
</g>
<!-- Node31 -->
<g id="node18" class="node">
<title>Node31</title>
<g id="a_node18"><a xlink:href="../../d7/d28/classleanux_1_1block_1_1MajorMinor.html#a9d52932765ff17fd522e88807308b63c" target="_top" xlink:title="Get the number of members in the MetaDisk or zero if not a MetaDisk.">
<polygon fill="none" stroke="black" points="397,-88.5 397,-118.5 540,-118.5 540,-88.5 397,-88.5"/>
<text text-anchor="start" x="405" y="-106.5" font-family="Helvetica,sans-Serif" font-size="10.00">leanux::block::MajorMinor</text>
<text text-anchor="middle" x="468.5" y="-95.5" font-family="Helvetica,sans-Serif" font-size="10.00">::getMDDevices</text>
</a>
</g>
</g>
<!-- Node1&#45;&gt;Node31 -->
<g id="edge20" class="edge">
<title>Node1&#45;&gt;Node31</title>
<path fill="none" stroke="midnightblue" d="M662.68,-377.92C658.27,-328.38 639.66,-197.14 564,-128.5 557.09,-122.23 548.78,-117.5 540,-113.94"/>
<polygon fill="midnightblue" stroke="midnightblue" points="659.2,-378.25 663.48,-387.94 666.18,-377.69 659.2,-378.25"/>
</g>
<!-- Node33 -->
<g id="node20" class="node">
<title>Node33</title>
<g id="a_node20"><a xlink:href="../../d7/d28/classleanux_1_1block_1_1MajorMinor.html#aba4faaf6914fd4c4f02840b297e1de36" target="_top" xlink:title="get the minimum IO size the device supports.">
<polygon fill="none" stroke="black" points="397,-382.5 397,-412.5 540,-412.5 540,-382.5 397,-382.5"/>
<text text-anchor="start" x="405" y="-400.5" font-family="Helvetica,sans-Serif" font-size="10.00">leanux::block::MajorMinor</text>
<text text-anchor="middle" x="468.5" y="-389.5" font-family="Helvetica,sans-Serif" font-size="10.00">::getMinIOSize</text>
</a>
</g>
</g>
<!-- Node1&#45;&gt;Node33 -->
<g id="edge24" class="edge">
<title>Node1&#45;&gt;Node33</title>
<path fill="none" stroke="midnightblue" d="M589.75,-397.5C573.43,-397.5 556.2,-397.5 540.03,-397.5"/>
<polygon fill="midnightblue" stroke="midnightblue" points="589.77,-401 599.77,-397.5 589.77,-394 589.77,-401"/>
</g>
<!-- Node34 -->
<g id="node21" class="node">
<title>Node34</title>
<g id="a_node21"><a xlink:href="../../d7/d28/classleanux_1_1block_1_1MajorMinor.html#a80d3a92692140016ab3973ace30d65c2" target="_top" xlink:title="get the read&#45;ahead size for the device">
<polygon fill="none" stroke="black" points="397,-333.5 397,-363.5 540,-363.5 540,-333.5 397,-333.5"/>
<text text-anchor="start" x="405" y="-351.5" font-family="Helvetica,sans-Serif" font-size="10.00">leanux::block::MajorMinor</text>
<text text-anchor="middle" x="468.5" y="-340.5" font-family="Helvetica,sans-Serif" font-size="10.00">::getReadAhead</text>
</a>
</g>
</g>
<!-- Node1&#45;&gt;Node34 -->
<g id="edge26" class="edge">
<title>Node1&#45;&gt;Node34</title>
<path fill="none" stroke="midnightblue" d="M616.31,-385.49C590.03,-378.86 557.16,-370.58 529.19,-363.54"/>
<polygon fill="midnightblue" stroke="midnightblue" points="615.48,-388.89 626.04,-387.94 617.19,-382.1 615.48,-388.89"/>
</g>
<!-- Node35 -->
<g id="node22" class="node">
<title>Node35</title>
<g id="a_node22"><a xlink:href="../../d7/d28/classleanux_1_1block_1_1MajorMinor.html#a89962016f65109842c3941fa188eae95" target="_top" xlink:title="get the device sector size.">
<polygon fill="none" stroke="black" points="397,-137.5 397,-167.5 540,-167.5 540,-137.5 397,-137.5"/>
<text text-anchor="start" x="405" y="-155.5" font-family="Helvetica,sans-Serif" font-size="10.00">leanux::block::MajorMinor</text>
<text text-anchor="middle" x="468.5" y="-144.5" font-family="Helvetica,sans-Serif" font-size="10.00">::getSectorSize</text>
</a>
</g>
</g>
<!-- Node1&#45;&gt;Node35 -->
<g id="edge28" class="edge">
<title>Node1&#45;&gt;Node35</title>
<path fill="none" stroke="midnightblue" d="M660.84,-377.78C652.88,-334.64 627.85,-231.43 564,-177.5 557,-171.59 548.75,-167.06 540.08,-163.59"/>
<polygon fill="midnightblue" stroke="midnightblue" points="657.43,-378.57 662.59,-387.83 664.33,-377.38 657.43,-378.57"/>
</g>
<!-- Node42 -->
<g id="node25" class="node">
<title>Node42</title>
<g id="a_node25"><a xlink:href="../../d7/d28/classleanux_1_1block_1_1MajorMinor.html#ac2eb74dd60914d3e34e73fd0c7125de8" target="_top" xlink:title="Return the size (capacity) of the device in bytes.">
<polygon fill="none" stroke="black" points="397,-186.5 397,-216.5 540,-216.5 540,-186.5 397,-186.5"/>
<text text-anchor="start" x="405" y="-204.5" font-family="Helvetica,sans-Serif" font-size="10.00">leanux::block::MajorMinor</text>
<text text-anchor="middle" x="468.5" y="-193.5" font-family="Helvetica,sans-Serif" font-size="10.00">::getSize</text>
</a>
</g>
</g>
<!-- Node1&#45;&gt;Node42 -->
<g id="edge32" class="edge">
<title>Node1&#45;&gt;Node42</title>
<path fill="none" stroke="midnightblue" d="M658.25,-378.34C646.57,-342.77 616.6,-266.49 564,-226.5 556.84,-221.06 548.59,-216.79 540.02,-213.46"/>
<polygon fill="midnightblue" stroke="midnightblue" points="654.95,-379.51 661.3,-387.99 661.63,-377.4 654.95,-379.51"/>
</g>
<!-- Node3 -->
<g id="node3" class="node">
<title>Node3</title>
<g id="a_node3"><a xlink:href="../../d5/d03/classleanux_1_1tools_1_1lard_1_1CPUSnap.html#a08144ea8cd0e5e5ff868278abc111f44" target="_top" xlink:title=" ">
<polygon fill="none" stroke="red" points="177.5,-670.5 177.5,-700.5 299.5,-700.5 299.5,-670.5 177.5,-670.5"/>
<text text-anchor="start" x="185.5" y="-688.5" font-family="Helvetica,sans-Serif" font-size="10.00">leanux::tools::lard</text>
<text text-anchor="middle" x="238.5" y="-677.5" font-family="Helvetica,sans-Serif" font-size="10.00">::CPUSnap::storeSnap</text>
</a>
</g>
</g>
<!-- Node2&#45;&gt;Node3 -->
<g id="edge2" class="edge">
<title>Node2&#45;&gt;Node3</title>
<path fill="none" stroke="midnightblue" d="M385.1,-689.97C356.87,-689.1 325.84,-688.15 299.7,-687.35"/>
<polygon fill="midnightblue" stroke="midnightblue" points="385.26,-693.48 395.36,-690.29 385.47,-686.48 385.26,-693.48"/>
</g>
<!-- Node7&#45;&gt;Node3 -->
<g id="edge4" class="edge">
<title>Node7&#45;&gt;Node3</title>
<path fill="none" stroke="midnightblue" d="M387.48,-665.38C358.63,-669.3 326.57,-673.66 299.7,-677.32"/>
<polygon fill="midnightblue" stroke="midnightblue" points="388.11,-668.83 397.54,-664.01 387.16,-661.89 388.11,-668.83"/>
</g>
<!-- Node9 -->
<g id="node6" class="node">
<title>Node9</title>
<g id="a_node6"><a xlink:href="../../d6/dd3/namespaceleanux_1_1tools_1_1lrep.html#aa664245209dbbb081139c961a4c6d878" target="_top" xlink:title="generate system details html.">
<polygon fill="none" stroke="red" points="180.5,-559.5 180.5,-589.5 296.5,-589.5 296.5,-559.5 180.5,-559.5"/>
<text text-anchor="start" x="188.5" y="-577.5" font-family="Helvetica,sans-Serif" font-size="10.00">leanux::tools::lrep</text>
<text text-anchor="middle" x="238.5" y="-566.5" font-family="Helvetica,sans-Serif" font-size="10.00">::htmlSystemDetails</text>
</a>
</g>
</g>
<!-- Node8&#45;&gt;Node9 -->
<g id="edge6" class="edge">
<title>Node8&#45;&gt;Node9</title>
<path fill="none" stroke="midnightblue" d="M405.5,-605.08C371.55,-598.83 329.78,-591.13 296.63,-585.02"/>
<polygon fill="midnightblue" stroke="midnightblue" points="405.29,-608.6 415.76,-606.97 406.56,-601.72 405.29,-608.6"/>
</g>
<!-- Node12 -->
<g id="node7" class="node">
<title>Node12</title>
<g id="a_node7"><a xlink:href="../../da/d21/classleanux_1_1tools_1_1lmon_1_1RealtimeSampler.html#a8de42eb5d528bfa157565a81a16ae5bd" target="_top" xlink:title=" ">
<polygon fill="none" stroke="red" points="140,-608.5 140,-638.5 337,-638.5 337,-608.5 140,-608.5"/>
<text text-anchor="start" x="148" y="-626.5" font-family="Helvetica,sans-Serif" font-size="10.00">leanux::tools::lmon</text>
<text text-anchor="middle" x="238.5" y="-615.5" font-family="Helvetica,sans-Serif" font-size="10.00">::RealtimeSampler::sampleXSysView</text>
</a>
</g>
</g>
<!-- Node8&#45;&gt;Node12 -->
<g id="edge7" class="edge">
<title>Node8&#45;&gt;Node12</title>
<path fill="none" stroke="midnightblue" d="M379.01,-619.22C365.34,-619.64 351.15,-620.07 337.29,-620.5"/>
<polygon fill="midnightblue" stroke="midnightblue" points="379.47,-622.7 389.35,-618.9 379.25,-615.71 379.47,-622.7"/>
</g>
<!-- Node21 -->
<g id="node11" class="node">
<title>Node21</title>
<g id="a_node11"><a xlink:href="../../dc/d32/namespaceleanux_1_1vmem.html#ab18065f52780cb0cbf8c13ce06bb3d8d" target="_top" xlink:title=" ">
<polygon fill="none" stroke="black" points="151,-451 151,-470 326,-470 326,-451 151,-451"/>
<text text-anchor="middle" x="238.5" y="-458" font-family="Helvetica,sans-Serif" font-size="10.00">leanux::vmem::getDirtyPressure</text>
</a>
</g>
</g>
<!-- Node20&#45;&gt;Node21 -->
<g id="edge11" class="edge">
<title>Node20&#45;&gt;Node21</title>
<path fill="none" stroke="midnightblue" d="M377.37,-471.99C360.52,-470.58 342.94,-469.12 326.19,-467.72"/>
<polygon fill="midnightblue" stroke="midnightblue" points="377.5,-475.51 387.76,-472.85 378.08,-468.54 377.5,-475.51"/>
</g>
<!-- Node22&#45;&gt;Node21 -->
<g id="edge13" class="edge">
<title>Node22&#45;&gt;Node21</title>
<path fill="none" stroke="midnightblue" d="M379.21,-448.86C361.78,-450.31 343.51,-451.83 326.14,-453.28"/>
<polygon fill="midnightblue" stroke="midnightblue" points="379.68,-452.33 389.35,-448.01 379.1,-445.35 379.68,-452.33"/>
</g>
<!-- Node24 -->
<g id="node14" class="node">
<title>Node24</title>
<g id="a_node14"><a xlink:href="../../d5/d1b/namespaceleanux_1_1tools_1_1lblk.html#ac57ae7d9a91a4259052d4ae1da5a36a2" target="_top" xlink:title="Write LVM details.">
<polygon fill="none" stroke="red" points="186.5,-279.5 186.5,-309.5 290.5,-309.5 290.5,-279.5 186.5,-279.5"/>
<text text-anchor="start" x="194.5" y="-297.5" font-family="Helvetica,sans-Serif" font-size="10.00">leanux::tools::lblk</text>
<text text-anchor="middle" x="238.5" y="-286.5" font-family="Helvetica,sans-Serif" font-size="10.00">::detailLVM</text>
</a>
</g>
</g>
<!-- Node23&#45;&gt;Node24 -->
<g id="edge15" class="edge">
<title>Node23&#45;&gt;Node24</title>
<path fill="none" stroke="midnightblue" d="M386.68,-297.73C354.68,-297.03 318.87,-296.24 290.58,-295.62"/>
<polygon fill="midnightblue" stroke="midnightblue" points="386.85,-301.23 396.92,-297.95 387,-294.23 386.85,-301.23"/>
</g>
<!-- Node28&#45;&gt;Node24 -->
<g id="edge17" class="edge">
<title>Node28&#45;&gt;Node24</title>
<path fill="none" stroke="midnightblue" d="M387.1,-266.02C354.99,-272.21 318.99,-279.16 290.58,-284.64"/>
<polygon fill="midnightblue" stroke="midnightblue" points="387.77,-269.45 396.92,-264.12 386.44,-262.58 387.77,-269.45"/>
</g>
<!-- Node30 -->
<g id="node17" class="node">
<title>Node30</title>
<g id="a_node17"><a xlink:href="../../d5/d1b/namespaceleanux_1_1tools_1_1lblk.html#a3ed79ca6c9f478be774a6d9f4a4cb016" target="_top" xlink:title="Write MetaDisk details.">
<polygon fill="none" stroke="red" points="0,-66.5 0,-96.5 104,-96.5 104,-66.5 0,-66.5"/>
<text text-anchor="start" x="8" y="-84.5" font-family="Helvetica,sans-Serif" font-size="10.00">leanux::tools::lblk</text>
<text text-anchor="middle" x="52" y="-73.5" font-family="Helvetica,sans-Serif" font-size="10.00">::detailMetaDisk</text>
</a>
</g>
</g>
<!-- Node29&#45;&gt;Node30 -->
<g id="edge19" class="edge">
<title>Node29&#45;&gt;Node30</title>
<path fill="none" stroke="midnightblue" d="M175.5,-33.62C163.65,-37.35 151.39,-41.4 140,-45.5 122.47,-51.81 103.3,-59.64 87.42,-66.38"/>
<polygon fill="midnightblue" stroke="midnightblue" points="176.83,-36.87 185.34,-30.56 174.75,-30.19 176.83,-36.87"/>
</g>
<!-- Node31&#45;&gt;Node30 -->
<g id="edge21" class="edge">
<title>Node31&#45;&gt;Node30</title>
<path fill="none" stroke="midnightblue" d="M392.27,-86.57C374.25,-83.22 355.02,-80.21 337,-78.5 249.84,-70.23 227.54,-76.99 140,-78.5 128.36,-78.7 115.86,-79.05 104.06,-79.45"/>
<polygon fill="midnightblue" stroke="midnightblue" points="391.65,-90.02 402.13,-88.47 392.97,-83.15 391.65,-90.02"/>
</g>
<!-- Node32 -->
<g id="node19" class="node">
<title>Node32</title>
<g id="a_node19"><a xlink:href="../../d7/d28/classleanux_1_1block_1_1MajorMinor.html#a26a2363b1eea927b6ebb4aad44dea876" target="_top" xlink:title="Get a pretty&#45;print description for the device.">
<polygon fill="none" stroke="black" points="167,-88.5 167,-118.5 310,-118.5 310,-88.5 167,-88.5"/>
<text text-anchor="start" x="175" y="-106.5" font-family="Helvetica,sans-Serif" font-size="10.00">leanux::block::MajorMinor</text>
<text text-anchor="middle" x="238.5" y="-95.5" font-family="Helvetica,sans-Serif" font-size="10.00">::getDescription</text>
</a>
</g>
</g>
<!-- Node31&#45;&gt;Node32 -->
<g id="edge22" class="edge">
<title>Node31&#45;&gt;Node32</title>
<path fill="none" stroke="midnightblue" d="M386.73,-103.5C361.73,-103.5 334.4,-103.5 310.14,-103.5"/>
<polygon fill="midnightblue" stroke="midnightblue" points="386.92,-107 396.92,-103.5 386.92,-100 386.92,-107"/>
</g>
<!-- Node32&#45;&gt;Node30 -->
<g id="edge23" class="edge">
<title>Node32&#45;&gt;Node30</title>
<path fill="none" stroke="midnightblue" d="M156.79,-93.88C138.86,-91.74 120.35,-89.53 104,-87.58"/>
<polygon fill="midnightblue" stroke="midnightblue" points="156.61,-97.38 166.96,-95.09 157.44,-90.43 156.61,-97.38"/>
</g>
<!-- Node33&#45;&gt;Node24 -->
<g id="edge25" class="edge">
<title>Node33&#45;&gt;Node24</title>
<path fill="none" stroke="midnightblue" d="M388.81,-379.36C383.4,-377.55 378.09,-375.6 373,-373.5 330.93,-356.13 286.23,-327.27 260.7,-309.65"/>
<polygon fill="midnightblue" stroke="midnightblue" points="388.02,-382.78 398.61,-382.47 390.14,-376.11 388.02,-382.78"/>
</g>
<!-- Node34&#45;&gt;Node24 -->
<g id="edge27" class="edge">
<title>Node34&#45;&gt;Node24</title>
<path fill="none" stroke="midnightblue" d="M394.18,-331.13C360.46,-323.15 321.28,-313.87 290.79,-306.65"/>
<polygon fill="midnightblue" stroke="midnightblue" points="393.45,-334.56 403.99,-333.46 395.07,-327.75 393.45,-334.56"/>
</g>
<!-- Node35&#45;&gt;Node24 -->
<g id="edge29" class="edge">
<title>Node35&#45;&gt;Node24</title>
<path fill="none" stroke="midnightblue" d="M386.94,-169.61C382.05,-171.91 377.36,-174.53 373,-177.5 350.66,-192.71 356.34,-207.63 337,-226.5 315.43,-247.54 286.75,-266.7 266.09,-279.28"/>
<polygon fill="midnightblue" stroke="midnightblue" points="388.68,-172.67 396.52,-165.55 385.95,-166.23 388.68,-172.67"/>
</g>
<!-- Node36 -->
<g id="node23" class="node">
<title>Node36</title>
<g id="a_node23"><a xlink:href="../../d9/d1f/namespaceleanux_1_1tools_1_1lsys.html#a4a56050ff78d8c77b6a699ff6d5aea50" target="_top" xlink:title="get named field attributes for the SysDevice.">
<polygon fill="none" stroke="red" points="186,-186.5 186,-216.5 291,-216.5 291,-186.5 186,-186.5"/>
<text text-anchor="start" x="194" y="-204.5" font-family="Helvetica,sans-Serif" font-size="10.00">leanux::tools::lsys</text>
<text text-anchor="middle" x="238.5" y="-193.5" font-family="Helvetica,sans-Serif" font-size="10.00">::getLeafColStr</text>
</a>
</g>
</g>
<!-- Node35&#45;&gt;Node36 -->
<g id="edge30" class="edge">
<title>Node35&#45;&gt;Node36</title>
<path fill="none" stroke="midnightblue" d="M387.74,-169.64C355.72,-176.52 319.72,-184.26 291.21,-190.39"/>
<polygon fill="midnightblue" stroke="midnightblue" points="388.5,-173.06 397.54,-167.53 387.03,-166.21 388.5,-173.06"/>
</g>
<!-- Node41 -->
<g id="node24" class="node">
<title>Node41</title>
<g id="a_node24"><a xlink:href="../../d8/d7f/classleanux_1_1tools_1_1lmon_1_1IOView.html#aecbc3e2f27badac1ece4881eb58f2961" target="_top" xlink:title="Get sector size through sector_size_cache_.">
<polygon fill="none" stroke="black" points="174,-137.5 174,-167.5 303,-167.5 303,-137.5 174,-137.5"/>
<text text-anchor="start" x="182" y="-155.5" font-family="Helvetica,sans-Serif" font-size="10.00">leanux::tools::lmon</text>
<text text-anchor="middle" x="238.5" y="-144.5" font-family="Helvetica,sans-Serif" font-size="10.00">::IOView::getSectorSize</text>
</a>
</g>
</g>
<!-- Node35&#45;&gt;Node41 -->
<g id="edge31" class="edge">
<title>Node35&#45;&gt;Node41</title>
<path fill="none" stroke="midnightblue" d="M386.58,-152.5C359.19,-152.5 329.02,-152.5 303.17,-152.5"/>
<polygon fill="midnightblue" stroke="midnightblue" points="386.92,-156 396.92,-152.5 386.92,-149 386.92,-156"/>
</g>
<!-- Node42&#45;&gt;Node24 -->
<g id="edge33" class="edge">
<title>Node42&#45;&gt;Node24</title>
<path fill="none" stroke="midnightblue" d="M387.26,-219.75C382.33,-221.78 377.54,-224.02 373,-226.5 353.95,-236.91 355.58,-248.28 337,-259.5 322.76,-268.1 306.08,-275.05 290.58,-280.43"/>
<polygon fill="midnightblue" stroke="midnightblue" points="388.76,-222.92 396.87,-216.1 386.28,-216.38 388.76,-222.92"/>
</g>
<!-- Node42&#45;&gt;Node30 -->
<g id="edge34" class="edge">
<title>Node42&#45;&gt;Node30</title>
<path fill="none" stroke="midnightblue" d="M392.27,-218.43C374.25,-221.78 355.02,-224.79 337,-226.5 249.84,-234.77 216.19,-269.64 140,-226.5 89.67,-198.01 65.28,-127.5 56.71,-96.51"/>
<polygon fill="midnightblue" stroke="midnightblue" points="392.97,-221.85 402.13,-216.53 391.65,-214.98 392.97,-221.85"/>
</g>
<!-- Node42&#45;&gt;Node36 -->
<g id="edge35" class="edge">
<title>Node42&#45;&gt;Node36</title>
<path fill="none" stroke="midnightblue" d="M386.76,-201.5C355.01,-201.5 319.49,-201.5 291.29,-201.5"/>
<polygon fill="midnightblue" stroke="midnightblue" points="386.92,-205 396.92,-201.5 386.92,-198 386.92,-205"/>
</g>
</g>
</svg>
