<?xml version="1.0" encoding="UTF-8" standalone="no"?>
<!DOCTYPE svg PUBLIC "-//W3C//DTD SVG 1.1//EN"
 "http://www.w3.org/Graphics/SVG/1.1/DTD/svg11.dtd">
<!-- Generated by graphviz version 2.43.0 (0)
 -->
<!-- Title: leanux::util::TimeStrSec Pages: 1 -->
<svg width="576pt" height="504pt"
 viewBox="0.00 0.00 576.00 504.00" xmlns="http://www.w3.org/2000/svg" xmlns:xlink="http://www.w3.org/1999/xlink">
<g id="graph0" class="graph" transform="scale(1 1) rotate(0) translate(4 500)">
<title>leanux::util::TimeStrSec</title>
<!-- Node1 -->
<g id="node1" class="node">
<title>Node1</title>
<g id="a_node1"><a xlink:title="convert a time duration in seconds to a pretty print string.">
<polygon fill="#bfbfbf" stroke="black" points="435,-246 435,-265 568,-265 568,-246 435,-246"/>
<text text-anchor="middle" x="501.5" y="-253" font-family="Helvetica,sans-Serif" font-size="10.00">leanux::util::TimeStrSec</text>
</a>
</g>
</g>
<!-- Node2 -->
<g id="node2" class="node">
<title>Node2</title>
<g id="a_node2"><a xlink:href="../../d5/d1b/namespaceleanux_1_1tools_1_1lblk.html#ade16c362a9900ba9267433bf57da42ce" target="_top" xlink:title="Write disk details.">
<polygon fill="none" stroke="black" points="143,-465.5 143,-495.5 247,-495.5 247,-465.5 143,-465.5"/>
<text text-anchor="start" x="151" y="-483.5" font-family="Helvetica,sans-Serif" font-size="10.00">leanux::tools::lblk</text>
<text text-anchor="middle" x="195" y="-472.5" font-family="Helvetica,sans-Serif" font-size="10.00">::detailDisk</text>
</a>
</g>
</g>
<!-- Node1&#45;&gt;Node2 -->
<g id="edge1" class="edge">
<title>Node1&#45;&gt;Node2</title>
<path fill="none" stroke="midnightblue" d="M497.28,-275.35C489.25,-317.7 464.1,-416.66 399,-461.5 354.69,-492.02 291.43,-493 247.35,-488.75"/>
<polygon fill="midnightblue" stroke="midnightblue" points="500.73,-275.9 499.03,-265.44 493.84,-274.67 500.73,-275.9"/>
</g>
<!-- Node6 -->
<g id="node4" class="node">
<title>Node6</title>
<g id="a_node4"><a xlink:href="../../d9/d1f/namespaceleanux_1_1tools_1_1lsys.html#a4a56050ff78d8c77b6a699ff6d5aea50" target="_top" xlink:title="get named field attributes for the SysDevice.">
<polygon fill="none" stroke="black" points="290,-421.5 290,-451.5 395,-451.5 395,-421.5 290,-421.5"/>
<text text-anchor="start" x="298" y="-439.5" font-family="Helvetica,sans-Serif" font-size="10.00">leanux::tools::lsys</text>
<text text-anchor="middle" x="342.5" y="-428.5" font-family="Helvetica,sans-Serif" font-size="10.00">::getLeafColStr</text>
</a>
</g>
</g>
<!-- Node1&#45;&gt;Node6 -->
<g id="edge3" class="edge">
<title>Node1&#45;&gt;Node6</title>
<path fill="none" stroke="midnightblue" d="M492.63,-274.62C478.4,-307.04 445.51,-373.12 399,-412.5 394.99,-415.89 390.44,-418.87 385.69,-421.48"/>
<polygon fill="midnightblue" stroke="midnightblue" points="496.02,-275.57 496.73,-265 489.59,-272.83 496.02,-275.57"/>
</g>
<!-- Node11 -->
<g id="node6" class="node">
<title>Node11</title>
<g id="a_node6"><a xlink:href="../../d6/dd3/namespaceleanux_1_1tools_1_1lrep.html#a384d81710e5679d3434f91ced802aa5c" target="_top" xlink:title=" ">
<polygon fill="none" stroke="black" points="290.5,-372.5 290.5,-402.5 394.5,-402.5 394.5,-372.5 290.5,-372.5"/>
<text text-anchor="start" x="298.5" y="-390.5" font-family="Helvetica,sans-Serif" font-size="10.00">leanux::tools::lrep</text>
<text text-anchor="middle" x="342.5" y="-379.5" font-family="Helvetica,sans-Serif" font-size="10.00">::htmlSnapDetails</text>
</a>
</g>
</g>
<!-- Node1&#45;&gt;Node11 -->
<g id="edge5" class="edge">
<title>Node1&#45;&gt;Node11</title>
<path fill="none" stroke="midnightblue" d="M486.05,-272.88C467.47,-294.51 433.45,-331.76 399,-357.5 391.72,-362.94 383.32,-368.01 375.3,-372.37"/>
<polygon fill="midnightblue" stroke="midnightblue" points="488.81,-275.04 492.6,-265.15 483.47,-270.51 488.81,-275.04"/>
</g>
<!-- Node12 -->
<g id="node7" class="node">
<title>Node12</title>
<g id="a_node7"><a xlink:href="../../d6/dd3/namespaceleanux_1_1tools_1_1lrep.html#aa0e1422d8d75831ea3801ffa728bf436" target="_top" xlink:title=" ">
<polygon fill="none" stroke="red" points="143,-328.5 143,-358.5 247,-358.5 247,-328.5 143,-328.5"/>
<text text-anchor="start" x="151" y="-346.5" font-family="Helvetica,sans-Serif" font-size="10.00">leanux::tools::lrep</text>
<text text-anchor="middle" x="195" y="-335.5" font-family="Helvetica,sans-Serif" font-size="10.00">::main</text>
</a>
</g>
</g>
<!-- Node1&#45;&gt;Node12 -->
<g id="edge11" class="edge">
<title>Node1&#45;&gt;Node12</title>
<path fill="none" stroke="midnightblue" d="M482.64,-271.85C463.51,-288.28 431.49,-312.82 399,-324.5 349.54,-342.29 289.15,-345.83 247.16,-345.67"/>
<polygon fill="midnightblue" stroke="midnightblue" points="485.06,-274.38 490.25,-265.15 480.43,-269.13 485.06,-274.38"/>
</g>
<!-- Node14 -->
<g id="node8" class="node">
<title>Node14</title>
<g id="a_node8"><a xlink:href="../../d6/dd3/namespaceleanux_1_1tools_1_1lrep.html#a6f351b4134bb9689630c092625774c9d" target="_top" xlink:title=" ">
<polygon fill="none" stroke="black" points="290.5,-284.5 290.5,-314.5 394.5,-314.5 394.5,-284.5 290.5,-284.5"/>
<text text-anchor="start" x="298.5" y="-302.5" font-family="Helvetica,sans-Serif" font-size="10.00">leanux::tools::lrep</text>
<text text-anchor="middle" x="342.5" y="-291.5" font-family="Helvetica,sans-Serif" font-size="10.00">::htmlTimeLines</text>
</a>
</g>
</g>
<!-- Node1&#45;&gt;Node14 -->
<g id="edge7" class="edge">
<title>Node1&#45;&gt;Node14</title>
<path fill="none" stroke="midnightblue" d="M456.69,-267.78C437.38,-273.19 414.58,-279.58 394.51,-285.2"/>
<polygon fill="midnightblue" stroke="midnightblue" points="457.75,-271.12 466.43,-265.05 455.86,-264.38 457.75,-271.12"/>
</g>
<!-- Node15 -->
<g id="node9" class="node">
<title>Node15</title>
<g id="a_node9"><a xlink:href="../../d5/d1b/namespaceleanux_1_1tools_1_1lblk.html#a73d92bf0717d3dece131f9cf718de164" target="_top" xlink:title="Table listing all disks.">
<polygon fill="none" stroke="black" points="143,-279.5 143,-309.5 247,-309.5 247,-279.5 143,-279.5"/>
<text text-anchor="start" x="151" y="-297.5" font-family="Helvetica,sans-Serif" font-size="10.00">leanux::tools::lblk</text>
<text text-anchor="middle" x="195" y="-286.5" font-family="Helvetica,sans-Serif" font-size="10.00">::listAllDisks</text>
</a>
</g>
</g>
<!-- Node1&#45;&gt;Node15 -->
<g id="edge9" class="edge">
<title>Node1&#45;&gt;Node15</title>
<path fill="none" stroke="midnightblue" d="M424.33,-260.46C383.22,-263.67 331.68,-268.57 286,-275.5 273.37,-277.42 259.84,-279.99 247.22,-282.62"/>
<polygon fill="midnightblue" stroke="midnightblue" points="424.84,-263.93 434.55,-259.68 424.31,-256.95 424.84,-263.93"/>
</g>
<!-- Node16 -->
<g id="node10" class="node">
<title>Node16</title>
<g id="a_node10"><a xlink:href="../../d5/d1b/namespaceleanux_1_1tools_1_1lblk.html#a0ce6fe01f37dc9d73d699030825432be" target="_top" xlink:title="Write the tree of holders above and including mm, append to tab, starting with level.">
<polygon fill="none" stroke="black" points="290.5,-196.5 290.5,-226.5 394.5,-226.5 394.5,-196.5 290.5,-196.5"/>
<text text-anchor="start" x="298.5" y="-214.5" font-family="Helvetica,sans-Serif" font-size="10.00">leanux::tools::lblk</text>
<text text-anchor="middle" x="342.5" y="-203.5" font-family="Helvetica,sans-Serif" font-size="10.00">::printHolderTree</text>
</a>
</g>
</g>
<!-- Node1&#45;&gt;Node16 -->
<g id="edge12" class="edge">
<title>Node1&#45;&gt;Node16</title>
<path fill="none" stroke="midnightblue" d="M456.69,-243.22C437.38,-237.81 414.58,-231.42 394.51,-225.8"/>
<polygon fill="midnightblue" stroke="midnightblue" points="455.86,-246.62 466.43,-245.95 457.75,-239.88 455.86,-246.62"/>
</g>
<!-- Node18 -->
<g id="node12" class="node">
<title>Node18</title>
<g id="a_node12"><a xlink:href="../../d5/d1b/namespaceleanux_1_1tools_1_1lblk.html#a514a93d2172ba20b92f77ba1062d822c" target="_top" xlink:title="Write the tree of slaves beneath and including mm, append to tab, starting with level.">
<polygon fill="none" stroke="black" points="290.5,-147.5 290.5,-177.5 394.5,-177.5 394.5,-147.5 290.5,-147.5"/>
<text text-anchor="start" x="298.5" y="-165.5" font-family="Helvetica,sans-Serif" font-size="10.00">leanux::tools::lblk</text>
<text text-anchor="middle" x="342.5" y="-154.5" font-family="Helvetica,sans-Serif" font-size="10.00">::printSlaveTree</text>
</a>
</g>
</g>
<!-- Node1&#45;&gt;Node18 -->
<g id="edge16" class="edge">
<title>Node1&#45;&gt;Node18</title>
<path fill="none" stroke="midnightblue" d="M480.11,-239.94C460.12,-225.11 428.44,-202.68 399,-186.5 393.3,-183.36 387.1,-180.34 380.98,-177.56"/>
<polygon fill="midnightblue" stroke="midnightblue" points="478.07,-242.79 488.17,-245.99 482.27,-237.19 478.07,-242.79"/>
</g>
<!-- Node20 -->
<g id="node14" class="node">
<title>Node20</title>
<g id="a_node14"><a xlink:href="../../d5/de6/classleanux_1_1tools_1_1lmon_1_1Screen.html#a010f9459d506af3a4251ea0a644282bd" target="_top" xlink:title="Run the Screen in history mode.">
<polygon fill="none" stroke="black" points="286,-98.5 286,-128.5 399,-128.5 399,-98.5 286,-98.5"/>
<text text-anchor="start" x="294" y="-116.5" font-family="Helvetica,sans-Serif" font-size="10.00">leanux::tools::lmon</text>
<text text-anchor="middle" x="342.5" y="-105.5" font-family="Helvetica,sans-Serif" font-size="10.00">::Screen::runHistory</text>
</a>
</g>
</g>
<!-- Node1&#45;&gt;Node20 -->
<g id="edge21" class="edge">
<title>Node1&#45;&gt;Node20</title>
<path fill="none" stroke="midnightblue" d="M488.83,-237.35C471.77,-212.04 437.79,-166.04 399,-137.5 394.52,-134.2 389.51,-131.24 384.39,-128.62"/>
<polygon fill="midnightblue" stroke="midnightblue" points="486.08,-239.54 494.52,-245.96 491.93,-235.68 486.08,-239.54"/>
</g>
<!-- Node23 -->
<g id="node16" class="node">
<title>Node23</title>
<g id="a_node16"><a xlink:href="../../da/d9f/classleanux_1_1tools_1_1lmon_1_1SysView.html#ad72b5ee6be63091f3d320a23721d5cb4" target="_top" xlink:title="refresh (redraw) the View.">
<polygon fill="none" stroke="black" points="287.5,-49.5 287.5,-79.5 397.5,-79.5 397.5,-49.5 287.5,-49.5"/>
<text text-anchor="start" x="295.5" y="-67.5" font-family="Helvetica,sans-Serif" font-size="10.00">leanux::tools::lmon</text>
<text text-anchor="middle" x="342.5" y="-56.5" font-family="Helvetica,sans-Serif" font-size="10.00">::SysView::xrefresh</text>
</a>
</g>
</g>
<!-- Node1&#45;&gt;Node23 -->
<g id="edge23" class="edge">
<title>Node1&#45;&gt;Node23</title>
<path fill="none" stroke="midnightblue" d="M493.33,-236.09C479.81,-201.94 447.49,-130.72 399,-88.5 395.12,-85.12 390.69,-82.16 386.07,-79.57"/>
<polygon fill="midnightblue" stroke="midnightblue" points="490.2,-237.71 497.05,-245.79 496.73,-235.2 490.2,-237.71"/>
</g>
<!-- Node24 -->
<g id="node17" class="node">
<title>Node24</title>
<g id="a_node17"><a xlink:href="../../d8/d7f/classleanux_1_1tools_1_1lmon_1_1IOView.html#ad5d8db29927cc18e861cfa5ba48ecd94" target="_top" xlink:title="refresh (redraw) the View.">
<polygon fill="none" stroke="black" points="287.5,-0.5 287.5,-30.5 397.5,-30.5 397.5,-0.5 287.5,-0.5"/>
<text text-anchor="start" x="295.5" y="-18.5" font-family="Helvetica,sans-Serif" font-size="10.00">leanux::tools::lmon</text>
<text text-anchor="middle" x="342.5" y="-7.5" font-family="Helvetica,sans-Serif" font-size="10.00">::IOView::xrefresh</text>
</a>
</g>
</g>
<!-- Node1&#45;&gt;Node24 -->
<g id="edge24" class="edge">
<title>Node1&#45;&gt;Node24</title>
<path fill="none" stroke="midnightblue" d="M496.28,-235.97C486.37,-194.45 457.86,-96.56 399,-39.5 395.46,-36.07 391.34,-33.08 386.99,-30.5"/>
<polygon fill="midnightblue" stroke="midnightblue" points="492.91,-236.92 498.55,-245.89 499.73,-235.36 492.91,-236.92"/>
</g>
<!-- Node3 -->
<g id="node3" class="node">
<title>Node3</title>
<g id="a_node3"><a xlink:href="../../d5/d1b/namespaceleanux_1_1tools_1_1lblk.html#aafee1346a1081bfa4f7470f921cd66b8" target="_top" xlink:title="Direct output run from options.">
<polygon fill="none" stroke="red" points="0,-213.5 0,-243.5 104,-243.5 104,-213.5 0,-213.5"/>
<text text-anchor="start" x="8" y="-231.5" font-family="Helvetica,sans-Serif" font-size="10.00">leanux::tools::lblk</text>
<text text-anchor="middle" x="52" y="-220.5" font-family="Helvetica,sans-Serif" font-size="10.00">::runOptions</text>
</a>
</g>
</g>
<!-- Node2&#45;&gt;Node3 -->
<g id="edge2" class="edge">
<title>Node2&#45;&gt;Node3</title>
<path fill="none" stroke="midnightblue" d="M142.87,-459.28C141.87,-458.39 140.91,-457.46 140,-456.5 79.82,-393 60.12,-283.59 54.75,-243.65"/>
<polygon fill="midnightblue" stroke="midnightblue" points="141.05,-462.29 151.16,-465.46 145.23,-456.68 141.05,-462.29"/>
</g>
<!-- Node7 -->
<g id="node5" class="node">
<title>Node7</title>
<g id="a_node5"><a xlink:href="../../d9/d1f/namespaceleanux_1_1tools_1_1lsys.html#ad858cdc5736e1be415f25fdaec024b58" target="_top" xlink:title="list devices, filtered if opt_t is set.">
<polygon fill="none" stroke="red" points="142.5,-416.5 142.5,-446.5 247.5,-446.5 247.5,-416.5 142.5,-416.5"/>
<text text-anchor="start" x="150.5" y="-434.5" font-family="Helvetica,sans-Serif" font-size="10.00">leanux::tools::lsys</text>
<text text-anchor="middle" x="195" y="-423.5" font-family="Helvetica,sans-Serif" font-size="10.00">::listDevices</text>
</a>
</g>
</g>
<!-- Node6&#45;&gt;Node7 -->
<g id="edge4" class="edge">
<title>Node6&#45;&gt;Node7</title>
<path fill="none" stroke="midnightblue" d="M279.66,-434.37C268.96,-434.01 257.93,-433.63 247.54,-433.27"/>
<polygon fill="midnightblue" stroke="midnightblue" points="279.68,-437.88 289.79,-434.72 279.92,-430.88 279.68,-437.88"/>
</g>
<!-- Node11&#45;&gt;Node12 -->
<g id="edge6" class="edge">
<title>Node11&#45;&gt;Node12</title>
<path fill="none" stroke="midnightblue" d="M281.93,-369.49C269.98,-365.87 257.53,-362.11 245.94,-358.6"/>
<polygon fill="midnightblue" stroke="midnightblue" points="281.25,-372.94 291.83,-372.48 283.28,-366.24 281.25,-372.94"/>
</g>
<!-- Node14&#45;&gt;Node12 -->
<g id="edge8" class="edge">
<title>Node14&#45;&gt;Node12</title>
<path fill="none" stroke="midnightblue" d="M281.93,-317.51C269.98,-321.13 257.53,-324.89 245.94,-328.4"/>
<polygon fill="midnightblue" stroke="midnightblue" points="283.28,-320.76 291.83,-314.52 281.25,-314.06 283.28,-320.76"/>
</g>
<!-- Node15&#45;&gt;Node3 -->
<g id="edge10" class="edge">
<title>Node15&#45;&gt;Node3</title>
<path fill="none" stroke="midnightblue" d="M152.43,-275.04C130.96,-264.99 105.14,-252.91 85.2,-243.57"/>
<polygon fill="midnightblue" stroke="midnightblue" points="151.11,-278.29 161.65,-279.36 154.08,-271.95 151.11,-278.29"/>
</g>
<!-- Node16&#45;&gt;Node3 -->
<g id="edge15" class="edge">
<title>Node16&#45;&gt;Node3</title>
<path fill="none" stroke="midnightblue" d="M280.49,-225.97C270.36,-227.85 259.93,-229.48 250,-230.5 200.67,-235.57 144.02,-234.25 104.17,-232.16"/>
<polygon fill="midnightblue" stroke="midnightblue" points="281.35,-229.37 290.49,-224.02 280.01,-222.5 281.35,-229.37"/>
</g>
<!-- Node17 -->
<g id="node11" class="node">
<title>Node17</title>
<g id="a_node11"><a xlink:href="../../d5/d1b/namespaceleanux_1_1tools_1_1lblk.html#a3ad2e43162ca1213c491e96d5d2a5a9c" target="_top" xlink:title="Table listing LVM devices.">
<polygon fill="none" stroke="black" points="143,-191.5 143,-221.5 247,-221.5 247,-191.5 143,-191.5"/>
<text text-anchor="start" x="151" y="-209.5" font-family="Helvetica,sans-Serif" font-size="10.00">leanux::tools::lblk</text>
<text text-anchor="middle" x="195" y="-198.5" font-family="Helvetica,sans-Serif" font-size="10.00">::listLVM</text>
</a>
</g>
</g>
<!-- Node16&#45;&gt;Node17 -->
<g id="edge13" class="edge">
<title>Node16&#45;&gt;Node17</title>
<path fill="none" stroke="midnightblue" d="M279.93,-209.38C269.07,-209.01 257.87,-208.63 247.33,-208.26"/>
<polygon fill="midnightblue" stroke="midnightblue" points="280.09,-212.89 290.2,-209.74 280.33,-205.9 280.09,-212.89"/>
</g>
<!-- Node17&#45;&gt;Node3 -->
<g id="edge14" class="edge">
<title>Node17&#45;&gt;Node3</title>
<path fill="none" stroke="midnightblue" d="M132.81,-216.05C123.21,-217.55 113.37,-219.08 104.03,-220.54"/>
<polygon fill="midnightblue" stroke="midnightblue" points="133.36,-219.5 142.7,-214.5 132.28,-212.59 133.36,-219.5"/>
</g>
<!-- Node18&#45;&gt;Node3 -->
<g id="edge20" class="edge">
<title>Node18&#45;&gt;Node3</title>
<path fill="none" stroke="midnightblue" d="M280.3,-161.96C239.72,-163.13 185.72,-167.62 140,-181.5 116.51,-188.63 92.12,-202.46 75.16,-213.28"/>
<polygon fill="midnightblue" stroke="midnightblue" points="280.4,-165.46 290.32,-161.73 280.24,-158.46 280.4,-165.46"/>
</g>
<!-- Node18&#45;&gt;Node17 -->
<g id="edge19" class="edge">
<title>Node18&#45;&gt;Node17</title>
<path fill="none" stroke="midnightblue" d="M281.93,-180.51C269.98,-184.13 257.53,-187.89 245.94,-191.4"/>
<polygon fill="midnightblue" stroke="midnightblue" points="283.28,-183.76 291.83,-177.52 281.25,-177.06 283.28,-183.76"/>
</g>
<!-- Node19 -->
<g id="node13" class="node">
<title>Node19</title>
<g id="a_node13"><a xlink:href="../../d5/d1b/namespaceleanux_1_1tools_1_1lblk.html#ae7d5c6185a714de483a152b1846eadcb" target="_top" xlink:title="Table listing all storage needed for the filesystem containing file.">
<polygon fill="none" stroke="black" points="143,-103.5 143,-133.5 247,-133.5 247,-103.5 143,-103.5"/>
<text text-anchor="start" x="151" y="-121.5" font-family="Helvetica,sans-Serif" font-size="10.00">leanux::tools::lblk</text>
<text text-anchor="middle" x="195" y="-110.5" font-family="Helvetica,sans-Serif" font-size="10.00">::listFile</text>
</a>
</g>
</g>
<!-- Node18&#45;&gt;Node19 -->
<g id="edge17" class="edge">
<title>Node18&#45;&gt;Node19</title>
<path fill="none" stroke="midnightblue" d="M281.93,-144.49C269.98,-140.87 257.53,-137.11 245.94,-133.6"/>
<polygon fill="midnightblue" stroke="midnightblue" points="281.25,-147.94 291.83,-147.48 283.28,-141.24 281.25,-147.94"/>
</g>
<!-- Node19&#45;&gt;Node3 -->
<g id="edge18" class="edge">
<title>Node19&#45;&gt;Node3</title>
<path fill="none" stroke="midnightblue" d="M155.09,-138.65C149.9,-141.76 144.73,-145.08 140,-148.5 112.22,-168.56 83.66,-196.49 67.16,-213.49"/>
<polygon fill="midnightblue" stroke="midnightblue" points="156.88,-141.66 163.8,-133.63 153.39,-135.59 156.88,-141.66"/>
</g>
<!-- Node21 -->
<g id="node15" class="node">
<title>Node21</title>
<g id="a_node15"><a xlink:href="../../da/dbe/namespaceleanux_1_1tools_1_1lmon.html#a7f59af183bc55b66e3dc0844b473daaf" target="_top" xlink:title=" ">
<polygon fill="none" stroke="red" points="140,-54.5 140,-84.5 250,-84.5 250,-54.5 140,-54.5"/>
<text text-anchor="start" x="148" y="-72.5" font-family="Helvetica,sans-Serif" font-size="10.00">leanux::tools::lmon</text>
<text text-anchor="middle" x="195" y="-61.5" font-family="Helvetica,sans-Serif" font-size="10.00">::main</text>
</a>
</g>
</g>
<!-- Node20&#45;&gt;Node21 -->
<g id="edge22" class="edge">
<title>Node20&#45;&gt;Node21</title>
<path fill="none" stroke="midnightblue" d="M281.93,-95.49C269.98,-91.87 257.53,-88.11 245.94,-84.6"/>
<polygon fill="midnightblue" stroke="midnightblue" points="281.25,-98.94 291.83,-98.48 283.28,-92.24 281.25,-98.94"/>
</g>
</g>
</svg>
