<?xml version="1.0" encoding="UTF-8" standalone="no"?>
<!DOCTYPE svg PUBLIC "-//W3C//DTD SVG 1.1//EN"
 "http://www.w3.org/Graphics/SVG/1.1/DTD/svg11.dtd">
<!-- Generated by graphviz version 2.43.0 (0)
 -->
<!-- Title: leanux::util::directoryExists Pages: 1 -->
<svg width="691pt" height="364pt"
 viewBox="0.00 0.00 691.00 364.00" xmlns="http://www.w3.org/2000/svg" xmlns:xlink="http://www.w3.org/1999/xlink">
<g id="graph0" class="graph" transform="scale(1 1) rotate(0) translate(4 360)">
<title>leanux::util::directoryExists</title>
<!-- Node1 -->
<g id="node1" class="node">
<title>Node1</title>
<g id="a_node1"><a xlink:title="Test if the path is an existing directory.">
<polygon fill="#bfbfbf" stroke="black" points="533,-170 533,-189 683,-189 683,-170 533,-170"/>
<text text-anchor="middle" x="608" y="-177" font-family="Helvetica,sans-Serif" font-size="10.00">leanux::util::directoryExists</text>
</a>
</g>
</g>
<!-- Node2 -->
<g id="node2" class="node">
<title>Node2</title>
<g id="a_node2"><a xlink:href="../../d9/d99/classleanux_1_1sysdevice_1_1PCIBus.html#a335524ba4587c3ae201443e70618ab76" target="_top" xlink:title="Return true if the SysDevice recognizes itself in the trailing part of path.">
<polygon fill="none" stroke="black" points="375,-325.5 375,-355.5 485,-355.5 485,-325.5 375,-325.5"/>
<text text-anchor="start" x="383" y="-343.5" font-family="Helvetica,sans-Serif" font-size="10.00">leanux::sysdevice::</text>
<text text-anchor="middle" x="430" y="-332.5" font-family="Helvetica,sans-Serif" font-size="10.00">PCIBus::accept</text>
</a>
</g>
</g>
<!-- Node1&#45;&gt;Node2 -->
<g id="edge1" class="edge">
<title>Node1&#45;&gt;Node2</title>
<path fill="none" stroke="midnightblue" d="M596.67,-198.07C579.56,-227.23 542.67,-283.79 497,-316.5 492.24,-319.91 486.95,-322.88 481.49,-325.46"/>
<polygon fill="midnightblue" stroke="midnightblue" points="599.76,-199.73 601.7,-189.31 593.68,-196.24 599.76,-199.73"/>
</g>
<!-- Node17 -->
<g id="node5" class="node">
<title>Node17</title>
<g id="a_node5"><a xlink:href="../../d9/d1f/namespaceleanux_1_1tools_1_1lsys.html#a5f83d02e048afbcaff79cb943ca94d29" target="_top" xlink:title="attempt to make sense of user provided device string.">
<polygon fill="none" stroke="black" points="377.5,-227.5 377.5,-257.5 482.5,-257.5 482.5,-227.5 377.5,-227.5"/>
<text text-anchor="start" x="385.5" y="-245.5" font-family="Helvetica,sans-Serif" font-size="10.00">leanux::tools::lsys</text>
<text text-anchor="middle" x="430" y="-234.5" font-family="Helvetica,sans-Serif" font-size="10.00">::fullSysDevice</text>
</a>
</g>
</g>
<!-- Node1&#45;&gt;Node17 -->
<g id="edge4" class="edge">
<title>Node1&#45;&gt;Node17</title>
<path fill="none" stroke="midnightblue" d="M570.73,-192.48C542.35,-202.64 502.85,-216.78 473.09,-227.43"/>
<polygon fill="midnightblue" stroke="midnightblue" points="572.03,-195.73 580.27,-189.07 569.67,-189.14 572.03,-195.73"/>
</g>
<!-- Node18 -->
<g id="node8" class="node">
<title>Node18</title>
<g id="a_node8"><a xlink:href="../../d1/d02/classleanux_1_1sysdevice_1_1SysDevice.html#af7a1af7a4b7729e150cceed395e4425b" target="_top" xlink:title="Get the driver for this device.">
<polygon fill="none" stroke="black" points="370.5,-101.5 370.5,-131.5 489.5,-131.5 489.5,-101.5 370.5,-101.5"/>
<text text-anchor="start" x="378.5" y="-119.5" font-family="Helvetica,sans-Serif" font-size="10.00">leanux::sysdevice::</text>
<text text-anchor="middle" x="430" y="-108.5" font-family="Helvetica,sans-Serif" font-size="10.00">SysDevice::getDriver</text>
</a>
</g>
</g>
<!-- Node1&#45;&gt;Node18 -->
<g id="edge7" class="edge">
<title>Node1&#45;&gt;Node18</title>
<path fill="none" stroke="midnightblue" d="M570.73,-166.52C542.35,-156.36 502.85,-142.22 473.09,-131.57"/>
<polygon fill="midnightblue" stroke="midnightblue" points="569.67,-169.86 580.27,-169.93 572.03,-163.27 569.67,-169.86"/>
</g>
<!-- Node35 -->
<g id="node11" class="node">
<title>Node35</title>
<g id="a_node11"><a xlink:href="../../d2/d31/classleanux_1_1sysdevice_1_1BlockDevice.html#a31b413cf94d7442f35e338bae72da0a5" target="_top" xlink:title="Get the driver for this device.">
<polygon fill="none" stroke="black" points="365.5,-52.5 365.5,-82.5 494.5,-82.5 494.5,-52.5 365.5,-52.5"/>
<text text-anchor="start" x="373.5" y="-70.5" font-family="Helvetica,sans-Serif" font-size="10.00">leanux::sysdevice::</text>
<text text-anchor="middle" x="430" y="-59.5" font-family="Helvetica,sans-Serif" font-size="10.00">BlockDevice::getDriver</text>
</a>
</g>
</g>
<!-- Node1&#45;&gt;Node35 -->
<g id="edge10" class="edge">
<title>Node1&#45;&gt;Node35</title>
<path fill="none" stroke="midnightblue" d="M589.78,-163.09C569.11,-144.06 532.72,-112.74 497,-92.5 490.5,-88.81 483.35,-85.47 476.23,-82.5"/>
<polygon fill="midnightblue" stroke="midnightblue" points="587.45,-165.7 597.15,-169.96 592.23,-160.58 587.45,-165.7"/>
</g>
<!-- Node36 -->
<g id="node12" class="node">
<title>Node36</title>
<g id="a_node12"><a xlink:href="../../d5/db8/namespaceleanux_1_1net.html#a29ff3c5a7e99221cc3bfe72405f72a08" target="_top" xlink:title="Get the device sysfs path.">
<polygon fill="none" stroke="black" points="364.5,-13 364.5,-32 495.5,-32 495.5,-13 364.5,-13"/>
<text text-anchor="middle" x="430" y="-20" font-family="Helvetica,sans-Serif" font-size="10.00">leanux::net::getSysPath</text>
</a>
</g>
</g>
<!-- Node1&#45;&gt;Node36 -->
<g id="edge11" class="edge">
<title>Node1&#45;&gt;Node36</title>
<path fill="none" stroke="midnightblue" d="M597.12,-161.06C580.41,-131.62 543.78,-74.11 497,-42.5 490.55,-38.14 483.12,-34.71 475.63,-32.01"/>
<polygon fill="midnightblue" stroke="midnightblue" points="594.1,-162.84 602.01,-169.89 600.23,-159.45 594.1,-162.84"/>
</g>
<!-- Node41 -->
<g id="node14" class="node">
<title>Node41</title>
<g id="a_node14"><a xlink:href="../../d2/dd1/namespaceleanux.html#a757c5a3a5fb84a0ab93de54fd0c8db30" target="_top" xlink:title="Initialize leanux, run checks to verify leanux is compatible with the runtime environment.">
<polygon fill="none" stroke="black" points="204,-153 204,-172 275,-172 275,-153 204,-153"/>
<text text-anchor="middle" x="239.5" y="-160" font-family="Helvetica,sans-Serif" font-size="10.00">leanux::init</text>
</a>
</g>
</g>
<!-- Node1&#45;&gt;Node41 -->
<g id="edge13" class="edge">
<title>Node1&#45;&gt;Node41</title>
<path fill="none" stroke="midnightblue" d="M522.82,-182.35C475.75,-183.23 416.05,-183.16 363,-179.5 333.23,-177.44 299.67,-172.61 275.22,-168.62"/>
<polygon fill="midnightblue" stroke="midnightblue" points="523.04,-185.85 532.97,-182.15 522.9,-178.85 523.04,-185.85"/>
</g>
<!-- Node46 -->
<g id="node20" class="node">
<title>Node46</title>
<g id="a_node20"><a xlink:href="../../d5/d01/namespaceleanux_1_1block.html#a927d958ef9b9b66a13c32754e91d0c7d" target="_top" xlink:title="Initialize the block API.">
<polygon fill="none" stroke="black" points="378,-151 378,-170 482,-170 482,-151 378,-151"/>
<text text-anchor="middle" x="430" y="-158" font-family="Helvetica,sans-Serif" font-size="10.00">leanux::block::init</text>
</a>
</g>
</g>
<!-- Node1&#45;&gt;Node46 -->
<g id="edge20" class="edge">
<title>Node1&#45;&gt;Node46</title>
<path fill="none" stroke="midnightblue" d="M522.79,-170.41C508.89,-168.91 494.86,-167.39 482.1,-166.02"/>
<polygon fill="midnightblue" stroke="midnightblue" points="522.55,-173.9 532.87,-171.5 523.3,-166.94 522.55,-173.9"/>
</g>
<!-- Node47 -->
<g id="node21" class="node">
<title>Node47</title>
<g id="a_node21"><a xlink:href="../../d1/d02/classleanux_1_1sysdevice_1_1SysDevice.html#aea05b28dc39c8d625bed737ef1777eb1" target="_top" xlink:title="Test SysDevicePath validity; path must exist (be readable) and located under /sys/devices.">
<polygon fill="none" stroke="black" points="363,-276.5 363,-306.5 497,-306.5 497,-276.5 363,-276.5"/>
<text text-anchor="start" x="371" y="-294.5" font-family="Helvetica,sans-Serif" font-size="10.00">leanux::sysdevice::</text>
<text text-anchor="middle" x="430" y="-283.5" font-family="Helvetica,sans-Serif" font-size="10.00">SysDevice::validatePath</text>
</a>
</g>
</g>
<!-- Node1&#45;&gt;Node47 -->
<g id="edge22" class="edge">
<title>Node1&#45;&gt;Node47</title>
<path fill="none" stroke="midnightblue" d="M589.87,-196.2C569.27,-215.54 532.95,-247.31 497,-267.5 491.15,-270.78 484.77,-273.76 478.36,-276.42"/>
<polygon fill="midnightblue" stroke="midnightblue" points="592.38,-198.65 597.2,-189.21 587.55,-193.58 592.38,-198.65"/>
</g>
<!-- Node3 -->
<g id="node3" class="node">
<title>Node3</title>
<g id="a_node3"><a xlink:href="../../d3/d83/namespaceleanux_1_1sysdevice.html#aa76385cfb36c36d3f55f25dfacc1346b" target="_top" xlink:title="Return the leaf SysDevice detected in path.">
<polygon fill="none" stroke="red" points="184.5,-320.5 184.5,-350.5 294.5,-350.5 294.5,-320.5 184.5,-320.5"/>
<text text-anchor="start" x="192.5" y="-338.5" font-family="Helvetica,sans-Serif" font-size="10.00">leanux::sysdevice::</text>
<text text-anchor="middle" x="239.5" y="-327.5" font-family="Helvetica,sans-Serif" font-size="10.00">leafDetect</text>
</a>
</g>
</g>
<!-- Node2&#45;&gt;Node3 -->
<g id="edge2" class="edge">
<title>Node2&#45;&gt;Node3</title>
<path fill="none" stroke="midnightblue" d="M364.7,-338.79C341.86,-338.19 316.41,-337.51 294.52,-336.93"/>
<polygon fill="midnightblue" stroke="midnightblue" points="364.89,-342.3 374.98,-339.07 365.08,-335.3 364.89,-342.3"/>
</g>
<!-- Node8 -->
<g id="node4" class="node">
<title>Node8</title>
<g id="a_node4"><a xlink:href="../../d3/d83/namespaceleanux_1_1sysdevice.html#aa57ce9a4a0b2dd6fcdb6102854cc8292" target="_top" xlink:title="populates devices with the devices detected in path.">
<polygon fill="none" stroke="red" points="3,-307.5 3,-337.5 113,-337.5 113,-307.5 3,-307.5"/>
<text text-anchor="start" x="11" y="-325.5" font-family="Helvetica,sans-Serif" font-size="10.00">leanux::sysdevice::</text>
<text text-anchor="middle" x="58" y="-314.5" font-family="Helvetica,sans-Serif" font-size="10.00">treeDetect</text>
</a>
</g>
</g>
<!-- Node3&#45;&gt;Node8 -->
<g id="edge3" class="edge">
<title>Node3&#45;&gt;Node8</title>
<path fill="none" stroke="midnightblue" d="M173.93,-330.82C154.01,-329.38 132.3,-327.81 113.16,-326.42"/>
<polygon fill="midnightblue" stroke="midnightblue" points="173.93,-334.33 184.16,-331.56 174.44,-327.35 173.93,-334.33"/>
</g>
<!-- Node5 -->
<g id="node6" class="node">
<title>Node5</title>
<g id="a_node6"><a xlink:href="../../d9/d1f/namespaceleanux_1_1tools_1_1lsys.html#a33a75c6955dcd3ac89c9a6f86a0a1337" target="_top" xlink:title="Run based on options.">
<polygon fill="none" stroke="black" points="187,-229.5 187,-259.5 292,-259.5 292,-229.5 187,-229.5"/>
<text text-anchor="start" x="195" y="-247.5" font-family="Helvetica,sans-Serif" font-size="10.00">leanux::tools::lsys</text>
<text text-anchor="middle" x="239.5" y="-236.5" font-family="Helvetica,sans-Serif" font-size="10.00">::runOptions</text>
</a>
</g>
</g>
<!-- Node17&#45;&gt;Node5 -->
<g id="edge5" class="edge">
<title>Node17&#45;&gt;Node5</title>
<path fill="none" stroke="midnightblue" d="M367.31,-243.15C343.04,-243.41 315.48,-243.7 292.27,-243.95"/>
<polygon fill="midnightblue" stroke="midnightblue" points="367.53,-246.65 377.49,-243.05 367.45,-239.65 367.53,-246.65"/>
</g>
<!-- Node6 -->
<g id="node7" class="node">
<title>Node6</title>
<g id="a_node7"><a xlink:href="../../d9/d1f/namespaceleanux_1_1tools_1_1lsys.html#aa2b4de7a80d63592f6207ce5951cf966" target="_top" xlink:title="Entry point.">
<polygon fill="none" stroke="red" points="5.5,-245.5 5.5,-275.5 110.5,-275.5 110.5,-245.5 5.5,-245.5"/>
<text text-anchor="start" x="13.5" y="-263.5" font-family="Helvetica,sans-Serif" font-size="10.00">leanux::tools::lsys</text>
<text text-anchor="middle" x="58" y="-252.5" font-family="Helvetica,sans-Serif" font-size="10.00">::main</text>
</a>
</g>
</g>
<!-- Node5&#45;&gt;Node6 -->
<g id="edge6" class="edge">
<title>Node5&#45;&gt;Node6</title>
<path fill="none" stroke="midnightblue" d="M176.59,-250.02C155.15,-251.93 131.35,-254.05 110.8,-255.88"/>
<polygon fill="midnightblue" stroke="midnightblue" points="176.93,-253.5 186.58,-249.13 176.31,-246.53 176.93,-253.5"/>
</g>
<!-- Node19 -->
<g id="node9" class="node">
<title>Node19</title>
<g id="a_node9"><a xlink:href="../../d9/d1f/namespaceleanux_1_1tools_1_1lsys.html#a4a56050ff78d8c77b6a699ff6d5aea50" target="_top" xlink:title="get named field attributes for the SysDevice.">
<polygon fill="none" stroke="red" points="187,-103.5 187,-133.5 292,-133.5 292,-103.5 187,-103.5"/>
<text text-anchor="start" x="195" y="-121.5" font-family="Helvetica,sans-Serif" font-size="10.00">leanux::tools::lsys</text>
<text text-anchor="middle" x="239.5" y="-110.5" font-family="Helvetica,sans-Serif" font-size="10.00">::getLeafColStr</text>
</a>
</g>
</g>
<!-- Node18&#45;&gt;Node19 -->
<g id="edge8" class="edge">
<title>Node18&#45;&gt;Node19</title>
<path fill="none" stroke="midnightblue" d="M360.21,-117.23C337.69,-117.47 313.08,-117.73 292.06,-117.95"/>
<polygon fill="midnightblue" stroke="midnightblue" points="360.43,-120.73 370.39,-117.12 360.35,-113.73 360.43,-120.73"/>
</g>
<!-- Node20 -->
<g id="node10" class="node">
<title>Node20</title>
<g id="a_node10"><a xlink:href="../../d1/d02/classleanux_1_1sysdevice_1_1SysDevice.html#ae45d4c50b05a48b480911a1aaeaeacc1" target="_top" xlink:title=" ">
<polygon fill="none" stroke="red" points="152,-54.5 152,-84.5 327,-84.5 327,-54.5 152,-54.5"/>
<text text-anchor="start" x="160" y="-72.5" font-family="Helvetica,sans-Serif" font-size="10.00">leanux::sysdevice::</text>
<text text-anchor="middle" x="239.5" y="-61.5" font-family="Helvetica,sans-Serif" font-size="10.00">SysDevice::getPropertyValueList</text>
</a>
</g>
</g>
<!-- Node18&#45;&gt;Node20 -->
<g id="edge9" class="edge">
<title>Node18&#45;&gt;Node20</title>
<path fill="none" stroke="midnightblue" d="M360.61,-99.45C341,-94.56 319.78,-89.27 300.7,-84.51"/>
<polygon fill="midnightblue" stroke="midnightblue" points="359.84,-102.86 370.39,-101.89 361.53,-96.07 359.84,-102.86"/>
</g>
<!-- Node37 -->
<g id="node13" class="node">
<title>Node37</title>
<g id="a_node13"><a xlink:href="../../d2/de5/classleanux_1_1tools_1_1lard_1_1NetSnap.html#a6a04b1f2237b5fe9ac5f7be64721f23f" target="_top" xlink:title=" ">
<polygon fill="none" stroke="red" points="180,-5.5 180,-35.5 299,-35.5 299,-5.5 180,-5.5"/>
<text text-anchor="start" x="188" y="-23.5" font-family="Helvetica,sans-Serif" font-size="10.00">leanux::tools::lard</text>
<text text-anchor="middle" x="239.5" y="-12.5" font-family="Helvetica,sans-Serif" font-size="10.00">::NetSnap::storeSnap</text>
</a>
</g>
</g>
<!-- Node36&#45;&gt;Node37 -->
<g id="edge12" class="edge">
<title>Node36&#45;&gt;Node37</title>
<path fill="none" stroke="midnightblue" d="M354.31,-21.71C335.93,-21.51 316.51,-21.31 299.02,-21.12"/>
<polygon fill="midnightblue" stroke="midnightblue" points="354.36,-25.21 364.39,-21.81 354.43,-18.21 354.36,-25.21"/>
</g>
<!-- Node41&#45;&gt;Node6 -->
<g id="edge17" class="edge">
<title>Node41&#45;&gt;Node6</title>
<path fill="none" stroke="midnightblue" d="M215.71,-177.64C191.53,-193.37 151.93,-218.21 116,-236.5 109.97,-239.57 103.46,-242.58 97.06,-245.38"/>
<polygon fill="midnightblue" stroke="midnightblue" points="217.74,-180.5 224.18,-172.09 213.9,-174.64 217.74,-180.5"/>
</g>
<!-- Node42 -->
<g id="node15" class="node">
<title>Node42</title>
<g id="a_node15"><a xlink:href="../../da/dbe/namespaceleanux_1_1tools_1_1lmon.html#a7f59af183bc55b66e3dc0844b473daaf" target="_top" xlink:title=" ">
<polygon fill="none" stroke="red" points="3,-196.5 3,-226.5 113,-226.5 113,-196.5 3,-196.5"/>
<text text-anchor="start" x="11" y="-214.5" font-family="Helvetica,sans-Serif" font-size="10.00">leanux::tools::lmon</text>
<text text-anchor="middle" x="58" y="-203.5" font-family="Helvetica,sans-Serif" font-size="10.00">::main</text>
</a>
</g>
</g>
<!-- Node41&#45;&gt;Node42 -->
<g id="edge14" class="edge">
<title>Node41&#45;&gt;Node42</title>
<path fill="none" stroke="midnightblue" d="M194.16,-174.6C169.71,-181.28 139.15,-189.62 113.28,-196.68"/>
<polygon fill="midnightblue" stroke="midnightblue" points="195.17,-177.96 203.89,-171.95 193.32,-171.2 195.17,-177.96"/>
</g>
<!-- Node44 -->
<g id="node16" class="node">
<title>Node44</title>
<g id="a_node16"><a xlink:href="../../d2/d89/namespaceleanux_1_1tools_1_1labbix.html#a482626b839aaf80a44f973eed61b69a6" target="_top" xlink:title=" ">
<polygon fill="none" stroke="red" points="0,-147.5 0,-177.5 116,-177.5 116,-147.5 0,-147.5"/>
<text text-anchor="start" x="8" y="-165.5" font-family="Helvetica,sans-Serif" font-size="10.00">leanux::tools::labbix</text>
<text text-anchor="middle" x="58" y="-154.5" font-family="Helvetica,sans-Serif" font-size="10.00">::main</text>
</a>
</g>
</g>
<!-- Node41&#45;&gt;Node44 -->
<g id="edge15" class="edge">
<title>Node41&#45;&gt;Node44</title>
<path fill="none" stroke="midnightblue" d="M193.85,-162.5C170.34,-162.5 141.24,-162.5 116.1,-162.5"/>
<polygon fill="midnightblue" stroke="midnightblue" points="193.89,-166 203.89,-162.5 193.89,-159 193.89,-166"/>
</g>
<!-- Node39 -->
<g id="node17" class="node">
<title>Node39</title>
<g id="a_node17"><a xlink:href="../../d4/d62/namespaceleanux_1_1tools_1_1lard.html#aecb1bb340203cfe30357d494d4b2622e" target="_top" xlink:title="Entry point.">
<polygon fill="none" stroke="red" points="6,-98.5 6,-128.5 110,-128.5 110,-98.5 6,-98.5"/>
<text text-anchor="start" x="14" y="-116.5" font-family="Helvetica,sans-Serif" font-size="10.00">leanux::tools::lard</text>
<text text-anchor="middle" x="58" y="-105.5" font-family="Helvetica,sans-Serif" font-size="10.00">::main</text>
</a>
</g>
</g>
<!-- Node41&#45;&gt;Node39 -->
<g id="edge16" class="edge">
<title>Node41&#45;&gt;Node39</title>
<path fill="none" stroke="midnightblue" d="M193.78,-153.53C180.29,-150.6 165.48,-147.15 152,-143.5 135.79,-139.12 118.21,-133.64 102.74,-128.56"/>
<polygon fill="midnightblue" stroke="midnightblue" points="193.29,-157.01 203.8,-155.67 194.75,-150.16 193.29,-157.01"/>
</g>
<!-- Node11 -->
<g id="node18" class="node">
<title>Node11</title>
<g id="a_node18"><a xlink:href="../../d5/d1b/namespaceleanux_1_1tools_1_1lblk.html#a7e4a52393fd43c98af0e5e16603b54df" target="_top" xlink:title="Entry point.">
<polygon fill="none" stroke="red" points="6,-49.5 6,-79.5 110,-79.5 110,-49.5 6,-49.5"/>
<text text-anchor="start" x="14" y="-67.5" font-family="Helvetica,sans-Serif" font-size="10.00">leanux::tools::lblk</text>
<text text-anchor="middle" x="58" y="-56.5" font-family="Helvetica,sans-Serif" font-size="10.00">::main</text>
</a>
</g>
</g>
<!-- Node41&#45;&gt;Node11 -->
<g id="edge18" class="edge">
<title>Node41&#45;&gt;Node11</title>
<path fill="none" stroke="midnightblue" d="M193.54,-159.25C179.32,-156.56 164.16,-151.81 152,-143.5 128.19,-127.22 138.1,-108.04 116,-89.5 111.53,-85.75 106.41,-82.47 101.11,-79.63"/>
<polygon fill="midnightblue" stroke="midnightblue" points="193.25,-162.75 203.67,-160.87 194.35,-155.84 193.25,-162.75"/>
</g>
<!-- Node14 -->
<g id="node19" class="node">
<title>Node14</title>
<g id="a_node19"><a xlink:href="../../d6/dd3/namespaceleanux_1_1tools_1_1lrep.html#aa0e1422d8d75831ea3801ffa728bf436" target="_top" xlink:title=" ">
<polygon fill="none" stroke="red" points="6,-0.5 6,-30.5 110,-30.5 110,-0.5 6,-0.5"/>
<text text-anchor="start" x="14" y="-18.5" font-family="Helvetica,sans-Serif" font-size="10.00">leanux::tools::lrep</text>
<text text-anchor="middle" x="58" y="-7.5" font-family="Helvetica,sans-Serif" font-size="10.00">::main</text>
</a>
</g>
</g>
<!-- Node41&#45;&gt;Node14 -->
<g id="edge19" class="edge">
<title>Node41&#45;&gt;Node14</title>
<path fill="none" stroke="midnightblue" d="M193.69,-161.25C178.93,-158.76 163.39,-153.63 152,-143.5 115.45,-110.99 149.44,-75.2 116,-39.5 112.77,-36.05 108.97,-33.08 104.88,-30.52"/>
<polygon fill="midnightblue" stroke="midnightblue" points="193.36,-164.74 203.73,-162.58 194.28,-157.8 193.36,-164.74"/>
</g>
<!-- Node46&#45;&gt;Node41 -->
<g id="edge21" class="edge">
<title>Node46&#45;&gt;Node41</title>
<path fill="none" stroke="midnightblue" d="M367.81,-161.15C337.11,-161.48 301.05,-161.86 275.16,-162.13"/>
<polygon fill="midnightblue" stroke="midnightblue" points="368.03,-164.65 377.99,-161.04 367.95,-157.65 368.03,-164.65"/>
</g>
<!-- Node47&#45;&gt;Node3 -->
<g id="edge23" class="edge">
<title>Node47&#45;&gt;Node3</title>
<path fill="none" stroke="midnightblue" d="M354.89,-308.8C334.75,-313.5 313.32,-318.5 294.52,-322.89"/>
<polygon fill="midnightblue" stroke="midnightblue" points="355.71,-312.2 364.66,-306.52 354.12,-305.38 355.71,-312.2"/>
</g>
<!-- Node47&#45;&gt;Node8 -->
<g id="edge24" class="edge">
<title>Node47&#45;&gt;Node8</title>
<path fill="none" stroke="midnightblue" d="M352.75,-296.07C297.07,-299.63 219.78,-305.05 152,-311.5 139.38,-312.7 125.81,-314.19 113.05,-315.68"/>
<polygon fill="midnightblue" stroke="midnightblue" points="353.13,-299.55 362.89,-295.42 352.69,-292.56 353.13,-299.55"/>
</g>
</g>
</svg>
