<?xml version="1.0" encoding="UTF-8" standalone="no"?>
<!DOCTYPE svg PUBLIC "-//W3C//DTD SVG 1.1//EN"
 "http://www.w3.org/Graphics/SVG/1.1/DTD/svg11.dtd">
<!-- Generated by graphviz version 2.43.0 (0)
 -->
<!-- Title: leanux::util::fileReadInt Pages: 1 -->
<svg width="556pt" height="212pt"
 viewBox="0.00 0.00 556.00 212.00" xmlns="http://www.w3.org/2000/svg" xmlns:xlink="http://www.w3.org/1999/xlink">
<g id="graph0" class="graph" transform="scale(1 1) rotate(0) translate(4 208)">
<title>leanux::util::fileReadInt</title>
<!-- Node1 -->
<g id="node1" class="node">
<title>Node1</title>
<g id="a_node1"><a xlink:title="read the first data in the file as a string representation of a signed int.">
<polygon fill="#bfbfbf" stroke="black" points="418,-135 418,-154 548,-154 548,-135 418,-135"/>
<text text-anchor="middle" x="483" y="-142" font-family="Helvetica,sans-Serif" font-size="10.00">leanux::util::fileReadInt</text>
</a>
</g>
</g>
<!-- Node2 -->
<g id="node2" class="node">
<title>Node2</title>
<g id="a_node2"><a xlink:href="../../de/d5d/namespaceleanux_1_1pci.html#ac20fe85adfa5c85d69820d5a083bdf5f" target="_top" xlink:title="return a device path relative to /sys/devices to the PCI device assigned the irq">
<polygon fill="none" stroke="black" points="224,-173.5 224,-203.5 367,-203.5 367,-173.5 224,-173.5"/>
<text text-anchor="start" x="232" y="-191.5" font-family="Helvetica,sans-Serif" font-size="10.00">leanux::pci::findPCIDevice</text>
<text text-anchor="middle" x="295.5" y="-180.5" font-family="Helvetica,sans-Serif" font-size="10.00">ByIRQ</text>
</a>
</g>
</g>
<!-- Node1&#45;&gt;Node2 -->
<g id="edge1" class="edge">
<title>Node1&#45;&gt;Node2</title>
<path fill="none" stroke="midnightblue" d="M431.9,-156.38C409.77,-161.63 383.5,-167.86 360.01,-173.43"/>
<polygon fill="midnightblue" stroke="midnightblue" points="432.83,-159.76 441.75,-154.05 431.21,-152.95 432.83,-159.76"/>
</g>
<!-- Node3 -->
<g id="node3" class="node">
<title>Node3</title>
<g id="a_node3"><a xlink:href="../../dd/d42/namespaceleanux_1_1system.html#a1ab19aa4db47eac1c96cd0f456475fbc" target="_top" xlink:title="Get the system chassis type.">
<polygon fill="none" stroke="black" points="209,-135 209,-154 382,-154 382,-135 209,-135"/>
<text text-anchor="middle" x="295.5" y="-142" font-family="Helvetica,sans-Serif" font-size="10.00">leanux::system::getChassisType</text>
</a>
</g>
</g>
<!-- Node1&#45;&gt;Node3 -->
<g id="edge2" class="edge">
<title>Node1&#45;&gt;Node3</title>
<path fill="none" stroke="midnightblue" d="M407.77,-144.5C399.36,-144.5 390.74,-144.5 382.19,-144.5"/>
<polygon fill="midnightblue" stroke="midnightblue" points="407.9,-148 417.9,-144.5 407.9,-141 407.9,-148"/>
</g>
<!-- Node9 -->
<g id="node5" class="node">
<title>Node9</title>
<g id="a_node5"><a xlink:href="../../de/d5d/namespaceleanux_1_1pci.html#a516af433630717aadba97a39c7f99361" target="_top" xlink:title="Get the IRQ assigned to a PCI device.">
<polygon fill="none" stroke="black" points="216.5,-79 216.5,-98 374.5,-98 374.5,-79 216.5,-79"/>
<text text-anchor="middle" x="295.5" y="-86" font-family="Helvetica,sans-Serif" font-size="10.00">leanux::pci::getPCIDeviceIRQ</text>
</a>
</g>
</g>
<!-- Node1&#45;&gt;Node9 -->
<g id="edge4" class="edge">
<title>Node1&#45;&gt;Node9</title>
<path fill="none" stroke="midnightblue" d="M440.45,-131.96C406.4,-121.68 358.94,-107.35 327.97,-98"/>
<polygon fill="midnightblue" stroke="midnightblue" points="439.53,-135.33 450.11,-134.87 441.55,-128.63 439.53,-135.33"/>
</g>
<!-- Node4 -->
<g id="node4" class="node">
<title>Node4</title>
<g id="a_node4"><a xlink:href="../../dd/d42/namespaceleanux_1_1system.html#a4353472fef02fbaaf6a6051f19323a1f" target="_top" xlink:title="Get the system chassis type as a std::string.">
<polygon fill="none" stroke="red" points="11,-147.5 11,-177.5 162,-177.5 162,-147.5 11,-147.5"/>
<text text-anchor="start" x="19" y="-165.5" font-family="Helvetica,sans-Serif" font-size="10.00">leanux::system::getChassis</text>
<text text-anchor="middle" x="86.5" y="-154.5" font-family="Helvetica,sans-Serif" font-size="10.00">TypeString</text>
</a>
</g>
</g>
<!-- Node3&#45;&gt;Node4 -->
<g id="edge3" class="edge">
<title>Node3&#45;&gt;Node4</title>
<path fill="none" stroke="midnightblue" d="M198.6,-152.84C186.39,-153.9 174.04,-154.98 162.23,-156"/>
<polygon fill="midnightblue" stroke="midnightblue" points="199.15,-156.3 208.81,-151.95 198.55,-149.33 199.15,-156.3"/>
</g>
<!-- Node10 -->
<g id="node6" class="node">
<title>Node10</title>
<g id="a_node6"><a xlink:href="../../d9/d1f/namespaceleanux_1_1tools_1_1lsys.html#a4a56050ff78d8c77b6a699ff6d5aea50" target="_top" xlink:title="get named field attributes for the SysDevice.">
<polygon fill="none" stroke="red" points="34,-98.5 34,-128.5 139,-128.5 139,-98.5 34,-98.5"/>
<text text-anchor="start" x="42" y="-116.5" font-family="Helvetica,sans-Serif" font-size="10.00">leanux::tools::lsys</text>
<text text-anchor="middle" x="86.5" y="-105.5" font-family="Helvetica,sans-Serif" font-size="10.00">::getLeafColStr</text>
</a>
</g>
</g>
<!-- Node9&#45;&gt;Node10 -->
<g id="edge5" class="edge">
<title>Node9&#45;&gt;Node10</title>
<path fill="none" stroke="midnightblue" d="M206.18,-99.17C183.35,-101.92 159.5,-104.8 139.22,-107.25"/>
<polygon fill="midnightblue" stroke="midnightblue" points="206.73,-102.63 216.24,-97.95 205.89,-95.68 206.73,-102.63"/>
</g>
<!-- Node15 -->
<g id="node7" class="node">
<title>Node15</title>
<g id="a_node7"><a xlink:href="../../d8/dcd/classleanux_1_1sysdevice_1_1PCIDevice.html#a226c6285004593dad421a814e57fb505" target="_top" xlink:title=" ">
<polygon fill="none" stroke="black" points="0,-49.5 0,-79.5 173,-79.5 173,-49.5 0,-49.5"/>
<text text-anchor="start" x="8" y="-67.5" font-family="Helvetica,sans-Serif" font-size="10.00">leanux::sysdevice::</text>
<text text-anchor="middle" x="86.5" y="-56.5" font-family="Helvetica,sans-Serif" font-size="10.00">PCIDevice::getPropertyValueList</text>
</a>
</g>
</g>
<!-- Node9&#45;&gt;Node15 -->
<g id="edge6" class="edge">
<title>Node9&#45;&gt;Node15</title>
<path fill="none" stroke="midnightblue" d="M206.25,-78.27C195.27,-77 184.07,-75.7 173.14,-74.43"/>
<polygon fill="midnightblue" stroke="midnightblue" points="205.91,-81.75 216.24,-79.43 206.71,-74.8 205.91,-81.75"/>
</g>
<!-- Node16 -->
<g id="node8" class="node">
<title>Node16</title>
<g id="a_node8"><a xlink:href="../../d9/d99/classleanux_1_1sysdevice_1_1PCIBus.html#aa16e0e79f92e04a8e3cfebae0b133e23" target="_top" xlink:title=" ">
<polygon fill="none" stroke="black" points="7.5,-0.5 7.5,-30.5 165.5,-30.5 165.5,-0.5 7.5,-0.5"/>
<text text-anchor="start" x="15.5" y="-18.5" font-family="Helvetica,sans-Serif" font-size="10.00">leanux::sysdevice::</text>
<text text-anchor="middle" x="86.5" y="-7.5" font-family="Helvetica,sans-Serif" font-size="10.00">PCIBus::getPropertyValueList</text>
</a>
</g>
</g>
<!-- Node9&#45;&gt;Node16 -->
<g id="edge7" class="edge">
<title>Node9&#45;&gt;Node16</title>
<path fill="none" stroke="midnightblue" d="M262.45,-74.9C238.12,-64.82 203.74,-51.04 173,-40.5 163.05,-37.09 152.36,-33.73 142.01,-30.63"/>
<polygon fill="midnightblue" stroke="midnightblue" points="261.31,-78.22 271.89,-78.85 264.01,-71.76 261.31,-78.22"/>
</g>
</g>
</svg>
