<?xml version="1.0" encoding="UTF-8" standalone="no"?>
<!DOCTYPE svg PUBLIC "-//W3C//DTD SVG 1.1//EN"
 "http://www.w3.org/Graphics/SVG/1.1/DTD/svg11.dtd">
<!-- Generated by graphviz version 2.43.0 (0)
 -->
<!-- Title: leanux::util::Sleep Pages: 1 -->
<svg width="556pt" height="155pt"
 viewBox="0.00 0.00 556.00 154.99" xmlns="http://www.w3.org/2000/svg" xmlns:xlink="http://www.w3.org/1999/xlink">
<g id="graph0" class="graph" transform="scale(1 1) rotate(0) translate(4 150.99)">
<title>leanux::util::Sleep</title>
<!-- Node1 -->
<g id="node1" class="node">
<title>Node1</title>
<g id="a_node1"><a xlink:title="Sleep seconds+nanoseconds.">
<polygon fill="#bfbfbf" stroke="black" points="444,-79 444,-98 548,-98 548,-79 444,-79"/>
<text text-anchor="middle" x="496" y="-86" font-family="Helvetica,sans-Serif" font-size="10.00">leanux::util::Sleep</text>
</a>
</g>
</g>
<!-- Node2 -->
<g id="node2" class="node">
<title>Node2</title>
<g id="a_node2"><a xlink:href="../../d4/d62/namespaceleanux_1_1tools_1_1lard.html#a6de74bbef1d571bf7eb000e62900a11d" target="_top" xlink:title=" ">
<polygon fill="none" stroke="black" points="143,-110.5 143,-140.5 247,-140.5 247,-110.5 143,-110.5"/>
<text text-anchor="start" x="151" y="-128.5" font-family="Helvetica,sans-Serif" font-size="10.00">leanux::tools::lard</text>
<text text-anchor="middle" x="195" y="-117.5" font-family="Helvetica,sans-Serif" font-size="10.00">::mainLoop</text>
</a>
</g>
</g>
<!-- Node1&#45;&gt;Node2 -->
<g id="edge1" class="edge">
<title>Node1&#45;&gt;Node2</title>
<path fill="none" stroke="midnightblue" d="M474.51,-104.43C457.69,-116.43 432.71,-131.9 408,-138.5 354.38,-152.81 290.54,-145.8 247.02,-137.59"/>
<polygon fill="midnightblue" stroke="midnightblue" points="476.98,-106.95 482.95,-98.2 472.83,-101.32 476.98,-106.95"/>
</g>
<!-- Node5 -->
<g id="node4" class="node">
<title>Node5</title>
<g id="a_node4"><a xlink:href="../../d5/de6/classleanux_1_1tools_1_1lmon_1_1Screen.html#a010f9459d506af3a4251ea0a644282bd" target="_top" xlink:title="Run the Screen in history mode.">
<polygon fill="none" stroke="black" points="290.5,-49.5 290.5,-79.5 403.5,-79.5 403.5,-49.5 290.5,-49.5"/>
<text text-anchor="start" x="298.5" y="-67.5" font-family="Helvetica,sans-Serif" font-size="10.00">leanux::tools::lmon</text>
<text text-anchor="middle" x="347" y="-56.5" font-family="Helvetica,sans-Serif" font-size="10.00">::Screen::runHistory</text>
</a>
</g>
</g>
<!-- Node1&#45;&gt;Node5 -->
<g id="edge3" class="edge">
<title>Node1&#45;&gt;Node5</title>
<path fill="none" stroke="midnightblue" d="M434.07,-78.55C424,-76.91 413.61,-75.21 403.68,-73.59"/>
<polygon fill="midnightblue" stroke="midnightblue" points="433.57,-82.02 444,-80.17 434.69,-75.11 433.57,-82.02"/>
</g>
<!-- Node8 -->
<g id="node6" class="node">
<title>Node8</title>
<g id="a_node6"><a xlink:href="../../d5/de6/classleanux_1_1tools_1_1lmon_1_1Screen.html#aa3dfc925603031c15d1cd88405ca3c11" target="_top" xlink:title="Run the Screen in realtime mode.">
<polygon fill="none" stroke="black" points="286,-0.5 286,-30.5 408,-30.5 408,-0.5 286,-0.5"/>
<text text-anchor="start" x="294" y="-18.5" font-family="Helvetica,sans-Serif" font-size="10.00">leanux::tools::lmon</text>
<text text-anchor="middle" x="347" y="-7.5" font-family="Helvetica,sans-Serif" font-size="10.00">::Screen::runRealtime</text>
</a>
</g>
</g>
<!-- Node1&#45;&gt;Node8 -->
<g id="edge5" class="edge">
<title>Node1&#45;&gt;Node8</title>
<path fill="none" stroke="midnightblue" d="M470.48,-73.54C453.3,-63.34 429.63,-49.86 408,-39.5 401.52,-36.4 394.54,-33.35 387.7,-30.52"/>
<polygon fill="midnightblue" stroke="midnightblue" points="468.92,-76.68 479.3,-78.82 472.52,-70.68 468.92,-76.68"/>
</g>
<!-- Node9 -->
<g id="node7" class="node">
<title>Node9</title>
<g id="a_node7"><a xlink:href="../../d4/d62/namespaceleanux_1_1tools_1_1lard.html#a1836a03324cfc7e84a5563a59566d8aa" target="_top" xlink:title=" ">
<polygon fill="none" stroke="black" points="294,-98.5 294,-128.5 400,-128.5 400,-98.5 294,-98.5"/>
<text text-anchor="start" x="302" y="-116.5" font-family="Helvetica,sans-Serif" font-size="10.00">leanux::tools::lard</text>
<text text-anchor="middle" x="347" y="-105.5" font-family="Helvetica,sans-Serif" font-size="10.00">::wait_log_handler</text>
</a>
</g>
</g>
<!-- Node1&#45;&gt;Node9 -->
<g id="edge7" class="edge">
<title>Node1&#45;&gt;Node9</title>
<path fill="none" stroke="midnightblue" d="M433.92,-98.89C422.78,-100.78 411.26,-102.74 400.41,-104.59"/>
<polygon fill="midnightblue" stroke="midnightblue" points="434.73,-102.3 444,-97.17 433.55,-95.4 434.73,-102.3"/>
</g>
<!-- Node3 -->
<g id="node3" class="node">
<title>Node3</title>
<g id="a_node3"><a xlink:href="../../d4/d62/namespaceleanux_1_1tools_1_1lard.html#aecb1bb340203cfe30357d494d4b2622e" target="_top" xlink:title="Entry point.">
<polygon fill="none" stroke="red" points="0,-110.5 0,-140.5 104,-140.5 104,-110.5 0,-110.5"/>
<text text-anchor="start" x="8" y="-128.5" font-family="Helvetica,sans-Serif" font-size="10.00">leanux::tools::lard</text>
<text text-anchor="middle" x="52" y="-117.5" font-family="Helvetica,sans-Serif" font-size="10.00">::main</text>
</a>
</g>
</g>
<!-- Node2&#45;&gt;Node3 -->
<g id="edge2" class="edge">
<title>Node2&#45;&gt;Node3</title>
<path fill="none" stroke="midnightblue" d="M132.5,-125.5C123,-125.5 113.27,-125.5 104.03,-125.5"/>
<polygon fill="midnightblue" stroke="midnightblue" points="132.7,-129 142.7,-125.5 132.7,-122 132.7,-129"/>
</g>
<!-- Node6 -->
<g id="node5" class="node">
<title>Node6</title>
<g id="a_node5"><a xlink:href="../../da/dbe/namespaceleanux_1_1tools_1_1lmon.html#a7f59af183bc55b66e3dc0844b473daaf" target="_top" xlink:title=" ">
<polygon fill="none" stroke="red" points="140,-37.5 140,-67.5 250,-67.5 250,-37.5 140,-37.5"/>
<text text-anchor="start" x="148" y="-55.5" font-family="Helvetica,sans-Serif" font-size="10.00">leanux::tools::lmon</text>
<text text-anchor="middle" x="195" y="-44.5" font-family="Helvetica,sans-Serif" font-size="10.00">::main</text>
</a>
</g>
</g>
<!-- Node5&#45;&gt;Node6 -->
<g id="edge4" class="edge">
<title>Node5&#45;&gt;Node6</title>
<path fill="none" stroke="midnightblue" d="M279.96,-59.22C270.09,-58.43 260,-57.62 250.41,-56.85"/>
<polygon fill="midnightblue" stroke="midnightblue" points="279.9,-62.72 290.15,-60.03 280.46,-55.75 279.9,-62.72"/>
</g>
<!-- Node8&#45;&gt;Node6 -->
<g id="edge6" class="edge">
<title>Node8&#45;&gt;Node6</title>
<path fill="none" stroke="midnightblue" d="M276.14,-32.73C267.47,-34.87 258.72,-37.03 250.34,-39.1"/>
<polygon fill="midnightblue" stroke="midnightblue" points="276.98,-36.13 285.85,-30.34 275.31,-29.33 276.98,-36.13"/>
</g>
<!-- Node9&#45;&gt;Node2 -->
<g id="edge8" class="edge">
<title>Node9&#45;&gt;Node2</title>
<path fill="none" stroke="midnightblue" d="M283.85,-118.47C271.65,-119.45 258.98,-120.46 247.19,-121.4"/>
<polygon fill="midnightblue" stroke="midnightblue" points="284.27,-121.95 293.96,-117.66 283.71,-114.97 284.27,-121.95"/>
</g>
</g>
</svg>
