<?xml version="1.0" encoding="UTF-8" standalone="no"?>
<!DOCTYPE svg PUBLIC "-//W3C//DTD SVG 1.1//EN"
 "http://www.w3.org/Graphics/SVG/1.1/DTD/svg11.dtd">
<!-- Generated by graphviz version 2.43.0 (0)
 -->
<!-- Title: leanux::util::deltaTime Pages: 1 -->
<svg width="861pt" height="323pt"
 viewBox="0.00 0.00 861.00 323.00" xmlns="http://www.w3.org/2000/svg" xmlns:xlink="http://www.w3.org/1999/xlink">
<g id="graph0" class="graph" transform="scale(1 1) rotate(0) translate(4 319)">
<title>leanux::util::deltaTime</title>
<!-- Node1 -->
<g id="node1" class="node">
<title>Node1</title>
<g id="a_node1"><a xlink:title="Return the deltaof two timevals in seconds.">
<polygon fill="#bfbfbf" stroke="black" points="726,-153 726,-172 853,-172 853,-153 726,-153"/>
<text text-anchor="middle" x="789.5" y="-160" font-family="Helvetica,sans-Serif" font-size="10.00">leanux::util::deltaTime</text>
</a>
</g>
</g>
<!-- Node2 -->
<g id="node2" class="node">
<title>Node2</title>
<g id="a_node2"><a xlink:href="../../d5/de6/classleanux_1_1tools_1_1lmon_1_1Screen.html#a010f9459d506af3a4251ea0a644282bd" target="_top" xlink:title="Run the Screen in history mode.">
<polygon fill="none" stroke="black" points="322,-284.5 322,-314.5 435,-314.5 435,-284.5 322,-284.5"/>
<text text-anchor="start" x="330" y="-302.5" font-family="Helvetica,sans-Serif" font-size="10.00">leanux::tools::lmon</text>
<text text-anchor="middle" x="378.5" y="-291.5" font-family="Helvetica,sans-Serif" font-size="10.00">::Screen::runHistory</text>
</a>
</g>
</g>
<!-- Node1&#45;&gt;Node2 -->
<g id="edge1" class="edge">
<title>Node1&#45;&gt;Node2</title>
<path fill="none" stroke="midnightblue" d="M777.7,-180.91C761.94,-205.85 730.12,-249.55 690,-269.5 608.41,-310.08 499.95,-310.28 435.18,-305.64"/>
<polygon fill="midnightblue" stroke="midnightblue" points="780.88,-182.42 783.11,-172.06 774.9,-178.77 780.88,-182.42"/>
</g>
<!-- Node5 -->
<g id="node4" class="node">
<title>Node5</title>
<g id="a_node4"><a xlink:href="../../d5/de6/classleanux_1_1tools_1_1lmon_1_1Screen.html#aa3dfc925603031c15d1cd88405ca3c11" target="_top" xlink:title="Run the Screen in realtime mode.">
<polygon fill="none" stroke="black" points="146,-240.5 146,-270.5 268,-270.5 268,-240.5 146,-240.5"/>
<text text-anchor="start" x="154" y="-258.5" font-family="Helvetica,sans-Serif" font-size="10.00">leanux::tools::lmon</text>
<text text-anchor="middle" x="207" y="-247.5" font-family="Helvetica,sans-Serif" font-size="10.00">::Screen::runRealtime</text>
</a>
</g>
</g>
<!-- Node1&#45;&gt;Node5 -->
<g id="edge3" class="edge">
<title>Node1&#45;&gt;Node5</title>
<path fill="none" stroke="midnightblue" d="M772.54,-179.5C754.47,-197.43 723.2,-224.69 690,-236.5 614.06,-263.52 379.79,-260.65 268.24,-257.56"/>
<polygon fill="midnightblue" stroke="midnightblue" points="775.38,-181.6 779.87,-172 770.37,-176.7 775.38,-181.6"/>
</g>
<!-- Node6 -->
<g id="node5" class="node">
<title>Node6</title>
<g id="a_node5"><a xlink:href="../../da/d21/classleanux_1_1tools_1_1lmon_1_1RealtimeSampler.html#ae43e18aacfceb09eb9bd70db9c67fc98" target="_top" xlink:title=" ">
<polygon fill="none" stroke="black" points="494,-196.5 494,-226.5 685,-226.5 685,-196.5 494,-196.5"/>
<text text-anchor="start" x="502" y="-214.5" font-family="Helvetica,sans-Serif" font-size="10.00">leanux::tools::lmon</text>
<text text-anchor="middle" x="589.5" y="-203.5" font-family="Helvetica,sans-Serif" font-size="10.00">::RealtimeSampler::sampleXIOView</text>
</a>
</g>
</g>
<!-- Node1&#45;&gt;Node6 -->
<g id="edge5" class="edge">
<title>Node1&#45;&gt;Node6</title>
<path fill="none" stroke="midnightblue" d="M741.29,-174.6C725.05,-178.74 706.74,-183.36 690,-187.5 678.18,-190.42 665.57,-193.5 653.43,-196.44"/>
<polygon fill="midnightblue" stroke="midnightblue" points="742.28,-177.96 751.11,-172.1 740.55,-171.18 742.28,-177.96"/>
</g>
<!-- Node9 -->
<g id="node7" class="node">
<title>Node9</title>
<g id="a_node7"><a xlink:href="../../da/d21/classleanux_1_1tools_1_1lmon_1_1RealtimeSampler.html#a38271e7bf2e0c59ad4648027b7802d8d" target="_top" xlink:title=" ">
<polygon fill="none" stroke="black" points="491,-147.5 491,-177.5 688,-177.5 688,-147.5 491,-147.5"/>
<text text-anchor="start" x="499" y="-165.5" font-family="Helvetica,sans-Serif" font-size="10.00">leanux::tools::lmon</text>
<text text-anchor="middle" x="589.5" y="-154.5" font-family="Helvetica,sans-Serif" font-size="10.00">::RealtimeSampler::sampleXNetView</text>
</a>
</g>
</g>
<!-- Node1&#45;&gt;Node9 -->
<g id="edge8" class="edge">
<title>Node1&#45;&gt;Node9</title>
<path fill="none" stroke="midnightblue" d="M715.83,-162.5C706.82,-162.5 697.5,-162.5 688.19,-162.5"/>
<polygon fill="midnightblue" stroke="midnightblue" points="715.85,-166 725.85,-162.5 715.85,-159 715.85,-166"/>
</g>
<!-- Node10 -->
<g id="node8" class="node">
<title>Node10</title>
<g id="a_node8"><a xlink:href="../../da/d21/classleanux_1_1tools_1_1lmon_1_1RealtimeSampler.html#af80582780bfa40a11a40e647f9657d0f" target="_top" xlink:title=" ">
<polygon fill="none" stroke="black" points="489,-98.5 489,-128.5 690,-128.5 690,-98.5 489,-98.5"/>
<text text-anchor="start" x="497" y="-116.5" font-family="Helvetica,sans-Serif" font-size="10.00">leanux::tools::lmon</text>
<text text-anchor="middle" x="589.5" y="-105.5" font-family="Helvetica,sans-Serif" font-size="10.00">::RealtimeSampler::sampleXProcView</text>
</a>
</g>
</g>
<!-- Node1&#45;&gt;Node10 -->
<g id="edge10" class="edge">
<title>Node1&#45;&gt;Node10</title>
<path fill="none" stroke="midnightblue" d="M739.95,-150.49C713.2,-143.86 679.74,-135.58 651.26,-128.54"/>
<polygon fill="midnightblue" stroke="midnightblue" points="739.31,-153.93 749.85,-152.94 740.99,-147.14 739.31,-153.93"/>
</g>
<!-- Node11 -->
<g id="node9" class="node">
<title>Node11</title>
<g id="a_node9"><a xlink:href="../../da/d21/classleanux_1_1tools_1_1lmon_1_1RealtimeSampler.html#a8de42eb5d528bfa157565a81a16ae5bd" target="_top" xlink:title=" ">
<polygon fill="none" stroke="black" points="491,-49.5 491,-79.5 688,-79.5 688,-49.5 491,-49.5"/>
<text text-anchor="start" x="499" y="-67.5" font-family="Helvetica,sans-Serif" font-size="10.00">leanux::tools::lmon</text>
<text text-anchor="middle" x="589.5" y="-56.5" font-family="Helvetica,sans-Serif" font-size="10.00">::RealtimeSampler::sampleXSysView</text>
</a>
</g>
</g>
<!-- Node1&#45;&gt;Node11 -->
<g id="edge12" class="edge">
<title>Node1&#45;&gt;Node11</title>
<path fill="none" stroke="midnightblue" d="M771.4,-146.15C752.81,-129.27 721.52,-103.36 690,-88.5 682.69,-85.05 674.83,-82.07 666.85,-79.5"/>
<polygon fill="midnightblue" stroke="midnightblue" points="769.06,-148.76 778.78,-152.99 773.82,-143.62 769.06,-148.76"/>
</g>
<!-- Node12 -->
<g id="node10" class="node">
<title>Node12</title>
<g id="a_node10"><a xlink:href="../../da/d9f/classleanux_1_1tools_1_1lmon_1_1SysView.html#ad72b5ee6be63091f3d320a23721d5cb4" target="_top" xlink:title="refresh (redraw) the View.">
<polygon fill="none" stroke="black" points="534.5,-0.5 534.5,-30.5 644.5,-30.5 644.5,-0.5 534.5,-0.5"/>
<text text-anchor="start" x="542.5" y="-18.5" font-family="Helvetica,sans-Serif" font-size="10.00">leanux::tools::lmon</text>
<text text-anchor="middle" x="589.5" y="-7.5" font-family="Helvetica,sans-Serif" font-size="10.00">::SysView::xrefresh</text>
</a>
</g>
</g>
<!-- Node1&#45;&gt;Node12 -->
<g id="edge14" class="edge">
<title>Node1&#45;&gt;Node12</title>
<path fill="none" stroke="midnightblue" d="M778.8,-143.76C763.66,-116.44 731.74,-66.03 690,-39.5 676.5,-30.92 660.2,-25.41 644.73,-21.87"/>
<polygon fill="midnightblue" stroke="midnightblue" points="775.79,-145.55 783.61,-152.7 781.95,-142.23 775.79,-145.55"/>
</g>
<!-- Node3 -->
<g id="node3" class="node">
<title>Node3</title>
<g id="a_node3"><a xlink:href="../../da/dbe/namespaceleanux_1_1tools_1_1lmon.html#a7f59af183bc55b66e3dc0844b473daaf" target="_top" xlink:title=" ">
<polygon fill="none" stroke="red" points="0,-262.5 0,-292.5 110,-292.5 110,-262.5 0,-262.5"/>
<text text-anchor="start" x="8" y="-280.5" font-family="Helvetica,sans-Serif" font-size="10.00">leanux::tools::lmon</text>
<text text-anchor="middle" x="55" y="-269.5" font-family="Helvetica,sans-Serif" font-size="10.00">::main</text>
</a>
</g>
</g>
<!-- Node2&#45;&gt;Node3 -->
<g id="edge2" class="edge">
<title>Node2&#45;&gt;Node3</title>
<path fill="none" stroke="midnightblue" d="M311.83,-295.01C252.35,-290.94 165.76,-285.01 110.15,-281.21"/>
<polygon fill="midnightblue" stroke="midnightblue" points="311.65,-298.5 321.87,-295.69 312.13,-291.52 311.65,-298.5"/>
</g>
<!-- Node5&#45;&gt;Node3 -->
<g id="edge4" class="edge">
<title>Node5&#45;&gt;Node3</title>
<path fill="none" stroke="midnightblue" d="M135.86,-265.79C127.29,-267.04 118.63,-268.31 110.34,-269.53"/>
<polygon fill="midnightblue" stroke="midnightblue" points="136.47,-269.24 145.85,-264.32 135.45,-262.31 136.47,-269.24"/>
</g>
<!-- Node7 -->
<g id="node6" class="node">
<title>Node7</title>
<g id="a_node6"><a xlink:href="../../da/d21/classleanux_1_1tools_1_1lmon_1_1RealtimeSampler.html#a9522a4a46961eb4f75d3207da1efd07f" target="_top" xlink:title="Sample a snapshot.">
<polygon fill="none" stroke="red" points="304,-147.5 304,-177.5 453,-177.5 453,-147.5 304,-147.5"/>
<text text-anchor="start" x="312" y="-165.5" font-family="Helvetica,sans-Serif" font-size="10.00">leanux::tools::lmon</text>
<text text-anchor="middle" x="378.5" y="-154.5" font-family="Helvetica,sans-Serif" font-size="10.00">::RealtimeSampler::sample</text>
</a>
</g>
</g>
<!-- Node6&#45;&gt;Node7 -->
<g id="edge6" class="edge">
<title>Node6&#45;&gt;Node7</title>
<path fill="none" stroke="midnightblue" d="M514.58,-194.17C491.37,-188.73 465.96,-182.77 443.51,-177.51"/>
<polygon fill="midnightblue" stroke="midnightblue" points="513.84,-197.59 524.37,-196.47 515.44,-190.78 513.84,-197.59"/>
</g>
<!-- Node7&#45;&gt;Node5 -->
<g id="edge7" class="edge">
<title>Node7&#45;&gt;Node5</title>
<path fill="none" stroke="midnightblue" d="M340.94,-182.56C309.32,-199.91 264.28,-224.62 235.6,-240.36"/>
<polygon fill="midnightblue" stroke="midnightblue" points="342.81,-185.53 349.89,-177.65 339.44,-179.39 342.81,-185.53"/>
</g>
<!-- Node9&#45;&gt;Node7 -->
<g id="edge9" class="edge">
<title>Node9&#45;&gt;Node7</title>
<path fill="none" stroke="midnightblue" d="M480.64,-162.5C471.35,-162.5 462.08,-162.5 453.15,-162.5"/>
<polygon fill="midnightblue" stroke="midnightblue" points="480.73,-166 490.73,-162.5 480.73,-159 480.73,-166"/>
</g>
<!-- Node10&#45;&gt;Node7 -->
<g id="edge11" class="edge">
<title>Node10&#45;&gt;Node7</title>
<path fill="none" stroke="midnightblue" d="M514.58,-130.83C491.37,-136.27 465.96,-142.23 443.51,-147.49"/>
<polygon fill="midnightblue" stroke="midnightblue" points="515.44,-134.22 524.37,-128.53 513.84,-127.41 515.44,-134.22"/>
</g>
<!-- Node11&#45;&gt;Node7 -->
<g id="edge13" class="edge">
<title>Node11&#45;&gt;Node7</title>
<path fill="none" stroke="midnightblue" d="M503.63,-82.75C498.62,-84.51 493.71,-86.42 489,-88.5 453.94,-103.97 418.03,-130.74 397.29,-147.49"/>
<polygon fill="midnightblue" stroke="midnightblue" points="504.97,-86 513.37,-79.55 502.78,-79.35 504.97,-86"/>
</g>
</g>
</svg>
