<?xml version="1.0" encoding="UTF-8" standalone="no"?>
<!DOCTYPE svg PUBLIC "-//W3C//DTD SVG 1.1//EN"
 "http://www.w3.org/Graphics/SVG/1.1/DTD/svg11.dtd">
<!-- Generated by graphviz version 2.43.0 (0)
 -->
<!-- Title: leanux::util::t_digit Pages: 1 -->
<svg width="625pt" height="119pt"
 viewBox="0.00 0.00 625.00 119.19" xmlns="http://www.w3.org/2000/svg" xmlns:xlink="http://www.w3.org/1999/xlink">
<g id="graph0" class="graph" transform="scale(1 1) rotate(0) translate(4 115.19)">
<title>leanux::util::t_digit</title>
<!-- Node1 -->
<g id="node1" class="node">
<title>Node1</title>
<g id="a_node1"><a xlink:title=" ">
<polygon fill="#bfbfbf" stroke="black" points="509,-57.5 509,-76.5 617,-76.5 617,-57.5 509,-57.5"/>
<text text-anchor="middle" x="563" y="-64.5" font-family="Helvetica,sans-Serif" font-size="10.00">leanux::util::t_digit</text>
</a>
</g>
</g>
<!-- Node2 -->
<g id="node2" class="node">
<title>Node2</title>
<g id="a_node2"><a xlink:href="../../d8/db1/namespaceleanux_1_1util.html#a956457b75f9b34b1bf10a7724ceebe7f" target="_top" xlink:title="STL natural less&#45;than string compare.">
<polygon fill="none" stroke="black" points="179,-76.5 179,-95.5 310,-95.5 310,-76.5 179,-76.5"/>
<text text-anchor="middle" x="244.5" y="-83.5" font-family="Helvetica,sans-Serif" font-size="10.00">leanux::util::hexnatstrlt</text>
</a>
</g>
</g>
<!-- Node1&#45;&gt;Node2 -->
<g id="edge1" class="edge">
<title>Node1&#45;&gt;Node2</title>
<path fill="none" stroke="midnightblue" d="M536.36,-81.23C519.05,-90.01 495.36,-100.43 473,-105 406.99,-118.5 328.33,-105.69 282.92,-95.56"/>
<polygon fill="midnightblue" stroke="midnightblue" points="538.03,-84.31 545.28,-76.58 534.79,-78.1 538.03,-84.31"/>
</g>
<!-- Node7 -->
<g id="node4" class="node">
<title>Node7</title>
<g id="a_node4"><a xlink:href="../../d8/db1/namespaceleanux_1_1util.html#aed50d2cf3b13e7fcf5cb21c6d052e90b" target="_top" xlink:title="standard C natural c&#45;string compare">
<polygon fill="none" stroke="black" points="346,-76.5 346,-95.5 473,-95.5 473,-76.5 346,-76.5"/>
<text text-anchor="middle" x="409.5" y="-83.5" font-family="Helvetica,sans-Serif" font-size="10.00">leanux::util::natstrcmp</text>
</a>
</g>
</g>
<!-- Node1&#45;&gt;Node7 -->
<g id="edge3" class="edge">
<title>Node1&#45;&gt;Node7</title>
<path fill="none" stroke="midnightblue" d="M498.45,-74.97C490.04,-76.02 481.42,-77.11 473.02,-78.16"/>
<polygon fill="midnightblue" stroke="midnightblue" points="499.1,-78.42 508.59,-73.7 498.23,-71.47 499.1,-78.42"/>
</g>
<!-- Node8 -->
<g id="node5" class="node">
<title>Node8</title>
<g id="a_node5"><a xlink:href="../../d8/db1/namespaceleanux_1_1util.html#ae892fbdb6f13138884d0b845004ad49c" target="_top" xlink:title="STL natural less&#45;than string compare.">
<polygon fill="none" stroke="black" points="353,-0.5 353,-19.5 466,-19.5 466,-0.5 353,-0.5"/>
<text text-anchor="middle" x="409.5" y="-7.5" font-family="Helvetica,sans-Serif" font-size="10.00">leanux::util::natstrlt</text>
</a>
</g>
</g>
<!-- Node1&#45;&gt;Node8 -->
<g id="edge4" class="edge">
<title>Node1&#45;&gt;Node8</title>
<path fill="none" stroke="midnightblue" d="M531.94,-53.2C514.84,-45.6 492.93,-36.26 473,-29 463.84,-25.66 453.78,-22.42 444.46,-19.59"/>
<polygon fill="midnightblue" stroke="midnightblue" points="530.84,-56.54 541.4,-57.45 533.71,-50.16 530.84,-56.54"/>
</g>
<!-- Node10 -->
<g id="node7" class="node">
<title>Node10</title>
<g id="a_node7"><a xlink:href="../../d8/db1/namespaceleanux_1_1util.html#ade6c17216d675874fea37539966a7554" target="_top" xlink:title=" ">
<polygon fill="none" stroke="black" points="352.5,-38.5 352.5,-57.5 466.5,-57.5 466.5,-38.5 352.5,-38.5"/>
<text text-anchor="middle" x="409.5" y="-45.5" font-family="Helvetica,sans-Serif" font-size="10.00">leanux::util::t_xdigit</text>
</a>
</g>
</g>
<!-- Node1&#45;&gt;Node10 -->
<g id="edge6" class="edge">
<title>Node1&#45;&gt;Node10</title>
<path fill="none" stroke="midnightblue" d="M498.53,-59.04C487.9,-57.71 476.93,-56.33 466.51,-55.02"/>
<polygon fill="midnightblue" stroke="midnightblue" points="498.23,-62.53 508.59,-60.3 499.1,-55.58 498.23,-62.53"/>
</g>
<!-- Node3 -->
<g id="node3" class="node">
<title>Node3</title>
<g id="a_node3"><a xlink:href="../../d8/db1/namespaceleanux_1_1util.html#a99a338bd02550dc25a08dfedd844e303" target="_top" xlink:title="STL natural less&#45;than std::string compare, treating hex numbers as numbers.">
<polygon fill="none" stroke="red" points="0,-76.5 0,-95.5 143,-95.5 143,-76.5 0,-76.5"/>
<text text-anchor="middle" x="71.5" y="-83.5" font-family="Helvetica,sans-Serif" font-size="10.00">leanux::util::stlhexnatstrlt</text>
</a>
</g>
</g>
<!-- Node2&#45;&gt;Node3 -->
<g id="edge2" class="edge">
<title>Node2&#45;&gt;Node3</title>
<path fill="none" stroke="midnightblue" d="M168.65,-86C160.21,-86 151.63,-86 143.24,-86"/>
<polygon fill="midnightblue" stroke="midnightblue" points="168.85,-89.5 178.85,-86 168.85,-82.5 168.85,-89.5"/>
</g>
<!-- Node9 -->
<g id="node6" class="node">
<title>Node9</title>
<g id="a_node6"><a xlink:href="../../d8/db1/namespaceleanux_1_1util.html#a3e3160bdfc1156af65b2ecf80b187f95" target="_top" xlink:title="STL natural less&#45;than std::string compare.">
<polygon fill="none" stroke="black" points="182,-0.5 182,-19.5 307,-19.5 307,-0.5 182,-0.5"/>
<text text-anchor="middle" x="244.5" y="-7.5" font-family="Helvetica,sans-Serif" font-size="10.00">leanux::util::stlnatstrlt</text>
</a>
</g>
</g>
<!-- Node8&#45;&gt;Node9 -->
<g id="edge5" class="edge">
<title>Node8&#45;&gt;Node9</title>
<path fill="none" stroke="midnightblue" d="M342.66,-10C330.9,-10 318.68,-10 307.04,-10"/>
<polygon fill="midnightblue" stroke="midnightblue" points="342.86,-13.5 352.86,-10 342.86,-6.5 342.86,-13.5"/>
</g>
<!-- Node10&#45;&gt;Node2 -->
<g id="edge7" class="edge">
<title>Node10&#45;&gt;Node2</title>
<path fill="none" stroke="midnightblue" d="M357.47,-59.9C334.56,-65.24 307.9,-71.45 286.34,-76.48"/>
<polygon fill="midnightblue" stroke="midnightblue" points="358.42,-63.27 367.37,-57.59 356.83,-56.45 358.42,-63.27"/>
</g>
</g>
</svg>
