<?xml version="1.0" encoding="UTF-8" standalone="no"?>
<!DOCTYPE svg PUBLIC "-//W3C//DTD SVG 1.1//EN"
 "http://www.w3.org/Graphics/SVG/1.1/DTD/svg11.dtd">
<!-- Generated by graphviz version 2.43.0 (0)
 -->
<!-- Title: leanux::util::leafDir Pages: 1 -->
<svg width="470pt" height="88pt"
 viewBox="0.00 0.00 470.00 88.00" xmlns="http://www.w3.org/2000/svg" xmlns:xlink="http://www.w3.org/1999/xlink">
<g id="graph0" class="graph" transform="scale(1 1) rotate(0) translate(4 84)">
<title>leanux::util::leafDir</title>
<!-- Node1 -->
<g id="node1" class="node">
<title>Node1</title>
<g id="a_node1"><a xlink:title="returns the leaf of the tree &#45; that string after the last &#39;/&#39;">
<polygon fill="#bfbfbf" stroke="black" points="352,-30 352,-49 462,-49 462,-30 352,-30"/>
<text text-anchor="middle" x="407" y="-37" font-family="Helvetica,sans-Serif" font-size="10.00">leanux::util::leafDir</text>
</a>
</g>
</g>
<!-- Node2 -->
<g id="node2" class="node">
<title>Node2</title>
<g id="a_node2"><a xlink:href="../../d9/d1f/namespaceleanux_1_1tools_1_1lsys.html#a4a56050ff78d8c77b6a699ff6d5aea50" target="_top" xlink:title="get named field attributes for the SysDevice.">
<polygon fill="none" stroke="black" points="176,-49.5 176,-79.5 281,-79.5 281,-49.5 176,-49.5"/>
<text text-anchor="start" x="184" y="-67.5" font-family="Helvetica,sans-Serif" font-size="10.00">leanux::tools::lsys</text>
<text text-anchor="middle" x="228.5" y="-56.5" font-family="Helvetica,sans-Serif" font-size="10.00">::getLeafColStr</text>
</a>
</g>
</g>
<!-- Node1&#45;&gt;Node2 -->
<g id="edge1" class="edge">
<title>Node1&#45;&gt;Node2</title>
<path fill="none" stroke="midnightblue" d="M341.66,-48.61C321.7,-51.44 299.97,-54.52 281,-57.21"/>
<polygon fill="midnightblue" stroke="midnightblue" points="342.19,-52.07 351.6,-47.2 341.21,-45.14 342.19,-52.07"/>
</g>
<!-- Node7 -->
<g id="node4" class="node">
<title>Node7</title>
<g id="a_node4"><a xlink:href="../../dc/d23/classleanux_1_1sysdevice_1_1NetDevice.html#a1debae3dd366106e7b0f90018c503b9e" target="_top" xlink:title=" ">
<polygon fill="none" stroke="black" points="141,-0.5 141,-30.5 316,-30.5 316,-0.5 141,-0.5"/>
<text text-anchor="start" x="149" y="-18.5" font-family="Helvetica,sans-Serif" font-size="10.00">leanux::sysdevice::</text>
<text text-anchor="middle" x="228.5" y="-7.5" font-family="Helvetica,sans-Serif" font-size="10.00">NetDevice::getPropertyValueList</text>
</a>
</g>
</g>
<!-- Node1&#45;&gt;Node7 -->
<g id="edge3" class="edge">
<title>Node1&#45;&gt;Node7</title>
<path fill="none" stroke="midnightblue" d="M341.66,-30.75C333.36,-29.62 324.77,-28.45 316.19,-27.29"/>
<polygon fill="midnightblue" stroke="midnightblue" points="341.22,-34.22 351.6,-32.1 342.17,-27.29 341.22,-34.22"/>
</g>
<!-- Node3 -->
<g id="node3" class="node">
<title>Node3</title>
<g id="a_node3"><a xlink:href="../../d9/d1f/namespaceleanux_1_1tools_1_1lsys.html#ad858cdc5736e1be415f25fdaec024b58" target="_top" xlink:title="list devices, filtered if opt_t is set.">
<polygon fill="none" stroke="red" points="0,-49.5 0,-79.5 105,-79.5 105,-49.5 0,-49.5"/>
<text text-anchor="start" x="8" y="-67.5" font-family="Helvetica,sans-Serif" font-size="10.00">leanux::tools::lsys</text>
<text text-anchor="middle" x="52.5" y="-56.5" font-family="Helvetica,sans-Serif" font-size="10.00">::listDevices</text>
</a>
</g>
</g>
<!-- Node2&#45;&gt;Node3 -->
<g id="edge2" class="edge">
<title>Node2&#45;&gt;Node3</title>
<path fill="none" stroke="midnightblue" d="M165.6,-64.5C145.77,-64.5 124.04,-64.5 105.04,-64.5"/>
<polygon fill="midnightblue" stroke="midnightblue" points="165.77,-68 175.77,-64.5 165.77,-61 165.77,-68"/>
</g>
</g>
</svg>
