<?xml version="1.0" encoding="UTF-8" standalone="no"?>
<!DOCTYPE svg PUBLIC "-//W3C//DTD SVG 1.1//EN"
 "http://www.w3.org/Graphics/SVG/1.1/DTD/svg11.dtd">
<!-- Generated by graphviz version 2.43.0 (0)
 -->
<!-- Title: leanux::util::localStrISODateTime Pages: 1 -->
<svg width="491pt" height="137pt"
 viewBox="0.00 0.00 491.00 137.00" xmlns="http://www.w3.org/2000/svg" xmlns:xlink="http://www.w3.org/1999/xlink">
<g id="graph0" class="graph" transform="scale(1 1) rotate(0) translate(4 133)">
<title>leanux::util::localStrISODateTime</title>
<!-- Node1 -->
<g id="node1" class="node">
<title>Node1</title>
<g id="a_node1"><a xlink:title="Return current local time in ISO format; YYYY&#45;MM&#45;DD HH24:MI:SS.">
<polygon fill="#bfbfbf" stroke="black" points="304,-55 304,-74 483,-74 483,-55 304,-55"/>
<text text-anchor="middle" x="393.5" y="-62" font-family="Helvetica,sans-Serif" font-size="10.00">leanux::util::localStrISODateTime</text>
</a>
</g>
</g>
<!-- Node2 -->
<g id="node2" class="node">
<title>Node2</title>
<g id="a_node2"><a xlink:href="../../d5/de6/classleanux_1_1tools_1_1lmon_1_1Screen.html#a010f9459d506af3a4251ea0a644282bd" target="_top" xlink:title="Run the Screen in history mode.">
<polygon fill="none" stroke="black" points="150.5,-98.5 150.5,-128.5 263.5,-128.5 263.5,-98.5 150.5,-98.5"/>
<text text-anchor="start" x="158.5" y="-116.5" font-family="Helvetica,sans-Serif" font-size="10.00">leanux::tools::lmon</text>
<text text-anchor="middle" x="207" y="-105.5" font-family="Helvetica,sans-Serif" font-size="10.00">::Screen::runHistory</text>
</a>
</g>
</g>
<!-- Node1&#45;&gt;Node2 -->
<g id="edge1" class="edge">
<title>Node1&#45;&gt;Node2</title>
<path fill="none" stroke="midnightblue" d="M346.81,-76.63C321.62,-83.32 290.15,-91.68 263.54,-98.75"/>
<polygon fill="midnightblue" stroke="midnightblue" points="347.72,-80.01 356.49,-74.06 345.93,-73.25 347.72,-80.01"/>
</g>
<!-- Node5 -->
<g id="node4" class="node">
<title>Node5</title>
<g id="a_node4"><a xlink:href="../../d5/de6/classleanux_1_1tools_1_1lmon_1_1Screen.html#aa3dfc925603031c15d1cd88405ca3c11" target="_top" xlink:title="Run the Screen in realtime mode.">
<polygon fill="none" stroke="black" points="146,-49.5 146,-79.5 268,-79.5 268,-49.5 146,-49.5"/>
<text text-anchor="start" x="154" y="-67.5" font-family="Helvetica,sans-Serif" font-size="10.00">leanux::tools::lmon</text>
<text text-anchor="middle" x="207" y="-56.5" font-family="Helvetica,sans-Serif" font-size="10.00">::Screen::runRealtime</text>
</a>
</g>
</g>
<!-- Node1&#45;&gt;Node5 -->
<g id="edge3" class="edge">
<title>Node1&#45;&gt;Node5</title>
<path fill="none" stroke="midnightblue" d="M293.56,-64.5C284.88,-64.5 276.28,-64.5 268.07,-64.5"/>
<polygon fill="midnightblue" stroke="midnightblue" points="293.76,-68 303.76,-64.5 293.76,-61 293.76,-68"/>
</g>
<!-- Node6 -->
<g id="node5" class="node">
<title>Node6</title>
<g id="a_node5"><a xlink:href="../../da/d9f/classleanux_1_1tools_1_1lmon_1_1SysView.html#ad72b5ee6be63091f3d320a23721d5cb4" target="_top" xlink:title="refresh (redraw) the View.">
<polygon fill="none" stroke="black" points="152,-0.5 152,-30.5 262,-30.5 262,-0.5 152,-0.5"/>
<text text-anchor="start" x="160" y="-18.5" font-family="Helvetica,sans-Serif" font-size="10.00">leanux::tools::lmon</text>
<text text-anchor="middle" x="207" y="-7.5" font-family="Helvetica,sans-Serif" font-size="10.00">::SysView::xrefresh</text>
</a>
</g>
</g>
<!-- Node1&#45;&gt;Node6 -->
<g id="edge5" class="edge">
<title>Node1&#45;&gt;Node6</title>
<path fill="none" stroke="midnightblue" d="M346.65,-52.32C321.03,-45.52 288.96,-37 262.11,-29.87"/>
<polygon fill="midnightblue" stroke="midnightblue" points="345.93,-55.75 356.49,-54.94 347.72,-48.99 345.93,-55.75"/>
</g>
<!-- Node3 -->
<g id="node3" class="node">
<title>Node3</title>
<g id="a_node3"><a xlink:href="../../da/dbe/namespaceleanux_1_1tools_1_1lmon.html#a7f59af183bc55b66e3dc0844b473daaf" target="_top" xlink:title=" ">
<polygon fill="none" stroke="red" points="0,-73.5 0,-103.5 110,-103.5 110,-73.5 0,-73.5"/>
<text text-anchor="start" x="8" y="-91.5" font-family="Helvetica,sans-Serif" font-size="10.00">leanux::tools::lmon</text>
<text text-anchor="middle" x="55" y="-80.5" font-family="Helvetica,sans-Serif" font-size="10.00">::main</text>
</a>
</g>
</g>
<!-- Node2&#45;&gt;Node3 -->
<g id="edge2" class="edge">
<title>Node2&#45;&gt;Node3</title>
<path fill="none" stroke="midnightblue" d="M140.27,-102.55C130.3,-100.88 120.1,-99.18 110.41,-97.57"/>
<polygon fill="midnightblue" stroke="midnightblue" points="139.71,-106 150.15,-104.19 140.86,-99.09 139.71,-106"/>
</g>
<!-- Node5&#45;&gt;Node3 -->
<g id="edge4" class="edge">
<title>Node5&#45;&gt;Node3</title>
<path fill="none" stroke="midnightblue" d="M135.86,-75.72C127.29,-77.09 118.63,-78.48 110.34,-79.81"/>
<polygon fill="midnightblue" stroke="midnightblue" points="136.53,-79.16 145.85,-74.12 135.43,-72.25 136.53,-79.16"/>
</g>
</g>
</svg>
