<?xml version="1.0" encoding="UTF-8" standalone="no"?>
<!DOCTYPE svg PUBLIC "-//W3C//DTD SVG 1.1//EN"
 "http://www.w3.org/Graphics/SVG/1.1/DTD/svg11.dtd">
<!-- Generated by graphviz version 2.43.0 (0)
 -->
<!-- Title: leanux::sysdevice::PCIDevice::getClass Pages: 1 -->
<svg width="522pt" height="137pt"
 viewBox="0.00 0.00 522.00 137.00" xmlns="http://www.w3.org/2000/svg" xmlns:xlink="http://www.w3.org/1999/xlink">
<g id="graph0" class="graph" transform="scale(1 1) rotate(0) translate(4 133)">
<title>leanux::sysdevice::PCIDevice::getClass</title>
<!-- Node1 -->
<g id="node1" class="node">
<title>Node1</title>
<g id="a_node1"><a xlink:title="Get the device class for this device.">
<polygon fill="#bfbfbf" stroke="black" points="0,-68.5 0,-98.5 114,-98.5 114,-68.5 0,-68.5"/>
<text text-anchor="start" x="8" y="-86.5" font-family="Helvetica,sans-Serif" font-size="10.00">leanux::sysdevice::</text>
<text text-anchor="middle" x="57" y="-75.5" font-family="Helvetica,sans-Serif" font-size="10.00">PCIDevice::getClass</text>
</a>
</g>
</g>
<!-- Node2 -->
<g id="node2" class="node">
<title>Node2</title>
<g id="a_node2"><a xlink:href="../../de/d5d/namespaceleanux_1_1pci.html#a48810ffbe83e8a8e357edfa1181c33a5" target="_top" xlink:title="get PCIHardwareId for a PCI device path relative to /sys/devives/">
<polygon fill="none" stroke="black" points="154.5,-98 154.5,-117 318.5,-117 318.5,-98 154.5,-98"/>
<text text-anchor="middle" x="236.5" y="-105" font-family="Helvetica,sans-Serif" font-size="10.00">leanux::pci::getPCIHardwareId</text>
</a>
</g>
</g>
<!-- Node1&#45;&gt;Node2 -->
<g id="edge1" class="edge">
<title>Node1&#45;&gt;Node2</title>
<path fill="none" stroke="midnightblue" d="M114.16,-91.09C127.16,-92.85 141.23,-94.75 155.04,-96.62"/>
<polygon fill="midnightblue" stroke="midnightblue" points="154.65,-100.1 165.03,-97.97 155.59,-93.16 154.65,-100.1"/>
</g>
<!-- Node4 -->
<g id="node4" class="node">
<title>Node4</title>
<g id="a_node4"><a xlink:href="../../de/d5d/namespaceleanux_1_1pci.html#ac5de5302fd54c5e26d2f3745877a750c" target="_top" xlink:title="Get PCI device info based on (vendor,device) function retrieves data from /usr/share/misc/pci....">
<polygon fill="none" stroke="black" points="150,-55 150,-74 323,-74 323,-55 150,-55"/>
<text text-anchor="middle" x="236.5" y="-62" font-family="Helvetica,sans-Serif" font-size="10.00">leanux::pci::getPCIHardwareInfo</text>
</a>
</g>
</g>
<!-- Node1&#45;&gt;Node4 -->
<g id="edge3" class="edge">
<title>Node1&#45;&gt;Node4</title>
<path fill="none" stroke="midnightblue" d="M114.16,-77.49C122.43,-76.6 131.13,-75.67 139.92,-74.73"/>
<polygon fill="midnightblue" stroke="midnightblue" points="140.3,-78.21 149.87,-73.67 139.55,-71.25 140.3,-78.21"/>
</g>
<!-- Node3 -->
<g id="node3" class="node">
<title>Node3</title>
<g id="a_node3"><a xlink:href="../../d8/db1/namespaceleanux_1_1util.html#a7efa8c5cecc9bb8beada58ee60fa71c4" target="_top" xlink:title="read the first data in the file as a hexadecimal string representation of a signed long.">
<polygon fill="none" stroke="black" points="368,-98.5 368,-128.5 505,-128.5 505,-98.5 368,-98.5"/>
<text text-anchor="start" x="376" y="-116.5" font-family="Helvetica,sans-Serif" font-size="10.00">leanux::util::fileReadHex</text>
<text text-anchor="middle" x="436.5" y="-105.5" font-family="Helvetica,sans-Serif" font-size="10.00">String</text>
</a>
</g>
</g>
<!-- Node2&#45;&gt;Node3 -->
<g id="edge2" class="edge">
<title>Node2&#45;&gt;Node3</title>
<path fill="none" stroke="midnightblue" d="M318.61,-109.96C331.5,-110.35 344.81,-110.75 357.63,-111.14"/>
<polygon fill="midnightblue" stroke="midnightblue" points="357.68,-114.64 367.78,-111.45 357.89,-107.65 357.68,-114.64"/>
</g>
<!-- Node5 -->
<g id="node5" class="node">
<title>Node5</title>
<g id="a_node5"><a xlink:href="../../de/d5d/namespaceleanux_1_1pci.html#a757a53b4facb1212c1bf2aa90bea46a3" target="_top" xlink:title="Transform a PCI class code to class name.">
<polygon fill="none" stroke="black" points="359,-49.5 359,-79.5 514,-79.5 514,-49.5 359,-49.5"/>
<text text-anchor="start" x="367" y="-67.5" font-family="Helvetica,sans-Serif" font-size="10.00">leanux::pci::getPCIHardware</text>
<text text-anchor="middle" x="436.5" y="-56.5" font-family="Helvetica,sans-Serif" font-size="10.00">ClassString</text>
</a>
</g>
</g>
<!-- Node4&#45;&gt;Node5 -->
<g id="edge4" class="edge">
<title>Node4&#45;&gt;Node5</title>
<path fill="none" stroke="midnightblue" d="M323.19,-64.5C331.59,-64.5 340.12,-64.5 348.53,-64.5"/>
<polygon fill="midnightblue" stroke="midnightblue" points="348.71,-68 358.71,-64.5 348.71,-61 348.71,-68"/>
</g>
<!-- Node6 -->
<g id="node6" class="node">
<title>Node6</title>
<g id="a_node6"><a xlink:href="../../de/d5d/namespaceleanux_1_1pci.html#a1697f5b7863d9051b766e856eca0e6cc" target="_top" xlink:title="Get the PCI subclass name for a PCI class code http://wiki.osdev.org/PCI#Class_Codes.">
<polygon fill="none" stroke="black" points="360.5,-0.5 360.5,-30.5 512.5,-30.5 512.5,-0.5 360.5,-0.5"/>
<text text-anchor="start" x="368.5" y="-18.5" font-family="Helvetica,sans-Serif" font-size="10.00">leanux::pci::getPCISubClass</text>
<text text-anchor="middle" x="436.5" y="-7.5" font-family="Helvetica,sans-Serif" font-size="10.00">String</text>
</a>
</g>
</g>
<!-- Node4&#45;&gt;Node6 -->
<g id="edge5" class="edge">
<title>Node4&#45;&gt;Node6</title>
<path fill="none" stroke="midnightblue" d="M276.15,-54.94C301.32,-48.71 334.92,-40.39 364.78,-33"/>
<polygon fill="midnightblue" stroke="midnightblue" points="365.87,-36.34 374.74,-30.54 364.19,-29.54 365.87,-36.34"/>
</g>
</g>
</svg>
