<?xml version="1.0" encoding="UTF-8" standalone="no"?>
<!DOCTYPE svg PUBLIC "-//W3C//DTD SVG 1.1//EN"
 "http://www.w3.org/Graphics/SVG/1.1/DTD/svg11.dtd">
<!-- Generated by graphviz version 2.43.0 (0)
 -->
<!-- Title: leanux::sysdevice::PCIDevice::getDisplayName Pages: 1 -->
<svg width="562pt" height="175pt"
 viewBox="0.00 0.00 562.00 175.00" xmlns="http://www.w3.org/2000/svg" xmlns:xlink="http://www.w3.org/1999/xlink">
<g id="graph0" class="graph" transform="scale(1 1) rotate(0) translate(4 171)">
<title>leanux::sysdevice::PCIDevice::getDisplayName</title>
<!-- Node1 -->
<g id="node1" class="node">
<title>Node1</title>
<g id="a_node1"><a xlink:title=" ">
<polygon fill="#bfbfbf" stroke="black" points="0,-92.5 0,-122.5 154,-122.5 154,-92.5 0,-92.5"/>
<text text-anchor="start" x="8" y="-110.5" font-family="Helvetica,sans-Serif" font-size="10.00">leanux::sysdevice::</text>
<text text-anchor="middle" x="77" y="-99.5" font-family="Helvetica,sans-Serif" font-size="10.00">PCIDevice::getDisplayName</text>
</a>
</g>
</g>
<!-- Node2 -->
<g id="node2" class="node">
<title>Node2</title>
<g id="a_node2"><a xlink:href="../../d1/d02/classleanux_1_1sysdevice_1_1SysDevice.html#a869141642aa173656c57a6509f0fb6e5" target="_top" xlink:title=" ">
<polygon fill="none" stroke="black" points="199,-136.5 199,-166.5 354,-166.5 354,-136.5 199,-136.5"/>
<text text-anchor="start" x="207" y="-154.5" font-family="Helvetica,sans-Serif" font-size="10.00">leanux::sysdevice::</text>
<text text-anchor="middle" x="276.5" y="-143.5" font-family="Helvetica,sans-Serif" font-size="10.00">SysDevice::getDisplayName</text>
</a>
</g>
</g>
<!-- Node1&#45;&gt;Node2 -->
<g id="edge1" class="edge">
<title>Node1&#45;&gt;Node2</title>
<path fill="none" stroke="midnightblue" d="M145.42,-122.52C162.32,-126.29 180.6,-130.36 197.96,-134.22"/>
<polygon fill="midnightblue" stroke="midnightblue" points="197.53,-137.72 208.05,-136.47 199.05,-130.88 197.53,-137.72"/>
</g>
<!-- Node3 -->
<g id="node3" class="node">
<title>Node3</title>
<g id="a_node3"><a xlink:href="../../de/d5d/namespaceleanux_1_1pci.html#a48810ffbe83e8a8e357edfa1181c33a5" target="_top" xlink:title="get PCIHardwareId for a PCI device path relative to /sys/devives/">
<polygon fill="none" stroke="black" points="194.5,-98 194.5,-117 358.5,-117 358.5,-98 194.5,-98"/>
<text text-anchor="middle" x="276.5" y="-105" font-family="Helvetica,sans-Serif" font-size="10.00">leanux::pci::getPCIHardwareId</text>
</a>
</g>
</g>
<!-- Node1&#45;&gt;Node3 -->
<g id="edge2" class="edge">
<title>Node1&#45;&gt;Node3</title>
<path fill="none" stroke="midnightblue" d="M154.08,-107.5C163.94,-107.5 174.12,-107.5 184.19,-107.5"/>
<polygon fill="midnightblue" stroke="midnightblue" points="184.22,-111 194.22,-107.5 184.22,-104 184.22,-111"/>
</g>
<!-- Node5 -->
<g id="node5" class="node">
<title>Node5</title>
<g id="a_node5"><a xlink:href="../../de/d5d/namespaceleanux_1_1pci.html#ac5de5302fd54c5e26d2f3745877a750c" target="_top" xlink:title="Get PCI device info based on (vendor,device) function retrieves data from /usr/share/misc/pci....">
<polygon fill="none" stroke="black" points="190,-55 190,-74 363,-74 363,-55 190,-55"/>
<text text-anchor="middle" x="276.5" y="-62" font-family="Helvetica,sans-Serif" font-size="10.00">leanux::pci::getPCIHardwareInfo</text>
</a>
</g>
</g>
<!-- Node1&#45;&gt;Node5 -->
<g id="edge4" class="edge">
<title>Node1&#45;&gt;Node5</title>
<path fill="none" stroke="midnightblue" d="M147.08,-92.46C171.59,-87.12 198.8,-81.2 221.83,-76.18"/>
<polygon fill="midnightblue" stroke="midnightblue" points="222.74,-79.57 231.76,-74.02 221.25,-72.73 222.74,-79.57"/>
</g>
<!-- Node4 -->
<g id="node4" class="node">
<title>Node4</title>
<g id="a_node4"><a xlink:href="../../d8/db1/namespaceleanux_1_1util.html#a7efa8c5cecc9bb8beada58ee60fa71c4" target="_top" xlink:title="read the first data in the file as a hexadecimal string representation of a signed long.">
<polygon fill="none" stroke="black" points="408,-98.5 408,-128.5 545,-128.5 545,-98.5 408,-98.5"/>
<text text-anchor="start" x="416" y="-116.5" font-family="Helvetica,sans-Serif" font-size="10.00">leanux::util::fileReadHex</text>
<text text-anchor="middle" x="476.5" y="-105.5" font-family="Helvetica,sans-Serif" font-size="10.00">String</text>
</a>
</g>
</g>
<!-- Node3&#45;&gt;Node4 -->
<g id="edge3" class="edge">
<title>Node3&#45;&gt;Node4</title>
<path fill="none" stroke="midnightblue" d="M358.61,-109.96C371.5,-110.35 384.81,-110.75 397.63,-111.14"/>
<polygon fill="midnightblue" stroke="midnightblue" points="397.68,-114.64 407.78,-111.45 397.89,-107.65 397.68,-114.64"/>
</g>
<!-- Node6 -->
<g id="node6" class="node">
<title>Node6</title>
<g id="a_node6"><a xlink:href="../../de/d5d/namespaceleanux_1_1pci.html#a757a53b4facb1212c1bf2aa90bea46a3" target="_top" xlink:title="Transform a PCI class code to class name.">
<polygon fill="none" stroke="black" points="399,-49.5 399,-79.5 554,-79.5 554,-49.5 399,-49.5"/>
<text text-anchor="start" x="407" y="-67.5" font-family="Helvetica,sans-Serif" font-size="10.00">leanux::pci::getPCIHardware</text>
<text text-anchor="middle" x="476.5" y="-56.5" font-family="Helvetica,sans-Serif" font-size="10.00">ClassString</text>
</a>
</g>
</g>
<!-- Node5&#45;&gt;Node6 -->
<g id="edge5" class="edge">
<title>Node5&#45;&gt;Node6</title>
<path fill="none" stroke="midnightblue" d="M363.19,-64.5C371.59,-64.5 380.12,-64.5 388.53,-64.5"/>
<polygon fill="midnightblue" stroke="midnightblue" points="388.71,-68 398.71,-64.5 388.71,-61 388.71,-68"/>
</g>
<!-- Node7 -->
<g id="node7" class="node">
<title>Node7</title>
<g id="a_node7"><a xlink:href="../../de/d5d/namespaceleanux_1_1pci.html#a1697f5b7863d9051b766e856eca0e6cc" target="_top" xlink:title="Get the PCI subclass name for a PCI class code http://wiki.osdev.org/PCI#Class_Codes.">
<polygon fill="none" stroke="black" points="400.5,-0.5 400.5,-30.5 552.5,-30.5 552.5,-0.5 400.5,-0.5"/>
<text text-anchor="start" x="408.5" y="-18.5" font-family="Helvetica,sans-Serif" font-size="10.00">leanux::pci::getPCISubClass</text>
<text text-anchor="middle" x="476.5" y="-7.5" font-family="Helvetica,sans-Serif" font-size="10.00">String</text>
</a>
</g>
</g>
<!-- Node5&#45;&gt;Node7 -->
<g id="edge6" class="edge">
<title>Node5&#45;&gt;Node7</title>
<path fill="none" stroke="midnightblue" d="M316.15,-54.94C341.32,-48.71 374.92,-40.39 404.78,-33"/>
<polygon fill="midnightblue" stroke="midnightblue" points="405.87,-36.34 414.74,-30.54 404.19,-29.54 405.87,-36.34"/>
</g>
</g>
</svg>
