<?xml version="1.0" encoding="UTF-8" standalone="no"?>
<!DOCTYPE svg PUBLIC "-//W3C//DTD SVG 1.1//EN"
 "http://www.w3.org/Graphics/SVG/1.1/DTD/svg11.dtd">
<!-- Generated by graphviz version 2.43.0 (0)
 -->
<!-- Title: leanux::sysdevice::PCIDevice::getPropertyValueList Pages: 1 -->
<svg width="583pt" height="361pt"
 viewBox="0.00 0.00 583.00 360.50" xmlns="http://www.w3.org/2000/svg" xmlns:xlink="http://www.w3.org/1999/xlink">
<g id="graph0" class="graph" transform="scale(1 1) rotate(0) translate(4 356.5)">
<title>leanux::sysdevice::PCIDevice::getPropertyValueList</title>
<!-- Node1 -->
<g id="node1" class="node">
<title>Node1</title>
<g id="a_node1"><a xlink:title=" ">
<polygon fill="#bfbfbf" stroke="black" points="0,-220.5 0,-250.5 173,-250.5 173,-220.5 0,-220.5"/>
<text text-anchor="start" x="8" y="-238.5" font-family="Helvetica,sans-Serif" font-size="10.00">leanux::sysdevice::</text>
<text text-anchor="middle" x="86.5" y="-227.5" font-family="Helvetica,sans-Serif" font-size="10.00">PCIDevice::getPropertyValueList</text>
</a>
</g>
</g>
<!-- Node2 -->
<g id="node2" class="node">
<title>Node2</title>
<g id="a_node2"><a xlink:href="../../de/d5d/namespaceleanux_1_1pci.html#a516af433630717aadba97a39c7f99361" target="_top" xlink:title="Get the IRQ assigned to a PCI device.">
<polygon fill="none" stroke="black" points="217.5,-295 217.5,-314 375.5,-314 375.5,-295 217.5,-295"/>
<text text-anchor="middle" x="296.5" y="-302" font-family="Helvetica,sans-Serif" font-size="10.00">leanux::pci::getPCIDeviceIRQ</text>
</a>
</g>
</g>
<!-- Node1&#45;&gt;Node2 -->
<g id="edge1" class="edge">
<title>Node1&#45;&gt;Node2</title>
<path fill="none" stroke="midnightblue" d="M132.89,-250.56C169.99,-262.86 221.86,-280.07 256.97,-291.72"/>
<polygon fill="midnightblue" stroke="midnightblue" points="256.25,-295.17 266.84,-294.99 258.45,-288.52 256.25,-295.17"/>
</g>
<!-- Node5 -->
<g id="node5" class="node">
<title>Node5</title>
<g id="a_node5"><a xlink:href="../../de/d5d/namespaceleanux_1_1pci.html#a48810ffbe83e8a8e357edfa1181c33a5" target="_top" xlink:title="get PCIHardwareId for a PCI device path relative to /sys/devives/">
<polygon fill="none" stroke="black" points="214.5,-246 214.5,-265 378.5,-265 378.5,-246 214.5,-246"/>
<text text-anchor="middle" x="296.5" y="-253" font-family="Helvetica,sans-Serif" font-size="10.00">leanux::pci::getPCIHardwareId</text>
</a>
</g>
</g>
<!-- Node1&#45;&gt;Node5 -->
<g id="edge4" class="edge">
<title>Node1&#45;&gt;Node5</title>
<path fill="none" stroke="midnightblue" d="M173,-243.72C183.25,-244.71 193.75,-245.72 204.09,-246.71"/>
<polygon fill="midnightblue" stroke="midnightblue" points="204.06,-250.22 214.35,-247.7 204.73,-243.26 204.06,-250.22"/>
</g>
<!-- Node7 -->
<g id="node7" class="node">
<title>Node7</title>
<g id="a_node7"><a xlink:href="../../de/d5d/namespaceleanux_1_1pci.html#ac5de5302fd54c5e26d2f3745877a750c" target="_top" xlink:title="Get PCI device info based on (vendor,device) function retrieves data from /usr/share/misc/pci....">
<polygon fill="none" stroke="black" points="210,-202 210,-221 383,-221 383,-202 210,-202"/>
<text text-anchor="middle" x="296.5" y="-209" font-family="Helvetica,sans-Serif" font-size="10.00">leanux::pci::getPCIHardwareInfo</text>
</a>
</g>
</g>
<!-- Node1&#45;&gt;Node7 -->
<g id="edge6" class="edge">
<title>Node1&#45;&gt;Node7</title>
<path fill="none" stroke="midnightblue" d="M173,-225.63C182.92,-224.49 193.07,-223.32 203.07,-222.16"/>
<polygon fill="midnightblue" stroke="midnightblue" points="203.48,-225.64 213.01,-221.02 202.68,-218.69 203.48,-225.64"/>
</g>
<!-- Node10 -->
<g id="node10" class="node">
<title>Node10</title>
<g id="a_node10"><a xlink:href="../../d1/d02/classleanux_1_1sysdevice_1_1SysDevice.html#ae45d4c50b05a48b480911a1aaeaeacc1" target="_top" xlink:title=" ">
<polygon fill="none" stroke="black" points="209,-74.5 209,-104.5 384,-104.5 384,-74.5 209,-74.5"/>
<text text-anchor="start" x="217" y="-92.5" font-family="Helvetica,sans-Serif" font-size="10.00">leanux::sysdevice::</text>
<text text-anchor="middle" x="296.5" y="-81.5" font-family="Helvetica,sans-Serif" font-size="10.00">SysDevice::getPropertyValueList</text>
</a>
</g>
</g>
<!-- Node1&#45;&gt;Node10 -->
<g id="edge9" class="edge">
<title>Node1&#45;&gt;Node10</title>
<path fill="none" stroke="midnightblue" d="M108.98,-220.43C146.27,-194.25 223.06,-140.35 265.56,-110.52"/>
<polygon fill="midnightblue" stroke="midnightblue" points="267.65,-113.32 273.83,-104.71 263.63,-107.59 267.65,-113.32"/>
</g>
<!-- Node3 -->
<g id="node3" class="node">
<title>Node3</title>
<g id="a_node3"><a xlink:href="../../d8/db1/namespaceleanux_1_1util.html#a6421ca2c46c56eebe1a486c6a498ce7d" target="_top" xlink:title="Test if a file exists and can be read.">
<polygon fill="none" stroke="black" points="422,-333 422,-352 573,-352 573,-333 422,-333"/>
<text text-anchor="middle" x="497.5" y="-340" font-family="Helvetica,sans-Serif" font-size="10.00">leanux::util::fileReadAccess</text>
</a>
</g>
</g>
<!-- Node2&#45;&gt;Node3 -->
<g id="edge2" class="edge">
<title>Node2&#45;&gt;Node3</title>
<path fill="none" stroke="midnightblue" d="M347.46,-314.04C374.55,-319.21 408.21,-325.64 436.68,-331.08"/>
<polygon fill="midnightblue" stroke="midnightblue" points="436.04,-334.52 446.52,-332.96 437.35,-327.64 436.04,-334.52"/>
</g>
<!-- Node4 -->
<g id="node4" class="node">
<title>Node4</title>
<g id="a_node4"><a xlink:href="../../d8/db1/namespaceleanux_1_1util.html#aff0a888cebf58e4cf942fc3dc681aac8" target="_top" xlink:title="read the first data in the file as a string representation of a signed int.">
<polygon fill="none" stroke="black" points="432.5,-295 432.5,-314 562.5,-314 562.5,-295 432.5,-295"/>
<text text-anchor="middle" x="497.5" y="-302" font-family="Helvetica,sans-Serif" font-size="10.00">leanux::util::fileReadInt</text>
</a>
</g>
</g>
<!-- Node2&#45;&gt;Node4 -->
<g id="edge3" class="edge">
<title>Node2&#45;&gt;Node4</title>
<path fill="none" stroke="midnightblue" d="M375.58,-304.5C390.88,-304.5 406.9,-304.5 422.08,-304.5"/>
<polygon fill="midnightblue" stroke="midnightblue" points="422.44,-308 432.44,-304.5 422.44,-301 422.44,-308"/>
</g>
<!-- Node6 -->
<g id="node6" class="node">
<title>Node6</title>
<g id="a_node6"><a xlink:href="../../d8/db1/namespaceleanux_1_1util.html#a7efa8c5cecc9bb8beada58ee60fa71c4" target="_top" xlink:title="read the first data in the file as a hexadecimal string representation of a signed long.">
<polygon fill="none" stroke="black" points="429,-245.5 429,-275.5 566,-275.5 566,-245.5 429,-245.5"/>
<text text-anchor="start" x="437" y="-263.5" font-family="Helvetica,sans-Serif" font-size="10.00">leanux::util::fileReadHex</text>
<text text-anchor="middle" x="497.5" y="-252.5" font-family="Helvetica,sans-Serif" font-size="10.00">String</text>
</a>
</g>
</g>
<!-- Node5&#45;&gt;Node6 -->
<g id="edge5" class="edge">
<title>Node5&#45;&gt;Node6</title>
<path fill="none" stroke="midnightblue" d="M378.73,-257.54C391.87,-257.87 405.46,-258.21 418.52,-258.54"/>
<polygon fill="midnightblue" stroke="midnightblue" points="418.79,-262.05 428.87,-258.8 418.96,-255.05 418.79,-262.05"/>
</g>
<!-- Node8 -->
<g id="node8" class="node">
<title>Node8</title>
<g id="a_node8"><a xlink:href="../../de/d5d/namespaceleanux_1_1pci.html#a757a53b4facb1212c1bf2aa90bea46a3" target="_top" xlink:title="Transform a PCI class code to class name.">
<polygon fill="none" stroke="black" points="420,-196.5 420,-226.5 575,-226.5 575,-196.5 420,-196.5"/>
<text text-anchor="start" x="428" y="-214.5" font-family="Helvetica,sans-Serif" font-size="10.00">leanux::pci::getPCIHardware</text>
<text text-anchor="middle" x="497.5" y="-203.5" font-family="Helvetica,sans-Serif" font-size="10.00">ClassString</text>
</a>
</g>
</g>
<!-- Node7&#45;&gt;Node8 -->
<g id="edge7" class="edge">
<title>Node7&#45;&gt;Node8</title>
<path fill="none" stroke="midnightblue" d="M383.05,-211.5C391.83,-211.5 400.76,-211.5 409.56,-211.5"/>
<polygon fill="midnightblue" stroke="midnightblue" points="409.81,-215 419.81,-211.5 409.81,-208 409.81,-215"/>
</g>
<!-- Node9 -->
<g id="node9" class="node">
<title>Node9</title>
<g id="a_node9"><a xlink:href="../../de/d5d/namespaceleanux_1_1pci.html#a1697f5b7863d9051b766e856eca0e6cc" target="_top" xlink:title="Get the PCI subclass name for a PCI class code http://wiki.osdev.org/PCI#Class_Codes.">
<polygon fill="none" stroke="black" points="421.5,-147.5 421.5,-177.5 573.5,-177.5 573.5,-147.5 421.5,-147.5"/>
<text text-anchor="start" x="429.5" y="-165.5" font-family="Helvetica,sans-Serif" font-size="10.00">leanux::pci::getPCISubClass</text>
<text text-anchor="middle" x="497.5" y="-154.5" font-family="Helvetica,sans-Serif" font-size="10.00">String</text>
</a>
</g>
</g>
<!-- Node7&#45;&gt;Node9 -->
<g id="edge8" class="edge">
<title>Node7&#45;&gt;Node9</title>
<path fill="none" stroke="midnightblue" d="M336.34,-201.94C361.65,-195.71 395.41,-187.39 425.42,-180"/>
<polygon fill="midnightblue" stroke="midnightblue" points="426.56,-183.33 435.43,-177.54 424.88,-176.53 426.56,-183.33"/>
</g>
<!-- Node11 -->
<g id="node11" class="node">
<title>Node11</title>
<g id="a_node11"><a xlink:href="../../d1/d02/classleanux_1_1sysdevice_1_1SysDevice.html#af93bf56dfb812cdfa443dcfaffcbbb25" target="_top" xlink:title="Get the device class for this device.">
<polygon fill="none" stroke="black" points="439.5,-98.5 439.5,-128.5 555.5,-128.5 555.5,-98.5 439.5,-98.5"/>
<text text-anchor="start" x="447.5" y="-116.5" font-family="Helvetica,sans-Serif" font-size="10.00">leanux::sysdevice::</text>
<text text-anchor="middle" x="497.5" y="-105.5" font-family="Helvetica,sans-Serif" font-size="10.00">SysDevice::getClass</text>
</a>
</g>
</g>
<!-- Node10&#45;&gt;Node11 -->
<g id="edge10" class="edge">
<title>Node10&#45;&gt;Node11</title>
<path fill="none" stroke="midnightblue" d="M384.21,-99.96C399.21,-101.77 414.6,-103.62 429,-105.36"/>
<polygon fill="midnightblue" stroke="midnightblue" points="428.94,-108.88 439.29,-106.6 429.78,-101.93 428.94,-108.88"/>
</g>
<!-- Node12 -->
<g id="node12" class="node">
<title>Node12</title>
<g id="a_node12"><a xlink:href="../../d1/d02/classleanux_1_1sysdevice_1_1SysDevice.html#af7a1af7a4b7729e150cceed395e4425b" target="_top" xlink:title="Get the driver for this device.">
<polygon fill="none" stroke="red" points="438,-49.5 438,-79.5 557,-79.5 557,-49.5 438,-49.5"/>
<text text-anchor="start" x="446" y="-67.5" font-family="Helvetica,sans-Serif" font-size="10.00">leanux::sysdevice::</text>
<text text-anchor="middle" x="497.5" y="-56.5" font-family="Helvetica,sans-Serif" font-size="10.00">SysDevice::getDriver</text>
</a>
</g>
</g>
<!-- Node10&#45;&gt;Node12 -->
<g id="edge11" class="edge">
<title>Node10&#45;&gt;Node12</title>
<path fill="none" stroke="midnightblue" d="M384.21,-78.61C398.79,-76.78 413.74,-74.9 427.79,-73.13"/>
<polygon fill="midnightblue" stroke="midnightblue" points="428.35,-76.59 437.83,-71.87 427.48,-69.64 428.35,-76.59"/>
</g>
<!-- Node15 -->
<g id="node13" class="node">
<title>Node15</title>
<g id="a_node13"><a xlink:href="../../d1/d02/classleanux_1_1sysdevice_1_1SysDevice.html#a899968c4a70ecad67694f6850cf730fd" target="_top" xlink:title="Get a string representation for the SysDeviceType.">
<polygon fill="none" stroke="black" points="435,-0.5 435,-30.5 560,-30.5 560,-0.5 435,-0.5"/>
<text text-anchor="start" x="443" y="-18.5" font-family="Helvetica,sans-Serif" font-size="10.00">leanux::sysdevice::</text>
<text text-anchor="middle" x="497.5" y="-7.5" font-family="Helvetica,sans-Serif" font-size="10.00">SysDevice::getTypeStr</text>
</a>
</g>
</g>
<!-- Node10&#45;&gt;Node15 -->
<g id="edge12" class="edge">
<title>Node10&#45;&gt;Node15</title>
<path fill="none" stroke="midnightblue" d="M332.05,-74.5C356.43,-64.13 389.96,-50.32 420,-39.5 425.45,-37.54 431.16,-35.58 436.88,-33.67"/>
<polygon fill="midnightblue" stroke="midnightblue" points="438.09,-36.96 446.51,-30.52 435.91,-30.3 438.09,-36.96"/>
</g>
</g>
</svg>
