<?xml version="1.0" encoding="UTF-8" standalone="no"?>
<!DOCTYPE svg PUBLIC "-//W3C//DTD SVG 1.1//EN"
 "http://www.w3.org/Graphics/SVG/1.1/DTD/svg11.dtd">
<!-- Generated by graphviz version 2.43.0 (0)
 -->
<!-- Title: leanux::tools::lard::Snapshot Pages: 1 -->
<svg width="252pt" height="480pt"
 viewBox="0.00 0.00 252.00 480.00" xmlns="http://www.w3.org/2000/svg" xmlns:xlink="http://www.w3.org/1999/xlink">
<g id="graph0" class="graph" transform="scale(1 1) rotate(0) translate(4 476)">
<title>leanux::tools::lard::Snapshot</title>
<!-- Node1 -->
<g id="node1" class="node">
<title>Node1</title>
<g id="a_node1"><a xlink:title=" ">
<polygon fill="#bfbfbf" stroke="black" points="0,-220.5 0,-250.5 104,-250.5 104,-220.5 0,-220.5"/>
<text text-anchor="start" x="8" y="-238.5" font-family="Helvetica,sans-Serif" font-size="10.00">leanux::tools::lard</text>
<text text-anchor="middle" x="52" y="-227.5" font-family="Helvetica,sans-Serif" font-size="10.00">::Snapshot</text>
</a>
</g>
</g>
<!-- Node2 -->
<g id="node2" class="node">
<title>Node2</title>
<g id="a_node2"><a xlink:href="../../d5/d03/classleanux_1_1tools_1_1lard_1_1CPUSnap.html" target="_top" xlink:title=" ">
<polygon fill="none" stroke="black" points="140,-441.5 140,-471.5 244,-471.5 244,-441.5 140,-441.5"/>
<text text-anchor="start" x="148" y="-459.5" font-family="Helvetica,sans-Serif" font-size="10.00">leanux::tools::lard</text>
<text text-anchor="middle" x="192" y="-448.5" font-family="Helvetica,sans-Serif" font-size="10.00">::CPUSnap</text>
</a>
</g>
</g>
<!-- Node1&#45;&gt;Node2 -->
<g id="edge1" class="edge">
<title>Node1&#45;&gt;Node2</title>
<path fill="none" stroke="midnightblue" d="M58.08,-260.54C67.53,-301.39 91.45,-382.77 140,-432.5 143.28,-435.86 147.13,-438.81 151.21,-441.37"/>
<polygon fill="midnightblue" stroke="midnightblue" points="61.46,-259.63 55.88,-250.62 54.62,-261.14 61.46,-259.63"/>
</g>
<!-- Node3 -->
<g id="node3" class="node">
<title>Node3</title>
<g id="a_node3"><a xlink:href="../../d8/d77/classleanux_1_1tools_1_1lard_1_1IOSnap.html" target="_top" xlink:title=" ">
<polygon fill="none" stroke="black" points="140,-392.5 140,-422.5 244,-422.5 244,-392.5 140,-392.5"/>
<text text-anchor="start" x="148" y="-410.5" font-family="Helvetica,sans-Serif" font-size="10.00">leanux::tools::lard</text>
<text text-anchor="middle" x="192" y="-399.5" font-family="Helvetica,sans-Serif" font-size="10.00">::IOSnap</text>
</a>
</g>
</g>
<!-- Node1&#45;&gt;Node3 -->
<g id="edge2" class="edge">
<title>Node1&#45;&gt;Node3</title>
<path fill="none" stroke="midnightblue" d="M62.23,-260.48C75.22,-292.64 101.66,-348.52 140,-383.5 143.69,-386.86 147.93,-389.84 152.36,-392.45"/>
<polygon fill="midnightblue" stroke="midnightblue" points="65.4,-258.97 58.49,-250.93 58.88,-261.52 65.4,-258.97"/>
</g>
<!-- Node4 -->
<g id="node4" class="node">
<title>Node4</title>
<g id="a_node4"><a xlink:href="../../d0/db5/classleanux_1_1tools_1_1lard_1_1MountSnap.html" target="_top" xlink:title=" ">
<polygon fill="none" stroke="black" points="140,-343.5 140,-373.5 244,-373.5 244,-343.5 140,-343.5"/>
<text text-anchor="start" x="148" y="-361.5" font-family="Helvetica,sans-Serif" font-size="10.00">leanux::tools::lard</text>
<text text-anchor="middle" x="192" y="-350.5" font-family="Helvetica,sans-Serif" font-size="10.00">::MountSnap</text>
</a>
</g>
</g>
<!-- Node1&#45;&gt;Node4 -->
<g id="edge3" class="edge">
<title>Node1&#45;&gt;Node4</title>
<path fill="none" stroke="midnightblue" d="M69.26,-259.01C85.26,-280.79 111.39,-312.98 140,-334.5 144.38,-337.79 149.28,-340.79 154.27,-343.47"/>
<polygon fill="midnightblue" stroke="midnightblue" points="71.93,-256.72 63.24,-250.65 66.25,-260.81 71.93,-256.72"/>
</g>
<!-- Node5 -->
<g id="node5" class="node">
<title>Node5</title>
<g id="a_node5"><a xlink:href="../../d2/de5/classleanux_1_1tools_1_1lard_1_1NetSnap.html" target="_top" xlink:title=" ">
<polygon fill="none" stroke="black" points="140,-294.5 140,-324.5 244,-324.5 244,-294.5 140,-294.5"/>
<text text-anchor="start" x="148" y="-312.5" font-family="Helvetica,sans-Serif" font-size="10.00">leanux::tools::lard</text>
<text text-anchor="middle" x="192" y="-301.5" font-family="Helvetica,sans-Serif" font-size="10.00">::NetSnap</text>
</a>
</g>
</g>
<!-- Node1&#45;&gt;Node5 -->
<g id="edge4" class="edge">
<title>Node1&#45;&gt;Node5</title>
<path fill="none" stroke="midnightblue" d="M87.14,-255.98C103.04,-265.3 122.31,-276.27 140,-285.5 145.73,-288.49 151.89,-291.53 157.88,-294.4"/>
<polygon fill="midnightblue" stroke="midnightblue" points="88.59,-252.78 78.2,-250.71 85.04,-258.81 88.59,-252.78"/>
</g>
<!-- Node6 -->
<g id="node6" class="node">
<title>Node6</title>
<g id="a_node6"><a xlink:href="../../d4/d0e/classleanux_1_1tools_1_1lard_1_1ProcSnap.html" target="_top" xlink:title=" ">
<polygon fill="none" stroke="black" points="140,-245.5 140,-275.5 244,-275.5 244,-245.5 140,-245.5"/>
<text text-anchor="start" x="148" y="-263.5" font-family="Helvetica,sans-Serif" font-size="10.00">leanux::tools::lard</text>
<text text-anchor="middle" x="192" y="-252.5" font-family="Helvetica,sans-Serif" font-size="10.00">::ProcSnap</text>
</a>
</g>
</g>
<!-- Node1&#45;&gt;Node6 -->
<g id="edge5" class="edge">
<title>Node1&#45;&gt;Node6</title>
<path fill="none" stroke="midnightblue" d="M114.5,-246.64C122.87,-248.16 131.4,-249.7 139.57,-251.18"/>
<polygon fill="midnightblue" stroke="midnightblue" points="114.85,-243.15 104.39,-244.81 113.6,-250.04 114.85,-243.15"/>
</g>
<!-- Node7 -->
<g id="node7" class="node">
<title>Node7</title>
<g id="a_node7"><a xlink:href="../../d4/d46/classleanux_1_1tools_1_1lard_1_1ResSnap.html" target="_top" xlink:title=" ">
<polygon fill="none" stroke="black" points="140,-196.5 140,-226.5 244,-226.5 244,-196.5 140,-196.5"/>
<text text-anchor="start" x="148" y="-214.5" font-family="Helvetica,sans-Serif" font-size="10.00">leanux::tools::lard</text>
<text text-anchor="middle" x="192" y="-203.5" font-family="Helvetica,sans-Serif" font-size="10.00">::ResSnap</text>
</a>
</g>
</g>
<!-- Node1&#45;&gt;Node7 -->
<g id="edge6" class="edge">
<title>Node1&#45;&gt;Node7</title>
<path fill="none" stroke="midnightblue" d="M114.5,-224.81C122.87,-223.35 131.4,-221.87 139.57,-220.44"/>
<polygon fill="midnightblue" stroke="midnightblue" points="113.64,-221.4 104.39,-226.56 114.84,-228.3 113.64,-221.4"/>
</g>
<!-- Node8 -->
<g id="node8" class="node">
<title>Node8</title>
<g id="a_node8"><a xlink:href="../../d3/d40/classleanux_1_1tools_1_1lard_1_1SchedSnap.html" target="_top" xlink:title=" ">
<polygon fill="none" stroke="black" points="140,-147.5 140,-177.5 244,-177.5 244,-147.5 140,-147.5"/>
<text text-anchor="start" x="148" y="-165.5" font-family="Helvetica,sans-Serif" font-size="10.00">leanux::tools::lard</text>
<text text-anchor="middle" x="192" y="-154.5" font-family="Helvetica,sans-Serif" font-size="10.00">::SchedSnap</text>
</a>
</g>
</g>
<!-- Node1&#45;&gt;Node8 -->
<g id="edge7" class="edge">
<title>Node1&#45;&gt;Node8</title>
<path fill="none" stroke="midnightblue" d="M88.34,-215.5C104.06,-206.73 122.86,-196.42 140,-187.5 146.3,-184.22 153.09,-180.81 159.59,-177.6"/>
<polygon fill="midnightblue" stroke="midnightblue" points="86.49,-212.52 79.47,-220.46 89.91,-218.63 86.49,-212.52"/>
</g>
<!-- Node9 -->
<g id="node9" class="node">
<title>Node9</title>
<g id="a_node9"><a xlink:href="../../d7/dff/classleanux_1_1tools_1_1lard_1_1TCPEstaSnap.html" target="_top" xlink:title=" ">
<polygon fill="none" stroke="black" points="140,-98.5 140,-128.5 244,-128.5 244,-98.5 140,-98.5"/>
<text text-anchor="start" x="148" y="-116.5" font-family="Helvetica,sans-Serif" font-size="10.00">leanux::tools::lard</text>
<text text-anchor="middle" x="192" y="-105.5" font-family="Helvetica,sans-Serif" font-size="10.00">::TCPEstaSnap</text>
</a>
</g>
</g>
<!-- Node1&#45;&gt;Node9 -->
<g id="edge8" class="edge">
<title>Node1&#45;&gt;Node9</title>
<path fill="none" stroke="midnightblue" d="M69.71,-212.23C85.85,-190.98 111.94,-159.73 140,-138.5 144.8,-134.87 150.2,-131.55 155.66,-128.6"/>
<polygon fill="midnightblue" stroke="midnightblue" points="66.79,-210.28 63.62,-220.39 72.4,-214.47 66.79,-210.28"/>
</g>
<!-- Node10 -->
<g id="node10" class="node">
<title>Node10</title>
<g id="a_node10"><a xlink:href="../../d3/d88/classleanux_1_1tools_1_1lard_1_1TimeSnap.html" target="_top" xlink:title=" ">
<polygon fill="none" stroke="black" points="140,-49.5 140,-79.5 244,-79.5 244,-49.5 140,-49.5"/>
<text text-anchor="start" x="148" y="-67.5" font-family="Helvetica,sans-Serif" font-size="10.00">leanux::tools::lard</text>
<text text-anchor="middle" x="192" y="-56.5" font-family="Helvetica,sans-Serif" font-size="10.00">::TimeSnap</text>
</a>
</g>
</g>
<!-- Node1&#45;&gt;Node10 -->
<g id="edge9" class="edge">
<title>Node1&#45;&gt;Node10</title>
<path fill="none" stroke="midnightblue" d="M62.4,-210.95C75.58,-179.33 102.21,-124.32 140,-89.5 144.06,-85.76 148.79,-82.46 153.69,-79.58"/>
<polygon fill="midnightblue" stroke="midnightblue" points="59.11,-209.75 58.6,-220.34 65.6,-212.38 59.11,-209.75"/>
</g>
<!-- Node11 -->
<g id="node11" class="node">
<title>Node11</title>
<g id="a_node11"><a xlink:href="../../d5/d46/classleanux_1_1tools_1_1lard_1_1VMSnap.html" target="_top" xlink:title=" ">
<polygon fill="none" stroke="black" points="140,-0.5 140,-30.5 244,-30.5 244,-0.5 140,-0.5"/>
<text text-anchor="start" x="148" y="-18.5" font-family="Helvetica,sans-Serif" font-size="10.00">leanux::tools::lard</text>
<text text-anchor="middle" x="192" y="-7.5" font-family="Helvetica,sans-Serif" font-size="10.00">::VMSnap</text>
</a>
</g>
</g>
<!-- Node1&#45;&gt;Node11 -->
<g id="edge10" class="edge">
<title>Node1&#45;&gt;Node11</title>
<path fill="none" stroke="midnightblue" d="M58.31,-210.49C68.04,-170.09 92.28,-89.98 140,-40.5 143.63,-36.74 147.94,-33.46 152.5,-30.63"/>
<polygon fill="midnightblue" stroke="midnightblue" points="54.88,-209.79 56.04,-220.33 61.7,-211.37 54.88,-209.79"/>
</g>
</g>
</svg>
