<?xml version="1.0" encoding="UTF-8" standalone="no"?>
<!DOCTYPE svg PUBLIC "-//W3C//DTD SVG 1.1//EN"
 "http://www.w3.org/Graphics/SVG/1.1/DTD/svg11.dtd">
<!-- Generated by graphviz version 2.43.0 (0)
 -->
<!-- Title: leanux::tools::lmon::View Pages: 1 -->
<svg width="664pt" height="459pt"
 viewBox="0.00 0.00 664.00 459.00" xmlns="http://www.w3.org/2000/svg" xmlns:xlink="http://www.w3.org/1999/xlink">
<g id="graph0" class="graph" transform="scale(1 1) rotate(0) translate(4 455)">
<title>leanux::tools::lmon::View</title>
<!-- Node1 -->
<g id="node1" class="node">
<title>Node1</title>
<g id="a_node1"><a xlink:title="A reactangular area on the ncurses Screen as a window of information.">
<polygon fill="#bfbfbf" stroke="black" points="230,-133.5 230,-163.5 340,-163.5 340,-133.5 230,-133.5"/>
<text text-anchor="start" x="238" y="-151.5" font-family="Helvetica,sans-Serif" font-size="10.00">leanux::tools::lmon</text>
<text text-anchor="middle" x="285" y="-140.5" font-family="Helvetica,sans-Serif" font-size="10.00">::View</text>
</a>
</g>
</g>
<!-- Node3 -->
<g id="node3" class="node">
<title>Node3</title>
<g id="a_node3"><a xlink:href="../../d5/de6/classleanux_1_1tools_1_1lmon_1_1Screen.html" target="_top" xlink:title="The curses screen.">
<polygon fill="none" stroke="black" points="247,-0.5 247,-30.5 357,-30.5 357,-0.5 247,-0.5"/>
<text text-anchor="start" x="255" y="-18.5" font-family="Helvetica,sans-Serif" font-size="10.00">leanux::tools::lmon</text>
<text text-anchor="middle" x="302" y="-7.5" font-family="Helvetica,sans-Serif" font-size="10.00">::Screen</text>
</a>
</g>
</g>
<!-- Node1&#45;&gt;Node3 -->
<g id="edge3" class="edge">
<title>Node1&#45;&gt;Node3</title>
<path fill="none" stroke="#9a32cd" stroke-dasharray="5,2" d="M288.14,-123.27C291.67,-96.13 297.26,-53.05 300.14,-30.82"/>
<polygon fill="#9a32cd" stroke="#9a32cd" points="284.64,-123.11 286.82,-133.48 291.58,-124.01 284.64,-123.11"/>
<text text-anchor="middle" x="324" y="-107" font-family="Helvetica,sans-Serif" font-size="10.00"> vfooter_</text>
<text text-anchor="middle" x="324" y="-96" font-family="Helvetica,sans-Serif" font-size="10.00">vsys_</text>
<text text-anchor="middle" x="324" y="-85" font-family="Helvetica,sans-Serif" font-size="10.00">vio_</text>
<text text-anchor="middle" x="324" y="-74" font-family="Helvetica,sans-Serif" font-size="10.00">vprocess_</text>
<text text-anchor="middle" x="324" y="-63" font-family="Helvetica,sans-Serif" font-size="10.00">vnetwork_</text>
<text text-anchor="middle" x="324" y="-52" font-family="Helvetica,sans-Serif" font-size="10.00">vheader_</text>
</g>
<!-- Node2 -->
<g id="node2" class="node">
<title>Node2</title>
<g id="a_node2"><a xlink:title=" ">
<polygon fill="none" stroke="#bfbfbf" points="353.5,-431.5 353.5,-450.5 438.5,-450.5 438.5,-431.5 353.5,-431.5"/>
<text text-anchor="middle" x="396" y="-438.5" font-family="Helvetica,sans-Serif" font-size="10.00">unsigned long</text>
</a>
</g>
</g>
<!-- Node2&#45;&gt;Node1 -->
<g id="edge1" class="edge">
<title>Node2&#45;&gt;Node1</title>
<path fill="none" stroke="#9a32cd" stroke-dasharray="5,2" d="M396.93,-421.01C399.14,-367.92 402.56,-219.35 374,-182 368.95,-175.4 354.04,-168.95 337.82,-163.56"/>
<polygon fill="#9a32cd" stroke="#9a32cd" points="393.42,-421.19 396.46,-431.33 400.41,-421.5 393.42,-421.19"/>
<text text-anchor="middle" x="437.5" y="-295" font-family="Helvetica,sans-Serif" font-size="10.00"> sample_count_</text>
</g>
<!-- Node3&#45;&gt;Node1 -->
<g id="edge2" class="edge">
<title>Node3&#45;&gt;Node1</title>
<path fill="none" stroke="#9a32cd" stroke-dasharray="5,2" d="M250.39,-36.41C245.91,-39.97 241.96,-44.14 239,-49 223.74,-74.05 225.51,-88.95 239,-115 242.87,-122.47 249.33,-128.59 256.2,-133.42"/>
<polygon fill="#9a32cd" stroke="#9a32cd" points="252.61,-39.13 258.93,-30.63 248.69,-33.34 252.61,-39.13"/>
<text text-anchor="middle" x="259.5" y="-79.5" font-family="Helvetica,sans-Serif" font-size="10.00"> screen_</text>
</g>
<!-- Node4 -->
<g id="node4" class="node">
<title>Node4</title>
<g id="a_node4"><a xlink:title=" ">
<polygon fill="none" stroke="#bfbfbf" points="0,-139 0,-158 84,-158 84,-139 0,-139"/>
<text text-anchor="middle" x="42" y="-146" font-family="Helvetica,sans-Serif" font-size="10.00">struct winsize</text>
</a>
</g>
</g>
<!-- Node4&#45;&gt;Node3 -->
<g id="edge4" class="edge">
<title>Node4&#45;&gt;Node3</title>
<path fill="none" stroke="#9a32cd" stroke-dasharray="5,2" d="M50.26,-129.76C61.81,-107.1 85,-68.49 117,-49 138.31,-36.03 200.23,-26.95 246.6,-21.75"/>
<polygon fill="#9a32cd" stroke="#9a32cd" points="47.03,-128.4 45.79,-138.93 53.32,-131.48 47.03,-128.4"/>
<text text-anchor="middle" x="135.5" y="-79.5" font-family="Helvetica,sans-Serif" font-size="10.00"> winsz_</text>
</g>
<!-- Node5 -->
<g id="node5" class="node">
<title>Node5</title>
<g id="a_node5"><a xlink:href="../../d9/d1b/classleanux_1_1tools_1_1lmon_1_1Palette.html" target="_top" xlink:title="The Palette provides reasonable colors within terminal capabilities, hiding the details of such capab...">
<polygon fill="none" stroke="black" points="102,-133.5 102,-163.5 212,-163.5 212,-133.5 102,-133.5"/>
<text text-anchor="start" x="110" y="-151.5" font-family="Helvetica,sans-Serif" font-size="10.00">leanux::tools::lmon</text>
<text text-anchor="middle" x="157" y="-140.5" font-family="Helvetica,sans-Serif" font-size="10.00">::Palette</text>
</a>
</g>
</g>
<!-- Node5&#45;&gt;Node3 -->
<g id="edge5" class="edge">
<title>Node5&#45;&gt;Node3</title>
<path fill="none" stroke="#9a32cd" stroke-dasharray="5,2" d="M156.62,-123.31C157.61,-101.07 162.64,-68.67 182,-49 198.96,-31.77 224.05,-23.4 246.9,-19.43"/>
<polygon fill="#9a32cd" stroke="#9a32cd" points="153.12,-123.23 156.41,-133.3 160.12,-123.38 153.12,-123.23"/>
<text text-anchor="middle" x="203.5" y="-79.5" font-family="Helvetica,sans-Serif" font-size="10.00"> palette_</text>
</g>
<!-- Node6 -->
<g id="node6" class="node">
<title>Node6</title>
<g id="a_node6"><a xlink:title=" ">
<polygon fill="none" stroke="#bfbfbf" points="204.5,-431.5 204.5,-450.5 233.5,-450.5 233.5,-431.5 204.5,-431.5"/>
<text text-anchor="middle" x="219" y="-438.5" font-family="Helvetica,sans-Serif" font-size="10.00">int</text>
</a>
</g>
</g>
<!-- Node6&#45;&gt;Node1 -->
<g id="edge10" class="edge">
<title>Node6&#45;&gt;Node1</title>
<path fill="none" stroke="#9a32cd" stroke-dasharray="5,2" d="M242.98,-430.58C250.63,-426.37 258.32,-420.6 263,-413 276.12,-391.7 282.85,-215.6 284.56,-163.79"/>
<polygon fill="#9a32cd" stroke="#9a32cd" points="241.35,-427.48 233.86,-434.97 244.39,-433.79 241.35,-427.48"/>
<text text-anchor="middle" x="328" y="-350" font-family="Helvetica,sans-Serif" font-size="10.00"> attr_bold_text_</text>
<text text-anchor="middle" x="328" y="-339" font-family="Helvetica,sans-Serif" font-size="10.00">absy_</text>
<text text-anchor="middle" x="328" y="-328" font-family="Helvetica,sans-Serif" font-size="10.00">height_</text>
<text text-anchor="middle" x="328" y="-317" font-family="Helvetica,sans-Serif" font-size="10.00">absx_</text>
<text text-anchor="start" x="284" y="-306" font-family="Helvetica,sans-Serif" font-size="10.00">attr_plot_element</text>
<text text-anchor="middle" x="328" y="-295" font-family="Helvetica,sans-Serif" font-size="10.00">_</text>
<text text-anchor="middle" x="328" y="-284" font-family="Helvetica,sans-Serif" font-size="10.00">attr_line_</text>
<text text-anchor="middle" x="328" y="-273" font-family="Helvetica,sans-Serif" font-size="10.00">width_</text>
<text text-anchor="start" x="284" y="-262" font-family="Helvetica,sans-Serif" font-size="10.00">attr_normal</text>
<text text-anchor="middle" x="328" y="-251" font-family="Helvetica,sans-Serif" font-size="10.00">_text_</text>
<text text-anchor="middle" x="328" y="-240" font-family="Helvetica,sans-Serif" font-size="10.00">attr_alert_text_</text>
</g>
<!-- Node6&#45;&gt;Node5 -->
<g id="edge6" class="edge">
<title>Node6&#45;&gt;Node5</title>
<path fill="none" stroke="#9a32cd" stroke-dasharray="5,2" d="M194.21,-436.74C179.57,-433.4 162.16,-426.65 153,-413 99.19,-332.85 136.8,-205.82 151.68,-163.63"/>
<polygon fill="#9a32cd" stroke="#9a32cd" points="193.75,-440.22 204.23,-438.62 195.04,-433.34 193.75,-440.22"/>
<text text-anchor="start" x="153" y="-405" font-family="Helvetica,sans-Serif" font-size="10.00"> idx_softirq_mode_cpu</text>
<text text-anchor="middle" x="208" y="-394" font-family="Helvetica,sans-Serif" font-size="10.00">_</text>
<text text-anchor="start" x="153" y="-383" font-family="Helvetica,sans-Serif" font-size="10.00">idx_color_blocked</text>
<text text-anchor="middle" x="208" y="-372" font-family="Helvetica,sans-Serif" font-size="10.00">_proc_</text>
<text text-anchor="start" x="153" y="-361" font-family="Helvetica,sans-Serif" font-size="10.00">idx_color_line</text>
<text text-anchor="middle" x="208" y="-350" font-family="Helvetica,sans-Serif" font-size="10.00">_</text>
<text text-anchor="start" x="153" y="-339" font-family="Helvetica,sans-Serif" font-size="10.00">idx_user_mode</text>
<text text-anchor="middle" x="208" y="-328" font-family="Helvetica,sans-Serif" font-size="10.00">_cpu_</text>
<text text-anchor="start" x="153" y="-317" font-family="Helvetica,sans-Serif" font-size="10.00">idx_color_bold</text>
<text text-anchor="middle" x="208" y="-306" font-family="Helvetica,sans-Serif" font-size="10.00">_text_</text>
<text text-anchor="start" x="153" y="-295" font-family="Helvetica,sans-Serif" font-size="10.00">idx_color_text</text>
<text text-anchor="middle" x="208" y="-284" font-family="Helvetica,sans-Serif" font-size="10.00">_</text>
<text text-anchor="start" x="153" y="-273" font-family="Helvetica,sans-Serif" font-size="10.00">idx_irq_mode</text>
<text text-anchor="middle" x="208" y="-262" font-family="Helvetica,sans-Serif" font-size="10.00">_cpu_</text>
<text text-anchor="start" x="153" y="-251" font-family="Helvetica,sans-Serif" font-size="10.00">idx_nice_mode</text>
<text text-anchor="middle" x="208" y="-240" font-family="Helvetica,sans-Serif" font-size="10.00">_cpu_</text>
<text text-anchor="start" x="153" y="-229" font-family="Helvetica,sans-Serif" font-size="10.00">idx_iowait</text>
<text text-anchor="middle" x="208" y="-218" font-family="Helvetica,sans-Serif" font-size="10.00">_mode_cpu_</text>
<text text-anchor="start" x="153" y="-207" font-family="Helvetica,sans-Serif" font-size="10.00">idx_system_mode</text>
<text text-anchor="middle" x="208" y="-196" font-family="Helvetica,sans-Serif" font-size="10.00">_cpu_</text>
<text text-anchor="middle" x="208" y="-185" font-family="Helvetica,sans-Serif" font-size="10.00">...</text>
</g>
<!-- Node7 -->
<g id="node7" class="node">
<title>Node7</title>
<g id="a_node7"><a xlink:title=" ">
<polygon fill="none" stroke="#bfbfbf" points="358,-139 358,-158 396,-158 396,-139 358,-139"/>
<text text-anchor="middle" x="377" y="-146" font-family="Helvetica,sans-Serif" font-size="10.00">bool</text>
</a>
</g>
</g>
<!-- Node7&#45;&gt;Node3 -->
<g id="edge7" class="edge">
<title>Node7&#45;&gt;Node3</title>
<path fill="none" stroke="#9a32cd" stroke-dasharray="5,2" d="M376.78,-128.74C375.65,-107.53 371.07,-72.86 354,-49 348.67,-41.55 341.06,-35.44 333.29,-30.61"/>
<polygon fill="#9a32cd" stroke="#9a32cd" points="373.29,-129.1 377.11,-138.98 380.29,-128.87 373.29,-129.1"/>
<text text-anchor="middle" x="400" y="-79.5" font-family="Helvetica,sans-Serif" font-size="10.00"> stopped_</text>
</g>
<!-- Node8 -->
<g id="node8" class="node">
<title>Node8</title>
<g id="a_node8"><a xlink:title=" ">
<polygon fill="none" stroke="#bfbfbf" points="414.5,-139 414.5,-158 491.5,-158 491.5,-139 414.5,-139"/>
<text text-anchor="middle" x="453" y="-146" font-family="Helvetica,sans-Serif" font-size="10.00">unsigned int</text>
</a>
</g>
</g>
<!-- Node8&#45;&gt;Node3 -->
<g id="edge8" class="edge">
<title>Node8&#45;&gt;Node3</title>
<path fill="none" stroke="#9a32cd" stroke-dasharray="5,2" d="M450.17,-128.97C445.95,-103.66 437.26,-60.13 426,-49 407.88,-31.08 381.16,-22.69 357.17,-18.89"/>
<polygon fill="#9a32cd" stroke="#9a32cd" points="446.72,-129.53 451.75,-138.85 453.63,-128.42 446.72,-129.53"/>
<text text-anchor="start" x="448" y="-101.5" font-family="Helvetica,sans-Serif" font-size="10.00"> footer_scroll_interval</text>
<text text-anchor="middle" x="501.5" y="-90.5" font-family="Helvetica,sans-Serif" font-size="10.00">_s_</text>
<text text-anchor="start" x="448" y="-79.5" font-family="Helvetica,sans-Serif" font-size="10.00">sample_interval_s</text>
<text text-anchor="middle" x="501.5" y="-68.5" font-family="Helvetica,sans-Serif" font-size="10.00">_</text>
<text text-anchor="middle" x="501.5" y="-57.5" font-family="Helvetica,sans-Serif" font-size="10.00">sleep_duration_ms_</text>
</g>
<!-- Node9 -->
<g id="node9" class="node">
<title>Node9</title>
<g id="a_node9"><a xlink:title=" ">
<polygon fill="none" stroke="#bfbfbf" points="501,-431.5 501,-450.5 571,-450.5 571,-431.5 501,-431.5"/>
<text text-anchor="middle" x="536" y="-438.5" font-family="Helvetica,sans-Serif" font-size="10.00">WINDOW *</text>
</a>
</g>
</g>
<!-- Node9&#45;&gt;Node1 -->
<g id="edge11" class="edge">
<title>Node9&#45;&gt;Node1</title>
<path fill="none" stroke="#9a32cd" stroke-dasharray="5,2" d="M517.71,-424.25C514.7,-420.83 511.93,-417.03 510,-413 487.58,-366.34 516.47,-218.74 480,-182 459.3,-161.15 377.91,-169.25 349,-164 346.09,-163.47 343.1,-162.9 340.1,-162.3"/>
<polygon fill="#9a32cd" stroke="#9a32cd" points="515.36,-426.85 524.91,-431.43 520.3,-421.89 515.36,-426.85"/>
<text text-anchor="middle" x="533" y="-295" font-family="Helvetica,sans-Serif" font-size="10.00"> window_</text>
</g>
<!-- Node9&#45;&gt;Node3 -->
<g id="edge9" class="edge">
<title>Node9&#45;&gt;Node3</title>
<path fill="none" stroke="#9a32cd" stroke-dasharray="5,2" d="M550.91,-423.19C553,-420 554.83,-416.54 556,-413 606.7,-259.37 662.89,-170.44 556,-49 543.08,-34.32 427.87,-24.46 357.12,-19.74"/>
<polygon fill="#9a32cd" stroke="#9a32cd" points="547.96,-421.28 544.66,-431.35 553.52,-425.54 547.96,-421.28"/>
<text text-anchor="middle" x="635" y="-146" font-family="Helvetica,sans-Serif" font-size="10.00"> wmain_</text>
</g>
</g>
</svg>
