<?xml version="1.0" encoding="UTF-8" standalone="no"?>
<!DOCTYPE svg PUBLIC "-//W3C//DTD SVG 1.1//EN"
 "http://www.w3.org/Graphics/SVG/1.1/DTD/svg11.dtd">
<!-- Generated by graphviz version 2.43.0 (0)
 -->
<!-- Title: lib/net.cpp Pages: 1 -->
<svg width="1463pt" height="196pt"
 viewBox="0.00 0.00 1462.50 196.00" xmlns="http://www.w3.org/2000/svg" xmlns:xlink="http://www.w3.org/1999/xlink">
<g id="graph0" class="graph" transform="scale(1 1) rotate(0) translate(4 192)">
<title>lib/net.cpp</title>
<!-- Node1 -->
<g id="node1" class="node">
<title>Node1</title>
<g id="a_node1"><a xlink:title=" ">
<polygon fill="#bfbfbf" stroke="black" points="901,-168.5 901,-187.5 969,-187.5 969,-168.5 901,-168.5"/>
<text text-anchor="middle" x="935" y="-175.5" font-family="Helvetica,sans-Serif" font-size="10.00">lib/net.cpp</text>
</a>
</g>
</g>
<!-- Node2 -->
<g id="node2" class="node">
<title>Node2</title>
<g id="a_node2"><a xlink:href="../../dd/d90/system_8hpp.html" target="_top" xlink:title=" ">
<polygon fill="none" stroke="black" points="137,-112.5 137,-131.5 211,-131.5 211,-112.5 137,-112.5"/>
<text text-anchor="middle" x="174" y="-119.5" font-family="Helvetica,sans-Serif" font-size="10.00">system.hpp</text>
</a>
</g>
</g>
<!-- Node1&#45;&gt;Node2 -->
<g id="edge1" class="edge">
<title>Node1&#45;&gt;Node2</title>
<path fill="none" stroke="midnightblue" d="M900.82,-174.57C778.51,-165.9 362.36,-136.37 221.24,-126.35"/>
<polygon fill="midnightblue" stroke="midnightblue" points="221.4,-122.85 211.18,-125.64 220.9,-129.84 221.4,-122.85"/>
</g>
<!-- Node7 -->
<g id="node7" class="node">
<title>Node7</title>
<g id="a_node7"><a xlink:href="../../d4/d2d/net_8hpp.html" target="_top" xlink:title=" ">
<polygon fill="none" stroke="black" points="433.5,-112.5 433.5,-131.5 486.5,-131.5 486.5,-112.5 433.5,-112.5"/>
<text text-anchor="middle" x="460" y="-119.5" font-family="Helvetica,sans-Serif" font-size="10.00">net.hpp</text>
</a>
</g>
</g>
<!-- Node1&#45;&gt;Node7 -->
<g id="edge7" class="edge">
<title>Node1&#45;&gt;Node7</title>
<path fill="none" stroke="midnightblue" d="M900.84,-173.12C814.17,-163.26 586.27,-137.36 496.8,-127.18"/>
<polygon fill="midnightblue" stroke="midnightblue" points="496.93,-123.68 486.6,-126.02 496.14,-130.63 496.93,-123.68"/>
</g>
<!-- Node13 -->
<g id="node13" class="node">
<title>Node13</title>
<g id="a_node13"><a xlink:href="../../d0/d3f/util_8hpp.html" target="_top" xlink:title=" ">
<polygon fill="none" stroke="black" points="785.5,-112.5 785.5,-131.5 838.5,-131.5 838.5,-112.5 785.5,-112.5"/>
<text text-anchor="middle" x="812" y="-119.5" font-family="Helvetica,sans-Serif" font-size="10.00">util.hpp</text>
</a>
</g>
</g>
<!-- Node1&#45;&gt;Node13 -->
<g id="edge15" class="edge">
<title>Node1&#45;&gt;Node13</title>
<path fill="none" stroke="midnightblue" d="M915.51,-168.44C895.36,-159.6 863.68,-145.69 840.67,-135.59"/>
<polygon fill="midnightblue" stroke="midnightblue" points="841.96,-132.33 831.4,-131.52 839.15,-138.74 841.96,-132.33"/>
</g>
<!-- Node14 -->
<g id="node14" class="node">
<title>Node14</title>
<g id="a_node14"><a xlink:title=" ">
<polygon fill="none" stroke="#bfbfbf" points="654,-56.5 654,-75.5 710,-75.5 710,-56.5 654,-56.5"/>
<text text-anchor="middle" x="682" y="-63.5" font-family="Helvetica,sans-Serif" font-size="10.00">sstream</text>
</a>
</g>
</g>
<!-- Node1&#45;&gt;Node14 -->
<g id="edge29" class="edge">
<title>Node1&#45;&gt;Node14</title>
<path fill="none" stroke="midnightblue" d="M900.85,-172.78C864.38,-167.25 805.65,-155.38 760,-132 735.38,-119.39 711.63,-97.81 696.94,-83"/>
<polygon fill="midnightblue" stroke="midnightblue" points="699.22,-80.33 689.76,-75.57 694.19,-85.19 699.22,-80.33"/>
</g>
<!-- Node15 -->
<g id="node15" class="node">
<title>Node15</title>
<g id="a_node15"><a xlink:title=" ">
<polygon fill="none" stroke="#bfbfbf" points="728.5,-56.5 728.5,-75.5 783.5,-75.5 783.5,-56.5 728.5,-56.5"/>
<text text-anchor="middle" x="756" y="-63.5" font-family="Helvetica,sans-Serif" font-size="10.00">fstream</text>
</a>
</g>
</g>
<!-- Node1&#45;&gt;Node15 -->
<g id="edge30" class="edge">
<title>Node1&#45;&gt;Node15</title>
<path fill="none" stroke="midnightblue" d="M900.86,-176.46C865.1,-174.05 809.54,-164.79 776,-132 763.74,-120.02 758.96,-100.72 757.11,-86.26"/>
<polygon fill="midnightblue" stroke="midnightblue" points="760.56,-85.57 756.17,-75.93 753.59,-86.2 760.56,-85.57"/>
</g>
<!-- Node16 -->
<g id="node16" class="node">
<title>Node16</title>
<g id="a_node16"><a xlink:title=" ">
<polygon fill="none" stroke="#bfbfbf" points="1120,-56.5 1120,-75.5 1152,-75.5 1152,-56.5 1120,-56.5"/>
<text text-anchor="middle" x="1136" y="-63.5" font-family="Helvetica,sans-Serif" font-size="10.00">set</text>
</a>
</g>
</g>
<!-- Node1&#45;&gt;Node16 -->
<g id="edge31" class="edge">
<title>Node1&#45;&gt;Node16</title>
<path fill="none" stroke="midnightblue" d="M921.77,-168.37C903.64,-155.51 875.03,-130.8 891,-112 921.32,-76.31 1048.06,-87.05 1109.94,-75.49"/>
<polygon fill="midnightblue" stroke="midnightblue" points="1111,-78.84 1120,-73.25 1109.48,-72.01 1111,-78.84"/>
</g>
<!-- Node19 -->
<g id="node19" class="node">
<title>Node19</title>
<g id="a_node19"><a xlink:title=" ">
<polygon fill="none" stroke="#bfbfbf" points="1170.5,-56.5 1170.5,-75.5 1223.5,-75.5 1223.5,-56.5 1170.5,-56.5"/>
<text text-anchor="middle" x="1197" y="-63.5" font-family="Helvetica,sans-Serif" font-size="10.00">string.h</text>
</a>
</g>
</g>
<!-- Node1&#45;&gt;Node19 -->
<g id="edge32" class="edge">
<title>Node1&#45;&gt;Node19</title>
<path fill="none" stroke="midnightblue" d="M929.62,-168.26C921.96,-154.56 910.27,-127.97 924,-112 956.96,-73.65 1093.83,-85.1 1160.29,-75.67"/>
<polygon fill="midnightblue" stroke="midnightblue" points="1161.05,-79.09 1170.33,-73.97 1159.88,-72.19 1161.05,-79.09"/>
</g>
<!-- Node21 -->
<g id="node21" class="node">
<title>Node21</title>
<g id="a_node21"><a xlink:title=" ">
<polygon fill="none" stroke="#bfbfbf" points="933,-112.5 933,-131.5 997,-131.5 997,-112.5 933,-112.5"/>
<text text-anchor="middle" x="965" y="-119.5" font-family="Helvetica,sans-Serif" font-size="10.00">algorithm</text>
</a>
</g>
</g>
<!-- Node1&#45;&gt;Node21 -->
<g id="edge25" class="edge">
<title>Node1&#45;&gt;Node21</title>
<path fill="none" stroke="midnightblue" d="M939.95,-168.08C944.1,-160.61 950.15,-149.72 955.27,-140.52"/>
<polygon fill="midnightblue" stroke="midnightblue" points="958.34,-142.19 960.14,-131.75 952.22,-138.79 958.34,-142.19"/>
</g>
<!-- Node22 -->
<g id="node22" class="node">
<title>Node22</title>
<g id="a_node22"><a xlink:title=" ">
<polygon fill="none" stroke="#bfbfbf" points="1015,-112.5 1015,-131.5 1071,-131.5 1071,-112.5 1015,-112.5"/>
<text text-anchor="middle" x="1043" y="-119.5" font-family="Helvetica,sans-Serif" font-size="10.00">iomanip</text>
</a>
</g>
</g>
<!-- Node1&#45;&gt;Node22 -->
<g id="edge26" class="edge">
<title>Node1&#45;&gt;Node22</title>
<path fill="none" stroke="midnightblue" d="M952.35,-168.32C969.67,-159.66 996.52,-146.24 1016.5,-136.25"/>
<polygon fill="midnightblue" stroke="midnightblue" points="1018.31,-139.26 1025.69,-131.65 1015.18,-133 1018.31,-139.26"/>
</g>
<!-- Node23 -->
<g id="node23" class="node">
<title>Node23</title>
<g id="a_node23"><a xlink:title=" ">
<polygon fill="none" stroke="#bfbfbf" points="1089,-112.5 1089,-131.5 1149,-131.5 1149,-112.5 1089,-112.5"/>
<text text-anchor="middle" x="1119" y="-119.5" font-family="Helvetica,sans-Serif" font-size="10.00">iostream</text>
</a>
</g>
</g>
<!-- Node1&#45;&gt;Node23 -->
<g id="edge27" class="edge">
<title>Node1&#45;&gt;Node23</title>
<path fill="none" stroke="midnightblue" d="M964.16,-168.44C995.51,-159.24 1045.53,-144.56 1080.2,-134.39"/>
<polygon fill="midnightblue" stroke="midnightblue" points="1081.37,-137.69 1089.98,-131.52 1079.4,-130.97 1081.37,-137.69"/>
</g>
<!-- Node24 -->
<g id="node24" class="node">
<title>Node24</title>
<g id="a_node24"><a xlink:title=" ">
<polygon fill="none" stroke="#bfbfbf" points="1167,-112.5 1167,-131.5 1211,-131.5 1211,-112.5 1167,-112.5"/>
<text text-anchor="middle" x="1189" y="-119.5" font-family="Helvetica,sans-Serif" font-size="10.00">limits</text>
</a>
</g>
</g>
<!-- Node1&#45;&gt;Node24 -->
<g id="edge28" class="edge">
<title>Node1&#45;&gt;Node24</title>
<path fill="none" stroke="midnightblue" d="M969.2,-171.02C1011.16,-163.47 1084.66,-149.61 1156.58,-132.19"/>
<polygon fill="midnightblue" stroke="midnightblue" points="1157.83,-135.49 1166.71,-129.71 1156.16,-128.69 1157.83,-135.49"/>
</g>
<!-- Node25 -->
<g id="node25" class="node">
<title>Node25</title>
<g id="a_node25"><a xlink:title=" ">
<polygon fill="none" stroke="#bfbfbf" points="1229.5,-112.5 1229.5,-131.5 1306.5,-131.5 1306.5,-112.5 1229.5,-112.5"/>
<text text-anchor="middle" x="1268" y="-119.5" font-family="Helvetica,sans-Serif" font-size="10.00">sys/socket.h</text>
</a>
</g>
</g>
<!-- Node1&#45;&gt;Node25 -->
<g id="edge33" class="edge">
<title>Node1&#45;&gt;Node25</title>
<path fill="none" stroke="midnightblue" d="M969.27,-171.91C1021.07,-164.16 1122.63,-148.67 1219.3,-132.08"/>
<polygon fill="midnightblue" stroke="midnightblue" points="1219.98,-135.51 1229.24,-130.37 1218.8,-128.61 1219.98,-135.51"/>
</g>
<!-- Node26 -->
<g id="node26" class="node">
<title>Node26</title>
<g id="a_node26"><a xlink:title=" ">
<polygon fill="none" stroke="#bfbfbf" points="1324.5,-112.5 1324.5,-131.5 1377.5,-131.5 1377.5,-112.5 1324.5,-112.5"/>
<text text-anchor="middle" x="1351" y="-119.5" font-family="Helvetica,sans-Serif" font-size="10.00">netdb.h</text>
</a>
</g>
</g>
<!-- Node1&#45;&gt;Node26 -->
<g id="edge34" class="edge">
<title>Node1&#45;&gt;Node26</title>
<path fill="none" stroke="midnightblue" d="M969.13,-174.51C1034.44,-169.42 1181.72,-156.35 1314.4,-132.09"/>
<polygon fill="midnightblue" stroke="midnightblue" points="1315.14,-135.52 1324.33,-130.25 1313.86,-128.63 1315.14,-135.52"/>
</g>
<!-- Node27 -->
<g id="node27" class="node">
<title>Node27</title>
<g id="a_node27"><a xlink:title=" ">
<polygon fill="none" stroke="#bfbfbf" points="1395.5,-112.5 1395.5,-131.5 1454.5,-131.5 1454.5,-112.5 1395.5,-112.5"/>
<text text-anchor="middle" x="1425" y="-119.5" font-family="Helvetica,sans-Serif" font-size="10.00">ifaddrs.h</text>
</a>
</g>
</g>
<!-- Node1&#45;&gt;Node27 -->
<g id="edge35" class="edge">
<title>Node1&#45;&gt;Node27</title>
<path fill="none" stroke="midnightblue" d="M969.23,-175.15C1043.4,-170.82 1224.59,-158.44 1385.15,-132.12"/>
<polygon fill="midnightblue" stroke="midnightblue" points="1385.91,-135.54 1395.21,-130.45 1384.77,-128.64 1385.91,-135.54"/>
</g>
<!-- Node3 -->
<g id="node3" class="node">
<title>Node3</title>
<g id="a_node3"><a xlink:title=" ">
<polygon fill="none" stroke="#bfbfbf" points="240,-0.5 240,-19.5 284,-19.5 284,-0.5 240,-0.5"/>
<text text-anchor="middle" x="262" y="-7.5" font-family="Helvetica,sans-Serif" font-size="10.00">string</text>
</a>
</g>
</g>
<!-- Node2&#45;&gt;Node3 -->
<g id="edge2" class="edge">
<title>Node2&#45;&gt;Node3</title>
<path fill="none" stroke="midnightblue" d="M174.65,-112.15C176.02,-98.79 180.24,-73.18 193,-56 203.04,-42.47 218.46,-31.86 232.17,-24.35"/>
<polygon fill="midnightblue" stroke="midnightblue" points="234.02,-27.34 241.3,-19.65 230.81,-21.12 234.02,-27.34"/>
</g>
<!-- Node4 -->
<g id="node4" class="node">
<title>Node4</title>
<g id="a_node4"><a xlink:title=" ">
<polygon fill="none" stroke="#bfbfbf" points="0,-56.5 0,-75.5 56,-75.5 56,-56.5 0,-56.5"/>
<text text-anchor="middle" x="28" y="-63.5" font-family="Helvetica,sans-Serif" font-size="10.00">unistd.h</text>
</a>
</g>
</g>
<!-- Node2&#45;&gt;Node4 -->
<g id="edge3" class="edge">
<title>Node2&#45;&gt;Node4</title>
<path fill="none" stroke="midnightblue" d="M150.87,-112.44C126.52,-103.44 87.99,-89.19 60.58,-79.05"/>
<polygon fill="midnightblue" stroke="midnightblue" points="61.62,-75.7 51.03,-75.52 59.19,-82.27 61.62,-75.7"/>
</g>
<!-- Node5 -->
<g id="node5" class="node">
<title>Node5</title>
<g id="a_node5"><a xlink:title=" ">
<polygon fill="none" stroke="#bfbfbf" points="74,-56.5 74,-75.5 146,-75.5 146,-56.5 74,-56.5"/>
<text text-anchor="middle" x="110" y="-63.5" font-family="Helvetica,sans-Serif" font-size="10.00">sys/types.h</text>
</a>
</g>
</g>
<!-- Node2&#45;&gt;Node5 -->
<g id="edge4" class="edge">
<title>Node2&#45;&gt;Node5</title>
<path fill="none" stroke="midnightblue" d="M163.72,-112.32C154.16,-104.26 139.72,-92.08 128.22,-82.37"/>
<polygon fill="midnightblue" stroke="midnightblue" points="130.37,-79.61 120.47,-75.83 125.86,-84.96 130.37,-79.61"/>
</g>
<!-- Node6 -->
<g id="node6" class="node">
<title>Node6</title>
<g id="a_node6"><a xlink:href="../../d3/d44/oops_8hpp.html" target="_top" xlink:title=" ">
<polygon fill="none" stroke="black" points="202.5,-56.5 202.5,-75.5 263.5,-75.5 263.5,-56.5 202.5,-56.5"/>
<text text-anchor="middle" x="233" y="-63.5" font-family="Helvetica,sans-Serif" font-size="10.00">oops.hpp</text>
</a>
</g>
</g>
<!-- Node2&#45;&gt;Node6 -->
<g id="edge5" class="edge">
<title>Node2&#45;&gt;Node6</title>
<path fill="none" stroke="midnightblue" d="M183.48,-112.32C192.2,-104.34 205.34,-92.31 215.9,-82.65"/>
<polygon fill="midnightblue" stroke="midnightblue" points="218.33,-85.17 223.35,-75.83 213.61,-80 218.33,-85.17"/>
</g>
<!-- Node6&#45;&gt;Node3 -->
<g id="edge6" class="edge">
<title>Node6&#45;&gt;Node3</title>
<path fill="none" stroke="midnightblue" d="M237.79,-56.08C241.76,-48.69 247.53,-37.95 252.43,-28.81"/>
<polygon fill="midnightblue" stroke="midnightblue" points="255.65,-30.22 257.3,-19.75 249.49,-26.91 255.65,-30.22"/>
</g>
<!-- Node7&#45;&gt;Node3 -->
<g id="edge9" class="edge">
<title>Node7&#45;&gt;Node3</title>
<path fill="none" stroke="midnightblue" d="M433.33,-118.03C401.71,-113.44 348.57,-102.2 311,-76 293.48,-63.78 279.57,-43.34 271.11,-28.64"/>
<polygon fill="midnightblue" stroke="midnightblue" points="274.02,-26.65 266.15,-19.55 267.87,-30 274.02,-26.65"/>
</g>
<!-- Node7&#45;&gt;Node6 -->
<g id="edge8" class="edge">
<title>Node7&#45;&gt;Node6</title>
<path fill="none" stroke="midnightblue" d="M433.07,-114.59C393.54,-105.19 319.54,-87.59 273.46,-76.62"/>
<polygon fill="midnightblue" stroke="midnightblue" points="274.05,-73.17 263.51,-74.26 272.43,-79.98 274.05,-73.17"/>
</g>
<!-- Node8 -->
<g id="node8" class="node">
<title>Node8</title>
<g id="a_node8"><a xlink:title=" ">
<polygon fill="none" stroke="#bfbfbf" points="472.5,-56.5 472.5,-75.5 529.5,-75.5 529.5,-56.5 472.5,-56.5"/>
<text text-anchor="middle" x="501" y="-63.5" font-family="Helvetica,sans-Serif" font-size="10.00">ostream</text>
</a>
</g>
</g>
<!-- Node7&#45;&gt;Node8 -->
<g id="edge10" class="edge">
<title>Node7&#45;&gt;Node8</title>
<path fill="none" stroke="midnightblue" d="M466.77,-112.08C472.56,-104.46 481.06,-93.26 488.14,-83.94"/>
<polygon fill="midnightblue" stroke="midnightblue" points="491.1,-85.83 494.36,-75.75 485.52,-81.6 491.1,-85.83"/>
</g>
<!-- Node9 -->
<g id="node9" class="node">
<title>Node9</title>
<g id="a_node9"><a xlink:title=" ">
<polygon fill="none" stroke="#bfbfbf" points="604,-56.5 604,-75.5 636,-75.5 636,-56.5 604,-56.5"/>
<text text-anchor="middle" x="620" y="-63.5" font-family="Helvetica,sans-Serif" font-size="10.00">list</text>
</a>
</g>
</g>
<!-- Node7&#45;&gt;Node9 -->
<g id="edge11" class="edge">
<title>Node7&#45;&gt;Node9</title>
<path fill="none" stroke="midnightblue" d="M486.19,-112.47C511.58,-104.17 551.38,-91.02 594.37,-76.16"/>
<polygon fill="midnightblue" stroke="midnightblue" points="595.58,-79.45 603.88,-72.87 593.29,-72.84 595.58,-79.45"/>
</g>
<!-- Node10 -->
<g id="node10" class="node">
<title>Node10</title>
<g id="a_node10"><a xlink:title=" ">
<polygon fill="none" stroke="#bfbfbf" points="548,-56.5 548,-75.5 586,-75.5 586,-56.5 548,-56.5"/>
<text text-anchor="middle" x="567" y="-63.5" font-family="Helvetica,sans-Serif" font-size="10.00">map</text>
</a>
</g>
</g>
<!-- Node7&#45;&gt;Node10 -->
<g id="edge12" class="edge">
<title>Node7&#45;&gt;Node10</title>
<path fill="none" stroke="midnightblue" d="M477.19,-112.32C494.35,-103.66 520.95,-90.24 540.75,-80.25"/>
<polygon fill="midnightblue" stroke="midnightblue" points="542.5,-83.28 549.85,-75.65 539.35,-77.04 542.5,-83.28"/>
</g>
<!-- Node11 -->
<g id="node11" class="node">
<title>Node11</title>
<g id="a_node11"><a xlink:title=" ">
<polygon fill="none" stroke="#bfbfbf" points="320.5,-56.5 320.5,-75.5 367.5,-75.5 367.5,-56.5 320.5,-56.5"/>
<text text-anchor="middle" x="344" y="-63.5" font-family="Helvetica,sans-Serif" font-size="10.00">vector</text>
</a>
</g>
</g>
<!-- Node7&#45;&gt;Node11 -->
<g id="edge13" class="edge">
<title>Node7&#45;&gt;Node11</title>
<path fill="none" stroke="midnightblue" d="M441.62,-112.44C422.78,-103.68 393.27,-89.94 371.62,-79.86"/>
<polygon fill="midnightblue" stroke="midnightblue" points="372.84,-76.56 362.29,-75.52 369.88,-82.91 372.84,-76.56"/>
</g>
<!-- Node12 -->
<g id="node12" class="node">
<title>Node12</title>
<g id="a_node12"><a xlink:title=" ">
<polygon fill="none" stroke="#bfbfbf" points="385.5,-56.5 385.5,-75.5 454.5,-75.5 454.5,-56.5 385.5,-56.5"/>
<text text-anchor="middle" x="420" y="-63.5" font-family="Helvetica,sans-Serif" font-size="10.00">arpa/inet.h</text>
</a>
</g>
</g>
<!-- Node7&#45;&gt;Node12 -->
<g id="edge14" class="edge">
<title>Node7&#45;&gt;Node12</title>
<path fill="none" stroke="midnightblue" d="M453.39,-112.08C447.74,-104.46 439.46,-93.26 432.55,-83.94"/>
<polygon fill="midnightblue" stroke="midnightblue" points="435.25,-81.7 426.48,-75.75 429.62,-85.87 435.25,-81.7"/>
</g>
<!-- Node13&#45;&gt;Node3 -->
<g id="edge16" class="edge">
<title>Node13&#45;&gt;Node3</title>
<path fill="none" stroke="midnightblue" d="M812.17,-112.17C811.91,-97.85 809.1,-69.78 792,-56 753.21,-24.73 403.16,-14.2 294.21,-11.67"/>
<polygon fill="midnightblue" stroke="midnightblue" points="294.23,-8.17 284.15,-11.44 294.07,-15.16 294.23,-8.17"/>
</g>
<!-- Node13&#45;&gt;Node9 -->
<g id="edge20" class="edge">
<title>Node13&#45;&gt;Node9</title>
<path fill="none" stroke="midnightblue" d="M785.48,-114.57C754.26,-106.85 700.65,-93.11 645.93,-76.1"/>
<polygon fill="midnightblue" stroke="midnightblue" points="646.66,-72.66 636.07,-73.01 644.56,-79.34 646.66,-72.66"/>
</g>
<!-- Node13&#45;&gt;Node14 -->
<g id="edge17" class="edge">
<title>Node13&#45;&gt;Node14</title>
<path fill="none" stroke="midnightblue" d="M791.4,-112.44C770.01,-103.56 736.32,-89.56 711.98,-79.45"/>
<polygon fill="midnightblue" stroke="midnightblue" points="713.08,-76.12 702.5,-75.52 710.39,-82.58 713.08,-76.12"/>
</g>
<!-- Node13&#45;&gt;Node15 -->
<g id="edge18" class="edge">
<title>Node13&#45;&gt;Node15</title>
<path fill="none" stroke="midnightblue" d="M803,-112.32C794.81,-104.42 782.49,-92.55 772.53,-82.94"/>
<polygon fill="midnightblue" stroke="midnightblue" points="774.79,-80.26 765.16,-75.83 769.93,-85.29 774.79,-80.26"/>
</g>
<!-- Node13&#45;&gt;Node16 -->
<g id="edge19" class="edge">
<title>Node13&#45;&gt;Node16</title>
<path fill="none" stroke="midnightblue" d="M838.85,-114.79C843.55,-113.8 848.41,-112.82 853,-112 963.85,-92.13 996.81,-103.11 1110,-75.8"/>
<polygon fill="midnightblue" stroke="midnightblue" points="1110.87,-79.19 1119.74,-73.4 1109.2,-72.39 1110.87,-79.19"/>
</g>
<!-- Node17 -->
<g id="node17" class="node">
<title>Node17</title>
<g id="a_node17"><a xlink:title=" ">
<polygon fill="none" stroke="#bfbfbf" points="840,-56.5 840,-75.5 908,-75.5 908,-56.5 840,-56.5"/>
<text text-anchor="middle" x="874" y="-63.5" font-family="Helvetica,sans-Serif" font-size="10.00">sys/time.h</text>
</a>
</g>
</g>
<!-- Node13&#45;&gt;Node17 -->
<g id="edge21" class="edge">
<title>Node13&#45;&gt;Node17</title>
<path fill="none" stroke="midnightblue" d="M821.96,-112.32C831.13,-104.34 844.94,-92.31 856.03,-82.65"/>
<polygon fill="midnightblue" stroke="midnightblue" points="858.62,-85.04 863.86,-75.83 854.02,-79.76 858.62,-85.04"/>
</g>
<!-- Node18 -->
<g id="node18" class="node">
<title>Node18</title>
<g id="a_node18"><a xlink:title=" ">
<polygon fill="none" stroke="#bfbfbf" points="926.5,-56.5 926.5,-75.5 979.5,-75.5 979.5,-56.5 926.5,-56.5"/>
<text text-anchor="middle" x="953" y="-63.5" font-family="Helvetica,sans-Serif" font-size="10.00">regex.h</text>
</a>
</g>
</g>
<!-- Node13&#45;&gt;Node18 -->
<g id="edge22" class="edge">
<title>Node13&#45;&gt;Node18</title>
<path fill="none" stroke="midnightblue" d="M834.34,-112.44C857.75,-103.48 894.74,-89.31 921.19,-79.18"/>
<polygon fill="midnightblue" stroke="midnightblue" points="922.68,-82.36 930.76,-75.52 920.17,-75.82 922.68,-82.36"/>
</g>
<!-- Node13&#45;&gt;Node19 -->
<g id="edge23" class="edge">
<title>Node13&#45;&gt;Node19</title>
<path fill="none" stroke="midnightblue" d="M838.63,-117.97C906.01,-110.26 1082.77,-89.61 1160.49,-75.84"/>
<polygon fill="midnightblue" stroke="midnightblue" points="1161.14,-79.28 1170.34,-74.03 1159.87,-72.4 1161.14,-79.28"/>
</g>
<!-- Node20 -->
<g id="node20" class="node">
<title>Node20</title>
<g id="a_node20"><a xlink:title=" ">
<polygon fill="none" stroke="#bfbfbf" points="998,-56.5 998,-75.5 1102,-75.5 1102,-56.5 998,-56.5"/>
<text text-anchor="middle" x="1050" y="-63.5" font-family="Helvetica,sans-Serif" font-size="10.00">leanux&#45;config.hpp</text>
</a>
</g>
</g>
<!-- Node13&#45;&gt;Node20 -->
<g id="edge24" class="edge">
<title>Node13&#45;&gt;Node20</title>
<path fill="none" stroke="midnightblue" d="M838.84,-114.91C878.53,-105.9 953.47,-88.9 1002.56,-77.76"/>
<polygon fill="midnightblue" stroke="midnightblue" points="1003.34,-81.17 1012.32,-75.55 1001.8,-74.35 1003.34,-81.17"/>
</g>
</g>
</svg>
