<?xml version="1.0" encoding="UTF-8" standalone="no"?>
<!DOCTYPE svg PUBLIC "-//W3C//DTD SVG 1.1//EN"
 "http://www.w3.org/Graphics/SVG/1.1/DTD/svg11.dtd">
<!-- Generated by graphviz version 2.43.0 (0)
 -->
<!-- Title: leanux::Oops::getMessage Pages: 1 -->
<svg width="583pt" height="352pt"
 viewBox="0.00 0.00 583.00 351.50" xmlns="http://www.w3.org/2000/svg" xmlns:xlink="http://www.w3.org/1999/xlink">
<g id="graph0" class="graph" transform="scale(1 1) rotate(0) translate(4 347.5)">
<title>leanux::Oops::getMessage</title>
<!-- Node1 -->
<g id="node1" class="node">
<title>Node1</title>
<g id="a_node1"><a xlink:title="Get the Oops message.">
<polygon fill="#bfbfbf" stroke="black" points="429,-164.5 429,-183.5 575,-183.5 575,-164.5 429,-164.5"/>
<text text-anchor="middle" x="502" y="-171.5" font-family="Helvetica,sans-Serif" font-size="10.00">leanux::Oops::getMessage</text>
</a>
</g>
</g>
<!-- Node2 -->
<g id="node2" class="node">
<title>Node2</title>
<g id="a_node2"><a xlink:href="../../d4/d62/namespaceleanux_1_1tools_1_1lard.html#aee987aaaf44a4832b535ecf78065d963" target="_top" xlink:title=" ">
<polygon fill="none" stroke="black" points="284.5,-313 284.5,-343 388.5,-343 388.5,-313 284.5,-313"/>
<text text-anchor="start" x="292.5" y="-331" font-family="Helvetica,sans-Serif" font-size="10.00">leanux::tools::lard</text>
<text text-anchor="middle" x="336.5" y="-320" font-family="Helvetica,sans-Serif" font-size="10.00">::ensureSinglePid</text>
</a>
</g>
</g>
<!-- Node1&#45;&gt;Node2 -->
<g id="edge1" class="edge">
<title>Node1&#45;&gt;Node2</title>
<path fill="none" stroke="midnightblue" d="M488.4,-192.23C469.81,-218.16 432.9,-266.07 393,-298 386.07,-303.54 377.97,-308.58 370.14,-312.88"/>
<polygon fill="midnightblue" stroke="midnightblue" points="491.48,-193.93 494.39,-183.75 485.76,-189.9 491.48,-193.93"/>
</g>
<!-- Node4 -->
<g id="node4" class="node">
<title>Node4</title>
<g id="a_node4"><a xlink:href="../../d4/d62/namespaceleanux_1_1tools_1_1lard.html#aecb1bb340203cfe30357d494d4b2622e" target="_top" xlink:title="Entry point.">
<polygon fill="none" stroke="red" points="0,-291 0,-321 104,-321 104,-291 0,-291"/>
<text text-anchor="start" x="8" y="-309" font-family="Helvetica,sans-Serif" font-size="10.00">leanux::tools::lard</text>
<text text-anchor="middle" x="52" y="-298" font-family="Helvetica,sans-Serif" font-size="10.00">::main</text>
</a>
</g>
</g>
<!-- Node1&#45;&gt;Node4 -->
<g id="edge8" class="edge">
<title>Node1&#45;&gt;Node4</title>
<path fill="none" stroke="midnightblue" d="M486.29,-191.48C467.19,-212.83 431.71,-248.17 393,-265 342.36,-287.02 186.21,-298.67 104.32,-303.41"/>
<polygon fill="midnightblue" stroke="midnightblue" points="489.06,-193.63 492.99,-183.79 483.78,-189.02 489.06,-193.63"/>
</g>
<!-- Node6 -->
<g id="node5" class="node">
<title>Node6</title>
<g id="a_node5"><a xlink:href="../../d6/dd3/namespaceleanux_1_1tools_1_1lrep.html#ab9b4bc8a1806ab977597271e15f34c11" target="_top" xlink:title=" ">
<polygon fill="none" stroke="black" points="284.5,-225 284.5,-255 388.5,-255 388.5,-225 284.5,-225"/>
<text text-anchor="start" x="292.5" y="-243" font-family="Helvetica,sans-Serif" font-size="10.00">leanux::tools::lrep</text>
<text text-anchor="middle" x="336.5" y="-232" font-family="Helvetica,sans-Serif" font-size="10.00">::htmlDiskDetails</text>
</a>
</g>
</g>
<!-- Node1&#45;&gt;Node6 -->
<g id="edge4" class="edge">
<title>Node1&#45;&gt;Node6</title>
<path fill="none" stroke="midnightblue" d="M467.84,-187.38C440.91,-198.26 402.94,-213.58 374.92,-224.89"/>
<polygon fill="midnightblue" stroke="midnightblue" points="469.26,-190.59 477.23,-183.6 466.64,-184.09 469.26,-190.59"/>
</g>
<!-- Node7 -->
<g id="node6" class="node">
<title>Node7</title>
<g id="a_node6"><a xlink:href="../../d6/dd3/namespaceleanux_1_1tools_1_1lrep.html#aa0e1422d8d75831ea3801ffa728bf436" target="_top" xlink:title=" ">
<polygon fill="none" stroke="red" points="140,-203 140,-233 244,-233 244,-203 140,-203"/>
<text text-anchor="start" x="148" y="-221" font-family="Helvetica,sans-Serif" font-size="10.00">leanux::tools::lrep</text>
<text text-anchor="middle" x="192" y="-210" font-family="Helvetica,sans-Serif" font-size="10.00">::main</text>
</a>
</g>
</g>
<!-- Node1&#45;&gt;Node7 -->
<g id="edge13" class="edge">
<title>Node1&#45;&gt;Node7</title>
<path fill="none" stroke="midnightblue" d="M423.92,-185.01C367.84,-193.02 293.45,-203.65 244.45,-210.65"/>
<polygon fill="midnightblue" stroke="midnightblue" points="424.76,-188.43 434.17,-183.55 423.77,-181.5 424.76,-188.43"/>
</g>
<!-- Node9 -->
<g id="node7" class="node">
<title>Node9</title>
<g id="a_node7"><a xlink:href="../../da/dbe/namespaceleanux_1_1tools_1_1lmon.html#a7f59af183bc55b66e3dc0844b473daaf" target="_top" xlink:title=" ">
<polygon fill="none" stroke="black" points="281.5,-137 281.5,-167 391.5,-167 391.5,-137 281.5,-137"/>
<text text-anchor="start" x="289.5" y="-155" font-family="Helvetica,sans-Serif" font-size="10.00">leanux::tools::lmon</text>
<text text-anchor="middle" x="336.5" y="-144" font-family="Helvetica,sans-Serif" font-size="10.00">::main</text>
</a>
</g>
</g>
<!-- Node1&#45;&gt;Node9 -->
<g id="edge6" class="edge">
<title>Node1&#45;&gt;Node9</title>
<path fill="none" stroke="midnightblue" d="M420.17,-163.12C410.49,-161.82 400.78,-160.52 391.61,-159.28"/>
<polygon fill="midnightblue" stroke="midnightblue" points="419.86,-166.61 430.24,-164.48 420.79,-159.68 419.86,-166.61"/>
</g>
<!-- Node11 -->
<g id="node9" class="node">
<title>Node11</title>
<g id="a_node9"><a xlink:href="../../d9/d1f/namespaceleanux_1_1tools_1_1lsys.html#aa2b4de7a80d63592f6207ce5951cf966" target="_top" xlink:title="Entry point.">
<polygon fill="none" stroke="black" points="284,-88 284,-118 389,-118 389,-88 284,-88"/>
<text text-anchor="start" x="292" y="-106" font-family="Helvetica,sans-Serif" font-size="10.00">leanux::tools::lsys</text>
<text text-anchor="middle" x="336.5" y="-95" font-family="Helvetica,sans-Serif" font-size="10.00">::main</text>
</a>
</g>
</g>
<!-- Node1&#45;&gt;Node11 -->
<g id="edge9" class="edge">
<title>Node1&#45;&gt;Node11</title>
<path fill="none" stroke="midnightblue" d="M469.67,-160.4C441.83,-148.31 401.18,-130.65 372.32,-118.12"/>
<polygon fill="midnightblue" stroke="midnightblue" points="468.38,-163.65 478.95,-164.42 471.17,-157.23 468.38,-163.65"/>
</g>
<!-- Node13 -->
<g id="node11" class="node">
<title>Node13</title>
<g id="a_node11"><a xlink:href="../../d5/d1b/namespaceleanux_1_1tools_1_1lblk.html#a7e4a52393fd43c98af0e5e16603b54df" target="_top" xlink:title="Entry point.">
<polygon fill="none" stroke="black" points="284.5,-39 284.5,-69 388.5,-69 388.5,-39 284.5,-39"/>
<text text-anchor="start" x="292.5" y="-57" font-family="Helvetica,sans-Serif" font-size="10.00">leanux::tools::lblk</text>
<text text-anchor="middle" x="336.5" y="-46" font-family="Helvetica,sans-Serif" font-size="10.00">::main</text>
</a>
</g>
</g>
<!-- Node1&#45;&gt;Node13 -->
<g id="edge11" class="edge">
<title>Node1&#45;&gt;Node13</title>
<path fill="none" stroke="midnightblue" d="M484.84,-156.96C464.76,-136.5 428.77,-102.04 393,-79 387.4,-75.39 381.2,-72.05 375.03,-69.05"/>
<polygon fill="midnightblue" stroke="midnightblue" points="482.49,-159.56 491.96,-164.31 487.52,-154.69 482.49,-159.56"/>
</g>
<!-- Node15 -->
<g id="node13" class="node">
<title>Node15</title>
<g id="a_node13"><a xlink:href="../../d2/dd1/namespaceleanux.html#a099a4cd7ecec1c5cc7d3564739ac6403" target="_top" xlink:title="Write an Oops to a stream.">
<polygon fill="none" stroke="black" points="280,-0.5 280,-19.5 393,-19.5 393,-0.5 280,-0.5"/>
<text text-anchor="middle" x="336.5" y="-7.5" font-family="Helvetica,sans-Serif" font-size="10.00">leanux::operator&lt;&lt;</text>
</a>
</g>
</g>
<!-- Node1&#45;&gt;Node15 -->
<g id="edge14" class="edge">
<title>Node1&#45;&gt;Node15</title>
<path fill="none" stroke="midnightblue" d="M491.77,-155.11C475.8,-124.35 440.16,-63.4 393,-29 387.73,-25.16 381.63,-22.05 375.44,-19.55"/>
<polygon fill="midnightblue" stroke="midnightblue" points="488.78,-156.96 496.41,-164.31 495.03,-153.8 488.78,-156.96"/>
</g>
<!-- Node3 -->
<g id="node3" class="node">
<title>Node3</title>
<g id="a_node3"><a xlink:href="../../d4/d62/namespaceleanux_1_1tools_1_1lard.html#a6de74bbef1d571bf7eb000e62900a11d" target="_top" xlink:title=" ">
<polygon fill="none" stroke="black" points="140,-313 140,-343 244,-343 244,-313 140,-313"/>
<text text-anchor="start" x="148" y="-331" font-family="Helvetica,sans-Serif" font-size="10.00">leanux::tools::lard</text>
<text text-anchor="middle" x="192" y="-320" font-family="Helvetica,sans-Serif" font-size="10.00">::mainLoop</text>
</a>
</g>
</g>
<!-- Node2&#45;&gt;Node3 -->
<g id="edge2" class="edge">
<title>Node2&#45;&gt;Node3</title>
<path fill="none" stroke="midnightblue" d="M274.16,-328C264.16,-328 253.89,-328 244.17,-328"/>
<polygon fill="midnightblue" stroke="midnightblue" points="274.46,-331.5 284.46,-328 274.46,-324.5 274.46,-331.5"/>
</g>
<!-- Node3&#45;&gt;Node4 -->
<g id="edge3" class="edge">
<title>Node3&#45;&gt;Node4</title>
<path fill="none" stroke="midnightblue" d="M129.5,-318.2C121.13,-316.86 112.6,-315.5 104.43,-314.2"/>
<polygon fill="midnightblue" stroke="midnightblue" points="129.19,-321.69 139.61,-319.81 130.29,-314.78 129.19,-321.69"/>
</g>
<!-- Node6&#45;&gt;Node7 -->
<g id="edge5" class="edge">
<title>Node6&#45;&gt;Node7</title>
<path fill="none" stroke="midnightblue" d="M274.48,-230.58C264.38,-229.02 253.99,-227.42 244.17,-225.9"/>
<polygon fill="midnightblue" stroke="midnightblue" points="274.04,-234.05 284.46,-232.12 275.11,-227.13 274.04,-234.05"/>
</g>
<!-- Node10 -->
<g id="node8" class="node">
<title>Node10</title>
<g id="a_node8"><a xlink:href="../../df/dde/lmon_8cpp.html#a0ddf1224851353fc92bfbff6f499fa97" target="_top" xlink:title="lmon entry point.">
<polygon fill="none" stroke="black" points="171.5,-142.5 171.5,-161.5 212.5,-161.5 212.5,-142.5 171.5,-142.5"/>
<text text-anchor="middle" x="192" y="-149.5" font-family="Helvetica,sans-Serif" font-size="10.00">main</text>
</a>
</g>
</g>
<!-- Node9&#45;&gt;Node10 -->
<g id="edge7" class="edge">
<title>Node9&#45;&gt;Node10</title>
<path fill="none" stroke="midnightblue" d="M270.94,-152C249.79,-152 227.86,-152 212.66,-152"/>
<polygon fill="midnightblue" stroke="midnightblue" points="271.22,-155.5 281.22,-152 271.22,-148.5 271.22,-155.5"/>
</g>
<!-- Node12 -->
<g id="node10" class="node">
<title>Node12</title>
<g id="a_node10"><a xlink:href="../../de/d17/lsys_8cpp.html#a0ddf1224851353fc92bfbff6f499fa97" target="_top" xlink:title=" ">
<polygon fill="none" stroke="black" points="171.5,-93.5 171.5,-112.5 212.5,-112.5 212.5,-93.5 171.5,-93.5"/>
<text text-anchor="middle" x="192" y="-100.5" font-family="Helvetica,sans-Serif" font-size="10.00">main</text>
</a>
</g>
</g>
<!-- Node11&#45;&gt;Node12 -->
<g id="edge10" class="edge">
<title>Node11&#45;&gt;Node12</title>
<path fill="none" stroke="midnightblue" d="M273.38,-103C251.5,-103 228.45,-103 212.68,-103"/>
<polygon fill="midnightblue" stroke="midnightblue" points="273.65,-106.5 283.65,-103 273.65,-99.5 273.65,-106.5"/>
</g>
<!-- Node14 -->
<g id="node12" class="node">
<title>Node14</title>
<g id="a_node12"><a xlink:href="../../d9/d3a/lblk_8cpp.html#a0ddf1224851353fc92bfbff6f499fa97" target="_top" xlink:title=" ">
<polygon fill="none" stroke="black" points="171.5,-44.5 171.5,-63.5 212.5,-63.5 212.5,-44.5 171.5,-44.5"/>
<text text-anchor="middle" x="192" y="-51.5" font-family="Helvetica,sans-Serif" font-size="10.00">main</text>
</a>
</g>
</g>
<!-- Node13&#45;&gt;Node14 -->
<g id="edge12" class="edge">
<title>Node13&#45;&gt;Node14</title>
<path fill="none" stroke="midnightblue" d="M274.37,-54C252.14,-54 228.58,-54 212.56,-54"/>
<polygon fill="midnightblue" stroke="midnightblue" points="274.46,-57.5 284.46,-54 274.46,-50.5 274.46,-57.5"/>
</g>
</g>
</svg>
