<?xml version="1.0" encoding="UTF-8" standalone="no"?>
<!DOCTYPE svg PUBLIC "-//W3C//DTD SVG 1.1//EN"
 "http://www.w3.org/Graphics/SVG/1.1/DTD/svg11.dtd">
<!-- Generated by graphviz version 2.43.0 (0)
 -->
<!-- Title: leanux::persist::Query::isNull Pages: 1 -->
<svg width="684pt" height="88pt"
 viewBox="0.00 0.00 684.00 88.00" xmlns="http://www.w3.org/2000/svg" xmlns:xlink="http://www.w3.org/1999/xlink">
<g id="graph0" class="graph" transform="scale(1 1) rotate(0) translate(4 84)">
<title>leanux::persist::Query::isNull</title>
<!-- Node1 -->
<g id="node1" class="node">
<title>Node1</title>
<g id="a_node1"><a xlink:title="Test if the result is NULL.">
<polygon fill="#bfbfbf" stroke="black" points="552,-24.5 552,-54.5 676,-54.5 676,-24.5 552,-24.5"/>
<text text-anchor="start" x="560" y="-42.5" font-family="Helvetica,sans-Serif" font-size="10.00">leanux::persist::Query</text>
<text text-anchor="middle" x="614" y="-31.5" font-family="Helvetica,sans-Serif" font-size="10.00">::isNull</text>
</a>
</g>
</g>
<!-- Node2 -->
<g id="node2" class="node">
<title>Node2</title>
<g id="a_node2"><a xlink:href="../../d7/d6a/classleanux_1_1tools_1_1lmon_1_1LardHistory.html#a9a004d58071bc3b2064686742b49b80a" target="_top" xlink:title=" ">
<polygon fill="none" stroke="black" points="149,-49.5 149,-79.5 310,-79.5 310,-49.5 149,-49.5"/>
<text text-anchor="start" x="157" y="-67.5" font-family="Helvetica,sans-Serif" font-size="10.00">leanux::tools::lmon</text>
<text text-anchor="middle" x="229.5" y="-56.5" font-family="Helvetica,sans-Serif" font-size="10.00">::LardHistory::fetchXProcView</text>
</a>
</g>
</g>
<!-- Node1&#45;&gt;Node2 -->
<g id="edge1" class="edge">
<title>Node1&#45;&gt;Node2</title>
<path fill="none" stroke="midnightblue" d="M541.7,-44.16C475.97,-48.46 378.54,-54.82 310.25,-59.29"/>
<polygon fill="midnightblue" stroke="midnightblue" points="542.22,-47.63 551.97,-43.49 541.76,-40.65 542.22,-47.63"/>
</g>
<!-- Node6 -->
<g id="node4" class="node">
<title>Node6</title>
<g id="a_node4"><a xlink:href="../../d7/d6a/classleanux_1_1tools_1_1lmon_1_1LardHistory.html#aa3deeb2cd3e963efe871d19289a1457d" target="_top" xlink:title=" ">
<polygon fill="none" stroke="black" points="346,-2.5 346,-32.5 516,-32.5 516,-2.5 346,-2.5"/>
<text text-anchor="start" x="354" y="-20.5" font-family="Helvetica,sans-Serif" font-size="10.00">leanux::tools::lmon</text>
<text text-anchor="middle" x="431" y="-9.5" font-family="Helvetica,sans-Serif" font-size="10.00">::LardHistory::getCPUStatRange</text>
</a>
</g>
</g>
<!-- Node1&#45;&gt;Node6 -->
<g id="edge3" class="edge">
<title>Node1&#45;&gt;Node6</title>
<path fill="none" stroke="midnightblue" d="M541.85,-30.85C533.44,-29.83 524.79,-28.78 516.22,-27.74"/>
<polygon fill="midnightblue" stroke="midnightblue" points="541.62,-34.35 551.97,-32.08 542.47,-27.4 541.62,-34.35"/>
</g>
<!-- Node3 -->
<g id="node3" class="node">
<title>Node3</title>
<g id="a_node3"><a xlink:href="../../d5/de6/classleanux_1_1tools_1_1lmon_1_1Screen.html#a010f9459d506af3a4251ea0a644282bd" target="_top" xlink:title="Run the Screen in history mode.">
<polygon fill="none" stroke="red" points="0,-24.5 0,-54.5 113,-54.5 113,-24.5 0,-24.5"/>
<text text-anchor="start" x="8" y="-42.5" font-family="Helvetica,sans-Serif" font-size="10.00">leanux::tools::lmon</text>
<text text-anchor="middle" x="56.5" y="-31.5" font-family="Helvetica,sans-Serif" font-size="10.00">::Screen::runHistory</text>
</a>
</g>
</g>
<!-- Node2&#45;&gt;Node3 -->
<g id="edge2" class="edge">
<title>Node2&#45;&gt;Node3</title>
<path fill="none" stroke="midnightblue" d="M138.6,-51.36C129.96,-50.09 121.38,-48.84 113.21,-47.64"/>
<polygon fill="midnightblue" stroke="midnightblue" points="138.36,-54.86 148.76,-52.84 139.37,-47.93 138.36,-54.86"/>
</g>
<!-- Node7 -->
<g id="node5" class="node">
<title>Node7</title>
<g id="a_node5"><a xlink:href="../../d7/d6a/classleanux_1_1tools_1_1lmon_1_1LardHistory.html#acbcc292d0de07d7c9da5badf017577d4" target="_top" xlink:title=" ">
<polygon fill="none" stroke="black" points="151,-0.5 151,-30.5 308,-30.5 308,-0.5 151,-0.5"/>
<text text-anchor="start" x="159" y="-18.5" font-family="Helvetica,sans-Serif" font-size="10.00">leanux::tools::lmon</text>
<text text-anchor="middle" x="229.5" y="-7.5" font-family="Helvetica,sans-Serif" font-size="10.00">::LardHistory::fetchXSysView</text>
</a>
</g>
</g>
<!-- Node6&#45;&gt;Node7 -->
<g id="edge4" class="edge">
<title>Node6&#45;&gt;Node7</title>
<path fill="none" stroke="midnightblue" d="M335.9,-16.56C326.58,-16.46 317.2,-16.37 308.08,-16.28"/>
<polygon fill="midnightblue" stroke="midnightblue" points="335.94,-20.06 345.97,-16.66 336.01,-13.06 335.94,-20.06"/>
</g>
<!-- Node7&#45;&gt;Node3 -->
<g id="edge5" class="edge">
<title>Node7&#45;&gt;Node3</title>
<path fill="none" stroke="midnightblue" d="M140.44,-27.86C131.16,-29.16 121.93,-30.46 113.17,-31.69"/>
<polygon fill="midnightblue" stroke="midnightblue" points="141.09,-31.3 150.51,-26.45 140.12,-24.37 141.09,-31.3"/>
</g>
</g>
</svg>
