<?xml version="1.0" encoding="UTF-8" standalone="no"?>
<!DOCTYPE svg PUBLIC "-//W3C//DTD SVG 1.1//EN"
 "http://www.w3.org/Graphics/SVG/1.1/DTD/svg11.dtd">
<!-- Generated by graphviz version 2.43.0 (0)
 -->
<!-- Title: leanux::persist::Query::getLong Pages: 1 -->
<svg width="856pt" height="1026pt"
 viewBox="0.00 0.00 856.00 1026.00" xmlns="http://www.w3.org/2000/svg" xmlns:xlink="http://www.w3.org/1999/xlink">
<g id="graph0" class="graph" transform="scale(1 1) rotate(0) translate(4 1022)">
<title>leanux::persist::Query::getLong</title>
<!-- Node1 -->
<g id="node1" class="node">
<title>Node1</title>
<g id="a_node1"><a xlink:title="Get long value from select list.">
<polygon fill="#bfbfbf" stroke="black" points="724,-693.5 724,-723.5 848,-723.5 848,-693.5 724,-693.5"/>
<text text-anchor="start" x="732" y="-711.5" font-family="Helvetica,sans-Serif" font-size="10.00">leanux::persist::Query</text>
<text text-anchor="middle" x="786" y="-700.5" font-family="Helvetica,sans-Serif" font-size="10.00">::getLong</text>
</a>
</g>
</g>
<!-- Node2 -->
<g id="node2" class="node">
<title>Node2</title>
<g id="a_node2"><a xlink:href="../../d4/d62/namespaceleanux_1_1tools_1_1lard.html#a98a04e0c068c5083ad571ebc9b79d693" target="_top" xlink:title=" ">
<polygon fill="none" stroke="black" points="549.5,-742.5 549.5,-772.5 653.5,-772.5 653.5,-742.5 549.5,-742.5"/>
<text text-anchor="start" x="557.5" y="-760.5" font-family="Helvetica,sans-Serif" font-size="10.00">leanux::tools::lard</text>
<text text-anchor="middle" x="601.5" y="-749.5" font-family="Helvetica,sans-Serif" font-size="10.00">::applyRetention</text>
</a>
</g>
</g>
<!-- Node1&#45;&gt;Node2 -->
<g id="edge1" class="edge">
<title>Node1&#45;&gt;Node2</title>
<path fill="none" stroke="midnightblue" d="M719.02,-726.22C697.47,-732 673.88,-738.34 653.6,-743.78"/>
<polygon fill="midnightblue" stroke="midnightblue" points="720,-729.57 728.75,-723.6 718.19,-722.81 720,-729.57"/>
</g>
<!-- Node6 -->
<g id="node4" class="node">
<title>Node6</title>
<g id="a_node4"><a xlink:href="../../d7/d6a/classleanux_1_1tools_1_1lmon_1_1LardHistory.html#a908ffa6779f01a0d374139856c5395c4" target="_top" xlink:title=" ">
<polygon fill="none" stroke="black" points="322,-720.5 322,-750.5 479,-750.5 479,-720.5 322,-720.5"/>
<text text-anchor="start" x="330" y="-738.5" font-family="Helvetica,sans-Serif" font-size="10.00">leanux::tools::lmon</text>
<text text-anchor="middle" x="400.5" y="-727.5" font-family="Helvetica,sans-Serif" font-size="10.00">::LardHistory::fetchXNetView</text>
</a>
</g>
</g>
<!-- Node1&#45;&gt;Node6 -->
<g id="edge3" class="edge">
<title>Node1&#45;&gt;Node6</title>
<path fill="none" stroke="midnightblue" d="M723.8,-691.08C668.37,-678.1 584.92,-665.6 515,-684.5 497.12,-689.33 495.69,-697.46 479,-705.5 467.95,-710.82 455.69,-715.91 444.25,-720.35"/>
<polygon fill="midnightblue" stroke="midnightblue" points="723.27,-694.55 733.81,-693.5 724.92,-687.75 723.27,-694.55"/>
</g>
<!-- Node10 -->
<g id="node7" class="node">
<title>Node10</title>
<g id="a_node7"><a xlink:href="../../d7/d6a/classleanux_1_1tools_1_1lmon_1_1LardHistory.html#a9a004d58071bc3b2064686742b49b80a" target="_top" xlink:title=" ">
<polygon fill="none" stroke="black" points="521,-605.5 521,-635.5 682,-635.5 682,-605.5 521,-605.5"/>
<text text-anchor="start" x="529" y="-623.5" font-family="Helvetica,sans-Serif" font-size="10.00">leanux::tools::lmon</text>
<text text-anchor="middle" x="601.5" y="-612.5" font-family="Helvetica,sans-Serif" font-size="10.00">::LardHistory::fetchXProcView</text>
</a>
</g>
</g>
<!-- Node1&#45;&gt;Node10 -->
<g id="edge6" class="edge">
<title>Node1&#45;&gt;Node10</title>
<path fill="none" stroke="midnightblue" d="M753.95,-687.74C735.34,-675.86 710.9,-661.23 688,-650.5 676.32,-645.03 663.35,-639.98 651.11,-635.65"/>
<polygon fill="midnightblue" stroke="midnightblue" points="752.29,-690.84 762.59,-693.33 756.09,-684.96 752.29,-690.84"/>
</g>
<!-- Node11 -->
<g id="node8" class="node">
<title>Node11</title>
<g id="a_node8"><a xlink:href="../../d7/d6a/classleanux_1_1tools_1_1lmon_1_1LardHistory.html#acbcc292d0de07d7c9da5badf017577d4" target="_top" xlink:title=" ">
<polygon fill="none" stroke="black" points="523,-556.5 523,-586.5 680,-586.5 680,-556.5 523,-556.5"/>
<text text-anchor="start" x="531" y="-574.5" font-family="Helvetica,sans-Serif" font-size="10.00">leanux::tools::lmon</text>
<text text-anchor="middle" x="601.5" y="-563.5" font-family="Helvetica,sans-Serif" font-size="10.00">::LardHistory::fetchXSysView</text>
</a>
</g>
</g>
<!-- Node1&#45;&gt;Node11 -->
<g id="edge8" class="edge">
<title>Node1&#45;&gt;Node11</title>
<path fill="none" stroke="midnightblue" d="M770.41,-684.69C753.6,-659.22 723.66,-619.4 688,-596.5 682.01,-592.66 675.42,-589.39 668.63,-586.61"/>
<polygon fill="midnightblue" stroke="midnightblue" points="767.64,-686.85 776,-693.37 773.53,-683.06 767.64,-686.85"/>
</g>
<!-- Node12 -->
<g id="node9" class="node">
<title>Node12</title>
<g id="a_node9"><a xlink:href="../../d4/d62/namespaceleanux_1_1tools_1_1lard.html#a45d90387f852d7a71981b5d4ff93d8da" target="_top" xlink:title=" ">
<polygon fill="none" stroke="black" points="549.5,-693.5 549.5,-723.5 653.5,-723.5 653.5,-693.5 549.5,-693.5"/>
<text text-anchor="start" x="557.5" y="-711.5" font-family="Helvetica,sans-Serif" font-size="10.00">leanux::tools::lard</text>
<text text-anchor="middle" x="601.5" y="-700.5" font-family="Helvetica,sans-Serif" font-size="10.00">::shrinkDB</text>
</a>
</g>
</g>
<!-- Node1&#45;&gt;Node12 -->
<g id="edge10" class="edge">
<title>Node1&#45;&gt;Node12</title>
<path fill="none" stroke="midnightblue" d="M713.93,-708.5C693.85,-708.5 672.39,-708.5 653.72,-708.5"/>
<polygon fill="midnightblue" stroke="midnightblue" points="713.98,-712 723.98,-708.5 713.98,-705 713.98,-712"/>
</g>
<!-- Node13 -->
<g id="node10" class="node">
<title>Node13</title>
<g id="a_node10"><a xlink:href="../../d8/d77/classleanux_1_1tools_1_1lard_1_1IOSnap.html#acd9defb7ca62e96d5f76b04b3e365b41" target="_top" xlink:title=" ">
<polygon fill="none" stroke="black" points="545.5,-987.5 545.5,-1017.5 657.5,-1017.5 657.5,-987.5 545.5,-987.5"/>
<text text-anchor="start" x="553.5" y="-1005.5" font-family="Helvetica,sans-Serif" font-size="10.00">leanux::tools::lard</text>
<text text-anchor="middle" x="601.5" y="-994.5" font-family="Helvetica,sans-Serif" font-size="10.00">::IOSnap::storeSnap</text>
</a>
</g>
</g>
<!-- Node1&#45;&gt;Node13 -->
<g id="edge12" class="edge">
<title>Node1&#45;&gt;Node13</title>
<path fill="none" stroke="midnightblue" d="M783.39,-733.89C778.63,-787.22 759.98,-911.48 688,-978.5 679.54,-986.38 668.7,-991.7 657.59,-995.29"/>
<polygon fill="midnightblue" stroke="midnightblue" points="786.91,-733.88 784.21,-723.63 779.93,-733.32 786.91,-733.88"/>
</g>
<!-- Node14 -->
<g id="node11" class="node">
<title>Node14</title>
<g id="a_node11"><a xlink:href="../../d2/de5/classleanux_1_1tools_1_1lard_1_1NetSnap.html#a6a04b1f2237b5fe9ac5f7be64721f23f" target="_top" xlink:title=" ">
<polygon fill="none" stroke="black" points="542,-938.5 542,-968.5 661,-968.5 661,-938.5 542,-938.5"/>
<text text-anchor="start" x="550" y="-956.5" font-family="Helvetica,sans-Serif" font-size="10.00">leanux::tools::lard</text>
<text text-anchor="middle" x="601.5" y="-945.5" font-family="Helvetica,sans-Serif" font-size="10.00">::NetSnap::storeSnap</text>
</a>
</g>
</g>
<!-- Node1&#45;&gt;Node14 -->
<g id="edge14" class="edge">
<title>Node1&#45;&gt;Node14</title>
<path fill="none" stroke="midnightblue" d="M781.12,-733.73C772.72,-779.64 748.46,-876.96 688,-929.5 680.32,-936.17 670.92,-941 661.19,-944.49"/>
<polygon fill="midnightblue" stroke="midnightblue" points="784.6,-734.18 782.85,-723.73 777.7,-732.99 784.6,-734.18"/>
</g>
<!-- Node15 -->
<g id="node12" class="node">
<title>Node15</title>
<g id="a_node12"><a xlink:href="../../d4/d0e/classleanux_1_1tools_1_1lard_1_1ProcSnap.html#ab816bcbf8f8986599df48ee7131c10fb" target="_top" xlink:title=" ">
<polygon fill="none" stroke="black" points="540.5,-889.5 540.5,-919.5 662.5,-919.5 662.5,-889.5 540.5,-889.5"/>
<text text-anchor="start" x="548.5" y="-907.5" font-family="Helvetica,sans-Serif" font-size="10.00">leanux::tools::lard</text>
<text text-anchor="middle" x="601.5" y="-896.5" font-family="Helvetica,sans-Serif" font-size="10.00">::ProcSnap::storeSnap</text>
</a>
</g>
</g>
<!-- Node1&#45;&gt;Node15 -->
<g id="edge16" class="edge">
<title>Node1&#45;&gt;Node15</title>
<path fill="none" stroke="midnightblue" d="M777.84,-733.15C765.65,-770.66 737.3,-841.8 688,-880.5 680.6,-886.31 671.88,-890.71 662.87,-894.05"/>
<polygon fill="midnightblue" stroke="midnightblue" points="781.21,-734.1 780.85,-723.51 774.52,-732.01 781.21,-734.1"/>
</g>
<!-- Node16 -->
<g id="node13" class="node">
<title>Node16</title>
<g id="a_node13"><a xlink:href="../../d0/db5/classleanux_1_1tools_1_1lard_1_1MountSnap.html#a7288efb64fc31818416b8c52c4ba3a0d" target="_top" xlink:title=" ">
<polygon fill="none" stroke="black" points="535.5,-840.5 535.5,-870.5 667.5,-870.5 667.5,-840.5 535.5,-840.5"/>
<text text-anchor="start" x="543.5" y="-858.5" font-family="Helvetica,sans-Serif" font-size="10.00">leanux::tools::lard</text>
<text text-anchor="middle" x="601.5" y="-847.5" font-family="Helvetica,sans-Serif" font-size="10.00">::MountSnap::storeSnap</text>
</a>
</g>
</g>
<!-- Node1&#45;&gt;Node16 -->
<g id="edge18" class="edge">
<title>Node1&#45;&gt;Node16</title>
<path fill="none" stroke="midnightblue" d="M772.27,-732.59C756.28,-760.52 726.25,-805.98 688,-831.5 681.84,-835.61 674.99,-839.02 667.92,-841.85"/>
<polygon fill="midnightblue" stroke="midnightblue" points="775.52,-733.94 777.33,-723.5 769.41,-730.54 775.52,-733.94"/>
</g>
<!-- Node17 -->
<g id="node14" class="node">
<title>Node17</title>
<g id="a_node14"><a xlink:href="../../d7/dff/classleanux_1_1tools_1_1lard_1_1TCPEstaSnap.html#adc30b5d65eacc454cb653851f6180f8b" target="_top" xlink:title=" ">
<polygon fill="none" stroke="black" points="531.5,-791.5 531.5,-821.5 671.5,-821.5 671.5,-791.5 531.5,-791.5"/>
<text text-anchor="start" x="539.5" y="-809.5" font-family="Helvetica,sans-Serif" font-size="10.00">leanux::tools::lard</text>
<text text-anchor="middle" x="601.5" y="-798.5" font-family="Helvetica,sans-Serif" font-size="10.00">::TCPEstaSnap::storeSnap</text>
</a>
</g>
</g>
<!-- Node1&#45;&gt;Node17 -->
<g id="edge20" class="edge">
<title>Node1&#45;&gt;Node17</title>
<path fill="none" stroke="midnightblue" d="M761.45,-730.58C742.8,-746.99 715.41,-768.83 688,-782.5 681.24,-785.87 673.93,-788.83 666.54,-791.42"/>
<polygon fill="midnightblue" stroke="midnightblue" points="764.02,-732.97 769.13,-723.69 759.35,-727.76 764.02,-732.97"/>
</g>
<!-- Node18 -->
<g id="node15" class="node">
<title>Node18</title>
<g id="a_node15"><a xlink:href="../../d7/d6a/classleanux_1_1tools_1_1lmon_1_1LardHistory.html#a1ec352b33775f8da5ea9a32ca1a4cd0c" target="_top" xlink:title=" ">
<polygon fill="none" stroke="black" points="523,-359.5 523,-389.5 680,-389.5 680,-359.5 523,-359.5"/>
<text text-anchor="start" x="531" y="-377.5" font-family="Helvetica,sans-Serif" font-size="10.00">leanux::tools::lmon</text>
<text text-anchor="middle" x="601.5" y="-366.5" font-family="Helvetica,sans-Serif" font-size="10.00">::LardHistory::updateMinMax</text>
</a>
</g>
</g>
<!-- Node1&#45;&gt;Node18 -->
<g id="edge22" class="edge">
<title>Node1&#45;&gt;Node18</title>
<path fill="none" stroke="midnightblue" d="M771.71,-684.19C736.21,-619.21 639.86,-442.87 610.86,-389.81"/>
<polygon fill="midnightblue" stroke="midnightblue" points="768.82,-686.18 776.68,-693.28 774.96,-682.83 768.82,-686.18"/>
</g>
<!-- Node33 -->
<g id="node28" class="node">
<title>Node33</title>
<g id="a_node28"><a xlink:href="../../d7/d6a/classleanux_1_1tools_1_1lmon_1_1LardHistory.html#a7eac92d3a722d105aa2ee05a96238737" target="_top" xlink:title=" ">
<polygon fill="none" stroke="black" points="515,-310.5 515,-340.5 688,-340.5 688,-310.5 515,-310.5"/>
<text text-anchor="start" x="523" y="-328.5" font-family="Helvetica,sans-Serif" font-size="10.00">leanux::tools::lmon</text>
<text text-anchor="middle" x="601.5" y="-317.5" font-family="Helvetica,sans-Serif" font-size="10.00">::LardHistory::updateRangeTime</text>
</a>
</g>
</g>
<!-- Node1&#45;&gt;Node33 -->
<g id="edge46" class="edge">
<title>Node1&#45;&gt;Node33</title>
<path fill="none" stroke="midnightblue" d="M781.46,-683.28C770.64,-609.76 735.86,-397.82 688,-349.5 684.64,-346.1 680.83,-343.18 676.75,-340.66"/>
<polygon fill="midnightblue" stroke="midnightblue" points="778.03,-684.07 782.93,-693.47 784.96,-683.07 778.03,-684.07"/>
</g>
<!-- Node34 -->
<g id="node29" class="node">
<title>Node34</title>
<g id="a_node29"><a xlink:href="../../da/dbe/namespaceleanux_1_1tools_1_1lmon.html#a74b9d0f91075fc4d3f46a9e0e3213248" target="_top" xlink:title=" ">
<polygon fill="none" stroke="black" points="161,-0.5 161,-30.5 271,-30.5 271,-0.5 161,-0.5"/>
<text text-anchor="start" x="169" y="-18.5" font-family="Helvetica,sans-Serif" font-size="10.00">leanux::tools::lmon</text>
<text text-anchor="middle" x="216" y="-7.5" font-family="Helvetica,sans-Serif" font-size="10.00">::verifyDatabase</text>
</a>
</g>
</g>
<!-- Node1&#45;&gt;Node34 -->
<g id="edge59" class="edge">
<title>Node1&#45;&gt;Node34</title>
<path fill="none" stroke="midnightblue" d="M783.72,-683.36C776.77,-576.98 733.56,-163.2 479,-29.5 413.87,4.71 326.65,1.33 271.12,-5.83"/>
<polygon fill="midnightblue" stroke="midnightblue" points="780.24,-683.7 784.33,-693.47 787.23,-683.28 780.24,-683.7"/>
</g>
<!-- Node3 -->
<g id="node3" class="node">
<title>Node3</title>
<g id="a_node3"><a xlink:href="../../d4/d62/namespaceleanux_1_1tools_1_1lard.html#a6de74bbef1d571bf7eb000e62900a11d" target="_top" xlink:title=" ">
<polygon fill="none" stroke="red" points="348.5,-840.5 348.5,-870.5 452.5,-870.5 452.5,-840.5 348.5,-840.5"/>
<text text-anchor="start" x="356.5" y="-858.5" font-family="Helvetica,sans-Serif" font-size="10.00">leanux::tools::lard</text>
<text text-anchor="middle" x="400.5" y="-847.5" font-family="Helvetica,sans-Serif" font-size="10.00">::mainLoop</text>
</a>
</g>
</g>
<!-- Node2&#45;&gt;Node3 -->
<g id="edge2" class="edge">
<title>Node2&#45;&gt;Node3</title>
<path fill="none" stroke="midnightblue" d="M539.89,-772.86C531.39,-775.69 522.87,-778.91 515,-782.5 479.83,-798.55 442.85,-824.23 421,-840.47"/>
<polygon fill="midnightblue" stroke="midnightblue" points="540.97,-776.19 549.44,-769.83 538.85,-769.52 540.97,-776.19"/>
</g>
<!-- Node7 -->
<g id="node5" class="node">
<title>Node7</title>
<g id="a_node5"><a xlink:href="../../d5/de6/classleanux_1_1tools_1_1lmon_1_1Screen.html#a010f9459d506af3a4251ea0a644282bd" target="_top" xlink:title="Run the Screen in history mode.">
<polygon fill="none" stroke="black" points="159.5,-383.5 159.5,-413.5 272.5,-413.5 272.5,-383.5 159.5,-383.5"/>
<text text-anchor="start" x="167.5" y="-401.5" font-family="Helvetica,sans-Serif" font-size="10.00">leanux::tools::lmon</text>
<text text-anchor="middle" x="216" y="-390.5" font-family="Helvetica,sans-Serif" font-size="10.00">::Screen::runHistory</text>
</a>
</g>
</g>
<!-- Node6&#45;&gt;Node7 -->
<g id="edge4" class="edge">
<title>Node6&#45;&gt;Node7</title>
<path fill="none" stroke="midnightblue" d="M334.12,-715.4C329.71,-712.52 325.59,-709.24 322,-705.5 238.47,-618.58 221.22,-462.45 217.81,-413.56"/>
<polygon fill="midnightblue" stroke="midnightblue" points="332.51,-718.51 342.93,-720.45 336,-712.44 332.51,-718.51"/>
</g>
<!-- Node8 -->
<g id="node6" class="node">
<title>Node8</title>
<g id="a_node6"><a xlink:href="../../da/dbe/namespaceleanux_1_1tools_1_1lmon.html#a7f59af183bc55b66e3dc0844b473daaf" target="_top" xlink:title=" ">
<polygon fill="none" stroke="red" points="0,-171.5 0,-201.5 110,-201.5 110,-171.5 0,-171.5"/>
<text text-anchor="start" x="8" y="-189.5" font-family="Helvetica,sans-Serif" font-size="10.00">leanux::tools::lmon</text>
<text text-anchor="middle" x="55" y="-178.5" font-family="Helvetica,sans-Serif" font-size="10.00">::main</text>
</a>
</g>
</g>
<!-- Node7&#45;&gt;Node8 -->
<g id="edge5" class="edge">
<title>Node7&#45;&gt;Node8</title>
<path fill="none" stroke="midnightblue" d="M197.52,-375.2C164.71,-331.44 94.73,-238.14 67.33,-201.61"/>
<polygon fill="midnightblue" stroke="midnightblue" points="194.77,-377.35 203.57,-383.25 200.37,-373.15 194.77,-377.35"/>
</g>
<!-- Node10&#45;&gt;Node7 -->
<g id="edge7" class="edge">
<title>Node10&#45;&gt;Node7</title>
<path fill="none" stroke="midnightblue" d="M564.69,-640.05C508.04,-668.05 396.54,-710.93 322,-660.5 235.75,-602.15 220.34,-460.14 217.59,-413.57"/>
<polygon fill="midnightblue" stroke="midnightblue" points="566.28,-643.17 573.63,-635.53 563.12,-636.92 566.28,-643.17"/>
</g>
<!-- Node11&#45;&gt;Node7 -->
<g id="edge9" class="edge">
<title>Node11&#45;&gt;Node7</title>
<path fill="none" stroke="midnightblue" d="M526.21,-590.5C522.33,-592.33 518.56,-594.32 515,-596.5 495.15,-608.63 500.37,-625.31 479,-634.5 414.9,-662.07 380.52,-672.51 322,-634.5 243.03,-583.2 222.96,-457.26 218.3,-413.65"/>
<polygon fill="midnightblue" stroke="midnightblue" points="527.63,-593.69 535.44,-586.53 524.87,-587.26 527.63,-593.69"/>
</g>
<!-- Node12&#45;&gt;Node3 -->
<g id="edge11" class="edge">
<title>Node12&#45;&gt;Node3</title>
<path fill="none" stroke="midnightblue" d="M539.61,-721.88C531.02,-725.01 522.55,-728.84 515,-733.5 468.72,-762.06 429.2,-814.47 411.47,-840.3"/>
<polygon fill="midnightblue" stroke="midnightblue" points="540.94,-725.12 549.31,-718.62 538.72,-718.48 540.94,-725.12"/>
</g>
<!-- Node13&#45;&gt;Node3 -->
<g id="edge13" class="edge">
<title>Node13&#45;&gt;Node3</title>
<path fill="none" stroke="midnightblue" d="M535.44,-988.39C528.3,-985.64 521.33,-982.38 515,-978.5 468.42,-949.97 429.04,-897.01 411.41,-870.89"/>
<polygon fill="midnightblue" stroke="midnightblue" points="534.66,-991.83 545.26,-991.83 536.98,-985.22 534.66,-991.83"/>
</g>
<!-- Node14&#45;&gt;Node3 -->
<g id="edge15" class="edge">
<title>Node14&#45;&gt;Node3</title>
<path fill="none" stroke="midnightblue" d="M531.9,-936.26C526.1,-934.2 520.4,-931.95 515,-929.5 479.44,-913.37 442.27,-887.05 420.53,-870.53"/>
<polygon fill="midnightblue" stroke="midnightblue" points="531.11,-939.69 541.7,-939.56 533.34,-933.05 531.11,-939.69"/>
</g>
<!-- Node15&#45;&gt;Node3 -->
<g id="edge17" class="edge">
<title>Node15&#45;&gt;Node3</title>
<path fill="none" stroke="midnightblue" d="M530.26,-887.2C504.73,-880.92 476.39,-873.94 452.81,-868.13"/>
<polygon fill="midnightblue" stroke="midnightblue" points="529.71,-890.67 540.25,-889.67 531.38,-883.88 529.71,-890.67"/>
</g>
<!-- Node16&#45;&gt;Node3 -->
<g id="edge19" class="edge">
<title>Node16&#45;&gt;Node3</title>
<path fill="none" stroke="midnightblue" d="M525.11,-855.5C500.89,-855.5 474.65,-855.5 452.61,-855.5"/>
<polygon fill="midnightblue" stroke="midnightblue" points="525.34,-859 535.34,-855.5 525.34,-852 525.34,-859"/>
</g>
<!-- Node17&#45;&gt;Node3 -->
<g id="edge21" class="edge">
<title>Node17&#45;&gt;Node3</title>
<path fill="none" stroke="midnightblue" d="M529.5,-823.98C504.15,-830.22 476.09,-837.13 452.73,-842.89"/>
<polygon fill="midnightblue" stroke="midnightblue" points="530.57,-827.32 539.44,-821.53 528.89,-820.53 530.57,-827.32"/>
</g>
<!-- Node19 -->
<g id="node16" class="node">
<title>Node19</title>
<g id="a_node16"><a xlink:href="../../d7/d6a/classleanux_1_1tools_1_1lmon_1_1LardHistory.html#abbb0f0248af6b10fa46957148cd61bb1" target="_top" xlink:title=" ">
<polygon fill="none" stroke="black" points="335.5,-506.5 335.5,-536.5 465.5,-536.5 465.5,-506.5 335.5,-506.5"/>
<text text-anchor="start" x="343.5" y="-524.5" font-family="Helvetica,sans-Serif" font-size="10.00">leanux::tools::lmon</text>
<text text-anchor="middle" x="400.5" y="-513.5" font-family="Helvetica,sans-Serif" font-size="10.00">::LardHistory::dayDown</text>
</a>
</g>
</g>
<!-- Node18&#45;&gt;Node19 -->
<g id="edge23" class="edge">
<title>Node18&#45;&gt;Node19</title>
<path fill="none" stroke="midnightblue" d="M583.21,-398.02C561.71,-425.65 522.52,-471.06 479,-497.5 473.46,-500.86 467.41,-503.79 461.21,-506.34"/>
<polygon fill="midnightblue" stroke="midnightblue" points="586.26,-399.79 589.54,-389.72 580.69,-395.55 586.26,-399.79"/>
</g>
<!-- Node20 -->
<g id="node17" class="node">
<title>Node20</title>
<g id="a_node17"><a xlink:href="../../d7/d6a/classleanux_1_1tools_1_1lmon_1_1LardHistory.html#a2248617d682e0af0e7f2bfc76f7c4bde" target="_top" xlink:title=" ">
<polygon fill="none" stroke="black" points="342.5,-457.5 342.5,-487.5 458.5,-487.5 458.5,-457.5 342.5,-457.5"/>
<text text-anchor="start" x="350.5" y="-475.5" font-family="Helvetica,sans-Serif" font-size="10.00">leanux::tools::lmon</text>
<text text-anchor="middle" x="400.5" y="-464.5" font-family="Helvetica,sans-Serif" font-size="10.00">::LardHistory::dayUp</text>
</a>
</g>
</g>
<!-- Node18&#45;&gt;Node20 -->
<g id="edge25" class="edge">
<title>Node18&#45;&gt;Node20</title>
<path fill="none" stroke="midnightblue" d="M571.15,-395.22C547.22,-411.4 512.09,-433.58 479,-448.5 471.81,-451.74 464.06,-454.72 456.33,-457.38"/>
<polygon fill="midnightblue" stroke="midnightblue" points="573.16,-398.09 579.44,-389.55 569.21,-392.31 573.16,-398.09"/>
</g>
<!-- Node21 -->
<g id="node18" class="node">
<title>Node21</title>
<g id="a_node18"><a xlink:href="../../d7/d6a/classleanux_1_1tools_1_1lmon_1_1LardHistory.html#a0e50738d2a673a6b539cb33b0c03ef74" target="_top" xlink:title=" ">
<polygon fill="none" stroke="black" points="333.5,-408.5 333.5,-438.5 467.5,-438.5 467.5,-408.5 333.5,-408.5"/>
<text text-anchor="start" x="341.5" y="-426.5" font-family="Helvetica,sans-Serif" font-size="10.00">leanux::tools::lmon</text>
<text text-anchor="middle" x="400.5" y="-415.5" font-family="Helvetica,sans-Serif" font-size="10.00">::LardHistory::hourDown</text>
</a>
</g>
</g>
<!-- Node18&#45;&gt;Node21 -->
<g id="edge27" class="edge">
<title>Node18&#45;&gt;Node21</title>
<path fill="none" stroke="midnightblue" d="M529.52,-391.98C507.59,-397.38 483.64,-403.28 462.44,-408.49"/>
<polygon fill="midnightblue" stroke="midnightblue" points="530.57,-395.32 539.44,-389.53 528.89,-388.53 530.57,-395.32"/>
</g>
<!-- Node22 -->
<g id="node19" class="node">
<title>Node22</title>
<g id="a_node19"><a xlink:href="../../d7/d6a/classleanux_1_1tools_1_1lmon_1_1LardHistory.html#aa3ed9afac22ff0c13e5aee6d9e73789e" target="_top" xlink:title=" ">
<polygon fill="none" stroke="black" points="341,-359.5 341,-389.5 460,-389.5 460,-359.5 341,-359.5"/>
<text text-anchor="start" x="349" y="-377.5" font-family="Helvetica,sans-Serif" font-size="10.00">leanux::tools::lmon</text>
<text text-anchor="middle" x="400.5" y="-366.5" font-family="Helvetica,sans-Serif" font-size="10.00">::LardHistory::hourUp</text>
</a>
</g>
</g>
<!-- Node18&#45;&gt;Node22 -->
<g id="edge29" class="edge">
<title>Node18&#45;&gt;Node22</title>
<path fill="none" stroke="midnightblue" d="M512.64,-374.5C494.93,-374.5 476.72,-374.5 460.3,-374.5"/>
<polygon fill="midnightblue" stroke="midnightblue" points="512.99,-378 522.99,-374.5 512.99,-371 512.99,-378"/>
</g>
<!-- Node23 -->
<g id="node20" class="node">
<title>Node23</title>
<g id="a_node20"><a xlink:href="../../d7/d6a/classleanux_1_1tools_1_1lmon_1_1LardHistory.html#a577cf0b864133c7e296c4ec1f389099e" target="_top" xlink:title=" ">
<polygon fill="none" stroke="black" points="146,-65.5 146,-95.5 286,-95.5 286,-65.5 146,-65.5"/>
<text text-anchor="start" x="154" y="-83.5" font-family="Helvetica,sans-Serif" font-size="10.00">leanux::tools::lmon</text>
<text text-anchor="middle" x="216" y="-72.5" font-family="Helvetica,sans-Serif" font-size="10.00">::LardHistory::LardHistory</text>
</a>
</g>
</g>
<!-- Node18&#45;&gt;Node23 -->
<g id="edge31" class="edge">
<title>Node18&#45;&gt;Node23</title>
<path fill="none" stroke="midnightblue" d="M591.71,-399.14C576.09,-438.74 539.33,-515.25 479,-546.5 417.04,-578.59 376.13,-590.53 322,-546.5 261.07,-496.95 303,-450.17 286,-373.5 262.35,-266.87 231.33,-139.06 220.73,-95.72"/>
<polygon fill="midnightblue" stroke="midnightblue" points="595.02,-400.29 595.32,-389.7 588.48,-397.79 595.02,-400.29"/>
</g>
<!-- Node24 -->
<g id="node21" class="node">
<title>Node24</title>
<g id="a_node21"><a xlink:href="../../d7/d6a/classleanux_1_1tools_1_1lmon_1_1LardHistory.html#a29f82085fafd7a4b2d932721a5156e02" target="_top" xlink:title=" ">
<polygon fill="none" stroke="black" points="330.5,-310.5 330.5,-340.5 470.5,-340.5 470.5,-310.5 330.5,-310.5"/>
<text text-anchor="start" x="338.5" y="-328.5" font-family="Helvetica,sans-Serif" font-size="10.00">leanux::tools::lmon</text>
<text text-anchor="middle" x="400.5" y="-317.5" font-family="Helvetica,sans-Serif" font-size="10.00">::LardHistory::rangeDown</text>
</a>
</g>
</g>
<!-- Node18&#45;&gt;Node24 -->
<g id="edge32" class="edge">
<title>Node18&#45;&gt;Node24</title>
<path fill="none" stroke="midnightblue" d="M529.52,-357.02C507.59,-351.62 483.64,-345.72 462.44,-340.51"/>
<polygon fill="midnightblue" stroke="midnightblue" points="528.89,-360.47 539.44,-359.47 530.57,-353.68 528.89,-360.47"/>
</g>
<!-- Node25 -->
<g id="node22" class="node">
<title>Node25</title>
<g id="a_node22"><a xlink:href="../../d7/d6a/classleanux_1_1tools_1_1lmon_1_1LardHistory.html#a89c5b4e1aea91cbbe983475535e64c32" target="_top" xlink:title=" ">
<polygon fill="none" stroke="black" points="335.5,-261.5 335.5,-291.5 465.5,-291.5 465.5,-261.5 335.5,-261.5"/>
<text text-anchor="start" x="343.5" y="-279.5" font-family="Helvetica,sans-Serif" font-size="10.00">leanux::tools::lmon</text>
<text text-anchor="middle" x="400.5" y="-268.5" font-family="Helvetica,sans-Serif" font-size="10.00">::LardHistory::rangeEnd</text>
</a>
</g>
</g>
<!-- Node18&#45;&gt;Node25 -->
<g id="edge34" class="edge">
<title>Node18&#45;&gt;Node25</title>
<path fill="none" stroke="midnightblue" d="M524.06,-355.07C520.91,-353.36 517.87,-351.51 515,-349.5 492.86,-334 501.01,-316.17 479,-300.5 474.18,-297.07 468.86,-294.12 463.32,-291.58"/>
<polygon fill="midnightblue" stroke="midnightblue" points="522.65,-358.28 533.18,-359.49 525.71,-351.98 522.65,-358.28"/>
</g>
<!-- Node26 -->
<g id="node23" class="node">
<title>Node26</title>
<g id="a_node23"><a xlink:href="../../d7/d6a/classleanux_1_1tools_1_1lmon_1_1LardHistory.html#a4d332725ca42cfad561c91328c3d682d" target="_top" xlink:title=" ">
<polygon fill="none" stroke="black" points="333,-212.5 333,-242.5 468,-242.5 468,-212.5 333,-212.5"/>
<text text-anchor="start" x="341" y="-230.5" font-family="Helvetica,sans-Serif" font-size="10.00">leanux::tools::lmon</text>
<text text-anchor="middle" x="400.5" y="-219.5" font-family="Helvetica,sans-Serif" font-size="10.00">::LardHistory::rangeStart</text>
</a>
</g>
</g>
<!-- Node18&#45;&gt;Node26 -->
<g id="edge36" class="edge">
<title>Node18&#45;&gt;Node26</title>
<path fill="none" stroke="midnightblue" d="M520.36,-353.97C518.49,-352.57 516.7,-351.09 515,-349.5 481.1,-317.82 512.65,-283.45 479,-251.5 475.43,-248.11 471.38,-245.19 467.06,-242.69"/>
<polygon fill="midnightblue" stroke="midnightblue" points="518.71,-357.06 529.02,-359.49 522.47,-351.16 518.71,-357.06"/>
</g>
<!-- Node27 -->
<g id="node24" class="node">
<title>Node27</title>
<g id="a_node24"><a xlink:href="../../d7/d6a/classleanux_1_1tools_1_1lmon_1_1LardHistory.html#ab1097623530fb774e9375980fbb8f326" target="_top" xlink:title=" ">
<polygon fill="none" stroke="black" points="338,-163.5 338,-193.5 463,-193.5 463,-163.5 338,-163.5"/>
<text text-anchor="start" x="346" y="-181.5" font-family="Helvetica,sans-Serif" font-size="10.00">leanux::tools::lmon</text>
<text text-anchor="middle" x="400.5" y="-170.5" font-family="Helvetica,sans-Serif" font-size="10.00">::LardHistory::rangeUp</text>
</a>
</g>
</g>
<!-- Node18&#45;&gt;Node27 -->
<g id="edge38" class="edge">
<title>Node18&#45;&gt;Node27</title>
<path fill="none" stroke="midnightblue" d="M518.93,-353.22C517.56,-352.05 516.25,-350.81 515,-349.5 468.5,-300.9 525.11,-251.47 479,-202.5 474.46,-197.68 468.98,-193.82 463.05,-190.73"/>
<polygon fill="midnightblue" stroke="midnightblue" points="517.17,-356.26 527.32,-359.28 521.26,-350.59 517.17,-356.26"/>
</g>
<!-- Node28 -->
<g id="node25" class="node">
<title>Node28</title>
<g id="a_node25"><a xlink:href="../../d7/d6a/classleanux_1_1tools_1_1lmon_1_1LardHistory.html#aafd1a1a978d28fd53c8a473071cc64b4" target="_top" xlink:title="Sets the current time selection into the lard data.">
<polygon fill="none" stroke="red" points="336.5,-65.5 336.5,-95.5 464.5,-95.5 464.5,-65.5 336.5,-65.5"/>
<text text-anchor="start" x="344.5" y="-83.5" font-family="Helvetica,sans-Serif" font-size="10.00">leanux::tools::lmon</text>
<text text-anchor="middle" x="400.5" y="-72.5" font-family="Helvetica,sans-Serif" font-size="10.00">::LardHistory::setZoom</text>
</a>
</g>
</g>
<!-- Node18&#45;&gt;Node28 -->
<g id="edge40" class="edge">
<title>Node18&#45;&gt;Node28</title>
<path fill="none" stroke="midnightblue" d="M518.3,-352.94C517.15,-351.85 516.05,-350.7 515,-349.5 442.75,-266.48 550.59,-188.09 479,-104.5 474.97,-99.79 470.03,-95.99 464.62,-92.93"/>
<polygon fill="midnightblue" stroke="midnightblue" points="516.5,-355.98 526.52,-359.4 520.82,-350.47 516.5,-355.98"/>
</g>
<!-- Node31 -->
<g id="node26" class="node">
<title>Node31</title>
<g id="a_node26"><a xlink:href="../../d7/d6a/classleanux_1_1tools_1_1lmon_1_1LardHistory.html#ac2757f570c6bdacb51542f518d20f7c8" target="_top" xlink:title=" ">
<polygon fill="none" stroke="black" points="331.5,-114.5 331.5,-144.5 469.5,-144.5 469.5,-114.5 331.5,-114.5"/>
<text text-anchor="start" x="339.5" y="-132.5" font-family="Helvetica,sans-Serif" font-size="10.00">leanux::tools::lmon</text>
<text text-anchor="middle" x="400.5" y="-121.5" font-family="Helvetica,sans-Serif" font-size="10.00">::LardHistory::weekDown</text>
</a>
</g>
</g>
<!-- Node18&#45;&gt;Node31 -->
<g id="edge42" class="edge">
<title>Node18&#45;&gt;Node31</title>
<path fill="none" stroke="midnightblue" d="M518.71,-353.21C517.41,-352.04 516.18,-350.8 515,-349.5 455.67,-283.74 537.8,-219.73 479,-153.5 476.01,-150.13 472.55,-147.23 468.8,-144.73"/>
<polygon fill="midnightblue" stroke="midnightblue" points="516.6,-356 526.68,-359.27 520.83,-350.43 516.6,-356"/>
</g>
<!-- Node32 -->
<g id="node27" class="node">
<title>Node32</title>
<g id="a_node27"><a xlink:href="../../d7/d6a/classleanux_1_1tools_1_1lmon_1_1LardHistory.html#ab189cc20c695e58eea23f77b780da309" target="_top" xlink:title=" ">
<polygon fill="none" stroke="black" points="338.5,-594.5 338.5,-624.5 462.5,-624.5 462.5,-594.5 338.5,-594.5"/>
<text text-anchor="start" x="346.5" y="-612.5" font-family="Helvetica,sans-Serif" font-size="10.00">leanux::tools::lmon</text>
<text text-anchor="middle" x="400.5" y="-601.5" font-family="Helvetica,sans-Serif" font-size="10.00">::LardHistory::weekUp</text>
</a>
</g>
</g>
<!-- Node18&#45;&gt;Node32 -->
<g id="edge44" class="edge">
<title>Node18&#45;&gt;Node32</title>
<path fill="none" stroke="midnightblue" d="M592.02,-399.26C576.25,-441.82 538.51,-529.12 479,-579.5 471.84,-585.56 463.32,-590.48 454.6,-594.44"/>
<polygon fill="midnightblue" stroke="midnightblue" points="595.37,-400.28 595.47,-389.69 588.78,-397.91 595.37,-400.28"/>
</g>
<!-- Node19&#45;&gt;Node7 -->
<g id="edge24" class="edge">
<title>Node19&#45;&gt;Node7</title>
<path fill="none" stroke="midnightblue" d="M331.4,-502.43C328.16,-500.9 325.01,-499.26 322,-497.5 283.26,-474.9 247.36,-435.5 229.27,-413.85"/>
<polygon fill="midnightblue" stroke="midnightblue" points="330.15,-505.7 340.72,-506.46 332.93,-499.28 330.15,-505.7"/>
</g>
<!-- Node20&#45;&gt;Node7 -->
<g id="edge26" class="edge">
<title>Node20&#45;&gt;Node7</title>
<path fill="none" stroke="midnightblue" d="M337.51,-454.18C332.23,-452.36 327,-450.45 322,-448.5 295.67,-438.22 266.74,-424.23 245.92,-413.66"/>
<polygon fill="midnightblue" stroke="midnightblue" points="336.44,-457.52 347.03,-457.38 338.67,-450.88 336.44,-457.52"/>
</g>
<!-- Node21&#45;&gt;Node7 -->
<g id="edge28" class="edge">
<title>Node21&#45;&gt;Node7</title>
<path fill="none" stroke="midnightblue" d="M323.44,-413.08C306.44,-410.75 288.71,-408.32 272.7,-406.13"/>
<polygon fill="midnightblue" stroke="midnightblue" points="322.97,-416.55 333.36,-414.44 323.92,-409.61 322.97,-416.55"/>
</g>
<!-- Node22&#45;&gt;Node7 -->
<g id="edge30" class="edge">
<title>Node22&#45;&gt;Node7</title>
<path fill="none" stroke="midnightblue" d="M330.57,-383.56C311.4,-386.09 290.83,-388.79 272.53,-391.2"/>
<polygon fill="midnightblue" stroke="midnightblue" points="331.29,-387 340.75,-382.23 330.38,-380.06 331.29,-387"/>
</g>
<!-- Node24&#45;&gt;Node7 -->
<g id="edge33" class="edge">
<title>Node24&#45;&gt;Node7</title>
<path fill="none" stroke="midnightblue" d="M337.79,-343.77C332.42,-345.61 327.09,-347.53 322,-349.5 295.91,-359.57 267.2,-373.15 246.4,-383.46"/>
<polygon fill="midnightblue" stroke="midnightblue" points="339.09,-347.02 347.47,-340.54 336.88,-340.38 339.09,-347.02"/>
</g>
<!-- Node25&#45;&gt;Node7 -->
<g id="edge35" class="edge">
<title>Node25&#45;&gt;Node7</title>
<path fill="none" stroke="midnightblue" d="M331.41,-295.59C328.17,-297.12 325.02,-298.75 322,-300.5 283.39,-322.9 247.44,-361.89 229.3,-383.31"/>
<polygon fill="midnightblue" stroke="midnightblue" points="332.94,-298.74 340.73,-291.57 330.17,-292.32 332.94,-298.74"/>
</g>
<!-- Node26&#45;&gt;Node7 -->
<g id="edge37" class="edge">
<title>Node26&#45;&gt;Node7</title>
<path fill="none" stroke="midnightblue" d="M328.56,-247.23C326.29,-248.56 324.1,-249.98 322,-251.5 272.67,-287.12 237.81,-353.17 223.81,-383.08"/>
<polygon fill="midnightblue" stroke="midnightblue" points="330.37,-250.23 337.63,-242.51 327.14,-244.03 330.37,-250.23"/>
</g>
<!-- Node27&#45;&gt;Node7 -->
<g id="edge39" class="edge">
<title>Node27&#45;&gt;Node7</title>
<path fill="none" stroke="midnightblue" d="M329.11,-197.37C326.62,-198.95 324.24,-200.65 322,-202.5 261.4,-252.48 230.79,-346.85 220.79,-383.46"/>
<polygon fill="midnightblue" stroke="midnightblue" points="330.86,-200.4 337.92,-192.5 327.47,-194.28 330.86,-200.4"/>
</g>
<!-- Node28&#45;&gt;Node23 -->
<g id="edge41" class="edge">
<title>Node28&#45;&gt;Node23</title>
<path fill="none" stroke="midnightblue" d="M326.05,-80.5C312.93,-80.5 299.3,-80.5 286.3,-80.5"/>
<polygon fill="midnightblue" stroke="midnightblue" points="326.44,-84 336.44,-80.5 326.44,-77 326.44,-84"/>
</g>
<!-- Node31&#45;&gt;Node7 -->
<g id="edge43" class="edge">
<title>Node31&#45;&gt;Node7</title>
<path fill="none" stroke="midnightblue" d="M326.04,-150.17C324.65,-151.22 323.3,-152.33 322,-153.5 250.13,-218.22 225.63,-340.56 219.05,-383.3"/>
<polygon fill="midnightblue" stroke="midnightblue" points="328.02,-153.06 334.52,-144.69 324.22,-147.18 328.02,-153.06"/>
</g>
<!-- Node32&#45;&gt;Node7 -->
<g id="edge45" class="edge">
<title>Node32&#45;&gt;Node7</title>
<path fill="none" stroke="midnightblue" d="M337.09,-589.83C331.7,-586.83 326.57,-583.4 322,-579.5 266.63,-532.17 233.58,-447.95 221.86,-413.66"/>
<polygon fill="midnightblue" stroke="midnightblue" points="335.85,-593.13 346.36,-594.5 339,-586.87 335.85,-593.13"/>
</g>
<!-- Node33&#45;&gt;Node19 -->
<g id="edge47" class="edge">
<title>Node33&#45;&gt;Node19</title>
<path fill="none" stroke="midnightblue" d="M517.9,-346.71C516.9,-347.6 515.93,-348.53 515,-349.5 467.98,-398.2 525.37,-448.18 479,-497.5 475.14,-501.6 470.6,-505.01 465.67,-507.84"/>
<polygon fill="midnightblue" stroke="midnightblue" points="520.23,-349.35 526.15,-340.56 516.04,-343.73 520.23,-349.35"/>
</g>
<!-- Node33&#45;&gt;Node20 -->
<g id="edge48" class="edge">
<title>Node33&#45;&gt;Node20</title>
<path fill="none" stroke="midnightblue" d="M519,-346.1C517.62,-347.18 516.28,-348.31 515,-349.5 480.67,-381.34 512.9,-416.21 479,-448.5 473.19,-454.04 466.12,-458.3 458.65,-461.58"/>
<polygon fill="midnightblue" stroke="midnightblue" points="521,-348.98 527.39,-340.53 517.12,-343.15 521,-348.98"/>
</g>
<!-- Node33&#45;&gt;Node21 -->
<g id="edge49" class="edge">
<title>Node33&#45;&gt;Node21</title>
<path fill="none" stroke="midnightblue" d="M521.74,-345.28C519.42,-346.6 517.16,-348 515,-349.5 492.78,-364.88 500.92,-382.7 479,-398.5 473.61,-402.39 467.59,-405.69 461.34,-408.49"/>
<polygon fill="midnightblue" stroke="midnightblue" points="523.64,-348.24 531.01,-340.62 520.5,-341.99 523.64,-348.24"/>
</g>
<!-- Node33&#45;&gt;Node22 -->
<g id="edge50" class="edge">
<title>Node33&#45;&gt;Node22</title>
<path fill="none" stroke="midnightblue" d="M529.5,-342.98C506.74,-348.59 481.82,-354.72 460.06,-360.08"/>
<polygon fill="midnightblue" stroke="midnightblue" points="530.57,-346.32 539.44,-340.53 528.89,-339.53 530.57,-346.32"/>
</g>
<!-- Node33&#45;&gt;Node23 -->
<g id="edge51" class="edge">
<title>Node33&#45;&gt;Node23</title>
<path fill="none" stroke="midnightblue" d="M597.96,-300.14C590.85,-244.3 565.2,-111.23 479,-55.5 407.82,-9.48 302.23,-43.28 249.47,-65.39"/>
<polygon fill="midnightblue" stroke="midnightblue" points="594.5,-300.72 599.15,-310.24 601.46,-299.9 594.5,-300.72"/>
</g>
<!-- Node33&#45;&gt;Node24 -->
<g id="edge52" class="edge">
<title>Node33&#45;&gt;Node24</title>
<path fill="none" stroke="midnightblue" d="M504.88,-325.5C493.38,-325.5 481.81,-325.5 470.79,-325.5"/>
<polygon fill="midnightblue" stroke="midnightblue" points="504.95,-329 514.95,-325.5 504.95,-322 504.95,-329"/>
</g>
<!-- Node33&#45;&gt;Node25 -->
<g id="edge53" class="edge">
<title>Node33&#45;&gt;Node25</title>
<path fill="none" stroke="midnightblue" d="M529.52,-308.02C507.59,-302.62 483.64,-296.72 462.44,-291.51"/>
<polygon fill="midnightblue" stroke="midnightblue" points="528.89,-311.47 539.44,-310.47 530.57,-304.68 528.89,-311.47"/>
</g>
<!-- Node33&#45;&gt;Node26 -->
<g id="edge54" class="edge">
<title>Node33&#45;&gt;Node26</title>
<path fill="none" stroke="midnightblue" d="M571.15,-304.78C547.22,-288.6 512.09,-266.42 479,-251.5 471.81,-248.26 464.06,-245.28 456.33,-242.62"/>
<polygon fill="midnightblue" stroke="midnightblue" points="569.21,-307.69 579.44,-310.45 573.16,-301.91 569.21,-307.69"/>
</g>
<!-- Node33&#45;&gt;Node27 -->
<g id="edge55" class="edge">
<title>Node33&#45;&gt;Node27</title>
<path fill="none" stroke="midnightblue" d="M583.21,-301.98C561.71,-274.35 522.52,-228.94 479,-202.5 473.46,-199.14 467.41,-196.21 461.21,-193.66"/>
<polygon fill="midnightblue" stroke="midnightblue" points="580.69,-304.45 589.54,-310.28 586.26,-300.21 580.69,-304.45"/>
</g>
<!-- Node33&#45;&gt;Node28 -->
<g id="edge56" class="edge">
<title>Node33&#45;&gt;Node28</title>
<path fill="none" stroke="midnightblue" d="M593.64,-300.63C579.76,-254.95 544,-157.52 479,-104.5 474.63,-100.94 469.74,-97.9 464.59,-95.32"/>
<polygon fill="midnightblue" stroke="midnightblue" points="590.31,-301.71 596.49,-310.32 597.02,-299.74 590.31,-301.71"/>
</g>
<!-- Node33&#45;&gt;Node31 -->
<g id="edge57" class="edge">
<title>Node33&#45;&gt;Node31</title>
<path fill="none" stroke="midnightblue" d="M589.74,-301.19C572.02,-263.92 533.18,-192.84 479,-153.5 474.33,-150.11 469.16,-147.18 463.79,-144.67"/>
<polygon fill="midnightblue" stroke="midnightblue" points="586.6,-302.73 593.98,-310.33 592.95,-299.78 586.6,-302.73"/>
</g>
<!-- Node33&#45;&gt;Node32 -->
<g id="edge58" class="edge">
<title>Node33&#45;&gt;Node32</title>
<path fill="none" stroke="midnightblue" d="M517.42,-347.02C516.59,-347.82 515.78,-348.65 515,-349.5 455.05,-415.29 524.34,-469.91 479,-546.5 466.99,-566.79 445.87,-583.3 428.7,-594.33"/>
<polygon fill="midnightblue" stroke="midnightblue" points="519.87,-349.55 525.53,-340.59 515.52,-344.06 519.87,-349.55"/>
</g>
<!-- Node34&#45;&gt;Node8 -->
<g id="edge60" class="edge">
<title>Node34&#45;&gt;Node8</title>
<path fill="none" stroke="midnightblue" d="M173.67,-35.47C164.01,-41.18 154.17,-47.94 146,-55.5 107.94,-90.75 77.24,-144.88 63.62,-171.14"/>
<polygon fill="midnightblue" stroke="midnightblue" points="175.44,-38.48 182.43,-30.52 172.01,-32.39 175.44,-38.48"/>
</g>
</g>
</svg>
