<?xml version="1.0" encoding="UTF-8" standalone="no"?>
<!DOCTYPE svg PUBLIC "-//W3C//DTD SVG 1.1//EN"
 "http://www.w3.org/Graphics/SVG/1.1/DTD/svg11.dtd">
<!-- Generated by graphviz version 2.43.0 (0)
 -->
<!-- Title: leanux::tools::lmon::Footer Pages: 1 -->
<svg width="819pt" height="385pt"
 viewBox="0.00 0.00 819.00 384.61" xmlns="http://www.w3.org/2000/svg" xmlns:xlink="http://www.w3.org/1999/xlink">
<g id="graph0" class="graph" transform="scale(1 1) rotate(0) translate(4 380.61)">
<title>leanux::tools::lmon::Footer</title>
<!-- Node1 -->
<g id="node1" class="node">
<title>Node1</title>
<g id="a_node1"><a xlink:title="The lmon Footer is a View shown at the bottom.">
<polygon fill="#bfbfbf" stroke="black" points="701,-211.61 701,-241.61 811,-241.61 811,-211.61 701,-211.61"/>
<text text-anchor="start" x="709" y="-229.61" font-family="Helvetica,sans-Serif" font-size="10.00">leanux::tools::lmon</text>
<text text-anchor="middle" x="756" y="-218.61" font-family="Helvetica,sans-Serif" font-size="10.00">::Footer</text>
</a>
</g>
</g>
<!-- Node2 -->
<g id="node2" class="node">
<title>Node2</title>
<g id="a_node2"><a xlink:href="../../d1/de8/classleanux_1_1tools_1_1lmon_1_1View.html" target="_top" xlink:title="A reactangular area on the ncurses Screen as a window of information.">
<polygon fill="none" stroke="black" points="209,-126.61 209,-156.61 319,-156.61 319,-126.61 209,-126.61"/>
<text text-anchor="start" x="217" y="-144.61" font-family="Helvetica,sans-Serif" font-size="10.00">leanux::tools::lmon</text>
<text text-anchor="middle" x="264" y="-133.61" font-family="Helvetica,sans-Serif" font-size="10.00">::View</text>
</a>
</g>
</g>
<!-- Node2&#45;&gt;Node1 -->
<g id="edge1" class="edge">
<title>Node2&#45;&gt;Node1</title>
<path fill="none" stroke="midnightblue" d="M329.32,-152.77C426.7,-169.66 609.82,-201.42 700.82,-217.21"/>
<polygon fill="midnightblue" stroke="midnightblue" points="329.76,-149.29 319.31,-151.03 328.57,-156.19 329.76,-149.29"/>
</g>
<!-- Node4 -->
<g id="node4" class="node">
<title>Node4</title>
<g id="a_node4"><a xlink:href="../../d5/de6/classleanux_1_1tools_1_1lmon_1_1Screen.html" target="_top" xlink:title="The curses screen.">
<polygon fill="none" stroke="red" points="479.5,-112.61 479.5,-142.61 589.5,-142.61 589.5,-112.61 479.5,-112.61"/>
<text text-anchor="start" x="487.5" y="-130.61" font-family="Helvetica,sans-Serif" font-size="10.00">leanux::tools::lmon</text>
<text text-anchor="middle" x="534.5" y="-119.61" font-family="Helvetica,sans-Serif" font-size="10.00">::Screen</text>
</a>
</g>
</g>
<!-- Node2&#45;&gt;Node4 -->
<g id="edge4" class="edge">
<title>Node2&#45;&gt;Node4</title>
<path fill="none" stroke="#9a32cd" stroke-dasharray="5,2" d="M278.83,-117.8C291.32,-98.89 311.62,-73.82 337,-62.61 380.5,-43.4 404.07,-36.79 444,-62.61 460.37,-73.19 447.63,-89.43 462,-102.61 467.04,-107.23 472.98,-111.01 479.25,-114.09"/>
<polygon fill="#9a32cd" stroke="#9a32cd" points="275.72,-116.18 273.34,-126.5 281.64,-119.91 275.72,-116.18"/>
<text text-anchor="middle" x="390.5" y="-120.61" font-family="Helvetica,sans-Serif" font-size="10.00"> vfooter_</text>
<text text-anchor="middle" x="390.5" y="-109.61" font-family="Helvetica,sans-Serif" font-size="10.00">vsys_</text>
<text text-anchor="middle" x="390.5" y="-98.61" font-family="Helvetica,sans-Serif" font-size="10.00">vio_</text>
<text text-anchor="middle" x="390.5" y="-87.61" font-family="Helvetica,sans-Serif" font-size="10.00">vprocess_</text>
<text text-anchor="middle" x="390.5" y="-76.61" font-family="Helvetica,sans-Serif" font-size="10.00">vnetwork_</text>
<text text-anchor="middle" x="390.5" y="-65.61" font-family="Helvetica,sans-Serif" font-size="10.00">vheader_</text>
</g>
<!-- Node3 -->
<g id="node3" class="node">
<title>Node3</title>
<g id="a_node3"><a xlink:title=" ">
<polygon fill="none" stroke="#bfbfbf" points="0,-128.11 0,-147.11 85,-147.11 85,-128.11 0,-128.11"/>
<text text-anchor="middle" x="42.5" y="-135.11" font-family="Helvetica,sans-Serif" font-size="10.00">unsigned long</text>
</a>
</g>
</g>
<!-- Node3&#45;&gt;Node2 -->
<g id="edge2" class="edge">
<title>Node3&#45;&gt;Node2</title>
<path fill="none" stroke="#9a32cd" stroke-dasharray="5,2" d="M95.22,-137.52C123.52,-137.58 159.19,-137.84 191,-138.61 196.75,-138.75 202.76,-138.93 208.75,-139.15"/>
<polygon fill="#9a32cd" stroke="#9a32cd" points="95.15,-134.02 85.15,-137.5 95.14,-141.02 95.15,-134.02"/>
<text text-anchor="middle" x="147" y="-141.61" font-family="Helvetica,sans-Serif" font-size="10.00"> sample_count_</text>
</g>
<!-- Node4&#45;&gt;Node2 -->
<g id="edge3" class="edge">
<title>Node4&#45;&gt;Node2</title>
<path fill="none" stroke="#9a32cd" stroke-dasharray="5,2" d="M468.99,-130.97C423.15,-133.36 362.29,-136.54 319.01,-138.79"/>
<polygon fill="#9a32cd" stroke="#9a32cd" points="469.31,-134.46 479.11,-130.45 468.95,-127.47 469.31,-134.46"/>
<text text-anchor="middle" x="390.5" y="-141.61" font-family="Helvetica,sans-Serif" font-size="10.00"> screen_</text>
</g>
<!-- Node9 -->
<g id="node5" class="node">
<title>Node9</title>
<g id="a_node5"><a xlink:title=" ">
<polygon fill="none" stroke="#bfbfbf" points="225.5,-226.11 225.5,-245.11 302.5,-245.11 302.5,-226.11 225.5,-226.11"/>
<text text-anchor="middle" x="264" y="-233.11" font-family="Helvetica,sans-Serif" font-size="10.00">unsigned int</text>
</a>
</g>
</g>
<!-- Node9&#45;&gt;Node4 -->
<g id="edge5" class="edge">
<title>Node9&#45;&gt;Node4</title>
<path fill="none" stroke="#9a32cd" stroke-dasharray="5,2" d="M293.12,-221.68C306.33,-215.31 322.35,-207.81 337,-201.61 389.2,-179.5 450.48,-156.95 490.56,-142.65"/>
<polygon fill="#9a32cd" stroke="#9a32cd" points="291.52,-218.57 284.06,-226.09 294.58,-224.86 291.52,-218.57"/>
<text text-anchor="start" x="337" y="-248.61" font-family="Helvetica,sans-Serif" font-size="10.00"> footer_scroll_interval</text>
<text text-anchor="middle" x="390.5" y="-237.61" font-family="Helvetica,sans-Serif" font-size="10.00">_s_</text>
<text text-anchor="start" x="337" y="-226.61" font-family="Helvetica,sans-Serif" font-size="10.00">sample_interval_s</text>
<text text-anchor="middle" x="390.5" y="-215.61" font-family="Helvetica,sans-Serif" font-size="10.00">_</text>
<text text-anchor="middle" x="390.5" y="-204.61" font-family="Helvetica,sans-Serif" font-size="10.00">sleep_duration_ms_</text>
</g>
<!-- Node11 -->
<g id="node8" class="node">
<title>Node11</title>
<g id="a_node8"><a xlink:title=" ">
<polygon fill="none" stroke="#bfbfbf" points="462,-262.11 462,-303.11 607,-303.11 607,-262.11 462,-262.11"/>
<text text-anchor="start" x="470" y="-291.11" font-family="Helvetica,sans-Serif" font-size="10.00">std::map&lt; unsigned</text>
<text text-anchor="start" x="470" y="-280.11" font-family="Helvetica,sans-Serif" font-size="10.00"> int, leanux::tools</text>
<text text-anchor="middle" x="534.5" y="-269.11" font-family="Helvetica,sans-Serif" font-size="10.00">::lmon::Footer::Message &gt;</text>
</a>
</g>
</g>
<!-- Node9&#45;&gt;Node11 -->
<g id="edge12" class="edge">
<title>Node9&#45;&gt;Node11</title>
<path fill="none" stroke="#9a32cd" stroke-dasharray="5,2" d="M297.97,-248.79C310.07,-253.16 323.99,-257.66 337,-260.61 377.84,-269.87 424.39,-275.3 461.92,-278.44"/>
<polygon fill="#9a32cd" stroke="#9a32cd" points="298.88,-245.39 288.29,-245.18 296.43,-251.95 298.88,-245.39"/>
<text text-anchor="middle" x="390.5" y="-279.61" font-family="Helvetica,sans-Serif" font-size="10.00"> keys</text>
</g>
<!-- Node10 -->
<g id="node6" class="node">
<title>Node10</title>
<g id="a_node6"><a xlink:title=" ">
<polygon fill="none" stroke="#bfbfbf" points="7.5,-53.11 7.5,-72.11 77.5,-72.11 77.5,-53.11 7.5,-53.11"/>
<text text-anchor="middle" x="42.5" y="-60.11" font-family="Helvetica,sans-Serif" font-size="10.00">WINDOW *</text>
</a>
</g>
</g>
<!-- Node10&#45;&gt;Node2 -->
<g id="edge8" class="edge">
<title>Node10&#45;&gt;Node2</title>
<path fill="none" stroke="#9a32cd" stroke-dasharray="5,2" d="M79.81,-75.68C118.65,-89.66 180.15,-111.79 221.03,-126.5"/>
<polygon fill="#9a32cd" stroke="#9a32cd" points="80.57,-72.23 69.98,-72.14 78.2,-78.82 80.57,-72.23"/>
<text text-anchor="middle" x="147" y="-117.61" font-family="Helvetica,sans-Serif" font-size="10.00"> window_</text>
</g>
<!-- Node10&#45;&gt;Node4 -->
<g id="edge6" class="edge">
<title>Node10&#45;&gt;Node4</title>
<path fill="none" stroke="#9a32cd" stroke-dasharray="5,2" d="M74.38,-49.11C147.04,-19.65 331.18,41.34 444,-42.61 466.34,-59.23 442.76,-82.49 462,-102.61 466.91,-107.74 472.93,-111.82 479.37,-115.06"/>
<polygon fill="#9a32cd" stroke="#9a32cd" points="72.79,-45.98 64.89,-53.04 75.47,-52.45 72.79,-45.98"/>
<text text-anchor="middle" x="264" y="-11.61" font-family="Helvetica,sans-Serif" font-size="10.00"> wmain_</text>
</g>
<!-- Node7 -->
<g id="node7" class="node">
<title>Node7</title>
<g id="a_node7"><a xlink:title=" ">
<polygon fill="none" stroke="#bfbfbf" points="28,-306.11 28,-325.11 57,-325.11 57,-306.11 28,-306.11"/>
<text text-anchor="middle" x="42.5" y="-313.11" font-family="Helvetica,sans-Serif" font-size="10.00">int</text>
</a>
</g>
</g>
<!-- Node7&#45;&gt;Node1 -->
<g id="edge14" class="edge">
<title>Node7&#45;&gt;Node1</title>
<path fill="none" stroke="#9a32cd" stroke-dasharray="5,2" d="M66.37,-327.23C77.18,-332.09 90.44,-337.17 103,-339.61 141.39,-347.06 151.89,-340.07 191,-339.61 376.27,-337.44 428.6,-362.63 607,-312.61 657.93,-298.33 709.59,-262.33 736.34,-241.72"/>
<polygon fill="#9a32cd" stroke="#9a32cd" points="67.76,-324.02 57.22,-322.91 64.77,-330.34 67.76,-324.02"/>
<text text-anchor="middle" x="390.5" y="-368.61" font-family="Helvetica,sans-Serif" font-size="10.00"> attr_prio_0_</text>
<text text-anchor="middle" x="390.5" y="-357.61" font-family="Helvetica,sans-Serif" font-size="10.00">attr_prio_2_</text>
<text text-anchor="middle" x="390.5" y="-346.61" font-family="Helvetica,sans-Serif" font-size="10.00">attr_prio_1_</text>
</g>
<!-- Node7&#45;&gt;Node2 -->
<g id="edge7" class="edge">
<title>Node7&#45;&gt;Node2</title>
<path fill="none" stroke="#9a32cd" stroke-dasharray="5,2" d="M47.25,-296.09C53.67,-267.97 69.47,-216.3 103,-187.61 119.03,-173.89 168.82,-160.86 208.64,-152.19"/>
<polygon fill="#9a32cd" stroke="#9a32cd" points="43.81,-295.43 45.17,-305.93 50.66,-296.87 43.81,-295.43"/>
<text text-anchor="middle" x="147" y="-300.61" font-family="Helvetica,sans-Serif" font-size="10.00"> attr_bold_text_</text>
<text text-anchor="middle" x="147" y="-289.61" font-family="Helvetica,sans-Serif" font-size="10.00">absy_</text>
<text text-anchor="middle" x="147" y="-278.61" font-family="Helvetica,sans-Serif" font-size="10.00">height_</text>
<text text-anchor="middle" x="147" y="-267.61" font-family="Helvetica,sans-Serif" font-size="10.00">absx_</text>
<text text-anchor="start" x="103" y="-256.61" font-family="Helvetica,sans-Serif" font-size="10.00">attr_plot_element</text>
<text text-anchor="middle" x="147" y="-245.61" font-family="Helvetica,sans-Serif" font-size="10.00">_</text>
<text text-anchor="middle" x="147" y="-234.61" font-family="Helvetica,sans-Serif" font-size="10.00">attr_line_</text>
<text text-anchor="middle" x="147" y="-223.61" font-family="Helvetica,sans-Serif" font-size="10.00">width_</text>
<text text-anchor="start" x="103" y="-212.61" font-family="Helvetica,sans-Serif" font-size="10.00">attr_normal</text>
<text text-anchor="middle" x="147" y="-201.61" font-family="Helvetica,sans-Serif" font-size="10.00">_text_</text>
<text text-anchor="middle" x="147" y="-190.61" font-family="Helvetica,sans-Serif" font-size="10.00">attr_alert_text_</text>
</g>
<!-- Node12 -->
<g id="node9" class="node">
<title>Node12</title>
<g id="a_node9"><a xlink:href="../../dc/d04/classleanux_1_1tools_1_1lmon_1_1Footer_1_1Message.html" target="_top" xlink:title="The Footer can rotate&#45;display messages, if they exist.">
<polygon fill="none" stroke="red" points="209,-296.61 209,-326.61 319,-326.61 319,-296.61 209,-296.61"/>
<text text-anchor="start" x="217" y="-314.61" font-family="Helvetica,sans-Serif" font-size="10.00">leanux::tools::lmon</text>
<text text-anchor="middle" x="264" y="-303.61" font-family="Helvetica,sans-Serif" font-size="10.00">::Footer::Message</text>
</a>
</g>
</g>
<!-- Node7&#45;&gt;Node12 -->
<g id="edge11" class="edge">
<title>Node7&#45;&gt;Node12</title>
<path fill="none" stroke="#9a32cd" stroke-dasharray="5,2" d="M67.49,-315.17C101.18,-314.56 163.43,-313.42 208.66,-312.6"/>
<polygon fill="#9a32cd" stroke="#9a32cd" points="67.17,-311.68 57.23,-315.36 67.29,-318.68 67.17,-311.68"/>
<text text-anchor="middle" x="147" y="-327.61" font-family="Helvetica,sans-Serif" font-size="10.00"> prio_</text>
<text text-anchor="middle" x="147" y="-316.61" font-family="Helvetica,sans-Serif" font-size="10.00">key_</text>
</g>
<!-- Node11&#45;&gt;Node1 -->
<g id="edge9" class="edge">
<title>Node11&#45;&gt;Node1</title>
<path fill="none" stroke="#9a32cd" stroke-dasharray="5,2" d="M616.86,-261.85C644.91,-254.7 675.61,-246.86 700.93,-240.4"/>
<polygon fill="#9a32cd" stroke="#9a32cd" points="615.89,-258.49 607.07,-264.35 617.62,-265.27 615.89,-258.49"/>
<text text-anchor="middle" x="654" y="-262.61" font-family="Helvetica,sans-Serif" font-size="10.00"> messages_</text>
</g>
<!-- Node12&#45;&gt;Node11 -->
<g id="edge10" class="edge">
<title>Node12&#45;&gt;Node11</title>
<path fill="none" stroke="#9a32cd" stroke-dasharray="5,2" d="M329.4,-306.1C363.5,-303.03 406.06,-298.95 444,-294.61 449.76,-293.95 455.73,-293.23 461.72,-292.48"/>
<polygon fill="#9a32cd" stroke="#9a32cd" points="328.75,-302.64 319.1,-307.02 329.38,-309.61 328.75,-302.64"/>
<text text-anchor="middle" x="390.5" y="-307.61" font-family="Helvetica,sans-Serif" font-size="10.00"> elements</text>
</g>
<!-- Node17 -->
<g id="node10" class="node">
<title>Node17</title>
<g id="a_node10"><a xlink:title=" ">
<polygon fill="none" stroke="#bfbfbf" points="512,-74.11 512,-93.11 557,-93.11 557,-74.11 512,-74.11"/>
<text text-anchor="middle" x="534.5" y="-81.11" font-family="Helvetica,sans-Serif" font-size="10.00">size_t</text>
</a>
</g>
</g>
<!-- Node17&#45;&gt;Node1 -->
<g id="edge13" class="edge">
<title>Node17&#45;&gt;Node1</title>
<path fill="none" stroke="#9a32cd" stroke-dasharray="5,2" d="M567.33,-90.15C579.93,-93.23 594.39,-97.39 607,-102.61 643.07,-117.53 652.69,-122.03 683,-146.61 707.24,-166.26 730.49,-194.32 743.73,-211.45"/>
<polygon fill="#9a32cd" stroke="#9a32cd" points="567.8,-86.67 557.26,-87.82 566.21,-93.49 567.8,-86.67"/>
<text text-anchor="middle" x="654" y="-149.61" font-family="Helvetica,sans-Serif" font-size="10.00"> msgidx_</text>
</g>
</g>
</svg>
