<?xml version="1.0" encoding="UTF-8" standalone="no"?>
<!DOCTYPE svg PUBLIC "-//W3C//DTD SVG 1.1//EN"
 "http://www.w3.org/Graphics/SVG/1.1/DTD/svg11.dtd">
<!-- Generated by graphviz version 2.43.0 (0)
 -->
<!-- Title: lib/persist.cpp Pages: 1 -->
<svg width="823pt" height="196pt"
 viewBox="0.00 0.00 823.00 196.00" xmlns="http://www.w3.org/2000/svg" xmlns:xlink="http://www.w3.org/1999/xlink">
<g id="graph0" class="graph" transform="scale(1 1) rotate(0) translate(4 192)">
<title>lib/persist.cpp</title>
<!-- Node1 -->
<g id="node1" class="node">
<title>Node1</title>
<g id="a_node1"><a xlink:title=" ">
<polygon fill="#bfbfbf" stroke="black" points="433,-168.5 433,-187.5 518,-187.5 518,-168.5 433,-168.5"/>
<text text-anchor="middle" x="475.5" y="-175.5" font-family="Helvetica,sans-Serif" font-size="10.00">lib/persist.cpp</text>
</a>
</g>
</g>
<!-- Node2 -->
<g id="node2" class="node">
<title>Node2</title>
<g id="a_node2"><a xlink:href="../../d3/d27/persist_8hpp.html" target="_top" xlink:title=" ">
<polygon fill="none" stroke="black" points="99,-112.5 99,-131.5 170,-131.5 170,-112.5 99,-112.5"/>
<text text-anchor="middle" x="134.5" y="-119.5" font-family="Helvetica,sans-Serif" font-size="10.00">persist.hpp</text>
</a>
</g>
</g>
<!-- Node1&#45;&gt;Node2 -->
<g id="edge1" class="edge">
<title>Node1&#45;&gt;Node2</title>
<path fill="none" stroke="midnightblue" d="M432.66,-170.22C368.14,-160 246.54,-140.74 180.32,-130.26"/>
<polygon fill="midnightblue" stroke="midnightblue" points="180.6,-126.76 170.18,-128.65 179.51,-133.67 180.6,-126.76"/>
</g>
<!-- Node3 -->
<g id="node3" class="node">
<title>Node3</title>
<g id="a_node3"><a xlink:href="../../d3/d44/oops_8hpp.html" target="_top" xlink:title=" ">
<polygon fill="none" stroke="black" points="0,-56.5 0,-75.5 61,-75.5 61,-56.5 0,-56.5"/>
<text text-anchor="middle" x="30.5" y="-63.5" font-family="Helvetica,sans-Serif" font-size="10.00">oops.hpp</text>
</a>
</g>
</g>
<!-- Node1&#45;&gt;Node3 -->
<g id="edge6" class="edge">
<title>Node1&#45;&gt;Node3</title>
<path fill="none" stroke="midnightblue" d="M432.86,-175.77C345.32,-172.65 148.6,-162.39 89.5,-132 68.4,-121.15 51.14,-99.46 40.86,-84.12"/>
<polygon fill="midnightblue" stroke="midnightblue" points="43.72,-82.09 35.38,-75.55 37.82,-85.86 43.72,-82.09"/>
</g>
<!-- Node6 -->
<g id="node6" class="node">
<title>Node6</title>
<g id="a_node6"><a xlink:href="../../d0/d3f/util_8hpp.html" target="_top" xlink:title=" ">
<polygon fill="none" stroke="black" points="371,-112.5 371,-131.5 424,-131.5 424,-112.5 371,-112.5"/>
<text text-anchor="middle" x="397.5" y="-119.5" font-family="Helvetica,sans-Serif" font-size="10.00">util.hpp</text>
</a>
</g>
</g>
<!-- Node1&#45;&gt;Node6 -->
<g id="edge7" class="edge">
<title>Node1&#45;&gt;Node6</title>
<path fill="none" stroke="midnightblue" d="M462.97,-168.32C450.91,-159.98 432.47,-147.21 418.23,-137.35"/>
<polygon fill="midnightblue" stroke="midnightblue" points="420.22,-134.47 410,-131.65 416.23,-140.22 420.22,-134.47"/>
</g>
<!-- Node7 -->
<g id="node7" class="node">
<title>Node7</title>
<g id="a_node7"><a xlink:title=" ">
<polygon fill="none" stroke="#bfbfbf" points="195.5,-56.5 195.5,-75.5 251.5,-75.5 251.5,-56.5 195.5,-56.5"/>
<text text-anchor="middle" x="223.5" y="-63.5" font-family="Helvetica,sans-Serif" font-size="10.00">sstream</text>
</a>
</g>
</g>
<!-- Node1&#45;&gt;Node7 -->
<g id="edge18" class="edge">
<title>Node1&#45;&gt;Node7</title>
<path fill="none" stroke="midnightblue" d="M452.83,-168.42C429.9,-159.64 393.51,-145.41 362.5,-132 322.91,-114.88 277.8,-93.41 249.98,-79.95"/>
<polygon fill="midnightblue" stroke="midnightblue" points="251.43,-76.76 240.91,-75.54 248.37,-83.06 251.43,-76.76"/>
</g>
<!-- Node13 -->
<g id="node13" class="node">
<title>Node13</title>
<g id="a_node13"><a xlink:title=" ">
<polygon fill="none" stroke="#bfbfbf" points="762,-56.5 762,-75.5 815,-75.5 815,-56.5 762,-56.5"/>
<text text-anchor="middle" x="788.5" y="-63.5" font-family="Helvetica,sans-Serif" font-size="10.00">string.h</text>
</a>
</g>
</g>
<!-- Node1&#45;&gt;Node13 -->
<g id="edge23" class="edge">
<title>Node1&#45;&gt;Node13</title>
<path fill="none" stroke="midnightblue" d="M471.47,-168.17C465.84,-154.36 457.76,-127.62 471.5,-112 511.22,-66.86 674.96,-85.74 751.62,-75.66"/>
<polygon fill="midnightblue" stroke="midnightblue" points="752.51,-79.06 761.84,-74.04 751.42,-72.15 752.51,-79.06"/>
</g>
<!-- Node15 -->
<g id="node15" class="node">
<title>Node15</title>
<g id="a_node15"><a xlink:title=" ">
<polygon fill="none" stroke="#bfbfbf" points="480.5,-112.5 480.5,-131.5 518.5,-131.5 518.5,-112.5 480.5,-112.5"/>
<text text-anchor="middle" x="499.5" y="-119.5" font-family="Helvetica,sans-Serif" font-size="10.00">map</text>
</a>
</g>
</g>
<!-- Node1&#45;&gt;Node15 -->
<g id="edge17" class="edge">
<title>Node1&#45;&gt;Node15</title>
<path fill="none" stroke="midnightblue" d="M479.46,-168.08C482.71,-160.77 487.42,-150.18 491.45,-141.1"/>
<polygon fill="midnightblue" stroke="midnightblue" points="494.75,-142.31 495.61,-131.75 488.35,-139.47 494.75,-142.31"/>
</g>
<!-- Node16 -->
<g id="node16" class="node">
<title>Node16</title>
<g id="a_node16"><a xlink:title=" ">
<polygon fill="none" stroke="#bfbfbf" points="536.5,-112.5 536.5,-131.5 596.5,-131.5 596.5,-112.5 536.5,-112.5"/>
<text text-anchor="middle" x="566.5" y="-119.5" font-family="Helvetica,sans-Serif" font-size="10.00">iostream</text>
</a>
</g>
</g>
<!-- Node1&#45;&gt;Node16 -->
<g id="edge19" class="edge">
<title>Node1&#45;&gt;Node16</title>
<path fill="none" stroke="midnightblue" d="M490.12,-168.32C504.45,-159.82 526.51,-146.73 543.25,-136.8"/>
<polygon fill="midnightblue" stroke="midnightblue" points="545.1,-139.77 551.92,-131.65 541.53,-133.75 545.1,-139.77"/>
</g>
<!-- Node17 -->
<g id="node17" class="node">
<title>Node17</title>
<g id="a_node17"><a xlink:title=" ">
<polygon fill="none" stroke="#bfbfbf" points="614.5,-112.5 614.5,-131.5 670.5,-131.5 670.5,-112.5 614.5,-112.5"/>
<text text-anchor="middle" x="642.5" y="-119.5" font-family="Helvetica,sans-Serif" font-size="10.00">assert.h</text>
</a>
</g>
</g>
<!-- Node1&#45;&gt;Node17 -->
<g id="edge20" class="edge">
<title>Node1&#45;&gt;Node17</title>
<path fill="none" stroke="midnightblue" d="M501.96,-168.44C530.18,-159.32 575.04,-144.81 606.47,-134.65"/>
<polygon fill="midnightblue" stroke="midnightblue" points="607.72,-137.92 616.16,-131.52 605.57,-131.26 607.72,-137.92"/>
</g>
<!-- Node18 -->
<g id="node18" class="node">
<title>Node18</title>
<g id="a_node18"><a xlink:title=" ">
<polygon fill="none" stroke="#bfbfbf" points="689,-112.5 689,-131.5 740,-131.5 740,-112.5 689,-112.5"/>
<text text-anchor="middle" x="714.5" y="-119.5" font-family="Helvetica,sans-Serif" font-size="10.00">errno.h</text>
</a>
</g>
</g>
<!-- Node1&#45;&gt;Node18 -->
<g id="edge21" class="edge">
<title>Node1&#45;&gt;Node18</title>
<path fill="none" stroke="midnightblue" d="M516.24,-168.45C555.39,-160.13 616.46,-146.91 678.88,-132.08"/>
<polygon fill="midnightblue" stroke="midnightblue" points="680,-135.41 688.91,-129.69 678.37,-128.61 680,-135.41"/>
</g>
<!-- Node19 -->
<g id="node19" class="node">
<title>Node19</title>
<g id="a_node19"><a xlink:title=" ">
<polygon fill="none" stroke="#bfbfbf" points="758,-112.5 758,-131.5 809,-131.5 809,-112.5 758,-112.5"/>
<text text-anchor="middle" x="783.5" y="-119.5" font-family="Helvetica,sans-Serif" font-size="10.00">math.h</text>
</a>
</g>
</g>
<!-- Node1&#45;&gt;Node19 -->
<g id="edge22" class="edge">
<title>Node1&#45;&gt;Node19</title>
<path fill="none" stroke="midnightblue" d="M518.45,-171.25C570.59,-163.98 661.37,-150.4 747.95,-132.17"/>
<polygon fill="midnightblue" stroke="midnightblue" points="748.89,-135.55 757.94,-130.05 747.43,-128.71 748.89,-135.55"/>
</g>
<!-- Node2&#45;&gt;Node3 -->
<g id="edge2" class="edge">
<title>Node2&#45;&gt;Node3</title>
<path fill="none" stroke="midnightblue" d="M117.79,-112.32C101.19,-103.7 75.5,-90.36 56.28,-80.39"/>
<polygon fill="midnightblue" stroke="midnightblue" points="57.66,-77.16 47.17,-75.65 54.43,-83.37 57.66,-77.16"/>
</g>
<!-- Node4 -->
<g id="node4" class="node">
<title>Node4</title>
<g id="a_node4"><a xlink:title=" ">
<polygon fill="none" stroke="#bfbfbf" points="67.5,-0.5 67.5,-19.5 111.5,-19.5 111.5,-0.5 67.5,-0.5"/>
<text text-anchor="middle" x="89.5" y="-7.5" font-family="Helvetica,sans-Serif" font-size="10.00">string</text>
</a>
</g>
</g>
<!-- Node2&#45;&gt;Node4 -->
<g id="edge4" class="edge">
<title>Node2&#45;&gt;Node4</title>
<path fill="none" stroke="midnightblue" d="M128.67,-112.36C122.91,-103.53 114.18,-89.27 108.5,-76 102,-60.8 96.91,-42.68 93.64,-29.44"/>
<polygon fill="midnightblue" stroke="midnightblue" points="97.03,-28.57 91.33,-19.64 90.21,-30.18 97.03,-28.57"/>
</g>
<!-- Node5 -->
<g id="node5" class="node">
<title>Node5</title>
<g id="a_node5"><a xlink:title=" ">
<polygon fill="none" stroke="#bfbfbf" points="118,-56.5 118,-75.5 177,-75.5 177,-56.5 118,-56.5"/>
<text text-anchor="middle" x="147.5" y="-63.5" font-family="Helvetica,sans-Serif" font-size="10.00">sqlite3.h</text>
</a>
</g>
</g>
<!-- Node2&#45;&gt;Node5 -->
<g id="edge5" class="edge">
<title>Node2&#45;&gt;Node5</title>
<path fill="none" stroke="midnightblue" d="M136.65,-112.08C138.37,-104.93 140.85,-94.64 143,-85.69"/>
<polygon fill="midnightblue" stroke="midnightblue" points="146.46,-86.29 145.39,-75.75 139.65,-84.65 146.46,-86.29"/>
</g>
<!-- Node3&#45;&gt;Node4 -->
<g id="edge3" class="edge">
<title>Node3&#45;&gt;Node4</title>
<path fill="none" stroke="midnightblue" d="M39.98,-56.32C48.7,-48.34 61.84,-36.31 72.4,-26.65"/>
<polygon fill="midnightblue" stroke="midnightblue" points="74.83,-29.17 79.85,-19.83 70.11,-24 74.83,-29.17"/>
</g>
<!-- Node6&#45;&gt;Node4 -->
<g id="edge8" class="edge">
<title>Node6&#45;&gt;Node4</title>
<path fill="none" stroke="midnightblue" d="M378.23,-112.45C358.38,-103.57 326.61,-89.17 299.5,-76 281.98,-67.49 278.69,-62.96 260.5,-56 213.47,-38 156.51,-24.59 121.64,-17.28"/>
<polygon fill="midnightblue" stroke="midnightblue" points="122.07,-13.79 111.57,-15.21 120.66,-20.65 122.07,-13.79"/>
</g>
<!-- Node6&#45;&gt;Node7 -->
<g id="edge9" class="edge">
<title>Node6&#45;&gt;Node7</title>
<path fill="none" stroke="midnightblue" d="M370.69,-112.68C341.23,-103.54 293.71,-88.79 260.67,-78.53"/>
<polygon fill="midnightblue" stroke="midnightblue" points="261.5,-75.13 250.91,-75.51 259.42,-81.81 261.5,-75.13"/>
</g>
<!-- Node8 -->
<g id="node8" class="node">
<title>Node8</title>
<g id="a_node8"><a xlink:title=" ">
<polygon fill="none" stroke="#bfbfbf" points="308,-56.5 308,-75.5 363,-75.5 363,-56.5 308,-56.5"/>
<text text-anchor="middle" x="335.5" y="-63.5" font-family="Helvetica,sans-Serif" font-size="10.00">fstream</text>
</a>
</g>
</g>
<!-- Node6&#45;&gt;Node8 -->
<g id="edge10" class="edge">
<title>Node6&#45;&gt;Node8</title>
<path fill="none" stroke="midnightblue" d="M387.54,-112.32C378.37,-104.34 364.56,-92.31 353.47,-82.65"/>
<polygon fill="midnightblue" stroke="midnightblue" points="355.48,-79.76 345.64,-75.83 350.88,-85.04 355.48,-79.76"/>
</g>
<!-- Node9 -->
<g id="node9" class="node">
<title>Node9</title>
<g id="a_node9"><a xlink:title=" ">
<polygon fill="none" stroke="#bfbfbf" points="381.5,-56.5 381.5,-75.5 413.5,-75.5 413.5,-56.5 381.5,-56.5"/>
<text text-anchor="middle" x="397.5" y="-63.5" font-family="Helvetica,sans-Serif" font-size="10.00">set</text>
</a>
</g>
</g>
<!-- Node6&#45;&gt;Node9 -->
<g id="edge11" class="edge">
<title>Node6&#45;&gt;Node9</title>
<path fill="none" stroke="midnightblue" d="M397.5,-112.08C397.5,-105.01 397.5,-94.86 397.5,-85.99"/>
<polygon fill="midnightblue" stroke="midnightblue" points="401,-85.75 397.5,-75.75 394,-85.75 401,-85.75"/>
</g>
<!-- Node10 -->
<g id="node10" class="node">
<title>Node10</title>
<g id="a_node10"><a xlink:title=" ">
<polygon fill="none" stroke="#bfbfbf" points="431.5,-56.5 431.5,-75.5 463.5,-75.5 463.5,-56.5 431.5,-56.5"/>
<text text-anchor="middle" x="447.5" y="-63.5" font-family="Helvetica,sans-Serif" font-size="10.00">list</text>
</a>
</g>
</g>
<!-- Node6&#45;&gt;Node10 -->
<g id="edge12" class="edge">
<title>Node6&#45;&gt;Node10</title>
<path fill="none" stroke="midnightblue" d="M405.76,-112.08C412.96,-104.3 423.61,-92.8 432.35,-83.37"/>
<polygon fill="midnightblue" stroke="midnightblue" points="435.17,-85.47 439.4,-75.75 430.03,-80.71 435.17,-85.47"/>
</g>
<!-- Node11 -->
<g id="node11" class="node">
<title>Node11</title>
<g id="a_node11"><a xlink:title=" ">
<polygon fill="none" stroke="#bfbfbf" points="481.5,-56.5 481.5,-75.5 549.5,-75.5 549.5,-56.5 481.5,-56.5"/>
<text text-anchor="middle" x="515.5" y="-63.5" font-family="Helvetica,sans-Serif" font-size="10.00">sys/time.h</text>
</a>
</g>
</g>
<!-- Node6&#45;&gt;Node11 -->
<g id="edge13" class="edge">
<title>Node6&#45;&gt;Node11</title>
<path fill="none" stroke="midnightblue" d="M416.2,-112.44C435.44,-103.64 465.65,-89.81 487.7,-79.72"/>
<polygon fill="midnightblue" stroke="midnightblue" points="489.25,-82.86 496.89,-75.52 486.34,-76.5 489.25,-82.86"/>
</g>
<!-- Node12 -->
<g id="node12" class="node">
<title>Node12</title>
<g id="a_node12"><a xlink:title=" ">
<polygon fill="none" stroke="#bfbfbf" points="568,-56.5 568,-75.5 621,-75.5 621,-56.5 568,-56.5"/>
<text text-anchor="middle" x="594.5" y="-63.5" font-family="Helvetica,sans-Serif" font-size="10.00">regex.h</text>
</a>
</g>
</g>
<!-- Node6&#45;&gt;Node12 -->
<g id="edge14" class="edge">
<title>Node6&#45;&gt;Node12</title>
<path fill="none" stroke="midnightblue" d="M424.07,-113.72C458.58,-104.26 519.01,-87.69 557.86,-77.04"/>
<polygon fill="midnightblue" stroke="midnightblue" points="559,-80.36 567.72,-74.34 557.15,-73.61 559,-80.36"/>
</g>
<!-- Node6&#45;&gt;Node13 -->
<g id="edge15" class="edge">
<title>Node6&#45;&gt;Node13</title>
<path fill="none" stroke="midnightblue" d="M424.33,-114.7C429.04,-113.71 433.9,-112.77 438.5,-112 573.81,-89.45 612.49,-100.54 751.65,-75.91"/>
<polygon fill="midnightblue" stroke="midnightblue" points="752.63,-79.29 761.85,-74.08 751.39,-72.4 752.63,-79.29"/>
</g>
<!-- Node14 -->
<g id="node14" class="node">
<title>Node14</title>
<g id="a_node14"><a xlink:title=" ">
<polygon fill="none" stroke="#bfbfbf" points="639.5,-56.5 639.5,-75.5 743.5,-75.5 743.5,-56.5 639.5,-56.5"/>
<text text-anchor="middle" x="691.5" y="-63.5" font-family="Helvetica,sans-Serif" font-size="10.00">leanux&#45;config.hpp</text>
</a>
</g>
</g>
<!-- Node6&#45;&gt;Node14 -->
<g id="edge16" class="edge">
<title>Node6&#45;&gt;Node14</title>
<path fill="none" stroke="midnightblue" d="M424.37,-114.94C429.08,-113.93 433.93,-112.91 438.5,-112 503.73,-99.05 578.77,-85.92 630.09,-77.22"/>
<polygon fill="midnightblue" stroke="midnightblue" points="630.75,-80.65 640.02,-75.53 629.58,-73.75 630.75,-80.65"/>
</g>
</g>
</svg>
