<?xml version="1.0" encoding="UTF-8" standalone="no"?>
<!DOCTYPE svg PUBLIC "-//W3C//DTD SVG 1.1//EN"
 "http://www.w3.org/Graphics/SVG/1.1/DTD/svg11.dtd">
<!-- Generated by graphviz version 2.43.0 (0)
 -->
<!-- Title: leanux::persist::Statement::reset Pages: 1 -->
<svg width="667pt" height="841pt"
 viewBox="0.00 0.00 667.00 841.00" xmlns="http://www.w3.org/2000/svg" xmlns:xlink="http://www.w3.org/1999/xlink">
<g id="graph0" class="graph" transform="scale(1 1) rotate(0) translate(4 837)">
<title>leanux::persist::Statement::reset</title>
<!-- Node1 -->
<g id="node1" class="node">
<title>Node1</title>
<g id="a_node1"><a xlink:title="Reset a SQL statement for rexecute or even re&#45;prepare.">
<polygon fill="#bfbfbf" stroke="black" points="513,-406.5 513,-436.5 659,-436.5 659,-406.5 513,-406.5"/>
<text text-anchor="start" x="521" y="-424.5" font-family="Helvetica,sans-Serif" font-size="10.00">leanux::persist::Statement</text>
<text text-anchor="middle" x="586" y="-413.5" font-family="Helvetica,sans-Serif" font-size="10.00">::reset</text>
</a>
</g>
</g>
<!-- Node2 -->
<g id="node2" class="node">
<title>Node2</title>
<g id="a_node2"><a xlink:href="../../d6/dd3/namespaceleanux_1_1tools_1_1lrep.html#a6656a495a4ca4ba5314a1247dc47615e" target="_top" xlink:title="compute totals into snaptotals.">
<polygon fill="none" stroke="black" points="344.5,-802.5 344.5,-832.5 448.5,-832.5 448.5,-802.5 344.5,-802.5"/>
<text text-anchor="start" x="352.5" y="-820.5" font-family="Helvetica,sans-Serif" font-size="10.00">leanux::tools::lrep</text>
<text text-anchor="middle" x="396.5" y="-809.5" font-family="Helvetica,sans-Serif" font-size="10.00">::computeTotals</text>
</a>
</g>
</g>
<!-- Node1&#45;&gt;Node2 -->
<g id="edge1" class="edge">
<title>Node1&#45;&gt;Node2</title>
<path fill="none" stroke="midnightblue" d="M584.87,-446.86C583.16,-512.12 569.69,-687.69 477,-787.5 469.37,-795.72 459.26,-801.7 448.82,-806.05"/>
<polygon fill="midnightblue" stroke="midnightblue" points="588.37,-446.74 585.06,-436.68 581.37,-446.61 588.37,-446.74"/>
</g>
<!-- Node3 -->
<g id="node3" class="node">
<title>Node3</title>
<g id="a_node3"><a xlink:href="../../d6/dd3/namespaceleanux_1_1tools_1_1lrep.html#aa0e1422d8d75831ea3801ffa728bf436" target="_top" xlink:title=" ">
<polygon fill="none" stroke="red" points="158,-780.5 158,-810.5 262,-810.5 262,-780.5 158,-780.5"/>
<text text-anchor="start" x="166" y="-798.5" font-family="Helvetica,sans-Serif" font-size="10.00">leanux::tools::lrep</text>
<text text-anchor="middle" x="210" y="-787.5" font-family="Helvetica,sans-Serif" font-size="10.00">::main</text>
</a>
</g>
</g>
<!-- Node1&#45;&gt;Node3 -->
<g id="edge31" class="edge">
<title>Node1&#45;&gt;Node3</title>
<path fill="none" stroke="midnightblue" d="M584.55,-447.06C582,-508.21 566.57,-663.71 477,-742.5 445.67,-770.06 330.2,-784.87 262.13,-791.36"/>
<polygon fill="midnightblue" stroke="midnightblue" points="588.06,-446.89 584.89,-436.78 581.06,-446.65 588.06,-446.89"/>
</g>
<!-- Node5 -->
<g id="node4" class="node">
<title>Node5</title>
<g id="a_node4"><a xlink:href="../../d4/d62/namespaceleanux_1_1tools_1_1lard.html#a83ef9ad4dc00e23816c0a6208d85aa9b" target="_top" xlink:title=" ">
<polygon fill="none" stroke="black" points="338.5,-284.5 338.5,-314.5 454.5,-314.5 454.5,-284.5 338.5,-284.5"/>
<text text-anchor="start" x="346.5" y="-302.5" font-family="Helvetica,sans-Serif" font-size="10.00">leanux::tools::lard</text>
<text text-anchor="middle" x="396.5" y="-291.5" font-family="Helvetica,sans-Serif" font-size="10.00">::createTableCpustat</text>
</a>
</g>
</g>
<!-- Node1&#45;&gt;Node5 -->
<g id="edge3" class="edge">
<title>Node1&#45;&gt;Node5</title>
<path fill="none" stroke="midnightblue" d="M565.48,-398.67C545.39,-376.51 512.13,-343.38 477,-323.5 470.1,-319.59 462.49,-316.26 454.81,-313.43"/>
<polygon fill="midnightblue" stroke="midnightblue" points="563.01,-401.15 572.27,-406.29 568.24,-396.5 563.01,-401.15"/>
</g>
<!-- Node10 -->
<g id="node7" class="node">
<title>Node10</title>
<g id="a_node7"><a xlink:href="../../d4/d62/namespaceleanux_1_1tools_1_1lard.html#aa7dd5685fe34fea5a779e517ccc48d8c" target="_top" xlink:title=" ">
<polygon fill="none" stroke="black" points="343,-676.5 343,-706.5 450,-706.5 450,-676.5 343,-676.5"/>
<text text-anchor="start" x="351" y="-694.5" font-family="Helvetica,sans-Serif" font-size="10.00">leanux::tools::lard</text>
<text text-anchor="middle" x="396.5" y="-683.5" font-family="Helvetica,sans-Serif" font-size="10.00">::createTableIostat</text>
</a>
</g>
</g>
<!-- Node1&#45;&gt;Node10 -->
<g id="edge6" class="edge">
<title>Node1&#45;&gt;Node10</title>
<path fill="none" stroke="midnightblue" d="M581.08,-446.69C572.02,-496.35 544.97,-607.26 477,-667.5 469.34,-674.29 459.81,-679.16 450.04,-682.65"/>
<polygon fill="midnightblue" stroke="midnightblue" points="584.54,-447.24 582.79,-436.79 577.64,-446.05 584.54,-447.24"/>
</g>
<!-- Node11 -->
<g id="node8" class="node">
<title>Node11</title>
<g id="a_node8"><a xlink:href="../../d4/d62/namespaceleanux_1_1tools_1_1lard.html#a401c6c4b3e49ad213a0319c541efc3d6" target="_top" xlink:title=" ">
<polygon fill="none" stroke="black" points="332.5,-627.5 332.5,-657.5 460.5,-657.5 460.5,-627.5 332.5,-627.5"/>
<text text-anchor="start" x="340.5" y="-645.5" font-family="Helvetica,sans-Serif" font-size="10.00">leanux::tools::lard</text>
<text text-anchor="middle" x="396.5" y="-634.5" font-family="Helvetica,sans-Serif" font-size="10.00">::createTableMountstat</text>
</a>
</g>
</g>
<!-- Node1&#45;&gt;Node11 -->
<g id="edge8" class="edge">
<title>Node1&#45;&gt;Node11</title>
<path fill="none" stroke="midnightblue" d="M578.16,-446.31C565.37,-488.08 533.84,-572.42 477,-618.5 472.07,-622.49 466.49,-625.83 460.62,-628.6"/>
<polygon fill="midnightblue" stroke="midnightblue" points="581.54,-447.23 581.02,-436.65 574.83,-445.25 581.54,-447.23"/>
</g>
<!-- Node12 -->
<g id="node9" class="node">
<title>Node12</title>
<g id="a_node9"><a xlink:href="../../d4/d62/namespaceleanux_1_1tools_1_1lard.html#a15a017bdb0ea0ca666940ee78ef498bc" target="_top" xlink:title=" ">
<polygon fill="none" stroke="black" points="339,-578.5 339,-608.5 454,-608.5 454,-578.5 339,-578.5"/>
<text text-anchor="start" x="347" y="-596.5" font-family="Helvetica,sans-Serif" font-size="10.00">leanux::tools::lard</text>
<text text-anchor="middle" x="396.5" y="-585.5" font-family="Helvetica,sans-Serif" font-size="10.00">::createTableNetstat</text>
</a>
</g>
</g>
<!-- Node1&#45;&gt;Node12 -->
<g id="edge10" class="edge">
<title>Node1&#45;&gt;Node12</title>
<path fill="none" stroke="midnightblue" d="M573.53,-445.94C556.87,-478.84 522.85,-536.99 477,-569.5 470.18,-574.34 462.37,-578.21 454.37,-581.32"/>
<polygon fill="midnightblue" stroke="midnightblue" points="576.86,-447.11 578.14,-436.59 570.58,-444.01 576.86,-447.11"/>
</g>
<!-- Node13 -->
<g id="node10" class="node">
<title>Node13</title>
<g id="a_node10"><a xlink:href="../../d4/d62/namespaceleanux_1_1tools_1_1lard.html#ad7f56c0bcfab535ac513b5af00d622f7" target="_top" xlink:title=" ">
<polygon fill="none" stroke="black" points="337,-529.5 337,-559.5 456,-559.5 456,-529.5 337,-529.5"/>
<text text-anchor="start" x="345" y="-547.5" font-family="Helvetica,sans-Serif" font-size="10.00">leanux::tools::lard</text>
<text text-anchor="middle" x="396.5" y="-536.5" font-family="Helvetica,sans-Serif" font-size="10.00">::createTableProcstat</text>
</a>
</g>
</g>
<!-- Node1&#45;&gt;Node13 -->
<g id="edge12" class="edge">
<title>Node1&#45;&gt;Node13</title>
<path fill="none" stroke="midnightblue" d="M565.87,-444.2C545.84,-466.59 512.44,-500.33 477,-520.5 470.48,-524.21 463.34,-527.4 456.08,-530.13"/>
<polygon fill="midnightblue" stroke="midnightblue" points="568.65,-446.33 572.62,-436.51 563.39,-441.71 568.65,-446.33"/>
</g>
<!-- Node14 -->
<g id="node11" class="node">
<title>Node14</title>
<g id="a_node11"><a xlink:href="../../d4/d62/namespaceleanux_1_1tools_1_1lard.html#a69219ad1d3c059a04dc134e6a054b99e" target="_top" xlink:title=" ">
<polygon fill="none" stroke="black" points="338.5,-480.5 338.5,-510.5 454.5,-510.5 454.5,-480.5 338.5,-480.5"/>
<text text-anchor="start" x="346.5" y="-498.5" font-family="Helvetica,sans-Serif" font-size="10.00">leanux::tools::lard</text>
<text text-anchor="middle" x="396.5" y="-487.5" font-family="Helvetica,sans-Serif" font-size="10.00">::createTableResstat</text>
</a>
</g>
</g>
<!-- Node1&#45;&gt;Node14 -->
<g id="edge14" class="edge">
<title>Node1&#45;&gt;Node14</title>
<path fill="none" stroke="midnightblue" d="M546,-441.17C525.71,-450.98 500.34,-462.62 477,-471.5 468.78,-474.63 459.96,-477.62 451.3,-480.38"/>
<polygon fill="midnightblue" stroke="midnightblue" points="547.78,-444.2 555.23,-436.66 544.7,-437.91 547.78,-444.2"/>
</g>
<!-- Node15 -->
<g id="node12" class="node">
<title>Node15</title>
<g id="a_node12"><a xlink:href="../../d4/d62/namespaceleanux_1_1tools_1_1lard.html#a436346c9cf993a22564e605574a2d0cd" target="_top" xlink:title=" ">
<polygon fill="none" stroke="black" points="333,-431.5 333,-461.5 460,-461.5 460,-431.5 333,-431.5"/>
<text text-anchor="start" x="341" y="-449.5" font-family="Helvetica,sans-Serif" font-size="10.00">leanux::tools::lard</text>
<text text-anchor="middle" x="396.5" y="-438.5" font-family="Helvetica,sans-Serif" font-size="10.00">::createTableSchedstat</text>
</a>
</g>
</g>
<!-- Node1&#45;&gt;Node15 -->
<g id="edge16" class="edge">
<title>Node1&#45;&gt;Node15</title>
<path fill="none" stroke="midnightblue" d="M502.52,-432.5C488.33,-434.39 473.78,-436.33 460.22,-438.14"/>
<polygon fill="midnightblue" stroke="midnightblue" points="503.33,-435.92 512.78,-431.13 502.4,-428.98 503.33,-435.92"/>
</g>
<!-- Node16 -->
<g id="node13" class="node">
<title>Node16</title>
<g id="a_node13"><a xlink:href="../../d4/d62/namespaceleanux_1_1tools_1_1lard.html#a232257ac3ea3a4467e6fb61264c7a83e" target="_top" xlink:title=" ">
<polygon fill="none" stroke="black" points="334.5,-382.5 334.5,-412.5 458.5,-412.5 458.5,-382.5 334.5,-382.5"/>
<text text-anchor="start" x="342.5" y="-400.5" font-family="Helvetica,sans-Serif" font-size="10.00">leanux::tools::lard</text>
<text text-anchor="middle" x="396.5" y="-389.5" font-family="Helvetica,sans-Serif" font-size="10.00">::createTableSnapshot</text>
</a>
</g>
</g>
<!-- Node1&#45;&gt;Node16 -->
<g id="edge18" class="edge">
<title>Node1&#45;&gt;Node16</title>
<path fill="none" stroke="midnightblue" d="M502.64,-410.96C487.88,-409.07 472.74,-407.13 458.71,-405.34"/>
<polygon fill="midnightblue" stroke="midnightblue" points="502.41,-414.46 512.78,-412.26 503.3,-407.51 502.41,-414.46"/>
</g>
<!-- Node17 -->
<g id="node14" class="node">
<title>Node17</title>
<g id="a_node14"><a xlink:href="../../d4/d62/namespaceleanux_1_1tools_1_1lard.html#afe7d06462ac7d35a5e16bbc4d39c57ba" target="_top" xlink:title=" ">
<polygon fill="none" stroke="black" points="340.5,-333.5 340.5,-363.5 452.5,-363.5 452.5,-333.5 340.5,-333.5"/>
<text text-anchor="start" x="348.5" y="-351.5" font-family="Helvetica,sans-Serif" font-size="10.00">leanux::tools::lard</text>
<text text-anchor="middle" x="396.5" y="-340.5" font-family="Helvetica,sans-Serif" font-size="10.00">::createTableWchan</text>
</a>
</g>
</g>
<!-- Node1&#45;&gt;Node17 -->
<g id="edge20" class="edge">
<title>Node1&#45;&gt;Node17</title>
<path fill="none" stroke="midnightblue" d="M544.57,-402.22C524.48,-392.98 499.7,-382.08 477,-373.5 467.8,-370.02 457.87,-366.63 448.26,-363.52"/>
<polygon fill="midnightblue" stroke="midnightblue" points="543.19,-405.44 553.73,-406.47 546.13,-399.09 543.19,-405.44"/>
</g>
<!-- Node18 -->
<g id="node15" class="node">
<title>Node18</title>
<g id="a_node15"><a xlink:href="../../d4/d62/namespaceleanux_1_1tools_1_1lard.html#a9249744b0576a17dd109b8fad44863d3" target="_top" xlink:title=" ">
<polygon fill="none" stroke="black" points="344.5,-98.5 344.5,-128.5 448.5,-128.5 448.5,-98.5 344.5,-98.5"/>
<text text-anchor="start" x="352.5" y="-116.5" font-family="Helvetica,sans-Serif" font-size="10.00">leanux::tools::lard</text>
<text text-anchor="middle" x="396.5" y="-105.5" font-family="Helvetica,sans-Serif" font-size="10.00">::deleteSnapshots</text>
</a>
</g>
</g>
<!-- Node1&#45;&gt;Node18 -->
<g id="edge22" class="edge">
<title>Node1&#45;&gt;Node18</title>
<path fill="none" stroke="midnightblue" d="M582.76,-396.36C576.5,-341.27 553.87,-209.16 477,-137.5 469.09,-130.13 458.99,-125.01 448.67,-121.47"/>
<polygon fill="midnightblue" stroke="midnightblue" points="579.28,-396.73 583.81,-406.31 586.24,-396 579.28,-396.73"/>
</g>
<!-- Node21 -->
<g id="node18" class="node">
<title>Node21</title>
<g id="a_node18"><a xlink:href="../../d4/d62/namespaceleanux_1_1tools_1_1lard.html#aee987aaaf44a4832b535ecf78065d963" target="_top" xlink:title=" ">
<polygon fill="none" stroke="black" points="158,-235.5 158,-265.5 262,-265.5 262,-235.5 158,-235.5"/>
<text text-anchor="start" x="166" y="-253.5" font-family="Helvetica,sans-Serif" font-size="10.00">leanux::tools::lard</text>
<text text-anchor="middle" x="210" y="-242.5" font-family="Helvetica,sans-Serif" font-size="10.00">::ensureSinglePid</text>
</a>
</g>
</g>
<!-- Node1&#45;&gt;Node21 -->
<g id="edge27" class="edge">
<title>Node1&#45;&gt;Node21</title>
<path fill="none" stroke="midnightblue" d="M579.81,-396.52C569.22,-352.68 540.51,-263.02 477,-225.5 403.52,-182.09 298.25,-214 244.85,-235.38"/>
<polygon fill="midnightblue" stroke="midnightblue" points="576.43,-397.4 582.08,-406.37 583.25,-395.84 576.43,-397.4"/>
</g>
<!-- Node22 -->
<g id="node19" class="node">
<title>Node22</title>
<g id="a_node19"><a xlink:href="../../d7/d6a/classleanux_1_1tools_1_1lmon_1_1LardHistory.html#a9a004d58071bc3b2064686742b49b80a" target="_top" xlink:title=" ">
<polygon fill="none" stroke="black" points="316,-235.5 316,-265.5 477,-265.5 477,-235.5 316,-235.5"/>
<text text-anchor="start" x="324" y="-253.5" font-family="Helvetica,sans-Serif" font-size="10.00">leanux::tools::lmon</text>
<text text-anchor="middle" x="396.5" y="-242.5" font-family="Helvetica,sans-Serif" font-size="10.00">::LardHistory::fetchXProcView</text>
</a>
</g>
</g>
<!-- Node1&#45;&gt;Node22 -->
<g id="edge29" class="edge">
<title>Node1&#45;&gt;Node22</title>
<path fill="none" stroke="midnightblue" d="M573.23,-396.72C556.42,-363.96 522.47,-306.63 477,-274.5 472.17,-271.09 466.85,-268.15 461.32,-265.63"/>
<polygon fill="midnightblue" stroke="midnightblue" points="570.29,-398.67 577.89,-406.05 576.55,-395.54 570.29,-398.67"/>
</g>
<!-- Node26 -->
<g id="node21" class="node">
<title>Node26</title>
<g id="a_node21"><a xlink:href="../../d4/d0e/classleanux_1_1tools_1_1lard_1_1ProcSnap.html#ab816bcbf8f8986599df48ee7131c10fb" target="_top" xlink:title=" ">
<polygon fill="none" stroke="black" points="149,-49.5 149,-79.5 271,-79.5 271,-49.5 149,-49.5"/>
<text text-anchor="start" x="157" y="-67.5" font-family="Helvetica,sans-Serif" font-size="10.00">leanux::tools::lard</text>
<text text-anchor="middle" x="210" y="-56.5" font-family="Helvetica,sans-Serif" font-size="10.00">::ProcSnap::storeSnap</text>
</a>
</g>
</g>
<!-- Node1&#45;&gt;Node26 -->
<g id="edge32" class="edge">
<title>Node1&#45;&gt;Node26</title>
<path fill="none" stroke="midnightblue" d="M585.44,-396.1C585.02,-332.53 574.24,-166.11 477,-88.5 419.2,-42.37 330.16,-44.4 271.25,-52.49"/>
<polygon fill="midnightblue" stroke="midnightblue" points="581.94,-396.39 585.42,-406.4 588.94,-396.4 581.94,-396.39"/>
</g>
<!-- Node27 -->
<g id="node22" class="node">
<title>Node27</title>
<g id="a_node22"><a xlink:href="../../d0/db5/classleanux_1_1tools_1_1lard_1_1MountSnap.html#a7288efb64fc31818416b8c52c4ba3a0d" target="_top" xlink:title=" ">
<polygon fill="none" stroke="black" points="144,-0.5 144,-30.5 276,-30.5 276,-0.5 144,-0.5"/>
<text text-anchor="start" x="152" y="-18.5" font-family="Helvetica,sans-Serif" font-size="10.00">leanux::tools::lard</text>
<text text-anchor="middle" x="210" y="-7.5" font-family="Helvetica,sans-Serif" font-size="10.00">::MountSnap::storeSnap</text>
</a>
</g>
</g>
<!-- Node1&#45;&gt;Node27 -->
<g id="edge34" class="edge">
<title>Node1&#45;&gt;Node27</title>
<path fill="none" stroke="midnightblue" d="M581.43,-396.12C570.06,-319.18 532.21,-91.02 477,-44.5 421.76,2.05 335.48,2.75 276.26,-3.88"/>
<polygon fill="midnightblue" stroke="midnightblue" points="578.01,-396.94 582.91,-406.33 584.94,-395.93 578.01,-396.94"/>
</g>
<!-- Node28 -->
<g id="node23" class="node">
<title>Node28</title>
<g id="a_node23"><a xlink:href="../../d7/dff/classleanux_1_1tools_1_1lard_1_1TCPEstaSnap.html#adc30b5d65eacc454cb653851f6180f8b" target="_top" xlink:title=" ">
<polygon fill="none" stroke="black" points="140,-617.5 140,-647.5 280,-647.5 280,-617.5 140,-617.5"/>
<text text-anchor="start" x="148" y="-635.5" font-family="Helvetica,sans-Serif" font-size="10.00">leanux::tools::lard</text>
<text text-anchor="middle" x="210" y="-624.5" font-family="Helvetica,sans-Serif" font-size="10.00">::TCPEstaSnap::storeSnap</text>
</a>
</g>
</g>
<!-- Node1&#45;&gt;Node28 -->
<g id="edge36" class="edge">
<title>Node1&#45;&gt;Node28</title>
<path fill="none" stroke="midnightblue" d="M584.66,-446.93C582.34,-506.23 567.3,-653.4 477,-716.5 418.35,-757.49 383.52,-740.19 316,-716.5 277.01,-702.82 241.74,-667.9 223.69,-647.65"/>
<polygon fill="midnightblue" stroke="midnightblue" points="588.17,-446.71 584.97,-436.61 581.18,-446.5 588.17,-446.71"/>
</g>
<!-- Node29 -->
<g id="node24" class="node">
<title>Node29</title>
<g id="a_node24"><a xlink:href="../../d4/d62/namespaceleanux_1_1tools_1_1lard.html#af293f8b5b80c0189b1dc1904fe94d9bf" target="_top" xlink:title=" ">
<polygon fill="none" stroke="black" points="344.5,-147.5 344.5,-177.5 448.5,-177.5 448.5,-147.5 344.5,-147.5"/>
<text text-anchor="start" x="352.5" y="-165.5" font-family="Helvetica,sans-Serif" font-size="10.00">leanux::tools::lard</text>
<text text-anchor="middle" x="396.5" y="-154.5" font-family="Helvetica,sans-Serif" font-size="10.00">::vacuumAnalyze</text>
</a>
</g>
</g>
<!-- Node1&#45;&gt;Node29 -->
<g id="edge38" class="edge">
<title>Node1&#45;&gt;Node29</title>
<path fill="none" stroke="midnightblue" d="M579.76,-396.48C568.77,-349.98 539.02,-249.76 477,-192.5 468.98,-185.1 458.95,-179.46 448.75,-175.2"/>
<polygon fill="midnightblue" stroke="midnightblue" points="576.37,-397.35 581.99,-406.33 583.19,-395.8 576.37,-397.35"/>
</g>
<!-- Node2&#45;&gt;Node3 -->
<g id="edge2" class="edge">
<title>Node2&#45;&gt;Node3</title>
<path fill="none" stroke="midnightblue" d="M333.97,-810.16C310.65,-807.38 284.38,-804.25 262.12,-801.6"/>
<polygon fill="midnightblue" stroke="midnightblue" points="333.76,-813.66 344.11,-811.37 334.59,-806.71 333.76,-813.66"/>
</g>
<!-- Node6 -->
<g id="node5" class="node">
<title>Node6</title>
<g id="a_node5"><a xlink:href="../../d4/d62/namespaceleanux_1_1tools_1_1lard.html#a4f52f68eb8bc686294b04d3138d48740" target="_top" xlink:title=" ">
<polygon fill="none" stroke="black" points="158,-455.5 158,-485.5 262,-485.5 262,-455.5 158,-455.5"/>
<text text-anchor="start" x="166" y="-473.5" font-family="Helvetica,sans-Serif" font-size="10.00">leanux::tools::lard</text>
<text text-anchor="middle" x="210" y="-462.5" font-family="Helvetica,sans-Serif" font-size="10.00">::createSchema</text>
</a>
</g>
</g>
<!-- Node5&#45;&gt;Node6 -->
<g id="edge4" class="edge">
<title>Node5&#45;&gt;Node6</title>
<path fill="none" stroke="midnightblue" d="M328.76,-315.93C324.27,-318.15 319.97,-320.66 316,-323.5 266.55,-358.94 231.75,-425.09 217.79,-455.05"/>
<polygon fill="midnightblue" stroke="midnightblue" points="330.44,-319.02 338.18,-311.78 327.61,-312.61 330.44,-319.02"/>
</g>
<!-- Node7 -->
<g id="node6" class="node">
<title>Node7</title>
<g id="a_node6"><a xlink:href="../../d4/d62/namespaceleanux_1_1tools_1_1lard.html#a6de74bbef1d571bf7eb000e62900a11d" target="_top" xlink:title=" ">
<polygon fill="none" stroke="red" points="0,-169.5 0,-199.5 104,-199.5 104,-169.5 0,-169.5"/>
<text text-anchor="start" x="8" y="-187.5" font-family="Helvetica,sans-Serif" font-size="10.00">leanux::tools::lard</text>
<text text-anchor="middle" x="52" y="-176.5" font-family="Helvetica,sans-Serif" font-size="10.00">::mainLoop</text>
</a>
</g>
</g>
<!-- Node6&#45;&gt;Node7 -->
<g id="edge5" class="edge">
<title>Node6&#45;&gt;Node7</title>
<path fill="none" stroke="midnightblue" d="M195.66,-446.04C164.31,-388.57 86.7,-246.29 61.24,-199.61"/>
<polygon fill="midnightblue" stroke="midnightblue" points="192.75,-448.02 200.61,-455.12 198.9,-444.67 192.75,-448.02"/>
</g>
<!-- Node10&#45;&gt;Node6 -->
<g id="edge7" class="edge">
<title>Node10&#45;&gt;Node6</title>
<path fill="none" stroke="midnightblue" d="M333.54,-678.23C327.24,-675.33 321.24,-671.8 316,-667.5 308.08,-661 241.58,-530.78 218.7,-485.7"/>
<polygon fill="midnightblue" stroke="midnightblue" points="332.35,-681.53 342.94,-682.04 334.99,-675.04 332.35,-681.53"/>
</g>
<!-- Node11&#45;&gt;Node6 -->
<g id="edge9" class="edge">
<title>Node11&#45;&gt;Node6</title>
<path fill="none" stroke="midnightblue" d="M323.41,-623.24C320.84,-621.77 318.36,-620.2 316,-618.5 266.13,-582.63 231.31,-515.53 217.55,-485.6"/>
<polygon fill="midnightblue" stroke="midnightblue" points="321.93,-626.42 332.43,-627.82 325.1,-620.17 321.93,-626.42"/>
</g>
<!-- Node12&#45;&gt;Node6 -->
<g id="edge11" class="edge">
<title>Node12&#45;&gt;Node6</title>
<path fill="none" stroke="midnightblue" d="M329.34,-576.17C324.72,-574.16 320.22,-571.94 316,-569.5 276.97,-546.91 240.91,-507.14 222.95,-485.52"/>
<polygon fill="midnightblue" stroke="midnightblue" points="328.38,-579.55 338.96,-580 330.97,-573.05 328.38,-579.55"/>
</g>
<!-- Node13&#45;&gt;Node6 -->
<g id="edge13" class="edge">
<title>Node13&#45;&gt;Node6</title>
<path fill="none" stroke="midnightblue" d="M331.91,-526.24C326.49,-524.41 321.13,-522.48 316,-520.5 289.63,-510.31 260.7,-496.31 239.9,-485.72"/>
<polygon fill="midnightblue" stroke="midnightblue" points="331.08,-529.66 341.67,-529.46 333.26,-523.01 331.08,-529.66"/>
</g>
<!-- Node14&#45;&gt;Node6 -->
<g id="edge15" class="edge">
<title>Node14&#45;&gt;Node6</title>
<path fill="none" stroke="midnightblue" d="M328.21,-486.38C306.42,-483.43 282.63,-480.21 262.21,-477.44"/>
<polygon fill="midnightblue" stroke="midnightblue" points="328.01,-489.89 338.39,-487.76 328.95,-482.95 328.01,-489.89"/>
</g>
<!-- Node15&#45;&gt;Node6 -->
<g id="edge17" class="edge">
<title>Node15&#45;&gt;Node6</title>
<path fill="none" stroke="midnightblue" d="M322.66,-455.97C302.44,-458.6 280.92,-461.4 262.22,-463.84"/>
<polygon fill="midnightblue" stroke="midnightblue" points="323.31,-459.42 332.78,-454.66 322.41,-452.48 323.31,-459.42"/>
</g>
<!-- Node16&#45;&gt;Node6 -->
<g id="edge19" class="edge">
<title>Node16&#45;&gt;Node6</title>
<path fill="none" stroke="midnightblue" d="M334.45,-415.85C328.18,-417.98 321.94,-420.22 316,-422.5 290.37,-432.35 262.1,-445.4 241.36,-455.41"/>
<polygon fill="midnightblue" stroke="midnightblue" points="335.9,-419.05 344.28,-412.58 333.69,-412.41 335.9,-419.05"/>
</g>
<!-- Node17&#45;&gt;Node6 -->
<g id="edge21" class="edge">
<title>Node17&#45;&gt;Node6</title>
<path fill="none" stroke="midnightblue" d="M330.88,-366.1C325.72,-368.32 320.69,-370.78 316,-373.5 277.57,-395.77 241.54,-434.32 223.35,-455.5"/>
<polygon fill="midnightblue" stroke="midnightblue" points="332.26,-369.32 340.26,-362.37 329.68,-362.81 332.26,-369.32"/>
</g>
<!-- Node19 -->
<g id="node16" class="node">
<title>Node19</title>
<g id="a_node16"><a xlink:href="../../d4/d62/namespaceleanux_1_1tools_1_1lard.html#a98a04e0c068c5083ad571ebc9b79d693" target="_top" xlink:title=" ">
<polygon fill="none" stroke="black" points="158,-98.5 158,-128.5 262,-128.5 262,-98.5 158,-98.5"/>
<text text-anchor="start" x="166" y="-116.5" font-family="Helvetica,sans-Serif" font-size="10.00">leanux::tools::lard</text>
<text text-anchor="middle" x="210" y="-105.5" font-family="Helvetica,sans-Serif" font-size="10.00">::applyRetention</text>
</a>
</g>
</g>
<!-- Node18&#45;&gt;Node19 -->
<g id="edge23" class="edge">
<title>Node18&#45;&gt;Node19</title>
<path fill="none" stroke="midnightblue" d="M333.97,-113.5C310.65,-113.5 284.38,-113.5 262.12,-113.5"/>
<polygon fill="midnightblue" stroke="midnightblue" points="334.11,-117 344.11,-113.5 334.11,-110 334.11,-117"/>
</g>
<!-- Node20 -->
<g id="node17" class="node">
<title>Node20</title>
<g id="a_node17"><a xlink:href="../../d4/d62/namespaceleanux_1_1tools_1_1lard.html#a45d90387f852d7a71981b5d4ff93d8da" target="_top" xlink:title=" ">
<polygon fill="none" stroke="black" points="158,-147.5 158,-177.5 262,-177.5 262,-147.5 158,-147.5"/>
<text text-anchor="start" x="166" y="-165.5" font-family="Helvetica,sans-Serif" font-size="10.00">leanux::tools::lard</text>
<text text-anchor="middle" x="210" y="-154.5" font-family="Helvetica,sans-Serif" font-size="10.00">::shrinkDB</text>
</a>
</g>
</g>
<!-- Node18&#45;&gt;Node20 -->
<g id="edge25" class="edge">
<title>Node18&#45;&gt;Node20</title>
<path fill="none" stroke="midnightblue" d="M334.28,-129.76C310.89,-135.97 284.48,-142.99 262.12,-148.92"/>
<polygon fill="midnightblue" stroke="midnightblue" points="335.34,-133.1 344.11,-127.15 333.54,-126.33 335.34,-133.1"/>
</g>
<!-- Node19&#45;&gt;Node7 -->
<g id="edge24" class="edge">
<title>Node19&#45;&gt;Node7</title>
<path fill="none" stroke="midnightblue" d="M152.7,-132.24C148.37,-133.93 144.09,-135.7 140,-137.5 118.63,-146.91 95.42,-159.59 78.34,-169.41"/>
<polygon fill="midnightblue" stroke="midnightblue" points="154.1,-135.45 162.21,-128.63 151.62,-128.9 154.1,-135.45"/>
</g>
<!-- Node20&#45;&gt;Node7 -->
<g id="edge26" class="edge">
<title>Node20&#45;&gt;Node7</title>
<path fill="none" stroke="midnightblue" d="M147.62,-171.16C133.24,-173.18 118.07,-175.32 104.19,-177.28"/>
<polygon fill="midnightblue" stroke="midnightblue" points="148.51,-174.57 157.92,-169.7 147.53,-167.63 148.51,-174.57"/>
</g>
<!-- Node21&#45;&gt;Node7 -->
<g id="edge28" class="edge">
<title>Node21&#45;&gt;Node7</title>
<path fill="none" stroke="midnightblue" d="M163.97,-231.45C140.02,-221.32 110.98,-209.03 88.62,-199.57"/>
<polygon fill="midnightblue" stroke="midnightblue" points="162.64,-234.69 173.21,-235.36 165.36,-228.24 162.64,-234.69"/>
</g>
<!-- Node23 -->
<g id="node20" class="node">
<title>Node23</title>
<g id="a_node20"><a xlink:href="../../d5/de6/classleanux_1_1tools_1_1lmon_1_1Screen.html#a010f9459d506af3a4251ea0a644282bd" target="_top" xlink:title="Run the Screen in history mode.">
<polygon fill="none" stroke="red" points="153.5,-284.5 153.5,-314.5 266.5,-314.5 266.5,-284.5 153.5,-284.5"/>
<text text-anchor="start" x="161.5" y="-302.5" font-family="Helvetica,sans-Serif" font-size="10.00">leanux::tools::lmon</text>
<text text-anchor="middle" x="210" y="-291.5" font-family="Helvetica,sans-Serif" font-size="10.00">::Screen::runHistory</text>
</a>
</g>
</g>
<!-- Node22&#45;&gt;Node23 -->
<g id="edge30" class="edge">
<title>Node22&#45;&gt;Node23</title>
<path fill="none" stroke="midnightblue" d="M329.01,-268.16C308.53,-273.6 286.21,-279.52 266.55,-284.75"/>
<polygon fill="midnightblue" stroke="midnightblue" points="330.12,-271.48 338.89,-265.53 328.33,-264.72 330.12,-271.48"/>
</g>
<!-- Node26&#45;&gt;Node7 -->
<g id="edge33" class="edge">
<title>Node26&#45;&gt;Node7</title>
<path fill="none" stroke="midnightblue" d="M147.44,-84.05C144.87,-85.44 142.38,-86.93 140,-88.5 106.61,-110.6 77.59,-148.38 63.01,-169.35"/>
<polygon fill="midnightblue" stroke="midnightblue" points="148.99,-87.18 156.42,-79.63 145.9,-80.9 148.99,-87.18"/>
</g>
<!-- Node27&#45;&gt;Node7 -->
<g id="edge35" class="edge">
<title>Node27&#45;&gt;Node7</title>
<path fill="none" stroke="midnightblue" d="M144.97,-35.83C143.25,-36.99 141.59,-38.21 140,-39.5 95.81,-75.42 68.63,-140.17 58.06,-169.43"/>
<polygon fill="midnightblue" stroke="midnightblue" points="147.12,-38.63 153.98,-30.55 143.58,-32.59 147.12,-38.63"/>
</g>
<!-- Node28&#45;&gt;Node7 -->
<g id="edge37" class="edge">
<title>Node28&#45;&gt;Node7</title>
<path fill="none" stroke="midnightblue" d="M195,-608.29C179.88,-581.41 155.85,-536.41 140,-495.5 97.26,-385.19 65.87,-245.45 56.16,-199.73"/>
<polygon fill="midnightblue" stroke="midnightblue" points="192.15,-610.36 200.13,-617.33 198.24,-606.91 192.15,-610.36"/>
</g>
<!-- Node29&#45;&gt;Node7 -->
<g id="edge39" class="edge">
<title>Node29&#45;&gt;Node7</title>
<path fill="none" stroke="midnightblue" d="M334.34,-177.64C316.9,-181.3 297.8,-184.67 280,-186.5 218.1,-192.86 202.22,-187.22 140,-186.5 128.37,-186.37 115.86,-186.13 104.06,-185.87"/>
<polygon fill="midnightblue" stroke="midnightblue" points="335.36,-181 344.39,-175.47 333.88,-174.16 335.36,-181"/>
</g>
<!-- Node29&#45;&gt;Node20 -->
<g id="edge40" class="edge">
<title>Node29&#45;&gt;Node20</title>
<path fill="none" stroke="midnightblue" d="M333.97,-162.5C310.65,-162.5 284.38,-162.5 262.12,-162.5"/>
<polygon fill="midnightblue" stroke="midnightblue" points="334.11,-166 344.11,-162.5 334.11,-159 334.11,-166"/>
</g>
</g>
</svg>
