<?xml version="1.0" encoding="UTF-8" standalone="no"?>
<!DOCTYPE svg PUBLIC "-//W3C//DTD SVG 1.1//EN"
 "http://www.w3.org/Graphics/SVG/1.1/DTD/svg11.dtd">
<!-- Generated by graphviz version 2.43.0 (0)
 -->
<!-- Title: lib/configfile.hpp Pages: 1 -->
<svg width="236pt" height="84pt"
 viewBox="0.00 0.00 236.00 84.00" xmlns="http://www.w3.org/2000/svg" xmlns:xlink="http://www.w3.org/1999/xlink">
<g id="graph0" class="graph" transform="scale(1 1) rotate(0) translate(4 80)">
<title>lib/configfile.hpp</title>
<!-- Node1 -->
<g id="node1" class="node">
<title>Node1</title>
<g id="a_node1"><a xlink:title=" ">
<polygon fill="#bfbfbf" stroke="black" points="76.5,-56.5 76.5,-75.5 173.5,-75.5 173.5,-56.5 76.5,-56.5"/>
<text text-anchor="middle" x="125" y="-63.5" font-family="Helvetica,sans-Serif" font-size="10.00">lib/configfile.hpp</text>
</a>
</g>
</g>
<!-- Node2 -->
<g id="node2" class="node">
<title>Node2</title>
<g id="a_node2"><a xlink:title=" ">
<polygon fill="none" stroke="#bfbfbf" points="0,-0.5 0,-19.5 44,-19.5 44,-0.5 0,-0.5"/>
<text text-anchor="middle" x="22" y="-7.5" font-family="Helvetica,sans-Serif" font-size="10.00">string</text>
</a>
</g>
</g>
<!-- Node1&#45;&gt;Node2 -->
<g id="edge1" class="edge">
<title>Node1&#45;&gt;Node2</title>
<path fill="none" stroke="midnightblue" d="M108.45,-56.32C92.01,-47.7 66.57,-34.36 47.53,-24.39"/>
<polygon fill="midnightblue" stroke="midnightblue" points="48.99,-21.2 38.51,-19.65 45.74,-27.4 48.99,-21.2"/>
</g>
<!-- Node3 -->
<g id="node3" class="node">
<title>Node3</title>
<g id="a_node3"><a xlink:title=" ">
<polygon fill="none" stroke="#bfbfbf" points="62,-0.5 62,-19.5 122,-19.5 122,-0.5 62,-0.5"/>
<text text-anchor="middle" x="92" y="-7.5" font-family="Helvetica,sans-Serif" font-size="10.00">iostream</text>
</a>
</g>
</g>
<!-- Node1&#45;&gt;Node3 -->
<g id="edge2" class="edge">
<title>Node1&#45;&gt;Node3</title>
<path fill="none" stroke="midnightblue" d="M119.55,-56.08C114.99,-48.61 108.33,-37.72 102.71,-28.52"/>
<polygon fill="midnightblue" stroke="midnightblue" points="105.55,-26.46 97.35,-19.75 99.58,-30.11 105.55,-26.46"/>
</g>
<!-- Node4 -->
<g id="node4" class="node">
<title>Node4</title>
<g id="a_node4"><a xlink:title=" ">
<polygon fill="none" stroke="#bfbfbf" points="140,-0.5 140,-19.5 178,-19.5 178,-0.5 140,-0.5"/>
<text text-anchor="middle" x="159" y="-7.5" font-family="Helvetica,sans-Serif" font-size="10.00">map</text>
</a>
</g>
</g>
<!-- Node1&#45;&gt;Node4 -->
<g id="edge3" class="edge">
<title>Node1&#45;&gt;Node4</title>
<path fill="none" stroke="midnightblue" d="M130.61,-56.08C135.37,-48.53 142.32,-37.49 148.15,-28.23"/>
<polygon fill="midnightblue" stroke="midnightblue" points="151.12,-30.08 153.49,-19.75 145.2,-26.35 151.12,-30.08"/>
</g>
<!-- Node5 -->
<g id="node5" class="node">
<title>Node5</title>
<g id="a_node5"><a xlink:title=" ">
<polygon fill="none" stroke="#bfbfbf" points="196,-0.5 196,-19.5 228,-19.5 228,-0.5 196,-0.5"/>
<text text-anchor="middle" x="212" y="-7.5" font-family="Helvetica,sans-Serif" font-size="10.00">list</text>
</a>
</g>
</g>
<!-- Node1&#45;&gt;Node5 -->
<g id="edge4" class="edge">
<title>Node1&#45;&gt;Node5</title>
<path fill="none" stroke="midnightblue" d="M138.98,-56.32C152.55,-47.9 173.38,-34.97 189.32,-25.07"/>
<polygon fill="midnightblue" stroke="midnightblue" points="191.41,-27.9 198.06,-19.65 187.71,-21.95 191.41,-27.9"/>
</g>
</g>
</svg>
