<?xml version="1.0" encoding="UTF-8" standalone="no"?>
<!DOCTYPE svg PUBLIC "-//W3C//DTD SVG 1.1//EN"
 "http://www.w3.org/Graphics/SVG/1.1/DTD/svg11.dtd">
<!-- Generated by graphviz version 2.43.0 (0)
 -->
<!-- Title: lib/system.hpp Pages: 1 -->
<svg width="1709pt" height="84pt"
 viewBox="0.00 0.00 1709.00 84.00" xmlns="http://www.w3.org/2000/svg" xmlns:xlink="http://www.w3.org/1999/xlink">
<g id="graph0" class="graph" transform="scale(1 1) rotate(0) translate(4 80)">
<title>lib/system.hpp</title>
<!-- Node1 -->
<g id="node1" class="node">
<title>Node1</title>
<g id="a_node1"><a xlink:title=" ">
<polygon fill="#bfbfbf" stroke="black" points="735,-56.5 735,-75.5 824,-75.5 824,-56.5 735,-56.5"/>
<text text-anchor="middle" x="779.5" y="-63.5" font-family="Helvetica,sans-Serif" font-size="10.00">lib/system.hpp</text>
</a>
</g>
</g>
<!-- Node2 -->
<g id="node2" class="node">
<title>Node2</title>
<g id="a_node2"><a xlink:href="../../d7/dfc/cpu_8cpp.html" target="_top" xlink:title=" ">
<polygon fill="none" stroke="black" points="0,-0.5 0,-19.5 69,-19.5 69,-0.5 0,-0.5"/>
<text text-anchor="middle" x="34.5" y="-7.5" font-family="Helvetica,sans-Serif" font-size="10.00">lib/cpu.cpp</text>
</a>
</g>
</g>
<!-- Node1&#45;&gt;Node2 -->
<g id="edge1" class="edge">
<title>Node1&#45;&gt;Node2</title>
<path fill="none" stroke="midnightblue" d="M724.32,-64.04C605.65,-61.4 317.57,-51.97 78.5,-20 75.41,-19.59 72.21,-19.08 69.01,-18.53"/>
<polygon fill="midnightblue" stroke="midnightblue" points="724.52,-67.54 734.59,-64.26 724.67,-60.54 724.52,-67.54"/>
</g>
<!-- Node3 -->
<g id="node3" class="node">
<title>Node3</title>
<g id="a_node3"><a xlink:href="../../dd/d84/net_8cpp.html" target="_top" xlink:title=" ">
<polygon fill="none" stroke="black" points="87.5,-0.5 87.5,-19.5 155.5,-19.5 155.5,-0.5 87.5,-0.5"/>
<text text-anchor="middle" x="121.5" y="-7.5" font-family="Helvetica,sans-Serif" font-size="10.00">lib/net.cpp</text>
</a>
</g>
</g>
<!-- Node1&#45;&gt;Node3 -->
<g id="edge2" class="edge">
<title>Node1&#45;&gt;Node3</title>
<path fill="none" stroke="midnightblue" d="M724.61,-63.44C616.78,-59.83 369.95,-48.89 164.5,-20 161.63,-19.6 158.66,-19.11 155.7,-18.59"/>
<polygon fill="midnightblue" stroke="midnightblue" points="724.8,-66.95 734.91,-63.77 725.03,-59.95 724.8,-66.95"/>
</g>
<!-- Node4 -->
<g id="node4" class="node">
<title>Node4</title>
<g id="a_node4"><a xlink:href="../../d0/d4c/process_8cpp.html" target="_top" xlink:title=" ">
<polygon fill="none" stroke="black" points="174,-0.5 174,-19.5 263,-19.5 263,-0.5 174,-0.5"/>
<text text-anchor="middle" x="218.5" y="-7.5" font-family="Helvetica,sans-Serif" font-size="10.00">lib/process.cpp</text>
</a>
</g>
</g>
<!-- Node1&#45;&gt;Node4 -->
<g id="edge3" class="edge">
<title>Node1&#45;&gt;Node4</title>
<path fill="none" stroke="midnightblue" d="M724.81,-61.59C631.56,-55.46 435.91,-41.21 271.5,-20 268.82,-19.65 266.06,-19.27 263.28,-18.86"/>
<polygon fill="midnightblue" stroke="midnightblue" points="724.66,-65.09 734.86,-62.25 725.11,-58.11 724.66,-65.09"/>
</g>
<!-- Node5 -->
<g id="node5" class="node">
<title>Node5</title>
<g id="a_node5"><a xlink:href="../../d6/df8/system_8cpp.html" target="_top" xlink:title=" ">
<polygon fill="none" stroke="black" points="280.5,-0.5 280.5,-19.5 368.5,-19.5 368.5,-0.5 280.5,-0.5"/>
<text text-anchor="middle" x="324.5" y="-7.5" font-family="Helvetica,sans-Serif" font-size="10.00">lib/system.cpp</text>
</a>
</g>
</g>
<!-- Node1&#45;&gt;Node5 -->
<g id="edge4" class="edge">
<title>Node1&#45;&gt;Node5</title>
<path fill="none" stroke="midnightblue" d="M724.77,-59.87C647.29,-52.37 501.29,-37.42 377.5,-20 374.63,-19.6 371.69,-19.16 368.72,-18.7"/>
<polygon fill="midnightblue" stroke="midnightblue" points="724.49,-63.36 734.78,-60.83 725.16,-56.39 724.49,-63.36"/>
</g>
<!-- Node6 -->
<g id="node6" class="node">
<title>Node6</title>
<g id="a_node6"><a xlink:href="../../df/d45/vmem_8cpp.html" target="_top" xlink:title=" ">
<polygon fill="none" stroke="black" points="387,-0.5 387,-19.5 470,-19.5 470,-0.5 387,-0.5"/>
<text text-anchor="middle" x="428.5" y="-7.5" font-family="Helvetica,sans-Serif" font-size="10.00">lib/vmem.cpp</text>
</a>
</g>
</g>
<!-- Node1&#45;&gt;Node6 -->
<g id="edge5" class="edge">
<title>Node1&#45;&gt;Node6</title>
<path fill="none" stroke="midnightblue" d="M724.93,-57.25C664.76,-48.6 565.12,-33.97 479.5,-20 476.48,-19.51 473.37,-18.99 470.23,-18.46"/>
<polygon fill="midnightblue" stroke="midnightblue" points="724.57,-60.73 734.97,-58.69 725.57,-53.8 724.57,-60.73"/>
</g>
<!-- Node7 -->
<g id="node7" class="node">
<title>Node7</title>
<g id="a_node7"><a xlink:href="../../df/dde/lmon_8cpp.html" target="_top" xlink:title=" ">
<polygon fill="none" stroke="black" points="488.5,-0.5 488.5,-19.5 604.5,-19.5 604.5,-0.5 488.5,-0.5"/>
<text text-anchor="middle" x="546.5" y="-7.5" font-family="Helvetica,sans-Serif" font-size="10.00">tools/lmon/lmon.cpp</text>
</a>
</g>
</g>
<!-- Node1&#45;&gt;Node7 -->
<g id="edge6" class="edge">
<title>Node1&#45;&gt;Node7</title>
<path fill="none" stroke="midnightblue" d="M732.7,-54.15C688.67,-43.95 623.65,-28.88 583.25,-19.52"/>
<polygon fill="midnightblue" stroke="midnightblue" points="732.05,-57.6 742.58,-56.44 733.63,-50.78 732.05,-57.6"/>
</g>
<!-- Node8 -->
<g id="node8" class="node">
<title>Node8</title>
<g id="a_node8"><a xlink:href="../../d4/d0e/lmon__curses_8cpp.html" target="_top" xlink:title=" ">
<polygon fill="none" stroke="black" points="623,-0.5 623,-19.5 776,-19.5 776,-0.5 623,-0.5"/>
<text text-anchor="middle" x="699.5" y="-7.5" font-family="Helvetica,sans-Serif" font-size="10.00">tools/lmon/lmon_curses.cpp</text>
</a>
</g>
</g>
<!-- Node1&#45;&gt;Node8 -->
<g id="edge7" class="edge">
<title>Node1&#45;&gt;Node8</title>
<path fill="none" stroke="midnightblue" d="M758.2,-50.62C743.58,-40.76 724.67,-27.99 712.32,-19.65"/>
<polygon fill="midnightblue" stroke="midnightblue" points="756.4,-53.63 766.65,-56.32 760.32,-47.83 756.4,-53.63"/>
</g>
<!-- Node9 -->
<g id="node9" class="node">
<title>Node9</title>
<g id="a_node9"><a xlink:href="../../d4/df0/realtime_8cpp.html" target="_top" xlink:title=" ">
<polygon fill="none" stroke="black" points="794,-0.5 794,-19.5 927,-19.5 927,-0.5 794,-0.5"/>
<text text-anchor="middle" x="860.5" y="-7.5" font-family="Helvetica,sans-Serif" font-size="10.00">tools/lmon/realtime.cpp</text>
</a>
</g>
</g>
<!-- Node1&#45;&gt;Node9 -->
<g id="edge8" class="edge">
<title>Node1&#45;&gt;Node9</title>
<path fill="none" stroke="midnightblue" d="M801.07,-50.62C815.86,-40.76 835.01,-27.99 847.52,-19.65"/>
<polygon fill="midnightblue" stroke="midnightblue" points="798.89,-47.86 792.51,-56.32 802.78,-53.69 798.89,-47.86"/>
</g>
<!-- Node10 -->
<g id="node10" class="node">
<title>Node10</title>
<g id="a_node10"><a xlink:href="../../dd/d15/lrep_8cpp.html" target="_top" xlink:title=" ">
<polygon fill="none" stroke="black" points="945.5,-0.5 945.5,-19.5 1049.5,-19.5 1049.5,-0.5 945.5,-0.5"/>
<text text-anchor="middle" x="997.5" y="-7.5" font-family="Helvetica,sans-Serif" font-size="10.00">tools/lrep/lrep.cpp</text>
</a>
</g>
</g>
<!-- Node1&#45;&gt;Node10 -->
<g id="edge9" class="edge">
<title>Node1&#45;&gt;Node10</title>
<path fill="none" stroke="midnightblue" d="M823.81,-54.02C864.99,-43.82 925.47,-28.84 963.12,-19.52"/>
<polygon fill="midnightblue" stroke="midnightblue" points="822.91,-50.64 814.04,-56.44 824.59,-57.44 822.91,-50.64"/>
</g>
<!-- Node11 -->
<g id="node11" class="node">
<title>Node11</title>
<g id="a_node11"><a xlink:href="../../de/d17/lsys_8cpp.html" target="_top" xlink:title=" ">
<polygon fill="none" stroke="black" points="1067.5,-0.5 1067.5,-19.5 1173.5,-19.5 1173.5,-0.5 1067.5,-0.5"/>
<text text-anchor="middle" x="1120.5" y="-7.5" font-family="Helvetica,sans-Serif" font-size="10.00">tools/lsys/lsys.cpp</text>
</a>
</g>
</g>
<!-- Node1&#45;&gt;Node11 -->
<g id="edge10" class="edge">
<title>Node1&#45;&gt;Node11</title>
<path fill="none" stroke="midnightblue" d="M833.99,-56.37C898.06,-46.23 1003.68,-29.5 1067.22,-19.44"/>
<polygon fill="midnightblue" stroke="midnightblue" points="833.41,-52.92 824.08,-57.94 834.5,-59.83 833.41,-52.92"/>
</g>
<!-- Node12 -->
<g id="node12" class="node">
<title>Node12</title>
<g id="a_node12"><a xlink:href="../../da/de9/lar_8cpp.html" target="_top" xlink:title=" ">
<polygon fill="none" stroke="black" points="1191.5,-0.5 1191.5,-19.5 1289.5,-19.5 1289.5,-0.5 1191.5,-0.5"/>
<text text-anchor="middle" x="1240.5" y="-7.5" font-family="Helvetica,sans-Serif" font-size="10.00">tools/lard/lar.cpp</text>
</a>
</g>
</g>
<!-- Node1&#45;&gt;Node12 -->
<g id="edge11" class="edge">
<title>Node1&#45;&gt;Node12</title>
<path fill="none" stroke="midnightblue" d="M834.02,-59.66C911.57,-51.89 1058.12,-36.59 1182.5,-20 1185.43,-19.61 1188.44,-19.19 1191.47,-18.76"/>
<polygon fill="midnightblue" stroke="midnightblue" points="833.61,-56.18 824,-60.66 834.3,-63.15 833.61,-56.18"/>
</g>
<!-- Node13 -->
<g id="node13" class="node">
<title>Node13</title>
<g id="a_node13"><a xlink:href="../../d4/dc8/lar__snap_8cpp.html" target="_top" xlink:title=" ">
<polygon fill="none" stroke="black" points="1308,-0.5 1308,-19.5 1435,-19.5 1435,-0.5 1308,-0.5"/>
<text text-anchor="middle" x="1371.5" y="-7.5" font-family="Helvetica,sans-Serif" font-size="10.00">tools/lard/lar_snap.cpp</text>
</a>
</g>
</g>
<!-- Node1&#45;&gt;Node13 -->
<g id="edge12" class="edge">
<title>Node1&#45;&gt;Node13</title>
<path fill="none" stroke="midnightblue" d="M834.54,-60.89C929.38,-53.65 1129.66,-37.72 1298.5,-20 1301.55,-19.68 1304.67,-19.34 1307.81,-18.99"/>
<polygon fill="midnightblue" stroke="midnightblue" points="834.04,-57.41 824.33,-61.66 834.57,-64.39 834.04,-57.41"/>
</g>
<!-- Node14 -->
<g id="node14" class="node">
<title>Node14</title>
<g id="a_node14"><a xlink:href="../../d9/d3a/lblk_8cpp.html" target="_top" xlink:title=" ">
<polygon fill="none" stroke="black" points="1453,-0.5 1453,-19.5 1556,-19.5 1556,-0.5 1453,-0.5"/>
<text text-anchor="middle" x="1504.5" y="-7.5" font-family="Helvetica,sans-Serif" font-size="10.00">tools/lblk/lblk.cpp</text>
</a>
</g>
</g>
<!-- Node1&#45;&gt;Node14 -->
<g id="edge13" class="edge">
<title>Node1&#45;&gt;Node14</title>
<path fill="none" stroke="midnightblue" d="M834.59,-62.79C948.65,-57.88 1218.88,-44.51 1444.5,-20 1447.22,-19.7 1450.01,-19.38 1452.82,-19.02"/>
<polygon fill="midnightblue" stroke="midnightblue" points="834.21,-59.3 824.37,-63.22 834.51,-66.3 834.21,-59.3"/>
</g>
<!-- Node15 -->
<g id="node15" class="node">
<title>Node15</title>
<g id="a_node15"><a xlink:href="../../da/d06/labbix_8cpp.html" target="_top" xlink:title=" ">
<polygon fill="none" stroke="black" points="1574,-0.5 1574,-19.5 1701,-19.5 1701,-0.5 1574,-0.5"/>
<text text-anchor="middle" x="1637.5" y="-7.5" font-family="Helvetica,sans-Serif" font-size="10.00">tools/labbix/labbix.cpp</text>
</a>
</g>
</g>
<!-- Node1&#45;&gt;Node15 -->
<g id="edge14" class="edge">
<title>Node1&#45;&gt;Node15</title>
<path fill="none" stroke="midnightblue" d="M834.68,-63.12C963.08,-58.45 1291.77,-44.92 1565.5,-20 1568.26,-19.75 1571.08,-19.47 1573.92,-19.18"/>
<polygon fill="midnightblue" stroke="midnightblue" points="834.2,-59.63 824.33,-63.49 834.45,-66.63 834.2,-59.63"/>
</g>
</g>
</svg>
