<?xml version="1.0" encoding="UTF-8" standalone="no"?>
<!DOCTYPE svg PUBLIC "-//W3C//DTD SVG 1.1//EN"
 "http://www.w3.org/Graphics/SVG/1.1/DTD/svg11.dtd">
<!-- Generated by graphviz version 2.43.0 (0)
 -->
<!-- Title: leanux::tools::lard::VMSnap Pages: 1 -->
<svg width="305pt" height="305pt"
 viewBox="0.00 0.00 305.00 305.00" xmlns="http://www.w3.org/2000/svg" xmlns:xlink="http://www.w3.org/1999/xlink">
<g id="graph0" class="graph" transform="scale(1 1) rotate(0) translate(4 301)">
<title>leanux::tools::lard::VMSnap</title>
<!-- Node1 -->
<g id="node1" class="node">
<title>Node1</title>
<g id="a_node1"><a xlink:title=" ">
<polygon fill="#bfbfbf" stroke="black" points="41,-0.5 41,-30.5 145,-30.5 145,-0.5 41,-0.5"/>
<text text-anchor="start" x="49" y="-18.5" font-family="Helvetica,sans-Serif" font-size="10.00">leanux::tools::lard</text>
<text text-anchor="middle" x="93" y="-7.5" font-family="Helvetica,sans-Serif" font-size="10.00">::VMSnap</text>
</a>
</g>
</g>
<!-- Node2 -->
<g id="node2" class="node">
<title>Node2</title>
<g id="a_node2"><a xlink:href="../../db/dc1/classleanux_1_1tools_1_1lard_1_1Snapshot.html" target="_top" xlink:title=" ">
<polygon fill="none" stroke="black" points="0,-89.5 0,-119.5 104,-119.5 104,-89.5 0,-89.5"/>
<text text-anchor="start" x="8" y="-107.5" font-family="Helvetica,sans-Serif" font-size="10.00">leanux::tools::lard</text>
<text text-anchor="middle" x="52" y="-96.5" font-family="Helvetica,sans-Serif" font-size="10.00">::Snapshot</text>
</a>
</g>
</g>
<!-- Node2&#45;&gt;Node1 -->
<g id="edge1" class="edge">
<title>Node2&#45;&gt;Node1</title>
<path fill="none" stroke="midnightblue" d="M63.08,-79.99C70.52,-64.21 80.07,-43.94 86.36,-30.6"/>
<polygon fill="midnightblue" stroke="midnightblue" points="59.87,-78.6 58.77,-89.13 66.2,-81.58 59.87,-78.6"/>
</g>
<!-- Node3 -->
<g id="node3" class="node">
<title>Node3</title>
<g id="a_node3"><a xlink:href="../../dc/d32/namespaceleanux_1_1vmem.html#d0/d8f/structleanux_1_1vmem_1_1VMStat" target="_top" xlink:title="information from /proc/vmstat.">
<polygon fill="none" stroke="black" points="122,-95 122,-114 250,-114 250,-95 122,-95"/>
<text text-anchor="middle" x="186" y="-102" font-family="Helvetica,sans-Serif" font-size="10.00">leanux::vmem::VMStat</text>
</a>
</g>
</g>
<!-- Node3&#45;&gt;Node1 -->
<g id="edge2" class="edge">
<title>Node3&#45;&gt;Node1</title>
<path fill="none" stroke="#9a32cd" stroke-dasharray="5,2" d="M169.03,-87.62C151.59,-71.31 124.7,-46.16 108.02,-30.55"/>
<polygon fill="#9a32cd" stroke="#9a32cd" points="167.05,-90.56 176.74,-94.84 171.83,-85.45 167.05,-90.56"/>
<text text-anchor="middle" x="167" y="-63" font-family="Helvetica,sans-Serif" font-size="10.00"> stat2_</text>
<text text-anchor="middle" x="167" y="-52" font-family="Helvetica,sans-Serif" font-size="10.00">stat1_</text>
</g>
<!-- Node4 -->
<g id="node4" class="node">
<title>Node4</title>
<g id="a_node4"><a xlink:title=" ">
<polygon fill="none" stroke="#bfbfbf" points="167,-277.5 167,-296.5 205,-296.5 205,-277.5 167,-277.5"/>
<text text-anchor="middle" x="186" y="-284.5" font-family="Helvetica,sans-Serif" font-size="10.00">long</text>
</a>
</g>
</g>
<!-- Node4&#45;&gt;Node3 -->
<g id="edge3" class="edge">
<title>Node4&#45;&gt;Node3</title>
<path fill="none" stroke="#9a32cd" stroke-dasharray="5,2" d="M186,-266.93C186,-228.2 186,-141.69 186,-114.12"/>
<polygon fill="#9a32cd" stroke="#9a32cd" points="182.5,-267.29 186,-277.29 189.5,-267.29 182.5,-267.29"/>
<text text-anchor="middle" x="241.5" y="-251" font-family="Helvetica,sans-Serif" font-size="10.00"> mem_total</text>
<text text-anchor="middle" x="241.5" y="-240" font-family="Helvetica,sans-Serif" font-size="10.00">pgpgout</text>
<text text-anchor="middle" x="241.5" y="-229" font-family="Helvetica,sans-Serif" font-size="10.00">nr_slab_unreclaimable</text>
<text text-anchor="middle" x="241.5" y="-218" font-family="Helvetica,sans-Serif" font-size="10.00">pswpin</text>
<text text-anchor="middle" x="241.5" y="-207" font-family="Helvetica,sans-Serif" font-size="10.00">nr_writeback</text>
<text text-anchor="middle" x="241.5" y="-196" font-family="Helvetica,sans-Serif" font-size="10.00">nr_active_file</text>
<text text-anchor="middle" x="241.5" y="-185" font-family="Helvetica,sans-Serif" font-size="10.00">nr_active_anon</text>
<text text-anchor="middle" x="241.5" y="-174" font-family="Helvetica,sans-Serif" font-size="10.00">pgalloc_movable</text>
<text text-anchor="middle" x="241.5" y="-163" font-family="Helvetica,sans-Serif" font-size="10.00">nr_kernel_stack</text>
<text text-anchor="middle" x="241.5" y="-152" font-family="Helvetica,sans-Serif" font-size="10.00">nr_page_table_pages</text>
<text text-anchor="middle" x="241.5" y="-141" font-family="Helvetica,sans-Serif" font-size="10.00">...</text>
</g>
</g>
</svg>
