<?xml version="1.0" encoding="UTF-8" standalone="no"?>
<!DOCTYPE svg PUBLIC "-//W3C//DTD SVG 1.1//EN"
 "http://www.w3.org/Graphics/SVG/1.1/DTD/svg11.dtd">
<!-- Generated by graphviz version 2.43.0 (0)
 -->
<!-- Title: leanux::tools::lard::IOSnap::stopSnap Pages: 1 -->
<svg width="459pt" height="137pt"
 viewBox="0.00 0.00 459.00 137.00" xmlns="http://www.w3.org/2000/svg" xmlns:xlink="http://www.w3.org/1999/xlink">
<g id="graph0" class="graph" transform="scale(1 1) rotate(0) translate(4 133)">
<title>leanux::tools::lard::IOSnap::stopSnap</title>
<!-- Node1 -->
<g id="node1" class="node">
<title>Node1</title>
<g id="a_node1"><a xlink:title=" ">
<polygon fill="#bfbfbf" stroke="black" points="0,-49.5 0,-79.5 108,-79.5 108,-49.5 0,-49.5"/>
<text text-anchor="start" x="8" y="-67.5" font-family="Helvetica,sans-Serif" font-size="10.00">leanux::tools::lard</text>
<text text-anchor="middle" x="54" y="-56.5" font-family="Helvetica,sans-Serif" font-size="10.00">::IOSnap::stopSnap</text>
</a>
</g>
</g>
<!-- Node2 -->
<g id="node2" class="node">
<title>Node2</title>
<g id="a_node2"><a xlink:href="../../d5/d01/namespaceleanux_1_1block.html#ae227ed1fa83d91988072e335ea0f81e9" target="_top" xlink:title="get block device statistics into a DeviceStatsMap.">
<polygon fill="none" stroke="black" points="144,-55 144,-74 272,-74 272,-55 144,-55"/>
<text text-anchor="middle" x="208" y="-62" font-family="Helvetica,sans-Serif" font-size="10.00">leanux::block::getStats</text>
</a>
</g>
</g>
<!-- Node1&#45;&gt;Node2 -->
<g id="edge1" class="edge">
<title>Node1&#45;&gt;Node2</title>
<path fill="none" stroke="midnightblue" d="M108.16,-64.5C116.47,-64.5 125.18,-64.5 133.84,-64.5"/>
<polygon fill="midnightblue" stroke="midnightblue" points="133.95,-68 143.95,-64.5 133.95,-61 133.95,-68"/>
</g>
<!-- Node3 -->
<g id="node3" class="node">
<title>Node3</title>
<g id="a_node3"><a xlink:href="../../d7/d28/classleanux_1_1block_1_1MajorMinor.html#aec5c9aa75e9cb579163989cece64adc7" target="_top" xlink:title="Get SCSI iodone_cnt (number of SCSI IO completions)">
<polygon fill="none" stroke="red" points="308,-98.5 308,-128.5 451,-128.5 451,-98.5 308,-98.5"/>
<text text-anchor="start" x="316" y="-116.5" font-family="Helvetica,sans-Serif" font-size="10.00">leanux::block::MajorMinor</text>
<text text-anchor="middle" x="379.5" y="-105.5" font-family="Helvetica,sans-Serif" font-size="10.00">::getSCSIIODone</text>
</a>
</g>
</g>
<!-- Node2&#45;&gt;Node3 -->
<g id="edge2" class="edge">
<title>Node2&#45;&gt;Node3</title>
<path fill="none" stroke="midnightblue" d="M242.08,-74.06C263.26,-80.19 291.4,-88.32 316.62,-95.61"/>
<polygon fill="midnightblue" stroke="midnightblue" points="315.91,-99.05 326.48,-98.46 317.85,-92.32 315.91,-99.05"/>
</g>
<!-- Node9 -->
<g id="node4" class="node">
<title>Node9</title>
<g id="a_node4"><a xlink:href="../../d7/d28/classleanux_1_1block_1_1MajorMinor.html#ab3f52da181b760aa9d9240c08beb8ae8" target="_top" xlink:title="Get SCSI ioerr_cnt (number of SCSI IO errors)">
<polygon fill="none" stroke="red" points="308,-49.5 308,-79.5 451,-79.5 451,-49.5 308,-49.5"/>
<text text-anchor="start" x="316" y="-67.5" font-family="Helvetica,sans-Serif" font-size="10.00">leanux::block::MajorMinor</text>
<text text-anchor="middle" x="379.5" y="-56.5" font-family="Helvetica,sans-Serif" font-size="10.00">::getSCSIIOError</text>
</a>
</g>
</g>
<!-- Node2&#45;&gt;Node9 -->
<g id="edge3" class="edge">
<title>Node2&#45;&gt;Node9</title>
<path fill="none" stroke="midnightblue" d="M272.12,-64.5C280.5,-64.5 289.2,-64.5 297.83,-64.5"/>
<polygon fill="midnightblue" stroke="midnightblue" points="297.92,-68 307.92,-64.5 297.92,-61 297.92,-68"/>
</g>
<!-- Node10 -->
<g id="node5" class="node">
<title>Node10</title>
<g id="a_node5"><a xlink:href="../../d7/d28/classleanux_1_1block_1_1MajorMinor.html#a0c501b00fcddef5167f8f4e4f98e3bdb" target="_top" xlink:title="Get SCSI iorequest_cnt (number of SCSI IO requests)">
<polygon fill="none" stroke="red" points="308,-0.5 308,-30.5 451,-30.5 451,-0.5 308,-0.5"/>
<text text-anchor="start" x="316" y="-18.5" font-family="Helvetica,sans-Serif" font-size="10.00">leanux::block::MajorMinor</text>
<text text-anchor="middle" x="379.5" y="-7.5" font-family="Helvetica,sans-Serif" font-size="10.00">::getSCSIIORequest</text>
</a>
</g>
</g>
<!-- Node2&#45;&gt;Node10 -->
<g id="edge4" class="edge">
<title>Node2&#45;&gt;Node10</title>
<path fill="none" stroke="midnightblue" d="M242.08,-54.94C263.26,-48.81 291.4,-40.68 316.62,-33.39"/>
<polygon fill="midnightblue" stroke="midnightblue" points="317.85,-36.68 326.48,-30.54 315.91,-29.95 317.85,-36.68"/>
</g>
</g>
</svg>
