<?xml version="1.0" encoding="UTF-8" standalone="no"?>
<!DOCTYPE svg PUBLIC "-//W3C//DTD SVG 1.1//EN"
 "http://www.w3.org/Graphics/SVG/1.1/DTD/svg11.dtd">
<!-- Generated by graphviz version 2.43.0 (0)
 -->
<!-- Title: leanux::vmem::getVMStat Pages: 1 -->
<svg width="570pt" height="186pt"
 viewBox="0.00 0.00 570.00 186.00" xmlns="http://www.w3.org/2000/svg" xmlns:xlink="http://www.w3.org/1999/xlink">
<g id="graph0" class="graph" transform="scale(1 1) rotate(0) translate(4 182)">
<title>leanux::vmem::getVMStat</title>
<!-- Node1 -->
<g id="node1" class="node">
<title>Node1</title>
<g id="a_node1"><a xlink:title="get virtual memory statistics.">
<polygon fill="#bfbfbf" stroke="black" points="418,-79 418,-98 562,-98 562,-79 418,-79"/>
<text text-anchor="middle" x="490" y="-86" font-family="Helvetica,sans-Serif" font-size="10.00">leanux::vmem::getVMStat</text>
</a>
</g>
</g>
<!-- Node2 -->
<g id="node2" class="node">
<title>Node2</title>
<g id="a_node2"><a xlink:href="../../d6/dd3/namespaceleanux_1_1tools_1_1lrep.html#aa664245209dbbb081139c961a4c6d878" target="_top" xlink:title="generate system details html.">
<polygon fill="none" stroke="black" points="225.5,-147.5 225.5,-177.5 341.5,-177.5 341.5,-147.5 225.5,-147.5"/>
<text text-anchor="start" x="233.5" y="-165.5" font-family="Helvetica,sans-Serif" font-size="10.00">leanux::tools::lrep</text>
<text text-anchor="middle" x="283.5" y="-154.5" font-family="Helvetica,sans-Serif" font-size="10.00">::htmlSystemDetails</text>
</a>
</g>
</g>
<!-- Node1&#45;&gt;Node2 -->
<g id="edge1" class="edge">
<title>Node1&#45;&gt;Node2</title>
<path fill="none" stroke="midnightblue" d="M462.21,-102.81C440.93,-113.74 410.17,-128.56 382,-138.5 369.1,-143.05 354.94,-147.07 341.51,-150.45"/>
<polygon fill="midnightblue" stroke="midnightblue" points="464.02,-105.82 471.28,-98.1 460.79,-99.61 464.02,-105.82"/>
</g>
<!-- Node5 -->
<g id="node4" class="node">
<title>Node5</title>
<g id="a_node4"><a xlink:href="../../da/d21/classleanux_1_1tools_1_1lmon_1_1RealtimeSampler.html#a8de42eb5d528bfa157565a81a16ae5bd" target="_top" xlink:title=" ">
<polygon fill="none" stroke="black" points="185,-98.5 185,-128.5 382,-128.5 382,-98.5 185,-98.5"/>
<text text-anchor="start" x="193" y="-116.5" font-family="Helvetica,sans-Serif" font-size="10.00">leanux::tools::lmon</text>
<text text-anchor="middle" x="283.5" y="-105.5" font-family="Helvetica,sans-Serif" font-size="10.00">::RealtimeSampler::sampleXSysView</text>
</a>
</g>
</g>
<!-- Node1&#45;&gt;Node5 -->
<g id="edge3" class="edge">
<title>Node1&#45;&gt;Node5</title>
<path fill="none" stroke="midnightblue" d="M407.64,-98.45C399.24,-99.47 390.65,-100.52 382.11,-101.57"/>
<polygon fill="midnightblue" stroke="midnightblue" points="408.26,-101.9 417.76,-97.21 407.41,-94.95 408.26,-101.9"/>
</g>
<!-- Node11 -->
<g id="node6" class="node">
<title>Node11</title>
<g id="a_node6"><a xlink:href="../../d5/d46/classleanux_1_1tools_1_1lard_1_1VMSnap.html#a37c5af9624501ff9094fcd956863bad0" target="_top" xlink:title=" ">
<polygon fill="none" stroke="black" points="226,-49.5 226,-79.5 341,-79.5 341,-49.5 226,-49.5"/>
<text text-anchor="start" x="234" y="-67.5" font-family="Helvetica,sans-Serif" font-size="10.00">leanux::tools::lard</text>
<text text-anchor="middle" x="283.5" y="-56.5" font-family="Helvetica,sans-Serif" font-size="10.00">::VMSnap::startSnap</text>
</a>
</g>
</g>
<!-- Node1&#45;&gt;Node11 -->
<g id="edge5" class="edge">
<title>Node1&#45;&gt;Node11</title>
<path fill="none" stroke="midnightblue" d="M407.62,-78.95C385.3,-76.33 361.59,-73.55 341,-71.13"/>
<polygon fill="midnightblue" stroke="midnightblue" points="407.42,-82.45 417.76,-80.14 408.24,-75.5 407.42,-82.45"/>
</g>
<!-- Node15 -->
<g id="node8" class="node">
<title>Node15</title>
<g id="a_node8"><a xlink:href="../../d5/d46/classleanux_1_1tools_1_1lard_1_1VMSnap.html#ac8539527962d0d32339ea8e64820a1a4" target="_top" xlink:title=" ">
<polygon fill="none" stroke="black" points="227,-0.5 227,-30.5 340,-30.5 340,-0.5 227,-0.5"/>
<text text-anchor="start" x="235" y="-18.5" font-family="Helvetica,sans-Serif" font-size="10.00">leanux::tools::lard</text>
<text text-anchor="middle" x="283.5" y="-7.5" font-family="Helvetica,sans-Serif" font-size="10.00">::VMSnap::stopSnap</text>
</a>
</g>
</g>
<!-- Node1&#45;&gt;Node15 -->
<g id="edge7" class="edge">
<title>Node1&#45;&gt;Node15</title>
<path fill="none" stroke="midnightblue" d="M460.96,-74.33C439.69,-63.98 409.5,-50.11 382,-40.5 368.64,-35.83 353.97,-31.61 340.16,-28.03"/>
<polygon fill="midnightblue" stroke="midnightblue" points="459.55,-77.54 470.07,-78.82 462.65,-71.26 459.55,-77.54"/>
</g>
<!-- Node3 -->
<g id="node3" class="node">
<title>Node3</title>
<g id="a_node3"><a xlink:href="../../d6/dd3/namespaceleanux_1_1tools_1_1lrep.html#aa0e1422d8d75831ea3801ffa728bf436" target="_top" xlink:title=" ">
<polygon fill="none" stroke="red" points="22.5,-147.5 22.5,-177.5 126.5,-177.5 126.5,-147.5 22.5,-147.5"/>
<text text-anchor="start" x="30.5" y="-165.5" font-family="Helvetica,sans-Serif" font-size="10.00">leanux::tools::lrep</text>
<text text-anchor="middle" x="74.5" y="-154.5" font-family="Helvetica,sans-Serif" font-size="10.00">::main</text>
</a>
</g>
</g>
<!-- Node2&#45;&gt;Node3 -->
<g id="edge2" class="edge">
<title>Node2&#45;&gt;Node3</title>
<path fill="none" stroke="midnightblue" d="M215.03,-162.5C186.34,-162.5 153.42,-162.5 126.77,-162.5"/>
<polygon fill="midnightblue" stroke="midnightblue" points="215.39,-166 225.39,-162.5 215.39,-159 215.39,-166"/>
</g>
<!-- Node6 -->
<g id="node5" class="node">
<title>Node6</title>
<g id="a_node5"><a xlink:href="../../da/d21/classleanux_1_1tools_1_1lmon_1_1RealtimeSampler.html#a9522a4a46961eb4f75d3207da1efd07f" target="_top" xlink:title="Sample a snapshot.">
<polygon fill="none" stroke="red" points="0,-98.5 0,-128.5 149,-128.5 149,-98.5 0,-98.5"/>
<text text-anchor="start" x="8" y="-116.5" font-family="Helvetica,sans-Serif" font-size="10.00">leanux::tools::lmon</text>
<text text-anchor="middle" x="74.5" y="-105.5" font-family="Helvetica,sans-Serif" font-size="10.00">::RealtimeSampler::sample</text>
</a>
</g>
</g>
<!-- Node5&#45;&gt;Node6 -->
<g id="edge4" class="edge">
<title>Node5&#45;&gt;Node6</title>
<path fill="none" stroke="midnightblue" d="M174.68,-113.5C166.1,-113.5 157.55,-113.5 149.29,-113.5"/>
<polygon fill="midnightblue" stroke="midnightblue" points="174.76,-117 184.76,-113.5 174.76,-110 174.76,-117"/>
</g>
<!-- Node12 -->
<g id="node7" class="node">
<title>Node12</title>
<g id="a_node7"><a xlink:href="../../d4/d62/namespaceleanux_1_1tools_1_1lard.html#a6de74bbef1d571bf7eb000e62900a11d" target="_top" xlink:title=" ">
<polygon fill="none" stroke="red" points="22.5,-25.5 22.5,-55.5 126.5,-55.5 126.5,-25.5 22.5,-25.5"/>
<text text-anchor="start" x="30.5" y="-43.5" font-family="Helvetica,sans-Serif" font-size="10.00">leanux::tools::lard</text>
<text text-anchor="middle" x="74.5" y="-32.5" font-family="Helvetica,sans-Serif" font-size="10.00">::mainLoop</text>
</a>
</g>
</g>
<!-- Node11&#45;&gt;Node12 -->
<g id="edge6" class="edge">
<title>Node11&#45;&gt;Node12</title>
<path fill="none" stroke="midnightblue" d="M215.91,-56.78C186.98,-53.43 153.62,-49.56 126.69,-46.43"/>
<polygon fill="midnightblue" stroke="midnightblue" points="215.6,-60.27 225.94,-57.94 216.41,-53.31 215.6,-60.27"/>
</g>
<!-- Node15&#45;&gt;Node12 -->
<g id="edge8" class="edge">
<title>Node15&#45;&gt;Node12</title>
<path fill="none" stroke="midnightblue" d="M216.68,-23.45C187.59,-26.96 153.9,-31.03 126.73,-34.31"/>
<polygon fill="midnightblue" stroke="midnightblue" points="217.25,-26.91 226.76,-22.23 216.41,-19.96 217.25,-26.91"/>
</g>
</g>
</svg>
