<?xml version="1.0" encoding="UTF-8" standalone="no"?>
<!DOCTYPE svg PUBLIC "-//W3C//DTD SVG 1.1//EN"
 "http://www.w3.org/Graphics/SVG/1.1/DTD/svg11.dtd">
<!-- Generated by graphviz version 2.43.0 (0)
 -->
<!-- Title: leanux::vmem::getDirtyPressure Pages: 1 -->
<svg width="546pt" height="66pt"
 viewBox="0.00 0.00 546.00 66.00" xmlns="http://www.w3.org/2000/svg" xmlns:xlink="http://www.w3.org/1999/xlink">
<g id="graph0" class="graph" transform="scale(1 1) rotate(0) translate(4 62)">
<title>leanux::vmem::getDirtyPressure</title>
<!-- Node1 -->
<g id="node1" class="node">
<title>Node1</title>
<g id="a_node1"><a xlink:title=" ">
<polygon fill="#bfbfbf" stroke="black" points="0,-19.5 0,-38.5 175,-38.5 175,-19.5 0,-19.5"/>
<text text-anchor="middle" x="87.5" y="-26.5" font-family="Helvetica,sans-Serif" font-size="10.00">leanux::vmem::getDirtyPressure</text>
</a>
</g>
</g>
<!-- Node2 -->
<g id="node2" class="node">
<title>Node2</title>
<g id="a_node2"><a xlink:href="../../dc/d32/namespaceleanux_1_1vmem.html#a25711f0f454b456f442a451794298001" target="_top" xlink:title="get /proc/sys/vm/dirty_bytes">
<polygon fill="none" stroke="black" points="211,-38.5 211,-57.5 372,-57.5 372,-38.5 211,-38.5"/>
<text text-anchor="middle" x="291.5" y="-45.5" font-family="Helvetica,sans-Serif" font-size="10.00">leanux::vmem::getDirtyBytes</text>
</a>
</g>
</g>
<!-- Node1&#45;&gt;Node2 -->
<g id="edge1" class="edge">
<title>Node1&#45;&gt;Node2</title>
<path fill="none" stroke="midnightblue" d="M175.05,-37.14C183.59,-37.94 192.27,-38.76 200.85,-39.57"/>
<polygon fill="midnightblue" stroke="midnightblue" points="200.56,-43.06 210.84,-40.51 201.22,-36.09 200.56,-43.06"/>
</g>
<!-- Node4 -->
<g id="node4" class="node">
<title>Node4</title>
<g id="a_node4"><a xlink:href="../../dc/d32/namespaceleanux_1_1vmem.html#a1b7142681779765cd488132dd2cdff37" target="_top" xlink:title="get /proc/sys/vm/dirty_ratio">
<polygon fill="none" stroke="black" points="212.5,-0.5 212.5,-19.5 370.5,-19.5 370.5,-0.5 212.5,-0.5"/>
<text text-anchor="middle" x="291.5" y="-7.5" font-family="Helvetica,sans-Serif" font-size="10.00">leanux::vmem::getDirtyRatio</text>
</a>
</g>
</g>
<!-- Node1&#45;&gt;Node4 -->
<g id="edge3" class="edge">
<title>Node1&#45;&gt;Node4</title>
<path fill="none" stroke="midnightblue" d="M175.05,-20.86C184.07,-20.01 193.25,-19.15 202.3,-18.3"/>
<polygon fill="midnightblue" stroke="midnightblue" points="202.8,-21.76 212.43,-17.34 202.15,-14.8 202.8,-21.76"/>
</g>
<!-- Node3 -->
<g id="node3" class="node">
<title>Node3</title>
<g id="a_node3"><a xlink:href="../../d8/db1/namespaceleanux_1_1util.html#a1e9a1206d94b2f96e8e0c6adc4e4cd12" target="_top" xlink:title="read the first data in the file as a string representation of a unsigned long.">
<polygon fill="none" stroke="black" points="408,-19.5 408,-38.5 538,-38.5 538,-19.5 408,-19.5"/>
<text text-anchor="middle" x="473" y="-26.5" font-family="Helvetica,sans-Serif" font-size="10.00">leanux::util::fileReadUL</text>
</a>
</g>
</g>
<!-- Node2&#45;&gt;Node3 -->
<g id="edge2" class="edge">
<title>Node2&#45;&gt;Node3</title>
<path fill="none" stroke="midnightblue" d="M372.02,-39.58C380.55,-38.68 389.21,-37.76 397.68,-36.87"/>
<polygon fill="midnightblue" stroke="midnightblue" points="398.32,-40.32 407.89,-35.79 397.58,-33.36 398.32,-40.32"/>
</g>
<!-- Node4&#45;&gt;Node3 -->
<g id="edge4" class="edge">
<title>Node4&#45;&gt;Node3</title>
<path fill="none" stroke="midnightblue" d="M370.71,-18.28C379.7,-19.23 388.85,-20.2 397.79,-21.14"/>
<polygon fill="midnightblue" stroke="midnightblue" points="397.46,-24.63 407.77,-22.2 398.19,-17.67 397.46,-24.63"/>
</g>
</g>
</svg>
