<?xml version="1.0" encoding="UTF-8" standalone="no"?>
<!DOCTYPE svg PUBLIC "-//W3C//DTD SVG 1.1//EN"
 "http://www.w3.org/Graphics/SVG/1.1/DTD/svg11.dtd">
<!-- Generated by graphviz version 2.43.0 (0)
 -->
<!-- Title: leanux::vmem::getSwapInfo Pages: 1 -->
<svg width="580pt" height="235pt"
 viewBox="0.00 0.00 580.00 235.00" xmlns="http://www.w3.org/2000/svg" xmlns:xlink="http://www.w3.org/1999/xlink">
<g id="graph0" class="graph" transform="scale(1 1) rotate(0) translate(4 231)">
<title>leanux::vmem::getSwapInfo</title>
<!-- Node1 -->
<g id="node1" class="node">
<title>Node1</title>
<g id="a_node1"><a xlink:title="Get a std::list of SwapInfo swap spaces.">
<polygon fill="#bfbfbf" stroke="black" points="418,-104 418,-123 572,-123 572,-104 418,-104"/>
<text text-anchor="middle" x="495" y="-111" font-family="Helvetica,sans-Serif" font-size="10.00">leanux::vmem::getSwapInfo</text>
</a>
</g>
</g>
<!-- Node2 -->
<g id="node2" class="node">
<title>Node2</title>
<g id="a_node2"><a xlink:href="../../d8/d7f/classleanux_1_1tools_1_1lmon_1_1IOView.html#a466bf2f2261b917b31ae2664ec8fbed0" target="_top" xlink:title="provide the optimal height for the Header.">
<polygon fill="none" stroke="black" points="209,-196.5 209,-226.5 358,-226.5 358,-196.5 209,-196.5"/>
<text text-anchor="start" x="217" y="-214.5" font-family="Helvetica,sans-Serif" font-size="10.00">leanux::tools::lmon</text>
<text text-anchor="middle" x="283.5" y="-203.5" font-family="Helvetica,sans-Serif" font-size="10.00">::IOView::getOptimalHeight</text>
</a>
</g>
</g>
<!-- Node1&#45;&gt;Node2 -->
<g id="edge1" class="edge">
<title>Node1&#45;&gt;Node2</title>
<path fill="none" stroke="midnightblue" d="M474.36,-129.52C452.9,-146.28 416.9,-172.22 382,-187.5 374.25,-190.89 365.94,-193.86 357.56,-196.44"/>
<polygon fill="midnightblue" stroke="midnightblue" points="476.71,-132.13 482.36,-123.17 472.36,-126.65 476.71,-132.13"/>
</g>
<!-- Node9 -->
<g id="node4" class="node">
<title>Node9</title>
<g id="a_node4"><a xlink:href="../../da/d21/classleanux_1_1tools_1_1lmon_1_1RealtimeSampler.html#ae43e18aacfceb09eb9bd70db9c67fc98" target="_top" xlink:title=" ">
<polygon fill="none" stroke="black" points="188,-147.5 188,-177.5 379,-177.5 379,-147.5 188,-147.5"/>
<text text-anchor="start" x="196" y="-165.5" font-family="Helvetica,sans-Serif" font-size="10.00">leanux::tools::lmon</text>
<text text-anchor="middle" x="283.5" y="-154.5" font-family="Helvetica,sans-Serif" font-size="10.00">::RealtimeSampler::sampleXIOView</text>
</a>
</g>
</g>
<!-- Node1&#45;&gt;Node9 -->
<g id="edge3" class="edge">
<title>Node1&#45;&gt;Node9</title>
<path fill="none" stroke="midnightblue" d="M443.01,-125.43C414.64,-132.06 379.05,-140.39 348.79,-147.46"/>
<polygon fill="midnightblue" stroke="midnightblue" points="444.17,-128.75 453.11,-123.06 442.57,-121.93 444.17,-128.75"/>
</g>
<!-- Node12 -->
<g id="node6" class="node">
<title>Node12</title>
<g id="a_node6"><a xlink:href="../../da/d21/classleanux_1_1tools_1_1lmon_1_1RealtimeSampler.html#a8de42eb5d528bfa157565a81a16ae5bd" target="_top" xlink:title=" ">
<polygon fill="none" stroke="black" points="185,-98.5 185,-128.5 382,-128.5 382,-98.5 185,-98.5"/>
<text text-anchor="start" x="193" y="-116.5" font-family="Helvetica,sans-Serif" font-size="10.00">leanux::tools::lmon</text>
<text text-anchor="middle" x="283.5" y="-105.5" font-family="Helvetica,sans-Serif" font-size="10.00">::RealtimeSampler::sampleXSysView</text>
</a>
</g>
</g>
<!-- Node1&#45;&gt;Node12 -->
<g id="edge5" class="edge">
<title>Node1&#45;&gt;Node12</title>
<path fill="none" stroke="midnightblue" d="M407.62,-113.5C399.21,-113.5 390.65,-113.5 382.14,-113.5"/>
<polygon fill="midnightblue" stroke="midnightblue" points="407.77,-117 417.77,-113.5 407.77,-110 407.77,-117"/>
</g>
<!-- Node13 -->
<g id="node7" class="node">
<title>Node13</title>
<g id="a_node7"><a xlink:href="../../d5/d46/classleanux_1_1tools_1_1lard_1_1VMSnap.html#ad7ebbd5cb631d19b7c1a08aeeb7e138b" target="_top" xlink:title=" ">
<polygon fill="none" stroke="black" points="225,-49.5 225,-79.5 342,-79.5 342,-49.5 225,-49.5"/>
<text text-anchor="start" x="233" y="-67.5" font-family="Helvetica,sans-Serif" font-size="10.00">leanux::tools::lard</text>
<text text-anchor="middle" x="283.5" y="-56.5" font-family="Helvetica,sans-Serif" font-size="10.00">::VMSnap::storeSnap</text>
</a>
</g>
</g>
<!-- Node1&#45;&gt;Node13 -->
<g id="edge7" class="edge">
<title>Node1&#45;&gt;Node13</title>
<path fill="none" stroke="midnightblue" d="M443.13,-101.6C412.7,-94.48 373.92,-85.42 342.33,-78.03"/>
<polygon fill="midnightblue" stroke="midnightblue" points="442.57,-105.07 453.11,-103.94 444.17,-98.25 442.57,-105.07"/>
</g>
<!-- Node17 -->
<g id="node9" class="node">
<title>Node17</title>
<g id="a_node9"><a xlink:href="../../d0/db5/classleanux_1_1tools_1_1lard_1_1MountSnap.html#a7288efb64fc31818416b8c52c4ba3a0d" target="_top" xlink:title=" ">
<polygon fill="none" stroke="black" points="217.5,-0.5 217.5,-30.5 349.5,-30.5 349.5,-0.5 217.5,-0.5"/>
<text text-anchor="start" x="225.5" y="-18.5" font-family="Helvetica,sans-Serif" font-size="10.00">leanux::tools::lard</text>
<text text-anchor="middle" x="283.5" y="-7.5" font-family="Helvetica,sans-Serif" font-size="10.00">::MountSnap::storeSnap</text>
</a>
</g>
</g>
<!-- Node1&#45;&gt;Node17 -->
<g id="edge9" class="edge">
<title>Node1&#45;&gt;Node17</title>
<path fill="none" stroke="midnightblue" d="M473.95,-97.51C452.39,-81.04 416.55,-55.69 382,-40.5 371.84,-36.03 360.73,-32.24 349.75,-29.07"/>
<polygon fill="midnightblue" stroke="midnightblue" points="471.96,-100.39 482,-103.76 476.25,-94.86 471.96,-100.39"/>
</g>
<!-- Node3 -->
<g id="node3" class="node">
<title>Node3</title>
<g id="a_node3"><a xlink:href="../../d5/de6/classleanux_1_1tools_1_1lmon_1_1Screen.html#abcaa706fe703bbf453808220fcaf8263" target="_top" xlink:title="Recalculate the window sizes.">
<polygon fill="none" stroke="red" points="11.5,-196.5 11.5,-226.5 137.5,-226.5 137.5,-196.5 11.5,-196.5"/>
<text text-anchor="start" x="19.5" y="-214.5" font-family="Helvetica,sans-Serif" font-size="10.00">leanux::tools::lmon</text>
<text text-anchor="middle" x="74.5" y="-203.5" font-family="Helvetica,sans-Serif" font-size="10.00">::Screen::screenResize</text>
</a>
</g>
</g>
<!-- Node2&#45;&gt;Node3 -->
<g id="edge2" class="edge">
<title>Node2&#45;&gt;Node3</title>
<path fill="none" stroke="midnightblue" d="M198.69,-211.5C178.25,-211.5 156.75,-211.5 137.53,-211.5"/>
<polygon fill="midnightblue" stroke="midnightblue" points="198.94,-215 208.94,-211.5 198.94,-208 198.94,-215"/>
</g>
<!-- Node10 -->
<g id="node5" class="node">
<title>Node10</title>
<g id="a_node5"><a xlink:href="../../da/d21/classleanux_1_1tools_1_1lmon_1_1RealtimeSampler.html#a9522a4a46961eb4f75d3207da1efd07f" target="_top" xlink:title="Sample a snapshot.">
<polygon fill="none" stroke="red" points="0,-123.5 0,-153.5 149,-153.5 149,-123.5 0,-123.5"/>
<text text-anchor="start" x="8" y="-141.5" font-family="Helvetica,sans-Serif" font-size="10.00">leanux::tools::lmon</text>
<text text-anchor="middle" x="74.5" y="-130.5" font-family="Helvetica,sans-Serif" font-size="10.00">::RealtimeSampler::sample</text>
</a>
</g>
</g>
<!-- Node9&#45;&gt;Node10 -->
<g id="edge4" class="edge">
<title>Node9&#45;&gt;Node10</title>
<path fill="none" stroke="midnightblue" d="M177.72,-150.35C168.05,-149.23 158.39,-148.11 149.09,-147.03"/>
<polygon fill="midnightblue" stroke="midnightblue" points="177.45,-153.84 187.78,-151.52 178.25,-146.89 177.45,-153.84"/>
</g>
<!-- Node12&#45;&gt;Node10 -->
<g id="edge6" class="edge">
<title>Node12&#45;&gt;Node10</title>
<path fill="none" stroke="midnightblue" d="M174.68,-126.52C166.1,-127.56 157.55,-128.59 149.29,-129.59"/>
<polygon fill="midnightblue" stroke="midnightblue" points="175.25,-129.98 184.76,-125.3 174.41,-123.03 175.25,-129.98"/>
</g>
<!-- Node14 -->
<g id="node8" class="node">
<title>Node14</title>
<g id="a_node8"><a xlink:href="../../d4/d62/namespaceleanux_1_1tools_1_1lard.html#a6de74bbef1d571bf7eb000e62900a11d" target="_top" xlink:title=" ">
<polygon fill="none" stroke="red" points="22.5,-25.5 22.5,-55.5 126.5,-55.5 126.5,-25.5 22.5,-25.5"/>
<text text-anchor="start" x="30.5" y="-43.5" font-family="Helvetica,sans-Serif" font-size="10.00">leanux::tools::lard</text>
<text text-anchor="middle" x="74.5" y="-32.5" font-family="Helvetica,sans-Serif" font-size="10.00">::mainLoop</text>
</a>
</g>
</g>
<!-- Node13&#45;&gt;Node14 -->
<g id="edge8" class="edge">
<title>Node13&#45;&gt;Node14</title>
<path fill="none" stroke="midnightblue" d="M214.86,-56.66C186.11,-53.32 153.15,-49.5 126.51,-46.41"/>
<polygon fill="midnightblue" stroke="midnightblue" points="214.5,-60.14 224.84,-57.81 215.31,-53.19 214.5,-60.14"/>
</g>
<!-- Node17&#45;&gt;Node14 -->
<g id="edge10" class="edge">
<title>Node17&#45;&gt;Node14</title>
<path fill="none" stroke="midnightblue" d="M207.17,-24.6C180.39,-27.83 150.89,-31.4 126.61,-34.33"/>
<polygon fill="midnightblue" stroke="midnightblue" points="207.78,-28.05 217.29,-23.38 206.94,-21.1 207.78,-28.05"/>
</g>
</g>
</svg>
