<?xml version="1.0" encoding="UTF-8" standalone="no"?>
<!DOCTYPE svg PUBLIC "-//W3C//DTD SVG 1.1//EN"
 "http://www.w3.org/Graphics/SVG/1.1/DTD/svg11.dtd">
<!-- Generated by graphviz version 2.43.0 (0)
 -->
<!-- Title: leanux::sysdevice::NVMePartition::getPropertyValueList Pages: 1 -->
<svg width="555pt" height="312pt"
 viewBox="0.00 0.00 555.00 312.00" xmlns="http://www.w3.org/2000/svg" xmlns:xlink="http://www.w3.org/1999/xlink">
<g id="graph0" class="graph" transform="scale(1 1) rotate(0) translate(4 308)">
<title>leanux::sysdevice::NVMePartition::getPropertyValueList</title>
<!-- Node1 -->
<g id="node1" class="node">
<title>Node1</title>
<g id="a_node1"><a xlink:title=" ">
<polygon fill="#bfbfbf" stroke="black" points="0,-194 0,-235 149,-235 149,-194 0,-194"/>
<text text-anchor="start" x="8" y="-223" font-family="Helvetica,sans-Serif" font-size="10.00">leanux::sysdevice::</text>
<text text-anchor="start" x="8" y="-212" font-family="Helvetica,sans-Serif" font-size="10.00">NVMePartition::getProperty</text>
<text text-anchor="middle" x="74.5" y="-201" font-family="Helvetica,sans-Serif" font-size="10.00">ValueList</text>
</a>
</g>
</g>
<!-- Node2 -->
<g id="node2" class="node">
<title>Node2</title>
<g id="a_node2"><a xlink:href="../../d8/db1/namespaceleanux_1_1util.html#a979843e3d99f053101f902ec38985833" target="_top" xlink:title="convert a byte value to pretty print string.">
<polygon fill="none" stroke="black" points="216,-274 216,-293 329,-293 329,-274 216,-274"/>
<text text-anchor="middle" x="272.5" y="-281" font-family="Helvetica,sans-Serif" font-size="10.00">leanux::util::ByteStr</text>
</a>
</g>
</g>
<!-- Node1&#45;&gt;Node2 -->
<g id="edge1" class="edge">
<title>Node1&#45;&gt;Node2</title>
<path fill="none" stroke="midnightblue" d="M115.24,-235.12C135.67,-245.07 161.21,-256.56 185,-264.5 192.86,-267.13 201.25,-269.49 209.59,-271.58"/>
<polygon fill="midnightblue" stroke="midnightblue" points="208.79,-274.99 219.33,-273.91 210.42,-268.18 208.79,-274.99"/>
</g>
<!-- Node3 -->
<g id="node3" class="node">
<title>Node3</title>
<g id="a_node3"><a xlink:href="../../d7/d28/classleanux_1_1block_1_1MajorMinor.html#a53428887ee9d78196b265e624087ce2b" target="_top" xlink:title="get a list of device aliases, returned as full paths.">
<polygon fill="none" stroke="black" points="201,-224.5 201,-254.5 344,-254.5 344,-224.5 201,-224.5"/>
<text text-anchor="start" x="209" y="-242.5" font-family="Helvetica,sans-Serif" font-size="10.00">leanux::block::MajorMinor</text>
<text text-anchor="middle" x="272.5" y="-231.5" font-family="Helvetica,sans-Serif" font-size="10.00">::getAliases</text>
</a>
</g>
</g>
<!-- Node1&#45;&gt;Node3 -->
<g id="edge2" class="edge">
<title>Node1&#45;&gt;Node3</title>
<path fill="none" stroke="midnightblue" d="M149.04,-223.88C162.68,-225.62 176.99,-227.44 190.82,-229.21"/>
<polygon fill="midnightblue" stroke="midnightblue" points="190.43,-232.69 200.8,-230.48 191.32,-225.74 190.43,-232.69"/>
</g>
<!-- Node10 -->
<g id="node6" class="node">
<title>Node10</title>
<g id="a_node6"><a xlink:href="../../d2/d31/classleanux_1_1sysdevice_1_1BlockDevice.html#aaed715a73aad1b5f05aaad7906c9ea57" target="_top" xlink:title=" ">
<polygon fill="none" stroke="black" points="195,-175.5 195,-205.5 350,-205.5 350,-175.5 195,-175.5"/>
<text text-anchor="start" x="203" y="-193.5" font-family="Helvetica,sans-Serif" font-size="10.00">leanux::sysdevice::</text>
<text text-anchor="middle" x="272.5" y="-182.5" font-family="Helvetica,sans-Serif" font-size="10.00">BlockDevice::getMajorMinor</text>
</a>
</g>
</g>
<!-- Node1&#45;&gt;Node10 -->
<g id="edge5" class="edge">
<title>Node1&#45;&gt;Node10</title>
<path fill="none" stroke="midnightblue" d="M149.04,-205.5C160.75,-204.06 172.96,-202.57 184.94,-201.1"/>
<polygon fill="midnightblue" stroke="midnightblue" points="185.43,-204.57 194.93,-199.88 184.58,-197.62 185.43,-204.57"/>
</g>
<!-- Node13 -->
<g id="node9" class="node">
<title>Node13</title>
<g id="a_node9"><a xlink:href="../../d1/d02/classleanux_1_1sysdevice_1_1SysDevice.html#ae45d4c50b05a48b480911a1aaeaeacc1" target="_top" xlink:title=" ">
<polygon fill="none" stroke="black" points="185,-74.5 185,-104.5 360,-104.5 360,-74.5 185,-74.5"/>
<text text-anchor="start" x="193" y="-92.5" font-family="Helvetica,sans-Serif" font-size="10.00">leanux::sysdevice::</text>
<text text-anchor="middle" x="272.5" y="-81.5" font-family="Helvetica,sans-Serif" font-size="10.00">SysDevice::getPropertyValueList</text>
</a>
</g>
</g>
<!-- Node1&#45;&gt;Node13 -->
<g id="edge8" class="edge">
<title>Node1&#45;&gt;Node13</title>
<path fill="none" stroke="midnightblue" d="M107.87,-193.86C144.15,-170.72 202.65,-133.41 238.99,-110.23"/>
<polygon fill="midnightblue" stroke="midnightblue" points="241.18,-112.99 247.73,-104.66 237.42,-107.09 241.18,-112.99"/>
</g>
<!-- Node4 -->
<g id="node4" class="node">
<title>Node4</title>
<g id="a_node4"><a xlink:href="../../d7/d28/classleanux_1_1block_1_1MajorMinor.html#a8fa26dbc85f683ed73fcec3a2db42821" target="_top" xlink:title="return the MajorMinor dev_t.">
<polygon fill="none" stroke="black" points="400,-273.5 400,-303.5 543,-303.5 543,-273.5 400,-273.5"/>
<text text-anchor="start" x="408" y="-291.5" font-family="Helvetica,sans-Serif" font-size="10.00">leanux::block::MajorMinor</text>
<text text-anchor="middle" x="471.5" y="-280.5" font-family="Helvetica,sans-Serif" font-size="10.00">::getDevT</text>
</a>
</g>
</g>
<!-- Node3&#45;&gt;Node4 -->
<g id="edge3" class="edge">
<title>Node3&#45;&gt;Node4</title>
<path fill="none" stroke="midnightblue" d="M333.95,-254.53C354.93,-259.76 378.65,-265.65 400.35,-271.05"/>
<polygon fill="midnightblue" stroke="midnightblue" points="399.62,-274.48 410.17,-273.49 401.31,-267.68 399.62,-274.48"/>
</g>
<!-- Node5 -->
<g id="node5" class="node">
<title>Node5</title>
<g id="a_node5"><a xlink:href="../../d7/d28/classleanux_1_1block_1_1MajorMinor.html#a7ef43192321c82d296575f35b69c52d4" target="_top" xlink:title="Get the udev path for the device.">
<polygon fill="none" stroke="red" points="400,-224.5 400,-254.5 543,-254.5 543,-224.5 400,-224.5"/>
<text text-anchor="start" x="408" y="-242.5" font-family="Helvetica,sans-Serif" font-size="10.00">leanux::block::MajorMinor</text>
<text text-anchor="middle" x="471.5" y="-231.5" font-family="Helvetica,sans-Serif" font-size="10.00">::getUDevPath</text>
</a>
</g>
</g>
<!-- Node3&#45;&gt;Node5 -->
<g id="edge4" class="edge">
<title>Node3&#45;&gt;Node5</title>
<path fill="none" stroke="midnightblue" d="M344.07,-239.5C358.78,-239.5 374.39,-239.5 389.45,-239.5"/>
<polygon fill="midnightblue" stroke="midnightblue" points="389.77,-243 399.77,-239.5 389.77,-236 389.77,-243"/>
</g>
<!-- Node11 -->
<g id="node7" class="node">
<title>Node11</title>
<g id="a_node7"><a xlink:href="../../d8/db1/namespaceleanux_1_1util.html#a6421ca2c46c56eebe1a486c6a498ce7d" target="_top" xlink:title="Test if a file exists and can be read.">
<polygon fill="none" stroke="black" points="396,-186 396,-205 547,-205 547,-186 396,-186"/>
<text text-anchor="middle" x="471.5" y="-193" font-family="Helvetica,sans-Serif" font-size="10.00">leanux::util::fileReadAccess</text>
</a>
</g>
</g>
<!-- Node10&#45;&gt;Node11 -->
<g id="edge6" class="edge">
<title>Node10&#45;&gt;Node11</title>
<path fill="none" stroke="midnightblue" d="M350.23,-192.45C361.84,-192.74 373.88,-193.05 385.66,-193.35"/>
<polygon fill="midnightblue" stroke="midnightblue" points="385.83,-196.85 395.92,-193.61 386.01,-189.85 385.83,-196.85"/>
</g>
<!-- Node12 -->
<g id="node8" class="node">
<title>Node12</title>
<g id="a_node8"><a xlink:href="../../d8/db1/namespaceleanux_1_1util.html#a57bfd49353610b3d0b6d121b264c676e" target="_top" xlink:title="read the file as a single string.">
<polygon fill="none" stroke="black" points="398.5,-148 398.5,-167 544.5,-167 544.5,-148 398.5,-148"/>
<text text-anchor="middle" x="471.5" y="-155" font-family="Helvetica,sans-Serif" font-size="10.00">leanux::util::fileReadString</text>
</a>
</g>
</g>
<!-- Node10&#45;&gt;Node12 -->
<g id="edge7" class="edge">
<title>Node10&#45;&gt;Node12</title>
<path fill="none" stroke="midnightblue" d="M350.23,-177.65C367.84,-174.7 386.43,-171.58 403.59,-168.71"/>
<polygon fill="midnightblue" stroke="midnightblue" points="404.22,-172.15 413.5,-167.05 403.06,-165.25 404.22,-172.15"/>
</g>
<!-- Node14 -->
<g id="node10" class="node">
<title>Node14</title>
<g id="a_node10"><a xlink:href="../../d1/d02/classleanux_1_1sysdevice_1_1SysDevice.html#af93bf56dfb812cdfa443dcfaffcbbb25" target="_top" xlink:title="Get the device class for this device.">
<polygon fill="none" stroke="black" points="413.5,-98.5 413.5,-128.5 529.5,-128.5 529.5,-98.5 413.5,-98.5"/>
<text text-anchor="start" x="421.5" y="-116.5" font-family="Helvetica,sans-Serif" font-size="10.00">leanux::sysdevice::</text>
<text text-anchor="middle" x="471.5" y="-105.5" font-family="Helvetica,sans-Serif" font-size="10.00">SysDevice::getClass</text>
</a>
</g>
</g>
<!-- Node13&#45;&gt;Node14 -->
<g id="edge9" class="edge">
<title>Node13&#45;&gt;Node14</title>
<path fill="none" stroke="midnightblue" d="M360.19,-100.06C374.51,-101.81 389.16,-103.59 402.91,-105.27"/>
<polygon fill="midnightblue" stroke="midnightblue" points="402.89,-108.79 413.24,-106.52 403.73,-101.84 402.89,-108.79"/>
</g>
<!-- Node15 -->
<g id="node11" class="node">
<title>Node15</title>
<g id="a_node11"><a xlink:href="../../d1/d02/classleanux_1_1sysdevice_1_1SysDevice.html#af7a1af7a4b7729e150cceed395e4425b" target="_top" xlink:title="Get the driver for this device.">
<polygon fill="none" stroke="red" points="412,-49.5 412,-79.5 531,-79.5 531,-49.5 412,-49.5"/>
<text text-anchor="start" x="420" y="-67.5" font-family="Helvetica,sans-Serif" font-size="10.00">leanux::sysdevice::</text>
<text text-anchor="middle" x="471.5" y="-56.5" font-family="Helvetica,sans-Serif" font-size="10.00">SysDevice::getDriver</text>
</a>
</g>
</g>
<!-- Node13&#45;&gt;Node15 -->
<g id="edge10" class="edge">
<title>Node13&#45;&gt;Node15</title>
<path fill="none" stroke="midnightblue" d="M360.19,-78.5C374.1,-76.73 388.32,-74.93 401.73,-73.23"/>
<polygon fill="midnightblue" stroke="midnightblue" points="402.32,-76.68 411.8,-71.95 401.44,-69.74 402.32,-76.68"/>
</g>
<!-- Node17 -->
<g id="node12" class="node">
<title>Node17</title>
<g id="a_node12"><a xlink:href="../../d1/d02/classleanux_1_1sysdevice_1_1SysDevice.html#a899968c4a70ecad67694f6850cf730fd" target="_top" xlink:title="Get a string representation for the SysDeviceType.">
<polygon fill="none" stroke="black" points="409,-0.5 409,-30.5 534,-30.5 534,-0.5 409,-0.5"/>
<text text-anchor="start" x="417" y="-18.5" font-family="Helvetica,sans-Serif" font-size="10.00">leanux::sysdevice::</text>
<text text-anchor="middle" x="471.5" y="-7.5" font-family="Helvetica,sans-Serif" font-size="10.00">SysDevice::getTypeStr</text>
</a>
</g>
</g>
<!-- Node13&#45;&gt;Node17 -->
<g id="edge11" class="edge">
<title>Node13&#45;&gt;Node17</title>
<path fill="none" stroke="midnightblue" d="M308.34,-74.46C332.71,-64.14 366.11,-50.4 396,-39.5 401.19,-37.61 406.6,-35.71 412.05,-33.86"/>
<polygon fill="midnightblue" stroke="midnightblue" points="413.45,-37.08 421.83,-30.59 411.23,-30.44 413.45,-37.08"/>
</g>
</g>
</svg>
