<?xml version="1.0" encoding="UTF-8" standalone="no"?>
<!DOCTYPE svg PUBLIC "-//W3C//DTD SVG 1.1//EN"
 "http://www.w3.org/Graphics/SVG/1.1/DTD/svg11.dtd">
<!-- Generated by graphviz version 2.43.0 (0)
 -->
<!-- Title: leanux::sysdevice::NVMePartition::accept Pages: 1 -->
<svg width="459pt" height="127pt"
 viewBox="0.00 0.00 459.00 127.00" xmlns="http://www.w3.org/2000/svg" xmlns:xlink="http://www.w3.org/1999/xlink">
<g id="graph0" class="graph" transform="scale(1 1) rotate(0) translate(4 123)">
<title>leanux::sysdevice::NVMePartition::accept</title>
<!-- Node1 -->
<g id="node1" class="node">
<title>Node1</title>
<g id="a_node1"><a xlink:title="Return true if the SysDevice recognizes itself in the trailing part of path.">
<polygon fill="#bfbfbf" stroke="black" points="0,-44.5 0,-74.5 125,-74.5 125,-44.5 0,-44.5"/>
<text text-anchor="start" x="8" y="-62.5" font-family="Helvetica,sans-Serif" font-size="10.00">leanux::sysdevice::</text>
<text text-anchor="middle" x="62.5" y="-51.5" font-family="Helvetica,sans-Serif" font-size="10.00">NVMePartition::accept</text>
</a>
</g>
</g>
<!-- Node2 -->
<g id="node2" class="node">
<title>Node2</title>
<g id="a_node2"><a xlink:href="../../df/d3f/classleanux_1_1util_1_1RegExp.html#a8acc45eb950f504e1b224e10313364de" target="_top" xlink:title=" ">
<polygon fill="none" stroke="black" points="171.5,-88.5 171.5,-118.5 285.5,-118.5 285.5,-88.5 171.5,-88.5"/>
<text text-anchor="start" x="179.5" y="-106.5" font-family="Helvetica,sans-Serif" font-size="10.00">leanux::util::RegExp</text>
<text text-anchor="middle" x="228.5" y="-95.5" font-family="Helvetica,sans-Serif" font-size="10.00">::match</text>
</a>
</g>
</g>
<!-- Node1&#45;&gt;Node2 -->
<g id="edge1" class="edge">
<title>Node1&#45;&gt;Node2</title>
<path fill="none" stroke="midnightblue" d="M119.48,-74.52C133,-78.15 147.56,-82.05 161.49,-85.79"/>
<polygon fill="midnightblue" stroke="midnightblue" points="160.93,-89.26 171.49,-88.47 162.74,-82.5 160.93,-89.26"/>
</g>
<!-- Node3 -->
<g id="node3" class="node">
<title>Node3</title>
<g id="a_node3"><a xlink:href="../../df/d3f/classleanux_1_1util_1_1RegExp.html#ad478a08e79f94ea2c48de6298c6e1178" target="_top" xlink:title=" ">
<polygon fill="none" stroke="black" points="161,-50 161,-69 296,-69 296,-50 161,-50"/>
<text text-anchor="middle" x="228.5" y="-57" font-family="Helvetica,sans-Serif" font-size="10.00">leanux::util::RegExp::set</text>
</a>
</g>
</g>
<!-- Node1&#45;&gt;Node3 -->
<g id="edge2" class="edge">
<title>Node1&#45;&gt;Node3</title>
<path fill="none" stroke="midnightblue" d="M125.03,-59.5C133.46,-59.5 142.2,-59.5 150.85,-59.5"/>
<polygon fill="midnightblue" stroke="midnightblue" points="150.95,-63 160.95,-59.5 150.95,-56 150.95,-63"/>
</g>
<!-- Node4 -->
<g id="node4" class="node">
<title>Node4</title>
<g id="a_node4"><a xlink:href="../../d1/d02/classleanux_1_1sysdevice_1_1SysDevice.html#abc35fc5f51e73156ebd1a8b707c960b2" target="_top" xlink:title="Transform a SysDevicePath into a list of tokens in reverse order.">
<polygon fill="none" stroke="black" points="171,-0.5 171,-30.5 286,-30.5 286,-0.5 171,-0.5"/>
<text text-anchor="start" x="179" y="-18.5" font-family="Helvetica,sans-Serif" font-size="10.00">leanux::sysdevice::</text>
<text text-anchor="middle" x="228.5" y="-7.5" font-family="Helvetica,sans-Serif" font-size="10.00">SysDevice::tokenize</text>
</a>
</g>
</g>
<!-- Node1&#45;&gt;Node4 -->
<g id="edge3" class="edge">
<title>Node1&#45;&gt;Node4</title>
<path fill="none" stroke="midnightblue" d="M119.48,-44.48C133,-40.85 147.56,-36.95 161.49,-33.21"/>
<polygon fill="midnightblue" stroke="midnightblue" points="162.74,-36.5 171.49,-30.53 160.93,-29.74 162.74,-36.5"/>
</g>
<!-- Node5 -->
<g id="node5" class="node">
<title>Node5</title>
<g id="a_node5"><a xlink:href="../../d8/db1/namespaceleanux_1_1util.html#a3b691a56e21c20628e956b8ec995d53f" target="_top" xlink:title=" ">
<polygon fill="none" stroke="black" points="332,-6 332,-25 451,-25 451,-6 332,-6"/>
<text text-anchor="middle" x="391.5" y="-13" font-family="Helvetica,sans-Serif" font-size="10.00">leanux::util::tokenize</text>
</a>
</g>
</g>
<!-- Node4&#45;&gt;Node5 -->
<g id="edge4" class="edge">
<title>Node4&#45;&gt;Node5</title>
<path fill="none" stroke="midnightblue" d="M286.26,-15.5C297.68,-15.5 309.79,-15.5 321.56,-15.5"/>
<polygon fill="midnightblue" stroke="midnightblue" points="321.8,-19 331.8,-15.5 321.8,-12 321.8,-19"/>
</g>
</g>
</svg>
